<svg xmlns="http://www.w3.org/2000/svg" viewBox="0 0 3174 171">
<style>
.label { font: 14px Helvetica; dominant-baseline: middle; text-anchor: middle; }
.title-left { font: 12px Helvetica; dominant-baseline: middle; }
.title-right { font: 12px Helvetica; dominant-baseline: middle; text-anchor: end; }
.title-intrinsic { font: 12px Helvetica; dominant-baseline: middle; text-anchor: middle; fill: #6778ED; }
.title { font: 12px Helvetica; dominant-baseline: middle; text-anchor: middle; }
.title-unused { font: 12px Helvetica; dominant-baseline: middle; text-anchor: middle; fill: #AAA; }
.register-name { font: 14px Helvetica; dominant-baseline: middle; text-anchor: end; font-style: italic; }
.memory-name { font: 14px Helvetica; dominant-baseline: middle; text-anchor: end; }
.register-number { font: 14px Helvetica; dominant-baseline: middle; text-anchor: start; }
.intrinsic-name { font: 14px Helvetica; dominant-baseline: middle; text-anchor: end; fill: #6778ED; }
.intrinsic-color { fill: #6778ED; }
.small-label { font: 12px Helvetica; dominant-baseline: middle; text-anchor: middle; }
.label-10px { font: 10px Helvetica; dominant-baseline: middle; text-anchor: middle; }
.smaller-label { font: 9px Helvetica; dominant-baseline: middle; text-anchor: middle; }
.label-6px { font: 6px Helvetica; dominant-baseline: middle; text-anchor: middle; }
.label-7px { font: 7px Helvetica; dominant-baseline: middle; text-anchor: middle; }
.unused { fill: #AAA; }
.dim { fill: #888; }
</style>
<defs>
<marker id="arrowhead" markerWidth="10.75" markerHeight="24.5" refX="9.0" refY="6.125" orient="auto">
<polyline points="0.5 0.5, 8.75 6.125, 0.5 11.75" stroke="#567DB6" stroke-width="1" fill="none"/>
</marker>
</defs>
<line stroke="#567DB6" stroke-width="1" x1="3070.203125" x2="3062.796875" y1="43.5" y2="65.5" />
<line stroke="#567DB6" stroke-width="1" x1="2878.203125" x2="2870.796875" y1="43.5" y2="65.5" />
<line stroke="#567DB6" stroke-width="1" x1="2686.203125" x2="2678.796875" y1="43.5" y2="65.5" />
<line stroke="#567DB6" stroke-width="1" x1="2494.203125" x2="2486.796875" y1="43.5" y2="65.5" />
<line stroke="#567DB6" stroke-width="1" x1="2302.203125" x2="2294.796875" y1="43.5" y2="65.5" />
<line stroke="#567DB6" stroke-width="1" x1="2110.203125" x2="2102.796875" y1="43.5" y2="65.5" />
<line stroke="#567DB6" stroke-width="1" x1="1918.203125" x2="1910.796875" y1="43.5" y2="65.5" />
<line stroke="#567DB6" stroke-width="1" x1="1726.203125" x2="1718.796875" y1="43.5" y2="65.5" />
<line stroke="#567DB6" stroke-width="1" x1="1534.203125" x2="1526.796875" y1="43.5" y2="65.5" />
<line stroke="#567DB6" stroke-width="1" x1="1342.203125" x2="1334.796875" y1="43.5" y2="65.5" />
<line stroke="#567DB6" stroke-width="1" x1="1150.203125" x2="1142.796875" y1="43.5" y2="65.5" />
<line stroke="#567DB6" stroke-width="1" x1="958.203125" x2="950.796875" y1="43.5" y2="65.5" />
<line stroke="#567DB6" stroke-width="1" x1="766.203125" x2="758.796875" y1="43.5" y2="65.5" />
<line stroke="#567DB6" stroke-width="1" x1="574.203125" x2="566.796875" y1="43.5" y2="65.5" />
<line stroke="#567DB6" stroke-width="1" x1="382.203125" x2="374.796875" y1="43.5" y2="65.5" />
<line stroke="#567DB6" stroke-width="1" x1="190.203125" x2="182.796875" y1="43.5" y2="65.5" />
<line stroke="#567DB6" stroke-width="1" x1="3066.5" x2="3066.5" y1="91.5" y2="137" />
<line stroke="#567DB6" stroke-width="1" x1="2874.5" x2="2874.5" y1="91.5" y2="137" />
<line stroke="#567DB6" stroke-width="1" x1="2682.5" x2="2682.5" y1="91.5" y2="137" />
<line stroke="#567DB6" stroke-width="1" x1="2490.5" x2="2490.5" y1="91.5" y2="137" />
<line stroke="#567DB6" stroke-width="1" x1="2298.5" x2="2298.5" y1="91.5" y2="137" />
<line stroke="#567DB6" stroke-width="1" x1="2106.5" x2="2106.5" y1="91.5" y2="137" />
<line stroke="#567DB6" stroke-width="1" x1="1914.5" x2="1914.5" y1="91.5" y2="137" />
<line stroke="#567DB6" stroke-width="1" x1="1722.5" x2="1722.5" y1="91.5" y2="137" />
<line stroke="#567DB6" stroke-width="1" x1="1530.5" x2="1530.5" y1="91.5" y2="137" />
<line stroke="#567DB6" stroke-width="1" x1="1338.5" x2="1338.5" y1="91.5" y2="137" />
<line stroke="#567DB6" stroke-width="1" x1="1146.5" x2="1146.5" y1="91.5" y2="137" />
<line stroke="#567DB6" stroke-width="1" x1="954.5" x2="954.5" y1="91.5" y2="137" />
<line stroke="#567DB6" stroke-width="1" x1="762.5" x2="762.5" y1="91.5" y2="137" />
<line stroke="#567DB6" stroke-width="1" x1="570.5" x2="570.5" y1="91.5" y2="137" />
<line stroke="#567DB6" stroke-width="1" x1="378.5" x2="378.5" y1="91.5" y2="137" />
<line stroke="#567DB6" stroke-width="1" x1="186.5" x2="186.5" y1="91.5" y2="137" />
<text class="title-left" x="90.5" y="9.5">upper</text>
<text class="title-right" x="3162.5" y="9.5">lower</text>
<rect fill="#DEE6F1" height="24" width="192" x="2970.5" y="66.5" />
<rect fill="#DEE6F1" height="24" width="184.59375" x="2970.5" y="66.5" />
<rect fill="none" height="24" stroke="#405C86" stroke-width="3" width="192" x="2970.5" y="66.5" />
<rect fill="#DEE6F1" height="24" width="192" x="2778.5" y="66.5" />
<rect fill="#DEE6F1" height="24" width="184.59375" x="2778.5" y="66.5" />
<rect fill="none" height="24" stroke="#405C86" stroke-width="3" width="192" x="2778.5" y="66.5" />
<rect fill="#DEE6F1" height="24" width="192" x="2586.5" y="66.5" />
<rect fill="#DEE6F1" height="24" width="184.59375" x="2586.5" y="66.5" />
<rect fill="none" height="24" stroke="#405C86" stroke-width="3" width="192" x="2586.5" y="66.5" />
<rect fill="#DEE6F1" height="24" width="192" x="2394.5" y="66.5" />
<rect fill="#DEE6F1" height="24" width="184.59375" x="2394.5" y="66.5" />
<rect fill="none" height="24" stroke="#405C86" stroke-width="3" width="192" x="2394.5" y="66.5" />
<rect fill="#DEE6F1" height="24" width="192" x="2202.5" y="66.5" />
<rect fill="#DEE6F1" height="24" width="184.59375" x="2202.5" y="66.5" />
<rect fill="none" height="24" stroke="#405C86" stroke-width="3" width="192" x="2202.5" y="66.5" />
<rect fill="#DEE6F1" height="24" width="192" x="2010.5" y="66.5" />
<rect fill="#DEE6F1" height="24" width="184.59375" x="2010.5" y="66.5" />
<rect fill="none" height="24" stroke="#405C86" stroke-width="3" width="192" x="2010.5" y="66.5" />
<rect fill="#DEE6F1" height="24" width="192" x="1818.5" y="66.5" />
<rect fill="#DEE6F1" height="24" width="184.59375" x="1818.5" y="66.5" />
<rect fill="none" height="24" stroke="#405C86" stroke-width="3" width="192" x="1818.5" y="66.5" />
<rect fill="#DEE6F1" height="24" width="192" x="1626.5" y="66.5" />
<rect fill="#DEE6F1" height="24" width="184.59375" x="1626.5" y="66.5" />
<rect fill="none" height="24" stroke="#405C86" stroke-width="3" width="192" x="1626.5" y="66.5" />
<rect fill="#DEE6F1" height="24" width="192" x="1434.5" y="66.5" />
<rect fill="#DEE6F1" height="24" width="184.59375" x="1434.5" y="66.5" />
<rect fill="none" height="24" stroke="#405C86" stroke-width="3" width="192" x="1434.5" y="66.5" />
<rect fill="#DEE6F1" height="24" width="192" x="1242.5" y="66.5" />
<rect fill="#DEE6F1" height="24" width="184.59375" x="1242.5" y="66.5" />
<rect fill="none" height="24" stroke="#405C86" stroke-width="3" width="192" x="1242.5" y="66.5" />
<rect fill="#DEE6F1" height="24" width="192" x="1050.5" y="66.5" />
<rect fill="#DEE6F1" height="24" width="184.59375" x="1050.5" y="66.5" />
<rect fill="none" height="24" stroke="#405C86" stroke-width="3" width="192" x="1050.5" y="66.5" />
<rect fill="#DEE6F1" height="24" width="192" x="858.5" y="66.5" />
<rect fill="#DEE6F1" height="24" width="184.59375" x="858.5" y="66.5" />
<rect fill="none" height="24" stroke="#405C86" stroke-width="3" width="192" x="858.5" y="66.5" />
<rect fill="#DEE6F1" height="24" width="192" x="666.5" y="66.5" />
<rect fill="#DEE6F1" height="24" width="184.59375" x="666.5" y="66.5" />
<rect fill="none" height="24" stroke="#405C86" stroke-width="3" width="192" x="666.5" y="66.5" />
<rect fill="#DEE6F1" height="24" width="192" x="474.5" y="66.5" />
<rect fill="#DEE6F1" height="24" width="184.59375" x="474.5" y="66.5" />
<rect fill="none" height="24" stroke="#405C86" stroke-width="3" width="192" x="474.5" y="66.5" />
<rect fill="#DEE6F1" height="24" width="192" x="282.5" y="66.5" />
<rect fill="#DEE6F1" height="24" width="184.59375" x="282.5" y="66.5" />
<rect fill="none" height="24" stroke="#405C86" stroke-width="3" width="192" x="282.5" y="66.5" />
<rect fill="#DEE6F1" height="24" width="192" x="90.5" y="66.5" />
<rect fill="#DEE6F1" height="24" width="184.59375" x="90.5" y="66.5" />
<rect fill="none" height="24" stroke="#405C86" stroke-width="3" width="192" x="90.5" y="66.5" />
<text class="register-name" x="80.5" y="78.5">Zn</text>
<text class="intrinsic-name" x="80.5" y="90.5">bases</text>
<text class="register-number" x="10" y="78.5">(2)</text>
<rect fill="#DEE6F1" height="24" width="184.59375" x="2977.90625" y="18.5" />
<rect fill="none" height="24" stroke="#405C86" stroke-width="3" width="192" x="2970.5" y="18.5" />
<rect fill="#DEE6F1" height="24" width="184.59375" x="2785.90625" y="18.5" />
<rect fill="none" height="24" stroke="#405C86" stroke-width="3" width="192" x="2778.5" y="18.5" />
<rect fill="#DEE6F1" height="24" width="184.59375" x="2593.90625" y="18.5" />
<rect fill="none" height="24" stroke="#405C86" stroke-width="3" width="192" x="2586.5" y="18.5" />
<rect fill="#DEE6F1" height="24" width="184.59375" x="2401.90625" y="18.5" />
<rect fill="none" height="24" stroke="#405C86" stroke-width="3" width="192" x="2394.5" y="18.5" />
<rect fill="#DEE6F1" height="24" width="184.59375" x="2209.90625" y="18.5" />
<rect fill="none" height="24" stroke="#405C86" stroke-width="3" width="192" x="2202.5" y="18.5" />
<rect fill="#DEE6F1" height="24" width="184.59375" x="2017.90625" y="18.5" />
<rect fill="none" height="24" stroke="#405C86" stroke-width="3" width="192" x="2010.5" y="18.5" />
<rect fill="#DEE6F1" height="24" width="184.59375" x="1825.90625" y="18.5" />
<rect fill="none" height="24" stroke="#405C86" stroke-width="3" width="192" x="1818.5" y="18.5" />
<rect fill="#DEE6F1" height="24" width="184.59375" x="1633.90625" y="18.5" />
<rect fill="none" height="24" stroke="#405C86" stroke-width="3" width="192" x="1626.5" y="18.5" />
<rect fill="#DEE6F1" height="24" width="184.59375" x="1441.90625" y="18.5" />
<rect fill="none" height="24" stroke="#405C86" stroke-width="3" width="192" x="1434.5" y="18.5" />
<rect fill="#DEE6F1" height="24" width="184.59375" x="1249.90625" y="18.5" />
<rect fill="none" height="24" stroke="#405C86" stroke-width="3" width="192" x="1242.5" y="18.5" />
<rect fill="#DEE6F1" height="24" width="184.59375" x="1057.90625" y="18.5" />
<rect fill="none" height="24" stroke="#405C86" stroke-width="3" width="192" x="1050.5" y="18.5" />
<rect fill="#DEE6F1" height="24" width="184.59375" x="865.90625" y="18.5" />
<rect fill="none" height="24" stroke="#405C86" stroke-width="3" width="192" x="858.5" y="18.5" />
<rect fill="#DEE6F1" height="24" width="184.59375" x="673.90625" y="18.5" />
<rect fill="none" height="24" stroke="#405C86" stroke-width="3" width="192" x="666.5" y="18.5" />
<rect fill="#DEE6F1" height="24" width="184.59375" x="481.90625" y="18.5" />
<rect fill="none" height="24" stroke="#405C86" stroke-width="3" width="192" x="474.5" y="18.5" />
<rect fill="#DEE6F1" height="24" width="184.59375" x="289.90625" y="18.5" />
<rect fill="none" height="24" stroke="#405C86" stroke-width="3" width="192" x="282.5" y="18.5" />
<rect fill="#DEE6F1" height="24" width="184.59375" x="97.90625" y="18.5" />
<rect fill="none" height="24" stroke="#405C86" stroke-width="3" width="192" x="90.5" y="18.5" />
<text class="register-name" x="80.5" y="30.5">Zm</text>
<text class="intrinsic-name" x="80.5" y="42.5">offsets</text>
<text class="register-number" x="10" y="30.5">(1)</text>
<rect fill="#DEE6F1" height="24" width="192" x="2970.5" y="138.5" />
<rect fill="none" height="24" stroke="#405C86" stroke-width="3" width="192" x="2970.5" y="138.5" />
<rect fill="#DEE6F1" height="24" width="192" x="2778.5" y="138.5" />
<rect fill="none" height="24" stroke="#405C86" stroke-width="3" width="192" x="2778.5" y="138.5" />
<rect fill="#DEE6F1" height="24" width="192" x="2586.5" y="138.5" />
<rect fill="none" height="24" stroke="#405C86" stroke-width="3" width="192" x="2586.5" y="138.5" />
<rect fill="#DEE6F1" height="24" width="192" x="2394.5" y="138.5" />
<rect fill="none" height="24" stroke="#405C86" stroke-width="3" width="192" x="2394.5" y="138.5" />
<rect fill="#DEE6F1" height="24" width="192" x="2202.5" y="138.5" />
<rect fill="none" height="24" stroke="#405C86" stroke-width="3" width="192" x="2202.5" y="138.5" />
<rect fill="#DEE6F1" height="24" width="192" x="2010.5" y="138.5" />
<rect fill="none" height="24" stroke="#405C86" stroke-width="3" width="192" x="2010.5" y="138.5" />
<rect fill="#DEE6F1" height="24" width="192" x="1818.5" y="138.5" />
<rect fill="none" height="24" stroke="#405C86" stroke-width="3" width="192" x="1818.5" y="138.5" />
<rect fill="#DEE6F1" height="24" width="192" x="1626.5" y="138.5" />
<rect fill="none" height="24" stroke="#405C86" stroke-width="3" width="192" x="1626.5" y="138.5" />
<rect fill="#DEE6F1" height="24" width="192" x="1434.5" y="138.5" />
<rect fill="none" height="24" stroke="#405C86" stroke-width="3" width="192" x="1434.5" y="138.5" />
<rect fill="#DEE6F1" height="24" width="192" x="1242.5" y="138.5" />
<rect fill="none" height="24" stroke="#405C86" stroke-width="3" width="192" x="1242.5" y="138.5" />
<rect fill="#DEE6F1" height="24" width="192" x="1050.5" y="138.5" />
<rect fill="none" height="24" stroke="#405C86" stroke-width="3" width="192" x="1050.5" y="138.5" />
<rect fill="#DEE6F1" height="24" width="192" x="858.5" y="138.5" />
<rect fill="none" height="24" stroke="#405C86" stroke-width="3" width="192" x="858.5" y="138.5" />
<rect fill="#DEE6F1" height="24" width="192" x="666.5" y="138.5" />
<rect fill="none" height="24" stroke="#405C86" stroke-width="3" width="192" x="666.5" y="138.5" />
<rect fill="#DEE6F1" height="24" width="192" x="474.5" y="138.5" />
<rect fill="none" height="24" stroke="#405C86" stroke-width="3" width="192" x="474.5" y="138.5" />
<rect fill="#DEE6F1" height="24" width="192" x="282.5" y="138.5" />
<rect fill="none" height="24" stroke="#405C86" stroke-width="3" width="192" x="282.5" y="138.5" />
<rect fill="#DEE6F1" height="24" width="192" x="90.5" y="138.5" />
<rect fill="none" height="24" stroke="#405C86" stroke-width="3" width="192" x="90.5" y="138.5" />
<text class="register-name" x="80.5" y="150.5">Zd</text>
<text class="intrinsic-name" x="80.5" y="162.5">returns</text>
<text class="register-number" x="10" y="150.5">(3)</text>
<line marker-end="url(#arrowhead)" stroke="none" x1="3066.5" x2="3066.5" y1="91.5" y2="137" />
<line marker-end="url(#arrowhead)" stroke="none" x1="2874.5" x2="2874.5" y1="91.5" y2="137" />
<line marker-end="url(#arrowhead)" stroke="none" x1="2682.5" x2="2682.5" y1="91.5" y2="137" />
<line marker-end="url(#arrowhead)" stroke="none" x1="2490.5" x2="2490.5" y1="91.5" y2="137" />
<line marker-end="url(#arrowhead)" stroke="none" x1="2298.5" x2="2298.5" y1="91.5" y2="137" />
<line marker-end="url(#arrowhead)" stroke="none" x1="2106.5" x2="2106.5" y1="91.5" y2="137" />
<line marker-end="url(#arrowhead)" stroke="none" x1="1914.5" x2="1914.5" y1="91.5" y2="137" />
<line marker-end="url(#arrowhead)" stroke="none" x1="1722.5" x2="1722.5" y1="91.5" y2="137" />
<line marker-end="url(#arrowhead)" stroke="none" x1="1530.5" x2="1530.5" y1="91.5" y2="137" />
<line marker-end="url(#arrowhead)" stroke="none" x1="1338.5" x2="1338.5" y1="91.5" y2="137" />
<line marker-end="url(#arrowhead)" stroke="none" x1="1146.5" x2="1146.5" y1="91.5" y2="137" />
<line marker-end="url(#arrowhead)" stroke="none" x1="954.5" x2="954.5" y1="91.5" y2="137" />
<line marker-end="url(#arrowhead)" stroke="none" x1="762.5" x2="762.5" y1="91.5" y2="137" />
<line marker-end="url(#arrowhead)" stroke="none" x1="570.5" x2="570.5" y1="91.5" y2="137" />
<line marker-end="url(#arrowhead)" stroke="none" x1="378.5" x2="378.5" y1="91.5" y2="137" />
<line marker-end="url(#arrowhead)" stroke="none" x1="186.5" x2="186.5" y1="91.5" y2="137" />
</svg>