<svg xmlns="http://www.w3.org/2000/svg" viewBox="0 0 1638 219">
<style>
.label { font: 14px Helvetica; dominant-baseline: middle; text-anchor: middle; }
.title-left { font: 12px Helvetica; dominant-baseline: middle; }
.title-right { font: 12px Helvetica; dominant-baseline: middle; text-anchor: end; }
.title-intrinsic { font: 12px Helvetica; dominant-baseline: middle; text-anchor: middle; fill: #6778ED; }
.title { font: 12px Helvetica; dominant-baseline: middle; text-anchor: middle; }
.title-unused { font: 12px Helvetica; dominant-baseline: middle; text-anchor: middle; fill: #AAA; }
.register-name { font: 14px Helvetica; dominant-baseline: middle; text-anchor: end; font-style: italic; }
.memory-name { font: 14px Helvetica; dominant-baseline: middle; text-anchor: end; }
.register-number { font: 14px Helvetica; dominant-baseline: middle; text-anchor: start; }
.intrinsic-name { font: 14px Helvetica; dominant-baseline: middle; text-anchor: end; fill: #6778ED; }
.intrinsic-color { fill: #6778ED; }
.small-label { font: 12px Helvetica; dominant-baseline: middle; text-anchor: middle; }
.label-10px { font: 10px Helvetica; dominant-baseline: middle; text-anchor: middle; }
.smaller-label { font: 9px Helvetica; dominant-baseline: middle; text-anchor: middle; }
.label-6px { font: 6px Helvetica; dominant-baseline: middle; text-anchor: middle; }
.label-7px { font: 7px Helvetica; dominant-baseline: middle; text-anchor: middle; }
.unused { fill: #AAA; }
.dim { fill: #888; }
</style>
<defs>
<marker id="arrowhead" markerWidth="10.75" markerHeight="24.5" refX="9.0" refY="6.125" orient="auto">
<polyline points="0.5 0.5, 8.75 6.125, 0.5 11.75" stroke="#567DB6" stroke-width="1" fill="none"/>
</marker>
</defs>
<line stroke="#567DB6" stroke-width="1" x1="1530.5" x2="1521.640625" y1="43.5" y2="65.5" />
<line stroke="#567DB6" stroke-width="1" x1="1626.5" x2="1616.140625" y1="43.5" y2="65.5" />
<line stroke="#567DB6" stroke-width="1" x1="1338.5" x2="1329.640625" y1="43.5" y2="65.5" />
<line stroke="#567DB6" stroke-width="1" x1="1434.5" x2="1424.140625" y1="43.5" y2="65.5" />
<line stroke="#567DB6" stroke-width="1" x1="1146.5" x2="1137.640625" y1="43.5" y2="65.5" />
<line stroke="#567DB6" stroke-width="1" x1="1242.5" x2="1232.140625" y1="43.5" y2="65.5" />
<line stroke="#567DB6" stroke-width="1" x1="954.5" x2="945.640625" y1="43.5" y2="65.5" />
<line stroke="#567DB6" stroke-width="1" x1="1050.5" x2="1040.140625" y1="43.5" y2="65.5" />
<line stroke="#567DB6" stroke-width="1" x1="762.5" x2="753.640625" y1="43.5" y2="65.5" />
<line stroke="#567DB6" stroke-width="1" x1="858.5" x2="848.140625" y1="43.5" y2="65.5" />
<line stroke="#567DB6" stroke-width="1" x1="570.5" x2="561.640625" y1="43.5" y2="65.5" />
<line stroke="#567DB6" stroke-width="1" x1="666.5" x2="656.140625" y1="43.5" y2="65.5" />
<line stroke="#567DB6" stroke-width="1" x1="378.5" x2="369.640625" y1="43.5" y2="65.5" />
<line stroke="#567DB6" stroke-width="1" x1="474.5" x2="464.140625" y1="43.5" y2="65.5" />
<line stroke="#567DB6" stroke-width="1" x1="186.5" x2="177.640625" y1="43.5" y2="65.5" />
<line stroke="#567DB6" stroke-width="1" x1="282.5" x2="272.140625" y1="43.5" y2="65.5" />
<line stroke="#567DB6" stroke-width="1" x1="1530.5" x2="1530.5" y1="91.5" y2="113.5" />
<line stroke="#567DB6" stroke-width="1" x1="1338.5" x2="1338.5" y1="91.5" y2="113.5" />
<line stroke="#567DB6" stroke-width="1" x1="1146.5" x2="1146.5" y1="91.5" y2="113.5" />
<line stroke="#567DB6" stroke-width="1" x1="954.5" x2="954.5" y1="91.5" y2="113.5" />
<line stroke="#567DB6" stroke-width="1" x1="762.5" x2="762.5" y1="91.5" y2="113.5" />
<line stroke="#567DB6" stroke-width="1" x1="570.5" x2="570.5" y1="91.5" y2="113.5" />
<line stroke="#567DB6" stroke-width="1" x1="378.5" x2="378.5" y1="91.5" y2="113.5" />
<line stroke="#567DB6" stroke-width="1" x1="186.5" x2="186.5" y1="91.5" y2="113.5" />
<line stroke="#567DB6" stroke-width="1" x1="1530.5" x2="1530.5" y1="139.5" y2="185" />
<line stroke="#567DB6" stroke-width="1" x1="1338.5" x2="1338.5" y1="139.5" y2="185" />
<line stroke="#567DB6" stroke-width="1" x1="1146.5" x2="1146.5" y1="139.5" y2="185" />
<line stroke="#567DB6" stroke-width="1" x1="954.5" x2="954.5" y1="139.5" y2="185" />
<line stroke="#567DB6" stroke-width="1" x1="762.5" x2="762.5" y1="139.5" y2="185" />
<line stroke="#567DB6" stroke-width="1" x1="570.5" x2="570.5" y1="139.5" y2="185" />
<line stroke="#567DB6" stroke-width="1" x1="378.5" x2="378.5" y1="139.5" y2="185" />
<line stroke="#567DB6" stroke-width="1" x1="186.5" x2="186.5" y1="139.5" y2="185" />
<text class="title-left" x="90.5" y="9.5">upper</text>
<text class="title-right" x="1626.5" y="9.5">lower</text>
<rect fill="#DEE6F1" height="24" width="192" x="1434.5" y="114.5" />
<rect fill="none" height="24" stroke="#405C86" stroke-width="3" width="192" x="1434.5" y="114.5" />
<rect fill="#DEE6F1" height="24" width="192" x="1242.5" y="114.5" />
<rect fill="none" height="24" stroke="#405C86" stroke-width="3" width="192" x="1242.5" y="114.5" />
<rect fill="#DEE6F1" height="24" width="192" x="1050.5" y="114.5" />
<rect fill="none" height="24" stroke="#405C86" stroke-width="3" width="192" x="1050.5" y="114.5" />
<rect fill="#DEE6F1" height="24" width="192" x="858.5" y="114.5" />
<rect fill="none" height="24" stroke="#405C86" stroke-width="3" width="192" x="858.5" y="114.5" />
<rect fill="#DEE6F1" height="24" width="192" x="666.5" y="114.5" />
<rect fill="none" height="24" stroke="#405C86" stroke-width="3" width="192" x="666.5" y="114.5" />
<rect fill="#DEE6F1" height="24" width="192" x="474.5" y="114.5" />
<rect fill="none" height="24" stroke="#405C86" stroke-width="3" width="192" x="474.5" y="114.5" />
<rect fill="#DEE6F1" height="24" width="192" x="282.5" y="114.5" />
<rect fill="none" height="24" stroke="#405C86" stroke-width="3" width="192" x="282.5" y="114.5" />
<rect fill="#DEE6F1" height="24" width="192" x="90.5" y="114.5" />
<rect fill="none" height="24" stroke="#405C86" stroke-width="3" width="192" x="90.5" y="114.5" />
<text class="register-name" x="80.5" y="126.5">Zn</text>
<text class="intrinsic-name" x="80.5" y="138.5">bases</text>
<text class="register-number" x="10" y="126.5">(2)</text>
<rect fill="#DEE6F1" height="24" width="91.546875" x="1524.59375" y="66.5" />
<rect fill="#EEDDDB" height="24" width="90.09375" x="1434.5" y="66.5" />
<rect fill="none" height="24" stroke="#405C86" stroke-width="3" width="192" x="1434.5" y="66.5" />
<rect fill="#DEE6F1" height="24" width="91.546875" x="1332.59375" y="66.5" />
<rect fill="#EEDDDB" height="24" width="90.09375" x="1242.5" y="66.5" />
<rect fill="none" height="24" stroke="#405C86" stroke-width="3" width="192" x="1242.5" y="66.5" />
<rect fill="#DEE6F1" height="24" width="91.546875" x="1140.59375" y="66.5" />
<rect fill="#EEDDDB" height="24" width="90.09375" x="1050.5" y="66.5" />
<rect fill="none" height="24" stroke="#405C86" stroke-width="3" width="192" x="1050.5" y="66.5" />
<rect fill="#DEE6F1" height="24" width="91.546875" x="948.59375" y="66.5" />
<rect fill="#EEDDDB" height="24" width="90.09375" x="858.5" y="66.5" />
<rect fill="none" height="24" stroke="#405C86" stroke-width="3" width="192" x="858.5" y="66.5" />
<rect fill="#DEE6F1" height="24" width="91.546875" x="756.59375" y="66.5" />
<rect fill="#EEDDDB" height="24" width="90.09375" x="666.5" y="66.5" />
<rect fill="none" height="24" stroke="#405C86" stroke-width="3" width="192" x="666.5" y="66.5" />
<rect fill="#DEE6F1" height="24" width="91.546875" x="564.59375" y="66.5" />
<rect fill="#EEDDDB" height="24" width="90.09375" x="474.5" y="66.5" />
<rect fill="none" height="24" stroke="#405C86" stroke-width="3" width="192" x="474.5" y="66.5" />
<rect fill="#DEE6F1" height="24" width="91.546875" x="372.59375" y="66.5" />
<rect fill="#EEDDDB" height="24" width="90.09375" x="282.5" y="66.5" />
<rect fill="none" height="24" stroke="#405C86" stroke-width="3" width="192" x="282.5" y="66.5" />
<rect fill="#DEE6F1" height="24" width="91.546875" x="180.59375" y="66.5" />
<rect fill="#EEDDDB" height="24" width="90.09375" x="90.5" y="66.5" />
<rect fill="none" height="24" stroke="#405C86" stroke-width="3" width="192" x="90.5" y="66.5" />
<rect fill="#DEE6F1" height="24" width="93.046875" x="1533.453125" y="18.5" />
<rect fill="#EEDDDB" height="24" width="2.953125" x="1530.5" y="18.5" />
<rect fill="none" height="24" stroke="#405C86" stroke-width="3" width="192" x="1434.5" y="18.5" />
<rect fill="#DEE6F1" height="24" width="93.046875" x="1341.453125" y="18.5" />
<rect fill="#EEDDDB" height="24" width="2.953125" x="1338.5" y="18.5" />
<rect fill="none" height="24" stroke="#405C86" stroke-width="3" width="192" x="1242.5" y="18.5" />
<rect fill="#DEE6F1" height="24" width="93.046875" x="1149.453125" y="18.5" />
<rect fill="#EEDDDB" height="24" width="2.953125" x="1146.5" y="18.5" />
<rect fill="none" height="24" stroke="#405C86" stroke-width="3" width="192" x="1050.5" y="18.5" />
<rect fill="#DEE6F1" height="24" width="93.046875" x="957.453125" y="18.5" />
<rect fill="#EEDDDB" height="24" width="2.953125" x="954.5" y="18.5" />
<rect fill="none" height="24" stroke="#405C86" stroke-width="3" width="192" x="858.5" y="18.5" />
<rect fill="#DEE6F1" height="24" width="93.046875" x="765.453125" y="18.5" />
<rect fill="#EEDDDB" height="24" width="2.953125" x="762.5" y="18.5" />
<rect fill="none" height="24" stroke="#405C86" stroke-width="3" width="192" x="666.5" y="18.5" />
<rect fill="#DEE6F1" height="24" width="93.046875" x="573.453125" y="18.5" />
<rect fill="#EEDDDB" height="24" width="2.953125" x="570.5" y="18.5" />
<rect fill="none" height="24" stroke="#405C86" stroke-width="3" width="192" x="474.5" y="18.5" />
<rect fill="#DEE6F1" height="24" width="93.046875" x="381.453125" y="18.5" />
<rect fill="#EEDDDB" height="24" width="2.953125" x="378.5" y="18.5" />
<rect fill="none" height="24" stroke="#405C86" stroke-width="3" width="192" x="282.5" y="18.5" />
<rect fill="#DEE6F1" height="24" width="93.046875" x="189.453125" y="18.5" />
<rect fill="#EEDDDB" height="24" width="2.953125" x="186.5" y="18.5" />
<rect fill="none" height="24" stroke="#405C86" stroke-width="3" width="192" x="90.5" y="18.5" />
<text class="register-name" x="80.5" y="30.5">Zm</text>
<text class="intrinsic-name" x="80.5" y="42.5">offsets</text>
<text class="register-number" x="10" y="30.5">(1)</text>
<rect fill="#DEE6F1" height="24" width="192" x="1434.5" y="186.5" />
<rect fill="none" height="24" stroke="#405C86" stroke-width="3" width="192" x="1434.5" y="186.5" />
<rect fill="#DEE6F1" height="24" width="192" x="1242.5" y="186.5" />
<rect fill="none" height="24" stroke="#405C86" stroke-width="3" width="192" x="1242.5" y="186.5" />
<rect fill="#DEE6F1" height="24" width="192" x="1050.5" y="186.5" />
<rect fill="none" height="24" stroke="#405C86" stroke-width="3" width="192" x="1050.5" y="186.5" />
<rect fill="#DEE6F1" height="24" width="192" x="858.5" y="186.5" />
<rect fill="none" height="24" stroke="#405C86" stroke-width="3" width="192" x="858.5" y="186.5" />
<rect fill="#DEE6F1" height="24" width="192" x="666.5" y="186.5" />
<rect fill="none" height="24" stroke="#405C86" stroke-width="3" width="192" x="666.5" y="186.5" />
<rect fill="#DEE6F1" height="24" width="192" x="474.5" y="186.5" />
<rect fill="none" height="24" stroke="#405C86" stroke-width="3" width="192" x="474.5" y="186.5" />
<rect fill="#DEE6F1" height="24" width="192" x="282.5" y="186.5" />
<rect fill="none" height="24" stroke="#405C86" stroke-width="3" width="192" x="282.5" y="186.5" />
<rect fill="#DEE6F1" height="24" width="192" x="90.5" y="186.5" />
<rect fill="none" height="24" stroke="#405C86" stroke-width="3" width="192" x="90.5" y="186.5" />
<text class="register-name" x="80.5" y="198.5">Zd</text>
<text class="intrinsic-name" x="80.5" y="210.5">returns</text>
<text class="register-number" x="10" y="198.5">(3)</text>
<line marker-end="url(#arrowhead)" stroke="none" x1="1530.5" x2="1530.5" y1="139.5" y2="185" />
<line marker-end="url(#arrowhead)" stroke="none" x1="1338.5" x2="1338.5" y1="139.5" y2="185" />
<line marker-end="url(#arrowhead)" stroke="none" x1="1146.5" x2="1146.5" y1="139.5" y2="185" />
<line marker-end="url(#arrowhead)" stroke="none" x1="954.5" x2="954.5" y1="139.5" y2="185" />
<line marker-end="url(#arrowhead)" stroke="none" x1="762.5" x2="762.5" y1="139.5" y2="185" />
<line marker-end="url(#arrowhead)" stroke="none" x1="570.5" x2="570.5" y1="139.5" y2="185" />
<line marker-end="url(#arrowhead)" stroke="none" x1="378.5" x2="378.5" y1="139.5" y2="185" />
<line marker-end="url(#arrowhead)" stroke="none" x1="186.5" x2="186.5" y1="139.5" y2="185" />
</svg>