<svg xmlns="http://www.w3.org/2000/svg" viewBox="0 0 1638 351">
<style>
.label { font: 14px Helvetica; dominant-baseline: middle; text-anchor: middle; }
.title-left { font: 12px Helvetica; dominant-baseline: middle; }
.title-right { font: 12px Helvetica; dominant-baseline: middle; text-anchor: end; }
.title-intrinsic { font: 12px Helvetica; dominant-baseline: middle; text-anchor: middle; fill: #6778ED; }
.title { font: 12px Helvetica; dominant-baseline: middle; text-anchor: middle; }
.title-unused { font: 12px Helvetica; dominant-baseline: middle; text-anchor: middle; fill: #AAA; }
.register-name { font: 14px Helvetica; dominant-baseline: middle; text-anchor: end; font-style: italic; }
.memory-name { font: 14px Helvetica; dominant-baseline: middle; text-anchor: end; }
.register-number { font: 14px Helvetica; dominant-baseline: middle; text-anchor: start; }
.intrinsic-name { font: 14px Helvetica; dominant-baseline: middle; text-anchor: end; fill: #6778ED; }
.intrinsic-color { fill: #6778ED; }
.small-label { font: 12px Helvetica; dominant-baseline: middle; text-anchor: middle; }
.label-10px { font: 10px Helvetica; dominant-baseline: middle; text-anchor: middle; }
.smaller-label { font: 9px Helvetica; dominant-baseline: middle; text-anchor: middle; }
.label-6px { font: 6px Helvetica; dominant-baseline: middle; text-anchor: middle; }
.label-7px { font: 7px Helvetica; dominant-baseline: middle; text-anchor: middle; }
.unused { fill: #AAA; }
.dim { fill: #888; }
</style>
<defs>
<marker id="arrowhead" markerWidth="9.5" markerHeight="21.0" refX="7.75" refY="5.25" orient="auto">
<polyline points="0.5 0.5, 7.5 5.25, 0.5 10.0" stroke="#567DB6" stroke-width="1" fill="none"/>
</marker>
</defs>
<rect fill="#FAEBDC" height="144" width="96" x="186.5" y="2" />
<text class="title-left" x="90.5" y="9.5">upper</text>
<text class="title-right" x="1626.5" y="9.5">lower</text>
<rect fill="#FAEBDC" height="168" width="385" x="66.5" y="182" />
<text class="title-left" x="66.5" y="189.5">upper</text>
<text class="title-right" x="450.5" y="189.5">lower</text>
<rect fill="#DEE6F1" height="24" width="12" x="438.5" y="198.5" />
<rect fill="none" height="24" stroke="#405C86" stroke-width="3" width="12" x="438.5" y="198.5" />
<text class="label unused" x="444.5" y="211.5">1</text>
<rect fill="#DEE6F1" height="24" width="12" x="426.5" y="198.5" />
<rect fill="none" height="24" stroke="#405C86" stroke-width="3" width="12" x="426.5" y="198.5" />
<text class="label unused" x="432.5" y="211.5">0</text>
<rect fill="#DEE6F1" height="24" width="12" x="414.5" y="198.5" />
<rect fill="none" height="24" stroke="#405C86" stroke-width="3" width="12" x="414.5" y="198.5" />
<text class="label unused" x="420.5" y="211.5">1</text>
<rect fill="#DEE6F1" height="24" width="12" x="402.5" y="198.5" />
<rect fill="none" height="24" stroke="#405C86" stroke-width="3" width="12" x="402.5" y="198.5" />
<text class="label unused" x="408.5" y="211.5">1</text>
<rect fill="#DEE6F1" height="24" width="12" x="390.5" y="198.5" />
<rect fill="none" height="24" stroke="#405C86" stroke-width="3" width="12" x="390.5" y="198.5" />
<text class="label unused" x="396.5" y="211.5">0</text>
<rect fill="#DEE6F1" height="24" width="12" x="378.5" y="198.5" />
<rect fill="none" height="24" stroke="#405C86" stroke-width="3" width="12" x="378.5" y="198.5" />
<text class="label unused" x="384.5" y="211.5">0</text>
<rect fill="#DEE6F1" height="24" width="12" x="366.5" y="198.5" />
<rect fill="none" height="24" stroke="#405C86" stroke-width="3" width="12" x="366.5" y="198.5" />
<text class="label unused" x="372.5" y="211.5">0</text>
<rect fill="#DEE6F1" height="24" width="12" x="354.5" y="198.5" />
<rect fill="none" height="24" stroke="#405C86" stroke-width="3" width="12" x="354.5" y="198.5" />
<text class="label unused" x="360.5" y="211.5">1</text>
<rect fill="#DEE6F1" height="24" width="12" x="342.5" y="198.5" />
<rect fill="none" height="24" stroke="#405C86" stroke-width="3" width="12" x="342.5" y="198.5" />
<text class="label unused" x="348.5" y="211.5">1</text>
<rect fill="#DEE6F1" height="24" width="12" x="330.5" y="198.5" />
<rect fill="none" height="24" stroke="#405C86" stroke-width="3" width="12" x="330.5" y="198.5" />
<text class="label unused" x="336.5" y="211.5">0</text>
<rect fill="#DEE6F1" height="24" width="12" x="318.5" y="198.5" />
<rect fill="none" height="24" stroke="#405C86" stroke-width="3" width="12" x="318.5" y="198.5" />
<text class="label unused" x="324.5" y="211.5">0</text>
<rect fill="#DEE6F1" height="24" width="12" x="306.5" y="198.5" />
<rect fill="none" height="24" stroke="#405C86" stroke-width="3" width="12" x="306.5" y="198.5" />
<text class="label unused" x="312.5" y="211.5">1</text>
<rect fill="#DEE6F1" height="24" width="12" x="294.5" y="198.5" />
<rect fill="none" height="24" stroke="#405C86" stroke-width="3" width="12" x="294.5" y="198.5" />
<text class="label unused" x="300.5" y="211.5">1</text>
<rect fill="#DEE6F1" height="24" width="12" x="282.5" y="198.5" />
<rect fill="none" height="24" stroke="#405C86" stroke-width="3" width="12" x="282.5" y="198.5" />
<text class="label unused" x="288.5" y="211.5">0</text>
<rect fill="#DEE6F1" height="24" width="12" x="270.5" y="198.5" />
<rect fill="none" height="24" stroke="#405C86" stroke-width="3" width="12" x="270.5" y="198.5" />
<text class="label unused" x="276.5" y="211.5">0</text>
<rect fill="#DEE6F1" height="24" width="12" x="258.5" y="198.5" />
<rect fill="none" height="24" stroke="#405C86" stroke-width="3" width="12" x="258.5" y="198.5" />
<text class="label unused" x="264.5" y="211.5">1</text>
<rect fill="#DEE6F1" height="24" width="12" x="246.5" y="198.5" />
<rect fill="none" height="24" stroke="#405C86" stroke-width="3" width="12" x="246.5" y="198.5" />
<text class="label unused" x="252.5" y="211.5">0</text>
<rect fill="#DEE6F1" height="24" width="12" x="234.5" y="198.5" />
<rect fill="none" height="24" stroke="#405C86" stroke-width="3" width="12" x="234.5" y="198.5" />
<text class="label unused" x="240.5" y="211.5">0</text>
<rect fill="#DEE6F1" height="24" width="12" x="222.5" y="198.5" />
<rect fill="none" height="24" stroke="#405C86" stroke-width="3" width="12" x="222.5" y="198.5" />
<text class="label unused" x="228.5" y="211.5">1</text>
<rect fill="#DEE6F1" height="24" width="12" x="210.5" y="198.5" />
<rect fill="none" height="24" stroke="#405C86" stroke-width="3" width="12" x="210.5" y="198.5" />
<text class="label unused" x="216.5" y="211.5">1</text>
<rect fill="#DEE6F1" height="24" width="12" x="198.5" y="198.5" />
<rect fill="none" height="24" stroke="#405C86" stroke-width="3" width="12" x="198.5" y="198.5" />
<text class="label unused" x="204.5" y="211.5">0</text>
<rect fill="#DEE6F1" height="24" width="12" x="186.5" y="198.5" />
<rect fill="none" height="24" stroke="#405C86" stroke-width="3" width="12" x="186.5" y="198.5" />
<text class="label unused" x="192.5" y="211.5">0</text>
<rect fill="#DEE6F1" height="24" width="12" x="174.5" y="198.5" />
<rect fill="none" height="24" stroke="#405C86" stroke-width="3" width="12" x="174.5" y="198.5" />
<text class="label unused" x="180.5" y="211.5">0</text>
<rect fill="#DEE6F1" height="24" width="12" x="162.5" y="198.5" />
<rect fill="none" height="24" stroke="#405C86" stroke-width="3" width="12" x="162.5" y="198.5" />
<text class="label unused" x="168.5" y="211.5">1</text>
<rect fill="#DEE6F1" height="24" width="12" x="150.5" y="198.5" />
<rect fill="none" height="24" stroke="#405C86" stroke-width="3" width="12" x="150.5" y="198.5" />
<text class="label unused" x="156.5" y="211.5">0</text>
<rect fill="#DEE6F1" height="24" width="12" x="138.5" y="198.5" />
<rect fill="none" height="24" stroke="#405C86" stroke-width="3" width="12" x="138.5" y="198.5" />
<text class="label unused" x="144.5" y="211.5">0</text>
<rect fill="#DEE6F1" height="24" width="12" x="126.5" y="198.5" />
<rect fill="none" height="24" stroke="#405C86" stroke-width="3" width="12" x="126.5" y="198.5" />
<text class="label unused" x="132.5" y="211.5">0</text>
<rect fill="#DEE6F1" height="24" width="12" x="114.5" y="198.5" />
<rect fill="none" height="24" stroke="#405C86" stroke-width="3" width="12" x="114.5" y="198.5" />
<text class="label unused" x="120.5" y="211.5">1</text>
<rect fill="#DEE6F1" height="24" width="12" x="102.5" y="198.5" />
<rect fill="none" height="24" stroke="#405C86" stroke-width="3" width="12" x="102.5" y="198.5" />
<text class="label unused" x="108.5" y="211.5">0</text>
<rect fill="#DEE6F1" height="24" width="12" x="90.5" y="198.5" />
<rect fill="none" height="24" stroke="#405C86" stroke-width="3" width="12" x="90.5" y="198.5" />
<text class="label unused" x="96.5" y="211.5">1</text>
<rect fill="#DEE6F1" height="24" width="12" x="78.5" y="198.5" />
<rect fill="none" height="24" stroke="#405C86" stroke-width="3" width="12" x="78.5" y="198.5" />
<text class="label unused" x="84.5" y="211.5">0</text>
<rect fill="#DEE6F1" height="24" width="12" x="66.5" y="198.5" />
<rect fill="none" height="24" stroke="#405C86" stroke-width="3" width="12" x="66.5" y="198.5" />
<text class="label unused" x="72.5" y="211.5">1</text>
<text class="register-name" x="56.5" y="210.5">Zn</text>
<text class="intrinsic-name" x="56.5" y="222.5">op1</text>
<rect fill="#EEDDDB" height="24" width="12" x="438.5" y="246.5" />
<rect fill="none" height="24" stroke="#405C86" stroke-width="3" width="12" x="438.5" y="246.5" />
<text class="label" x="444.5" y="259.5">0</text>
<rect fill="#EEDDDB" height="24" width="12" x="426.5" y="246.5" />
<rect fill="none" height="24" stroke="#405C86" stroke-width="3" width="12" x="426.5" y="246.5" />
<text class="label" x="432.5" y="259.5">1</text>
<rect fill="#EEDDDB" height="24" width="12" x="414.5" y="246.5" />
<rect fill="none" height="24" stroke="#405C86" stroke-width="3" width="12" x="414.5" y="246.5" />
<text class="label" x="420.5" y="259.5">1</text>
<rect fill="#EEDDDB" height="24" width="12" x="402.5" y="246.5" />
<rect fill="none" height="24" stroke="#405C86" stroke-width="3" width="12" x="402.5" y="246.5" />
<text class="label" x="408.5" y="259.5">1</text>
<rect fill="#EEDDDB" height="24" width="12" x="390.5" y="246.5" />
<rect fill="none" height="24" stroke="#405C86" stroke-width="3" width="12" x="390.5" y="246.5" />
<text class="label" x="396.5" y="259.5">0</text>
<rect fill="#EEDDDB" height="24" width="12" x="378.5" y="246.5" />
<rect fill="none" height="24" stroke="#405C86" stroke-width="3" width="12" x="378.5" y="246.5" />
<text class="label" x="384.5" y="259.5">0</text>
<rect fill="#EEDDDB" height="24" width="12" x="366.5" y="246.5" />
<rect fill="none" height="24" stroke="#405C86" stroke-width="3" width="12" x="366.5" y="246.5" />
<text class="label" x="372.5" y="259.5">1</text>
<rect fill="#EEDDDB" height="24" width="12" x="354.5" y="246.5" />
<rect fill="none" height="24" stroke="#405C86" stroke-width="3" width="12" x="354.5" y="246.5" />
<text class="label" x="360.5" y="259.5">1</text>
<rect fill="#EEDDDB" height="24" width="12" x="342.5" y="246.5" />
<rect fill="none" height="24" stroke="#405C86" stroke-width="3" width="12" x="342.5" y="246.5" />
<text class="label" x="348.5" y="259.5">1</text>
<rect fill="#EEDDDB" height="24" width="12" x="330.5" y="246.5" />
<rect fill="none" height="24" stroke="#405C86" stroke-width="3" width="12" x="330.5" y="246.5" />
<text class="label" x="336.5" y="259.5">0</text>
<rect fill="#EEDDDB" height="24" width="12" x="318.5" y="246.5" />
<rect fill="none" height="24" stroke="#405C86" stroke-width="3" width="12" x="318.5" y="246.5" />
<text class="label" x="324.5" y="259.5">0</text>
<rect fill="#EEDDDB" height="24" width="12" x="306.5" y="246.5" />
<rect fill="none" height="24" stroke="#405C86" stroke-width="3" width="12" x="306.5" y="246.5" />
<text class="label" x="312.5" y="259.5">1</text>
<rect fill="#EEDDDB" height="24" width="12" x="294.5" y="246.5" />
<rect fill="none" height="24" stroke="#405C86" stroke-width="3" width="12" x="294.5" y="246.5" />
<text class="label" x="300.5" y="259.5">1</text>
<rect fill="#EEDDDB" height="24" width="12" x="282.5" y="246.5" />
<rect fill="none" height="24" stroke="#405C86" stroke-width="3" width="12" x="282.5" y="246.5" />
<text class="label" x="288.5" y="259.5">1</text>
<rect fill="#EEDDDB" height="24" width="12" x="270.5" y="246.5" />
<rect fill="none" height="24" stroke="#405C86" stroke-width="3" width="12" x="270.5" y="246.5" />
<text class="label" x="276.5" y="259.5">1</text>
<rect fill="#EEDDDB" height="24" width="12" x="258.5" y="246.5" />
<rect fill="none" height="24" stroke="#405C86" stroke-width="3" width="12" x="258.5" y="246.5" />
<text class="label" x="264.5" y="259.5">1</text>
<rect fill="#EEDDDB" height="24" width="12" x="246.5" y="246.5" />
<rect fill="none" height="24" stroke="#405C86" stroke-width="3" width="12" x="246.5" y="246.5" />
<text class="label" x="252.5" y="259.5">1</text>
<rect fill="#EEDDDB" height="24" width="12" x="234.5" y="246.5" />
<rect fill="none" height="24" stroke="#405C86" stroke-width="3" width="12" x="234.5" y="246.5" />
<text class="label" x="240.5" y="259.5">1</text>
<rect fill="#EEDDDB" height="24" width="12" x="222.5" y="246.5" />
<rect fill="none" height="24" stroke="#405C86" stroke-width="3" width="12" x="222.5" y="246.5" />
<text class="label" x="228.5" y="259.5">1</text>
<rect fill="#EEDDDB" height="24" width="12" x="210.5" y="246.5" />
<rect fill="none" height="24" stroke="#405C86" stroke-width="3" width="12" x="210.5" y="246.5" />
<text class="label" x="216.5" y="259.5">0</text>
<rect fill="#EEDDDB" height="24" width="12" x="198.5" y="246.5" />
<rect fill="none" height="24" stroke="#405C86" stroke-width="3" width="12" x="198.5" y="246.5" />
<text class="label" x="204.5" y="259.5">0</text>
<rect fill="#EEDDDB" height="24" width="12" x="186.5" y="246.5" />
<rect fill="none" height="24" stroke="#405C86" stroke-width="3" width="12" x="186.5" y="246.5" />
<text class="label" x="192.5" y="259.5">1</text>
<rect fill="#EEDDDB" height="24" width="12" x="174.5" y="246.5" />
<rect fill="none" height="24" stroke="#405C86" stroke-width="3" width="12" x="174.5" y="246.5" />
<text class="label" x="180.5" y="259.5">1</text>
<rect fill="#EEDDDB" height="24" width="12" x="162.5" y="246.5" />
<rect fill="none" height="24" stroke="#405C86" stroke-width="3" width="12" x="162.5" y="246.5" />
<text class="label" x="168.5" y="259.5">1</text>
<rect fill="#EEDDDB" height="24" width="12" x="150.5" y="246.5" />
<rect fill="none" height="24" stroke="#405C86" stroke-width="3" width="12" x="150.5" y="246.5" />
<text class="label" x="156.5" y="259.5">1</text>
<rect fill="#EEDDDB" height="24" width="12" x="138.5" y="246.5" />
<rect fill="none" height="24" stroke="#405C86" stroke-width="3" width="12" x="138.5" y="246.5" />
<text class="label" x="144.5" y="259.5">1</text>
<rect fill="#EEDDDB" height="24" width="12" x="126.5" y="246.5" />
<rect fill="none" height="24" stroke="#405C86" stroke-width="3" width="12" x="126.5" y="246.5" />
<text class="label" x="132.5" y="259.5">1</text>
<rect fill="#EEDDDB" height="24" width="12" x="114.5" y="246.5" />
<rect fill="none" height="24" stroke="#405C86" stroke-width="3" width="12" x="114.5" y="246.5" />
<text class="label" x="120.5" y="259.5">1</text>
<rect fill="#EEDDDB" height="24" width="12" x="102.5" y="246.5" />
<rect fill="none" height="24" stroke="#405C86" stroke-width="3" width="12" x="102.5" y="246.5" />
<text class="label" x="108.5" y="259.5">1</text>
<rect fill="#EEDDDB" height="24" width="12" x="90.5" y="246.5" />
<rect fill="none" height="24" stroke="#405C86" stroke-width="3" width="12" x="90.5" y="246.5" />
<text class="label" x="96.5" y="259.5">1</text>
<rect fill="#EEDDDB" height="24" width="12" x="78.5" y="246.5" />
<rect fill="none" height="24" stroke="#405C86" stroke-width="3" width="12" x="78.5" y="246.5" />
<text class="label" x="84.5" y="259.5">1</text>
<rect fill="#EEDDDB" height="24" width="12" x="66.5" y="246.5" />
<rect fill="none" height="24" stroke="#405C86" stroke-width="3" width="12" x="66.5" y="246.5" />
<text class="label" x="72.5" y="259.5">1</text>
<text class="register-name" x="56.5" y="258.5">Zm</text>
<text class="intrinsic-name" x="56.5" y="270.5">op2</text>
<rect fill="#fff" height="24" width="12" x="438.5" y="318.5" />
<rect fill="none" height="24" stroke="#405C86" stroke-width="3" width="12" x="438.5" y="318.5" />
<text class="label unused" x="444.5" y="331.5">0</text>
<rect fill="#DEE6F1" height="24" width="12" x="426.5" y="318.5" />
<rect fill="none" height="24" stroke="#405C86" stroke-width="3" width="12" x="426.5" y="318.5" />
<text class="label unused" x="432.5" y="331.5">1</text>
<rect fill="#DEE6F1" height="24" width="12" x="414.5" y="318.5" />
<rect fill="none" height="24" stroke="#405C86" stroke-width="3" width="12" x="414.5" y="318.5" />
<text class="label unused" x="420.5" y="331.5">0</text>
<rect fill="#DEE6F1" height="24" width="12" x="402.5" y="318.5" />
<rect fill="none" height="24" stroke="#405C86" stroke-width="3" width="12" x="402.5" y="318.5" />
<text class="label unused" x="408.5" y="331.5">1</text>
<rect fill="#fff" height="24" width="12" x="390.5" y="318.5" />
<rect fill="none" height="24" stroke="#405C86" stroke-width="3" width="12" x="390.5" y="318.5" />
<text class="label unused" x="396.5" y="331.5">0</text>
<rect fill="#fff" height="24" width="12" x="378.5" y="318.5" />
<rect fill="none" height="24" stroke="#405C86" stroke-width="3" width="12" x="378.5" y="318.5" />
<text class="label unused" x="384.5" y="331.5">0</text>
<rect fill="#DEE6F1" height="24" width="12" x="366.5" y="318.5" />
<rect fill="none" height="24" stroke="#405C86" stroke-width="3" width="12" x="366.5" y="318.5" />
<text class="label unused" x="372.5" y="331.5">1</text>
<rect fill="#DEE6F1" height="24" width="12" x="354.5" y="318.5" />
<rect fill="none" height="24" stroke="#405C86" stroke-width="3" width="12" x="354.5" y="318.5" />
<text class="label unused" x="360.5" y="331.5">0</text>
<rect fill="#DEE6F1" height="24" width="12" x="342.5" y="318.5" />
<rect fill="none" height="24" stroke="#405C86" stroke-width="3" width="12" x="342.5" y="318.5" />
<text class="label unused" x="348.5" y="331.5">0</text>
<rect fill="#fff" height="24" width="12" x="330.5" y="318.5" />
<rect fill="none" height="24" stroke="#405C86" stroke-width="3" width="12" x="330.5" y="318.5" />
<text class="label unused" x="336.5" y="331.5">0</text>
<rect fill="#fff" height="24" width="12" x="318.5" y="318.5" />
<rect fill="none" height="24" stroke="#405C86" stroke-width="3" width="12" x="318.5" y="318.5" />
<text class="label unused" x="324.5" y="331.5">0</text>
<rect fill="#DEE6F1" height="24" width="12" x="306.5" y="318.5" />
<rect fill="none" height="24" stroke="#405C86" stroke-width="3" width="12" x="306.5" y="318.5" />
<text class="label unused" x="312.5" y="331.5">0</text>
<rect fill="#DEE6F1" height="24" width="12" x="294.5" y="318.5" />
<rect fill="none" height="24" stroke="#405C86" stroke-width="3" width="12" x="294.5" y="318.5" />
<text class="label unused" x="300.5" y="331.5">1</text>
<rect fill="#DEE6F1" height="24" width="12" x="282.5" y="318.5" />
<rect fill="none" height="24" stroke="#405C86" stroke-width="3" width="12" x="282.5" y="318.5" />
<text class="label unused" x="288.5" y="331.5">1</text>
<rect fill="#DEE6F1" height="24" width="12" x="270.5" y="318.5" />
<rect fill="none" height="24" stroke="#405C86" stroke-width="3" width="12" x="270.5" y="318.5" />
<text class="label unused" x="276.5" y="331.5">0</text>
<rect fill="#DEE6F1" height="24" width="12" x="258.5" y="318.5" />
<rect fill="none" height="24" stroke="#405C86" stroke-width="3" width="12" x="258.5" y="318.5" />
<text class="label unused" x="264.5" y="331.5">0</text>
<rect fill="#DEE6F1" height="24" width="12" x="246.5" y="318.5" />
<rect fill="none" height="24" stroke="#405C86" stroke-width="3" width="12" x="246.5" y="318.5" />
<text class="label unused" x="252.5" y="331.5">1</text>
<rect fill="#DEE6F1" height="24" width="12" x="234.5" y="318.5" />
<rect fill="none" height="24" stroke="#405C86" stroke-width="3" width="12" x="234.5" y="318.5" />
<text class="label unused" x="240.5" y="331.5">1</text>
<rect fill="#DEE6F1" height="24" width="12" x="222.5" y="318.5" />
<rect fill="none" height="24" stroke="#405C86" stroke-width="3" width="12" x="222.5" y="318.5" />
<text class="label unused" x="228.5" y="331.5">0</text>
<rect fill="#fff" height="24" width="12" x="210.5" y="318.5" />
<rect fill="none" height="24" stroke="#405C86" stroke-width="3" width="12" x="210.5" y="318.5" />
<text class="label unused" x="216.5" y="331.5">0</text>
<rect fill="#fff" height="24" width="12" x="198.5" y="318.5" />
<rect fill="none" height="24" stroke="#405C86" stroke-width="3" width="12" x="198.5" y="318.5" />
<text class="label unused" x="204.5" y="331.5">0</text>
<rect fill="#DEE6F1" height="24" width="12" x="186.5" y="318.5" />
<rect fill="none" height="24" stroke="#405C86" stroke-width="3" width="12" x="186.5" y="318.5" />
<text class="label unused" x="192.5" y="331.5">0</text>
<rect fill="#DEE6F1" height="24" width="12" x="174.5" y="318.5" />
<rect fill="none" height="24" stroke="#405C86" stroke-width="3" width="12" x="174.5" y="318.5" />
<text class="label unused" x="180.5" y="331.5">1</text>
<rect fill="#DEE6F1" height="24" width="12" x="162.5" y="318.5" />
<rect fill="none" height="24" stroke="#405C86" stroke-width="3" width="12" x="162.5" y="318.5" />
<text class="label unused" x="168.5" y="331.5">0</text>
<rect fill="#DEE6F1" height="24" width="12" x="150.5" y="318.5" />
<rect fill="none" height="24" stroke="#405C86" stroke-width="3" width="12" x="150.5" y="318.5" />
<text class="label unused" x="156.5" y="331.5">0</text>
<rect fill="#DEE6F1" height="24" width="12" x="138.5" y="318.5" />
<rect fill="none" height="24" stroke="#405C86" stroke-width="3" width="12" x="138.5" y="318.5" />
<text class="label unused" x="144.5" y="331.5">1</text>
<rect fill="#DEE6F1" height="24" width="12" x="126.5" y="318.5" />
<rect fill="none" height="24" stroke="#405C86" stroke-width="3" width="12" x="126.5" y="318.5" />
<text class="label unused" x="132.5" y="331.5">1</text>
<rect fill="#DEE6F1" height="24" width="12" x="114.5" y="318.5" />
<rect fill="none" height="24" stroke="#405C86" stroke-width="3" width="12" x="114.5" y="318.5" />
<text class="label unused" x="120.5" y="331.5">0</text>
<rect fill="#DEE6F1" height="24" width="12" x="102.5" y="318.5" />
<rect fill="none" height="24" stroke="#405C86" stroke-width="3" width="12" x="102.5" y="318.5" />
<text class="label unused" x="108.5" y="331.5">0</text>
<rect fill="#DEE6F1" height="24" width="12" x="90.5" y="318.5" />
<rect fill="none" height="24" stroke="#405C86" stroke-width="3" width="12" x="90.5" y="318.5" />
<text class="label unused" x="96.5" y="331.5">0</text>
<rect fill="#DEE6F1" height="24" width="12" x="78.5" y="318.5" />
<rect fill="none" height="24" stroke="#405C86" stroke-width="3" width="12" x="78.5" y="318.5" />
<text class="label unused" x="84.5" y="331.5">1</text>
<rect fill="#DEE6F1" height="24" width="12" x="66.5" y="318.5" />
<rect fill="none" height="24" stroke="#405C86" stroke-width="3" width="12" x="66.5" y="318.5" />
<text class="label unused" x="72.5" y="331.5">0</text>
<text class="register-name" x="56.5" y="330.5">Zd</text>
<text class="intrinsic-name" x="56.5" y="342.5">returns</text>
<rect fill="#DEE6F1" height="24" width="96" x="1530.5" y="18.5" />
<rect fill="none" height="24" stroke="#405C86" stroke-width="3" width="96" x="1530.5" y="18.5" />
<rect fill="#DEE6F1" height="24" width="96" x="1434.5" y="18.5" />
<rect fill="none" height="24" stroke="#405C86" stroke-width="3" width="96" x="1434.5" y="18.5" />
<rect fill="#DEE6F1" height="24" width="96" x="1338.5" y="18.5" />
<rect fill="none" height="24" stroke="#405C86" stroke-width="3" width="96" x="1338.5" y="18.5" />
<rect fill="#DEE6F1" height="24" width="96" x="1242.5" y="18.5" />
<rect fill="none" height="24" stroke="#405C86" stroke-width="3" width="96" x="1242.5" y="18.5" />
<rect fill="#DEE6F1" height="24" width="96" x="1146.5" y="18.5" />
<rect fill="none" height="24" stroke="#405C86" stroke-width="3" width="96" x="1146.5" y="18.5" />
<rect fill="#DEE6F1" height="24" width="96" x="1050.5" y="18.5" />
<rect fill="none" height="24" stroke="#405C86" stroke-width="3" width="96" x="1050.5" y="18.5" />
<rect fill="#DEE6F1" height="24" width="96" x="954.5" y="18.5" />
<rect fill="none" height="24" stroke="#405C86" stroke-width="3" width="96" x="954.5" y="18.5" />
<rect fill="#DEE6F1" height="24" width="96" x="858.5" y="18.5" />
<rect fill="none" height="24" stroke="#405C86" stroke-width="3" width="96" x="858.5" y="18.5" />
<rect fill="#DEE6F1" height="24" width="96" x="762.5" y="18.5" />
<rect fill="none" height="24" stroke="#405C86" stroke-width="3" width="96" x="762.5" y="18.5" />
<rect fill="#DEE6F1" height="24" width="96" x="666.5" y="18.5" />
<rect fill="none" height="24" stroke="#405C86" stroke-width="3" width="96" x="666.5" y="18.5" />
<rect fill="#DEE6F1" height="24" width="96" x="570.5" y="18.5" />
<rect fill="none" height="24" stroke="#405C86" stroke-width="3" width="96" x="570.5" y="18.5" />
<rect fill="#DEE6F1" height="24" width="96" x="474.5" y="18.5" />
<rect fill="none" height="24" stroke="#405C86" stroke-width="3" width="96" x="474.5" y="18.5" />
<rect fill="#DEE6F1" height="24" width="96" x="378.5" y="18.5" />
<rect fill="none" height="24" stroke="#405C86" stroke-width="3" width="96" x="378.5" y="18.5" />
<rect fill="#DEE6F1" height="24" width="96" x="282.5" y="18.5" />
<rect fill="none" height="24" stroke="#405C86" stroke-width="3" width="96" x="282.5" y="18.5" />
<rect fill="#DEE6F1" height="24" width="96" x="186.5" y="18.5" />
<rect fill="none" height="24" stroke="#405C86" stroke-width="3" width="96" x="186.5" y="18.5" />
<rect fill="#DEE6F1" height="24" width="96" x="90.5" y="18.5" />
<rect fill="none" height="24" stroke="#405C86" stroke-width="3" width="96" x="90.5" y="18.5" />
<text class="register-name" x="80.5" y="30.5">Zn</text>
<text class="intrinsic-name" x="80.5" y="42.5">op1</text>
<text class="register-number" x="10" y="30.5">(1)</text>
<rect fill="#DEE6F1" height="24" width="96" x="1530.5" y="66.5" />
<rect fill="none" height="24" stroke="#405C86" stroke-width="3" width="96" x="1530.5" y="66.5" />
<rect fill="#DEE6F1" height="24" width="96" x="1434.5" y="66.5" />
<rect fill="none" height="24" stroke="#405C86" stroke-width="3" width="96" x="1434.5" y="66.5" />
<rect fill="#DEE6F1" height="24" width="96" x="1338.5" y="66.5" />
<rect fill="none" height="24" stroke="#405C86" stroke-width="3" width="96" x="1338.5" y="66.5" />
<rect fill="#DEE6F1" height="24" width="96" x="1242.5" y="66.5" />
<rect fill="none" height="24" stroke="#405C86" stroke-width="3" width="96" x="1242.5" y="66.5" />
<rect fill="#DEE6F1" height="24" width="96" x="1146.5" y="66.5" />
<rect fill="none" height="24" stroke="#405C86" stroke-width="3" width="96" x="1146.5" y="66.5" />
<rect fill="#DEE6F1" height="24" width="96" x="1050.5" y="66.5" />
<rect fill="none" height="24" stroke="#405C86" stroke-width="3" width="96" x="1050.5" y="66.5" />
<rect fill="#DEE6F1" height="24" width="96" x="954.5" y="66.5" />
<rect fill="none" height="24" stroke="#405C86" stroke-width="3" width="96" x="954.5" y="66.5" />
<rect fill="#DEE6F1" height="24" width="96" x="858.5" y="66.5" />
<rect fill="none" height="24" stroke="#405C86" stroke-width="3" width="96" x="858.5" y="66.5" />
<rect fill="#DEE6F1" height="24" width="96" x="762.5" y="66.5" />
<rect fill="none" height="24" stroke="#405C86" stroke-width="3" width="96" x="762.5" y="66.5" />
<rect fill="#DEE6F1" height="24" width="96" x="666.5" y="66.5" />
<rect fill="none" height="24" stroke="#405C86" stroke-width="3" width="96" x="666.5" y="66.5" />
<rect fill="#DEE6F1" height="24" width="96" x="570.5" y="66.5" />
<rect fill="none" height="24" stroke="#405C86" stroke-width="3" width="96" x="570.5" y="66.5" />
<rect fill="#DEE6F1" height="24" width="96" x="474.5" y="66.5" />
<rect fill="none" height="24" stroke="#405C86" stroke-width="3" width="96" x="474.5" y="66.5" />
<rect fill="#DEE6F1" height="24" width="96" x="378.5" y="66.5" />
<rect fill="none" height="24" stroke="#405C86" stroke-width="3" width="96" x="378.5" y="66.5" />
<rect fill="#DEE6F1" height="24" width="96" x="282.5" y="66.5" />
<rect fill="none" height="24" stroke="#405C86" stroke-width="3" width="96" x="282.5" y="66.5" />
<rect fill="#DEE6F1" height="24" width="96" x="186.5" y="66.5" />
<rect fill="none" height="24" stroke="#405C86" stroke-width="3" width="96" x="186.5" y="66.5" />
<rect fill="#DEE6F1" height="24" width="96" x="90.5" y="66.5" />
<rect fill="none" height="24" stroke="#405C86" stroke-width="3" width="96" x="90.5" y="66.5" />
<text class="register-name" x="80.5" y="78.5">Zm</text>
<text class="intrinsic-name" x="80.5" y="90.5">op2</text>
<text class="register-number" x="10" y="78.5">(2)</text>
<rect fill="#DEE6F1" height="24" width="96" x="1530.5" y="114.5" />
<rect fill="none" height="24" stroke="#405C86" stroke-width="3" width="96" x="1530.5" y="114.5" />
<rect fill="#DEE6F1" height="24" width="96" x="1434.5" y="114.5" />
<rect fill="none" height="24" stroke="#405C86" stroke-width="3" width="96" x="1434.5" y="114.5" />
<rect fill="#DEE6F1" height="24" width="96" x="1338.5" y="114.5" />
<rect fill="none" height="24" stroke="#405C86" stroke-width="3" width="96" x="1338.5" y="114.5" />
<rect fill="#DEE6F1" height="24" width="96" x="1242.5" y="114.5" />
<rect fill="none" height="24" stroke="#405C86" stroke-width="3" width="96" x="1242.5" y="114.5" />
<rect fill="#DEE6F1" height="24" width="96" x="1146.5" y="114.5" />
<rect fill="none" height="24" stroke="#405C86" stroke-width="3" width="96" x="1146.5" y="114.5" />
<rect fill="#DEE6F1" height="24" width="96" x="1050.5" y="114.5" />
<rect fill="none" height="24" stroke="#405C86" stroke-width="3" width="96" x="1050.5" y="114.5" />
<rect fill="#DEE6F1" height="24" width="96" x="954.5" y="114.5" />
<rect fill="none" height="24" stroke="#405C86" stroke-width="3" width="96" x="954.5" y="114.5" />
<rect fill="#DEE6F1" height="24" width="96" x="858.5" y="114.5" />
<rect fill="none" height="24" stroke="#405C86" stroke-width="3" width="96" x="858.5" y="114.5" />
<rect fill="#DEE6F1" height="24" width="96" x="762.5" y="114.5" />
<rect fill="none" height="24" stroke="#405C86" stroke-width="3" width="96" x="762.5" y="114.5" />
<rect fill="#DEE6F1" height="24" width="96" x="666.5" y="114.5" />
<rect fill="none" height="24" stroke="#405C86" stroke-width="3" width="96" x="666.5" y="114.5" />
<rect fill="#DEE6F1" height="24" width="96" x="570.5" y="114.5" />
<rect fill="none" height="24" stroke="#405C86" stroke-width="3" width="96" x="570.5" y="114.5" />
<rect fill="#DEE6F1" height="24" width="96" x="474.5" y="114.5" />
<rect fill="none" height="24" stroke="#405C86" stroke-width="3" width="96" x="474.5" y="114.5" />
<rect fill="#DEE6F1" height="24" width="96" x="378.5" y="114.5" />
<rect fill="none" height="24" stroke="#405C86" stroke-width="3" width="96" x="378.5" y="114.5" />
<rect fill="#DEE6F1" height="24" width="96" x="282.5" y="114.5" />
<rect fill="none" height="24" stroke="#405C86" stroke-width="3" width="96" x="282.5" y="114.5" />
<rect fill="#DEE6F1" height="24" width="96" x="186.5" y="114.5" />
<rect fill="none" height="24" stroke="#405C86" stroke-width="3" width="96" x="186.5" y="114.5" />
<rect fill="#DEE6F1" height="24" width="96" x="90.5" y="114.5" />
<rect fill="none" height="24" stroke="#405C86" stroke-width="3" width="96" x="90.5" y="114.5" />
<text class="register-name" x="80.5" y="126.5">Zd</text>
<text class="intrinsic-name" x="80.5" y="138.5">returns</text>
<text class="register-number" x="10" y="126.5">(3)</text>
<line stroke="#567DB6" stroke-width="1" x1="1578.5" x2="1578.5" y1="43.5" y2="65.5" />
<line stroke="#567DB6" stroke-width="1" x1="1578.5" x2="1578.5" y1="91.5" y2="113" />
<line stroke="#567DB6" stroke-width="1" x1="1482.5" x2="1482.5" y1="43.5" y2="65.5" />
<line stroke="#567DB6" stroke-width="1" x1="1482.5" x2="1482.5" y1="91.5" y2="113" />
<line stroke="#567DB6" stroke-width="1" x1="1386.5" x2="1386.5" y1="43.5" y2="65.5" />
<line stroke="#567DB6" stroke-width="1" x1="1386.5" x2="1386.5" y1="91.5" y2="113" />
<line stroke="#567DB6" stroke-width="1" x1="1290.5" x2="1290.5" y1="43.5" y2="65.5" />
<line stroke="#567DB6" stroke-width="1" x1="1290.5" x2="1290.5" y1="91.5" y2="113" />
<line stroke="#567DB6" stroke-width="1" x1="1194.5" x2="1194.5" y1="43.5" y2="65.5" />
<line stroke="#567DB6" stroke-width="1" x1="1194.5" x2="1194.5" y1="91.5" y2="113" />
<line stroke="#567DB6" stroke-width="1" x1="1098.5" x2="1098.5" y1="43.5" y2="65.5" />
<line stroke="#567DB6" stroke-width="1" x1="1098.5" x2="1098.5" y1="91.5" y2="113" />
<line stroke="#567DB6" stroke-width="1" x1="1002.5" x2="1002.5" y1="43.5" y2="65.5" />
<line stroke="#567DB6" stroke-width="1" x1="1002.5" x2="1002.5" y1="91.5" y2="113" />
<line stroke="#567DB6" stroke-width="1" x1="906.5" x2="906.5" y1="43.5" y2="65.5" />
<line stroke="#567DB6" stroke-width="1" x1="906.5" x2="906.5" y1="91.5" y2="113" />
<line stroke="#567DB6" stroke-width="1" x1="810.5" x2="810.5" y1="43.5" y2="65.5" />
<line stroke="#567DB6" stroke-width="1" x1="810.5" x2="810.5" y1="91.5" y2="113" />
<line stroke="#567DB6" stroke-width="1" x1="714.5" x2="714.5" y1="43.5" y2="65.5" />
<line stroke="#567DB6" stroke-width="1" x1="714.5" x2="714.5" y1="91.5" y2="113" />
<line stroke="#567DB6" stroke-width="1" x1="618.5" x2="618.5" y1="43.5" y2="65.5" />
<line stroke="#567DB6" stroke-width="1" x1="618.5" x2="618.5" y1="91.5" y2="113" />
<line stroke="#567DB6" stroke-width="1" x1="522.5" x2="522.5" y1="43.5" y2="65.5" />
<line stroke="#567DB6" stroke-width="1" x1="522.5" x2="522.5" y1="91.5" y2="113" />
<line stroke="#567DB6" stroke-width="1" x1="426.5" x2="426.5" y1="43.5" y2="65.5" />
<line stroke="#567DB6" stroke-width="1" x1="426.5" x2="426.5" y1="91.5" y2="113" />
<line stroke="#567DB6" stroke-width="1" x1="330.5" x2="330.5" y1="43.5" y2="65.5" />
<line stroke="#567DB6" stroke-width="1" x1="330.5" x2="330.5" y1="91.5" y2="113" />
<line stroke="#567DB6" stroke-width="1" x1="234.5" x2="234.5" y1="43.5" y2="65.5" />
<line stroke="#567DB6" stroke-width="1" x1="234.5" x2="234.5" y1="91.5" y2="113" />
<line stroke="#567DB6" stroke-width="1" x1="138.5" x2="138.5" y1="43.5" y2="65.5" />
<line stroke="#567DB6" stroke-width="1" x1="138.5" x2="138.5" y1="91.5" y2="113" />
<line stroke="#567DB6" stroke-dasharray="3 3" stroke-width="0.75" x1="186.5" x2="66.5" y1="146" y2="182" />
<line stroke="#567DB6" stroke-dasharray="3 3" stroke-width="0.75" x1="282.5" x2="451.5" y1="146" y2="182" />
<line stroke="#567DB6" stroke-width="1" x1="444.5" x2="432.5" y1="223.5" y2="245.5" />
<line stroke="#567DB6" stroke-width="1" x1="432.5" x2="432.5" y1="271.5" y2="317" />
<line stroke="#567DB6" stroke-width="1" x1="432.5" x2="420.5" y1="223.5" y2="245.5" />
<line stroke="#567DB6" stroke-width="1" x1="420.5" x2="420.5" y1="271.5" y2="317" />
<line stroke="#567DB6" stroke-width="1" x1="420.5" x2="408.5" y1="223.5" y2="245.5" />
<line stroke="#567DB6" stroke-width="1" x1="408.5" x2="408.5" y1="271.5" y2="317" />
<line stroke="#567DB6" stroke-width="1" x1="408.5" x2="372.5" y1="223.5" y2="245.5" />
<line stroke="#567DB6" stroke-width="1" x1="372.5" x2="372.5" y1="271.5" y2="317" />
<line stroke="#567DB6" stroke-width="1" x1="396.5" x2="360.5" y1="223.5" y2="245.5" />
<line stroke="#567DB6" stroke-width="1" x1="360.5" x2="360.5" y1="271.5" y2="317" />
<line stroke="#567DB6" stroke-width="1" x1="384.5" x2="348.5" y1="223.5" y2="245.5" />
<line stroke="#567DB6" stroke-width="1" x1="348.5" x2="348.5" y1="271.5" y2="317" />
<line stroke="#567DB6" stroke-width="1" x1="372.5" x2="312.5" y1="223.5" y2="245.5" />
<line stroke="#567DB6" stroke-width="1" x1="312.5" x2="312.5" y1="271.5" y2="317" />
<line stroke="#567DB6" stroke-width="1" x1="360.5" x2="300.5" y1="223.5" y2="245.5" />
<line stroke="#567DB6" stroke-width="1" x1="300.5" x2="300.5" y1="271.5" y2="317" />
<line stroke="#567DB6" stroke-width="1" x1="348.5" x2="288.5" y1="223.5" y2="245.5" />
<line stroke="#567DB6" stroke-width="1" x1="288.5" x2="288.5" y1="271.5" y2="317" />
<line stroke="#567DB6" stroke-width="1" x1="336.5" x2="276.5" y1="223.5" y2="245.5" />
<line stroke="#567DB6" stroke-width="1" x1="276.5" x2="276.5" y1="271.5" y2="317" />
<line stroke="#567DB6" stroke-width="1" x1="324.5" x2="264.5" y1="223.5" y2="245.5" />
<line stroke="#567DB6" stroke-width="1" x1="264.5" x2="264.5" y1="271.5" y2="317" />
<line stroke="#567DB6" stroke-width="1" x1="312.5" x2="252.5" y1="223.5" y2="245.5" />
<line stroke="#567DB6" stroke-width="1" x1="252.5" x2="252.5" y1="271.5" y2="317" />
<line stroke="#567DB6" stroke-width="1" x1="300.5" x2="240.5" y1="223.5" y2="245.5" />
<line stroke="#567DB6" stroke-width="1" x1="240.5" x2="240.5" y1="271.5" y2="317" />
<line stroke="#567DB6" stroke-width="1" x1="288.5" x2="228.5" y1="223.5" y2="245.5" />
<line stroke="#567DB6" stroke-width="1" x1="228.5" x2="228.5" y1="271.5" y2="317" />
<line stroke="#567DB6" stroke-width="1" x1="276.5" x2="192.5" y1="223.5" y2="245.5" />
<line stroke="#567DB6" stroke-width="1" x1="192.5" x2="192.5" y1="271.5" y2="317" />
<line stroke="#567DB6" stroke-width="1" x1="264.5" x2="180.5" y1="223.5" y2="245.5" />
<line stroke="#567DB6" stroke-width="1" x1="180.5" x2="180.5" y1="271.5" y2="317" />
<line stroke="#567DB6" stroke-width="1" x1="252.5" x2="168.5" y1="223.5" y2="245.5" />
<line stroke="#567DB6" stroke-width="1" x1="168.5" x2="168.5" y1="271.5" y2="317" />
<line stroke="#567DB6" stroke-width="1" x1="240.5" x2="156.5" y1="223.5" y2="245.5" />
<line stroke="#567DB6" stroke-width="1" x1="156.5" x2="156.5" y1="271.5" y2="317" />
<line stroke="#567DB6" stroke-width="1" x1="228.5" x2="144.5" y1="223.5" y2="245.5" />
<line stroke="#567DB6" stroke-width="1" x1="144.5" x2="144.5" y1="271.5" y2="317" />
<line stroke="#567DB6" stroke-width="1" x1="216.5" x2="132.5" y1="223.5" y2="245.5" />
<line stroke="#567DB6" stroke-width="1" x1="132.5" x2="132.5" y1="271.5" y2="317" />
<line stroke="#567DB6" stroke-width="1" x1="204.5" x2="120.5" y1="223.5" y2="245.5" />
<line stroke="#567DB6" stroke-width="1" x1="120.5" x2="120.5" y1="271.5" y2="317" />
<line stroke="#567DB6" stroke-width="1" x1="192.5" x2="108.5" y1="223.5" y2="245.5" />
<line stroke="#567DB6" stroke-width="1" x1="108.5" x2="108.5" y1="271.5" y2="317" />
<line stroke="#567DB6" stroke-width="1" x1="180.5" x2="96.5" y1="223.5" y2="245.5" />
<line stroke="#567DB6" stroke-width="1" x1="96.5" x2="96.5" y1="271.5" y2="317" />
<line stroke="#567DB6" stroke-width="1" x1="168.5" x2="84.5" y1="223.5" y2="245.5" />
<line stroke="#567DB6" stroke-width="1" x1="84.5" x2="84.5" y1="271.5" y2="317" />
<line stroke="#567DB6" stroke-width="1" x1="156.5" x2="72.5" y1="223.5" y2="245.5" />
<line stroke="#567DB6" stroke-width="1" x1="72.5" x2="72.5" y1="271.5" y2="317" />
<line marker-end="url(#arrowhead)" stroke="none" x1="1578.5" x2="1578.5" y1="91.5" y2="113" />
<line marker-end="url(#arrowhead)" stroke="none" x1="1482.5" x2="1482.5" y1="91.5" y2="113" />
<line marker-end="url(#arrowhead)" stroke="none" x1="1386.5" x2="1386.5" y1="91.5" y2="113" />
<line marker-end="url(#arrowhead)" stroke="none" x1="1290.5" x2="1290.5" y1="91.5" y2="113" />
<line marker-end="url(#arrowhead)" stroke="none" x1="1194.5" x2="1194.5" y1="91.5" y2="113" />
<line marker-end="url(#arrowhead)" stroke="none" x1="1098.5" x2="1098.5" y1="91.5" y2="113" />
<line marker-end="url(#arrowhead)" stroke="none" x1="1002.5" x2="1002.5" y1="91.5" y2="113" />
<line marker-end="url(#arrowhead)" stroke="none" x1="906.5" x2="906.5" y1="91.5" y2="113" />
<line marker-end="url(#arrowhead)" stroke="none" x1="810.5" x2="810.5" y1="91.5" y2="113" />
<line marker-end="url(#arrowhead)" stroke="none" x1="714.5" x2="714.5" y1="91.5" y2="113" />
<line marker-end="url(#arrowhead)" stroke="none" x1="618.5" x2="618.5" y1="91.5" y2="113" />
<line marker-end="url(#arrowhead)" stroke="none" x1="522.5" x2="522.5" y1="91.5" y2="113" />
<line marker-end="url(#arrowhead)" stroke="none" x1="426.5" x2="426.5" y1="91.5" y2="113" />
<line marker-end="url(#arrowhead)" stroke="none" x1="330.5" x2="330.5" y1="91.5" y2="113" />
<line marker-end="url(#arrowhead)" stroke="none" x1="234.5" x2="234.5" y1="91.5" y2="113" />
<line marker-end="url(#arrowhead)" stroke="none" x1="138.5" x2="138.5" y1="91.5" y2="113" />
<line marker-end="url(#arrowhead)" stroke="none" x1="432.5" x2="432.5" y1="271.5" y2="317" />
<line marker-end="url(#arrowhead)" stroke="none" x1="420.5" x2="420.5" y1="271.5" y2="317" />
<line marker-end="url(#arrowhead)" stroke="none" x1="408.5" x2="408.5" y1="271.5" y2="317" />
<line marker-end="url(#arrowhead)" stroke="none" x1="372.5" x2="372.5" y1="271.5" y2="317" />
<line marker-end="url(#arrowhead)" stroke="none" x1="360.5" x2="360.5" y1="271.5" y2="317" />
<line marker-end="url(#arrowhead)" stroke="none" x1="348.5" x2="348.5" y1="271.5" y2="317" />
<line marker-end="url(#arrowhead)" stroke="none" x1="312.5" x2="312.5" y1="271.5" y2="317" />
<line marker-end="url(#arrowhead)" stroke="none" x1="300.5" x2="300.5" y1="271.5" y2="317" />
<line marker-end="url(#arrowhead)" stroke="none" x1="288.5" x2="288.5" y1="271.5" y2="317" />
<line marker-end="url(#arrowhead)" stroke="none" x1="276.5" x2="276.5" y1="271.5" y2="317" />
<line marker-end="url(#arrowhead)" stroke="none" x1="264.5" x2="264.5" y1="271.5" y2="317" />
<line marker-end="url(#arrowhead)" stroke="none" x1="252.5" x2="252.5" y1="271.5" y2="317" />
<line marker-end="url(#arrowhead)" stroke="none" x1="240.5" x2="240.5" y1="271.5" y2="317" />
<line marker-end="url(#arrowhead)" stroke="none" x1="228.5" x2="228.5" y1="271.5" y2="317" />
<line marker-end="url(#arrowhead)" stroke="none" x1="192.5" x2="192.5" y1="271.5" y2="317" />
<line marker-end="url(#arrowhead)" stroke="none" x1="180.5" x2="180.5" y1="271.5" y2="317" />
<line marker-end="url(#arrowhead)" stroke="none" x1="168.5" x2="168.5" y1="271.5" y2="317" />
<line marker-end="url(#arrowhead)" stroke="none" x1="156.5" x2="156.5" y1="271.5" y2="317" />
<line marker-end="url(#arrowhead)" stroke="none" x1="144.5" x2="144.5" y1="271.5" y2="317" />
<line marker-end="url(#arrowhead)" stroke="none" x1="132.5" x2="132.5" y1="271.5" y2="317" />
<line marker-end="url(#arrowhead)" stroke="none" x1="120.5" x2="120.5" y1="271.5" y2="317" />
<line marker-end="url(#arrowhead)" stroke="none" x1="108.5" x2="108.5" y1="271.5" y2="317" />
<line marker-end="url(#arrowhead)" stroke="none" x1="96.5" x2="96.5" y1="271.5" y2="317" />
<line marker-end="url(#arrowhead)" stroke="none" x1="84.5" x2="84.5" y1="271.5" y2="317" />
<line marker-end="url(#arrowhead)" stroke="none" x1="72.5" x2="72.5" y1="271.5" y2="317" />
</svg>