<svg xmlns="http://www.w3.org/2000/svg" viewBox="0 0 6246 171">
<style>
.label { font: 14px Helvetica; dominant-baseline: middle; text-anchor: middle; }
.title-left { font: 12px Helvetica; dominant-baseline: middle; }
.title-right { font: 12px Helvetica; dominant-baseline: middle; text-anchor: end; }
.title-intrinsic { font: 12px Helvetica; dominant-baseline: middle; text-anchor: middle; fill: #6778ED; }
.title { font: 12px Helvetica; dominant-baseline: middle; text-anchor: middle; }
.title-unused { font: 12px Helvetica; dominant-baseline: middle; text-anchor: middle; fill: #AAA; }
.register-name { font: 14px Helvetica; dominant-baseline: middle; text-anchor: end; font-style: italic; }
.memory-name { font: 14px Helvetica; dominant-baseline: middle; text-anchor: end; }
.register-number { font: 14px Helvetica; dominant-baseline: middle; text-anchor: start; }
.intrinsic-name { font: 14px Helvetica; dominant-baseline: middle; text-anchor: end; fill: #6778ED; }
.intrinsic-color { fill: #6778ED; }
.small-label { font: 12px Helvetica; dominant-baseline: middle; text-anchor: middle; }
.label-10px { font: 10px Helvetica; dominant-baseline: middle; text-anchor: middle; }
.smaller-label { font: 9px Helvetica; dominant-baseline: middle; text-anchor: middle; }
.label-6px { font: 6px Helvetica; dominant-baseline: middle; text-anchor: middle; }
.label-7px { font: 7px Helvetica; dominant-baseline: middle; text-anchor: middle; }
.unused { fill: #AAA; }
.dim { fill: #888; }
</style>
<defs>
<marker id="arrowhead" markerWidth="10.75" markerHeight="24.5" refX="9.0" refY="6.125" orient="auto">
<polyline points="0.5 0.5, 8.75 6.125, 0.5 11.75" stroke="#567DB6" stroke-width="1" fill="none"/>
</marker>
</defs>
<polyline fill="none" points="6045.5 43.5,6047.5 47.5,6137.5 47.5,6138.5 49.5,6138.5 53.5,6138.5 49.5,6139.5 47.5,6229.5 47.5,6231.5 43.5" stroke="#567DB6" stroke-width="1" />
<line stroke="#567DB6" stroke-width="1" x1="6138.5" x2="6138.5" y1="53.5" y2="65.5" />
<line stroke="#567DB6" stroke-width="1" x1="6138.5" x2="6138.5" y1="91.5" y2="137" />
<polyline fill="none" points="5853.5 43.5,5855.5 47.5,5945.5 47.5,5946.5 49.5,5946.5 53.5,5946.5 49.5,5947.5 47.5,6037.5 47.5,6039.5 43.5" stroke="#567DB6" stroke-width="1" />
<line stroke="#567DB6" stroke-width="1" x1="5946.5" x2="5946.5" y1="53.5" y2="65.5" />
<line stroke="#567DB6" stroke-width="1" x1="5946.5" x2="5946.5" y1="91.5" y2="137" />
<polyline fill="none" points="5661.5 43.5,5663.5 47.5,5753.5 47.5,5754.5 49.5,5754.5 53.5,5754.5 49.5,5755.5 47.5,5845.5 47.5,5847.5 43.5" stroke="#567DB6" stroke-width="1" />
<line stroke="#567DB6" stroke-width="1" x1="5754.5" x2="5754.5" y1="53.5" y2="65.5" />
<line stroke="#567DB6" stroke-width="1" x1="5754.5" x2="5754.5" y1="91.5" y2="137" />
<polyline fill="none" points="5469.5 43.5,5471.5 47.5,5561.5 47.5,5562.5 49.5,5562.5 53.5,5562.5 49.5,5563.5 47.5,5653.5 47.5,5655.5 43.5" stroke="#567DB6" stroke-width="1" />
<line stroke="#567DB6" stroke-width="1" x1="5562.5" x2="5562.5" y1="53.5" y2="65.5" />
<line stroke="#567DB6" stroke-width="1" x1="5562.5" x2="5562.5" y1="91.5" y2="137" />
<polyline fill="none" points="5277.5 43.5,5279.5 47.5,5369.5 47.5,5370.5 49.5,5370.5 53.5,5370.5 49.5,5371.5 47.5,5461.5 47.5,5463.5 43.5" stroke="#567DB6" stroke-width="1" />
<line stroke="#567DB6" stroke-width="1" x1="5370.5" x2="5370.5" y1="53.5" y2="65.5" />
<line stroke="#567DB6" stroke-width="1" x1="5370.5" x2="5370.5" y1="91.5" y2="137" />
<polyline fill="none" points="5085.5 43.5,5087.5 47.5,5177.5 47.5,5178.5 49.5,5178.5 53.5,5178.5 49.5,5179.5 47.5,5269.5 47.5,5271.5 43.5" stroke="#567DB6" stroke-width="1" />
<line stroke="#567DB6" stroke-width="1" x1="5178.5" x2="5178.5" y1="53.5" y2="65.5" />
<line stroke="#567DB6" stroke-width="1" x1="5178.5" x2="5178.5" y1="91.5" y2="137" />
<polyline fill="none" points="4893.5 43.5,4895.5 47.5,4985.5 47.5,4986.5 49.5,4986.5 53.5,4986.5 49.5,4987.5 47.5,5077.5 47.5,5079.5 43.5" stroke="#567DB6" stroke-width="1" />
<line stroke="#567DB6" stroke-width="1" x1="4986.5" x2="4986.5" y1="53.5" y2="65.5" />
<line stroke="#567DB6" stroke-width="1" x1="4986.5" x2="4986.5" y1="91.5" y2="137" />
<polyline fill="none" points="4701.5 43.5,4703.5 47.5,4793.5 47.5,4794.5 49.5,4794.5 53.5,4794.5 49.5,4795.5 47.5,4885.5 47.5,4887.5 43.5" stroke="#567DB6" stroke-width="1" />
<line stroke="#567DB6" stroke-width="1" x1="4794.5" x2="4794.5" y1="53.5" y2="65.5" />
<line stroke="#567DB6" stroke-width="1" x1="4794.5" x2="4794.5" y1="91.5" y2="137" />
<polyline fill="none" points="4509.5 43.5,4511.5 47.5,4601.5 47.5,4602.5 49.5,4602.5 53.5,4602.5 49.5,4603.5 47.5,4693.5 47.5,4695.5 43.5" stroke="#567DB6" stroke-width="1" />
<line stroke="#567DB6" stroke-width="1" x1="4602.5" x2="4602.5" y1="53.5" y2="65.5" />
<line stroke="#567DB6" stroke-width="1" x1="4602.5" x2="4602.5" y1="91.5" y2="137" />
<polyline fill="none" points="4317.5 43.5,4319.5 47.5,4409.5 47.5,4410.5 49.5,4410.5 53.5,4410.5 49.5,4411.5 47.5,4501.5 47.5,4503.5 43.5" stroke="#567DB6" stroke-width="1" />
<line stroke="#567DB6" stroke-width="1" x1="4410.5" x2="4410.5" y1="53.5" y2="65.5" />
<line stroke="#567DB6" stroke-width="1" x1="4410.5" x2="4410.5" y1="91.5" y2="137" />
<polyline fill="none" points="4125.5 43.5,4127.5 47.5,4217.5 47.5,4218.5 49.5,4218.5 53.5,4218.5 49.5,4219.5 47.5,4309.5 47.5,4311.5 43.5" stroke="#567DB6" stroke-width="1" />
<line stroke="#567DB6" stroke-width="1" x1="4218.5" x2="4218.5" y1="53.5" y2="65.5" />
<line stroke="#567DB6" stroke-width="1" x1="4218.5" x2="4218.5" y1="91.5" y2="137" />
<polyline fill="none" points="3933.5 43.5,3935.5 47.5,4025.5 47.5,4026.5 49.5,4026.5 53.5,4026.5 49.5,4027.5 47.5,4117.5 47.5,4119.5 43.5" stroke="#567DB6" stroke-width="1" />
<line stroke="#567DB6" stroke-width="1" x1="4026.5" x2="4026.5" y1="53.5" y2="65.5" />
<line stroke="#567DB6" stroke-width="1" x1="4026.5" x2="4026.5" y1="91.5" y2="137" />
<polyline fill="none" points="3741.5 43.5,3743.5 47.5,3833.5 47.5,3834.5 49.5,3834.5 53.5,3834.5 49.5,3835.5 47.5,3925.5 47.5,3927.5 43.5" stroke="#567DB6" stroke-width="1" />
<line stroke="#567DB6" stroke-width="1" x1="3834.5" x2="3834.5" y1="53.5" y2="65.5" />
<line stroke="#567DB6" stroke-width="1" x1="3834.5" x2="3834.5" y1="91.5" y2="137" />
<polyline fill="none" points="3549.5 43.5,3551.5 47.5,3641.5 47.5,3642.5 49.5,3642.5 53.5,3642.5 49.5,3643.5 47.5,3733.5 47.5,3735.5 43.5" stroke="#567DB6" stroke-width="1" />
<line stroke="#567DB6" stroke-width="1" x1="3642.5" x2="3642.5" y1="53.5" y2="65.5" />
<line stroke="#567DB6" stroke-width="1" x1="3642.5" x2="3642.5" y1="91.5" y2="137" />
<polyline fill="none" points="3357.5 43.5,3359.5 47.5,3449.5 47.5,3450.5 49.5,3450.5 53.5,3450.5 49.5,3451.5 47.5,3541.5 47.5,3543.5 43.5" stroke="#567DB6" stroke-width="1" />
<line stroke="#567DB6" stroke-width="1" x1="3450.5" x2="3450.5" y1="53.5" y2="65.5" />
<line stroke="#567DB6" stroke-width="1" x1="3450.5" x2="3450.5" y1="91.5" y2="137" />
<polyline fill="none" points="3165.5 43.5,3167.5 47.5,3257.5 47.5,3258.5 49.5,3258.5 53.5,3258.5 49.5,3259.5 47.5,3349.5 47.5,3351.5 43.5" stroke="#567DB6" stroke-width="1" />
<line stroke="#567DB6" stroke-width="1" x1="3258.5" x2="3258.5" y1="53.5" y2="65.5" />
<line stroke="#567DB6" stroke-width="1" x1="3258.5" x2="3258.5" y1="91.5" y2="137" />
<polyline fill="none" points="2973.5 43.5,2975.5 47.5,3065.5 47.5,3066.5 49.5,3066.5 53.5,3066.5 49.5,3067.5 47.5,3157.5 47.5,3159.5 43.5" stroke="#567DB6" stroke-width="1" />
<line stroke="#567DB6" stroke-width="1" x1="3066.5" x2="3066.5" y1="53.5" y2="65.5" />
<line stroke="#567DB6" stroke-width="1" x1="3066.5" x2="3066.5" y1="91.5" y2="137" />
<polyline fill="none" points="2781.5 43.5,2783.5 47.5,2873.5 47.5,2874.5 49.5,2874.5 53.5,2874.5 49.5,2875.5 47.5,2965.5 47.5,2967.5 43.5" stroke="#567DB6" stroke-width="1" />
<line stroke="#567DB6" stroke-width="1" x1="2874.5" x2="2874.5" y1="53.5" y2="65.5" />
<line stroke="#567DB6" stroke-width="1" x1="2874.5" x2="2874.5" y1="91.5" y2="137" />
<polyline fill="none" points="2589.5 43.5,2591.5 47.5,2681.5 47.5,2682.5 49.5,2682.5 53.5,2682.5 49.5,2683.5 47.5,2773.5 47.5,2775.5 43.5" stroke="#567DB6" stroke-width="1" />
<line stroke="#567DB6" stroke-width="1" x1="2682.5" x2="2682.5" y1="53.5" y2="65.5" />
<line stroke="#567DB6" stroke-width="1" x1="2682.5" x2="2682.5" y1="91.5" y2="137" />
<polyline fill="none" points="2397.5 43.5,2399.5 47.5,2489.5 47.5,2490.5 49.5,2490.5 53.5,2490.5 49.5,2491.5 47.5,2581.5 47.5,2583.5 43.5" stroke="#567DB6" stroke-width="1" />
<line stroke="#567DB6" stroke-width="1" x1="2490.5" x2="2490.5" y1="53.5" y2="65.5" />
<line stroke="#567DB6" stroke-width="1" x1="2490.5" x2="2490.5" y1="91.5" y2="137" />
<polyline fill="none" points="2205.5 43.5,2207.5 47.5,2297.5 47.5,2298.5 49.5,2298.5 53.5,2298.5 49.5,2299.5 47.5,2389.5 47.5,2391.5 43.5" stroke="#567DB6" stroke-width="1" />
<line stroke="#567DB6" stroke-width="1" x1="2298.5" x2="2298.5" y1="53.5" y2="65.5" />
<line stroke="#567DB6" stroke-width="1" x1="2298.5" x2="2298.5" y1="91.5" y2="137" />
<polyline fill="none" points="2013.5 43.5,2015.5 47.5,2105.5 47.5,2106.5 49.5,2106.5 53.5,2106.5 49.5,2107.5 47.5,2197.5 47.5,2199.5 43.5" stroke="#567DB6" stroke-width="1" />
<line stroke="#567DB6" stroke-width="1" x1="2106.5" x2="2106.5" y1="53.5" y2="65.5" />
<line stroke="#567DB6" stroke-width="1" x1="2106.5" x2="2106.5" y1="91.5" y2="137" />
<polyline fill="none" points="1821.5 43.5,1823.5 47.5,1913.5 47.5,1914.5 49.5,1914.5 53.5,1914.5 49.5,1915.5 47.5,2005.5 47.5,2007.5 43.5" stroke="#567DB6" stroke-width="1" />
<line stroke="#567DB6" stroke-width="1" x1="1914.5" x2="1914.5" y1="53.5" y2="65.5" />
<line stroke="#567DB6" stroke-width="1" x1="1914.5" x2="1914.5" y1="91.5" y2="137" />
<polyline fill="none" points="1629.5 43.5,1631.5 47.5,1721.5 47.5,1722.5 49.5,1722.5 53.5,1722.5 49.5,1723.5 47.5,1813.5 47.5,1815.5 43.5" stroke="#567DB6" stroke-width="1" />
<line stroke="#567DB6" stroke-width="1" x1="1722.5" x2="1722.5" y1="53.5" y2="65.5" />
<line stroke="#567DB6" stroke-width="1" x1="1722.5" x2="1722.5" y1="91.5" y2="137" />
<polyline fill="none" points="1437.5 43.5,1439.5 47.5,1529.5 47.5,1530.5 49.5,1530.5 53.5,1530.5 49.5,1531.5 47.5,1621.5 47.5,1623.5 43.5" stroke="#567DB6" stroke-width="1" />
<line stroke="#567DB6" stroke-width="1" x1="1530.5" x2="1530.5" y1="53.5" y2="65.5" />
<line stroke="#567DB6" stroke-width="1" x1="1530.5" x2="1530.5" y1="91.5" y2="137" />
<polyline fill="none" points="1245.5 43.5,1247.5 47.5,1337.5 47.5,1338.5 49.5,1338.5 53.5,1338.5 49.5,1339.5 47.5,1429.5 47.5,1431.5 43.5" stroke="#567DB6" stroke-width="1" />
<line stroke="#567DB6" stroke-width="1" x1="1338.5" x2="1338.5" y1="53.5" y2="65.5" />
<line stroke="#567DB6" stroke-width="1" x1="1338.5" x2="1338.5" y1="91.5" y2="137" />
<polyline fill="none" points="1053.5 43.5,1055.5 47.5,1145.5 47.5,1146.5 49.5,1146.5 53.5,1146.5 49.5,1147.5 47.5,1237.5 47.5,1239.5 43.5" stroke="#567DB6" stroke-width="1" />
<line stroke="#567DB6" stroke-width="1" x1="1146.5" x2="1146.5" y1="53.5" y2="65.5" />
<line stroke="#567DB6" stroke-width="1" x1="1146.5" x2="1146.5" y1="91.5" y2="137" />
<polyline fill="none" points="861.5 43.5,863.5 47.5,953.5 47.5,954.5 49.5,954.5 53.5,954.5 49.5,955.5 47.5,1045.5 47.5,1047.5 43.5" stroke="#567DB6" stroke-width="1" />
<line stroke="#567DB6" stroke-width="1" x1="954.5" x2="954.5" y1="53.5" y2="65.5" />
<line stroke="#567DB6" stroke-width="1" x1="954.5" x2="954.5" y1="91.5" y2="137" />
<polyline fill="none" points="669.5 43.5,671.5 47.5,761.5 47.5,762.5 49.5,762.5 53.5,762.5 49.5,763.5 47.5,853.5 47.5,855.5 43.5" stroke="#567DB6" stroke-width="1" />
<line stroke="#567DB6" stroke-width="1" x1="762.5" x2="762.5" y1="53.5" y2="65.5" />
<line stroke="#567DB6" stroke-width="1" x1="762.5" x2="762.5" y1="91.5" y2="137" />
<polyline fill="none" points="477.5 43.5,479.5 47.5,569.5 47.5,570.5 49.5,570.5 53.5,570.5 49.5,571.5 47.5,661.5 47.5,663.5 43.5" stroke="#567DB6" stroke-width="1" />
<line stroke="#567DB6" stroke-width="1" x1="570.5" x2="570.5" y1="53.5" y2="65.5" />
<line stroke="#567DB6" stroke-width="1" x1="570.5" x2="570.5" y1="91.5" y2="137" />
<polyline fill="none" points="285.5 43.5,287.5 47.5,377.5 47.5,378.5 49.5,378.5 53.5,378.5 49.5,379.5 47.5,469.5 47.5,471.5 43.5" stroke="#567DB6" stroke-width="1" />
<line stroke="#567DB6" stroke-width="1" x1="378.5" x2="378.5" y1="53.5" y2="65.5" />
<line stroke="#567DB6" stroke-width="1" x1="378.5" x2="378.5" y1="91.5" y2="137" />
<polyline fill="none" points="93.5 43.5,95.5 47.5,185.5 47.5,186.5 49.5,186.5 53.5,186.5 49.5,187.5 47.5,277.5 47.5,279.5 43.5" stroke="#567DB6" stroke-width="1" />
<line stroke="#567DB6" stroke-width="1" x1="186.5" x2="186.5" y1="53.5" y2="65.5" />
<line stroke="#567DB6" stroke-width="1" x1="186.5" x2="186.5" y1="91.5" y2="137" />
<text class="title-left" x="90.5" y="9.5">upper</text>
<text class="title-right" x="6234.5" y="9.5">lower</text>
<rect fill="#DEE6F1" height="24" width="96" x="6138.5" y="18.5" />
<rect fill="none" height="24" stroke="#405C86" stroke-width="3" width="96" x="6138.5" y="18.5" />
<text class="label" x="6186.5" y="31.5">A</text>
<rect fill="#DEE6F1" height="24" width="96" x="6042.5" y="18.5" />
<rect fill="none" height="24" stroke="#405C86" stroke-width="3" width="96" x="6042.5" y="18.5" />
<text class="label" x="6090.5" y="31.5">B</text>
<rect fill="#EEDDDB" height="24" width="96" x="5946.5" y="18.5" />
<rect fill="none" height="24" stroke="#405C86" stroke-width="3" width="96" x="5946.5" y="18.5" />
<text class="label" x="5994.5" y="31.5">A</text>
<rect fill="#EEDDDB" height="24" width="96" x="5850.5" y="18.5" />
<rect fill="none" height="24" stroke="#405C86" stroke-width="3" width="96" x="5850.5" y="18.5" />
<text class="label" x="5898.5" y="31.5">B</text>
<rect fill="#DEE6F1" height="24" width="96" x="5754.5" y="18.5" />
<rect fill="none" height="24" stroke="#405C86" stroke-width="3" width="96" x="5754.5" y="18.5" />
<text class="label" x="5802.5" y="31.5">A</text>
<rect fill="#DEE6F1" height="24" width="96" x="5658.5" y="18.5" />
<rect fill="none" height="24" stroke="#405C86" stroke-width="3" width="96" x="5658.5" y="18.5" />
<text class="label" x="5706.5" y="31.5">B</text>
<rect fill="#EEDDDB" height="24" width="96" x="5562.5" y="18.5" />
<rect fill="none" height="24" stroke="#405C86" stroke-width="3" width="96" x="5562.5" y="18.5" />
<text class="label" x="5610.5" y="31.5">A</text>
<rect fill="#EEDDDB" height="24" width="96" x="5466.5" y="18.5" />
<rect fill="none" height="24" stroke="#405C86" stroke-width="3" width="96" x="5466.5" y="18.5" />
<text class="label" x="5514.5" y="31.5">B</text>
<rect fill="#DEE6F1" height="24" width="96" x="5370.5" y="18.5" />
<rect fill="none" height="24" stroke="#405C86" stroke-width="3" width="96" x="5370.5" y="18.5" />
<text class="label" x="5418.5" y="31.5">A</text>
<rect fill="#DEE6F1" height="24" width="96" x="5274.5" y="18.5" />
<rect fill="none" height="24" stroke="#405C86" stroke-width="3" width="96" x="5274.5" y="18.5" />
<text class="label" x="5322.5" y="31.5">B</text>
<rect fill="#EEDDDB" height="24" width="96" x="5178.5" y="18.5" />
<rect fill="none" height="24" stroke="#405C86" stroke-width="3" width="96" x="5178.5" y="18.5" />
<text class="label" x="5226.5" y="31.5">A</text>
<rect fill="#EEDDDB" height="24" width="96" x="5082.5" y="18.5" />
<rect fill="none" height="24" stroke="#405C86" stroke-width="3" width="96" x="5082.5" y="18.5" />
<text class="label" x="5130.5" y="31.5">B</text>
<rect fill="#DEE6F1" height="24" width="96" x="4986.5" y="18.5" />
<rect fill="none" height="24" stroke="#405C86" stroke-width="3" width="96" x="4986.5" y="18.5" />
<text class="label" x="5034.5" y="31.5">A</text>
<rect fill="#DEE6F1" height="24" width="96" x="4890.5" y="18.5" />
<rect fill="none" height="24" stroke="#405C86" stroke-width="3" width="96" x="4890.5" y="18.5" />
<text class="label" x="4938.5" y="31.5">B</text>
<rect fill="#EEDDDB" height="24" width="96" x="4794.5" y="18.5" />
<rect fill="none" height="24" stroke="#405C86" stroke-width="3" width="96" x="4794.5" y="18.5" />
<text class="label" x="4842.5" y="31.5">A</text>
<rect fill="#EEDDDB" height="24" width="96" x="4698.5" y="18.5" />
<rect fill="none" height="24" stroke="#405C86" stroke-width="3" width="96" x="4698.5" y="18.5" />
<text class="label" x="4746.5" y="31.5">B</text>
<rect fill="#DEE6F1" height="24" width="96" x="4602.5" y="18.5" />
<rect fill="none" height="24" stroke="#405C86" stroke-width="3" width="96" x="4602.5" y="18.5" />
<text class="label" x="4650.5" y="31.5">A</text>
<rect fill="#DEE6F1" height="24" width="96" x="4506.5" y="18.5" />
<rect fill="none" height="24" stroke="#405C86" stroke-width="3" width="96" x="4506.5" y="18.5" />
<text class="label" x="4554.5" y="31.5">B</text>
<rect fill="#EEDDDB" height="24" width="96" x="4410.5" y="18.5" />
<rect fill="none" height="24" stroke="#405C86" stroke-width="3" width="96" x="4410.5" y="18.5" />
<text class="label" x="4458.5" y="31.5">A</text>
<rect fill="#EEDDDB" height="24" width="96" x="4314.5" y="18.5" />
<rect fill="none" height="24" stroke="#405C86" stroke-width="3" width="96" x="4314.5" y="18.5" />
<text class="label" x="4362.5" y="31.5">B</text>
<rect fill="#DEE6F1" height="24" width="96" x="4218.5" y="18.5" />
<rect fill="none" height="24" stroke="#405C86" stroke-width="3" width="96" x="4218.5" y="18.5" />
<text class="label" x="4266.5" y="31.5">A</text>
<rect fill="#DEE6F1" height="24" width="96" x="4122.5" y="18.5" />
<rect fill="none" height="24" stroke="#405C86" stroke-width="3" width="96" x="4122.5" y="18.5" />
<text class="label" x="4170.5" y="31.5">B</text>
<rect fill="#EEDDDB" height="24" width="96" x="4026.5" y="18.5" />
<rect fill="none" height="24" stroke="#405C86" stroke-width="3" width="96" x="4026.5" y="18.5" />
<text class="label" x="4074.5" y="31.5">A</text>
<rect fill="#EEDDDB" height="24" width="96" x="3930.5" y="18.5" />
<rect fill="none" height="24" stroke="#405C86" stroke-width="3" width="96" x="3930.5" y="18.5" />
<text class="label" x="3978.5" y="31.5">B</text>
<rect fill="#DEE6F1" height="24" width="96" x="3834.5" y="18.5" />
<rect fill="none" height="24" stroke="#405C86" stroke-width="3" width="96" x="3834.5" y="18.5" />
<text class="label" x="3882.5" y="31.5">A</text>
<rect fill="#DEE6F1" height="24" width="96" x="3738.5" y="18.5" />
<rect fill="none" height="24" stroke="#405C86" stroke-width="3" width="96" x="3738.5" y="18.5" />
<text class="label" x="3786.5" y="31.5">B</text>
<rect fill="#EEDDDB" height="24" width="96" x="3642.5" y="18.5" />
<rect fill="none" height="24" stroke="#405C86" stroke-width="3" width="96" x="3642.5" y="18.5" />
<text class="label" x="3690.5" y="31.5">A</text>
<rect fill="#EEDDDB" height="24" width="96" x="3546.5" y="18.5" />
<rect fill="none" height="24" stroke="#405C86" stroke-width="3" width="96" x="3546.5" y="18.5" />
<text class="label" x="3594.5" y="31.5">B</text>
<rect fill="#DEE6F1" height="24" width="96" x="3450.5" y="18.5" />
<rect fill="none" height="24" stroke="#405C86" stroke-width="3" width="96" x="3450.5" y="18.5" />
<text class="label" x="3498.5" y="31.5">A</text>
<rect fill="#DEE6F1" height="24" width="96" x="3354.5" y="18.5" />
<rect fill="none" height="24" stroke="#405C86" stroke-width="3" width="96" x="3354.5" y="18.5" />
<text class="label" x="3402.5" y="31.5">B</text>
<rect fill="#EEDDDB" height="24" width="96" x="3258.5" y="18.5" />
<rect fill="none" height="24" stroke="#405C86" stroke-width="3" width="96" x="3258.5" y="18.5" />
<text class="label" x="3306.5" y="31.5">A</text>
<rect fill="#EEDDDB" height="24" width="96" x="3162.5" y="18.5" />
<rect fill="none" height="24" stroke="#405C86" stroke-width="3" width="96" x="3162.5" y="18.5" />
<text class="label" x="3210.5" y="31.5">B</text>
<rect fill="#DEE6F1" height="24" width="96" x="3066.5" y="18.5" />
<rect fill="none" height="24" stroke="#405C86" stroke-width="3" width="96" x="3066.5" y="18.5" />
<text class="label" x="3114.5" y="31.5">A</text>
<rect fill="#DEE6F1" height="24" width="96" x="2970.5" y="18.5" />
<rect fill="none" height="24" stroke="#405C86" stroke-width="3" width="96" x="2970.5" y="18.5" />
<text class="label" x="3018.5" y="31.5">B</text>
<rect fill="#EEDDDB" height="24" width="96" x="2874.5" y="18.5" />
<rect fill="none" height="24" stroke="#405C86" stroke-width="3" width="96" x="2874.5" y="18.5" />
<text class="label" x="2922.5" y="31.5">A</text>
<rect fill="#EEDDDB" height="24" width="96" x="2778.5" y="18.5" />
<rect fill="none" height="24" stroke="#405C86" stroke-width="3" width="96" x="2778.5" y="18.5" />
<text class="label" x="2826.5" y="31.5">B</text>
<rect fill="#DEE6F1" height="24" width="96" x="2682.5" y="18.5" />
<rect fill="none" height="24" stroke="#405C86" stroke-width="3" width="96" x="2682.5" y="18.5" />
<text class="label" x="2730.5" y="31.5">A</text>
<rect fill="#DEE6F1" height="24" width="96" x="2586.5" y="18.5" />
<rect fill="none" height="24" stroke="#405C86" stroke-width="3" width="96" x="2586.5" y="18.5" />
<text class="label" x="2634.5" y="31.5">B</text>
<rect fill="#EEDDDB" height="24" width="96" x="2490.5" y="18.5" />
<rect fill="none" height="24" stroke="#405C86" stroke-width="3" width="96" x="2490.5" y="18.5" />
<text class="label" x="2538.5" y="31.5">A</text>
<rect fill="#EEDDDB" height="24" width="96" x="2394.5" y="18.5" />
<rect fill="none" height="24" stroke="#405C86" stroke-width="3" width="96" x="2394.5" y="18.5" />
<text class="label" x="2442.5" y="31.5">B</text>
<rect fill="#DEE6F1" height="24" width="96" x="2298.5" y="18.5" />
<rect fill="none" height="24" stroke="#405C86" stroke-width="3" width="96" x="2298.5" y="18.5" />
<text class="label" x="2346.5" y="31.5">A</text>
<rect fill="#DEE6F1" height="24" width="96" x="2202.5" y="18.5" />
<rect fill="none" height="24" stroke="#405C86" stroke-width="3" width="96" x="2202.5" y="18.5" />
<text class="label" x="2250.5" y="31.5">B</text>
<rect fill="#EEDDDB" height="24" width="96" x="2106.5" y="18.5" />
<rect fill="none" height="24" stroke="#405C86" stroke-width="3" width="96" x="2106.5" y="18.5" />
<text class="label" x="2154.5" y="31.5">A</text>
<rect fill="#EEDDDB" height="24" width="96" x="2010.5" y="18.5" />
<rect fill="none" height="24" stroke="#405C86" stroke-width="3" width="96" x="2010.5" y="18.5" />
<text class="label" x="2058.5" y="31.5">B</text>
<rect fill="#DEE6F1" height="24" width="96" x="1914.5" y="18.5" />
<rect fill="none" height="24" stroke="#405C86" stroke-width="3" width="96" x="1914.5" y="18.5" />
<text class="label" x="1962.5" y="31.5">A</text>
<rect fill="#DEE6F1" height="24" width="96" x="1818.5" y="18.5" />
<rect fill="none" height="24" stroke="#405C86" stroke-width="3" width="96" x="1818.5" y="18.5" />
<text class="label" x="1866.5" y="31.5">B</text>
<rect fill="#EEDDDB" height="24" width="96" x="1722.5" y="18.5" />
<rect fill="none" height="24" stroke="#405C86" stroke-width="3" width="96" x="1722.5" y="18.5" />
<text class="label" x="1770.5" y="31.5">A</text>
<rect fill="#EEDDDB" height="24" width="96" x="1626.5" y="18.5" />
<rect fill="none" height="24" stroke="#405C86" stroke-width="3" width="96" x="1626.5" y="18.5" />
<text class="label" x="1674.5" y="31.5">B</text>
<rect fill="#DEE6F1" height="24" width="96" x="1530.5" y="18.5" />
<rect fill="none" height="24" stroke="#405C86" stroke-width="3" width="96" x="1530.5" y="18.5" />
<text class="label" x="1578.5" y="31.5">A</text>
<rect fill="#DEE6F1" height="24" width="96" x="1434.5" y="18.5" />
<rect fill="none" height="24" stroke="#405C86" stroke-width="3" width="96" x="1434.5" y="18.5" />
<text class="label" x="1482.5" y="31.5">B</text>
<rect fill="#EEDDDB" height="24" width="96" x="1338.5" y="18.5" />
<rect fill="none" height="24" stroke="#405C86" stroke-width="3" width="96" x="1338.5" y="18.5" />
<text class="label" x="1386.5" y="31.5">A</text>
<rect fill="#EEDDDB" height="24" width="96" x="1242.5" y="18.5" />
<rect fill="none" height="24" stroke="#405C86" stroke-width="3" width="96" x="1242.5" y="18.5" />
<text class="label" x="1290.5" y="31.5">B</text>
<rect fill="#DEE6F1" height="24" width="96" x="1146.5" y="18.5" />
<rect fill="none" height="24" stroke="#405C86" stroke-width="3" width="96" x="1146.5" y="18.5" />
<text class="label" x="1194.5" y="31.5">A</text>
<rect fill="#DEE6F1" height="24" width="96" x="1050.5" y="18.5" />
<rect fill="none" height="24" stroke="#405C86" stroke-width="3" width="96" x="1050.5" y="18.5" />
<text class="label" x="1098.5" y="31.5">B</text>
<rect fill="#EEDDDB" height="24" width="96" x="954.5" y="18.5" />
<rect fill="none" height="24" stroke="#405C86" stroke-width="3" width="96" x="954.5" y="18.5" />
<text class="label" x="1002.5" y="31.5">A</text>
<rect fill="#EEDDDB" height="24" width="96" x="858.5" y="18.5" />
<rect fill="none" height="24" stroke="#405C86" stroke-width="3" width="96" x="858.5" y="18.5" />
<text class="label" x="906.5" y="31.5">B</text>
<rect fill="#DEE6F1" height="24" width="96" x="762.5" y="18.5" />
<rect fill="none" height="24" stroke="#405C86" stroke-width="3" width="96" x="762.5" y="18.5" />
<text class="label" x="810.5" y="31.5">A</text>
<rect fill="#DEE6F1" height="24" width="96" x="666.5" y="18.5" />
<rect fill="none" height="24" stroke="#405C86" stroke-width="3" width="96" x="666.5" y="18.5" />
<text class="label" x="714.5" y="31.5">B</text>
<rect fill="#EEDDDB" height="24" width="96" x="570.5" y="18.5" />
<rect fill="none" height="24" stroke="#405C86" stroke-width="3" width="96" x="570.5" y="18.5" />
<text class="label" x="618.5" y="31.5">A</text>
<rect fill="#EEDDDB" height="24" width="96" x="474.5" y="18.5" />
<rect fill="none" height="24" stroke="#405C86" stroke-width="3" width="96" x="474.5" y="18.5" />
<text class="label" x="522.5" y="31.5">B</text>
<rect fill="#DEE6F1" height="24" width="96" x="378.5" y="18.5" />
<rect fill="none" height="24" stroke="#405C86" stroke-width="3" width="96" x="378.5" y="18.5" />
<text class="label" x="426.5" y="31.5">A</text>
<rect fill="#DEE6F1" height="24" width="96" x="282.5" y="18.5" />
<rect fill="none" height="24" stroke="#405C86" stroke-width="3" width="96" x="282.5" y="18.5" />
<text class="label" x="330.5" y="31.5">B</text>
<rect fill="#EEDDDB" height="24" width="96" x="186.5" y="18.5" />
<rect fill="none" height="24" stroke="#405C86" stroke-width="3" width="96" x="186.5" y="18.5" />
<text class="label" x="234.5" y="31.5">A</text>
<rect fill="#EEDDDB" height="24" width="96" x="90.5" y="18.5" />
<rect fill="none" height="24" stroke="#405C86" stroke-width="3" width="96" x="90.5" y="18.5" />
<text class="label" x="138.5" y="31.5">B</text>
<text class="register-name" x="80.5" y="30.5">Zn</text>
<text class="intrinsic-name" x="80.5" y="42.5">op2</text>
<text class="register-number" x="10" y="30.5">(1)</text>
<rect fill="#DEE6F1" height="24" width="192" x="6042.5" y="66.5" />
<rect fill="none" height="24" stroke="#405C86" stroke-width="3" width="192" x="6042.5" y="66.5" />
<text class="label" x="6138.5" y="79.5">C</text>
<rect fill="#EEDDDB" height="24" width="192" x="5850.5" y="66.5" />
<rect fill="none" height="24" stroke="#405C86" stroke-width="3" width="192" x="5850.5" y="66.5" />
<text class="label" x="5946.5" y="79.5">C</text>
<rect fill="#DEE6F1" height="24" width="192" x="5658.5" y="66.5" />
<rect fill="none" height="24" stroke="#405C86" stroke-width="3" width="192" x="5658.5" y="66.5" />
<text class="label" x="5754.5" y="79.5">C</text>
<rect fill="#EEDDDB" height="24" width="192" x="5466.5" y="66.5" />
<rect fill="none" height="24" stroke="#405C86" stroke-width="3" width="192" x="5466.5" y="66.5" />
<text class="label" x="5562.5" y="79.5">C</text>
<rect fill="#DEE6F1" height="24" width="192" x="5274.5" y="66.5" />
<rect fill="none" height="24" stroke="#405C86" stroke-width="3" width="192" x="5274.5" y="66.5" />
<text class="label" x="5370.5" y="79.5">C</text>
<rect fill="#EEDDDB" height="24" width="192" x="5082.5" y="66.5" />
<rect fill="none" height="24" stroke="#405C86" stroke-width="3" width="192" x="5082.5" y="66.5" />
<text class="label" x="5178.5" y="79.5">C</text>
<rect fill="#DEE6F1" height="24" width="192" x="4890.5" y="66.5" />
<rect fill="none" height="24" stroke="#405C86" stroke-width="3" width="192" x="4890.5" y="66.5" />
<text class="label" x="4986.5" y="79.5">C</text>
<rect fill="#EEDDDB" height="24" width="192" x="4698.5" y="66.5" />
<rect fill="none" height="24" stroke="#405C86" stroke-width="3" width="192" x="4698.5" y="66.5" />
<text class="label" x="4794.5" y="79.5">C</text>
<rect fill="#DEE6F1" height="24" width="192" x="4506.5" y="66.5" />
<rect fill="none" height="24" stroke="#405C86" stroke-width="3" width="192" x="4506.5" y="66.5" />
<text class="label" x="4602.5" y="79.5">C</text>
<rect fill="#EEDDDB" height="24" width="192" x="4314.5" y="66.5" />
<rect fill="none" height="24" stroke="#405C86" stroke-width="3" width="192" x="4314.5" y="66.5" />
<text class="label" x="4410.5" y="79.5">C</text>
<rect fill="#DEE6F1" height="24" width="192" x="4122.5" y="66.5" />
<rect fill="none" height="24" stroke="#405C86" stroke-width="3" width="192" x="4122.5" y="66.5" />
<text class="label" x="4218.5" y="79.5">C</text>
<rect fill="#EEDDDB" height="24" width="192" x="3930.5" y="66.5" />
<rect fill="none" height="24" stroke="#405C86" stroke-width="3" width="192" x="3930.5" y="66.5" />
<text class="label" x="4026.5" y="79.5">C</text>
<rect fill="#DEE6F1" height="24" width="192" x="3738.5" y="66.5" />
<rect fill="none" height="24" stroke="#405C86" stroke-width="3" width="192" x="3738.5" y="66.5" />
<text class="label" x="3834.5" y="79.5">C</text>
<rect fill="#EEDDDB" height="24" width="192" x="3546.5" y="66.5" />
<rect fill="none" height="24" stroke="#405C86" stroke-width="3" width="192" x="3546.5" y="66.5" />
<text class="label" x="3642.5" y="79.5">C</text>
<rect fill="#DEE6F1" height="24" width="192" x="3354.5" y="66.5" />
<rect fill="none" height="24" stroke="#405C86" stroke-width="3" width="192" x="3354.5" y="66.5" />
<text class="label" x="3450.5" y="79.5">C</text>
<rect fill="#EEDDDB" height="24" width="192" x="3162.5" y="66.5" />
<rect fill="none" height="24" stroke="#405C86" stroke-width="3" width="192" x="3162.5" y="66.5" />
<text class="label" x="3258.5" y="79.5">C</text>
<rect fill="#DEE6F1" height="24" width="192" x="2970.5" y="66.5" />
<rect fill="none" height="24" stroke="#405C86" stroke-width="3" width="192" x="2970.5" y="66.5" />
<text class="label" x="3066.5" y="79.5">C</text>
<rect fill="#EEDDDB" height="24" width="192" x="2778.5" y="66.5" />
<rect fill="none" height="24" stroke="#405C86" stroke-width="3" width="192" x="2778.5" y="66.5" />
<text class="label" x="2874.5" y="79.5">C</text>
<rect fill="#DEE6F1" height="24" width="192" x="2586.5" y="66.5" />
<rect fill="none" height="24" stroke="#405C86" stroke-width="3" width="192" x="2586.5" y="66.5" />
<text class="label" x="2682.5" y="79.5">C</text>
<rect fill="#EEDDDB" height="24" width="192" x="2394.5" y="66.5" />
<rect fill="none" height="24" stroke="#405C86" stroke-width="3" width="192" x="2394.5" y="66.5" />
<text class="label" x="2490.5" y="79.5">C</text>
<rect fill="#DEE6F1" height="24" width="192" x="2202.5" y="66.5" />
<rect fill="none" height="24" stroke="#405C86" stroke-width="3" width="192" x="2202.5" y="66.5" />
<text class="label" x="2298.5" y="79.5">C</text>
<rect fill="#EEDDDB" height="24" width="192" x="2010.5" y="66.5" />
<rect fill="none" height="24" stroke="#405C86" stroke-width="3" width="192" x="2010.5" y="66.5" />
<text class="label" x="2106.5" y="79.5">C</text>
<rect fill="#DEE6F1" height="24" width="192" x="1818.5" y="66.5" />
<rect fill="none" height="24" stroke="#405C86" stroke-width="3" width="192" x="1818.5" y="66.5" />
<text class="label" x="1914.5" y="79.5">C</text>
<rect fill="#EEDDDB" height="24" width="192" x="1626.5" y="66.5" />
<rect fill="none" height="24" stroke="#405C86" stroke-width="3" width="192" x="1626.5" y="66.5" />
<text class="label" x="1722.5" y="79.5">C</text>
<rect fill="#DEE6F1" height="24" width="192" x="1434.5" y="66.5" />
<rect fill="none" height="24" stroke="#405C86" stroke-width="3" width="192" x="1434.5" y="66.5" />
<text class="label" x="1530.5" y="79.5">C</text>
<rect fill="#EEDDDB" height="24" width="192" x="1242.5" y="66.5" />
<rect fill="none" height="24" stroke="#405C86" stroke-width="3" width="192" x="1242.5" y="66.5" />
<text class="label" x="1338.5" y="79.5">C</text>
<rect fill="#DEE6F1" height="24" width="192" x="1050.5" y="66.5" />
<rect fill="none" height="24" stroke="#405C86" stroke-width="3" width="192" x="1050.5" y="66.5" />
<text class="label" x="1146.5" y="79.5">C</text>
<rect fill="#EEDDDB" height="24" width="192" x="858.5" y="66.5" />
<rect fill="none" height="24" stroke="#405C86" stroke-width="3" width="192" x="858.5" y="66.5" />
<text class="label" x="954.5" y="79.5">C</text>
<rect fill="#DEE6F1" height="24" width="192" x="666.5" y="66.5" />
<rect fill="none" height="24" stroke="#405C86" stroke-width="3" width="192" x="666.5" y="66.5" />
<text class="label" x="762.5" y="79.5">C</text>
<rect fill="#EEDDDB" height="24" width="192" x="474.5" y="66.5" />
<rect fill="none" height="24" stroke="#405C86" stroke-width="3" width="192" x="474.5" y="66.5" />
<text class="label" x="570.5" y="79.5">C</text>
<rect fill="#DEE6F1" height="24" width="192" x="282.5" y="66.5" />
<rect fill="none" height="24" stroke="#405C86" stroke-width="3" width="192" x="282.5" y="66.5" />
<text class="label" x="378.5" y="79.5">C</text>
<rect fill="#EEDDDB" height="24" width="192" x="90.5" y="66.5" />
<rect fill="none" height="24" stroke="#405C86" stroke-width="3" width="192" x="90.5" y="66.5" />
<text class="label" x="186.5" y="79.5">C</text>
<text class="register-name" x="80.5" y="78.5">Zda</text>
<text class="intrinsic-name" x="80.5" y="90.5">op1</text>
<text class="register-number" x="10" y="78.5">(2)</text>
<rect fill="#DEE6F1" height="24" width="192" x="6042.5" y="138.5" />
<rect fill="none" height="24" stroke="#405C86" stroke-width="3" width="192" x="6042.5" y="138.5" />
<text class="label" x="6138.5" y="151.5">A+B+C</text>
<rect fill="#EEDDDB" height="24" width="192" x="5850.5" y="138.5" />
<rect fill="none" height="24" stroke="#405C86" stroke-width="3" width="192" x="5850.5" y="138.5" />
<text class="label" x="5946.5" y="151.5">A+B+C</text>
<rect fill="#DEE6F1" height="24" width="192" x="5658.5" y="138.5" />
<rect fill="none" height="24" stroke="#405C86" stroke-width="3" width="192" x="5658.5" y="138.5" />
<text class="label" x="5754.5" y="151.5">A+B+C</text>
<rect fill="#EEDDDB" height="24" width="192" x="5466.5" y="138.5" />
<rect fill="none" height="24" stroke="#405C86" stroke-width="3" width="192" x="5466.5" y="138.5" />
<text class="label" x="5562.5" y="151.5">A+B+C</text>
<rect fill="#DEE6F1" height="24" width="192" x="5274.5" y="138.5" />
<rect fill="none" height="24" stroke="#405C86" stroke-width="3" width="192" x="5274.5" y="138.5" />
<text class="label" x="5370.5" y="151.5">A+B+C</text>
<rect fill="#EEDDDB" height="24" width="192" x="5082.5" y="138.5" />
<rect fill="none" height="24" stroke="#405C86" stroke-width="3" width="192" x="5082.5" y="138.5" />
<text class="label" x="5178.5" y="151.5">A+B+C</text>
<rect fill="#DEE6F1" height="24" width="192" x="4890.5" y="138.5" />
<rect fill="none" height="24" stroke="#405C86" stroke-width="3" width="192" x="4890.5" y="138.5" />
<text class="label" x="4986.5" y="151.5">A+B+C</text>
<rect fill="#EEDDDB" height="24" width="192" x="4698.5" y="138.5" />
<rect fill="none" height="24" stroke="#405C86" stroke-width="3" width="192" x="4698.5" y="138.5" />
<text class="label" x="4794.5" y="151.5">A+B+C</text>
<rect fill="#DEE6F1" height="24" width="192" x="4506.5" y="138.5" />
<rect fill="none" height="24" stroke="#405C86" stroke-width="3" width="192" x="4506.5" y="138.5" />
<text class="label" x="4602.5" y="151.5">A+B+C</text>
<rect fill="#EEDDDB" height="24" width="192" x="4314.5" y="138.5" />
<rect fill="none" height="24" stroke="#405C86" stroke-width="3" width="192" x="4314.5" y="138.5" />
<text class="label" x="4410.5" y="151.5">A+B+C</text>
<rect fill="#DEE6F1" height="24" width="192" x="4122.5" y="138.5" />
<rect fill="none" height="24" stroke="#405C86" stroke-width="3" width="192" x="4122.5" y="138.5" />
<text class="label" x="4218.5" y="151.5">A+B+C</text>
<rect fill="#EEDDDB" height="24" width="192" x="3930.5" y="138.5" />
<rect fill="none" height="24" stroke="#405C86" stroke-width="3" width="192" x="3930.5" y="138.5" />
<text class="label" x="4026.5" y="151.5">A+B+C</text>
<rect fill="#DEE6F1" height="24" width="192" x="3738.5" y="138.5" />
<rect fill="none" height="24" stroke="#405C86" stroke-width="3" width="192" x="3738.5" y="138.5" />
<text class="label" x="3834.5" y="151.5">A+B+C</text>
<rect fill="#EEDDDB" height="24" width="192" x="3546.5" y="138.5" />
<rect fill="none" height="24" stroke="#405C86" stroke-width="3" width="192" x="3546.5" y="138.5" />
<text class="label" x="3642.5" y="151.5">A+B+C</text>
<rect fill="#DEE6F1" height="24" width="192" x="3354.5" y="138.5" />
<rect fill="none" height="24" stroke="#405C86" stroke-width="3" width="192" x="3354.5" y="138.5" />
<text class="label" x="3450.5" y="151.5">A+B+C</text>
<rect fill="#EEDDDB" height="24" width="192" x="3162.5" y="138.5" />
<rect fill="none" height="24" stroke="#405C86" stroke-width="3" width="192" x="3162.5" y="138.5" />
<text class="label" x="3258.5" y="151.5">A+B+C</text>
<rect fill="#DEE6F1" height="24" width="192" x="2970.5" y="138.5" />
<rect fill="none" height="24" stroke="#405C86" stroke-width="3" width="192" x="2970.5" y="138.5" />
<text class="label" x="3066.5" y="151.5">A+B+C</text>
<rect fill="#EEDDDB" height="24" width="192" x="2778.5" y="138.5" />
<rect fill="none" height="24" stroke="#405C86" stroke-width="3" width="192" x="2778.5" y="138.5" />
<text class="label" x="2874.5" y="151.5">A+B+C</text>
<rect fill="#DEE6F1" height="24" width="192" x="2586.5" y="138.5" />
<rect fill="none" height="24" stroke="#405C86" stroke-width="3" width="192" x="2586.5" y="138.5" />
<text class="label" x="2682.5" y="151.5">A+B+C</text>
<rect fill="#EEDDDB" height="24" width="192" x="2394.5" y="138.5" />
<rect fill="none" height="24" stroke="#405C86" stroke-width="3" width="192" x="2394.5" y="138.5" />
<text class="label" x="2490.5" y="151.5">A+B+C</text>
<rect fill="#DEE6F1" height="24" width="192" x="2202.5" y="138.5" />
<rect fill="none" height="24" stroke="#405C86" stroke-width="3" width="192" x="2202.5" y="138.5" />
<text class="label" x="2298.5" y="151.5">A+B+C</text>
<rect fill="#EEDDDB" height="24" width="192" x="2010.5" y="138.5" />
<rect fill="none" height="24" stroke="#405C86" stroke-width="3" width="192" x="2010.5" y="138.5" />
<text class="label" x="2106.5" y="151.5">A+B+C</text>
<rect fill="#DEE6F1" height="24" width="192" x="1818.5" y="138.5" />
<rect fill="none" height="24" stroke="#405C86" stroke-width="3" width="192" x="1818.5" y="138.5" />
<text class="label" x="1914.5" y="151.5">A+B+C</text>
<rect fill="#EEDDDB" height="24" width="192" x="1626.5" y="138.5" />
<rect fill="none" height="24" stroke="#405C86" stroke-width="3" width="192" x="1626.5" y="138.5" />
<text class="label" x="1722.5" y="151.5">A+B+C</text>
<rect fill="#DEE6F1" height="24" width="192" x="1434.5" y="138.5" />
<rect fill="none" height="24" stroke="#405C86" stroke-width="3" width="192" x="1434.5" y="138.5" />
<text class="label" x="1530.5" y="151.5">A+B+C</text>
<rect fill="#EEDDDB" height="24" width="192" x="1242.5" y="138.5" />
<rect fill="none" height="24" stroke="#405C86" stroke-width="3" width="192" x="1242.5" y="138.5" />
<text class="label" x="1338.5" y="151.5">A+B+C</text>
<rect fill="#DEE6F1" height="24" width="192" x="1050.5" y="138.5" />
<rect fill="none" height="24" stroke="#405C86" stroke-width="3" width="192" x="1050.5" y="138.5" />
<text class="label" x="1146.5" y="151.5">A+B+C</text>
<rect fill="#EEDDDB" height="24" width="192" x="858.5" y="138.5" />
<rect fill="none" height="24" stroke="#405C86" stroke-width="3" width="192" x="858.5" y="138.5" />
<text class="label" x="954.5" y="151.5">A+B+C</text>
<rect fill="#DEE6F1" height="24" width="192" x="666.5" y="138.5" />
<rect fill="none" height="24" stroke="#405C86" stroke-width="3" width="192" x="666.5" y="138.5" />
<text class="label" x="762.5" y="151.5">A+B+C</text>
<rect fill="#EEDDDB" height="24" width="192" x="474.5" y="138.5" />
<rect fill="none" height="24" stroke="#405C86" stroke-width="3" width="192" x="474.5" y="138.5" />
<text class="label" x="570.5" y="151.5">A+B+C</text>
<rect fill="#DEE6F1" height="24" width="192" x="282.5" y="138.5" />
<rect fill="none" height="24" stroke="#405C86" stroke-width="3" width="192" x="282.5" y="138.5" />
<text class="label" x="378.5" y="151.5">A+B+C</text>
<rect fill="#EEDDDB" height="24" width="192" x="90.5" y="138.5" />
<rect fill="none" height="24" stroke="#405C86" stroke-width="3" width="192" x="90.5" y="138.5" />
<text class="label" x="186.5" y="151.5">A+B+C</text>
<text class="register-name" x="80.5" y="150.5">Zda</text>
<text class="intrinsic-name" x="80.5" y="162.5">returns</text>
<text class="register-number" x="10" y="150.5">(3)</text>
<line marker-end="url(#arrowhead)" stroke="none" x1="6138.5" x2="6138.5" y1="91.5" y2="137" />
<line marker-end="url(#arrowhead)" stroke="none" x1="5946.5" x2="5946.5" y1="91.5" y2="137" />
<line marker-end="url(#arrowhead)" stroke="none" x1="5754.5" x2="5754.5" y1="91.5" y2="137" />
<line marker-end="url(#arrowhead)" stroke="none" x1="5562.5" x2="5562.5" y1="91.5" y2="137" />
<line marker-end="url(#arrowhead)" stroke="none" x1="5370.5" x2="5370.5" y1="91.5" y2="137" />
<line marker-end="url(#arrowhead)" stroke="none" x1="5178.5" x2="5178.5" y1="91.5" y2="137" />
<line marker-end="url(#arrowhead)" stroke="none" x1="4986.5" x2="4986.5" y1="91.5" y2="137" />
<line marker-end="url(#arrowhead)" stroke="none" x1="4794.5" x2="4794.5" y1="91.5" y2="137" />
<line marker-end="url(#arrowhead)" stroke="none" x1="4602.5" x2="4602.5" y1="91.5" y2="137" />
<line marker-end="url(#arrowhead)" stroke="none" x1="4410.5" x2="4410.5" y1="91.5" y2="137" />
<line marker-end="url(#arrowhead)" stroke="none" x1="4218.5" x2="4218.5" y1="91.5" y2="137" />
<line marker-end="url(#arrowhead)" stroke="none" x1="4026.5" x2="4026.5" y1="91.5" y2="137" />
<line marker-end="url(#arrowhead)" stroke="none" x1="3834.5" x2="3834.5" y1="91.5" y2="137" />
<line marker-end="url(#arrowhead)" stroke="none" x1="3642.5" x2="3642.5" y1="91.5" y2="137" />
<line marker-end="url(#arrowhead)" stroke="none" x1="3450.5" x2="3450.5" y1="91.5" y2="137" />
<line marker-end="url(#arrowhead)" stroke="none" x1="3258.5" x2="3258.5" y1="91.5" y2="137" />
<line marker-end="url(#arrowhead)" stroke="none" x1="3066.5" x2="3066.5" y1="91.5" y2="137" />
<line marker-end="url(#arrowhead)" stroke="none" x1="2874.5" x2="2874.5" y1="91.5" y2="137" />
<line marker-end="url(#arrowhead)" stroke="none" x1="2682.5" x2="2682.5" y1="91.5" y2="137" />
<line marker-end="url(#arrowhead)" stroke="none" x1="2490.5" x2="2490.5" y1="91.5" y2="137" />
<line marker-end="url(#arrowhead)" stroke="none" x1="2298.5" x2="2298.5" y1="91.5" y2="137" />
<line marker-end="url(#arrowhead)" stroke="none" x1="2106.5" x2="2106.5" y1="91.5" y2="137" />
<line marker-end="url(#arrowhead)" stroke="none" x1="1914.5" x2="1914.5" y1="91.5" y2="137" />
<line marker-end="url(#arrowhead)" stroke="none" x1="1722.5" x2="1722.5" y1="91.5" y2="137" />
<line marker-end="url(#arrowhead)" stroke="none" x1="1530.5" x2="1530.5" y1="91.5" y2="137" />
<line marker-end="url(#arrowhead)" stroke="none" x1="1338.5" x2="1338.5" y1="91.5" y2="137" />
<line marker-end="url(#arrowhead)" stroke="none" x1="1146.5" x2="1146.5" y1="91.5" y2="137" />
<line marker-end="url(#arrowhead)" stroke="none" x1="954.5" x2="954.5" y1="91.5" y2="137" />
<line marker-end="url(#arrowhead)" stroke="none" x1="762.5" x2="762.5" y1="91.5" y2="137" />
<line marker-end="url(#arrowhead)" stroke="none" x1="570.5" x2="570.5" y1="91.5" y2="137" />
<line marker-end="url(#arrowhead)" stroke="none" x1="378.5" x2="378.5" y1="91.5" y2="137" />
<line marker-end="url(#arrowhead)" stroke="none" x1="186.5" x2="186.5" y1="91.5" y2="137" />
</svg>