<svg xmlns="http://www.w3.org/2000/svg" viewBox="0 0 1638 219">
<style>
.label { font: 14px Helvetica; dominant-baseline: middle; text-anchor: middle; }
.title-left { font: 12px Helvetica; dominant-baseline: middle; }
.title-right { font: 12px Helvetica; dominant-baseline: middle; text-anchor: end; }
.title-intrinsic { font: 12px Helvetica; dominant-baseline: middle; text-anchor: middle; fill: #6778ED; }
.title { font: 12px Helvetica; dominant-baseline: middle; text-anchor: middle; }
.title-unused { font: 12px Helvetica; dominant-baseline: middle; text-anchor: middle; fill: #AAA; }
.register-name { font: 14px Helvetica; dominant-baseline: middle; text-anchor: end; font-style: italic; }
.memory-name { font: 14px Helvetica; dominant-baseline: middle; text-anchor: end; }
.register-number { font: 14px Helvetica; dominant-baseline: middle; text-anchor: start; }
.intrinsic-name { font: 14px Helvetica; dominant-baseline: middle; text-anchor: end; fill: #6778ED; }
.intrinsic-color { fill: #6778ED; }
.small-label { font: 12px Helvetica; dominant-baseline: middle; text-anchor: middle; }
.label-10px { font: 10px Helvetica; dominant-baseline: middle; text-anchor: middle; }
.smaller-label { font: 9px Helvetica; dominant-baseline: middle; text-anchor: middle; }
.label-6px { font: 6px Helvetica; dominant-baseline: middle; text-anchor: middle; }
.label-7px { font: 7px Helvetica; dominant-baseline: middle; text-anchor: middle; }
.unused { fill: #AAA; }
.dim { fill: #888; }
</style>
<defs>
<marker id="arrowhead" markerWidth="10.75" markerHeight="24.5" refX="9.0" refY="6.125" orient="auto">
<polyline points="0.5 0.5, 8.75 6.125, 0.5 11.75" stroke="#567DB6" stroke-width="1" fill="none"/>
</marker>
</defs>
<text class="title-left" x="90.5" y="9.5">upper</text>
<text class="title-right" x="1626.5" y="9.5">lower</text>
<rect fill="#DEE6F1" height="24" width="96" x="1530.5" y="18.5" />
<rect fill="none" height="24" stroke="#405C86" stroke-width="3" width="96" x="1530.5" y="18.5" />
<rect fill="#DEE6F1" height="24" width="96" x="1434.5" y="18.5" />
<rect fill="none" height="24" stroke="#405C86" stroke-width="3" width="96" x="1434.5" y="18.5" />
<rect fill="#DEE6F1" height="24" width="96" x="1338.5" y="18.5" />
<rect fill="none" height="24" stroke="#405C86" stroke-width="3" width="96" x="1338.5" y="18.5" />
<rect fill="#DEE6F1" height="24" width="96" x="1242.5" y="18.5" />
<rect fill="none" height="24" stroke="#405C86" stroke-width="3" width="96" x="1242.5" y="18.5" />
<rect fill="#DEE6F1" height="24" width="96" x="1146.5" y="18.5" />
<rect fill="none" height="24" stroke="#405C86" stroke-width="3" width="96" x="1146.5" y="18.5" />
<rect fill="#DEE6F1" height="24" width="96" x="1050.5" y="18.5" />
<rect fill="none" height="24" stroke="#405C86" stroke-width="3" width="96" x="1050.5" y="18.5" />
<rect fill="#DEE6F1" height="24" width="96" x="954.5" y="18.5" />
<rect fill="none" height="24" stroke="#405C86" stroke-width="3" width="96" x="954.5" y="18.5" />
<rect fill="#DEE6F1" height="24" width="96" x="858.5" y="18.5" />
<rect fill="none" height="24" stroke="#405C86" stroke-width="3" width="96" x="858.5" y="18.5" />
<rect fill="#DEE6F1" height="24" width="96" x="762.5" y="18.5" />
<rect fill="none" height="24" stroke="#405C86" stroke-width="3" width="96" x="762.5" y="18.5" />
<rect fill="#DEE6F1" height="24" width="96" x="666.5" y="18.5" />
<rect fill="none" height="24" stroke="#405C86" stroke-width="3" width="96" x="666.5" y="18.5" />
<rect fill="#DEE6F1" height="24" width="96" x="570.5" y="18.5" />
<rect fill="none" height="24" stroke="#405C86" stroke-width="3" width="96" x="570.5" y="18.5" />
<rect fill="#DEE6F1" height="24" width="96" x="474.5" y="18.5" />
<rect fill="none" height="24" stroke="#405C86" stroke-width="3" width="96" x="474.5" y="18.5" />
<rect fill="#DEE6F1" height="24" width="96" x="378.5" y="18.5" />
<rect fill="none" height="24" stroke="#405C86" stroke-width="3" width="96" x="378.5" y="18.5" />
<rect fill="#DEE6F1" height="24" width="96" x="282.5" y="18.5" />
<rect fill="none" height="24" stroke="#405C86" stroke-width="3" width="96" x="282.5" y="18.5" />
<rect fill="#DEE6F1" height="24" width="96" x="186.5" y="18.5" />
<rect fill="none" height="24" stroke="#405C86" stroke-width="3" width="96" x="186.5" y="18.5" />
<rect fill="#DEE6F1" height="24" width="96" x="90.5" y="18.5" />
<rect fill="none" height="24" stroke="#405C86" stroke-width="3" width="96" x="90.5" y="18.5" />
<text class="register-name" x="80.5" y="30.5">Zn</text>
<text class="intrinsic-name" x="80.5" y="42.5">op1</text>
<text class="register-number" x="10" y="30.5">(1)</text>
<rect fill="#DEE6F1" height="24" width="96" x="1530.5" y="66.5" />
<rect fill="none" height="24" stroke="#405C86" stroke-width="3" width="96" x="1530.5" y="66.5" />
<rect fill="#DEE6F1" height="24" width="96" x="1434.5" y="66.5" />
<rect fill="none" height="24" stroke="#405C86" stroke-width="3" width="96" x="1434.5" y="66.5" />
<rect fill="#DEE6F1" height="24" width="96" x="1338.5" y="66.5" />
<rect fill="none" height="24" stroke="#405C86" stroke-width="3" width="96" x="1338.5" y="66.5" />
<rect fill="#DEE6F1" height="24" width="96" x="1242.5" y="66.5" />
<rect fill="none" height="24" stroke="#405C86" stroke-width="3" width="96" x="1242.5" y="66.5" />
<rect fill="#DEE6F1" height="24" width="96" x="1146.5" y="66.5" />
<rect fill="none" height="24" stroke="#405C86" stroke-width="3" width="96" x="1146.5" y="66.5" />
<rect fill="#DEE6F1" height="24" width="96" x="1050.5" y="66.5" />
<rect fill="none" height="24" stroke="#405C86" stroke-width="3" width="96" x="1050.5" y="66.5" />
<rect fill="#DEE6F1" height="24" width="96" x="954.5" y="66.5" />
<rect fill="none" height="24" stroke="#405C86" stroke-width="3" width="96" x="954.5" y="66.5" />
<rect fill="#DEE6F1" height="24" width="96" x="858.5" y="66.5" />
<rect fill="none" height="24" stroke="#405C86" stroke-width="3" width="96" x="858.5" y="66.5" />
<rect fill="#DEE6F1" height="24" width="96" x="762.5" y="66.5" />
<rect fill="none" height="24" stroke="#405C86" stroke-width="3" width="96" x="762.5" y="66.5" />
<rect fill="#DEE6F1" height="24" width="96" x="666.5" y="66.5" />
<rect fill="none" height="24" stroke="#405C86" stroke-width="3" width="96" x="666.5" y="66.5" />
<rect fill="#DEE6F1" height="24" width="96" x="570.5" y="66.5" />
<rect fill="none" height="24" stroke="#405C86" stroke-width="3" width="96" x="570.5" y="66.5" />
<rect fill="#DEE6F1" height="24" width="96" x="474.5" y="66.5" />
<rect fill="none" height="24" stroke="#405C86" stroke-width="3" width="96" x="474.5" y="66.5" />
<rect fill="#DEE6F1" height="24" width="96" x="378.5" y="66.5" />
<rect fill="none" height="24" stroke="#405C86" stroke-width="3" width="96" x="378.5" y="66.5" />
<rect fill="#DEE6F1" height="24" width="96" x="282.5" y="66.5" />
<rect fill="none" height="24" stroke="#405C86" stroke-width="3" width="96" x="282.5" y="66.5" />
<rect fill="#DEE6F1" height="24" width="96" x="186.5" y="66.5" />
<rect fill="none" height="24" stroke="#405C86" stroke-width="3" width="96" x="186.5" y="66.5" />
<rect fill="#DEE6F1" height="24" width="96" x="90.5" y="66.5" />
<rect fill="none" height="24" stroke="#405C86" stroke-width="3" width="96" x="90.5" y="66.5" />
<text class="register-name" x="80.5" y="78.5">Zm</text>
<text class="intrinsic-name" x="80.5" y="90.5">op2</text>
<text class="register-number" x="10" y="78.5">(2)</text>
<rect fill="#DEE6F1" height="24" width="48" x="1578.5" y="114.5" />
<rect fill="none" height="24" stroke="#405C86" stroke-width="3" width="48" x="1578.5" y="114.5" />
<rect fill="none" height="24" stroke="#405C86" stroke-dasharray="3 1" stroke-dashoffset="1.5" stroke-width="1" width="48" x="1530.5" y="114.5" />
<text class="label unused" x="1554.5" y="127.5"></text>
<rect fill="#DEE6F1" height="24" width="48" x="1482.5" y="114.5" />
<rect fill="none" height="24" stroke="#405C86" stroke-width="3" width="48" x="1482.5" y="114.5" />
<rect fill="none" height="24" stroke="#405C86" stroke-dasharray="3 1" stroke-dashoffset="1.5" stroke-width="1" width="48" x="1434.5" y="114.5" />
<text class="label unused" x="1458.5" y="127.5"></text>
<rect fill="#DEE6F1" height="24" width="48" x="1386.5" y="114.5" />
<rect fill="none" height="24" stroke="#405C86" stroke-width="3" width="48" x="1386.5" y="114.5" />
<rect fill="none" height="24" stroke="#405C86" stroke-dasharray="3 1" stroke-dashoffset="1.5" stroke-width="1" width="48" x="1338.5" y="114.5" />
<text class="label unused" x="1362.5" y="127.5"></text>
<rect fill="#DEE6F1" height="24" width="48" x="1290.5" y="114.5" />
<rect fill="none" height="24" stroke="#405C86" stroke-width="3" width="48" x="1290.5" y="114.5" />
<rect fill="none" height="24" stroke="#405C86" stroke-dasharray="3 1" stroke-dashoffset="1.5" stroke-width="1" width="48" x="1242.5" y="114.5" />
<text class="label unused" x="1266.5" y="127.5"></text>
<rect fill="#DEE6F1" height="24" width="48" x="1194.5" y="114.5" />
<rect fill="none" height="24" stroke="#405C86" stroke-width="3" width="48" x="1194.5" y="114.5" />
<rect fill="none" height="24" stroke="#405C86" stroke-dasharray="3 1" stroke-dashoffset="1.5" stroke-width="1" width="48" x="1146.5" y="114.5" />
<text class="label unused" x="1170.5" y="127.5"></text>
<rect fill="#DEE6F1" height="24" width="48" x="1098.5" y="114.5" />
<rect fill="none" height="24" stroke="#405C86" stroke-width="3" width="48" x="1098.5" y="114.5" />
<rect fill="none" height="24" stroke="#405C86" stroke-dasharray="3 1" stroke-dashoffset="1.5" stroke-width="1" width="48" x="1050.5" y="114.5" />
<text class="label unused" x="1074.5" y="127.5"></text>
<rect fill="#DEE6F1" height="24" width="48" x="1002.5" y="114.5" />
<rect fill="none" height="24" stroke="#405C86" stroke-width="3" width="48" x="1002.5" y="114.5" />
<rect fill="none" height="24" stroke="#405C86" stroke-dasharray="3 1" stroke-dashoffset="1.5" stroke-width="1" width="48" x="954.5" y="114.5" />
<text class="label unused" x="978.5" y="127.5"></text>
<rect fill="#DEE6F1" height="24" width="48" x="906.5" y="114.5" />
<rect fill="none" height="24" stroke="#405C86" stroke-width="3" width="48" x="906.5" y="114.5" />
<rect fill="none" height="24" stroke="#405C86" stroke-dasharray="3 1" stroke-dashoffset="1.5" stroke-width="1" width="48" x="858.5" y="114.5" />
<text class="label unused" x="882.5" y="127.5"></text>
<rect fill="#DEE6F1" height="24" width="48" x="810.5" y="114.5" />
<rect fill="none" height="24" stroke="#405C86" stroke-width="3" width="48" x="810.5" y="114.5" />
<rect fill="none" height="24" stroke="#405C86" stroke-dasharray="3 1" stroke-dashoffset="1.5" stroke-width="1" width="48" x="762.5" y="114.5" />
<text class="label unused" x="786.5" y="127.5"></text>
<rect fill="#DEE6F1" height="24" width="48" x="714.5" y="114.5" />
<rect fill="none" height="24" stroke="#405C86" stroke-width="3" width="48" x="714.5" y="114.5" />
<rect fill="none" height="24" stroke="#405C86" stroke-dasharray="3 1" stroke-dashoffset="1.5" stroke-width="1" width="48" x="666.5" y="114.5" />
<text class="label unused" x="690.5" y="127.5"></text>
<rect fill="#DEE6F1" height="24" width="48" x="618.5" y="114.5" />
<rect fill="none" height="24" stroke="#405C86" stroke-width="3" width="48" x="618.5" y="114.5" />
<rect fill="none" height="24" stroke="#405C86" stroke-dasharray="3 1" stroke-dashoffset="1.5" stroke-width="1" width="48" x="570.5" y="114.5" />
<text class="label unused" x="594.5" y="127.5"></text>
<rect fill="#DEE6F1" height="24" width="48" x="522.5" y="114.5" />
<rect fill="none" height="24" stroke="#405C86" stroke-width="3" width="48" x="522.5" y="114.5" />
<rect fill="none" height="24" stroke="#405C86" stroke-dasharray="3 1" stroke-dashoffset="1.5" stroke-width="1" width="48" x="474.5" y="114.5" />
<text class="label unused" x="498.5" y="127.5"></text>
<rect fill="#DEE6F1" height="24" width="48" x="426.5" y="114.5" />
<rect fill="none" height="24" stroke="#405C86" stroke-width="3" width="48" x="426.5" y="114.5" />
<rect fill="none" height="24" stroke="#405C86" stroke-dasharray="3 1" stroke-dashoffset="1.5" stroke-width="1" width="48" x="378.5" y="114.5" />
<text class="label unused" x="402.5" y="127.5"></text>
<rect fill="#DEE6F1" height="24" width="48" x="330.5" y="114.5" />
<rect fill="none" height="24" stroke="#405C86" stroke-width="3" width="48" x="330.5" y="114.5" />
<rect fill="none" height="24" stroke="#405C86" stroke-dasharray="3 1" stroke-dashoffset="1.5" stroke-width="1" width="48" x="282.5" y="114.5" />
<text class="label unused" x="306.5" y="127.5"></text>
<rect fill="#DEE6F1" height="24" width="48" x="234.5" y="114.5" />
<rect fill="none" height="24" stroke="#405C86" stroke-width="3" width="48" x="234.5" y="114.5" />
<rect fill="none" height="24" stroke="#405C86" stroke-dasharray="3 1" stroke-dashoffset="1.5" stroke-width="1" width="48" x="186.5" y="114.5" />
<text class="label unused" x="210.5" y="127.5"></text>
<rect fill="#DEE6F1" height="24" width="48" x="138.5" y="114.5" />
<rect fill="none" height="24" stroke="#405C86" stroke-width="3" width="48" x="138.5" y="114.5" />
<rect fill="none" height="24" stroke="#405C86" stroke-dasharray="3 1" stroke-dashoffset="1.5" stroke-width="1" width="48" x="90.5" y="114.5" />
<text class="label unused" x="114.5" y="127.5"></text>
<text class="register-name" x="80.5" y="126.5">Zd</text>
<text class="intrinsic-name" x="80.5" y="138.5">even</text>
<text class="register-number" x="10" y="126.5">(3)</text>
<rect fill="#DEE6F1" height="24" width="48" x="1578.5" y="186.5" />
<rect fill="none" height="24" stroke="#405C86" stroke-width="3" width="48" x="1578.5" y="186.5" />
<rect fill="#DEE6F1" height="24" width="48" x="1530.5" y="186.5" />
<rect fill="none" height="24" stroke="#405C86" stroke-width="3" width="48" x="1530.5" y="186.5" />
<rect fill="#DEE6F1" height="24" width="48" x="1482.5" y="186.5" />
<rect fill="none" height="24" stroke="#405C86" stroke-width="3" width="48" x="1482.5" y="186.5" />
<rect fill="#DEE6F1" height="24" width="48" x="1434.5" y="186.5" />
<rect fill="none" height="24" stroke="#405C86" stroke-width="3" width="48" x="1434.5" y="186.5" />
<rect fill="#DEE6F1" height="24" width="48" x="1386.5" y="186.5" />
<rect fill="none" height="24" stroke="#405C86" stroke-width="3" width="48" x="1386.5" y="186.5" />
<rect fill="#DEE6F1" height="24" width="48" x="1338.5" y="186.5" />
<rect fill="none" height="24" stroke="#405C86" stroke-width="3" width="48" x="1338.5" y="186.5" />
<rect fill="#DEE6F1" height="24" width="48" x="1290.5" y="186.5" />
<rect fill="none" height="24" stroke="#405C86" stroke-width="3" width="48" x="1290.5" y="186.5" />
<rect fill="#DEE6F1" height="24" width="48" x="1242.5" y="186.5" />
<rect fill="none" height="24" stroke="#405C86" stroke-width="3" width="48" x="1242.5" y="186.5" />
<rect fill="#DEE6F1" height="24" width="48" x="1194.5" y="186.5" />
<rect fill="none" height="24" stroke="#405C86" stroke-width="3" width="48" x="1194.5" y="186.5" />
<rect fill="#DEE6F1" height="24" width="48" x="1146.5" y="186.5" />
<rect fill="none" height="24" stroke="#405C86" stroke-width="3" width="48" x="1146.5" y="186.5" />
<rect fill="#DEE6F1" height="24" width="48" x="1098.5" y="186.5" />
<rect fill="none" height="24" stroke="#405C86" stroke-width="3" width="48" x="1098.5" y="186.5" />
<rect fill="#DEE6F1" height="24" width="48" x="1050.5" y="186.5" />
<rect fill="none" height="24" stroke="#405C86" stroke-width="3" width="48" x="1050.5" y="186.5" />
<rect fill="#DEE6F1" height="24" width="48" x="1002.5" y="186.5" />
<rect fill="none" height="24" stroke="#405C86" stroke-width="3" width="48" x="1002.5" y="186.5" />
<rect fill="#DEE6F1" height="24" width="48" x="954.5" y="186.5" />
<rect fill="none" height="24" stroke="#405C86" stroke-width="3" width="48" x="954.5" y="186.5" />
<rect fill="#DEE6F1" height="24" width="48" x="906.5" y="186.5" />
<rect fill="none" height="24" stroke="#405C86" stroke-width="3" width="48" x="906.5" y="186.5" />
<rect fill="#DEE6F1" height="24" width="48" x="858.5" y="186.5" />
<rect fill="none" height="24" stroke="#405C86" stroke-width="3" width="48" x="858.5" y="186.5" />
<rect fill="#DEE6F1" height="24" width="48" x="810.5" y="186.5" />
<rect fill="none" height="24" stroke="#405C86" stroke-width="3" width="48" x="810.5" y="186.5" />
<rect fill="#DEE6F1" height="24" width="48" x="762.5" y="186.5" />
<rect fill="none" height="24" stroke="#405C86" stroke-width="3" width="48" x="762.5" y="186.5" />
<rect fill="#DEE6F1" height="24" width="48" x="714.5" y="186.5" />
<rect fill="none" height="24" stroke="#405C86" stroke-width="3" width="48" x="714.5" y="186.5" />
<rect fill="#DEE6F1" height="24" width="48" x="666.5" y="186.5" />
<rect fill="none" height="24" stroke="#405C86" stroke-width="3" width="48" x="666.5" y="186.5" />
<rect fill="#DEE6F1" height="24" width="48" x="618.5" y="186.5" />
<rect fill="none" height="24" stroke="#405C86" stroke-width="3" width="48" x="618.5" y="186.5" />
<rect fill="#DEE6F1" height="24" width="48" x="570.5" y="186.5" />
<rect fill="none" height="24" stroke="#405C86" stroke-width="3" width="48" x="570.5" y="186.5" />
<rect fill="#DEE6F1" height="24" width="48" x="522.5" y="186.5" />
<rect fill="none" height="24" stroke="#405C86" stroke-width="3" width="48" x="522.5" y="186.5" />
<rect fill="#DEE6F1" height="24" width="48" x="474.5" y="186.5" />
<rect fill="none" height="24" stroke="#405C86" stroke-width="3" width="48" x="474.5" y="186.5" />
<rect fill="#DEE6F1" height="24" width="48" x="426.5" y="186.5" />
<rect fill="none" height="24" stroke="#405C86" stroke-width="3" width="48" x="426.5" y="186.5" />
<rect fill="#DEE6F1" height="24" width="48" x="378.5" y="186.5" />
<rect fill="none" height="24" stroke="#405C86" stroke-width="3" width="48" x="378.5" y="186.5" />
<rect fill="#DEE6F1" height="24" width="48" x="330.5" y="186.5" />
<rect fill="none" height="24" stroke="#405C86" stroke-width="3" width="48" x="330.5" y="186.5" />
<rect fill="#DEE6F1" height="24" width="48" x="282.5" y="186.5" />
<rect fill="none" height="24" stroke="#405C86" stroke-width="3" width="48" x="282.5" y="186.5" />
<rect fill="#DEE6F1" height="24" width="48" x="234.5" y="186.5" />
<rect fill="none" height="24" stroke="#405C86" stroke-width="3" width="48" x="234.5" y="186.5" />
<rect fill="#DEE6F1" height="24" width="48" x="186.5" y="186.5" />
<rect fill="none" height="24" stroke="#405C86" stroke-width="3" width="48" x="186.5" y="186.5" />
<rect fill="#DEE6F1" height="24" width="48" x="138.5" y="186.5" />
<rect fill="none" height="24" stroke="#405C86" stroke-width="3" width="48" x="138.5" y="186.5" />
<rect fill="#DEE6F1" height="24" width="48" x="90.5" y="186.5" />
<rect fill="none" height="24" stroke="#405C86" stroke-width="3" width="48" x="90.5" y="186.5" />
<text class="register-name" x="80.5" y="198.5">Zd</text>
<text class="intrinsic-name" x="80.5" y="210.5">returns</text>
<text class="register-number" x="10" y="198.5">(3)</text>
<line stroke="#567DB6" stroke-width="1" x1="1554.5" x2="1554.5" y1="43.5" y2="65.5" />
<line stroke="#567DB6" stroke-width="1" x1="1458.5" x2="1458.5" y1="43.5" y2="65.5" />
<line stroke="#567DB6" stroke-width="1" x1="1362.5" x2="1362.5" y1="43.5" y2="65.5" />
<line stroke="#567DB6" stroke-width="1" x1="1266.5" x2="1266.5" y1="43.5" y2="65.5" />
<line stroke="#567DB6" stroke-width="1" x1="1170.5" x2="1170.5" y1="43.5" y2="65.5" />
<line stroke="#567DB6" stroke-width="1" x1="1074.5" x2="1074.5" y1="43.5" y2="65.5" />
<line stroke="#567DB6" stroke-width="1" x1="978.5" x2="978.5" y1="43.5" y2="65.5" />
<line stroke="#567DB6" stroke-width="1" x1="882.5" x2="882.5" y1="43.5" y2="65.5" />
<line stroke="#567DB6" stroke-width="1" x1="786.5" x2="786.5" y1="43.5" y2="65.5" />
<line stroke="#567DB6" stroke-width="1" x1="690.5" x2="690.5" y1="43.5" y2="65.5" />
<line stroke="#567DB6" stroke-width="1" x1="594.5" x2="594.5" y1="43.5" y2="65.5" />
<line stroke="#567DB6" stroke-width="1" x1="498.5" x2="498.5" y1="43.5" y2="65.5" />
<line stroke="#567DB6" stroke-width="1" x1="402.5" x2="402.5" y1="43.5" y2="65.5" />
<line stroke="#567DB6" stroke-width="1" x1="306.5" x2="306.5" y1="43.5" y2="65.5" />
<line stroke="#567DB6" stroke-width="1" x1="210.5" x2="210.5" y1="43.5" y2="65.5" />
<line stroke="#567DB6" stroke-width="1" x1="114.5" x2="114.5" y1="43.5" y2="65.5" />
<polyline fill="none" points="1533.5 91.5,1535.5 95.5,1553.5 95.5,1554.5 97.5,1554.5 101.5,1554.5 97.5,1555.5 95.5,1573.5 95.5,1575.5 91.5" stroke="#567DB6" stroke-width="1" />
<line stroke="#567DB6" stroke-width="1" x1="1554.5" x2="1554.5" y1="101.5" y2="185" />
<polyline fill="none" points="1437.5 91.5,1439.5 95.5,1457.5 95.5,1458.5 97.5,1458.5 101.5,1458.5 97.5,1459.5 95.5,1477.5 95.5,1479.5 91.5" stroke="#567DB6" stroke-width="1" />
<line stroke="#567DB6" stroke-width="1" x1="1458.5" x2="1458.5" y1="101.5" y2="185" />
<polyline fill="none" points="1341.5 91.5,1343.5 95.5,1361.5 95.5,1362.5 97.5,1362.5 101.5,1362.5 97.5,1363.5 95.5,1381.5 95.5,1383.5 91.5" stroke="#567DB6" stroke-width="1" />
<line stroke="#567DB6" stroke-width="1" x1="1362.5" x2="1362.5" y1="101.5" y2="185" />
<polyline fill="none" points="1245.5 91.5,1247.5 95.5,1265.5 95.5,1266.5 97.5,1266.5 101.5,1266.5 97.5,1267.5 95.5,1285.5 95.5,1287.5 91.5" stroke="#567DB6" stroke-width="1" />
<line stroke="#567DB6" stroke-width="1" x1="1266.5" x2="1266.5" y1="101.5" y2="185" />
<polyline fill="none" points="1149.5 91.5,1151.5 95.5,1169.5 95.5,1170.5 97.5,1170.5 101.5,1170.5 97.5,1171.5 95.5,1189.5 95.5,1191.5 91.5" stroke="#567DB6" stroke-width="1" />
<line stroke="#567DB6" stroke-width="1" x1="1170.5" x2="1170.5" y1="101.5" y2="185" />
<polyline fill="none" points="1053.5 91.5,1055.5 95.5,1073.5 95.5,1074.5 97.5,1074.5 101.5,1074.5 97.5,1075.5 95.5,1093.5 95.5,1095.5 91.5" stroke="#567DB6" stroke-width="1" />
<line stroke="#567DB6" stroke-width="1" x1="1074.5" x2="1074.5" y1="101.5" y2="185" />
<polyline fill="none" points="957.5 91.5,959.5 95.5,977.5 95.5,978.5 97.5,978.5 101.5,978.5 97.5,979.5 95.5,997.5 95.5,999.5 91.5" stroke="#567DB6" stroke-width="1" />
<line stroke="#567DB6" stroke-width="1" x1="978.5" x2="978.5" y1="101.5" y2="185" />
<polyline fill="none" points="861.5 91.5,863.5 95.5,881.5 95.5,882.5 97.5,882.5 101.5,882.5 97.5,883.5 95.5,901.5 95.5,903.5 91.5" stroke="#567DB6" stroke-width="1" />
<line stroke="#567DB6" stroke-width="1" x1="882.5" x2="882.5" y1="101.5" y2="185" />
<polyline fill="none" points="765.5 91.5,767.5 95.5,785.5 95.5,786.5 97.5,786.5 101.5,786.5 97.5,787.5 95.5,805.5 95.5,807.5 91.5" stroke="#567DB6" stroke-width="1" />
<line stroke="#567DB6" stroke-width="1" x1="786.5" x2="786.5" y1="101.5" y2="185" />
<polyline fill="none" points="669.5 91.5,671.5 95.5,689.5 95.5,690.5 97.5,690.5 101.5,690.5 97.5,691.5 95.5,709.5 95.5,711.5 91.5" stroke="#567DB6" stroke-width="1" />
<line stroke="#567DB6" stroke-width="1" x1="690.5" x2="690.5" y1="101.5" y2="185" />
<polyline fill="none" points="573.5 91.5,575.5 95.5,593.5 95.5,594.5 97.5,594.5 101.5,594.5 97.5,595.5 95.5,613.5 95.5,615.5 91.5" stroke="#567DB6" stroke-width="1" />
<line stroke="#567DB6" stroke-width="1" x1="594.5" x2="594.5" y1="101.5" y2="185" />
<polyline fill="none" points="477.5 91.5,479.5 95.5,497.5 95.5,498.5 97.5,498.5 101.5,498.5 97.5,499.5 95.5,517.5 95.5,519.5 91.5" stroke="#567DB6" stroke-width="1" />
<line stroke="#567DB6" stroke-width="1" x1="498.5" x2="498.5" y1="101.5" y2="185" />
<polyline fill="none" points="381.5 91.5,383.5 95.5,401.5 95.5,402.5 97.5,402.5 101.5,402.5 97.5,403.5 95.5,421.5 95.5,423.5 91.5" stroke="#567DB6" stroke-width="1" />
<line stroke="#567DB6" stroke-width="1" x1="402.5" x2="402.5" y1="101.5" y2="185" />
<polyline fill="none" points="285.5 91.5,287.5 95.5,305.5 95.5,306.5 97.5,306.5 101.5,306.5 97.5,307.5 95.5,325.5 95.5,327.5 91.5" stroke="#567DB6" stroke-width="1" />
<line stroke="#567DB6" stroke-width="1" x1="306.5" x2="306.5" y1="101.5" y2="185" />
<polyline fill="none" points="189.5 91.5,191.5 95.5,209.5 95.5,210.5 97.5,210.5 101.5,210.5 97.5,211.5 95.5,229.5 95.5,231.5 91.5" stroke="#567DB6" stroke-width="1" />
<line stroke="#567DB6" stroke-width="1" x1="210.5" x2="210.5" y1="101.5" y2="185" />
<polyline fill="none" points="93.5 91.5,95.5 95.5,113.5 95.5,114.5 97.5,114.5 101.5,114.5 97.5,115.5 95.5,133.5 95.5,135.5 91.5" stroke="#567DB6" stroke-width="1" />
<line stroke="#567DB6" stroke-width="1" x1="114.5" x2="114.5" y1="101.5" y2="185" />
<line stroke="#567DB6" stroke-width="1" x1="1602.5" x2="1602.5" y1="139.5" y2="185" />
<line stroke="#567DB6" stroke-width="1" x1="1506.5" x2="1506.5" y1="139.5" y2="185" />
<line stroke="#567DB6" stroke-width="1" x1="1410.5" x2="1410.5" y1="139.5" y2="185" />
<line stroke="#567DB6" stroke-width="1" x1="1314.5" x2="1314.5" y1="139.5" y2="185" />
<line stroke="#567DB6" stroke-width="1" x1="1218.5" x2="1218.5" y1="139.5" y2="185" />
<line stroke="#567DB6" stroke-width="1" x1="1122.5" x2="1122.5" y1="139.5" y2="185" />
<line stroke="#567DB6" stroke-width="1" x1="1026.5" x2="1026.5" y1="139.5" y2="185" />
<line stroke="#567DB6" stroke-width="1" x1="930.5" x2="930.5" y1="139.5" y2="185" />
<line stroke="#567DB6" stroke-width="1" x1="834.5" x2="834.5" y1="139.5" y2="185" />
<line stroke="#567DB6" stroke-width="1" x1="738.5" x2="738.5" y1="139.5" y2="185" />
<line stroke="#567DB6" stroke-width="1" x1="642.5" x2="642.5" y1="139.5" y2="185" />
<line stroke="#567DB6" stroke-width="1" x1="546.5" x2="546.5" y1="139.5" y2="185" />
<line stroke="#567DB6" stroke-width="1" x1="450.5" x2="450.5" y1="139.5" y2="185" />
<line stroke="#567DB6" stroke-width="1" x1="354.5" x2="354.5" y1="139.5" y2="185" />
<line stroke="#567DB6" stroke-width="1" x1="258.5" x2="258.5" y1="139.5" y2="185" />
<line stroke="#567DB6" stroke-width="1" x1="162.5" x2="162.5" y1="139.5" y2="185" />
<line marker-end="url(#arrowhead)" stroke="none" x1="1554.5" x2="1554.5" y1="101.5" y2="185" />
<line marker-end="url(#arrowhead)" stroke="none" x1="1458.5" x2="1458.5" y1="101.5" y2="185" />
<line marker-end="url(#arrowhead)" stroke="none" x1="1362.5" x2="1362.5" y1="101.5" y2="185" />
<line marker-end="url(#arrowhead)" stroke="none" x1="1266.5" x2="1266.5" y1="101.5" y2="185" />
<line marker-end="url(#arrowhead)" stroke="none" x1="1170.5" x2="1170.5" y1="101.5" y2="185" />
<line marker-end="url(#arrowhead)" stroke="none" x1="1074.5" x2="1074.5" y1="101.5" y2="185" />
<line marker-end="url(#arrowhead)" stroke="none" x1="978.5" x2="978.5" y1="101.5" y2="185" />
<line marker-end="url(#arrowhead)" stroke="none" x1="882.5" x2="882.5" y1="101.5" y2="185" />
<line marker-end="url(#arrowhead)" stroke="none" x1="786.5" x2="786.5" y1="101.5" y2="185" />
<line marker-end="url(#arrowhead)" stroke="none" x1="690.5" x2="690.5" y1="101.5" y2="185" />
<line marker-end="url(#arrowhead)" stroke="none" x1="594.5" x2="594.5" y1="101.5" y2="185" />
<line marker-end="url(#arrowhead)" stroke="none" x1="498.5" x2="498.5" y1="101.5" y2="185" />
<line marker-end="url(#arrowhead)" stroke="none" x1="402.5" x2="402.5" y1="101.5" y2="185" />
<line marker-end="url(#arrowhead)" stroke="none" x1="306.5" x2="306.5" y1="101.5" y2="185" />
<line marker-end="url(#arrowhead)" stroke="none" x1="210.5" x2="210.5" y1="101.5" y2="185" />
<line marker-end="url(#arrowhead)" stroke="none" x1="114.5" x2="114.5" y1="101.5" y2="185" />
<line marker-end="url(#arrowhead)" stroke="none" x1="1602.5" x2="1602.5" y1="139.5" y2="185" />
<line marker-end="url(#arrowhead)" stroke="none" x1="1506.5" x2="1506.5" y1="139.5" y2="185" />
<line marker-end="url(#arrowhead)" stroke="none" x1="1410.5" x2="1410.5" y1="139.5" y2="185" />
<line marker-end="url(#arrowhead)" stroke="none" x1="1314.5" x2="1314.5" y1="139.5" y2="185" />
<line marker-end="url(#arrowhead)" stroke="none" x1="1218.5" x2="1218.5" y1="139.5" y2="185" />
<line marker-end="url(#arrowhead)" stroke="none" x1="1122.5" x2="1122.5" y1="139.5" y2="185" />
<line marker-end="url(#arrowhead)" stroke="none" x1="1026.5" x2="1026.5" y1="139.5" y2="185" />
<line marker-end="url(#arrowhead)" stroke="none" x1="930.5" x2="930.5" y1="139.5" y2="185" />
<line marker-end="url(#arrowhead)" stroke="none" x1="834.5" x2="834.5" y1="139.5" y2="185" />
<line marker-end="url(#arrowhead)" stroke="none" x1="738.5" x2="738.5" y1="139.5" y2="185" />
<line marker-end="url(#arrowhead)" stroke="none" x1="642.5" x2="642.5" y1="139.5" y2="185" />
<line marker-end="url(#arrowhead)" stroke="none" x1="546.5" x2="546.5" y1="139.5" y2="185" />
<line marker-end="url(#arrowhead)" stroke="none" x1="450.5" x2="450.5" y1="139.5" y2="185" />
<line marker-end="url(#arrowhead)" stroke="none" x1="354.5" x2="354.5" y1="139.5" y2="185" />
<line marker-end="url(#arrowhead)" stroke="none" x1="258.5" x2="258.5" y1="139.5" y2="185" />
<line marker-end="url(#arrowhead)" stroke="none" x1="162.5" x2="162.5" y1="139.5" y2="185" />
</svg>