<svg xmlns="http://www.w3.org/2000/svg" viewBox="0 0 1638 171">
<style>
.label { font: 14px Helvetica; dominant-baseline: middle; text-anchor: middle; }
.title-left { font: 12px Helvetica; dominant-baseline: middle; }
.title-right { font: 12px Helvetica; dominant-baseline: middle; text-anchor: end; }
.title-intrinsic { font: 12px Helvetica; dominant-baseline: middle; text-anchor: middle; fill: #6778ED; }
.title { font: 12px Helvetica; dominant-baseline: middle; text-anchor: middle; }
.title-unused { font: 12px Helvetica; dominant-baseline: middle; text-anchor: middle; fill: #AAA; }
.register-name { font: 14px Helvetica; dominant-baseline: middle; text-anchor: end; font-style: italic; }
.memory-name { font: 14px Helvetica; dominant-baseline: middle; text-anchor: end; }
.register-number { font: 14px Helvetica; dominant-baseline: middle; text-anchor: start; }
.intrinsic-name { font: 14px Helvetica; dominant-baseline: middle; text-anchor: end; fill: #6778ED; }
.intrinsic-color { fill: #6778ED; }
.small-label { font: 12px Helvetica; dominant-baseline: middle; text-anchor: middle; }
.label-10px { font: 10px Helvetica; dominant-baseline: middle; text-anchor: middle; }
.smaller-label { font: 9px Helvetica; dominant-baseline: middle; text-anchor: middle; }
.label-6px { font: 6px Helvetica; dominant-baseline: middle; text-anchor: middle; }
.label-7px { font: 7px Helvetica; dominant-baseline: middle; text-anchor: middle; }
.unused { fill: #AAA; }
.dim { fill: #888; }
</style>
<defs>
<marker id="arrowhead" markerWidth="10.75" markerHeight="24.5" refX="9.0" refY="6.125" orient="auto">
<polyline points="0.5 0.5, 8.75 6.125, 0.5 11.75" stroke="#567DB6" stroke-width="1" fill="none"/>
</marker>
</defs>
<line stroke="#000" stroke-width="3" x1="474.5" x2="474.5" y1="11" y2="170" />
<line stroke="#000" stroke-width="3" x1="858.5" x2="858.5" y1="11" y2="170" />
<line stroke="#000" stroke-width="3" x1="1242.5" x2="1242.5" y1="11" y2="170" />
<line stroke="#567DB6" stroke-width="1" x1="1386.5" x2="1578.5" y1="43.5" y2="65.5" />
<line stroke="#567DB6" stroke-width="1" x1="1386.5" x2="1386.5" y1="43.5" y2="65.5" />
<line stroke="#567DB6" stroke-width="1" x1="1002.5" x2="1194.5" y1="43.5" y2="65.5" />
<line stroke="#567DB6" stroke-width="1" x1="1002.5" x2="1002.5" y1="43.5" y2="65.5" />
<line stroke="#567DB6" stroke-width="1" x1="618.5" x2="810.5" y1="43.5" y2="65.5" />
<line stroke="#567DB6" stroke-width="1" x1="618.5" x2="618.5" y1="43.5" y2="65.5" />
<line stroke="#567DB6" stroke-width="1" x1="234.5" x2="426.5" y1="43.5" y2="65.5" />
<line stroke="#567DB6" stroke-width="1" x1="234.5" x2="234.5" y1="43.5" y2="65.5" />
<line stroke="#567DB6" stroke-width="1" x1="1578.5" x2="1530.5" y1="91.5" y2="137" />
<line stroke="#567DB6" stroke-width="1" x1="1386.5" x2="1338.5" y1="91.5" y2="137" />
<line stroke="#567DB6" stroke-width="1" x1="1194.5" x2="1146.5" y1="91.5" y2="137" />
<line stroke="#567DB6" stroke-width="1" x1="1002.5" x2="954.5" y1="91.5" y2="137" />
<line stroke="#567DB6" stroke-width="1" x1="810.5" x2="762.5" y1="91.5" y2="137" />
<line stroke="#567DB6" stroke-width="1" x1="618.5" x2="570.5" y1="91.5" y2="137" />
<line stroke="#567DB6" stroke-width="1" x1="426.5" x2="378.5" y1="91.5" y2="137" />
<line stroke="#567DB6" stroke-width="1" x1="234.5" x2="186.5" y1="91.5" y2="137" />
<text class="title-left" x="90.5" y="9.5">upper</text>
<text class="title-right" x="1626.5" y="9.5">lower</text>
<text class="title-intrinsic" x="1386.5" y="8.5">imm_index</text>
<text class="title-intrinsic" x="1002.5" y="8.5">imm_index</text>
<text class="title-intrinsic" x="618.5" y="8.5">imm_index</text>
<text class="title-intrinsic" x="234.5" y="8.5">imm_index</text>
<rect fill="none" height="24" stroke="#405C86" stroke-dasharray="3 1" stroke-dashoffset="1.5" stroke-width="1" width="96" x="1530.5" y="18.5" />
<text class="label unused" x="1578.5" y="31.5">0</text>
<rect fill="none" height="24" stroke="#405C86" stroke-dasharray="3 1" stroke-dashoffset="1.5" stroke-width="1" width="96" x="1434.5" y="18.5" />
<text class="label unused" x="1482.5" y="31.5">1</text>
<rect fill="#DEE6F1" height="24" width="96" x="1338.5" y="18.5" />
<rect fill="none" height="24" stroke="#405C86" stroke-width="3" width="96" x="1338.5" y="18.5" />
<text class="label" x="1386.5" y="31.5">2</text>
<rect fill="none" height="24" stroke="#405C86" stroke-dasharray="3 1" stroke-dashoffset="1.5" stroke-width="1" width="96" x="1242.5" y="18.5" />
<text class="label unused" x="1290.5" y="31.5">3</text>
<rect fill="none" height="24" stroke="#405C86" stroke-dasharray="3 1" stroke-dashoffset="1.5" stroke-width="1" width="96" x="1146.5" y="18.5" />
<text class="label unused" x="1194.5" y="31.5">0</text>
<rect fill="none" height="24" stroke="#405C86" stroke-dasharray="3 1" stroke-dashoffset="1.5" stroke-width="1" width="96" x="1050.5" y="18.5" />
<text class="label unused" x="1098.5" y="31.5">1</text>
<rect fill="#DEE6F1" height="24" width="96" x="954.5" y="18.5" />
<rect fill="none" height="24" stroke="#405C86" stroke-width="3" width="96" x="954.5" y="18.5" />
<text class="label" x="1002.5" y="31.5">2</text>
<rect fill="none" height="24" stroke="#405C86" stroke-dasharray="3 1" stroke-dashoffset="1.5" stroke-width="1" width="96" x="858.5" y="18.5" />
<text class="label unused" x="906.5" y="31.5">3</text>
<rect fill="none" height="24" stroke="#405C86" stroke-dasharray="3 1" stroke-dashoffset="1.5" stroke-width="1" width="96" x="762.5" y="18.5" />
<text class="label unused" x="810.5" y="31.5">0</text>
<rect fill="none" height="24" stroke="#405C86" stroke-dasharray="3 1" stroke-dashoffset="1.5" stroke-width="1" width="96" x="666.5" y="18.5" />
<text class="label unused" x="714.5" y="31.5">1</text>
<rect fill="#DEE6F1" height="24" width="96" x="570.5" y="18.5" />
<rect fill="none" height="24" stroke="#405C86" stroke-width="3" width="96" x="570.5" y="18.5" />
<text class="label" x="618.5" y="31.5">2</text>
<rect fill="none" height="24" stroke="#405C86" stroke-dasharray="3 1" stroke-dashoffset="1.5" stroke-width="1" width="96" x="474.5" y="18.5" />
<text class="label unused" x="522.5" y="31.5">3</text>
<rect fill="none" height="24" stroke="#405C86" stroke-dasharray="3 1" stroke-dashoffset="1.5" stroke-width="1" width="96" x="378.5" y="18.5" />
<text class="label unused" x="426.5" y="31.5">0</text>
<rect fill="none" height="24" stroke="#405C86" stroke-dasharray="3 1" stroke-dashoffset="1.5" stroke-width="1" width="96" x="282.5" y="18.5" />
<text class="label unused" x="330.5" y="31.5">1</text>
<rect fill="#DEE6F1" height="24" width="96" x="186.5" y="18.5" />
<rect fill="none" height="24" stroke="#405C86" stroke-width="3" width="96" x="186.5" y="18.5" />
<text class="label" x="234.5" y="31.5">2</text>
<rect fill="none" height="24" stroke="#405C86" stroke-dasharray="3 1" stroke-dashoffset="1.5" stroke-width="1" width="96" x="90.5" y="18.5" />
<text class="label unused" x="138.5" y="31.5">3</text>
<text class="register-name" x="80.5" y="30.5">Zm</text>
<text class="intrinsic-name" x="80.5" y="42.5">op2</text>
<text class="register-number" x="10" y="30.5">(1)</text>
<rect fill="#DEE6F1" height="24" width="96" x="1530.5" y="66.5" />
<rect fill="none" height="24" stroke="#405C86" stroke-width="3" width="96" x="1530.5" y="66.5" />
<rect fill="none" height="24" stroke="#405C86" stroke-dasharray="3 1" stroke-dashoffset="1.5" stroke-width="1" width="96" x="1434.5" y="66.5" />
<text class="label unused" x="1482.5" y="79.5"></text>
<rect fill="#DEE6F1" height="24" width="96" x="1338.5" y="66.5" />
<rect fill="none" height="24" stroke="#405C86" stroke-width="3" width="96" x="1338.5" y="66.5" />
<rect fill="none" height="24" stroke="#405C86" stroke-dasharray="3 1" stroke-dashoffset="1.5" stroke-width="1" width="96" x="1242.5" y="66.5" />
<text class="label unused" x="1290.5" y="79.5"></text>
<rect fill="#DEE6F1" height="24" width="96" x="1146.5" y="66.5" />
<rect fill="none" height="24" stroke="#405C86" stroke-width="3" width="96" x="1146.5" y="66.5" />
<rect fill="none" height="24" stroke="#405C86" stroke-dasharray="3 1" stroke-dashoffset="1.5" stroke-width="1" width="96" x="1050.5" y="66.5" />
<text class="label unused" x="1098.5" y="79.5"></text>
<rect fill="#DEE6F1" height="24" width="96" x="954.5" y="66.5" />
<rect fill="none" height="24" stroke="#405C86" stroke-width="3" width="96" x="954.5" y="66.5" />
<rect fill="none" height="24" stroke="#405C86" stroke-dasharray="3 1" stroke-dashoffset="1.5" stroke-width="1" width="96" x="858.5" y="66.5" />
<text class="label unused" x="906.5" y="79.5"></text>
<rect fill="#DEE6F1" height="24" width="96" x="762.5" y="66.5" />
<rect fill="none" height="24" stroke="#405C86" stroke-width="3" width="96" x="762.5" y="66.5" />
<rect fill="none" height="24" stroke="#405C86" stroke-dasharray="3 1" stroke-dashoffset="1.5" stroke-width="1" width="96" x="666.5" y="66.5" />
<text class="label unused" x="714.5" y="79.5"></text>
<rect fill="#DEE6F1" height="24" width="96" x="570.5" y="66.5" />
<rect fill="none" height="24" stroke="#405C86" stroke-width="3" width="96" x="570.5" y="66.5" />
<rect fill="none" height="24" stroke="#405C86" stroke-dasharray="3 1" stroke-dashoffset="1.5" stroke-width="1" width="96" x="474.5" y="66.5" />
<text class="label unused" x="522.5" y="79.5"></text>
<rect fill="#DEE6F1" height="24" width="96" x="378.5" y="66.5" />
<rect fill="none" height="24" stroke="#405C86" stroke-width="3" width="96" x="378.5" y="66.5" />
<rect fill="none" height="24" stroke="#405C86" stroke-dasharray="3 1" stroke-dashoffset="1.5" stroke-width="1" width="96" x="282.5" y="66.5" />
<text class="label unused" x="330.5" y="79.5"></text>
<rect fill="#DEE6F1" height="24" width="96" x="186.5" y="66.5" />
<rect fill="none" height="24" stroke="#405C86" stroke-width="3" width="96" x="186.5" y="66.5" />
<rect fill="none" height="24" stroke="#405C86" stroke-dasharray="3 1" stroke-dashoffset="1.5" stroke-width="1" width="96" x="90.5" y="66.5" />
<text class="label unused" x="138.5" y="79.5"></text>
<text class="register-name" x="80.5" y="78.5">Zn</text>
<text class="intrinsic-name" x="80.5" y="90.5">op1</text>
<text class="register-number" x="10" y="78.5">(2)</text>
<rect fill="#DEE6F1" height="24" width="192" x="1434.5" y="138.5" />
<rect fill="none" height="24" stroke="#405C86" stroke-width="3" width="192" x="1434.5" y="138.5" />
<rect fill="#DEE6F1" height="24" width="192" x="1242.5" y="138.5" />
<rect fill="none" height="24" stroke="#405C86" stroke-width="3" width="192" x="1242.5" y="138.5" />
<rect fill="#DEE6F1" height="24" width="192" x="1050.5" y="138.5" />
<rect fill="none" height="24" stroke="#405C86" stroke-width="3" width="192" x="1050.5" y="138.5" />
<rect fill="#DEE6F1" height="24" width="192" x="858.5" y="138.5" />
<rect fill="none" height="24" stroke="#405C86" stroke-width="3" width="192" x="858.5" y="138.5" />
<rect fill="#DEE6F1" height="24" width="192" x="666.5" y="138.5" />
<rect fill="none" height="24" stroke="#405C86" stroke-width="3" width="192" x="666.5" y="138.5" />
<rect fill="#DEE6F1" height="24" width="192" x="474.5" y="138.5" />
<rect fill="none" height="24" stroke="#405C86" stroke-width="3" width="192" x="474.5" y="138.5" />
<rect fill="#DEE6F1" height="24" width="192" x="282.5" y="138.5" />
<rect fill="none" height="24" stroke="#405C86" stroke-width="3" width="192" x="282.5" y="138.5" />
<rect fill="#DEE6F1" height="24" width="192" x="90.5" y="138.5" />
<rect fill="none" height="24" stroke="#405C86" stroke-width="3" width="192" x="90.5" y="138.5" />
<text class="register-name" x="80.5" y="150.5">Zd</text>
<text class="intrinsic-name" x="80.5" y="162.5">returns</text>
<text class="register-number" x="10" y="150.5">(3)</text>
<line marker-end="url(#arrowhead)" stroke="none" x1="1578.5" x2="1530.5" y1="91.5" y2="137" />
<line marker-end="url(#arrowhead)" stroke="none" x1="1386.5" x2="1338.5" y1="91.5" y2="137" />
<line marker-end="url(#arrowhead)" stroke="none" x1="1194.5" x2="1146.5" y1="91.5" y2="137" />
<line marker-end="url(#arrowhead)" stroke="none" x1="1002.5" x2="954.5" y1="91.5" y2="137" />
<line marker-end="url(#arrowhead)" stroke="none" x1="810.5" x2="762.5" y1="91.5" y2="137" />
<line marker-end="url(#arrowhead)" stroke="none" x1="618.5" x2="570.5" y1="91.5" y2="137" />
<line marker-end="url(#arrowhead)" stroke="none" x1="426.5" x2="378.5" y1="91.5" y2="137" />
<line marker-end="url(#arrowhead)" stroke="none" x1="234.5" x2="186.5" y1="91.5" y2="137" />
</svg>