<svg xmlns="http://www.w3.org/2000/svg" viewBox="0 0 870 219">
<style>
.label { font: 14px Helvetica; dominant-baseline: middle; text-anchor: middle; }
.title-left { font: 12px Helvetica; dominant-baseline: middle; }
.title-right { font: 12px Helvetica; dominant-baseline: middle; text-anchor: end; }
.title-intrinsic { font: 12px Helvetica; dominant-baseline: middle; text-anchor: middle; fill: #6778ED; }
.title { font: 12px Helvetica; dominant-baseline: middle; text-anchor: middle; }
.title-unused { font: 12px Helvetica; dominant-baseline: middle; text-anchor: middle; fill: #AAA; }
.register-name { font: 14px Helvetica; dominant-baseline: middle; text-anchor: end; font-style: italic; }
.memory-name { font: 14px Helvetica; dominant-baseline: middle; text-anchor: end; }
.register-number { font: 14px Helvetica; dominant-baseline: middle; text-anchor: start; }
.intrinsic-name { font: 14px Helvetica; dominant-baseline: middle; text-anchor: end; fill: #6778ED; }
.intrinsic-color { fill: #6778ED; }
.small-label { font: 12px Helvetica; dominant-baseline: middle; text-anchor: middle; }
.label-10px { font: 10px Helvetica; dominant-baseline: middle; text-anchor: middle; }
.smaller-label { font: 9px Helvetica; dominant-baseline: middle; text-anchor: middle; }
.label-6px { font: 6px Helvetica; dominant-baseline: middle; text-anchor: middle; }
.label-7px { font: 7px Helvetica; dominant-baseline: middle; text-anchor: middle; }
.unused { fill: #AAA; }
.dim { fill: #888; }
</style>
<defs>
<marker id="arrowhead" markerWidth="10.75" markerHeight="24.5" refX="9.0" refY="6.125" orient="auto">
<polyline points="0.5 0.5, 8.75 6.125, 0.5 11.75" stroke="#567DB6" stroke-width="1" fill="none"/>
</marker>
</defs>
<text class="title-left" x="90.5" y="9.5">upper</text>
<text class="title-right" x="858.5" y="9.5">lower</text>
<rect fill="#DEE6F1" height="24" width="48" x="810.5" y="18.5" />
<rect fill="none" height="24" stroke="#405C86" stroke-width="3" width="48" x="810.5" y="18.5" />
<rect fill="#DEE6F1" height="24" width="48" x="762.5" y="18.5" />
<rect fill="none" height="24" stroke="#405C86" stroke-width="3" width="48" x="762.5" y="18.5" />
<rect fill="#DEE6F1" height="24" width="48" x="714.5" y="18.5" />
<rect fill="none" height="24" stroke="#405C86" stroke-width="3" width="48" x="714.5" y="18.5" />
<rect fill="#DEE6F1" height="24" width="48" x="666.5" y="18.5" />
<rect fill="none" height="24" stroke="#405C86" stroke-width="3" width="48" x="666.5" y="18.5" />
<rect fill="#DEE6F1" height="24" width="48" x="618.5" y="18.5" />
<rect fill="none" height="24" stroke="#405C86" stroke-width="3" width="48" x="618.5" y="18.5" />
<rect fill="#DEE6F1" height="24" width="48" x="570.5" y="18.5" />
<rect fill="none" height="24" stroke="#405C86" stroke-width="3" width="48" x="570.5" y="18.5" />
<rect fill="#DEE6F1" height="24" width="48" x="522.5" y="18.5" />
<rect fill="none" height="24" stroke="#405C86" stroke-width="3" width="48" x="522.5" y="18.5" />
<rect fill="#DEE6F1" height="24" width="48" x="474.5" y="18.5" />
<rect fill="none" height="24" stroke="#405C86" stroke-width="3" width="48" x="474.5" y="18.5" />
<rect fill="#DEE6F1" height="24" width="48" x="426.5" y="18.5" />
<rect fill="none" height="24" stroke="#405C86" stroke-width="3" width="48" x="426.5" y="18.5" />
<rect fill="#DEE6F1" height="24" width="48" x="378.5" y="18.5" />
<rect fill="none" height="24" stroke="#405C86" stroke-width="3" width="48" x="378.5" y="18.5" />
<rect fill="#DEE6F1" height="24" width="48" x="330.5" y="18.5" />
<rect fill="none" height="24" stroke="#405C86" stroke-width="3" width="48" x="330.5" y="18.5" />
<rect fill="#DEE6F1" height="24" width="48" x="282.5" y="18.5" />
<rect fill="none" height="24" stroke="#405C86" stroke-width="3" width="48" x="282.5" y="18.5" />
<rect fill="#DEE6F1" height="24" width="48" x="234.5" y="18.5" />
<rect fill="none" height="24" stroke="#405C86" stroke-width="3" width="48" x="234.5" y="18.5" />
<rect fill="#DEE6F1" height="24" width="48" x="186.5" y="18.5" />
<rect fill="none" height="24" stroke="#405C86" stroke-width="3" width="48" x="186.5" y="18.5" />
<rect fill="#DEE6F1" height="24" width="48" x="138.5" y="18.5" />
<rect fill="none" height="24" stroke="#405C86" stroke-width="3" width="48" x="138.5" y="18.5" />
<rect fill="#DEE6F1" height="24" width="48" x="90.5" y="18.5" />
<rect fill="none" height="24" stroke="#405C86" stroke-width="3" width="48" x="90.5" y="18.5" />
<text class="register-name" x="80.5" y="30.5">Zn</text>
<text class="intrinsic-name" x="80.5" y="42.5">op1</text>
<text class="register-number" x="10" y="30.5">(1)</text>
<rect fill="#DEE6F1" height="24" width="48" x="810.5" y="66.5" />
<rect fill="none" height="24" stroke="#405C86" stroke-width="3" width="48" x="810.5" y="66.5" />
<rect fill="#DEE6F1" height="24" width="48" x="762.5" y="66.5" />
<rect fill="none" height="24" stroke="#405C86" stroke-width="3" width="48" x="762.5" y="66.5" />
<rect fill="#DEE6F1" height="24" width="48" x="714.5" y="66.5" />
<rect fill="none" height="24" stroke="#405C86" stroke-width="3" width="48" x="714.5" y="66.5" />
<rect fill="#DEE6F1" height="24" width="48" x="666.5" y="66.5" />
<rect fill="none" height="24" stroke="#405C86" stroke-width="3" width="48" x="666.5" y="66.5" />
<rect fill="#DEE6F1" height="24" width="48" x="618.5" y="66.5" />
<rect fill="none" height="24" stroke="#405C86" stroke-width="3" width="48" x="618.5" y="66.5" />
<rect fill="#DEE6F1" height="24" width="48" x="570.5" y="66.5" />
<rect fill="none" height="24" stroke="#405C86" stroke-width="3" width="48" x="570.5" y="66.5" />
<rect fill="#DEE6F1" height="24" width="48" x="522.5" y="66.5" />
<rect fill="none" height="24" stroke="#405C86" stroke-width="3" width="48" x="522.5" y="66.5" />
<rect fill="#DEE6F1" height="24" width="48" x="474.5" y="66.5" />
<rect fill="none" height="24" stroke="#405C86" stroke-width="3" width="48" x="474.5" y="66.5" />
<rect fill="#DEE6F1" height="24" width="48" x="426.5" y="66.5" />
<rect fill="none" height="24" stroke="#405C86" stroke-width="3" width="48" x="426.5" y="66.5" />
<rect fill="#DEE6F1" height="24" width="48" x="378.5" y="66.5" />
<rect fill="none" height="24" stroke="#405C86" stroke-width="3" width="48" x="378.5" y="66.5" />
<rect fill="#DEE6F1" height="24" width="48" x="330.5" y="66.5" />
<rect fill="none" height="24" stroke="#405C86" stroke-width="3" width="48" x="330.5" y="66.5" />
<rect fill="#DEE6F1" height="24" width="48" x="282.5" y="66.5" />
<rect fill="none" height="24" stroke="#405C86" stroke-width="3" width="48" x="282.5" y="66.5" />
<rect fill="#DEE6F1" height="24" width="48" x="234.5" y="66.5" />
<rect fill="none" height="24" stroke="#405C86" stroke-width="3" width="48" x="234.5" y="66.5" />
<rect fill="#DEE6F1" height="24" width="48" x="186.5" y="66.5" />
<rect fill="none" height="24" stroke="#405C86" stroke-width="3" width="48" x="186.5" y="66.5" />
<rect fill="#DEE6F1" height="24" width="48" x="138.5" y="66.5" />
<rect fill="none" height="24" stroke="#405C86" stroke-width="3" width="48" x="138.5" y="66.5" />
<rect fill="#DEE6F1" height="24" width="48" x="90.5" y="66.5" />
<rect fill="none" height="24" stroke="#405C86" stroke-width="3" width="48" x="90.5" y="66.5" />
<text class="register-name" x="80.5" y="78.5">Zm</text>
<text class="intrinsic-name" x="80.5" y="90.5">op2</text>
<text class="register-number" x="10" y="78.5">(2)</text>
<rect fill="#DEE6F1" height="24" width="24" x="834.5" y="114.5" />
<rect fill="none" height="24" stroke="#405C86" stroke-width="3" width="24" x="834.5" y="114.5" />
<rect fill="none" height="24" stroke="#405C86" stroke-dasharray="3 1" stroke-dashoffset="1.5" stroke-width="1" width="24" x="810.5" y="114.5" />
<text class="label unused" x="822.5" y="127.5"></text>
<rect fill="#DEE6F1" height="24" width="24" x="786.5" y="114.5" />
<rect fill="none" height="24" stroke="#405C86" stroke-width="3" width="24" x="786.5" y="114.5" />
<rect fill="none" height="24" stroke="#405C86" stroke-dasharray="3 1" stroke-dashoffset="1.5" stroke-width="1" width="24" x="762.5" y="114.5" />
<text class="label unused" x="774.5" y="127.5"></text>
<rect fill="#DEE6F1" height="24" width="24" x="738.5" y="114.5" />
<rect fill="none" height="24" stroke="#405C86" stroke-width="3" width="24" x="738.5" y="114.5" />
<rect fill="none" height="24" stroke="#405C86" stroke-dasharray="3 1" stroke-dashoffset="1.5" stroke-width="1" width="24" x="714.5" y="114.5" />
<text class="label unused" x="726.5" y="127.5"></text>
<rect fill="#DEE6F1" height="24" width="24" x="690.5" y="114.5" />
<rect fill="none" height="24" stroke="#405C86" stroke-width="3" width="24" x="690.5" y="114.5" />
<rect fill="none" height="24" stroke="#405C86" stroke-dasharray="3 1" stroke-dashoffset="1.5" stroke-width="1" width="24" x="666.5" y="114.5" />
<text class="label unused" x="678.5" y="127.5"></text>
<rect fill="#DEE6F1" height="24" width="24" x="642.5" y="114.5" />
<rect fill="none" height="24" stroke="#405C86" stroke-width="3" width="24" x="642.5" y="114.5" />
<rect fill="none" height="24" stroke="#405C86" stroke-dasharray="3 1" stroke-dashoffset="1.5" stroke-width="1" width="24" x="618.5" y="114.5" />
<text class="label unused" x="630.5" y="127.5"></text>
<rect fill="#DEE6F1" height="24" width="24" x="594.5" y="114.5" />
<rect fill="none" height="24" stroke="#405C86" stroke-width="3" width="24" x="594.5" y="114.5" />
<rect fill="none" height="24" stroke="#405C86" stroke-dasharray="3 1" stroke-dashoffset="1.5" stroke-width="1" width="24" x="570.5" y="114.5" />
<text class="label unused" x="582.5" y="127.5"></text>
<rect fill="#DEE6F1" height="24" width="24" x="546.5" y="114.5" />
<rect fill="none" height="24" stroke="#405C86" stroke-width="3" width="24" x="546.5" y="114.5" />
<rect fill="none" height="24" stroke="#405C86" stroke-dasharray="3 1" stroke-dashoffset="1.5" stroke-width="1" width="24" x="522.5" y="114.5" />
<text class="label unused" x="534.5" y="127.5"></text>
<rect fill="#DEE6F1" height="24" width="24" x="498.5" y="114.5" />
<rect fill="none" height="24" stroke="#405C86" stroke-width="3" width="24" x="498.5" y="114.5" />
<rect fill="none" height="24" stroke="#405C86" stroke-dasharray="3 1" stroke-dashoffset="1.5" stroke-width="1" width="24" x="474.5" y="114.5" />
<text class="label unused" x="486.5" y="127.5"></text>
<rect fill="#DEE6F1" height="24" width="24" x="450.5" y="114.5" />
<rect fill="none" height="24" stroke="#405C86" stroke-width="3" width="24" x="450.5" y="114.5" />
<rect fill="none" height="24" stroke="#405C86" stroke-dasharray="3 1" stroke-dashoffset="1.5" stroke-width="1" width="24" x="426.5" y="114.5" />
<text class="label unused" x="438.5" y="127.5"></text>
<rect fill="#DEE6F1" height="24" width="24" x="402.5" y="114.5" />
<rect fill="none" height="24" stroke="#405C86" stroke-width="3" width="24" x="402.5" y="114.5" />
<rect fill="none" height="24" stroke="#405C86" stroke-dasharray="3 1" stroke-dashoffset="1.5" stroke-width="1" width="24" x="378.5" y="114.5" />
<text class="label unused" x="390.5" y="127.5"></text>
<rect fill="#DEE6F1" height="24" width="24" x="354.5" y="114.5" />
<rect fill="none" height="24" stroke="#405C86" stroke-width="3" width="24" x="354.5" y="114.5" />
<rect fill="none" height="24" stroke="#405C86" stroke-dasharray="3 1" stroke-dashoffset="1.5" stroke-width="1" width="24" x="330.5" y="114.5" />
<text class="label unused" x="342.5" y="127.5"></text>
<rect fill="#DEE6F1" height="24" width="24" x="306.5" y="114.5" />
<rect fill="none" height="24" stroke="#405C86" stroke-width="3" width="24" x="306.5" y="114.5" />
<rect fill="none" height="24" stroke="#405C86" stroke-dasharray="3 1" stroke-dashoffset="1.5" stroke-width="1" width="24" x="282.5" y="114.5" />
<text class="label unused" x="294.5" y="127.5"></text>
<rect fill="#DEE6F1" height="24" width="24" x="258.5" y="114.5" />
<rect fill="none" height="24" stroke="#405C86" stroke-width="3" width="24" x="258.5" y="114.5" />
<rect fill="none" height="24" stroke="#405C86" stroke-dasharray="3 1" stroke-dashoffset="1.5" stroke-width="1" width="24" x="234.5" y="114.5" />
<text class="label unused" x="246.5" y="127.5"></text>
<rect fill="#DEE6F1" height="24" width="24" x="210.5" y="114.5" />
<rect fill="none" height="24" stroke="#405C86" stroke-width="3" width="24" x="210.5" y="114.5" />
<rect fill="none" height="24" stroke="#405C86" stroke-dasharray="3 1" stroke-dashoffset="1.5" stroke-width="1" width="24" x="186.5" y="114.5" />
<text class="label unused" x="198.5" y="127.5"></text>
<rect fill="#DEE6F1" height="24" width="24" x="162.5" y="114.5" />
<rect fill="none" height="24" stroke="#405C86" stroke-width="3" width="24" x="162.5" y="114.5" />
<rect fill="none" height="24" stroke="#405C86" stroke-dasharray="3 1" stroke-dashoffset="1.5" stroke-width="1" width="24" x="138.5" y="114.5" />
<text class="label unused" x="150.5" y="127.5"></text>
<rect fill="#DEE6F1" height="24" width="24" x="114.5" y="114.5" />
<rect fill="none" height="24" stroke="#405C86" stroke-width="3" width="24" x="114.5" y="114.5" />
<rect fill="none" height="24" stroke="#405C86" stroke-dasharray="3 1" stroke-dashoffset="1.5" stroke-width="1" width="24" x="90.5" y="114.5" />
<text class="label unused" x="102.5" y="127.5"></text>
<text class="register-name" x="80.5" y="126.5">Zd</text>
<text class="intrinsic-name" x="80.5" y="138.5">even</text>
<text class="register-number" x="10" y="126.5">(3)</text>
<rect fill="#DEE6F1" height="24" width="24" x="834.5" y="186.5" />
<rect fill="none" height="24" stroke="#405C86" stroke-width="3" width="24" x="834.5" y="186.5" />
<rect fill="#DEE6F1" height="24" width="24" x="810.5" y="186.5" />
<rect fill="none" height="24" stroke="#405C86" stroke-width="3" width="24" x="810.5" y="186.5" />
<rect fill="#DEE6F1" height="24" width="24" x="786.5" y="186.5" />
<rect fill="none" height="24" stroke="#405C86" stroke-width="3" width="24" x="786.5" y="186.5" />
<rect fill="#DEE6F1" height="24" width="24" x="762.5" y="186.5" />
<rect fill="none" height="24" stroke="#405C86" stroke-width="3" width="24" x="762.5" y="186.5" />
<rect fill="#DEE6F1" height="24" width="24" x="738.5" y="186.5" />
<rect fill="none" height="24" stroke="#405C86" stroke-width="3" width="24" x="738.5" y="186.5" />
<rect fill="#DEE6F1" height="24" width="24" x="714.5" y="186.5" />
<rect fill="none" height="24" stroke="#405C86" stroke-width="3" width="24" x="714.5" y="186.5" />
<rect fill="#DEE6F1" height="24" width="24" x="690.5" y="186.5" />
<rect fill="none" height="24" stroke="#405C86" stroke-width="3" width="24" x="690.5" y="186.5" />
<rect fill="#DEE6F1" height="24" width="24" x="666.5" y="186.5" />
<rect fill="none" height="24" stroke="#405C86" stroke-width="3" width="24" x="666.5" y="186.5" />
<rect fill="#DEE6F1" height="24" width="24" x="642.5" y="186.5" />
<rect fill="none" height="24" stroke="#405C86" stroke-width="3" width="24" x="642.5" y="186.5" />
<rect fill="#DEE6F1" height="24" width="24" x="618.5" y="186.5" />
<rect fill="none" height="24" stroke="#405C86" stroke-width="3" width="24" x="618.5" y="186.5" />
<rect fill="#DEE6F1" height="24" width="24" x="594.5" y="186.5" />
<rect fill="none" height="24" stroke="#405C86" stroke-width="3" width="24" x="594.5" y="186.5" />
<rect fill="#DEE6F1" height="24" width="24" x="570.5" y="186.5" />
<rect fill="none" height="24" stroke="#405C86" stroke-width="3" width="24" x="570.5" y="186.5" />
<rect fill="#DEE6F1" height="24" width="24" x="546.5" y="186.5" />
<rect fill="none" height="24" stroke="#405C86" stroke-width="3" width="24" x="546.5" y="186.5" />
<rect fill="#DEE6F1" height="24" width="24" x="522.5" y="186.5" />
<rect fill="none" height="24" stroke="#405C86" stroke-width="3" width="24" x="522.5" y="186.5" />
<rect fill="#DEE6F1" height="24" width="24" x="498.5" y="186.5" />
<rect fill="none" height="24" stroke="#405C86" stroke-width="3" width="24" x="498.5" y="186.5" />
<rect fill="#DEE6F1" height="24" width="24" x="474.5" y="186.5" />
<rect fill="none" height="24" stroke="#405C86" stroke-width="3" width="24" x="474.5" y="186.5" />
<rect fill="#DEE6F1" height="24" width="24" x="450.5" y="186.5" />
<rect fill="none" height="24" stroke="#405C86" stroke-width="3" width="24" x="450.5" y="186.5" />
<rect fill="#DEE6F1" height="24" width="24" x="426.5" y="186.5" />
<rect fill="none" height="24" stroke="#405C86" stroke-width="3" width="24" x="426.5" y="186.5" />
<rect fill="#DEE6F1" height="24" width="24" x="402.5" y="186.5" />
<rect fill="none" height="24" stroke="#405C86" stroke-width="3" width="24" x="402.5" y="186.5" />
<rect fill="#DEE6F1" height="24" width="24" x="378.5" y="186.5" />
<rect fill="none" height="24" stroke="#405C86" stroke-width="3" width="24" x="378.5" y="186.5" />
<rect fill="#DEE6F1" height="24" width="24" x="354.5" y="186.5" />
<rect fill="none" height="24" stroke="#405C86" stroke-width="3" width="24" x="354.5" y="186.5" />
<rect fill="#DEE6F1" height="24" width="24" x="330.5" y="186.5" />
<rect fill="none" height="24" stroke="#405C86" stroke-width="3" width="24" x="330.5" y="186.5" />
<rect fill="#DEE6F1" height="24" width="24" x="306.5" y="186.5" />
<rect fill="none" height="24" stroke="#405C86" stroke-width="3" width="24" x="306.5" y="186.5" />
<rect fill="#DEE6F1" height="24" width="24" x="282.5" y="186.5" />
<rect fill="none" height="24" stroke="#405C86" stroke-width="3" width="24" x="282.5" y="186.5" />
<rect fill="#DEE6F1" height="24" width="24" x="258.5" y="186.5" />
<rect fill="none" height="24" stroke="#405C86" stroke-width="3" width="24" x="258.5" y="186.5" />
<rect fill="#DEE6F1" height="24" width="24" x="234.5" y="186.5" />
<rect fill="none" height="24" stroke="#405C86" stroke-width="3" width="24" x="234.5" y="186.5" />
<rect fill="#DEE6F1" height="24" width="24" x="210.5" y="186.5" />
<rect fill="none" height="24" stroke="#405C86" stroke-width="3" width="24" x="210.5" y="186.5" />
<rect fill="#DEE6F1" height="24" width="24" x="186.5" y="186.5" />
<rect fill="none" height="24" stroke="#405C86" stroke-width="3" width="24" x="186.5" y="186.5" />
<rect fill="#DEE6F1" height="24" width="24" x="162.5" y="186.5" />
<rect fill="none" height="24" stroke="#405C86" stroke-width="3" width="24" x="162.5" y="186.5" />
<rect fill="#DEE6F1" height="24" width="24" x="138.5" y="186.5" />
<rect fill="none" height="24" stroke="#405C86" stroke-width="3" width="24" x="138.5" y="186.5" />
<rect fill="#DEE6F1" height="24" width="24" x="114.5" y="186.5" />
<rect fill="none" height="24" stroke="#405C86" stroke-width="3" width="24" x="114.5" y="186.5" />
<rect fill="#DEE6F1" height="24" width="24" x="90.5" y="186.5" />
<rect fill="none" height="24" stroke="#405C86" stroke-width="3" width="24" x="90.5" y="186.5" />
<text class="register-name" x="80.5" y="198.5">Zd</text>
<text class="intrinsic-name" x="80.5" y="210.5">returns</text>
<text class="register-number" x="10" y="198.5">(3)</text>
<line stroke="#567DB6" stroke-width="1" x1="822.5" x2="822.5" y1="43.5" y2="65.5" />
<line stroke="#567DB6" stroke-width="1" x1="774.5" x2="774.5" y1="43.5" y2="65.5" />
<line stroke="#567DB6" stroke-width="1" x1="726.5" x2="726.5" y1="43.5" y2="65.5" />
<line stroke="#567DB6" stroke-width="1" x1="678.5" x2="678.5" y1="43.5" y2="65.5" />
<line stroke="#567DB6" stroke-width="1" x1="630.5" x2="630.5" y1="43.5" y2="65.5" />
<line stroke="#567DB6" stroke-width="1" x1="582.5" x2="582.5" y1="43.5" y2="65.5" />
<line stroke="#567DB6" stroke-width="1" x1="534.5" x2="534.5" y1="43.5" y2="65.5" />
<line stroke="#567DB6" stroke-width="1" x1="486.5" x2="486.5" y1="43.5" y2="65.5" />
<line stroke="#567DB6" stroke-width="1" x1="438.5" x2="438.5" y1="43.5" y2="65.5" />
<line stroke="#567DB6" stroke-width="1" x1="390.5" x2="390.5" y1="43.5" y2="65.5" />
<line stroke="#567DB6" stroke-width="1" x1="342.5" x2="342.5" y1="43.5" y2="65.5" />
<line stroke="#567DB6" stroke-width="1" x1="294.5" x2="294.5" y1="43.5" y2="65.5" />
<line stroke="#567DB6" stroke-width="1" x1="246.5" x2="246.5" y1="43.5" y2="65.5" />
<line stroke="#567DB6" stroke-width="1" x1="198.5" x2="198.5" y1="43.5" y2="65.5" />
<line stroke="#567DB6" stroke-width="1" x1="150.5" x2="150.5" y1="43.5" y2="65.5" />
<line stroke="#567DB6" stroke-width="1" x1="102.5" x2="102.5" y1="43.5" y2="65.5" />
<polyline fill="none" points="813.5 91.5,815.5 95.5,821.5 95.5,822.5 97.5,822.5 101.5,822.5 97.5,823.5 95.5,829.5 95.5,831.5 91.5" stroke="#567DB6" stroke-width="1" />
<line stroke="#567DB6" stroke-width="1" x1="822.5" x2="822.5" y1="101.5" y2="185" />
<polyline fill="none" points="765.5 91.5,767.5 95.5,773.5 95.5,774.5 97.5,774.5 101.5,774.5 97.5,775.5 95.5,781.5 95.5,783.5 91.5" stroke="#567DB6" stroke-width="1" />
<line stroke="#567DB6" stroke-width="1" x1="774.5" x2="774.5" y1="101.5" y2="185" />
<polyline fill="none" points="717.5 91.5,719.5 95.5,725.5 95.5,726.5 97.5,726.5 101.5,726.5 97.5,727.5 95.5,733.5 95.5,735.5 91.5" stroke="#567DB6" stroke-width="1" />
<line stroke="#567DB6" stroke-width="1" x1="726.5" x2="726.5" y1="101.5" y2="185" />
<polyline fill="none" points="669.5 91.5,671.5 95.5,677.5 95.5,678.5 97.5,678.5 101.5,678.5 97.5,679.5 95.5,685.5 95.5,687.5 91.5" stroke="#567DB6" stroke-width="1" />
<line stroke="#567DB6" stroke-width="1" x1="678.5" x2="678.5" y1="101.5" y2="185" />
<polyline fill="none" points="621.5 91.5,623.5 95.5,629.5 95.5,630.5 97.5,630.5 101.5,630.5 97.5,631.5 95.5,637.5 95.5,639.5 91.5" stroke="#567DB6" stroke-width="1" />
<line stroke="#567DB6" stroke-width="1" x1="630.5" x2="630.5" y1="101.5" y2="185" />
<polyline fill="none" points="573.5 91.5,575.5 95.5,581.5 95.5,582.5 97.5,582.5 101.5,582.5 97.5,583.5 95.5,589.5 95.5,591.5 91.5" stroke="#567DB6" stroke-width="1" />
<line stroke="#567DB6" stroke-width="1" x1="582.5" x2="582.5" y1="101.5" y2="185" />
<polyline fill="none" points="525.5 91.5,527.5 95.5,533.5 95.5,534.5 97.5,534.5 101.5,534.5 97.5,535.5 95.5,541.5 95.5,543.5 91.5" stroke="#567DB6" stroke-width="1" />
<line stroke="#567DB6" stroke-width="1" x1="534.5" x2="534.5" y1="101.5" y2="185" />
<polyline fill="none" points="477.5 91.5,479.5 95.5,485.5 95.5,486.5 97.5,486.5 101.5,486.5 97.5,487.5 95.5,493.5 95.5,495.5 91.5" stroke="#567DB6" stroke-width="1" />
<line stroke="#567DB6" stroke-width="1" x1="486.5" x2="486.5" y1="101.5" y2="185" />
<polyline fill="none" points="429.5 91.5,431.5 95.5,437.5 95.5,438.5 97.5,438.5 101.5,438.5 97.5,439.5 95.5,445.5 95.5,447.5 91.5" stroke="#567DB6" stroke-width="1" />
<line stroke="#567DB6" stroke-width="1" x1="438.5" x2="438.5" y1="101.5" y2="185" />
<polyline fill="none" points="381.5 91.5,383.5 95.5,389.5 95.5,390.5 97.5,390.5 101.5,390.5 97.5,391.5 95.5,397.5 95.5,399.5 91.5" stroke="#567DB6" stroke-width="1" />
<line stroke="#567DB6" stroke-width="1" x1="390.5" x2="390.5" y1="101.5" y2="185" />
<polyline fill="none" points="333.5 91.5,335.5 95.5,341.5 95.5,342.5 97.5,342.5 101.5,342.5 97.5,343.5 95.5,349.5 95.5,351.5 91.5" stroke="#567DB6" stroke-width="1" />
<line stroke="#567DB6" stroke-width="1" x1="342.5" x2="342.5" y1="101.5" y2="185" />
<polyline fill="none" points="285.5 91.5,287.5 95.5,293.5 95.5,294.5 97.5,294.5 101.5,294.5 97.5,295.5 95.5,301.5 95.5,303.5 91.5" stroke="#567DB6" stroke-width="1" />
<line stroke="#567DB6" stroke-width="1" x1="294.5" x2="294.5" y1="101.5" y2="185" />
<polyline fill="none" points="237.5 91.5,239.5 95.5,245.5 95.5,246.5 97.5,246.5 101.5,246.5 97.5,247.5 95.5,253.5 95.5,255.5 91.5" stroke="#567DB6" stroke-width="1" />
<line stroke="#567DB6" stroke-width="1" x1="246.5" x2="246.5" y1="101.5" y2="185" />
<polyline fill="none" points="189.5 91.5,191.5 95.5,197.5 95.5,198.5 97.5,198.5 101.5,198.5 97.5,199.5 95.5,205.5 95.5,207.5 91.5" stroke="#567DB6" stroke-width="1" />
<line stroke="#567DB6" stroke-width="1" x1="198.5" x2="198.5" y1="101.5" y2="185" />
<polyline fill="none" points="141.5 91.5,143.5 95.5,149.5 95.5,150.5 97.5,150.5 101.5,150.5 97.5,151.5 95.5,157.5 95.5,159.5 91.5" stroke="#567DB6" stroke-width="1" />
<line stroke="#567DB6" stroke-width="1" x1="150.5" x2="150.5" y1="101.5" y2="185" />
<polyline fill="none" points="93.5 91.5,95.5 95.5,101.5 95.5,102.5 97.5,102.5 101.5,102.5 97.5,103.5 95.5,109.5 95.5,111.5 91.5" stroke="#567DB6" stroke-width="1" />
<line stroke="#567DB6" stroke-width="1" x1="102.5" x2="102.5" y1="101.5" y2="185" />
<line stroke="#567DB6" stroke-width="1" x1="846.5" x2="846.5" y1="139.5" y2="185" />
<line stroke="#567DB6" stroke-width="1" x1="798.5" x2="798.5" y1="139.5" y2="185" />
<line stroke="#567DB6" stroke-width="1" x1="750.5" x2="750.5" y1="139.5" y2="185" />
<line stroke="#567DB6" stroke-width="1" x1="702.5" x2="702.5" y1="139.5" y2="185" />
<line stroke="#567DB6" stroke-width="1" x1="654.5" x2="654.5" y1="139.5" y2="185" />
<line stroke="#567DB6" stroke-width="1" x1="606.5" x2="606.5" y1="139.5" y2="185" />
<line stroke="#567DB6" stroke-width="1" x1="558.5" x2="558.5" y1="139.5" y2="185" />
<line stroke="#567DB6" stroke-width="1" x1="510.5" x2="510.5" y1="139.5" y2="185" />
<line stroke="#567DB6" stroke-width="1" x1="462.5" x2="462.5" y1="139.5" y2="185" />
<line stroke="#567DB6" stroke-width="1" x1="414.5" x2="414.5" y1="139.5" y2="185" />
<line stroke="#567DB6" stroke-width="1" x1="366.5" x2="366.5" y1="139.5" y2="185" />
<line stroke="#567DB6" stroke-width="1" x1="318.5" x2="318.5" y1="139.5" y2="185" />
<line stroke="#567DB6" stroke-width="1" x1="270.5" x2="270.5" y1="139.5" y2="185" />
<line stroke="#567DB6" stroke-width="1" x1="222.5" x2="222.5" y1="139.5" y2="185" />
<line stroke="#567DB6" stroke-width="1" x1="174.5" x2="174.5" y1="139.5" y2="185" />
<line stroke="#567DB6" stroke-width="1" x1="126.5" x2="126.5" y1="139.5" y2="185" />
<line marker-end="url(#arrowhead)" stroke="none" x1="822.5" x2="822.5" y1="101.5" y2="185" />
<line marker-end="url(#arrowhead)" stroke="none" x1="774.5" x2="774.5" y1="101.5" y2="185" />
<line marker-end="url(#arrowhead)" stroke="none" x1="726.5" x2="726.5" y1="101.5" y2="185" />
<line marker-end="url(#arrowhead)" stroke="none" x1="678.5" x2="678.5" y1="101.5" y2="185" />
<line marker-end="url(#arrowhead)" stroke="none" x1="630.5" x2="630.5" y1="101.5" y2="185" />
<line marker-end="url(#arrowhead)" stroke="none" x1="582.5" x2="582.5" y1="101.5" y2="185" />
<line marker-end="url(#arrowhead)" stroke="none" x1="534.5" x2="534.5" y1="101.5" y2="185" />
<line marker-end="url(#arrowhead)" stroke="none" x1="486.5" x2="486.5" y1="101.5" y2="185" />
<line marker-end="url(#arrowhead)" stroke="none" x1="438.5" x2="438.5" y1="101.5" y2="185" />
<line marker-end="url(#arrowhead)" stroke="none" x1="390.5" x2="390.5" y1="101.5" y2="185" />
<line marker-end="url(#arrowhead)" stroke="none" x1="342.5" x2="342.5" y1="101.5" y2="185" />
<line marker-end="url(#arrowhead)" stroke="none" x1="294.5" x2="294.5" y1="101.5" y2="185" />
<line marker-end="url(#arrowhead)" stroke="none" x1="246.5" x2="246.5" y1="101.5" y2="185" />
<line marker-end="url(#arrowhead)" stroke="none" x1="198.5" x2="198.5" y1="101.5" y2="185" />
<line marker-end="url(#arrowhead)" stroke="none" x1="150.5" x2="150.5" y1="101.5" y2="185" />
<line marker-end="url(#arrowhead)" stroke="none" x1="102.5" x2="102.5" y1="101.5" y2="185" />
<line marker-end="url(#arrowhead)" stroke="none" x1="846.5" x2="846.5" y1="139.5" y2="185" />
<line marker-end="url(#arrowhead)" stroke="none" x1="798.5" x2="798.5" y1="139.5" y2="185" />
<line marker-end="url(#arrowhead)" stroke="none" x1="750.5" x2="750.5" y1="139.5" y2="185" />
<line marker-end="url(#arrowhead)" stroke="none" x1="702.5" x2="702.5" y1="139.5" y2="185" />
<line marker-end="url(#arrowhead)" stroke="none" x1="654.5" x2="654.5" y1="139.5" y2="185" />
<line marker-end="url(#arrowhead)" stroke="none" x1="606.5" x2="606.5" y1="139.5" y2="185" />
<line marker-end="url(#arrowhead)" stroke="none" x1="558.5" x2="558.5" y1="139.5" y2="185" />
<line marker-end="url(#arrowhead)" stroke="none" x1="510.5" x2="510.5" y1="139.5" y2="185" />
<line marker-end="url(#arrowhead)" stroke="none" x1="462.5" x2="462.5" y1="139.5" y2="185" />
<line marker-end="url(#arrowhead)" stroke="none" x1="414.5" x2="414.5" y1="139.5" y2="185" />
<line marker-end="url(#arrowhead)" stroke="none" x1="366.5" x2="366.5" y1="139.5" y2="185" />
<line marker-end="url(#arrowhead)" stroke="none" x1="318.5" x2="318.5" y1="139.5" y2="185" />
<line marker-end="url(#arrowhead)" stroke="none" x1="270.5" x2="270.5" y1="139.5" y2="185" />
<line marker-end="url(#arrowhead)" stroke="none" x1="222.5" x2="222.5" y1="139.5" y2="185" />
<line marker-end="url(#arrowhead)" stroke="none" x1="174.5" x2="174.5" y1="139.5" y2="185" />
<line marker-end="url(#arrowhead)" stroke="none" x1="126.5" x2="126.5" y1="139.5" y2="185" />
</svg>