<svg xmlns="http://www.w3.org/2000/svg" viewBox="0 0 486 123">
<style>
.label { font: 14px Helvetica; dominant-baseline: middle; text-anchor: middle; }
.title-left { font: 12px Helvetica; dominant-baseline: middle; }
.title-right { font: 12px Helvetica; dominant-baseline: middle; text-anchor: end; }
.title-intrinsic { font: 12px Helvetica; dominant-baseline: middle; text-anchor: middle; fill: #6778ED; }
.title { font: 12px Helvetica; dominant-baseline: middle; text-anchor: middle; }
.title-unused { font: 12px Helvetica; dominant-baseline: middle; text-anchor: middle; fill: #AAA; }
.register-name { font: 14px Helvetica; dominant-baseline: middle; text-anchor: end; font-style: italic; }
.memory-name { font: 14px Helvetica; dominant-baseline: middle; text-anchor: end; }
.register-number { font: 14px Helvetica; dominant-baseline: middle; text-anchor: start; }
.intrinsic-name { font: 14px Helvetica; dominant-baseline: middle; text-anchor: end; fill: #6778ED; }
.intrinsic-color { fill: #6778ED; }
.small-label { font: 12px Helvetica; dominant-baseline: middle; text-anchor: middle; }
.label-10px { font: 10px Helvetica; dominant-baseline: middle; text-anchor: middle; }
.smaller-label { font: 9px Helvetica; dominant-baseline: middle; text-anchor: middle; }
.label-6px { font: 6px Helvetica; dominant-baseline: middle; text-anchor: middle; }
.label-7px { font: 7px Helvetica; dominant-baseline: middle; text-anchor: middle; }
.unused { fill: #AAA; }
.dim { fill: #888; }
</style>
<defs>
<marker id="arrowhead" markerWidth="10.75" markerHeight="24.5" refX="9.0" refY="6.125" orient="auto">
<polyline points="0.5 0.5, 8.75 6.125, 0.5 11.75" stroke="#567DB6" stroke-width="1" fill="none"/>
</marker>
</defs>
<line stroke="#567DB6" stroke-width="1" x1="246.5" x2="462.5" y1="43.5" y2="89" />
<line stroke="#567DB6" stroke-width="1" x1="246.5" x2="438.5" y1="43.5" y2="89" />
<line stroke="#567DB6" stroke-width="1" x1="246.5" x2="414.5" y1="43.5" y2="89" />
<line stroke="#567DB6" stroke-width="1" x1="246.5" x2="390.5" y1="43.5" y2="89" />
<line stroke="#567DB6" stroke-width="1" x1="246.5" x2="366.5" y1="43.5" y2="89" />
<line stroke="#567DB6" stroke-width="1" x1="246.5" x2="342.5" y1="43.5" y2="89" />
<line stroke="#567DB6" stroke-width="1" x1="246.5" x2="318.5" y1="43.5" y2="89" />
<line stroke="#567DB6" stroke-width="1" x1="246.5" x2="294.5" y1="43.5" y2="89" />
<line stroke="#567DB6" stroke-width="1" x1="246.5" x2="270.5" y1="43.5" y2="89" />
<line stroke="#567DB6" stroke-width="1" x1="246.5" x2="246.5" y1="43.5" y2="89" />
<line stroke="#567DB6" stroke-width="1" x1="246.5" x2="222.5" y1="43.5" y2="89" />
<line stroke="#567DB6" stroke-width="1" x1="246.5" x2="198.5" y1="43.5" y2="89" />
<line stroke="#567DB6" stroke-width="1" x1="246.5" x2="174.5" y1="43.5" y2="89" />
<line stroke="#567DB6" stroke-width="1" x1="246.5" x2="150.5" y1="43.5" y2="89" />
<line stroke="#567DB6" stroke-width="1" x1="246.5" x2="126.5" y1="43.5" y2="89" />
<line stroke="#567DB6" stroke-width="1" x1="246.5" x2="102.5" y1="43.5" y2="89" />
<text class="title-left" x="90.5" y="9.5">upper</text>
<text class="title-right" x="474.5" y="9.5">lower</text>
<text class="title-intrinsic" x="246.5" y="8.5">imm</text>
<rect fill="none" height="24" stroke="#405C86" stroke-dasharray="3 1" stroke-dashoffset="1.5" stroke-width="1" width="24" x="450.5" y="18.5" />
<text class="label unused" x="462.5" y="31.5">0</text>
<rect fill="none" height="24" stroke="#405C86" stroke-dasharray="3 1" stroke-dashoffset="1.5" stroke-width="1" width="24" x="426.5" y="18.5" />
<text class="label unused" x="438.5" y="31.5">1</text>
<rect fill="none" height="24" stroke="#405C86" stroke-dasharray="3 1" stroke-dashoffset="1.5" stroke-width="1" width="24" x="402.5" y="18.5" />
<text class="label unused" x="414.5" y="31.5">2</text>
<rect fill="none" height="24" stroke="#405C86" stroke-dasharray="3 1" stroke-dashoffset="1.5" stroke-width="1" width="24" x="378.5" y="18.5" />
<text class="label unused" x="390.5" y="31.5">3</text>
<rect fill="none" height="24" stroke="#405C86" stroke-dasharray="3 1" stroke-dashoffset="1.5" stroke-width="1" width="24" x="354.5" y="18.5" />
<text class="label unused" x="366.5" y="31.5">4</text>
<rect fill="none" height="24" stroke="#405C86" stroke-dasharray="3 1" stroke-dashoffset="1.5" stroke-width="1" width="24" x="330.5" y="18.5" />
<text class="label unused" x="342.5" y="31.5">5</text>
<rect fill="none" height="24" stroke="#405C86" stroke-dasharray="3 1" stroke-dashoffset="1.5" stroke-width="1" width="24" x="306.5" y="18.5" />
<text class="label unused" x="318.5" y="31.5">6</text>
<rect fill="none" height="24" stroke="#405C86" stroke-dasharray="3 1" stroke-dashoffset="1.5" stroke-width="1" width="24" x="282.5" y="18.5" />
<text class="label unused" x="294.5" y="31.5">7</text>
<rect fill="none" height="24" stroke="#405C86" stroke-dasharray="3 1" stroke-dashoffset="1.5" stroke-width="1" width="24" x="258.5" y="18.5" />
<text class="label unused" x="270.5" y="31.5">8</text>
<rect fill="#DEE6F1" height="24" width="24" x="234.5" y="18.5" />
<rect fill="none" height="24" stroke="#405C86" stroke-width="3" width="24" x="234.5" y="18.5" />
<rect fill="none" height="24" stroke="#405C86" stroke-dasharray="3 1" stroke-dashoffset="1.5" stroke-width="1" width="24" x="210.5" y="18.5" />
<text class="label unused" x="222.5" y="31.5">10</text>
<rect fill="none" height="24" stroke="#405C86" stroke-dasharray="3 1" stroke-dashoffset="1.5" stroke-width="1" width="24" x="186.5" y="18.5" />
<text class="label unused" x="198.5" y="31.5">11</text>
<rect fill="none" height="24" stroke="#405C86" stroke-dasharray="3 1" stroke-dashoffset="1.5" stroke-width="1" width="24" x="162.5" y="18.5" />
<text class="label unused" x="174.5" y="31.5">12</text>
<rect fill="none" height="24" stroke="#405C86" stroke-dasharray="3 1" stroke-dashoffset="1.5" stroke-width="1" width="24" x="138.5" y="18.5" />
<text class="label unused" x="150.5" y="31.5">13</text>
<rect fill="none" height="24" stroke="#405C86" stroke-dasharray="3 1" stroke-dashoffset="1.5" stroke-width="1" width="24" x="114.5" y="18.5" />
<text class="label unused" x="126.5" y="31.5">14</text>
<rect fill="none" height="24" stroke="#405C86" stroke-dasharray="3 1" stroke-dashoffset="1.5" stroke-width="1" width="24" x="90.5" y="18.5" />
<text class="label unused" x="102.5" y="31.5">15</text>
<text class="register-name" x="80.5" y="30.5">Zn</text>
<text class="register-number" x="10" y="30.5">(1)</text>
<rect fill="#DEE6F1" height="24" width="24" x="450.5" y="90.5" />
<rect fill="none" height="24" stroke="#405C86" stroke-width="3" width="24" x="450.5" y="90.5" />
<rect fill="#DEE6F1" height="24" width="24" x="426.5" y="90.5" />
<rect fill="none" height="24" stroke="#405C86" stroke-width="3" width="24" x="426.5" y="90.5" />
<rect fill="#DEE6F1" height="24" width="24" x="402.5" y="90.5" />
<rect fill="none" height="24" stroke="#405C86" stroke-width="3" width="24" x="402.5" y="90.5" />
<rect fill="#DEE6F1" height="24" width="24" x="378.5" y="90.5" />
<rect fill="none" height="24" stroke="#405C86" stroke-width="3" width="24" x="378.5" y="90.5" />
<rect fill="#DEE6F1" height="24" width="24" x="354.5" y="90.5" />
<rect fill="none" height="24" stroke="#405C86" stroke-width="3" width="24" x="354.5" y="90.5" />
<rect fill="#DEE6F1" height="24" width="24" x="330.5" y="90.5" />
<rect fill="none" height="24" stroke="#405C86" stroke-width="3" width="24" x="330.5" y="90.5" />
<rect fill="#DEE6F1" height="24" width="24" x="306.5" y="90.5" />
<rect fill="none" height="24" stroke="#405C86" stroke-width="3" width="24" x="306.5" y="90.5" />
<rect fill="#DEE6F1" height="24" width="24" x="282.5" y="90.5" />
<rect fill="none" height="24" stroke="#405C86" stroke-width="3" width="24" x="282.5" y="90.5" />
<rect fill="#DEE6F1" height="24" width="24" x="258.5" y="90.5" />
<rect fill="none" height="24" stroke="#405C86" stroke-width="3" width="24" x="258.5" y="90.5" />
<rect fill="#DEE6F1" height="24" width="24" x="234.5" y="90.5" />
<rect fill="none" height="24" stroke="#405C86" stroke-width="3" width="24" x="234.5" y="90.5" />
<rect fill="#DEE6F1" height="24" width="24" x="210.5" y="90.5" />
<rect fill="none" height="24" stroke="#405C86" stroke-width="3" width="24" x="210.5" y="90.5" />
<rect fill="#DEE6F1" height="24" width="24" x="186.5" y="90.5" />
<rect fill="none" height="24" stroke="#405C86" stroke-width="3" width="24" x="186.5" y="90.5" />
<rect fill="#DEE6F1" height="24" width="24" x="162.5" y="90.5" />
<rect fill="none" height="24" stroke="#405C86" stroke-width="3" width="24" x="162.5" y="90.5" />
<rect fill="#DEE6F1" height="24" width="24" x="138.5" y="90.5" />
<rect fill="none" height="24" stroke="#405C86" stroke-width="3" width="24" x="138.5" y="90.5" />
<rect fill="#DEE6F1" height="24" width="24" x="114.5" y="90.5" />
<rect fill="none" height="24" stroke="#405C86" stroke-width="3" width="24" x="114.5" y="90.5" />
<rect fill="#DEE6F1" height="24" width="24" x="90.5" y="90.5" />
<rect fill="none" height="24" stroke="#405C86" stroke-width="3" width="24" x="90.5" y="90.5" />
<text class="register-name" x="80.5" y="102.5">Zd</text>
<text class="register-number" x="10" y="102.5">(2)</text>
<line marker-end="url(#arrowhead)" stroke="none" x1="246.5" x2="462.5" y1="43.5" y2="89" />
<line marker-end="url(#arrowhead)" stroke="none" x1="246.5" x2="438.5" y1="43.5" y2="89" />
<line marker-end="url(#arrowhead)" stroke="none" x1="246.5" x2="414.5" y1="43.5" y2="89" />
<line marker-end="url(#arrowhead)" stroke="none" x1="246.5" x2="390.5" y1="43.5" y2="89" />
<line marker-end="url(#arrowhead)" stroke="none" x1="246.5" x2="366.5" y1="43.5" y2="89" />
<line marker-end="url(#arrowhead)" stroke="none" x1="246.5" x2="342.5" y1="43.5" y2="89" />
<line marker-end="url(#arrowhead)" stroke="none" x1="246.5" x2="318.5" y1="43.5" y2="89" />
<line marker-end="url(#arrowhead)" stroke="none" x1="246.5" x2="294.5" y1="43.5" y2="89" />
<line marker-end="url(#arrowhead)" stroke="none" x1="246.5" x2="270.5" y1="43.5" y2="89" />
<line marker-end="url(#arrowhead)" stroke="none" x1="246.5" x2="246.5" y1="43.5" y2="89" />
<line marker-end="url(#arrowhead)" stroke="none" x1="246.5" x2="222.5" y1="43.5" y2="89" />
<line marker-end="url(#arrowhead)" stroke="none" x1="246.5" x2="198.5" y1="43.5" y2="89" />
<line marker-end="url(#arrowhead)" stroke="none" x1="246.5" x2="174.5" y1="43.5" y2="89" />
<line marker-end="url(#arrowhead)" stroke="none" x1="246.5" x2="150.5" y1="43.5" y2="89" />
<line marker-end="url(#arrowhead)" stroke="none" x1="246.5" x2="126.5" y1="43.5" y2="89" />
<line marker-end="url(#arrowhead)" stroke="none" x1="246.5" x2="102.5" y1="43.5" y2="89" />
</svg>