<svg xmlns="http://www.w3.org/2000/svg" viewBox="0 0 6246 123">
<style>
.label { font: 14px Helvetica; dominant-baseline: middle; text-anchor: middle; }
.title-left { font: 12px Helvetica; dominant-baseline: middle; }
.title-right { font: 12px Helvetica; dominant-baseline: middle; text-anchor: end; }
.title-intrinsic { font: 12px Helvetica; dominant-baseline: middle; text-anchor: middle; fill: #6778ED; }
.title { font: 12px Helvetica; dominant-baseline: middle; text-anchor: middle; }
.title-unused { font: 12px Helvetica; dominant-baseline: middle; text-anchor: middle; fill: #AAA; }
.register-name { font: 14px Helvetica; dominant-baseline: middle; text-anchor: end; font-style: italic; }
.memory-name { font: 14px Helvetica; dominant-baseline: middle; text-anchor: end; }
.register-number { font: 14px Helvetica; dominant-baseline: middle; text-anchor: start; }
.intrinsic-name { font: 14px Helvetica; dominant-baseline: middle; text-anchor: end; fill: #6778ED; }
.intrinsic-color { fill: #6778ED; }
.small-label { font: 12px Helvetica; dominant-baseline: middle; text-anchor: middle; }
.label-10px { font: 10px Helvetica; dominant-baseline: middle; text-anchor: middle; }
.smaller-label { font: 9px Helvetica; dominant-baseline: middle; text-anchor: middle; }
.label-6px { font: 6px Helvetica; dominant-baseline: middle; text-anchor: middle; }
.label-7px { font: 7px Helvetica; dominant-baseline: middle; text-anchor: middle; }
.unused { fill: #AAA; }
.dim { fill: #888; }
</style>
<defs>
<marker id="arrowhead" markerWidth="10.75" markerHeight="24.5" refX="9.0" refY="6.125" orient="auto">
<polyline points="0.5 0.5, 8.75 6.125, 0.5 11.75" stroke="#567DB6" stroke-width="1" fill="none"/>
</marker>
</defs>
<line stroke="#567DB6" stroke-width="1" x1="5274.5" x2="6042.5" y1="43.5" y2="89" />
<line stroke="#567DB6" stroke-width="1" x1="5274.5" x2="5658.5" y1="43.5" y2="89" />
<line stroke="#567DB6" stroke-width="1" x1="5274.5" x2="5274.5" y1="43.5" y2="89" />
<line stroke="#567DB6" stroke-width="1" x1="5274.5" x2="4890.5" y1="43.5" y2="89" />
<line stroke="#567DB6" stroke-width="1" x1="5274.5" x2="4506.5" y1="43.5" y2="89" />
<line stroke="#567DB6" stroke-width="1" x1="5274.5" x2="4122.5" y1="43.5" y2="89" />
<line stroke="#567DB6" stroke-width="1" x1="5274.5" x2="3738.5" y1="43.5" y2="89" />
<line stroke="#567DB6" stroke-width="1" x1="5274.5" x2="3354.5" y1="43.5" y2="89" />
<line stroke="#567DB6" stroke-width="1" x1="5274.5" x2="2970.5" y1="43.5" y2="89" />
<line stroke="#567DB6" stroke-width="1" x1="5274.5" x2="2586.5" y1="43.5" y2="89" />
<line stroke="#567DB6" stroke-width="1" x1="5274.5" x2="2202.5" y1="43.5" y2="89" />
<line stroke="#567DB6" stroke-width="1" x1="5274.5" x2="1818.5" y1="43.5" y2="89" />
<line stroke="#567DB6" stroke-width="1" x1="5274.5" x2="1434.5" y1="43.5" y2="89" />
<line stroke="#567DB6" stroke-width="1" x1="5274.5" x2="1050.5" y1="43.5" y2="89" />
<line stroke="#567DB6" stroke-width="1" x1="5274.5" x2="666.5" y1="43.5" y2="89" />
<line stroke="#567DB6" stroke-width="1" x1="5274.5" x2="282.5" y1="43.5" y2="89" />
<text class="title-left" x="90.5" y="9.5">upper</text>
<text class="title-right" x="6234.5" y="9.5">lower</text>
<text class="title-intrinsic" x="5274.5" y="8.5">index</text>
<rect fill="none" height="24" stroke="#405C86" stroke-dasharray="3 1" stroke-dashoffset="1.5" stroke-width="1" width="384" x="5850.5" y="18.5" />
<text class="label unused" x="6042.5" y="31.5">0</text>
<rect fill="none" height="24" stroke="#405C86" stroke-dasharray="3 1" stroke-dashoffset="1.5" stroke-width="1" width="384" x="5466.5" y="18.5" />
<text class="label unused" x="5658.5" y="31.5">1</text>
<rect fill="#DEE6F1" height="24" width="384" x="5082.5" y="18.5" />
<rect fill="none" height="24" stroke="#405C86" stroke-width="3" width="384" x="5082.5" y="18.5" />
<rect fill="none" height="24" stroke="#405C86" stroke-dasharray="3 1" stroke-dashoffset="1.5" stroke-width="1" width="384" x="4698.5" y="18.5" />
<text class="label unused" x="4890.5" y="31.5">3</text>
<rect fill="none" height="24" stroke="#405C86" stroke-dasharray="3 1" stroke-dashoffset="1.5" stroke-width="1" width="4608" x="90.5" y="18.5" />
<text class="label unused" x="2394.5" y="31.5"></text>
<text class="register-name" x="80.5" y="30.5">Zn</text>
<text class="intrinsic-name" x="80.5" y="42.5">data</text>
<text class="register-number" x="10" y="30.5">(1)</text>
<rect fill="#DEE6F1" height="24" width="384" x="5850.5" y="90.5" />
<rect fill="none" height="24" stroke="#405C86" stroke-width="3" width="384" x="5850.5" y="90.5" />
<rect fill="#DEE6F1" height="24" width="384" x="5466.5" y="90.5" />
<rect fill="none" height="24" stroke="#405C86" stroke-width="3" width="384" x="5466.5" y="90.5" />
<rect fill="#DEE6F1" height="24" width="384" x="5082.5" y="90.5" />
<rect fill="none" height="24" stroke="#405C86" stroke-width="3" width="384" x="5082.5" y="90.5" />
<rect fill="#DEE6F1" height="24" width="384" x="4698.5" y="90.5" />
<rect fill="none" height="24" stroke="#405C86" stroke-width="3" width="384" x="4698.5" y="90.5" />
<rect fill="#DEE6F1" height="24" width="384" x="4314.5" y="90.5" />
<rect fill="none" height="24" stroke="#405C86" stroke-width="3" width="384" x="4314.5" y="90.5" />
<rect fill="#DEE6F1" height="24" width="384" x="3930.5" y="90.5" />
<rect fill="none" height="24" stroke="#405C86" stroke-width="3" width="384" x="3930.5" y="90.5" />
<rect fill="#DEE6F1" height="24" width="384" x="3546.5" y="90.5" />
<rect fill="none" height="24" stroke="#405C86" stroke-width="3" width="384" x="3546.5" y="90.5" />
<rect fill="#DEE6F1" height="24" width="384" x="3162.5" y="90.5" />
<rect fill="none" height="24" stroke="#405C86" stroke-width="3" width="384" x="3162.5" y="90.5" />
<rect fill="#DEE6F1" height="24" width="384" x="2778.5" y="90.5" />
<rect fill="none" height="24" stroke="#405C86" stroke-width="3" width="384" x="2778.5" y="90.5" />
<rect fill="#DEE6F1" height="24" width="384" x="2394.5" y="90.5" />
<rect fill="none" height="24" stroke="#405C86" stroke-width="3" width="384" x="2394.5" y="90.5" />
<rect fill="#DEE6F1" height="24" width="384" x="2010.5" y="90.5" />
<rect fill="none" height="24" stroke="#405C86" stroke-width="3" width="384" x="2010.5" y="90.5" />
<rect fill="#DEE6F1" height="24" width="384" x="1626.5" y="90.5" />
<rect fill="none" height="24" stroke="#405C86" stroke-width="3" width="384" x="1626.5" y="90.5" />
<rect fill="#DEE6F1" height="24" width="384" x="1242.5" y="90.5" />
<rect fill="none" height="24" stroke="#405C86" stroke-width="3" width="384" x="1242.5" y="90.5" />
<rect fill="#DEE6F1" height="24" width="384" x="858.5" y="90.5" />
<rect fill="none" height="24" stroke="#405C86" stroke-width="3" width="384" x="858.5" y="90.5" />
<rect fill="#DEE6F1" height="24" width="384" x="474.5" y="90.5" />
<rect fill="none" height="24" stroke="#405C86" stroke-width="3" width="384" x="474.5" y="90.5" />
<rect fill="#DEE6F1" height="24" width="384" x="90.5" y="90.5" />
<rect fill="none" height="24" stroke="#405C86" stroke-width="3" width="384" x="90.5" y="90.5" />
<text class="register-name" x="80.5" y="102.5">Zd</text>
<text class="intrinsic-name" x="80.5" y="114.5">returns</text>
<text class="register-number" x="10" y="102.5">(2)</text>
<line marker-end="url(#arrowhead)" stroke="none" x1="5274.5" x2="6042.5" y1="43.5" y2="89" />
<line marker-end="url(#arrowhead)" stroke="none" x1="5274.5" x2="5658.5" y1="43.5" y2="89" />
<line marker-end="url(#arrowhead)" stroke="none" x1="5274.5" x2="5274.5" y1="43.5" y2="89" />
<line marker-end="url(#arrowhead)" stroke="none" x1="5274.5" x2="4890.5" y1="43.5" y2="89" />
<line marker-end="url(#arrowhead)" stroke="none" x1="5274.5" x2="4506.5" y1="43.5" y2="89" />
<line marker-end="url(#arrowhead)" stroke="none" x1="5274.5" x2="4122.5" y1="43.5" y2="89" />
<line marker-end="url(#arrowhead)" stroke="none" x1="5274.5" x2="3738.5" y1="43.5" y2="89" />
<line marker-end="url(#arrowhead)" stroke="none" x1="5274.5" x2="3354.5" y1="43.5" y2="89" />
<line marker-end="url(#arrowhead)" stroke="none" x1="5274.5" x2="2970.5" y1="43.5" y2="89" />
<line marker-end="url(#arrowhead)" stroke="none" x1="5274.5" x2="2586.5" y1="43.5" y2="89" />
<line marker-end="url(#arrowhead)" stroke="none" x1="5274.5" x2="2202.5" y1="43.5" y2="89" />
<line marker-end="url(#arrowhead)" stroke="none" x1="5274.5" x2="1818.5" y1="43.5" y2="89" />
<line marker-end="url(#arrowhead)" stroke="none" x1="5274.5" x2="1434.5" y1="43.5" y2="89" />
<line marker-end="url(#arrowhead)" stroke="none" x1="5274.5" x2="1050.5" y1="43.5" y2="89" />
<line marker-end="url(#arrowhead)" stroke="none" x1="5274.5" x2="666.5" y1="43.5" y2="89" />
<line marker-end="url(#arrowhead)" stroke="none" x1="5274.5" x2="282.5" y1="43.5" y2="89" />
</svg>