<svg xmlns="http://www.w3.org/2000/svg" viewBox="0 0 486 195">
<style>
.label { font: 14px Helvetica; dominant-baseline: middle; text-anchor: middle; }
.title-left { font: 12px Helvetica; dominant-baseline: middle; }
.title-right { font: 12px Helvetica; dominant-baseline: middle; text-anchor: end; }
.title-intrinsic { font: 12px Helvetica; dominant-baseline: middle; text-anchor: middle; fill: #6778ED; }
.title { font: 12px Helvetica; dominant-baseline: middle; text-anchor: middle; }
.title-unused { font: 12px Helvetica; dominant-baseline: middle; text-anchor: middle; fill: #AAA; }
.register-name { font: 14px Helvetica; dominant-baseline: middle; text-anchor: end; font-style: italic; }
.memory-name { font: 14px Helvetica; dominant-baseline: middle; text-anchor: end; }
.register-number { font: 14px Helvetica; dominant-baseline: middle; text-anchor: start; }
.intrinsic-name { font: 14px Helvetica; dominant-baseline: middle; text-anchor: end; fill: #6778ED; }
.intrinsic-color { fill: #6778ED; }
.small-label { font: 12px Helvetica; dominant-baseline: middle; text-anchor: middle; }
.label-10px { font: 10px Helvetica; dominant-baseline: middle; text-anchor: middle; }
.smaller-label { font: 9px Helvetica; dominant-baseline: middle; text-anchor: middle; }
.label-6px { font: 6px Helvetica; dominant-baseline: middle; text-anchor: middle; }
.label-7px { font: 7px Helvetica; dominant-baseline: middle; text-anchor: middle; }
.unused { fill: #AAA; }
.dim { fill: #888; }
</style>
<defs>
<marker id="arrowhead" markerWidth="9.5" markerHeight="21.0" refX="7.75" refY="5.25" orient="auto">
<polyline points="0.5 0.5, 7.5 5.25, 0.5 10.0" stroke="#567DB6" stroke-width="1" fill="none"/>
</marker>
</defs>
<line stroke="#567DB6" stroke-width="1" x1="378.5" x2="378.5" y1="65.5" y2="89.5" />
<line stroke="#567DB6" stroke-width="1" x1="372.5" x2="372.5" y1="43.5" y2="65.5" />
<line stroke="#567DB6" stroke-width="1" x1="276.5" x2="276.5" y1="43.5" y2="65.5" />
<polyline fill="none" points="468.5 43.5,468.5 65.5,180.5 65.5,180.5 43.5" stroke="#567DB6" stroke-width="1" />
<line stroke="#567DB6" stroke-width="1" x1="378.5" x2="378.5" y1="115.5" y2="161" />
<text class="title-left" x="90.5" y="9.5">upper</text>
<text class="title-right" x="474.5" y="9.5">lower</text>
<rect fill="#DEE6F1" height="24" width="12" x="462.5" y="18.5" />
<rect fill="none" height="24" stroke="#405C86" stroke-width="3" width="12" x="462.5" y="18.5" />
<rect fill="none" height="24" stroke="#405C86" stroke-dasharray="3 1" stroke-dashoffset="1.5" stroke-width="1" width="12" x="450.5" y="18.5" />
<text class="label unused" x="456.5" y="31.5"></text>
<rect fill="none" height="24" stroke="#405C86" stroke-dasharray="3 1" stroke-dashoffset="1.5" stroke-width="1" width="12" x="438.5" y="18.5" />
<text class="label unused" x="444.5" y="31.5"></text>
<rect fill="none" height="24" stroke="#405C86" stroke-dasharray="3 1" stroke-dashoffset="1.5" stroke-width="1" width="12" x="426.5" y="18.5" />
<text class="label unused" x="432.5" y="31.5"></text>
<rect fill="none" height="24" stroke="#405C86" stroke-dasharray="3 1" stroke-dashoffset="1.5" stroke-width="1" width="12" x="414.5" y="18.5" />
<text class="label unused" x="420.5" y="31.5"></text>
<rect fill="none" height="24" stroke="#405C86" stroke-dasharray="3 1" stroke-dashoffset="1.5" stroke-width="1" width="12" x="402.5" y="18.5" />
<text class="label unused" x="408.5" y="31.5"></text>
<rect fill="none" height="24" stroke="#405C86" stroke-dasharray="3 1" stroke-dashoffset="1.5" stroke-width="1" width="12" x="390.5" y="18.5" />
<text class="label unused" x="396.5" y="31.5"></text>
<rect fill="none" height="24" stroke="#405C86" stroke-dasharray="3 1" stroke-dashoffset="1.5" stroke-width="1" width="12" x="378.5" y="18.5" />
<text class="label unused" x="384.5" y="31.5"></text>
<rect fill="#DEE6F1" height="24" width="12" x="366.5" y="18.5" />
<rect fill="none" height="24" stroke="#405C86" stroke-width="3" width="12" x="366.5" y="18.5" />
<rect fill="none" height="24" stroke="#405C86" stroke-dasharray="3 1" stroke-dashoffset="1.5" stroke-width="1" width="12" x="354.5" y="18.5" />
<text class="label unused" x="360.5" y="31.5"></text>
<rect fill="none" height="24" stroke="#405C86" stroke-dasharray="3 1" stroke-dashoffset="1.5" stroke-width="1" width="12" x="342.5" y="18.5" />
<text class="label unused" x="348.5" y="31.5"></text>
<rect fill="none" height="24" stroke="#405C86" stroke-dasharray="3 1" stroke-dashoffset="1.5" stroke-width="1" width="12" x="330.5" y="18.5" />
<text class="label unused" x="336.5" y="31.5"></text>
<rect fill="none" height="24" stroke="#405C86" stroke-dasharray="3 1" stroke-dashoffset="1.5" stroke-width="1" width="12" x="318.5" y="18.5" />
<text class="label unused" x="324.5" y="31.5"></text>
<rect fill="none" height="24" stroke="#405C86" stroke-dasharray="3 1" stroke-dashoffset="1.5" stroke-width="1" width="12" x="306.5" y="18.5" />
<text class="label unused" x="312.5" y="31.5"></text>
<rect fill="none" height="24" stroke="#405C86" stroke-dasharray="3 1" stroke-dashoffset="1.5" stroke-width="1" width="12" x="294.5" y="18.5" />
<text class="label unused" x="300.5" y="31.5"></text>
<rect fill="none" height="24" stroke="#405C86" stroke-dasharray="3 1" stroke-dashoffset="1.5" stroke-width="1" width="12" x="282.5" y="18.5" />
<text class="label unused" x="288.5" y="31.5"></text>
<rect fill="#DEE6F1" height="24" width="12" x="270.5" y="18.5" />
<rect fill="none" height="24" stroke="#405C86" stroke-width="3" width="12" x="270.5" y="18.5" />
<rect fill="none" height="24" stroke="#405C86" stroke-dasharray="3 1" stroke-dashoffset="1.5" stroke-width="1" width="12" x="258.5" y="18.5" />
<text class="label unused" x="264.5" y="31.5"></text>
<rect fill="none" height="24" stroke="#405C86" stroke-dasharray="3 1" stroke-dashoffset="1.5" stroke-width="1" width="12" x="246.5" y="18.5" />
<text class="label unused" x="252.5" y="31.5"></text>
<rect fill="none" height="24" stroke="#405C86" stroke-dasharray="3 1" stroke-dashoffset="1.5" stroke-width="1" width="12" x="234.5" y="18.5" />
<text class="label unused" x="240.5" y="31.5"></text>
<rect fill="none" height="24" stroke="#405C86" stroke-dasharray="3 1" stroke-dashoffset="1.5" stroke-width="1" width="12" x="222.5" y="18.5" />
<text class="label unused" x="228.5" y="31.5"></text>
<rect fill="none" height="24" stroke="#405C86" stroke-dasharray="3 1" stroke-dashoffset="1.5" stroke-width="1" width="12" x="210.5" y="18.5" />
<text class="label unused" x="216.5" y="31.5"></text>
<rect fill="none" height="24" stroke="#405C86" stroke-dasharray="3 1" stroke-dashoffset="1.5" stroke-width="1" width="12" x="198.5" y="18.5" />
<text class="label unused" x="204.5" y="31.5"></text>
<rect fill="none" height="24" stroke="#405C86" stroke-dasharray="3 1" stroke-dashoffset="1.5" stroke-width="1" width="12" x="186.5" y="18.5" />
<text class="label unused" x="192.5" y="31.5"></text>
<rect fill="#DEE6F1" height="24" width="12" x="174.5" y="18.5" />
<rect fill="none" height="24" stroke="#405C86" stroke-width="3" width="12" x="174.5" y="18.5" />
<rect fill="none" height="24" stroke="#405C86" stroke-dasharray="3 1" stroke-dashoffset="1.5" stroke-width="1" width="12" x="162.5" y="18.5" />
<text class="label unused" x="168.5" y="31.5"></text>
<rect fill="none" height="24" stroke="#405C86" stroke-dasharray="3 1" stroke-dashoffset="1.5" stroke-width="1" width="12" x="150.5" y="18.5" />
<text class="label unused" x="156.5" y="31.5"></text>
<rect fill="none" height="24" stroke="#405C86" stroke-dasharray="3 1" stroke-dashoffset="1.5" stroke-width="1" width="12" x="138.5" y="18.5" />
<text class="label unused" x="144.5" y="31.5"></text>
<rect fill="none" height="24" stroke="#405C86" stroke-dasharray="3 1" stroke-dashoffset="1.5" stroke-width="1" width="12" x="126.5" y="18.5" />
<text class="label unused" x="132.5" y="31.5"></text>
<rect fill="none" height="24" stroke="#405C86" stroke-dasharray="3 1" stroke-dashoffset="1.5" stroke-width="1" width="12" x="114.5" y="18.5" />
<text class="label unused" x="120.5" y="31.5"></text>
<rect fill="none" height="24" stroke="#405C86" stroke-dasharray="3 1" stroke-dashoffset="1.5" stroke-width="1" width="12" x="102.5" y="18.5" />
<text class="label unused" x="108.5" y="31.5"></text>
<rect fill="none" height="24" stroke="#405C86" stroke-dasharray="3 1" stroke-dashoffset="1.5" stroke-width="1" width="12" x="90.5" y="18.5" />
<text class="label unused" x="96.5" y="31.5"></text>
<text class="register-name" x="80.5" y="30.5">Pm</text>
<text class="register-number" x="10" y="30.5">(1)</text>
<rect fill="#DEE6F1" height="24" width="192" x="282.5" y="90.5" />
<rect fill="none" height="24" stroke="#405C86" stroke-width="3" width="192" x="282.5" y="90.5" />
<text class="register-name" x="80.5" y="102.5">Xdn</text>
<text class="register-number" x="10" y="102.5">(2)</text>
<rect fill="#DEE6F1" height="24" width="192" x="282.5" y="162.5" />
<rect fill="none" height="24" stroke="#405C86" stroke-width="3" width="192" x="282.5" y="162.5" />
<text class="register-name" x="80.5" y="174.5">Xdn</text>
<text class="register-number" x="10" y="174.5">(3)</text>
<line marker-end="url(#arrowhead)" stroke="none" x1="378.5" x2="378.5" y1="115.5" y2="161" />
</svg>