<svg xmlns="http://www.w3.org/2000/svg" viewBox="0 0 6246 123">
<style>
.label { font: 14px Helvetica; dominant-baseline: middle; text-anchor: middle; }
.title-left { font: 12px Helvetica; dominant-baseline: middle; }
.title-right { font: 12px Helvetica; dominant-baseline: middle; text-anchor: end; }
.title-intrinsic { font: 12px Helvetica; dominant-baseline: middle; text-anchor: middle; fill: #6778ED; }
.title { font: 12px Helvetica; dominant-baseline: middle; text-anchor: middle; }
.title-unused { font: 12px Helvetica; dominant-baseline: middle; text-anchor: middle; fill: #AAA; }
.register-name { font: 14px Helvetica; dominant-baseline: middle; text-anchor: end; font-style: italic; }
.memory-name { font: 14px Helvetica; dominant-baseline: middle; text-anchor: end; }
.register-number { font: 14px Helvetica; dominant-baseline: middle; text-anchor: start; }
.intrinsic-name { font: 14px Helvetica; dominant-baseline: middle; text-anchor: end; fill: #6778ED; }
.intrinsic-color { fill: #6778ED; }
.small-label { font: 12px Helvetica; dominant-baseline: middle; text-anchor: middle; }
.label-10px { font: 10px Helvetica; dominant-baseline: middle; text-anchor: middle; }
.smaller-label { font: 9px Helvetica; dominant-baseline: middle; text-anchor: middle; }
.label-6px { font: 6px Helvetica; dominant-baseline: middle; text-anchor: middle; }
.label-7px { font: 7px Helvetica; dominant-baseline: middle; text-anchor: middle; }
.unused { fill: #AAA; }
.dim { fill: #888; }
</style>
<defs>
<marker id="arrowhead" markerWidth="10.75" markerHeight="24.5" refX="9.0" refY="6.125" orient="auto">
<polyline points="0.5 0.5, 8.75 6.125, 0.5 11.75" stroke="#567DB6" stroke-width="1" fill="none"/>
</marker>
</defs>
<line stroke="#567DB6" stroke-width="1" x1="3534.5" x2="6221.9375" y1="43.5" y2="89" />
<line stroke="#567DB6" stroke-width="1" x1="3510.5" x2="6029.9375" y1="43.5" y2="89" />
<line stroke="#567DB6" stroke-width="1" x1="3486.5" x2="5837.9375" y1="43.5" y2="89" />
<line stroke="#567DB6" stroke-width="1" x1="3462.5" x2="5645.9375" y1="43.5" y2="89" />
<line stroke="#567DB6" stroke-width="1" x1="3438.5" x2="5453.9375" y1="43.5" y2="89" />
<line stroke="#567DB6" stroke-width="1" x1="3414.5" x2="5261.9375" y1="43.5" y2="89" />
<line stroke="#567DB6" stroke-width="1" x1="3390.5" x2="5069.9375" y1="43.5" y2="89" />
<line stroke="#567DB6" stroke-width="1" x1="3366.5" x2="4877.9375" y1="43.5" y2="89" />
<line stroke="#567DB6" stroke-width="1" x1="3342.5" x2="4685.9375" y1="43.5" y2="89" />
<line stroke="#567DB6" stroke-width="1" x1="3318.5" x2="4493.9375" y1="43.5" y2="89" />
<line stroke="#567DB6" stroke-width="1" x1="3294.5" x2="4301.9375" y1="43.5" y2="89" />
<line stroke="#567DB6" stroke-width="1" x1="3270.5" x2="4109.9375" y1="43.5" y2="89" />
<line stroke="#567DB6" stroke-width="1" x1="3246.5" x2="3917.9375" y1="43.5" y2="89" />
<line stroke="#567DB6" stroke-width="1" x1="3222.5" x2="3725.9375" y1="43.5" y2="89" />
<line stroke="#567DB6" stroke-width="1" x1="3198.5" x2="3533.9375" y1="43.5" y2="89" />
<line stroke="#567DB6" stroke-width="1" x1="3174.5" x2="3341.9375" y1="43.5" y2="89" />
<line stroke="#567DB6" stroke-width="1" x1="3150.5" x2="3149.9375" y1="43.5" y2="89" />
<line stroke="#567DB6" stroke-width="1" x1="3126.5" x2="2957.9375" y1="43.5" y2="89" />
<line stroke="#567DB6" stroke-width="1" x1="3102.5" x2="2765.9375" y1="43.5" y2="89" />
<line stroke="#567DB6" stroke-width="1" x1="3078.5" x2="2573.9375" y1="43.5" y2="89" />
<line stroke="#567DB6" stroke-width="1" x1="3054.5" x2="2381.9375" y1="43.5" y2="89" />
<line stroke="#567DB6" stroke-width="1" x1="3030.5" x2="2189.9375" y1="43.5" y2="89" />
<line stroke="#567DB6" stroke-width="1" x1="3006.5" x2="1997.9375" y1="43.5" y2="89" />
<line stroke="#567DB6" stroke-width="1" x1="2982.5" x2="1805.9375" y1="43.5" y2="89" />
<line stroke="#567DB6" stroke-width="1" x1="2958.5" x2="1613.9375" y1="43.5" y2="89" />
<line stroke="#567DB6" stroke-width="1" x1="2934.5" x2="1421.9375" y1="43.5" y2="89" />
<line stroke="#567DB6" stroke-width="1" x1="2910.5" x2="1229.9375" y1="43.5" y2="89" />
<line stroke="#567DB6" stroke-width="1" x1="2886.5" x2="1037.9375" y1="43.5" y2="89" />
<line stroke="#567DB6" stroke-width="1" x1="2862.5" x2="845.9375" y1="43.5" y2="89" />
<line stroke="#567DB6" stroke-width="1" x1="2838.5" x2="653.9375" y1="43.5" y2="89" />
<line stroke="#567DB6" stroke-width="1" x1="2814.5" x2="461.9375" y1="43.5" y2="89" />
<line stroke="#567DB6" stroke-width="1" x1="2790.5" x2="269.9375" y1="43.5" y2="89" />
<text class="title-left" x="90.5" y="9.5">upper</text>
<text class="title-right" x="6234.5" y="9.5">lower</text>
<rect fill="#DEE6F1" height="24" width="24" x="3522.5" y="18.5" />
<rect fill="none" height="24" stroke="#405C86" stroke-width="3" width="24" x="3522.5" y="18.5" />
<text class="smaller-label intrinsic-color" x="3534.5" y="31.5">b[0]</text>
<rect fill="#DEE6F1" height="24" width="24" x="3498.5" y="18.5" />
<rect fill="none" height="24" stroke="#405C86" stroke-width="3" width="24" x="3498.5" y="18.5" />
<text class="smaller-label intrinsic-color" x="3510.5" y="31.5">b[1]</text>
<rect fill="#DEE6F1" height="24" width="24" x="3474.5" y="18.5" />
<rect fill="none" height="24" stroke="#405C86" stroke-width="3" width="24" x="3474.5" y="18.5" />
<text class="smaller-label intrinsic-color" x="3486.5" y="31.5">b[2]</text>
<rect fill="#DEE6F1" height="24" width="24" x="3450.5" y="18.5" />
<rect fill="none" height="24" stroke="#405C86" stroke-width="3" width="24" x="3450.5" y="18.5" />
<text class="smaller-label intrinsic-color" x="3462.5" y="31.5">b[3]</text>
<rect fill="#DEE6F1" height="24" width="24" x="3426.5" y="18.5" />
<rect fill="none" height="24" stroke="#405C86" stroke-width="3" width="24" x="3426.5" y="18.5" />
<text class="smaller-label intrinsic-color" x="3438.5" y="31.5">b[4]</text>
<rect fill="#DEE6F1" height="24" width="24" x="3402.5" y="18.5" />
<rect fill="none" height="24" stroke="#405C86" stroke-width="3" width="24" x="3402.5" y="18.5" />
<text class="smaller-label intrinsic-color" x="3414.5" y="31.5">b[5]</text>
<rect fill="#DEE6F1" height="24" width="24" x="3378.5" y="18.5" />
<rect fill="none" height="24" stroke="#405C86" stroke-width="3" width="24" x="3378.5" y="18.5" />
<text class="smaller-label intrinsic-color" x="3390.5" y="31.5">b[6]</text>
<rect fill="#DEE6F1" height="24" width="24" x="3354.5" y="18.5" />
<rect fill="none" height="24" stroke="#405C86" stroke-width="3" width="24" x="3354.5" y="18.5" />
<text class="smaller-label intrinsic-color" x="3366.5" y="31.5">b[7]</text>
<rect fill="#DEE6F1" height="24" width="24" x="3330.5" y="18.5" />
<rect fill="none" height="24" stroke="#405C86" stroke-width="3" width="24" x="3330.5" y="18.5" />
<text class="smaller-label intrinsic-color" x="3342.5" y="31.5">b[8]</text>
<rect fill="#DEE6F1" height="24" width="24" x="3306.5" y="18.5" />
<rect fill="none" height="24" stroke="#405C86" stroke-width="3" width="24" x="3306.5" y="18.5" />
<text class="smaller-label intrinsic-color" x="3318.5" y="31.5">b[9]</text>
<rect fill="#DEE6F1" height="24" width="24" x="3282.5" y="18.5" />
<rect fill="none" height="24" stroke="#405C86" stroke-width="3" width="24" x="3282.5" y="18.5" />
<text class="smaller-label intrinsic-color" x="3294.5" y="31.5">b[10]</text>
<rect fill="#DEE6F1" height="24" width="24" x="3258.5" y="18.5" />
<rect fill="none" height="24" stroke="#405C86" stroke-width="3" width="24" x="3258.5" y="18.5" />
<text class="smaller-label intrinsic-color" x="3270.5" y="31.5">b[11]</text>
<rect fill="#DEE6F1" height="24" width="24" x="3234.5" y="18.5" />
<rect fill="none" height="24" stroke="#405C86" stroke-width="3" width="24" x="3234.5" y="18.5" />
<text class="smaller-label intrinsic-color" x="3246.5" y="31.5">b[12]</text>
<rect fill="#DEE6F1" height="24" width="24" x="3210.5" y="18.5" />
<rect fill="none" height="24" stroke="#405C86" stroke-width="3" width="24" x="3210.5" y="18.5" />
<text class="smaller-label intrinsic-color" x="3222.5" y="31.5">b[13]</text>
<rect fill="#DEE6F1" height="24" width="24" x="3186.5" y="18.5" />
<rect fill="none" height="24" stroke="#405C86" stroke-width="3" width="24" x="3186.5" y="18.5" />
<text class="smaller-label intrinsic-color" x="3198.5" y="31.5">b[14]</text>
<rect fill="#DEE6F1" height="24" width="24" x="3162.5" y="18.5" />
<rect fill="none" height="24" stroke="#405C86" stroke-width="3" width="24" x="3162.5" y="18.5" />
<text class="smaller-label intrinsic-color" x="3174.5" y="31.5">b[15]</text>
<rect fill="#DEE6F1" height="24" width="24" x="3138.5" y="18.5" />
<rect fill="none" height="24" stroke="#405C86" stroke-width="3" width="24" x="3138.5" y="18.5" />
<text class="smaller-label intrinsic-color" x="3150.5" y="31.5">b[16]</text>
<rect fill="#DEE6F1" height="24" width="24" x="3114.5" y="18.5" />
<rect fill="none" height="24" stroke="#405C86" stroke-width="3" width="24" x="3114.5" y="18.5" />
<text class="smaller-label intrinsic-color" x="3126.5" y="31.5">b[17]</text>
<rect fill="#DEE6F1" height="24" width="24" x="3090.5" y="18.5" />
<rect fill="none" height="24" stroke="#405C86" stroke-width="3" width="24" x="3090.5" y="18.5" />
<text class="smaller-label intrinsic-color" x="3102.5" y="31.5">b[18]</text>
<rect fill="#DEE6F1" height="24" width="24" x="3066.5" y="18.5" />
<rect fill="none" height="24" stroke="#405C86" stroke-width="3" width="24" x="3066.5" y="18.5" />
<text class="smaller-label intrinsic-color" x="3078.5" y="31.5">b[19]</text>
<rect fill="#DEE6F1" height="24" width="24" x="3042.5" y="18.5" />
<rect fill="none" height="24" stroke="#405C86" stroke-width="3" width="24" x="3042.5" y="18.5" />
<text class="smaller-label intrinsic-color" x="3054.5" y="31.5">b[20]</text>
<rect fill="#DEE6F1" height="24" width="24" x="3018.5" y="18.5" />
<rect fill="none" height="24" stroke="#405C86" stroke-width="3" width="24" x="3018.5" y="18.5" />
<text class="smaller-label intrinsic-color" x="3030.5" y="31.5">b[21]</text>
<rect fill="#DEE6F1" height="24" width="24" x="2994.5" y="18.5" />
<rect fill="none" height="24" stroke="#405C86" stroke-width="3" width="24" x="2994.5" y="18.5" />
<text class="smaller-label intrinsic-color" x="3006.5" y="31.5">b[22]</text>
<rect fill="#DEE6F1" height="24" width="24" x="2970.5" y="18.5" />
<rect fill="none" height="24" stroke="#405C86" stroke-width="3" width="24" x="2970.5" y="18.5" />
<text class="smaller-label intrinsic-color" x="2982.5" y="31.5">b[23]</text>
<rect fill="#DEE6F1" height="24" width="24" x="2946.5" y="18.5" />
<rect fill="none" height="24" stroke="#405C86" stroke-width="3" width="24" x="2946.5" y="18.5" />
<text class="smaller-label intrinsic-color" x="2958.5" y="31.5">b[24]</text>
<rect fill="#DEE6F1" height="24" width="24" x="2922.5" y="18.5" />
<rect fill="none" height="24" stroke="#405C86" stroke-width="3" width="24" x="2922.5" y="18.5" />
<text class="smaller-label intrinsic-color" x="2934.5" y="31.5">b[25]</text>
<rect fill="#DEE6F1" height="24" width="24" x="2898.5" y="18.5" />
<rect fill="none" height="24" stroke="#405C86" stroke-width="3" width="24" x="2898.5" y="18.5" />
<text class="smaller-label intrinsic-color" x="2910.5" y="31.5">b[26]</text>
<rect fill="#DEE6F1" height="24" width="24" x="2874.5" y="18.5" />
<rect fill="none" height="24" stroke="#405C86" stroke-width="3" width="24" x="2874.5" y="18.5" />
<text class="smaller-label intrinsic-color" x="2886.5" y="31.5">b[27]</text>
<rect fill="#DEE6F1" height="24" width="24" x="2850.5" y="18.5" />
<rect fill="none" height="24" stroke="#405C86" stroke-width="3" width="24" x="2850.5" y="18.5" />
<text class="smaller-label intrinsic-color" x="2862.5" y="31.5">b[28]</text>
<rect fill="#DEE6F1" height="24" width="24" x="2826.5" y="18.5" />
<rect fill="none" height="24" stroke="#405C86" stroke-width="3" width="24" x="2826.5" y="18.5" />
<text class="smaller-label intrinsic-color" x="2838.5" y="31.5">b[29]</text>
<rect fill="#DEE6F1" height="24" width="24" x="2802.5" y="18.5" />
<rect fill="none" height="24" stroke="#405C86" stroke-width="3" width="24" x="2802.5" y="18.5" />
<text class="smaller-label intrinsic-color" x="2814.5" y="31.5">b[30]</text>
<rect fill="#DEE6F1" height="24" width="24" x="2778.5" y="18.5" />
<rect fill="none" height="24" stroke="#405C86" stroke-width="3" width="24" x="2778.5" y="18.5" />
<text class="smaller-label intrinsic-color" x="2790.5" y="31.5">b[31]</text>
<text class="register-name" x="80.5" y="30.5">[mem]</text>
<text class="intrinsic-name" x="80.5" y="42.5">*base</text>
<text class="register-number" x="10" y="30.5">(1)</text>
<rect fill="#DEE6F1" height="24" width="25.125" x="6209.375" y="90.5" />
<rect fill="none" height="24" stroke="#405C86" stroke-width="3" width="192" x="6042.5" y="90.5" />
<rect fill="#DEE6F1" height="24" width="25.125" x="6017.375" y="90.5" />
<rect fill="none" height="24" stroke="#405C86" stroke-width="3" width="192" x="5850.5" y="90.5" />
<rect fill="#DEE6F1" height="24" width="25.125" x="5825.375" y="90.5" />
<rect fill="none" height="24" stroke="#405C86" stroke-width="3" width="192" x="5658.5" y="90.5" />
<rect fill="#DEE6F1" height="24" width="25.125" x="5633.375" y="90.5" />
<rect fill="none" height="24" stroke="#405C86" stroke-width="3" width="192" x="5466.5" y="90.5" />
<rect fill="#DEE6F1" height="24" width="25.125" x="5441.375" y="90.5" />
<rect fill="none" height="24" stroke="#405C86" stroke-width="3" width="192" x="5274.5" y="90.5" />
<rect fill="#DEE6F1" height="24" width="25.125" x="5249.375" y="90.5" />
<rect fill="none" height="24" stroke="#405C86" stroke-width="3" width="192" x="5082.5" y="90.5" />
<rect fill="#DEE6F1" height="24" width="25.125" x="5057.375" y="90.5" />
<rect fill="none" height="24" stroke="#405C86" stroke-width="3" width="192" x="4890.5" y="90.5" />
<rect fill="#DEE6F1" height="24" width="25.125" x="4865.375" y="90.5" />
<rect fill="none" height="24" stroke="#405C86" stroke-width="3" width="192" x="4698.5" y="90.5" />
<rect fill="#DEE6F1" height="24" width="25.125" x="4673.375" y="90.5" />
<rect fill="none" height="24" stroke="#405C86" stroke-width="3" width="192" x="4506.5" y="90.5" />
<rect fill="#DEE6F1" height="24" width="25.125" x="4481.375" y="90.5" />
<rect fill="none" height="24" stroke="#405C86" stroke-width="3" width="192" x="4314.5" y="90.5" />
<rect fill="#DEE6F1" height="24" width="25.125" x="4289.375" y="90.5" />
<rect fill="none" height="24" stroke="#405C86" stroke-width="3" width="192" x="4122.5" y="90.5" />
<rect fill="#DEE6F1" height="24" width="25.125" x="4097.375" y="90.5" />
<rect fill="none" height="24" stroke="#405C86" stroke-width="3" width="192" x="3930.5" y="90.5" />
<rect fill="#DEE6F1" height="24" width="25.125" x="3905.375" y="90.5" />
<rect fill="none" height="24" stroke="#405C86" stroke-width="3" width="192" x="3738.5" y="90.5" />
<rect fill="#DEE6F1" height="24" width="25.125" x="3713.375" y="90.5" />
<rect fill="none" height="24" stroke="#405C86" stroke-width="3" width="192" x="3546.5" y="90.5" />
<rect fill="#DEE6F1" height="24" width="25.125" x="3521.375" y="90.5" />
<rect fill="none" height="24" stroke="#405C86" stroke-width="3" width="192" x="3354.5" y="90.5" />
<rect fill="#DEE6F1" height="24" width="25.125" x="3329.375" y="90.5" />
<rect fill="none" height="24" stroke="#405C86" stroke-width="3" width="192" x="3162.5" y="90.5" />
<rect fill="#DEE6F1" height="24" width="25.125" x="3137.375" y="90.5" />
<rect fill="none" height="24" stroke="#405C86" stroke-width="3" width="192" x="2970.5" y="90.5" />
<rect fill="#DEE6F1" height="24" width="25.125" x="2945.375" y="90.5" />
<rect fill="none" height="24" stroke="#405C86" stroke-width="3" width="192" x="2778.5" y="90.5" />
<rect fill="#DEE6F1" height="24" width="25.125" x="2753.375" y="90.5" />
<rect fill="none" height="24" stroke="#405C86" stroke-width="3" width="192" x="2586.5" y="90.5" />
<rect fill="#DEE6F1" height="24" width="25.125" x="2561.375" y="90.5" />
<rect fill="none" height="24" stroke="#405C86" stroke-width="3" width="192" x="2394.5" y="90.5" />
<rect fill="#DEE6F1" height="24" width="25.125" x="2369.375" y="90.5" />
<rect fill="none" height="24" stroke="#405C86" stroke-width="3" width="192" x="2202.5" y="90.5" />
<rect fill="#DEE6F1" height="24" width="25.125" x="2177.375" y="90.5" />
<rect fill="none" height="24" stroke="#405C86" stroke-width="3" width="192" x="2010.5" y="90.5" />
<rect fill="#DEE6F1" height="24" width="25.125" x="1985.375" y="90.5" />
<rect fill="none" height="24" stroke="#405C86" stroke-width="3" width="192" x="1818.5" y="90.5" />
<rect fill="#DEE6F1" height="24" width="25.125" x="1793.375" y="90.5" />
<rect fill="none" height="24" stroke="#405C86" stroke-width="3" width="192" x="1626.5" y="90.5" />
<rect fill="#DEE6F1" height="24" width="25.125" x="1601.375" y="90.5" />
<rect fill="none" height="24" stroke="#405C86" stroke-width="3" width="192" x="1434.5" y="90.5" />
<rect fill="#DEE6F1" height="24" width="25.125" x="1409.375" y="90.5" />
<rect fill="none" height="24" stroke="#405C86" stroke-width="3" width="192" x="1242.5" y="90.5" />
<rect fill="#DEE6F1" height="24" width="25.125" x="1217.375" y="90.5" />
<rect fill="none" height="24" stroke="#405C86" stroke-width="3" width="192" x="1050.5" y="90.5" />
<rect fill="#DEE6F1" height="24" width="25.125" x="1025.375" y="90.5" />
<rect fill="none" height="24" stroke="#405C86" stroke-width="3" width="192" x="858.5" y="90.5" />
<rect fill="#DEE6F1" height="24" width="25.125" x="833.375" y="90.5" />
<rect fill="none" height="24" stroke="#405C86" stroke-width="3" width="192" x="666.5" y="90.5" />
<rect fill="#DEE6F1" height="24" width="25.125" x="641.375" y="90.5" />
<rect fill="none" height="24" stroke="#405C86" stroke-width="3" width="192" x="474.5" y="90.5" />
<rect fill="#DEE6F1" height="24" width="25.125" x="449.375" y="90.5" />
<rect fill="none" height="24" stroke="#405C86" stroke-width="3" width="192" x="282.5" y="90.5" />
<rect fill="#DEE6F1" height="24" width="25.125" x="257.375" y="90.5" />
<rect fill="none" height="24" stroke="#405C86" stroke-width="3" width="192" x="90.5" y="90.5" />
<text class="register-name" x="80.5" y="102.5">Zt</text>
<text class="intrinsic-name" x="80.5" y="114.5">returns</text>
<text class="register-number" x="10" y="102.5">(2)</text>
<line marker-end="url(#arrowhead)" stroke="none" x1="3534.5" x2="6221.9375" y1="43.5" y2="89" />
<line marker-end="url(#arrowhead)" stroke="none" x1="3510.5" x2="6029.9375" y1="43.5" y2="89" />
<line marker-end="url(#arrowhead)" stroke="none" x1="3486.5" x2="5837.9375" y1="43.5" y2="89" />
<line marker-end="url(#arrowhead)" stroke="none" x1="3462.5" x2="5645.9375" y1="43.5" y2="89" />
<line marker-end="url(#arrowhead)" stroke="none" x1="3438.5" x2="5453.9375" y1="43.5" y2="89" />
<line marker-end="url(#arrowhead)" stroke="none" x1="3414.5" x2="5261.9375" y1="43.5" y2="89" />
<line marker-end="url(#arrowhead)" stroke="none" x1="3390.5" x2="5069.9375" y1="43.5" y2="89" />
<line marker-end="url(#arrowhead)" stroke="none" x1="3366.5" x2="4877.9375" y1="43.5" y2="89" />
<line marker-end="url(#arrowhead)" stroke="none" x1="3342.5" x2="4685.9375" y1="43.5" y2="89" />
<line marker-end="url(#arrowhead)" stroke="none" x1="3318.5" x2="4493.9375" y1="43.5" y2="89" />
<line marker-end="url(#arrowhead)" stroke="none" x1="3294.5" x2="4301.9375" y1="43.5" y2="89" />
<line marker-end="url(#arrowhead)" stroke="none" x1="3270.5" x2="4109.9375" y1="43.5" y2="89" />
<line marker-end="url(#arrowhead)" stroke="none" x1="3246.5" x2="3917.9375" y1="43.5" y2="89" />
<line marker-end="url(#arrowhead)" stroke="none" x1="3222.5" x2="3725.9375" y1="43.5" y2="89" />
<line marker-end="url(#arrowhead)" stroke="none" x1="3198.5" x2="3533.9375" y1="43.5" y2="89" />
<line marker-end="url(#arrowhead)" stroke="none" x1="3174.5" x2="3341.9375" y1="43.5" y2="89" />
<line marker-end="url(#arrowhead)" stroke="none" x1="3150.5" x2="3149.9375" y1="43.5" y2="89" />
<line marker-end="url(#arrowhead)" stroke="none" x1="3126.5" x2="2957.9375" y1="43.5" y2="89" />
<line marker-end="url(#arrowhead)" stroke="none" x1="3102.5" x2="2765.9375" y1="43.5" y2="89" />
<line marker-end="url(#arrowhead)" stroke="none" x1="3078.5" x2="2573.9375" y1="43.5" y2="89" />
<line marker-end="url(#arrowhead)" stroke="none" x1="3054.5" x2="2381.9375" y1="43.5" y2="89" />
<line marker-end="url(#arrowhead)" stroke="none" x1="3030.5" x2="2189.9375" y1="43.5" y2="89" />
<line marker-end="url(#arrowhead)" stroke="none" x1="3006.5" x2="1997.9375" y1="43.5" y2="89" />
<line marker-end="url(#arrowhead)" stroke="none" x1="2982.5" x2="1805.9375" y1="43.5" y2="89" />
<line marker-end="url(#arrowhead)" stroke="none" x1="2958.5" x2="1613.9375" y1="43.5" y2="89" />
<line marker-end="url(#arrowhead)" stroke="none" x1="2934.5" x2="1421.9375" y1="43.5" y2="89" />
<line marker-end="url(#arrowhead)" stroke="none" x1="2910.5" x2="1229.9375" y1="43.5" y2="89" />
<line marker-end="url(#arrowhead)" stroke="none" x1="2886.5" x2="1037.9375" y1="43.5" y2="89" />
<line marker-end="url(#arrowhead)" stroke="none" x1="2862.5" x2="845.9375" y1="43.5" y2="89" />
<line marker-end="url(#arrowhead)" stroke="none" x1="2838.5" x2="653.9375" y1="43.5" y2="89" />
<line marker-end="url(#arrowhead)" stroke="none" x1="2814.5" x2="461.9375" y1="43.5" y2="89" />
<line marker-end="url(#arrowhead)" stroke="none" x1="2790.5" x2="269.9375" y1="43.5" y2="89" />
</svg>