<svg xmlns="http://www.w3.org/2000/svg" viewBox="0 0 486 375">
<style>
.label { font: 14px Helvetica; dominant-baseline: middle; text-anchor: middle; }
.title-left { font: 12px Helvetica; dominant-baseline: middle; }
.title-right { font: 12px Helvetica; dominant-baseline: middle; text-anchor: end; }
.title-intrinsic { font: 12px Helvetica; dominant-baseline: middle; text-anchor: middle; fill: #6778ED; }
.title { font: 12px Helvetica; dominant-baseline: middle; text-anchor: middle; }
.title-unused { font: 12px Helvetica; dominant-baseline: middle; text-anchor: middle; fill: #AAA; }
.register-name { font: 14px Helvetica; dominant-baseline: middle; text-anchor: end; font-style: italic; }
.memory-name { font: 14px Helvetica; dominant-baseline: middle; text-anchor: end; }
.register-number { font: 14px Helvetica; dominant-baseline: middle; text-anchor: start; }
.intrinsic-name { font: 14px Helvetica; dominant-baseline: middle; text-anchor: end; fill: #6778ED; }
.intrinsic-color { fill: #6778ED; }
.small-label { font: 12px Helvetica; dominant-baseline: middle; text-anchor: middle; }
.label-10px { font: 10px Helvetica; dominant-baseline: middle; text-anchor: middle; }
.smaller-label { font: 9px Helvetica; dominant-baseline: middle; text-anchor: middle; }
.label-6px { font: 6px Helvetica; dominant-baseline: middle; text-anchor: middle; }
.label-7px { font: 7px Helvetica; dominant-baseline: middle; text-anchor: middle; }
.unused { fill: #AAA; }
.dim { fill: #888; }
</style>
<defs>
<marker id="arrowhead" markerWidth="10.75" markerHeight="24.5" refX="9.0" refY="6.125" orient="auto">
<polyline points="0.5 0.5, 8.75 6.125, 0.5 11.75" stroke="#567DB6" stroke-width="1" fill="none"/>
</marker>
</defs>
<line stroke="#567DB6" stroke-width="1" x1="438.5" x2="438.5" y1="43.5" y2="197" />
<line stroke="#567DB6" stroke-width="1" x1="390.5" x2="390.5" y1="43.5" y2="197" />
<line stroke="#567DB6" stroke-width="1" x1="342.5" x2="342.5" y1="43.5" y2="197" />
<line stroke="#567DB6" stroke-width="1" x1="294.5" x2="294.5" y1="43.5" y2="197" />
<line stroke="#567DB6" stroke-width="1" x1="246.5" x2="246.5" y1="43.5" y2="197" />
<line stroke="#567DB6" stroke-width="1" x1="198.5" x2="198.5" y1="43.5" y2="197" />
<line stroke="#567DB6" stroke-width="1" x1="150.5" x2="150.5" y1="43.5" y2="197" />
<line stroke="#567DB6" stroke-width="1" x1="102.5" x2="102.5" y1="43.5" y2="197" />
<line stroke="#567DB6" stroke-dasharray="4 3" stroke-width="1" x1="446.5" x2="446.5" y1="79" y2="245" />
<line stroke="#567DB6" stroke-dasharray="4 3" stroke-width="1" x1="398.5" x2="398.5" y1="79" y2="245" />
<line stroke="#567DB6" stroke-dasharray="4 3" stroke-width="1" x1="350.5" x2="350.5" y1="79" y2="245" />
<line stroke="#567DB6" stroke-dasharray="4 3" stroke-width="1" x1="302.5" x2="302.5" y1="79" y2="245" />
<line stroke="#567DB6" stroke-dasharray="4 3" stroke-width="1" x1="254.5" x2="254.5" y1="79" y2="245" />
<line stroke="#567DB6" stroke-dasharray="4 3" stroke-width="1" x1="206.5" x2="206.5" y1="79" y2="245" />
<line stroke="#567DB6" stroke-dasharray="4 3" stroke-width="1" x1="158.5" x2="158.5" y1="79" y2="245" />
<line stroke="#567DB6" stroke-dasharray="4 3" stroke-width="1" x1="110.5" x2="110.5" y1="79" y2="245" />
<line stroke="#567DB6" stroke-width="1" x1="454.5" x2="454.5" y1="115.5" y2="293" />
<line stroke="#567DB6" stroke-width="1" x1="406.5" x2="406.5" y1="115.5" y2="293" />
<line stroke="#567DB6" stroke-width="1" x1="358.5" x2="358.5" y1="115.5" y2="293" />
<line stroke="#567DB6" stroke-width="1" x1="310.5" x2="310.5" y1="115.5" y2="293" />
<line stroke="#567DB6" stroke-width="1" x1="262.5" x2="262.5" y1="115.5" y2="293" />
<line stroke="#567DB6" stroke-width="1" x1="214.5" x2="214.5" y1="115.5" y2="293" />
<line stroke="#567DB6" stroke-width="1" x1="166.5" x2="166.5" y1="115.5" y2="293" />
<line stroke="#567DB6" stroke-width="1" x1="118.5" x2="118.5" y1="115.5" y2="293" />
<line stroke="#567DB6" stroke-dasharray="4 3" stroke-width="1" x1="462.5" x2="462.5" y1="151" y2="341" />
<line stroke="#567DB6" stroke-dasharray="4 3" stroke-width="1" x1="414.5" x2="414.5" y1="151" y2="341" />
<line stroke="#567DB6" stroke-dasharray="4 3" stroke-width="1" x1="366.5" x2="366.5" y1="151" y2="341" />
<line stroke="#567DB6" stroke-dasharray="4 3" stroke-width="1" x1="318.5" x2="318.5" y1="151" y2="341" />
<line stroke="#567DB6" stroke-dasharray="4 3" stroke-width="1" x1="270.5" x2="270.5" y1="151" y2="341" />
<line stroke="#567DB6" stroke-dasharray="4 3" stroke-width="1" x1="222.5" x2="222.5" y1="151" y2="341" />
<line stroke="#567DB6" stroke-dasharray="4 3" stroke-width="1" x1="174.5" x2="174.5" y1="151" y2="341" />
<line stroke="#567DB6" stroke-dasharray="4 3" stroke-width="1" x1="126.5" x2="126.5" y1="151" y2="341" />
<text class="title-left" x="90.5" y="9.5">upper</text>
<text class="title-right" x="474.5" y="9.5">lower</text>
<rect fill="#DEE6F1" height="24" width="48" x="426.5" y="18.5" />
<rect fill="none" height="24" stroke="#405C86" stroke-width="3" width="48" x="426.5" y="18.5" />
<text class="smaller-label intrinsic-color" x="450.5" y="31.5">base[0]</text>
<rect fill="#DEE6F1" height="24" width="48" x="378.5" y="18.5" />
<rect fill="none" height="24" stroke="#405C86" stroke-width="3" width="48" x="378.5" y="18.5" />
<text class="smaller-label intrinsic-color" x="402.5" y="31.5">base[1]</text>
<rect fill="#DEE6F1" height="24" width="48" x="330.5" y="18.5" />
<rect fill="none" height="24" stroke="#405C86" stroke-width="3" width="48" x="330.5" y="18.5" />
<text class="smaller-label intrinsic-color" x="354.5" y="31.5">base[2]</text>
<rect fill="#DEE6F1" height="24" width="48" x="282.5" y="18.5" />
<rect fill="none" height="24" stroke="#405C86" stroke-width="3" width="48" x="282.5" y="18.5" />
<text class="smaller-label intrinsic-color" x="306.5" y="31.5">base[3]</text>
<rect fill="#DEE6F1" height="24" width="48" x="234.5" y="18.5" />
<rect fill="none" height="24" stroke="#405C86" stroke-width="3" width="48" x="234.5" y="18.5" />
<text class="smaller-label intrinsic-color" x="258.5" y="31.5">base[4]</text>
<rect fill="#DEE6F1" height="24" width="48" x="186.5" y="18.5" />
<rect fill="none" height="24" stroke="#405C86" stroke-width="3" width="48" x="186.5" y="18.5" />
<text class="smaller-label intrinsic-color" x="210.5" y="31.5">base[5]</text>
<rect fill="#DEE6F1" height="24" width="48" x="138.5" y="18.5" />
<rect fill="none" height="24" stroke="#405C86" stroke-width="3" width="48" x="138.5" y="18.5" />
<text class="smaller-label intrinsic-color" x="162.5" y="31.5">base[6]</text>
<rect fill="#DEE6F1" height="24" width="48" x="90.5" y="18.5" />
<rect fill="none" height="24" stroke="#405C86" stroke-width="3" width="48" x="90.5" y="18.5" />
<text class="smaller-label intrinsic-color" x="114.5" y="31.5">base[7]</text>
<text class="register-name" x="80.5" y="30.5">[mem]</text>
<text class="register-number" x="10" y="30.5">(1)</text>
<rect fill="#EEDDDB" height="24" width="48" x="426.5" y="54.5" />
<rect fill="none" height="24" stroke="#405C86" stroke-width="3" width="48" x="426.5" y="54.5" />
<text class="smaller-label intrinsic-color" x="450.5" y="67.5">base[8]</text>
<rect fill="#EEDDDB" height="24" width="48" x="378.5" y="54.5" />
<rect fill="none" height="24" stroke="#405C86" stroke-width="3" width="48" x="378.5" y="54.5" />
<text class="smaller-label intrinsic-color" x="402.5" y="67.5">base[9]</text>
<rect fill="#EEDDDB" height="24" width="48" x="330.5" y="54.5" />
<rect fill="none" height="24" stroke="#405C86" stroke-width="3" width="48" x="330.5" y="54.5" />
<text class="smaller-label intrinsic-color" x="354.5" y="67.5">base[10]</text>
<rect fill="#EEDDDB" height="24" width="48" x="282.5" y="54.5" />
<rect fill="none" height="24" stroke="#405C86" stroke-width="3" width="48" x="282.5" y="54.5" />
<text class="smaller-label intrinsic-color" x="306.5" y="67.5">base[11]</text>
<rect fill="#EEDDDB" height="24" width="48" x="234.5" y="54.5" />
<rect fill="none" height="24" stroke="#405C86" stroke-width="3" width="48" x="234.5" y="54.5" />
<text class="smaller-label intrinsic-color" x="258.5" y="67.5">base[12]</text>
<rect fill="#EEDDDB" height="24" width="48" x="186.5" y="54.5" />
<rect fill="none" height="24" stroke="#405C86" stroke-width="3" width="48" x="186.5" y="54.5" />
<text class="smaller-label intrinsic-color" x="210.5" y="67.5">base[13]</text>
<rect fill="#EEDDDB" height="24" width="48" x="138.5" y="54.5" />
<rect fill="none" height="24" stroke="#405C86" stroke-width="3" width="48" x="138.5" y="54.5" />
<text class="smaller-label intrinsic-color" x="162.5" y="67.5">base[14]</text>
<rect fill="#EEDDDB" height="24" width="48" x="90.5" y="54.5" />
<rect fill="none" height="24" stroke="#405C86" stroke-width="3" width="48" x="90.5" y="54.5" />
<text class="smaller-label intrinsic-color" x="114.5" y="67.5">base[15]</text>
<rect fill="#ECF1E0" height="24" width="48" x="426.5" y="90.5" />
<rect fill="none" height="24" stroke="#405C86" stroke-width="3" width="48" x="426.5" y="90.5" />
<text class="smaller-label intrinsic-color" x="450.5" y="103.5">base[16]</text>
<rect fill="#ECF1E0" height="24" width="48" x="378.5" y="90.5" />
<rect fill="none" height="24" stroke="#405C86" stroke-width="3" width="48" x="378.5" y="90.5" />
<text class="smaller-label intrinsic-color" x="402.5" y="103.5">base[17]</text>
<rect fill="#ECF1E0" height="24" width="48" x="330.5" y="90.5" />
<rect fill="none" height="24" stroke="#405C86" stroke-width="3" width="48" x="330.5" y="90.5" />
<text class="smaller-label intrinsic-color" x="354.5" y="103.5">base[18]</text>
<rect fill="#ECF1E0" height="24" width="48" x="282.5" y="90.5" />
<rect fill="none" height="24" stroke="#405C86" stroke-width="3" width="48" x="282.5" y="90.5" />
<text class="smaller-label intrinsic-color" x="306.5" y="103.5">base[19]</text>
<rect fill="#ECF1E0" height="24" width="48" x="234.5" y="90.5" />
<rect fill="none" height="24" stroke="#405C86" stroke-width="3" width="48" x="234.5" y="90.5" />
<text class="smaller-label intrinsic-color" x="258.5" y="103.5">base[20]</text>
<rect fill="#ECF1E0" height="24" width="48" x="186.5" y="90.5" />
<rect fill="none" height="24" stroke="#405C86" stroke-width="3" width="48" x="186.5" y="90.5" />
<text class="smaller-label intrinsic-color" x="210.5" y="103.5">base[21]</text>
<rect fill="#ECF1E0" height="24" width="48" x="138.5" y="90.5" />
<rect fill="none" height="24" stroke="#405C86" stroke-width="3" width="48" x="138.5" y="90.5" />
<text class="smaller-label intrinsic-color" x="162.5" y="103.5">base[22]</text>
<rect fill="#ECF1E0" height="24" width="48" x="90.5" y="90.5" />
<rect fill="none" height="24" stroke="#405C86" stroke-width="3" width="48" x="90.5" y="90.5" />
<text class="smaller-label intrinsic-color" x="114.5" y="103.5">base[23]</text>
<rect fill="#E5E0EB" height="24" width="48" x="426.5" y="126.5" />
<rect fill="none" height="24" stroke="#405C86" stroke-width="3" width="48" x="426.5" y="126.5" />
<text class="smaller-label intrinsic-color" x="450.5" y="139.5">base[24]</text>
<rect fill="#E5E0EB" height="24" width="48" x="378.5" y="126.5" />
<rect fill="none" height="24" stroke="#405C86" stroke-width="3" width="48" x="378.5" y="126.5" />
<text class="smaller-label intrinsic-color" x="402.5" y="139.5">base[25]</text>
<rect fill="#E5E0EB" height="24" width="48" x="330.5" y="126.5" />
<rect fill="none" height="24" stroke="#405C86" stroke-width="3" width="48" x="330.5" y="126.5" />
<text class="smaller-label intrinsic-color" x="354.5" y="139.5">base[26]</text>
<rect fill="#E5E0EB" height="24" width="48" x="282.5" y="126.5" />
<rect fill="none" height="24" stroke="#405C86" stroke-width="3" width="48" x="282.5" y="126.5" />
<text class="smaller-label intrinsic-color" x="306.5" y="139.5">base[27]</text>
<rect fill="#E5E0EB" height="24" width="48" x="234.5" y="126.5" />
<rect fill="none" height="24" stroke="#405C86" stroke-width="3" width="48" x="234.5" y="126.5" />
<text class="smaller-label intrinsic-color" x="258.5" y="139.5">base[28]</text>
<rect fill="#E5E0EB" height="24" width="48" x="186.5" y="126.5" />
<rect fill="none" height="24" stroke="#405C86" stroke-width="3" width="48" x="186.5" y="126.5" />
<text class="smaller-label intrinsic-color" x="210.5" y="139.5">base[29]</text>
<rect fill="#E5E0EB" height="24" width="48" x="138.5" y="126.5" />
<rect fill="none" height="24" stroke="#405C86" stroke-width="3" width="48" x="138.5" y="126.5" />
<text class="smaller-label intrinsic-color" x="162.5" y="139.5">base[30]</text>
<rect fill="#E5E0EB" height="24" width="48" x="90.5" y="126.5" />
<rect fill="none" height="24" stroke="#405C86" stroke-width="3" width="48" x="90.5" y="126.5" />
<text class="smaller-label intrinsic-color" x="114.5" y="139.5">base[31]</text>
<rect fill="#DEE6F1" height="24" width="48" x="426.5" y="198.5" />
<rect fill="none" height="24" stroke="#405C86" stroke-width="3" width="48" x="426.5" y="198.5" />
<rect fill="#DEE6F1" height="24" width="48" x="378.5" y="198.5" />
<rect fill="none" height="24" stroke="#405C86" stroke-width="3" width="48" x="378.5" y="198.5" />
<rect fill="#DEE6F1" height="24" width="48" x="330.5" y="198.5" />
<rect fill="none" height="24" stroke="#405C86" stroke-width="3" width="48" x="330.5" y="198.5" />
<rect fill="#DEE6F1" height="24" width="48" x="282.5" y="198.5" />
<rect fill="none" height="24" stroke="#405C86" stroke-width="3" width="48" x="282.5" y="198.5" />
<rect fill="#DEE6F1" height="24" width="48" x="234.5" y="198.5" />
<rect fill="none" height="24" stroke="#405C86" stroke-width="3" width="48" x="234.5" y="198.5" />
<rect fill="#DEE6F1" height="24" width="48" x="186.5" y="198.5" />
<rect fill="none" height="24" stroke="#405C86" stroke-width="3" width="48" x="186.5" y="198.5" />
<rect fill="#DEE6F1" height="24" width="48" x="138.5" y="198.5" />
<rect fill="none" height="24" stroke="#405C86" stroke-width="3" width="48" x="138.5" y="198.5" />
<rect fill="#DEE6F1" height="24" width="48" x="90.5" y="198.5" />
<rect fill="none" height="24" stroke="#405C86" stroke-width="3" width="48" x="90.5" y="198.5" />
<text class="register-name" x="80.5" y="210.5">Zt1</text>
<text class="register-number" x="10" y="210.5">(2)</text>
<rect fill="#EEDDDB" height="24" width="48" x="426.5" y="246.5" />
<rect fill="none" height="24" stroke="#405C86" stroke-width="3" width="48" x="426.5" y="246.5" />
<rect fill="#EEDDDB" height="24" width="48" x="378.5" y="246.5" />
<rect fill="none" height="24" stroke="#405C86" stroke-width="3" width="48" x="378.5" y="246.5" />
<rect fill="#EEDDDB" height="24" width="48" x="330.5" y="246.5" />
<rect fill="none" height="24" stroke="#405C86" stroke-width="3" width="48" x="330.5" y="246.5" />
<rect fill="#EEDDDB" height="24" width="48" x="282.5" y="246.5" />
<rect fill="none" height="24" stroke="#405C86" stroke-width="3" width="48" x="282.5" y="246.5" />
<rect fill="#EEDDDB" height="24" width="48" x="234.5" y="246.5" />
<rect fill="none" height="24" stroke="#405C86" stroke-width="3" width="48" x="234.5" y="246.5" />
<rect fill="#EEDDDB" height="24" width="48" x="186.5" y="246.5" />
<rect fill="none" height="24" stroke="#405C86" stroke-width="3" width="48" x="186.5" y="246.5" />
<rect fill="#EEDDDB" height="24" width="48" x="138.5" y="246.5" />
<rect fill="none" height="24" stroke="#405C86" stroke-width="3" width="48" x="138.5" y="246.5" />
<rect fill="#EEDDDB" height="24" width="48" x="90.5" y="246.5" />
<rect fill="none" height="24" stroke="#405C86" stroke-width="3" width="48" x="90.5" y="246.5" />
<text class="register-name" x="80.5" y="258.5">Zt2</text>
<text class="register-number" x="10" y="258.5">(3)</text>
<rect fill="#ECF1E0" height="24" width="48" x="426.5" y="294.5" />
<rect fill="none" height="24" stroke="#405C86" stroke-width="3" width="48" x="426.5" y="294.5" />
<rect fill="#ECF1E0" height="24" width="48" x="378.5" y="294.5" />
<rect fill="none" height="24" stroke="#405C86" stroke-width="3" width="48" x="378.5" y="294.5" />
<rect fill="#ECF1E0" height="24" width="48" x="330.5" y="294.5" />
<rect fill="none" height="24" stroke="#405C86" stroke-width="3" width="48" x="330.5" y="294.5" />
<rect fill="#ECF1E0" height="24" width="48" x="282.5" y="294.5" />
<rect fill="none" height="24" stroke="#405C86" stroke-width="3" width="48" x="282.5" y="294.5" />
<rect fill="#ECF1E0" height="24" width="48" x="234.5" y="294.5" />
<rect fill="none" height="24" stroke="#405C86" stroke-width="3" width="48" x="234.5" y="294.5" />
<rect fill="#ECF1E0" height="24" width="48" x="186.5" y="294.5" />
<rect fill="none" height="24" stroke="#405C86" stroke-width="3" width="48" x="186.5" y="294.5" />
<rect fill="#ECF1E0" height="24" width="48" x="138.5" y="294.5" />
<rect fill="none" height="24" stroke="#405C86" stroke-width="3" width="48" x="138.5" y="294.5" />
<rect fill="#ECF1E0" height="24" width="48" x="90.5" y="294.5" />
<rect fill="none" height="24" stroke="#405C86" stroke-width="3" width="48" x="90.5" y="294.5" />
<text class="register-name" x="80.5" y="306.5">Zt3</text>
<text class="register-number" x="10" y="306.5">(4)</text>
<rect fill="#E5E0EB" height="24" width="48" x="426.5" y="342.5" />
<rect fill="none" height="24" stroke="#405C86" stroke-width="3" width="48" x="426.5" y="342.5" />
<rect fill="#E5E0EB" height="24" width="48" x="378.5" y="342.5" />
<rect fill="none" height="24" stroke="#405C86" stroke-width="3" width="48" x="378.5" y="342.5" />
<rect fill="#E5E0EB" height="24" width="48" x="330.5" y="342.5" />
<rect fill="none" height="24" stroke="#405C86" stroke-width="3" width="48" x="330.5" y="342.5" />
<rect fill="#E5E0EB" height="24" width="48" x="282.5" y="342.5" />
<rect fill="none" height="24" stroke="#405C86" stroke-width="3" width="48" x="282.5" y="342.5" />
<rect fill="#E5E0EB" height="24" width="48" x="234.5" y="342.5" />
<rect fill="none" height="24" stroke="#405C86" stroke-width="3" width="48" x="234.5" y="342.5" />
<rect fill="#E5E0EB" height="24" width="48" x="186.5" y="342.5" />
<rect fill="none" height="24" stroke="#405C86" stroke-width="3" width="48" x="186.5" y="342.5" />
<rect fill="#E5E0EB" height="24" width="48" x="138.5" y="342.5" />
<rect fill="none" height="24" stroke="#405C86" stroke-width="3" width="48" x="138.5" y="342.5" />
<rect fill="#E5E0EB" height="24" width="48" x="90.5" y="342.5" />
<rect fill="none" height="24" stroke="#405C86" stroke-width="3" width="48" x="90.5" y="342.5" />
<text class="register-name" x="80.5" y="354.5">Zt4</text>
<text class="register-number" x="10" y="354.5">(5)</text>
<line marker-end="url(#arrowhead)" stroke="none" x1="438.5" x2="438.5" y1="43.5" y2="197" />
<line marker-end="url(#arrowhead)" stroke="none" x1="390.5" x2="390.5" y1="43.5" y2="197" />
<line marker-end="url(#arrowhead)" stroke="none" x1="342.5" x2="342.5" y1="43.5" y2="197" />
<line marker-end="url(#arrowhead)" stroke="none" x1="294.5" x2="294.5" y1="43.5" y2="197" />
<line marker-end="url(#arrowhead)" stroke="none" x1="246.5" x2="246.5" y1="43.5" y2="197" />
<line marker-end="url(#arrowhead)" stroke="none" x1="198.5" x2="198.5" y1="43.5" y2="197" />
<line marker-end="url(#arrowhead)" stroke="none" x1="150.5" x2="150.5" y1="43.5" y2="197" />
<line marker-end="url(#arrowhead)" stroke="none" x1="102.5" x2="102.5" y1="43.5" y2="197" />
<line marker-end="url(#arrowhead)" stroke="none" stroke-dasharray="4 3" x1="446.5" x2="446.5" y1="79" y2="245" />
<line marker-end="url(#arrowhead)" stroke="none" stroke-dasharray="4 3" x1="398.5" x2="398.5" y1="79" y2="245" />
<line marker-end="url(#arrowhead)" stroke="none" stroke-dasharray="4 3" x1="350.5" x2="350.5" y1="79" y2="245" />
<line marker-end="url(#arrowhead)" stroke="none" stroke-dasharray="4 3" x1="302.5" x2="302.5" y1="79" y2="245" />
<line marker-end="url(#arrowhead)" stroke="none" stroke-dasharray="4 3" x1="254.5" x2="254.5" y1="79" y2="245" />
<line marker-end="url(#arrowhead)" stroke="none" stroke-dasharray="4 3" x1="206.5" x2="206.5" y1="79" y2="245" />
<line marker-end="url(#arrowhead)" stroke="none" stroke-dasharray="4 3" x1="158.5" x2="158.5" y1="79" y2="245" />
<line marker-end="url(#arrowhead)" stroke="none" stroke-dasharray="4 3" x1="110.5" x2="110.5" y1="79" y2="245" />
<line marker-end="url(#arrowhead)" stroke="none" x1="454.5" x2="454.5" y1="115.5" y2="293" />
<line marker-end="url(#arrowhead)" stroke="none" x1="406.5" x2="406.5" y1="115.5" y2="293" />
<line marker-end="url(#arrowhead)" stroke="none" x1="358.5" x2="358.5" y1="115.5" y2="293" />
<line marker-end="url(#arrowhead)" stroke="none" x1="310.5" x2="310.5" y1="115.5" y2="293" />
<line marker-end="url(#arrowhead)" stroke="none" x1="262.5" x2="262.5" y1="115.5" y2="293" />
<line marker-end="url(#arrowhead)" stroke="none" x1="214.5" x2="214.5" y1="115.5" y2="293" />
<line marker-end="url(#arrowhead)" stroke="none" x1="166.5" x2="166.5" y1="115.5" y2="293" />
<line marker-end="url(#arrowhead)" stroke="none" x1="118.5" x2="118.5" y1="115.5" y2="293" />
<line marker-end="url(#arrowhead)" stroke="none" stroke-dasharray="4 3" x1="462.5" x2="462.5" y1="151" y2="341" />
<line marker-end="url(#arrowhead)" stroke="none" stroke-dasharray="4 3" x1="414.5" x2="414.5" y1="151" y2="341" />
<line marker-end="url(#arrowhead)" stroke="none" stroke-dasharray="4 3" x1="366.5" x2="366.5" y1="151" y2="341" />
<line marker-end="url(#arrowhead)" stroke="none" stroke-dasharray="4 3" x1="318.5" x2="318.5" y1="151" y2="341" />
<line marker-end="url(#arrowhead)" stroke="none" stroke-dasharray="4 3" x1="270.5" x2="270.5" y1="151" y2="341" />
<line marker-end="url(#arrowhead)" stroke="none" stroke-dasharray="4 3" x1="222.5" x2="222.5" y1="151" y2="341" />
<line marker-end="url(#arrowhead)" stroke="none" stroke-dasharray="4 3" x1="174.5" x2="174.5" y1="151" y2="341" />
<line marker-end="url(#arrowhead)" stroke="none" stroke-dasharray="4 3" x1="126.5" x2="126.5" y1="151" y2="341" />
</svg>