<svg xmlns="http://www.w3.org/2000/svg" viewBox="0 0 870 207">
<style>
.label { font: 14px Helvetica; dominant-baseline: middle; text-anchor: middle; }
.title-left { font: 12px Helvetica; dominant-baseline: middle; }
.title-right { font: 12px Helvetica; dominant-baseline: middle; text-anchor: end; }
.title-intrinsic { font: 12px Helvetica; dominant-baseline: middle; text-anchor: middle; fill: #6778ED; }
.title { font: 12px Helvetica; dominant-baseline: middle; text-anchor: middle; }
.title-unused { font: 12px Helvetica; dominant-baseline: middle; text-anchor: middle; fill: #AAA; }
.register-name { font: 14px Helvetica; dominant-baseline: middle; text-anchor: end; font-style: italic; }
.memory-name { font: 14px Helvetica; dominant-baseline: middle; text-anchor: end; }
.register-number { font: 14px Helvetica; dominant-baseline: middle; text-anchor: start; }
.intrinsic-name { font: 14px Helvetica; dominant-baseline: middle; text-anchor: end; fill: #6778ED; }
.intrinsic-color { fill: #6778ED; }
.small-label { font: 12px Helvetica; dominant-baseline: middle; text-anchor: middle; }
.label-10px { font: 10px Helvetica; dominant-baseline: middle; text-anchor: middle; }
.smaller-label { font: 9px Helvetica; dominant-baseline: middle; text-anchor: middle; }
.label-6px { font: 6px Helvetica; dominant-baseline: middle; text-anchor: middle; }
.label-7px { font: 7px Helvetica; dominant-baseline: middle; text-anchor: middle; }
.unused { fill: #AAA; }
.dim { fill: #888; }
</style>
<defs>
<marker id="arrowhead" markerWidth="10.75" markerHeight="24.5" refX="9.0" refY="6.125" orient="auto">
<polyline points="0.5 0.5, 8.75 6.125, 0.5 11.75" stroke="#567DB6" stroke-width="1" fill="none"/>
</marker>
</defs>
<line stroke="#567DB6" stroke-width="1" x1="830.5" x2="830.5" y1="43.5" y2="125" />
<line stroke="#567DB6" stroke-width="1" x1="782.5" x2="782.5" y1="43.5" y2="125" />
<line stroke="#567DB6" stroke-width="1" x1="734.5" x2="734.5" y1="43.5" y2="125" />
<line stroke="#567DB6" stroke-width="1" x1="686.5" x2="686.5" y1="43.5" y2="125" />
<line stroke="#567DB6" stroke-width="1" x1="638.5" x2="638.5" y1="43.5" y2="125" />
<line stroke="#567DB6" stroke-width="1" x1="590.5" x2="590.5" y1="43.5" y2="125" />
<line stroke="#567DB6" stroke-width="1" x1="542.5" x2="542.5" y1="43.5" y2="125" />
<line stroke="#567DB6" stroke-width="1" x1="494.5" x2="494.5" y1="43.5" y2="125" />
<line stroke="#567DB6" stroke-width="1" x1="446.5" x2="446.5" y1="43.5" y2="125" />
<line stroke="#567DB6" stroke-width="1" x1="398.5" x2="398.5" y1="43.5" y2="125" />
<line stroke="#567DB6" stroke-width="1" x1="350.5" x2="350.5" y1="43.5" y2="125" />
<line stroke="#567DB6" stroke-width="1" x1="302.5" x2="302.5" y1="43.5" y2="125" />
<line stroke="#567DB6" stroke-width="1" x1="254.5" x2="254.5" y1="43.5" y2="125" />
<line stroke="#567DB6" stroke-width="1" x1="206.5" x2="206.5" y1="43.5" y2="125" />
<line stroke="#567DB6" stroke-width="1" x1="158.5" x2="158.5" y1="43.5" y2="125" />
<line stroke="#567DB6" stroke-width="1" x1="110.5" x2="110.5" y1="43.5" y2="125" />
<line stroke="#567DB6" stroke-dasharray="4 3" stroke-width="1" x1="838.5" x2="838.5" y1="79" y2="173" />
<line stroke="#567DB6" stroke-dasharray="4 3" stroke-width="1" x1="790.5" x2="790.5" y1="79" y2="173" />
<line stroke="#567DB6" stroke-dasharray="4 3" stroke-width="1" x1="742.5" x2="742.5" y1="79" y2="173" />
<line stroke="#567DB6" stroke-dasharray="4 3" stroke-width="1" x1="694.5" x2="694.5" y1="79" y2="173" />
<line stroke="#567DB6" stroke-dasharray="4 3" stroke-width="1" x1="646.5" x2="646.5" y1="79" y2="173" />
<line stroke="#567DB6" stroke-dasharray="4 3" stroke-width="1" x1="598.5" x2="598.5" y1="79" y2="173" />
<line stroke="#567DB6" stroke-dasharray="4 3" stroke-width="1" x1="550.5" x2="550.5" y1="79" y2="173" />
<line stroke="#567DB6" stroke-dasharray="4 3" stroke-width="1" x1="502.5" x2="502.5" y1="79" y2="173" />
<line stroke="#567DB6" stroke-dasharray="4 3" stroke-width="1" x1="454.5" x2="454.5" y1="79" y2="173" />
<line stroke="#567DB6" stroke-dasharray="4 3" stroke-width="1" x1="406.5" x2="406.5" y1="79" y2="173" />
<line stroke="#567DB6" stroke-dasharray="4 3" stroke-width="1" x1="358.5" x2="358.5" y1="79" y2="173" />
<line stroke="#567DB6" stroke-dasharray="4 3" stroke-width="1" x1="310.5" x2="310.5" y1="79" y2="173" />
<line stroke="#567DB6" stroke-dasharray="4 3" stroke-width="1" x1="262.5" x2="262.5" y1="79" y2="173" />
<line stroke="#567DB6" stroke-dasharray="4 3" stroke-width="1" x1="214.5" x2="214.5" y1="79" y2="173" />
<line stroke="#567DB6" stroke-dasharray="4 3" stroke-width="1" x1="166.5" x2="166.5" y1="79" y2="173" />
<line stroke="#567DB6" stroke-dasharray="4 3" stroke-width="1" x1="118.5" x2="118.5" y1="79" y2="173" />
<text class="title-left" x="90.5" y="9.5">upper</text>
<text class="title-right" x="858.5" y="9.5">lower</text>
<rect fill="#DEE6F1" height="24" width="48" x="810.5" y="18.5" />
<rect fill="none" height="24" stroke="#405C86" stroke-width="3" width="48" x="810.5" y="18.5" />
<text class="smaller-label intrinsic-color" x="834.5" y="31.5">base[0]</text>
<rect fill="#DEE6F1" height="24" width="48" x="762.5" y="18.5" />
<rect fill="none" height="24" stroke="#405C86" stroke-width="3" width="48" x="762.5" y="18.5" />
<text class="smaller-label intrinsic-color" x="786.5" y="31.5">base[1]</text>
<rect fill="#DEE6F1" height="24" width="48" x="714.5" y="18.5" />
<rect fill="none" height="24" stroke="#405C86" stroke-width="3" width="48" x="714.5" y="18.5" />
<text class="smaller-label intrinsic-color" x="738.5" y="31.5">base[2]</text>
<rect fill="#DEE6F1" height="24" width="48" x="666.5" y="18.5" />
<rect fill="none" height="24" stroke="#405C86" stroke-width="3" width="48" x="666.5" y="18.5" />
<text class="smaller-label intrinsic-color" x="690.5" y="31.5">base[3]</text>
<rect fill="#DEE6F1" height="24" width="48" x="618.5" y="18.5" />
<rect fill="none" height="24" stroke="#405C86" stroke-width="3" width="48" x="618.5" y="18.5" />
<text class="smaller-label intrinsic-color" x="642.5" y="31.5">base[4]</text>
<rect fill="#DEE6F1" height="24" width="48" x="570.5" y="18.5" />
<rect fill="none" height="24" stroke="#405C86" stroke-width="3" width="48" x="570.5" y="18.5" />
<text class="smaller-label intrinsic-color" x="594.5" y="31.5">base[5]</text>
<rect fill="#DEE6F1" height="24" width="48" x="522.5" y="18.5" />
<rect fill="none" height="24" stroke="#405C86" stroke-width="3" width="48" x="522.5" y="18.5" />
<text class="smaller-label intrinsic-color" x="546.5" y="31.5">base[6]</text>
<rect fill="#DEE6F1" height="24" width="48" x="474.5" y="18.5" />
<rect fill="none" height="24" stroke="#405C86" stroke-width="3" width="48" x="474.5" y="18.5" />
<text class="smaller-label intrinsic-color" x="498.5" y="31.5">base[7]</text>
<rect fill="#DEE6F1" height="24" width="48" x="426.5" y="18.5" />
<rect fill="none" height="24" stroke="#405C86" stroke-width="3" width="48" x="426.5" y="18.5" />
<text class="smaller-label intrinsic-color" x="450.5" y="31.5">base[8]</text>
<rect fill="#DEE6F1" height="24" width="48" x="378.5" y="18.5" />
<rect fill="none" height="24" stroke="#405C86" stroke-width="3" width="48" x="378.5" y="18.5" />
<text class="smaller-label intrinsic-color" x="402.5" y="31.5">base[9]</text>
<rect fill="#DEE6F1" height="24" width="48" x="330.5" y="18.5" />
<rect fill="none" height="24" stroke="#405C86" stroke-width="3" width="48" x="330.5" y="18.5" />
<text class="smaller-label intrinsic-color" x="354.5" y="31.5">base[10]</text>
<rect fill="#DEE6F1" height="24" width="48" x="282.5" y="18.5" />
<rect fill="none" height="24" stroke="#405C86" stroke-width="3" width="48" x="282.5" y="18.5" />
<text class="smaller-label intrinsic-color" x="306.5" y="31.5">base[11]</text>
<rect fill="#DEE6F1" height="24" width="48" x="234.5" y="18.5" />
<rect fill="none" height="24" stroke="#405C86" stroke-width="3" width="48" x="234.5" y="18.5" />
<text class="smaller-label intrinsic-color" x="258.5" y="31.5">base[12]</text>
<rect fill="#DEE6F1" height="24" width="48" x="186.5" y="18.5" />
<rect fill="none" height="24" stroke="#405C86" stroke-width="3" width="48" x="186.5" y="18.5" />
<text class="smaller-label intrinsic-color" x="210.5" y="31.5">base[13]</text>
<rect fill="#DEE6F1" height="24" width="48" x="138.5" y="18.5" />
<rect fill="none" height="24" stroke="#405C86" stroke-width="3" width="48" x="138.5" y="18.5" />
<text class="smaller-label intrinsic-color" x="162.5" y="31.5">base[14]</text>
<rect fill="#DEE6F1" height="24" width="48" x="90.5" y="18.5" />
<rect fill="none" height="24" stroke="#405C86" stroke-width="3" width="48" x="90.5" y="18.5" />
<text class="smaller-label intrinsic-color" x="114.5" y="31.5">base[15]</text>
<text class="register-name" x="80.5" y="30.5">[mem]</text>
<text class="register-number" x="10" y="30.5">(1)</text>
<rect fill="#EEDDDB" height="24" width="48" x="810.5" y="54.5" />
<rect fill="none" height="24" stroke="#405C86" stroke-width="3" width="48" x="810.5" y="54.5" />
<text class="smaller-label intrinsic-color" x="834.5" y="67.5">base[16]</text>
<rect fill="#EEDDDB" height="24" width="48" x="762.5" y="54.5" />
<rect fill="none" height="24" stroke="#405C86" stroke-width="3" width="48" x="762.5" y="54.5" />
<text class="smaller-label intrinsic-color" x="786.5" y="67.5">base[17]</text>
<rect fill="#EEDDDB" height="24" width="48" x="714.5" y="54.5" />
<rect fill="none" height="24" stroke="#405C86" stroke-width="3" width="48" x="714.5" y="54.5" />
<text class="smaller-label intrinsic-color" x="738.5" y="67.5">base[18]</text>
<rect fill="#EEDDDB" height="24" width="48" x="666.5" y="54.5" />
<rect fill="none" height="24" stroke="#405C86" stroke-width="3" width="48" x="666.5" y="54.5" />
<text class="smaller-label intrinsic-color" x="690.5" y="67.5">base[19]</text>
<rect fill="#EEDDDB" height="24" width="48" x="618.5" y="54.5" />
<rect fill="none" height="24" stroke="#405C86" stroke-width="3" width="48" x="618.5" y="54.5" />
<text class="smaller-label intrinsic-color" x="642.5" y="67.5">base[20]</text>
<rect fill="#EEDDDB" height="24" width="48" x="570.5" y="54.5" />
<rect fill="none" height="24" stroke="#405C86" stroke-width="3" width="48" x="570.5" y="54.5" />
<text class="smaller-label intrinsic-color" x="594.5" y="67.5">base[21]</text>
<rect fill="#EEDDDB" height="24" width="48" x="522.5" y="54.5" />
<rect fill="none" height="24" stroke="#405C86" stroke-width="3" width="48" x="522.5" y="54.5" />
<text class="smaller-label intrinsic-color" x="546.5" y="67.5">base[22]</text>
<rect fill="#EEDDDB" height="24" width="48" x="474.5" y="54.5" />
<rect fill="none" height="24" stroke="#405C86" stroke-width="3" width="48" x="474.5" y="54.5" />
<text class="smaller-label intrinsic-color" x="498.5" y="67.5">base[23]</text>
<rect fill="#EEDDDB" height="24" width="48" x="426.5" y="54.5" />
<rect fill="none" height="24" stroke="#405C86" stroke-width="3" width="48" x="426.5" y="54.5" />
<text class="smaller-label intrinsic-color" x="450.5" y="67.5">base[24]</text>
<rect fill="#EEDDDB" height="24" width="48" x="378.5" y="54.5" />
<rect fill="none" height="24" stroke="#405C86" stroke-width="3" width="48" x="378.5" y="54.5" />
<text class="smaller-label intrinsic-color" x="402.5" y="67.5">base[25]</text>
<rect fill="#EEDDDB" height="24" width="48" x="330.5" y="54.5" />
<rect fill="none" height="24" stroke="#405C86" stroke-width="3" width="48" x="330.5" y="54.5" />
<text class="smaller-label intrinsic-color" x="354.5" y="67.5">base[26]</text>
<rect fill="#EEDDDB" height="24" width="48" x="282.5" y="54.5" />
<rect fill="none" height="24" stroke="#405C86" stroke-width="3" width="48" x="282.5" y="54.5" />
<text class="smaller-label intrinsic-color" x="306.5" y="67.5">base[27]</text>
<rect fill="#EEDDDB" height="24" width="48" x="234.5" y="54.5" />
<rect fill="none" height="24" stroke="#405C86" stroke-width="3" width="48" x="234.5" y="54.5" />
<text class="smaller-label intrinsic-color" x="258.5" y="67.5">base[28]</text>
<rect fill="#EEDDDB" height="24" width="48" x="186.5" y="54.5" />
<rect fill="none" height="24" stroke="#405C86" stroke-width="3" width="48" x="186.5" y="54.5" />
<text class="smaller-label intrinsic-color" x="210.5" y="67.5">base[29]</text>
<rect fill="#EEDDDB" height="24" width="48" x="138.5" y="54.5" />
<rect fill="none" height="24" stroke="#405C86" stroke-width="3" width="48" x="138.5" y="54.5" />
<text class="smaller-label intrinsic-color" x="162.5" y="67.5">base[30]</text>
<rect fill="#EEDDDB" height="24" width="48" x="90.5" y="54.5" />
<rect fill="none" height="24" stroke="#405C86" stroke-width="3" width="48" x="90.5" y="54.5" />
<text class="smaller-label intrinsic-color" x="114.5" y="67.5">base[31]</text>
<rect fill="#DEE6F1" height="24" width="48" x="810.5" y="126.5" />
<rect fill="none" height="24" stroke="#405C86" stroke-width="3" width="48" x="810.5" y="126.5" />
<rect fill="#DEE6F1" height="24" width="48" x="762.5" y="126.5" />
<rect fill="none" height="24" stroke="#405C86" stroke-width="3" width="48" x="762.5" y="126.5" />
<rect fill="#DEE6F1" height="24" width="48" x="714.5" y="126.5" />
<rect fill="none" height="24" stroke="#405C86" stroke-width="3" width="48" x="714.5" y="126.5" />
<rect fill="#DEE6F1" height="24" width="48" x="666.5" y="126.5" />
<rect fill="none" height="24" stroke="#405C86" stroke-width="3" width="48" x="666.5" y="126.5" />
<rect fill="#DEE6F1" height="24" width="48" x="618.5" y="126.5" />
<rect fill="none" height="24" stroke="#405C86" stroke-width="3" width="48" x="618.5" y="126.5" />
<rect fill="#DEE6F1" height="24" width="48" x="570.5" y="126.5" />
<rect fill="none" height="24" stroke="#405C86" stroke-width="3" width="48" x="570.5" y="126.5" />
<rect fill="#DEE6F1" height="24" width="48" x="522.5" y="126.5" />
<rect fill="none" height="24" stroke="#405C86" stroke-width="3" width="48" x="522.5" y="126.5" />
<rect fill="#DEE6F1" height="24" width="48" x="474.5" y="126.5" />
<rect fill="none" height="24" stroke="#405C86" stroke-width="3" width="48" x="474.5" y="126.5" />
<rect fill="#DEE6F1" height="24" width="48" x="426.5" y="126.5" />
<rect fill="none" height="24" stroke="#405C86" stroke-width="3" width="48" x="426.5" y="126.5" />
<rect fill="#DEE6F1" height="24" width="48" x="378.5" y="126.5" />
<rect fill="none" height="24" stroke="#405C86" stroke-width="3" width="48" x="378.5" y="126.5" />
<rect fill="#DEE6F1" height="24" width="48" x="330.5" y="126.5" />
<rect fill="none" height="24" stroke="#405C86" stroke-width="3" width="48" x="330.5" y="126.5" />
<rect fill="#DEE6F1" height="24" width="48" x="282.5" y="126.5" />
<rect fill="none" height="24" stroke="#405C86" stroke-width="3" width="48" x="282.5" y="126.5" />
<rect fill="#DEE6F1" height="24" width="48" x="234.5" y="126.5" />
<rect fill="none" height="24" stroke="#405C86" stroke-width="3" width="48" x="234.5" y="126.5" />
<rect fill="#DEE6F1" height="24" width="48" x="186.5" y="126.5" />
<rect fill="none" height="24" stroke="#405C86" stroke-width="3" width="48" x="186.5" y="126.5" />
<rect fill="#DEE6F1" height="24" width="48" x="138.5" y="126.5" />
<rect fill="none" height="24" stroke="#405C86" stroke-width="3" width="48" x="138.5" y="126.5" />
<rect fill="#DEE6F1" height="24" width="48" x="90.5" y="126.5" />
<rect fill="none" height="24" stroke="#405C86" stroke-width="3" width="48" x="90.5" y="126.5" />
<text class="register-name" x="80.5" y="138.5">Zt1</text>
<text class="register-number" x="10" y="138.5">(2)</text>
<rect fill="#EEDDDB" height="24" width="48" x="810.5" y="174.5" />
<rect fill="none" height="24" stroke="#405C86" stroke-width="3" width="48" x="810.5" y="174.5" />
<rect fill="#EEDDDB" height="24" width="48" x="762.5" y="174.5" />
<rect fill="none" height="24" stroke="#405C86" stroke-width="3" width="48" x="762.5" y="174.5" />
<rect fill="#EEDDDB" height="24" width="48" x="714.5" y="174.5" />
<rect fill="none" height="24" stroke="#405C86" stroke-width="3" width="48" x="714.5" y="174.5" />
<rect fill="#EEDDDB" height="24" width="48" x="666.5" y="174.5" />
<rect fill="none" height="24" stroke="#405C86" stroke-width="3" width="48" x="666.5" y="174.5" />
<rect fill="#EEDDDB" height="24" width="48" x="618.5" y="174.5" />
<rect fill="none" height="24" stroke="#405C86" stroke-width="3" width="48" x="618.5" y="174.5" />
<rect fill="#EEDDDB" height="24" width="48" x="570.5" y="174.5" />
<rect fill="none" height="24" stroke="#405C86" stroke-width="3" width="48" x="570.5" y="174.5" />
<rect fill="#EEDDDB" height="24" width="48" x="522.5" y="174.5" />
<rect fill="none" height="24" stroke="#405C86" stroke-width="3" width="48" x="522.5" y="174.5" />
<rect fill="#EEDDDB" height="24" width="48" x="474.5" y="174.5" />
<rect fill="none" height="24" stroke="#405C86" stroke-width="3" width="48" x="474.5" y="174.5" />
<rect fill="#EEDDDB" height="24" width="48" x="426.5" y="174.5" />
<rect fill="none" height="24" stroke="#405C86" stroke-width="3" width="48" x="426.5" y="174.5" />
<rect fill="#EEDDDB" height="24" width="48" x="378.5" y="174.5" />
<rect fill="none" height="24" stroke="#405C86" stroke-width="3" width="48" x="378.5" y="174.5" />
<rect fill="#EEDDDB" height="24" width="48" x="330.5" y="174.5" />
<rect fill="none" height="24" stroke="#405C86" stroke-width="3" width="48" x="330.5" y="174.5" />
<rect fill="#EEDDDB" height="24" width="48" x="282.5" y="174.5" />
<rect fill="none" height="24" stroke="#405C86" stroke-width="3" width="48" x="282.5" y="174.5" />
<rect fill="#EEDDDB" height="24" width="48" x="234.5" y="174.5" />
<rect fill="none" height="24" stroke="#405C86" stroke-width="3" width="48" x="234.5" y="174.5" />
<rect fill="#EEDDDB" height="24" width="48" x="186.5" y="174.5" />
<rect fill="none" height="24" stroke="#405C86" stroke-width="3" width="48" x="186.5" y="174.5" />
<rect fill="#EEDDDB" height="24" width="48" x="138.5" y="174.5" />
<rect fill="none" height="24" stroke="#405C86" stroke-width="3" width="48" x="138.5" y="174.5" />
<rect fill="#EEDDDB" height="24" width="48" x="90.5" y="174.5" />
<rect fill="none" height="24" stroke="#405C86" stroke-width="3" width="48" x="90.5" y="174.5" />
<text class="register-name" x="80.5" y="186.5">Zt2</text>
<text class="register-number" x="10" y="186.5">(3)</text>
<line marker-end="url(#arrowhead)" stroke="none" x1="830.5" x2="830.5" y1="43.5" y2="125" />
<line marker-end="url(#arrowhead)" stroke="none" x1="782.5" x2="782.5" y1="43.5" y2="125" />
<line marker-end="url(#arrowhead)" stroke="none" x1="734.5" x2="734.5" y1="43.5" y2="125" />
<line marker-end="url(#arrowhead)" stroke="none" x1="686.5" x2="686.5" y1="43.5" y2="125" />
<line marker-end="url(#arrowhead)" stroke="none" x1="638.5" x2="638.5" y1="43.5" y2="125" />
<line marker-end="url(#arrowhead)" stroke="none" x1="590.5" x2="590.5" y1="43.5" y2="125" />
<line marker-end="url(#arrowhead)" stroke="none" x1="542.5" x2="542.5" y1="43.5" y2="125" />
<line marker-end="url(#arrowhead)" stroke="none" x1="494.5" x2="494.5" y1="43.5" y2="125" />
<line marker-end="url(#arrowhead)" stroke="none" x1="446.5" x2="446.5" y1="43.5" y2="125" />
<line marker-end="url(#arrowhead)" stroke="none" x1="398.5" x2="398.5" y1="43.5" y2="125" />
<line marker-end="url(#arrowhead)" stroke="none" x1="350.5" x2="350.5" y1="43.5" y2="125" />
<line marker-end="url(#arrowhead)" stroke="none" x1="302.5" x2="302.5" y1="43.5" y2="125" />
<line marker-end="url(#arrowhead)" stroke="none" x1="254.5" x2="254.5" y1="43.5" y2="125" />
<line marker-end="url(#arrowhead)" stroke="none" x1="206.5" x2="206.5" y1="43.5" y2="125" />
<line marker-end="url(#arrowhead)" stroke="none" x1="158.5" x2="158.5" y1="43.5" y2="125" />
<line marker-end="url(#arrowhead)" stroke="none" x1="110.5" x2="110.5" y1="43.5" y2="125" />
<line marker-end="url(#arrowhead)" stroke="none" stroke-dasharray="4 3" x1="838.5" x2="838.5" y1="79" y2="173" />
<line marker-end="url(#arrowhead)" stroke="none" stroke-dasharray="4 3" x1="790.5" x2="790.5" y1="79" y2="173" />
<line marker-end="url(#arrowhead)" stroke="none" stroke-dasharray="4 3" x1="742.5" x2="742.5" y1="79" y2="173" />
<line marker-end="url(#arrowhead)" stroke="none" stroke-dasharray="4 3" x1="694.5" x2="694.5" y1="79" y2="173" />
<line marker-end="url(#arrowhead)" stroke="none" stroke-dasharray="4 3" x1="646.5" x2="646.5" y1="79" y2="173" />
<line marker-end="url(#arrowhead)" stroke="none" stroke-dasharray="4 3" x1="598.5" x2="598.5" y1="79" y2="173" />
<line marker-end="url(#arrowhead)" stroke="none" stroke-dasharray="4 3" x1="550.5" x2="550.5" y1="79" y2="173" />
<line marker-end="url(#arrowhead)" stroke="none" stroke-dasharray="4 3" x1="502.5" x2="502.5" y1="79" y2="173" />
<line marker-end="url(#arrowhead)" stroke="none" stroke-dasharray="4 3" x1="454.5" x2="454.5" y1="79" y2="173" />
<line marker-end="url(#arrowhead)" stroke="none" stroke-dasharray="4 3" x1="406.5" x2="406.5" y1="79" y2="173" />
<line marker-end="url(#arrowhead)" stroke="none" stroke-dasharray="4 3" x1="358.5" x2="358.5" y1="79" y2="173" />
<line marker-end="url(#arrowhead)" stroke="none" stroke-dasharray="4 3" x1="310.5" x2="310.5" y1="79" y2="173" />
<line marker-end="url(#arrowhead)" stroke="none" stroke-dasharray="4 3" x1="262.5" x2="262.5" y1="79" y2="173" />
<line marker-end="url(#arrowhead)" stroke="none" stroke-dasharray="4 3" x1="214.5" x2="214.5" y1="79" y2="173" />
<line marker-end="url(#arrowhead)" stroke="none" stroke-dasharray="4 3" x1="166.5" x2="166.5" y1="79" y2="173" />
<line marker-end="url(#arrowhead)" stroke="none" stroke-dasharray="4 3" x1="118.5" x2="118.5" y1="79" y2="173" />
</svg>