<svg xmlns="http://www.w3.org/2000/svg" viewBox="0 0 6246 123">
<style>
.label { font: 14px Helvetica; dominant-baseline: middle; text-anchor: middle; }
.title-left { font: 12px Helvetica; dominant-baseline: middle; }
.title-right { font: 12px Helvetica; dominant-baseline: middle; text-anchor: end; }
.title-intrinsic { font: 12px Helvetica; dominant-baseline: middle; text-anchor: middle; fill: #6778ED; }
.title { font: 12px Helvetica; dominant-baseline: middle; text-anchor: middle; }
.title-unused { font: 12px Helvetica; dominant-baseline: middle; text-anchor: middle; fill: #AAA; }
.register-name { font: 14px Helvetica; dominant-baseline: middle; text-anchor: end; font-style: italic; }
.memory-name { font: 14px Helvetica; dominant-baseline: middle; text-anchor: end; }
.register-number { font: 14px Helvetica; dominant-baseline: middle; text-anchor: start; }
.intrinsic-name { font: 14px Helvetica; dominant-baseline: middle; text-anchor: end; fill: #6778ED; }
.intrinsic-color { fill: #6778ED; }
.small-label { font: 12px Helvetica; dominant-baseline: middle; text-anchor: middle; }
.label-10px { font: 10px Helvetica; dominant-baseline: middle; text-anchor: middle; }
.smaller-label { font: 9px Helvetica; dominant-baseline: middle; text-anchor: middle; }
.label-6px { font: 6px Helvetica; dominant-baseline: middle; text-anchor: middle; }
.label-7px { font: 7px Helvetica; dominant-baseline: middle; text-anchor: middle; }
.unused { fill: #AAA; }
.dim { fill: #888; }
</style>
<defs>
<marker id="arrowhead" markerWidth="10.75" markerHeight="24.5" refX="9.0" refY="6.125" orient="auto">
<polyline points="0.5 0.5, 8.75 6.125, 0.5 11.75" stroke="#567DB6" stroke-width="1" fill="none"/>
</marker>
</defs>
<line stroke="#567DB6" stroke-width="1" x1="3162.5" x2="6223.578125" y1="43.5" y2="89" />
<line stroke="#567DB6" stroke-width="1" x1="3162.5" x2="6127.578125" y1="43.5" y2="89" />
<line stroke="#567DB6" stroke-width="1" x1="3162.5" x2="6031.578125" y1="43.5" y2="89" />
<line stroke="#567DB6" stroke-width="1" x1="3162.5" x2="5935.578125" y1="43.5" y2="89" />
<line stroke="#567DB6" stroke-width="1" x1="3162.5" x2="5839.578125" y1="43.5" y2="89" />
<line stroke="#567DB6" stroke-width="1" x1="3162.5" x2="5743.578125" y1="43.5" y2="89" />
<line stroke="#567DB6" stroke-width="1" x1="3162.5" x2="5647.578125" y1="43.5" y2="89" />
<line stroke="#567DB6" stroke-width="1" x1="3162.5" x2="5551.578125" y1="43.5" y2="89" />
<line stroke="#567DB6" stroke-width="1" x1="3162.5" x2="5455.578125" y1="43.5" y2="89" />
<line stroke="#567DB6" stroke-width="1" x1="3162.5" x2="5359.578125" y1="43.5" y2="89" />
<line stroke="#567DB6" stroke-width="1" x1="3162.5" x2="5263.578125" y1="43.5" y2="89" />
<line stroke="#567DB6" stroke-width="1" x1="3162.5" x2="5167.578125" y1="43.5" y2="89" />
<line stroke="#567DB6" stroke-width="1" x1="3162.5" x2="5071.578125" y1="43.5" y2="89" />
<line stroke="#567DB6" stroke-width="1" x1="3162.5" x2="4975.578125" y1="43.5" y2="89" />
<line stroke="#567DB6" stroke-width="1" x1="3162.5" x2="4879.578125" y1="43.5" y2="89" />
<line stroke="#567DB6" stroke-width="1" x1="3162.5" x2="4783.578125" y1="43.5" y2="89" />
<line stroke="#567DB6" stroke-width="1" x1="3162.5" x2="4687.578125" y1="43.5" y2="89" />
<line stroke="#567DB6" stroke-width="1" x1="3162.5" x2="4591.578125" y1="43.5" y2="89" />
<line stroke="#567DB6" stroke-width="1" x1="3162.5" x2="4495.578125" y1="43.5" y2="89" />
<line stroke="#567DB6" stroke-width="1" x1="3162.5" x2="4399.578125" y1="43.5" y2="89" />
<line stroke="#567DB6" stroke-width="1" x1="3162.5" x2="4303.578125" y1="43.5" y2="89" />
<line stroke="#567DB6" stroke-width="1" x1="3162.5" x2="4207.578125" y1="43.5" y2="89" />
<line stroke="#567DB6" stroke-width="1" x1="3162.5" x2="4111.578125" y1="43.5" y2="89" />
<line stroke="#567DB6" stroke-width="1" x1="3162.5" x2="4015.578125" y1="43.5" y2="89" />
<line stroke="#567DB6" stroke-width="1" x1="3162.5" x2="3919.578125" y1="43.5" y2="89" />
<line stroke="#567DB6" stroke-width="1" x1="3162.5" x2="3823.578125" y1="43.5" y2="89" />
<line stroke="#567DB6" stroke-width="1" x1="3162.5" x2="3727.578125" y1="43.5" y2="89" />
<line stroke="#567DB6" stroke-width="1" x1="3162.5" x2="3631.578125" y1="43.5" y2="89" />
<line stroke="#567DB6" stroke-width="1" x1="3162.5" x2="3535.578125" y1="43.5" y2="89" />
<line stroke="#567DB6" stroke-width="1" x1="3162.5" x2="3439.578125" y1="43.5" y2="89" />
<line stroke="#567DB6" stroke-width="1" x1="3162.5" x2="3343.578125" y1="43.5" y2="89" />
<line stroke="#567DB6" stroke-width="1" x1="3162.5" x2="3247.578125" y1="43.5" y2="89" />
<line stroke="#567DB6" stroke-width="1" x1="3162.5" x2="3151.578125" y1="43.5" y2="89" />
<line stroke="#567DB6" stroke-width="1" x1="3162.5" x2="3055.578125" y1="43.5" y2="89" />
<line stroke="#567DB6" stroke-width="1" x1="3162.5" x2="2959.578125" y1="43.5" y2="89" />
<line stroke="#567DB6" stroke-width="1" x1="3162.5" x2="2863.578125" y1="43.5" y2="89" />
<line stroke="#567DB6" stroke-width="1" x1="3162.5" x2="2767.578125" y1="43.5" y2="89" />
<line stroke="#567DB6" stroke-width="1" x1="3162.5" x2="2671.578125" y1="43.5" y2="89" />
<line stroke="#567DB6" stroke-width="1" x1="3162.5" x2="2575.578125" y1="43.5" y2="89" />
<line stroke="#567DB6" stroke-width="1" x1="3162.5" x2="2479.578125" y1="43.5" y2="89" />
<line stroke="#567DB6" stroke-width="1" x1="3162.5" x2="2383.578125" y1="43.5" y2="89" />
<line stroke="#567DB6" stroke-width="1" x1="3162.5" x2="2287.578125" y1="43.5" y2="89" />
<line stroke="#567DB6" stroke-width="1" x1="3162.5" x2="2191.578125" y1="43.5" y2="89" />
<line stroke="#567DB6" stroke-width="1" x1="3162.5" x2="2095.578125" y1="43.5" y2="89" />
<line stroke="#567DB6" stroke-width="1" x1="3162.5" x2="1999.578125" y1="43.5" y2="89" />
<line stroke="#567DB6" stroke-width="1" x1="3162.5" x2="1903.578125" y1="43.5" y2="89" />
<line stroke="#567DB6" stroke-width="1" x1="3162.5" x2="1807.578125" y1="43.5" y2="89" />
<line stroke="#567DB6" stroke-width="1" x1="3162.5" x2="1711.578125" y1="43.5" y2="89" />
<line stroke="#567DB6" stroke-width="1" x1="3162.5" x2="1615.578125" y1="43.5" y2="89" />
<line stroke="#567DB6" stroke-width="1" x1="3162.5" x2="1519.578125" y1="43.5" y2="89" />
<line stroke="#567DB6" stroke-width="1" x1="3162.5" x2="1423.578125" y1="43.5" y2="89" />
<line stroke="#567DB6" stroke-width="1" x1="3162.5" x2="1327.578125" y1="43.5" y2="89" />
<line stroke="#567DB6" stroke-width="1" x1="3162.5" x2="1231.578125" y1="43.5" y2="89" />
<line stroke="#567DB6" stroke-width="1" x1="3162.5" x2="1135.578125" y1="43.5" y2="89" />
<line stroke="#567DB6" stroke-width="1" x1="3162.5" x2="1039.578125" y1="43.5" y2="89" />
<line stroke="#567DB6" stroke-width="1" x1="3162.5" x2="943.578125" y1="43.5" y2="89" />
<line stroke="#567DB6" stroke-width="1" x1="3162.5" x2="847.578125" y1="43.5" y2="89" />
<line stroke="#567DB6" stroke-width="1" x1="3162.5" x2="751.578125" y1="43.5" y2="89" />
<line stroke="#567DB6" stroke-width="1" x1="3162.5" x2="655.578125" y1="43.5" y2="89" />
<line stroke="#567DB6" stroke-width="1" x1="3162.5" x2="559.578125" y1="43.5" y2="89" />
<line stroke="#567DB6" stroke-width="1" x1="3162.5" x2="463.578125" y1="43.5" y2="89" />
<line stroke="#567DB6" stroke-width="1" x1="3162.5" x2="367.578125" y1="43.5" y2="89" />
<line stroke="#567DB6" stroke-width="1" x1="3162.5" x2="271.578125" y1="43.5" y2="89" />
<line stroke="#567DB6" stroke-width="1" x1="3162.5" x2="175.578125" y1="43.5" y2="89" />
<text class="title-left" x="90.5" y="9.5">upper</text>
<text class="title-right" x="6234.5" y="9.5">lower</text>
<rect fill="#DEE6F1" height="24" width="19.875" x="3154.625" y="18.5" />
<rect fill="#EEDDDB" height="24" width="4.125" x="3150.5" y="18.5" />
<rect fill="none" height="24" stroke="#405C86" stroke-width="3" width="24" x="3150.5" y="18.5" />
<text class="register-name" x="80.5" y="30.5">[mem]</text>
<text class="intrinsic-name" x="80.5" y="42.5">*base</text>
<text class="register-number" x="10" y="30.5">(1)</text>
<rect fill="#DEE6F1" height="24" width="21.84375" x="6212.65625" y="90.5" />
<rect fill="#EEDDDB" height="24" width="74.15625" x="6138.5" y="90.5" />
<rect fill="none" height="24" stroke="#405C86" stroke-width="3" width="96" x="6138.5" y="90.5" />
<rect fill="#DEE6F1" height="24" width="21.84375" x="6116.65625" y="90.5" />
<rect fill="#EEDDDB" height="24" width="74.15625" x="6042.5" y="90.5" />
<rect fill="none" height="24" stroke="#405C86" stroke-width="3" width="96" x="6042.5" y="90.5" />
<rect fill="#DEE6F1" height="24" width="21.84375" x="6020.65625" y="90.5" />
<rect fill="#EEDDDB" height="24" width="74.15625" x="5946.5" y="90.5" />
<rect fill="none" height="24" stroke="#405C86" stroke-width="3" width="96" x="5946.5" y="90.5" />
<rect fill="#DEE6F1" height="24" width="21.84375" x="5924.65625" y="90.5" />
<rect fill="#EEDDDB" height="24" width="74.15625" x="5850.5" y="90.5" />
<rect fill="none" height="24" stroke="#405C86" stroke-width="3" width="96" x="5850.5" y="90.5" />
<rect fill="#DEE6F1" height="24" width="21.84375" x="5828.65625" y="90.5" />
<rect fill="#EEDDDB" height="24" width="74.15625" x="5754.5" y="90.5" />
<rect fill="none" height="24" stroke="#405C86" stroke-width="3" width="96" x="5754.5" y="90.5" />
<rect fill="#DEE6F1" height="24" width="21.84375" x="5732.65625" y="90.5" />
<rect fill="#EEDDDB" height="24" width="74.15625" x="5658.5" y="90.5" />
<rect fill="none" height="24" stroke="#405C86" stroke-width="3" width="96" x="5658.5" y="90.5" />
<rect fill="#DEE6F1" height="24" width="21.84375" x="5636.65625" y="90.5" />
<rect fill="#EEDDDB" height="24" width="74.15625" x="5562.5" y="90.5" />
<rect fill="none" height="24" stroke="#405C86" stroke-width="3" width="96" x="5562.5" y="90.5" />
<rect fill="#DEE6F1" height="24" width="21.84375" x="5540.65625" y="90.5" />
<rect fill="#EEDDDB" height="24" width="74.15625" x="5466.5" y="90.5" />
<rect fill="none" height="24" stroke="#405C86" stroke-width="3" width="96" x="5466.5" y="90.5" />
<rect fill="#DEE6F1" height="24" width="21.84375" x="5444.65625" y="90.5" />
<rect fill="#EEDDDB" height="24" width="74.15625" x="5370.5" y="90.5" />
<rect fill="none" height="24" stroke="#405C86" stroke-width="3" width="96" x="5370.5" y="90.5" />
<rect fill="#DEE6F1" height="24" width="21.84375" x="5348.65625" y="90.5" />
<rect fill="#EEDDDB" height="24" width="74.15625" x="5274.5" y="90.5" />
<rect fill="none" height="24" stroke="#405C86" stroke-width="3" width="96" x="5274.5" y="90.5" />
<rect fill="#DEE6F1" height="24" width="21.84375" x="5252.65625" y="90.5" />
<rect fill="#EEDDDB" height="24" width="74.15625" x="5178.5" y="90.5" />
<rect fill="none" height="24" stroke="#405C86" stroke-width="3" width="96" x="5178.5" y="90.5" />
<rect fill="#DEE6F1" height="24" width="21.84375" x="5156.65625" y="90.5" />
<rect fill="#EEDDDB" height="24" width="74.15625" x="5082.5" y="90.5" />
<rect fill="none" height="24" stroke="#405C86" stroke-width="3" width="96" x="5082.5" y="90.5" />
<rect fill="#DEE6F1" height="24" width="21.84375" x="5060.65625" y="90.5" />
<rect fill="#EEDDDB" height="24" width="74.15625" x="4986.5" y="90.5" />
<rect fill="none" height="24" stroke="#405C86" stroke-width="3" width="96" x="4986.5" y="90.5" />
<rect fill="#DEE6F1" height="24" width="21.84375" x="4964.65625" y="90.5" />
<rect fill="#EEDDDB" height="24" width="74.15625" x="4890.5" y="90.5" />
<rect fill="none" height="24" stroke="#405C86" stroke-width="3" width="96" x="4890.5" y="90.5" />
<rect fill="#DEE6F1" height="24" width="21.84375" x="4868.65625" y="90.5" />
<rect fill="#EEDDDB" height="24" width="74.15625" x="4794.5" y="90.5" />
<rect fill="none" height="24" stroke="#405C86" stroke-width="3" width="96" x="4794.5" y="90.5" />
<rect fill="#DEE6F1" height="24" width="21.84375" x="4772.65625" y="90.5" />
<rect fill="#EEDDDB" height="24" width="74.15625" x="4698.5" y="90.5" />
<rect fill="none" height="24" stroke="#405C86" stroke-width="3" width="96" x="4698.5" y="90.5" />
<rect fill="#DEE6F1" height="24" width="21.84375" x="4676.65625" y="90.5" />
<rect fill="#EEDDDB" height="24" width="74.15625" x="4602.5" y="90.5" />
<rect fill="none" height="24" stroke="#405C86" stroke-width="3" width="96" x="4602.5" y="90.5" />
<rect fill="#DEE6F1" height="24" width="21.84375" x="4580.65625" y="90.5" />
<rect fill="#EEDDDB" height="24" width="74.15625" x="4506.5" y="90.5" />
<rect fill="none" height="24" stroke="#405C86" stroke-width="3" width="96" x="4506.5" y="90.5" />
<rect fill="#DEE6F1" height="24" width="21.84375" x="4484.65625" y="90.5" />
<rect fill="#EEDDDB" height="24" width="74.15625" x="4410.5" y="90.5" />
<rect fill="none" height="24" stroke="#405C86" stroke-width="3" width="96" x="4410.5" y="90.5" />
<rect fill="#DEE6F1" height="24" width="21.84375" x="4388.65625" y="90.5" />
<rect fill="#EEDDDB" height="24" width="74.15625" x="4314.5" y="90.5" />
<rect fill="none" height="24" stroke="#405C86" stroke-width="3" width="96" x="4314.5" y="90.5" />
<rect fill="#DEE6F1" height="24" width="21.84375" x="4292.65625" y="90.5" />
<rect fill="#EEDDDB" height="24" width="74.15625" x="4218.5" y="90.5" />
<rect fill="none" height="24" stroke="#405C86" stroke-width="3" width="96" x="4218.5" y="90.5" />
<rect fill="#DEE6F1" height="24" width="21.84375" x="4196.65625" y="90.5" />
<rect fill="#EEDDDB" height="24" width="74.15625" x="4122.5" y="90.5" />
<rect fill="none" height="24" stroke="#405C86" stroke-width="3" width="96" x="4122.5" y="90.5" />
<rect fill="#DEE6F1" height="24" width="21.84375" x="4100.65625" y="90.5" />
<rect fill="#EEDDDB" height="24" width="74.15625" x="4026.5" y="90.5" />
<rect fill="none" height="24" stroke="#405C86" stroke-width="3" width="96" x="4026.5" y="90.5" />
<rect fill="#DEE6F1" height="24" width="21.84375" x="4004.65625" y="90.5" />
<rect fill="#EEDDDB" height="24" width="74.15625" x="3930.5" y="90.5" />
<rect fill="none" height="24" stroke="#405C86" stroke-width="3" width="96" x="3930.5" y="90.5" />
<rect fill="#DEE6F1" height="24" width="21.84375" x="3908.65625" y="90.5" />
<rect fill="#EEDDDB" height="24" width="74.15625" x="3834.5" y="90.5" />
<rect fill="none" height="24" stroke="#405C86" stroke-width="3" width="96" x="3834.5" y="90.5" />
<rect fill="#DEE6F1" height="24" width="21.84375" x="3812.65625" y="90.5" />
<rect fill="#EEDDDB" height="24" width="74.15625" x="3738.5" y="90.5" />
<rect fill="none" height="24" stroke="#405C86" stroke-width="3" width="96" x="3738.5" y="90.5" />
<rect fill="#DEE6F1" height="24" width="21.84375" x="3716.65625" y="90.5" />
<rect fill="#EEDDDB" height="24" width="74.15625" x="3642.5" y="90.5" />
<rect fill="none" height="24" stroke="#405C86" stroke-width="3" width="96" x="3642.5" y="90.5" />
<rect fill="#DEE6F1" height="24" width="21.84375" x="3620.65625" y="90.5" />
<rect fill="#EEDDDB" height="24" width="74.15625" x="3546.5" y="90.5" />
<rect fill="none" height="24" stroke="#405C86" stroke-width="3" width="96" x="3546.5" y="90.5" />
<rect fill="#DEE6F1" height="24" width="21.84375" x="3524.65625" y="90.5" />
<rect fill="#EEDDDB" height="24" width="74.15625" x="3450.5" y="90.5" />
<rect fill="none" height="24" stroke="#405C86" stroke-width="3" width="96" x="3450.5" y="90.5" />
<rect fill="#DEE6F1" height="24" width="21.84375" x="3428.65625" y="90.5" />
<rect fill="#EEDDDB" height="24" width="74.15625" x="3354.5" y="90.5" />
<rect fill="none" height="24" stroke="#405C86" stroke-width="3" width="96" x="3354.5" y="90.5" />
<rect fill="#DEE6F1" height="24" width="21.84375" x="3332.65625" y="90.5" />
<rect fill="#EEDDDB" height="24" width="74.15625" x="3258.5" y="90.5" />
<rect fill="none" height="24" stroke="#405C86" stroke-width="3" width="96" x="3258.5" y="90.5" />
<rect fill="#DEE6F1" height="24" width="21.84375" x="3236.65625" y="90.5" />
<rect fill="#EEDDDB" height="24" width="74.15625" x="3162.5" y="90.5" />
<rect fill="none" height="24" stroke="#405C86" stroke-width="3" width="96" x="3162.5" y="90.5" />
<rect fill="#DEE6F1" height="24" width="21.84375" x="3140.65625" y="90.5" />
<rect fill="#EEDDDB" height="24" width="74.15625" x="3066.5" y="90.5" />
<rect fill="none" height="24" stroke="#405C86" stroke-width="3" width="96" x="3066.5" y="90.5" />
<rect fill="#DEE6F1" height="24" width="21.84375" x="3044.65625" y="90.5" />
<rect fill="#EEDDDB" height="24" width="74.15625" x="2970.5" y="90.5" />
<rect fill="none" height="24" stroke="#405C86" stroke-width="3" width="96" x="2970.5" y="90.5" />
<rect fill="#DEE6F1" height="24" width="21.84375" x="2948.65625" y="90.5" />
<rect fill="#EEDDDB" height="24" width="74.15625" x="2874.5" y="90.5" />
<rect fill="none" height="24" stroke="#405C86" stroke-width="3" width="96" x="2874.5" y="90.5" />
<rect fill="#DEE6F1" height="24" width="21.84375" x="2852.65625" y="90.5" />
<rect fill="#EEDDDB" height="24" width="74.15625" x="2778.5" y="90.5" />
<rect fill="none" height="24" stroke="#405C86" stroke-width="3" width="96" x="2778.5" y="90.5" />
<rect fill="#DEE6F1" height="24" width="21.84375" x="2756.65625" y="90.5" />
<rect fill="#EEDDDB" height="24" width="74.15625" x="2682.5" y="90.5" />
<rect fill="none" height="24" stroke="#405C86" stroke-width="3" width="96" x="2682.5" y="90.5" />
<rect fill="#DEE6F1" height="24" width="21.84375" x="2660.65625" y="90.5" />
<rect fill="#EEDDDB" height="24" width="74.15625" x="2586.5" y="90.5" />
<rect fill="none" height="24" stroke="#405C86" stroke-width="3" width="96" x="2586.5" y="90.5" />
<rect fill="#DEE6F1" height="24" width="21.84375" x="2564.65625" y="90.5" />
<rect fill="#EEDDDB" height="24" width="74.15625" x="2490.5" y="90.5" />
<rect fill="none" height="24" stroke="#405C86" stroke-width="3" width="96" x="2490.5" y="90.5" />
<rect fill="#DEE6F1" height="24" width="21.84375" x="2468.65625" y="90.5" />
<rect fill="#EEDDDB" height="24" width="74.15625" x="2394.5" y="90.5" />
<rect fill="none" height="24" stroke="#405C86" stroke-width="3" width="96" x="2394.5" y="90.5" />
<rect fill="#DEE6F1" height="24" width="21.84375" x="2372.65625" y="90.5" />
<rect fill="#EEDDDB" height="24" width="74.15625" x="2298.5" y="90.5" />
<rect fill="none" height="24" stroke="#405C86" stroke-width="3" width="96" x="2298.5" y="90.5" />
<rect fill="#DEE6F1" height="24" width="21.84375" x="2276.65625" y="90.5" />
<rect fill="#EEDDDB" height="24" width="74.15625" x="2202.5" y="90.5" />
<rect fill="none" height="24" stroke="#405C86" stroke-width="3" width="96" x="2202.5" y="90.5" />
<rect fill="#DEE6F1" height="24" width="21.84375" x="2180.65625" y="90.5" />
<rect fill="#EEDDDB" height="24" width="74.15625" x="2106.5" y="90.5" />
<rect fill="none" height="24" stroke="#405C86" stroke-width="3" width="96" x="2106.5" y="90.5" />
<rect fill="#DEE6F1" height="24" width="21.84375" x="2084.65625" y="90.5" />
<rect fill="#EEDDDB" height="24" width="74.15625" x="2010.5" y="90.5" />
<rect fill="none" height="24" stroke="#405C86" stroke-width="3" width="96" x="2010.5" y="90.5" />
<rect fill="#DEE6F1" height="24" width="21.84375" x="1988.65625" y="90.5" />
<rect fill="#EEDDDB" height="24" width="74.15625" x="1914.5" y="90.5" />
<rect fill="none" height="24" stroke="#405C86" stroke-width="3" width="96" x="1914.5" y="90.5" />
<rect fill="#DEE6F1" height="24" width="21.84375" x="1892.65625" y="90.5" />
<rect fill="#EEDDDB" height="24" width="74.15625" x="1818.5" y="90.5" />
<rect fill="none" height="24" stroke="#405C86" stroke-width="3" width="96" x="1818.5" y="90.5" />
<rect fill="#DEE6F1" height="24" width="21.84375" x="1796.65625" y="90.5" />
<rect fill="#EEDDDB" height="24" width="74.15625" x="1722.5" y="90.5" />
<rect fill="none" height="24" stroke="#405C86" stroke-width="3" width="96" x="1722.5" y="90.5" />
<rect fill="#DEE6F1" height="24" width="21.84375" x="1700.65625" y="90.5" />
<rect fill="#EEDDDB" height="24" width="74.15625" x="1626.5" y="90.5" />
<rect fill="none" height="24" stroke="#405C86" stroke-width="3" width="96" x="1626.5" y="90.5" />
<rect fill="#DEE6F1" height="24" width="21.84375" x="1604.65625" y="90.5" />
<rect fill="#EEDDDB" height="24" width="74.15625" x="1530.5" y="90.5" />
<rect fill="none" height="24" stroke="#405C86" stroke-width="3" width="96" x="1530.5" y="90.5" />
<rect fill="#DEE6F1" height="24" width="21.84375" x="1508.65625" y="90.5" />
<rect fill="#EEDDDB" height="24" width="74.15625" x="1434.5" y="90.5" />
<rect fill="none" height="24" stroke="#405C86" stroke-width="3" width="96" x="1434.5" y="90.5" />
<rect fill="#DEE6F1" height="24" width="21.84375" x="1412.65625" y="90.5" />
<rect fill="#EEDDDB" height="24" width="74.15625" x="1338.5" y="90.5" />
<rect fill="none" height="24" stroke="#405C86" stroke-width="3" width="96" x="1338.5" y="90.5" />
<rect fill="#DEE6F1" height="24" width="21.84375" x="1316.65625" y="90.5" />
<rect fill="#EEDDDB" height="24" width="74.15625" x="1242.5" y="90.5" />
<rect fill="none" height="24" stroke="#405C86" stroke-width="3" width="96" x="1242.5" y="90.5" />
<rect fill="#DEE6F1" height="24" width="21.84375" x="1220.65625" y="90.5" />
<rect fill="#EEDDDB" height="24" width="74.15625" x="1146.5" y="90.5" />
<rect fill="none" height="24" stroke="#405C86" stroke-width="3" width="96" x="1146.5" y="90.5" />
<rect fill="#DEE6F1" height="24" width="21.84375" x="1124.65625" y="90.5" />
<rect fill="#EEDDDB" height="24" width="74.15625" x="1050.5" y="90.5" />
<rect fill="none" height="24" stroke="#405C86" stroke-width="3" width="96" x="1050.5" y="90.5" />
<rect fill="#DEE6F1" height="24" width="21.84375" x="1028.65625" y="90.5" />
<rect fill="#EEDDDB" height="24" width="74.15625" x="954.5" y="90.5" />
<rect fill="none" height="24" stroke="#405C86" stroke-width="3" width="96" x="954.5" y="90.5" />
<rect fill="#DEE6F1" height="24" width="21.84375" x="932.65625" y="90.5" />
<rect fill="#EEDDDB" height="24" width="74.15625" x="858.5" y="90.5" />
<rect fill="none" height="24" stroke="#405C86" stroke-width="3" width="96" x="858.5" y="90.5" />
<rect fill="#DEE6F1" height="24" width="21.84375" x="836.65625" y="90.5" />
<rect fill="#EEDDDB" height="24" width="74.15625" x="762.5" y="90.5" />
<rect fill="none" height="24" stroke="#405C86" stroke-width="3" width="96" x="762.5" y="90.5" />
<rect fill="#DEE6F1" height="24" width="21.84375" x="740.65625" y="90.5" />
<rect fill="#EEDDDB" height="24" width="74.15625" x="666.5" y="90.5" />
<rect fill="none" height="24" stroke="#405C86" stroke-width="3" width="96" x="666.5" y="90.5" />
<rect fill="#DEE6F1" height="24" width="21.84375" x="644.65625" y="90.5" />
<rect fill="#EEDDDB" height="24" width="74.15625" x="570.5" y="90.5" />
<rect fill="none" height="24" stroke="#405C86" stroke-width="3" width="96" x="570.5" y="90.5" />
<rect fill="#DEE6F1" height="24" width="21.84375" x="548.65625" y="90.5" />
<rect fill="#EEDDDB" height="24" width="74.15625" x="474.5" y="90.5" />
<rect fill="none" height="24" stroke="#405C86" stroke-width="3" width="96" x="474.5" y="90.5" />
<rect fill="#DEE6F1" height="24" width="21.84375" x="452.65625" y="90.5" />
<rect fill="#EEDDDB" height="24" width="74.15625" x="378.5" y="90.5" />
<rect fill="none" height="24" stroke="#405C86" stroke-width="3" width="96" x="378.5" y="90.5" />
<rect fill="#DEE6F1" height="24" width="21.84375" x="356.65625" y="90.5" />
<rect fill="#EEDDDB" height="24" width="74.15625" x="282.5" y="90.5" />
<rect fill="none" height="24" stroke="#405C86" stroke-width="3" width="96" x="282.5" y="90.5" />
<rect fill="#DEE6F1" height="24" width="21.84375" x="260.65625" y="90.5" />
<rect fill="#EEDDDB" height="24" width="74.15625" x="186.5" y="90.5" />
<rect fill="none" height="24" stroke="#405C86" stroke-width="3" width="96" x="186.5" y="90.5" />
<rect fill="#DEE6F1" height="24" width="21.84375" x="164.65625" y="90.5" />
<rect fill="#EEDDDB" height="24" width="74.15625" x="90.5" y="90.5" />
<rect fill="none" height="24" stroke="#405C86" stroke-width="3" width="96" x="90.5" y="90.5" />
<text class="register-name" x="80.5" y="102.5">Zt</text>
<text class="intrinsic-name" x="80.5" y="114.5">returns</text>
<text class="register-number" x="10" y="102.5">(2)</text>
<line marker-end="url(#arrowhead)" stroke="none" x1="3162.5" x2="6223.578125" y1="43.5" y2="89" />
<line marker-end="url(#arrowhead)" stroke="none" x1="3162.5" x2="6127.578125" y1="43.5" y2="89" />
<line marker-end="url(#arrowhead)" stroke="none" x1="3162.5" x2="6031.578125" y1="43.5" y2="89" />
<line marker-end="url(#arrowhead)" stroke="none" x1="3162.5" x2="5935.578125" y1="43.5" y2="89" />
<line marker-end="url(#arrowhead)" stroke="none" x1="3162.5" x2="5839.578125" y1="43.5" y2="89" />
<line marker-end="url(#arrowhead)" stroke="none" x1="3162.5" x2="5743.578125" y1="43.5" y2="89" />
<line marker-end="url(#arrowhead)" stroke="none" x1="3162.5" x2="5647.578125" y1="43.5" y2="89" />
<line marker-end="url(#arrowhead)" stroke="none" x1="3162.5" x2="5551.578125" y1="43.5" y2="89" />
<line marker-end="url(#arrowhead)" stroke="none" x1="3162.5" x2="5455.578125" y1="43.5" y2="89" />
<line marker-end="url(#arrowhead)" stroke="none" x1="3162.5" x2="5359.578125" y1="43.5" y2="89" />
<line marker-end="url(#arrowhead)" stroke="none" x1="3162.5" x2="5263.578125" y1="43.5" y2="89" />
<line marker-end="url(#arrowhead)" stroke="none" x1="3162.5" x2="5167.578125" y1="43.5" y2="89" />
<line marker-end="url(#arrowhead)" stroke="none" x1="3162.5" x2="5071.578125" y1="43.5" y2="89" />
<line marker-end="url(#arrowhead)" stroke="none" x1="3162.5" x2="4975.578125" y1="43.5" y2="89" />
<line marker-end="url(#arrowhead)" stroke="none" x1="3162.5" x2="4879.578125" y1="43.5" y2="89" />
<line marker-end="url(#arrowhead)" stroke="none" x1="3162.5" x2="4783.578125" y1="43.5" y2="89" />
<line marker-end="url(#arrowhead)" stroke="none" x1="3162.5" x2="4687.578125" y1="43.5" y2="89" />
<line marker-end="url(#arrowhead)" stroke="none" x1="3162.5" x2="4591.578125" y1="43.5" y2="89" />
<line marker-end="url(#arrowhead)" stroke="none" x1="3162.5" x2="4495.578125" y1="43.5" y2="89" />
<line marker-end="url(#arrowhead)" stroke="none" x1="3162.5" x2="4399.578125" y1="43.5" y2="89" />
<line marker-end="url(#arrowhead)" stroke="none" x1="3162.5" x2="4303.578125" y1="43.5" y2="89" />
<line marker-end="url(#arrowhead)" stroke="none" x1="3162.5" x2="4207.578125" y1="43.5" y2="89" />
<line marker-end="url(#arrowhead)" stroke="none" x1="3162.5" x2="4111.578125" y1="43.5" y2="89" />
<line marker-end="url(#arrowhead)" stroke="none" x1="3162.5" x2="4015.578125" y1="43.5" y2="89" />
<line marker-end="url(#arrowhead)" stroke="none" x1="3162.5" x2="3919.578125" y1="43.5" y2="89" />
<line marker-end="url(#arrowhead)" stroke="none" x1="3162.5" x2="3823.578125" y1="43.5" y2="89" />
<line marker-end="url(#arrowhead)" stroke="none" x1="3162.5" x2="3727.578125" y1="43.5" y2="89" />
<line marker-end="url(#arrowhead)" stroke="none" x1="3162.5" x2="3631.578125" y1="43.5" y2="89" />
<line marker-end="url(#arrowhead)" stroke="none" x1="3162.5" x2="3535.578125" y1="43.5" y2="89" />
<line marker-end="url(#arrowhead)" stroke="none" x1="3162.5" x2="3439.578125" y1="43.5" y2="89" />
<line marker-end="url(#arrowhead)" stroke="none" x1="3162.5" x2="3343.578125" y1="43.5" y2="89" />
<line marker-end="url(#arrowhead)" stroke="none" x1="3162.5" x2="3247.578125" y1="43.5" y2="89" />
<line marker-end="url(#arrowhead)" stroke="none" x1="3162.5" x2="3151.578125" y1="43.5" y2="89" />
<line marker-end="url(#arrowhead)" stroke="none" x1="3162.5" x2="3055.578125" y1="43.5" y2="89" />
<line marker-end="url(#arrowhead)" stroke="none" x1="3162.5" x2="2959.578125" y1="43.5" y2="89" />
<line marker-end="url(#arrowhead)" stroke="none" x1="3162.5" x2="2863.578125" y1="43.5" y2="89" />
<line marker-end="url(#arrowhead)" stroke="none" x1="3162.5" x2="2767.578125" y1="43.5" y2="89" />
<line marker-end="url(#arrowhead)" stroke="none" x1="3162.5" x2="2671.578125" y1="43.5" y2="89" />
<line marker-end="url(#arrowhead)" stroke="none" x1="3162.5" x2="2575.578125" y1="43.5" y2="89" />
<line marker-end="url(#arrowhead)" stroke="none" x1="3162.5" x2="2479.578125" y1="43.5" y2="89" />
<line marker-end="url(#arrowhead)" stroke="none" x1="3162.5" x2="2383.578125" y1="43.5" y2="89" />
<line marker-end="url(#arrowhead)" stroke="none" x1="3162.5" x2="2287.578125" y1="43.5" y2="89" />
<line marker-end="url(#arrowhead)" stroke="none" x1="3162.5" x2="2191.578125" y1="43.5" y2="89" />
<line marker-end="url(#arrowhead)" stroke="none" x1="3162.5" x2="2095.578125" y1="43.5" y2="89" />
<line marker-end="url(#arrowhead)" stroke="none" x1="3162.5" x2="1999.578125" y1="43.5" y2="89" />
<line marker-end="url(#arrowhead)" stroke="none" x1="3162.5" x2="1903.578125" y1="43.5" y2="89" />
<line marker-end="url(#arrowhead)" stroke="none" x1="3162.5" x2="1807.578125" y1="43.5" y2="89" />
<line marker-end="url(#arrowhead)" stroke="none" x1="3162.5" x2="1711.578125" y1="43.5" y2="89" />
<line marker-end="url(#arrowhead)" stroke="none" x1="3162.5" x2="1615.578125" y1="43.5" y2="89" />
<line marker-end="url(#arrowhead)" stroke="none" x1="3162.5" x2="1519.578125" y1="43.5" y2="89" />
<line marker-end="url(#arrowhead)" stroke="none" x1="3162.5" x2="1423.578125" y1="43.5" y2="89" />
<line marker-end="url(#arrowhead)" stroke="none" x1="3162.5" x2="1327.578125" y1="43.5" y2="89" />
<line marker-end="url(#arrowhead)" stroke="none" x1="3162.5" x2="1231.578125" y1="43.5" y2="89" />
<line marker-end="url(#arrowhead)" stroke="none" x1="3162.5" x2="1135.578125" y1="43.5" y2="89" />
<line marker-end="url(#arrowhead)" stroke="none" x1="3162.5" x2="1039.578125" y1="43.5" y2="89" />
<line marker-end="url(#arrowhead)" stroke="none" x1="3162.5" x2="943.578125" y1="43.5" y2="89" />
<line marker-end="url(#arrowhead)" stroke="none" x1="3162.5" x2="847.578125" y1="43.5" y2="89" />
<line marker-end="url(#arrowhead)" stroke="none" x1="3162.5" x2="751.578125" y1="43.5" y2="89" />
<line marker-end="url(#arrowhead)" stroke="none" x1="3162.5" x2="655.578125" y1="43.5" y2="89" />
<line marker-end="url(#arrowhead)" stroke="none" x1="3162.5" x2="559.578125" y1="43.5" y2="89" />
<line marker-end="url(#arrowhead)" stroke="none" x1="3162.5" x2="463.578125" y1="43.5" y2="89" />
<line marker-end="url(#arrowhead)" stroke="none" x1="3162.5" x2="367.578125" y1="43.5" y2="89" />
<line marker-end="url(#arrowhead)" stroke="none" x1="3162.5" x2="271.578125" y1="43.5" y2="89" />
<line marker-end="url(#arrowhead)" stroke="none" x1="3162.5" x2="175.578125" y1="43.5" y2="89" />
</svg>