<svg xmlns="http://www.w3.org/2000/svg" viewBox="0 0 6246 123">
<style>
.label { font: 14px Helvetica; dominant-baseline: middle; text-anchor: middle; }
.title-left { font: 12px Helvetica; dominant-baseline: middle; }
.title-right { font: 12px Helvetica; dominant-baseline: middle; text-anchor: end; }
.title-intrinsic { font: 12px Helvetica; dominant-baseline: middle; text-anchor: middle; fill: #6778ED; }
.title { font: 12px Helvetica; dominant-baseline: middle; text-anchor: middle; }
.title-unused { font: 12px Helvetica; dominant-baseline: middle; text-anchor: middle; fill: #AAA; }
.register-name { font: 14px Helvetica; dominant-baseline: middle; text-anchor: end; font-style: italic; }
.memory-name { font: 14px Helvetica; dominant-baseline: middle; text-anchor: end; }
.register-number { font: 14px Helvetica; dominant-baseline: middle; text-anchor: start; }
.intrinsic-name { font: 14px Helvetica; dominant-baseline: middle; text-anchor: end; fill: #6778ED; }
.intrinsic-color { fill: #6778ED; }
.small-label { font: 12px Helvetica; dominant-baseline: middle; text-anchor: middle; }
.label-10px { font: 10px Helvetica; dominant-baseline: middle; text-anchor: middle; }
.smaller-label { font: 9px Helvetica; dominant-baseline: middle; text-anchor: middle; }
.label-6px { font: 6px Helvetica; dominant-baseline: middle; text-anchor: middle; }
.label-7px { font: 7px Helvetica; dominant-baseline: middle; text-anchor: middle; }
.unused { fill: #AAA; }
.dim { fill: #888; }
</style>
<defs>
<marker id="arrowhead" markerWidth="10.75" markerHeight="24.5" refX="9.0" refY="6.125" orient="auto">
<polyline points="0.5 0.5, 8.75 6.125, 0.5 11.75" stroke="#567DB6" stroke-width="1" fill="none"/>
</marker>
</defs>
<line stroke="#567DB6" stroke-width="1" x1="3162.5" x2="6187.9765625" y1="43.5" y2="89" />
<line stroke="#567DB6" stroke-width="1" x1="3162.5" x2="5995.9765625" y1="43.5" y2="89" />
<line stroke="#567DB6" stroke-width="1" x1="3162.5" x2="5803.9765625" y1="43.5" y2="89" />
<line stroke="#567DB6" stroke-width="1" x1="3162.5" x2="5611.9765625" y1="43.5" y2="89" />
<line stroke="#567DB6" stroke-width="1" x1="3162.5" x2="5419.9765625" y1="43.5" y2="89" />
<line stroke="#567DB6" stroke-width="1" x1="3162.5" x2="5227.9765625" y1="43.5" y2="89" />
<line stroke="#567DB6" stroke-width="1" x1="3162.5" x2="5035.9765625" y1="43.5" y2="89" />
<line stroke="#567DB6" stroke-width="1" x1="3162.5" x2="4843.9765625" y1="43.5" y2="89" />
<line stroke="#567DB6" stroke-width="1" x1="3162.5" x2="4651.9765625" y1="43.5" y2="89" />
<line stroke="#567DB6" stroke-width="1" x1="3162.5" x2="4459.9765625" y1="43.5" y2="89" />
<line stroke="#567DB6" stroke-width="1" x1="3162.5" x2="4267.9765625" y1="43.5" y2="89" />
<line stroke="#567DB6" stroke-width="1" x1="3162.5" x2="4075.9765625" y1="43.5" y2="89" />
<line stroke="#567DB6" stroke-width="1" x1="3162.5" x2="3883.9765625" y1="43.5" y2="89" />
<line stroke="#567DB6" stroke-width="1" x1="3162.5" x2="3691.9765625" y1="43.5" y2="89" />
<line stroke="#567DB6" stroke-width="1" x1="3162.5" x2="3499.9765625" y1="43.5" y2="89" />
<line stroke="#567DB6" stroke-width="1" x1="3162.5" x2="3307.9765625" y1="43.5" y2="89" />
<line stroke="#567DB6" stroke-width="1" x1="3162.5" x2="3115.9765625" y1="43.5" y2="89" />
<line stroke="#567DB6" stroke-width="1" x1="3162.5" x2="2923.9765625" y1="43.5" y2="89" />
<line stroke="#567DB6" stroke-width="1" x1="3162.5" x2="2731.9765625" y1="43.5" y2="89" />
<line stroke="#567DB6" stroke-width="1" x1="3162.5" x2="2539.9765625" y1="43.5" y2="89" />
<line stroke="#567DB6" stroke-width="1" x1="3162.5" x2="2347.9765625" y1="43.5" y2="89" />
<line stroke="#567DB6" stroke-width="1" x1="3162.5" x2="2155.9765625" y1="43.5" y2="89" />
<line stroke="#567DB6" stroke-width="1" x1="3162.5" x2="1963.9765625" y1="43.5" y2="89" />
<line stroke="#567DB6" stroke-width="1" x1="3162.5" x2="1771.9765625" y1="43.5" y2="89" />
<line stroke="#567DB6" stroke-width="1" x1="3162.5" x2="1579.9765625" y1="43.5" y2="89" />
<line stroke="#567DB6" stroke-width="1" x1="3162.5" x2="1387.9765625" y1="43.5" y2="89" />
<line stroke="#567DB6" stroke-width="1" x1="3162.5" x2="1195.9765625" y1="43.5" y2="89" />
<line stroke="#567DB6" stroke-width="1" x1="3162.5" x2="1003.9765625" y1="43.5" y2="89" />
<line stroke="#567DB6" stroke-width="1" x1="3162.5" x2="811.9765625" y1="43.5" y2="89" />
<line stroke="#567DB6" stroke-width="1" x1="3162.5" x2="619.9765625" y1="43.5" y2="89" />
<line stroke="#567DB6" stroke-width="1" x1="3162.5" x2="427.9765625" y1="43.5" y2="89" />
<line stroke="#567DB6" stroke-width="1" x1="3162.5" x2="235.9765625" y1="43.5" y2="89" />
<text class="title-left" x="90.5" y="9.5">upper</text>
<text class="title-right" x="6234.5" y="9.5">lower</text>
<rect fill="#DEE6F1" height="24" width="91.59375" x="3118.90625" y="18.5" />
<rect fill="#EEDDDB" height="24" width="4.40625" x="3114.5" y="18.5" />
<rect fill="none" height="24" stroke="#405C86" stroke-width="3" width="96" x="3114.5" y="18.5" />
<text class="register-name" x="80.5" y="30.5">[mem]</text>
<text class="intrinsic-name" x="80.5" y="42.5">*base</text>
<text class="register-number" x="10" y="30.5">(1)</text>
<rect fill="#DEE6F1" height="24" width="93.046875" x="6141.453125" y="90.5" />
<rect fill="#EEDDDB" height="24" width="98.953125" x="6042.5" y="90.5" />
<rect fill="none" height="24" stroke="#405C86" stroke-width="3" width="192" x="6042.5" y="90.5" />
<rect fill="#DEE6F1" height="24" width="93.046875" x="5949.453125" y="90.5" />
<rect fill="#EEDDDB" height="24" width="98.953125" x="5850.5" y="90.5" />
<rect fill="none" height="24" stroke="#405C86" stroke-width="3" width="192" x="5850.5" y="90.5" />
<rect fill="#DEE6F1" height="24" width="93.046875" x="5757.453125" y="90.5" />
<rect fill="#EEDDDB" height="24" width="98.953125" x="5658.5" y="90.5" />
<rect fill="none" height="24" stroke="#405C86" stroke-width="3" width="192" x="5658.5" y="90.5" />
<rect fill="#DEE6F1" height="24" width="93.046875" x="5565.453125" y="90.5" />
<rect fill="#EEDDDB" height="24" width="98.953125" x="5466.5" y="90.5" />
<rect fill="none" height="24" stroke="#405C86" stroke-width="3" width="192" x="5466.5" y="90.5" />
<rect fill="#DEE6F1" height="24" width="93.046875" x="5373.453125" y="90.5" />
<rect fill="#EEDDDB" height="24" width="98.953125" x="5274.5" y="90.5" />
<rect fill="none" height="24" stroke="#405C86" stroke-width="3" width="192" x="5274.5" y="90.5" />
<rect fill="#DEE6F1" height="24" width="93.046875" x="5181.453125" y="90.5" />
<rect fill="#EEDDDB" height="24" width="98.953125" x="5082.5" y="90.5" />
<rect fill="none" height="24" stroke="#405C86" stroke-width="3" width="192" x="5082.5" y="90.5" />
<rect fill="#DEE6F1" height="24" width="93.046875" x="4989.453125" y="90.5" />
<rect fill="#EEDDDB" height="24" width="98.953125" x="4890.5" y="90.5" />
<rect fill="none" height="24" stroke="#405C86" stroke-width="3" width="192" x="4890.5" y="90.5" />
<rect fill="#DEE6F1" height="24" width="93.046875" x="4797.453125" y="90.5" />
<rect fill="#EEDDDB" height="24" width="98.953125" x="4698.5" y="90.5" />
<rect fill="none" height="24" stroke="#405C86" stroke-width="3" width="192" x="4698.5" y="90.5" />
<rect fill="#DEE6F1" height="24" width="93.046875" x="4605.453125" y="90.5" />
<rect fill="#EEDDDB" height="24" width="98.953125" x="4506.5" y="90.5" />
<rect fill="none" height="24" stroke="#405C86" stroke-width="3" width="192" x="4506.5" y="90.5" />
<rect fill="#DEE6F1" height="24" width="93.046875" x="4413.453125" y="90.5" />
<rect fill="#EEDDDB" height="24" width="98.953125" x="4314.5" y="90.5" />
<rect fill="none" height="24" stroke="#405C86" stroke-width="3" width="192" x="4314.5" y="90.5" />
<rect fill="#DEE6F1" height="24" width="93.046875" x="4221.453125" y="90.5" />
<rect fill="#EEDDDB" height="24" width="98.953125" x="4122.5" y="90.5" />
<rect fill="none" height="24" stroke="#405C86" stroke-width="3" width="192" x="4122.5" y="90.5" />
<rect fill="#DEE6F1" height="24" width="93.046875" x="4029.453125" y="90.5" />
<rect fill="#EEDDDB" height="24" width="98.953125" x="3930.5" y="90.5" />
<rect fill="none" height="24" stroke="#405C86" stroke-width="3" width="192" x="3930.5" y="90.5" />
<rect fill="#DEE6F1" height="24" width="93.046875" x="3837.453125" y="90.5" />
<rect fill="#EEDDDB" height="24" width="98.953125" x="3738.5" y="90.5" />
<rect fill="none" height="24" stroke="#405C86" stroke-width="3" width="192" x="3738.5" y="90.5" />
<rect fill="#DEE6F1" height="24" width="93.046875" x="3645.453125" y="90.5" />
<rect fill="#EEDDDB" height="24" width="98.953125" x="3546.5" y="90.5" />
<rect fill="none" height="24" stroke="#405C86" stroke-width="3" width="192" x="3546.5" y="90.5" />
<rect fill="#DEE6F1" height="24" width="93.046875" x="3453.453125" y="90.5" />
<rect fill="#EEDDDB" height="24" width="98.953125" x="3354.5" y="90.5" />
<rect fill="none" height="24" stroke="#405C86" stroke-width="3" width="192" x="3354.5" y="90.5" />
<rect fill="#DEE6F1" height="24" width="93.046875" x="3261.453125" y="90.5" />
<rect fill="#EEDDDB" height="24" width="98.953125" x="3162.5" y="90.5" />
<rect fill="none" height="24" stroke="#405C86" stroke-width="3" width="192" x="3162.5" y="90.5" />
<rect fill="#DEE6F1" height="24" width="93.046875" x="3069.453125" y="90.5" />
<rect fill="#EEDDDB" height="24" width="98.953125" x="2970.5" y="90.5" />
<rect fill="none" height="24" stroke="#405C86" stroke-width="3" width="192" x="2970.5" y="90.5" />
<rect fill="#DEE6F1" height="24" width="93.046875" x="2877.453125" y="90.5" />
<rect fill="#EEDDDB" height="24" width="98.953125" x="2778.5" y="90.5" />
<rect fill="none" height="24" stroke="#405C86" stroke-width="3" width="192" x="2778.5" y="90.5" />
<rect fill="#DEE6F1" height="24" width="93.046875" x="2685.453125" y="90.5" />
<rect fill="#EEDDDB" height="24" width="98.953125" x="2586.5" y="90.5" />
<rect fill="none" height="24" stroke="#405C86" stroke-width="3" width="192" x="2586.5" y="90.5" />
<rect fill="#DEE6F1" height="24" width="93.046875" x="2493.453125" y="90.5" />
<rect fill="#EEDDDB" height="24" width="98.953125" x="2394.5" y="90.5" />
<rect fill="none" height="24" stroke="#405C86" stroke-width="3" width="192" x="2394.5" y="90.5" />
<rect fill="#DEE6F1" height="24" width="93.046875" x="2301.453125" y="90.5" />
<rect fill="#EEDDDB" height="24" width="98.953125" x="2202.5" y="90.5" />
<rect fill="none" height="24" stroke="#405C86" stroke-width="3" width="192" x="2202.5" y="90.5" />
<rect fill="#DEE6F1" height="24" width="93.046875" x="2109.453125" y="90.5" />
<rect fill="#EEDDDB" height="24" width="98.953125" x="2010.5" y="90.5" />
<rect fill="none" height="24" stroke="#405C86" stroke-width="3" width="192" x="2010.5" y="90.5" />
<rect fill="#DEE6F1" height="24" width="93.046875" x="1917.453125" y="90.5" />
<rect fill="#EEDDDB" height="24" width="98.953125" x="1818.5" y="90.5" />
<rect fill="none" height="24" stroke="#405C86" stroke-width="3" width="192" x="1818.5" y="90.5" />
<rect fill="#DEE6F1" height="24" width="93.046875" x="1725.453125" y="90.5" />
<rect fill="#EEDDDB" height="24" width="98.953125" x="1626.5" y="90.5" />
<rect fill="none" height="24" stroke="#405C86" stroke-width="3" width="192" x="1626.5" y="90.5" />
<rect fill="#DEE6F1" height="24" width="93.046875" x="1533.453125" y="90.5" />
<rect fill="#EEDDDB" height="24" width="98.953125" x="1434.5" y="90.5" />
<rect fill="none" height="24" stroke="#405C86" stroke-width="3" width="192" x="1434.5" y="90.5" />
<rect fill="#DEE6F1" height="24" width="93.046875" x="1341.453125" y="90.5" />
<rect fill="#EEDDDB" height="24" width="98.953125" x="1242.5" y="90.5" />
<rect fill="none" height="24" stroke="#405C86" stroke-width="3" width="192" x="1242.5" y="90.5" />
<rect fill="#DEE6F1" height="24" width="93.046875" x="1149.453125" y="90.5" />
<rect fill="#EEDDDB" height="24" width="98.953125" x="1050.5" y="90.5" />
<rect fill="none" height="24" stroke="#405C86" stroke-width="3" width="192" x="1050.5" y="90.5" />
<rect fill="#DEE6F1" height="24" width="93.046875" x="957.453125" y="90.5" />
<rect fill="#EEDDDB" height="24" width="98.953125" x="858.5" y="90.5" />
<rect fill="none" height="24" stroke="#405C86" stroke-width="3" width="192" x="858.5" y="90.5" />
<rect fill="#DEE6F1" height="24" width="93.046875" x="765.453125" y="90.5" />
<rect fill="#EEDDDB" height="24" width="98.953125" x="666.5" y="90.5" />
<rect fill="none" height="24" stroke="#405C86" stroke-width="3" width="192" x="666.5" y="90.5" />
<rect fill="#DEE6F1" height="24" width="93.046875" x="573.453125" y="90.5" />
<rect fill="#EEDDDB" height="24" width="98.953125" x="474.5" y="90.5" />
<rect fill="none" height="24" stroke="#405C86" stroke-width="3" width="192" x="474.5" y="90.5" />
<rect fill="#DEE6F1" height="24" width="93.046875" x="381.453125" y="90.5" />
<rect fill="#EEDDDB" height="24" width="98.953125" x="282.5" y="90.5" />
<rect fill="none" height="24" stroke="#405C86" stroke-width="3" width="192" x="282.5" y="90.5" />
<rect fill="#DEE6F1" height="24" width="93.046875" x="189.453125" y="90.5" />
<rect fill="#EEDDDB" height="24" width="98.953125" x="90.5" y="90.5" />
<rect fill="none" height="24" stroke="#405C86" stroke-width="3" width="192" x="90.5" y="90.5" />
<text class="register-name" x="80.5" y="102.5">Zt</text>
<text class="intrinsic-name" x="80.5" y="114.5">returns</text>
<text class="register-number" x="10" y="102.5">(2)</text>
<line marker-end="url(#arrowhead)" stroke="none" x1="3162.5" x2="6187.9765625" y1="43.5" y2="89" />
<line marker-end="url(#arrowhead)" stroke="none" x1="3162.5" x2="5995.9765625" y1="43.5" y2="89" />
<line marker-end="url(#arrowhead)" stroke="none" x1="3162.5" x2="5803.9765625" y1="43.5" y2="89" />
<line marker-end="url(#arrowhead)" stroke="none" x1="3162.5" x2="5611.9765625" y1="43.5" y2="89" />
<line marker-end="url(#arrowhead)" stroke="none" x1="3162.5" x2="5419.9765625" y1="43.5" y2="89" />
<line marker-end="url(#arrowhead)" stroke="none" x1="3162.5" x2="5227.9765625" y1="43.5" y2="89" />
<line marker-end="url(#arrowhead)" stroke="none" x1="3162.5" x2="5035.9765625" y1="43.5" y2="89" />
<line marker-end="url(#arrowhead)" stroke="none" x1="3162.5" x2="4843.9765625" y1="43.5" y2="89" />
<line marker-end="url(#arrowhead)" stroke="none" x1="3162.5" x2="4651.9765625" y1="43.5" y2="89" />
<line marker-end="url(#arrowhead)" stroke="none" x1="3162.5" x2="4459.9765625" y1="43.5" y2="89" />
<line marker-end="url(#arrowhead)" stroke="none" x1="3162.5" x2="4267.9765625" y1="43.5" y2="89" />
<line marker-end="url(#arrowhead)" stroke="none" x1="3162.5" x2="4075.9765625" y1="43.5" y2="89" />
<line marker-end="url(#arrowhead)" stroke="none" x1="3162.5" x2="3883.9765625" y1="43.5" y2="89" />
<line marker-end="url(#arrowhead)" stroke="none" x1="3162.5" x2="3691.9765625" y1="43.5" y2="89" />
<line marker-end="url(#arrowhead)" stroke="none" x1="3162.5" x2="3499.9765625" y1="43.5" y2="89" />
<line marker-end="url(#arrowhead)" stroke="none" x1="3162.5" x2="3307.9765625" y1="43.5" y2="89" />
<line marker-end="url(#arrowhead)" stroke="none" x1="3162.5" x2="3115.9765625" y1="43.5" y2="89" />
<line marker-end="url(#arrowhead)" stroke="none" x1="3162.5" x2="2923.9765625" y1="43.5" y2="89" />
<line marker-end="url(#arrowhead)" stroke="none" x1="3162.5" x2="2731.9765625" y1="43.5" y2="89" />
<line marker-end="url(#arrowhead)" stroke="none" x1="3162.5" x2="2539.9765625" y1="43.5" y2="89" />
<line marker-end="url(#arrowhead)" stroke="none" x1="3162.5" x2="2347.9765625" y1="43.5" y2="89" />
<line marker-end="url(#arrowhead)" stroke="none" x1="3162.5" x2="2155.9765625" y1="43.5" y2="89" />
<line marker-end="url(#arrowhead)" stroke="none" x1="3162.5" x2="1963.9765625" y1="43.5" y2="89" />
<line marker-end="url(#arrowhead)" stroke="none" x1="3162.5" x2="1771.9765625" y1="43.5" y2="89" />
<line marker-end="url(#arrowhead)" stroke="none" x1="3162.5" x2="1579.9765625" y1="43.5" y2="89" />
<line marker-end="url(#arrowhead)" stroke="none" x1="3162.5" x2="1387.9765625" y1="43.5" y2="89" />
<line marker-end="url(#arrowhead)" stroke="none" x1="3162.5" x2="1195.9765625" y1="43.5" y2="89" />
<line marker-end="url(#arrowhead)" stroke="none" x1="3162.5" x2="1003.9765625" y1="43.5" y2="89" />
<line marker-end="url(#arrowhead)" stroke="none" x1="3162.5" x2="811.9765625" y1="43.5" y2="89" />
<line marker-end="url(#arrowhead)" stroke="none" x1="3162.5" x2="619.9765625" y1="43.5" y2="89" />
<line marker-end="url(#arrowhead)" stroke="none" x1="3162.5" x2="427.9765625" y1="43.5" y2="89" />
<line marker-end="url(#arrowhead)" stroke="none" x1="3162.5" x2="235.9765625" y1="43.5" y2="89" />
</svg>