<svg xmlns="http://www.w3.org/2000/svg" viewBox="0 0 870 171">
<style>
.label { font: 14px Helvetica; dominant-baseline: middle; text-anchor: middle; }
.title-left { font: 12px Helvetica; dominant-baseline: middle; }
.title-right { font: 12px Helvetica; dominant-baseline: middle; text-anchor: end; }
.title-intrinsic { font: 12px Helvetica; dominant-baseline: middle; text-anchor: middle; fill: #6778ED; }
.title { font: 12px Helvetica; dominant-baseline: middle; text-anchor: middle; }
.title-unused { font: 12px Helvetica; dominant-baseline: middle; text-anchor: middle; fill: #AAA; }
.register-name { font: 14px Helvetica; dominant-baseline: middle; text-anchor: end; font-style: italic; }
.memory-name { font: 14px Helvetica; dominant-baseline: middle; text-anchor: end; }
.register-number { font: 14px Helvetica; dominant-baseline: middle; text-anchor: start; }
.intrinsic-name { font: 14px Helvetica; dominant-baseline: middle; text-anchor: end; fill: #6778ED; }
.intrinsic-color { fill: #6778ED; }
.small-label { font: 12px Helvetica; dominant-baseline: middle; text-anchor: middle; }
.label-10px { font: 10px Helvetica; dominant-baseline: middle; text-anchor: middle; }
.smaller-label { font: 9px Helvetica; dominant-baseline: middle; text-anchor: middle; }
.label-6px { font: 6px Helvetica; dominant-baseline: middle; text-anchor: middle; }
.label-7px { font: 7px Helvetica; dominant-baseline: middle; text-anchor: middle; }
.unused { fill: #AAA; }
.dim { fill: #888; }
</style>
<defs>
<marker id="arrowhead" markerWidth="10.75" markerHeight="24.5" refX="9.0" refY="6.125" orient="auto">
<polyline points="0.5 0.5, 8.75 6.125, 0.5 11.75" stroke="#567DB6" stroke-width="1" fill="none"/>
</marker>
</defs>
<text class="title-left" x="90.5" y="9.5">upper</text>
<text class="title-right" x="858.5" y="9.5">lower</text>
<rect fill="none" height="24" stroke="#405C86" stroke-width="3" width="12" x="756.5" y="18.5" />
<text class="label" x="762.5" y="31.5">0</text>
<rect fill="none" height="24" stroke="#405C86" stroke-dasharray="3 1" stroke-dashoffset="1.5" stroke-width="1" width="12" x="744.5" y="18.5" />
<text class="label unused" x="750.5" y="31.5"></text>
<rect fill="none" height="24" stroke="#405C86" stroke-dasharray="3 1" stroke-dashoffset="1.5" stroke-width="1" width="12" x="732.5" y="18.5" />
<text class="label unused" x="738.5" y="31.5"></text>
<rect fill="none" height="24" stroke="#405C86" stroke-dasharray="3 1" stroke-dashoffset="1.5" stroke-width="1" width="12" x="720.5" y="18.5" />
<text class="label unused" x="726.5" y="31.5"></text>
<rect fill="none" height="24" stroke="#405C86" stroke-dasharray="3 1" stroke-dashoffset="1.5" stroke-width="1" width="12" x="708.5" y="18.5" />
<text class="label unused" x="714.5" y="31.5"></text>
<rect fill="none" height="24" stroke="#405C86" stroke-dasharray="3 1" stroke-dashoffset="1.5" stroke-width="1" width="12" x="696.5" y="18.5" />
<text class="label unused" x="702.5" y="31.5"></text>
<rect fill="none" height="24" stroke="#405C86" stroke-dasharray="3 1" stroke-dashoffset="1.5" stroke-width="1" width="12" x="684.5" y="18.5" />
<text class="label unused" x="690.5" y="31.5"></text>
<rect fill="none" height="24" stroke="#405C86" stroke-dasharray="3 1" stroke-dashoffset="1.5" stroke-width="1" width="12" x="672.5" y="18.5" />
<text class="label unused" x="678.5" y="31.5"></text>
<rect fill="#DEE6F1" height="24" width="12" x="564.5" y="18.5" />
<rect fill="none" height="24" stroke="#405C86" stroke-width="3" width="12" x="564.5" y="18.5" />
<text class="label" x="570.5" y="31.5">1</text>
<rect fill="none" height="24" stroke="#405C86" stroke-dasharray="3 1" stroke-dashoffset="1.5" stroke-width="1" width="12" x="552.5" y="18.5" />
<text class="label unused" x="558.5" y="31.5"></text>
<rect fill="none" height="24" stroke="#405C86" stroke-dasharray="3 1" stroke-dashoffset="1.5" stroke-width="1" width="12" x="540.5" y="18.5" />
<text class="label unused" x="546.5" y="31.5"></text>
<rect fill="none" height="24" stroke="#405C86" stroke-dasharray="3 1" stroke-dashoffset="1.5" stroke-width="1" width="12" x="528.5" y="18.5" />
<text class="label unused" x="534.5" y="31.5"></text>
<rect fill="none" height="24" stroke="#405C86" stroke-dasharray="3 1" stroke-dashoffset="1.5" stroke-width="1" width="12" x="516.5" y="18.5" />
<text class="label unused" x="522.5" y="31.5"></text>
<rect fill="none" height="24" stroke="#405C86" stroke-dasharray="3 1" stroke-dashoffset="1.5" stroke-width="1" width="12" x="504.5" y="18.5" />
<text class="label unused" x="510.5" y="31.5"></text>
<rect fill="none" height="24" stroke="#405C86" stroke-dasharray="3 1" stroke-dashoffset="1.5" stroke-width="1" width="12" x="492.5" y="18.5" />
<text class="label unused" x="498.5" y="31.5"></text>
<rect fill="none" height="24" stroke="#405C86" stroke-dasharray="3 1" stroke-dashoffset="1.5" stroke-width="1" width="12" x="480.5" y="18.5" />
<text class="label unused" x="486.5" y="31.5"></text>
<rect fill="#DEE6F1" height="24" width="12" x="372.5" y="18.5" />
<rect fill="none" height="24" stroke="#405C86" stroke-width="3" width="12" x="372.5" y="18.5" />
<text class="label" x="378.5" y="31.5">1</text>
<rect fill="none" height="24" stroke="#405C86" stroke-dasharray="3 1" stroke-dashoffset="1.5" stroke-width="1" width="12" x="360.5" y="18.5" />
<text class="label unused" x="366.5" y="31.5"></text>
<rect fill="none" height="24" stroke="#405C86" stroke-dasharray="3 1" stroke-dashoffset="1.5" stroke-width="1" width="12" x="348.5" y="18.5" />
<text class="label unused" x="354.5" y="31.5"></text>
<rect fill="none" height="24" stroke="#405C86" stroke-dasharray="3 1" stroke-dashoffset="1.5" stroke-width="1" width="12" x="336.5" y="18.5" />
<text class="label unused" x="342.5" y="31.5"></text>
<rect fill="none" height="24" stroke="#405C86" stroke-dasharray="3 1" stroke-dashoffset="1.5" stroke-width="1" width="12" x="324.5" y="18.5" />
<text class="label unused" x="330.5" y="31.5"></text>
<rect fill="none" height="24" stroke="#405C86" stroke-dasharray="3 1" stroke-dashoffset="1.5" stroke-width="1" width="12" x="312.5" y="18.5" />
<text class="label unused" x="318.5" y="31.5"></text>
<rect fill="none" height="24" stroke="#405C86" stroke-dasharray="3 1" stroke-dashoffset="1.5" stroke-width="1" width="12" x="300.5" y="18.5" />
<text class="label unused" x="306.5" y="31.5"></text>
<rect fill="none" height="24" stroke="#405C86" stroke-dasharray="3 1" stroke-dashoffset="1.5" stroke-width="1" width="12" x="288.5" y="18.5" />
<text class="label unused" x="294.5" y="31.5"></text>
<rect fill="none" height="24" stroke="#405C86" stroke-width="3" width="12" x="180.5" y="18.5" />
<text class="label" x="186.5" y="31.5">0</text>
<rect fill="none" height="24" stroke="#405C86" stroke-dasharray="3 1" stroke-dashoffset="1.5" stroke-width="1" width="12" x="168.5" y="18.5" />
<text class="label unused" x="174.5" y="31.5"></text>
<rect fill="none" height="24" stroke="#405C86" stroke-dasharray="3 1" stroke-dashoffset="1.5" stroke-width="1" width="12" x="156.5" y="18.5" />
<text class="label unused" x="162.5" y="31.5"></text>
<rect fill="none" height="24" stroke="#405C86" stroke-dasharray="3 1" stroke-dashoffset="1.5" stroke-width="1" width="12" x="144.5" y="18.5" />
<text class="label unused" x="150.5" y="31.5"></text>
<rect fill="none" height="24" stroke="#405C86" stroke-dasharray="3 1" stroke-dashoffset="1.5" stroke-width="1" width="12" x="132.5" y="18.5" />
<text class="label unused" x="138.5" y="31.5"></text>
<rect fill="none" height="24" stroke="#405C86" stroke-dasharray="3 1" stroke-dashoffset="1.5" stroke-width="1" width="12" x="120.5" y="18.5" />
<text class="label unused" x="126.5" y="31.5"></text>
<rect fill="none" height="24" stroke="#405C86" stroke-dasharray="3 1" stroke-dashoffset="1.5" stroke-width="1" width="12" x="108.5" y="18.5" />
<text class="label unused" x="114.5" y="31.5"></text>
<rect fill="none" height="24" stroke="#405C86" stroke-dasharray="3 1" stroke-dashoffset="1.5" stroke-width="1" width="12" x="96.5" y="18.5" />
<text class="label unused" x="102.5" y="31.5"></text>
<text class="register-name" x="80.5" y="30.5">Pg</text>
<text class="intrinsic-name" x="80.5" y="42.5">pg</text>
<text class="register-number" x="10" y="30.5">(1)</text>
<rect fill="none" height="24" stroke="#405C86" stroke-width="3" width="192" x="666.5" y="66.5" />
<text class="small-label intrinsic-color" x="762.5" y="79.5">base[0]</text>
<rect fill="#DEE6F1" height="24" width="192" x="474.5" y="66.5" />
<rect fill="none" height="24" stroke="#405C86" stroke-width="3" width="192" x="474.5" y="66.5" />
<text class="small-label intrinsic-color" x="570.5" y="79.5">base[1]</text>
<rect fill="#DEE6F1" height="24" width="192" x="282.5" y="66.5" />
<rect fill="none" height="24" stroke="#405C86" stroke-width="3" width="192" x="282.5" y="66.5" />
<text class="small-label intrinsic-color" x="378.5" y="79.5">base[2]</text>
<rect fill="none" height="24" stroke="#405C86" stroke-width="3" width="192" x="90.5" y="66.5" />
<text class="small-label intrinsic-color" x="186.5" y="79.5">base[3]</text>
<text class="register-name" x="80.5" y="78.5">[mem]</text>
<text class="intrinsic-name" x="80.5" y="90.5">*base</text>
<text class="register-number" x="10" y="78.5">(2)</text>
<rect fill="#EEDDDB" height="24" width="192" x="666.5" y="138.5" />
<rect fill="none" height="24" stroke="#405C86" stroke-width="3" width="192" x="666.5" y="138.5" />
<text class="label" x="762.5" y="151.5">0</text>
<rect fill="#DEE6F1" height="24" width="192" x="474.5" y="138.5" />
<rect fill="none" height="24" stroke="#405C86" stroke-width="3" width="192" x="474.5" y="138.5" />
<rect fill="#DEE6F1" height="24" width="192" x="282.5" y="138.5" />
<rect fill="none" height="24" stroke="#405C86" stroke-width="3" width="192" x="282.5" y="138.5" />
<rect fill="#EEDDDB" height="24" width="192" x="90.5" y="138.5" />
<rect fill="none" height="24" stroke="#405C86" stroke-width="3" width="192" x="90.5" y="138.5" />
<text class="label" x="186.5" y="151.5">0</text>
<text class="register-name" x="80.5" y="150.5">Zt</text>
<text class="intrinsic-name" x="80.5" y="162.5">returns</text>
<text class="register-number" x="10" y="150.5">(3)</text>
<line stroke="#567DB6" stroke-width="1" x1="762.5" x2="762.5" y1="43.5" y2="65.5" />
<line stroke="#567DB6" stroke-width="1" x1="570.5" x2="570.5" y1="43.5" y2="65.5" />
<line stroke="#567DB6" stroke-width="1" x1="570.5" x2="570.5" y1="91.5" y2="137" />
<line stroke="#567DB6" stroke-width="1" x1="378.5" x2="378.5" y1="43.5" y2="65.5" />
<line stroke="#567DB6" stroke-width="1" x1="378.5" x2="378.5" y1="91.5" y2="137" />
<line stroke="#567DB6" stroke-width="1" x1="186.5" x2="186.5" y1="43.5" y2="65.5" />
<line marker-end="url(#arrowhead)" stroke="none" x1="570.5" x2="570.5" y1="91.5" y2="137" />
<line marker-end="url(#arrowhead)" stroke="none" x1="378.5" x2="378.5" y1="91.5" y2="137" />
</svg>