<svg xmlns="http://www.w3.org/2000/svg" viewBox="0 0 870 219">
<style>
.label { font: 14px Helvetica; dominant-baseline: middle; text-anchor: middle; }
.title-left { font: 12px Helvetica; dominant-baseline: middle; }
.title-right { font: 12px Helvetica; dominant-baseline: middle; text-anchor: end; }
.title-intrinsic { font: 12px Helvetica; dominant-baseline: middle; text-anchor: middle; fill: #6778ED; }
.title { font: 12px Helvetica; dominant-baseline: middle; text-anchor: middle; }
.title-unused { font: 12px Helvetica; dominant-baseline: middle; text-anchor: middle; fill: #AAA; }
.register-name { font: 14px Helvetica; dominant-baseline: middle; text-anchor: end; font-style: italic; }
.memory-name { font: 14px Helvetica; dominant-baseline: middle; text-anchor: end; }
.register-number { font: 14px Helvetica; dominant-baseline: middle; text-anchor: start; }
.intrinsic-name { font: 14px Helvetica; dominant-baseline: middle; text-anchor: end; fill: #6778ED; }
.intrinsic-color { fill: #6778ED; }
.small-label { font: 12px Helvetica; dominant-baseline: middle; text-anchor: middle; }
.label-10px { font: 10px Helvetica; dominant-baseline: middle; text-anchor: middle; }
.smaller-label { font: 9px Helvetica; dominant-baseline: middle; text-anchor: middle; }
.label-6px { font: 6px Helvetica; dominant-baseline: middle; text-anchor: middle; }
.label-7px { font: 7px Helvetica; dominant-baseline: middle; text-anchor: middle; }
.unused { fill: #AAA; }
.dim { fill: #888; }
</style>
<defs>
<marker id="arrowhead" markerWidth="10.75" markerHeight="24.5" refX="9.0" refY="6.125" orient="auto">
<polyline points="0.5 0.5, 8.75 6.125, 0.5 11.75" stroke="#567DB6" stroke-width="1" fill="none"/>
</marker>
</defs>
<line stroke="#000" stroke-width="3" x1="474.5" x2="474.5" y1="179" y2="218" />
<text class="title-left" x="90.5" y="9.5">upper</text>
<text class="title-right" x="858.5" y="9.5">lower</text>
<rect fill="none" height="24" stroke="#405C86" stroke-width="3" width="12" x="840.5" y="18.5" />
<text class="label" x="846.5" y="31.5">0</text>
<rect fill="#DEE6F1" height="24" width="12" x="816.5" y="18.5" />
<rect fill="none" height="24" stroke="#405C86" stroke-width="3" width="12" x="816.5" y="18.5" />
<text class="label" x="822.5" y="31.5">1</text>
<rect fill="#DEE6F1" height="24" width="12" x="792.5" y="18.5" />
<rect fill="none" height="24" stroke="#405C86" stroke-width="3" width="12" x="792.5" y="18.5" />
<text class="label" x="798.5" y="31.5">1</text>
<rect fill="none" height="24" stroke="#405C86" stroke-width="3" width="12" x="768.5" y="18.5" />
<text class="label" x="774.5" y="31.5">0</text>
<rect fill="#DEE6F1" height="24" width="12" x="744.5" y="18.5" />
<rect fill="none" height="24" stroke="#405C86" stroke-width="3" width="12" x="744.5" y="18.5" />
<text class="label" x="750.5" y="31.5">1</text>
<rect fill="#DEE6F1" height="24" width="12" x="720.5" y="18.5" />
<rect fill="none" height="24" stroke="#405C86" stroke-width="3" width="12" x="720.5" y="18.5" />
<text class="label" x="726.5" y="31.5">1</text>
<rect fill="none" height="24" stroke="#405C86" stroke-width="3" width="12" x="696.5" y="18.5" />
<text class="label" x="702.5" y="31.5">0</text>
<rect fill="#DEE6F1" height="24" width="12" x="672.5" y="18.5" />
<rect fill="none" height="24" stroke="#405C86" stroke-width="3" width="12" x="672.5" y="18.5" />
<text class="label" x="678.5" y="31.5">1</text>
<rect fill="#DEE6F1" height="24" width="12" x="648.5" y="18.5" />
<rect fill="none" height="24" stroke="#405C86" stroke-width="3" width="12" x="648.5" y="18.5" />
<text class="label" x="654.5" y="31.5">1</text>
<rect fill="#DEE6F1" height="24" width="12" x="624.5" y="18.5" />
<rect fill="none" height="24" stroke="#405C86" stroke-width="3" width="12" x="624.5" y="18.5" />
<text class="label" x="630.5" y="31.5">1</text>
<rect fill="#DEE6F1" height="24" width="12" x="600.5" y="18.5" />
<rect fill="none" height="24" stroke="#405C86" stroke-width="3" width="12" x="600.5" y="18.5" />
<text class="label" x="606.5" y="31.5">1</text>
<rect fill="#DEE6F1" height="24" width="12" x="576.5" y="18.5" />
<rect fill="none" height="24" stroke="#405C86" stroke-width="3" width="12" x="576.5" y="18.5" />
<text class="label" x="582.5" y="31.5">1</text>
<rect fill="#DEE6F1" height="24" width="12" x="552.5" y="18.5" />
<rect fill="none" height="24" stroke="#405C86" stroke-width="3" width="12" x="552.5" y="18.5" />
<text class="label" x="558.5" y="31.5">1</text>
<rect fill="#DEE6F1" height="24" width="12" x="528.5" y="18.5" />
<rect fill="none" height="24" stroke="#405C86" stroke-width="3" width="12" x="528.5" y="18.5" />
<text class="label" x="534.5" y="31.5">1</text>
<rect fill="none" height="24" stroke="#405C86" stroke-width="3" width="12" x="504.5" y="18.5" />
<text class="label" x="510.5" y="31.5">0</text>
<rect fill="#DEE6F1" height="24" width="12" x="480.5" y="18.5" />
<rect fill="none" height="24" stroke="#405C86" stroke-width="3" width="12" x="480.5" y="18.5" />
<text class="label" x="486.5" y="31.5">1</text>
<rect fill="none" height="24" stroke="#405C86" stroke-dasharray="3 1" stroke-dashoffset="1.5" stroke-width="1" width="12" x="456.5" y="18.5" />
<text class="label unused" x="462.5" y="31.5"></text>
<rect fill="none" height="24" stroke="#405C86" stroke-dasharray="3 1" stroke-dashoffset="1.5" stroke-width="1" width="12" x="432.5" y="18.5" />
<text class="label unused" x="438.5" y="31.5"></text>
<rect fill="none" height="24" stroke="#405C86" stroke-dasharray="3 1" stroke-dashoffset="1.5" stroke-width="1" width="12" x="408.5" y="18.5" />
<text class="label unused" x="414.5" y="31.5"></text>
<rect fill="none" height="24" stroke="#405C86" stroke-dasharray="3 1" stroke-dashoffset="1.5" stroke-width="1" width="12" x="384.5" y="18.5" />
<text class="label unused" x="390.5" y="31.5"></text>
<rect fill="none" height="24" stroke="#405C86" stroke-dasharray="3 1" stroke-dashoffset="1.5" stroke-width="1" width="12" x="360.5" y="18.5" />
<text class="label unused" x="366.5" y="31.5"></text>
<rect fill="none" height="24" stroke="#405C86" stroke-dasharray="3 1" stroke-dashoffset="1.5" stroke-width="1" width="12" x="336.5" y="18.5" />
<text class="label unused" x="342.5" y="31.5"></text>
<rect fill="none" height="24" stroke="#405C86" stroke-dasharray="3 1" stroke-dashoffset="1.5" stroke-width="1" width="12" x="312.5" y="18.5" />
<text class="label unused" x="318.5" y="31.5"></text>
<rect fill="none" height="24" stroke="#405C86" stroke-dasharray="3 1" stroke-dashoffset="1.5" stroke-width="1" width="12" x="288.5" y="18.5" />
<text class="label unused" x="294.5" y="31.5"></text>
<rect fill="none" height="24" stroke="#405C86" stroke-dasharray="3 1" stroke-dashoffset="1.5" stroke-width="1" width="12" x="264.5" y="18.5" />
<text class="label unused" x="270.5" y="31.5"></text>
<rect fill="none" height="24" stroke="#405C86" stroke-dasharray="3 1" stroke-dashoffset="1.5" stroke-width="1" width="12" x="240.5" y="18.5" />
<text class="label unused" x="246.5" y="31.5"></text>
<rect fill="none" height="24" stroke="#405C86" stroke-dasharray="3 1" stroke-dashoffset="1.5" stroke-width="1" width="12" x="216.5" y="18.5" />
<text class="label unused" x="222.5" y="31.5"></text>
<rect fill="none" height="24" stroke="#405C86" stroke-dasharray="3 1" stroke-dashoffset="1.5" stroke-width="1" width="12" x="192.5" y="18.5" />
<text class="label unused" x="198.5" y="31.5"></text>
<rect fill="none" height="24" stroke="#405C86" stroke-dasharray="3 1" stroke-dashoffset="1.5" stroke-width="1" width="12" x="168.5" y="18.5" />
<text class="label unused" x="174.5" y="31.5"></text>
<rect fill="none" height="24" stroke="#405C86" stroke-dasharray="3 1" stroke-dashoffset="1.5" stroke-width="1" width="12" x="144.5" y="18.5" />
<text class="label unused" x="150.5" y="31.5"></text>
<rect fill="none" height="24" stroke="#405C86" stroke-dasharray="3 1" stroke-dashoffset="1.5" stroke-width="1" width="12" x="120.5" y="18.5" />
<text class="label unused" x="126.5" y="31.5"></text>
<rect fill="none" height="24" stroke="#405C86" stroke-dasharray="3 1" stroke-dashoffset="1.5" stroke-width="1" width="12" x="96.5" y="18.5" />
<text class="label unused" x="102.5" y="31.5"></text>
<text class="register-name" x="80.5" y="30.5">Pg</text>
<text class="intrinsic-name" x="80.5" y="42.5">pg</text>
<text class="register-number" x="10" y="30.5">(1)</text>
<rect fill="none" height="24" stroke="#405C86" stroke-width="3" width="24" x="834.5" y="66.5" />
<text class="smaller-label intrinsic-color" x="846.5" y="79.5">b[0]</text>
<rect fill="#DEE6F1" height="24" width="24" x="810.5" y="66.5" />
<rect fill="none" height="24" stroke="#405C86" stroke-width="3" width="24" x="810.5" y="66.5" />
<text class="smaller-label intrinsic-color" x="822.5" y="79.5">b[1]</text>
<rect fill="#DEE6F1" height="24" width="24" x="786.5" y="66.5" />
<rect fill="none" height="24" stroke="#405C86" stroke-width="3" width="24" x="786.5" y="66.5" />
<text class="smaller-label intrinsic-color" x="798.5" y="79.5">b[2]</text>
<rect fill="none" height="24" stroke="#405C86" stroke-width="3" width="24" x="762.5" y="66.5" />
<text class="smaller-label intrinsic-color" x="774.5" y="79.5">b[3]</text>
<rect fill="#DEE6F1" height="24" width="24" x="738.5" y="66.5" />
<rect fill="none" height="24" stroke="#405C86" stroke-width="3" width="24" x="738.5" y="66.5" />
<text class="smaller-label intrinsic-color" x="750.5" y="79.5">b[4]</text>
<rect fill="#DEE6F1" height="24" width="24" x="714.5" y="66.5" />
<rect fill="none" height="24" stroke="#405C86" stroke-width="3" width="24" x="714.5" y="66.5" />
<text class="smaller-label intrinsic-color" x="726.5" y="79.5">b[5]</text>
<rect fill="none" height="24" stroke="#405C86" stroke-width="3" width="24" x="690.5" y="66.5" />
<text class="smaller-label intrinsic-color" x="702.5" y="79.5">b[6]</text>
<rect fill="#DEE6F1" height="24" width="24" x="666.5" y="66.5" />
<rect fill="none" height="24" stroke="#405C86" stroke-width="3" width="24" x="666.5" y="66.5" />
<text class="smaller-label intrinsic-color" x="678.5" y="79.5">b[7]</text>
<rect fill="#DEE6F1" height="24" width="24" x="642.5" y="66.5" />
<rect fill="none" height="24" stroke="#405C86" stroke-width="3" width="24" x="642.5" y="66.5" />
<text class="smaller-label intrinsic-color" x="654.5" y="79.5">b[8]</text>
<rect fill="#DEE6F1" height="24" width="24" x="618.5" y="66.5" />
<rect fill="none" height="24" stroke="#405C86" stroke-width="3" width="24" x="618.5" y="66.5" />
<text class="smaller-label intrinsic-color" x="630.5" y="79.5">b[9]</text>
<rect fill="#DEE6F1" height="24" width="24" x="594.5" y="66.5" />
<rect fill="none" height="24" stroke="#405C86" stroke-width="3" width="24" x="594.5" y="66.5" />
<text class="smaller-label intrinsic-color" x="606.5" y="79.5">b[10]</text>
<rect fill="#DEE6F1" height="24" width="24" x="570.5" y="66.5" />
<rect fill="none" height="24" stroke="#405C86" stroke-width="3" width="24" x="570.5" y="66.5" />
<text class="smaller-label intrinsic-color" x="582.5" y="79.5">b[11]</text>
<rect fill="#DEE6F1" height="24" width="24" x="546.5" y="66.5" />
<rect fill="none" height="24" stroke="#405C86" stroke-width="3" width="24" x="546.5" y="66.5" />
<text class="smaller-label intrinsic-color" x="558.5" y="79.5">b[12]</text>
<rect fill="#DEE6F1" height="24" width="24" x="522.5" y="66.5" />
<rect fill="none" height="24" stroke="#405C86" stroke-width="3" width="24" x="522.5" y="66.5" />
<text class="smaller-label intrinsic-color" x="534.5" y="79.5">b[13]</text>
<rect fill="none" height="24" stroke="#405C86" stroke-width="3" width="24" x="498.5" y="66.5" />
<text class="smaller-label intrinsic-color" x="510.5" y="79.5">b[14]</text>
<rect fill="#DEE6F1" height="24" width="24" x="474.5" y="66.5" />
<rect fill="none" height="24" stroke="#405C86" stroke-width="3" width="24" x="474.5" y="66.5" />
<text class="smaller-label intrinsic-color" x="486.5" y="79.5">b[15]</text>
<text class="register-name" x="80.5" y="78.5">[mem]</text>
<text class="intrinsic-name" x="80.5" y="90.5">*base</text>
<text class="register-number" x="10" y="78.5">(2)</text>
<rect fill="#EEDDDB" height="24" width="24" x="834.5" y="114.5" />
<rect fill="none" height="24" stroke="#405C86" stroke-width="3" width="24" x="834.5" y="114.5" />
<text class="label" x="846.5" y="127.5">0</text>
<rect fill="#DEE6F1" height="24" width="24" x="810.5" y="114.5" />
<rect fill="none" height="24" stroke="#405C86" stroke-width="3" width="24" x="810.5" y="114.5" />
<rect fill="#DEE6F1" height="24" width="24" x="786.5" y="114.5" />
<rect fill="none" height="24" stroke="#405C86" stroke-width="3" width="24" x="786.5" y="114.5" />
<rect fill="#EEDDDB" height="24" width="24" x="762.5" y="114.5" />
<rect fill="none" height="24" stroke="#405C86" stroke-width="3" width="24" x="762.5" y="114.5" />
<text class="label" x="774.5" y="127.5">0</text>
<rect fill="#DEE6F1" height="24" width="24" x="738.5" y="114.5" />
<rect fill="none" height="24" stroke="#405C86" stroke-width="3" width="24" x="738.5" y="114.5" />
<rect fill="#DEE6F1" height="24" width="24" x="714.5" y="114.5" />
<rect fill="none" height="24" stroke="#405C86" stroke-width="3" width="24" x="714.5" y="114.5" />
<rect fill="#EEDDDB" height="24" width="24" x="690.5" y="114.5" />
<rect fill="none" height="24" stroke="#405C86" stroke-width="3" width="24" x="690.5" y="114.5" />
<text class="label" x="702.5" y="127.5">0</text>
<rect fill="#DEE6F1" height="24" width="24" x="666.5" y="114.5" />
<rect fill="none" height="24" stroke="#405C86" stroke-width="3" width="24" x="666.5" y="114.5" />
<rect fill="#DEE6F1" height="24" width="24" x="642.5" y="114.5" />
<rect fill="none" height="24" stroke="#405C86" stroke-width="3" width="24" x="642.5" y="114.5" />
<rect fill="#DEE6F1" height="24" width="24" x="618.5" y="114.5" />
<rect fill="none" height="24" stroke="#405C86" stroke-width="3" width="24" x="618.5" y="114.5" />
<rect fill="#DEE6F1" height="24" width="24" x="594.5" y="114.5" />
<rect fill="none" height="24" stroke="#405C86" stroke-width="3" width="24" x="594.5" y="114.5" />
<rect fill="#DEE6F1" height="24" width="24" x="570.5" y="114.5" />
<rect fill="none" height="24" stroke="#405C86" stroke-width="3" width="24" x="570.5" y="114.5" />
<rect fill="#DEE6F1" height="24" width="24" x="546.5" y="114.5" />
<rect fill="none" height="24" stroke="#405C86" stroke-width="3" width="24" x="546.5" y="114.5" />
<rect fill="#DEE6F1" height="24" width="24" x="522.5" y="114.5" />
<rect fill="none" height="24" stroke="#405C86" stroke-width="3" width="24" x="522.5" y="114.5" />
<rect fill="#EEDDDB" height="24" width="24" x="498.5" y="114.5" />
<rect fill="none" height="24" stroke="#405C86" stroke-width="3" width="24" x="498.5" y="114.5" />
<text class="label" x="510.5" y="127.5">0</text>
<rect fill="#DEE6F1" height="24" width="24" x="474.5" y="114.5" />
<rect fill="none" height="24" stroke="#405C86" stroke-width="3" width="24" x="474.5" y="114.5" />
<rect fill="#EEDDDB" height="24" width="24" x="834.5" y="186.5" />
<rect fill="none" height="24" stroke="#405C86" stroke-width="3" width="24" x="834.5" y="186.5" />
<text class="label" x="846.5" y="199.5">0</text>
<rect fill="#DEE6F1" height="24" width="24" x="810.5" y="186.5" />
<rect fill="none" height="24" stroke="#405C86" stroke-width="3" width="24" x="810.5" y="186.5" />
<rect fill="#DEE6F1" height="24" width="24" x="786.5" y="186.5" />
<rect fill="none" height="24" stroke="#405C86" stroke-width="3" width="24" x="786.5" y="186.5" />
<rect fill="#EEDDDB" height="24" width="24" x="762.5" y="186.5" />
<rect fill="none" height="24" stroke="#405C86" stroke-width="3" width="24" x="762.5" y="186.5" />
<text class="label" x="774.5" y="199.5">0</text>
<rect fill="#DEE6F1" height="24" width="24" x="738.5" y="186.5" />
<rect fill="none" height="24" stroke="#405C86" stroke-width="3" width="24" x="738.5" y="186.5" />
<rect fill="#DEE6F1" height="24" width="24" x="714.5" y="186.5" />
<rect fill="none" height="24" stroke="#405C86" stroke-width="3" width="24" x="714.5" y="186.5" />
<rect fill="#EEDDDB" height="24" width="24" x="690.5" y="186.5" />
<rect fill="none" height="24" stroke="#405C86" stroke-width="3" width="24" x="690.5" y="186.5" />
<text class="label" x="702.5" y="199.5">0</text>
<rect fill="#DEE6F1" height="24" width="24" x="666.5" y="186.5" />
<rect fill="none" height="24" stroke="#405C86" stroke-width="3" width="24" x="666.5" y="186.5" />
<rect fill="#DEE6F1" height="24" width="24" x="642.5" y="186.5" />
<rect fill="none" height="24" stroke="#405C86" stroke-width="3" width="24" x="642.5" y="186.5" />
<rect fill="#DEE6F1" height="24" width="24" x="618.5" y="186.5" />
<rect fill="none" height="24" stroke="#405C86" stroke-width="3" width="24" x="618.5" y="186.5" />
<rect fill="#DEE6F1" height="24" width="24" x="594.5" y="186.5" />
<rect fill="none" height="24" stroke="#405C86" stroke-width="3" width="24" x="594.5" y="186.5" />
<rect fill="#DEE6F1" height="24" width="24" x="570.5" y="186.5" />
<rect fill="none" height="24" stroke="#405C86" stroke-width="3" width="24" x="570.5" y="186.5" />
<rect fill="#DEE6F1" height="24" width="24" x="546.5" y="186.5" />
<rect fill="none" height="24" stroke="#405C86" stroke-width="3" width="24" x="546.5" y="186.5" />
<rect fill="#DEE6F1" height="24" width="24" x="522.5" y="186.5" />
<rect fill="none" height="24" stroke="#405C86" stroke-width="3" width="24" x="522.5" y="186.5" />
<rect fill="#EEDDDB" height="24" width="24" x="498.5" y="186.5" />
<rect fill="none" height="24" stroke="#405C86" stroke-width="3" width="24" x="498.5" y="186.5" />
<text class="label" x="510.5" y="199.5">0</text>
<rect fill="#DEE6F1" height="24" width="24" x="474.5" y="186.5" />
<rect fill="none" height="24" stroke="#405C86" stroke-width="3" width="24" x="474.5" y="186.5" />
<rect fill="#EEDDDB" height="24" width="24" x="450.5" y="186.5" />
<rect fill="none" height="24" stroke="#405C86" stroke-width="3" width="24" x="450.5" y="186.5" />
<text class="label" x="462.5" y="199.5">0</text>
<rect fill="#DEE6F1" height="24" width="24" x="426.5" y="186.5" />
<rect fill="none" height="24" stroke="#405C86" stroke-width="3" width="24" x="426.5" y="186.5" />
<rect fill="#DEE6F1" height="24" width="24" x="402.5" y="186.5" />
<rect fill="none" height="24" stroke="#405C86" stroke-width="3" width="24" x="402.5" y="186.5" />
<rect fill="#EEDDDB" height="24" width="24" x="378.5" y="186.5" />
<rect fill="none" height="24" stroke="#405C86" stroke-width="3" width="24" x="378.5" y="186.5" />
<text class="label" x="390.5" y="199.5">0</text>
<rect fill="#DEE6F1" height="24" width="24" x="354.5" y="186.5" />
<rect fill="none" height="24" stroke="#405C86" stroke-width="3" width="24" x="354.5" y="186.5" />
<rect fill="#DEE6F1" height="24" width="24" x="330.5" y="186.5" />
<rect fill="none" height="24" stroke="#405C86" stroke-width="3" width="24" x="330.5" y="186.5" />
<rect fill="#EEDDDB" height="24" width="24" x="306.5" y="186.5" />
<rect fill="none" height="24" stroke="#405C86" stroke-width="3" width="24" x="306.5" y="186.5" />
<text class="label" x="318.5" y="199.5">0</text>
<rect fill="#DEE6F1" height="24" width="24" x="282.5" y="186.5" />
<rect fill="none" height="24" stroke="#405C86" stroke-width="3" width="24" x="282.5" y="186.5" />
<rect fill="#DEE6F1" height="24" width="24" x="258.5" y="186.5" />
<rect fill="none" height="24" stroke="#405C86" stroke-width="3" width="24" x="258.5" y="186.5" />
<rect fill="#DEE6F1" height="24" width="24" x="234.5" y="186.5" />
<rect fill="none" height="24" stroke="#405C86" stroke-width="3" width="24" x="234.5" y="186.5" />
<rect fill="#DEE6F1" height="24" width="24" x="210.5" y="186.5" />
<rect fill="none" height="24" stroke="#405C86" stroke-width="3" width="24" x="210.5" y="186.5" />
<rect fill="#DEE6F1" height="24" width="24" x="186.5" y="186.5" />
<rect fill="none" height="24" stroke="#405C86" stroke-width="3" width="24" x="186.5" y="186.5" />
<rect fill="#DEE6F1" height="24" width="24" x="162.5" y="186.5" />
<rect fill="none" height="24" stroke="#405C86" stroke-width="3" width="24" x="162.5" y="186.5" />
<rect fill="#DEE6F1" height="24" width="24" x="138.5" y="186.5" />
<rect fill="none" height="24" stroke="#405C86" stroke-width="3" width="24" x="138.5" y="186.5" />
<rect fill="#EEDDDB" height="24" width="24" x="114.5" y="186.5" />
<rect fill="none" height="24" stroke="#405C86" stroke-width="3" width="24" x="114.5" y="186.5" />
<text class="label" x="126.5" y="199.5">0</text>
<rect fill="#DEE6F1" height="24" width="24" x="90.5" y="186.5" />
<rect fill="none" height="24" stroke="#405C86" stroke-width="3" width="24" x="90.5" y="186.5" />
<text class="register-name" x="80.5" y="198.5">Zt</text>
<text class="intrinsic-name" x="80.5" y="210.5">returns</text>
<text class="register-number" x="10" y="198.5">(3)</text>
<line stroke="#567DB6" stroke-width="1" x1="846.5" x2="846.5" y1="43.5" y2="65.5" />
<line stroke="#567DB6" stroke-width="1" x1="822.5" x2="822.5" y1="43.5" y2="65.5" />
<line stroke="#567DB6" stroke-width="1" x1="822.5" x2="822.5" y1="91.5" y2="113" />
<line stroke="#567DB6" stroke-width="1" x1="798.5" x2="798.5" y1="43.5" y2="65.5" />
<line stroke="#567DB6" stroke-width="1" x1="798.5" x2="798.5" y1="91.5" y2="113" />
<line stroke="#567DB6" stroke-width="1" x1="774.5" x2="774.5" y1="43.5" y2="65.5" />
<line stroke="#567DB6" stroke-width="1" x1="750.5" x2="750.5" y1="43.5" y2="65.5" />
<line stroke="#567DB6" stroke-width="1" x1="750.5" x2="750.5" y1="91.5" y2="113" />
<line stroke="#567DB6" stroke-width="1" x1="726.5" x2="726.5" y1="43.5" y2="65.5" />
<line stroke="#567DB6" stroke-width="1" x1="726.5" x2="726.5" y1="91.5" y2="113" />
<line stroke="#567DB6" stroke-width="1" x1="702.5" x2="702.5" y1="43.5" y2="65.5" />
<line stroke="#567DB6" stroke-width="1" x1="678.5" x2="678.5" y1="43.5" y2="65.5" />
<line stroke="#567DB6" stroke-width="1" x1="678.5" x2="678.5" y1="91.5" y2="113" />
<line stroke="#567DB6" stroke-width="1" x1="654.5" x2="654.5" y1="43.5" y2="65.5" />
<line stroke="#567DB6" stroke-width="1" x1="654.5" x2="654.5" y1="91.5" y2="113" />
<line stroke="#567DB6" stroke-width="1" x1="630.5" x2="630.5" y1="43.5" y2="65.5" />
<line stroke="#567DB6" stroke-width="1" x1="630.5" x2="630.5" y1="91.5" y2="113" />
<line stroke="#567DB6" stroke-width="1" x1="606.5" x2="606.5" y1="43.5" y2="65.5" />
<line stroke="#567DB6" stroke-width="1" x1="606.5" x2="606.5" y1="91.5" y2="113" />
<line stroke="#567DB6" stroke-width="1" x1="582.5" x2="582.5" y1="43.5" y2="65.5" />
<line stroke="#567DB6" stroke-width="1" x1="582.5" x2="582.5" y1="91.5" y2="113" />
<line stroke="#567DB6" stroke-width="1" x1="558.5" x2="558.5" y1="43.5" y2="65.5" />
<line stroke="#567DB6" stroke-width="1" x1="558.5" x2="558.5" y1="91.5" y2="113" />
<line stroke="#567DB6" stroke-width="1" x1="534.5" x2="534.5" y1="43.5" y2="65.5" />
<line stroke="#567DB6" stroke-width="1" x1="534.5" x2="534.5" y1="91.5" y2="113" />
<line stroke="#567DB6" stroke-width="1" x1="510.5" x2="510.5" y1="43.5" y2="65.5" />
<line stroke="#567DB6" stroke-width="1" x1="486.5" x2="486.5" y1="43.5" y2="65.5" />
<line stroke="#567DB6" stroke-width="1" x1="486.5" x2="486.5" y1="91.5" y2="113" />
<polyline fill="none" points="477.5 139.5,479.5 143.5,665.5 143.5,666.5 145.5,666.5 149.5,666.5 145.5,667.5 143.5,853.5 143.5,855.5 139.5" stroke="#567DB6" stroke-width="1" />
<polyline fill="none" points="477.5 185.5,479.5 181.5,665.5 181.5,666.5 179.5,666.5 175.5,666.5 179.5,667.5 181.5,853.5 181.5,855.5 185.5" stroke="#567DB6" stroke-width="1" />
<line stroke="#567DB6" stroke-width="1" x1="666.5" x2="666.5" y1="149.5" y2="175.5" />
<polyline fill="none" points="93.5 185.5,95.5 181.5,281.5 181.5,282.5 179.5,282.5 175.5,282.5 179.5,283.5 181.5,469.5 181.5,471.5 185.5" stroke="#567DB6" stroke-width="1" />
<line stroke="#567DB6" stroke-width="1" x1="666.5" x2="282.5" y1="149.5" y2="175.5" />
<line marker-end="url(#arrowhead)" stroke="none" x1="822.5" x2="822.5" y1="91.5" y2="113" />
<line marker-end="url(#arrowhead)" stroke="none" x1="798.5" x2="798.5" y1="91.5" y2="113" />
<line marker-end="url(#arrowhead)" stroke="none" x1="750.5" x2="750.5" y1="91.5" y2="113" />
<line marker-end="url(#arrowhead)" stroke="none" x1="726.5" x2="726.5" y1="91.5" y2="113" />
<line marker-end="url(#arrowhead)" stroke="none" x1="678.5" x2="678.5" y1="91.5" y2="113" />
<line marker-end="url(#arrowhead)" stroke="none" x1="654.5" x2="654.5" y1="91.5" y2="113" />
<line marker-end="url(#arrowhead)" stroke="none" x1="630.5" x2="630.5" y1="91.5" y2="113" />
<line marker-end="url(#arrowhead)" stroke="none" x1="606.5" x2="606.5" y1="91.5" y2="113" />
<line marker-end="url(#arrowhead)" stroke="none" x1="582.5" x2="582.5" y1="91.5" y2="113" />
<line marker-end="url(#arrowhead)" stroke="none" x1="558.5" x2="558.5" y1="91.5" y2="113" />
<line marker-end="url(#arrowhead)" stroke="none" x1="534.5" x2="534.5" y1="91.5" y2="113" />
<line marker-end="url(#arrowhead)" stroke="none" x1="486.5" x2="486.5" y1="91.5" y2="113" />
</svg>