<svg xmlns="http://www.w3.org/2000/svg" viewBox="0 0 6246 123">
<style>
.label { font: 14px Helvetica; dominant-baseline: middle; text-anchor: middle; }
.title-left { font: 12px Helvetica; dominant-baseline: middle; }
.title-right { font: 12px Helvetica; dominant-baseline: middle; text-anchor: end; }
.title-intrinsic { font: 12px Helvetica; dominant-baseline: middle; text-anchor: middle; fill: #6778ED; }
.title { font: 12px Helvetica; dominant-baseline: middle; text-anchor: middle; }
.title-unused { font: 12px Helvetica; dominant-baseline: middle; text-anchor: middle; fill: #AAA; }
.register-name { font: 14px Helvetica; dominant-baseline: middle; text-anchor: end; font-style: italic; }
.memory-name { font: 14px Helvetica; dominant-baseline: middle; text-anchor: end; }
.register-number { font: 14px Helvetica; dominant-baseline: middle; text-anchor: start; }
.intrinsic-name { font: 14px Helvetica; dominant-baseline: middle; text-anchor: end; fill: #6778ED; }
.intrinsic-color { fill: #6778ED; }
.small-label { font: 12px Helvetica; dominant-baseline: middle; text-anchor: middle; }
.label-10px { font: 10px Helvetica; dominant-baseline: middle; text-anchor: middle; }
.smaller-label { font: 9px Helvetica; dominant-baseline: middle; text-anchor: middle; }
.label-6px { font: 6px Helvetica; dominant-baseline: middle; text-anchor: middle; }
.label-7px { font: 7px Helvetica; dominant-baseline: middle; text-anchor: middle; }
.unused { fill: #AAA; }
.dim { fill: #888; }
</style>
<defs>
<marker id="arrowhead" markerWidth="10.75" markerHeight="24.5" refX="9.0" refY="6.125" orient="auto">
<polyline points="0.5 0.5, 8.75 6.125, 0.5 11.75" stroke="#567DB6" stroke-width="1" fill="none"/>
</marker>
</defs>
<line stroke="#567DB6" stroke-width="1" x1="3162.5" x2="6221.84375" y1="43.5" y2="89" />
<line stroke="#567DB6" stroke-width="1" x1="3162.5" x2="5837.84375" y1="43.5" y2="89" />
<line stroke="#567DB6" stroke-width="1" x1="3162.5" x2="5453.84375" y1="43.5" y2="89" />
<line stroke="#567DB6" stroke-width="1" x1="3162.5" x2="5069.84375" y1="43.5" y2="89" />
<line stroke="#567DB6" stroke-width="1" x1="3162.5" x2="4685.84375" y1="43.5" y2="89" />
<line stroke="#567DB6" stroke-width="1" x1="3162.5" x2="4301.84375" y1="43.5" y2="89" />
<line stroke="#567DB6" stroke-width="1" x1="3162.5" x2="3917.84375" y1="43.5" y2="89" />
<line stroke="#567DB6" stroke-width="1" x1="3162.5" x2="3533.84375" y1="43.5" y2="89" />
<line stroke="#567DB6" stroke-width="1" x1="3162.5" x2="3149.84375" y1="43.5" y2="89" />
<line stroke="#567DB6" stroke-width="1" x1="3162.5" x2="2765.84375" y1="43.5" y2="89" />
<line stroke="#567DB6" stroke-width="1" x1="3162.5" x2="2381.84375" y1="43.5" y2="89" />
<line stroke="#567DB6" stroke-width="1" x1="3162.5" x2="1997.84375" y1="43.5" y2="89" />
<line stroke="#567DB6" stroke-width="1" x1="3162.5" x2="1613.84375" y1="43.5" y2="89" />
<line stroke="#567DB6" stroke-width="1" x1="3162.5" x2="1229.84375" y1="43.5" y2="89" />
<line stroke="#567DB6" stroke-width="1" x1="3162.5" x2="845.84375" y1="43.5" y2="89" />
<line stroke="#567DB6" stroke-width="1" x1="3162.5" x2="461.84375" y1="43.5" y2="89" />
<text class="title-left" x="90.5" y="9.5">upper</text>
<text class="title-right" x="6234.5" y="9.5">lower</text>
<rect fill="#DEE6F1" height="24" width="24" x="3150.5" y="18.5" />
<rect fill="none" height="24" stroke="#405C86" stroke-width="3" width="24" x="3150.5" y="18.5" />
<text class="register-name" x="80.5" y="30.5">[mem]</text>
<text class="intrinsic-name" x="80.5" y="42.5">*base</text>
<text class="register-number" x="10" y="30.5">(1)</text>
<rect fill="#DEE6F1" height="24" width="25.3125" x="6209.1875" y="90.5" />
<rect fill="none" height="24" stroke="#405C86" stroke-width="3" width="384" x="5850.5" y="90.5" />
<rect fill="#DEE6F1" height="24" width="25.3125" x="5825.1875" y="90.5" />
<rect fill="none" height="24" stroke="#405C86" stroke-width="3" width="384" x="5466.5" y="90.5" />
<rect fill="#DEE6F1" height="24" width="25.3125" x="5441.1875" y="90.5" />
<rect fill="none" height="24" stroke="#405C86" stroke-width="3" width="384" x="5082.5" y="90.5" />
<rect fill="#DEE6F1" height="24" width="25.3125" x="5057.1875" y="90.5" />
<rect fill="none" height="24" stroke="#405C86" stroke-width="3" width="384" x="4698.5" y="90.5" />
<rect fill="#DEE6F1" height="24" width="25.3125" x="4673.1875" y="90.5" />
<rect fill="none" height="24" stroke="#405C86" stroke-width="3" width="384" x="4314.5" y="90.5" />
<rect fill="#DEE6F1" height="24" width="25.3125" x="4289.1875" y="90.5" />
<rect fill="none" height="24" stroke="#405C86" stroke-width="3" width="384" x="3930.5" y="90.5" />
<rect fill="#DEE6F1" height="24" width="25.3125" x="3905.1875" y="90.5" />
<rect fill="none" height="24" stroke="#405C86" stroke-width="3" width="384" x="3546.5" y="90.5" />
<rect fill="#DEE6F1" height="24" width="25.3125" x="3521.1875" y="90.5" />
<rect fill="none" height="24" stroke="#405C86" stroke-width="3" width="384" x="3162.5" y="90.5" />
<rect fill="#DEE6F1" height="24" width="25.3125" x="3137.1875" y="90.5" />
<rect fill="none" height="24" stroke="#405C86" stroke-width="3" width="384" x="2778.5" y="90.5" />
<rect fill="#DEE6F1" height="24" width="25.3125" x="2753.1875" y="90.5" />
<rect fill="none" height="24" stroke="#405C86" stroke-width="3" width="384" x="2394.5" y="90.5" />
<rect fill="#DEE6F1" height="24" width="25.3125" x="2369.1875" y="90.5" />
<rect fill="none" height="24" stroke="#405C86" stroke-width="3" width="384" x="2010.5" y="90.5" />
<rect fill="#DEE6F1" height="24" width="25.3125" x="1985.1875" y="90.5" />
<rect fill="none" height="24" stroke="#405C86" stroke-width="3" width="384" x="1626.5" y="90.5" />
<rect fill="#DEE6F1" height="24" width="25.3125" x="1601.1875" y="90.5" />
<rect fill="none" height="24" stroke="#405C86" stroke-width="3" width="384" x="1242.5" y="90.5" />
<rect fill="#DEE6F1" height="24" width="25.3125" x="1217.1875" y="90.5" />
<rect fill="none" height="24" stroke="#405C86" stroke-width="3" width="384" x="858.5" y="90.5" />
<rect fill="#DEE6F1" height="24" width="25.3125" x="833.1875" y="90.5" />
<rect fill="none" height="24" stroke="#405C86" stroke-width="3" width="384" x="474.5" y="90.5" />
<rect fill="#DEE6F1" height="24" width="25.3125" x="449.1875" y="90.5" />
<rect fill="none" height="24" stroke="#405C86" stroke-width="3" width="384" x="90.5" y="90.5" />
<text class="register-name" x="80.5" y="102.5">Zt</text>
<text class="intrinsic-name" x="80.5" y="114.5">returns</text>
<text class="register-number" x="10" y="102.5">(2)</text>
<line marker-end="url(#arrowhead)" stroke="none" x1="3162.5" x2="6221.84375" y1="43.5" y2="89" />
<line marker-end="url(#arrowhead)" stroke="none" x1="3162.5" x2="5837.84375" y1="43.5" y2="89" />
<line marker-end="url(#arrowhead)" stroke="none" x1="3162.5" x2="5453.84375" y1="43.5" y2="89" />
<line marker-end="url(#arrowhead)" stroke="none" x1="3162.5" x2="5069.84375" y1="43.5" y2="89" />
<line marker-end="url(#arrowhead)" stroke="none" x1="3162.5" x2="4685.84375" y1="43.5" y2="89" />
<line marker-end="url(#arrowhead)" stroke="none" x1="3162.5" x2="4301.84375" y1="43.5" y2="89" />
<line marker-end="url(#arrowhead)" stroke="none" x1="3162.5" x2="3917.84375" y1="43.5" y2="89" />
<line marker-end="url(#arrowhead)" stroke="none" x1="3162.5" x2="3533.84375" y1="43.5" y2="89" />
<line marker-end="url(#arrowhead)" stroke="none" x1="3162.5" x2="3149.84375" y1="43.5" y2="89" />
<line marker-end="url(#arrowhead)" stroke="none" x1="3162.5" x2="2765.84375" y1="43.5" y2="89" />
<line marker-end="url(#arrowhead)" stroke="none" x1="3162.5" x2="2381.84375" y1="43.5" y2="89" />
<line marker-end="url(#arrowhead)" stroke="none" x1="3162.5" x2="1997.84375" y1="43.5" y2="89" />
<line marker-end="url(#arrowhead)" stroke="none" x1="3162.5" x2="1613.84375" y1="43.5" y2="89" />
<line marker-end="url(#arrowhead)" stroke="none" x1="3162.5" x2="1229.84375" y1="43.5" y2="89" />
<line marker-end="url(#arrowhead)" stroke="none" x1="3162.5" x2="845.84375" y1="43.5" y2="89" />
<line marker-end="url(#arrowhead)" stroke="none" x1="3162.5" x2="461.84375" y1="43.5" y2="89" />
</svg>