<svg xmlns="http://www.w3.org/2000/svg" viewBox="0 0 498 363">
<style>
.label { font: 14px Helvetica; dominant-baseline: middle; text-anchor: middle; }
.title-left { font: 12px Helvetica; dominant-baseline: middle; }
.title-right { font: 12px Helvetica; dominant-baseline: middle; text-anchor: end; }
.title-intrinsic { font: 12px Helvetica; dominant-baseline: middle; text-anchor: middle; fill: #6778ED; }
.title { font: 12px Helvetica; dominant-baseline: middle; text-anchor: middle; }
.title-unused { font: 12px Helvetica; dominant-baseline: middle; text-anchor: middle; fill: #AAA; }
.register-name { font: 14px Helvetica; dominant-baseline: middle; text-anchor: end; font-style: italic; }
.memory-name { font: 14px Helvetica; dominant-baseline: middle; text-anchor: end; }
.register-number { font: 14px Helvetica; dominant-baseline: middle; text-anchor: start; }
.intrinsic-name { font: 14px Helvetica; dominant-baseline: middle; text-anchor: end; fill: #6778ED; }
.intrinsic-color { fill: #6778ED; }
.small-label { font: 12px Helvetica; dominant-baseline: middle; text-anchor: middle; }
.label-10px { font: 10px Helvetica; dominant-baseline: middle; text-anchor: middle; }
.smaller-label { font: 9px Helvetica; dominant-baseline: middle; text-anchor: middle; }
.label-6px { font: 6px Helvetica; dominant-baseline: middle; text-anchor: middle; }
.label-7px { font: 7px Helvetica; dominant-baseline: middle; text-anchor: middle; }
.unused { fill: #AAA; }
.dim { fill: #888; }
</style>
<defs>
<marker id="arrowhead" markerWidth="10.75" markerHeight="24.5" refX="9.0" refY="6.125" orient="auto">
<polyline points="0.5 0.5, 8.75 6.125, 0.5 11.75" stroke="#567DB6" stroke-width="1" fill="none"/>
</marker>
</defs>
<text class="title-left" x="90.5" y="9.5">upper</text>
<text class="title-right" x="474.5" y="9.5">lower</text>
<rect fill="#FAEBDC" height="174" width="425" x="61.5" y="120.5" />
<rect fill="#DEE6F1" height="24" width="12" x="420.5" y="18.5" />
<rect fill="none" height="24" stroke="#405C86" stroke-width="3" width="12" x="420.5" y="18.5" />
<rect fill="none" height="24" stroke="#405C86" stroke-dasharray="3 1" stroke-dashoffset="1.5" stroke-width="1" width="12" x="408.5" y="18.5" />
<text class="label unused" x="414.5" y="31.5"></text>
<rect fill="none" height="24" stroke="#405C86" stroke-dasharray="3 1" stroke-dashoffset="1.5" stroke-width="1" width="12" x="396.5" y="18.5" />
<text class="label unused" x="402.5" y="31.5"></text>
<rect fill="none" height="24" stroke="#405C86" stroke-dasharray="3 1" stroke-dashoffset="1.5" stroke-width="1" width="12" x="384.5" y="18.5" />
<text class="label unused" x="390.5" y="31.5"></text>
<rect fill="#DEE6F1" height="24" width="12" x="324.5" y="18.5" />
<rect fill="none" height="24" stroke="#405C86" stroke-width="3" width="12" x="324.5" y="18.5" />
<rect fill="none" height="24" stroke="#405C86" stroke-dasharray="3 1" stroke-dashoffset="1.5" stroke-width="1" width="12" x="312.5" y="18.5" />
<text class="label unused" x="318.5" y="31.5"></text>
<rect fill="none" height="24" stroke="#405C86" stroke-dasharray="3 1" stroke-dashoffset="1.5" stroke-width="1" width="12" x="300.5" y="18.5" />
<text class="label unused" x="306.5" y="31.5"></text>
<rect fill="none" height="24" stroke="#405C86" stroke-dasharray="3 1" stroke-dashoffset="1.5" stroke-width="1" width="12" x="288.5" y="18.5" />
<text class="label unused" x="294.5" y="31.5"></text>
<rect fill="#DEE6F1" height="24" width="12" x="228.5" y="18.5" />
<rect fill="none" height="24" stroke="#405C86" stroke-width="3" width="12" x="228.5" y="18.5" />
<rect fill="none" height="24" stroke="#405C86" stroke-dasharray="3 1" stroke-dashoffset="1.5" stroke-width="1" width="12" x="216.5" y="18.5" />
<text class="label unused" x="222.5" y="31.5"></text>
<rect fill="none" height="24" stroke="#405C86" stroke-dasharray="3 1" stroke-dashoffset="1.5" stroke-width="1" width="12" x="204.5" y="18.5" />
<text class="label unused" x="210.5" y="31.5"></text>
<rect fill="none" height="24" stroke="#405C86" stroke-dasharray="3 1" stroke-dashoffset="1.5" stroke-width="1" width="12" x="192.5" y="18.5" />
<text class="label unused" x="198.5" y="31.5"></text>
<rect fill="#DEE6F1" height="24" width="12" x="132.5" y="18.5" />
<rect fill="none" height="24" stroke="#405C86" stroke-width="3" width="12" x="132.5" y="18.5" />
<rect fill="none" height="24" stroke="#405C86" stroke-dasharray="3 1" stroke-dashoffset="1.5" stroke-width="1" width="12" x="120.5" y="18.5" />
<text class="label unused" x="126.5" y="31.5"></text>
<rect fill="none" height="24" stroke="#405C86" stroke-dasharray="3 1" stroke-dashoffset="1.5" stroke-width="1" width="12" x="108.5" y="18.5" />
<text class="label unused" x="114.5" y="31.5"></text>
<rect fill="none" height="24" stroke="#405C86" stroke-dasharray="3 1" stroke-dashoffset="1.5" stroke-width="1" width="12" x="96.5" y="18.5" />
<text class="label unused" x="102.5" y="31.5"></text>
<text class="register-name" x="80.5" y="30.5">Pg</text>
<text class="intrinsic-name" x="80.5" y="42.5">pg</text>
<text class="register-number" x="10" y="30.5">(1)</text>
<rect fill="#DEE6F1" height="24" width="96" x="378.5" y="66.5" />
<text class="label" x="426.5" y="79.5">off0</text>
<rect fill="none" height="24" stroke="#405C86" stroke-width="3" width="96" x="378.5" y="66.5" />
<rect fill="#DEE6F1" height="24" width="96" x="282.5" y="66.5" />
<text class="label" x="330.5" y="79.5">off1</text>
<rect fill="none" height="24" stroke="#405C86" stroke-width="3" width="96" x="282.5" y="66.5" />
<rect fill="#DEE6F1" height="24" width="96" x="186.5" y="66.5" />
<text class="label" x="234.5" y="79.5">off2</text>
<rect fill="none" height="24" stroke="#405C86" stroke-width="3" width="96" x="186.5" y="66.5" />
<rect fill="#DEE6F1" height="24" width="96" x="90.5" y="66.5" />
<text class="label" x="138.5" y="79.5">off3</text>
<rect fill="none" height="24" stroke="#405C86" stroke-width="3" width="96" x="90.5" y="66.5" />
<text class="register-name" x="80.5" y="78.5">Zm</text>
<text class="intrinsic-name" x="80.5" y="90.5">offsets</text>
<text class="register-number" x="10" y="78.5">(2)</text>
<rect fill="#DEE6F1" height="24" width="21.84375" x="452.65625" y="330.5" />
<rect fill="#EEDDDB" height="24" width="74.15625" x="378.5" y="330.5" />
<rect fill="none" height="24" stroke="#405C86" stroke-width="3" width="96" x="378.5" y="330.5" />
<rect fill="#DEE6F1" height="24" width="21.84375" x="356.65625" y="330.5" />
<rect fill="#EEDDDB" height="24" width="74.15625" x="282.5" y="330.5" />
<rect fill="none" height="24" stroke="#405C86" stroke-width="3" width="96" x="282.5" y="330.5" />
<rect fill="#DEE6F1" height="24" width="21.84375" x="260.65625" y="330.5" />
<rect fill="#EEDDDB" height="24" width="74.15625" x="186.5" y="330.5" />
<rect fill="none" height="24" stroke="#405C86" stroke-width="3" width="96" x="186.5" y="330.5" />
<rect fill="#DEE6F1" height="24" width="21.84375" x="164.65625" y="330.5" />
<rect fill="#EEDDDB" height="24" width="74.15625" x="90.5" y="330.5" />
<rect fill="none" height="24" stroke="#405C86" stroke-width="3" width="96" x="90.5" y="330.5" />
<text class="register-name" x="80.5" y="342.5">Zt</text>
<text class="intrinsic-name" x="80.5" y="354.5">returns</text>
<text class="register-number" x="10" y="342.5">(3)</text>
<rect fill="#DEE6F1" height="24" width="24" x="414.5" y="150.5" />
<rect fill="#EEDDDB" height="24" width="4.125" x="414.5" y="150.5" />
<rect fill="none" height="24" stroke="#405C86" stroke-width="3" width="24" x="414.5" y="150.5" />
<text class="memory-name" x="411.5" y="162.5">Xn+off0</text>
<rect fill="#DEE6F1" height="24" width="24" x="318.5" y="186.5" />
<rect fill="#EEDDDB" height="24" width="4.125" x="318.5" y="186.5" />
<rect fill="none" height="24" stroke="#405C86" stroke-width="3" width="24" x="318.5" y="186.5" />
<text class="memory-name" x="315.5" y="198.5">Xn+off1</text>
<rect fill="#DEE6F1" height="24" width="24" x="222.5" y="222.5" />
<rect fill="#EEDDDB" height="24" width="4.125" x="222.5" y="222.5" />
<rect fill="none" height="24" stroke="#405C86" stroke-width="3" width="24" x="222.5" y="222.5" />
<text class="memory-name" x="219.5" y="234.5">Xn+off2</text>
<rect fill="#DEE6F1" height="24" width="24" x="126.5" y="258.5" />
<rect fill="#EEDDDB" height="24" width="4.125" x="126.5" y="258.5" />
<rect fill="none" height="24" stroke="#405C86" stroke-width="3" width="24" x="126.5" y="258.5" />
<text class="memory-name" x="123.5" y="270.5">Xn+off3</text>
<polyline fill="none" points="381.5 65.5,383.5 61.5,425.5 61.5,426.5 59.5,426.5 55.5,426.5 59.5,427.5 61.5,469.5 61.5,471.5 65.5" stroke="#567DB6" stroke-width="1" />
<line stroke="#567DB6" stroke-width="1" x1="426.5" x2="426.5" y1="43.5" y2="55.5" />
<polyline fill="none" points="285.5 65.5,287.5 61.5,329.5 61.5,330.5 59.5,330.5 55.5,330.5 59.5,331.5 61.5,373.5 61.5,375.5 65.5" stroke="#567DB6" stroke-width="1" />
<line stroke="#567DB6" stroke-width="1" x1="330.5" x2="330.5" y1="43.5" y2="55.5" />
<polyline fill="none" points="189.5 65.5,191.5 61.5,233.5 61.5,234.5 59.5,234.5 55.5,234.5 59.5,235.5 61.5,277.5 61.5,279.5 65.5" stroke="#567DB6" stroke-width="1" />
<line stroke="#567DB6" stroke-width="1" x1="234.5" x2="234.5" y1="43.5" y2="55.5" />
<polyline fill="none" points="93.5 65.5,95.5 61.5,137.5 61.5,138.5 59.5,138.5 55.5,138.5 59.5,139.5 61.5,181.5 61.5,183.5 65.5" stroke="#567DB6" stroke-width="1" />
<line stroke="#567DB6" stroke-width="1" x1="138.5" x2="138.5" y1="43.5" y2="55.5" />
<line stroke="#567DB6" stroke-dasharray="4 3" stroke-width="1" x1="402.5" x2="399.5" y1="91.5" y2="152.5" />
<line stroke="#567DB6" stroke-dasharray="4 3" stroke-width="1" x1="306.5" x2="303.5" y1="91.5" y2="188.5" />
<line stroke="#567DB6" stroke-dasharray="4 3" stroke-width="1" x1="210.5" x2="207.5" y1="91.5" y2="224.5" />
<line stroke="#567DB6" stroke-dasharray="4 3" stroke-width="1" x1="114.5" x2="111.5" y1="91.5" y2="260.5" />
<line stroke="#567DB6" stroke-width="1" x1="426.5" x2="463.578125" y1="175.5" y2="329" />
<line stroke="#567DB6" stroke-width="1" x1="330.5" x2="367.578125" y1="211.5" y2="329" />
<line stroke="#567DB6" stroke-width="1" x1="234.5" x2="271.578125" y1="247.5" y2="329" />
<line stroke="#567DB6" stroke-width="1" x1="138.5" x2="175.578125" y1="283.5" y2="329" />
<text class="title-left" x="73.5" y="136.5">specify memory locations of signed 8-bit values</text>
<text class="title-left" x="73.5" y="148.5">off is offset in bytes</text>
<line marker-end="url(#arrowhead)" stroke="none" stroke-dasharray="4 3" x1="402.5" x2="399.5" y1="91.5" y2="152.5" />
<line marker-end="url(#arrowhead)" stroke="none" stroke-dasharray="4 3" x1="306.5" x2="303.5" y1="91.5" y2="188.5" />
<line marker-end="url(#arrowhead)" stroke="none" stroke-dasharray="4 3" x1="210.5" x2="207.5" y1="91.5" y2="224.5" />
<line marker-end="url(#arrowhead)" stroke="none" stroke-dasharray="4 3" x1="114.5" x2="111.5" y1="91.5" y2="260.5" />
<line marker-end="url(#arrowhead)" stroke="none" x1="426.5" x2="463.578125" y1="175.5" y2="329" />
<line marker-end="url(#arrowhead)" stroke="none" x1="330.5" x2="367.578125" y1="211.5" y2="329" />
<line marker-end="url(#arrowhead)" stroke="none" x1="234.5" x2="271.578125" y1="247.5" y2="329" />
<line marker-end="url(#arrowhead)" stroke="none" x1="138.5" x2="175.578125" y1="283.5" y2="329" />
</svg>