<svg xmlns="http://www.w3.org/2000/svg" viewBox="0 0 6246 123">
<style>
.label { font: 14px Helvetica; dominant-baseline: middle; text-anchor: middle; }
.title-left { font: 12px Helvetica; dominant-baseline: middle; }
.title-right { font: 12px Helvetica; dominant-baseline: middle; text-anchor: end; }
.title-intrinsic { font: 12px Helvetica; dominant-baseline: middle; text-anchor: middle; fill: #6778ED; }
.title { font: 12px Helvetica; dominant-baseline: middle; text-anchor: middle; }
.title-unused { font: 12px Helvetica; dominant-baseline: middle; text-anchor: middle; fill: #AAA; }
.register-name { font: 14px Helvetica; dominant-baseline: middle; text-anchor: end; font-style: italic; }
.memory-name { font: 14px Helvetica; dominant-baseline: middle; text-anchor: end; }
.register-number { font: 14px Helvetica; dominant-baseline: middle; text-anchor: start; }
.intrinsic-name { font: 14px Helvetica; dominant-baseline: middle; text-anchor: end; fill: #6778ED; }
.intrinsic-color { fill: #6778ED; }
.small-label { font: 12px Helvetica; dominant-baseline: middle; text-anchor: middle; }
.label-10px { font: 10px Helvetica; dominant-baseline: middle; text-anchor: middle; }
.smaller-label { font: 9px Helvetica; dominant-baseline: middle; text-anchor: middle; }
.label-6px { font: 6px Helvetica; dominant-baseline: middle; text-anchor: middle; }
.label-7px { font: 7px Helvetica; dominant-baseline: middle; text-anchor: middle; }
.unused { fill: #AAA; }
.dim { fill: #888; }
</style>
<defs>
<marker id="arrowhead" markerWidth="10.75" markerHeight="24.5" refX="9.0" refY="6.125" orient="auto">
<polyline points="0.5 0.5, 8.75 6.125, 0.5 11.75" stroke="#567DB6" stroke-width="1" fill="none"/>
</marker>
</defs>
<line stroke="#567DB6" stroke-width="1" x1="3534.5" x2="6223.4140625" y1="43.5" y2="89" />
<line stroke="#567DB6" stroke-width="1" x1="3510.5" x2="6031.4140625" y1="43.5" y2="89" />
<line stroke="#567DB6" stroke-width="1" x1="3486.5" x2="5839.4140625" y1="43.5" y2="89" />
<line stroke="#567DB6" stroke-width="1" x1="3462.5" x2="5647.4140625" y1="43.5" y2="89" />
<line stroke="#567DB6" stroke-width="1" x1="3438.5" x2="5455.4140625" y1="43.5" y2="89" />
<line stroke="#567DB6" stroke-width="1" x1="3414.5" x2="5263.4140625" y1="43.5" y2="89" />
<line stroke="#567DB6" stroke-width="1" x1="3390.5" x2="5071.4140625" y1="43.5" y2="89" />
<line stroke="#567DB6" stroke-width="1" x1="3366.5" x2="4879.4140625" y1="43.5" y2="89" />
<line stroke="#567DB6" stroke-width="1" x1="3342.5" x2="4687.4140625" y1="43.5" y2="89" />
<line stroke="#567DB6" stroke-width="1" x1="3318.5" x2="4495.4140625" y1="43.5" y2="89" />
<line stroke="#567DB6" stroke-width="1" x1="3294.5" x2="4303.4140625" y1="43.5" y2="89" />
<line stroke="#567DB6" stroke-width="1" x1="3270.5" x2="4111.4140625" y1="43.5" y2="89" />
<line stroke="#567DB6" stroke-width="1" x1="3246.5" x2="3919.4140625" y1="43.5" y2="89" />
<line stroke="#567DB6" stroke-width="1" x1="3222.5" x2="3727.4140625" y1="43.5" y2="89" />
<line stroke="#567DB6" stroke-width="1" x1="3198.5" x2="3535.4140625" y1="43.5" y2="89" />
<line stroke="#567DB6" stroke-width="1" x1="3174.5" x2="3343.4140625" y1="43.5" y2="89" />
<line stroke="#567DB6" stroke-width="1" x1="3150.5" x2="3151.4140625" y1="43.5" y2="89" />
<line stroke="#567DB6" stroke-width="1" x1="3126.5" x2="2959.4140625" y1="43.5" y2="89" />
<line stroke="#567DB6" stroke-width="1" x1="3102.5" x2="2767.4140625" y1="43.5" y2="89" />
<line stroke="#567DB6" stroke-width="1" x1="3078.5" x2="2575.4140625" y1="43.5" y2="89" />
<line stroke="#567DB6" stroke-width="1" x1="3054.5" x2="2383.4140625" y1="43.5" y2="89" />
<line stroke="#567DB6" stroke-width="1" x1="3030.5" x2="2191.4140625" y1="43.5" y2="89" />
<line stroke="#567DB6" stroke-width="1" x1="3006.5" x2="1999.4140625" y1="43.5" y2="89" />
<line stroke="#567DB6" stroke-width="1" x1="2982.5" x2="1807.4140625" y1="43.5" y2="89" />
<line stroke="#567DB6" stroke-width="1" x1="2958.5" x2="1615.4140625" y1="43.5" y2="89" />
<line stroke="#567DB6" stroke-width="1" x1="2934.5" x2="1423.4140625" y1="43.5" y2="89" />
<line stroke="#567DB6" stroke-width="1" x1="2910.5" x2="1231.4140625" y1="43.5" y2="89" />
<line stroke="#567DB6" stroke-width="1" x1="2886.5" x2="1039.4140625" y1="43.5" y2="89" />
<line stroke="#567DB6" stroke-width="1" x1="2862.5" x2="847.4140625" y1="43.5" y2="89" />
<line stroke="#567DB6" stroke-width="1" x1="2838.5" x2="655.4140625" y1="43.5" y2="89" />
<line stroke="#567DB6" stroke-width="1" x1="2814.5" x2="463.4140625" y1="43.5" y2="89" />
<line stroke="#567DB6" stroke-width="1" x1="2790.5" x2="271.4140625" y1="43.5" y2="89" />
<text class="title-left" x="90.5" y="9.5">upper</text>
<text class="title-right" x="6234.5" y="9.5">lower</text>
<rect fill="#DEE6F1" height="24" width="19.875" x="3526.625" y="18.5" />
<rect fill="#EEDDDB" height="24" width="4.125" x="3522.5" y="18.5" />
<rect fill="none" height="24" stroke="#405C86" stroke-width="3" width="24" x="3522.5" y="18.5" />
<text class="smaller-label intrinsic-color" x="3534.5" y="31.5">b[0]</text>
<rect fill="#DEE6F1" height="24" width="19.875" x="3502.625" y="18.5" />
<rect fill="#EEDDDB" height="24" width="4.125" x="3498.5" y="18.5" />
<rect fill="none" height="24" stroke="#405C86" stroke-width="3" width="24" x="3498.5" y="18.5" />
<text class="smaller-label intrinsic-color" x="3510.5" y="31.5">b[1]</text>
<rect fill="#DEE6F1" height="24" width="19.875" x="3478.625" y="18.5" />
<rect fill="#EEDDDB" height="24" width="4.125" x="3474.5" y="18.5" />
<rect fill="none" height="24" stroke="#405C86" stroke-width="3" width="24" x="3474.5" y="18.5" />
<text class="smaller-label intrinsic-color" x="3486.5" y="31.5">b[2]</text>
<rect fill="#DEE6F1" height="24" width="19.875" x="3454.625" y="18.5" />
<rect fill="#EEDDDB" height="24" width="4.125" x="3450.5" y="18.5" />
<rect fill="none" height="24" stroke="#405C86" stroke-width="3" width="24" x="3450.5" y="18.5" />
<text class="smaller-label intrinsic-color" x="3462.5" y="31.5">b[3]</text>
<rect fill="#DEE6F1" height="24" width="19.875" x="3430.625" y="18.5" />
<rect fill="#EEDDDB" height="24" width="4.125" x="3426.5" y="18.5" />
<rect fill="none" height="24" stroke="#405C86" stroke-width="3" width="24" x="3426.5" y="18.5" />
<text class="smaller-label intrinsic-color" x="3438.5" y="31.5">b[4]</text>
<rect fill="#DEE6F1" height="24" width="19.875" x="3406.625" y="18.5" />
<rect fill="#EEDDDB" height="24" width="4.125" x="3402.5" y="18.5" />
<rect fill="none" height="24" stroke="#405C86" stroke-width="3" width="24" x="3402.5" y="18.5" />
<text class="smaller-label intrinsic-color" x="3414.5" y="31.5">b[5]</text>
<rect fill="#DEE6F1" height="24" width="19.875" x="3382.625" y="18.5" />
<rect fill="#EEDDDB" height="24" width="4.125" x="3378.5" y="18.5" />
<rect fill="none" height="24" stroke="#405C86" stroke-width="3" width="24" x="3378.5" y="18.5" />
<text class="smaller-label intrinsic-color" x="3390.5" y="31.5">b[6]</text>
<rect fill="#DEE6F1" height="24" width="19.875" x="3358.625" y="18.5" />
<rect fill="#EEDDDB" height="24" width="4.125" x="3354.5" y="18.5" />
<rect fill="none" height="24" stroke="#405C86" stroke-width="3" width="24" x="3354.5" y="18.5" />
<text class="smaller-label intrinsic-color" x="3366.5" y="31.5">b[7]</text>
<rect fill="#DEE6F1" height="24" width="19.875" x="3334.625" y="18.5" />
<rect fill="#EEDDDB" height="24" width="4.125" x="3330.5" y="18.5" />
<rect fill="none" height="24" stroke="#405C86" stroke-width="3" width="24" x="3330.5" y="18.5" />
<text class="smaller-label intrinsic-color" x="3342.5" y="31.5">b[8]</text>
<rect fill="#DEE6F1" height="24" width="19.875" x="3310.625" y="18.5" />
<rect fill="#EEDDDB" height="24" width="4.125" x="3306.5" y="18.5" />
<rect fill="none" height="24" stroke="#405C86" stroke-width="3" width="24" x="3306.5" y="18.5" />
<text class="smaller-label intrinsic-color" x="3318.5" y="31.5">b[9]</text>
<rect fill="#DEE6F1" height="24" width="19.875" x="3286.625" y="18.5" />
<rect fill="#EEDDDB" height="24" width="4.125" x="3282.5" y="18.5" />
<rect fill="none" height="24" stroke="#405C86" stroke-width="3" width="24" x="3282.5" y="18.5" />
<text class="smaller-label intrinsic-color" x="3294.5" y="31.5">b[10]</text>
<rect fill="#DEE6F1" height="24" width="19.875" x="3262.625" y="18.5" />
<rect fill="#EEDDDB" height="24" width="4.125" x="3258.5" y="18.5" />
<rect fill="none" height="24" stroke="#405C86" stroke-width="3" width="24" x="3258.5" y="18.5" />
<text class="smaller-label intrinsic-color" x="3270.5" y="31.5">b[11]</text>
<rect fill="#DEE6F1" height="24" width="19.875" x="3238.625" y="18.5" />
<rect fill="#EEDDDB" height="24" width="4.125" x="3234.5" y="18.5" />
<rect fill="none" height="24" stroke="#405C86" stroke-width="3" width="24" x="3234.5" y="18.5" />
<text class="smaller-label intrinsic-color" x="3246.5" y="31.5">b[12]</text>
<rect fill="#DEE6F1" height="24" width="19.875" x="3214.625" y="18.5" />
<rect fill="#EEDDDB" height="24" width="4.125" x="3210.5" y="18.5" />
<rect fill="none" height="24" stroke="#405C86" stroke-width="3" width="24" x="3210.5" y="18.5" />
<text class="smaller-label intrinsic-color" x="3222.5" y="31.5">b[13]</text>
<rect fill="#DEE6F1" height="24" width="19.875" x="3190.625" y="18.5" />
<rect fill="#EEDDDB" height="24" width="4.125" x="3186.5" y="18.5" />
<rect fill="none" height="24" stroke="#405C86" stroke-width="3" width="24" x="3186.5" y="18.5" />
<text class="smaller-label intrinsic-color" x="3198.5" y="31.5">b[14]</text>
<rect fill="#DEE6F1" height="24" width="19.875" x="3166.625" y="18.5" />
<rect fill="#EEDDDB" height="24" width="4.125" x="3162.5" y="18.5" />
<rect fill="none" height="24" stroke="#405C86" stroke-width="3" width="24" x="3162.5" y="18.5" />
<text class="smaller-label intrinsic-color" x="3174.5" y="31.5">b[15]</text>
<rect fill="#DEE6F1" height="24" width="19.875" x="3142.625" y="18.5" />
<rect fill="#EEDDDB" height="24" width="4.125" x="3138.5" y="18.5" />
<rect fill="none" height="24" stroke="#405C86" stroke-width="3" width="24" x="3138.5" y="18.5" />
<text class="smaller-label intrinsic-color" x="3150.5" y="31.5">b[16]</text>
<rect fill="#DEE6F1" height="24" width="19.875" x="3118.625" y="18.5" />
<rect fill="#EEDDDB" height="24" width="4.125" x="3114.5" y="18.5" />
<rect fill="none" height="24" stroke="#405C86" stroke-width="3" width="24" x="3114.5" y="18.5" />
<text class="smaller-label intrinsic-color" x="3126.5" y="31.5">b[17]</text>
<rect fill="#DEE6F1" height="24" width="19.875" x="3094.625" y="18.5" />
<rect fill="#EEDDDB" height="24" width="4.125" x="3090.5" y="18.5" />
<rect fill="none" height="24" stroke="#405C86" stroke-width="3" width="24" x="3090.5" y="18.5" />
<text class="smaller-label intrinsic-color" x="3102.5" y="31.5">b[18]</text>
<rect fill="#DEE6F1" height="24" width="19.875" x="3070.625" y="18.5" />
<rect fill="#EEDDDB" height="24" width="4.125" x="3066.5" y="18.5" />
<rect fill="none" height="24" stroke="#405C86" stroke-width="3" width="24" x="3066.5" y="18.5" />
<text class="smaller-label intrinsic-color" x="3078.5" y="31.5">b[19]</text>
<rect fill="#DEE6F1" height="24" width="19.875" x="3046.625" y="18.5" />
<rect fill="#EEDDDB" height="24" width="4.125" x="3042.5" y="18.5" />
<rect fill="none" height="24" stroke="#405C86" stroke-width="3" width="24" x="3042.5" y="18.5" />
<text class="smaller-label intrinsic-color" x="3054.5" y="31.5">b[20]</text>
<rect fill="#DEE6F1" height="24" width="19.875" x="3022.625" y="18.5" />
<rect fill="#EEDDDB" height="24" width="4.125" x="3018.5" y="18.5" />
<rect fill="none" height="24" stroke="#405C86" stroke-width="3" width="24" x="3018.5" y="18.5" />
<text class="smaller-label intrinsic-color" x="3030.5" y="31.5">b[21]</text>
<rect fill="#DEE6F1" height="24" width="19.875" x="2998.625" y="18.5" />
<rect fill="#EEDDDB" height="24" width="4.125" x="2994.5" y="18.5" />
<rect fill="none" height="24" stroke="#405C86" stroke-width="3" width="24" x="2994.5" y="18.5" />
<text class="smaller-label intrinsic-color" x="3006.5" y="31.5">b[22]</text>
<rect fill="#DEE6F1" height="24" width="19.875" x="2974.625" y="18.5" />
<rect fill="#EEDDDB" height="24" width="4.125" x="2970.5" y="18.5" />
<rect fill="none" height="24" stroke="#405C86" stroke-width="3" width="24" x="2970.5" y="18.5" />
<text class="smaller-label intrinsic-color" x="2982.5" y="31.5">b[23]</text>
<rect fill="#DEE6F1" height="24" width="19.875" x="2950.625" y="18.5" />
<rect fill="#EEDDDB" height="24" width="4.125" x="2946.5" y="18.5" />
<rect fill="none" height="24" stroke="#405C86" stroke-width="3" width="24" x="2946.5" y="18.5" />
<text class="smaller-label intrinsic-color" x="2958.5" y="31.5">b[24]</text>
<rect fill="#DEE6F1" height="24" width="19.875" x="2926.625" y="18.5" />
<rect fill="#EEDDDB" height="24" width="4.125" x="2922.5" y="18.5" />
<rect fill="none" height="24" stroke="#405C86" stroke-width="3" width="24" x="2922.5" y="18.5" />
<text class="smaller-label intrinsic-color" x="2934.5" y="31.5">b[25]</text>
<rect fill="#DEE6F1" height="24" width="19.875" x="2902.625" y="18.5" />
<rect fill="#EEDDDB" height="24" width="4.125" x="2898.5" y="18.5" />
<rect fill="none" height="24" stroke="#405C86" stroke-width="3" width="24" x="2898.5" y="18.5" />
<text class="smaller-label intrinsic-color" x="2910.5" y="31.5">b[26]</text>
<rect fill="#DEE6F1" height="24" width="19.875" x="2878.625" y="18.5" />
<rect fill="#EEDDDB" height="24" width="4.125" x="2874.5" y="18.5" />
<rect fill="none" height="24" stroke="#405C86" stroke-width="3" width="24" x="2874.5" y="18.5" />
<text class="smaller-label intrinsic-color" x="2886.5" y="31.5">b[27]</text>
<rect fill="#DEE6F1" height="24" width="19.875" x="2854.625" y="18.5" />
<rect fill="#EEDDDB" height="24" width="4.125" x="2850.5" y="18.5" />
<rect fill="none" height="24" stroke="#405C86" stroke-width="3" width="24" x="2850.5" y="18.5" />
<text class="smaller-label intrinsic-color" x="2862.5" y="31.5">b[28]</text>
<rect fill="#DEE6F1" height="24" width="19.875" x="2830.625" y="18.5" />
<rect fill="#EEDDDB" height="24" width="4.125" x="2826.5" y="18.5" />
<rect fill="none" height="24" stroke="#405C86" stroke-width="3" width="24" x="2826.5" y="18.5" />
<text class="smaller-label intrinsic-color" x="2838.5" y="31.5">b[29]</text>
<rect fill="#DEE6F1" height="24" width="19.875" x="2806.625" y="18.5" />
<rect fill="#EEDDDB" height="24" width="4.125" x="2802.5" y="18.5" />
<rect fill="none" height="24" stroke="#405C86" stroke-width="3" width="24" x="2802.5" y="18.5" />
<text class="smaller-label intrinsic-color" x="2814.5" y="31.5">b[30]</text>
<rect fill="#DEE6F1" height="24" width="19.875" x="2782.625" y="18.5" />
<rect fill="#EEDDDB" height="24" width="4.125" x="2778.5" y="18.5" />
<rect fill="none" height="24" stroke="#405C86" stroke-width="3" width="24" x="2778.5" y="18.5" />
<text class="smaller-label intrinsic-color" x="2790.5" y="31.5">b[31]</text>
<text class="register-name" x="80.5" y="30.5">[mem]</text>
<text class="intrinsic-name" x="80.5" y="42.5">*base</text>
<text class="register-number" x="10" y="30.5">(1)</text>
<rect fill="#DEE6F1" height="24" width="22.171875" x="6212.328125" y="90.5" />
<rect fill="#EEDDDB" height="24" width="169.828125" x="6042.5" y="90.5" />
<rect fill="none" height="24" stroke="#405C86" stroke-width="3" width="192" x="6042.5" y="90.5" />
<rect fill="#DEE6F1" height="24" width="22.171875" x="6020.328125" y="90.5" />
<rect fill="#EEDDDB" height="24" width="169.828125" x="5850.5" y="90.5" />
<rect fill="none" height="24" stroke="#405C86" stroke-width="3" width="192" x="5850.5" y="90.5" />
<rect fill="#DEE6F1" height="24" width="22.171875" x="5828.328125" y="90.5" />
<rect fill="#EEDDDB" height="24" width="169.828125" x="5658.5" y="90.5" />
<rect fill="none" height="24" stroke="#405C86" stroke-width="3" width="192" x="5658.5" y="90.5" />
<rect fill="#DEE6F1" height="24" width="22.171875" x="5636.328125" y="90.5" />
<rect fill="#EEDDDB" height="24" width="169.828125" x="5466.5" y="90.5" />
<rect fill="none" height="24" stroke="#405C86" stroke-width="3" width="192" x="5466.5" y="90.5" />
<rect fill="#DEE6F1" height="24" width="22.171875" x="5444.328125" y="90.5" />
<rect fill="#EEDDDB" height="24" width="169.828125" x="5274.5" y="90.5" />
<rect fill="none" height="24" stroke="#405C86" stroke-width="3" width="192" x="5274.5" y="90.5" />
<rect fill="#DEE6F1" height="24" width="22.171875" x="5252.328125" y="90.5" />
<rect fill="#EEDDDB" height="24" width="169.828125" x="5082.5" y="90.5" />
<rect fill="none" height="24" stroke="#405C86" stroke-width="3" width="192" x="5082.5" y="90.5" />
<rect fill="#DEE6F1" height="24" width="22.171875" x="5060.328125" y="90.5" />
<rect fill="#EEDDDB" height="24" width="169.828125" x="4890.5" y="90.5" />
<rect fill="none" height="24" stroke="#405C86" stroke-width="3" width="192" x="4890.5" y="90.5" />
<rect fill="#DEE6F1" height="24" width="22.171875" x="4868.328125" y="90.5" />
<rect fill="#EEDDDB" height="24" width="169.828125" x="4698.5" y="90.5" />
<rect fill="none" height="24" stroke="#405C86" stroke-width="3" width="192" x="4698.5" y="90.5" />
<rect fill="#DEE6F1" height="24" width="22.171875" x="4676.328125" y="90.5" />
<rect fill="#EEDDDB" height="24" width="169.828125" x="4506.5" y="90.5" />
<rect fill="none" height="24" stroke="#405C86" stroke-width="3" width="192" x="4506.5" y="90.5" />
<rect fill="#DEE6F1" height="24" width="22.171875" x="4484.328125" y="90.5" />
<rect fill="#EEDDDB" height="24" width="169.828125" x="4314.5" y="90.5" />
<rect fill="none" height="24" stroke="#405C86" stroke-width="3" width="192" x="4314.5" y="90.5" />
<rect fill="#DEE6F1" height="24" width="22.171875" x="4292.328125" y="90.5" />
<rect fill="#EEDDDB" height="24" width="169.828125" x="4122.5" y="90.5" />
<rect fill="none" height="24" stroke="#405C86" stroke-width="3" width="192" x="4122.5" y="90.5" />
<rect fill="#DEE6F1" height="24" width="22.171875" x="4100.328125" y="90.5" />
<rect fill="#EEDDDB" height="24" width="169.828125" x="3930.5" y="90.5" />
<rect fill="none" height="24" stroke="#405C86" stroke-width="3" width="192" x="3930.5" y="90.5" />
<rect fill="#DEE6F1" height="24" width="22.171875" x="3908.328125" y="90.5" />
<rect fill="#EEDDDB" height="24" width="169.828125" x="3738.5" y="90.5" />
<rect fill="none" height="24" stroke="#405C86" stroke-width="3" width="192" x="3738.5" y="90.5" />
<rect fill="#DEE6F1" height="24" width="22.171875" x="3716.328125" y="90.5" />
<rect fill="#EEDDDB" height="24" width="169.828125" x="3546.5" y="90.5" />
<rect fill="none" height="24" stroke="#405C86" stroke-width="3" width="192" x="3546.5" y="90.5" />
<rect fill="#DEE6F1" height="24" width="22.171875" x="3524.328125" y="90.5" />
<rect fill="#EEDDDB" height="24" width="169.828125" x="3354.5" y="90.5" />
<rect fill="none" height="24" stroke="#405C86" stroke-width="3" width="192" x="3354.5" y="90.5" />
<rect fill="#DEE6F1" height="24" width="22.171875" x="3332.328125" y="90.5" />
<rect fill="#EEDDDB" height="24" width="169.828125" x="3162.5" y="90.5" />
<rect fill="none" height="24" stroke="#405C86" stroke-width="3" width="192" x="3162.5" y="90.5" />
<rect fill="#DEE6F1" height="24" width="22.171875" x="3140.328125" y="90.5" />
<rect fill="#EEDDDB" height="24" width="169.828125" x="2970.5" y="90.5" />
<rect fill="none" height="24" stroke="#405C86" stroke-width="3" width="192" x="2970.5" y="90.5" />
<rect fill="#DEE6F1" height="24" width="22.171875" x="2948.328125" y="90.5" />
<rect fill="#EEDDDB" height="24" width="169.828125" x="2778.5" y="90.5" />
<rect fill="none" height="24" stroke="#405C86" stroke-width="3" width="192" x="2778.5" y="90.5" />
<rect fill="#DEE6F1" height="24" width="22.171875" x="2756.328125" y="90.5" />
<rect fill="#EEDDDB" height="24" width="169.828125" x="2586.5" y="90.5" />
<rect fill="none" height="24" stroke="#405C86" stroke-width="3" width="192" x="2586.5" y="90.5" />
<rect fill="#DEE6F1" height="24" width="22.171875" x="2564.328125" y="90.5" />
<rect fill="#EEDDDB" height="24" width="169.828125" x="2394.5" y="90.5" />
<rect fill="none" height="24" stroke="#405C86" stroke-width="3" width="192" x="2394.5" y="90.5" />
<rect fill="#DEE6F1" height="24" width="22.171875" x="2372.328125" y="90.5" />
<rect fill="#EEDDDB" height="24" width="169.828125" x="2202.5" y="90.5" />
<rect fill="none" height="24" stroke="#405C86" stroke-width="3" width="192" x="2202.5" y="90.5" />
<rect fill="#DEE6F1" height="24" width="22.171875" x="2180.328125" y="90.5" />
<rect fill="#EEDDDB" height="24" width="169.828125" x="2010.5" y="90.5" />
<rect fill="none" height="24" stroke="#405C86" stroke-width="3" width="192" x="2010.5" y="90.5" />
<rect fill="#DEE6F1" height="24" width="22.171875" x="1988.328125" y="90.5" />
<rect fill="#EEDDDB" height="24" width="169.828125" x="1818.5" y="90.5" />
<rect fill="none" height="24" stroke="#405C86" stroke-width="3" width="192" x="1818.5" y="90.5" />
<rect fill="#DEE6F1" height="24" width="22.171875" x="1796.328125" y="90.5" />
<rect fill="#EEDDDB" height="24" width="169.828125" x="1626.5" y="90.5" />
<rect fill="none" height="24" stroke="#405C86" stroke-width="3" width="192" x="1626.5" y="90.5" />
<rect fill="#DEE6F1" height="24" width="22.171875" x="1604.328125" y="90.5" />
<rect fill="#EEDDDB" height="24" width="169.828125" x="1434.5" y="90.5" />
<rect fill="none" height="24" stroke="#405C86" stroke-width="3" width="192" x="1434.5" y="90.5" />
<rect fill="#DEE6F1" height="24" width="22.171875" x="1412.328125" y="90.5" />
<rect fill="#EEDDDB" height="24" width="169.828125" x="1242.5" y="90.5" />
<rect fill="none" height="24" stroke="#405C86" stroke-width="3" width="192" x="1242.5" y="90.5" />
<rect fill="#DEE6F1" height="24" width="22.171875" x="1220.328125" y="90.5" />
<rect fill="#EEDDDB" height="24" width="169.828125" x="1050.5" y="90.5" />
<rect fill="none" height="24" stroke="#405C86" stroke-width="3" width="192" x="1050.5" y="90.5" />
<rect fill="#DEE6F1" height="24" width="22.171875" x="1028.328125" y="90.5" />
<rect fill="#EEDDDB" height="24" width="169.828125" x="858.5" y="90.5" />
<rect fill="none" height="24" stroke="#405C86" stroke-width="3" width="192" x="858.5" y="90.5" />
<rect fill="#DEE6F1" height="24" width="22.171875" x="836.328125" y="90.5" />
<rect fill="#EEDDDB" height="24" width="169.828125" x="666.5" y="90.5" />
<rect fill="none" height="24" stroke="#405C86" stroke-width="3" width="192" x="666.5" y="90.5" />
<rect fill="#DEE6F1" height="24" width="22.171875" x="644.328125" y="90.5" />
<rect fill="#EEDDDB" height="24" width="169.828125" x="474.5" y="90.5" />
<rect fill="none" height="24" stroke="#405C86" stroke-width="3" width="192" x="474.5" y="90.5" />
<rect fill="#DEE6F1" height="24" width="22.171875" x="452.328125" y="90.5" />
<rect fill="#EEDDDB" height="24" width="169.828125" x="282.5" y="90.5" />
<rect fill="none" height="24" stroke="#405C86" stroke-width="3" width="192" x="282.5" y="90.5" />
<rect fill="#DEE6F1" height="24" width="22.171875" x="260.328125" y="90.5" />
<rect fill="#EEDDDB" height="24" width="169.828125" x="90.5" y="90.5" />
<rect fill="none" height="24" stroke="#405C86" stroke-width="3" width="192" x="90.5" y="90.5" />
<text class="register-name" x="80.5" y="102.5">Zt</text>
<text class="intrinsic-name" x="80.5" y="114.5">returns</text>
<text class="register-number" x="10" y="102.5">(2)</text>
<line marker-end="url(#arrowhead)" stroke="none" x1="3534.5" x2="6223.4140625" y1="43.5" y2="89" />
<line marker-end="url(#arrowhead)" stroke="none" x1="3510.5" x2="6031.4140625" y1="43.5" y2="89" />
<line marker-end="url(#arrowhead)" stroke="none" x1="3486.5" x2="5839.4140625" y1="43.5" y2="89" />
<line marker-end="url(#arrowhead)" stroke="none" x1="3462.5" x2="5647.4140625" y1="43.5" y2="89" />
<line marker-end="url(#arrowhead)" stroke="none" x1="3438.5" x2="5455.4140625" y1="43.5" y2="89" />
<line marker-end="url(#arrowhead)" stroke="none" x1="3414.5" x2="5263.4140625" y1="43.5" y2="89" />
<line marker-end="url(#arrowhead)" stroke="none" x1="3390.5" x2="5071.4140625" y1="43.5" y2="89" />
<line marker-end="url(#arrowhead)" stroke="none" x1="3366.5" x2="4879.4140625" y1="43.5" y2="89" />
<line marker-end="url(#arrowhead)" stroke="none" x1="3342.5" x2="4687.4140625" y1="43.5" y2="89" />
<line marker-end="url(#arrowhead)" stroke="none" x1="3318.5" x2="4495.4140625" y1="43.5" y2="89" />
<line marker-end="url(#arrowhead)" stroke="none" x1="3294.5" x2="4303.4140625" y1="43.5" y2="89" />
<line marker-end="url(#arrowhead)" stroke="none" x1="3270.5" x2="4111.4140625" y1="43.5" y2="89" />
<line marker-end="url(#arrowhead)" stroke="none" x1="3246.5" x2="3919.4140625" y1="43.5" y2="89" />
<line marker-end="url(#arrowhead)" stroke="none" x1="3222.5" x2="3727.4140625" y1="43.5" y2="89" />
<line marker-end="url(#arrowhead)" stroke="none" x1="3198.5" x2="3535.4140625" y1="43.5" y2="89" />
<line marker-end="url(#arrowhead)" stroke="none" x1="3174.5" x2="3343.4140625" y1="43.5" y2="89" />
<line marker-end="url(#arrowhead)" stroke="none" x1="3150.5" x2="3151.4140625" y1="43.5" y2="89" />
<line marker-end="url(#arrowhead)" stroke="none" x1="3126.5" x2="2959.4140625" y1="43.5" y2="89" />
<line marker-end="url(#arrowhead)" stroke="none" x1="3102.5" x2="2767.4140625" y1="43.5" y2="89" />
<line marker-end="url(#arrowhead)" stroke="none" x1="3078.5" x2="2575.4140625" y1="43.5" y2="89" />
<line marker-end="url(#arrowhead)" stroke="none" x1="3054.5" x2="2383.4140625" y1="43.5" y2="89" />
<line marker-end="url(#arrowhead)" stroke="none" x1="3030.5" x2="2191.4140625" y1="43.5" y2="89" />
<line marker-end="url(#arrowhead)" stroke="none" x1="3006.5" x2="1999.4140625" y1="43.5" y2="89" />
<line marker-end="url(#arrowhead)" stroke="none" x1="2982.5" x2="1807.4140625" y1="43.5" y2="89" />
<line marker-end="url(#arrowhead)" stroke="none" x1="2958.5" x2="1615.4140625" y1="43.5" y2="89" />
<line marker-end="url(#arrowhead)" stroke="none" x1="2934.5" x2="1423.4140625" y1="43.5" y2="89" />
<line marker-end="url(#arrowhead)" stroke="none" x1="2910.5" x2="1231.4140625" y1="43.5" y2="89" />
<line marker-end="url(#arrowhead)" stroke="none" x1="2886.5" x2="1039.4140625" y1="43.5" y2="89" />
<line marker-end="url(#arrowhead)" stroke="none" x1="2862.5" x2="847.4140625" y1="43.5" y2="89" />
<line marker-end="url(#arrowhead)" stroke="none" x1="2838.5" x2="655.4140625" y1="43.5" y2="89" />
<line marker-end="url(#arrowhead)" stroke="none" x1="2814.5" x2="463.4140625" y1="43.5" y2="89" />
<line marker-end="url(#arrowhead)" stroke="none" x1="2790.5" x2="271.4140625" y1="43.5" y2="89" />
</svg>