<svg xmlns="http://www.w3.org/2000/svg" viewBox="0 0 3174 123">
<style>
.label { font: 14px Helvetica; dominant-baseline: middle; text-anchor: middle; }
.title-left { font: 12px Helvetica; dominant-baseline: middle; }
.title-right { font: 12px Helvetica; dominant-baseline: middle; text-anchor: end; }
.title-intrinsic { font: 12px Helvetica; dominant-baseline: middle; text-anchor: middle; fill: #6778ED; }
.title { font: 12px Helvetica; dominant-baseline: middle; text-anchor: middle; }
.title-unused { font: 12px Helvetica; dominant-baseline: middle; text-anchor: middle; fill: #AAA; }
.register-name { font: 14px Helvetica; dominant-baseline: middle; text-anchor: end; font-style: italic; }
.memory-name { font: 14px Helvetica; dominant-baseline: middle; text-anchor: end; }
.register-number { font: 14px Helvetica; dominant-baseline: middle; text-anchor: start; }
.intrinsic-name { font: 14px Helvetica; dominant-baseline: middle; text-anchor: end; fill: #6778ED; }
.intrinsic-color { fill: #6778ED; }
.small-label { font: 12px Helvetica; dominant-baseline: middle; text-anchor: middle; }
.label-10px { font: 10px Helvetica; dominant-baseline: middle; text-anchor: middle; }
.smaller-label { font: 9px Helvetica; dominant-baseline: middle; text-anchor: middle; }
.label-6px { font: 6px Helvetica; dominant-baseline: middle; text-anchor: middle; }
.label-7px { font: 7px Helvetica; dominant-baseline: middle; text-anchor: middle; }
.unused { fill: #AAA; }
.dim { fill: #888; }
</style>
<defs>
<marker id="arrowhead" markerWidth="10.75" markerHeight="24.5" refX="9.0" refY="6.125" orient="auto">
<polyline points="0.5 0.5, 8.75 6.125, 0.5 11.75" stroke="#567DB6" stroke-width="1" fill="none"/>
</marker>
</defs>
<line stroke="#567DB6" stroke-width="1" x1="1998.5" x2="3151.578125" y1="43.5" y2="89" />
<line stroke="#567DB6" stroke-width="1" x1="1974.5" x2="3055.578125" y1="43.5" y2="89" />
<line stroke="#567DB6" stroke-width="1" x1="1950.5" x2="2959.578125" y1="43.5" y2="89" />
<line stroke="#567DB6" stroke-width="1" x1="1926.5" x2="2863.578125" y1="43.5" y2="89" />
<line stroke="#567DB6" stroke-width="1" x1="1902.5" x2="2767.578125" y1="43.5" y2="89" />
<line stroke="#567DB6" stroke-width="1" x1="1878.5" x2="2671.578125" y1="43.5" y2="89" />
<line stroke="#567DB6" stroke-width="1" x1="1854.5" x2="2575.578125" y1="43.5" y2="89" />
<line stroke="#567DB6" stroke-width="1" x1="1830.5" x2="2479.578125" y1="43.5" y2="89" />
<line stroke="#567DB6" stroke-width="1" x1="1806.5" x2="2383.578125" y1="43.5" y2="89" />
<line stroke="#567DB6" stroke-width="1" x1="1782.5" x2="2287.578125" y1="43.5" y2="89" />
<line stroke="#567DB6" stroke-width="1" x1="1758.5" x2="2191.578125" y1="43.5" y2="89" />
<line stroke="#567DB6" stroke-width="1" x1="1734.5" x2="2095.578125" y1="43.5" y2="89" />
<line stroke="#567DB6" stroke-width="1" x1="1710.5" x2="1999.578125" y1="43.5" y2="89" />
<line stroke="#567DB6" stroke-width="1" x1="1686.5" x2="1903.578125" y1="43.5" y2="89" />
<line stroke="#567DB6" stroke-width="1" x1="1662.5" x2="1807.578125" y1="43.5" y2="89" />
<line stroke="#567DB6" stroke-width="1" x1="1638.5" x2="1711.578125" y1="43.5" y2="89" />
<line stroke="#567DB6" stroke-width="1" x1="1614.5" x2="1615.578125" y1="43.5" y2="89" />
<line stroke="#567DB6" stroke-width="1" x1="1590.5" x2="1519.578125" y1="43.5" y2="89" />
<line stroke="#567DB6" stroke-width="1" x1="1566.5" x2="1423.578125" y1="43.5" y2="89" />
<line stroke="#567DB6" stroke-width="1" x1="1542.5" x2="1327.578125" y1="43.5" y2="89" />
<line stroke="#567DB6" stroke-width="1" x1="1518.5" x2="1231.578125" y1="43.5" y2="89" />
<line stroke="#567DB6" stroke-width="1" x1="1494.5" x2="1135.578125" y1="43.5" y2="89" />
<line stroke="#567DB6" stroke-width="1" x1="1470.5" x2="1039.578125" y1="43.5" y2="89" />
<line stroke="#567DB6" stroke-width="1" x1="1446.5" x2="943.578125" y1="43.5" y2="89" />
<line stroke="#567DB6" stroke-width="1" x1="1422.5" x2="847.578125" y1="43.5" y2="89" />
<line stroke="#567DB6" stroke-width="1" x1="1398.5" x2="751.578125" y1="43.5" y2="89" />
<line stroke="#567DB6" stroke-width="1" x1="1374.5" x2="655.578125" y1="43.5" y2="89" />
<line stroke="#567DB6" stroke-width="1" x1="1350.5" x2="559.578125" y1="43.5" y2="89" />
<line stroke="#567DB6" stroke-width="1" x1="1326.5" x2="463.578125" y1="43.5" y2="89" />
<line stroke="#567DB6" stroke-width="1" x1="1302.5" x2="367.578125" y1="43.5" y2="89" />
<line stroke="#567DB6" stroke-width="1" x1="1278.5" x2="271.578125" y1="43.5" y2="89" />
<line stroke="#567DB6" stroke-width="1" x1="1254.5" x2="175.578125" y1="43.5" y2="89" />
<text class="title-left" x="90.5" y="9.5">upper</text>
<text class="title-right" x="3162.5" y="9.5">lower</text>
<rect fill="#DEE6F1" height="24" width="19.875" x="1990.625" y="18.5" />
<rect fill="#EEDDDB" height="24" width="4.125" x="1986.5" y="18.5" />
<rect fill="none" height="24" stroke="#405C86" stroke-width="3" width="24" x="1986.5" y="18.5" />
<text class="smaller-label intrinsic-color" x="1998.5" y="31.5">b[0]</text>
<rect fill="#DEE6F1" height="24" width="19.875" x="1966.625" y="18.5" />
<rect fill="#EEDDDB" height="24" width="4.125" x="1962.5" y="18.5" />
<rect fill="none" height="24" stroke="#405C86" stroke-width="3" width="24" x="1962.5" y="18.5" />
<text class="smaller-label intrinsic-color" x="1974.5" y="31.5">b[1]</text>
<rect fill="#DEE6F1" height="24" width="19.875" x="1942.625" y="18.5" />
<rect fill="#EEDDDB" height="24" width="4.125" x="1938.5" y="18.5" />
<rect fill="none" height="24" stroke="#405C86" stroke-width="3" width="24" x="1938.5" y="18.5" />
<text class="smaller-label intrinsic-color" x="1950.5" y="31.5">b[2]</text>
<rect fill="#DEE6F1" height="24" width="19.875" x="1918.625" y="18.5" />
<rect fill="#EEDDDB" height="24" width="4.125" x="1914.5" y="18.5" />
<rect fill="none" height="24" stroke="#405C86" stroke-width="3" width="24" x="1914.5" y="18.5" />
<text class="smaller-label intrinsic-color" x="1926.5" y="31.5">b[3]</text>
<rect fill="#DEE6F1" height="24" width="19.875" x="1894.625" y="18.5" />
<rect fill="#EEDDDB" height="24" width="4.125" x="1890.5" y="18.5" />
<rect fill="none" height="24" stroke="#405C86" stroke-width="3" width="24" x="1890.5" y="18.5" />
<text class="smaller-label intrinsic-color" x="1902.5" y="31.5">b[4]</text>
<rect fill="#DEE6F1" height="24" width="19.875" x="1870.625" y="18.5" />
<rect fill="#EEDDDB" height="24" width="4.125" x="1866.5" y="18.5" />
<rect fill="none" height="24" stroke="#405C86" stroke-width="3" width="24" x="1866.5" y="18.5" />
<text class="smaller-label intrinsic-color" x="1878.5" y="31.5">b[5]</text>
<rect fill="#DEE6F1" height="24" width="19.875" x="1846.625" y="18.5" />
<rect fill="#EEDDDB" height="24" width="4.125" x="1842.5" y="18.5" />
<rect fill="none" height="24" stroke="#405C86" stroke-width="3" width="24" x="1842.5" y="18.5" />
<text class="smaller-label intrinsic-color" x="1854.5" y="31.5">b[6]</text>
<rect fill="#DEE6F1" height="24" width="19.875" x="1822.625" y="18.5" />
<rect fill="#EEDDDB" height="24" width="4.125" x="1818.5" y="18.5" />
<rect fill="none" height="24" stroke="#405C86" stroke-width="3" width="24" x="1818.5" y="18.5" />
<text class="smaller-label intrinsic-color" x="1830.5" y="31.5">b[7]</text>
<rect fill="#DEE6F1" height="24" width="19.875" x="1798.625" y="18.5" />
<rect fill="#EEDDDB" height="24" width="4.125" x="1794.5" y="18.5" />
<rect fill="none" height="24" stroke="#405C86" stroke-width="3" width="24" x="1794.5" y="18.5" />
<text class="smaller-label intrinsic-color" x="1806.5" y="31.5">b[8]</text>
<rect fill="#DEE6F1" height="24" width="19.875" x="1774.625" y="18.5" />
<rect fill="#EEDDDB" height="24" width="4.125" x="1770.5" y="18.5" />
<rect fill="none" height="24" stroke="#405C86" stroke-width="3" width="24" x="1770.5" y="18.5" />
<text class="smaller-label intrinsic-color" x="1782.5" y="31.5">b[9]</text>
<rect fill="#DEE6F1" height="24" width="19.875" x="1750.625" y="18.5" />
<rect fill="#EEDDDB" height="24" width="4.125" x="1746.5" y="18.5" />
<rect fill="none" height="24" stroke="#405C86" stroke-width="3" width="24" x="1746.5" y="18.5" />
<text class="smaller-label intrinsic-color" x="1758.5" y="31.5">b[10]</text>
<rect fill="#DEE6F1" height="24" width="19.875" x="1726.625" y="18.5" />
<rect fill="#EEDDDB" height="24" width="4.125" x="1722.5" y="18.5" />
<rect fill="none" height="24" stroke="#405C86" stroke-width="3" width="24" x="1722.5" y="18.5" />
<text class="smaller-label intrinsic-color" x="1734.5" y="31.5">b[11]</text>
<rect fill="#DEE6F1" height="24" width="19.875" x="1702.625" y="18.5" />
<rect fill="#EEDDDB" height="24" width="4.125" x="1698.5" y="18.5" />
<rect fill="none" height="24" stroke="#405C86" stroke-width="3" width="24" x="1698.5" y="18.5" />
<text class="smaller-label intrinsic-color" x="1710.5" y="31.5">b[12]</text>
<rect fill="#DEE6F1" height="24" width="19.875" x="1678.625" y="18.5" />
<rect fill="#EEDDDB" height="24" width="4.125" x="1674.5" y="18.5" />
<rect fill="none" height="24" stroke="#405C86" stroke-width="3" width="24" x="1674.5" y="18.5" />
<text class="smaller-label intrinsic-color" x="1686.5" y="31.5">b[13]</text>
<rect fill="#DEE6F1" height="24" width="19.875" x="1654.625" y="18.5" />
<rect fill="#EEDDDB" height="24" width="4.125" x="1650.5" y="18.5" />
<rect fill="none" height="24" stroke="#405C86" stroke-width="3" width="24" x="1650.5" y="18.5" />
<text class="smaller-label intrinsic-color" x="1662.5" y="31.5">b[14]</text>
<rect fill="#DEE6F1" height="24" width="19.875" x="1630.625" y="18.5" />
<rect fill="#EEDDDB" height="24" width="4.125" x="1626.5" y="18.5" />
<rect fill="none" height="24" stroke="#405C86" stroke-width="3" width="24" x="1626.5" y="18.5" />
<text class="smaller-label intrinsic-color" x="1638.5" y="31.5">b[15]</text>
<rect fill="#DEE6F1" height="24" width="19.875" x="1606.625" y="18.5" />
<rect fill="#EEDDDB" height="24" width="4.125" x="1602.5" y="18.5" />
<rect fill="none" height="24" stroke="#405C86" stroke-width="3" width="24" x="1602.5" y="18.5" />
<text class="smaller-label intrinsic-color" x="1614.5" y="31.5">b[16]</text>
<rect fill="#DEE6F1" height="24" width="19.875" x="1582.625" y="18.5" />
<rect fill="#EEDDDB" height="24" width="4.125" x="1578.5" y="18.5" />
<rect fill="none" height="24" stroke="#405C86" stroke-width="3" width="24" x="1578.5" y="18.5" />
<text class="smaller-label intrinsic-color" x="1590.5" y="31.5">b[17]</text>
<rect fill="#DEE6F1" height="24" width="19.875" x="1558.625" y="18.5" />
<rect fill="#EEDDDB" height="24" width="4.125" x="1554.5" y="18.5" />
<rect fill="none" height="24" stroke="#405C86" stroke-width="3" width="24" x="1554.5" y="18.5" />
<text class="smaller-label intrinsic-color" x="1566.5" y="31.5">b[18]</text>
<rect fill="#DEE6F1" height="24" width="19.875" x="1534.625" y="18.5" />
<rect fill="#EEDDDB" height="24" width="4.125" x="1530.5" y="18.5" />
<rect fill="none" height="24" stroke="#405C86" stroke-width="3" width="24" x="1530.5" y="18.5" />
<text class="smaller-label intrinsic-color" x="1542.5" y="31.5">b[19]</text>
<rect fill="#DEE6F1" height="24" width="19.875" x="1510.625" y="18.5" />
<rect fill="#EEDDDB" height="24" width="4.125" x="1506.5" y="18.5" />
<rect fill="none" height="24" stroke="#405C86" stroke-width="3" width="24" x="1506.5" y="18.5" />
<text class="smaller-label intrinsic-color" x="1518.5" y="31.5">b[20]</text>
<rect fill="#DEE6F1" height="24" width="19.875" x="1486.625" y="18.5" />
<rect fill="#EEDDDB" height="24" width="4.125" x="1482.5" y="18.5" />
<rect fill="none" height="24" stroke="#405C86" stroke-width="3" width="24" x="1482.5" y="18.5" />
<text class="smaller-label intrinsic-color" x="1494.5" y="31.5">b[21]</text>
<rect fill="#DEE6F1" height="24" width="19.875" x="1462.625" y="18.5" />
<rect fill="#EEDDDB" height="24" width="4.125" x="1458.5" y="18.5" />
<rect fill="none" height="24" stroke="#405C86" stroke-width="3" width="24" x="1458.5" y="18.5" />
<text class="smaller-label intrinsic-color" x="1470.5" y="31.5">b[22]</text>
<rect fill="#DEE6F1" height="24" width="19.875" x="1438.625" y="18.5" />
<rect fill="#EEDDDB" height="24" width="4.125" x="1434.5" y="18.5" />
<rect fill="none" height="24" stroke="#405C86" stroke-width="3" width="24" x="1434.5" y="18.5" />
<text class="smaller-label intrinsic-color" x="1446.5" y="31.5">b[23]</text>
<rect fill="#DEE6F1" height="24" width="19.875" x="1414.625" y="18.5" />
<rect fill="#EEDDDB" height="24" width="4.125" x="1410.5" y="18.5" />
<rect fill="none" height="24" stroke="#405C86" stroke-width="3" width="24" x="1410.5" y="18.5" />
<text class="smaller-label intrinsic-color" x="1422.5" y="31.5">b[24]</text>
<rect fill="#DEE6F1" height="24" width="19.875" x="1390.625" y="18.5" />
<rect fill="#EEDDDB" height="24" width="4.125" x="1386.5" y="18.5" />
<rect fill="none" height="24" stroke="#405C86" stroke-width="3" width="24" x="1386.5" y="18.5" />
<text class="smaller-label intrinsic-color" x="1398.5" y="31.5">b[25]</text>
<rect fill="#DEE6F1" height="24" width="19.875" x="1366.625" y="18.5" />
<rect fill="#EEDDDB" height="24" width="4.125" x="1362.5" y="18.5" />
<rect fill="none" height="24" stroke="#405C86" stroke-width="3" width="24" x="1362.5" y="18.5" />
<text class="smaller-label intrinsic-color" x="1374.5" y="31.5">b[26]</text>
<rect fill="#DEE6F1" height="24" width="19.875" x="1342.625" y="18.5" />
<rect fill="#EEDDDB" height="24" width="4.125" x="1338.5" y="18.5" />
<rect fill="none" height="24" stroke="#405C86" stroke-width="3" width="24" x="1338.5" y="18.5" />
<text class="smaller-label intrinsic-color" x="1350.5" y="31.5">b[27]</text>
<rect fill="#DEE6F1" height="24" width="19.875" x="1318.625" y="18.5" />
<rect fill="#EEDDDB" height="24" width="4.125" x="1314.5" y="18.5" />
<rect fill="none" height="24" stroke="#405C86" stroke-width="3" width="24" x="1314.5" y="18.5" />
<text class="smaller-label intrinsic-color" x="1326.5" y="31.5">b[28]</text>
<rect fill="#DEE6F1" height="24" width="19.875" x="1294.625" y="18.5" />
<rect fill="#EEDDDB" height="24" width="4.125" x="1290.5" y="18.5" />
<rect fill="none" height="24" stroke="#405C86" stroke-width="3" width="24" x="1290.5" y="18.5" />
<text class="smaller-label intrinsic-color" x="1302.5" y="31.5">b[29]</text>
<rect fill="#DEE6F1" height="24" width="19.875" x="1270.625" y="18.5" />
<rect fill="#EEDDDB" height="24" width="4.125" x="1266.5" y="18.5" />
<rect fill="none" height="24" stroke="#405C86" stroke-width="3" width="24" x="1266.5" y="18.5" />
<text class="smaller-label intrinsic-color" x="1278.5" y="31.5">b[30]</text>
<rect fill="#DEE6F1" height="24" width="19.875" x="1246.625" y="18.5" />
<rect fill="#EEDDDB" height="24" width="4.125" x="1242.5" y="18.5" />
<rect fill="none" height="24" stroke="#405C86" stroke-width="3" width="24" x="1242.5" y="18.5" />
<text class="smaller-label intrinsic-color" x="1254.5" y="31.5">b[31]</text>
<text class="register-name" x="80.5" y="30.5">[mem]</text>
<text class="intrinsic-name" x="80.5" y="42.5">*base</text>
<text class="register-number" x="10" y="30.5">(1)</text>
<rect fill="#DEE6F1" height="24" width="21.84375" x="3140.65625" y="90.5" />
<rect fill="#EEDDDB" height="24" width="74.15625" x="3066.5" y="90.5" />
<rect fill="none" height="24" stroke="#405C86" stroke-width="3" width="96" x="3066.5" y="90.5" />
<rect fill="#DEE6F1" height="24" width="21.84375" x="3044.65625" y="90.5" />
<rect fill="#EEDDDB" height="24" width="74.15625" x="2970.5" y="90.5" />
<rect fill="none" height="24" stroke="#405C86" stroke-width="3" width="96" x="2970.5" y="90.5" />
<rect fill="#DEE6F1" height="24" width="21.84375" x="2948.65625" y="90.5" />
<rect fill="#EEDDDB" height="24" width="74.15625" x="2874.5" y="90.5" />
<rect fill="none" height="24" stroke="#405C86" stroke-width="3" width="96" x="2874.5" y="90.5" />
<rect fill="#DEE6F1" height="24" width="21.84375" x="2852.65625" y="90.5" />
<rect fill="#EEDDDB" height="24" width="74.15625" x="2778.5" y="90.5" />
<rect fill="none" height="24" stroke="#405C86" stroke-width="3" width="96" x="2778.5" y="90.5" />
<rect fill="#DEE6F1" height="24" width="21.84375" x="2756.65625" y="90.5" />
<rect fill="#EEDDDB" height="24" width="74.15625" x="2682.5" y="90.5" />
<rect fill="none" height="24" stroke="#405C86" stroke-width="3" width="96" x="2682.5" y="90.5" />
<rect fill="#DEE6F1" height="24" width="21.84375" x="2660.65625" y="90.5" />
<rect fill="#EEDDDB" height="24" width="74.15625" x="2586.5" y="90.5" />
<rect fill="none" height="24" stroke="#405C86" stroke-width="3" width="96" x="2586.5" y="90.5" />
<rect fill="#DEE6F1" height="24" width="21.84375" x="2564.65625" y="90.5" />
<rect fill="#EEDDDB" height="24" width="74.15625" x="2490.5" y="90.5" />
<rect fill="none" height="24" stroke="#405C86" stroke-width="3" width="96" x="2490.5" y="90.5" />
<rect fill="#DEE6F1" height="24" width="21.84375" x="2468.65625" y="90.5" />
<rect fill="#EEDDDB" height="24" width="74.15625" x="2394.5" y="90.5" />
<rect fill="none" height="24" stroke="#405C86" stroke-width="3" width="96" x="2394.5" y="90.5" />
<rect fill="#DEE6F1" height="24" width="21.84375" x="2372.65625" y="90.5" />
<rect fill="#EEDDDB" height="24" width="74.15625" x="2298.5" y="90.5" />
<rect fill="none" height="24" stroke="#405C86" stroke-width="3" width="96" x="2298.5" y="90.5" />
<rect fill="#DEE6F1" height="24" width="21.84375" x="2276.65625" y="90.5" />
<rect fill="#EEDDDB" height="24" width="74.15625" x="2202.5" y="90.5" />
<rect fill="none" height="24" stroke="#405C86" stroke-width="3" width="96" x="2202.5" y="90.5" />
<rect fill="#DEE6F1" height="24" width="21.84375" x="2180.65625" y="90.5" />
<rect fill="#EEDDDB" height="24" width="74.15625" x="2106.5" y="90.5" />
<rect fill="none" height="24" stroke="#405C86" stroke-width="3" width="96" x="2106.5" y="90.5" />
<rect fill="#DEE6F1" height="24" width="21.84375" x="2084.65625" y="90.5" />
<rect fill="#EEDDDB" height="24" width="74.15625" x="2010.5" y="90.5" />
<rect fill="none" height="24" stroke="#405C86" stroke-width="3" width="96" x="2010.5" y="90.5" />
<rect fill="#DEE6F1" height="24" width="21.84375" x="1988.65625" y="90.5" />
<rect fill="#EEDDDB" height="24" width="74.15625" x="1914.5" y="90.5" />
<rect fill="none" height="24" stroke="#405C86" stroke-width="3" width="96" x="1914.5" y="90.5" />
<rect fill="#DEE6F1" height="24" width="21.84375" x="1892.65625" y="90.5" />
<rect fill="#EEDDDB" height="24" width="74.15625" x="1818.5" y="90.5" />
<rect fill="none" height="24" stroke="#405C86" stroke-width="3" width="96" x="1818.5" y="90.5" />
<rect fill="#DEE6F1" height="24" width="21.84375" x="1796.65625" y="90.5" />
<rect fill="#EEDDDB" height="24" width="74.15625" x="1722.5" y="90.5" />
<rect fill="none" height="24" stroke="#405C86" stroke-width="3" width="96" x="1722.5" y="90.5" />
<rect fill="#DEE6F1" height="24" width="21.84375" x="1700.65625" y="90.5" />
<rect fill="#EEDDDB" height="24" width="74.15625" x="1626.5" y="90.5" />
<rect fill="none" height="24" stroke="#405C86" stroke-width="3" width="96" x="1626.5" y="90.5" />
<rect fill="#DEE6F1" height="24" width="21.84375" x="1604.65625" y="90.5" />
<rect fill="#EEDDDB" height="24" width="74.15625" x="1530.5" y="90.5" />
<rect fill="none" height="24" stroke="#405C86" stroke-width="3" width="96" x="1530.5" y="90.5" />
<rect fill="#DEE6F1" height="24" width="21.84375" x="1508.65625" y="90.5" />
<rect fill="#EEDDDB" height="24" width="74.15625" x="1434.5" y="90.5" />
<rect fill="none" height="24" stroke="#405C86" stroke-width="3" width="96" x="1434.5" y="90.5" />
<rect fill="#DEE6F1" height="24" width="21.84375" x="1412.65625" y="90.5" />
<rect fill="#EEDDDB" height="24" width="74.15625" x="1338.5" y="90.5" />
<rect fill="none" height="24" stroke="#405C86" stroke-width="3" width="96" x="1338.5" y="90.5" />
<rect fill="#DEE6F1" height="24" width="21.84375" x="1316.65625" y="90.5" />
<rect fill="#EEDDDB" height="24" width="74.15625" x="1242.5" y="90.5" />
<rect fill="none" height="24" stroke="#405C86" stroke-width="3" width="96" x="1242.5" y="90.5" />
<rect fill="#DEE6F1" height="24" width="21.84375" x="1220.65625" y="90.5" />
<rect fill="#EEDDDB" height="24" width="74.15625" x="1146.5" y="90.5" />
<rect fill="none" height="24" stroke="#405C86" stroke-width="3" width="96" x="1146.5" y="90.5" />
<rect fill="#DEE6F1" height="24" width="21.84375" x="1124.65625" y="90.5" />
<rect fill="#EEDDDB" height="24" width="74.15625" x="1050.5" y="90.5" />
<rect fill="none" height="24" stroke="#405C86" stroke-width="3" width="96" x="1050.5" y="90.5" />
<rect fill="#DEE6F1" height="24" width="21.84375" x="1028.65625" y="90.5" />
<rect fill="#EEDDDB" height="24" width="74.15625" x="954.5" y="90.5" />
<rect fill="none" height="24" stroke="#405C86" stroke-width="3" width="96" x="954.5" y="90.5" />
<rect fill="#DEE6F1" height="24" width="21.84375" x="932.65625" y="90.5" />
<rect fill="#EEDDDB" height="24" width="74.15625" x="858.5" y="90.5" />
<rect fill="none" height="24" stroke="#405C86" stroke-width="3" width="96" x="858.5" y="90.5" />
<rect fill="#DEE6F1" height="24" width="21.84375" x="836.65625" y="90.5" />
<rect fill="#EEDDDB" height="24" width="74.15625" x="762.5" y="90.5" />
<rect fill="none" height="24" stroke="#405C86" stroke-width="3" width="96" x="762.5" y="90.5" />
<rect fill="#DEE6F1" height="24" width="21.84375" x="740.65625" y="90.5" />
<rect fill="#EEDDDB" height="24" width="74.15625" x="666.5" y="90.5" />
<rect fill="none" height="24" stroke="#405C86" stroke-width="3" width="96" x="666.5" y="90.5" />
<rect fill="#DEE6F1" height="24" width="21.84375" x="644.65625" y="90.5" />
<rect fill="#EEDDDB" height="24" width="74.15625" x="570.5" y="90.5" />
<rect fill="none" height="24" stroke="#405C86" stroke-width="3" width="96" x="570.5" y="90.5" />
<rect fill="#DEE6F1" height="24" width="21.84375" x="548.65625" y="90.5" />
<rect fill="#EEDDDB" height="24" width="74.15625" x="474.5" y="90.5" />
<rect fill="none" height="24" stroke="#405C86" stroke-width="3" width="96" x="474.5" y="90.5" />
<rect fill="#DEE6F1" height="24" width="21.84375" x="452.65625" y="90.5" />
<rect fill="#EEDDDB" height="24" width="74.15625" x="378.5" y="90.5" />
<rect fill="none" height="24" stroke="#405C86" stroke-width="3" width="96" x="378.5" y="90.5" />
<rect fill="#DEE6F1" height="24" width="21.84375" x="356.65625" y="90.5" />
<rect fill="#EEDDDB" height="24" width="74.15625" x="282.5" y="90.5" />
<rect fill="none" height="24" stroke="#405C86" stroke-width="3" width="96" x="282.5" y="90.5" />
<rect fill="#DEE6F1" height="24" width="21.84375" x="260.65625" y="90.5" />
<rect fill="#EEDDDB" height="24" width="74.15625" x="186.5" y="90.5" />
<rect fill="none" height="24" stroke="#405C86" stroke-width="3" width="96" x="186.5" y="90.5" />
<rect fill="#DEE6F1" height="24" width="21.84375" x="164.65625" y="90.5" />
<rect fill="#EEDDDB" height="24" width="74.15625" x="90.5" y="90.5" />
<rect fill="none" height="24" stroke="#405C86" stroke-width="3" width="96" x="90.5" y="90.5" />
<text class="register-name" x="80.5" y="102.5">Zt</text>
<text class="intrinsic-name" x="80.5" y="114.5">returns</text>
<text class="register-number" x="10" y="102.5">(2)</text>
<line marker-end="url(#arrowhead)" stroke="none" x1="1998.5" x2="3151.578125" y1="43.5" y2="89" />
<line marker-end="url(#arrowhead)" stroke="none" x1="1974.5" x2="3055.578125" y1="43.5" y2="89" />
<line marker-end="url(#arrowhead)" stroke="none" x1="1950.5" x2="2959.578125" y1="43.5" y2="89" />
<line marker-end="url(#arrowhead)" stroke="none" x1="1926.5" x2="2863.578125" y1="43.5" y2="89" />
<line marker-end="url(#arrowhead)" stroke="none" x1="1902.5" x2="2767.578125" y1="43.5" y2="89" />
<line marker-end="url(#arrowhead)" stroke="none" x1="1878.5" x2="2671.578125" y1="43.5" y2="89" />
<line marker-end="url(#arrowhead)" stroke="none" x1="1854.5" x2="2575.578125" y1="43.5" y2="89" />
<line marker-end="url(#arrowhead)" stroke="none" x1="1830.5" x2="2479.578125" y1="43.5" y2="89" />
<line marker-end="url(#arrowhead)" stroke="none" x1="1806.5" x2="2383.578125" y1="43.5" y2="89" />
<line marker-end="url(#arrowhead)" stroke="none" x1="1782.5" x2="2287.578125" y1="43.5" y2="89" />
<line marker-end="url(#arrowhead)" stroke="none" x1="1758.5" x2="2191.578125" y1="43.5" y2="89" />
<line marker-end="url(#arrowhead)" stroke="none" x1="1734.5" x2="2095.578125" y1="43.5" y2="89" />
<line marker-end="url(#arrowhead)" stroke="none" x1="1710.5" x2="1999.578125" y1="43.5" y2="89" />
<line marker-end="url(#arrowhead)" stroke="none" x1="1686.5" x2="1903.578125" y1="43.5" y2="89" />
<line marker-end="url(#arrowhead)" stroke="none" x1="1662.5" x2="1807.578125" y1="43.5" y2="89" />
<line marker-end="url(#arrowhead)" stroke="none" x1="1638.5" x2="1711.578125" y1="43.5" y2="89" />
<line marker-end="url(#arrowhead)" stroke="none" x1="1614.5" x2="1615.578125" y1="43.5" y2="89" />
<line marker-end="url(#arrowhead)" stroke="none" x1="1590.5" x2="1519.578125" y1="43.5" y2="89" />
<line marker-end="url(#arrowhead)" stroke="none" x1="1566.5" x2="1423.578125" y1="43.5" y2="89" />
<line marker-end="url(#arrowhead)" stroke="none" x1="1542.5" x2="1327.578125" y1="43.5" y2="89" />
<line marker-end="url(#arrowhead)" stroke="none" x1="1518.5" x2="1231.578125" y1="43.5" y2="89" />
<line marker-end="url(#arrowhead)" stroke="none" x1="1494.5" x2="1135.578125" y1="43.5" y2="89" />
<line marker-end="url(#arrowhead)" stroke="none" x1="1470.5" x2="1039.578125" y1="43.5" y2="89" />
<line marker-end="url(#arrowhead)" stroke="none" x1="1446.5" x2="943.578125" y1="43.5" y2="89" />
<line marker-end="url(#arrowhead)" stroke="none" x1="1422.5" x2="847.578125" y1="43.5" y2="89" />
<line marker-end="url(#arrowhead)" stroke="none" x1="1398.5" x2="751.578125" y1="43.5" y2="89" />
<line marker-end="url(#arrowhead)" stroke="none" x1="1374.5" x2="655.578125" y1="43.5" y2="89" />
<line marker-end="url(#arrowhead)" stroke="none" x1="1350.5" x2="559.578125" y1="43.5" y2="89" />
<line marker-end="url(#arrowhead)" stroke="none" x1="1326.5" x2="463.578125" y1="43.5" y2="89" />
<line marker-end="url(#arrowhead)" stroke="none" x1="1302.5" x2="367.578125" y1="43.5" y2="89" />
<line marker-end="url(#arrowhead)" stroke="none" x1="1278.5" x2="271.578125" y1="43.5" y2="89" />
<line marker-end="url(#arrowhead)" stroke="none" x1="1254.5" x2="175.578125" y1="43.5" y2="89" />
</svg>