<svg xmlns="http://www.w3.org/2000/svg" viewBox="0 0 6246 123">
<style>
.label { font: 14px Helvetica; dominant-baseline: middle; text-anchor: middle; }
.title-left { font: 12px Helvetica; dominant-baseline: middle; }
.title-right { font: 12px Helvetica; dominant-baseline: middle; text-anchor: end; }
.title-intrinsic { font: 12px Helvetica; dominant-baseline: middle; text-anchor: middle; fill: #6778ED; }
.title { font: 12px Helvetica; dominant-baseline: middle; text-anchor: middle; }
.title-unused { font: 12px Helvetica; dominant-baseline: middle; text-anchor: middle; fill: #AAA; }
.register-name { font: 14px Helvetica; dominant-baseline: middle; text-anchor: end; font-style: italic; }
.memory-name { font: 14px Helvetica; dominant-baseline: middle; text-anchor: end; }
.register-number { font: 14px Helvetica; dominant-baseline: middle; text-anchor: start; }
.intrinsic-name { font: 14px Helvetica; dominant-baseline: middle; text-anchor: end; fill: #6778ED; }
.intrinsic-color { fill: #6778ED; }
.small-label { font: 12px Helvetica; dominant-baseline: middle; text-anchor: middle; }
.label-10px { font: 10px Helvetica; dominant-baseline: middle; text-anchor: middle; }
.smaller-label { font: 9px Helvetica; dominant-baseline: middle; text-anchor: middle; }
.label-6px { font: 6px Helvetica; dominant-baseline: middle; text-anchor: middle; }
.label-7px { font: 7px Helvetica; dominant-baseline: middle; text-anchor: middle; }
.unused { fill: #AAA; }
.dim { fill: #888; }
</style>
<defs>
<marker id="arrowhead" markerWidth="10.75" markerHeight="24.5" refX="9.0" refY="6.125" orient="auto">
<polyline points="0.5 0.5, 8.75 6.125, 0.5 11.75" stroke="#567DB6" stroke-width="1" fill="none"/>
</marker>
</defs>
<line stroke="#567DB6" stroke-width="1" x1="3522.5" x2="6211.42578125" y1="43.5" y2="89" />
<line stroke="#567DB6" stroke-width="1" x1="3474.5" x2="5827.42578125" y1="43.5" y2="89" />
<line stroke="#567DB6" stroke-width="1" x1="3426.5" x2="5443.42578125" y1="43.5" y2="89" />
<line stroke="#567DB6" stroke-width="1" x1="3378.5" x2="5059.42578125" y1="43.5" y2="89" />
<line stroke="#567DB6" stroke-width="1" x1="3330.5" x2="4675.42578125" y1="43.5" y2="89" />
<line stroke="#567DB6" stroke-width="1" x1="3282.5" x2="4291.42578125" y1="43.5" y2="89" />
<line stroke="#567DB6" stroke-width="1" x1="3234.5" x2="3907.42578125" y1="43.5" y2="89" />
<line stroke="#567DB6" stroke-width="1" x1="3186.5" x2="3523.42578125" y1="43.5" y2="89" />
<line stroke="#567DB6" stroke-width="1" x1="3138.5" x2="3139.42578125" y1="43.5" y2="89" />
<line stroke="#567DB6" stroke-width="1" x1="3090.5" x2="2755.42578125" y1="43.5" y2="89" />
<line stroke="#567DB6" stroke-width="1" x1="3042.5" x2="2371.42578125" y1="43.5" y2="89" />
<line stroke="#567DB6" stroke-width="1" x1="2994.5" x2="1987.42578125" y1="43.5" y2="89" />
<line stroke="#567DB6" stroke-width="1" x1="2946.5" x2="1603.42578125" y1="43.5" y2="89" />
<line stroke="#567DB6" stroke-width="1" x1="2898.5" x2="1219.42578125" y1="43.5" y2="89" />
<line stroke="#567DB6" stroke-width="1" x1="2850.5" x2="835.42578125" y1="43.5" y2="89" />
<line stroke="#567DB6" stroke-width="1" x1="2802.5" x2="451.42578125" y1="43.5" y2="89" />
<text class="title-left" x="90.5" y="9.5">upper</text>
<text class="title-right" x="6234.5" y="9.5">lower</text>
<rect fill="#DEE6F1" height="24" width="43.6875" x="3502.8125" y="18.5" />
<rect fill="#EEDDDB" height="24" width="4.3125" x="3498.5" y="18.5" />
<rect fill="none" height="24" stroke="#405C86" stroke-width="3" width="48" x="3498.5" y="18.5" />
<text class="smaller-label intrinsic-color" x="3522.5" y="31.5">base[0]</text>
<rect fill="#DEE6F1" height="24" width="43.6875" x="3454.8125" y="18.5" />
<rect fill="#EEDDDB" height="24" width="4.3125" x="3450.5" y="18.5" />
<rect fill="none" height="24" stroke="#405C86" stroke-width="3" width="48" x="3450.5" y="18.5" />
<text class="smaller-label intrinsic-color" x="3474.5" y="31.5">base[1]</text>
<rect fill="#DEE6F1" height="24" width="43.6875" x="3406.8125" y="18.5" />
<rect fill="#EEDDDB" height="24" width="4.3125" x="3402.5" y="18.5" />
<rect fill="none" height="24" stroke="#405C86" stroke-width="3" width="48" x="3402.5" y="18.5" />
<text class="smaller-label intrinsic-color" x="3426.5" y="31.5">base[2]</text>
<rect fill="#DEE6F1" height="24" width="43.6875" x="3358.8125" y="18.5" />
<rect fill="#EEDDDB" height="24" width="4.3125" x="3354.5" y="18.5" />
<rect fill="none" height="24" stroke="#405C86" stroke-width="3" width="48" x="3354.5" y="18.5" />
<text class="smaller-label intrinsic-color" x="3378.5" y="31.5">base[3]</text>
<rect fill="#DEE6F1" height="24" width="43.6875" x="3310.8125" y="18.5" />
<rect fill="#EEDDDB" height="24" width="4.3125" x="3306.5" y="18.5" />
<rect fill="none" height="24" stroke="#405C86" stroke-width="3" width="48" x="3306.5" y="18.5" />
<text class="smaller-label intrinsic-color" x="3330.5" y="31.5">base[4]</text>
<rect fill="#DEE6F1" height="24" width="43.6875" x="3262.8125" y="18.5" />
<rect fill="#EEDDDB" height="24" width="4.3125" x="3258.5" y="18.5" />
<rect fill="none" height="24" stroke="#405C86" stroke-width="3" width="48" x="3258.5" y="18.5" />
<text class="smaller-label intrinsic-color" x="3282.5" y="31.5">base[5]</text>
<rect fill="#DEE6F1" height="24" width="43.6875" x="3214.8125" y="18.5" />
<rect fill="#EEDDDB" height="24" width="4.3125" x="3210.5" y="18.5" />
<rect fill="none" height="24" stroke="#405C86" stroke-width="3" width="48" x="3210.5" y="18.5" />
<text class="smaller-label intrinsic-color" x="3234.5" y="31.5">base[6]</text>
<rect fill="#DEE6F1" height="24" width="43.6875" x="3166.8125" y="18.5" />
<rect fill="#EEDDDB" height="24" width="4.3125" x="3162.5" y="18.5" />
<rect fill="none" height="24" stroke="#405C86" stroke-width="3" width="48" x="3162.5" y="18.5" />
<text class="smaller-label intrinsic-color" x="3186.5" y="31.5">base[7]</text>
<rect fill="#DEE6F1" height="24" width="43.6875" x="3118.8125" y="18.5" />
<rect fill="#EEDDDB" height="24" width="4.3125" x="3114.5" y="18.5" />
<rect fill="none" height="24" stroke="#405C86" stroke-width="3" width="48" x="3114.5" y="18.5" />
<text class="smaller-label intrinsic-color" x="3138.5" y="31.5">base[8]</text>
<rect fill="#DEE6F1" height="24" width="43.6875" x="3070.8125" y="18.5" />
<rect fill="#EEDDDB" height="24" width="4.3125" x="3066.5" y="18.5" />
<rect fill="none" height="24" stroke="#405C86" stroke-width="3" width="48" x="3066.5" y="18.5" />
<text class="smaller-label intrinsic-color" x="3090.5" y="31.5">base[9]</text>
<rect fill="#DEE6F1" height="24" width="43.6875" x="3022.8125" y="18.5" />
<rect fill="#EEDDDB" height="24" width="4.3125" x="3018.5" y="18.5" />
<rect fill="none" height="24" stroke="#405C86" stroke-width="3" width="48" x="3018.5" y="18.5" />
<text class="smaller-label intrinsic-color" x="3042.5" y="31.5">base[10]</text>
<rect fill="#DEE6F1" height="24" width="43.6875" x="2974.8125" y="18.5" />
<rect fill="#EEDDDB" height="24" width="4.3125" x="2970.5" y="18.5" />
<rect fill="none" height="24" stroke="#405C86" stroke-width="3" width="48" x="2970.5" y="18.5" />
<text class="smaller-label intrinsic-color" x="2994.5" y="31.5">base[11]</text>
<rect fill="#DEE6F1" height="24" width="43.6875" x="2926.8125" y="18.5" />
<rect fill="#EEDDDB" height="24" width="4.3125" x="2922.5" y="18.5" />
<rect fill="none" height="24" stroke="#405C86" stroke-width="3" width="48" x="2922.5" y="18.5" />
<text class="smaller-label intrinsic-color" x="2946.5" y="31.5">base[12]</text>
<rect fill="#DEE6F1" height="24" width="43.6875" x="2878.8125" y="18.5" />
<rect fill="#EEDDDB" height="24" width="4.3125" x="2874.5" y="18.5" />
<rect fill="none" height="24" stroke="#405C86" stroke-width="3" width="48" x="2874.5" y="18.5" />
<text class="smaller-label intrinsic-color" x="2898.5" y="31.5">base[13]</text>
<rect fill="#DEE6F1" height="24" width="43.6875" x="2830.8125" y="18.5" />
<rect fill="#EEDDDB" height="24" width="4.3125" x="2826.5" y="18.5" />
<rect fill="none" height="24" stroke="#405C86" stroke-width="3" width="48" x="2826.5" y="18.5" />
<text class="smaller-label intrinsic-color" x="2850.5" y="31.5">base[14]</text>
<rect fill="#DEE6F1" height="24" width="43.6875" x="2782.8125" y="18.5" />
<rect fill="#EEDDDB" height="24" width="4.3125" x="2778.5" y="18.5" />
<rect fill="none" height="24" stroke="#405C86" stroke-width="3" width="48" x="2778.5" y="18.5" />
<text class="smaller-label intrinsic-color" x="2802.5" y="31.5">base[15]</text>
<text class="register-name" x="80.5" y="30.5">[mem]</text>
<text class="intrinsic-name" x="80.5" y="42.5">*base</text>
<text class="register-number" x="10" y="30.5">(1)</text>
<rect fill="#DEE6F1" height="24" width="46.1484375" x="6188.3515625" y="90.5" />
<rect fill="#EEDDDB" height="24" width="337.8515625" x="5850.5" y="90.5" />
<rect fill="none" height="24" stroke="#405C86" stroke-width="3" width="384" x="5850.5" y="90.5" />
<rect fill="#DEE6F1" height="24" width="46.1484375" x="5804.3515625" y="90.5" />
<rect fill="#EEDDDB" height="24" width="337.8515625" x="5466.5" y="90.5" />
<rect fill="none" height="24" stroke="#405C86" stroke-width="3" width="384" x="5466.5" y="90.5" />
<rect fill="#DEE6F1" height="24" width="46.1484375" x="5420.3515625" y="90.5" />
<rect fill="#EEDDDB" height="24" width="337.8515625" x="5082.5" y="90.5" />
<rect fill="none" height="24" stroke="#405C86" stroke-width="3" width="384" x="5082.5" y="90.5" />
<rect fill="#DEE6F1" height="24" width="46.1484375" x="5036.3515625" y="90.5" />
<rect fill="#EEDDDB" height="24" width="337.8515625" x="4698.5" y="90.5" />
<rect fill="none" height="24" stroke="#405C86" stroke-width="3" width="384" x="4698.5" y="90.5" />
<rect fill="#DEE6F1" height="24" width="46.1484375" x="4652.3515625" y="90.5" />
<rect fill="#EEDDDB" height="24" width="337.8515625" x="4314.5" y="90.5" />
<rect fill="none" height="24" stroke="#405C86" stroke-width="3" width="384" x="4314.5" y="90.5" />
<rect fill="#DEE6F1" height="24" width="46.1484375" x="4268.3515625" y="90.5" />
<rect fill="#EEDDDB" height="24" width="337.8515625" x="3930.5" y="90.5" />
<rect fill="none" height="24" stroke="#405C86" stroke-width="3" width="384" x="3930.5" y="90.5" />
<rect fill="#DEE6F1" height="24" width="46.1484375" x="3884.3515625" y="90.5" />
<rect fill="#EEDDDB" height="24" width="337.8515625" x="3546.5" y="90.5" />
<rect fill="none" height="24" stroke="#405C86" stroke-width="3" width="384" x="3546.5" y="90.5" />
<rect fill="#DEE6F1" height="24" width="46.1484375" x="3500.3515625" y="90.5" />
<rect fill="#EEDDDB" height="24" width="337.8515625" x="3162.5" y="90.5" />
<rect fill="none" height="24" stroke="#405C86" stroke-width="3" width="384" x="3162.5" y="90.5" />
<rect fill="#DEE6F1" height="24" width="46.1484375" x="3116.3515625" y="90.5" />
<rect fill="#EEDDDB" height="24" width="337.8515625" x="2778.5" y="90.5" />
<rect fill="none" height="24" stroke="#405C86" stroke-width="3" width="384" x="2778.5" y="90.5" />
<rect fill="#DEE6F1" height="24" width="46.1484375" x="2732.3515625" y="90.5" />
<rect fill="#EEDDDB" height="24" width="337.8515625" x="2394.5" y="90.5" />
<rect fill="none" height="24" stroke="#405C86" stroke-width="3" width="384" x="2394.5" y="90.5" />
<rect fill="#DEE6F1" height="24" width="46.1484375" x="2348.3515625" y="90.5" />
<rect fill="#EEDDDB" height="24" width="337.8515625" x="2010.5" y="90.5" />
<rect fill="none" height="24" stroke="#405C86" stroke-width="3" width="384" x="2010.5" y="90.5" />
<rect fill="#DEE6F1" height="24" width="46.1484375" x="1964.3515625" y="90.5" />
<rect fill="#EEDDDB" height="24" width="337.8515625" x="1626.5" y="90.5" />
<rect fill="none" height="24" stroke="#405C86" stroke-width="3" width="384" x="1626.5" y="90.5" />
<rect fill="#DEE6F1" height="24" width="46.1484375" x="1580.3515625" y="90.5" />
<rect fill="#EEDDDB" height="24" width="337.8515625" x="1242.5" y="90.5" />
<rect fill="none" height="24" stroke="#405C86" stroke-width="3" width="384" x="1242.5" y="90.5" />
<rect fill="#DEE6F1" height="24" width="46.1484375" x="1196.3515625" y="90.5" />
<rect fill="#EEDDDB" height="24" width="337.8515625" x="858.5" y="90.5" />
<rect fill="none" height="24" stroke="#405C86" stroke-width="3" width="384" x="858.5" y="90.5" />
<rect fill="#DEE6F1" height="24" width="46.1484375" x="812.3515625" y="90.5" />
<rect fill="#EEDDDB" height="24" width="337.8515625" x="474.5" y="90.5" />
<rect fill="none" height="24" stroke="#405C86" stroke-width="3" width="384" x="474.5" y="90.5" />
<rect fill="#DEE6F1" height="24" width="46.1484375" x="428.3515625" y="90.5" />
<rect fill="#EEDDDB" height="24" width="337.8515625" x="90.5" y="90.5" />
<rect fill="none" height="24" stroke="#405C86" stroke-width="3" width="384" x="90.5" y="90.5" />
<text class="register-name" x="80.5" y="102.5">Zt</text>
<text class="intrinsic-name" x="80.5" y="114.5">returns</text>
<text class="register-number" x="10" y="102.5">(2)</text>
<line marker-end="url(#arrowhead)" stroke="none" x1="3522.5" x2="6211.42578125" y1="43.5" y2="89" />
<line marker-end="url(#arrowhead)" stroke="none" x1="3474.5" x2="5827.42578125" y1="43.5" y2="89" />
<line marker-end="url(#arrowhead)" stroke="none" x1="3426.5" x2="5443.42578125" y1="43.5" y2="89" />
<line marker-end="url(#arrowhead)" stroke="none" x1="3378.5" x2="5059.42578125" y1="43.5" y2="89" />
<line marker-end="url(#arrowhead)" stroke="none" x1="3330.5" x2="4675.42578125" y1="43.5" y2="89" />
<line marker-end="url(#arrowhead)" stroke="none" x1="3282.5" x2="4291.42578125" y1="43.5" y2="89" />
<line marker-end="url(#arrowhead)" stroke="none" x1="3234.5" x2="3907.42578125" y1="43.5" y2="89" />
<line marker-end="url(#arrowhead)" stroke="none" x1="3186.5" x2="3523.42578125" y1="43.5" y2="89" />
<line marker-end="url(#arrowhead)" stroke="none" x1="3138.5" x2="3139.42578125" y1="43.5" y2="89" />
<line marker-end="url(#arrowhead)" stroke="none" x1="3090.5" x2="2755.42578125" y1="43.5" y2="89" />
<line marker-end="url(#arrowhead)" stroke="none" x1="3042.5" x2="2371.42578125" y1="43.5" y2="89" />
<line marker-end="url(#arrowhead)" stroke="none" x1="2994.5" x2="1987.42578125" y1="43.5" y2="89" />
<line marker-end="url(#arrowhead)" stroke="none" x1="2946.5" x2="1603.42578125" y1="43.5" y2="89" />
<line marker-end="url(#arrowhead)" stroke="none" x1="2898.5" x2="1219.42578125" y1="43.5" y2="89" />
<line marker-end="url(#arrowhead)" stroke="none" x1="2850.5" x2="835.42578125" y1="43.5" y2="89" />
<line marker-end="url(#arrowhead)" stroke="none" x1="2802.5" x2="451.42578125" y1="43.5" y2="89" />
</svg>