<svg xmlns="http://www.w3.org/2000/svg" viewBox="0 0 6246 123">
<style>
.label { font: 14px Helvetica; dominant-baseline: middle; text-anchor: middle; }
.title-left { font: 12px Helvetica; dominant-baseline: middle; }
.title-right { font: 12px Helvetica; dominant-baseline: middle; text-anchor: end; }
.title-intrinsic { font: 12px Helvetica; dominant-baseline: middle; text-anchor: middle; fill: #6778ED; }
.title { font: 12px Helvetica; dominant-baseline: middle; text-anchor: middle; }
.title-unused { font: 12px Helvetica; dominant-baseline: middle; text-anchor: middle; fill: #AAA; }
.register-name { font: 14px Helvetica; dominant-baseline: middle; text-anchor: end; font-style: italic; }
.memory-name { font: 14px Helvetica; dominant-baseline: middle; text-anchor: end; }
.register-number { font: 14px Helvetica; dominant-baseline: middle; text-anchor: start; }
.intrinsic-name { font: 14px Helvetica; dominant-baseline: middle; text-anchor: end; fill: #6778ED; }
.intrinsic-color { fill: #6778ED; }
.small-label { font: 12px Helvetica; dominant-baseline: middle; text-anchor: middle; }
.label-10px { font: 10px Helvetica; dominant-baseline: middle; text-anchor: middle; }
.smaller-label { font: 9px Helvetica; dominant-baseline: middle; text-anchor: middle; }
.label-6px { font: 6px Helvetica; dominant-baseline: middle; text-anchor: middle; }
.label-7px { font: 7px Helvetica; dominant-baseline: middle; text-anchor: middle; }
.unused { fill: #AAA; }
.dim { fill: #888; }
</style>
<defs>
<marker id="arrowhead" markerWidth="10.75" markerHeight="24.5" refX="9.0" refY="6.125" orient="auto">
<polyline points="0.5 0.5, 8.75 6.125, 0.5 11.75" stroke="#567DB6" stroke-width="1" fill="none"/>
</marker>
</defs>
<line stroke="#567DB6" stroke-width="1" x1="4650.5" x2="6187.9765625" y1="43.5" y2="89" />
<line stroke="#567DB6" stroke-width="1" x1="4554.5" x2="5995.9765625" y1="43.5" y2="89" />
<line stroke="#567DB6" stroke-width="1" x1="4458.5" x2="5803.9765625" y1="43.5" y2="89" />
<line stroke="#567DB6" stroke-width="1" x1="4362.5" x2="5611.9765625" y1="43.5" y2="89" />
<line stroke="#567DB6" stroke-width="1" x1="4266.5" x2="5419.9765625" y1="43.5" y2="89" />
<line stroke="#567DB6" stroke-width="1" x1="4170.5" x2="5227.9765625" y1="43.5" y2="89" />
<line stroke="#567DB6" stroke-width="1" x1="4074.5" x2="5035.9765625" y1="43.5" y2="89" />
<line stroke="#567DB6" stroke-width="1" x1="3978.5" x2="4843.9765625" y1="43.5" y2="89" />
<line stroke="#567DB6" stroke-width="1" x1="3882.5" x2="4651.9765625" y1="43.5" y2="89" />
<line stroke="#567DB6" stroke-width="1" x1="3786.5" x2="4459.9765625" y1="43.5" y2="89" />
<line stroke="#567DB6" stroke-width="1" x1="3690.5" x2="4267.9765625" y1="43.5" y2="89" />
<line stroke="#567DB6" stroke-width="1" x1="3594.5" x2="4075.9765625" y1="43.5" y2="89" />
<line stroke="#567DB6" stroke-width="1" x1="3498.5" x2="3883.9765625" y1="43.5" y2="89" />
<line stroke="#567DB6" stroke-width="1" x1="3402.5" x2="3691.9765625" y1="43.5" y2="89" />
<line stroke="#567DB6" stroke-width="1" x1="3306.5" x2="3499.9765625" y1="43.5" y2="89" />
<line stroke="#567DB6" stroke-width="1" x1="3210.5" x2="3307.9765625" y1="43.5" y2="89" />
<line stroke="#567DB6" stroke-width="1" x1="3114.5" x2="3115.9765625" y1="43.5" y2="89" />
<line stroke="#567DB6" stroke-width="1" x1="3018.5" x2="2923.9765625" y1="43.5" y2="89" />
<line stroke="#567DB6" stroke-width="1" x1="2922.5" x2="2731.9765625" y1="43.5" y2="89" />
<line stroke="#567DB6" stroke-width="1" x1="2826.5" x2="2539.9765625" y1="43.5" y2="89" />
<line stroke="#567DB6" stroke-width="1" x1="2730.5" x2="2347.9765625" y1="43.5" y2="89" />
<line stroke="#567DB6" stroke-width="1" x1="2634.5" x2="2155.9765625" y1="43.5" y2="89" />
<line stroke="#567DB6" stroke-width="1" x1="2538.5" x2="1963.9765625" y1="43.5" y2="89" />
<line stroke="#567DB6" stroke-width="1" x1="2442.5" x2="1771.9765625" y1="43.5" y2="89" />
<line stroke="#567DB6" stroke-width="1" x1="2346.5" x2="1579.9765625" y1="43.5" y2="89" />
<line stroke="#567DB6" stroke-width="1" x1="2250.5" x2="1387.9765625" y1="43.5" y2="89" />
<line stroke="#567DB6" stroke-width="1" x1="2154.5" x2="1195.9765625" y1="43.5" y2="89" />
<line stroke="#567DB6" stroke-width="1" x1="2058.5" x2="1003.9765625" y1="43.5" y2="89" />
<line stroke="#567DB6" stroke-width="1" x1="1962.5" x2="811.9765625" y1="43.5" y2="89" />
<line stroke="#567DB6" stroke-width="1" x1="1866.5" x2="619.9765625" y1="43.5" y2="89" />
<line stroke="#567DB6" stroke-width="1" x1="1770.5" x2="427.9765625" y1="43.5" y2="89" />
<line stroke="#567DB6" stroke-width="1" x1="1674.5" x2="235.9765625" y1="43.5" y2="89" />
<text class="title-left" x="90.5" y="9.5">upper</text>
<text class="title-right" x="6234.5" y="9.5">lower</text>
<rect fill="#DEE6F1" height="24" width="91.59375" x="4606.90625" y="18.5" />
<rect fill="#EEDDDB" height="24" width="4.40625" x="4602.5" y="18.5" />
<rect fill="none" height="24" stroke="#405C86" stroke-width="3" width="96" x="4602.5" y="18.5" />
<text class="small-label intrinsic-color" x="4650.5" y="31.5">base[0]</text>
<rect fill="#DEE6F1" height="24" width="91.59375" x="4510.90625" y="18.5" />
<rect fill="#EEDDDB" height="24" width="4.40625" x="4506.5" y="18.5" />
<rect fill="none" height="24" stroke="#405C86" stroke-width="3" width="96" x="4506.5" y="18.5" />
<text class="small-label intrinsic-color" x="4554.5" y="31.5">base[1]</text>
<rect fill="#DEE6F1" height="24" width="91.59375" x="4414.90625" y="18.5" />
<rect fill="#EEDDDB" height="24" width="4.40625" x="4410.5" y="18.5" />
<rect fill="none" height="24" stroke="#405C86" stroke-width="3" width="96" x="4410.5" y="18.5" />
<text class="small-label intrinsic-color" x="4458.5" y="31.5">base[2]</text>
<rect fill="#DEE6F1" height="24" width="91.59375" x="4318.90625" y="18.5" />
<rect fill="#EEDDDB" height="24" width="4.40625" x="4314.5" y="18.5" />
<rect fill="none" height="24" stroke="#405C86" stroke-width="3" width="96" x="4314.5" y="18.5" />
<text class="small-label intrinsic-color" x="4362.5" y="31.5">base[3]</text>
<rect fill="#DEE6F1" height="24" width="91.59375" x="4222.90625" y="18.5" />
<rect fill="#EEDDDB" height="24" width="4.40625" x="4218.5" y="18.5" />
<rect fill="none" height="24" stroke="#405C86" stroke-width="3" width="96" x="4218.5" y="18.5" />
<text class="small-label intrinsic-color" x="4266.5" y="31.5">base[4]</text>
<rect fill="#DEE6F1" height="24" width="91.59375" x="4126.90625" y="18.5" />
<rect fill="#EEDDDB" height="24" width="4.40625" x="4122.5" y="18.5" />
<rect fill="none" height="24" stroke="#405C86" stroke-width="3" width="96" x="4122.5" y="18.5" />
<text class="small-label intrinsic-color" x="4170.5" y="31.5">base[5]</text>
<rect fill="#DEE6F1" height="24" width="91.59375" x="4030.90625" y="18.5" />
<rect fill="#EEDDDB" height="24" width="4.40625" x="4026.5" y="18.5" />
<rect fill="none" height="24" stroke="#405C86" stroke-width="3" width="96" x="4026.5" y="18.5" />
<text class="small-label intrinsic-color" x="4074.5" y="31.5">base[6]</text>
<rect fill="#DEE6F1" height="24" width="91.59375" x="3934.90625" y="18.5" />
<rect fill="#EEDDDB" height="24" width="4.40625" x="3930.5" y="18.5" />
<rect fill="none" height="24" stroke="#405C86" stroke-width="3" width="96" x="3930.5" y="18.5" />
<text class="small-label intrinsic-color" x="3978.5" y="31.5">base[7]</text>
<rect fill="#DEE6F1" height="24" width="91.59375" x="3838.90625" y="18.5" />
<rect fill="#EEDDDB" height="24" width="4.40625" x="3834.5" y="18.5" />
<rect fill="none" height="24" stroke="#405C86" stroke-width="3" width="96" x="3834.5" y="18.5" />
<text class="small-label intrinsic-color" x="3882.5" y="31.5">base[8]</text>
<rect fill="#DEE6F1" height="24" width="91.59375" x="3742.90625" y="18.5" />
<rect fill="#EEDDDB" height="24" width="4.40625" x="3738.5" y="18.5" />
<rect fill="none" height="24" stroke="#405C86" stroke-width="3" width="96" x="3738.5" y="18.5" />
<text class="small-label intrinsic-color" x="3786.5" y="31.5">base[9]</text>
<rect fill="#DEE6F1" height="24" width="91.59375" x="3646.90625" y="18.5" />
<rect fill="#EEDDDB" height="24" width="4.40625" x="3642.5" y="18.5" />
<rect fill="none" height="24" stroke="#405C86" stroke-width="3" width="96" x="3642.5" y="18.5" />
<text class="small-label intrinsic-color" x="3690.5" y="31.5">base[10]</text>
<rect fill="#DEE6F1" height="24" width="91.59375" x="3550.90625" y="18.5" />
<rect fill="#EEDDDB" height="24" width="4.40625" x="3546.5" y="18.5" />
<rect fill="none" height="24" stroke="#405C86" stroke-width="3" width="96" x="3546.5" y="18.5" />
<text class="small-label intrinsic-color" x="3594.5" y="31.5">base[11]</text>
<rect fill="#DEE6F1" height="24" width="91.59375" x="3454.90625" y="18.5" />
<rect fill="#EEDDDB" height="24" width="4.40625" x="3450.5" y="18.5" />
<rect fill="none" height="24" stroke="#405C86" stroke-width="3" width="96" x="3450.5" y="18.5" />
<text class="small-label intrinsic-color" x="3498.5" y="31.5">base[12]</text>
<rect fill="#DEE6F1" height="24" width="91.59375" x="3358.90625" y="18.5" />
<rect fill="#EEDDDB" height="24" width="4.40625" x="3354.5" y="18.5" />
<rect fill="none" height="24" stroke="#405C86" stroke-width="3" width="96" x="3354.5" y="18.5" />
<text class="small-label intrinsic-color" x="3402.5" y="31.5">base[13]</text>
<rect fill="#DEE6F1" height="24" width="91.59375" x="3262.90625" y="18.5" />
<rect fill="#EEDDDB" height="24" width="4.40625" x="3258.5" y="18.5" />
<rect fill="none" height="24" stroke="#405C86" stroke-width="3" width="96" x="3258.5" y="18.5" />
<text class="small-label intrinsic-color" x="3306.5" y="31.5">base[14]</text>
<rect fill="#DEE6F1" height="24" width="91.59375" x="3166.90625" y="18.5" />
<rect fill="#EEDDDB" height="24" width="4.40625" x="3162.5" y="18.5" />
<rect fill="none" height="24" stroke="#405C86" stroke-width="3" width="96" x="3162.5" y="18.5" />
<text class="small-label intrinsic-color" x="3210.5" y="31.5">base[15]</text>
<rect fill="#DEE6F1" height="24" width="91.59375" x="3070.90625" y="18.5" />
<rect fill="#EEDDDB" height="24" width="4.40625" x="3066.5" y="18.5" />
<rect fill="none" height="24" stroke="#405C86" stroke-width="3" width="96" x="3066.5" y="18.5" />
<text class="small-label intrinsic-color" x="3114.5" y="31.5">base[16]</text>
<rect fill="#DEE6F1" height="24" width="91.59375" x="2974.90625" y="18.5" />
<rect fill="#EEDDDB" height="24" width="4.40625" x="2970.5" y="18.5" />
<rect fill="none" height="24" stroke="#405C86" stroke-width="3" width="96" x="2970.5" y="18.5" />
<text class="small-label intrinsic-color" x="3018.5" y="31.5">base[17]</text>
<rect fill="#DEE6F1" height="24" width="91.59375" x="2878.90625" y="18.5" />
<rect fill="#EEDDDB" height="24" width="4.40625" x="2874.5" y="18.5" />
<rect fill="none" height="24" stroke="#405C86" stroke-width="3" width="96" x="2874.5" y="18.5" />
<text class="small-label intrinsic-color" x="2922.5" y="31.5">base[18]</text>
<rect fill="#DEE6F1" height="24" width="91.59375" x="2782.90625" y="18.5" />
<rect fill="#EEDDDB" height="24" width="4.40625" x="2778.5" y="18.5" />
<rect fill="none" height="24" stroke="#405C86" stroke-width="3" width="96" x="2778.5" y="18.5" />
<text class="small-label intrinsic-color" x="2826.5" y="31.5">base[19]</text>
<rect fill="#DEE6F1" height="24" width="91.59375" x="2686.90625" y="18.5" />
<rect fill="#EEDDDB" height="24" width="4.40625" x="2682.5" y="18.5" />
<rect fill="none" height="24" stroke="#405C86" stroke-width="3" width="96" x="2682.5" y="18.5" />
<text class="small-label intrinsic-color" x="2730.5" y="31.5">base[20]</text>
<rect fill="#DEE6F1" height="24" width="91.59375" x="2590.90625" y="18.5" />
<rect fill="#EEDDDB" height="24" width="4.40625" x="2586.5" y="18.5" />
<rect fill="none" height="24" stroke="#405C86" stroke-width="3" width="96" x="2586.5" y="18.5" />
<text class="small-label intrinsic-color" x="2634.5" y="31.5">base[21]</text>
<rect fill="#DEE6F1" height="24" width="91.59375" x="2494.90625" y="18.5" />
<rect fill="#EEDDDB" height="24" width="4.40625" x="2490.5" y="18.5" />
<rect fill="none" height="24" stroke="#405C86" stroke-width="3" width="96" x="2490.5" y="18.5" />
<text class="small-label intrinsic-color" x="2538.5" y="31.5">base[22]</text>
<rect fill="#DEE6F1" height="24" width="91.59375" x="2398.90625" y="18.5" />
<rect fill="#EEDDDB" height="24" width="4.40625" x="2394.5" y="18.5" />
<rect fill="none" height="24" stroke="#405C86" stroke-width="3" width="96" x="2394.5" y="18.5" />
<text class="small-label intrinsic-color" x="2442.5" y="31.5">base[23]</text>
<rect fill="#DEE6F1" height="24" width="91.59375" x="2302.90625" y="18.5" />
<rect fill="#EEDDDB" height="24" width="4.40625" x="2298.5" y="18.5" />
<rect fill="none" height="24" stroke="#405C86" stroke-width="3" width="96" x="2298.5" y="18.5" />
<text class="small-label intrinsic-color" x="2346.5" y="31.5">base[24]</text>
<rect fill="#DEE6F1" height="24" width="91.59375" x="2206.90625" y="18.5" />
<rect fill="#EEDDDB" height="24" width="4.40625" x="2202.5" y="18.5" />
<rect fill="none" height="24" stroke="#405C86" stroke-width="3" width="96" x="2202.5" y="18.5" />
<text class="small-label intrinsic-color" x="2250.5" y="31.5">base[25]</text>
<rect fill="#DEE6F1" height="24" width="91.59375" x="2110.90625" y="18.5" />
<rect fill="#EEDDDB" height="24" width="4.40625" x="2106.5" y="18.5" />
<rect fill="none" height="24" stroke="#405C86" stroke-width="3" width="96" x="2106.5" y="18.5" />
<text class="small-label intrinsic-color" x="2154.5" y="31.5">base[26]</text>
<rect fill="#DEE6F1" height="24" width="91.59375" x="2014.90625" y="18.5" />
<rect fill="#EEDDDB" height="24" width="4.40625" x="2010.5" y="18.5" />
<rect fill="none" height="24" stroke="#405C86" stroke-width="3" width="96" x="2010.5" y="18.5" />
<text class="small-label intrinsic-color" x="2058.5" y="31.5">base[27]</text>
<rect fill="#DEE6F1" height="24" width="91.59375" x="1918.90625" y="18.5" />
<rect fill="#EEDDDB" height="24" width="4.40625" x="1914.5" y="18.5" />
<rect fill="none" height="24" stroke="#405C86" stroke-width="3" width="96" x="1914.5" y="18.5" />
<text class="small-label intrinsic-color" x="1962.5" y="31.5">base[28]</text>
<rect fill="#DEE6F1" height="24" width="91.59375" x="1822.90625" y="18.5" />
<rect fill="#EEDDDB" height="24" width="4.40625" x="1818.5" y="18.5" />
<rect fill="none" height="24" stroke="#405C86" stroke-width="3" width="96" x="1818.5" y="18.5" />
<text class="small-label intrinsic-color" x="1866.5" y="31.5">base[29]</text>
<rect fill="#DEE6F1" height="24" width="91.59375" x="1726.90625" y="18.5" />
<rect fill="#EEDDDB" height="24" width="4.40625" x="1722.5" y="18.5" />
<rect fill="none" height="24" stroke="#405C86" stroke-width="3" width="96" x="1722.5" y="18.5" />
<text class="small-label intrinsic-color" x="1770.5" y="31.5">base[30]</text>
<rect fill="#DEE6F1" height="24" width="91.59375" x="1630.90625" y="18.5" />
<rect fill="#EEDDDB" height="24" width="4.40625" x="1626.5" y="18.5" />
<rect fill="none" height="24" stroke="#405C86" stroke-width="3" width="96" x="1626.5" y="18.5" />
<text class="small-label intrinsic-color" x="1674.5" y="31.5">base[31]</text>
<text class="register-name" x="80.5" y="30.5">[mem]</text>
<text class="intrinsic-name" x="80.5" y="42.5">*base</text>
<text class="register-number" x="10" y="30.5">(1)</text>
<rect fill="#DEE6F1" height="24" width="93.046875" x="6141.453125" y="90.5" />
<rect fill="#EEDDDB" height="24" width="98.953125" x="6042.5" y="90.5" />
<rect fill="none" height="24" stroke="#405C86" stroke-width="3" width="192" x="6042.5" y="90.5" />
<rect fill="#DEE6F1" height="24" width="93.046875" x="5949.453125" y="90.5" />
<rect fill="#EEDDDB" height="24" width="98.953125" x="5850.5" y="90.5" />
<rect fill="none" height="24" stroke="#405C86" stroke-width="3" width="192" x="5850.5" y="90.5" />
<rect fill="#DEE6F1" height="24" width="93.046875" x="5757.453125" y="90.5" />
<rect fill="#EEDDDB" height="24" width="98.953125" x="5658.5" y="90.5" />
<rect fill="none" height="24" stroke="#405C86" stroke-width="3" width="192" x="5658.5" y="90.5" />
<rect fill="#DEE6F1" height="24" width="93.046875" x="5565.453125" y="90.5" />
<rect fill="#EEDDDB" height="24" width="98.953125" x="5466.5" y="90.5" />
<rect fill="none" height="24" stroke="#405C86" stroke-width="3" width="192" x="5466.5" y="90.5" />
<rect fill="#DEE6F1" height="24" width="93.046875" x="5373.453125" y="90.5" />
<rect fill="#EEDDDB" height="24" width="98.953125" x="5274.5" y="90.5" />
<rect fill="none" height="24" stroke="#405C86" stroke-width="3" width="192" x="5274.5" y="90.5" />
<rect fill="#DEE6F1" height="24" width="93.046875" x="5181.453125" y="90.5" />
<rect fill="#EEDDDB" height="24" width="98.953125" x="5082.5" y="90.5" />
<rect fill="none" height="24" stroke="#405C86" stroke-width="3" width="192" x="5082.5" y="90.5" />
<rect fill="#DEE6F1" height="24" width="93.046875" x="4989.453125" y="90.5" />
<rect fill="#EEDDDB" height="24" width="98.953125" x="4890.5" y="90.5" />
<rect fill="none" height="24" stroke="#405C86" stroke-width="3" width="192" x="4890.5" y="90.5" />
<rect fill="#DEE6F1" height="24" width="93.046875" x="4797.453125" y="90.5" />
<rect fill="#EEDDDB" height="24" width="98.953125" x="4698.5" y="90.5" />
<rect fill="none" height="24" stroke="#405C86" stroke-width="3" width="192" x="4698.5" y="90.5" />
<rect fill="#DEE6F1" height="24" width="93.046875" x="4605.453125" y="90.5" />
<rect fill="#EEDDDB" height="24" width="98.953125" x="4506.5" y="90.5" />
<rect fill="none" height="24" stroke="#405C86" stroke-width="3" width="192" x="4506.5" y="90.5" />
<rect fill="#DEE6F1" height="24" width="93.046875" x="4413.453125" y="90.5" />
<rect fill="#EEDDDB" height="24" width="98.953125" x="4314.5" y="90.5" />
<rect fill="none" height="24" stroke="#405C86" stroke-width="3" width="192" x="4314.5" y="90.5" />
<rect fill="#DEE6F1" height="24" width="93.046875" x="4221.453125" y="90.5" />
<rect fill="#EEDDDB" height="24" width="98.953125" x="4122.5" y="90.5" />
<rect fill="none" height="24" stroke="#405C86" stroke-width="3" width="192" x="4122.5" y="90.5" />
<rect fill="#DEE6F1" height="24" width="93.046875" x="4029.453125" y="90.5" />
<rect fill="#EEDDDB" height="24" width="98.953125" x="3930.5" y="90.5" />
<rect fill="none" height="24" stroke="#405C86" stroke-width="3" width="192" x="3930.5" y="90.5" />
<rect fill="#DEE6F1" height="24" width="93.046875" x="3837.453125" y="90.5" />
<rect fill="#EEDDDB" height="24" width="98.953125" x="3738.5" y="90.5" />
<rect fill="none" height="24" stroke="#405C86" stroke-width="3" width="192" x="3738.5" y="90.5" />
<rect fill="#DEE6F1" height="24" width="93.046875" x="3645.453125" y="90.5" />
<rect fill="#EEDDDB" height="24" width="98.953125" x="3546.5" y="90.5" />
<rect fill="none" height="24" stroke="#405C86" stroke-width="3" width="192" x="3546.5" y="90.5" />
<rect fill="#DEE6F1" height="24" width="93.046875" x="3453.453125" y="90.5" />
<rect fill="#EEDDDB" height="24" width="98.953125" x="3354.5" y="90.5" />
<rect fill="none" height="24" stroke="#405C86" stroke-width="3" width="192" x="3354.5" y="90.5" />
<rect fill="#DEE6F1" height="24" width="93.046875" x="3261.453125" y="90.5" />
<rect fill="#EEDDDB" height="24" width="98.953125" x="3162.5" y="90.5" />
<rect fill="none" height="24" stroke="#405C86" stroke-width="3" width="192" x="3162.5" y="90.5" />
<rect fill="#DEE6F1" height="24" width="93.046875" x="3069.453125" y="90.5" />
<rect fill="#EEDDDB" height="24" width="98.953125" x="2970.5" y="90.5" />
<rect fill="none" height="24" stroke="#405C86" stroke-width="3" width="192" x="2970.5" y="90.5" />
<rect fill="#DEE6F1" height="24" width="93.046875" x="2877.453125" y="90.5" />
<rect fill="#EEDDDB" height="24" width="98.953125" x="2778.5" y="90.5" />
<rect fill="none" height="24" stroke="#405C86" stroke-width="3" width="192" x="2778.5" y="90.5" />
<rect fill="#DEE6F1" height="24" width="93.046875" x="2685.453125" y="90.5" />
<rect fill="#EEDDDB" height="24" width="98.953125" x="2586.5" y="90.5" />
<rect fill="none" height="24" stroke="#405C86" stroke-width="3" width="192" x="2586.5" y="90.5" />
<rect fill="#DEE6F1" height="24" width="93.046875" x="2493.453125" y="90.5" />
<rect fill="#EEDDDB" height="24" width="98.953125" x="2394.5" y="90.5" />
<rect fill="none" height="24" stroke="#405C86" stroke-width="3" width="192" x="2394.5" y="90.5" />
<rect fill="#DEE6F1" height="24" width="93.046875" x="2301.453125" y="90.5" />
<rect fill="#EEDDDB" height="24" width="98.953125" x="2202.5" y="90.5" />
<rect fill="none" height="24" stroke="#405C86" stroke-width="3" width="192" x="2202.5" y="90.5" />
<rect fill="#DEE6F1" height="24" width="93.046875" x="2109.453125" y="90.5" />
<rect fill="#EEDDDB" height="24" width="98.953125" x="2010.5" y="90.5" />
<rect fill="none" height="24" stroke="#405C86" stroke-width="3" width="192" x="2010.5" y="90.5" />
<rect fill="#DEE6F1" height="24" width="93.046875" x="1917.453125" y="90.5" />
<rect fill="#EEDDDB" height="24" width="98.953125" x="1818.5" y="90.5" />
<rect fill="none" height="24" stroke="#405C86" stroke-width="3" width="192" x="1818.5" y="90.5" />
<rect fill="#DEE6F1" height="24" width="93.046875" x="1725.453125" y="90.5" />
<rect fill="#EEDDDB" height="24" width="98.953125" x="1626.5" y="90.5" />
<rect fill="none" height="24" stroke="#405C86" stroke-width="3" width="192" x="1626.5" y="90.5" />
<rect fill="#DEE6F1" height="24" width="93.046875" x="1533.453125" y="90.5" />
<rect fill="#EEDDDB" height="24" width="98.953125" x="1434.5" y="90.5" />
<rect fill="none" height="24" stroke="#405C86" stroke-width="3" width="192" x="1434.5" y="90.5" />
<rect fill="#DEE6F1" height="24" width="93.046875" x="1341.453125" y="90.5" />
<rect fill="#EEDDDB" height="24" width="98.953125" x="1242.5" y="90.5" />
<rect fill="none" height="24" stroke="#405C86" stroke-width="3" width="192" x="1242.5" y="90.5" />
<rect fill="#DEE6F1" height="24" width="93.046875" x="1149.453125" y="90.5" />
<rect fill="#EEDDDB" height="24" width="98.953125" x="1050.5" y="90.5" />
<rect fill="none" height="24" stroke="#405C86" stroke-width="3" width="192" x="1050.5" y="90.5" />
<rect fill="#DEE6F1" height="24" width="93.046875" x="957.453125" y="90.5" />
<rect fill="#EEDDDB" height="24" width="98.953125" x="858.5" y="90.5" />
<rect fill="none" height="24" stroke="#405C86" stroke-width="3" width="192" x="858.5" y="90.5" />
<rect fill="#DEE6F1" height="24" width="93.046875" x="765.453125" y="90.5" />
<rect fill="#EEDDDB" height="24" width="98.953125" x="666.5" y="90.5" />
<rect fill="none" height="24" stroke="#405C86" stroke-width="3" width="192" x="666.5" y="90.5" />
<rect fill="#DEE6F1" height="24" width="93.046875" x="573.453125" y="90.5" />
<rect fill="#EEDDDB" height="24" width="98.953125" x="474.5" y="90.5" />
<rect fill="none" height="24" stroke="#405C86" stroke-width="3" width="192" x="474.5" y="90.5" />
<rect fill="#DEE6F1" height="24" width="93.046875" x="381.453125" y="90.5" />
<rect fill="#EEDDDB" height="24" width="98.953125" x="282.5" y="90.5" />
<rect fill="none" height="24" stroke="#405C86" stroke-width="3" width="192" x="282.5" y="90.5" />
<rect fill="#DEE6F1" height="24" width="93.046875" x="189.453125" y="90.5" />
<rect fill="#EEDDDB" height="24" width="98.953125" x="90.5" y="90.5" />
<rect fill="none" height="24" stroke="#405C86" stroke-width="3" width="192" x="90.5" y="90.5" />
<text class="register-name" x="80.5" y="102.5">Zt</text>
<text class="intrinsic-name" x="80.5" y="114.5">returns</text>
<text class="register-number" x="10" y="102.5">(2)</text>
<line marker-end="url(#arrowhead)" stroke="none" x1="4650.5" x2="6187.9765625" y1="43.5" y2="89" />
<line marker-end="url(#arrowhead)" stroke="none" x1="4554.5" x2="5995.9765625" y1="43.5" y2="89" />
<line marker-end="url(#arrowhead)" stroke="none" x1="4458.5" x2="5803.9765625" y1="43.5" y2="89" />
<line marker-end="url(#arrowhead)" stroke="none" x1="4362.5" x2="5611.9765625" y1="43.5" y2="89" />
<line marker-end="url(#arrowhead)" stroke="none" x1="4266.5" x2="5419.9765625" y1="43.5" y2="89" />
<line marker-end="url(#arrowhead)" stroke="none" x1="4170.5" x2="5227.9765625" y1="43.5" y2="89" />
<line marker-end="url(#arrowhead)" stroke="none" x1="4074.5" x2="5035.9765625" y1="43.5" y2="89" />
<line marker-end="url(#arrowhead)" stroke="none" x1="3978.5" x2="4843.9765625" y1="43.5" y2="89" />
<line marker-end="url(#arrowhead)" stroke="none" x1="3882.5" x2="4651.9765625" y1="43.5" y2="89" />
<line marker-end="url(#arrowhead)" stroke="none" x1="3786.5" x2="4459.9765625" y1="43.5" y2="89" />
<line marker-end="url(#arrowhead)" stroke="none" x1="3690.5" x2="4267.9765625" y1="43.5" y2="89" />
<line marker-end="url(#arrowhead)" stroke="none" x1="3594.5" x2="4075.9765625" y1="43.5" y2="89" />
<line marker-end="url(#arrowhead)" stroke="none" x1="3498.5" x2="3883.9765625" y1="43.5" y2="89" />
<line marker-end="url(#arrowhead)" stroke="none" x1="3402.5" x2="3691.9765625" y1="43.5" y2="89" />
<line marker-end="url(#arrowhead)" stroke="none" x1="3306.5" x2="3499.9765625" y1="43.5" y2="89" />
<line marker-end="url(#arrowhead)" stroke="none" x1="3210.5" x2="3307.9765625" y1="43.5" y2="89" />
<line marker-end="url(#arrowhead)" stroke="none" x1="3114.5" x2="3115.9765625" y1="43.5" y2="89" />
<line marker-end="url(#arrowhead)" stroke="none" x1="3018.5" x2="2923.9765625" y1="43.5" y2="89" />
<line marker-end="url(#arrowhead)" stroke="none" x1="2922.5" x2="2731.9765625" y1="43.5" y2="89" />
<line marker-end="url(#arrowhead)" stroke="none" x1="2826.5" x2="2539.9765625" y1="43.5" y2="89" />
<line marker-end="url(#arrowhead)" stroke="none" x1="2730.5" x2="2347.9765625" y1="43.5" y2="89" />
<line marker-end="url(#arrowhead)" stroke="none" x1="2634.5" x2="2155.9765625" y1="43.5" y2="89" />
<line marker-end="url(#arrowhead)" stroke="none" x1="2538.5" x2="1963.9765625" y1="43.5" y2="89" />
<line marker-end="url(#arrowhead)" stroke="none" x1="2442.5" x2="1771.9765625" y1="43.5" y2="89" />
<line marker-end="url(#arrowhead)" stroke="none" x1="2346.5" x2="1579.9765625" y1="43.5" y2="89" />
<line marker-end="url(#arrowhead)" stroke="none" x1="2250.5" x2="1387.9765625" y1="43.5" y2="89" />
<line marker-end="url(#arrowhead)" stroke="none" x1="2154.5" x2="1195.9765625" y1="43.5" y2="89" />
<line marker-end="url(#arrowhead)" stroke="none" x1="2058.5" x2="1003.9765625" y1="43.5" y2="89" />
<line marker-end="url(#arrowhead)" stroke="none" x1="1962.5" x2="811.9765625" y1="43.5" y2="89" />
<line marker-end="url(#arrowhead)" stroke="none" x1="1866.5" x2="619.9765625" y1="43.5" y2="89" />
<line marker-end="url(#arrowhead)" stroke="none" x1="1770.5" x2="427.9765625" y1="43.5" y2="89" />
<line marker-end="url(#arrowhead)" stroke="none" x1="1674.5" x2="235.9765625" y1="43.5" y2="89" />
</svg>