<svg xmlns="http://www.w3.org/2000/svg" viewBox="0 0 3174 123">
<style>
.label { font: 14px Helvetica; dominant-baseline: middle; text-anchor: middle; }
.title-left { font: 12px Helvetica; dominant-baseline: middle; }
.title-right { font: 12px Helvetica; dominant-baseline: middle; text-anchor: end; }
.title-intrinsic { font: 12px Helvetica; dominant-baseline: middle; text-anchor: middle; fill: #6778ED; }
.title { font: 12px Helvetica; dominant-baseline: middle; text-anchor: middle; }
.title-unused { font: 12px Helvetica; dominant-baseline: middle; text-anchor: middle; fill: #AAA; }
.register-name { font: 14px Helvetica; dominant-baseline: middle; text-anchor: end; font-style: italic; }
.memory-name { font: 14px Helvetica; dominant-baseline: middle; text-anchor: end; }
.register-number { font: 14px Helvetica; dominant-baseline: middle; text-anchor: start; }
.intrinsic-name { font: 14px Helvetica; dominant-baseline: middle; text-anchor: end; fill: #6778ED; }
.intrinsic-color { fill: #6778ED; }
.small-label { font: 12px Helvetica; dominant-baseline: middle; text-anchor: middle; }
.label-10px { font: 10px Helvetica; dominant-baseline: middle; text-anchor: middle; }
.smaller-label { font: 9px Helvetica; dominant-baseline: middle; text-anchor: middle; }
.label-6px { font: 6px Helvetica; dominant-baseline: middle; text-anchor: middle; }
.label-7px { font: 7px Helvetica; dominant-baseline: middle; text-anchor: middle; }
.unused { fill: #AAA; }
.dim { fill: #888; }
</style>
<defs>
<marker id="arrowhead" markerWidth="10.75" markerHeight="24.5" refX="9.0" refY="6.125" orient="auto">
<polyline points="0.5 0.5, 8.75 6.125, 0.5 11.75" stroke="#567DB6" stroke-width="1" fill="none"/>
</marker>
</defs>
<line stroke="#567DB6" stroke-width="1" x1="2370.5" x2="3139.953125" y1="43.5" y2="89" />
<line stroke="#567DB6" stroke-width="1" x1="2322.5" x2="3043.953125" y1="43.5" y2="89" />
<line stroke="#567DB6" stroke-width="1" x1="2274.5" x2="2947.953125" y1="43.5" y2="89" />
<line stroke="#567DB6" stroke-width="1" x1="2226.5" x2="2851.953125" y1="43.5" y2="89" />
<line stroke="#567DB6" stroke-width="1" x1="2178.5" x2="2755.953125" y1="43.5" y2="89" />
<line stroke="#567DB6" stroke-width="1" x1="2130.5" x2="2659.953125" y1="43.5" y2="89" />
<line stroke="#567DB6" stroke-width="1" x1="2082.5" x2="2563.953125" y1="43.5" y2="89" />
<line stroke="#567DB6" stroke-width="1" x1="2034.5" x2="2467.953125" y1="43.5" y2="89" />
<line stroke="#567DB6" stroke-width="1" x1="1986.5" x2="2371.953125" y1="43.5" y2="89" />
<line stroke="#567DB6" stroke-width="1" x1="1938.5" x2="2275.953125" y1="43.5" y2="89" />
<line stroke="#567DB6" stroke-width="1" x1="1890.5" x2="2179.953125" y1="43.5" y2="89" />
<line stroke="#567DB6" stroke-width="1" x1="1842.5" x2="2083.953125" y1="43.5" y2="89" />
<line stroke="#567DB6" stroke-width="1" x1="1794.5" x2="1987.953125" y1="43.5" y2="89" />
<line stroke="#567DB6" stroke-width="1" x1="1746.5" x2="1891.953125" y1="43.5" y2="89" />
<line stroke="#567DB6" stroke-width="1" x1="1698.5" x2="1795.953125" y1="43.5" y2="89" />
<line stroke="#567DB6" stroke-width="1" x1="1650.5" x2="1699.953125" y1="43.5" y2="89" />
<line stroke="#567DB6" stroke-width="1" x1="1602.5" x2="1603.953125" y1="43.5" y2="89" />
<line stroke="#567DB6" stroke-width="1" x1="1554.5" x2="1507.953125" y1="43.5" y2="89" />
<line stroke="#567DB6" stroke-width="1" x1="1506.5" x2="1411.953125" y1="43.5" y2="89" />
<line stroke="#567DB6" stroke-width="1" x1="1458.5" x2="1315.953125" y1="43.5" y2="89" />
<line stroke="#567DB6" stroke-width="1" x1="1410.5" x2="1219.953125" y1="43.5" y2="89" />
<line stroke="#567DB6" stroke-width="1" x1="1362.5" x2="1123.953125" y1="43.5" y2="89" />
<line stroke="#567DB6" stroke-width="1" x1="1314.5" x2="1027.953125" y1="43.5" y2="89" />
<line stroke="#567DB6" stroke-width="1" x1="1266.5" x2="931.953125" y1="43.5" y2="89" />
<line stroke="#567DB6" stroke-width="1" x1="1218.5" x2="835.953125" y1="43.5" y2="89" />
<line stroke="#567DB6" stroke-width="1" x1="1170.5" x2="739.953125" y1="43.5" y2="89" />
<line stroke="#567DB6" stroke-width="1" x1="1122.5" x2="643.953125" y1="43.5" y2="89" />
<line stroke="#567DB6" stroke-width="1" x1="1074.5" x2="547.953125" y1="43.5" y2="89" />
<line stroke="#567DB6" stroke-width="1" x1="1026.5" x2="451.953125" y1="43.5" y2="89" />
<line stroke="#567DB6" stroke-width="1" x1="978.5" x2="355.953125" y1="43.5" y2="89" />
<line stroke="#567DB6" stroke-width="1" x1="930.5" x2="259.953125" y1="43.5" y2="89" />
<line stroke="#567DB6" stroke-width="1" x1="882.5" x2="163.953125" y1="43.5" y2="89" />
<text class="title-left" x="90.5" y="9.5">upper</text>
<text class="title-right" x="3162.5" y="9.5">lower</text>
<rect fill="#DEE6F1" height="24" width="43.6875" x="2350.8125" y="18.5" />
<rect fill="#EEDDDB" height="24" width="4.3125" x="2346.5" y="18.5" />
<rect fill="none" height="24" stroke="#405C86" stroke-width="3" width="48" x="2346.5" y="18.5" />
<text class="smaller-label intrinsic-color" x="2370.5" y="31.5">base[0]</text>
<rect fill="#DEE6F1" height="24" width="43.6875" x="2302.8125" y="18.5" />
<rect fill="#EEDDDB" height="24" width="4.3125" x="2298.5" y="18.5" />
<rect fill="none" height="24" stroke="#405C86" stroke-width="3" width="48" x="2298.5" y="18.5" />
<text class="smaller-label intrinsic-color" x="2322.5" y="31.5">base[1]</text>
<rect fill="#DEE6F1" height="24" width="43.6875" x="2254.8125" y="18.5" />
<rect fill="#EEDDDB" height="24" width="4.3125" x="2250.5" y="18.5" />
<rect fill="none" height="24" stroke="#405C86" stroke-width="3" width="48" x="2250.5" y="18.5" />
<text class="smaller-label intrinsic-color" x="2274.5" y="31.5">base[2]</text>
<rect fill="#DEE6F1" height="24" width="43.6875" x="2206.8125" y="18.5" />
<rect fill="#EEDDDB" height="24" width="4.3125" x="2202.5" y="18.5" />
<rect fill="none" height="24" stroke="#405C86" stroke-width="3" width="48" x="2202.5" y="18.5" />
<text class="smaller-label intrinsic-color" x="2226.5" y="31.5">base[3]</text>
<rect fill="#DEE6F1" height="24" width="43.6875" x="2158.8125" y="18.5" />
<rect fill="#EEDDDB" height="24" width="4.3125" x="2154.5" y="18.5" />
<rect fill="none" height="24" stroke="#405C86" stroke-width="3" width="48" x="2154.5" y="18.5" />
<text class="smaller-label intrinsic-color" x="2178.5" y="31.5">base[4]</text>
<rect fill="#DEE6F1" height="24" width="43.6875" x="2110.8125" y="18.5" />
<rect fill="#EEDDDB" height="24" width="4.3125" x="2106.5" y="18.5" />
<rect fill="none" height="24" stroke="#405C86" stroke-width="3" width="48" x="2106.5" y="18.5" />
<text class="smaller-label intrinsic-color" x="2130.5" y="31.5">base[5]</text>
<rect fill="#DEE6F1" height="24" width="43.6875" x="2062.8125" y="18.5" />
<rect fill="#EEDDDB" height="24" width="4.3125" x="2058.5" y="18.5" />
<rect fill="none" height="24" stroke="#405C86" stroke-width="3" width="48" x="2058.5" y="18.5" />
<text class="smaller-label intrinsic-color" x="2082.5" y="31.5">base[6]</text>
<rect fill="#DEE6F1" height="24" width="43.6875" x="2014.8125" y="18.5" />
<rect fill="#EEDDDB" height="24" width="4.3125" x="2010.5" y="18.5" />
<rect fill="none" height="24" stroke="#405C86" stroke-width="3" width="48" x="2010.5" y="18.5" />
<text class="smaller-label intrinsic-color" x="2034.5" y="31.5">base[7]</text>
<rect fill="#DEE6F1" height="24" width="43.6875" x="1966.8125" y="18.5" />
<rect fill="#EEDDDB" height="24" width="4.3125" x="1962.5" y="18.5" />
<rect fill="none" height="24" stroke="#405C86" stroke-width="3" width="48" x="1962.5" y="18.5" />
<text class="smaller-label intrinsic-color" x="1986.5" y="31.5">base[8]</text>
<rect fill="#DEE6F1" height="24" width="43.6875" x="1918.8125" y="18.5" />
<rect fill="#EEDDDB" height="24" width="4.3125" x="1914.5" y="18.5" />
<rect fill="none" height="24" stroke="#405C86" stroke-width="3" width="48" x="1914.5" y="18.5" />
<text class="smaller-label intrinsic-color" x="1938.5" y="31.5">base[9]</text>
<rect fill="#DEE6F1" height="24" width="43.6875" x="1870.8125" y="18.5" />
<rect fill="#EEDDDB" height="24" width="4.3125" x="1866.5" y="18.5" />
<rect fill="none" height="24" stroke="#405C86" stroke-width="3" width="48" x="1866.5" y="18.5" />
<text class="smaller-label intrinsic-color" x="1890.5" y="31.5">base[10]</text>
<rect fill="#DEE6F1" height="24" width="43.6875" x="1822.8125" y="18.5" />
<rect fill="#EEDDDB" height="24" width="4.3125" x="1818.5" y="18.5" />
<rect fill="none" height="24" stroke="#405C86" stroke-width="3" width="48" x="1818.5" y="18.5" />
<text class="smaller-label intrinsic-color" x="1842.5" y="31.5">base[11]</text>
<rect fill="#DEE6F1" height="24" width="43.6875" x="1774.8125" y="18.5" />
<rect fill="#EEDDDB" height="24" width="4.3125" x="1770.5" y="18.5" />
<rect fill="none" height="24" stroke="#405C86" stroke-width="3" width="48" x="1770.5" y="18.5" />
<text class="smaller-label intrinsic-color" x="1794.5" y="31.5">base[12]</text>
<rect fill="#DEE6F1" height="24" width="43.6875" x="1726.8125" y="18.5" />
<rect fill="#EEDDDB" height="24" width="4.3125" x="1722.5" y="18.5" />
<rect fill="none" height="24" stroke="#405C86" stroke-width="3" width="48" x="1722.5" y="18.5" />
<text class="smaller-label intrinsic-color" x="1746.5" y="31.5">base[13]</text>
<rect fill="#DEE6F1" height="24" width="43.6875" x="1678.8125" y="18.5" />
<rect fill="#EEDDDB" height="24" width="4.3125" x="1674.5" y="18.5" />
<rect fill="none" height="24" stroke="#405C86" stroke-width="3" width="48" x="1674.5" y="18.5" />
<text class="smaller-label intrinsic-color" x="1698.5" y="31.5">base[14]</text>
<rect fill="#DEE6F1" height="24" width="43.6875" x="1630.8125" y="18.5" />
<rect fill="#EEDDDB" height="24" width="4.3125" x="1626.5" y="18.5" />
<rect fill="none" height="24" stroke="#405C86" stroke-width="3" width="48" x="1626.5" y="18.5" />
<text class="smaller-label intrinsic-color" x="1650.5" y="31.5">base[15]</text>
<rect fill="#DEE6F1" height="24" width="43.6875" x="1582.8125" y="18.5" />
<rect fill="#EEDDDB" height="24" width="4.3125" x="1578.5" y="18.5" />
<rect fill="none" height="24" stroke="#405C86" stroke-width="3" width="48" x="1578.5" y="18.5" />
<text class="smaller-label intrinsic-color" x="1602.5" y="31.5">base[16]</text>
<rect fill="#DEE6F1" height="24" width="43.6875" x="1534.8125" y="18.5" />
<rect fill="#EEDDDB" height="24" width="4.3125" x="1530.5" y="18.5" />
<rect fill="none" height="24" stroke="#405C86" stroke-width="3" width="48" x="1530.5" y="18.5" />
<text class="smaller-label intrinsic-color" x="1554.5" y="31.5">base[17]</text>
<rect fill="#DEE6F1" height="24" width="43.6875" x="1486.8125" y="18.5" />
<rect fill="#EEDDDB" height="24" width="4.3125" x="1482.5" y="18.5" />
<rect fill="none" height="24" stroke="#405C86" stroke-width="3" width="48" x="1482.5" y="18.5" />
<text class="smaller-label intrinsic-color" x="1506.5" y="31.5">base[18]</text>
<rect fill="#DEE6F1" height="24" width="43.6875" x="1438.8125" y="18.5" />
<rect fill="#EEDDDB" height="24" width="4.3125" x="1434.5" y="18.5" />
<rect fill="none" height="24" stroke="#405C86" stroke-width="3" width="48" x="1434.5" y="18.5" />
<text class="smaller-label intrinsic-color" x="1458.5" y="31.5">base[19]</text>
<rect fill="#DEE6F1" height="24" width="43.6875" x="1390.8125" y="18.5" />
<rect fill="#EEDDDB" height="24" width="4.3125" x="1386.5" y="18.5" />
<rect fill="none" height="24" stroke="#405C86" stroke-width="3" width="48" x="1386.5" y="18.5" />
<text class="smaller-label intrinsic-color" x="1410.5" y="31.5">base[20]</text>
<rect fill="#DEE6F1" height="24" width="43.6875" x="1342.8125" y="18.5" />
<rect fill="#EEDDDB" height="24" width="4.3125" x="1338.5" y="18.5" />
<rect fill="none" height="24" stroke="#405C86" stroke-width="3" width="48" x="1338.5" y="18.5" />
<text class="smaller-label intrinsic-color" x="1362.5" y="31.5">base[21]</text>
<rect fill="#DEE6F1" height="24" width="43.6875" x="1294.8125" y="18.5" />
<rect fill="#EEDDDB" height="24" width="4.3125" x="1290.5" y="18.5" />
<rect fill="none" height="24" stroke="#405C86" stroke-width="3" width="48" x="1290.5" y="18.5" />
<text class="smaller-label intrinsic-color" x="1314.5" y="31.5">base[22]</text>
<rect fill="#DEE6F1" height="24" width="43.6875" x="1246.8125" y="18.5" />
<rect fill="#EEDDDB" height="24" width="4.3125" x="1242.5" y="18.5" />
<rect fill="none" height="24" stroke="#405C86" stroke-width="3" width="48" x="1242.5" y="18.5" />
<text class="smaller-label intrinsic-color" x="1266.5" y="31.5">base[23]</text>
<rect fill="#DEE6F1" height="24" width="43.6875" x="1198.8125" y="18.5" />
<rect fill="#EEDDDB" height="24" width="4.3125" x="1194.5" y="18.5" />
<rect fill="none" height="24" stroke="#405C86" stroke-width="3" width="48" x="1194.5" y="18.5" />
<text class="smaller-label intrinsic-color" x="1218.5" y="31.5">base[24]</text>
<rect fill="#DEE6F1" height="24" width="43.6875" x="1150.8125" y="18.5" />
<rect fill="#EEDDDB" height="24" width="4.3125" x="1146.5" y="18.5" />
<rect fill="none" height="24" stroke="#405C86" stroke-width="3" width="48" x="1146.5" y="18.5" />
<text class="smaller-label intrinsic-color" x="1170.5" y="31.5">base[25]</text>
<rect fill="#DEE6F1" height="24" width="43.6875" x="1102.8125" y="18.5" />
<rect fill="#EEDDDB" height="24" width="4.3125" x="1098.5" y="18.5" />
<rect fill="none" height="24" stroke="#405C86" stroke-width="3" width="48" x="1098.5" y="18.5" />
<text class="smaller-label intrinsic-color" x="1122.5" y="31.5">base[26]</text>
<rect fill="#DEE6F1" height="24" width="43.6875" x="1054.8125" y="18.5" />
<rect fill="#EEDDDB" height="24" width="4.3125" x="1050.5" y="18.5" />
<rect fill="none" height="24" stroke="#405C86" stroke-width="3" width="48" x="1050.5" y="18.5" />
<text class="smaller-label intrinsic-color" x="1074.5" y="31.5">base[27]</text>
<rect fill="#DEE6F1" height="24" width="43.6875" x="1006.8125" y="18.5" />
<rect fill="#EEDDDB" height="24" width="4.3125" x="1002.5" y="18.5" />
<rect fill="none" height="24" stroke="#405C86" stroke-width="3" width="48" x="1002.5" y="18.5" />
<text class="smaller-label intrinsic-color" x="1026.5" y="31.5">base[28]</text>
<rect fill="#DEE6F1" height="24" width="43.6875" x="958.8125" y="18.5" />
<rect fill="#EEDDDB" height="24" width="4.3125" x="954.5" y="18.5" />
<rect fill="none" height="24" stroke="#405C86" stroke-width="3" width="48" x="954.5" y="18.5" />
<text class="smaller-label intrinsic-color" x="978.5" y="31.5">base[29]</text>
<rect fill="#DEE6F1" height="24" width="43.6875" x="910.8125" y="18.5" />
<rect fill="#EEDDDB" height="24" width="4.3125" x="906.5" y="18.5" />
<rect fill="none" height="24" stroke="#405C86" stroke-width="3" width="48" x="906.5" y="18.5" />
<text class="smaller-label intrinsic-color" x="930.5" y="31.5">base[30]</text>
<rect fill="#DEE6F1" height="24" width="43.6875" x="862.8125" y="18.5" />
<rect fill="#EEDDDB" height="24" width="4.3125" x="858.5" y="18.5" />
<rect fill="none" height="24" stroke="#405C86" stroke-width="3" width="48" x="858.5" y="18.5" />
<text class="smaller-label intrinsic-color" x="882.5" y="31.5">base[31]</text>
<text class="register-name" x="80.5" y="30.5">[mem]</text>
<text class="intrinsic-name" x="80.5" y="42.5">*base</text>
<text class="register-number" x="10" y="30.5">(1)</text>
<rect fill="#DEE6F1" height="24" width="45.09375" x="3117.40625" y="90.5" />
<rect fill="#EEDDDB" height="24" width="50.90625" x="3066.5" y="90.5" />
<rect fill="none" height="24" stroke="#405C86" stroke-width="3" width="96" x="3066.5" y="90.5" />
<rect fill="#DEE6F1" height="24" width="45.09375" x="3021.40625" y="90.5" />
<rect fill="#EEDDDB" height="24" width="50.90625" x="2970.5" y="90.5" />
<rect fill="none" height="24" stroke="#405C86" stroke-width="3" width="96" x="2970.5" y="90.5" />
<rect fill="#DEE6F1" height="24" width="45.09375" x="2925.40625" y="90.5" />
<rect fill="#EEDDDB" height="24" width="50.90625" x="2874.5" y="90.5" />
<rect fill="none" height="24" stroke="#405C86" stroke-width="3" width="96" x="2874.5" y="90.5" />
<rect fill="#DEE6F1" height="24" width="45.09375" x="2829.40625" y="90.5" />
<rect fill="#EEDDDB" height="24" width="50.90625" x="2778.5" y="90.5" />
<rect fill="none" height="24" stroke="#405C86" stroke-width="3" width="96" x="2778.5" y="90.5" />
<rect fill="#DEE6F1" height="24" width="45.09375" x="2733.40625" y="90.5" />
<rect fill="#EEDDDB" height="24" width="50.90625" x="2682.5" y="90.5" />
<rect fill="none" height="24" stroke="#405C86" stroke-width="3" width="96" x="2682.5" y="90.5" />
<rect fill="#DEE6F1" height="24" width="45.09375" x="2637.40625" y="90.5" />
<rect fill="#EEDDDB" height="24" width="50.90625" x="2586.5" y="90.5" />
<rect fill="none" height="24" stroke="#405C86" stroke-width="3" width="96" x="2586.5" y="90.5" />
<rect fill="#DEE6F1" height="24" width="45.09375" x="2541.40625" y="90.5" />
<rect fill="#EEDDDB" height="24" width="50.90625" x="2490.5" y="90.5" />
<rect fill="none" height="24" stroke="#405C86" stroke-width="3" width="96" x="2490.5" y="90.5" />
<rect fill="#DEE6F1" height="24" width="45.09375" x="2445.40625" y="90.5" />
<rect fill="#EEDDDB" height="24" width="50.90625" x="2394.5" y="90.5" />
<rect fill="none" height="24" stroke="#405C86" stroke-width="3" width="96" x="2394.5" y="90.5" />
<rect fill="#DEE6F1" height="24" width="45.09375" x="2349.40625" y="90.5" />
<rect fill="#EEDDDB" height="24" width="50.90625" x="2298.5" y="90.5" />
<rect fill="none" height="24" stroke="#405C86" stroke-width="3" width="96" x="2298.5" y="90.5" />
<rect fill="#DEE6F1" height="24" width="45.09375" x="2253.40625" y="90.5" />
<rect fill="#EEDDDB" height="24" width="50.90625" x="2202.5" y="90.5" />
<rect fill="none" height="24" stroke="#405C86" stroke-width="3" width="96" x="2202.5" y="90.5" />
<rect fill="#DEE6F1" height="24" width="45.09375" x="2157.40625" y="90.5" />
<rect fill="#EEDDDB" height="24" width="50.90625" x="2106.5" y="90.5" />
<rect fill="none" height="24" stroke="#405C86" stroke-width="3" width="96" x="2106.5" y="90.5" />
<rect fill="#DEE6F1" height="24" width="45.09375" x="2061.40625" y="90.5" />
<rect fill="#EEDDDB" height="24" width="50.90625" x="2010.5" y="90.5" />
<rect fill="none" height="24" stroke="#405C86" stroke-width="3" width="96" x="2010.5" y="90.5" />
<rect fill="#DEE6F1" height="24" width="45.09375" x="1965.40625" y="90.5" />
<rect fill="#EEDDDB" height="24" width="50.90625" x="1914.5" y="90.5" />
<rect fill="none" height="24" stroke="#405C86" stroke-width="3" width="96" x="1914.5" y="90.5" />
<rect fill="#DEE6F1" height="24" width="45.09375" x="1869.40625" y="90.5" />
<rect fill="#EEDDDB" height="24" width="50.90625" x="1818.5" y="90.5" />
<rect fill="none" height="24" stroke="#405C86" stroke-width="3" width="96" x="1818.5" y="90.5" />
<rect fill="#DEE6F1" height="24" width="45.09375" x="1773.40625" y="90.5" />
<rect fill="#EEDDDB" height="24" width="50.90625" x="1722.5" y="90.5" />
<rect fill="none" height="24" stroke="#405C86" stroke-width="3" width="96" x="1722.5" y="90.5" />
<rect fill="#DEE6F1" height="24" width="45.09375" x="1677.40625" y="90.5" />
<rect fill="#EEDDDB" height="24" width="50.90625" x="1626.5" y="90.5" />
<rect fill="none" height="24" stroke="#405C86" stroke-width="3" width="96" x="1626.5" y="90.5" />
<rect fill="#DEE6F1" height="24" width="45.09375" x="1581.40625" y="90.5" />
<rect fill="#EEDDDB" height="24" width="50.90625" x="1530.5" y="90.5" />
<rect fill="none" height="24" stroke="#405C86" stroke-width="3" width="96" x="1530.5" y="90.5" />
<rect fill="#DEE6F1" height="24" width="45.09375" x="1485.40625" y="90.5" />
<rect fill="#EEDDDB" height="24" width="50.90625" x="1434.5" y="90.5" />
<rect fill="none" height="24" stroke="#405C86" stroke-width="3" width="96" x="1434.5" y="90.5" />
<rect fill="#DEE6F1" height="24" width="45.09375" x="1389.40625" y="90.5" />
<rect fill="#EEDDDB" height="24" width="50.90625" x="1338.5" y="90.5" />
<rect fill="none" height="24" stroke="#405C86" stroke-width="3" width="96" x="1338.5" y="90.5" />
<rect fill="#DEE6F1" height="24" width="45.09375" x="1293.40625" y="90.5" />
<rect fill="#EEDDDB" height="24" width="50.90625" x="1242.5" y="90.5" />
<rect fill="none" height="24" stroke="#405C86" stroke-width="3" width="96" x="1242.5" y="90.5" />
<rect fill="#DEE6F1" height="24" width="45.09375" x="1197.40625" y="90.5" />
<rect fill="#EEDDDB" height="24" width="50.90625" x="1146.5" y="90.5" />
<rect fill="none" height="24" stroke="#405C86" stroke-width="3" width="96" x="1146.5" y="90.5" />
<rect fill="#DEE6F1" height="24" width="45.09375" x="1101.40625" y="90.5" />
<rect fill="#EEDDDB" height="24" width="50.90625" x="1050.5" y="90.5" />
<rect fill="none" height="24" stroke="#405C86" stroke-width="3" width="96" x="1050.5" y="90.5" />
<rect fill="#DEE6F1" height="24" width="45.09375" x="1005.40625" y="90.5" />
<rect fill="#EEDDDB" height="24" width="50.90625" x="954.5" y="90.5" />
<rect fill="none" height="24" stroke="#405C86" stroke-width="3" width="96" x="954.5" y="90.5" />
<rect fill="#DEE6F1" height="24" width="45.09375" x="909.40625" y="90.5" />
<rect fill="#EEDDDB" height="24" width="50.90625" x="858.5" y="90.5" />
<rect fill="none" height="24" stroke="#405C86" stroke-width="3" width="96" x="858.5" y="90.5" />
<rect fill="#DEE6F1" height="24" width="45.09375" x="813.40625" y="90.5" />
<rect fill="#EEDDDB" height="24" width="50.90625" x="762.5" y="90.5" />
<rect fill="none" height="24" stroke="#405C86" stroke-width="3" width="96" x="762.5" y="90.5" />
<rect fill="#DEE6F1" height="24" width="45.09375" x="717.40625" y="90.5" />
<rect fill="#EEDDDB" height="24" width="50.90625" x="666.5" y="90.5" />
<rect fill="none" height="24" stroke="#405C86" stroke-width="3" width="96" x="666.5" y="90.5" />
<rect fill="#DEE6F1" height="24" width="45.09375" x="621.40625" y="90.5" />
<rect fill="#EEDDDB" height="24" width="50.90625" x="570.5" y="90.5" />
<rect fill="none" height="24" stroke="#405C86" stroke-width="3" width="96" x="570.5" y="90.5" />
<rect fill="#DEE6F1" height="24" width="45.09375" x="525.40625" y="90.5" />
<rect fill="#EEDDDB" height="24" width="50.90625" x="474.5" y="90.5" />
<rect fill="none" height="24" stroke="#405C86" stroke-width="3" width="96" x="474.5" y="90.5" />
<rect fill="#DEE6F1" height="24" width="45.09375" x="429.40625" y="90.5" />
<rect fill="#EEDDDB" height="24" width="50.90625" x="378.5" y="90.5" />
<rect fill="none" height="24" stroke="#405C86" stroke-width="3" width="96" x="378.5" y="90.5" />
<rect fill="#DEE6F1" height="24" width="45.09375" x="333.40625" y="90.5" />
<rect fill="#EEDDDB" height="24" width="50.90625" x="282.5" y="90.5" />
<rect fill="none" height="24" stroke="#405C86" stroke-width="3" width="96" x="282.5" y="90.5" />
<rect fill="#DEE6F1" height="24" width="45.09375" x="237.40625" y="90.5" />
<rect fill="#EEDDDB" height="24" width="50.90625" x="186.5" y="90.5" />
<rect fill="none" height="24" stroke="#405C86" stroke-width="3" width="96" x="186.5" y="90.5" />
<rect fill="#DEE6F1" height="24" width="45.09375" x="141.40625" y="90.5" />
<rect fill="#EEDDDB" height="24" width="50.90625" x="90.5" y="90.5" />
<rect fill="none" height="24" stroke="#405C86" stroke-width="3" width="96" x="90.5" y="90.5" />
<text class="register-name" x="80.5" y="102.5">Zt</text>
<text class="intrinsic-name" x="80.5" y="114.5">returns</text>
<text class="register-number" x="10" y="102.5">(2)</text>
<line marker-end="url(#arrowhead)" stroke="none" x1="2370.5" x2="3139.953125" y1="43.5" y2="89" />
<line marker-end="url(#arrowhead)" stroke="none" x1="2322.5" x2="3043.953125" y1="43.5" y2="89" />
<line marker-end="url(#arrowhead)" stroke="none" x1="2274.5" x2="2947.953125" y1="43.5" y2="89" />
<line marker-end="url(#arrowhead)" stroke="none" x1="2226.5" x2="2851.953125" y1="43.5" y2="89" />
<line marker-end="url(#arrowhead)" stroke="none" x1="2178.5" x2="2755.953125" y1="43.5" y2="89" />
<line marker-end="url(#arrowhead)" stroke="none" x1="2130.5" x2="2659.953125" y1="43.5" y2="89" />
<line marker-end="url(#arrowhead)" stroke="none" x1="2082.5" x2="2563.953125" y1="43.5" y2="89" />
<line marker-end="url(#arrowhead)" stroke="none" x1="2034.5" x2="2467.953125" y1="43.5" y2="89" />
<line marker-end="url(#arrowhead)" stroke="none" x1="1986.5" x2="2371.953125" y1="43.5" y2="89" />
<line marker-end="url(#arrowhead)" stroke="none" x1="1938.5" x2="2275.953125" y1="43.5" y2="89" />
<line marker-end="url(#arrowhead)" stroke="none" x1="1890.5" x2="2179.953125" y1="43.5" y2="89" />
<line marker-end="url(#arrowhead)" stroke="none" x1="1842.5" x2="2083.953125" y1="43.5" y2="89" />
<line marker-end="url(#arrowhead)" stroke="none" x1="1794.5" x2="1987.953125" y1="43.5" y2="89" />
<line marker-end="url(#arrowhead)" stroke="none" x1="1746.5" x2="1891.953125" y1="43.5" y2="89" />
<line marker-end="url(#arrowhead)" stroke="none" x1="1698.5" x2="1795.953125" y1="43.5" y2="89" />
<line marker-end="url(#arrowhead)" stroke="none" x1="1650.5" x2="1699.953125" y1="43.5" y2="89" />
<line marker-end="url(#arrowhead)" stroke="none" x1="1602.5" x2="1603.953125" y1="43.5" y2="89" />
<line marker-end="url(#arrowhead)" stroke="none" x1="1554.5" x2="1507.953125" y1="43.5" y2="89" />
<line marker-end="url(#arrowhead)" stroke="none" x1="1506.5" x2="1411.953125" y1="43.5" y2="89" />
<line marker-end="url(#arrowhead)" stroke="none" x1="1458.5" x2="1315.953125" y1="43.5" y2="89" />
<line marker-end="url(#arrowhead)" stroke="none" x1="1410.5" x2="1219.953125" y1="43.5" y2="89" />
<line marker-end="url(#arrowhead)" stroke="none" x1="1362.5" x2="1123.953125" y1="43.5" y2="89" />
<line marker-end="url(#arrowhead)" stroke="none" x1="1314.5" x2="1027.953125" y1="43.5" y2="89" />
<line marker-end="url(#arrowhead)" stroke="none" x1="1266.5" x2="931.953125" y1="43.5" y2="89" />
<line marker-end="url(#arrowhead)" stroke="none" x1="1218.5" x2="835.953125" y1="43.5" y2="89" />
<line marker-end="url(#arrowhead)" stroke="none" x1="1170.5" x2="739.953125" y1="43.5" y2="89" />
<line marker-end="url(#arrowhead)" stroke="none" x1="1122.5" x2="643.953125" y1="43.5" y2="89" />
<line marker-end="url(#arrowhead)" stroke="none" x1="1074.5" x2="547.953125" y1="43.5" y2="89" />
<line marker-end="url(#arrowhead)" stroke="none" x1="1026.5" x2="451.953125" y1="43.5" y2="89" />
<line marker-end="url(#arrowhead)" stroke="none" x1="978.5" x2="355.953125" y1="43.5" y2="89" />
<line marker-end="url(#arrowhead)" stroke="none" x1="930.5" x2="259.953125" y1="43.5" y2="89" />
<line marker-end="url(#arrowhead)" stroke="none" x1="882.5" x2="163.953125" y1="43.5" y2="89" />
</svg>