<svg xmlns="http://www.w3.org/2000/svg" viewBox="0 0 3174 207">
<style>
.label { font: 14px Helvetica; dominant-baseline: middle; text-anchor: middle; }
.title-left { font: 12px Helvetica; dominant-baseline: middle; }
.title-right { font: 12px Helvetica; dominant-baseline: middle; text-anchor: end; }
.title-intrinsic { font: 12px Helvetica; dominant-baseline: middle; text-anchor: middle; fill: #6778ED; }
.title { font: 12px Helvetica; dominant-baseline: middle; text-anchor: middle; }
.title-unused { font: 12px Helvetica; dominant-baseline: middle; text-anchor: middle; fill: #AAA; }
.register-name { font: 14px Helvetica; dominant-baseline: middle; text-anchor: end; font-style: italic; }
.memory-name { font: 14px Helvetica; dominant-baseline: middle; text-anchor: end; }
.register-number { font: 14px Helvetica; dominant-baseline: middle; text-anchor: start; }
.intrinsic-name { font: 14px Helvetica; dominant-baseline: middle; text-anchor: end; fill: #6778ED; }
.intrinsic-color { fill: #6778ED; }
.small-label { font: 12px Helvetica; dominant-baseline: middle; text-anchor: middle; }
.label-10px { font: 10px Helvetica; dominant-baseline: middle; text-anchor: middle; }
.smaller-label { font: 9px Helvetica; dominant-baseline: middle; text-anchor: middle; }
.label-6px { font: 6px Helvetica; dominant-baseline: middle; text-anchor: middle; }
.label-7px { font: 7px Helvetica; dominant-baseline: middle; text-anchor: middle; }
.unused { fill: #AAA; }
.dim { fill: #888; }
</style>
<defs>
<marker id="arrowhead" markerWidth="10.75" markerHeight="24.5" refX="9.0" refY="6.125" orient="auto">
<polyline points="0.5 0.5, 8.75 6.125, 0.5 11.75" stroke="#567DB6" stroke-width="1" fill="none"/>
</marker>
</defs>
<line stroke="#567DB6" stroke-width="1" x1="3104.5" x2="3104.5" y1="43.5" y2="125" />
<line stroke="#567DB6" stroke-width="1" x1="3008.5" x2="3008.5" y1="43.5" y2="125" />
<line stroke="#567DB6" stroke-width="1" x1="2912.5" x2="2912.5" y1="43.5" y2="125" />
<line stroke="#567DB6" stroke-width="1" x1="2816.5" x2="2816.5" y1="43.5" y2="125" />
<line stroke="#567DB6" stroke-width="1" x1="2720.5" x2="2720.5" y1="43.5" y2="125" />
<line stroke="#567DB6" stroke-width="1" x1="2624.5" x2="2624.5" y1="43.5" y2="125" />
<line stroke="#567DB6" stroke-width="1" x1="2528.5" x2="2528.5" y1="43.5" y2="125" />
<line stroke="#567DB6" stroke-width="1" x1="2432.5" x2="2432.5" y1="43.5" y2="125" />
<line stroke="#567DB6" stroke-width="1" x1="2336.5" x2="2336.5" y1="43.5" y2="125" />
<line stroke="#567DB6" stroke-width="1" x1="2240.5" x2="2240.5" y1="43.5" y2="125" />
<line stroke="#567DB6" stroke-width="1" x1="2144.5" x2="2144.5" y1="43.5" y2="125" />
<line stroke="#567DB6" stroke-width="1" x1="2048.5" x2="2048.5" y1="43.5" y2="125" />
<line stroke="#567DB6" stroke-width="1" x1="1952.5" x2="1952.5" y1="43.5" y2="125" />
<line stroke="#567DB6" stroke-width="1" x1="1856.5" x2="1856.5" y1="43.5" y2="125" />
<line stroke="#567DB6" stroke-width="1" x1="1760.5" x2="1760.5" y1="43.5" y2="125" />
<line stroke="#567DB6" stroke-width="1" x1="1664.5" x2="1664.5" y1="43.5" y2="125" />
<line stroke="#567DB6" stroke-width="1" x1="1568.5" x2="1568.5" y1="43.5" y2="125" />
<line stroke="#567DB6" stroke-width="1" x1="1472.5" x2="1472.5" y1="43.5" y2="125" />
<line stroke="#567DB6" stroke-width="1" x1="1376.5" x2="1376.5" y1="43.5" y2="125" />
<line stroke="#567DB6" stroke-width="1" x1="1280.5" x2="1280.5" y1="43.5" y2="125" />
<line stroke="#567DB6" stroke-width="1" x1="1184.5" x2="1184.5" y1="43.5" y2="125" />
<line stroke="#567DB6" stroke-width="1" x1="1088.5" x2="1088.5" y1="43.5" y2="125" />
<line stroke="#567DB6" stroke-width="1" x1="992.5" x2="992.5" y1="43.5" y2="125" />
<line stroke="#567DB6" stroke-width="1" x1="896.5" x2="896.5" y1="43.5" y2="125" />
<line stroke="#567DB6" stroke-width="1" x1="800.5" x2="800.5" y1="43.5" y2="125" />
<line stroke="#567DB6" stroke-width="1" x1="704.5" x2="704.5" y1="43.5" y2="125" />
<line stroke="#567DB6" stroke-width="1" x1="608.5" x2="608.5" y1="43.5" y2="125" />
<line stroke="#567DB6" stroke-width="1" x1="512.5" x2="512.5" y1="43.5" y2="125" />
<line stroke="#567DB6" stroke-width="1" x1="416.5" x2="416.5" y1="43.5" y2="125" />
<line stroke="#567DB6" stroke-width="1" x1="320.5" x2="320.5" y1="43.5" y2="125" />
<line stroke="#567DB6" stroke-width="1" x1="224.5" x2="224.5" y1="43.5" y2="125" />
<line stroke="#567DB6" stroke-width="1" x1="128.5" x2="128.5" y1="43.5" y2="125" />
<line stroke="#567DB6" stroke-dasharray="4 3" stroke-width="1" x1="3124.5" x2="3124.5" y1="79" y2="173" />
<line stroke="#567DB6" stroke-dasharray="4 3" stroke-width="1" x1="3028.5" x2="3028.5" y1="79" y2="173" />
<line stroke="#567DB6" stroke-dasharray="4 3" stroke-width="1" x1="2932.5" x2="2932.5" y1="79" y2="173" />
<line stroke="#567DB6" stroke-dasharray="4 3" stroke-width="1" x1="2836.5" x2="2836.5" y1="79" y2="173" />
<line stroke="#567DB6" stroke-dasharray="4 3" stroke-width="1" x1="2740.5" x2="2740.5" y1="79" y2="173" />
<line stroke="#567DB6" stroke-dasharray="4 3" stroke-width="1" x1="2644.5" x2="2644.5" y1="79" y2="173" />
<line stroke="#567DB6" stroke-dasharray="4 3" stroke-width="1" x1="2548.5" x2="2548.5" y1="79" y2="173" />
<line stroke="#567DB6" stroke-dasharray="4 3" stroke-width="1" x1="2452.5" x2="2452.5" y1="79" y2="173" />
<line stroke="#567DB6" stroke-dasharray="4 3" stroke-width="1" x1="2356.5" x2="2356.5" y1="79" y2="173" />
<line stroke="#567DB6" stroke-dasharray="4 3" stroke-width="1" x1="2260.5" x2="2260.5" y1="79" y2="173" />
<line stroke="#567DB6" stroke-dasharray="4 3" stroke-width="1" x1="2164.5" x2="2164.5" y1="79" y2="173" />
<line stroke="#567DB6" stroke-dasharray="4 3" stroke-width="1" x1="2068.5" x2="2068.5" y1="79" y2="173" />
<line stroke="#567DB6" stroke-dasharray="4 3" stroke-width="1" x1="1972.5" x2="1972.5" y1="79" y2="173" />
<line stroke="#567DB6" stroke-dasharray="4 3" stroke-width="1" x1="1876.5" x2="1876.5" y1="79" y2="173" />
<line stroke="#567DB6" stroke-dasharray="4 3" stroke-width="1" x1="1780.5" x2="1780.5" y1="79" y2="173" />
<line stroke="#567DB6" stroke-dasharray="4 3" stroke-width="1" x1="1684.5" x2="1684.5" y1="79" y2="173" />
<line stroke="#567DB6" stroke-dasharray="4 3" stroke-width="1" x1="1588.5" x2="1588.5" y1="79" y2="173" />
<line stroke="#567DB6" stroke-dasharray="4 3" stroke-width="1" x1="1492.5" x2="1492.5" y1="79" y2="173" />
<line stroke="#567DB6" stroke-dasharray="4 3" stroke-width="1" x1="1396.5" x2="1396.5" y1="79" y2="173" />
<line stroke="#567DB6" stroke-dasharray="4 3" stroke-width="1" x1="1300.5" x2="1300.5" y1="79" y2="173" />
<line stroke="#567DB6" stroke-dasharray="4 3" stroke-width="1" x1="1204.5" x2="1204.5" y1="79" y2="173" />
<line stroke="#567DB6" stroke-dasharray="4 3" stroke-width="1" x1="1108.5" x2="1108.5" y1="79" y2="173" />
<line stroke="#567DB6" stroke-dasharray="4 3" stroke-width="1" x1="1012.5" x2="1012.5" y1="79" y2="173" />
<line stroke="#567DB6" stroke-dasharray="4 3" stroke-width="1" x1="916.5" x2="916.5" y1="79" y2="173" />
<line stroke="#567DB6" stroke-dasharray="4 3" stroke-width="1" x1="820.5" x2="820.5" y1="79" y2="173" />
<line stroke="#567DB6" stroke-dasharray="4 3" stroke-width="1" x1="724.5" x2="724.5" y1="79" y2="173" />
<line stroke="#567DB6" stroke-dasharray="4 3" stroke-width="1" x1="628.5" x2="628.5" y1="79" y2="173" />
<line stroke="#567DB6" stroke-dasharray="4 3" stroke-width="1" x1="532.5" x2="532.5" y1="79" y2="173" />
<line stroke="#567DB6" stroke-dasharray="4 3" stroke-width="1" x1="436.5" x2="436.5" y1="79" y2="173" />
<line stroke="#567DB6" stroke-dasharray="4 3" stroke-width="1" x1="340.5" x2="340.5" y1="79" y2="173" />
<line stroke="#567DB6" stroke-dasharray="4 3" stroke-width="1" x1="244.5" x2="244.5" y1="79" y2="173" />
<line stroke="#567DB6" stroke-dasharray="4 3" stroke-width="1" x1="148.5" x2="148.5" y1="79" y2="173" />
<text class="title-left" x="90.5" y="9.5">upper</text>
<text class="title-right" x="3162.5" y="9.5">lower</text>
<rect fill="#DEE6F1" height="24" width="96" x="3066.5" y="18.5" />
<rect fill="none" height="24" stroke="#405C86" stroke-width="3" width="96" x="3066.5" y="18.5" />
<text class="small-label intrinsic-color" x="3114.5" y="31.5">base[0]</text>
<rect fill="#DEE6F1" height="24" width="96" x="2970.5" y="18.5" />
<rect fill="none" height="24" stroke="#405C86" stroke-width="3" width="96" x="2970.5" y="18.5" />
<text class="small-label intrinsic-color" x="3018.5" y="31.5">base[1]</text>
<rect fill="#DEE6F1" height="24" width="96" x="2874.5" y="18.5" />
<rect fill="none" height="24" stroke="#405C86" stroke-width="3" width="96" x="2874.5" y="18.5" />
<text class="small-label intrinsic-color" x="2922.5" y="31.5">base[2]</text>
<rect fill="#DEE6F1" height="24" width="96" x="2778.5" y="18.5" />
<rect fill="none" height="24" stroke="#405C86" stroke-width="3" width="96" x="2778.5" y="18.5" />
<text class="small-label intrinsic-color" x="2826.5" y="31.5">base[3]</text>
<rect fill="#DEE6F1" height="24" width="96" x="2682.5" y="18.5" />
<rect fill="none" height="24" stroke="#405C86" stroke-width="3" width="96" x="2682.5" y="18.5" />
<text class="small-label intrinsic-color" x="2730.5" y="31.5">base[4]</text>
<rect fill="#DEE6F1" height="24" width="96" x="2586.5" y="18.5" />
<rect fill="none" height="24" stroke="#405C86" stroke-width="3" width="96" x="2586.5" y="18.5" />
<text class="small-label intrinsic-color" x="2634.5" y="31.5">base[5]</text>
<rect fill="#DEE6F1" height="24" width="96" x="2490.5" y="18.5" />
<rect fill="none" height="24" stroke="#405C86" stroke-width="3" width="96" x="2490.5" y="18.5" />
<text class="small-label intrinsic-color" x="2538.5" y="31.5">base[6]</text>
<rect fill="#DEE6F1" height="24" width="96" x="2394.5" y="18.5" />
<rect fill="none" height="24" stroke="#405C86" stroke-width="3" width="96" x="2394.5" y="18.5" />
<text class="small-label intrinsic-color" x="2442.5" y="31.5">base[7]</text>
<rect fill="#DEE6F1" height="24" width="96" x="2298.5" y="18.5" />
<rect fill="none" height="24" stroke="#405C86" stroke-width="3" width="96" x="2298.5" y="18.5" />
<text class="small-label intrinsic-color" x="2346.5" y="31.5">base[8]</text>
<rect fill="#DEE6F1" height="24" width="96" x="2202.5" y="18.5" />
<rect fill="none" height="24" stroke="#405C86" stroke-width="3" width="96" x="2202.5" y="18.5" />
<text class="small-label intrinsic-color" x="2250.5" y="31.5">base[9]</text>
<rect fill="#DEE6F1" height="24" width="96" x="2106.5" y="18.5" />
<rect fill="none" height="24" stroke="#405C86" stroke-width="3" width="96" x="2106.5" y="18.5" />
<text class="small-label intrinsic-color" x="2154.5" y="31.5">base[10]</text>
<rect fill="#DEE6F1" height="24" width="96" x="2010.5" y="18.5" />
<rect fill="none" height="24" stroke="#405C86" stroke-width="3" width="96" x="2010.5" y="18.5" />
<text class="small-label intrinsic-color" x="2058.5" y="31.5">base[11]</text>
<rect fill="#DEE6F1" height="24" width="96" x="1914.5" y="18.5" />
<rect fill="none" height="24" stroke="#405C86" stroke-width="3" width="96" x="1914.5" y="18.5" />
<text class="small-label intrinsic-color" x="1962.5" y="31.5">base[12]</text>
<rect fill="#DEE6F1" height="24" width="96" x="1818.5" y="18.5" />
<rect fill="none" height="24" stroke="#405C86" stroke-width="3" width="96" x="1818.5" y="18.5" />
<text class="small-label intrinsic-color" x="1866.5" y="31.5">base[13]</text>
<rect fill="#DEE6F1" height="24" width="96" x="1722.5" y="18.5" />
<rect fill="none" height="24" stroke="#405C86" stroke-width="3" width="96" x="1722.5" y="18.5" />
<text class="small-label intrinsic-color" x="1770.5" y="31.5">base[14]</text>
<rect fill="#DEE6F1" height="24" width="96" x="1626.5" y="18.5" />
<rect fill="none" height="24" stroke="#405C86" stroke-width="3" width="96" x="1626.5" y="18.5" />
<text class="small-label intrinsic-color" x="1674.5" y="31.5">base[15]</text>
<rect fill="#DEE6F1" height="24" width="96" x="1530.5" y="18.5" />
<rect fill="none" height="24" stroke="#405C86" stroke-width="3" width="96" x="1530.5" y="18.5" />
<text class="small-label intrinsic-color" x="1578.5" y="31.5">base[16]</text>
<rect fill="#DEE6F1" height="24" width="96" x="1434.5" y="18.5" />
<rect fill="none" height="24" stroke="#405C86" stroke-width="3" width="96" x="1434.5" y="18.5" />
<text class="small-label intrinsic-color" x="1482.5" y="31.5">base[17]</text>
<rect fill="#DEE6F1" height="24" width="96" x="1338.5" y="18.5" />
<rect fill="none" height="24" stroke="#405C86" stroke-width="3" width="96" x="1338.5" y="18.5" />
<text class="small-label intrinsic-color" x="1386.5" y="31.5">base[18]</text>
<rect fill="#DEE6F1" height="24" width="96" x="1242.5" y="18.5" />
<rect fill="none" height="24" stroke="#405C86" stroke-width="3" width="96" x="1242.5" y="18.5" />
<text class="small-label intrinsic-color" x="1290.5" y="31.5">base[19]</text>
<rect fill="#DEE6F1" height="24" width="96" x="1146.5" y="18.5" />
<rect fill="none" height="24" stroke="#405C86" stroke-width="3" width="96" x="1146.5" y="18.5" />
<text class="small-label intrinsic-color" x="1194.5" y="31.5">base[20]</text>
<rect fill="#DEE6F1" height="24" width="96" x="1050.5" y="18.5" />
<rect fill="none" height="24" stroke="#405C86" stroke-width="3" width="96" x="1050.5" y="18.5" />
<text class="small-label intrinsic-color" x="1098.5" y="31.5">base[21]</text>
<rect fill="#DEE6F1" height="24" width="96" x="954.5" y="18.5" />
<rect fill="none" height="24" stroke="#405C86" stroke-width="3" width="96" x="954.5" y="18.5" />
<text class="small-label intrinsic-color" x="1002.5" y="31.5">base[22]</text>
<rect fill="#DEE6F1" height="24" width="96" x="858.5" y="18.5" />
<rect fill="none" height="24" stroke="#405C86" stroke-width="3" width="96" x="858.5" y="18.5" />
<text class="small-label intrinsic-color" x="906.5" y="31.5">base[23]</text>
<rect fill="#DEE6F1" height="24" width="96" x="762.5" y="18.5" />
<rect fill="none" height="24" stroke="#405C86" stroke-width="3" width="96" x="762.5" y="18.5" />
<text class="small-label intrinsic-color" x="810.5" y="31.5">base[24]</text>
<rect fill="#DEE6F1" height="24" width="96" x="666.5" y="18.5" />
<rect fill="none" height="24" stroke="#405C86" stroke-width="3" width="96" x="666.5" y="18.5" />
<text class="small-label intrinsic-color" x="714.5" y="31.5">base[25]</text>
<rect fill="#DEE6F1" height="24" width="96" x="570.5" y="18.5" />
<rect fill="none" height="24" stroke="#405C86" stroke-width="3" width="96" x="570.5" y="18.5" />
<text class="small-label intrinsic-color" x="618.5" y="31.5">base[26]</text>
<rect fill="#DEE6F1" height="24" width="96" x="474.5" y="18.5" />
<rect fill="none" height="24" stroke="#405C86" stroke-width="3" width="96" x="474.5" y="18.5" />
<text class="small-label intrinsic-color" x="522.5" y="31.5">base[27]</text>
<rect fill="#DEE6F1" height="24" width="96" x="378.5" y="18.5" />
<rect fill="none" height="24" stroke="#405C86" stroke-width="3" width="96" x="378.5" y="18.5" />
<text class="small-label intrinsic-color" x="426.5" y="31.5">base[28]</text>
<rect fill="#DEE6F1" height="24" width="96" x="282.5" y="18.5" />
<rect fill="none" height="24" stroke="#405C86" stroke-width="3" width="96" x="282.5" y="18.5" />
<text class="small-label intrinsic-color" x="330.5" y="31.5">base[29]</text>
<rect fill="#DEE6F1" height="24" width="96" x="186.5" y="18.5" />
<rect fill="none" height="24" stroke="#405C86" stroke-width="3" width="96" x="186.5" y="18.5" />
<text class="small-label intrinsic-color" x="234.5" y="31.5">base[30]</text>
<rect fill="#DEE6F1" height="24" width="96" x="90.5" y="18.5" />
<rect fill="none" height="24" stroke="#405C86" stroke-width="3" width="96" x="90.5" y="18.5" />
<text class="small-label intrinsic-color" x="138.5" y="31.5">base[31]</text>
<text class="register-name" x="80.5" y="30.5">[mem]</text>
<text class="register-number" x="10" y="30.5">(1)</text>
<rect fill="#EEDDDB" height="24" width="96" x="3066.5" y="54.5" />
<rect fill="none" height="24" stroke="#405C86" stroke-width="3" width="96" x="3066.5" y="54.5" />
<text class="small-label intrinsic-color" x="3114.5" y="67.5">base[32]</text>
<rect fill="#EEDDDB" height="24" width="96" x="2970.5" y="54.5" />
<rect fill="none" height="24" stroke="#405C86" stroke-width="3" width="96" x="2970.5" y="54.5" />
<text class="small-label intrinsic-color" x="3018.5" y="67.5">base[33]</text>
<rect fill="#EEDDDB" height="24" width="96" x="2874.5" y="54.5" />
<rect fill="none" height="24" stroke="#405C86" stroke-width="3" width="96" x="2874.5" y="54.5" />
<text class="small-label intrinsic-color" x="2922.5" y="67.5">base[34]</text>
<rect fill="#EEDDDB" height="24" width="96" x="2778.5" y="54.5" />
<rect fill="none" height="24" stroke="#405C86" stroke-width="3" width="96" x="2778.5" y="54.5" />
<text class="small-label intrinsic-color" x="2826.5" y="67.5">base[35]</text>
<rect fill="#EEDDDB" height="24" width="96" x="2682.5" y="54.5" />
<rect fill="none" height="24" stroke="#405C86" stroke-width="3" width="96" x="2682.5" y="54.5" />
<text class="small-label intrinsic-color" x="2730.5" y="67.5">base[36]</text>
<rect fill="#EEDDDB" height="24" width="96" x="2586.5" y="54.5" />
<rect fill="none" height="24" stroke="#405C86" stroke-width="3" width="96" x="2586.5" y="54.5" />
<text class="small-label intrinsic-color" x="2634.5" y="67.5">base[37]</text>
<rect fill="#EEDDDB" height="24" width="96" x="2490.5" y="54.5" />
<rect fill="none" height="24" stroke="#405C86" stroke-width="3" width="96" x="2490.5" y="54.5" />
<text class="small-label intrinsic-color" x="2538.5" y="67.5">base[38]</text>
<rect fill="#EEDDDB" height="24" width="96" x="2394.5" y="54.5" />
<rect fill="none" height="24" stroke="#405C86" stroke-width="3" width="96" x="2394.5" y="54.5" />
<text class="small-label intrinsic-color" x="2442.5" y="67.5">base[39]</text>
<rect fill="#EEDDDB" height="24" width="96" x="2298.5" y="54.5" />
<rect fill="none" height="24" stroke="#405C86" stroke-width="3" width="96" x="2298.5" y="54.5" />
<text class="small-label intrinsic-color" x="2346.5" y="67.5">base[40]</text>
<rect fill="#EEDDDB" height="24" width="96" x="2202.5" y="54.5" />
<rect fill="none" height="24" stroke="#405C86" stroke-width="3" width="96" x="2202.5" y="54.5" />
<text class="small-label intrinsic-color" x="2250.5" y="67.5">base[41]</text>
<rect fill="#EEDDDB" height="24" width="96" x="2106.5" y="54.5" />
<rect fill="none" height="24" stroke="#405C86" stroke-width="3" width="96" x="2106.5" y="54.5" />
<text class="small-label intrinsic-color" x="2154.5" y="67.5">base[42]</text>
<rect fill="#EEDDDB" height="24" width="96" x="2010.5" y="54.5" />
<rect fill="none" height="24" stroke="#405C86" stroke-width="3" width="96" x="2010.5" y="54.5" />
<text class="small-label intrinsic-color" x="2058.5" y="67.5">base[43]</text>
<rect fill="#EEDDDB" height="24" width="96" x="1914.5" y="54.5" />
<rect fill="none" height="24" stroke="#405C86" stroke-width="3" width="96" x="1914.5" y="54.5" />
<text class="small-label intrinsic-color" x="1962.5" y="67.5">base[44]</text>
<rect fill="#EEDDDB" height="24" width="96" x="1818.5" y="54.5" />
<rect fill="none" height="24" stroke="#405C86" stroke-width="3" width="96" x="1818.5" y="54.5" />
<text class="small-label intrinsic-color" x="1866.5" y="67.5">base[45]</text>
<rect fill="#EEDDDB" height="24" width="96" x="1722.5" y="54.5" />
<rect fill="none" height="24" stroke="#405C86" stroke-width="3" width="96" x="1722.5" y="54.5" />
<text class="small-label intrinsic-color" x="1770.5" y="67.5">base[46]</text>
<rect fill="#EEDDDB" height="24" width="96" x="1626.5" y="54.5" />
<rect fill="none" height="24" stroke="#405C86" stroke-width="3" width="96" x="1626.5" y="54.5" />
<text class="small-label intrinsic-color" x="1674.5" y="67.5">base[47]</text>
<rect fill="#EEDDDB" height="24" width="96" x="1530.5" y="54.5" />
<rect fill="none" height="24" stroke="#405C86" stroke-width="3" width="96" x="1530.5" y="54.5" />
<text class="small-label intrinsic-color" x="1578.5" y="67.5">base[48]</text>
<rect fill="#EEDDDB" height="24" width="96" x="1434.5" y="54.5" />
<rect fill="none" height="24" stroke="#405C86" stroke-width="3" width="96" x="1434.5" y="54.5" />
<text class="small-label intrinsic-color" x="1482.5" y="67.5">base[49]</text>
<rect fill="#EEDDDB" height="24" width="96" x="1338.5" y="54.5" />
<rect fill="none" height="24" stroke="#405C86" stroke-width="3" width="96" x="1338.5" y="54.5" />
<text class="small-label intrinsic-color" x="1386.5" y="67.5">base[50]</text>
<rect fill="#EEDDDB" height="24" width="96" x="1242.5" y="54.5" />
<rect fill="none" height="24" stroke="#405C86" stroke-width="3" width="96" x="1242.5" y="54.5" />
<text class="small-label intrinsic-color" x="1290.5" y="67.5">base[51]</text>
<rect fill="#EEDDDB" height="24" width="96" x="1146.5" y="54.5" />
<rect fill="none" height="24" stroke="#405C86" stroke-width="3" width="96" x="1146.5" y="54.5" />
<text class="small-label intrinsic-color" x="1194.5" y="67.5">base[52]</text>
<rect fill="#EEDDDB" height="24" width="96" x="1050.5" y="54.5" />
<rect fill="none" height="24" stroke="#405C86" stroke-width="3" width="96" x="1050.5" y="54.5" />
<text class="small-label intrinsic-color" x="1098.5" y="67.5">base[53]</text>
<rect fill="#EEDDDB" height="24" width="96" x="954.5" y="54.5" />
<rect fill="none" height="24" stroke="#405C86" stroke-width="3" width="96" x="954.5" y="54.5" />
<text class="small-label intrinsic-color" x="1002.5" y="67.5">base[54]</text>
<rect fill="#EEDDDB" height="24" width="96" x="858.5" y="54.5" />
<rect fill="none" height="24" stroke="#405C86" stroke-width="3" width="96" x="858.5" y="54.5" />
<text class="small-label intrinsic-color" x="906.5" y="67.5">base[55]</text>
<rect fill="#EEDDDB" height="24" width="96" x="762.5" y="54.5" />
<rect fill="none" height="24" stroke="#405C86" stroke-width="3" width="96" x="762.5" y="54.5" />
<text class="small-label intrinsic-color" x="810.5" y="67.5">base[56]</text>
<rect fill="#EEDDDB" height="24" width="96" x="666.5" y="54.5" />
<rect fill="none" height="24" stroke="#405C86" stroke-width="3" width="96" x="666.5" y="54.5" />
<text class="small-label intrinsic-color" x="714.5" y="67.5">base[57]</text>
<rect fill="#EEDDDB" height="24" width="96" x="570.5" y="54.5" />
<rect fill="none" height="24" stroke="#405C86" stroke-width="3" width="96" x="570.5" y="54.5" />
<text class="small-label intrinsic-color" x="618.5" y="67.5">base[58]</text>
<rect fill="#EEDDDB" height="24" width="96" x="474.5" y="54.5" />
<rect fill="none" height="24" stroke="#405C86" stroke-width="3" width="96" x="474.5" y="54.5" />
<text class="small-label intrinsic-color" x="522.5" y="67.5">base[59]</text>
<rect fill="#EEDDDB" height="24" width="96" x="378.5" y="54.5" />
<rect fill="none" height="24" stroke="#405C86" stroke-width="3" width="96" x="378.5" y="54.5" />
<text class="small-label intrinsic-color" x="426.5" y="67.5">base[60]</text>
<rect fill="#EEDDDB" height="24" width="96" x="282.5" y="54.5" />
<rect fill="none" height="24" stroke="#405C86" stroke-width="3" width="96" x="282.5" y="54.5" />
<text class="small-label intrinsic-color" x="330.5" y="67.5">base[61]</text>
<rect fill="#EEDDDB" height="24" width="96" x="186.5" y="54.5" />
<rect fill="none" height="24" stroke="#405C86" stroke-width="3" width="96" x="186.5" y="54.5" />
<text class="small-label intrinsic-color" x="234.5" y="67.5">base[62]</text>
<rect fill="#EEDDDB" height="24" width="96" x="90.5" y="54.5" />
<rect fill="none" height="24" stroke="#405C86" stroke-width="3" width="96" x="90.5" y="54.5" />
<text class="small-label intrinsic-color" x="138.5" y="67.5">base[63]</text>
<rect fill="#DEE6F1" height="24" width="96" x="3066.5" y="126.5" />
<rect fill="none" height="24" stroke="#405C86" stroke-width="3" width="96" x="3066.5" y="126.5" />
<rect fill="#DEE6F1" height="24" width="96" x="2970.5" y="126.5" />
<rect fill="none" height="24" stroke="#405C86" stroke-width="3" width="96" x="2970.5" y="126.5" />
<rect fill="#DEE6F1" height="24" width="96" x="2874.5" y="126.5" />
<rect fill="none" height="24" stroke="#405C86" stroke-width="3" width="96" x="2874.5" y="126.5" />
<rect fill="#DEE6F1" height="24" width="96" x="2778.5" y="126.5" />
<rect fill="none" height="24" stroke="#405C86" stroke-width="3" width="96" x="2778.5" y="126.5" />
<rect fill="#DEE6F1" height="24" width="96" x="2682.5" y="126.5" />
<rect fill="none" height="24" stroke="#405C86" stroke-width="3" width="96" x="2682.5" y="126.5" />
<rect fill="#DEE6F1" height="24" width="96" x="2586.5" y="126.5" />
<rect fill="none" height="24" stroke="#405C86" stroke-width="3" width="96" x="2586.5" y="126.5" />
<rect fill="#DEE6F1" height="24" width="96" x="2490.5" y="126.5" />
<rect fill="none" height="24" stroke="#405C86" stroke-width="3" width="96" x="2490.5" y="126.5" />
<rect fill="#DEE6F1" height="24" width="96" x="2394.5" y="126.5" />
<rect fill="none" height="24" stroke="#405C86" stroke-width="3" width="96" x="2394.5" y="126.5" />
<rect fill="#DEE6F1" height="24" width="96" x="2298.5" y="126.5" />
<rect fill="none" height="24" stroke="#405C86" stroke-width="3" width="96" x="2298.5" y="126.5" />
<rect fill="#DEE6F1" height="24" width="96" x="2202.5" y="126.5" />
<rect fill="none" height="24" stroke="#405C86" stroke-width="3" width="96" x="2202.5" y="126.5" />
<rect fill="#DEE6F1" height="24" width="96" x="2106.5" y="126.5" />
<rect fill="none" height="24" stroke="#405C86" stroke-width="3" width="96" x="2106.5" y="126.5" />
<rect fill="#DEE6F1" height="24" width="96" x="2010.5" y="126.5" />
<rect fill="none" height="24" stroke="#405C86" stroke-width="3" width="96" x="2010.5" y="126.5" />
<rect fill="#DEE6F1" height="24" width="96" x="1914.5" y="126.5" />
<rect fill="none" height="24" stroke="#405C86" stroke-width="3" width="96" x="1914.5" y="126.5" />
<rect fill="#DEE6F1" height="24" width="96" x="1818.5" y="126.5" />
<rect fill="none" height="24" stroke="#405C86" stroke-width="3" width="96" x="1818.5" y="126.5" />
<rect fill="#DEE6F1" height="24" width="96" x="1722.5" y="126.5" />
<rect fill="none" height="24" stroke="#405C86" stroke-width="3" width="96" x="1722.5" y="126.5" />
<rect fill="#DEE6F1" height="24" width="96" x="1626.5" y="126.5" />
<rect fill="none" height="24" stroke="#405C86" stroke-width="3" width="96" x="1626.5" y="126.5" />
<rect fill="#DEE6F1" height="24" width="96" x="1530.5" y="126.5" />
<rect fill="none" height="24" stroke="#405C86" stroke-width="3" width="96" x="1530.5" y="126.5" />
<rect fill="#DEE6F1" height="24" width="96" x="1434.5" y="126.5" />
<rect fill="none" height="24" stroke="#405C86" stroke-width="3" width="96" x="1434.5" y="126.5" />
<rect fill="#DEE6F1" height="24" width="96" x="1338.5" y="126.5" />
<rect fill="none" height="24" stroke="#405C86" stroke-width="3" width="96" x="1338.5" y="126.5" />
<rect fill="#DEE6F1" height="24" width="96" x="1242.5" y="126.5" />
<rect fill="none" height="24" stroke="#405C86" stroke-width="3" width="96" x="1242.5" y="126.5" />
<rect fill="#DEE6F1" height="24" width="96" x="1146.5" y="126.5" />
<rect fill="none" height="24" stroke="#405C86" stroke-width="3" width="96" x="1146.5" y="126.5" />
<rect fill="#DEE6F1" height="24" width="96" x="1050.5" y="126.5" />
<rect fill="none" height="24" stroke="#405C86" stroke-width="3" width="96" x="1050.5" y="126.5" />
<rect fill="#DEE6F1" height="24" width="96" x="954.5" y="126.5" />
<rect fill="none" height="24" stroke="#405C86" stroke-width="3" width="96" x="954.5" y="126.5" />
<rect fill="#DEE6F1" height="24" width="96" x="858.5" y="126.5" />
<rect fill="none" height="24" stroke="#405C86" stroke-width="3" width="96" x="858.5" y="126.5" />
<rect fill="#DEE6F1" height="24" width="96" x="762.5" y="126.5" />
<rect fill="none" height="24" stroke="#405C86" stroke-width="3" width="96" x="762.5" y="126.5" />
<rect fill="#DEE6F1" height="24" width="96" x="666.5" y="126.5" />
<rect fill="none" height="24" stroke="#405C86" stroke-width="3" width="96" x="666.5" y="126.5" />
<rect fill="#DEE6F1" height="24" width="96" x="570.5" y="126.5" />
<rect fill="none" height="24" stroke="#405C86" stroke-width="3" width="96" x="570.5" y="126.5" />
<rect fill="#DEE6F1" height="24" width="96" x="474.5" y="126.5" />
<rect fill="none" height="24" stroke="#405C86" stroke-width="3" width="96" x="474.5" y="126.5" />
<rect fill="#DEE6F1" height="24" width="96" x="378.5" y="126.5" />
<rect fill="none" height="24" stroke="#405C86" stroke-width="3" width="96" x="378.5" y="126.5" />
<rect fill="#DEE6F1" height="24" width="96" x="282.5" y="126.5" />
<rect fill="none" height="24" stroke="#405C86" stroke-width="3" width="96" x="282.5" y="126.5" />
<rect fill="#DEE6F1" height="24" width="96" x="186.5" y="126.5" />
<rect fill="none" height="24" stroke="#405C86" stroke-width="3" width="96" x="186.5" y="126.5" />
<rect fill="#DEE6F1" height="24" width="96" x="90.5" y="126.5" />
<rect fill="none" height="24" stroke="#405C86" stroke-width="3" width="96" x="90.5" y="126.5" />
<text class="register-name" x="80.5" y="138.5">Zt1</text>
<text class="register-number" x="10" y="138.5">(2)</text>
<rect fill="#EEDDDB" height="24" width="96" x="3066.5" y="174.5" />
<rect fill="none" height="24" stroke="#405C86" stroke-width="3" width="96" x="3066.5" y="174.5" />
<rect fill="#EEDDDB" height="24" width="96" x="2970.5" y="174.5" />
<rect fill="none" height="24" stroke="#405C86" stroke-width="3" width="96" x="2970.5" y="174.5" />
<rect fill="#EEDDDB" height="24" width="96" x="2874.5" y="174.5" />
<rect fill="none" height="24" stroke="#405C86" stroke-width="3" width="96" x="2874.5" y="174.5" />
<rect fill="#EEDDDB" height="24" width="96" x="2778.5" y="174.5" />
<rect fill="none" height="24" stroke="#405C86" stroke-width="3" width="96" x="2778.5" y="174.5" />
<rect fill="#EEDDDB" height="24" width="96" x="2682.5" y="174.5" />
<rect fill="none" height="24" stroke="#405C86" stroke-width="3" width="96" x="2682.5" y="174.5" />
<rect fill="#EEDDDB" height="24" width="96" x="2586.5" y="174.5" />
<rect fill="none" height="24" stroke="#405C86" stroke-width="3" width="96" x="2586.5" y="174.5" />
<rect fill="#EEDDDB" height="24" width="96" x="2490.5" y="174.5" />
<rect fill="none" height="24" stroke="#405C86" stroke-width="3" width="96" x="2490.5" y="174.5" />
<rect fill="#EEDDDB" height="24" width="96" x="2394.5" y="174.5" />
<rect fill="none" height="24" stroke="#405C86" stroke-width="3" width="96" x="2394.5" y="174.5" />
<rect fill="#EEDDDB" height="24" width="96" x="2298.5" y="174.5" />
<rect fill="none" height="24" stroke="#405C86" stroke-width="3" width="96" x="2298.5" y="174.5" />
<rect fill="#EEDDDB" height="24" width="96" x="2202.5" y="174.5" />
<rect fill="none" height="24" stroke="#405C86" stroke-width="3" width="96" x="2202.5" y="174.5" />
<rect fill="#EEDDDB" height="24" width="96" x="2106.5" y="174.5" />
<rect fill="none" height="24" stroke="#405C86" stroke-width="3" width="96" x="2106.5" y="174.5" />
<rect fill="#EEDDDB" height="24" width="96" x="2010.5" y="174.5" />
<rect fill="none" height="24" stroke="#405C86" stroke-width="3" width="96" x="2010.5" y="174.5" />
<rect fill="#EEDDDB" height="24" width="96" x="1914.5" y="174.5" />
<rect fill="none" height="24" stroke="#405C86" stroke-width="3" width="96" x="1914.5" y="174.5" />
<rect fill="#EEDDDB" height="24" width="96" x="1818.5" y="174.5" />
<rect fill="none" height="24" stroke="#405C86" stroke-width="3" width="96" x="1818.5" y="174.5" />
<rect fill="#EEDDDB" height="24" width="96" x="1722.5" y="174.5" />
<rect fill="none" height="24" stroke="#405C86" stroke-width="3" width="96" x="1722.5" y="174.5" />
<rect fill="#EEDDDB" height="24" width="96" x="1626.5" y="174.5" />
<rect fill="none" height="24" stroke="#405C86" stroke-width="3" width="96" x="1626.5" y="174.5" />
<rect fill="#EEDDDB" height="24" width="96" x="1530.5" y="174.5" />
<rect fill="none" height="24" stroke="#405C86" stroke-width="3" width="96" x="1530.5" y="174.5" />
<rect fill="#EEDDDB" height="24" width="96" x="1434.5" y="174.5" />
<rect fill="none" height="24" stroke="#405C86" stroke-width="3" width="96" x="1434.5" y="174.5" />
<rect fill="#EEDDDB" height="24" width="96" x="1338.5" y="174.5" />
<rect fill="none" height="24" stroke="#405C86" stroke-width="3" width="96" x="1338.5" y="174.5" />
<rect fill="#EEDDDB" height="24" width="96" x="1242.5" y="174.5" />
<rect fill="none" height="24" stroke="#405C86" stroke-width="3" width="96" x="1242.5" y="174.5" />
<rect fill="#EEDDDB" height="24" width="96" x="1146.5" y="174.5" />
<rect fill="none" height="24" stroke="#405C86" stroke-width="3" width="96" x="1146.5" y="174.5" />
<rect fill="#EEDDDB" height="24" width="96" x="1050.5" y="174.5" />
<rect fill="none" height="24" stroke="#405C86" stroke-width="3" width="96" x="1050.5" y="174.5" />
<rect fill="#EEDDDB" height="24" width="96" x="954.5" y="174.5" />
<rect fill="none" height="24" stroke="#405C86" stroke-width="3" width="96" x="954.5" y="174.5" />
<rect fill="#EEDDDB" height="24" width="96" x="858.5" y="174.5" />
<rect fill="none" height="24" stroke="#405C86" stroke-width="3" width="96" x="858.5" y="174.5" />
<rect fill="#EEDDDB" height="24" width="96" x="762.5" y="174.5" />
<rect fill="none" height="24" stroke="#405C86" stroke-width="3" width="96" x="762.5" y="174.5" />
<rect fill="#EEDDDB" height="24" width="96" x="666.5" y="174.5" />
<rect fill="none" height="24" stroke="#405C86" stroke-width="3" width="96" x="666.5" y="174.5" />
<rect fill="#EEDDDB" height="24" width="96" x="570.5" y="174.5" />
<rect fill="none" height="24" stroke="#405C86" stroke-width="3" width="96" x="570.5" y="174.5" />
<rect fill="#EEDDDB" height="24" width="96" x="474.5" y="174.5" />
<rect fill="none" height="24" stroke="#405C86" stroke-width="3" width="96" x="474.5" y="174.5" />
<rect fill="#EEDDDB" height="24" width="96" x="378.5" y="174.5" />
<rect fill="none" height="24" stroke="#405C86" stroke-width="3" width="96" x="378.5" y="174.5" />
<rect fill="#EEDDDB" height="24" width="96" x="282.5" y="174.5" />
<rect fill="none" height="24" stroke="#405C86" stroke-width="3" width="96" x="282.5" y="174.5" />
<rect fill="#EEDDDB" height="24" width="96" x="186.5" y="174.5" />
<rect fill="none" height="24" stroke="#405C86" stroke-width="3" width="96" x="186.5" y="174.5" />
<rect fill="#EEDDDB" height="24" width="96" x="90.5" y="174.5" />
<rect fill="none" height="24" stroke="#405C86" stroke-width="3" width="96" x="90.5" y="174.5" />
<text class="register-name" x="80.5" y="186.5">Zt2</text>
<text class="register-number" x="10" y="186.5">(3)</text>
<line marker-end="url(#arrowhead)" stroke="none" x1="3104.5" x2="3104.5" y1="43.5" y2="125" />
<line marker-end="url(#arrowhead)" stroke="none" x1="3008.5" x2="3008.5" y1="43.5" y2="125" />
<line marker-end="url(#arrowhead)" stroke="none" x1="2912.5" x2="2912.5" y1="43.5" y2="125" />
<line marker-end="url(#arrowhead)" stroke="none" x1="2816.5" x2="2816.5" y1="43.5" y2="125" />
<line marker-end="url(#arrowhead)" stroke="none" x1="2720.5" x2="2720.5" y1="43.5" y2="125" />
<line marker-end="url(#arrowhead)" stroke="none" x1="2624.5" x2="2624.5" y1="43.5" y2="125" />
<line marker-end="url(#arrowhead)" stroke="none" x1="2528.5" x2="2528.5" y1="43.5" y2="125" />
<line marker-end="url(#arrowhead)" stroke="none" x1="2432.5" x2="2432.5" y1="43.5" y2="125" />
<line marker-end="url(#arrowhead)" stroke="none" x1="2336.5" x2="2336.5" y1="43.5" y2="125" />
<line marker-end="url(#arrowhead)" stroke="none" x1="2240.5" x2="2240.5" y1="43.5" y2="125" />
<line marker-end="url(#arrowhead)" stroke="none" x1="2144.5" x2="2144.5" y1="43.5" y2="125" />
<line marker-end="url(#arrowhead)" stroke="none" x1="2048.5" x2="2048.5" y1="43.5" y2="125" />
<line marker-end="url(#arrowhead)" stroke="none" x1="1952.5" x2="1952.5" y1="43.5" y2="125" />
<line marker-end="url(#arrowhead)" stroke="none" x1="1856.5" x2="1856.5" y1="43.5" y2="125" />
<line marker-end="url(#arrowhead)" stroke="none" x1="1760.5" x2="1760.5" y1="43.5" y2="125" />
<line marker-end="url(#arrowhead)" stroke="none" x1="1664.5" x2="1664.5" y1="43.5" y2="125" />
<line marker-end="url(#arrowhead)" stroke="none" x1="1568.5" x2="1568.5" y1="43.5" y2="125" />
<line marker-end="url(#arrowhead)" stroke="none" x1="1472.5" x2="1472.5" y1="43.5" y2="125" />
<line marker-end="url(#arrowhead)" stroke="none" x1="1376.5" x2="1376.5" y1="43.5" y2="125" />
<line marker-end="url(#arrowhead)" stroke="none" x1="1280.5" x2="1280.5" y1="43.5" y2="125" />
<line marker-end="url(#arrowhead)" stroke="none" x1="1184.5" x2="1184.5" y1="43.5" y2="125" />
<line marker-end="url(#arrowhead)" stroke="none" x1="1088.5" x2="1088.5" y1="43.5" y2="125" />
<line marker-end="url(#arrowhead)" stroke="none" x1="992.5" x2="992.5" y1="43.5" y2="125" />
<line marker-end="url(#arrowhead)" stroke="none" x1="896.5" x2="896.5" y1="43.5" y2="125" />
<line marker-end="url(#arrowhead)" stroke="none" x1="800.5" x2="800.5" y1="43.5" y2="125" />
<line marker-end="url(#arrowhead)" stroke="none" x1="704.5" x2="704.5" y1="43.5" y2="125" />
<line marker-end="url(#arrowhead)" stroke="none" x1="608.5" x2="608.5" y1="43.5" y2="125" />
<line marker-end="url(#arrowhead)" stroke="none" x1="512.5" x2="512.5" y1="43.5" y2="125" />
<line marker-end="url(#arrowhead)" stroke="none" x1="416.5" x2="416.5" y1="43.5" y2="125" />
<line marker-end="url(#arrowhead)" stroke="none" x1="320.5" x2="320.5" y1="43.5" y2="125" />
<line marker-end="url(#arrowhead)" stroke="none" x1="224.5" x2="224.5" y1="43.5" y2="125" />
<line marker-end="url(#arrowhead)" stroke="none" x1="128.5" x2="128.5" y1="43.5" y2="125" />
<line marker-end="url(#arrowhead)" stroke="none" stroke-dasharray="4 3" x1="3124.5" x2="3124.5" y1="79" y2="173" />
<line marker-end="url(#arrowhead)" stroke="none" stroke-dasharray="4 3" x1="3028.5" x2="3028.5" y1="79" y2="173" />
<line marker-end="url(#arrowhead)" stroke="none" stroke-dasharray="4 3" x1="2932.5" x2="2932.5" y1="79" y2="173" />
<line marker-end="url(#arrowhead)" stroke="none" stroke-dasharray="4 3" x1="2836.5" x2="2836.5" y1="79" y2="173" />
<line marker-end="url(#arrowhead)" stroke="none" stroke-dasharray="4 3" x1="2740.5" x2="2740.5" y1="79" y2="173" />
<line marker-end="url(#arrowhead)" stroke="none" stroke-dasharray="4 3" x1="2644.5" x2="2644.5" y1="79" y2="173" />
<line marker-end="url(#arrowhead)" stroke="none" stroke-dasharray="4 3" x1="2548.5" x2="2548.5" y1="79" y2="173" />
<line marker-end="url(#arrowhead)" stroke="none" stroke-dasharray="4 3" x1="2452.5" x2="2452.5" y1="79" y2="173" />
<line marker-end="url(#arrowhead)" stroke="none" stroke-dasharray="4 3" x1="2356.5" x2="2356.5" y1="79" y2="173" />
<line marker-end="url(#arrowhead)" stroke="none" stroke-dasharray="4 3" x1="2260.5" x2="2260.5" y1="79" y2="173" />
<line marker-end="url(#arrowhead)" stroke="none" stroke-dasharray="4 3" x1="2164.5" x2="2164.5" y1="79" y2="173" />
<line marker-end="url(#arrowhead)" stroke="none" stroke-dasharray="4 3" x1="2068.5" x2="2068.5" y1="79" y2="173" />
<line marker-end="url(#arrowhead)" stroke="none" stroke-dasharray="4 3" x1="1972.5" x2="1972.5" y1="79" y2="173" />
<line marker-end="url(#arrowhead)" stroke="none" stroke-dasharray="4 3" x1="1876.5" x2="1876.5" y1="79" y2="173" />
<line marker-end="url(#arrowhead)" stroke="none" stroke-dasharray="4 3" x1="1780.5" x2="1780.5" y1="79" y2="173" />
<line marker-end="url(#arrowhead)" stroke="none" stroke-dasharray="4 3" x1="1684.5" x2="1684.5" y1="79" y2="173" />
<line marker-end="url(#arrowhead)" stroke="none" stroke-dasharray="4 3" x1="1588.5" x2="1588.5" y1="79" y2="173" />
<line marker-end="url(#arrowhead)" stroke="none" stroke-dasharray="4 3" x1="1492.5" x2="1492.5" y1="79" y2="173" />
<line marker-end="url(#arrowhead)" stroke="none" stroke-dasharray="4 3" x1="1396.5" x2="1396.5" y1="79" y2="173" />
<line marker-end="url(#arrowhead)" stroke="none" stroke-dasharray="4 3" x1="1300.5" x2="1300.5" y1="79" y2="173" />
<line marker-end="url(#arrowhead)" stroke="none" stroke-dasharray="4 3" x1="1204.5" x2="1204.5" y1="79" y2="173" />
<line marker-end="url(#arrowhead)" stroke="none" stroke-dasharray="4 3" x1="1108.5" x2="1108.5" y1="79" y2="173" />
<line marker-end="url(#arrowhead)" stroke="none" stroke-dasharray="4 3" x1="1012.5" x2="1012.5" y1="79" y2="173" />
<line marker-end="url(#arrowhead)" stroke="none" stroke-dasharray="4 3" x1="916.5" x2="916.5" y1="79" y2="173" />
<line marker-end="url(#arrowhead)" stroke="none" stroke-dasharray="4 3" x1="820.5" x2="820.5" y1="79" y2="173" />
<line marker-end="url(#arrowhead)" stroke="none" stroke-dasharray="4 3" x1="724.5" x2="724.5" y1="79" y2="173" />
<line marker-end="url(#arrowhead)" stroke="none" stroke-dasharray="4 3" x1="628.5" x2="628.5" y1="79" y2="173" />
<line marker-end="url(#arrowhead)" stroke="none" stroke-dasharray="4 3" x1="532.5" x2="532.5" y1="79" y2="173" />
<line marker-end="url(#arrowhead)" stroke="none" stroke-dasharray="4 3" x1="436.5" x2="436.5" y1="79" y2="173" />
<line marker-end="url(#arrowhead)" stroke="none" stroke-dasharray="4 3" x1="340.5" x2="340.5" y1="79" y2="173" />
<line marker-end="url(#arrowhead)" stroke="none" stroke-dasharray="4 3" x1="244.5" x2="244.5" y1="79" y2="173" />
<line marker-end="url(#arrowhead)" stroke="none" stroke-dasharray="4 3" x1="148.5" x2="148.5" y1="79" y2="173" />
</svg>