<svg xmlns="http://www.w3.org/2000/svg" viewBox="0 0 882 507">
<style>
.label { font: 14px Helvetica; dominant-baseline: middle; text-anchor: middle; }
.title-left { font: 12px Helvetica; dominant-baseline: middle; }
.title-right { font: 12px Helvetica; dominant-baseline: middle; text-anchor: end; }
.title-intrinsic { font: 12px Helvetica; dominant-baseline: middle; text-anchor: middle; fill: #6778ED; }
.title { font: 12px Helvetica; dominant-baseline: middle; text-anchor: middle; }
.title-unused { font: 12px Helvetica; dominant-baseline: middle; text-anchor: middle; fill: #AAA; }
.register-name { font: 14px Helvetica; dominant-baseline: middle; text-anchor: end; font-style: italic; }
.memory-name { font: 14px Helvetica; dominant-baseline: middle; text-anchor: end; }
.register-number { font: 14px Helvetica; dominant-baseline: middle; text-anchor: start; }
.intrinsic-name { font: 14px Helvetica; dominant-baseline: middle; text-anchor: end; fill: #6778ED; }
.intrinsic-color { fill: #6778ED; }
.small-label { font: 12px Helvetica; dominant-baseline: middle; text-anchor: middle; }
.label-10px { font: 10px Helvetica; dominant-baseline: middle; text-anchor: middle; }
.smaller-label { font: 9px Helvetica; dominant-baseline: middle; text-anchor: middle; }
.label-6px { font: 6px Helvetica; dominant-baseline: middle; text-anchor: middle; }
.label-7px { font: 7px Helvetica; dominant-baseline: middle; text-anchor: middle; }
.unused { fill: #AAA; }
.dim { fill: #888; }
</style>
<defs>
<marker id="arrowhead" markerWidth="10.75" markerHeight="24.5" refX="9.0" refY="6.125" orient="auto">
<polyline points="0.5 0.5, 8.75 6.125, 0.5 11.75" stroke="#567DB6" stroke-width="1" fill="none"/>
</marker>
</defs>
<text class="title-left" x="90.5" y="9.5">upper</text>
<text class="title-right" x="858.5" y="9.5">lower</text>
<rect fill="#FAEBDC" height="318" width="855" x="15.5" y="120.5" />
<rect fill="#DEE6F1" height="24" width="12" x="804.5" y="18.5" />
<rect fill="none" height="24" stroke="#405C86" stroke-width="3" width="12" x="804.5" y="18.5" />
<rect fill="none" height="24" stroke="#405C86" stroke-dasharray="3 1" stroke-dashoffset="1.5" stroke-width="1" width="12" x="792.5" y="18.5" />
<text class="label unused" x="798.5" y="31.5"></text>
<rect fill="none" height="24" stroke="#405C86" stroke-dasharray="3 1" stroke-dashoffset="1.5" stroke-width="1" width="12" x="780.5" y="18.5" />
<text class="label unused" x="786.5" y="31.5"></text>
<rect fill="none" height="24" stroke="#405C86" stroke-dasharray="3 1" stroke-dashoffset="1.5" stroke-width="1" width="12" x="768.5" y="18.5" />
<text class="label unused" x="774.5" y="31.5"></text>
<rect fill="#DEE6F1" height="24" width="12" x="708.5" y="18.5" />
<rect fill="none" height="24" stroke="#405C86" stroke-width="3" width="12" x="708.5" y="18.5" />
<rect fill="none" height="24" stroke="#405C86" stroke-dasharray="3 1" stroke-dashoffset="1.5" stroke-width="1" width="12" x="696.5" y="18.5" />
<text class="label unused" x="702.5" y="31.5"></text>
<rect fill="none" height="24" stroke="#405C86" stroke-dasharray="3 1" stroke-dashoffset="1.5" stroke-width="1" width="12" x="684.5" y="18.5" />
<text class="label unused" x="690.5" y="31.5"></text>
<rect fill="none" height="24" stroke="#405C86" stroke-dasharray="3 1" stroke-dashoffset="1.5" stroke-width="1" width="12" x="672.5" y="18.5" />
<text class="label unused" x="678.5" y="31.5"></text>
<rect fill="#DEE6F1" height="24" width="12" x="612.5" y="18.5" />
<rect fill="none" height="24" stroke="#405C86" stroke-width="3" width="12" x="612.5" y="18.5" />
<rect fill="none" height="24" stroke="#405C86" stroke-dasharray="3 1" stroke-dashoffset="1.5" stroke-width="1" width="12" x="600.5" y="18.5" />
<text class="label unused" x="606.5" y="31.5"></text>
<rect fill="none" height="24" stroke="#405C86" stroke-dasharray="3 1" stroke-dashoffset="1.5" stroke-width="1" width="12" x="588.5" y="18.5" />
<text class="label unused" x="594.5" y="31.5"></text>
<rect fill="none" height="24" stroke="#405C86" stroke-dasharray="3 1" stroke-dashoffset="1.5" stroke-width="1" width="12" x="576.5" y="18.5" />
<text class="label unused" x="582.5" y="31.5"></text>
<rect fill="#DEE6F1" height="24" width="12" x="516.5" y="18.5" />
<rect fill="none" height="24" stroke="#405C86" stroke-width="3" width="12" x="516.5" y="18.5" />
<rect fill="none" height="24" stroke="#405C86" stroke-dasharray="3 1" stroke-dashoffset="1.5" stroke-width="1" width="12" x="504.5" y="18.5" />
<text class="label unused" x="510.5" y="31.5"></text>
<rect fill="none" height="24" stroke="#405C86" stroke-dasharray="3 1" stroke-dashoffset="1.5" stroke-width="1" width="12" x="492.5" y="18.5" />
<text class="label unused" x="498.5" y="31.5"></text>
<rect fill="none" height="24" stroke="#405C86" stroke-dasharray="3 1" stroke-dashoffset="1.5" stroke-width="1" width="12" x="480.5" y="18.5" />
<text class="label unused" x="486.5" y="31.5"></text>
<rect fill="#DEE6F1" height="24" width="12" x="420.5" y="18.5" />
<rect fill="none" height="24" stroke="#405C86" stroke-width="3" width="12" x="420.5" y="18.5" />
<rect fill="none" height="24" stroke="#405C86" stroke-dasharray="3 1" stroke-dashoffset="1.5" stroke-width="1" width="12" x="408.5" y="18.5" />
<text class="label unused" x="414.5" y="31.5"></text>
<rect fill="none" height="24" stroke="#405C86" stroke-dasharray="3 1" stroke-dashoffset="1.5" stroke-width="1" width="12" x="396.5" y="18.5" />
<text class="label unused" x="402.5" y="31.5"></text>
<rect fill="none" height="24" stroke="#405C86" stroke-dasharray="3 1" stroke-dashoffset="1.5" stroke-width="1" width="12" x="384.5" y="18.5" />
<text class="label unused" x="390.5" y="31.5"></text>
<rect fill="#DEE6F1" height="24" width="12" x="324.5" y="18.5" />
<rect fill="none" height="24" stroke="#405C86" stroke-width="3" width="12" x="324.5" y="18.5" />
<rect fill="none" height="24" stroke="#405C86" stroke-dasharray="3 1" stroke-dashoffset="1.5" stroke-width="1" width="12" x="312.5" y="18.5" />
<text class="label unused" x="318.5" y="31.5"></text>
<rect fill="none" height="24" stroke="#405C86" stroke-dasharray="3 1" stroke-dashoffset="1.5" stroke-width="1" width="12" x="300.5" y="18.5" />
<text class="label unused" x="306.5" y="31.5"></text>
<rect fill="none" height="24" stroke="#405C86" stroke-dasharray="3 1" stroke-dashoffset="1.5" stroke-width="1" width="12" x="288.5" y="18.5" />
<text class="label unused" x="294.5" y="31.5"></text>
<rect fill="#DEE6F1" height="24" width="12" x="228.5" y="18.5" />
<rect fill="none" height="24" stroke="#405C86" stroke-width="3" width="12" x="228.5" y="18.5" />
<rect fill="none" height="24" stroke="#405C86" stroke-dasharray="3 1" stroke-dashoffset="1.5" stroke-width="1" width="12" x="216.5" y="18.5" />
<text class="label unused" x="222.5" y="31.5"></text>
<rect fill="none" height="24" stroke="#405C86" stroke-dasharray="3 1" stroke-dashoffset="1.5" stroke-width="1" width="12" x="204.5" y="18.5" />
<text class="label unused" x="210.5" y="31.5"></text>
<rect fill="none" height="24" stroke="#405C86" stroke-dasharray="3 1" stroke-dashoffset="1.5" stroke-width="1" width="12" x="192.5" y="18.5" />
<text class="label unused" x="198.5" y="31.5"></text>
<rect fill="#DEE6F1" height="24" width="12" x="132.5" y="18.5" />
<rect fill="none" height="24" stroke="#405C86" stroke-width="3" width="12" x="132.5" y="18.5" />
<rect fill="none" height="24" stroke="#405C86" stroke-dasharray="3 1" stroke-dashoffset="1.5" stroke-width="1" width="12" x="120.5" y="18.5" />
<text class="label unused" x="126.5" y="31.5"></text>
<rect fill="none" height="24" stroke="#405C86" stroke-dasharray="3 1" stroke-dashoffset="1.5" stroke-width="1" width="12" x="108.5" y="18.5" />
<text class="label unused" x="114.5" y="31.5"></text>
<rect fill="none" height="24" stroke="#405C86" stroke-dasharray="3 1" stroke-dashoffset="1.5" stroke-width="1" width="12" x="96.5" y="18.5" />
<text class="label unused" x="102.5" y="31.5"></text>
<text class="register-name" x="80.5" y="30.5">Pg</text>
<text class="intrinsic-name" x="80.5" y="42.5">pg</text>
<text class="register-number" x="10" y="30.5">(1)</text>
<rect fill="#DEE6F1" height="24" width="96" x="762.5" y="66.5" />
<text class="label" x="810.5" y="79.5">off0</text>
<rect fill="none" height="24" stroke="#405C86" stroke-width="3" width="96" x="762.5" y="66.5" />
<rect fill="#DEE6F1" height="24" width="96" x="666.5" y="66.5" />
<text class="label" x="714.5" y="79.5">off1</text>
<rect fill="none" height="24" stroke="#405C86" stroke-width="3" width="96" x="666.5" y="66.5" />
<rect fill="#DEE6F1" height="24" width="96" x="570.5" y="66.5" />
<text class="label" x="618.5" y="79.5">off2</text>
<rect fill="none" height="24" stroke="#405C86" stroke-width="3" width="96" x="570.5" y="66.5" />
<rect fill="#DEE6F1" height="24" width="96" x="474.5" y="66.5" />
<text class="label" x="522.5" y="79.5">off3</text>
<rect fill="none" height="24" stroke="#405C86" stroke-width="3" width="96" x="474.5" y="66.5" />
<rect fill="#DEE6F1" height="24" width="96" x="378.5" y="66.5" />
<text class="label" x="426.5" y="79.5">off4</text>
<rect fill="none" height="24" stroke="#405C86" stroke-width="3" width="96" x="378.5" y="66.5" />
<rect fill="#DEE6F1" height="24" width="96" x="282.5" y="66.5" />
<text class="label" x="330.5" y="79.5">off5</text>
<rect fill="none" height="24" stroke="#405C86" stroke-width="3" width="96" x="282.5" y="66.5" />
<rect fill="#DEE6F1" height="24" width="96" x="186.5" y="66.5" />
<text class="label" x="234.5" y="79.5">off6</text>
<rect fill="none" height="24" stroke="#405C86" stroke-width="3" width="96" x="186.5" y="66.5" />
<rect fill="#DEE6F1" height="24" width="96" x="90.5" y="66.5" />
<text class="label" x="138.5" y="79.5">off7</text>
<rect fill="none" height="24" stroke="#405C86" stroke-width="3" width="96" x="90.5" y="66.5" />
<text class="register-name" x="80.5" y="78.5">Zm</text>
<text class="intrinsic-name" x="80.5" y="90.5">indices</text>
<text class="register-number" x="10" y="78.5">(2)</text>
<rect fill="#DEE6F1" height="24" width="96" x="762.5" y="474.5" />
<rect fill="none" height="24" stroke="#405C86" stroke-width="3" width="96" x="762.5" y="474.5" />
<rect fill="#DEE6F1" height="24" width="96" x="666.5" y="474.5" />
<rect fill="none" height="24" stroke="#405C86" stroke-width="3" width="96" x="666.5" y="474.5" />
<rect fill="#DEE6F1" height="24" width="96" x="570.5" y="474.5" />
<rect fill="none" height="24" stroke="#405C86" stroke-width="3" width="96" x="570.5" y="474.5" />
<rect fill="#DEE6F1" height="24" width="96" x="474.5" y="474.5" />
<rect fill="none" height="24" stroke="#405C86" stroke-width="3" width="96" x="474.5" y="474.5" />
<rect fill="#DEE6F1" height="24" width="96" x="378.5" y="474.5" />
<rect fill="none" height="24" stroke="#405C86" stroke-width="3" width="96" x="378.5" y="474.5" />
<rect fill="#DEE6F1" height="24" width="96" x="282.5" y="474.5" />
<rect fill="none" height="24" stroke="#405C86" stroke-width="3" width="96" x="282.5" y="474.5" />
<rect fill="#DEE6F1" height="24" width="96" x="186.5" y="474.5" />
<rect fill="none" height="24" stroke="#405C86" stroke-width="3" width="96" x="186.5" y="474.5" />
<rect fill="#DEE6F1" height="24" width="96" x="90.5" y="474.5" />
<rect fill="none" height="24" stroke="#405C86" stroke-width="3" width="96" x="90.5" y="474.5" />
<text class="register-name" x="80.5" y="486.5">Zt</text>
<text class="intrinsic-name" x="80.5" y="498.5">returns</text>
<text class="register-number" x="10" y="486.5">(3)</text>
<rect fill="#DEE6F1" height="24" width="96" x="762.5" y="150.5" />
<rect fill="none" height="24" stroke="#405C86" stroke-width="3" width="96" x="762.5" y="150.5" />
<text class="memory-name" x="759.5" y="162.5">Xn+off0*4</text>
<rect fill="#DEE6F1" height="24" width="96" x="666.5" y="186.5" />
<rect fill="none" height="24" stroke="#405C86" stroke-width="3" width="96" x="666.5" y="186.5" />
<text class="memory-name" x="663.5" y="198.5">Xn+off1*4</text>
<rect fill="#DEE6F1" height="24" width="96" x="570.5" y="222.5" />
<rect fill="none" height="24" stroke="#405C86" stroke-width="3" width="96" x="570.5" y="222.5" />
<text class="memory-name" x="567.5" y="234.5">Xn+off2*4</text>
<rect fill="#DEE6F1" height="24" width="96" x="474.5" y="258.5" />
<rect fill="none" height="24" stroke="#405C86" stroke-width="3" width="96" x="474.5" y="258.5" />
<text class="memory-name" x="471.5" y="270.5">Xn+off3*4</text>
<rect fill="#DEE6F1" height="24" width="96" x="378.5" y="294.5" />
<rect fill="none" height="24" stroke="#405C86" stroke-width="3" width="96" x="378.5" y="294.5" />
<text class="memory-name" x="375.5" y="306.5">Xn+off4*4</text>
<rect fill="#DEE6F1" height="24" width="96" x="282.5" y="330.5" />
<rect fill="none" height="24" stroke="#405C86" stroke-width="3" width="96" x="282.5" y="330.5" />
<text class="memory-name" x="279.5" y="342.5">Xn+off5*4</text>
<rect fill="#DEE6F1" height="24" width="96" x="186.5" y="366.5" />
<rect fill="none" height="24" stroke="#405C86" stroke-width="3" width="96" x="186.5" y="366.5" />
<text class="memory-name" x="183.5" y="378.5">Xn+off6*4</text>
<rect fill="#DEE6F1" height="24" width="96" x="90.5" y="402.5" />
<rect fill="none" height="24" stroke="#405C86" stroke-width="3" width="96" x="90.5" y="402.5" />
<text class="memory-name" x="87.5" y="414.5">Xn+off7*4</text>
<polyline fill="none" points="765.5 65.5,767.5 61.5,809.5 61.5,810.5 59.5,810.5 55.5,810.5 59.5,811.5 61.5,853.5 61.5,855.5 65.5" stroke="#567DB6" stroke-width="1" />
<line stroke="#567DB6" stroke-width="1" x1="810.5" x2="810.5" y1="43.5" y2="55.5" />
<polyline fill="none" points="669.5 65.5,671.5 61.5,713.5 61.5,714.5 59.5,714.5 55.5,714.5 59.5,715.5 61.5,757.5 61.5,759.5 65.5" stroke="#567DB6" stroke-width="1" />
<line stroke="#567DB6" stroke-width="1" x1="714.5" x2="714.5" y1="43.5" y2="55.5" />
<polyline fill="none" points="573.5 65.5,575.5 61.5,617.5 61.5,618.5 59.5,618.5 55.5,618.5 59.5,619.5 61.5,661.5 61.5,663.5 65.5" stroke="#567DB6" stroke-width="1" />
<line stroke="#567DB6" stroke-width="1" x1="618.5" x2="618.5" y1="43.5" y2="55.5" />
<polyline fill="none" points="477.5 65.5,479.5 61.5,521.5 61.5,522.5 59.5,522.5 55.5,522.5 59.5,523.5 61.5,565.5 61.5,567.5 65.5" stroke="#567DB6" stroke-width="1" />
<line stroke="#567DB6" stroke-width="1" x1="522.5" x2="522.5" y1="43.5" y2="55.5" />
<polyline fill="none" points="381.5 65.5,383.5 61.5,425.5 61.5,426.5 59.5,426.5 55.5,426.5 59.5,427.5 61.5,469.5 61.5,471.5 65.5" stroke="#567DB6" stroke-width="1" />
<line stroke="#567DB6" stroke-width="1" x1="426.5" x2="426.5" y1="43.5" y2="55.5" />
<polyline fill="none" points="285.5 65.5,287.5 61.5,329.5 61.5,330.5 59.5,330.5 55.5,330.5 59.5,331.5 61.5,373.5 61.5,375.5 65.5" stroke="#567DB6" stroke-width="1" />
<line stroke="#567DB6" stroke-width="1" x1="330.5" x2="330.5" y1="43.5" y2="55.5" />
<polyline fill="none" points="189.5 65.5,191.5 61.5,233.5 61.5,234.5 59.5,234.5 55.5,234.5 59.5,235.5 61.5,277.5 61.5,279.5 65.5" stroke="#567DB6" stroke-width="1" />
<line stroke="#567DB6" stroke-width="1" x1="234.5" x2="234.5" y1="43.5" y2="55.5" />
<polyline fill="none" points="93.5 65.5,95.5 61.5,137.5 61.5,138.5 59.5,138.5 55.5,138.5 59.5,139.5 61.5,181.5 61.5,183.5 65.5" stroke="#567DB6" stroke-width="1" />
<line stroke="#567DB6" stroke-width="1" x1="138.5" x2="138.5" y1="43.5" y2="55.5" />
<line stroke="#567DB6" stroke-dasharray="4 3" stroke-width="1" x1="786.5" x2="737.5" y1="91.5" y2="152.5" />
<line stroke="#567DB6" stroke-dasharray="4 3" stroke-width="1" x1="690.5" x2="641.5" y1="91.5" y2="188.5" />
<line stroke="#567DB6" stroke-dasharray="4 3" stroke-width="1" x1="594.5" x2="545.5" y1="91.5" y2="224.5" />
<line stroke="#567DB6" stroke-dasharray="4 3" stroke-width="1" x1="498.5" x2="449.5" y1="91.5" y2="260.5" />
<line stroke="#567DB6" stroke-dasharray="4 3" stroke-width="1" x1="402.5" x2="353.5" y1="91.5" y2="296.5" />
<line stroke="#567DB6" stroke-dasharray="4 3" stroke-width="1" x1="306.5" x2="257.5" y1="91.5" y2="332.5" />
<line stroke="#567DB6" stroke-dasharray="4 3" stroke-width="1" x1="210.5" x2="161.5" y1="91.5" y2="368.5" />
<line stroke="#567DB6" stroke-dasharray="4 3" stroke-width="1" x1="114.5" x2="65.5" y1="91.5" y2="404.5" />
<line stroke="#567DB6" stroke-width="1" x1="790.5" x2="790.5" y1="175.5" y2="473" />
<line stroke="#567DB6" stroke-width="1" x1="694.5" x2="694.5" y1="211.5" y2="473" />
<line stroke="#567DB6" stroke-width="1" x1="598.5" x2="598.5" y1="247.5" y2="473" />
<line stroke="#567DB6" stroke-width="1" x1="502.5" x2="502.5" y1="283.5" y2="473" />
<line stroke="#567DB6" stroke-width="1" x1="406.5" x2="406.5" y1="319.5" y2="473" />
<line stroke="#567DB6" stroke-width="1" x1="310.5" x2="310.5" y1="355.5" y2="473" />
<line stroke="#567DB6" stroke-width="1" x1="214.5" x2="214.5" y1="391.5" y2="473" />
<line stroke="#567DB6" stroke-width="1" x1="118.5" x2="118.5" y1="427.5" y2="473" />
<text class="title-left" x="27.5" y="136.5">specify memory locations of 32-bit values</text>
<text class="title-left" x="27.5" y="148.5">off*4 is offset in bytes</text>
<line marker-end="url(#arrowhead)" stroke="none" stroke-dasharray="4 3" x1="786.5" x2="737.5" y1="91.5" y2="152.5" />
<line marker-end="url(#arrowhead)" stroke="none" stroke-dasharray="4 3" x1="690.5" x2="641.5" y1="91.5" y2="188.5" />
<line marker-end="url(#arrowhead)" stroke="none" stroke-dasharray="4 3" x1="594.5" x2="545.5" y1="91.5" y2="224.5" />
<line marker-end="url(#arrowhead)" stroke="none" stroke-dasharray="4 3" x1="498.5" x2="449.5" y1="91.5" y2="260.5" />
<line marker-end="url(#arrowhead)" stroke="none" stroke-dasharray="4 3" x1="402.5" x2="353.5" y1="91.5" y2="296.5" />
<line marker-end="url(#arrowhead)" stroke="none" stroke-dasharray="4 3" x1="306.5" x2="257.5" y1="91.5" y2="332.5" />
<line marker-end="url(#arrowhead)" stroke="none" stroke-dasharray="4 3" x1="210.5" x2="161.5" y1="91.5" y2="368.5" />
<line marker-end="url(#arrowhead)" stroke="none" stroke-dasharray="4 3" x1="114.5" x2="65.5" y1="91.5" y2="404.5" />
<line marker-end="url(#arrowhead)" stroke="none" x1="790.5" x2="790.5" y1="175.5" y2="473" />
<line marker-end="url(#arrowhead)" stroke="none" x1="694.5" x2="694.5" y1="211.5" y2="473" />
<line marker-end="url(#arrowhead)" stroke="none" x1="598.5" x2="598.5" y1="247.5" y2="473" />
<line marker-end="url(#arrowhead)" stroke="none" x1="502.5" x2="502.5" y1="283.5" y2="473" />
<line marker-end="url(#arrowhead)" stroke="none" x1="406.5" x2="406.5" y1="319.5" y2="473" />
<line marker-end="url(#arrowhead)" stroke="none" x1="310.5" x2="310.5" y1="355.5" y2="473" />
<line marker-end="url(#arrowhead)" stroke="none" x1="214.5" x2="214.5" y1="391.5" y2="473" />
<line marker-end="url(#arrowhead)" stroke="none" x1="118.5" x2="118.5" y1="427.5" y2="473" />
</svg>