<svg xmlns="http://www.w3.org/2000/svg" viewBox="0 0 486 267">
<style>
.label { font: 14px Helvetica; dominant-baseline: middle; text-anchor: middle; }
.title-left { font: 12px Helvetica; dominant-baseline: middle; }
.title-right { font: 12px Helvetica; dominant-baseline: middle; text-anchor: end; }
.title-intrinsic { font: 12px Helvetica; dominant-baseline: middle; text-anchor: middle; fill: #6778ED; }
.title { font: 12px Helvetica; dominant-baseline: middle; text-anchor: middle; }
.title-unused { font: 12px Helvetica; dominant-baseline: middle; text-anchor: middle; fill: #AAA; }
.register-name { font: 14px Helvetica; dominant-baseline: middle; text-anchor: end; font-style: italic; }
.memory-name { font: 14px Helvetica; dominant-baseline: middle; text-anchor: end; }
.register-number { font: 14px Helvetica; dominant-baseline: middle; text-anchor: start; }
.intrinsic-name { font: 14px Helvetica; dominant-baseline: middle; text-anchor: end; fill: #6778ED; }
.intrinsic-color { fill: #6778ED; }
.small-label { font: 12px Helvetica; dominant-baseline: middle; text-anchor: middle; }
.label-10px { font: 10px Helvetica; dominant-baseline: middle; text-anchor: middle; }
.smaller-label { font: 9px Helvetica; dominant-baseline: middle; text-anchor: middle; }
.label-6px { font: 6px Helvetica; dominant-baseline: middle; text-anchor: middle; }
.label-7px { font: 7px Helvetica; dominant-baseline: middle; text-anchor: middle; }
.unused { fill: #AAA; }
.dim { fill: #888; }
</style>
<defs>
<marker id="arrowhead" markerWidth="9.5" markerHeight="21.0" refX="7.75" refY="5.25" orient="auto">
<polyline points="0.5 0.5, 7.5 5.25, 0.5 10.0" stroke="#567DB6" stroke-width="1" fill="none"/>
</marker>
</defs>
<line stroke="#567DB6" stroke-width="1" x1="372.5" x2="275.9375" y1="115.5" y2="161" />
<line stroke="#567DB6" stroke-width="1" x1="348.5" x2="263.5625" y1="115.5" y2="161" />
<line stroke="#567DB6" stroke-width="1" x1="324.5" x2="251.9375" y1="115.5" y2="161" />
<line stroke="#567DB6" stroke-width="1" x1="300.5" x2="240.3125" y1="115.5" y2="161" />
<line stroke="#567DB6" stroke-width="1" x1="276.5" x2="228.6875" y1="115.5" y2="161" />
<line stroke="#567DB6" stroke-width="1" x1="252.5" x2="217.0625" y1="115.5" y2="161" />
<line stroke="#567DB6" stroke-width="1" x1="228.5" x2="205.4375" y1="115.5" y2="161" />
<line stroke="#567DB6" stroke-width="1" x1="204.5" x2="193.0625" y1="115.5" y2="161" />
<line stroke="#567DB6" stroke-dasharray="3 3" stroke-width="0.75" x1="186.5" x2="426.5" y1="187.5" y2="233.5" />
<line stroke="#567DB6" stroke-dasharray="3 3" stroke-width="0.75" x1="378.5" x2="474.5" y1="187.5" y2="233.5" />
<line stroke="#567DB6" stroke-dasharray="3 3" stroke-width="0.75" x1="426.5" x2="186.5" y1="43.5" y2="161.5" />
<line stroke="#567DB6" stroke-dasharray="3 3" stroke-width="0.75" x1="474.5" x2="378.5" y1="43.5" y2="161.5" />
<text class="title-left" x="90.5" y="9.5">upper</text>
<text class="title-right" x="474.5" y="9.5">lower</text>
<text class="title-left" x="90.5" y="52.5">if imm ≠ 0, preserve all other bits from Zd</text>
<text class="title-left" x="90.5" y="65.5">if imm = 0, fill with zero</text>
<text class="title-unused" x="330.5" y="152.5">0</text>
<text class="title-intrinsic" x="234.5" y="196.5">imm=1</text>
<rect fill="#ECF1E0" height="24" width="24" x="450.5" y="18.5" />
<rect fill="none" height="24" stroke="#405C86" stroke-width="3" width="24" x="450.5" y="18.5" />
<rect fill="#ECF1E0" height="24" width="24" x="426.5" y="18.5" />
<rect fill="none" height="24" stroke="#405C86" stroke-width="3" width="24" x="426.5" y="18.5" />
<rect fill="#ECF1E0" height="24" width="336" x="90.5" y="18.5" />
<rect fill="none" height="24" stroke="#405C86" stroke-width="3" width="336" x="90.5" y="18.5" />
<text class="register-name" x="80.5" y="30.5">Zd or 0</text>
<text class="register-number" x="10" y="30.5">(1)</text>
<rect fill="#DEE6F1" height="24" width="12" x="366.5" y="90.5" />
<rect fill="none" height="24" stroke="#405C86" stroke-width="3" width="12" x="366.5" y="90.5" />
<rect fill="none" height="24" stroke="#405C86" stroke-dasharray="3 1" stroke-dashoffset="1.5" stroke-width="1" width="12" x="354.5" y="90.5" />
<text class="label unused" x="360.5" y="103.5"></text>
<rect fill="#DEE6F1" height="24" width="12" x="342.5" y="90.5" />
<rect fill="none" height="24" stroke="#405C86" stroke-width="3" width="12" x="342.5" y="90.5" />
<rect fill="none" height="24" stroke="#405C86" stroke-dasharray="3 1" stroke-dashoffset="1.5" stroke-width="1" width="12" x="330.5" y="90.5" />
<text class="label unused" x="336.5" y="103.5"></text>
<rect fill="#DEE6F1" height="24" width="12" x="318.5" y="90.5" />
<rect fill="none" height="24" stroke="#405C86" stroke-width="3" width="12" x="318.5" y="90.5" />
<rect fill="none" height="24" stroke="#405C86" stroke-dasharray="3 1" stroke-dashoffset="1.5" stroke-width="1" width="12" x="306.5" y="90.5" />
<text class="label unused" x="312.5" y="103.5"></text>
<rect fill="#DEE6F1" height="24" width="12" x="294.5" y="90.5" />
<rect fill="none" height="24" stroke="#405C86" stroke-width="3" width="12" x="294.5" y="90.5" />
<rect fill="none" height="24" stroke="#405C86" stroke-dasharray="3 1" stroke-dashoffset="1.5" stroke-width="1" width="12" x="282.5" y="90.5" />
<text class="label unused" x="288.5" y="103.5"></text>
<rect fill="#DEE6F1" height="24" width="12" x="270.5" y="90.5" />
<rect fill="none" height="24" stroke="#405C86" stroke-width="3" width="12" x="270.5" y="90.5" />
<rect fill="none" height="24" stroke="#405C86" stroke-dasharray="3 1" stroke-dashoffset="1.5" stroke-width="1" width="12" x="258.5" y="90.5" />
<text class="label unused" x="264.5" y="103.5"></text>
<rect fill="#DEE6F1" height="24" width="12" x="246.5" y="90.5" />
<rect fill="none" height="24" stroke="#405C86" stroke-width="3" width="12" x="246.5" y="90.5" />
<rect fill="none" height="24" stroke="#405C86" stroke-dasharray="3 1" stroke-dashoffset="1.5" stroke-width="1" width="12" x="234.5" y="90.5" />
<text class="label unused" x="240.5" y="103.5"></text>
<rect fill="#DEE6F1" height="24" width="12" x="222.5" y="90.5" />
<rect fill="none" height="24" stroke="#405C86" stroke-width="3" width="12" x="222.5" y="90.5" />
<rect fill="none" height="24" stroke="#405C86" stroke-dasharray="3 1" stroke-dashoffset="1.5" stroke-width="1" width="12" x="210.5" y="90.5" />
<text class="label unused" x="216.5" y="103.5"></text>
<rect fill="#DEE6F1" height="24" width="12" x="198.5" y="90.5" />
<rect fill="none" height="24" stroke="#405C86" stroke-width="3" width="12" x="198.5" y="90.5" />
<rect fill="none" height="24" stroke="#405C86" stroke-dasharray="3 1" stroke-dashoffset="1.5" stroke-width="1" width="12" x="186.5" y="90.5" />
<text class="label unused" x="192.5" y="103.5"></text>
<text class="register-name" x="80.5" y="102.5">Pn</text>
<text class="register-number" x="10" y="102.5">(2)</text>
<rect fill="#ECF1E0" height="24" width="96" x="282.5" y="162.5" />
<line stroke="#405C86" stroke-dasharray="3 1" stroke-width="1" x1="365.5" x2="365.5" y1="163" y2="186.5" />
<line stroke="#405C86" stroke-dasharray="3 1" stroke-width="1" x1="353.5" x2="353.5" y1="163" y2="186.5" />
<line stroke="#405C86" stroke-dasharray="3 1" stroke-width="1" x1="342.5" x2="342.5" y1="163" y2="186.5" />
<line stroke="#405C86" stroke-dasharray="3 1" stroke-width="1" x1="330.5" x2="330.5" y1="163" y2="186.5" />
<line stroke="#405C86" stroke-dasharray="3 1" stroke-width="1" x1="318.5" x2="318.5" y1="163" y2="186.5" />
<line stroke="#405C86" stroke-dasharray="3 1" stroke-width="1" x1="307.5" x2="307.5" y1="163" y2="186.5" />
<line stroke="#405C86" stroke-dasharray="3 1" stroke-width="1" x1="295.5" x2="295.5" y1="163" y2="186.5" />
<rect fill="none" height="24" stroke="#405C86" stroke-width="3" width="96" x="282.5" y="162.5" />
<rect fill="#DEE6F1" height="24" width="96" x="186.5" y="162.5" />
<line stroke="#405C86" stroke-dasharray="3 1" stroke-width="1" x1="269.5" x2="269.5" y1="163" y2="186.5" />
<line stroke="#405C86" stroke-dasharray="3 1" stroke-width="1" x1="257.5" x2="257.5" y1="163" y2="186.5" />
<line stroke="#405C86" stroke-dasharray="3 1" stroke-width="1" x1="246.5" x2="246.5" y1="163" y2="186.5" />
<line stroke="#405C86" stroke-dasharray="3 1" stroke-width="1" x1="234.5" x2="234.5" y1="163" y2="186.5" />
<line stroke="#405C86" stroke-dasharray="3 1" stroke-width="1" x1="222.5" x2="222.5" y1="163" y2="186.5" />
<line stroke="#405C86" stroke-dasharray="3 1" stroke-width="1" x1="211.5" x2="211.5" y1="163" y2="186.5" />
<line stroke="#405C86" stroke-dasharray="3 1" stroke-width="1" x1="199.5" x2="199.5" y1="163" y2="186.5" />
<rect fill="none" height="24" stroke="#405C86" stroke-width="3" width="96" x="186.5" y="162.5" />
<rect fill="#ECF1E0" height="24" width="24" x="450.5" y="234.5" />
<rect fill="none" height="24" stroke="#405C86" stroke-width="3" width="24" x="450.5" y="234.5" />
<rect fill="#DEE6F1" height="24" width="24" x="426.5" y="234.5" />
<rect fill="none" height="24" stroke="#405C86" stroke-width="3" width="24" x="426.5" y="234.5" />
<rect fill="#ECF1E0" height="24" width="336" x="90.5" y="234.5" />
<rect fill="none" height="24" stroke="#405C86" stroke-width="3" width="336" x="90.5" y="234.5" />
<text class="register-name" x="80.5" y="246.5">Zd</text>
<text class="register-number" x="10" y="246.5">(3)</text>
<line marker-end="url(#arrowhead)" stroke="none" x1="372.5" x2="275.9375" y1="115.5" y2="161" />
<line marker-end="url(#arrowhead)" stroke="none" x1="348.5" x2="263.5625" y1="115.5" y2="161" />
<line marker-end="url(#arrowhead)" stroke="none" x1="324.5" x2="251.9375" y1="115.5" y2="161" />
<line marker-end="url(#arrowhead)" stroke="none" x1="300.5" x2="240.3125" y1="115.5" y2="161" />
<line marker-end="url(#arrowhead)" stroke="none" x1="276.5" x2="228.6875" y1="115.5" y2="161" />
<line marker-end="url(#arrowhead)" stroke="none" x1="252.5" x2="217.0625" y1="115.5" y2="161" />
<line marker-end="url(#arrowhead)" stroke="none" x1="228.5" x2="205.4375" y1="115.5" y2="161" />
<line marker-end="url(#arrowhead)" stroke="none" x1="204.5" x2="193.0625" y1="115.5" y2="161" />
</svg>