<svg xmlns="http://www.w3.org/2000/svg" viewBox="0 0 3174 267">
<style>
.label { font: 14px Helvetica; dominant-baseline: middle; text-anchor: middle; }
.title-left { font: 12px Helvetica; dominant-baseline: middle; }
.title-right { font: 12px Helvetica; dominant-baseline: middle; text-anchor: end; }
.title-intrinsic { font: 12px Helvetica; dominant-baseline: middle; text-anchor: middle; fill: #6778ED; }
.title { font: 12px Helvetica; dominant-baseline: middle; text-anchor: middle; }
.title-unused { font: 12px Helvetica; dominant-baseline: middle; text-anchor: middle; fill: #AAA; }
.register-name { font: 14px Helvetica; dominant-baseline: middle; text-anchor: end; font-style: italic; }
.memory-name { font: 14px Helvetica; dominant-baseline: middle; text-anchor: end; }
.register-number { font: 14px Helvetica; dominant-baseline: middle; text-anchor: start; }
.intrinsic-name { font: 14px Helvetica; dominant-baseline: middle; text-anchor: end; fill: #6778ED; }
.intrinsic-color { fill: #6778ED; }
.small-label { font: 12px Helvetica; dominant-baseline: middle; text-anchor: middle; }
.label-10px { font: 10px Helvetica; dominant-baseline: middle; text-anchor: middle; }
.smaller-label { font: 9px Helvetica; dominant-baseline: middle; text-anchor: middle; }
.label-6px { font: 6px Helvetica; dominant-baseline: middle; text-anchor: middle; }
.label-7px { font: 7px Helvetica; dominant-baseline: middle; text-anchor: middle; }
.unused { fill: #AAA; }
.dim { fill: #888; }
</style>
<defs>
<marker id="arrowhead" markerWidth="9.5" markerHeight="21.0" refX="7.75" refY="5.25" orient="auto">
<polyline points="0.5 0.5, 7.5 5.25, 0.5 10.0" stroke="#567DB6" stroke-width="1" fill="none"/>
</marker>
</defs>
<line stroke="#567DB6" stroke-width="1" x1="2388.5" x2="2195.84375" y1="115.5" y2="161" />
<line stroke="#567DB6" stroke-width="1" x1="2292.5" x2="2183.28125" y1="115.5" y2="161" />
<line stroke="#567DB6" stroke-width="1" x1="2196.5" x2="2171.46875" y1="115.5" y2="161" />
<line stroke="#567DB6" stroke-width="1" x1="2100.5" x2="2159.65625" y1="115.5" y2="161" />
<line stroke="#567DB6" stroke-width="1" x1="2004.5" x2="2147.84375" y1="115.5" y2="161" />
<line stroke="#567DB6" stroke-width="1" x1="1908.5" x2="2136.03125" y1="115.5" y2="161" />
<line stroke="#567DB6" stroke-width="1" x1="1812.5" x2="2124.21875" y1="115.5" y2="161" />
<line stroke="#567DB6" stroke-width="1" x1="1716.5" x2="2112.40625" y1="115.5" y2="161" />
<line stroke="#567DB6" stroke-width="1" x1="1620.5" x2="2100.59375" y1="115.5" y2="161" />
<line stroke="#567DB6" stroke-width="1" x1="1524.5" x2="2088.78125" y1="115.5" y2="161" />
<line stroke="#567DB6" stroke-width="1" x1="1428.5" x2="2076.96875" y1="115.5" y2="161" />
<line stroke="#567DB6" stroke-width="1" x1="1332.5" x2="2065.15625" y1="115.5" y2="161" />
<line stroke="#567DB6" stroke-width="1" x1="1236.5" x2="2053.34375" y1="115.5" y2="161" />
<line stroke="#567DB6" stroke-width="1" x1="1140.5" x2="2041.53125" y1="115.5" y2="161" />
<line stroke="#567DB6" stroke-width="1" x1="1044.5" x2="2029.71875" y1="115.5" y2="161" />
<line stroke="#567DB6" stroke-width="1" x1="948.5" x2="2017.15625" y1="115.5" y2="161" />
<line stroke="#567DB6" stroke-dasharray="3 3" stroke-width="0.75" x1="858.5" x2="2778.5" y1="187.5" y2="233.5" />
<line stroke="#567DB6" stroke-dasharray="3 3" stroke-width="0.75" x1="2394.5" x2="3162.5" y1="187.5" y2="233.5" />
<line stroke="#567DB6" stroke-dasharray="3 3" stroke-width="0.75" x1="2778.5" x2="858.5" y1="43.5" y2="161.5" />
<line stroke="#567DB6" stroke-dasharray="3 3" stroke-width="0.75" x1="3162.5" x2="2394.5" y1="43.5" y2="161.5" />
<text class="title-left" x="90.5" y="9.5">upper</text>
<text class="title-right" x="3162.5" y="9.5">lower</text>
<text class="title-left" x="90.5" y="52.5">if imm ≠ 0, preserve all other bits from Zd</text>
<text class="title-left" x="90.5" y="65.5">if imm = 0, fill with zero</text>
<text class="title-unused" x="2298.5" y="152.5">0</text>
<text class="title-intrinsic" x="2106.5" y="196.5">imm=1</text>
<text class="title-unused" x="1914.5" y="152.5">2</text>
<text class="title-unused" x="1722.5" y="152.5">3</text>
<text class="title-unused" x="1530.5" y="152.5">4</text>
<text class="title-unused" x="1338.5" y="152.5">5</text>
<text class="title-unused" x="1146.5" y="152.5">6</text>
<text class="title-unused" x="954.5" y="152.5">7</text>
<rect fill="#ECF1E0" height="24" width="48" x="3114.5" y="18.5" />
<rect fill="none" height="24" stroke="#405C86" stroke-width="3" width="48" x="3114.5" y="18.5" />
<rect fill="#ECF1E0" height="24" width="48" x="3066.5" y="18.5" />
<rect fill="none" height="24" stroke="#405C86" stroke-width="3" width="48" x="3066.5" y="18.5" />
<rect fill="#ECF1E0" height="24" width="48" x="3018.5" y="18.5" />
<rect fill="none" height="24" stroke="#405C86" stroke-width="3" width="48" x="3018.5" y="18.5" />
<rect fill="#ECF1E0" height="24" width="48" x="2970.5" y="18.5" />
<rect fill="none" height="24" stroke="#405C86" stroke-width="3" width="48" x="2970.5" y="18.5" />
<rect fill="#ECF1E0" height="24" width="48" x="2922.5" y="18.5" />
<rect fill="none" height="24" stroke="#405C86" stroke-width="3" width="48" x="2922.5" y="18.5" />
<rect fill="#ECF1E0" height="24" width="48" x="2874.5" y="18.5" />
<rect fill="none" height="24" stroke="#405C86" stroke-width="3" width="48" x="2874.5" y="18.5" />
<rect fill="#ECF1E0" height="24" width="48" x="2826.5" y="18.5" />
<rect fill="none" height="24" stroke="#405C86" stroke-width="3" width="48" x="2826.5" y="18.5" />
<rect fill="#ECF1E0" height="24" width="48" x="2778.5" y="18.5" />
<rect fill="none" height="24" stroke="#405C86" stroke-width="3" width="48" x="2778.5" y="18.5" />
<rect fill="#ECF1E0" height="24" width="2688" x="90.5" y="18.5" />
<rect fill="none" height="24" stroke="#405C86" stroke-width="3" width="2688" x="90.5" y="18.5" />
<text class="register-name" x="80.5" y="30.5">Zd or 0</text>
<text class="register-number" x="10" y="30.5">(1)</text>
<rect fill="#DEE6F1" height="24" width="12" x="2382.5" y="90.5" />
<rect fill="none" height="24" stroke="#405C86" stroke-width="3" width="12" x="2382.5" y="90.5" />
<rect fill="none" height="24" stroke="#405C86" stroke-dasharray="3 1" stroke-dashoffset="1.5" stroke-width="1" width="12" x="2370.5" y="90.5" />
<text class="label unused" x="2376.5" y="103.5"></text>
<rect fill="none" height="24" stroke="#405C86" stroke-dasharray="3 1" stroke-dashoffset="1.5" stroke-width="1" width="12" x="2358.5" y="90.5" />
<text class="label unused" x="2364.5" y="103.5"></text>
<rect fill="none" height="24" stroke="#405C86" stroke-dasharray="3 1" stroke-dashoffset="1.5" stroke-width="1" width="12" x="2346.5" y="90.5" />
<text class="label unused" x="2352.5" y="103.5"></text>
<rect fill="none" height="24" stroke="#405C86" stroke-dasharray="3 1" stroke-dashoffset="1.5" stroke-width="1" width="12" x="2334.5" y="90.5" />
<text class="label unused" x="2340.5" y="103.5"></text>
<rect fill="none" height="24" stroke="#405C86" stroke-dasharray="3 1" stroke-dashoffset="1.5" stroke-width="1" width="12" x="2322.5" y="90.5" />
<text class="label unused" x="2328.5" y="103.5"></text>
<rect fill="none" height="24" stroke="#405C86" stroke-dasharray="3 1" stroke-dashoffset="1.5" stroke-width="1" width="12" x="2310.5" y="90.5" />
<text class="label unused" x="2316.5" y="103.5"></text>
<rect fill="none" height="24" stroke="#405C86" stroke-dasharray="3 1" stroke-dashoffset="1.5" stroke-width="1" width="12" x="2298.5" y="90.5" />
<text class="label unused" x="2304.5" y="103.5"></text>
<rect fill="#DEE6F1" height="24" width="12" x="2286.5" y="90.5" />
<rect fill="none" height="24" stroke="#405C86" stroke-width="3" width="12" x="2286.5" y="90.5" />
<rect fill="none" height="24" stroke="#405C86" stroke-dasharray="3 1" stroke-dashoffset="1.5" stroke-width="1" width="12" x="2274.5" y="90.5" />
<text class="label unused" x="2280.5" y="103.5"></text>
<rect fill="none" height="24" stroke="#405C86" stroke-dasharray="3 1" stroke-dashoffset="1.5" stroke-width="1" width="12" x="2262.5" y="90.5" />
<text class="label unused" x="2268.5" y="103.5"></text>
<rect fill="none" height="24" stroke="#405C86" stroke-dasharray="3 1" stroke-dashoffset="1.5" stroke-width="1" width="12" x="2250.5" y="90.5" />
<text class="label unused" x="2256.5" y="103.5"></text>
<rect fill="none" height="24" stroke="#405C86" stroke-dasharray="3 1" stroke-dashoffset="1.5" stroke-width="1" width="12" x="2238.5" y="90.5" />
<text class="label unused" x="2244.5" y="103.5"></text>
<rect fill="none" height="24" stroke="#405C86" stroke-dasharray="3 1" stroke-dashoffset="1.5" stroke-width="1" width="12" x="2226.5" y="90.5" />
<text class="label unused" x="2232.5" y="103.5"></text>
<rect fill="none" height="24" stroke="#405C86" stroke-dasharray="3 1" stroke-dashoffset="1.5" stroke-width="1" width="12" x="2214.5" y="90.5" />
<text class="label unused" x="2220.5" y="103.5"></text>
<rect fill="none" height="24" stroke="#405C86" stroke-dasharray="3 1" stroke-dashoffset="1.5" stroke-width="1" width="12" x="2202.5" y="90.5" />
<text class="label unused" x="2208.5" y="103.5"></text>
<rect fill="#DEE6F1" height="24" width="12" x="2190.5" y="90.5" />
<rect fill="none" height="24" stroke="#405C86" stroke-width="3" width="12" x="2190.5" y="90.5" />
<rect fill="none" height="24" stroke="#405C86" stroke-dasharray="3 1" stroke-dashoffset="1.5" stroke-width="1" width="12" x="2178.5" y="90.5" />
<text class="label unused" x="2184.5" y="103.5"></text>
<rect fill="none" height="24" stroke="#405C86" stroke-dasharray="3 1" stroke-dashoffset="1.5" stroke-width="1" width="12" x="2166.5" y="90.5" />
<text class="label unused" x="2172.5" y="103.5"></text>
<rect fill="none" height="24" stroke="#405C86" stroke-dasharray="3 1" stroke-dashoffset="1.5" stroke-width="1" width="12" x="2154.5" y="90.5" />
<text class="label unused" x="2160.5" y="103.5"></text>
<rect fill="none" height="24" stroke="#405C86" stroke-dasharray="3 1" stroke-dashoffset="1.5" stroke-width="1" width="12" x="2142.5" y="90.5" />
<text class="label unused" x="2148.5" y="103.5"></text>
<rect fill="none" height="24" stroke="#405C86" stroke-dasharray="3 1" stroke-dashoffset="1.5" stroke-width="1" width="12" x="2130.5" y="90.5" />
<text class="label unused" x="2136.5" y="103.5"></text>
<rect fill="none" height="24" stroke="#405C86" stroke-dasharray="3 1" stroke-dashoffset="1.5" stroke-width="1" width="12" x="2118.5" y="90.5" />
<text class="label unused" x="2124.5" y="103.5"></text>
<rect fill="none" height="24" stroke="#405C86" stroke-dasharray="3 1" stroke-dashoffset="1.5" stroke-width="1" width="12" x="2106.5" y="90.5" />
<text class="label unused" x="2112.5" y="103.5"></text>
<rect fill="#DEE6F1" height="24" width="12" x="2094.5" y="90.5" />
<rect fill="none" height="24" stroke="#405C86" stroke-width="3" width="12" x="2094.5" y="90.5" />
<rect fill="none" height="24" stroke="#405C86" stroke-dasharray="3 1" stroke-dashoffset="1.5" stroke-width="1" width="12" x="2082.5" y="90.5" />
<text class="label unused" x="2088.5" y="103.5"></text>
<rect fill="none" height="24" stroke="#405C86" stroke-dasharray="3 1" stroke-dashoffset="1.5" stroke-width="1" width="12" x="2070.5" y="90.5" />
<text class="label unused" x="2076.5" y="103.5"></text>
<rect fill="none" height="24" stroke="#405C86" stroke-dasharray="3 1" stroke-dashoffset="1.5" stroke-width="1" width="12" x="2058.5" y="90.5" />
<text class="label unused" x="2064.5" y="103.5"></text>
<rect fill="none" height="24" stroke="#405C86" stroke-dasharray="3 1" stroke-dashoffset="1.5" stroke-width="1" width="12" x="2046.5" y="90.5" />
<text class="label unused" x="2052.5" y="103.5"></text>
<rect fill="none" height="24" stroke="#405C86" stroke-dasharray="3 1" stroke-dashoffset="1.5" stroke-width="1" width="12" x="2034.5" y="90.5" />
<text class="label unused" x="2040.5" y="103.5"></text>
<rect fill="none" height="24" stroke="#405C86" stroke-dasharray="3 1" stroke-dashoffset="1.5" stroke-width="1" width="12" x="2022.5" y="90.5" />
<text class="label unused" x="2028.5" y="103.5"></text>
<rect fill="none" height="24" stroke="#405C86" stroke-dasharray="3 1" stroke-dashoffset="1.5" stroke-width="1" width="12" x="2010.5" y="90.5" />
<text class="label unused" x="2016.5" y="103.5"></text>
<rect fill="#DEE6F1" height="24" width="12" x="1998.5" y="90.5" />
<rect fill="none" height="24" stroke="#405C86" stroke-width="3" width="12" x="1998.5" y="90.5" />
<rect fill="none" height="24" stroke="#405C86" stroke-dasharray="3 1" stroke-dashoffset="1.5" stroke-width="1" width="12" x="1986.5" y="90.5" />
<text class="label unused" x="1992.5" y="103.5"></text>
<rect fill="none" height="24" stroke="#405C86" stroke-dasharray="3 1" stroke-dashoffset="1.5" stroke-width="1" width="12" x="1974.5" y="90.5" />
<text class="label unused" x="1980.5" y="103.5"></text>
<rect fill="none" height="24" stroke="#405C86" stroke-dasharray="3 1" stroke-dashoffset="1.5" stroke-width="1" width="12" x="1962.5" y="90.5" />
<text class="label unused" x="1968.5" y="103.5"></text>
<rect fill="none" height="24" stroke="#405C86" stroke-dasharray="3 1" stroke-dashoffset="1.5" stroke-width="1" width="12" x="1950.5" y="90.5" />
<text class="label unused" x="1956.5" y="103.5"></text>
<rect fill="none" height="24" stroke="#405C86" stroke-dasharray="3 1" stroke-dashoffset="1.5" stroke-width="1" width="12" x="1938.5" y="90.5" />
<text class="label unused" x="1944.5" y="103.5"></text>
<rect fill="none" height="24" stroke="#405C86" stroke-dasharray="3 1" stroke-dashoffset="1.5" stroke-width="1" width="12" x="1926.5" y="90.5" />
<text class="label unused" x="1932.5" y="103.5"></text>
<rect fill="none" height="24" stroke="#405C86" stroke-dasharray="3 1" stroke-dashoffset="1.5" stroke-width="1" width="12" x="1914.5" y="90.5" />
<text class="label unused" x="1920.5" y="103.5"></text>
<rect fill="#DEE6F1" height="24" width="12" x="1902.5" y="90.5" />
<rect fill="none" height="24" stroke="#405C86" stroke-width="3" width="12" x="1902.5" y="90.5" />
<rect fill="none" height="24" stroke="#405C86" stroke-dasharray="3 1" stroke-dashoffset="1.5" stroke-width="1" width="12" x="1890.5" y="90.5" />
<text class="label unused" x="1896.5" y="103.5"></text>
<rect fill="none" height="24" stroke="#405C86" stroke-dasharray="3 1" stroke-dashoffset="1.5" stroke-width="1" width="12" x="1878.5" y="90.5" />
<text class="label unused" x="1884.5" y="103.5"></text>
<rect fill="none" height="24" stroke="#405C86" stroke-dasharray="3 1" stroke-dashoffset="1.5" stroke-width="1" width="12" x="1866.5" y="90.5" />
<text class="label unused" x="1872.5" y="103.5"></text>
<rect fill="none" height="24" stroke="#405C86" stroke-dasharray="3 1" stroke-dashoffset="1.5" stroke-width="1" width="12" x="1854.5" y="90.5" />
<text class="label unused" x="1860.5" y="103.5"></text>
<rect fill="none" height="24" stroke="#405C86" stroke-dasharray="3 1" stroke-dashoffset="1.5" stroke-width="1" width="12" x="1842.5" y="90.5" />
<text class="label unused" x="1848.5" y="103.5"></text>
<rect fill="none" height="24" stroke="#405C86" stroke-dasharray="3 1" stroke-dashoffset="1.5" stroke-width="1" width="12" x="1830.5" y="90.5" />
<text class="label unused" x="1836.5" y="103.5"></text>
<rect fill="none" height="24" stroke="#405C86" stroke-dasharray="3 1" stroke-dashoffset="1.5" stroke-width="1" width="12" x="1818.5" y="90.5" />
<text class="label unused" x="1824.5" y="103.5"></text>
<rect fill="#DEE6F1" height="24" width="12" x="1806.5" y="90.5" />
<rect fill="none" height="24" stroke="#405C86" stroke-width="3" width="12" x="1806.5" y="90.5" />
<rect fill="none" height="24" stroke="#405C86" stroke-dasharray="3 1" stroke-dashoffset="1.5" stroke-width="1" width="12" x="1794.5" y="90.5" />
<text class="label unused" x="1800.5" y="103.5"></text>
<rect fill="none" height="24" stroke="#405C86" stroke-dasharray="3 1" stroke-dashoffset="1.5" stroke-width="1" width="12" x="1782.5" y="90.5" />
<text class="label unused" x="1788.5" y="103.5"></text>
<rect fill="none" height="24" stroke="#405C86" stroke-dasharray="3 1" stroke-dashoffset="1.5" stroke-width="1" width="12" x="1770.5" y="90.5" />
<text class="label unused" x="1776.5" y="103.5"></text>
<rect fill="none" height="24" stroke="#405C86" stroke-dasharray="3 1" stroke-dashoffset="1.5" stroke-width="1" width="12" x="1758.5" y="90.5" />
<text class="label unused" x="1764.5" y="103.5"></text>
<rect fill="none" height="24" stroke="#405C86" stroke-dasharray="3 1" stroke-dashoffset="1.5" stroke-width="1" width="12" x="1746.5" y="90.5" />
<text class="label unused" x="1752.5" y="103.5"></text>
<rect fill="none" height="24" stroke="#405C86" stroke-dasharray="3 1" stroke-dashoffset="1.5" stroke-width="1" width="12" x="1734.5" y="90.5" />
<text class="label unused" x="1740.5" y="103.5"></text>
<rect fill="none" height="24" stroke="#405C86" stroke-dasharray="3 1" stroke-dashoffset="1.5" stroke-width="1" width="12" x="1722.5" y="90.5" />
<text class="label unused" x="1728.5" y="103.5"></text>
<rect fill="#DEE6F1" height="24" width="12" x="1710.5" y="90.5" />
<rect fill="none" height="24" stroke="#405C86" stroke-width="3" width="12" x="1710.5" y="90.5" />
<rect fill="none" height="24" stroke="#405C86" stroke-dasharray="3 1" stroke-dashoffset="1.5" stroke-width="1" width="12" x="1698.5" y="90.5" />
<text class="label unused" x="1704.5" y="103.5"></text>
<rect fill="none" height="24" stroke="#405C86" stroke-dasharray="3 1" stroke-dashoffset="1.5" stroke-width="1" width="12" x="1686.5" y="90.5" />
<text class="label unused" x="1692.5" y="103.5"></text>
<rect fill="none" height="24" stroke="#405C86" stroke-dasharray="3 1" stroke-dashoffset="1.5" stroke-width="1" width="12" x="1674.5" y="90.5" />
<text class="label unused" x="1680.5" y="103.5"></text>
<rect fill="none" height="24" stroke="#405C86" stroke-dasharray="3 1" stroke-dashoffset="1.5" stroke-width="1" width="12" x="1662.5" y="90.5" />
<text class="label unused" x="1668.5" y="103.5"></text>
<rect fill="none" height="24" stroke="#405C86" stroke-dasharray="3 1" stroke-dashoffset="1.5" stroke-width="1" width="12" x="1650.5" y="90.5" />
<text class="label unused" x="1656.5" y="103.5"></text>
<rect fill="none" height="24" stroke="#405C86" stroke-dasharray="3 1" stroke-dashoffset="1.5" stroke-width="1" width="12" x="1638.5" y="90.5" />
<text class="label unused" x="1644.5" y="103.5"></text>
<rect fill="none" height="24" stroke="#405C86" stroke-dasharray="3 1" stroke-dashoffset="1.5" stroke-width="1" width="12" x="1626.5" y="90.5" />
<text class="label unused" x="1632.5" y="103.5"></text>
<rect fill="#DEE6F1" height="24" width="12" x="1614.5" y="90.5" />
<rect fill="none" height="24" stroke="#405C86" stroke-width="3" width="12" x="1614.5" y="90.5" />
<rect fill="none" height="24" stroke="#405C86" stroke-dasharray="3 1" stroke-dashoffset="1.5" stroke-width="1" width="12" x="1602.5" y="90.5" />
<text class="label unused" x="1608.5" y="103.5"></text>
<rect fill="none" height="24" stroke="#405C86" stroke-dasharray="3 1" stroke-dashoffset="1.5" stroke-width="1" width="12" x="1590.5" y="90.5" />
<text class="label unused" x="1596.5" y="103.5"></text>
<rect fill="none" height="24" stroke="#405C86" stroke-dasharray="3 1" stroke-dashoffset="1.5" stroke-width="1" width="12" x="1578.5" y="90.5" />
<text class="label unused" x="1584.5" y="103.5"></text>
<rect fill="none" height="24" stroke="#405C86" stroke-dasharray="3 1" stroke-dashoffset="1.5" stroke-width="1" width="12" x="1566.5" y="90.5" />
<text class="label unused" x="1572.5" y="103.5"></text>
<rect fill="none" height="24" stroke="#405C86" stroke-dasharray="3 1" stroke-dashoffset="1.5" stroke-width="1" width="12" x="1554.5" y="90.5" />
<text class="label unused" x="1560.5" y="103.5"></text>
<rect fill="none" height="24" stroke="#405C86" stroke-dasharray="3 1" stroke-dashoffset="1.5" stroke-width="1" width="12" x="1542.5" y="90.5" />
<text class="label unused" x="1548.5" y="103.5"></text>
<rect fill="none" height="24" stroke="#405C86" stroke-dasharray="3 1" stroke-dashoffset="1.5" stroke-width="1" width="12" x="1530.5" y="90.5" />
<text class="label unused" x="1536.5" y="103.5"></text>
<rect fill="#DEE6F1" height="24" width="12" x="1518.5" y="90.5" />
<rect fill="none" height="24" stroke="#405C86" stroke-width="3" width="12" x="1518.5" y="90.5" />
<rect fill="none" height="24" stroke="#405C86" stroke-dasharray="3 1" stroke-dashoffset="1.5" stroke-width="1" width="12" x="1506.5" y="90.5" />
<text class="label unused" x="1512.5" y="103.5"></text>
<rect fill="none" height="24" stroke="#405C86" stroke-dasharray="3 1" stroke-dashoffset="1.5" stroke-width="1" width="12" x="1494.5" y="90.5" />
<text class="label unused" x="1500.5" y="103.5"></text>
<rect fill="none" height="24" stroke="#405C86" stroke-dasharray="3 1" stroke-dashoffset="1.5" stroke-width="1" width="12" x="1482.5" y="90.5" />
<text class="label unused" x="1488.5" y="103.5"></text>
<rect fill="none" height="24" stroke="#405C86" stroke-dasharray="3 1" stroke-dashoffset="1.5" stroke-width="1" width="12" x="1470.5" y="90.5" />
<text class="label unused" x="1476.5" y="103.5"></text>
<rect fill="none" height="24" stroke="#405C86" stroke-dasharray="3 1" stroke-dashoffset="1.5" stroke-width="1" width="12" x="1458.5" y="90.5" />
<text class="label unused" x="1464.5" y="103.5"></text>
<rect fill="none" height="24" stroke="#405C86" stroke-dasharray="3 1" stroke-dashoffset="1.5" stroke-width="1" width="12" x="1446.5" y="90.5" />
<text class="label unused" x="1452.5" y="103.5"></text>
<rect fill="none" height="24" stroke="#405C86" stroke-dasharray="3 1" stroke-dashoffset="1.5" stroke-width="1" width="12" x="1434.5" y="90.5" />
<text class="label unused" x="1440.5" y="103.5"></text>
<rect fill="#DEE6F1" height="24" width="12" x="1422.5" y="90.5" />
<rect fill="none" height="24" stroke="#405C86" stroke-width="3" width="12" x="1422.5" y="90.5" />
<rect fill="none" height="24" stroke="#405C86" stroke-dasharray="3 1" stroke-dashoffset="1.5" stroke-width="1" width="12" x="1410.5" y="90.5" />
<text class="label unused" x="1416.5" y="103.5"></text>
<rect fill="none" height="24" stroke="#405C86" stroke-dasharray="3 1" stroke-dashoffset="1.5" stroke-width="1" width="12" x="1398.5" y="90.5" />
<text class="label unused" x="1404.5" y="103.5"></text>
<rect fill="none" height="24" stroke="#405C86" stroke-dasharray="3 1" stroke-dashoffset="1.5" stroke-width="1" width="12" x="1386.5" y="90.5" />
<text class="label unused" x="1392.5" y="103.5"></text>
<rect fill="none" height="24" stroke="#405C86" stroke-dasharray="3 1" stroke-dashoffset="1.5" stroke-width="1" width="12" x="1374.5" y="90.5" />
<text class="label unused" x="1380.5" y="103.5"></text>
<rect fill="none" height="24" stroke="#405C86" stroke-dasharray="3 1" stroke-dashoffset="1.5" stroke-width="1" width="12" x="1362.5" y="90.5" />
<text class="label unused" x="1368.5" y="103.5"></text>
<rect fill="none" height="24" stroke="#405C86" stroke-dasharray="3 1" stroke-dashoffset="1.5" stroke-width="1" width="12" x="1350.5" y="90.5" />
<text class="label unused" x="1356.5" y="103.5"></text>
<rect fill="none" height="24" stroke="#405C86" stroke-dasharray="3 1" stroke-dashoffset="1.5" stroke-width="1" width="12" x="1338.5" y="90.5" />
<text class="label unused" x="1344.5" y="103.5"></text>
<rect fill="#DEE6F1" height="24" width="12" x="1326.5" y="90.5" />
<rect fill="none" height="24" stroke="#405C86" stroke-width="3" width="12" x="1326.5" y="90.5" />
<rect fill="none" height="24" stroke="#405C86" stroke-dasharray="3 1" stroke-dashoffset="1.5" stroke-width="1" width="12" x="1314.5" y="90.5" />
<text class="label unused" x="1320.5" y="103.5"></text>
<rect fill="none" height="24" stroke="#405C86" stroke-dasharray="3 1" stroke-dashoffset="1.5" stroke-width="1" width="12" x="1302.5" y="90.5" />
<text class="label unused" x="1308.5" y="103.5"></text>
<rect fill="none" height="24" stroke="#405C86" stroke-dasharray="3 1" stroke-dashoffset="1.5" stroke-width="1" width="12" x="1290.5" y="90.5" />
<text class="label unused" x="1296.5" y="103.5"></text>
<rect fill="none" height="24" stroke="#405C86" stroke-dasharray="3 1" stroke-dashoffset="1.5" stroke-width="1" width="12" x="1278.5" y="90.5" />
<text class="label unused" x="1284.5" y="103.5"></text>
<rect fill="none" height="24" stroke="#405C86" stroke-dasharray="3 1" stroke-dashoffset="1.5" stroke-width="1" width="12" x="1266.5" y="90.5" />
<text class="label unused" x="1272.5" y="103.5"></text>
<rect fill="none" height="24" stroke="#405C86" stroke-dasharray="3 1" stroke-dashoffset="1.5" stroke-width="1" width="12" x="1254.5" y="90.5" />
<text class="label unused" x="1260.5" y="103.5"></text>
<rect fill="none" height="24" stroke="#405C86" stroke-dasharray="3 1" stroke-dashoffset="1.5" stroke-width="1" width="12" x="1242.5" y="90.5" />
<text class="label unused" x="1248.5" y="103.5"></text>
<rect fill="#DEE6F1" height="24" width="12" x="1230.5" y="90.5" />
<rect fill="none" height="24" stroke="#405C86" stroke-width="3" width="12" x="1230.5" y="90.5" />
<rect fill="none" height="24" stroke="#405C86" stroke-dasharray="3 1" stroke-dashoffset="1.5" stroke-width="1" width="12" x="1218.5" y="90.5" />
<text class="label unused" x="1224.5" y="103.5"></text>
<rect fill="none" height="24" stroke="#405C86" stroke-dasharray="3 1" stroke-dashoffset="1.5" stroke-width="1" width="12" x="1206.5" y="90.5" />
<text class="label unused" x="1212.5" y="103.5"></text>
<rect fill="none" height="24" stroke="#405C86" stroke-dasharray="3 1" stroke-dashoffset="1.5" stroke-width="1" width="12" x="1194.5" y="90.5" />
<text class="label unused" x="1200.5" y="103.5"></text>
<rect fill="none" height="24" stroke="#405C86" stroke-dasharray="3 1" stroke-dashoffset="1.5" stroke-width="1" width="12" x="1182.5" y="90.5" />
<text class="label unused" x="1188.5" y="103.5"></text>
<rect fill="none" height="24" stroke="#405C86" stroke-dasharray="3 1" stroke-dashoffset="1.5" stroke-width="1" width="12" x="1170.5" y="90.5" />
<text class="label unused" x="1176.5" y="103.5"></text>
<rect fill="none" height="24" stroke="#405C86" stroke-dasharray="3 1" stroke-dashoffset="1.5" stroke-width="1" width="12" x="1158.5" y="90.5" />
<text class="label unused" x="1164.5" y="103.5"></text>
<rect fill="none" height="24" stroke="#405C86" stroke-dasharray="3 1" stroke-dashoffset="1.5" stroke-width="1" width="12" x="1146.5" y="90.5" />
<text class="label unused" x="1152.5" y="103.5"></text>
<rect fill="#DEE6F1" height="24" width="12" x="1134.5" y="90.5" />
<rect fill="none" height="24" stroke="#405C86" stroke-width="3" width="12" x="1134.5" y="90.5" />
<rect fill="none" height="24" stroke="#405C86" stroke-dasharray="3 1" stroke-dashoffset="1.5" stroke-width="1" width="12" x="1122.5" y="90.5" />
<text class="label unused" x="1128.5" y="103.5"></text>
<rect fill="none" height="24" stroke="#405C86" stroke-dasharray="3 1" stroke-dashoffset="1.5" stroke-width="1" width="12" x="1110.5" y="90.5" />
<text class="label unused" x="1116.5" y="103.5"></text>
<rect fill="none" height="24" stroke="#405C86" stroke-dasharray="3 1" stroke-dashoffset="1.5" stroke-width="1" width="12" x="1098.5" y="90.5" />
<text class="label unused" x="1104.5" y="103.5"></text>
<rect fill="none" height="24" stroke="#405C86" stroke-dasharray="3 1" stroke-dashoffset="1.5" stroke-width="1" width="12" x="1086.5" y="90.5" />
<text class="label unused" x="1092.5" y="103.5"></text>
<rect fill="none" height="24" stroke="#405C86" stroke-dasharray="3 1" stroke-dashoffset="1.5" stroke-width="1" width="12" x="1074.5" y="90.5" />
<text class="label unused" x="1080.5" y="103.5"></text>
<rect fill="none" height="24" stroke="#405C86" stroke-dasharray="3 1" stroke-dashoffset="1.5" stroke-width="1" width="12" x="1062.5" y="90.5" />
<text class="label unused" x="1068.5" y="103.5"></text>
<rect fill="none" height="24" stroke="#405C86" stroke-dasharray="3 1" stroke-dashoffset="1.5" stroke-width="1" width="12" x="1050.5" y="90.5" />
<text class="label unused" x="1056.5" y="103.5"></text>
<rect fill="#DEE6F1" height="24" width="12" x="1038.5" y="90.5" />
<rect fill="none" height="24" stroke="#405C86" stroke-width="3" width="12" x="1038.5" y="90.5" />
<rect fill="none" height="24" stroke="#405C86" stroke-dasharray="3 1" stroke-dashoffset="1.5" stroke-width="1" width="12" x="1026.5" y="90.5" />
<text class="label unused" x="1032.5" y="103.5"></text>
<rect fill="none" height="24" stroke="#405C86" stroke-dasharray="3 1" stroke-dashoffset="1.5" stroke-width="1" width="12" x="1014.5" y="90.5" />
<text class="label unused" x="1020.5" y="103.5"></text>
<rect fill="none" height="24" stroke="#405C86" stroke-dasharray="3 1" stroke-dashoffset="1.5" stroke-width="1" width="12" x="1002.5" y="90.5" />
<text class="label unused" x="1008.5" y="103.5"></text>
<rect fill="none" height="24" stroke="#405C86" stroke-dasharray="3 1" stroke-dashoffset="1.5" stroke-width="1" width="12" x="990.5" y="90.5" />
<text class="label unused" x="996.5" y="103.5"></text>
<rect fill="none" height="24" stroke="#405C86" stroke-dasharray="3 1" stroke-dashoffset="1.5" stroke-width="1" width="12" x="978.5" y="90.5" />
<text class="label unused" x="984.5" y="103.5"></text>
<rect fill="none" height="24" stroke="#405C86" stroke-dasharray="3 1" stroke-dashoffset="1.5" stroke-width="1" width="12" x="966.5" y="90.5" />
<text class="label unused" x="972.5" y="103.5"></text>
<rect fill="none" height="24" stroke="#405C86" stroke-dasharray="3 1" stroke-dashoffset="1.5" stroke-width="1" width="12" x="954.5" y="90.5" />
<text class="label unused" x="960.5" y="103.5"></text>
<rect fill="#DEE6F1" height="24" width="12" x="942.5" y="90.5" />
<rect fill="none" height="24" stroke="#405C86" stroke-width="3" width="12" x="942.5" y="90.5" />
<rect fill="none" height="24" stroke="#405C86" stroke-dasharray="3 1" stroke-dashoffset="1.5" stroke-width="1" width="12" x="930.5" y="90.5" />
<text class="label unused" x="936.5" y="103.5"></text>
<rect fill="none" height="24" stroke="#405C86" stroke-dasharray="3 1" stroke-dashoffset="1.5" stroke-width="1" width="12" x="918.5" y="90.5" />
<text class="label unused" x="924.5" y="103.5"></text>
<rect fill="none" height="24" stroke="#405C86" stroke-dasharray="3 1" stroke-dashoffset="1.5" stroke-width="1" width="12" x="906.5" y="90.5" />
<text class="label unused" x="912.5" y="103.5"></text>
<rect fill="none" height="24" stroke="#405C86" stroke-dasharray="3 1" stroke-dashoffset="1.5" stroke-width="1" width="12" x="894.5" y="90.5" />
<text class="label unused" x="900.5" y="103.5"></text>
<rect fill="none" height="24" stroke="#405C86" stroke-dasharray="3 1" stroke-dashoffset="1.5" stroke-width="1" width="12" x="882.5" y="90.5" />
<text class="label unused" x="888.5" y="103.5"></text>
<rect fill="none" height="24" stroke="#405C86" stroke-dasharray="3 1" stroke-dashoffset="1.5" stroke-width="1" width="12" x="870.5" y="90.5" />
<text class="label unused" x="876.5" y="103.5"></text>
<rect fill="none" height="24" stroke="#405C86" stroke-dasharray="3 1" stroke-dashoffset="1.5" stroke-width="1" width="12" x="858.5" y="90.5" />
<text class="label unused" x="864.5" y="103.5"></text>
<text class="register-name" x="80.5" y="102.5">Pn</text>
<text class="register-number" x="10" y="102.5">(2)</text>
<rect fill="#ECF1E0" height="24" width="192" x="2202.5" y="162.5" />
<line stroke="#405C86" stroke-dasharray="3 1" stroke-width="1" x1="2381.5" x2="2381.5" y1="163" y2="186.5" />
<line stroke="#405C86" stroke-dasharray="3 1" stroke-width="1" x1="2369.5" x2="2369.5" y1="163" y2="186.5" />
<line stroke="#405C86" stroke-dasharray="3 1" stroke-width="1" x1="2357.5" x2="2357.5" y1="163" y2="186.5" />
<line stroke="#405C86" stroke-dasharray="3 1" stroke-width="1" x1="2345.5" x2="2345.5" y1="163" y2="186.5" />
<line stroke="#405C86" stroke-dasharray="3 1" stroke-width="1" x1="2333.5" x2="2333.5" y1="163" y2="186.5" />
<line stroke="#405C86" stroke-dasharray="3 1" stroke-width="1" x1="2322.5" x2="2322.5" y1="163" y2="186.5" />
<line stroke="#405C86" stroke-dasharray="3 1" stroke-width="1" x1="2310.5" x2="2310.5" y1="163" y2="186.5" />
<line stroke="#405C86" stroke-dasharray="3 1" stroke-width="1" x1="2298.5" x2="2298.5" y1="163" y2="186.5" />
<line stroke="#405C86" stroke-dasharray="3 1" stroke-width="1" x1="2286.5" x2="2286.5" y1="163" y2="186.5" />
<line stroke="#405C86" stroke-dasharray="3 1" stroke-width="1" x1="2274.5" x2="2274.5" y1="163" y2="186.5" />
<line stroke="#405C86" stroke-dasharray="3 1" stroke-width="1" x1="2263.5" x2="2263.5" y1="163" y2="186.5" />
<line stroke="#405C86" stroke-dasharray="3 1" stroke-width="1" x1="2251.5" x2="2251.5" y1="163" y2="186.5" />
<line stroke="#405C86" stroke-dasharray="3 1" stroke-width="1" x1="2239.5" x2="2239.5" y1="163" y2="186.5" />
<line stroke="#405C86" stroke-dasharray="3 1" stroke-width="1" x1="2227.5" x2="2227.5" y1="163" y2="186.5" />
<line stroke="#405C86" stroke-dasharray="3 1" stroke-width="1" x1="2215.5" x2="2215.5" y1="163" y2="186.5" />
<rect fill="none" height="24" stroke="#405C86" stroke-width="3" width="192" x="2202.5" y="162.5" />
<rect fill="#DEE6F1" height="24" width="192" x="2010.5" y="162.5" />
<line stroke="#405C86" stroke-dasharray="3 1" stroke-width="1" x1="2189.5" x2="2189.5" y1="163" y2="186.5" />
<line stroke="#405C86" stroke-dasharray="3 1" stroke-width="1" x1="2177.5" x2="2177.5" y1="163" y2="186.5" />
<line stroke="#405C86" stroke-dasharray="3 1" stroke-width="1" x1="2165.5" x2="2165.5" y1="163" y2="186.5" />
<line stroke="#405C86" stroke-dasharray="3 1" stroke-width="1" x1="2153.5" x2="2153.5" y1="163" y2="186.5" />
<line stroke="#405C86" stroke-dasharray="3 1" stroke-width="1" x1="2141.5" x2="2141.5" y1="163" y2="186.5" />
<line stroke="#405C86" stroke-dasharray="3 1" stroke-width="1" x1="2130.5" x2="2130.5" y1="163" y2="186.5" />
<line stroke="#405C86" stroke-dasharray="3 1" stroke-width="1" x1="2118.5" x2="2118.5" y1="163" y2="186.5" />
<line stroke="#405C86" stroke-dasharray="3 1" stroke-width="1" x1="2106.5" x2="2106.5" y1="163" y2="186.5" />
<line stroke="#405C86" stroke-dasharray="3 1" stroke-width="1" x1="2094.5" x2="2094.5" y1="163" y2="186.5" />
<line stroke="#405C86" stroke-dasharray="3 1" stroke-width="1" x1="2082.5" x2="2082.5" y1="163" y2="186.5" />
<line stroke="#405C86" stroke-dasharray="3 1" stroke-width="1" x1="2071.5" x2="2071.5" y1="163" y2="186.5" />
<line stroke="#405C86" stroke-dasharray="3 1" stroke-width="1" x1="2059.5" x2="2059.5" y1="163" y2="186.5" />
<line stroke="#405C86" stroke-dasharray="3 1" stroke-width="1" x1="2047.5" x2="2047.5" y1="163" y2="186.5" />
<line stroke="#405C86" stroke-dasharray="3 1" stroke-width="1" x1="2035.5" x2="2035.5" y1="163" y2="186.5" />
<line stroke="#405C86" stroke-dasharray="3 1" stroke-width="1" x1="2023.5" x2="2023.5" y1="163" y2="186.5" />
<rect fill="none" height="24" stroke="#405C86" stroke-width="3" width="192" x="2010.5" y="162.5" />
<rect fill="#ECF1E0" height="24" width="192" x="1818.5" y="162.5" />
<line stroke="#405C86" stroke-dasharray="3 1" stroke-width="1" x1="1997.5" x2="1997.5" y1="163" y2="186.5" />
<line stroke="#405C86" stroke-dasharray="3 1" stroke-width="1" x1="1985.5" x2="1985.5" y1="163" y2="186.5" />
<line stroke="#405C86" stroke-dasharray="3 1" stroke-width="1" x1="1973.5" x2="1973.5" y1="163" y2="186.5" />
<line stroke="#405C86" stroke-dasharray="3 1" stroke-width="1" x1="1961.5" x2="1961.5" y1="163" y2="186.5" />
<line stroke="#405C86" stroke-dasharray="3 1" stroke-width="1" x1="1949.5" x2="1949.5" y1="163" y2="186.5" />
<line stroke="#405C86" stroke-dasharray="3 1" stroke-width="1" x1="1938.5" x2="1938.5" y1="163" y2="186.5" />
<line stroke="#405C86" stroke-dasharray="3 1" stroke-width="1" x1="1926.5" x2="1926.5" y1="163" y2="186.5" />
<line stroke="#405C86" stroke-dasharray="3 1" stroke-width="1" x1="1914.5" x2="1914.5" y1="163" y2="186.5" />
<line stroke="#405C86" stroke-dasharray="3 1" stroke-width="1" x1="1902.5" x2="1902.5" y1="163" y2="186.5" />
<line stroke="#405C86" stroke-dasharray="3 1" stroke-width="1" x1="1890.5" x2="1890.5" y1="163" y2="186.5" />
<line stroke="#405C86" stroke-dasharray="3 1" stroke-width="1" x1="1879.5" x2="1879.5" y1="163" y2="186.5" />
<line stroke="#405C86" stroke-dasharray="3 1" stroke-width="1" x1="1867.5" x2="1867.5" y1="163" y2="186.5" />
<line stroke="#405C86" stroke-dasharray="3 1" stroke-width="1" x1="1855.5" x2="1855.5" y1="163" y2="186.5" />
<line stroke="#405C86" stroke-dasharray="3 1" stroke-width="1" x1="1843.5" x2="1843.5" y1="163" y2="186.5" />
<line stroke="#405C86" stroke-dasharray="3 1" stroke-width="1" x1="1831.5" x2="1831.5" y1="163" y2="186.5" />
<rect fill="none" height="24" stroke="#405C86" stroke-width="3" width="192" x="1818.5" y="162.5" />
<rect fill="#ECF1E0" height="24" width="192" x="1626.5" y="162.5" />
<line stroke="#405C86" stroke-dasharray="3 1" stroke-width="1" x1="1805.5" x2="1805.5" y1="163" y2="186.5" />
<line stroke="#405C86" stroke-dasharray="3 1" stroke-width="1" x1="1793.5" x2="1793.5" y1="163" y2="186.5" />
<line stroke="#405C86" stroke-dasharray="3 1" stroke-width="1" x1="1781.5" x2="1781.5" y1="163" y2="186.5" />
<line stroke="#405C86" stroke-dasharray="3 1" stroke-width="1" x1="1769.5" x2="1769.5" y1="163" y2="186.5" />
<line stroke="#405C86" stroke-dasharray="3 1" stroke-width="1" x1="1757.5" x2="1757.5" y1="163" y2="186.5" />
<line stroke="#405C86" stroke-dasharray="3 1" stroke-width="1" x1="1746.5" x2="1746.5" y1="163" y2="186.5" />
<line stroke="#405C86" stroke-dasharray="3 1" stroke-width="1" x1="1734.5" x2="1734.5" y1="163" y2="186.5" />
<line stroke="#405C86" stroke-dasharray="3 1" stroke-width="1" x1="1722.5" x2="1722.5" y1="163" y2="186.5" />
<line stroke="#405C86" stroke-dasharray="3 1" stroke-width="1" x1="1710.5" x2="1710.5" y1="163" y2="186.5" />
<line stroke="#405C86" stroke-dasharray="3 1" stroke-width="1" x1="1698.5" x2="1698.5" y1="163" y2="186.5" />
<line stroke="#405C86" stroke-dasharray="3 1" stroke-width="1" x1="1687.5" x2="1687.5" y1="163" y2="186.5" />
<line stroke="#405C86" stroke-dasharray="3 1" stroke-width="1" x1="1675.5" x2="1675.5" y1="163" y2="186.5" />
<line stroke="#405C86" stroke-dasharray="3 1" stroke-width="1" x1="1663.5" x2="1663.5" y1="163" y2="186.5" />
<line stroke="#405C86" stroke-dasharray="3 1" stroke-width="1" x1="1651.5" x2="1651.5" y1="163" y2="186.5" />
<line stroke="#405C86" stroke-dasharray="3 1" stroke-width="1" x1="1639.5" x2="1639.5" y1="163" y2="186.5" />
<rect fill="none" height="24" stroke="#405C86" stroke-width="3" width="192" x="1626.5" y="162.5" />
<rect fill="#ECF1E0" height="24" width="192" x="1434.5" y="162.5" />
<line stroke="#405C86" stroke-dasharray="3 1" stroke-width="1" x1="1613.5" x2="1613.5" y1="163" y2="186.5" />
<line stroke="#405C86" stroke-dasharray="3 1" stroke-width="1" x1="1601.5" x2="1601.5" y1="163" y2="186.5" />
<line stroke="#405C86" stroke-dasharray="3 1" stroke-width="1" x1="1589.5" x2="1589.5" y1="163" y2="186.5" />
<line stroke="#405C86" stroke-dasharray="3 1" stroke-width="1" x1="1577.5" x2="1577.5" y1="163" y2="186.5" />
<line stroke="#405C86" stroke-dasharray="3 1" stroke-width="1" x1="1565.5" x2="1565.5" y1="163" y2="186.5" />
<line stroke="#405C86" stroke-dasharray="3 1" stroke-width="1" x1="1554.5" x2="1554.5" y1="163" y2="186.5" />
<line stroke="#405C86" stroke-dasharray="3 1" stroke-width="1" x1="1542.5" x2="1542.5" y1="163" y2="186.5" />
<line stroke="#405C86" stroke-dasharray="3 1" stroke-width="1" x1="1530.5" x2="1530.5" y1="163" y2="186.5" />
<line stroke="#405C86" stroke-dasharray="3 1" stroke-width="1" x1="1518.5" x2="1518.5" y1="163" y2="186.5" />
<line stroke="#405C86" stroke-dasharray="3 1" stroke-width="1" x1="1506.5" x2="1506.5" y1="163" y2="186.5" />
<line stroke="#405C86" stroke-dasharray="3 1" stroke-width="1" x1="1495.5" x2="1495.5" y1="163" y2="186.5" />
<line stroke="#405C86" stroke-dasharray="3 1" stroke-width="1" x1="1483.5" x2="1483.5" y1="163" y2="186.5" />
<line stroke="#405C86" stroke-dasharray="3 1" stroke-width="1" x1="1471.5" x2="1471.5" y1="163" y2="186.5" />
<line stroke="#405C86" stroke-dasharray="3 1" stroke-width="1" x1="1459.5" x2="1459.5" y1="163" y2="186.5" />
<line stroke="#405C86" stroke-dasharray="3 1" stroke-width="1" x1="1447.5" x2="1447.5" y1="163" y2="186.5" />
<rect fill="none" height="24" stroke="#405C86" stroke-width="3" width="192" x="1434.5" y="162.5" />
<rect fill="#ECF1E0" height="24" width="192" x="1242.5" y="162.5" />
<line stroke="#405C86" stroke-dasharray="3 1" stroke-width="1" x1="1421.5" x2="1421.5" y1="163" y2="186.5" />
<line stroke="#405C86" stroke-dasharray="3 1" stroke-width="1" x1="1409.5" x2="1409.5" y1="163" y2="186.5" />
<line stroke="#405C86" stroke-dasharray="3 1" stroke-width="1" x1="1397.5" x2="1397.5" y1="163" y2="186.5" />
<line stroke="#405C86" stroke-dasharray="3 1" stroke-width="1" x1="1385.5" x2="1385.5" y1="163" y2="186.5" />
<line stroke="#405C86" stroke-dasharray="3 1" stroke-width="1" x1="1373.5" x2="1373.5" y1="163" y2="186.5" />
<line stroke="#405C86" stroke-dasharray="3 1" stroke-width="1" x1="1362.5" x2="1362.5" y1="163" y2="186.5" />
<line stroke="#405C86" stroke-dasharray="3 1" stroke-width="1" x1="1350.5" x2="1350.5" y1="163" y2="186.5" />
<line stroke="#405C86" stroke-dasharray="3 1" stroke-width="1" x1="1338.5" x2="1338.5" y1="163" y2="186.5" />
<line stroke="#405C86" stroke-dasharray="3 1" stroke-width="1" x1="1326.5" x2="1326.5" y1="163" y2="186.5" />
<line stroke="#405C86" stroke-dasharray="3 1" stroke-width="1" x1="1314.5" x2="1314.5" y1="163" y2="186.5" />
<line stroke="#405C86" stroke-dasharray="3 1" stroke-width="1" x1="1303.5" x2="1303.5" y1="163" y2="186.5" />
<line stroke="#405C86" stroke-dasharray="3 1" stroke-width="1" x1="1291.5" x2="1291.5" y1="163" y2="186.5" />
<line stroke="#405C86" stroke-dasharray="3 1" stroke-width="1" x1="1279.5" x2="1279.5" y1="163" y2="186.5" />
<line stroke="#405C86" stroke-dasharray="3 1" stroke-width="1" x1="1267.5" x2="1267.5" y1="163" y2="186.5" />
<line stroke="#405C86" stroke-dasharray="3 1" stroke-width="1" x1="1255.5" x2="1255.5" y1="163" y2="186.5" />
<rect fill="none" height="24" stroke="#405C86" stroke-width="3" width="192" x="1242.5" y="162.5" />
<rect fill="#ECF1E0" height="24" width="192" x="1050.5" y="162.5" />
<line stroke="#405C86" stroke-dasharray="3 1" stroke-width="1" x1="1229.5" x2="1229.5" y1="163" y2="186.5" />
<line stroke="#405C86" stroke-dasharray="3 1" stroke-width="1" x1="1217.5" x2="1217.5" y1="163" y2="186.5" />
<line stroke="#405C86" stroke-dasharray="3 1" stroke-width="1" x1="1205.5" x2="1205.5" y1="163" y2="186.5" />
<line stroke="#405C86" stroke-dasharray="3 1" stroke-width="1" x1="1193.5" x2="1193.5" y1="163" y2="186.5" />
<line stroke="#405C86" stroke-dasharray="3 1" stroke-width="1" x1="1181.5" x2="1181.5" y1="163" y2="186.5" />
<line stroke="#405C86" stroke-dasharray="3 1" stroke-width="1" x1="1170.5" x2="1170.5" y1="163" y2="186.5" />
<line stroke="#405C86" stroke-dasharray="3 1" stroke-width="1" x1="1158.5" x2="1158.5" y1="163" y2="186.5" />
<line stroke="#405C86" stroke-dasharray="3 1" stroke-width="1" x1="1146.5" x2="1146.5" y1="163" y2="186.5" />
<line stroke="#405C86" stroke-dasharray="3 1" stroke-width="1" x1="1134.5" x2="1134.5" y1="163" y2="186.5" />
<line stroke="#405C86" stroke-dasharray="3 1" stroke-width="1" x1="1122.5" x2="1122.5" y1="163" y2="186.5" />
<line stroke="#405C86" stroke-dasharray="3 1" stroke-width="1" x1="1111.5" x2="1111.5" y1="163" y2="186.5" />
<line stroke="#405C86" stroke-dasharray="3 1" stroke-width="1" x1="1099.5" x2="1099.5" y1="163" y2="186.5" />
<line stroke="#405C86" stroke-dasharray="3 1" stroke-width="1" x1="1087.5" x2="1087.5" y1="163" y2="186.5" />
<line stroke="#405C86" stroke-dasharray="3 1" stroke-width="1" x1="1075.5" x2="1075.5" y1="163" y2="186.5" />
<line stroke="#405C86" stroke-dasharray="3 1" stroke-width="1" x1="1063.5" x2="1063.5" y1="163" y2="186.5" />
<rect fill="none" height="24" stroke="#405C86" stroke-width="3" width="192" x="1050.5" y="162.5" />
<rect fill="#ECF1E0" height="24" width="192" x="858.5" y="162.5" />
<line stroke="#405C86" stroke-dasharray="3 1" stroke-width="1" x1="1037.5" x2="1037.5" y1="163" y2="186.5" />
<line stroke="#405C86" stroke-dasharray="3 1" stroke-width="1" x1="1025.5" x2="1025.5" y1="163" y2="186.5" />
<line stroke="#405C86" stroke-dasharray="3 1" stroke-width="1" x1="1013.5" x2="1013.5" y1="163" y2="186.5" />
<line stroke="#405C86" stroke-dasharray="3 1" stroke-width="1" x1="1001.5" x2="1001.5" y1="163" y2="186.5" />
<line stroke="#405C86" stroke-dasharray="3 1" stroke-width="1" x1="989.5" x2="989.5" y1="163" y2="186.5" />
<line stroke="#405C86" stroke-dasharray="3 1" stroke-width="1" x1="978.5" x2="978.5" y1="163" y2="186.5" />
<line stroke="#405C86" stroke-dasharray="3 1" stroke-width="1" x1="966.5" x2="966.5" y1="163" y2="186.5" />
<line stroke="#405C86" stroke-dasharray="3 1" stroke-width="1" x1="954.5" x2="954.5" y1="163" y2="186.5" />
<line stroke="#405C86" stroke-dasharray="3 1" stroke-width="1" x1="942.5" x2="942.5" y1="163" y2="186.5" />
<line stroke="#405C86" stroke-dasharray="3 1" stroke-width="1" x1="930.5" x2="930.5" y1="163" y2="186.5" />
<line stroke="#405C86" stroke-dasharray="3 1" stroke-width="1" x1="919.5" x2="919.5" y1="163" y2="186.5" />
<line stroke="#405C86" stroke-dasharray="3 1" stroke-width="1" x1="907.5" x2="907.5" y1="163" y2="186.5" />
<line stroke="#405C86" stroke-dasharray="3 1" stroke-width="1" x1="895.5" x2="895.5" y1="163" y2="186.5" />
<line stroke="#405C86" stroke-dasharray="3 1" stroke-width="1" x1="883.5" x2="883.5" y1="163" y2="186.5" />
<line stroke="#405C86" stroke-dasharray="3 1" stroke-width="1" x1="871.5" x2="871.5" y1="163" y2="186.5" />
<rect fill="none" height="24" stroke="#405C86" stroke-width="3" width="192" x="858.5" y="162.5" />
<rect fill="#ECF1E0" height="24" width="48" x="3114.5" y="234.5" />
<rect fill="none" height="24" stroke="#405C86" stroke-width="3" width="48" x="3114.5" y="234.5" />
<rect fill="#DEE6F1" height="24" width="48" x="3066.5" y="234.5" />
<rect fill="none" height="24" stroke="#405C86" stroke-width="3" width="48" x="3066.5" y="234.5" />
<rect fill="#ECF1E0" height="24" width="48" x="3018.5" y="234.5" />
<rect fill="none" height="24" stroke="#405C86" stroke-width="3" width="48" x="3018.5" y="234.5" />
<rect fill="#ECF1E0" height="24" width="48" x="2970.5" y="234.5" />
<rect fill="none" height="24" stroke="#405C86" stroke-width="3" width="48" x="2970.5" y="234.5" />
<rect fill="#ECF1E0" height="24" width="48" x="2922.5" y="234.5" />
<rect fill="none" height="24" stroke="#405C86" stroke-width="3" width="48" x="2922.5" y="234.5" />
<rect fill="#ECF1E0" height="24" width="48" x="2874.5" y="234.5" />
<rect fill="none" height="24" stroke="#405C86" stroke-width="3" width="48" x="2874.5" y="234.5" />
<rect fill="#ECF1E0" height="24" width="48" x="2826.5" y="234.5" />
<rect fill="none" height="24" stroke="#405C86" stroke-width="3" width="48" x="2826.5" y="234.5" />
<rect fill="#ECF1E0" height="24" width="48" x="2778.5" y="234.5" />
<rect fill="none" height="24" stroke="#405C86" stroke-width="3" width="48" x="2778.5" y="234.5" />
<rect fill="#ECF1E0" height="24" width="2688" x="90.5" y="234.5" />
<rect fill="none" height="24" stroke="#405C86" stroke-width="3" width="2688" x="90.5" y="234.5" />
<text class="register-name" x="80.5" y="246.5">Zd</text>
<text class="register-number" x="10" y="246.5">(3)</text>
<line marker-end="url(#arrowhead)" stroke="none" x1="2388.5" x2="2195.84375" y1="115.5" y2="161" />
<line marker-end="url(#arrowhead)" stroke="none" x1="2292.5" x2="2183.28125" y1="115.5" y2="161" />
<line marker-end="url(#arrowhead)" stroke="none" x1="2196.5" x2="2171.46875" y1="115.5" y2="161" />
<line marker-end="url(#arrowhead)" stroke="none" x1="2100.5" x2="2159.65625" y1="115.5" y2="161" />
<line marker-end="url(#arrowhead)" stroke="none" x1="2004.5" x2="2147.84375" y1="115.5" y2="161" />
<line marker-end="url(#arrowhead)" stroke="none" x1="1908.5" x2="2136.03125" y1="115.5" y2="161" />
<line marker-end="url(#arrowhead)" stroke="none" x1="1812.5" x2="2124.21875" y1="115.5" y2="161" />
<line marker-end="url(#arrowhead)" stroke="none" x1="1716.5" x2="2112.40625" y1="115.5" y2="161" />
<line marker-end="url(#arrowhead)" stroke="none" x1="1620.5" x2="2100.59375" y1="115.5" y2="161" />
<line marker-end="url(#arrowhead)" stroke="none" x1="1524.5" x2="2088.78125" y1="115.5" y2="161" />
<line marker-end="url(#arrowhead)" stroke="none" x1="1428.5" x2="2076.96875" y1="115.5" y2="161" />
<line marker-end="url(#arrowhead)" stroke="none" x1="1332.5" x2="2065.15625" y1="115.5" y2="161" />
<line marker-end="url(#arrowhead)" stroke="none" x1="1236.5" x2="2053.34375" y1="115.5" y2="161" />
<line marker-end="url(#arrowhead)" stroke="none" x1="1140.5" x2="2041.53125" y1="115.5" y2="161" />
<line marker-end="url(#arrowhead)" stroke="none" x1="1044.5" x2="2029.71875" y1="115.5" y2="161" />
<line marker-end="url(#arrowhead)" stroke="none" x1="948.5" x2="2017.15625" y1="115.5" y2="161" />
</svg>