<svg xmlns="http://www.w3.org/2000/svg" viewBox="0 0 1638 267">
<style>
.label { font: 14px Helvetica; dominant-baseline: middle; text-anchor: middle; }
.title-left { font: 12px Helvetica; dominant-baseline: middle; }
.title-right { font: 12px Helvetica; dominant-baseline: middle; text-anchor: end; }
.title-intrinsic { font: 12px Helvetica; dominant-baseline: middle; text-anchor: middle; fill: #6778ED; }
.title { font: 12px Helvetica; dominant-baseline: middle; text-anchor: middle; }
.title-unused { font: 12px Helvetica; dominant-baseline: middle; text-anchor: middle; fill: #AAA; }
.register-name { font: 14px Helvetica; dominant-baseline: middle; text-anchor: end; font-style: italic; }
.memory-name { font: 14px Helvetica; dominant-baseline: middle; text-anchor: end; }
.register-number { font: 14px Helvetica; dominant-baseline: middle; text-anchor: start; }
.intrinsic-name { font: 14px Helvetica; dominant-baseline: middle; text-anchor: end; fill: #6778ED; }
.intrinsic-color { fill: #6778ED; }
.small-label { font: 12px Helvetica; dominant-baseline: middle; text-anchor: middle; }
.label-10px { font: 10px Helvetica; dominant-baseline: middle; text-anchor: middle; }
.smaller-label { font: 9px Helvetica; dominant-baseline: middle; text-anchor: middle; }
.label-6px { font: 6px Helvetica; dominant-baseline: middle; text-anchor: middle; }
.label-7px { font: 7px Helvetica; dominant-baseline: middle; text-anchor: middle; }
.unused { fill: #AAA; }
.dim { fill: #888; }
</style>
<defs>
<marker id="arrowhead" markerWidth="9.5" markerHeight="21.0" refX="7.75" refY="5.25" orient="auto">
<polyline points="0.5 0.5, 7.5 5.25, 0.5 10.0" stroke="#567DB6" stroke-width="1" fill="none"/>
</marker>
</defs>
<line stroke="#567DB6" stroke-width="1" x1="1236.5" x2="851.796875" y1="115.5" y2="161" />
<line stroke="#567DB6" stroke-width="1" x1="1212.5" x2="839.140625" y1="115.5" y2="161" />
<line stroke="#567DB6" stroke-width="1" x1="1188.5" x2="827.234375" y1="115.5" y2="161" />
<line stroke="#567DB6" stroke-width="1" x1="1164.5" x2="815.328125" y1="115.5" y2="161" />
<line stroke="#567DB6" stroke-width="1" x1="1140.5" x2="803.421875" y1="115.5" y2="161" />
<line stroke="#567DB6" stroke-width="1" x1="1116.5" x2="791.515625" y1="115.5" y2="161" />
<line stroke="#567DB6" stroke-width="1" x1="1092.5" x2="779.609375" y1="115.5" y2="161" />
<line stroke="#567DB6" stroke-width="1" x1="1068.5" x2="767.703125" y1="115.5" y2="161" />
<line stroke="#567DB6" stroke-width="1" x1="1044.5" x2="755.796875" y1="115.5" y2="161" />
<line stroke="#567DB6" stroke-width="1" x1="1020.5" x2="743.890625" y1="115.5" y2="161" />
<line stroke="#567DB6" stroke-width="1" x1="996.5" x2="731.984375" y1="115.5" y2="161" />
<line stroke="#567DB6" stroke-width="1" x1="972.5" x2="720.078125" y1="115.5" y2="161" />
<line stroke="#567DB6" stroke-width="1" x1="948.5" x2="708.171875" y1="115.5" y2="161" />
<line stroke="#567DB6" stroke-width="1" x1="924.5" x2="696.265625" y1="115.5" y2="161" />
<line stroke="#567DB6" stroke-width="1" x1="900.5" x2="684.359375" y1="115.5" y2="161" />
<line stroke="#567DB6" stroke-width="1" x1="876.5" x2="672.453125" y1="115.5" y2="161" />
<line stroke="#567DB6" stroke-width="1" x1="852.5" x2="660.546875" y1="115.5" y2="161" />
<line stroke="#567DB6" stroke-width="1" x1="828.5" x2="648.640625" y1="115.5" y2="161" />
<line stroke="#567DB6" stroke-width="1" x1="804.5" x2="636.734375" y1="115.5" y2="161" />
<line stroke="#567DB6" stroke-width="1" x1="780.5" x2="624.828125" y1="115.5" y2="161" />
<line stroke="#567DB6" stroke-width="1" x1="756.5" x2="612.921875" y1="115.5" y2="161" />
<line stroke="#567DB6" stroke-width="1" x1="732.5" x2="601.015625" y1="115.5" y2="161" />
<line stroke="#567DB6" stroke-width="1" x1="708.5" x2="589.109375" y1="115.5" y2="161" />
<line stroke="#567DB6" stroke-width="1" x1="684.5" x2="577.203125" y1="115.5" y2="161" />
<line stroke="#567DB6" stroke-width="1" x1="660.5" x2="565.296875" y1="115.5" y2="161" />
<line stroke="#567DB6" stroke-width="1" x1="636.5" x2="553.390625" y1="115.5" y2="161" />
<line stroke="#567DB6" stroke-width="1" x1="612.5" x2="541.484375" y1="115.5" y2="161" />
<line stroke="#567DB6" stroke-width="1" x1="588.5" x2="529.578125" y1="115.5" y2="161" />
<line stroke="#567DB6" stroke-width="1" x1="564.5" x2="517.671875" y1="115.5" y2="161" />
<line stroke="#567DB6" stroke-width="1" x1="540.5" x2="505.765625" y1="115.5" y2="161" />
<line stroke="#567DB6" stroke-width="1" x1="516.5" x2="493.859375" y1="115.5" y2="161" />
<line stroke="#567DB6" stroke-width="1" x1="492.5" x2="481.203125" y1="115.5" y2="161" />
<line stroke="#567DB6" stroke-dasharray="3 3" stroke-width="0.75" x1="474.5" x2="1434.5" y1="187.5" y2="233.5" />
<line stroke="#567DB6" stroke-dasharray="3 3" stroke-width="0.75" x1="1242.5" x2="1626.5" y1="187.5" y2="233.5" />
<line stroke="#567DB6" stroke-dasharray="3 3" stroke-width="0.75" x1="1434.5" x2="474.5" y1="43.5" y2="161.5" />
<line stroke="#567DB6" stroke-dasharray="3 3" stroke-width="0.75" x1="1626.5" x2="1242.5" y1="43.5" y2="161.5" />
<text class="title-left" x="90.5" y="9.5">upper</text>
<text class="title-right" x="1626.5" y="9.5">lower</text>
<text class="title-left" x="90.5" y="52.5">if imm ≠ 0, preserve all other bits from Zd</text>
<text class="title-left" x="90.5" y="65.5">if imm = 0, fill with zero</text>
<text class="title-unused" x="1050.5" y="152.5">0</text>
<text class="title-intrinsic" x="666.5" y="196.5">imm=1</text>
<rect fill="#ECF1E0" height="24" width="96" x="1530.5" y="18.5" />
<rect fill="none" height="24" stroke="#405C86" stroke-width="3" width="96" x="1530.5" y="18.5" />
<rect fill="#ECF1E0" height="24" width="96" x="1434.5" y="18.5" />
<rect fill="none" height="24" stroke="#405C86" stroke-width="3" width="96" x="1434.5" y="18.5" />
<rect fill="#ECF1E0" height="24" width="1344" x="90.5" y="18.5" />
<rect fill="none" height="24" stroke="#405C86" stroke-width="3" width="1344" x="90.5" y="18.5" />
<text class="register-name" x="80.5" y="30.5">Zd or 0</text>
<text class="register-number" x="10" y="30.5">(1)</text>
<rect fill="#DEE6F1" height="24" width="12" x="1230.5" y="90.5" />
<rect fill="none" height="24" stroke="#405C86" stroke-width="3" width="12" x="1230.5" y="90.5" />
<rect fill="none" height="24" stroke="#405C86" stroke-dasharray="3 1" stroke-dashoffset="1.5" stroke-width="1" width="12" x="1218.5" y="90.5" />
<text class="label unused" x="1224.5" y="103.5"></text>
<rect fill="#DEE6F1" height="24" width="12" x="1206.5" y="90.5" />
<rect fill="none" height="24" stroke="#405C86" stroke-width="3" width="12" x="1206.5" y="90.5" />
<rect fill="none" height="24" stroke="#405C86" stroke-dasharray="3 1" stroke-dashoffset="1.5" stroke-width="1" width="12" x="1194.5" y="90.5" />
<text class="label unused" x="1200.5" y="103.5"></text>
<rect fill="#DEE6F1" height="24" width="12" x="1182.5" y="90.5" />
<rect fill="none" height="24" stroke="#405C86" stroke-width="3" width="12" x="1182.5" y="90.5" />
<rect fill="none" height="24" stroke="#405C86" stroke-dasharray="3 1" stroke-dashoffset="1.5" stroke-width="1" width="12" x="1170.5" y="90.5" />
<text class="label unused" x="1176.5" y="103.5"></text>
<rect fill="#DEE6F1" height="24" width="12" x="1158.5" y="90.5" />
<rect fill="none" height="24" stroke="#405C86" stroke-width="3" width="12" x="1158.5" y="90.5" />
<rect fill="none" height="24" stroke="#405C86" stroke-dasharray="3 1" stroke-dashoffset="1.5" stroke-width="1" width="12" x="1146.5" y="90.5" />
<text class="label unused" x="1152.5" y="103.5"></text>
<rect fill="#DEE6F1" height="24" width="12" x="1134.5" y="90.5" />
<rect fill="none" height="24" stroke="#405C86" stroke-width="3" width="12" x="1134.5" y="90.5" />
<rect fill="none" height="24" stroke="#405C86" stroke-dasharray="3 1" stroke-dashoffset="1.5" stroke-width="1" width="12" x="1122.5" y="90.5" />
<text class="label unused" x="1128.5" y="103.5"></text>
<rect fill="#DEE6F1" height="24" width="12" x="1110.5" y="90.5" />
<rect fill="none" height="24" stroke="#405C86" stroke-width="3" width="12" x="1110.5" y="90.5" />
<rect fill="none" height="24" stroke="#405C86" stroke-dasharray="3 1" stroke-dashoffset="1.5" stroke-width="1" width="12" x="1098.5" y="90.5" />
<text class="label unused" x="1104.5" y="103.5"></text>
<rect fill="#DEE6F1" height="24" width="12" x="1086.5" y="90.5" />
<rect fill="none" height="24" stroke="#405C86" stroke-width="3" width="12" x="1086.5" y="90.5" />
<rect fill="none" height="24" stroke="#405C86" stroke-dasharray="3 1" stroke-dashoffset="1.5" stroke-width="1" width="12" x="1074.5" y="90.5" />
<text class="label unused" x="1080.5" y="103.5"></text>
<rect fill="#DEE6F1" height="24" width="12" x="1062.5" y="90.5" />
<rect fill="none" height="24" stroke="#405C86" stroke-width="3" width="12" x="1062.5" y="90.5" />
<rect fill="none" height="24" stroke="#405C86" stroke-dasharray="3 1" stroke-dashoffset="1.5" stroke-width="1" width="12" x="1050.5" y="90.5" />
<text class="label unused" x="1056.5" y="103.5"></text>
<rect fill="#DEE6F1" height="24" width="12" x="1038.5" y="90.5" />
<rect fill="none" height="24" stroke="#405C86" stroke-width="3" width="12" x="1038.5" y="90.5" />
<rect fill="none" height="24" stroke="#405C86" stroke-dasharray="3 1" stroke-dashoffset="1.5" stroke-width="1" width="12" x="1026.5" y="90.5" />
<text class="label unused" x="1032.5" y="103.5"></text>
<rect fill="#DEE6F1" height="24" width="12" x="1014.5" y="90.5" />
<rect fill="none" height="24" stroke="#405C86" stroke-width="3" width="12" x="1014.5" y="90.5" />
<rect fill="none" height="24" stroke="#405C86" stroke-dasharray="3 1" stroke-dashoffset="1.5" stroke-width="1" width="12" x="1002.5" y="90.5" />
<text class="label unused" x="1008.5" y="103.5"></text>
<rect fill="#DEE6F1" height="24" width="12" x="990.5" y="90.5" />
<rect fill="none" height="24" stroke="#405C86" stroke-width="3" width="12" x="990.5" y="90.5" />
<rect fill="none" height="24" stroke="#405C86" stroke-dasharray="3 1" stroke-dashoffset="1.5" stroke-width="1" width="12" x="978.5" y="90.5" />
<text class="label unused" x="984.5" y="103.5"></text>
<rect fill="#DEE6F1" height="24" width="12" x="966.5" y="90.5" />
<rect fill="none" height="24" stroke="#405C86" stroke-width="3" width="12" x="966.5" y="90.5" />
<rect fill="none" height="24" stroke="#405C86" stroke-dasharray="3 1" stroke-dashoffset="1.5" stroke-width="1" width="12" x="954.5" y="90.5" />
<text class="label unused" x="960.5" y="103.5"></text>
<rect fill="#DEE6F1" height="24" width="12" x="942.5" y="90.5" />
<rect fill="none" height="24" stroke="#405C86" stroke-width="3" width="12" x="942.5" y="90.5" />
<rect fill="none" height="24" stroke="#405C86" stroke-dasharray="3 1" stroke-dashoffset="1.5" stroke-width="1" width="12" x="930.5" y="90.5" />
<text class="label unused" x="936.5" y="103.5"></text>
<rect fill="#DEE6F1" height="24" width="12" x="918.5" y="90.5" />
<rect fill="none" height="24" stroke="#405C86" stroke-width="3" width="12" x="918.5" y="90.5" />
<rect fill="none" height="24" stroke="#405C86" stroke-dasharray="3 1" stroke-dashoffset="1.5" stroke-width="1" width="12" x="906.5" y="90.5" />
<text class="label unused" x="912.5" y="103.5"></text>
<rect fill="#DEE6F1" height="24" width="12" x="894.5" y="90.5" />
<rect fill="none" height="24" stroke="#405C86" stroke-width="3" width="12" x="894.5" y="90.5" />
<rect fill="none" height="24" stroke="#405C86" stroke-dasharray="3 1" stroke-dashoffset="1.5" stroke-width="1" width="12" x="882.5" y="90.5" />
<text class="label unused" x="888.5" y="103.5"></text>
<rect fill="#DEE6F1" height="24" width="12" x="870.5" y="90.5" />
<rect fill="none" height="24" stroke="#405C86" stroke-width="3" width="12" x="870.5" y="90.5" />
<rect fill="none" height="24" stroke="#405C86" stroke-dasharray="3 1" stroke-dashoffset="1.5" stroke-width="1" width="12" x="858.5" y="90.5" />
<text class="label unused" x="864.5" y="103.5"></text>
<rect fill="#DEE6F1" height="24" width="12" x="846.5" y="90.5" />
<rect fill="none" height="24" stroke="#405C86" stroke-width="3" width="12" x="846.5" y="90.5" />
<rect fill="none" height="24" stroke="#405C86" stroke-dasharray="3 1" stroke-dashoffset="1.5" stroke-width="1" width="12" x="834.5" y="90.5" />
<text class="label unused" x="840.5" y="103.5"></text>
<rect fill="#DEE6F1" height="24" width="12" x="822.5" y="90.5" />
<rect fill="none" height="24" stroke="#405C86" stroke-width="3" width="12" x="822.5" y="90.5" />
<rect fill="none" height="24" stroke="#405C86" stroke-dasharray="3 1" stroke-dashoffset="1.5" stroke-width="1" width="12" x="810.5" y="90.5" />
<text class="label unused" x="816.5" y="103.5"></text>
<rect fill="#DEE6F1" height="24" width="12" x="798.5" y="90.5" />
<rect fill="none" height="24" stroke="#405C86" stroke-width="3" width="12" x="798.5" y="90.5" />
<rect fill="none" height="24" stroke="#405C86" stroke-dasharray="3 1" stroke-dashoffset="1.5" stroke-width="1" width="12" x="786.5" y="90.5" />
<text class="label unused" x="792.5" y="103.5"></text>
<rect fill="#DEE6F1" height="24" width="12" x="774.5" y="90.5" />
<rect fill="none" height="24" stroke="#405C86" stroke-width="3" width="12" x="774.5" y="90.5" />
<rect fill="none" height="24" stroke="#405C86" stroke-dasharray="3 1" stroke-dashoffset="1.5" stroke-width="1" width="12" x="762.5" y="90.5" />
<text class="label unused" x="768.5" y="103.5"></text>
<rect fill="#DEE6F1" height="24" width="12" x="750.5" y="90.5" />
<rect fill="none" height="24" stroke="#405C86" stroke-width="3" width="12" x="750.5" y="90.5" />
<rect fill="none" height="24" stroke="#405C86" stroke-dasharray="3 1" stroke-dashoffset="1.5" stroke-width="1" width="12" x="738.5" y="90.5" />
<text class="label unused" x="744.5" y="103.5"></text>
<rect fill="#DEE6F1" height="24" width="12" x="726.5" y="90.5" />
<rect fill="none" height="24" stroke="#405C86" stroke-width="3" width="12" x="726.5" y="90.5" />
<rect fill="none" height="24" stroke="#405C86" stroke-dasharray="3 1" stroke-dashoffset="1.5" stroke-width="1" width="12" x="714.5" y="90.5" />
<text class="label unused" x="720.5" y="103.5"></text>
<rect fill="#DEE6F1" height="24" width="12" x="702.5" y="90.5" />
<rect fill="none" height="24" stroke="#405C86" stroke-width="3" width="12" x="702.5" y="90.5" />
<rect fill="none" height="24" stroke="#405C86" stroke-dasharray="3 1" stroke-dashoffset="1.5" stroke-width="1" width="12" x="690.5" y="90.5" />
<text class="label unused" x="696.5" y="103.5"></text>
<rect fill="#DEE6F1" height="24" width="12" x="678.5" y="90.5" />
<rect fill="none" height="24" stroke="#405C86" stroke-width="3" width="12" x="678.5" y="90.5" />
<rect fill="none" height="24" stroke="#405C86" stroke-dasharray="3 1" stroke-dashoffset="1.5" stroke-width="1" width="12" x="666.5" y="90.5" />
<text class="label unused" x="672.5" y="103.5"></text>
<rect fill="#DEE6F1" height="24" width="12" x="654.5" y="90.5" />
<rect fill="none" height="24" stroke="#405C86" stroke-width="3" width="12" x="654.5" y="90.5" />
<rect fill="none" height="24" stroke="#405C86" stroke-dasharray="3 1" stroke-dashoffset="1.5" stroke-width="1" width="12" x="642.5" y="90.5" />
<text class="label unused" x="648.5" y="103.5"></text>
<rect fill="#DEE6F1" height="24" width="12" x="630.5" y="90.5" />
<rect fill="none" height="24" stroke="#405C86" stroke-width="3" width="12" x="630.5" y="90.5" />
<rect fill="none" height="24" stroke="#405C86" stroke-dasharray="3 1" stroke-dashoffset="1.5" stroke-width="1" width="12" x="618.5" y="90.5" />
<text class="label unused" x="624.5" y="103.5"></text>
<rect fill="#DEE6F1" height="24" width="12" x="606.5" y="90.5" />
<rect fill="none" height="24" stroke="#405C86" stroke-width="3" width="12" x="606.5" y="90.5" />
<rect fill="none" height="24" stroke="#405C86" stroke-dasharray="3 1" stroke-dashoffset="1.5" stroke-width="1" width="12" x="594.5" y="90.5" />
<text class="label unused" x="600.5" y="103.5"></text>
<rect fill="#DEE6F1" height="24" width="12" x="582.5" y="90.5" />
<rect fill="none" height="24" stroke="#405C86" stroke-width="3" width="12" x="582.5" y="90.5" />
<rect fill="none" height="24" stroke="#405C86" stroke-dasharray="3 1" stroke-dashoffset="1.5" stroke-width="1" width="12" x="570.5" y="90.5" />
<text class="label unused" x="576.5" y="103.5"></text>
<rect fill="#DEE6F1" height="24" width="12" x="558.5" y="90.5" />
<rect fill="none" height="24" stroke="#405C86" stroke-width="3" width="12" x="558.5" y="90.5" />
<rect fill="none" height="24" stroke="#405C86" stroke-dasharray="3 1" stroke-dashoffset="1.5" stroke-width="1" width="12" x="546.5" y="90.5" />
<text class="label unused" x="552.5" y="103.5"></text>
<rect fill="#DEE6F1" height="24" width="12" x="534.5" y="90.5" />
<rect fill="none" height="24" stroke="#405C86" stroke-width="3" width="12" x="534.5" y="90.5" />
<rect fill="none" height="24" stroke="#405C86" stroke-dasharray="3 1" stroke-dashoffset="1.5" stroke-width="1" width="12" x="522.5" y="90.5" />
<text class="label unused" x="528.5" y="103.5"></text>
<rect fill="#DEE6F1" height="24" width="12" x="510.5" y="90.5" />
<rect fill="none" height="24" stroke="#405C86" stroke-width="3" width="12" x="510.5" y="90.5" />
<rect fill="none" height="24" stroke="#405C86" stroke-dasharray="3 1" stroke-dashoffset="1.5" stroke-width="1" width="12" x="498.5" y="90.5" />
<text class="label unused" x="504.5" y="103.5"></text>
<rect fill="#DEE6F1" height="24" width="12" x="486.5" y="90.5" />
<rect fill="none" height="24" stroke="#405C86" stroke-width="3" width="12" x="486.5" y="90.5" />
<rect fill="none" height="24" stroke="#405C86" stroke-dasharray="3 1" stroke-dashoffset="1.5" stroke-width="1" width="12" x="474.5" y="90.5" />
<text class="label unused" x="480.5" y="103.5"></text>
<text class="register-name" x="80.5" y="102.5">Pn</text>
<text class="register-number" x="10" y="102.5">(2)</text>
<rect fill="#ECF1E0" height="24" width="384" x="858.5" y="162.5" />
<line stroke="#405C86" stroke-dasharray="3 1" stroke-width="1" x1="1229.5" x2="1229.5" y1="163" y2="186.5" />
<line stroke="#405C86" stroke-dasharray="3 1" stroke-width="1" x1="1217.5" x2="1217.5" y1="163" y2="186.5" />
<line stroke="#405C86" stroke-dasharray="3 1" stroke-width="1" x1="1205.5" x2="1205.5" y1="163" y2="186.5" />
<line stroke="#405C86" stroke-dasharray="3 1" stroke-width="1" x1="1193.5" x2="1193.5" y1="163" y2="186.5" />
<line stroke="#405C86" stroke-dasharray="3 1" stroke-width="1" x1="1181.5" x2="1181.5" y1="163" y2="186.5" />
<line stroke="#405C86" stroke-dasharray="3 1" stroke-width="1" x1="1169.5" x2="1169.5" y1="163" y2="186.5" />
<line stroke="#405C86" stroke-dasharray="3 1" stroke-width="1" x1="1157.5" x2="1157.5" y1="163" y2="186.5" />
<line stroke="#405C86" stroke-dasharray="3 1" stroke-width="1" x1="1145.5" x2="1145.5" y1="163" y2="186.5" />
<line stroke="#405C86" stroke-dasharray="3 1" stroke-width="1" x1="1133.5" x2="1133.5" y1="163" y2="186.5" />
<line stroke="#405C86" stroke-dasharray="3 1" stroke-width="1" x1="1121.5" x2="1121.5" y1="163" y2="186.5" />
<line stroke="#405C86" stroke-dasharray="3 1" stroke-width="1" x1="1110.5" x2="1110.5" y1="163" y2="186.5" />
<line stroke="#405C86" stroke-dasharray="3 1" stroke-width="1" x1="1098.5" x2="1098.5" y1="163" y2="186.5" />
<line stroke="#405C86" stroke-dasharray="3 1" stroke-width="1" x1="1086.5" x2="1086.5" y1="163" y2="186.5" />
<line stroke="#405C86" stroke-dasharray="3 1" stroke-width="1" x1="1074.5" x2="1074.5" y1="163" y2="186.5" />
<line stroke="#405C86" stroke-dasharray="3 1" stroke-width="1" x1="1062.5" x2="1062.5" y1="163" y2="186.5" />
<line stroke="#405C86" stroke-dasharray="3 1" stroke-width="1" x1="1050.5" x2="1050.5" y1="163" y2="186.5" />
<line stroke="#405C86" stroke-dasharray="3 1" stroke-width="1" x1="1038.5" x2="1038.5" y1="163" y2="186.5" />
<line stroke="#405C86" stroke-dasharray="3 1" stroke-width="1" x1="1026.5" x2="1026.5" y1="163" y2="186.5" />
<line stroke="#405C86" stroke-dasharray="3 1" stroke-width="1" x1="1014.5" x2="1014.5" y1="163" y2="186.5" />
<line stroke="#405C86" stroke-dasharray="3 1" stroke-width="1" x1="1002.5" x2="1002.5" y1="163" y2="186.5" />
<line stroke="#405C86" stroke-dasharray="3 1" stroke-width="1" x1="990.5" x2="990.5" y1="163" y2="186.5" />
<line stroke="#405C86" stroke-dasharray="3 1" stroke-width="1" x1="979.5" x2="979.5" y1="163" y2="186.5" />
<line stroke="#405C86" stroke-dasharray="3 1" stroke-width="1" x1="967.5" x2="967.5" y1="163" y2="186.5" />
<line stroke="#405C86" stroke-dasharray="3 1" stroke-width="1" x1="955.5" x2="955.5" y1="163" y2="186.5" />
<line stroke="#405C86" stroke-dasharray="3 1" stroke-width="1" x1="943.5" x2="943.5" y1="163" y2="186.5" />
<line stroke="#405C86" stroke-dasharray="3 1" stroke-width="1" x1="931.5" x2="931.5" y1="163" y2="186.5" />
<line stroke="#405C86" stroke-dasharray="3 1" stroke-width="1" x1="919.5" x2="919.5" y1="163" y2="186.5" />
<line stroke="#405C86" stroke-dasharray="3 1" stroke-width="1" x1="907.5" x2="907.5" y1="163" y2="186.5" />
<line stroke="#405C86" stroke-dasharray="3 1" stroke-width="1" x1="895.5" x2="895.5" y1="163" y2="186.5" />
<line stroke="#405C86" stroke-dasharray="3 1" stroke-width="1" x1="883.5" x2="883.5" y1="163" y2="186.5" />
<line stroke="#405C86" stroke-dasharray="3 1" stroke-width="1" x1="871.5" x2="871.5" y1="163" y2="186.5" />
<rect fill="none" height="24" stroke="#405C86" stroke-width="3" width="384" x="858.5" y="162.5" />
<rect fill="#DEE6F1" height="24" width="384" x="474.5" y="162.5" />
<line stroke="#405C86" stroke-dasharray="3 1" stroke-width="1" x1="845.5" x2="845.5" y1="163" y2="186.5" />
<line stroke="#405C86" stroke-dasharray="3 1" stroke-width="1" x1="833.5" x2="833.5" y1="163" y2="186.5" />
<line stroke="#405C86" stroke-dasharray="3 1" stroke-width="1" x1="821.5" x2="821.5" y1="163" y2="186.5" />
<line stroke="#405C86" stroke-dasharray="3 1" stroke-width="1" x1="809.5" x2="809.5" y1="163" y2="186.5" />
<line stroke="#405C86" stroke-dasharray="3 1" stroke-width="1" x1="797.5" x2="797.5" y1="163" y2="186.5" />
<line stroke="#405C86" stroke-dasharray="3 1" stroke-width="1" x1="785.5" x2="785.5" y1="163" y2="186.5" />
<line stroke="#405C86" stroke-dasharray="3 1" stroke-width="1" x1="773.5" x2="773.5" y1="163" y2="186.5" />
<line stroke="#405C86" stroke-dasharray="3 1" stroke-width="1" x1="761.5" x2="761.5" y1="163" y2="186.5" />
<line stroke="#405C86" stroke-dasharray="3 1" stroke-width="1" x1="749.5" x2="749.5" y1="163" y2="186.5" />
<line stroke="#405C86" stroke-dasharray="3 1" stroke-width="1" x1="737.5" x2="737.5" y1="163" y2="186.5" />
<line stroke="#405C86" stroke-dasharray="3 1" stroke-width="1" x1="726.5" x2="726.5" y1="163" y2="186.5" />
<line stroke="#405C86" stroke-dasharray="3 1" stroke-width="1" x1="714.5" x2="714.5" y1="163" y2="186.5" />
<line stroke="#405C86" stroke-dasharray="3 1" stroke-width="1" x1="702.5" x2="702.5" y1="163" y2="186.5" />
<line stroke="#405C86" stroke-dasharray="3 1" stroke-width="1" x1="690.5" x2="690.5" y1="163" y2="186.5" />
<line stroke="#405C86" stroke-dasharray="3 1" stroke-width="1" x1="678.5" x2="678.5" y1="163" y2="186.5" />
<line stroke="#405C86" stroke-dasharray="3 1" stroke-width="1" x1="666.5" x2="666.5" y1="163" y2="186.5" />
<line stroke="#405C86" stroke-dasharray="3 1" stroke-width="1" x1="654.5" x2="654.5" y1="163" y2="186.5" />
<line stroke="#405C86" stroke-dasharray="3 1" stroke-width="1" x1="642.5" x2="642.5" y1="163" y2="186.5" />
<line stroke="#405C86" stroke-dasharray="3 1" stroke-width="1" x1="630.5" x2="630.5" y1="163" y2="186.5" />
<line stroke="#405C86" stroke-dasharray="3 1" stroke-width="1" x1="618.5" x2="618.5" y1="163" y2="186.5" />
<line stroke="#405C86" stroke-dasharray="3 1" stroke-width="1" x1="606.5" x2="606.5" y1="163" y2="186.5" />
<line stroke="#405C86" stroke-dasharray="3 1" stroke-width="1" x1="595.5" x2="595.5" y1="163" y2="186.5" />
<line stroke="#405C86" stroke-dasharray="3 1" stroke-width="1" x1="583.5" x2="583.5" y1="163" y2="186.5" />
<line stroke="#405C86" stroke-dasharray="3 1" stroke-width="1" x1="571.5" x2="571.5" y1="163" y2="186.5" />
<line stroke="#405C86" stroke-dasharray="3 1" stroke-width="1" x1="559.5" x2="559.5" y1="163" y2="186.5" />
<line stroke="#405C86" stroke-dasharray="3 1" stroke-width="1" x1="547.5" x2="547.5" y1="163" y2="186.5" />
<line stroke="#405C86" stroke-dasharray="3 1" stroke-width="1" x1="535.5" x2="535.5" y1="163" y2="186.5" />
<line stroke="#405C86" stroke-dasharray="3 1" stroke-width="1" x1="523.5" x2="523.5" y1="163" y2="186.5" />
<line stroke="#405C86" stroke-dasharray="3 1" stroke-width="1" x1="511.5" x2="511.5" y1="163" y2="186.5" />
<line stroke="#405C86" stroke-dasharray="3 1" stroke-width="1" x1="499.5" x2="499.5" y1="163" y2="186.5" />
<line stroke="#405C86" stroke-dasharray="3 1" stroke-width="1" x1="487.5" x2="487.5" y1="163" y2="186.5" />
<rect fill="none" height="24" stroke="#405C86" stroke-width="3" width="384" x="474.5" y="162.5" />
<rect fill="#ECF1E0" height="24" width="96" x="1530.5" y="234.5" />
<rect fill="none" height="24" stroke="#405C86" stroke-width="3" width="96" x="1530.5" y="234.5" />
<rect fill="#DEE6F1" height="24" width="96" x="1434.5" y="234.5" />
<rect fill="none" height="24" stroke="#405C86" stroke-width="3" width="96" x="1434.5" y="234.5" />
<rect fill="#ECF1E0" height="24" width="1344" x="90.5" y="234.5" />
<rect fill="none" height="24" stroke="#405C86" stroke-width="3" width="1344" x="90.5" y="234.5" />
<text class="register-name" x="80.5" y="246.5">Zd</text>
<text class="register-number" x="10" y="246.5">(3)</text>
<line marker-end="url(#arrowhead)" stroke="none" x1="1236.5" x2="851.796875" y1="115.5" y2="161" />
<line marker-end="url(#arrowhead)" stroke="none" x1="1212.5" x2="839.140625" y1="115.5" y2="161" />
<line marker-end="url(#arrowhead)" stroke="none" x1="1188.5" x2="827.234375" y1="115.5" y2="161" />
<line marker-end="url(#arrowhead)" stroke="none" x1="1164.5" x2="815.328125" y1="115.5" y2="161" />
<line marker-end="url(#arrowhead)" stroke="none" x1="1140.5" x2="803.421875" y1="115.5" y2="161" />
<line marker-end="url(#arrowhead)" stroke="none" x1="1116.5" x2="791.515625" y1="115.5" y2="161" />
<line marker-end="url(#arrowhead)" stroke="none" x1="1092.5" x2="779.609375" y1="115.5" y2="161" />
<line marker-end="url(#arrowhead)" stroke="none" x1="1068.5" x2="767.703125" y1="115.5" y2="161" />
<line marker-end="url(#arrowhead)" stroke="none" x1="1044.5" x2="755.796875" y1="115.5" y2="161" />
<line marker-end="url(#arrowhead)" stroke="none" x1="1020.5" x2="743.890625" y1="115.5" y2="161" />
<line marker-end="url(#arrowhead)" stroke="none" x1="996.5" x2="731.984375" y1="115.5" y2="161" />
<line marker-end="url(#arrowhead)" stroke="none" x1="972.5" x2="720.078125" y1="115.5" y2="161" />
<line marker-end="url(#arrowhead)" stroke="none" x1="948.5" x2="708.171875" y1="115.5" y2="161" />
<line marker-end="url(#arrowhead)" stroke="none" x1="924.5" x2="696.265625" y1="115.5" y2="161" />
<line marker-end="url(#arrowhead)" stroke="none" x1="900.5" x2="684.359375" y1="115.5" y2="161" />
<line marker-end="url(#arrowhead)" stroke="none" x1="876.5" x2="672.453125" y1="115.5" y2="161" />
<line marker-end="url(#arrowhead)" stroke="none" x1="852.5" x2="660.546875" y1="115.5" y2="161" />
<line marker-end="url(#arrowhead)" stroke="none" x1="828.5" x2="648.640625" y1="115.5" y2="161" />
<line marker-end="url(#arrowhead)" stroke="none" x1="804.5" x2="636.734375" y1="115.5" y2="161" />
<line marker-end="url(#arrowhead)" stroke="none" x1="780.5" x2="624.828125" y1="115.5" y2="161" />
<line marker-end="url(#arrowhead)" stroke="none" x1="756.5" x2="612.921875" y1="115.5" y2="161" />
<line marker-end="url(#arrowhead)" stroke="none" x1="732.5" x2="601.015625" y1="115.5" y2="161" />
<line marker-end="url(#arrowhead)" stroke="none" x1="708.5" x2="589.109375" y1="115.5" y2="161" />
<line marker-end="url(#arrowhead)" stroke="none" x1="684.5" x2="577.203125" y1="115.5" y2="161" />
<line marker-end="url(#arrowhead)" stroke="none" x1="660.5" x2="565.296875" y1="115.5" y2="161" />
<line marker-end="url(#arrowhead)" stroke="none" x1="636.5" x2="553.390625" y1="115.5" y2="161" />
<line marker-end="url(#arrowhead)" stroke="none" x1="612.5" x2="541.484375" y1="115.5" y2="161" />
<line marker-end="url(#arrowhead)" stroke="none" x1="588.5" x2="529.578125" y1="115.5" y2="161" />
<line marker-end="url(#arrowhead)" stroke="none" x1="564.5" x2="517.671875" y1="115.5" y2="161" />
<line marker-end="url(#arrowhead)" stroke="none" x1="540.5" x2="505.765625" y1="115.5" y2="161" />
<line marker-end="url(#arrowhead)" stroke="none" x1="516.5" x2="493.859375" y1="115.5" y2="161" />
<line marker-end="url(#arrowhead)" stroke="none" x1="492.5" x2="481.203125" y1="115.5" y2="161" />
</svg>