<svg xmlns="http://www.w3.org/2000/svg" viewBox="0 0 1638 60">
<style>
.label { font: 14px Helvetica; dominant-baseline: middle; text-anchor: middle; }
.title-left { font: 12px Helvetica; dominant-baseline: middle; }
.title-right { font: 12px Helvetica; dominant-baseline: middle; text-anchor: end; }
.title-intrinsic { font: 12px Helvetica; dominant-baseline: middle; text-anchor: middle; fill: #6778ED; }
.title { font: 12px Helvetica; dominant-baseline: middle; text-anchor: middle; }
.title-unused { font: 12px Helvetica; dominant-baseline: middle; text-anchor: middle; fill: #AAA; }
.register-name { font: 14px Helvetica; dominant-baseline: middle; text-anchor: end; font-style: italic; }
.memory-name { font: 14px Helvetica; dominant-baseline: middle; text-anchor: end; }
.register-number { font: 14px Helvetica; dominant-baseline: middle; text-anchor: start; }
.intrinsic-name { font: 14px Helvetica; dominant-baseline: middle; text-anchor: end; fill: #6778ED; }
.intrinsic-color { fill: #6778ED; }
.small-label { font: 12px Helvetica; dominant-baseline: middle; text-anchor: middle; }
.label-10px { font: 10px Helvetica; dominant-baseline: middle; text-anchor: middle; }
.smaller-label { font: 9px Helvetica; dominant-baseline: middle; text-anchor: middle; }
.label-6px { font: 6px Helvetica; dominant-baseline: middle; text-anchor: middle; }
.label-7px { font: 7px Helvetica; dominant-baseline: middle; text-anchor: middle; }
.unused { fill: #AAA; }
.dim { fill: #888; }
</style>
<defs>
<marker id="arrowhead" markerWidth="9.5" markerHeight="21.0" refX="7.75" refY="5.25" orient="auto">
<polyline points="0.5 0.5, 7.5 5.25, 0.5 10.0" stroke="#567DB6" stroke-width="1" fill="none"/>
</marker>
</defs>
<text class="title-left" x="90.5" y="9.5">upper</text>
<text class="title-right" x="1626.5" y="9.5">lower</text>
<text class="title" x="1440.5" y="52.5">invert=1</text>
<text class="title" x="1518.5" y="52.5">count=0</text>
<text class="title-right" x="1626.5" y="52.5">stride=4</text>
<rect fill="#ECF1E0" height="24" width="12" x="1614.5" y="18.5" />
<rect fill="none" height="24" stroke="#405C86" stroke-width="3" width="12" x="1614.5" y="18.5" />
<text class="label" x="1620.5" y="31.5">0</text>
<rect fill="#ECF1E0" height="24" width="12" x="1602.5" y="18.5" />
<rect fill="none" height="24" stroke="#405C86" stroke-width="3" width="12" x="1602.5" y="18.5" />
<text class="label" x="1608.5" y="31.5">0</text>
<rect fill="#ECF1E0" height="24" width="12" x="1590.5" y="18.5" />
<rect fill="none" height="24" stroke="#405C86" stroke-width="3" width="12" x="1590.5" y="18.5" />
<text class="label" x="1596.5" y="31.5">1</text>
<rect fill="#DEE6F1" height="24" width="12" x="1578.5" y="18.5" />
<rect fill="none" height="24" stroke="#405C86" stroke-width="3" width="12" x="1578.5" y="18.5" />
<text class="label" x="1584.5" y="31.5">0</text>
<rect fill="#DEE6F1" height="24" width="12" x="1566.5" y="18.5" />
<rect fill="none" height="24" stroke="#405C86" stroke-width="3" width="12" x="1566.5" y="18.5" />
<text class="label" x="1572.5" y="31.5">0</text>
<rect fill="#DEE6F1" height="24" width="12" x="1554.5" y="18.5" />
<rect fill="none" height="24" stroke="#405C86" stroke-width="3" width="12" x="1554.5" y="18.5" />
<text class="label" x="1560.5" y="31.5">0</text>
<rect fill="#DEE6F1" height="24" width="12" x="1542.5" y="18.5" />
<rect fill="none" height="24" stroke="#405C86" stroke-width="3" width="12" x="1542.5" y="18.5" />
<text class="label" x="1548.5" y="31.5">0</text>
<rect fill="#DEE6F1" height="24" width="12" x="1530.5" y="18.5" />
<rect fill="none" height="24" stroke="#405C86" stroke-width="3" width="12" x="1530.5" y="18.5" />
<text class="label" x="1536.5" y="31.5">0</text>
<rect fill="#DEE6F1" height="24" width="12" x="1518.5" y="18.5" />
<rect fill="none" height="24" stroke="#405C86" stroke-width="3" width="12" x="1518.5" y="18.5" />
<text class="label" x="1524.5" y="31.5">0</text>
<rect fill="#DEE6F1" height="24" width="12" x="1506.5" y="18.5" />
<rect fill="none" height="24" stroke="#405C86" stroke-width="3" width="12" x="1506.5" y="18.5" />
<text class="label" x="1512.5" y="31.5">0</text>
<rect fill="#DEE6F1" height="24" width="12" x="1494.5" y="18.5" />
<rect fill="none" height="24" stroke="#405C86" stroke-width="3" width="12" x="1494.5" y="18.5" />
<text class="label" x="1500.5" y="31.5">0</text>
<rect fill="#DEE6F1" height="24" width="12" x="1482.5" y="18.5" />
<rect fill="none" height="24" stroke="#405C86" stroke-width="3" width="12" x="1482.5" y="18.5" />
<text class="label" x="1488.5" y="31.5">0</text>
<rect fill="#DEE6F1" height="24" width="12" x="1470.5" y="18.5" />
<rect fill="none" height="24" stroke="#405C86" stroke-width="3" width="12" x="1470.5" y="18.5" />
<text class="label" x="1476.5" y="31.5">0</text>
<rect fill="#DEE6F1" height="24" width="12" x="1458.5" y="18.5" />
<rect fill="none" height="24" stroke="#405C86" stroke-width="3" width="12" x="1458.5" y="18.5" />
<text class="label" x="1464.5" y="31.5">0</text>
<rect fill="#DEE6F1" height="24" width="12" x="1446.5" y="18.5" />
<rect fill="none" height="24" stroke="#405C86" stroke-width="3" width="12" x="1446.5" y="18.5" />
<text class="label" x="1452.5" y="31.5">0</text>
<rect fill="#EEDDDB" height="24" width="12" x="1434.5" y="18.5" />
<rect fill="none" height="24" stroke="#405C86" stroke-width="3" width="12" x="1434.5" y="18.5" />
<text class="label" x="1440.5" y="31.5">1</text>
<rect fill="none" height="24" stroke="#405C86" stroke-dasharray="3 1" stroke-dashoffset="1.5" stroke-width="1" width="1344" x="90.5" y="18.5" />
<text class="label unused" x="762.5" y="31.5">zero clear</text>
<text class="register-name" x="80.5" y="30.5">PNd</text>
<text class="intrinsic-name" x="80.5" y="42.5">returns</text>
<text class="register-number" x="10" y="30.5">(1)</text>
</svg>