<svg xmlns="http://www.w3.org/2000/svg" viewBox="0 0 486 123">
<style>
.label { font: 14px Helvetica; dominant-baseline: middle; text-anchor: middle; }
.title-left { font: 12px Helvetica; dominant-baseline: middle; }
.title-right { font: 12px Helvetica; dominant-baseline: middle; text-anchor: end; }
.title-intrinsic { font: 12px Helvetica; dominant-baseline: middle; text-anchor: middle; fill: #6778ED; }
.title { font: 12px Helvetica; dominant-baseline: middle; text-anchor: middle; }
.title-unused { font: 12px Helvetica; dominant-baseline: middle; text-anchor: middle; fill: #AAA; }
.register-name { font: 14px Helvetica; dominant-baseline: middle; text-anchor: end; font-style: italic; }
.memory-name { font: 14px Helvetica; dominant-baseline: middle; text-anchor: end; }
.register-number { font: 14px Helvetica; dominant-baseline: middle; text-anchor: start; }
.intrinsic-name { font: 14px Helvetica; dominant-baseline: middle; text-anchor: end; fill: #6778ED; }
.intrinsic-color { fill: #6778ED; }
.small-label { font: 12px Helvetica; dominant-baseline: middle; text-anchor: middle; }
.label-10px { font: 10px Helvetica; dominant-baseline: middle; text-anchor: middle; }
.smaller-label { font: 9px Helvetica; dominant-baseline: middle; text-anchor: middle; }
.label-6px { font: 6px Helvetica; dominant-baseline: middle; text-anchor: middle; }
.label-7px { font: 7px Helvetica; dominant-baseline: middle; text-anchor: middle; }
.unused { fill: #AAA; }
.dim { fill: #888; }
</style>
<defs>
<marker id="arrowhead" markerWidth="10.75" markerHeight="24.5" refX="9.0" refY="6.125" orient="auto">
<polyline points="0.5 0.5, 8.75 6.125, 0.5 11.75" stroke="#567DB6" stroke-width="1" fill="none"/>
</marker>
</defs>
<line stroke="#567DB6" stroke-width="1" x1="378.5" x2="378.5" y1="43.5" y2="89" />
<line stroke="#567DB6" stroke-width="1" x1="186.5" x2="186.5" y1="43.5" y2="89" />
<text class="title-left" x="90.5" y="9.5">upper</text>
<text class="title-right" x="474.5" y="9.5">lower</text>
<rect fill="#DEE6F1" height="24" width="4.453125" x="470.046875" y="18.5" />
<rect fill="#DEE5F0" height="24" width="2.953125" x="467.09375" y="18.5" />
<rect fill="#DEE5F0" height="24" width="2.953125" x="464.140625" y="18.5" />
<rect fill="#DEE5EF" height="24" width="2.953125" x="461.1875" y="18.5" />
<rect fill="#DFE5EF" height="24" width="2.953125" x="458.234375" y="18.5" />
<rect fill="#DFE5EF" height="24" width="2.953125" x="455.28125" y="18.5" />
<rect fill="#DFE5EE" height="24" width="2.953125" x="452.328125" y="18.5" />
<rect fill="#DFE4EE" height="24" width="2.953125" x="449.375" y="18.5" />
<rect fill="#E0E4EE" height="24" width="2.953125" x="446.421875" y="18.5" />
<rect fill="#E0E4ED" height="24" width="2.953125" x="443.46875" y="18.5" />
<rect fill="#E0E4ED" height="24" width="2.953125" x="440.515625" y="18.5" />
<rect fill="#E0E4ED" height="24" width="2.953125" x="437.5625" y="18.5" />
<rect fill="#E1E4EC" height="24" width="2.953125" x="434.609375" y="18.5" />
<rect fill="#E1E4EC" height="24" width="2.953125" x="431.65625" y="18.5" />
<rect fill="#E1E4EC" height="24" width="2.953125" x="428.703125" y="18.5" />
<rect fill="#E1E3EB" height="24" width="2.953125" x="425.75" y="18.5" />
<rect fill="#E2E3EB" height="24" width="2.953125" x="422.796875" y="18.5" />
<rect fill="#E2E3EB" height="24" width="2.953125" x="419.84375" y="18.5" />
<rect fill="#E2E3EA" height="24" width="2.953125" x="416.890625" y="18.5" />
<rect fill="#E2E3EA" height="24" width="2.953125" x="413.9375" y="18.5" />
<rect fill="#E3E3EA" height="24" width="2.953125" x="410.984375" y="18.5" />
<rect fill="#E3E3E9" height="24" width="2.953125" x="408.03125" y="18.5" />
<rect fill="#E3E2E9" height="24" width="2.953125" x="405.078125" y="18.5" />
<rect fill="#E3E2E8" height="24" width="2.953125" x="402.125" y="18.5" />
<rect fill="#E4E2E8" height="24" width="2.953125" x="399.171875" y="18.5" />
<rect fill="#E4E2E8" height="24" width="2.953125" x="396.21875" y="18.5" />
<rect fill="#E4E2E7" height="24" width="2.953125" x="393.265625" y="18.5" />
<rect fill="#E4E2E7" height="24" width="2.953125" x="390.3125" y="18.5" />
<rect fill="#E5E2E7" height="24" width="2.953125" x="387.359375" y="18.5" />
<rect fill="#E5E1E6" height="24" width="2.953125" x="384.40625" y="18.5" />
<rect fill="#E5E1E6" height="24" width="2.953125" x="381.453125" y="18.5" />
<rect fill="#E5E1E6" height="24" width="2.953125" x="378.5" y="18.5" />
<rect fill="#E6E1E5" height="24" width="2.953125" x="375.546875" y="18.5" />
<rect fill="#E6E1E5" height="24" width="2.953125" x="372.59375" y="18.5" />
<rect fill="#E6E1E5" height="24" width="2.953125" x="369.640625" y="18.5" />
<rect fill="#E6E1E4" height="24" width="2.953125" x="366.6875" y="18.5" />
<rect fill="#E7E0E4" height="24" width="2.953125" x="363.734375" y="18.5" />
<rect fill="#E7E0E4" height="24" width="2.953125" x="360.78125" y="18.5" />
<rect fill="#E7E0E3" height="24" width="2.953125" x="357.828125" y="18.5" />
<rect fill="#E7E0E3" height="24" width="2.953125" x="354.875" y="18.5" />
<rect fill="#E8E0E3" height="24" width="2.953125" x="351.921875" y="18.5" />
<rect fill="#E8E0E2" height="24" width="2.953125" x="348.96875" y="18.5" />
<rect fill="#E8E0E2" height="24" width="2.953125" x="346.015625" y="18.5" />
<rect fill="#E8DFE1" height="24" width="2.953125" x="343.0625" y="18.5" />
<rect fill="#E9DFE1" height="24" width="2.953125" x="340.109375" y="18.5" />
<rect fill="#E9DFE1" height="24" width="2.953125" x="337.15625" y="18.5" />
<rect fill="#E9DFE0" height="24" width="2.953125" x="334.203125" y="18.5" />
<rect fill="#E9DFE0" height="24" width="2.953125" x="331.25" y="18.5" />
<rect fill="#EADFE0" height="24" width="2.953125" x="328.296875" y="18.5" />
<rect fill="#EADFDF" height="24" width="2.953125" x="325.34375" y="18.5" />
<rect fill="#EADEDF" height="24" width="2.953125" x="322.390625" y="18.5" />
<rect fill="#EADEDF" height="24" width="2.953125" x="319.4375" y="18.5" />
<rect fill="#EBDEDE" height="24" width="2.953125" x="316.484375" y="18.5" />
<rect fill="#EBDEDE" height="24" width="2.953125" x="313.53125" y="18.5" />
<rect fill="#EBDEDE" height="24" width="2.953125" x="310.578125" y="18.5" />
<rect fill="#EBDEDD" height="24" width="2.953125" x="307.625" y="18.5" />
<rect fill="#ECDEDD" height="24" width="2.953125" x="304.671875" y="18.5" />
<rect fill="#ECDDDD" height="24" width="2.953125" x="301.71875" y="18.5" />
<rect fill="#ECDDDC" height="24" width="2.953125" x="298.765625" y="18.5" />
<rect fill="#ECDDDC" height="24" width="2.953125" x="295.8125" y="18.5" />
<rect fill="#EDDDDC" height="24" width="2.953125" x="292.859375" y="18.5" />
<rect fill="#EDDDDB" height="24" width="2.953125" x="289.90625" y="18.5" />
<rect fill="#EDDDDB" height="24" width="2.953125" x="286.953125" y="18.5" />
<rect fill="#EEDDDB" height="24" width="4.453125" x="282.5" y="18.5" />
<rect fill="none" height="24" stroke="#405C86" stroke-width="3" width="192" x="282.5" y="18.5" />
<rect fill="#DEE6F1" height="24" width="4.453125" x="278.046875" y="18.5" />
<rect fill="#DEE5F0" height="24" width="2.953125" x="275.09375" y="18.5" />
<rect fill="#DEE5F0" height="24" width="2.953125" x="272.140625" y="18.5" />
<rect fill="#DEE5EF" height="24" width="2.953125" x="269.1875" y="18.5" />
<rect fill="#DFE5EF" height="24" width="2.953125" x="266.234375" y="18.5" />
<rect fill="#DFE5EF" height="24" width="2.953125" x="263.28125" y="18.5" />
<rect fill="#DFE5EE" height="24" width="2.953125" x="260.328125" y="18.5" />
<rect fill="#DFE4EE" height="24" width="2.953125" x="257.375" y="18.5" />
<rect fill="#E0E4EE" height="24" width="2.953125" x="254.421875" y="18.5" />
<rect fill="#E0E4ED" height="24" width="2.953125" x="251.46875" y="18.5" />
<rect fill="#E0E4ED" height="24" width="2.953125" x="248.515625" y="18.5" />
<rect fill="#E0E4ED" height="24" width="2.953125" x="245.5625" y="18.5" />
<rect fill="#E1E4EC" height="24" width="2.953125" x="242.609375" y="18.5" />
<rect fill="#E1E4EC" height="24" width="2.953125" x="239.65625" y="18.5" />
<rect fill="#E1E4EC" height="24" width="2.953125" x="236.703125" y="18.5" />
<rect fill="#E1E3EB" height="24" width="2.953125" x="233.75" y="18.5" />
<rect fill="#E2E3EB" height="24" width="2.953125" x="230.796875" y="18.5" />
<rect fill="#E2E3EB" height="24" width="2.953125" x="227.84375" y="18.5" />
<rect fill="#E2E3EA" height="24" width="2.953125" x="224.890625" y="18.5" />
<rect fill="#E2E3EA" height="24" width="2.953125" x="221.9375" y="18.5" />
<rect fill="#E3E3EA" height="24" width="2.953125" x="218.984375" y="18.5" />
<rect fill="#E3E3E9" height="24" width="2.953125" x="216.03125" y="18.5" />
<rect fill="#E3E2E9" height="24" width="2.953125" x="213.078125" y="18.5" />
<rect fill="#E3E2E8" height="24" width="2.953125" x="210.125" y="18.5" />
<rect fill="#E4E2E8" height="24" width="2.953125" x="207.171875" y="18.5" />
<rect fill="#E4E2E8" height="24" width="2.953125" x="204.21875" y="18.5" />
<rect fill="#E4E2E7" height="24" width="2.953125" x="201.265625" y="18.5" />
<rect fill="#E4E2E7" height="24" width="2.953125" x="198.3125" y="18.5" />
<rect fill="#E5E2E7" height="24" width="2.953125" x="195.359375" y="18.5" />
<rect fill="#E5E1E6" height="24" width="2.953125" x="192.40625" y="18.5" />
<rect fill="#E5E1E6" height="24" width="2.953125" x="189.453125" y="18.5" />
<rect fill="#E5E1E6" height="24" width="2.953125" x="186.5" y="18.5" />
<rect fill="#E6E1E5" height="24" width="2.953125" x="183.546875" y="18.5" />
<rect fill="#E6E1E5" height="24" width="2.953125" x="180.59375" y="18.5" />
<rect fill="#E6E1E5" height="24" width="2.953125" x="177.640625" y="18.5" />
<rect fill="#E6E1E4" height="24" width="2.953125" x="174.6875" y="18.5" />
<rect fill="#E7E0E4" height="24" width="2.953125" x="171.734375" y="18.5" />
<rect fill="#E7E0E4" height="24" width="2.953125" x="168.78125" y="18.5" />
<rect fill="#E7E0E3" height="24" width="2.953125" x="165.828125" y="18.5" />
<rect fill="#E7E0E3" height="24" width="2.953125" x="162.875" y="18.5" />
<rect fill="#E8E0E3" height="24" width="2.953125" x="159.921875" y="18.5" />
<rect fill="#E8E0E2" height="24" width="2.953125" x="156.96875" y="18.5" />
<rect fill="#E8E0E2" height="24" width="2.953125" x="154.015625" y="18.5" />
<rect fill="#E8DFE1" height="24" width="2.953125" x="151.0625" y="18.5" />
<rect fill="#E9DFE1" height="24" width="2.953125" x="148.109375" y="18.5" />
<rect fill="#E9DFE1" height="24" width="2.953125" x="145.15625" y="18.5" />
<rect fill="#E9DFE0" height="24" width="2.953125" x="142.203125" y="18.5" />
<rect fill="#E9DFE0" height="24" width="2.953125" x="139.25" y="18.5" />
<rect fill="#EADFE0" height="24" width="2.953125" x="136.296875" y="18.5" />
<rect fill="#EADFDF" height="24" width="2.953125" x="133.34375" y="18.5" />
<rect fill="#EADEDF" height="24" width="2.953125" x="130.390625" y="18.5" />
<rect fill="#EADEDF" height="24" width="2.953125" x="127.4375" y="18.5" />
<rect fill="#EBDEDE" height="24" width="2.953125" x="124.484375" y="18.5" />
<rect fill="#EBDEDE" height="24" width="2.953125" x="121.53125" y="18.5" />
<rect fill="#EBDEDE" height="24" width="2.953125" x="118.578125" y="18.5" />
<rect fill="#EBDEDD" height="24" width="2.953125" x="115.625" y="18.5" />
<rect fill="#ECDEDD" height="24" width="2.953125" x="112.671875" y="18.5" />
<rect fill="#ECDDDD" height="24" width="2.953125" x="109.71875" y="18.5" />
<rect fill="#ECDDDC" height="24" width="2.953125" x="106.765625" y="18.5" />
<rect fill="#ECDDDC" height="24" width="2.953125" x="103.8125" y="18.5" />
<rect fill="#EDDDDC" height="24" width="2.953125" x="100.859375" y="18.5" />
<rect fill="#EDDDDB" height="24" width="2.953125" x="97.90625" y="18.5" />
<rect fill="#EDDDDB" height="24" width="2.953125" x="94.953125" y="18.5" />
<rect fill="#EEDDDB" height="24" width="4.453125" x="90.5" y="18.5" />
<rect fill="none" height="24" stroke="#405C86" stroke-width="3" width="192" x="90.5" y="18.5" />
<text class="register-name" x="80.5" y="30.5">Zn</text>
<text class="intrinsic-name" x="80.5" y="42.5">op</text>
<text class="register-number" x="10" y="30.5">(1)</text>
<rect fill="#EEDDDB" height="24" width="4.453125" x="470.046875" y="90.5" />
<rect fill="#EDDDDB" height="24" width="2.953125" x="467.09375" y="90.5" />
<rect fill="#EDDDDB" height="24" width="2.953125" x="464.140625" y="90.5" />
<rect fill="#EDDDDC" height="24" width="2.953125" x="461.1875" y="90.5" />
<rect fill="#ECDDDC" height="24" width="2.953125" x="458.234375" y="90.5" />
<rect fill="#ECDDDC" height="24" width="2.953125" x="455.28125" y="90.5" />
<rect fill="#ECDDDD" height="24" width="2.953125" x="452.328125" y="90.5" />
<rect fill="#ECDEDD" height="24" width="2.953125" x="449.375" y="90.5" />
<rect fill="#EBDEDD" height="24" width="2.953125" x="446.421875" y="90.5" />
<rect fill="#EBDEDE" height="24" width="2.953125" x="443.46875" y="90.5" />
<rect fill="#EBDEDE" height="24" width="2.953125" x="440.515625" y="90.5" />
<rect fill="#EBDEDE" height="24" width="2.953125" x="437.5625" y="90.5" />
<rect fill="#EADEDF" height="24" width="2.953125" x="434.609375" y="90.5" />
<rect fill="#EADEDF" height="24" width="2.953125" x="431.65625" y="90.5" />
<rect fill="#EADFDF" height="24" width="2.953125" x="428.703125" y="90.5" />
<rect fill="#EADFE0" height="24" width="2.953125" x="425.75" y="90.5" />
<rect fill="#E9DFE0" height="24" width="2.953125" x="422.796875" y="90.5" />
<rect fill="#E9DFE0" height="24" width="2.953125" x="419.84375" y="90.5" />
<rect fill="#E9DFE1" height="24" width="2.953125" x="416.890625" y="90.5" />
<rect fill="#E9DFE1" height="24" width="2.953125" x="413.9375" y="90.5" />
<rect fill="#E8DFE1" height="24" width="2.953125" x="410.984375" y="90.5" />
<rect fill="#E8E0E2" height="24" width="2.953125" x="408.03125" y="90.5" />
<rect fill="#E8E0E2" height="24" width="2.953125" x="405.078125" y="90.5" />
<rect fill="#E8E0E3" height="24" width="2.953125" x="402.125" y="90.5" />
<rect fill="#E7E0E3" height="24" width="2.953125" x="399.171875" y="90.5" />
<rect fill="#E7E0E3" height="24" width="2.953125" x="396.21875" y="90.5" />
<rect fill="#E7E0E4" height="24" width="2.953125" x="393.265625" y="90.5" />
<rect fill="#E7E0E4" height="24" width="2.953125" x="390.3125" y="90.5" />
<rect fill="#E6E1E4" height="24" width="2.953125" x="387.359375" y="90.5" />
<rect fill="#E6E1E5" height="24" width="2.953125" x="384.40625" y="90.5" />
<rect fill="#E6E1E5" height="24" width="2.953125" x="381.453125" y="90.5" />
<rect fill="#E6E1E5" height="24" width="2.953125" x="378.5" y="90.5" />
<rect fill="#E5E1E6" height="24" width="2.953125" x="375.546875" y="90.5" />
<rect fill="#E5E1E6" height="24" width="2.953125" x="372.59375" y="90.5" />
<rect fill="#E5E1E6" height="24" width="2.953125" x="369.640625" y="90.5" />
<rect fill="#E5E2E7" height="24" width="2.953125" x="366.6875" y="90.5" />
<rect fill="#E4E2E7" height="24" width="2.953125" x="363.734375" y="90.5" />
<rect fill="#E4E2E7" height="24" width="2.953125" x="360.78125" y="90.5" />
<rect fill="#E4E2E8" height="24" width="2.953125" x="357.828125" y="90.5" />
<rect fill="#E4E2E8" height="24" width="2.953125" x="354.875" y="90.5" />
<rect fill="#E3E2E8" height="24" width="2.953125" x="351.921875" y="90.5" />
<rect fill="#E3E2E9" height="24" width="2.953125" x="348.96875" y="90.5" />
<rect fill="#E3E3E9" height="24" width="2.953125" x="346.015625" y="90.5" />
<rect fill="#E3E3EA" height="24" width="2.953125" x="343.0625" y="90.5" />
<rect fill="#E2E3EA" height="24" width="2.953125" x="340.109375" y="90.5" />
<rect fill="#E2E3EA" height="24" width="2.953125" x="337.15625" y="90.5" />
<rect fill="#E2E3EB" height="24" width="2.953125" x="334.203125" y="90.5" />
<rect fill="#E2E3EB" height="24" width="2.953125" x="331.25" y="90.5" />
<rect fill="#E1E3EB" height="24" width="2.953125" x="328.296875" y="90.5" />
<rect fill="#E1E4EC" height="24" width="2.953125" x="325.34375" y="90.5" />
<rect fill="#E1E4EC" height="24" width="2.953125" x="322.390625" y="90.5" />
<rect fill="#E1E4EC" height="24" width="2.953125" x="319.4375" y="90.5" />
<rect fill="#E0E4ED" height="24" width="2.953125" x="316.484375" y="90.5" />
<rect fill="#E0E4ED" height="24" width="2.953125" x="313.53125" y="90.5" />
<rect fill="#E0E4ED" height="24" width="2.953125" x="310.578125" y="90.5" />
<rect fill="#E0E4EE" height="24" width="2.953125" x="307.625" y="90.5" />
<rect fill="#DFE4EE" height="24" width="2.953125" x="304.671875" y="90.5" />
<rect fill="#DFE5EE" height="24" width="2.953125" x="301.71875" y="90.5" />
<rect fill="#DFE5EF" height="24" width="2.953125" x="298.765625" y="90.5" />
<rect fill="#DFE5EF" height="24" width="2.953125" x="295.8125" y="90.5" />
<rect fill="#DEE5EF" height="24" width="2.953125" x="292.859375" y="90.5" />
<rect fill="#DEE5F0" height="24" width="2.953125" x="289.90625" y="90.5" />
<rect fill="#DEE5F0" height="24" width="2.953125" x="286.953125" y="90.5" />
<rect fill="#DEE6F1" height="24" width="4.453125" x="282.5" y="90.5" />
<rect fill="none" height="24" stroke="#405C86" stroke-width="3" width="192" x="282.5" y="90.5" />
<rect fill="#EEDDDB" height="24" width="4.453125" x="278.046875" y="90.5" />
<rect fill="#EDDDDB" height="24" width="2.953125" x="275.09375" y="90.5" />
<rect fill="#EDDDDB" height="24" width="2.953125" x="272.140625" y="90.5" />
<rect fill="#EDDDDC" height="24" width="2.953125" x="269.1875" y="90.5" />
<rect fill="#ECDDDC" height="24" width="2.953125" x="266.234375" y="90.5" />
<rect fill="#ECDDDC" height="24" width="2.953125" x="263.28125" y="90.5" />
<rect fill="#ECDDDD" height="24" width="2.953125" x="260.328125" y="90.5" />
<rect fill="#ECDEDD" height="24" width="2.953125" x="257.375" y="90.5" />
<rect fill="#EBDEDD" height="24" width="2.953125" x="254.421875" y="90.5" />
<rect fill="#EBDEDE" height="24" width="2.953125" x="251.46875" y="90.5" />
<rect fill="#EBDEDE" height="24" width="2.953125" x="248.515625" y="90.5" />
<rect fill="#EBDEDE" height="24" width="2.953125" x="245.5625" y="90.5" />
<rect fill="#EADEDF" height="24" width="2.953125" x="242.609375" y="90.5" />
<rect fill="#EADEDF" height="24" width="2.953125" x="239.65625" y="90.5" />
<rect fill="#EADFDF" height="24" width="2.953125" x="236.703125" y="90.5" />
<rect fill="#EADFE0" height="24" width="2.953125" x="233.75" y="90.5" />
<rect fill="#E9DFE0" height="24" width="2.953125" x="230.796875" y="90.5" />
<rect fill="#E9DFE0" height="24" width="2.953125" x="227.84375" y="90.5" />
<rect fill="#E9DFE1" height="24" width="2.953125" x="224.890625" y="90.5" />
<rect fill="#E9DFE1" height="24" width="2.953125" x="221.9375" y="90.5" />
<rect fill="#E8DFE1" height="24" width="2.953125" x="218.984375" y="90.5" />
<rect fill="#E8E0E2" height="24" width="2.953125" x="216.03125" y="90.5" />
<rect fill="#E8E0E2" height="24" width="2.953125" x="213.078125" y="90.5" />
<rect fill="#E8E0E3" height="24" width="2.953125" x="210.125" y="90.5" />
<rect fill="#E7E0E3" height="24" width="2.953125" x="207.171875" y="90.5" />
<rect fill="#E7E0E3" height="24" width="2.953125" x="204.21875" y="90.5" />
<rect fill="#E7E0E4" height="24" width="2.953125" x="201.265625" y="90.5" />
<rect fill="#E7E0E4" height="24" width="2.953125" x="198.3125" y="90.5" />
<rect fill="#E6E1E4" height="24" width="2.953125" x="195.359375" y="90.5" />
<rect fill="#E6E1E5" height="24" width="2.953125" x="192.40625" y="90.5" />
<rect fill="#E6E1E5" height="24" width="2.953125" x="189.453125" y="90.5" />
<rect fill="#E6E1E5" height="24" width="2.953125" x="186.5" y="90.5" />
<rect fill="#E5E1E6" height="24" width="2.953125" x="183.546875" y="90.5" />
<rect fill="#E5E1E6" height="24" width="2.953125" x="180.59375" y="90.5" />
<rect fill="#E5E1E6" height="24" width="2.953125" x="177.640625" y="90.5" />
<rect fill="#E5E2E7" height="24" width="2.953125" x="174.6875" y="90.5" />
<rect fill="#E4E2E7" height="24" width="2.953125" x="171.734375" y="90.5" />
<rect fill="#E4E2E7" height="24" width="2.953125" x="168.78125" y="90.5" />
<rect fill="#E4E2E8" height="24" width="2.953125" x="165.828125" y="90.5" />
<rect fill="#E4E2E8" height="24" width="2.953125" x="162.875" y="90.5" />
<rect fill="#E3E2E8" height="24" width="2.953125" x="159.921875" y="90.5" />
<rect fill="#E3E2E9" height="24" width="2.953125" x="156.96875" y="90.5" />
<rect fill="#E3E3E9" height="24" width="2.953125" x="154.015625" y="90.5" />
<rect fill="#E3E3EA" height="24" width="2.953125" x="151.0625" y="90.5" />
<rect fill="#E2E3EA" height="24" width="2.953125" x="148.109375" y="90.5" />
<rect fill="#E2E3EA" height="24" width="2.953125" x="145.15625" y="90.5" />
<rect fill="#E2E3EB" height="24" width="2.953125" x="142.203125" y="90.5" />
<rect fill="#E2E3EB" height="24" width="2.953125" x="139.25" y="90.5" />
<rect fill="#E1E3EB" height="24" width="2.953125" x="136.296875" y="90.5" />
<rect fill="#E1E4EC" height="24" width="2.953125" x="133.34375" y="90.5" />
<rect fill="#E1E4EC" height="24" width="2.953125" x="130.390625" y="90.5" />
<rect fill="#E1E4EC" height="24" width="2.953125" x="127.4375" y="90.5" />
<rect fill="#E0E4ED" height="24" width="2.953125" x="124.484375" y="90.5" />
<rect fill="#E0E4ED" height="24" width="2.953125" x="121.53125" y="90.5" />
<rect fill="#E0E4ED" height="24" width="2.953125" x="118.578125" y="90.5" />
<rect fill="#E0E4EE" height="24" width="2.953125" x="115.625" y="90.5" />
<rect fill="#DFE4EE" height="24" width="2.953125" x="112.671875" y="90.5" />
<rect fill="#DFE5EE" height="24" width="2.953125" x="109.71875" y="90.5" />
<rect fill="#DFE5EF" height="24" width="2.953125" x="106.765625" y="90.5" />
<rect fill="#DFE5EF" height="24" width="2.953125" x="103.8125" y="90.5" />
<rect fill="#DEE5EF" height="24" width="2.953125" x="100.859375" y="90.5" />
<rect fill="#DEE5F0" height="24" width="2.953125" x="97.90625" y="90.5" />
<rect fill="#DEE5F0" height="24" width="2.953125" x="94.953125" y="90.5" />
<rect fill="#DEE6F1" height="24" width="4.453125" x="90.5" y="90.5" />
<rect fill="none" height="24" stroke="#405C86" stroke-width="3" width="192" x="90.5" y="90.5" />
<text class="register-name" x="80.5" y="102.5">Zd</text>
<text class="intrinsic-name" x="80.5" y="114.5">returns</text>
<text class="register-number" x="10" y="102.5">(2)</text>
<line marker-end="url(#arrowhead)" stroke="none" x1="378.5" x2="378.5" y1="43.5" y2="89" />
<line marker-end="url(#arrowhead)" stroke="none" x1="186.5" x2="186.5" y1="43.5" y2="89" />
</svg>