<svg xmlns="http://www.w3.org/2000/svg" viewBox="0 0 6246 123">
<style>
.label { font: 14px Helvetica; dominant-baseline: middle; text-anchor: middle; }
.title-left { font: 12px Helvetica; dominant-baseline: middle; }
.title-right { font: 12px Helvetica; dominant-baseline: middle; text-anchor: end; }
.title-intrinsic { font: 12px Helvetica; dominant-baseline: middle; text-anchor: middle; fill: #6778ED; }
.title { font: 12px Helvetica; dominant-baseline: middle; text-anchor: middle; }
.title-unused { font: 12px Helvetica; dominant-baseline: middle; text-anchor: middle; fill: #AAA; }
.register-name { font: 14px Helvetica; dominant-baseline: middle; text-anchor: end; font-style: italic; }
.memory-name { font: 14px Helvetica; dominant-baseline: middle; text-anchor: end; }
.register-number { font: 14px Helvetica; dominant-baseline: middle; text-anchor: start; }
.intrinsic-name { font: 14px Helvetica; dominant-baseline: middle; text-anchor: end; fill: #6778ED; }
.intrinsic-color { fill: #6778ED; }
.small-label { font: 12px Helvetica; dominant-baseline: middle; text-anchor: middle; }
.label-10px { font: 10px Helvetica; dominant-baseline: middle; text-anchor: middle; }
.smaller-label { font: 9px Helvetica; dominant-baseline: middle; text-anchor: middle; }
.label-6px { font: 6px Helvetica; dominant-baseline: middle; text-anchor: middle; }
.label-7px { font: 7px Helvetica; dominant-baseline: middle; text-anchor: middle; }
.unused { fill: #AAA; }
.dim { fill: #888; }
</style>
<defs>
<marker id="arrowhead" markerWidth="10.75" markerHeight="24.5" refX="9.0" refY="6.125" orient="auto">
<polyline points="0.5 0.5, 8.75 6.125, 0.5 11.75" stroke="#567DB6" stroke-width="1" fill="none"/>
</marker>
</defs>
<line stroke="#567DB6" stroke-width="1" x1="6138.5" x2="186.5" y1="43.5" y2="89" />
<line stroke="#567DB6" stroke-width="1" x1="186.5" x2="6138.5" y1="43.5" y2="89" />
<text class="title-left" x="90.5" y="9.5">upper</text>
<text class="title-right" x="6234.5" y="9.5">lower</text>
<rect fill="#DEE6F1" height="24" width="192" x="6042.5" y="18.5" />
<rect fill="none" height="24" stroke="#405C86" stroke-width="3" width="192" x="6042.5" y="18.5" />
<text class="label" x="6138.5" y="31.5">0</text>
<rect fill="#DEE5F0" height="24" width="192" x="5850.5" y="18.5" />
<rect fill="none" height="24" stroke="#405C86" stroke-width="3" width="192" x="5850.5" y="18.5" />
<text class="label" x="5946.5" y="31.5">1</text>
<rect fill="#DFE5EF" height="24" width="192" x="5658.5" y="18.5" />
<rect fill="none" height="24" stroke="#405C86" stroke-width="3" width="192" x="5658.5" y="18.5" />
<text class="label" x="5754.5" y="31.5">2</text>
<rect fill="#DFE5EE" height="24" width="192" x="5466.5" y="18.5" />
<rect fill="none" height="24" stroke="#405C86" stroke-width="3" width="192" x="5466.5" y="18.5" />
<text class="label" x="5562.5" y="31.5">3</text>
<rect fill="#E0E4EE" height="24" width="192" x="5274.5" y="18.5" />
<rect fill="none" height="24" stroke="#405C86" stroke-width="3" width="192" x="5274.5" y="18.5" />
<text class="label" x="5370.5" y="31.5">4</text>
<rect fill="#E0E4ED" height="24" width="192" x="5082.5" y="18.5" />
<rect fill="none" height="24" stroke="#405C86" stroke-width="3" width="192" x="5082.5" y="18.5" />
<text class="label" x="5178.5" y="31.5">5</text>
<rect fill="#E1E4EC" height="24" width="192" x="4890.5" y="18.5" />
<rect fill="none" height="24" stroke="#405C86" stroke-width="3" width="192" x="4890.5" y="18.5" />
<text class="label" x="4986.5" y="31.5">6</text>
<rect fill="#E1E3EC" height="24" width="192" x="4698.5" y="18.5" />
<rect fill="none" height="24" stroke="#405C86" stroke-width="3" width="192" x="4698.5" y="18.5" />
<text class="label" x="4794.5" y="31.5">7</text>
<rect fill="#E2E3EB" height="24" width="192" x="4506.5" y="18.5" />
<rect fill="none" height="24" stroke="#405C86" stroke-width="3" width="192" x="4506.5" y="18.5" />
<text class="label" x="4602.5" y="31.5">8</text>
<rect fill="#E2E3EA" height="24" width="192" x="4314.5" y="18.5" />
<rect fill="none" height="24" stroke="#405C86" stroke-width="3" width="192" x="4314.5" y="18.5" />
<text class="label" x="4410.5" y="31.5">9</text>
<rect fill="#E3E3E9" height="24" width="192" x="4122.5" y="18.5" />
<rect fill="none" height="24" stroke="#405C86" stroke-width="3" width="192" x="4122.5" y="18.5" />
<text class="label" x="4218.5" y="31.5">10</text>
<rect fill="#E3E2E9" height="24" width="192" x="3930.5" y="18.5" />
<rect fill="none" height="24" stroke="#405C86" stroke-width="3" width="192" x="3930.5" y="18.5" />
<text class="label" x="4026.5" y="31.5">11</text>
<rect fill="#E4E2E8" height="24" width="192" x="3738.5" y="18.5" />
<rect fill="none" height="24" stroke="#405C86" stroke-width="3" width="192" x="3738.5" y="18.5" />
<text class="label" x="3834.5" y="31.5">12</text>
<rect fill="#E4E2E7" height="24" width="192" x="3546.5" y="18.5" />
<rect fill="none" height="24" stroke="#405C86" stroke-width="3" width="192" x="3546.5" y="18.5" />
<text class="label" x="3642.5" y="31.5">13</text>
<rect fill="#E5E1E7" height="24" width="192" x="3354.5" y="18.5" />
<rect fill="none" height="24" stroke="#405C86" stroke-width="3" width="192" x="3354.5" y="18.5" />
<text class="label" x="3450.5" y="31.5">14</text>
<rect fill="#E5E1E6" height="24" width="192" x="3162.5" y="18.5" />
<rect fill="none" height="24" stroke="#405C86" stroke-width="3" width="192" x="3162.5" y="18.5" />
<text class="label" x="3258.5" y="31.5">15</text>
<rect fill="#E6E1E5" height="24" width="192" x="2970.5" y="18.5" />
<rect fill="none" height="24" stroke="#405C86" stroke-width="3" width="192" x="2970.5" y="18.5" />
<text class="label" x="3066.5" y="31.5">16</text>
<rect fill="#E6E1E4" height="24" width="192" x="2778.5" y="18.5" />
<rect fill="none" height="24" stroke="#405C86" stroke-width="3" width="192" x="2778.5" y="18.5" />
<text class="label" x="2874.5" y="31.5">17</text>
<rect fill="#E7E0E4" height="24" width="192" x="2586.5" y="18.5" />
<rect fill="none" height="24" stroke="#405C86" stroke-width="3" width="192" x="2586.5" y="18.5" />
<text class="label" x="2682.5" y="31.5">18</text>
<rect fill="#E7E0E3" height="24" width="192" x="2394.5" y="18.5" />
<rect fill="none" height="24" stroke="#405C86" stroke-width="3" width="192" x="2394.5" y="18.5" />
<text class="label" x="2490.5" y="31.5">19</text>
<rect fill="#E8E0E2" height="24" width="192" x="2202.5" y="18.5" />
<rect fill="none" height="24" stroke="#405C86" stroke-width="3" width="192" x="2202.5" y="18.5" />
<text class="label" x="2298.5" y="31.5">20</text>
<rect fill="#E8DFE2" height="24" width="192" x="2010.5" y="18.5" />
<rect fill="none" height="24" stroke="#405C86" stroke-width="3" width="192" x="2010.5" y="18.5" />
<text class="label" x="2106.5" y="31.5">21</text>
<rect fill="#E9DFE1" height="24" width="192" x="1818.5" y="18.5" />
<rect fill="none" height="24" stroke="#405C86" stroke-width="3" width="192" x="1818.5" y="18.5" />
<text class="label" x="1914.5" y="31.5">22</text>
<rect fill="#E9DFE0" height="24" width="192" x="1626.5" y="18.5" />
<rect fill="none" height="24" stroke="#405C86" stroke-width="3" width="192" x="1626.5" y="18.5" />
<text class="label" x="1722.5" y="31.5">23</text>
<rect fill="#EADFDF" height="24" width="192" x="1434.5" y="18.5" />
<rect fill="none" height="24" stroke="#405C86" stroke-width="3" width="192" x="1434.5" y="18.5" />
<text class="label" x="1530.5" y="31.5">24</text>
<rect fill="#EADEDF" height="24" width="192" x="1242.5" y="18.5" />
<rect fill="none" height="24" stroke="#405C86" stroke-width="3" width="192" x="1242.5" y="18.5" />
<text class="label" x="1338.5" y="31.5">25</text>
<rect fill="#EBDEDE" height="24" width="192" x="1050.5" y="18.5" />
<rect fill="none" height="24" stroke="#405C86" stroke-width="3" width="192" x="1050.5" y="18.5" />
<text class="label" x="1146.5" y="31.5">26</text>
<rect fill="#EBDEDD" height="24" width="192" x="858.5" y="18.5" />
<rect fill="none" height="24" stroke="#405C86" stroke-width="3" width="192" x="858.5" y="18.5" />
<text class="label" x="954.5" y="31.5">27</text>
<rect fill="#ECDDDD" height="24" width="192" x="666.5" y="18.5" />
<rect fill="none" height="24" stroke="#405C86" stroke-width="3" width="192" x="666.5" y="18.5" />
<text class="label" x="762.5" y="31.5">28</text>
<rect fill="#ECDDDC" height="24" width="192" x="474.5" y="18.5" />
<rect fill="none" height="24" stroke="#405C86" stroke-width="3" width="192" x="474.5" y="18.5" />
<text class="label" x="570.5" y="31.5">29</text>
<rect fill="#EDDDDB" height="24" width="192" x="282.5" y="18.5" />
<rect fill="none" height="24" stroke="#405C86" stroke-width="3" width="192" x="282.5" y="18.5" />
<text class="label" x="378.5" y="31.5">30</text>
<rect fill="#EEDDDB" height="24" width="192" x="90.5" y="18.5" />
<rect fill="none" height="24" stroke="#405C86" stroke-width="3" width="192" x="90.5" y="18.5" />
<text class="label" x="186.5" y="31.5">31</text>
<text class="register-name" x="80.5" y="30.5">Zn</text>
<text class="intrinsic-name" x="80.5" y="42.5">op</text>
<text class="register-number" x="10" y="30.5">(1)</text>
<rect fill="#EEDDDB" height="24" width="192" x="6042.5" y="90.5" />
<rect fill="none" height="24" stroke="#405C86" stroke-width="3" width="192" x="6042.5" y="90.5" />
<text class="label" x="6138.5" y="103.5">31</text>
<rect fill="#EDDDDB" height="24" width="192" x="5850.5" y="90.5" />
<rect fill="none" height="24" stroke="#405C86" stroke-width="3" width="192" x="5850.5" y="90.5" />
<text class="label" x="5946.5" y="103.5">30</text>
<rect fill="#ECDDDC" height="24" width="192" x="5658.5" y="90.5" />
<rect fill="none" height="24" stroke="#405C86" stroke-width="3" width="192" x="5658.5" y="90.5" />
<text class="label" x="5754.5" y="103.5">29</text>
<rect fill="#ECDDDD" height="24" width="192" x="5466.5" y="90.5" />
<rect fill="none" height="24" stroke="#405C86" stroke-width="3" width="192" x="5466.5" y="90.5" />
<text class="label" x="5562.5" y="103.5">28</text>
<rect fill="#EBDEDD" height="24" width="192" x="5274.5" y="90.5" />
<rect fill="none" height="24" stroke="#405C86" stroke-width="3" width="192" x="5274.5" y="90.5" />
<text class="label" x="5370.5" y="103.5">27</text>
<rect fill="#EBDEDE" height="24" width="192" x="5082.5" y="90.5" />
<rect fill="none" height="24" stroke="#405C86" stroke-width="3" width="192" x="5082.5" y="90.5" />
<text class="label" x="5178.5" y="103.5">26</text>
<rect fill="#EADEDF" height="24" width="192" x="4890.5" y="90.5" />
<rect fill="none" height="24" stroke="#405C86" stroke-width="3" width="192" x="4890.5" y="90.5" />
<text class="label" x="4986.5" y="103.5">25</text>
<rect fill="#EADFDF" height="24" width="192" x="4698.5" y="90.5" />
<rect fill="none" height="24" stroke="#405C86" stroke-width="3" width="192" x="4698.5" y="90.5" />
<text class="label" x="4794.5" y="103.5">24</text>
<rect fill="#E9DFE0" height="24" width="192" x="4506.5" y="90.5" />
<rect fill="none" height="24" stroke="#405C86" stroke-width="3" width="192" x="4506.5" y="90.5" />
<text class="label" x="4602.5" y="103.5">23</text>
<rect fill="#E9DFE1" height="24" width="192" x="4314.5" y="90.5" />
<rect fill="none" height="24" stroke="#405C86" stroke-width="3" width="192" x="4314.5" y="90.5" />
<text class="label" x="4410.5" y="103.5">22</text>
<rect fill="#E8DFE2" height="24" width="192" x="4122.5" y="90.5" />
<rect fill="none" height="24" stroke="#405C86" stroke-width="3" width="192" x="4122.5" y="90.5" />
<text class="label" x="4218.5" y="103.5">21</text>
<rect fill="#E8E0E2" height="24" width="192" x="3930.5" y="90.5" />
<rect fill="none" height="24" stroke="#405C86" stroke-width="3" width="192" x="3930.5" y="90.5" />
<text class="label" x="4026.5" y="103.5">20</text>
<rect fill="#E7E0E3" height="24" width="192" x="3738.5" y="90.5" />
<rect fill="none" height="24" stroke="#405C86" stroke-width="3" width="192" x="3738.5" y="90.5" />
<text class="label" x="3834.5" y="103.5">19</text>
<rect fill="#E7E0E4" height="24" width="192" x="3546.5" y="90.5" />
<rect fill="none" height="24" stroke="#405C86" stroke-width="3" width="192" x="3546.5" y="90.5" />
<text class="label" x="3642.5" y="103.5">18</text>
<rect fill="#E6E1E4" height="24" width="192" x="3354.5" y="90.5" />
<rect fill="none" height="24" stroke="#405C86" stroke-width="3" width="192" x="3354.5" y="90.5" />
<text class="label" x="3450.5" y="103.5">17</text>
<rect fill="#E6E1E5" height="24" width="192" x="3162.5" y="90.5" />
<rect fill="none" height="24" stroke="#405C86" stroke-width="3" width="192" x="3162.5" y="90.5" />
<text class="label" x="3258.5" y="103.5">16</text>
<rect fill="#E5E1E6" height="24" width="192" x="2970.5" y="90.5" />
<rect fill="none" height="24" stroke="#405C86" stroke-width="3" width="192" x="2970.5" y="90.5" />
<text class="label" x="3066.5" y="103.5">15</text>
<rect fill="#E5E1E7" height="24" width="192" x="2778.5" y="90.5" />
<rect fill="none" height="24" stroke="#405C86" stroke-width="3" width="192" x="2778.5" y="90.5" />
<text class="label" x="2874.5" y="103.5">14</text>
<rect fill="#E4E2E7" height="24" width="192" x="2586.5" y="90.5" />
<rect fill="none" height="24" stroke="#405C86" stroke-width="3" width="192" x="2586.5" y="90.5" />
<text class="label" x="2682.5" y="103.5">13</text>
<rect fill="#E4E2E8" height="24" width="192" x="2394.5" y="90.5" />
<rect fill="none" height="24" stroke="#405C86" stroke-width="3" width="192" x="2394.5" y="90.5" />
<text class="label" x="2490.5" y="103.5">12</text>
<rect fill="#E3E2E9" height="24" width="192" x="2202.5" y="90.5" />
<rect fill="none" height="24" stroke="#405C86" stroke-width="3" width="192" x="2202.5" y="90.5" />
<text class="label" x="2298.5" y="103.5">11</text>
<rect fill="#E3E3E9" height="24" width="192" x="2010.5" y="90.5" />
<rect fill="none" height="24" stroke="#405C86" stroke-width="3" width="192" x="2010.5" y="90.5" />
<text class="label" x="2106.5" y="103.5">10</text>
<rect fill="#E2E3EA" height="24" width="192" x="1818.5" y="90.5" />
<rect fill="none" height="24" stroke="#405C86" stroke-width="3" width="192" x="1818.5" y="90.5" />
<text class="label" x="1914.5" y="103.5">9</text>
<rect fill="#E2E3EB" height="24" width="192" x="1626.5" y="90.5" />
<rect fill="none" height="24" stroke="#405C86" stroke-width="3" width="192" x="1626.5" y="90.5" />
<text class="label" x="1722.5" y="103.5">8</text>
<rect fill="#E1E3EC" height="24" width="192" x="1434.5" y="90.5" />
<rect fill="none" height="24" stroke="#405C86" stroke-width="3" width="192" x="1434.5" y="90.5" />
<text class="label" x="1530.5" y="103.5">7</text>
<rect fill="#E1E4EC" height="24" width="192" x="1242.5" y="90.5" />
<rect fill="none" height="24" stroke="#405C86" stroke-width="3" width="192" x="1242.5" y="90.5" />
<text class="label" x="1338.5" y="103.5">6</text>
<rect fill="#E0E4ED" height="24" width="192" x="1050.5" y="90.5" />
<rect fill="none" height="24" stroke="#405C86" stroke-width="3" width="192" x="1050.5" y="90.5" />
<text class="label" x="1146.5" y="103.5">5</text>
<rect fill="#E0E4EE" height="24" width="192" x="858.5" y="90.5" />
<rect fill="none" height="24" stroke="#405C86" stroke-width="3" width="192" x="858.5" y="90.5" />
<text class="label" x="954.5" y="103.5">4</text>
<rect fill="#DFE5EE" height="24" width="192" x="666.5" y="90.5" />
<rect fill="none" height="24" stroke="#405C86" stroke-width="3" width="192" x="666.5" y="90.5" />
<text class="label" x="762.5" y="103.5">3</text>
<rect fill="#DFE5EF" height="24" width="192" x="474.5" y="90.5" />
<rect fill="none" height="24" stroke="#405C86" stroke-width="3" width="192" x="474.5" y="90.5" />
<text class="label" x="570.5" y="103.5">2</text>
<rect fill="#DEE5F0" height="24" width="192" x="282.5" y="90.5" />
<rect fill="none" height="24" stroke="#405C86" stroke-width="3" width="192" x="282.5" y="90.5" />
<text class="label" x="378.5" y="103.5">1</text>
<rect fill="#DEE6F1" height="24" width="192" x="90.5" y="90.5" />
<rect fill="none" height="24" stroke="#405C86" stroke-width="3" width="192" x="90.5" y="90.5" />
<text class="label" x="186.5" y="103.5">0</text>
<text class="register-name" x="80.5" y="102.5">Zd</text>
<text class="intrinsic-name" x="80.5" y="114.5">returns</text>
<text class="register-number" x="10" y="102.5">(2)</text>
<line marker-end="url(#arrowhead)" stroke="none" x1="6138.5" x2="186.5" y1="43.5" y2="89" />
<line marker-end="url(#arrowhead)" stroke="none" x1="186.5" x2="6138.5" y1="43.5" y2="89" />
</svg>