<svg xmlns="http://www.w3.org/2000/svg" viewBox="0 0 1638 123">
<style>
.label { font: 14px Helvetica; dominant-baseline: middle; text-anchor: middle; }
.title-left { font: 12px Helvetica; dominant-baseline: middle; }
.title-right { font: 12px Helvetica; dominant-baseline: middle; text-anchor: end; }
.title-intrinsic { font: 12px Helvetica; dominant-baseline: middle; text-anchor: middle; fill: #6778ED; }
.title { font: 12px Helvetica; dominant-baseline: middle; text-anchor: middle; }
.title-unused { font: 12px Helvetica; dominant-baseline: middle; text-anchor: middle; fill: #AAA; }
.register-name { font: 14px Helvetica; dominant-baseline: middle; text-anchor: end; font-style: italic; }
.memory-name { font: 14px Helvetica; dominant-baseline: middle; text-anchor: end; }
.register-number { font: 14px Helvetica; dominant-baseline: middle; text-anchor: start; }
.intrinsic-name { font: 14px Helvetica; dominant-baseline: middle; text-anchor: end; fill: #6778ED; }
.intrinsic-color { fill: #6778ED; }
.small-label { font: 12px Helvetica; dominant-baseline: middle; text-anchor: middle; }
.label-10px { font: 10px Helvetica; dominant-baseline: middle; text-anchor: middle; }
.smaller-label { font: 9px Helvetica; dominant-baseline: middle; text-anchor: middle; }
.label-6px { font: 6px Helvetica; dominant-baseline: middle; text-anchor: middle; }
.label-7px { font: 7px Helvetica; dominant-baseline: middle; text-anchor: middle; }
.unused { fill: #AAA; }
.dim { fill: #888; }
</style>
<defs>
<marker id="arrowhead" markerWidth="10.75" markerHeight="24.5" refX="9.0" refY="6.125" orient="auto">
<polyline points="0.5 0.5, 8.75 6.125, 0.5 11.75" stroke="#567DB6" stroke-width="1" fill="none"/>
</marker>
</defs>
<line stroke="#567DB6" stroke-width="1" x1="1613.9375" x2="1447.0625" y1="42.1" y2="90.4" />
<line stroke="#567DB6" stroke-width="1" x1="1447.0625" x2="1613.9375" y1="42.1" y2="90.4" />
<line stroke="#567DB6" stroke-width="1" x1="1421.9375" x2="1255.0625" y1="42.1" y2="90.4" />
<line stroke="#567DB6" stroke-width="1" x1="1255.0625" x2="1421.9375" y1="42.1" y2="90.4" />
<line stroke="#567DB6" stroke-width="1" x1="1229.9375" x2="1063.0625" y1="42.1" y2="90.4" />
<line stroke="#567DB6" stroke-width="1" x1="1063.0625" x2="1229.9375" y1="42.1" y2="90.4" />
<line stroke="#567DB6" stroke-width="1" x1="1037.9375" x2="871.0625" y1="42.1" y2="90.4" />
<line stroke="#567DB6" stroke-width="1" x1="871.0625" x2="1037.9375" y1="42.1" y2="90.4" />
<line stroke="#567DB6" stroke-width="1" x1="845.9375" x2="679.0625" y1="42.1" y2="90.4" />
<line stroke="#567DB6" stroke-width="1" x1="679.0625" x2="845.9375" y1="42.1" y2="90.4" />
<line stroke="#567DB6" stroke-width="1" x1="653.9375" x2="487.0625" y1="42.1" y2="90.4" />
<line stroke="#567DB6" stroke-width="1" x1="487.0625" x2="653.9375" y1="42.1" y2="90.4" />
<line stroke="#567DB6" stroke-width="1" x1="461.9375" x2="295.0625" y1="42.1" y2="90.4" />
<line stroke="#567DB6" stroke-width="1" x1="295.0625" x2="461.9375" y1="42.1" y2="90.4" />
<line stroke="#567DB6" stroke-width="1" x1="269.9375" x2="103.0625" y1="42.1" y2="90.4" />
<line stroke="#567DB6" stroke-width="1" x1="103.0625" x2="269.9375" y1="42.1" y2="90.4" />
<text class="title-left" x="90.5" y="9.5">upper</text>
<text class="title-right" x="1626.5" y="9.5">lower</text>
<rect fill="#DEE6F1" height="24" width="25.125" x="1601.375" y="18.5" />
<rect fill="none" height="24" stroke="#405C86" stroke-width="0.2" width="25.125" x="1601.375" y="18.5" />
<rect fill="#E0E4ED" height="24" width="23.625" x="1577.75" y="18.5" />
<rect fill="none" height="24" stroke="#405C86" stroke-width="0.2" width="23.625" x="1577.75" y="18.5" />
<rect fill="#E2E3EA" height="24" width="23.625" x="1554.125" y="18.5" />
<rect fill="none" height="24" stroke="#405C86" stroke-width="0.2" width="23.625" x="1554.125" y="18.5" />
<rect fill="#E4E2E7" height="24" width="23.625" x="1530.5" y="18.5" />
<rect fill="none" height="24" stroke="#405C86" stroke-width="0.2" width="23.625" x="1530.5" y="18.5" />
<rect fill="#E7E0E4" height="24" width="23.625" x="1506.875" y="18.5" />
<rect fill="none" height="24" stroke="#405C86" stroke-width="0.2" width="23.625" x="1506.875" y="18.5" />
<rect fill="#E9DFE1" height="24" width="23.625" x="1483.25" y="18.5" />
<rect fill="none" height="24" stroke="#405C86" stroke-width="0.2" width="23.625" x="1483.25" y="18.5" />
<rect fill="#EBDEDE" height="24" width="23.625" x="1459.625" y="18.5" />
<rect fill="none" height="24" stroke="#405C86" stroke-width="0.2" width="23.625" x="1459.625" y="18.5" />
<rect fill="#EEDDDB" height="24" width="25.125" x="1434.5" y="18.5" />
<rect fill="none" height="24" stroke="#405C86" stroke-width="0.2" width="25.125" x="1434.5" y="18.5" />
<rect fill="none" height="24" stroke="#405C86" stroke-width="3" width="192" x="1434.5" y="18.5" />
<rect fill="#DEE6F1" height="24" width="25.125" x="1409.375" y="18.5" />
<rect fill="none" height="24" stroke="#405C86" stroke-width="0.2" width="25.125" x="1409.375" y="18.5" />
<rect fill="#E0E4ED" height="24" width="23.625" x="1385.75" y="18.5" />
<rect fill="none" height="24" stroke="#405C86" stroke-width="0.2" width="23.625" x="1385.75" y="18.5" />
<rect fill="#E2E3EA" height="24" width="23.625" x="1362.125" y="18.5" />
<rect fill="none" height="24" stroke="#405C86" stroke-width="0.2" width="23.625" x="1362.125" y="18.5" />
<rect fill="#E4E2E7" height="24" width="23.625" x="1338.5" y="18.5" />
<rect fill="none" height="24" stroke="#405C86" stroke-width="0.2" width="23.625" x="1338.5" y="18.5" />
<rect fill="#E7E0E4" height="24" width="23.625" x="1314.875" y="18.5" />
<rect fill="none" height="24" stroke="#405C86" stroke-width="0.2" width="23.625" x="1314.875" y="18.5" />
<rect fill="#E9DFE1" height="24" width="23.625" x="1291.25" y="18.5" />
<rect fill="none" height="24" stroke="#405C86" stroke-width="0.2" width="23.625" x="1291.25" y="18.5" />
<rect fill="#EBDEDE" height="24" width="23.625" x="1267.625" y="18.5" />
<rect fill="none" height="24" stroke="#405C86" stroke-width="0.2" width="23.625" x="1267.625" y="18.5" />
<rect fill="#EEDDDB" height="24" width="25.125" x="1242.5" y="18.5" />
<rect fill="none" height="24" stroke="#405C86" stroke-width="0.2" width="25.125" x="1242.5" y="18.5" />
<rect fill="none" height="24" stroke="#405C86" stroke-width="3" width="192" x="1242.5" y="18.5" />
<rect fill="#DEE6F1" height="24" width="25.125" x="1217.375" y="18.5" />
<rect fill="none" height="24" stroke="#405C86" stroke-width="0.2" width="25.125" x="1217.375" y="18.5" />
<rect fill="#E0E4ED" height="24" width="23.625" x="1193.75" y="18.5" />
<rect fill="none" height="24" stroke="#405C86" stroke-width="0.2" width="23.625" x="1193.75" y="18.5" />
<rect fill="#E2E3EA" height="24" width="23.625" x="1170.125" y="18.5" />
<rect fill="none" height="24" stroke="#405C86" stroke-width="0.2" width="23.625" x="1170.125" y="18.5" />
<rect fill="#E4E2E7" height="24" width="23.625" x="1146.5" y="18.5" />
<rect fill="none" height="24" stroke="#405C86" stroke-width="0.2" width="23.625" x="1146.5" y="18.5" />
<rect fill="#E7E0E4" height="24" width="23.625" x="1122.875" y="18.5" />
<rect fill="none" height="24" stroke="#405C86" stroke-width="0.2" width="23.625" x="1122.875" y="18.5" />
<rect fill="#E9DFE1" height="24" width="23.625" x="1099.25" y="18.5" />
<rect fill="none" height="24" stroke="#405C86" stroke-width="0.2" width="23.625" x="1099.25" y="18.5" />
<rect fill="#EBDEDE" height="24" width="23.625" x="1075.625" y="18.5" />
<rect fill="none" height="24" stroke="#405C86" stroke-width="0.2" width="23.625" x="1075.625" y="18.5" />
<rect fill="#EEDDDB" height="24" width="25.125" x="1050.5" y="18.5" />
<rect fill="none" height="24" stroke="#405C86" stroke-width="0.2" width="25.125" x="1050.5" y="18.5" />
<rect fill="none" height="24" stroke="#405C86" stroke-width="3" width="192" x="1050.5" y="18.5" />
<rect fill="#DEE6F1" height="24" width="25.125" x="1025.375" y="18.5" />
<rect fill="none" height="24" stroke="#405C86" stroke-width="0.2" width="25.125" x="1025.375" y="18.5" />
<rect fill="#E0E4ED" height="24" width="23.625" x="1001.75" y="18.5" />
<rect fill="none" height="24" stroke="#405C86" stroke-width="0.2" width="23.625" x="1001.75" y="18.5" />
<rect fill="#E2E3EA" height="24" width="23.625" x="978.125" y="18.5" />
<rect fill="none" height="24" stroke="#405C86" stroke-width="0.2" width="23.625" x="978.125" y="18.5" />
<rect fill="#E4E2E7" height="24" width="23.625" x="954.5" y="18.5" />
<rect fill="none" height="24" stroke="#405C86" stroke-width="0.2" width="23.625" x="954.5" y="18.5" />
<rect fill="#E7E0E4" height="24" width="23.625" x="930.875" y="18.5" />
<rect fill="none" height="24" stroke="#405C86" stroke-width="0.2" width="23.625" x="930.875" y="18.5" />
<rect fill="#E9DFE1" height="24" width="23.625" x="907.25" y="18.5" />
<rect fill="none" height="24" stroke="#405C86" stroke-width="0.2" width="23.625" x="907.25" y="18.5" />
<rect fill="#EBDEDE" height="24" width="23.625" x="883.625" y="18.5" />
<rect fill="none" height="24" stroke="#405C86" stroke-width="0.2" width="23.625" x="883.625" y="18.5" />
<rect fill="#EEDDDB" height="24" width="25.125" x="858.5" y="18.5" />
<rect fill="none" height="24" stroke="#405C86" stroke-width="0.2" width="25.125" x="858.5" y="18.5" />
<rect fill="none" height="24" stroke="#405C86" stroke-width="3" width="192" x="858.5" y="18.5" />
<rect fill="#DEE6F1" height="24" width="25.125" x="833.375" y="18.5" />
<rect fill="none" height="24" stroke="#405C86" stroke-width="0.2" width="25.125" x="833.375" y="18.5" />
<rect fill="#E0E4ED" height="24" width="23.625" x="809.75" y="18.5" />
<rect fill="none" height="24" stroke="#405C86" stroke-width="0.2" width="23.625" x="809.75" y="18.5" />
<rect fill="#E2E3EA" height="24" width="23.625" x="786.125" y="18.5" />
<rect fill="none" height="24" stroke="#405C86" stroke-width="0.2" width="23.625" x="786.125" y="18.5" />
<rect fill="#E4E2E7" height="24" width="23.625" x="762.5" y="18.5" />
<rect fill="none" height="24" stroke="#405C86" stroke-width="0.2" width="23.625" x="762.5" y="18.5" />
<rect fill="#E7E0E4" height="24" width="23.625" x="738.875" y="18.5" />
<rect fill="none" height="24" stroke="#405C86" stroke-width="0.2" width="23.625" x="738.875" y="18.5" />
<rect fill="#E9DFE1" height="24" width="23.625" x="715.25" y="18.5" />
<rect fill="none" height="24" stroke="#405C86" stroke-width="0.2" width="23.625" x="715.25" y="18.5" />
<rect fill="#EBDEDE" height="24" width="23.625" x="691.625" y="18.5" />
<rect fill="none" height="24" stroke="#405C86" stroke-width="0.2" width="23.625" x="691.625" y="18.5" />
<rect fill="#EEDDDB" height="24" width="25.125" x="666.5" y="18.5" />
<rect fill="none" height="24" stroke="#405C86" stroke-width="0.2" width="25.125" x="666.5" y="18.5" />
<rect fill="none" height="24" stroke="#405C86" stroke-width="3" width="192" x="666.5" y="18.5" />
<rect fill="#DEE6F1" height="24" width="25.125" x="641.375" y="18.5" />
<rect fill="none" height="24" stroke="#405C86" stroke-width="0.2" width="25.125" x="641.375" y="18.5" />
<rect fill="#E0E4ED" height="24" width="23.625" x="617.75" y="18.5" />
<rect fill="none" height="24" stroke="#405C86" stroke-width="0.2" width="23.625" x="617.75" y="18.5" />
<rect fill="#E2E3EA" height="24" width="23.625" x="594.125" y="18.5" />
<rect fill="none" height="24" stroke="#405C86" stroke-width="0.2" width="23.625" x="594.125" y="18.5" />
<rect fill="#E4E2E7" height="24" width="23.625" x="570.5" y="18.5" />
<rect fill="none" height="24" stroke="#405C86" stroke-width="0.2" width="23.625" x="570.5" y="18.5" />
<rect fill="#E7E0E4" height="24" width="23.625" x="546.875" y="18.5" />
<rect fill="none" height="24" stroke="#405C86" stroke-width="0.2" width="23.625" x="546.875" y="18.5" />
<rect fill="#E9DFE1" height="24" width="23.625" x="523.25" y="18.5" />
<rect fill="none" height="24" stroke="#405C86" stroke-width="0.2" width="23.625" x="523.25" y="18.5" />
<rect fill="#EBDEDE" height="24" width="23.625" x="499.625" y="18.5" />
<rect fill="none" height="24" stroke="#405C86" stroke-width="0.2" width="23.625" x="499.625" y="18.5" />
<rect fill="#EEDDDB" height="24" width="25.125" x="474.5" y="18.5" />
<rect fill="none" height="24" stroke="#405C86" stroke-width="0.2" width="25.125" x="474.5" y="18.5" />
<rect fill="none" height="24" stroke="#405C86" stroke-width="3" width="192" x="474.5" y="18.5" />
<rect fill="#DEE6F1" height="24" width="25.125" x="449.375" y="18.5" />
<rect fill="none" height="24" stroke="#405C86" stroke-width="0.2" width="25.125" x="449.375" y="18.5" />
<rect fill="#E0E4ED" height="24" width="23.625" x="425.75" y="18.5" />
<rect fill="none" height="24" stroke="#405C86" stroke-width="0.2" width="23.625" x="425.75" y="18.5" />
<rect fill="#E2E3EA" height="24" width="23.625" x="402.125" y="18.5" />
<rect fill="none" height="24" stroke="#405C86" stroke-width="0.2" width="23.625" x="402.125" y="18.5" />
<rect fill="#E4E2E7" height="24" width="23.625" x="378.5" y="18.5" />
<rect fill="none" height="24" stroke="#405C86" stroke-width="0.2" width="23.625" x="378.5" y="18.5" />
<rect fill="#E7E0E4" height="24" width="23.625" x="354.875" y="18.5" />
<rect fill="none" height="24" stroke="#405C86" stroke-width="0.2" width="23.625" x="354.875" y="18.5" />
<rect fill="#E9DFE1" height="24" width="23.625" x="331.25" y="18.5" />
<rect fill="none" height="24" stroke="#405C86" stroke-width="0.2" width="23.625" x="331.25" y="18.5" />
<rect fill="#EBDEDE" height="24" width="23.625" x="307.625" y="18.5" />
<rect fill="none" height="24" stroke="#405C86" stroke-width="0.2" width="23.625" x="307.625" y="18.5" />
<rect fill="#EEDDDB" height="24" width="25.125" x="282.5" y="18.5" />
<rect fill="none" height="24" stroke="#405C86" stroke-width="0.2" width="25.125" x="282.5" y="18.5" />
<rect fill="none" height="24" stroke="#405C86" stroke-width="3" width="192" x="282.5" y="18.5" />
<rect fill="#DEE6F1" height="24" width="25.125" x="257.375" y="18.5" />
<rect fill="none" height="24" stroke="#405C86" stroke-width="0.2" width="25.125" x="257.375" y="18.5" />
<rect fill="#E0E4ED" height="24" width="23.625" x="233.75" y="18.5" />
<rect fill="none" height="24" stroke="#405C86" stroke-width="0.2" width="23.625" x="233.75" y="18.5" />
<rect fill="#E2E3EA" height="24" width="23.625" x="210.125" y="18.5" />
<rect fill="none" height="24" stroke="#405C86" stroke-width="0.2" width="23.625" x="210.125" y="18.5" />
<rect fill="#E4E2E7" height="24" width="23.625" x="186.5" y="18.5" />
<rect fill="none" height="24" stroke="#405C86" stroke-width="0.2" width="23.625" x="186.5" y="18.5" />
<rect fill="#E7E0E4" height="24" width="23.625" x="162.875" y="18.5" />
<rect fill="none" height="24" stroke="#405C86" stroke-width="0.2" width="23.625" x="162.875" y="18.5" />
<rect fill="#E9DFE1" height="24" width="23.625" x="139.25" y="18.5" />
<rect fill="none" height="24" stroke="#405C86" stroke-width="0.2" width="23.625" x="139.25" y="18.5" />
<rect fill="#EBDEDE" height="24" width="23.625" x="115.625" y="18.5" />
<rect fill="none" height="24" stroke="#405C86" stroke-width="0.2" width="23.625" x="115.625" y="18.5" />
<rect fill="#EEDDDB" height="24" width="25.125" x="90.5" y="18.5" />
<rect fill="none" height="24" stroke="#405C86" stroke-width="0.2" width="25.125" x="90.5" y="18.5" />
<rect fill="none" height="24" stroke="#405C86" stroke-width="3" width="192" x="90.5" y="18.5" />
<text class="register-name" x="80.5" y="30.5">Zn</text>
<text class="intrinsic-name" x="80.5" y="42.5">op</text>
<text class="register-number" x="10" y="30.5">(1)</text>
<rect fill="#DEE6F1" height="24" width="192" x="1434.5" y="90.5" />
<rect fill="#DEE6F1" height="24" width="25.125" x="1434.5" y="90.5" />
<rect fill="none" height="24" stroke="#405C86" stroke-width="0.2" width="25.125" x="1434.5" y="90.5" />
<rect fill="#E0E4ED" height="24" width="23.625" x="1459.625" y="90.5" />
<rect fill="none" height="24" stroke="#405C86" stroke-width="0.2" width="23.625" x="1459.625" y="90.5" />
<rect fill="#E2E3EA" height="24" width="23.625" x="1483.25" y="90.5" />
<rect fill="none" height="24" stroke="#405C86" stroke-width="0.2" width="23.625" x="1483.25" y="90.5" />
<rect fill="#E4E2E7" height="24" width="23.625" x="1506.875" y="90.5" />
<rect fill="none" height="24" stroke="#405C86" stroke-width="0.2" width="23.625" x="1506.875" y="90.5" />
<rect fill="#E7E0E4" height="24" width="23.625" x="1530.5" y="90.5" />
<rect fill="none" height="24" stroke="#405C86" stroke-width="0.2" width="23.625" x="1530.5" y="90.5" />
<rect fill="#E9DFE1" height="24" width="23.625" x="1554.125" y="90.5" />
<rect fill="none" height="24" stroke="#405C86" stroke-width="0.2" width="23.625" x="1554.125" y="90.5" />
<rect fill="#EBDEDE" height="24" width="23.625" x="1577.75" y="90.5" />
<rect fill="none" height="24" stroke="#405C86" stroke-width="0.2" width="23.625" x="1577.75" y="90.5" />
<rect fill="#EEDDDB" height="24" width="25.125" x="1601.375" y="90.5" />
<rect fill="none" height="24" stroke="#405C86" stroke-width="0.2" width="25.125" x="1601.375" y="90.5" />
<rect fill="none" height="24" stroke="#405C86" stroke-width="3" width="192" x="1434.5" y="90.5" />
<rect fill="#DEE6F1" height="24" width="192" x="1242.5" y="90.5" />
<rect fill="#DEE6F1" height="24" width="25.125" x="1242.5" y="90.5" />
<rect fill="none" height="24" stroke="#405C86" stroke-width="0.2" width="25.125" x="1242.5" y="90.5" />
<rect fill="#E0E4ED" height="24" width="23.625" x="1267.625" y="90.5" />
<rect fill="none" height="24" stroke="#405C86" stroke-width="0.2" width="23.625" x="1267.625" y="90.5" />
<rect fill="#E2E3EA" height="24" width="23.625" x="1291.25" y="90.5" />
<rect fill="none" height="24" stroke="#405C86" stroke-width="0.2" width="23.625" x="1291.25" y="90.5" />
<rect fill="#E4E2E7" height="24" width="23.625" x="1314.875" y="90.5" />
<rect fill="none" height="24" stroke="#405C86" stroke-width="0.2" width="23.625" x="1314.875" y="90.5" />
<rect fill="#E7E0E4" height="24" width="23.625" x="1338.5" y="90.5" />
<rect fill="none" height="24" stroke="#405C86" stroke-width="0.2" width="23.625" x="1338.5" y="90.5" />
<rect fill="#E9DFE1" height="24" width="23.625" x="1362.125" y="90.5" />
<rect fill="none" height="24" stroke="#405C86" stroke-width="0.2" width="23.625" x="1362.125" y="90.5" />
<rect fill="#EBDEDE" height="24" width="23.625" x="1385.75" y="90.5" />
<rect fill="none" height="24" stroke="#405C86" stroke-width="0.2" width="23.625" x="1385.75" y="90.5" />
<rect fill="#EEDDDB" height="24" width="25.125" x="1409.375" y="90.5" />
<rect fill="none" height="24" stroke="#405C86" stroke-width="0.2" width="25.125" x="1409.375" y="90.5" />
<rect fill="none" height="24" stroke="#405C86" stroke-width="3" width="192" x="1242.5" y="90.5" />
<rect fill="#DEE6F1" height="24" width="192" x="1050.5" y="90.5" />
<rect fill="#DEE6F1" height="24" width="25.125" x="1050.5" y="90.5" />
<rect fill="none" height="24" stroke="#405C86" stroke-width="0.2" width="25.125" x="1050.5" y="90.5" />
<rect fill="#E0E4ED" height="24" width="23.625" x="1075.625" y="90.5" />
<rect fill="none" height="24" stroke="#405C86" stroke-width="0.2" width="23.625" x="1075.625" y="90.5" />
<rect fill="#E2E3EA" height="24" width="23.625" x="1099.25" y="90.5" />
<rect fill="none" height="24" stroke="#405C86" stroke-width="0.2" width="23.625" x="1099.25" y="90.5" />
<rect fill="#E4E2E7" height="24" width="23.625" x="1122.875" y="90.5" />
<rect fill="none" height="24" stroke="#405C86" stroke-width="0.2" width="23.625" x="1122.875" y="90.5" />
<rect fill="#E7E0E4" height="24" width="23.625" x="1146.5" y="90.5" />
<rect fill="none" height="24" stroke="#405C86" stroke-width="0.2" width="23.625" x="1146.5" y="90.5" />
<rect fill="#E9DFE1" height="24" width="23.625" x="1170.125" y="90.5" />
<rect fill="none" height="24" stroke="#405C86" stroke-width="0.2" width="23.625" x="1170.125" y="90.5" />
<rect fill="#EBDEDE" height="24" width="23.625" x="1193.75" y="90.5" />
<rect fill="none" height="24" stroke="#405C86" stroke-width="0.2" width="23.625" x="1193.75" y="90.5" />
<rect fill="#EEDDDB" height="24" width="25.125" x="1217.375" y="90.5" />
<rect fill="none" height="24" stroke="#405C86" stroke-width="0.2" width="25.125" x="1217.375" y="90.5" />
<rect fill="none" height="24" stroke="#405C86" stroke-width="3" width="192" x="1050.5" y="90.5" />
<rect fill="#DEE6F1" height="24" width="192" x="858.5" y="90.5" />
<rect fill="#DEE6F1" height="24" width="25.125" x="858.5" y="90.5" />
<rect fill="none" height="24" stroke="#405C86" stroke-width="0.2" width="25.125" x="858.5" y="90.5" />
<rect fill="#E0E4ED" height="24" width="23.625" x="883.625" y="90.5" />
<rect fill="none" height="24" stroke="#405C86" stroke-width="0.2" width="23.625" x="883.625" y="90.5" />
<rect fill="#E2E3EA" height="24" width="23.625" x="907.25" y="90.5" />
<rect fill="none" height="24" stroke="#405C86" stroke-width="0.2" width="23.625" x="907.25" y="90.5" />
<rect fill="#E4E2E7" height="24" width="23.625" x="930.875" y="90.5" />
<rect fill="none" height="24" stroke="#405C86" stroke-width="0.2" width="23.625" x="930.875" y="90.5" />
<rect fill="#E7E0E4" height="24" width="23.625" x="954.5" y="90.5" />
<rect fill="none" height="24" stroke="#405C86" stroke-width="0.2" width="23.625" x="954.5" y="90.5" />
<rect fill="#E9DFE1" height="24" width="23.625" x="978.125" y="90.5" />
<rect fill="none" height="24" stroke="#405C86" stroke-width="0.2" width="23.625" x="978.125" y="90.5" />
<rect fill="#EBDEDE" height="24" width="23.625" x="1001.75" y="90.5" />
<rect fill="none" height="24" stroke="#405C86" stroke-width="0.2" width="23.625" x="1001.75" y="90.5" />
<rect fill="#EEDDDB" height="24" width="25.125" x="1025.375" y="90.5" />
<rect fill="none" height="24" stroke="#405C86" stroke-width="0.2" width="25.125" x="1025.375" y="90.5" />
<rect fill="none" height="24" stroke="#405C86" stroke-width="3" width="192" x="858.5" y="90.5" />
<rect fill="#DEE6F1" height="24" width="192" x="666.5" y="90.5" />
<rect fill="#DEE6F1" height="24" width="25.125" x="666.5" y="90.5" />
<rect fill="none" height="24" stroke="#405C86" stroke-width="0.2" width="25.125" x="666.5" y="90.5" />
<rect fill="#E0E4ED" height="24" width="23.625" x="691.625" y="90.5" />
<rect fill="none" height="24" stroke="#405C86" stroke-width="0.2" width="23.625" x="691.625" y="90.5" />
<rect fill="#E2E3EA" height="24" width="23.625" x="715.25" y="90.5" />
<rect fill="none" height="24" stroke="#405C86" stroke-width="0.2" width="23.625" x="715.25" y="90.5" />
<rect fill="#E4E2E7" height="24" width="23.625" x="738.875" y="90.5" />
<rect fill="none" height="24" stroke="#405C86" stroke-width="0.2" width="23.625" x="738.875" y="90.5" />
<rect fill="#E7E0E4" height="24" width="23.625" x="762.5" y="90.5" />
<rect fill="none" height="24" stroke="#405C86" stroke-width="0.2" width="23.625" x="762.5" y="90.5" />
<rect fill="#E9DFE1" height="24" width="23.625" x="786.125" y="90.5" />
<rect fill="none" height="24" stroke="#405C86" stroke-width="0.2" width="23.625" x="786.125" y="90.5" />
<rect fill="#EBDEDE" height="24" width="23.625" x="809.75" y="90.5" />
<rect fill="none" height="24" stroke="#405C86" stroke-width="0.2" width="23.625" x="809.75" y="90.5" />
<rect fill="#EEDDDB" height="24" width="25.125" x="833.375" y="90.5" />
<rect fill="none" height="24" stroke="#405C86" stroke-width="0.2" width="25.125" x="833.375" y="90.5" />
<rect fill="none" height="24" stroke="#405C86" stroke-width="3" width="192" x="666.5" y="90.5" />
<rect fill="#DEE6F1" height="24" width="192" x="474.5" y="90.5" />
<rect fill="#DEE6F1" height="24" width="25.125" x="474.5" y="90.5" />
<rect fill="none" height="24" stroke="#405C86" stroke-width="0.2" width="25.125" x="474.5" y="90.5" />
<rect fill="#E0E4ED" height="24" width="23.625" x="499.625" y="90.5" />
<rect fill="none" height="24" stroke="#405C86" stroke-width="0.2" width="23.625" x="499.625" y="90.5" />
<rect fill="#E2E3EA" height="24" width="23.625" x="523.25" y="90.5" />
<rect fill="none" height="24" stroke="#405C86" stroke-width="0.2" width="23.625" x="523.25" y="90.5" />
<rect fill="#E4E2E7" height="24" width="23.625" x="546.875" y="90.5" />
<rect fill="none" height="24" stroke="#405C86" stroke-width="0.2" width="23.625" x="546.875" y="90.5" />
<rect fill="#E7E0E4" height="24" width="23.625" x="570.5" y="90.5" />
<rect fill="none" height="24" stroke="#405C86" stroke-width="0.2" width="23.625" x="570.5" y="90.5" />
<rect fill="#E9DFE1" height="24" width="23.625" x="594.125" y="90.5" />
<rect fill="none" height="24" stroke="#405C86" stroke-width="0.2" width="23.625" x="594.125" y="90.5" />
<rect fill="#EBDEDE" height="24" width="23.625" x="617.75" y="90.5" />
<rect fill="none" height="24" stroke="#405C86" stroke-width="0.2" width="23.625" x="617.75" y="90.5" />
<rect fill="#EEDDDB" height="24" width="25.125" x="641.375" y="90.5" />
<rect fill="none" height="24" stroke="#405C86" stroke-width="0.2" width="25.125" x="641.375" y="90.5" />
<rect fill="none" height="24" stroke="#405C86" stroke-width="3" width="192" x="474.5" y="90.5" />
<rect fill="#DEE6F1" height="24" width="192" x="282.5" y="90.5" />
<rect fill="#DEE6F1" height="24" width="25.125" x="282.5" y="90.5" />
<rect fill="none" height="24" stroke="#405C86" stroke-width="0.2" width="25.125" x="282.5" y="90.5" />
<rect fill="#E0E4ED" height="24" width="23.625" x="307.625" y="90.5" />
<rect fill="none" height="24" stroke="#405C86" stroke-width="0.2" width="23.625" x="307.625" y="90.5" />
<rect fill="#E2E3EA" height="24" width="23.625" x="331.25" y="90.5" />
<rect fill="none" height="24" stroke="#405C86" stroke-width="0.2" width="23.625" x="331.25" y="90.5" />
<rect fill="#E4E2E7" height="24" width="23.625" x="354.875" y="90.5" />
<rect fill="none" height="24" stroke="#405C86" stroke-width="0.2" width="23.625" x="354.875" y="90.5" />
<rect fill="#E7E0E4" height="24" width="23.625" x="378.5" y="90.5" />
<rect fill="none" height="24" stroke="#405C86" stroke-width="0.2" width="23.625" x="378.5" y="90.5" />
<rect fill="#E9DFE1" height="24" width="23.625" x="402.125" y="90.5" />
<rect fill="none" height="24" stroke="#405C86" stroke-width="0.2" width="23.625" x="402.125" y="90.5" />
<rect fill="#EBDEDE" height="24" width="23.625" x="425.75" y="90.5" />
<rect fill="none" height="24" stroke="#405C86" stroke-width="0.2" width="23.625" x="425.75" y="90.5" />
<rect fill="#EEDDDB" height="24" width="25.125" x="449.375" y="90.5" />
<rect fill="none" height="24" stroke="#405C86" stroke-width="0.2" width="25.125" x="449.375" y="90.5" />
<rect fill="none" height="24" stroke="#405C86" stroke-width="3" width="192" x="282.5" y="90.5" />
<rect fill="#DEE6F1" height="24" width="192" x="90.5" y="90.5" />
<rect fill="#DEE6F1" height="24" width="25.125" x="90.5" y="90.5" />
<rect fill="none" height="24" stroke="#405C86" stroke-width="0.2" width="25.125" x="90.5" y="90.5" />
<rect fill="#E0E4ED" height="24" width="23.625" x="115.625" y="90.5" />
<rect fill="none" height="24" stroke="#405C86" stroke-width="0.2" width="23.625" x="115.625" y="90.5" />
<rect fill="#E2E3EA" height="24" width="23.625" x="139.25" y="90.5" />
<rect fill="none" height="24" stroke="#405C86" stroke-width="0.2" width="23.625" x="139.25" y="90.5" />
<rect fill="#E4E2E7" height="24" width="23.625" x="162.875" y="90.5" />
<rect fill="none" height="24" stroke="#405C86" stroke-width="0.2" width="23.625" x="162.875" y="90.5" />
<rect fill="#E7E0E4" height="24" width="23.625" x="186.5" y="90.5" />
<rect fill="none" height="24" stroke="#405C86" stroke-width="0.2" width="23.625" x="186.5" y="90.5" />
<rect fill="#E9DFE1" height="24" width="23.625" x="210.125" y="90.5" />
<rect fill="none" height="24" stroke="#405C86" stroke-width="0.2" width="23.625" x="210.125" y="90.5" />
<rect fill="#EBDEDE" height="24" width="23.625" x="233.75" y="90.5" />
<rect fill="none" height="24" stroke="#405C86" stroke-width="0.2" width="23.625" x="233.75" y="90.5" />
<rect fill="#EEDDDB" height="24" width="25.125" x="257.375" y="90.5" />
<rect fill="none" height="24" stroke="#405C86" stroke-width="0.2" width="25.125" x="257.375" y="90.5" />
<rect fill="none" height="24" stroke="#405C86" stroke-width="3" width="192" x="90.5" y="90.5" />
<text class="register-name" x="80.5" y="102.5">Zd</text>
<text class="intrinsic-name" x="80.5" y="114.5">returns</text>
<text class="register-number" x="10" y="102.5">(2)</text>
<line marker-end="url(#arrowhead)" stroke="none" x1="1613.9375" x2="1447.0625" y1="42.1" y2="90.4" />
<line marker-end="url(#arrowhead)" stroke="none" x1="1447.0625" x2="1613.9375" y1="42.1" y2="90.4" />
<line marker-end="url(#arrowhead)" stroke="none" x1="1421.9375" x2="1255.0625" y1="42.1" y2="90.4" />
<line marker-end="url(#arrowhead)" stroke="none" x1="1255.0625" x2="1421.9375" y1="42.1" y2="90.4" />
<line marker-end="url(#arrowhead)" stroke="none" x1="1229.9375" x2="1063.0625" y1="42.1" y2="90.4" />
<line marker-end="url(#arrowhead)" stroke="none" x1="1063.0625" x2="1229.9375" y1="42.1" y2="90.4" />
<line marker-end="url(#arrowhead)" stroke="none" x1="1037.9375" x2="871.0625" y1="42.1" y2="90.4" />
<line marker-end="url(#arrowhead)" stroke="none" x1="871.0625" x2="1037.9375" y1="42.1" y2="90.4" />
<line marker-end="url(#arrowhead)" stroke="none" x1="845.9375" x2="679.0625" y1="42.1" y2="90.4" />
<line marker-end="url(#arrowhead)" stroke="none" x1="679.0625" x2="845.9375" y1="42.1" y2="90.4" />
<line marker-end="url(#arrowhead)" stroke="none" x1="653.9375" x2="487.0625" y1="42.1" y2="90.4" />
<line marker-end="url(#arrowhead)" stroke="none" x1="487.0625" x2="653.9375" y1="42.1" y2="90.4" />
<line marker-end="url(#arrowhead)" stroke="none" x1="461.9375" x2="295.0625" y1="42.1" y2="90.4" />
<line marker-end="url(#arrowhead)" stroke="none" x1="295.0625" x2="461.9375" y1="42.1" y2="90.4" />
<line marker-end="url(#arrowhead)" stroke="none" x1="269.9375" x2="103.0625" y1="42.1" y2="90.4" />
<line marker-end="url(#arrowhead)" stroke="none" x1="103.0625" x2="269.9375" y1="42.1" y2="90.4" />
</svg>