<svg xmlns="http://www.w3.org/2000/svg" viewBox="0 0 3174 123">
<style>
.label { font: 14px Helvetica; dominant-baseline: middle; text-anchor: middle; }
.title-left { font: 12px Helvetica; dominant-baseline: middle; }
.title-right { font: 12px Helvetica; dominant-baseline: middle; text-anchor: end; }
.title-intrinsic { font: 12px Helvetica; dominant-baseline: middle; text-anchor: middle; fill: #6778ED; }
.title { font: 12px Helvetica; dominant-baseline: middle; text-anchor: middle; }
.title-unused { font: 12px Helvetica; dominant-baseline: middle; text-anchor: middle; fill: #AAA; }
.register-name { font: 14px Helvetica; dominant-baseline: middle; text-anchor: end; font-style: italic; }
.memory-name { font: 14px Helvetica; dominant-baseline: middle; text-anchor: end; }
.register-number { font: 14px Helvetica; dominant-baseline: middle; text-anchor: start; }
.intrinsic-name { font: 14px Helvetica; dominant-baseline: middle; text-anchor: end; fill: #6778ED; }
.intrinsic-color { fill: #6778ED; }
.small-label { font: 12px Helvetica; dominant-baseline: middle; text-anchor: middle; }
.label-10px { font: 10px Helvetica; dominant-baseline: middle; text-anchor: middle; }
.smaller-label { font: 9px Helvetica; dominant-baseline: middle; text-anchor: middle; }
.label-6px { font: 6px Helvetica; dominant-baseline: middle; text-anchor: middle; }
.label-7px { font: 7px Helvetica; dominant-baseline: middle; text-anchor: middle; }
.unused { fill: #AAA; }
.dim { fill: #888; }
</style>
<defs>
<marker id="arrowhead" markerWidth="10.75" markerHeight="24.5" refX="9.0" refY="6.125" orient="auto">
<polyline points="0.5 0.5, 8.75 6.125, 0.5 11.75" stroke="#567DB6" stroke-width="1" fill="none"/>
</marker>
</defs>
<line stroke="#567DB6" stroke-width="1" x1="3138.125" x2="2994.875" y1="42.1" y2="90.4" />
<line stroke="#567DB6" stroke-width="1" x1="2994.875" x2="3138.125" y1="42.1" y2="90.4" />
<line stroke="#567DB6" stroke-width="1" x1="2946.125" x2="2802.875" y1="42.1" y2="90.4" />
<line stroke="#567DB6" stroke-width="1" x1="2802.875" x2="2946.125" y1="42.1" y2="90.4" />
<line stroke="#567DB6" stroke-width="1" x1="2754.125" x2="2610.875" y1="42.1" y2="90.4" />
<line stroke="#567DB6" stroke-width="1" x1="2610.875" x2="2754.125" y1="42.1" y2="90.4" />
<line stroke="#567DB6" stroke-width="1" x1="2562.125" x2="2418.875" y1="42.1" y2="90.4" />
<line stroke="#567DB6" stroke-width="1" x1="2418.875" x2="2562.125" y1="42.1" y2="90.4" />
<line stroke="#567DB6" stroke-width="1" x1="2370.125" x2="2226.875" y1="42.1" y2="90.4" />
<line stroke="#567DB6" stroke-width="1" x1="2226.875" x2="2370.125" y1="42.1" y2="90.4" />
<line stroke="#567DB6" stroke-width="1" x1="2178.125" x2="2034.875" y1="42.1" y2="90.4" />
<line stroke="#567DB6" stroke-width="1" x1="2034.875" x2="2178.125" y1="42.1" y2="90.4" />
<line stroke="#567DB6" stroke-width="1" x1="1986.125" x2="1842.875" y1="42.1" y2="90.4" />
<line stroke="#567DB6" stroke-width="1" x1="1842.875" x2="1986.125" y1="42.1" y2="90.4" />
<line stroke="#567DB6" stroke-width="1" x1="1794.125" x2="1650.875" y1="42.1" y2="90.4" />
<line stroke="#567DB6" stroke-width="1" x1="1650.875" x2="1794.125" y1="42.1" y2="90.4" />
<line stroke="#567DB6" stroke-width="1" x1="1602.125" x2="1458.875" y1="42.1" y2="90.4" />
<line stroke="#567DB6" stroke-width="1" x1="1458.875" x2="1602.125" y1="42.1" y2="90.4" />
<line stroke="#567DB6" stroke-width="1" x1="1410.125" x2="1266.875" y1="42.1" y2="90.4" />
<line stroke="#567DB6" stroke-width="1" x1="1266.875" x2="1410.125" y1="42.1" y2="90.4" />
<line stroke="#567DB6" stroke-width="1" x1="1218.125" x2="1074.875" y1="42.1" y2="90.4" />
<line stroke="#567DB6" stroke-width="1" x1="1074.875" x2="1218.125" y1="42.1" y2="90.4" />
<line stroke="#567DB6" stroke-width="1" x1="1026.125" x2="882.875" y1="42.1" y2="90.4" />
<line stroke="#567DB6" stroke-width="1" x1="882.875" x2="1026.125" y1="42.1" y2="90.4" />
<line stroke="#567DB6" stroke-width="1" x1="834.125" x2="690.875" y1="42.1" y2="90.4" />
<line stroke="#567DB6" stroke-width="1" x1="690.875" x2="834.125" y1="42.1" y2="90.4" />
<line stroke="#567DB6" stroke-width="1" x1="642.125" x2="498.875" y1="42.1" y2="90.4" />
<line stroke="#567DB6" stroke-width="1" x1="498.875" x2="642.125" y1="42.1" y2="90.4" />
<line stroke="#567DB6" stroke-width="1" x1="450.125" x2="306.875" y1="42.1" y2="90.4" />
<line stroke="#567DB6" stroke-width="1" x1="306.875" x2="450.125" y1="42.1" y2="90.4" />
<line stroke="#567DB6" stroke-width="1" x1="258.125" x2="114.875" y1="42.1" y2="90.4" />
<line stroke="#567DB6" stroke-width="1" x1="114.875" x2="258.125" y1="42.1" y2="90.4" />
<text class="title-left" x="90.5" y="9.5">upper</text>
<text class="title-right" x="3162.5" y="9.5">lower</text>
<rect fill="#DEE6F1" height="24" width="48.75" x="3113.75" y="18.5" />
<rect fill="none" height="24" stroke="#405C86" stroke-width="0.2" width="48.75" x="3113.75" y="18.5" />
<rect fill="#E3E3E9" height="24" width="47.25" x="3066.5" y="18.5" />
<rect fill="none" height="24" stroke="#405C86" stroke-width="0.2" width="47.25" x="3066.5" y="18.5" />
<rect fill="#E8E0E2" height="24" width="47.25" x="3019.25" y="18.5" />
<rect fill="none" height="24" stroke="#405C86" stroke-width="0.2" width="47.25" x="3019.25" y="18.5" />
<rect fill="#EEDDDB" height="24" width="48.75" x="2970.5" y="18.5" />
<rect fill="none" height="24" stroke="#405C86" stroke-width="0.2" width="48.75" x="2970.5" y="18.5" />
<rect fill="none" height="24" stroke="#405C86" stroke-width="3" width="192" x="2970.5" y="18.5" />
<rect fill="#DEE6F1" height="24" width="48.75" x="2921.75" y="18.5" />
<rect fill="none" height="24" stroke="#405C86" stroke-width="0.2" width="48.75" x="2921.75" y="18.5" />
<rect fill="#E3E3E9" height="24" width="47.25" x="2874.5" y="18.5" />
<rect fill="none" height="24" stroke="#405C86" stroke-width="0.2" width="47.25" x="2874.5" y="18.5" />
<rect fill="#E8E0E2" height="24" width="47.25" x="2827.25" y="18.5" />
<rect fill="none" height="24" stroke="#405C86" stroke-width="0.2" width="47.25" x="2827.25" y="18.5" />
<rect fill="#EEDDDB" height="24" width="48.75" x="2778.5" y="18.5" />
<rect fill="none" height="24" stroke="#405C86" stroke-width="0.2" width="48.75" x="2778.5" y="18.5" />
<rect fill="none" height="24" stroke="#405C86" stroke-width="3" width="192" x="2778.5" y="18.5" />
<rect fill="#DEE6F1" height="24" width="48.75" x="2729.75" y="18.5" />
<rect fill="none" height="24" stroke="#405C86" stroke-width="0.2" width="48.75" x="2729.75" y="18.5" />
<rect fill="#E3E3E9" height="24" width="47.25" x="2682.5" y="18.5" />
<rect fill="none" height="24" stroke="#405C86" stroke-width="0.2" width="47.25" x="2682.5" y="18.5" />
<rect fill="#E8E0E2" height="24" width="47.25" x="2635.25" y="18.5" />
<rect fill="none" height="24" stroke="#405C86" stroke-width="0.2" width="47.25" x="2635.25" y="18.5" />
<rect fill="#EEDDDB" height="24" width="48.75" x="2586.5" y="18.5" />
<rect fill="none" height="24" stroke="#405C86" stroke-width="0.2" width="48.75" x="2586.5" y="18.5" />
<rect fill="none" height="24" stroke="#405C86" stroke-width="3" width="192" x="2586.5" y="18.5" />
<rect fill="#DEE6F1" height="24" width="48.75" x="2537.75" y="18.5" />
<rect fill="none" height="24" stroke="#405C86" stroke-width="0.2" width="48.75" x="2537.75" y="18.5" />
<rect fill="#E3E3E9" height="24" width="47.25" x="2490.5" y="18.5" />
<rect fill="none" height="24" stroke="#405C86" stroke-width="0.2" width="47.25" x="2490.5" y="18.5" />
<rect fill="#E8E0E2" height="24" width="47.25" x="2443.25" y="18.5" />
<rect fill="none" height="24" stroke="#405C86" stroke-width="0.2" width="47.25" x="2443.25" y="18.5" />
<rect fill="#EEDDDB" height="24" width="48.75" x="2394.5" y="18.5" />
<rect fill="none" height="24" stroke="#405C86" stroke-width="0.2" width="48.75" x="2394.5" y="18.5" />
<rect fill="none" height="24" stroke="#405C86" stroke-width="3" width="192" x="2394.5" y="18.5" />
<rect fill="#DEE6F1" height="24" width="48.75" x="2345.75" y="18.5" />
<rect fill="none" height="24" stroke="#405C86" stroke-width="0.2" width="48.75" x="2345.75" y="18.5" />
<rect fill="#E3E3E9" height="24" width="47.25" x="2298.5" y="18.5" />
<rect fill="none" height="24" stroke="#405C86" stroke-width="0.2" width="47.25" x="2298.5" y="18.5" />
<rect fill="#E8E0E2" height="24" width="47.25" x="2251.25" y="18.5" />
<rect fill="none" height="24" stroke="#405C86" stroke-width="0.2" width="47.25" x="2251.25" y="18.5" />
<rect fill="#EEDDDB" height="24" width="48.75" x="2202.5" y="18.5" />
<rect fill="none" height="24" stroke="#405C86" stroke-width="0.2" width="48.75" x="2202.5" y="18.5" />
<rect fill="none" height="24" stroke="#405C86" stroke-width="3" width="192" x="2202.5" y="18.5" />
<rect fill="#DEE6F1" height="24" width="48.75" x="2153.75" y="18.5" />
<rect fill="none" height="24" stroke="#405C86" stroke-width="0.2" width="48.75" x="2153.75" y="18.5" />
<rect fill="#E3E3E9" height="24" width="47.25" x="2106.5" y="18.5" />
<rect fill="none" height="24" stroke="#405C86" stroke-width="0.2" width="47.25" x="2106.5" y="18.5" />
<rect fill="#E8E0E2" height="24" width="47.25" x="2059.25" y="18.5" />
<rect fill="none" height="24" stroke="#405C86" stroke-width="0.2" width="47.25" x="2059.25" y="18.5" />
<rect fill="#EEDDDB" height="24" width="48.75" x="2010.5" y="18.5" />
<rect fill="none" height="24" stroke="#405C86" stroke-width="0.2" width="48.75" x="2010.5" y="18.5" />
<rect fill="none" height="24" stroke="#405C86" stroke-width="3" width="192" x="2010.5" y="18.5" />
<rect fill="#DEE6F1" height="24" width="48.75" x="1961.75" y="18.5" />
<rect fill="none" height="24" stroke="#405C86" stroke-width="0.2" width="48.75" x="1961.75" y="18.5" />
<rect fill="#E3E3E9" height="24" width="47.25" x="1914.5" y="18.5" />
<rect fill="none" height="24" stroke="#405C86" stroke-width="0.2" width="47.25" x="1914.5" y="18.5" />
<rect fill="#E8E0E2" height="24" width="47.25" x="1867.25" y="18.5" />
<rect fill="none" height="24" stroke="#405C86" stroke-width="0.2" width="47.25" x="1867.25" y="18.5" />
<rect fill="#EEDDDB" height="24" width="48.75" x="1818.5" y="18.5" />
<rect fill="none" height="24" stroke="#405C86" stroke-width="0.2" width="48.75" x="1818.5" y="18.5" />
<rect fill="none" height="24" stroke="#405C86" stroke-width="3" width="192" x="1818.5" y="18.5" />
<rect fill="#DEE6F1" height="24" width="48.75" x="1769.75" y="18.5" />
<rect fill="none" height="24" stroke="#405C86" stroke-width="0.2" width="48.75" x="1769.75" y="18.5" />
<rect fill="#E3E3E9" height="24" width="47.25" x="1722.5" y="18.5" />
<rect fill="none" height="24" stroke="#405C86" stroke-width="0.2" width="47.25" x="1722.5" y="18.5" />
<rect fill="#E8E0E2" height="24" width="47.25" x="1675.25" y="18.5" />
<rect fill="none" height="24" stroke="#405C86" stroke-width="0.2" width="47.25" x="1675.25" y="18.5" />
<rect fill="#EEDDDB" height="24" width="48.75" x="1626.5" y="18.5" />
<rect fill="none" height="24" stroke="#405C86" stroke-width="0.2" width="48.75" x="1626.5" y="18.5" />
<rect fill="none" height="24" stroke="#405C86" stroke-width="3" width="192" x="1626.5" y="18.5" />
<rect fill="#DEE6F1" height="24" width="48.75" x="1577.75" y="18.5" />
<rect fill="none" height="24" stroke="#405C86" stroke-width="0.2" width="48.75" x="1577.75" y="18.5" />
<rect fill="#E3E3E9" height="24" width="47.25" x="1530.5" y="18.5" />
<rect fill="none" height="24" stroke="#405C86" stroke-width="0.2" width="47.25" x="1530.5" y="18.5" />
<rect fill="#E8E0E2" height="24" width="47.25" x="1483.25" y="18.5" />
<rect fill="none" height="24" stroke="#405C86" stroke-width="0.2" width="47.25" x="1483.25" y="18.5" />
<rect fill="#EEDDDB" height="24" width="48.75" x="1434.5" y="18.5" />
<rect fill="none" height="24" stroke="#405C86" stroke-width="0.2" width="48.75" x="1434.5" y="18.5" />
<rect fill="none" height="24" stroke="#405C86" stroke-width="3" width="192" x="1434.5" y="18.5" />
<rect fill="#DEE6F1" height="24" width="48.75" x="1385.75" y="18.5" />
<rect fill="none" height="24" stroke="#405C86" stroke-width="0.2" width="48.75" x="1385.75" y="18.5" />
<rect fill="#E3E3E9" height="24" width="47.25" x="1338.5" y="18.5" />
<rect fill="none" height="24" stroke="#405C86" stroke-width="0.2" width="47.25" x="1338.5" y="18.5" />
<rect fill="#E8E0E2" height="24" width="47.25" x="1291.25" y="18.5" />
<rect fill="none" height="24" stroke="#405C86" stroke-width="0.2" width="47.25" x="1291.25" y="18.5" />
<rect fill="#EEDDDB" height="24" width="48.75" x="1242.5" y="18.5" />
<rect fill="none" height="24" stroke="#405C86" stroke-width="0.2" width="48.75" x="1242.5" y="18.5" />
<rect fill="none" height="24" stroke="#405C86" stroke-width="3" width="192" x="1242.5" y="18.5" />
<rect fill="#DEE6F1" height="24" width="48.75" x="1193.75" y="18.5" />
<rect fill="none" height="24" stroke="#405C86" stroke-width="0.2" width="48.75" x="1193.75" y="18.5" />
<rect fill="#E3E3E9" height="24" width="47.25" x="1146.5" y="18.5" />
<rect fill="none" height="24" stroke="#405C86" stroke-width="0.2" width="47.25" x="1146.5" y="18.5" />
<rect fill="#E8E0E2" height="24" width="47.25" x="1099.25" y="18.5" />
<rect fill="none" height="24" stroke="#405C86" stroke-width="0.2" width="47.25" x="1099.25" y="18.5" />
<rect fill="#EEDDDB" height="24" width="48.75" x="1050.5" y="18.5" />
<rect fill="none" height="24" stroke="#405C86" stroke-width="0.2" width="48.75" x="1050.5" y="18.5" />
<rect fill="none" height="24" stroke="#405C86" stroke-width="3" width="192" x="1050.5" y="18.5" />
<rect fill="#DEE6F1" height="24" width="48.75" x="1001.75" y="18.5" />
<rect fill="none" height="24" stroke="#405C86" stroke-width="0.2" width="48.75" x="1001.75" y="18.5" />
<rect fill="#E3E3E9" height="24" width="47.25" x="954.5" y="18.5" />
<rect fill="none" height="24" stroke="#405C86" stroke-width="0.2" width="47.25" x="954.5" y="18.5" />
<rect fill="#E8E0E2" height="24" width="47.25" x="907.25" y="18.5" />
<rect fill="none" height="24" stroke="#405C86" stroke-width="0.2" width="47.25" x="907.25" y="18.5" />
<rect fill="#EEDDDB" height="24" width="48.75" x="858.5" y="18.5" />
<rect fill="none" height="24" stroke="#405C86" stroke-width="0.2" width="48.75" x="858.5" y="18.5" />
<rect fill="none" height="24" stroke="#405C86" stroke-width="3" width="192" x="858.5" y="18.5" />
<rect fill="#DEE6F1" height="24" width="48.75" x="809.75" y="18.5" />
<rect fill="none" height="24" stroke="#405C86" stroke-width="0.2" width="48.75" x="809.75" y="18.5" />
<rect fill="#E3E3E9" height="24" width="47.25" x="762.5" y="18.5" />
<rect fill="none" height="24" stroke="#405C86" stroke-width="0.2" width="47.25" x="762.5" y="18.5" />
<rect fill="#E8E0E2" height="24" width="47.25" x="715.25" y="18.5" />
<rect fill="none" height="24" stroke="#405C86" stroke-width="0.2" width="47.25" x="715.25" y="18.5" />
<rect fill="#EEDDDB" height="24" width="48.75" x="666.5" y="18.5" />
<rect fill="none" height="24" stroke="#405C86" stroke-width="0.2" width="48.75" x="666.5" y="18.5" />
<rect fill="none" height="24" stroke="#405C86" stroke-width="3" width="192" x="666.5" y="18.5" />
<rect fill="#DEE6F1" height="24" width="48.75" x="617.75" y="18.5" />
<rect fill="none" height="24" stroke="#405C86" stroke-width="0.2" width="48.75" x="617.75" y="18.5" />
<rect fill="#E3E3E9" height="24" width="47.25" x="570.5" y="18.5" />
<rect fill="none" height="24" stroke="#405C86" stroke-width="0.2" width="47.25" x="570.5" y="18.5" />
<rect fill="#E8E0E2" height="24" width="47.25" x="523.25" y="18.5" />
<rect fill="none" height="24" stroke="#405C86" stroke-width="0.2" width="47.25" x="523.25" y="18.5" />
<rect fill="#EEDDDB" height="24" width="48.75" x="474.5" y="18.5" />
<rect fill="none" height="24" stroke="#405C86" stroke-width="0.2" width="48.75" x="474.5" y="18.5" />
<rect fill="none" height="24" stroke="#405C86" stroke-width="3" width="192" x="474.5" y="18.5" />
<rect fill="#DEE6F1" height="24" width="48.75" x="425.75" y="18.5" />
<rect fill="none" height="24" stroke="#405C86" stroke-width="0.2" width="48.75" x="425.75" y="18.5" />
<rect fill="#E3E3E9" height="24" width="47.25" x="378.5" y="18.5" />
<rect fill="none" height="24" stroke="#405C86" stroke-width="0.2" width="47.25" x="378.5" y="18.5" />
<rect fill="#E8E0E2" height="24" width="47.25" x="331.25" y="18.5" />
<rect fill="none" height="24" stroke="#405C86" stroke-width="0.2" width="47.25" x="331.25" y="18.5" />
<rect fill="#EEDDDB" height="24" width="48.75" x="282.5" y="18.5" />
<rect fill="none" height="24" stroke="#405C86" stroke-width="0.2" width="48.75" x="282.5" y="18.5" />
<rect fill="none" height="24" stroke="#405C86" stroke-width="3" width="192" x="282.5" y="18.5" />
<rect fill="#DEE6F1" height="24" width="48.75" x="233.75" y="18.5" />
<rect fill="none" height="24" stroke="#405C86" stroke-width="0.2" width="48.75" x="233.75" y="18.5" />
<rect fill="#E3E3E9" height="24" width="47.25" x="186.5" y="18.5" />
<rect fill="none" height="24" stroke="#405C86" stroke-width="0.2" width="47.25" x="186.5" y="18.5" />
<rect fill="#E8E0E2" height="24" width="47.25" x="139.25" y="18.5" />
<rect fill="none" height="24" stroke="#405C86" stroke-width="0.2" width="47.25" x="139.25" y="18.5" />
<rect fill="#EEDDDB" height="24" width="48.75" x="90.5" y="18.5" />
<rect fill="none" height="24" stroke="#405C86" stroke-width="0.2" width="48.75" x="90.5" y="18.5" />
<rect fill="none" height="24" stroke="#405C86" stroke-width="3" width="192" x="90.5" y="18.5" />
<text class="register-name" x="80.5" y="30.5">Zn</text>
<text class="intrinsic-name" x="80.5" y="42.5">op</text>
<text class="register-number" x="10" y="30.5">(1)</text>
<rect fill="#DEE6F1" height="24" width="192" x="2970.5" y="90.5" />
<rect fill="#DEE6F1" height="24" width="48.75" x="2970.5" y="90.5" />
<rect fill="none" height="24" stroke="#405C86" stroke-width="0.2" width="48.75" x="2970.5" y="90.5" />
<rect fill="#E3E3E9" height="24" width="47.25" x="3019.25" y="90.5" />
<rect fill="none" height="24" stroke="#405C86" stroke-width="0.2" width="47.25" x="3019.25" y="90.5" />
<rect fill="#E8E0E2" height="24" width="47.25" x="3066.5" y="90.5" />
<rect fill="none" height="24" stroke="#405C86" stroke-width="0.2" width="47.25" x="3066.5" y="90.5" />
<rect fill="#EEDDDB" height="24" width="48.75" x="3113.75" y="90.5" />
<rect fill="none" height="24" stroke="#405C86" stroke-width="0.2" width="48.75" x="3113.75" y="90.5" />
<rect fill="none" height="24" stroke="#405C86" stroke-width="3" width="192" x="2970.5" y="90.5" />
<rect fill="#DEE6F1" height="24" width="192" x="2778.5" y="90.5" />
<rect fill="#DEE6F1" height="24" width="48.75" x="2778.5" y="90.5" />
<rect fill="none" height="24" stroke="#405C86" stroke-width="0.2" width="48.75" x="2778.5" y="90.5" />
<rect fill="#E3E3E9" height="24" width="47.25" x="2827.25" y="90.5" />
<rect fill="none" height="24" stroke="#405C86" stroke-width="0.2" width="47.25" x="2827.25" y="90.5" />
<rect fill="#E8E0E2" height="24" width="47.25" x="2874.5" y="90.5" />
<rect fill="none" height="24" stroke="#405C86" stroke-width="0.2" width="47.25" x="2874.5" y="90.5" />
<rect fill="#EEDDDB" height="24" width="48.75" x="2921.75" y="90.5" />
<rect fill="none" height="24" stroke="#405C86" stroke-width="0.2" width="48.75" x="2921.75" y="90.5" />
<rect fill="none" height="24" stroke="#405C86" stroke-width="3" width="192" x="2778.5" y="90.5" />
<rect fill="#DEE6F1" height="24" width="192" x="2586.5" y="90.5" />
<rect fill="#DEE6F1" height="24" width="48.75" x="2586.5" y="90.5" />
<rect fill="none" height="24" stroke="#405C86" stroke-width="0.2" width="48.75" x="2586.5" y="90.5" />
<rect fill="#E3E3E9" height="24" width="47.25" x="2635.25" y="90.5" />
<rect fill="none" height="24" stroke="#405C86" stroke-width="0.2" width="47.25" x="2635.25" y="90.5" />
<rect fill="#E8E0E2" height="24" width="47.25" x="2682.5" y="90.5" />
<rect fill="none" height="24" stroke="#405C86" stroke-width="0.2" width="47.25" x="2682.5" y="90.5" />
<rect fill="#EEDDDB" height="24" width="48.75" x="2729.75" y="90.5" />
<rect fill="none" height="24" stroke="#405C86" stroke-width="0.2" width="48.75" x="2729.75" y="90.5" />
<rect fill="none" height="24" stroke="#405C86" stroke-width="3" width="192" x="2586.5" y="90.5" />
<rect fill="#DEE6F1" height="24" width="192" x="2394.5" y="90.5" />
<rect fill="#DEE6F1" height="24" width="48.75" x="2394.5" y="90.5" />
<rect fill="none" height="24" stroke="#405C86" stroke-width="0.2" width="48.75" x="2394.5" y="90.5" />
<rect fill="#E3E3E9" height="24" width="47.25" x="2443.25" y="90.5" />
<rect fill="none" height="24" stroke="#405C86" stroke-width="0.2" width="47.25" x="2443.25" y="90.5" />
<rect fill="#E8E0E2" height="24" width="47.25" x="2490.5" y="90.5" />
<rect fill="none" height="24" stroke="#405C86" stroke-width="0.2" width="47.25" x="2490.5" y="90.5" />
<rect fill="#EEDDDB" height="24" width="48.75" x="2537.75" y="90.5" />
<rect fill="none" height="24" stroke="#405C86" stroke-width="0.2" width="48.75" x="2537.75" y="90.5" />
<rect fill="none" height="24" stroke="#405C86" stroke-width="3" width="192" x="2394.5" y="90.5" />
<rect fill="#DEE6F1" height="24" width="192" x="2202.5" y="90.5" />
<rect fill="#DEE6F1" height="24" width="48.75" x="2202.5" y="90.5" />
<rect fill="none" height="24" stroke="#405C86" stroke-width="0.2" width="48.75" x="2202.5" y="90.5" />
<rect fill="#E3E3E9" height="24" width="47.25" x="2251.25" y="90.5" />
<rect fill="none" height="24" stroke="#405C86" stroke-width="0.2" width="47.25" x="2251.25" y="90.5" />
<rect fill="#E8E0E2" height="24" width="47.25" x="2298.5" y="90.5" />
<rect fill="none" height="24" stroke="#405C86" stroke-width="0.2" width="47.25" x="2298.5" y="90.5" />
<rect fill="#EEDDDB" height="24" width="48.75" x="2345.75" y="90.5" />
<rect fill="none" height="24" stroke="#405C86" stroke-width="0.2" width="48.75" x="2345.75" y="90.5" />
<rect fill="none" height="24" stroke="#405C86" stroke-width="3" width="192" x="2202.5" y="90.5" />
<rect fill="#DEE6F1" height="24" width="192" x="2010.5" y="90.5" />
<rect fill="#DEE6F1" height="24" width="48.75" x="2010.5" y="90.5" />
<rect fill="none" height="24" stroke="#405C86" stroke-width="0.2" width="48.75" x="2010.5" y="90.5" />
<rect fill="#E3E3E9" height="24" width="47.25" x="2059.25" y="90.5" />
<rect fill="none" height="24" stroke="#405C86" stroke-width="0.2" width="47.25" x="2059.25" y="90.5" />
<rect fill="#E8E0E2" height="24" width="47.25" x="2106.5" y="90.5" />
<rect fill="none" height="24" stroke="#405C86" stroke-width="0.2" width="47.25" x="2106.5" y="90.5" />
<rect fill="#EEDDDB" height="24" width="48.75" x="2153.75" y="90.5" />
<rect fill="none" height="24" stroke="#405C86" stroke-width="0.2" width="48.75" x="2153.75" y="90.5" />
<rect fill="none" height="24" stroke="#405C86" stroke-width="3" width="192" x="2010.5" y="90.5" />
<rect fill="#DEE6F1" height="24" width="192" x="1818.5" y="90.5" />
<rect fill="#DEE6F1" height="24" width="48.75" x="1818.5" y="90.5" />
<rect fill="none" height="24" stroke="#405C86" stroke-width="0.2" width="48.75" x="1818.5" y="90.5" />
<rect fill="#E3E3E9" height="24" width="47.25" x="1867.25" y="90.5" />
<rect fill="none" height="24" stroke="#405C86" stroke-width="0.2" width="47.25" x="1867.25" y="90.5" />
<rect fill="#E8E0E2" height="24" width="47.25" x="1914.5" y="90.5" />
<rect fill="none" height="24" stroke="#405C86" stroke-width="0.2" width="47.25" x="1914.5" y="90.5" />
<rect fill="#EEDDDB" height="24" width="48.75" x="1961.75" y="90.5" />
<rect fill="none" height="24" stroke="#405C86" stroke-width="0.2" width="48.75" x="1961.75" y="90.5" />
<rect fill="none" height="24" stroke="#405C86" stroke-width="3" width="192" x="1818.5" y="90.5" />
<rect fill="#DEE6F1" height="24" width="192" x="1626.5" y="90.5" />
<rect fill="#DEE6F1" height="24" width="48.75" x="1626.5" y="90.5" />
<rect fill="none" height="24" stroke="#405C86" stroke-width="0.2" width="48.75" x="1626.5" y="90.5" />
<rect fill="#E3E3E9" height="24" width="47.25" x="1675.25" y="90.5" />
<rect fill="none" height="24" stroke="#405C86" stroke-width="0.2" width="47.25" x="1675.25" y="90.5" />
<rect fill="#E8E0E2" height="24" width="47.25" x="1722.5" y="90.5" />
<rect fill="none" height="24" stroke="#405C86" stroke-width="0.2" width="47.25" x="1722.5" y="90.5" />
<rect fill="#EEDDDB" height="24" width="48.75" x="1769.75" y="90.5" />
<rect fill="none" height="24" stroke="#405C86" stroke-width="0.2" width="48.75" x="1769.75" y="90.5" />
<rect fill="none" height="24" stroke="#405C86" stroke-width="3" width="192" x="1626.5" y="90.5" />
<rect fill="#DEE6F1" height="24" width="192" x="1434.5" y="90.5" />
<rect fill="#DEE6F1" height="24" width="48.75" x="1434.5" y="90.5" />
<rect fill="none" height="24" stroke="#405C86" stroke-width="0.2" width="48.75" x="1434.5" y="90.5" />
<rect fill="#E3E3E9" height="24" width="47.25" x="1483.25" y="90.5" />
<rect fill="none" height="24" stroke="#405C86" stroke-width="0.2" width="47.25" x="1483.25" y="90.5" />
<rect fill="#E8E0E2" height="24" width="47.25" x="1530.5" y="90.5" />
<rect fill="none" height="24" stroke="#405C86" stroke-width="0.2" width="47.25" x="1530.5" y="90.5" />
<rect fill="#EEDDDB" height="24" width="48.75" x="1577.75" y="90.5" />
<rect fill="none" height="24" stroke="#405C86" stroke-width="0.2" width="48.75" x="1577.75" y="90.5" />
<rect fill="none" height="24" stroke="#405C86" stroke-width="3" width="192" x="1434.5" y="90.5" />
<rect fill="#DEE6F1" height="24" width="192" x="1242.5" y="90.5" />
<rect fill="#DEE6F1" height="24" width="48.75" x="1242.5" y="90.5" />
<rect fill="none" height="24" stroke="#405C86" stroke-width="0.2" width="48.75" x="1242.5" y="90.5" />
<rect fill="#E3E3E9" height="24" width="47.25" x="1291.25" y="90.5" />
<rect fill="none" height="24" stroke="#405C86" stroke-width="0.2" width="47.25" x="1291.25" y="90.5" />
<rect fill="#E8E0E2" height="24" width="47.25" x="1338.5" y="90.5" />
<rect fill="none" height="24" stroke="#405C86" stroke-width="0.2" width="47.25" x="1338.5" y="90.5" />
<rect fill="#EEDDDB" height="24" width="48.75" x="1385.75" y="90.5" />
<rect fill="none" height="24" stroke="#405C86" stroke-width="0.2" width="48.75" x="1385.75" y="90.5" />
<rect fill="none" height="24" stroke="#405C86" stroke-width="3" width="192" x="1242.5" y="90.5" />
<rect fill="#DEE6F1" height="24" width="192" x="1050.5" y="90.5" />
<rect fill="#DEE6F1" height="24" width="48.75" x="1050.5" y="90.5" />
<rect fill="none" height="24" stroke="#405C86" stroke-width="0.2" width="48.75" x="1050.5" y="90.5" />
<rect fill="#E3E3E9" height="24" width="47.25" x="1099.25" y="90.5" />
<rect fill="none" height="24" stroke="#405C86" stroke-width="0.2" width="47.25" x="1099.25" y="90.5" />
<rect fill="#E8E0E2" height="24" width="47.25" x="1146.5" y="90.5" />
<rect fill="none" height="24" stroke="#405C86" stroke-width="0.2" width="47.25" x="1146.5" y="90.5" />
<rect fill="#EEDDDB" height="24" width="48.75" x="1193.75" y="90.5" />
<rect fill="none" height="24" stroke="#405C86" stroke-width="0.2" width="48.75" x="1193.75" y="90.5" />
<rect fill="none" height="24" stroke="#405C86" stroke-width="3" width="192" x="1050.5" y="90.5" />
<rect fill="#DEE6F1" height="24" width="192" x="858.5" y="90.5" />
<rect fill="#DEE6F1" height="24" width="48.75" x="858.5" y="90.5" />
<rect fill="none" height="24" stroke="#405C86" stroke-width="0.2" width="48.75" x="858.5" y="90.5" />
<rect fill="#E3E3E9" height="24" width="47.25" x="907.25" y="90.5" />
<rect fill="none" height="24" stroke="#405C86" stroke-width="0.2" width="47.25" x="907.25" y="90.5" />
<rect fill="#E8E0E2" height="24" width="47.25" x="954.5" y="90.5" />
<rect fill="none" height="24" stroke="#405C86" stroke-width="0.2" width="47.25" x="954.5" y="90.5" />
<rect fill="#EEDDDB" height="24" width="48.75" x="1001.75" y="90.5" />
<rect fill="none" height="24" stroke="#405C86" stroke-width="0.2" width="48.75" x="1001.75" y="90.5" />
<rect fill="none" height="24" stroke="#405C86" stroke-width="3" width="192" x="858.5" y="90.5" />
<rect fill="#DEE6F1" height="24" width="192" x="666.5" y="90.5" />
<rect fill="#DEE6F1" height="24" width="48.75" x="666.5" y="90.5" />
<rect fill="none" height="24" stroke="#405C86" stroke-width="0.2" width="48.75" x="666.5" y="90.5" />
<rect fill="#E3E3E9" height="24" width="47.25" x="715.25" y="90.5" />
<rect fill="none" height="24" stroke="#405C86" stroke-width="0.2" width="47.25" x="715.25" y="90.5" />
<rect fill="#E8E0E2" height="24" width="47.25" x="762.5" y="90.5" />
<rect fill="none" height="24" stroke="#405C86" stroke-width="0.2" width="47.25" x="762.5" y="90.5" />
<rect fill="#EEDDDB" height="24" width="48.75" x="809.75" y="90.5" />
<rect fill="none" height="24" stroke="#405C86" stroke-width="0.2" width="48.75" x="809.75" y="90.5" />
<rect fill="none" height="24" stroke="#405C86" stroke-width="3" width="192" x="666.5" y="90.5" />
<rect fill="#DEE6F1" height="24" width="192" x="474.5" y="90.5" />
<rect fill="#DEE6F1" height="24" width="48.75" x="474.5" y="90.5" />
<rect fill="none" height="24" stroke="#405C86" stroke-width="0.2" width="48.75" x="474.5" y="90.5" />
<rect fill="#E3E3E9" height="24" width="47.25" x="523.25" y="90.5" />
<rect fill="none" height="24" stroke="#405C86" stroke-width="0.2" width="47.25" x="523.25" y="90.5" />
<rect fill="#E8E0E2" height="24" width="47.25" x="570.5" y="90.5" />
<rect fill="none" height="24" stroke="#405C86" stroke-width="0.2" width="47.25" x="570.5" y="90.5" />
<rect fill="#EEDDDB" height="24" width="48.75" x="617.75" y="90.5" />
<rect fill="none" height="24" stroke="#405C86" stroke-width="0.2" width="48.75" x="617.75" y="90.5" />
<rect fill="none" height="24" stroke="#405C86" stroke-width="3" width="192" x="474.5" y="90.5" />
<rect fill="#DEE6F1" height="24" width="192" x="282.5" y="90.5" />
<rect fill="#DEE6F1" height="24" width="48.75" x="282.5" y="90.5" />
<rect fill="none" height="24" stroke="#405C86" stroke-width="0.2" width="48.75" x="282.5" y="90.5" />
<rect fill="#E3E3E9" height="24" width="47.25" x="331.25" y="90.5" />
<rect fill="none" height="24" stroke="#405C86" stroke-width="0.2" width="47.25" x="331.25" y="90.5" />
<rect fill="#E8E0E2" height="24" width="47.25" x="378.5" y="90.5" />
<rect fill="none" height="24" stroke="#405C86" stroke-width="0.2" width="47.25" x="378.5" y="90.5" />
<rect fill="#EEDDDB" height="24" width="48.75" x="425.75" y="90.5" />
<rect fill="none" height="24" stroke="#405C86" stroke-width="0.2" width="48.75" x="425.75" y="90.5" />
<rect fill="none" height="24" stroke="#405C86" stroke-width="3" width="192" x="282.5" y="90.5" />
<rect fill="#DEE6F1" height="24" width="192" x="90.5" y="90.5" />
<rect fill="#DEE6F1" height="24" width="48.75" x="90.5" y="90.5" />
<rect fill="none" height="24" stroke="#405C86" stroke-width="0.2" width="48.75" x="90.5" y="90.5" />
<rect fill="#E3E3E9" height="24" width="47.25" x="139.25" y="90.5" />
<rect fill="none" height="24" stroke="#405C86" stroke-width="0.2" width="47.25" x="139.25" y="90.5" />
<rect fill="#E8E0E2" height="24" width="47.25" x="186.5" y="90.5" />
<rect fill="none" height="24" stroke="#405C86" stroke-width="0.2" width="47.25" x="186.5" y="90.5" />
<rect fill="#EEDDDB" height="24" width="48.75" x="233.75" y="90.5" />
<rect fill="none" height="24" stroke="#405C86" stroke-width="0.2" width="48.75" x="233.75" y="90.5" />
<rect fill="none" height="24" stroke="#405C86" stroke-width="3" width="192" x="90.5" y="90.5" />
<text class="register-name" x="80.5" y="102.5">Zd</text>
<text class="intrinsic-name" x="80.5" y="114.5">returns</text>
<text class="register-number" x="10" y="102.5">(2)</text>
<line marker-end="url(#arrowhead)" stroke="none" x1="3138.125" x2="2994.875" y1="42.1" y2="90.4" />
<line marker-end="url(#arrowhead)" stroke="none" x1="2994.875" x2="3138.125" y1="42.1" y2="90.4" />
<line marker-end="url(#arrowhead)" stroke="none" x1="2946.125" x2="2802.875" y1="42.1" y2="90.4" />
<line marker-end="url(#arrowhead)" stroke="none" x1="2802.875" x2="2946.125" y1="42.1" y2="90.4" />
<line marker-end="url(#arrowhead)" stroke="none" x1="2754.125" x2="2610.875" y1="42.1" y2="90.4" />
<line marker-end="url(#arrowhead)" stroke="none" x1="2610.875" x2="2754.125" y1="42.1" y2="90.4" />
<line marker-end="url(#arrowhead)" stroke="none" x1="2562.125" x2="2418.875" y1="42.1" y2="90.4" />
<line marker-end="url(#arrowhead)" stroke="none" x1="2418.875" x2="2562.125" y1="42.1" y2="90.4" />
<line marker-end="url(#arrowhead)" stroke="none" x1="2370.125" x2="2226.875" y1="42.1" y2="90.4" />
<line marker-end="url(#arrowhead)" stroke="none" x1="2226.875" x2="2370.125" y1="42.1" y2="90.4" />
<line marker-end="url(#arrowhead)" stroke="none" x1="2178.125" x2="2034.875" y1="42.1" y2="90.4" />
<line marker-end="url(#arrowhead)" stroke="none" x1="2034.875" x2="2178.125" y1="42.1" y2="90.4" />
<line marker-end="url(#arrowhead)" stroke="none" x1="1986.125" x2="1842.875" y1="42.1" y2="90.4" />
<line marker-end="url(#arrowhead)" stroke="none" x1="1842.875" x2="1986.125" y1="42.1" y2="90.4" />
<line marker-end="url(#arrowhead)" stroke="none" x1="1794.125" x2="1650.875" y1="42.1" y2="90.4" />
<line marker-end="url(#arrowhead)" stroke="none" x1="1650.875" x2="1794.125" y1="42.1" y2="90.4" />
<line marker-end="url(#arrowhead)" stroke="none" x1="1602.125" x2="1458.875" y1="42.1" y2="90.4" />
<line marker-end="url(#arrowhead)" stroke="none" x1="1458.875" x2="1602.125" y1="42.1" y2="90.4" />
<line marker-end="url(#arrowhead)" stroke="none" x1="1410.125" x2="1266.875" y1="42.1" y2="90.4" />
<line marker-end="url(#arrowhead)" stroke="none" x1="1266.875" x2="1410.125" y1="42.1" y2="90.4" />
<line marker-end="url(#arrowhead)" stroke="none" x1="1218.125" x2="1074.875" y1="42.1" y2="90.4" />
<line marker-end="url(#arrowhead)" stroke="none" x1="1074.875" x2="1218.125" y1="42.1" y2="90.4" />
<line marker-end="url(#arrowhead)" stroke="none" x1="1026.125" x2="882.875" y1="42.1" y2="90.4" />
<line marker-end="url(#arrowhead)" stroke="none" x1="882.875" x2="1026.125" y1="42.1" y2="90.4" />
<line marker-end="url(#arrowhead)" stroke="none" x1="834.125" x2="690.875" y1="42.1" y2="90.4" />
<line marker-end="url(#arrowhead)" stroke="none" x1="690.875" x2="834.125" y1="42.1" y2="90.4" />
<line marker-end="url(#arrowhead)" stroke="none" x1="642.125" x2="498.875" y1="42.1" y2="90.4" />
<line marker-end="url(#arrowhead)" stroke="none" x1="498.875" x2="642.125" y1="42.1" y2="90.4" />
<line marker-end="url(#arrowhead)" stroke="none" x1="450.125" x2="306.875" y1="42.1" y2="90.4" />
<line marker-end="url(#arrowhead)" stroke="none" x1="306.875" x2="450.125" y1="42.1" y2="90.4" />
<line marker-end="url(#arrowhead)" stroke="none" x1="258.125" x2="114.875" y1="42.1" y2="90.4" />
<line marker-end="url(#arrowhead)" stroke="none" x1="114.875" x2="258.125" y1="42.1" y2="90.4" />
</svg>