<svg xmlns="http://www.w3.org/2000/svg" viewBox="0 0 3174 171">
<style>
.label { font: 14px Helvetica; dominant-baseline: middle; text-anchor: middle; }
.title-left { font: 12px Helvetica; dominant-baseline: middle; }
.title-right { font: 12px Helvetica; dominant-baseline: middle; text-anchor: end; }
.title-intrinsic { font: 12px Helvetica; dominant-baseline: middle; text-anchor: middle; fill: #6778ED; }
.title { font: 12px Helvetica; dominant-baseline: middle; text-anchor: middle; }
.title-unused { font: 12px Helvetica; dominant-baseline: middle; text-anchor: middle; fill: #AAA; }
.register-name { font: 14px Helvetica; dominant-baseline: middle; text-anchor: end; font-style: italic; }
.memory-name { font: 14px Helvetica; dominant-baseline: middle; text-anchor: end; }
.register-number { font: 14px Helvetica; dominant-baseline: middle; text-anchor: start; }
.intrinsic-name { font: 14px Helvetica; dominant-baseline: middle; text-anchor: end; fill: #6778ED; }
.intrinsic-color { fill: #6778ED; }
.small-label { font: 12px Helvetica; dominant-baseline: middle; text-anchor: middle; }
.label-10px { font: 10px Helvetica; dominant-baseline: middle; text-anchor: middle; }
.smaller-label { font: 9px Helvetica; dominant-baseline: middle; text-anchor: middle; }
.label-6px { font: 6px Helvetica; dominant-baseline: middle; text-anchor: middle; }
.label-7px { font: 7px Helvetica; dominant-baseline: middle; text-anchor: middle; }
.unused { fill: #AAA; }
.dim { fill: #888; }
</style>
<defs>
<marker id="arrowhead" markerWidth="10.75" markerHeight="24.5" refX="9.0" refY="6.125" orient="auto">
<polyline points="0.5 0.5, 8.75 6.125, 0.5 11.75" stroke="#567DB6" stroke-width="1" fill="none"/>
</marker>
</defs>
<text class="title-left" x="90.5" y="9.5">upper</text>
<text class="title-right" x="3162.5" y="9.5">lower</text>
<rect fill="#DEE6F1" height="24" width="46.5" x="3091.25" y="18.5" />
<rect fill="none" height="24" stroke="#405C86" stroke-width="3" width="96" x="3066.5" y="18.5" />
<rect fill="#DEE6F1" height="24" width="46.5" x="2995.25" y="18.5" />
<rect fill="none" height="24" stroke="#405C86" stroke-width="3" width="96" x="2970.5" y="18.5" />
<rect fill="#DEE6F1" height="24" width="46.5" x="2899.25" y="18.5" />
<rect fill="none" height="24" stroke="#405C86" stroke-width="3" width="96" x="2874.5" y="18.5" />
<rect fill="#DEE6F1" height="24" width="46.5" x="2803.25" y="18.5" />
<rect fill="none" height="24" stroke="#405C86" stroke-width="3" width="96" x="2778.5" y="18.5" />
<rect fill="#DEE6F1" height="24" width="46.5" x="2707.25" y="18.5" />
<rect fill="none" height="24" stroke="#405C86" stroke-width="3" width="96" x="2682.5" y="18.5" />
<rect fill="#DEE6F1" height="24" width="46.5" x="2611.25" y="18.5" />
<rect fill="none" height="24" stroke="#405C86" stroke-width="3" width="96" x="2586.5" y="18.5" />
<rect fill="#DEE6F1" height="24" width="46.5" x="2515.25" y="18.5" />
<rect fill="none" height="24" stroke="#405C86" stroke-width="3" width="96" x="2490.5" y="18.5" />
<rect fill="#DEE6F1" height="24" width="46.5" x="2419.25" y="18.5" />
<rect fill="none" height="24" stroke="#405C86" stroke-width="3" width="96" x="2394.5" y="18.5" />
<rect fill="#DEE6F1" height="24" width="46.5" x="2323.25" y="18.5" />
<rect fill="none" height="24" stroke="#405C86" stroke-width="3" width="96" x="2298.5" y="18.5" />
<rect fill="#DEE6F1" height="24" width="46.5" x="2227.25" y="18.5" />
<rect fill="none" height="24" stroke="#405C86" stroke-width="3" width="96" x="2202.5" y="18.5" />
<rect fill="#DEE6F1" height="24" width="46.5" x="2131.25" y="18.5" />
<rect fill="none" height="24" stroke="#405C86" stroke-width="3" width="96" x="2106.5" y="18.5" />
<rect fill="#DEE6F1" height="24" width="46.5" x="2035.25" y="18.5" />
<rect fill="none" height="24" stroke="#405C86" stroke-width="3" width="96" x="2010.5" y="18.5" />
<rect fill="#DEE6F1" height="24" width="46.5" x="1939.25" y="18.5" />
<rect fill="none" height="24" stroke="#405C86" stroke-width="3" width="96" x="1914.5" y="18.5" />
<rect fill="#DEE6F1" height="24" width="46.5" x="1843.25" y="18.5" />
<rect fill="none" height="24" stroke="#405C86" stroke-width="3" width="96" x="1818.5" y="18.5" />
<rect fill="#DEE6F1" height="24" width="46.5" x="1747.25" y="18.5" />
<rect fill="none" height="24" stroke="#405C86" stroke-width="3" width="96" x="1722.5" y="18.5" />
<rect fill="#DEE6F1" height="24" width="46.5" x="1651.25" y="18.5" />
<rect fill="none" height="24" stroke="#405C86" stroke-width="3" width="96" x="1626.5" y="18.5" />
<rect fill="#DEE6F1" height="24" width="46.5" x="1555.25" y="18.5" />
<rect fill="none" height="24" stroke="#405C86" stroke-width="3" width="96" x="1530.5" y="18.5" />
<rect fill="#DEE6F1" height="24" width="46.5" x="1459.25" y="18.5" />
<rect fill="none" height="24" stroke="#405C86" stroke-width="3" width="96" x="1434.5" y="18.5" />
<rect fill="#DEE6F1" height="24" width="46.5" x="1363.25" y="18.5" />
<rect fill="none" height="24" stroke="#405C86" stroke-width="3" width="96" x="1338.5" y="18.5" />
<rect fill="#DEE6F1" height="24" width="46.5" x="1267.25" y="18.5" />
<rect fill="none" height="24" stroke="#405C86" stroke-width="3" width="96" x="1242.5" y="18.5" />
<rect fill="#DEE6F1" height="24" width="46.5" x="1171.25" y="18.5" />
<rect fill="none" height="24" stroke="#405C86" stroke-width="3" width="96" x="1146.5" y="18.5" />
<rect fill="#DEE6F1" height="24" width="46.5" x="1075.25" y="18.5" />
<rect fill="none" height="24" stroke="#405C86" stroke-width="3" width="96" x="1050.5" y="18.5" />
<rect fill="#DEE6F1" height="24" width="46.5" x="979.25" y="18.5" />
<rect fill="none" height="24" stroke="#405C86" stroke-width="3" width="96" x="954.5" y="18.5" />
<rect fill="#DEE6F1" height="24" width="46.5" x="883.25" y="18.5" />
<rect fill="none" height="24" stroke="#405C86" stroke-width="3" width="96" x="858.5" y="18.5" />
<rect fill="#DEE6F1" height="24" width="46.5" x="787.25" y="18.5" />
<rect fill="none" height="24" stroke="#405C86" stroke-width="3" width="96" x="762.5" y="18.5" />
<rect fill="#DEE6F1" height="24" width="46.5" x="691.25" y="18.5" />
<rect fill="none" height="24" stroke="#405C86" stroke-width="3" width="96" x="666.5" y="18.5" />
<rect fill="#DEE6F1" height="24" width="46.5" x="595.25" y="18.5" />
<rect fill="none" height="24" stroke="#405C86" stroke-width="3" width="96" x="570.5" y="18.5" />
<rect fill="#DEE6F1" height="24" width="46.5" x="499.25" y="18.5" />
<rect fill="none" height="24" stroke="#405C86" stroke-width="3" width="96" x="474.5" y="18.5" />
<rect fill="#DEE6F1" height="24" width="46.5" x="403.25" y="18.5" />
<rect fill="none" height="24" stroke="#405C86" stroke-width="3" width="96" x="378.5" y="18.5" />
<rect fill="#DEE6F1" height="24" width="46.5" x="307.25" y="18.5" />
<rect fill="none" height="24" stroke="#405C86" stroke-width="3" width="96" x="282.5" y="18.5" />
<rect fill="#DEE6F1" height="24" width="46.5" x="211.25" y="18.5" />
<rect fill="none" height="24" stroke="#405C86" stroke-width="3" width="96" x="186.5" y="18.5" />
<rect fill="#DEE6F1" height="24" width="46.5" x="115.25" y="18.5" />
<rect fill="none" height="24" stroke="#405C86" stroke-width="3" width="96" x="90.5" y="18.5" />
<text class="register-name" x="80.5" y="30.5">Zn</text>
<text class="intrinsic-name" x="80.5" y="42.5">op1</text>
<text class="register-number" x="10" y="30.5">(1)</text>
<rect fill="#DEE6F1" height="24" width="48" x="3114.5" y="66.5" />
<rect fill="none" height="24" stroke="#405C86" stroke-width="3" width="48" x="3114.5" y="66.5" />
<rect fill="none" height="24" stroke="#405C86" stroke-dasharray="3 1" stroke-dashoffset="1.5" stroke-width="1" width="48" x="3066.5" y="66.5" />
<text class="label unused" x="3090.5" y="79.5"></text>
<rect fill="#DEE6F1" height="24" width="48" x="3018.5" y="66.5" />
<rect fill="none" height="24" stroke="#405C86" stroke-width="3" width="48" x="3018.5" y="66.5" />
<rect fill="none" height="24" stroke="#405C86" stroke-dasharray="3 1" stroke-dashoffset="1.5" stroke-width="1" width="48" x="2970.5" y="66.5" />
<text class="label unused" x="2994.5" y="79.5"></text>
<rect fill="#DEE6F1" height="24" width="48" x="2922.5" y="66.5" />
<rect fill="none" height="24" stroke="#405C86" stroke-width="3" width="48" x="2922.5" y="66.5" />
<rect fill="none" height="24" stroke="#405C86" stroke-dasharray="3 1" stroke-dashoffset="1.5" stroke-width="1" width="48" x="2874.5" y="66.5" />
<text class="label unused" x="2898.5" y="79.5"></text>
<rect fill="#DEE6F1" height="24" width="48" x="2826.5" y="66.5" />
<rect fill="none" height="24" stroke="#405C86" stroke-width="3" width="48" x="2826.5" y="66.5" />
<rect fill="none" height="24" stroke="#405C86" stroke-dasharray="3 1" stroke-dashoffset="1.5" stroke-width="1" width="48" x="2778.5" y="66.5" />
<text class="label unused" x="2802.5" y="79.5"></text>
<rect fill="#DEE6F1" height="24" width="48" x="2730.5" y="66.5" />
<rect fill="none" height="24" stroke="#405C86" stroke-width="3" width="48" x="2730.5" y="66.5" />
<rect fill="none" height="24" stroke="#405C86" stroke-dasharray="3 1" stroke-dashoffset="1.5" stroke-width="1" width="48" x="2682.5" y="66.5" />
<text class="label unused" x="2706.5" y="79.5"></text>
<rect fill="#DEE6F1" height="24" width="48" x="2634.5" y="66.5" />
<rect fill="none" height="24" stroke="#405C86" stroke-width="3" width="48" x="2634.5" y="66.5" />
<rect fill="none" height="24" stroke="#405C86" stroke-dasharray="3 1" stroke-dashoffset="1.5" stroke-width="1" width="48" x="2586.5" y="66.5" />
<text class="label unused" x="2610.5" y="79.5"></text>
<rect fill="#DEE6F1" height="24" width="48" x="2538.5" y="66.5" />
<rect fill="none" height="24" stroke="#405C86" stroke-width="3" width="48" x="2538.5" y="66.5" />
<rect fill="none" height="24" stroke="#405C86" stroke-dasharray="3 1" stroke-dashoffset="1.5" stroke-width="1" width="48" x="2490.5" y="66.5" />
<text class="label unused" x="2514.5" y="79.5"></text>
<rect fill="#DEE6F1" height="24" width="48" x="2442.5" y="66.5" />
<rect fill="none" height="24" stroke="#405C86" stroke-width="3" width="48" x="2442.5" y="66.5" />
<rect fill="none" height="24" stroke="#405C86" stroke-dasharray="3 1" stroke-dashoffset="1.5" stroke-width="1" width="48" x="2394.5" y="66.5" />
<text class="label unused" x="2418.5" y="79.5"></text>
<rect fill="#DEE6F1" height="24" width="48" x="2346.5" y="66.5" />
<rect fill="none" height="24" stroke="#405C86" stroke-width="3" width="48" x="2346.5" y="66.5" />
<rect fill="none" height="24" stroke="#405C86" stroke-dasharray="3 1" stroke-dashoffset="1.5" stroke-width="1" width="48" x="2298.5" y="66.5" />
<text class="label unused" x="2322.5" y="79.5"></text>
<rect fill="#DEE6F1" height="24" width="48" x="2250.5" y="66.5" />
<rect fill="none" height="24" stroke="#405C86" stroke-width="3" width="48" x="2250.5" y="66.5" />
<rect fill="none" height="24" stroke="#405C86" stroke-dasharray="3 1" stroke-dashoffset="1.5" stroke-width="1" width="48" x="2202.5" y="66.5" />
<text class="label unused" x="2226.5" y="79.5"></text>
<rect fill="#DEE6F1" height="24" width="48" x="2154.5" y="66.5" />
<rect fill="none" height="24" stroke="#405C86" stroke-width="3" width="48" x="2154.5" y="66.5" />
<rect fill="none" height="24" stroke="#405C86" stroke-dasharray="3 1" stroke-dashoffset="1.5" stroke-width="1" width="48" x="2106.5" y="66.5" />
<text class="label unused" x="2130.5" y="79.5"></text>
<rect fill="#DEE6F1" height="24" width="48" x="2058.5" y="66.5" />
<rect fill="none" height="24" stroke="#405C86" stroke-width="3" width="48" x="2058.5" y="66.5" />
<rect fill="none" height="24" stroke="#405C86" stroke-dasharray="3 1" stroke-dashoffset="1.5" stroke-width="1" width="48" x="2010.5" y="66.5" />
<text class="label unused" x="2034.5" y="79.5"></text>
<rect fill="#DEE6F1" height="24" width="48" x="1962.5" y="66.5" />
<rect fill="none" height="24" stroke="#405C86" stroke-width="3" width="48" x="1962.5" y="66.5" />
<rect fill="none" height="24" stroke="#405C86" stroke-dasharray="3 1" stroke-dashoffset="1.5" stroke-width="1" width="48" x="1914.5" y="66.5" />
<text class="label unused" x="1938.5" y="79.5"></text>
<rect fill="#DEE6F1" height="24" width="48" x="1866.5" y="66.5" />
<rect fill="none" height="24" stroke="#405C86" stroke-width="3" width="48" x="1866.5" y="66.5" />
<rect fill="none" height="24" stroke="#405C86" stroke-dasharray="3 1" stroke-dashoffset="1.5" stroke-width="1" width="48" x="1818.5" y="66.5" />
<text class="label unused" x="1842.5" y="79.5"></text>
<rect fill="#DEE6F1" height="24" width="48" x="1770.5" y="66.5" />
<rect fill="none" height="24" stroke="#405C86" stroke-width="3" width="48" x="1770.5" y="66.5" />
<rect fill="none" height="24" stroke="#405C86" stroke-dasharray="3 1" stroke-dashoffset="1.5" stroke-width="1" width="48" x="1722.5" y="66.5" />
<text class="label unused" x="1746.5" y="79.5"></text>
<rect fill="#DEE6F1" height="24" width="48" x="1674.5" y="66.5" />
<rect fill="none" height="24" stroke="#405C86" stroke-width="3" width="48" x="1674.5" y="66.5" />
<rect fill="none" height="24" stroke="#405C86" stroke-dasharray="3 1" stroke-dashoffset="1.5" stroke-width="1" width="48" x="1626.5" y="66.5" />
<text class="label unused" x="1650.5" y="79.5"></text>
<rect fill="#DEE6F1" height="24" width="48" x="1578.5" y="66.5" />
<rect fill="none" height="24" stroke="#405C86" stroke-width="3" width="48" x="1578.5" y="66.5" />
<rect fill="none" height="24" stroke="#405C86" stroke-dasharray="3 1" stroke-dashoffset="1.5" stroke-width="1" width="48" x="1530.5" y="66.5" />
<text class="label unused" x="1554.5" y="79.5"></text>
<rect fill="#DEE6F1" height="24" width="48" x="1482.5" y="66.5" />
<rect fill="none" height="24" stroke="#405C86" stroke-width="3" width="48" x="1482.5" y="66.5" />
<rect fill="none" height="24" stroke="#405C86" stroke-dasharray="3 1" stroke-dashoffset="1.5" stroke-width="1" width="48" x="1434.5" y="66.5" />
<text class="label unused" x="1458.5" y="79.5"></text>
<rect fill="#DEE6F1" height="24" width="48" x="1386.5" y="66.5" />
<rect fill="none" height="24" stroke="#405C86" stroke-width="3" width="48" x="1386.5" y="66.5" />
<rect fill="none" height="24" stroke="#405C86" stroke-dasharray="3 1" stroke-dashoffset="1.5" stroke-width="1" width="48" x="1338.5" y="66.5" />
<text class="label unused" x="1362.5" y="79.5"></text>
<rect fill="#DEE6F1" height="24" width="48" x="1290.5" y="66.5" />
<rect fill="none" height="24" stroke="#405C86" stroke-width="3" width="48" x="1290.5" y="66.5" />
<rect fill="none" height="24" stroke="#405C86" stroke-dasharray="3 1" stroke-dashoffset="1.5" stroke-width="1" width="48" x="1242.5" y="66.5" />
<text class="label unused" x="1266.5" y="79.5"></text>
<rect fill="#DEE6F1" height="24" width="48" x="1194.5" y="66.5" />
<rect fill="none" height="24" stroke="#405C86" stroke-width="3" width="48" x="1194.5" y="66.5" />
<rect fill="none" height="24" stroke="#405C86" stroke-dasharray="3 1" stroke-dashoffset="1.5" stroke-width="1" width="48" x="1146.5" y="66.5" />
<text class="label unused" x="1170.5" y="79.5"></text>
<rect fill="#DEE6F1" height="24" width="48" x="1098.5" y="66.5" />
<rect fill="none" height="24" stroke="#405C86" stroke-width="3" width="48" x="1098.5" y="66.5" />
<rect fill="none" height="24" stroke="#405C86" stroke-dasharray="3 1" stroke-dashoffset="1.5" stroke-width="1" width="48" x="1050.5" y="66.5" />
<text class="label unused" x="1074.5" y="79.5"></text>
<rect fill="#DEE6F1" height="24" width="48" x="1002.5" y="66.5" />
<rect fill="none" height="24" stroke="#405C86" stroke-width="3" width="48" x="1002.5" y="66.5" />
<rect fill="none" height="24" stroke="#405C86" stroke-dasharray="3 1" stroke-dashoffset="1.5" stroke-width="1" width="48" x="954.5" y="66.5" />
<text class="label unused" x="978.5" y="79.5"></text>
<rect fill="#DEE6F1" height="24" width="48" x="906.5" y="66.5" />
<rect fill="none" height="24" stroke="#405C86" stroke-width="3" width="48" x="906.5" y="66.5" />
<rect fill="none" height="24" stroke="#405C86" stroke-dasharray="3 1" stroke-dashoffset="1.5" stroke-width="1" width="48" x="858.5" y="66.5" />
<text class="label unused" x="882.5" y="79.5"></text>
<rect fill="#DEE6F1" height="24" width="48" x="810.5" y="66.5" />
<rect fill="none" height="24" stroke="#405C86" stroke-width="3" width="48" x="810.5" y="66.5" />
<rect fill="none" height="24" stroke="#405C86" stroke-dasharray="3 1" stroke-dashoffset="1.5" stroke-width="1" width="48" x="762.5" y="66.5" />
<text class="label unused" x="786.5" y="79.5"></text>
<rect fill="#DEE6F1" height="24" width="48" x="714.5" y="66.5" />
<rect fill="none" height="24" stroke="#405C86" stroke-width="3" width="48" x="714.5" y="66.5" />
<rect fill="none" height="24" stroke="#405C86" stroke-dasharray="3 1" stroke-dashoffset="1.5" stroke-width="1" width="48" x="666.5" y="66.5" />
<text class="label unused" x="690.5" y="79.5"></text>
<rect fill="#DEE6F1" height="24" width="48" x="618.5" y="66.5" />
<rect fill="none" height="24" stroke="#405C86" stroke-width="3" width="48" x="618.5" y="66.5" />
<rect fill="none" height="24" stroke="#405C86" stroke-dasharray="3 1" stroke-dashoffset="1.5" stroke-width="1" width="48" x="570.5" y="66.5" />
<text class="label unused" x="594.5" y="79.5"></text>
<rect fill="#DEE6F1" height="24" width="48" x="522.5" y="66.5" />
<rect fill="none" height="24" stroke="#405C86" stroke-width="3" width="48" x="522.5" y="66.5" />
<rect fill="none" height="24" stroke="#405C86" stroke-dasharray="3 1" stroke-dashoffset="1.5" stroke-width="1" width="48" x="474.5" y="66.5" />
<text class="label unused" x="498.5" y="79.5"></text>
<rect fill="#DEE6F1" height="24" width="48" x="426.5" y="66.5" />
<rect fill="none" height="24" stroke="#405C86" stroke-width="3" width="48" x="426.5" y="66.5" />
<rect fill="none" height="24" stroke="#405C86" stroke-dasharray="3 1" stroke-dashoffset="1.5" stroke-width="1" width="48" x="378.5" y="66.5" />
<text class="label unused" x="402.5" y="79.5"></text>
<rect fill="#DEE6F1" height="24" width="48" x="330.5" y="66.5" />
<rect fill="none" height="24" stroke="#405C86" stroke-width="3" width="48" x="330.5" y="66.5" />
<rect fill="none" height="24" stroke="#405C86" stroke-dasharray="3 1" stroke-dashoffset="1.5" stroke-width="1" width="48" x="282.5" y="66.5" />
<text class="label unused" x="306.5" y="79.5"></text>
<rect fill="#DEE6F1" height="24" width="48" x="234.5" y="66.5" />
<rect fill="none" height="24" stroke="#405C86" stroke-width="3" width="48" x="234.5" y="66.5" />
<rect fill="none" height="24" stroke="#405C86" stroke-dasharray="3 1" stroke-dashoffset="1.5" stroke-width="1" width="48" x="186.5" y="66.5" />
<text class="label unused" x="210.5" y="79.5"></text>
<rect fill="#DEE6F1" height="24" width="48" x="138.5" y="66.5" />
<rect fill="none" height="24" stroke="#405C86" stroke-width="3" width="48" x="138.5" y="66.5" />
<rect fill="none" height="24" stroke="#405C86" stroke-dasharray="3 1" stroke-dashoffset="1.5" stroke-width="1" width="48" x="90.5" y="66.5" />
<text class="label unused" x="114.5" y="79.5"></text>
<text class="register-name" x="80.5" y="78.5">Zd</text>
<text class="intrinsic-name" x="80.5" y="90.5">even</text>
<text class="register-number" x="10" y="78.5">(2)</text>
<rect fill="#DEE6F1" height="24" width="48" x="3114.5" y="138.5" />
<rect fill="none" height="24" stroke="#405C86" stroke-width="3" width="48" x="3114.5" y="138.5" />
<rect fill="#DEE6F1" height="24" width="48" x="3066.5" y="138.5" />
<rect fill="none" height="24" stroke="#405C86" stroke-width="3" width="48" x="3066.5" y="138.5" />
<rect fill="#DEE6F1" height="24" width="48" x="3018.5" y="138.5" />
<rect fill="none" height="24" stroke="#405C86" stroke-width="3" width="48" x="3018.5" y="138.5" />
<rect fill="#DEE6F1" height="24" width="48" x="2970.5" y="138.5" />
<rect fill="none" height="24" stroke="#405C86" stroke-width="3" width="48" x="2970.5" y="138.5" />
<rect fill="#DEE6F1" height="24" width="48" x="2922.5" y="138.5" />
<rect fill="none" height="24" stroke="#405C86" stroke-width="3" width="48" x="2922.5" y="138.5" />
<rect fill="#DEE6F1" height="24" width="48" x="2874.5" y="138.5" />
<rect fill="none" height="24" stroke="#405C86" stroke-width="3" width="48" x="2874.5" y="138.5" />
<rect fill="#DEE6F1" height="24" width="48" x="2826.5" y="138.5" />
<rect fill="none" height="24" stroke="#405C86" stroke-width="3" width="48" x="2826.5" y="138.5" />
<rect fill="#DEE6F1" height="24" width="48" x="2778.5" y="138.5" />
<rect fill="none" height="24" stroke="#405C86" stroke-width="3" width="48" x="2778.5" y="138.5" />
<rect fill="#DEE6F1" height="24" width="48" x="2730.5" y="138.5" />
<rect fill="none" height="24" stroke="#405C86" stroke-width="3" width="48" x="2730.5" y="138.5" />
<rect fill="#DEE6F1" height="24" width="48" x="2682.5" y="138.5" />
<rect fill="none" height="24" stroke="#405C86" stroke-width="3" width="48" x="2682.5" y="138.5" />
<rect fill="#DEE6F1" height="24" width="48" x="2634.5" y="138.5" />
<rect fill="none" height="24" stroke="#405C86" stroke-width="3" width="48" x="2634.5" y="138.5" />
<rect fill="#DEE6F1" height="24" width="48" x="2586.5" y="138.5" />
<rect fill="none" height="24" stroke="#405C86" stroke-width="3" width="48" x="2586.5" y="138.5" />
<rect fill="#DEE6F1" height="24" width="48" x="2538.5" y="138.5" />
<rect fill="none" height="24" stroke="#405C86" stroke-width="3" width="48" x="2538.5" y="138.5" />
<rect fill="#DEE6F1" height="24" width="48" x="2490.5" y="138.5" />
<rect fill="none" height="24" stroke="#405C86" stroke-width="3" width="48" x="2490.5" y="138.5" />
<rect fill="#DEE6F1" height="24" width="48" x="2442.5" y="138.5" />
<rect fill="none" height="24" stroke="#405C86" stroke-width="3" width="48" x="2442.5" y="138.5" />
<rect fill="#DEE6F1" height="24" width="48" x="2394.5" y="138.5" />
<rect fill="none" height="24" stroke="#405C86" stroke-width="3" width="48" x="2394.5" y="138.5" />
<rect fill="#DEE6F1" height="24" width="48" x="2346.5" y="138.5" />
<rect fill="none" height="24" stroke="#405C86" stroke-width="3" width="48" x="2346.5" y="138.5" />
<rect fill="#DEE6F1" height="24" width="48" x="2298.5" y="138.5" />
<rect fill="none" height="24" stroke="#405C86" stroke-width="3" width="48" x="2298.5" y="138.5" />
<rect fill="#DEE6F1" height="24" width="48" x="2250.5" y="138.5" />
<rect fill="none" height="24" stroke="#405C86" stroke-width="3" width="48" x="2250.5" y="138.5" />
<rect fill="#DEE6F1" height="24" width="48" x="2202.5" y="138.5" />
<rect fill="none" height="24" stroke="#405C86" stroke-width="3" width="48" x="2202.5" y="138.5" />
<rect fill="#DEE6F1" height="24" width="48" x="2154.5" y="138.5" />
<rect fill="none" height="24" stroke="#405C86" stroke-width="3" width="48" x="2154.5" y="138.5" />
<rect fill="#DEE6F1" height="24" width="48" x="2106.5" y="138.5" />
<rect fill="none" height="24" stroke="#405C86" stroke-width="3" width="48" x="2106.5" y="138.5" />
<rect fill="#DEE6F1" height="24" width="48" x="2058.5" y="138.5" />
<rect fill="none" height="24" stroke="#405C86" stroke-width="3" width="48" x="2058.5" y="138.5" />
<rect fill="#DEE6F1" height="24" width="48" x="2010.5" y="138.5" />
<rect fill="none" height="24" stroke="#405C86" stroke-width="3" width="48" x="2010.5" y="138.5" />
<rect fill="#DEE6F1" height="24" width="48" x="1962.5" y="138.5" />
<rect fill="none" height="24" stroke="#405C86" stroke-width="3" width="48" x="1962.5" y="138.5" />
<rect fill="#DEE6F1" height="24" width="48" x="1914.5" y="138.5" />
<rect fill="none" height="24" stroke="#405C86" stroke-width="3" width="48" x="1914.5" y="138.5" />
<rect fill="#DEE6F1" height="24" width="48" x="1866.5" y="138.5" />
<rect fill="none" height="24" stroke="#405C86" stroke-width="3" width="48" x="1866.5" y="138.5" />
<rect fill="#DEE6F1" height="24" width="48" x="1818.5" y="138.5" />
<rect fill="none" height="24" stroke="#405C86" stroke-width="3" width="48" x="1818.5" y="138.5" />
<rect fill="#DEE6F1" height="24" width="48" x="1770.5" y="138.5" />
<rect fill="none" height="24" stroke="#405C86" stroke-width="3" width="48" x="1770.5" y="138.5" />
<rect fill="#DEE6F1" height="24" width="48" x="1722.5" y="138.5" />
<rect fill="none" height="24" stroke="#405C86" stroke-width="3" width="48" x="1722.5" y="138.5" />
<rect fill="#DEE6F1" height="24" width="48" x="1674.5" y="138.5" />
<rect fill="none" height="24" stroke="#405C86" stroke-width="3" width="48" x="1674.5" y="138.5" />
<rect fill="#DEE6F1" height="24" width="48" x="1626.5" y="138.5" />
<rect fill="none" height="24" stroke="#405C86" stroke-width="3" width="48" x="1626.5" y="138.5" />
<rect fill="#DEE6F1" height="24" width="48" x="1578.5" y="138.5" />
<rect fill="none" height="24" stroke="#405C86" stroke-width="3" width="48" x="1578.5" y="138.5" />
<rect fill="#DEE6F1" height="24" width="48" x="1530.5" y="138.5" />
<rect fill="none" height="24" stroke="#405C86" stroke-width="3" width="48" x="1530.5" y="138.5" />
<rect fill="#DEE6F1" height="24" width="48" x="1482.5" y="138.5" />
<rect fill="none" height="24" stroke="#405C86" stroke-width="3" width="48" x="1482.5" y="138.5" />
<rect fill="#DEE6F1" height="24" width="48" x="1434.5" y="138.5" />
<rect fill="none" height="24" stroke="#405C86" stroke-width="3" width="48" x="1434.5" y="138.5" />
<rect fill="#DEE6F1" height="24" width="48" x="1386.5" y="138.5" />
<rect fill="none" height="24" stroke="#405C86" stroke-width="3" width="48" x="1386.5" y="138.5" />
<rect fill="#DEE6F1" height="24" width="48" x="1338.5" y="138.5" />
<rect fill="none" height="24" stroke="#405C86" stroke-width="3" width="48" x="1338.5" y="138.5" />
<rect fill="#DEE6F1" height="24" width="48" x="1290.5" y="138.5" />
<rect fill="none" height="24" stroke="#405C86" stroke-width="3" width="48" x="1290.5" y="138.5" />
<rect fill="#DEE6F1" height="24" width="48" x="1242.5" y="138.5" />
<rect fill="none" height="24" stroke="#405C86" stroke-width="3" width="48" x="1242.5" y="138.5" />
<rect fill="#DEE6F1" height="24" width="48" x="1194.5" y="138.5" />
<rect fill="none" height="24" stroke="#405C86" stroke-width="3" width="48" x="1194.5" y="138.5" />
<rect fill="#DEE6F1" height="24" width="48" x="1146.5" y="138.5" />
<rect fill="none" height="24" stroke="#405C86" stroke-width="3" width="48" x="1146.5" y="138.5" />
<rect fill="#DEE6F1" height="24" width="48" x="1098.5" y="138.5" />
<rect fill="none" height="24" stroke="#405C86" stroke-width="3" width="48" x="1098.5" y="138.5" />
<rect fill="#DEE6F1" height="24" width="48" x="1050.5" y="138.5" />
<rect fill="none" height="24" stroke="#405C86" stroke-width="3" width="48" x="1050.5" y="138.5" />
<rect fill="#DEE6F1" height="24" width="48" x="1002.5" y="138.5" />
<rect fill="none" height="24" stroke="#405C86" stroke-width="3" width="48" x="1002.5" y="138.5" />
<rect fill="#DEE6F1" height="24" width="48" x="954.5" y="138.5" />
<rect fill="none" height="24" stroke="#405C86" stroke-width="3" width="48" x="954.5" y="138.5" />
<rect fill="#DEE6F1" height="24" width="48" x="906.5" y="138.5" />
<rect fill="none" height="24" stroke="#405C86" stroke-width="3" width="48" x="906.5" y="138.5" />
<rect fill="#DEE6F1" height="24" width="48" x="858.5" y="138.5" />
<rect fill="none" height="24" stroke="#405C86" stroke-width="3" width="48" x="858.5" y="138.5" />
<rect fill="#DEE6F1" height="24" width="48" x="810.5" y="138.5" />
<rect fill="none" height="24" stroke="#405C86" stroke-width="3" width="48" x="810.5" y="138.5" />
<rect fill="#DEE6F1" height="24" width="48" x="762.5" y="138.5" />
<rect fill="none" height="24" stroke="#405C86" stroke-width="3" width="48" x="762.5" y="138.5" />
<rect fill="#DEE6F1" height="24" width="48" x="714.5" y="138.5" />
<rect fill="none" height="24" stroke="#405C86" stroke-width="3" width="48" x="714.5" y="138.5" />
<rect fill="#DEE6F1" height="24" width="48" x="666.5" y="138.5" />
<rect fill="none" height="24" stroke="#405C86" stroke-width="3" width="48" x="666.5" y="138.5" />
<rect fill="#DEE6F1" height="24" width="48" x="618.5" y="138.5" />
<rect fill="none" height="24" stroke="#405C86" stroke-width="3" width="48" x="618.5" y="138.5" />
<rect fill="#DEE6F1" height="24" width="48" x="570.5" y="138.5" />
<rect fill="none" height="24" stroke="#405C86" stroke-width="3" width="48" x="570.5" y="138.5" />
<rect fill="#DEE6F1" height="24" width="48" x="522.5" y="138.5" />
<rect fill="none" height="24" stroke="#405C86" stroke-width="3" width="48" x="522.5" y="138.5" />
<rect fill="#DEE6F1" height="24" width="48" x="474.5" y="138.5" />
<rect fill="none" height="24" stroke="#405C86" stroke-width="3" width="48" x="474.5" y="138.5" />
<rect fill="#DEE6F1" height="24" width="48" x="426.5" y="138.5" />
<rect fill="none" height="24" stroke="#405C86" stroke-width="3" width="48" x="426.5" y="138.5" />
<rect fill="#DEE6F1" height="24" width="48" x="378.5" y="138.5" />
<rect fill="none" height="24" stroke="#405C86" stroke-width="3" width="48" x="378.5" y="138.5" />
<rect fill="#DEE6F1" height="24" width="48" x="330.5" y="138.5" />
<rect fill="none" height="24" stroke="#405C86" stroke-width="3" width="48" x="330.5" y="138.5" />
<rect fill="#DEE6F1" height="24" width="48" x="282.5" y="138.5" />
<rect fill="none" height="24" stroke="#405C86" stroke-width="3" width="48" x="282.5" y="138.5" />
<rect fill="#DEE6F1" height="24" width="48" x="234.5" y="138.5" />
<rect fill="none" height="24" stroke="#405C86" stroke-width="3" width="48" x="234.5" y="138.5" />
<rect fill="#DEE6F1" height="24" width="48" x="186.5" y="138.5" />
<rect fill="none" height="24" stroke="#405C86" stroke-width="3" width="48" x="186.5" y="138.5" />
<rect fill="#DEE6F1" height="24" width="48" x="138.5" y="138.5" />
<rect fill="none" height="24" stroke="#405C86" stroke-width="3" width="48" x="138.5" y="138.5" />
<rect fill="#DEE6F1" height="24" width="48" x="90.5" y="138.5" />
<rect fill="none" height="24" stroke="#405C86" stroke-width="3" width="48" x="90.5" y="138.5" />
<text class="register-name" x="80.5" y="150.5">Zd</text>
<text class="intrinsic-name" x="80.5" y="162.5">returns</text>
<text class="register-number" x="10" y="150.5">(2)</text>
<polyline fill="none" points="3093.5 43.5,3095.5 47.5,3113.5 47.5,3114.5 49.5,3114.5 53.5,3114.5 49.5,3115.5 47.5,3133.5 47.5,3135.5 43.5" stroke="#567DB6" stroke-width="1" />
<line stroke="#567DB6" stroke-width="1" x1="3114.5" x2="3090.5" y1="53.5" y2="137" />
<polyline fill="none" points="2997.5 43.5,2999.5 47.5,3017.5 47.5,3018.5 49.5,3018.5 53.5,3018.5 49.5,3019.5 47.5,3037.5 47.5,3039.5 43.5" stroke="#567DB6" stroke-width="1" />
<line stroke="#567DB6" stroke-width="1" x1="3018.5" x2="2994.5" y1="53.5" y2="137" />
<polyline fill="none" points="2901.5 43.5,2903.5 47.5,2921.5 47.5,2922.5 49.5,2922.5 53.5,2922.5 49.5,2923.5 47.5,2941.5 47.5,2943.5 43.5" stroke="#567DB6" stroke-width="1" />
<line stroke="#567DB6" stroke-width="1" x1="2922.5" x2="2898.5" y1="53.5" y2="137" />
<polyline fill="none" points="2805.5 43.5,2807.5 47.5,2825.5 47.5,2826.5 49.5,2826.5 53.5,2826.5 49.5,2827.5 47.5,2845.5 47.5,2847.5 43.5" stroke="#567DB6" stroke-width="1" />
<line stroke="#567DB6" stroke-width="1" x1="2826.5" x2="2802.5" y1="53.5" y2="137" />
<polyline fill="none" points="2709.5 43.5,2711.5 47.5,2729.5 47.5,2730.5 49.5,2730.5 53.5,2730.5 49.5,2731.5 47.5,2749.5 47.5,2751.5 43.5" stroke="#567DB6" stroke-width="1" />
<line stroke="#567DB6" stroke-width="1" x1="2730.5" x2="2706.5" y1="53.5" y2="137" />
<polyline fill="none" points="2613.5 43.5,2615.5 47.5,2633.5 47.5,2634.5 49.5,2634.5 53.5,2634.5 49.5,2635.5 47.5,2653.5 47.5,2655.5 43.5" stroke="#567DB6" stroke-width="1" />
<line stroke="#567DB6" stroke-width="1" x1="2634.5" x2="2610.5" y1="53.5" y2="137" />
<polyline fill="none" points="2517.5 43.5,2519.5 47.5,2537.5 47.5,2538.5 49.5,2538.5 53.5,2538.5 49.5,2539.5 47.5,2557.5 47.5,2559.5 43.5" stroke="#567DB6" stroke-width="1" />
<line stroke="#567DB6" stroke-width="1" x1="2538.5" x2="2514.5" y1="53.5" y2="137" />
<polyline fill="none" points="2421.5 43.5,2423.5 47.5,2441.5 47.5,2442.5 49.5,2442.5 53.5,2442.5 49.5,2443.5 47.5,2461.5 47.5,2463.5 43.5" stroke="#567DB6" stroke-width="1" />
<line stroke="#567DB6" stroke-width="1" x1="2442.5" x2="2418.5" y1="53.5" y2="137" />
<polyline fill="none" points="2325.5 43.5,2327.5 47.5,2345.5 47.5,2346.5 49.5,2346.5 53.5,2346.5 49.5,2347.5 47.5,2365.5 47.5,2367.5 43.5" stroke="#567DB6" stroke-width="1" />
<line stroke="#567DB6" stroke-width="1" x1="2346.5" x2="2322.5" y1="53.5" y2="137" />
<polyline fill="none" points="2229.5 43.5,2231.5 47.5,2249.5 47.5,2250.5 49.5,2250.5 53.5,2250.5 49.5,2251.5 47.5,2269.5 47.5,2271.5 43.5" stroke="#567DB6" stroke-width="1" />
<line stroke="#567DB6" stroke-width="1" x1="2250.5" x2="2226.5" y1="53.5" y2="137" />
<polyline fill="none" points="2133.5 43.5,2135.5 47.5,2153.5 47.5,2154.5 49.5,2154.5 53.5,2154.5 49.5,2155.5 47.5,2173.5 47.5,2175.5 43.5" stroke="#567DB6" stroke-width="1" />
<line stroke="#567DB6" stroke-width="1" x1="2154.5" x2="2130.5" y1="53.5" y2="137" />
<polyline fill="none" points="2037.5 43.5,2039.5 47.5,2057.5 47.5,2058.5 49.5,2058.5 53.5,2058.5 49.5,2059.5 47.5,2077.5 47.5,2079.5 43.5" stroke="#567DB6" stroke-width="1" />
<line stroke="#567DB6" stroke-width="1" x1="2058.5" x2="2034.5" y1="53.5" y2="137" />
<polyline fill="none" points="1941.5 43.5,1943.5 47.5,1961.5 47.5,1962.5 49.5,1962.5 53.5,1962.5 49.5,1963.5 47.5,1981.5 47.5,1983.5 43.5" stroke="#567DB6" stroke-width="1" />
<line stroke="#567DB6" stroke-width="1" x1="1962.5" x2="1938.5" y1="53.5" y2="137" />
<polyline fill="none" points="1845.5 43.5,1847.5 47.5,1865.5 47.5,1866.5 49.5,1866.5 53.5,1866.5 49.5,1867.5 47.5,1885.5 47.5,1887.5 43.5" stroke="#567DB6" stroke-width="1" />
<line stroke="#567DB6" stroke-width="1" x1="1866.5" x2="1842.5" y1="53.5" y2="137" />
<polyline fill="none" points="1749.5 43.5,1751.5 47.5,1769.5 47.5,1770.5 49.5,1770.5 53.5,1770.5 49.5,1771.5 47.5,1789.5 47.5,1791.5 43.5" stroke="#567DB6" stroke-width="1" />
<line stroke="#567DB6" stroke-width="1" x1="1770.5" x2="1746.5" y1="53.5" y2="137" />
<polyline fill="none" points="1653.5 43.5,1655.5 47.5,1673.5 47.5,1674.5 49.5,1674.5 53.5,1674.5 49.5,1675.5 47.5,1693.5 47.5,1695.5 43.5" stroke="#567DB6" stroke-width="1" />
<line stroke="#567DB6" stroke-width="1" x1="1674.5" x2="1650.5" y1="53.5" y2="137" />
<polyline fill="none" points="1557.5 43.5,1559.5 47.5,1577.5 47.5,1578.5 49.5,1578.5 53.5,1578.5 49.5,1579.5 47.5,1597.5 47.5,1599.5 43.5" stroke="#567DB6" stroke-width="1" />
<line stroke="#567DB6" stroke-width="1" x1="1578.5" x2="1554.5" y1="53.5" y2="137" />
<polyline fill="none" points="1461.5 43.5,1463.5 47.5,1481.5 47.5,1482.5 49.5,1482.5 53.5,1482.5 49.5,1483.5 47.5,1501.5 47.5,1503.5 43.5" stroke="#567DB6" stroke-width="1" />
<line stroke="#567DB6" stroke-width="1" x1="1482.5" x2="1458.5" y1="53.5" y2="137" />
<polyline fill="none" points="1365.5 43.5,1367.5 47.5,1385.5 47.5,1386.5 49.5,1386.5 53.5,1386.5 49.5,1387.5 47.5,1405.5 47.5,1407.5 43.5" stroke="#567DB6" stroke-width="1" />
<line stroke="#567DB6" stroke-width="1" x1="1386.5" x2="1362.5" y1="53.5" y2="137" />
<polyline fill="none" points="1269.5 43.5,1271.5 47.5,1289.5 47.5,1290.5 49.5,1290.5 53.5,1290.5 49.5,1291.5 47.5,1309.5 47.5,1311.5 43.5" stroke="#567DB6" stroke-width="1" />
<line stroke="#567DB6" stroke-width="1" x1="1290.5" x2="1266.5" y1="53.5" y2="137" />
<polyline fill="none" points="1173.5 43.5,1175.5 47.5,1193.5 47.5,1194.5 49.5,1194.5 53.5,1194.5 49.5,1195.5 47.5,1213.5 47.5,1215.5 43.5" stroke="#567DB6" stroke-width="1" />
<line stroke="#567DB6" stroke-width="1" x1="1194.5" x2="1170.5" y1="53.5" y2="137" />
<polyline fill="none" points="1077.5 43.5,1079.5 47.5,1097.5 47.5,1098.5 49.5,1098.5 53.5,1098.5 49.5,1099.5 47.5,1117.5 47.5,1119.5 43.5" stroke="#567DB6" stroke-width="1" />
<line stroke="#567DB6" stroke-width="1" x1="1098.5" x2="1074.5" y1="53.5" y2="137" />
<polyline fill="none" points="981.5 43.5,983.5 47.5,1001.5 47.5,1002.5 49.5,1002.5 53.5,1002.5 49.5,1003.5 47.5,1021.5 47.5,1023.5 43.5" stroke="#567DB6" stroke-width="1" />
<line stroke="#567DB6" stroke-width="1" x1="1002.5" x2="978.5" y1="53.5" y2="137" />
<polyline fill="none" points="885.5 43.5,887.5 47.5,905.5 47.5,906.5 49.5,906.5 53.5,906.5 49.5,907.5 47.5,925.5 47.5,927.5 43.5" stroke="#567DB6" stroke-width="1" />
<line stroke="#567DB6" stroke-width="1" x1="906.5" x2="882.5" y1="53.5" y2="137" />
<polyline fill="none" points="789.5 43.5,791.5 47.5,809.5 47.5,810.5 49.5,810.5 53.5,810.5 49.5,811.5 47.5,829.5 47.5,831.5 43.5" stroke="#567DB6" stroke-width="1" />
<line stroke="#567DB6" stroke-width="1" x1="810.5" x2="786.5" y1="53.5" y2="137" />
<polyline fill="none" points="693.5 43.5,695.5 47.5,713.5 47.5,714.5 49.5,714.5 53.5,714.5 49.5,715.5 47.5,733.5 47.5,735.5 43.5" stroke="#567DB6" stroke-width="1" />
<line stroke="#567DB6" stroke-width="1" x1="714.5" x2="690.5" y1="53.5" y2="137" />
<polyline fill="none" points="597.5 43.5,599.5 47.5,617.5 47.5,618.5 49.5,618.5 53.5,618.5 49.5,619.5 47.5,637.5 47.5,639.5 43.5" stroke="#567DB6" stroke-width="1" />
<line stroke="#567DB6" stroke-width="1" x1="618.5" x2="594.5" y1="53.5" y2="137" />
<polyline fill="none" points="501.5 43.5,503.5 47.5,521.5 47.5,522.5 49.5,522.5 53.5,522.5 49.5,523.5 47.5,541.5 47.5,543.5 43.5" stroke="#567DB6" stroke-width="1" />
<line stroke="#567DB6" stroke-width="1" x1="522.5" x2="498.5" y1="53.5" y2="137" />
<polyline fill="none" points="405.5 43.5,407.5 47.5,425.5 47.5,426.5 49.5,426.5 53.5,426.5 49.5,427.5 47.5,445.5 47.5,447.5 43.5" stroke="#567DB6" stroke-width="1" />
<line stroke="#567DB6" stroke-width="1" x1="426.5" x2="402.5" y1="53.5" y2="137" />
<polyline fill="none" points="309.5 43.5,311.5 47.5,329.5 47.5,330.5 49.5,330.5 53.5,330.5 49.5,331.5 47.5,349.5 47.5,351.5 43.5" stroke="#567DB6" stroke-width="1" />
<line stroke="#567DB6" stroke-width="1" x1="330.5" x2="306.5" y1="53.5" y2="137" />
<polyline fill="none" points="213.5 43.5,215.5 47.5,233.5 47.5,234.5 49.5,234.5 53.5,234.5 49.5,235.5 47.5,253.5 47.5,255.5 43.5" stroke="#567DB6" stroke-width="1" />
<line stroke="#567DB6" stroke-width="1" x1="234.5" x2="210.5" y1="53.5" y2="137" />
<polyline fill="none" points="117.5 43.5,119.5 47.5,137.5 47.5,138.5 49.5,138.5 53.5,138.5 49.5,139.5 47.5,157.5 47.5,159.5 43.5" stroke="#567DB6" stroke-width="1" />
<line stroke="#567DB6" stroke-width="1" x1="138.5" x2="114.5" y1="53.5" y2="137" />
<line stroke="#567DB6" stroke-width="1" x1="3138.5" x2="3138.5" y1="91.5" y2="137" />
<line stroke="#567DB6" stroke-width="1" x1="3042.5" x2="3042.5" y1="91.5" y2="137" />
<line stroke="#567DB6" stroke-width="1" x1="2946.5" x2="2946.5" y1="91.5" y2="137" />
<line stroke="#567DB6" stroke-width="1" x1="2850.5" x2="2850.5" y1="91.5" y2="137" />
<line stroke="#567DB6" stroke-width="1" x1="2754.5" x2="2754.5" y1="91.5" y2="137" />
<line stroke="#567DB6" stroke-width="1" x1="2658.5" x2="2658.5" y1="91.5" y2="137" />
<line stroke="#567DB6" stroke-width="1" x1="2562.5" x2="2562.5" y1="91.5" y2="137" />
<line stroke="#567DB6" stroke-width="1" x1="2466.5" x2="2466.5" y1="91.5" y2="137" />
<line stroke="#567DB6" stroke-width="1" x1="2370.5" x2="2370.5" y1="91.5" y2="137" />
<line stroke="#567DB6" stroke-width="1" x1="2274.5" x2="2274.5" y1="91.5" y2="137" />
<line stroke="#567DB6" stroke-width="1" x1="2178.5" x2="2178.5" y1="91.5" y2="137" />
<line stroke="#567DB6" stroke-width="1" x1="2082.5" x2="2082.5" y1="91.5" y2="137" />
<line stroke="#567DB6" stroke-width="1" x1="1986.5" x2="1986.5" y1="91.5" y2="137" />
<line stroke="#567DB6" stroke-width="1" x1="1890.5" x2="1890.5" y1="91.5" y2="137" />
<line stroke="#567DB6" stroke-width="1" x1="1794.5" x2="1794.5" y1="91.5" y2="137" />
<line stroke="#567DB6" stroke-width="1" x1="1698.5" x2="1698.5" y1="91.5" y2="137" />
<line stroke="#567DB6" stroke-width="1" x1="1602.5" x2="1602.5" y1="91.5" y2="137" />
<line stroke="#567DB6" stroke-width="1" x1="1506.5" x2="1506.5" y1="91.5" y2="137" />
<line stroke="#567DB6" stroke-width="1" x1="1410.5" x2="1410.5" y1="91.5" y2="137" />
<line stroke="#567DB6" stroke-width="1" x1="1314.5" x2="1314.5" y1="91.5" y2="137" />
<line stroke="#567DB6" stroke-width="1" x1="1218.5" x2="1218.5" y1="91.5" y2="137" />
<line stroke="#567DB6" stroke-width="1" x1="1122.5" x2="1122.5" y1="91.5" y2="137" />
<line stroke="#567DB6" stroke-width="1" x1="1026.5" x2="1026.5" y1="91.5" y2="137" />
<line stroke="#567DB6" stroke-width="1" x1="930.5" x2="930.5" y1="91.5" y2="137" />
<line stroke="#567DB6" stroke-width="1" x1="834.5" x2="834.5" y1="91.5" y2="137" />
<line stroke="#567DB6" stroke-width="1" x1="738.5" x2="738.5" y1="91.5" y2="137" />
<line stroke="#567DB6" stroke-width="1" x1="642.5" x2="642.5" y1="91.5" y2="137" />
<line stroke="#567DB6" stroke-width="1" x1="546.5" x2="546.5" y1="91.5" y2="137" />
<line stroke="#567DB6" stroke-width="1" x1="450.5" x2="450.5" y1="91.5" y2="137" />
<line stroke="#567DB6" stroke-width="1" x1="354.5" x2="354.5" y1="91.5" y2="137" />
<line stroke="#567DB6" stroke-width="1" x1="258.5" x2="258.5" y1="91.5" y2="137" />
<line stroke="#567DB6" stroke-width="1" x1="162.5" x2="162.5" y1="91.5" y2="137" />
<line marker-end="url(#arrowhead)" stroke="none" x1="3114.5" x2="3090.5" y1="53.5" y2="137" />
<line marker-end="url(#arrowhead)" stroke="none" x1="3018.5" x2="2994.5" y1="53.5" y2="137" />
<line marker-end="url(#arrowhead)" stroke="none" x1="2922.5" x2="2898.5" y1="53.5" y2="137" />
<line marker-end="url(#arrowhead)" stroke="none" x1="2826.5" x2="2802.5" y1="53.5" y2="137" />
<line marker-end="url(#arrowhead)" stroke="none" x1="2730.5" x2="2706.5" y1="53.5" y2="137" />
<line marker-end="url(#arrowhead)" stroke="none" x1="2634.5" x2="2610.5" y1="53.5" y2="137" />
<line marker-end="url(#arrowhead)" stroke="none" x1="2538.5" x2="2514.5" y1="53.5" y2="137" />
<line marker-end="url(#arrowhead)" stroke="none" x1="2442.5" x2="2418.5" y1="53.5" y2="137" />
<line marker-end="url(#arrowhead)" stroke="none" x1="2346.5" x2="2322.5" y1="53.5" y2="137" />
<line marker-end="url(#arrowhead)" stroke="none" x1="2250.5" x2="2226.5" y1="53.5" y2="137" />
<line marker-end="url(#arrowhead)" stroke="none" x1="2154.5" x2="2130.5" y1="53.5" y2="137" />
<line marker-end="url(#arrowhead)" stroke="none" x1="2058.5" x2="2034.5" y1="53.5" y2="137" />
<line marker-end="url(#arrowhead)" stroke="none" x1="1962.5" x2="1938.5" y1="53.5" y2="137" />
<line marker-end="url(#arrowhead)" stroke="none" x1="1866.5" x2="1842.5" y1="53.5" y2="137" />
<line marker-end="url(#arrowhead)" stroke="none" x1="1770.5" x2="1746.5" y1="53.5" y2="137" />
<line marker-end="url(#arrowhead)" stroke="none" x1="1674.5" x2="1650.5" y1="53.5" y2="137" />
<line marker-end="url(#arrowhead)" stroke="none" x1="1578.5" x2="1554.5" y1="53.5" y2="137" />
<line marker-end="url(#arrowhead)" stroke="none" x1="1482.5" x2="1458.5" y1="53.5" y2="137" />
<line marker-end="url(#arrowhead)" stroke="none" x1="1386.5" x2="1362.5" y1="53.5" y2="137" />
<line marker-end="url(#arrowhead)" stroke="none" x1="1290.5" x2="1266.5" y1="53.5" y2="137" />
<line marker-end="url(#arrowhead)" stroke="none" x1="1194.5" x2="1170.5" y1="53.5" y2="137" />
<line marker-end="url(#arrowhead)" stroke="none" x1="1098.5" x2="1074.5" y1="53.5" y2="137" />
<line marker-end="url(#arrowhead)" stroke="none" x1="1002.5" x2="978.5" y1="53.5" y2="137" />
<line marker-end="url(#arrowhead)" stroke="none" x1="906.5" x2="882.5" y1="53.5" y2="137" />
<line marker-end="url(#arrowhead)" stroke="none" x1="810.5" x2="786.5" y1="53.5" y2="137" />
<line marker-end="url(#arrowhead)" stroke="none" x1="714.5" x2="690.5" y1="53.5" y2="137" />
<line marker-end="url(#arrowhead)" stroke="none" x1="618.5" x2="594.5" y1="53.5" y2="137" />
<line marker-end="url(#arrowhead)" stroke="none" x1="522.5" x2="498.5" y1="53.5" y2="137" />
<line marker-end="url(#arrowhead)" stroke="none" x1="426.5" x2="402.5" y1="53.5" y2="137" />
<line marker-end="url(#arrowhead)" stroke="none" x1="330.5" x2="306.5" y1="53.5" y2="137" />
<line marker-end="url(#arrowhead)" stroke="none" x1="234.5" x2="210.5" y1="53.5" y2="137" />
<line marker-end="url(#arrowhead)" stroke="none" x1="138.5" x2="114.5" y1="53.5" y2="137" />
<line marker-end="url(#arrowhead)" stroke="none" x1="3138.5" x2="3138.5" y1="91.5" y2="137" />
<line marker-end="url(#arrowhead)" stroke="none" x1="3042.5" x2="3042.5" y1="91.5" y2="137" />
<line marker-end="url(#arrowhead)" stroke="none" x1="2946.5" x2="2946.5" y1="91.5" y2="137" />
<line marker-end="url(#arrowhead)" stroke="none" x1="2850.5" x2="2850.5" y1="91.5" y2="137" />
<line marker-end="url(#arrowhead)" stroke="none" x1="2754.5" x2="2754.5" y1="91.5" y2="137" />
<line marker-end="url(#arrowhead)" stroke="none" x1="2658.5" x2="2658.5" y1="91.5" y2="137" />
<line marker-end="url(#arrowhead)" stroke="none" x1="2562.5" x2="2562.5" y1="91.5" y2="137" />
<line marker-end="url(#arrowhead)" stroke="none" x1="2466.5" x2="2466.5" y1="91.5" y2="137" />
<line marker-end="url(#arrowhead)" stroke="none" x1="2370.5" x2="2370.5" y1="91.5" y2="137" />
<line marker-end="url(#arrowhead)" stroke="none" x1="2274.5" x2="2274.5" y1="91.5" y2="137" />
<line marker-end="url(#arrowhead)" stroke="none" x1="2178.5" x2="2178.5" y1="91.5" y2="137" />
<line marker-end="url(#arrowhead)" stroke="none" x1="2082.5" x2="2082.5" y1="91.5" y2="137" />
<line marker-end="url(#arrowhead)" stroke="none" x1="1986.5" x2="1986.5" y1="91.5" y2="137" />
<line marker-end="url(#arrowhead)" stroke="none" x1="1890.5" x2="1890.5" y1="91.5" y2="137" />
<line marker-end="url(#arrowhead)" stroke="none" x1="1794.5" x2="1794.5" y1="91.5" y2="137" />
<line marker-end="url(#arrowhead)" stroke="none" x1="1698.5" x2="1698.5" y1="91.5" y2="137" />
<line marker-end="url(#arrowhead)" stroke="none" x1="1602.5" x2="1602.5" y1="91.5" y2="137" />
<line marker-end="url(#arrowhead)" stroke="none" x1="1506.5" x2="1506.5" y1="91.5" y2="137" />
<line marker-end="url(#arrowhead)" stroke="none" x1="1410.5" x2="1410.5" y1="91.5" y2="137" />
<line marker-end="url(#arrowhead)" stroke="none" x1="1314.5" x2="1314.5" y1="91.5" y2="137" />
<line marker-end="url(#arrowhead)" stroke="none" x1="1218.5" x2="1218.5" y1="91.5" y2="137" />
<line marker-end="url(#arrowhead)" stroke="none" x1="1122.5" x2="1122.5" y1="91.5" y2="137" />
<line marker-end="url(#arrowhead)" stroke="none" x1="1026.5" x2="1026.5" y1="91.5" y2="137" />
<line marker-end="url(#arrowhead)" stroke="none" x1="930.5" x2="930.5" y1="91.5" y2="137" />
<line marker-end="url(#arrowhead)" stroke="none" x1="834.5" x2="834.5" y1="91.5" y2="137" />
<line marker-end="url(#arrowhead)" stroke="none" x1="738.5" x2="738.5" y1="91.5" y2="137" />
<line marker-end="url(#arrowhead)" stroke="none" x1="642.5" x2="642.5" y1="91.5" y2="137" />
<line marker-end="url(#arrowhead)" stroke="none" x1="546.5" x2="546.5" y1="91.5" y2="137" />
<line marker-end="url(#arrowhead)" stroke="none" x1="450.5" x2="450.5" y1="91.5" y2="137" />
<line marker-end="url(#arrowhead)" stroke="none" x1="354.5" x2="354.5" y1="91.5" y2="137" />
<line marker-end="url(#arrowhead)" stroke="none" x1="258.5" x2="258.5" y1="91.5" y2="137" />
<line marker-end="url(#arrowhead)" stroke="none" x1="162.5" x2="162.5" y1="91.5" y2="137" />
</svg>