<svg xmlns="http://www.w3.org/2000/svg" viewBox="0 0 3174 171">
<style>
.label { font: 14px Helvetica; dominant-baseline: middle; text-anchor: middle; }
.title-left { font: 12px Helvetica; dominant-baseline: middle; }
.title-right { font: 12px Helvetica; dominant-baseline: middle; text-anchor: end; }
.title-intrinsic { font: 12px Helvetica; dominant-baseline: middle; text-anchor: middle; fill: #6778ED; }
.title { font: 12px Helvetica; dominant-baseline: middle; text-anchor: middle; }
.title-unused { font: 12px Helvetica; dominant-baseline: middle; text-anchor: middle; fill: #AAA; }
.register-name { font: 14px Helvetica; dominant-baseline: middle; text-anchor: end; font-style: italic; }
.memory-name { font: 14px Helvetica; dominant-baseline: middle; text-anchor: end; }
.register-number { font: 14px Helvetica; dominant-baseline: middle; text-anchor: start; }
.intrinsic-name { font: 14px Helvetica; dominant-baseline: middle; text-anchor: end; fill: #6778ED; }
.intrinsic-color { fill: #6778ED; }
.small-label { font: 12px Helvetica; dominant-baseline: middle; text-anchor: middle; }
.label-10px { font: 10px Helvetica; dominant-baseline: middle; text-anchor: middle; }
.smaller-label { font: 9px Helvetica; dominant-baseline: middle; text-anchor: middle; }
.label-6px { font: 6px Helvetica; dominant-baseline: middle; text-anchor: middle; }
.label-7px { font: 7px Helvetica; dominant-baseline: middle; text-anchor: middle; }
.unused { fill: #AAA; }
.dim { fill: #888; }
</style>
<defs>
<marker id="arrowhead" markerWidth="10.75" markerHeight="24.5" refX="9.0" refY="6.125" orient="auto">
<polyline points="0.5 0.5, 8.75 6.125, 0.5 11.75" stroke="#567DB6" stroke-width="1" fill="none"/>
</marker>
</defs>
<text class="title-left" x="90.5" y="9.5">upper</text>
<text class="title-right" x="3162.5" y="9.5">lower</text>
<rect fill="#DEE6F1" height="24" width="94.5" x="3019.25" y="18.5" />
<rect fill="none" height="24" stroke="#405C86" stroke-width="3" width="192" x="2970.5" y="18.5" />
<rect fill="#DEE6F1" height="24" width="94.5" x="2827.25" y="18.5" />
<rect fill="none" height="24" stroke="#405C86" stroke-width="3" width="192" x="2778.5" y="18.5" />
<rect fill="#DEE6F1" height="24" width="94.5" x="2635.25" y="18.5" />
<rect fill="none" height="24" stroke="#405C86" stroke-width="3" width="192" x="2586.5" y="18.5" />
<rect fill="#DEE6F1" height="24" width="94.5" x="2443.25" y="18.5" />
<rect fill="none" height="24" stroke="#405C86" stroke-width="3" width="192" x="2394.5" y="18.5" />
<rect fill="#DEE6F1" height="24" width="94.5" x="2251.25" y="18.5" />
<rect fill="none" height="24" stroke="#405C86" stroke-width="3" width="192" x="2202.5" y="18.5" />
<rect fill="#DEE6F1" height="24" width="94.5" x="2059.25" y="18.5" />
<rect fill="none" height="24" stroke="#405C86" stroke-width="3" width="192" x="2010.5" y="18.5" />
<rect fill="#DEE6F1" height="24" width="94.5" x="1867.25" y="18.5" />
<rect fill="none" height="24" stroke="#405C86" stroke-width="3" width="192" x="1818.5" y="18.5" />
<rect fill="#DEE6F1" height="24" width="94.5" x="1675.25" y="18.5" />
<rect fill="none" height="24" stroke="#405C86" stroke-width="3" width="192" x="1626.5" y="18.5" />
<rect fill="#DEE6F1" height="24" width="94.5" x="1483.25" y="18.5" />
<rect fill="none" height="24" stroke="#405C86" stroke-width="3" width="192" x="1434.5" y="18.5" />
<rect fill="#DEE6F1" height="24" width="94.5" x="1291.25" y="18.5" />
<rect fill="none" height="24" stroke="#405C86" stroke-width="3" width="192" x="1242.5" y="18.5" />
<rect fill="#DEE6F1" height="24" width="94.5" x="1099.25" y="18.5" />
<rect fill="none" height="24" stroke="#405C86" stroke-width="3" width="192" x="1050.5" y="18.5" />
<rect fill="#DEE6F1" height="24" width="94.5" x="907.25" y="18.5" />
<rect fill="none" height="24" stroke="#405C86" stroke-width="3" width="192" x="858.5" y="18.5" />
<rect fill="#DEE6F1" height="24" width="94.5" x="715.25" y="18.5" />
<rect fill="none" height="24" stroke="#405C86" stroke-width="3" width="192" x="666.5" y="18.5" />
<rect fill="#DEE6F1" height="24" width="94.5" x="523.25" y="18.5" />
<rect fill="none" height="24" stroke="#405C86" stroke-width="3" width="192" x="474.5" y="18.5" />
<rect fill="#DEE6F1" height="24" width="94.5" x="331.25" y="18.5" />
<rect fill="none" height="24" stroke="#405C86" stroke-width="3" width="192" x="282.5" y="18.5" />
<rect fill="#DEE6F1" height="24" width="94.5" x="139.25" y="18.5" />
<rect fill="none" height="24" stroke="#405C86" stroke-width="3" width="192" x="90.5" y="18.5" />
<text class="register-name" x="80.5" y="30.5">Zn</text>
<text class="intrinsic-name" x="80.5" y="42.5">op1</text>
<text class="register-number" x="10" y="30.5">(1)</text>
<rect fill="#DEE6F1" height="24" width="96" x="3066.5" y="66.5" />
<rect fill="none" height="24" stroke="#405C86" stroke-width="3" width="96" x="3066.5" y="66.5" />
<rect fill="none" height="24" stroke="#405C86" stroke-dasharray="3 1" stroke-dashoffset="1.5" stroke-width="1" width="96" x="2970.5" y="66.5" />
<text class="label unused" x="3018.5" y="79.5"></text>
<rect fill="#DEE6F1" height="24" width="96" x="2874.5" y="66.5" />
<rect fill="none" height="24" stroke="#405C86" stroke-width="3" width="96" x="2874.5" y="66.5" />
<rect fill="none" height="24" stroke="#405C86" stroke-dasharray="3 1" stroke-dashoffset="1.5" stroke-width="1" width="96" x="2778.5" y="66.5" />
<text class="label unused" x="2826.5" y="79.5"></text>
<rect fill="#DEE6F1" height="24" width="96" x="2682.5" y="66.5" />
<rect fill="none" height="24" stroke="#405C86" stroke-width="3" width="96" x="2682.5" y="66.5" />
<rect fill="none" height="24" stroke="#405C86" stroke-dasharray="3 1" stroke-dashoffset="1.5" stroke-width="1" width="96" x="2586.5" y="66.5" />
<text class="label unused" x="2634.5" y="79.5"></text>
<rect fill="#DEE6F1" height="24" width="96" x="2490.5" y="66.5" />
<rect fill="none" height="24" stroke="#405C86" stroke-width="3" width="96" x="2490.5" y="66.5" />
<rect fill="none" height="24" stroke="#405C86" stroke-dasharray="3 1" stroke-dashoffset="1.5" stroke-width="1" width="96" x="2394.5" y="66.5" />
<text class="label unused" x="2442.5" y="79.5"></text>
<rect fill="#DEE6F1" height="24" width="96" x="2298.5" y="66.5" />
<rect fill="none" height="24" stroke="#405C86" stroke-width="3" width="96" x="2298.5" y="66.5" />
<rect fill="none" height="24" stroke="#405C86" stroke-dasharray="3 1" stroke-dashoffset="1.5" stroke-width="1" width="96" x="2202.5" y="66.5" />
<text class="label unused" x="2250.5" y="79.5"></text>
<rect fill="#DEE6F1" height="24" width="96" x="2106.5" y="66.5" />
<rect fill="none" height="24" stroke="#405C86" stroke-width="3" width="96" x="2106.5" y="66.5" />
<rect fill="none" height="24" stroke="#405C86" stroke-dasharray="3 1" stroke-dashoffset="1.5" stroke-width="1" width="96" x="2010.5" y="66.5" />
<text class="label unused" x="2058.5" y="79.5"></text>
<rect fill="#DEE6F1" height="24" width="96" x="1914.5" y="66.5" />
<rect fill="none" height="24" stroke="#405C86" stroke-width="3" width="96" x="1914.5" y="66.5" />
<rect fill="none" height="24" stroke="#405C86" stroke-dasharray="3 1" stroke-dashoffset="1.5" stroke-width="1" width="96" x="1818.5" y="66.5" />
<text class="label unused" x="1866.5" y="79.5"></text>
<rect fill="#DEE6F1" height="24" width="96" x="1722.5" y="66.5" />
<rect fill="none" height="24" stroke="#405C86" stroke-width="3" width="96" x="1722.5" y="66.5" />
<rect fill="none" height="24" stroke="#405C86" stroke-dasharray="3 1" stroke-dashoffset="1.5" stroke-width="1" width="96" x="1626.5" y="66.5" />
<text class="label unused" x="1674.5" y="79.5"></text>
<rect fill="#DEE6F1" height="24" width="96" x="1530.5" y="66.5" />
<rect fill="none" height="24" stroke="#405C86" stroke-width="3" width="96" x="1530.5" y="66.5" />
<rect fill="none" height="24" stroke="#405C86" stroke-dasharray="3 1" stroke-dashoffset="1.5" stroke-width="1" width="96" x="1434.5" y="66.5" />
<text class="label unused" x="1482.5" y="79.5"></text>
<rect fill="#DEE6F1" height="24" width="96" x="1338.5" y="66.5" />
<rect fill="none" height="24" stroke="#405C86" stroke-width="3" width="96" x="1338.5" y="66.5" />
<rect fill="none" height="24" stroke="#405C86" stroke-dasharray="3 1" stroke-dashoffset="1.5" stroke-width="1" width="96" x="1242.5" y="66.5" />
<text class="label unused" x="1290.5" y="79.5"></text>
<rect fill="#DEE6F1" height="24" width="96" x="1146.5" y="66.5" />
<rect fill="none" height="24" stroke="#405C86" stroke-width="3" width="96" x="1146.5" y="66.5" />
<rect fill="none" height="24" stroke="#405C86" stroke-dasharray="3 1" stroke-dashoffset="1.5" stroke-width="1" width="96" x="1050.5" y="66.5" />
<text class="label unused" x="1098.5" y="79.5"></text>
<rect fill="#DEE6F1" height="24" width="96" x="954.5" y="66.5" />
<rect fill="none" height="24" stroke="#405C86" stroke-width="3" width="96" x="954.5" y="66.5" />
<rect fill="none" height="24" stroke="#405C86" stroke-dasharray="3 1" stroke-dashoffset="1.5" stroke-width="1" width="96" x="858.5" y="66.5" />
<text class="label unused" x="906.5" y="79.5"></text>
<rect fill="#DEE6F1" height="24" width="96" x="762.5" y="66.5" />
<rect fill="none" height="24" stroke="#405C86" stroke-width="3" width="96" x="762.5" y="66.5" />
<rect fill="none" height="24" stroke="#405C86" stroke-dasharray="3 1" stroke-dashoffset="1.5" stroke-width="1" width="96" x="666.5" y="66.5" />
<text class="label unused" x="714.5" y="79.5"></text>
<rect fill="#DEE6F1" height="24" width="96" x="570.5" y="66.5" />
<rect fill="none" height="24" stroke="#405C86" stroke-width="3" width="96" x="570.5" y="66.5" />
<rect fill="none" height="24" stroke="#405C86" stroke-dasharray="3 1" stroke-dashoffset="1.5" stroke-width="1" width="96" x="474.5" y="66.5" />
<text class="label unused" x="522.5" y="79.5"></text>
<rect fill="#DEE6F1" height="24" width="96" x="378.5" y="66.5" />
<rect fill="none" height="24" stroke="#405C86" stroke-width="3" width="96" x="378.5" y="66.5" />
<rect fill="none" height="24" stroke="#405C86" stroke-dasharray="3 1" stroke-dashoffset="1.5" stroke-width="1" width="96" x="282.5" y="66.5" />
<text class="label unused" x="330.5" y="79.5"></text>
<rect fill="#DEE6F1" height="24" width="96" x="186.5" y="66.5" />
<rect fill="none" height="24" stroke="#405C86" stroke-width="3" width="96" x="186.5" y="66.5" />
<rect fill="none" height="24" stroke="#405C86" stroke-dasharray="3 1" stroke-dashoffset="1.5" stroke-width="1" width="96" x="90.5" y="66.5" />
<text class="label unused" x="138.5" y="79.5"></text>
<text class="register-name" x="80.5" y="78.5">Zd</text>
<text class="intrinsic-name" x="80.5" y="90.5">even</text>
<text class="register-number" x="10" y="78.5">(2)</text>
<rect fill="#DEE6F1" height="24" width="96" x="3066.5" y="138.5" />
<rect fill="none" height="24" stroke="#405C86" stroke-width="3" width="96" x="3066.5" y="138.5" />
<rect fill="#DEE6F1" height="24" width="96" x="2970.5" y="138.5" />
<rect fill="none" height="24" stroke="#405C86" stroke-width="3" width="96" x="2970.5" y="138.5" />
<rect fill="#DEE6F1" height="24" width="96" x="2874.5" y="138.5" />
<rect fill="none" height="24" stroke="#405C86" stroke-width="3" width="96" x="2874.5" y="138.5" />
<rect fill="#DEE6F1" height="24" width="96" x="2778.5" y="138.5" />
<rect fill="none" height="24" stroke="#405C86" stroke-width="3" width="96" x="2778.5" y="138.5" />
<rect fill="#DEE6F1" height="24" width="96" x="2682.5" y="138.5" />
<rect fill="none" height="24" stroke="#405C86" stroke-width="3" width="96" x="2682.5" y="138.5" />
<rect fill="#DEE6F1" height="24" width="96" x="2586.5" y="138.5" />
<rect fill="none" height="24" stroke="#405C86" stroke-width="3" width="96" x="2586.5" y="138.5" />
<rect fill="#DEE6F1" height="24" width="96" x="2490.5" y="138.5" />
<rect fill="none" height="24" stroke="#405C86" stroke-width="3" width="96" x="2490.5" y="138.5" />
<rect fill="#DEE6F1" height="24" width="96" x="2394.5" y="138.5" />
<rect fill="none" height="24" stroke="#405C86" stroke-width="3" width="96" x="2394.5" y="138.5" />
<rect fill="#DEE6F1" height="24" width="96" x="2298.5" y="138.5" />
<rect fill="none" height="24" stroke="#405C86" stroke-width="3" width="96" x="2298.5" y="138.5" />
<rect fill="#DEE6F1" height="24" width="96" x="2202.5" y="138.5" />
<rect fill="none" height="24" stroke="#405C86" stroke-width="3" width="96" x="2202.5" y="138.5" />
<rect fill="#DEE6F1" height="24" width="96" x="2106.5" y="138.5" />
<rect fill="none" height="24" stroke="#405C86" stroke-width="3" width="96" x="2106.5" y="138.5" />
<rect fill="#DEE6F1" height="24" width="96" x="2010.5" y="138.5" />
<rect fill="none" height="24" stroke="#405C86" stroke-width="3" width="96" x="2010.5" y="138.5" />
<rect fill="#DEE6F1" height="24" width="96" x="1914.5" y="138.5" />
<rect fill="none" height="24" stroke="#405C86" stroke-width="3" width="96" x="1914.5" y="138.5" />
<rect fill="#DEE6F1" height="24" width="96" x="1818.5" y="138.5" />
<rect fill="none" height="24" stroke="#405C86" stroke-width="3" width="96" x="1818.5" y="138.5" />
<rect fill="#DEE6F1" height="24" width="96" x="1722.5" y="138.5" />
<rect fill="none" height="24" stroke="#405C86" stroke-width="3" width="96" x="1722.5" y="138.5" />
<rect fill="#DEE6F1" height="24" width="96" x="1626.5" y="138.5" />
<rect fill="none" height="24" stroke="#405C86" stroke-width="3" width="96" x="1626.5" y="138.5" />
<rect fill="#DEE6F1" height="24" width="96" x="1530.5" y="138.5" />
<rect fill="none" height="24" stroke="#405C86" stroke-width="3" width="96" x="1530.5" y="138.5" />
<rect fill="#DEE6F1" height="24" width="96" x="1434.5" y="138.5" />
<rect fill="none" height="24" stroke="#405C86" stroke-width="3" width="96" x="1434.5" y="138.5" />
<rect fill="#DEE6F1" height="24" width="96" x="1338.5" y="138.5" />
<rect fill="none" height="24" stroke="#405C86" stroke-width="3" width="96" x="1338.5" y="138.5" />
<rect fill="#DEE6F1" height="24" width="96" x="1242.5" y="138.5" />
<rect fill="none" height="24" stroke="#405C86" stroke-width="3" width="96" x="1242.5" y="138.5" />
<rect fill="#DEE6F1" height="24" width="96" x="1146.5" y="138.5" />
<rect fill="none" height="24" stroke="#405C86" stroke-width="3" width="96" x="1146.5" y="138.5" />
<rect fill="#DEE6F1" height="24" width="96" x="1050.5" y="138.5" />
<rect fill="none" height="24" stroke="#405C86" stroke-width="3" width="96" x="1050.5" y="138.5" />
<rect fill="#DEE6F1" height="24" width="96" x="954.5" y="138.5" />
<rect fill="none" height="24" stroke="#405C86" stroke-width="3" width="96" x="954.5" y="138.5" />
<rect fill="#DEE6F1" height="24" width="96" x="858.5" y="138.5" />
<rect fill="none" height="24" stroke="#405C86" stroke-width="3" width="96" x="858.5" y="138.5" />
<rect fill="#DEE6F1" height="24" width="96" x="762.5" y="138.5" />
<rect fill="none" height="24" stroke="#405C86" stroke-width="3" width="96" x="762.5" y="138.5" />
<rect fill="#DEE6F1" height="24" width="96" x="666.5" y="138.5" />
<rect fill="none" height="24" stroke="#405C86" stroke-width="3" width="96" x="666.5" y="138.5" />
<rect fill="#DEE6F1" height="24" width="96" x="570.5" y="138.5" />
<rect fill="none" height="24" stroke="#405C86" stroke-width="3" width="96" x="570.5" y="138.5" />
<rect fill="#DEE6F1" height="24" width="96" x="474.5" y="138.5" />
<rect fill="none" height="24" stroke="#405C86" stroke-width="3" width="96" x="474.5" y="138.5" />
<rect fill="#DEE6F1" height="24" width="96" x="378.5" y="138.5" />
<rect fill="none" height="24" stroke="#405C86" stroke-width="3" width="96" x="378.5" y="138.5" />
<rect fill="#DEE6F1" height="24" width="96" x="282.5" y="138.5" />
<rect fill="none" height="24" stroke="#405C86" stroke-width="3" width="96" x="282.5" y="138.5" />
<rect fill="#DEE6F1" height="24" width="96" x="186.5" y="138.5" />
<rect fill="none" height="24" stroke="#405C86" stroke-width="3" width="96" x="186.5" y="138.5" />
<rect fill="#DEE6F1" height="24" width="96" x="90.5" y="138.5" />
<rect fill="none" height="24" stroke="#405C86" stroke-width="3" width="96" x="90.5" y="138.5" />
<text class="register-name" x="80.5" y="150.5">Zd</text>
<text class="intrinsic-name" x="80.5" y="162.5">returns</text>
<text class="register-number" x="10" y="150.5">(2)</text>
<polyline fill="none" points="3021.5 43.5,3023.5 47.5,3065.5 47.5,3066.5 49.5,3066.5 53.5,3066.5 49.5,3067.5 47.5,3109.5 47.5,3111.5 43.5" stroke="#567DB6" stroke-width="1" />
<line stroke="#567DB6" stroke-width="1" x1="3066.5" x2="3018.5" y1="53.5" y2="137" />
<polyline fill="none" points="2829.5 43.5,2831.5 47.5,2873.5 47.5,2874.5 49.5,2874.5 53.5,2874.5 49.5,2875.5 47.5,2917.5 47.5,2919.5 43.5" stroke="#567DB6" stroke-width="1" />
<line stroke="#567DB6" stroke-width="1" x1="2874.5" x2="2826.5" y1="53.5" y2="137" />
<polyline fill="none" points="2637.5 43.5,2639.5 47.5,2681.5 47.5,2682.5 49.5,2682.5 53.5,2682.5 49.5,2683.5 47.5,2725.5 47.5,2727.5 43.5" stroke="#567DB6" stroke-width="1" />
<line stroke="#567DB6" stroke-width="1" x1="2682.5" x2="2634.5" y1="53.5" y2="137" />
<polyline fill="none" points="2445.5 43.5,2447.5 47.5,2489.5 47.5,2490.5 49.5,2490.5 53.5,2490.5 49.5,2491.5 47.5,2533.5 47.5,2535.5 43.5" stroke="#567DB6" stroke-width="1" />
<line stroke="#567DB6" stroke-width="1" x1="2490.5" x2="2442.5" y1="53.5" y2="137" />
<polyline fill="none" points="2253.5 43.5,2255.5 47.5,2297.5 47.5,2298.5 49.5,2298.5 53.5,2298.5 49.5,2299.5 47.5,2341.5 47.5,2343.5 43.5" stroke="#567DB6" stroke-width="1" />
<line stroke="#567DB6" stroke-width="1" x1="2298.5" x2="2250.5" y1="53.5" y2="137" />
<polyline fill="none" points="2061.5 43.5,2063.5 47.5,2105.5 47.5,2106.5 49.5,2106.5 53.5,2106.5 49.5,2107.5 47.5,2149.5 47.5,2151.5 43.5" stroke="#567DB6" stroke-width="1" />
<line stroke="#567DB6" stroke-width="1" x1="2106.5" x2="2058.5" y1="53.5" y2="137" />
<polyline fill="none" points="1869.5 43.5,1871.5 47.5,1913.5 47.5,1914.5 49.5,1914.5 53.5,1914.5 49.5,1915.5 47.5,1957.5 47.5,1959.5 43.5" stroke="#567DB6" stroke-width="1" />
<line stroke="#567DB6" stroke-width="1" x1="1914.5" x2="1866.5" y1="53.5" y2="137" />
<polyline fill="none" points="1677.5 43.5,1679.5 47.5,1721.5 47.5,1722.5 49.5,1722.5 53.5,1722.5 49.5,1723.5 47.5,1765.5 47.5,1767.5 43.5" stroke="#567DB6" stroke-width="1" />
<line stroke="#567DB6" stroke-width="1" x1="1722.5" x2="1674.5" y1="53.5" y2="137" />
<polyline fill="none" points="1485.5 43.5,1487.5 47.5,1529.5 47.5,1530.5 49.5,1530.5 53.5,1530.5 49.5,1531.5 47.5,1573.5 47.5,1575.5 43.5" stroke="#567DB6" stroke-width="1" />
<line stroke="#567DB6" stroke-width="1" x1="1530.5" x2="1482.5" y1="53.5" y2="137" />
<polyline fill="none" points="1293.5 43.5,1295.5 47.5,1337.5 47.5,1338.5 49.5,1338.5 53.5,1338.5 49.5,1339.5 47.5,1381.5 47.5,1383.5 43.5" stroke="#567DB6" stroke-width="1" />
<line stroke="#567DB6" stroke-width="1" x1="1338.5" x2="1290.5" y1="53.5" y2="137" />
<polyline fill="none" points="1101.5 43.5,1103.5 47.5,1145.5 47.5,1146.5 49.5,1146.5 53.5,1146.5 49.5,1147.5 47.5,1189.5 47.5,1191.5 43.5" stroke="#567DB6" stroke-width="1" />
<line stroke="#567DB6" stroke-width="1" x1="1146.5" x2="1098.5" y1="53.5" y2="137" />
<polyline fill="none" points="909.5 43.5,911.5 47.5,953.5 47.5,954.5 49.5,954.5 53.5,954.5 49.5,955.5 47.5,997.5 47.5,999.5 43.5" stroke="#567DB6" stroke-width="1" />
<line stroke="#567DB6" stroke-width="1" x1="954.5" x2="906.5" y1="53.5" y2="137" />
<polyline fill="none" points="717.5 43.5,719.5 47.5,761.5 47.5,762.5 49.5,762.5 53.5,762.5 49.5,763.5 47.5,805.5 47.5,807.5 43.5" stroke="#567DB6" stroke-width="1" />
<line stroke="#567DB6" stroke-width="1" x1="762.5" x2="714.5" y1="53.5" y2="137" />
<polyline fill="none" points="525.5 43.5,527.5 47.5,569.5 47.5,570.5 49.5,570.5 53.5,570.5 49.5,571.5 47.5,613.5 47.5,615.5 43.5" stroke="#567DB6" stroke-width="1" />
<line stroke="#567DB6" stroke-width="1" x1="570.5" x2="522.5" y1="53.5" y2="137" />
<polyline fill="none" points="333.5 43.5,335.5 47.5,377.5 47.5,378.5 49.5,378.5 53.5,378.5 49.5,379.5 47.5,421.5 47.5,423.5 43.5" stroke="#567DB6" stroke-width="1" />
<line stroke="#567DB6" stroke-width="1" x1="378.5" x2="330.5" y1="53.5" y2="137" />
<polyline fill="none" points="141.5 43.5,143.5 47.5,185.5 47.5,186.5 49.5,186.5 53.5,186.5 49.5,187.5 47.5,229.5 47.5,231.5 43.5" stroke="#567DB6" stroke-width="1" />
<line stroke="#567DB6" stroke-width="1" x1="186.5" x2="138.5" y1="53.5" y2="137" />
<line stroke="#567DB6" stroke-width="1" x1="3114.5" x2="3114.5" y1="91.5" y2="137" />
<line stroke="#567DB6" stroke-width="1" x1="2922.5" x2="2922.5" y1="91.5" y2="137" />
<line stroke="#567DB6" stroke-width="1" x1="2730.5" x2="2730.5" y1="91.5" y2="137" />
<line stroke="#567DB6" stroke-width="1" x1="2538.5" x2="2538.5" y1="91.5" y2="137" />
<line stroke="#567DB6" stroke-width="1" x1="2346.5" x2="2346.5" y1="91.5" y2="137" />
<line stroke="#567DB6" stroke-width="1" x1="2154.5" x2="2154.5" y1="91.5" y2="137" />
<line stroke="#567DB6" stroke-width="1" x1="1962.5" x2="1962.5" y1="91.5" y2="137" />
<line stroke="#567DB6" stroke-width="1" x1="1770.5" x2="1770.5" y1="91.5" y2="137" />
<line stroke="#567DB6" stroke-width="1" x1="1578.5" x2="1578.5" y1="91.5" y2="137" />
<line stroke="#567DB6" stroke-width="1" x1="1386.5" x2="1386.5" y1="91.5" y2="137" />
<line stroke="#567DB6" stroke-width="1" x1="1194.5" x2="1194.5" y1="91.5" y2="137" />
<line stroke="#567DB6" stroke-width="1" x1="1002.5" x2="1002.5" y1="91.5" y2="137" />
<line stroke="#567DB6" stroke-width="1" x1="810.5" x2="810.5" y1="91.5" y2="137" />
<line stroke="#567DB6" stroke-width="1" x1="618.5" x2="618.5" y1="91.5" y2="137" />
<line stroke="#567DB6" stroke-width="1" x1="426.5" x2="426.5" y1="91.5" y2="137" />
<line stroke="#567DB6" stroke-width="1" x1="234.5" x2="234.5" y1="91.5" y2="137" />
<line marker-end="url(#arrowhead)" stroke="none" x1="3066.5" x2="3018.5" y1="53.5" y2="137" />
<line marker-end="url(#arrowhead)" stroke="none" x1="2874.5" x2="2826.5" y1="53.5" y2="137" />
<line marker-end="url(#arrowhead)" stroke="none" x1="2682.5" x2="2634.5" y1="53.5" y2="137" />
<line marker-end="url(#arrowhead)" stroke="none" x1="2490.5" x2="2442.5" y1="53.5" y2="137" />
<line marker-end="url(#arrowhead)" stroke="none" x1="2298.5" x2="2250.5" y1="53.5" y2="137" />
<line marker-end="url(#arrowhead)" stroke="none" x1="2106.5" x2="2058.5" y1="53.5" y2="137" />
<line marker-end="url(#arrowhead)" stroke="none" x1="1914.5" x2="1866.5" y1="53.5" y2="137" />
<line marker-end="url(#arrowhead)" stroke="none" x1="1722.5" x2="1674.5" y1="53.5" y2="137" />
<line marker-end="url(#arrowhead)" stroke="none" x1="1530.5" x2="1482.5" y1="53.5" y2="137" />
<line marker-end="url(#arrowhead)" stroke="none" x1="1338.5" x2="1290.5" y1="53.5" y2="137" />
<line marker-end="url(#arrowhead)" stroke="none" x1="1146.5" x2="1098.5" y1="53.5" y2="137" />
<line marker-end="url(#arrowhead)" stroke="none" x1="954.5" x2="906.5" y1="53.5" y2="137" />
<line marker-end="url(#arrowhead)" stroke="none" x1="762.5" x2="714.5" y1="53.5" y2="137" />
<line marker-end="url(#arrowhead)" stroke="none" x1="570.5" x2="522.5" y1="53.5" y2="137" />
<line marker-end="url(#arrowhead)" stroke="none" x1="378.5" x2="330.5" y1="53.5" y2="137" />
<line marker-end="url(#arrowhead)" stroke="none" x1="186.5" x2="138.5" y1="53.5" y2="137" />
<line marker-end="url(#arrowhead)" stroke="none" x1="3114.5" x2="3114.5" y1="91.5" y2="137" />
<line marker-end="url(#arrowhead)" stroke="none" x1="2922.5" x2="2922.5" y1="91.5" y2="137" />
<line marker-end="url(#arrowhead)" stroke="none" x1="2730.5" x2="2730.5" y1="91.5" y2="137" />
<line marker-end="url(#arrowhead)" stroke="none" x1="2538.5" x2="2538.5" y1="91.5" y2="137" />
<line marker-end="url(#arrowhead)" stroke="none" x1="2346.5" x2="2346.5" y1="91.5" y2="137" />
<line marker-end="url(#arrowhead)" stroke="none" x1="2154.5" x2="2154.5" y1="91.5" y2="137" />
<line marker-end="url(#arrowhead)" stroke="none" x1="1962.5" x2="1962.5" y1="91.5" y2="137" />
<line marker-end="url(#arrowhead)" stroke="none" x1="1770.5" x2="1770.5" y1="91.5" y2="137" />
<line marker-end="url(#arrowhead)" stroke="none" x1="1578.5" x2="1578.5" y1="91.5" y2="137" />
<line marker-end="url(#arrowhead)" stroke="none" x1="1386.5" x2="1386.5" y1="91.5" y2="137" />
<line marker-end="url(#arrowhead)" stroke="none" x1="1194.5" x2="1194.5" y1="91.5" y2="137" />
<line marker-end="url(#arrowhead)" stroke="none" x1="1002.5" x2="1002.5" y1="91.5" y2="137" />
<line marker-end="url(#arrowhead)" stroke="none" x1="810.5" x2="810.5" y1="91.5" y2="137" />
<line marker-end="url(#arrowhead)" stroke="none" x1="618.5" x2="618.5" y1="91.5" y2="137" />
<line marker-end="url(#arrowhead)" stroke="none" x1="426.5" x2="426.5" y1="91.5" y2="137" />
<line marker-end="url(#arrowhead)" stroke="none" x1="234.5" x2="234.5" y1="91.5" y2="137" />
</svg>