<svg xmlns="http://www.w3.org/2000/svg" viewBox="0 0 870 219">
<style>
.label { font: 14px Helvetica; dominant-baseline: middle; text-anchor: middle; }
.title-left { font: 12px Helvetica; dominant-baseline: middle; }
.title-right { font: 12px Helvetica; dominant-baseline: middle; text-anchor: end; }
.title-intrinsic { font: 12px Helvetica; dominant-baseline: middle; text-anchor: middle; fill: #6778ED; }
.title { font: 12px Helvetica; dominant-baseline: middle; text-anchor: middle; }
.title-unused { font: 12px Helvetica; dominant-baseline: middle; text-anchor: middle; fill: #AAA; }
.register-name { font: 14px Helvetica; dominant-baseline: middle; text-anchor: end; font-style: italic; }
.memory-name { font: 14px Helvetica; dominant-baseline: middle; text-anchor: end; }
.register-number { font: 14px Helvetica; dominant-baseline: middle; text-anchor: start; }
.intrinsic-name { font: 14px Helvetica; dominant-baseline: middle; text-anchor: end; fill: #6778ED; }
.intrinsic-color { fill: #6778ED; }
.small-label { font: 12px Helvetica; dominant-baseline: middle; text-anchor: middle; }
.label-10px { font: 10px Helvetica; dominant-baseline: middle; text-anchor: middle; }
.smaller-label { font: 9px Helvetica; dominant-baseline: middle; text-anchor: middle; }
.label-6px { font: 6px Helvetica; dominant-baseline: middle; text-anchor: middle; }
.label-7px { font: 7px Helvetica; dominant-baseline: middle; text-anchor: middle; }
.unused { fill: #AAA; }
.dim { fill: #888; }
</style>
<defs>
<marker id="arrowhead" markerWidth="10.75" markerHeight="24.5" refX="9.0" refY="6.125" orient="auto">
<polyline points="0.5 0.5, 8.75 6.125, 0.5 11.75" stroke="#567DB6" stroke-width="1" fill="none"/>
</marker>
</defs>
<text class="title-left" x="90.5" y="9.5">upper</text>
<text class="title-right" x="858.5" y="9.5">lower</text>
<rect fill="none" height="24" stroke="#405C86" stroke-width="3" width="12" x="804.5" y="18.5" />
<text class="label" x="810.5" y="31.5">0</text>
<rect fill="none" height="24" stroke="#405C86" stroke-dasharray="3 1" stroke-dashoffset="1.5" stroke-width="1" width="12" x="792.5" y="18.5" />
<text class="label unused" x="798.5" y="31.5"></text>
<rect fill="none" height="24" stroke="#405C86" stroke-dasharray="3 1" stroke-dashoffset="1.5" stroke-width="1" width="12" x="780.5" y="18.5" />
<text class="label unused" x="786.5" y="31.5"></text>
<rect fill="none" height="24" stroke="#405C86" stroke-dasharray="3 1" stroke-dashoffset="1.5" stroke-width="1" width="12" x="768.5" y="18.5" />
<text class="label unused" x="774.5" y="31.5"></text>
<rect fill="none" height="24" stroke="#405C86" stroke-width="3" width="12" x="708.5" y="18.5" />
<text class="label" x="714.5" y="31.5">0</text>
<rect fill="none" height="24" stroke="#405C86" stroke-dasharray="3 1" stroke-dashoffset="1.5" stroke-width="1" width="12" x="696.5" y="18.5" />
<text class="label unused" x="702.5" y="31.5"></text>
<rect fill="none" height="24" stroke="#405C86" stroke-dasharray="3 1" stroke-dashoffset="1.5" stroke-width="1" width="12" x="684.5" y="18.5" />
<text class="label unused" x="690.5" y="31.5"></text>
<rect fill="none" height="24" stroke="#405C86" stroke-dasharray="3 1" stroke-dashoffset="1.5" stroke-width="1" width="12" x="672.5" y="18.5" />
<text class="label unused" x="678.5" y="31.5"></text>
<rect fill="#DEE6F1" height="24" width="12" x="612.5" y="18.5" />
<rect fill="none" height="24" stroke="#405C86" stroke-width="3" width="12" x="612.5" y="18.5" />
<text class="label" x="618.5" y="31.5">1</text>
<rect fill="none" height="24" stroke="#405C86" stroke-dasharray="3 1" stroke-dashoffset="1.5" stroke-width="1" width="12" x="600.5" y="18.5" />
<text class="label unused" x="606.5" y="31.5"></text>
<rect fill="none" height="24" stroke="#405C86" stroke-dasharray="3 1" stroke-dashoffset="1.5" stroke-width="1" width="12" x="588.5" y="18.5" />
<text class="label unused" x="594.5" y="31.5"></text>
<rect fill="none" height="24" stroke="#405C86" stroke-dasharray="3 1" stroke-dashoffset="1.5" stroke-width="1" width="12" x="576.5" y="18.5" />
<text class="label unused" x="582.5" y="31.5"></text>
<rect fill="#DEE6F1" height="24" width="12" x="516.5" y="18.5" />
<rect fill="none" height="24" stroke="#405C86" stroke-width="3" width="12" x="516.5" y="18.5" />
<text class="label" x="522.5" y="31.5">1</text>
<rect fill="none" height="24" stroke="#405C86" stroke-dasharray="3 1" stroke-dashoffset="1.5" stroke-width="1" width="12" x="504.5" y="18.5" />
<text class="label unused" x="510.5" y="31.5"></text>
<rect fill="none" height="24" stroke="#405C86" stroke-dasharray="3 1" stroke-dashoffset="1.5" stroke-width="1" width="12" x="492.5" y="18.5" />
<text class="label unused" x="498.5" y="31.5"></text>
<rect fill="none" height="24" stroke="#405C86" stroke-dasharray="3 1" stroke-dashoffset="1.5" stroke-width="1" width="12" x="480.5" y="18.5" />
<text class="label unused" x="486.5" y="31.5"></text>
<rect fill="none" height="24" stroke="#405C86" stroke-width="3" width="12" x="420.5" y="18.5" />
<text class="label" x="426.5" y="31.5">0</text>
<rect fill="none" height="24" stroke="#405C86" stroke-dasharray="3 1" stroke-dashoffset="1.5" stroke-width="1" width="12" x="408.5" y="18.5" />
<text class="label unused" x="414.5" y="31.5"></text>
<rect fill="none" height="24" stroke="#405C86" stroke-dasharray="3 1" stroke-dashoffset="1.5" stroke-width="1" width="12" x="396.5" y="18.5" />
<text class="label unused" x="402.5" y="31.5"></text>
<rect fill="none" height="24" stroke="#405C86" stroke-dasharray="3 1" stroke-dashoffset="1.5" stroke-width="1" width="12" x="384.5" y="18.5" />
<text class="label unused" x="390.5" y="31.5"></text>
<rect fill="#DEE6F1" height="24" width="12" x="324.5" y="18.5" />
<rect fill="none" height="24" stroke="#405C86" stroke-width="3" width="12" x="324.5" y="18.5" />
<text class="label" x="330.5" y="31.5">1</text>
<rect fill="none" height="24" stroke="#405C86" stroke-dasharray="3 1" stroke-dashoffset="1.5" stroke-width="1" width="12" x="312.5" y="18.5" />
<text class="label unused" x="318.5" y="31.5"></text>
<rect fill="none" height="24" stroke="#405C86" stroke-dasharray="3 1" stroke-dashoffset="1.5" stroke-width="1" width="12" x="300.5" y="18.5" />
<text class="label unused" x="306.5" y="31.5"></text>
<rect fill="none" height="24" stroke="#405C86" stroke-dasharray="3 1" stroke-dashoffset="1.5" stroke-width="1" width="12" x="288.5" y="18.5" />
<text class="label unused" x="294.5" y="31.5"></text>
<rect fill="none" height="24" stroke="#405C86" stroke-width="3" width="12" x="228.5" y="18.5" />
<text class="label" x="234.5" y="31.5">0</text>
<rect fill="none" height="24" stroke="#405C86" stroke-dasharray="3 1" stroke-dashoffset="1.5" stroke-width="1" width="12" x="216.5" y="18.5" />
<text class="label unused" x="222.5" y="31.5"></text>
<rect fill="none" height="24" stroke="#405C86" stroke-dasharray="3 1" stroke-dashoffset="1.5" stroke-width="1" width="12" x="204.5" y="18.5" />
<text class="label unused" x="210.5" y="31.5"></text>
<rect fill="none" height="24" stroke="#405C86" stroke-dasharray="3 1" stroke-dashoffset="1.5" stroke-width="1" width="12" x="192.5" y="18.5" />
<text class="label unused" x="198.5" y="31.5"></text>
<rect fill="none" height="24" stroke="#405C86" stroke-width="3" width="12" x="132.5" y="18.5" />
<text class="label" x="138.5" y="31.5">0</text>
<rect fill="none" height="24" stroke="#405C86" stroke-dasharray="3 1" stroke-dashoffset="1.5" stroke-width="1" width="12" x="120.5" y="18.5" />
<text class="label unused" x="126.5" y="31.5"></text>
<rect fill="none" height="24" stroke="#405C86" stroke-dasharray="3 1" stroke-dashoffset="1.5" stroke-width="1" width="12" x="108.5" y="18.5" />
<text class="label unused" x="114.5" y="31.5"></text>
<rect fill="none" height="24" stroke="#405C86" stroke-dasharray="3 1" stroke-dashoffset="1.5" stroke-width="1" width="12" x="96.5" y="18.5" />
<text class="label unused" x="102.5" y="31.5"></text>
<text class="register-name" x="80.5" y="30.5">Pv</text>
<text class="intrinsic-name" x="80.5" y="42.5">pg</text>
<text class="register-number" x="10" y="30.5">(1)</text>
<rect fill="#EEDDDB" height="24" width="96" x="762.5" y="66.5" />
<rect fill="none" height="24" stroke="#405C86" stroke-width="3" width="96" x="762.5" y="66.5" />
<rect fill="#EEDDDB" height="24" width="96" x="666.5" y="66.5" />
<rect fill="none" height="24" stroke="#405C86" stroke-width="3" width="96" x="666.5" y="66.5" />
<rect fill="#EEDDDB" height="24" width="96" x="570.5" y="66.5" />
<rect fill="none" height="24" stroke="#405C86" stroke-width="3" width="96" x="570.5" y="66.5" />
<rect fill="#EEDDDB" height="24" width="96" x="474.5" y="66.5" />
<rect fill="none" height="24" stroke="#405C86" stroke-width="3" width="96" x="474.5" y="66.5" />
<rect fill="#EEDDDB" height="24" width="96" x="378.5" y="66.5" />
<rect fill="none" height="24" stroke="#405C86" stroke-width="3" width="96" x="378.5" y="66.5" />
<rect fill="#EEDDDB" height="24" width="96" x="282.5" y="66.5" />
<rect fill="none" height="24" stroke="#405C86" stroke-width="3" width="96" x="282.5" y="66.5" />
<rect fill="#EEDDDB" height="24" width="96" x="186.5" y="66.5" />
<rect fill="none" height="24" stroke="#405C86" stroke-width="3" width="96" x="186.5" y="66.5" />
<rect fill="#EEDDDB" height="24" width="96" x="90.5" y="66.5" />
<rect fill="none" height="24" stroke="#405C86" stroke-width="3" width="96" x="90.5" y="66.5" />
<text class="register-name" x="80.5" y="78.5">Zn1</text>
<text class="intrinsic-name" x="80.5" y="90.5">op1</text>
<text class="register-number" x="10" y="78.5">(2)</text>
<rect fill="#ECF1E0" height="24" width="96" x="762.5" y="114.5" />
<rect fill="none" height="24" stroke="#405C86" stroke-width="3" width="96" x="762.5" y="114.5" />
<rect fill="#ECF1E0" height="24" width="96" x="666.5" y="114.5" />
<rect fill="none" height="24" stroke="#405C86" stroke-width="3" width="96" x="666.5" y="114.5" />
<rect fill="#ECF1E0" height="24" width="96" x="570.5" y="114.5" />
<rect fill="none" height="24" stroke="#405C86" stroke-width="3" width="96" x="570.5" y="114.5" />
<rect fill="#ECF1E0" height="24" width="96" x="474.5" y="114.5" />
<rect fill="none" height="24" stroke="#405C86" stroke-width="3" width="96" x="474.5" y="114.5" />
<rect fill="#ECF1E0" height="24" width="96" x="378.5" y="114.5" />
<rect fill="none" height="24" stroke="#405C86" stroke-width="3" width="96" x="378.5" y="114.5" />
<rect fill="#ECF1E0" height="24" width="96" x="282.5" y="114.5" />
<rect fill="none" height="24" stroke="#405C86" stroke-width="3" width="96" x="282.5" y="114.5" />
<rect fill="#ECF1E0" height="24" width="96" x="186.5" y="114.5" />
<rect fill="none" height="24" stroke="#405C86" stroke-width="3" width="96" x="186.5" y="114.5" />
<rect fill="#ECF1E0" height="24" width="96" x="90.5" y="114.5" />
<rect fill="none" height="24" stroke="#405C86" stroke-width="3" width="96" x="90.5" y="114.5" />
<text class="register-name" x="80.5" y="126.5">Zn2</text>
<text class="intrinsic-name" x="80.5" y="138.5">op2</text>
<text class="register-number" x="10" y="126.5">(3)</text>
<rect fill="#EEDDDB" height="24" width="96" x="762.5" y="186.5" />
<rect fill="none" height="24" stroke="#405C86" stroke-width="3" width="96" x="762.5" y="186.5" />
<rect fill="#EEDDDB" height="24" width="96" x="666.5" y="186.5" />
<rect fill="none" height="24" stroke="#405C86" stroke-width="3" width="96" x="666.5" y="186.5" />
<rect fill="#EEDDDB" height="24" width="96" x="570.5" y="186.5" />
<rect fill="none" height="24" stroke="#405C86" stroke-width="3" width="96" x="570.5" y="186.5" />
<rect fill="#EEDDDB" height="24" width="96" x="474.5" y="186.5" />
<rect fill="none" height="24" stroke="#405C86" stroke-width="3" width="96" x="474.5" y="186.5" />
<rect fill="#ECF1E0" height="24" width="96" x="378.5" y="186.5" />
<rect fill="none" height="24" stroke="#405C86" stroke-width="3" width="96" x="378.5" y="186.5" />
<rect fill="#ECF1E0" height="24" width="96" x="282.5" y="186.5" />
<rect fill="none" height="24" stroke="#405C86" stroke-width="3" width="96" x="282.5" y="186.5" />
<rect fill="#ECF1E0" height="24" width="96" x="186.5" y="186.5" />
<rect fill="none" height="24" stroke="#405C86" stroke-width="3" width="96" x="186.5" y="186.5" />
<rect fill="#ECF1E0" height="24" width="96" x="90.5" y="186.5" />
<rect fill="none" height="24" stroke="#405C86" stroke-width="3" width="96" x="90.5" y="186.5" />
<text class="register-name" x="80.5" y="198.5">Zd</text>
<text class="intrinsic-name" x="80.5" y="210.5">returns</text>
<text class="register-number" x="10" y="198.5">(4)</text>
<line stroke="#567DB6" stroke-width="1" x1="618.5" x2="810.5" y1="91.5" y2="185" />
<line stroke="#567DB6" stroke-width="1" x1="522.5" x2="714.5" y1="91.5" y2="185" />
<line stroke="#567DB6" stroke-width="1" x1="426.5" x2="618.5" y1="91.5" y2="185" />
<line stroke="#567DB6" stroke-width="1" x1="330.5" x2="522.5" y1="91.5" y2="185" />
<line stroke="#567DB6" stroke-dasharray="4 3" stroke-width="1" x1="810.5" x2="426.5" y1="139.5" y2="185" />
<line stroke="#567DB6" stroke-dasharray="4 3" stroke-width="1" x1="714.5" x2="330.5" y1="139.5" y2="185" />
<line stroke="#567DB6" stroke-dasharray="4 3" stroke-width="1" x1="618.5" x2="234.5" y1="139.5" y2="185" />
<line stroke="#567DB6" stroke-dasharray="4 3" stroke-width="1" x1="522.5" x2="138.5" y1="139.5" y2="185" />
<polyline fill="none" points="327.5 43.5,329.5 47.5,473.5 47.5,474.5 49.5,474.5 53.5,474.5 49.5,475.5 47.5,619.5 47.5,621.5 43.5" stroke="#567DB6" stroke-width="1" />
<polyline fill="none" points="285.5 65.5,287.5 61.5,473.5 61.5,474.5 59.5,474.5 55.5,474.5 59.5,475.5 61.5,661.5 61.5,663.5 65.5" stroke="#567DB6" stroke-width="1" />
<line stroke="#567DB6" stroke-width="1" x1="474.5" x2="474.5" y1="53.5" y2="55.5" />
<line marker-end="url(#arrowhead)" stroke="none" x1="618.5" x2="810.5" y1="91.5" y2="185" />
<line marker-end="url(#arrowhead)" stroke="none" x1="522.5" x2="714.5" y1="91.5" y2="185" />
<line marker-end="url(#arrowhead)" stroke="none" x1="426.5" x2="618.5" y1="91.5" y2="185" />
<line marker-end="url(#arrowhead)" stroke="none" x1="330.5" x2="522.5" y1="91.5" y2="185" />
<line marker-end="url(#arrowhead)" stroke="none" stroke-dasharray="4 3" x1="810.5" x2="426.5" y1="139.5" y2="185" />
<line marker-end="url(#arrowhead)" stroke="none" stroke-dasharray="4 3" x1="714.5" x2="330.5" y1="139.5" y2="185" />
<line marker-end="url(#arrowhead)" stroke="none" stroke-dasharray="4 3" x1="618.5" x2="234.5" y1="139.5" y2="185" />
<line marker-end="url(#arrowhead)" stroke="none" stroke-dasharray="4 3" x1="522.5" x2="138.5" y1="139.5" y2="185" />
</svg>