<svg xmlns="http://www.w3.org/2000/svg" viewBox="0 0 870 219">
<style>
.label { font: 14px Helvetica; dominant-baseline: middle; text-anchor: middle; }
.title-left { font: 12px Helvetica; dominant-baseline: middle; }
.title-right { font: 12px Helvetica; dominant-baseline: middle; text-anchor: end; }
.title-intrinsic { font: 12px Helvetica; dominant-baseline: middle; text-anchor: middle; fill: #6778ED; }
.title { font: 12px Helvetica; dominant-baseline: middle; text-anchor: middle; }
.title-unused { font: 12px Helvetica; dominant-baseline: middle; text-anchor: middle; fill: #AAA; }
.register-name { font: 14px Helvetica; dominant-baseline: middle; text-anchor: end; font-style: italic; }
.memory-name { font: 14px Helvetica; dominant-baseline: middle; text-anchor: end; }
.register-number { font: 14px Helvetica; dominant-baseline: middle; text-anchor: start; }
.intrinsic-name { font: 14px Helvetica; dominant-baseline: middle; text-anchor: end; fill: #6778ED; }
.intrinsic-color { fill: #6778ED; }
.small-label { font: 12px Helvetica; dominant-baseline: middle; text-anchor: middle; }
.label-10px { font: 10px Helvetica; dominant-baseline: middle; text-anchor: middle; }
.smaller-label { font: 9px Helvetica; dominant-baseline: middle; text-anchor: middle; }
.label-6px { font: 6px Helvetica; dominant-baseline: middle; text-anchor: middle; }
.label-7px { font: 7px Helvetica; dominant-baseline: middle; text-anchor: middle; }
.unused { fill: #AAA; }
.dim { fill: #888; }
</style>
<defs>
<marker id="arrowhead" markerWidth="10.75" markerHeight="24.5" refX="9.0" refY="6.125" orient="auto">
<polyline points="0.5 0.5, 8.75 6.125, 0.5 11.75" stroke="#567DB6" stroke-width="1" fill="none"/>
</marker>
</defs>
<text class="title-left" x="90.5" y="9.5">upper</text>
<text class="title-right" x="858.5" y="9.5">lower</text>
<rect fill="none" height="24" stroke="#405C86" stroke-width="3" width="12" x="840.5" y="18.5" />
<text class="label" x="846.5" y="31.5">0</text>
<rect fill="none" height="24" stroke="#405C86" stroke-width="3" width="12" x="816.5" y="18.5" />
<text class="label" x="822.5" y="31.5">0</text>
<rect fill="#DEE6F1" height="24" width="12" x="792.5" y="18.5" />
<rect fill="none" height="24" stroke="#405C86" stroke-width="3" width="12" x="792.5" y="18.5" />
<text class="label" x="798.5" y="31.5">1</text>
<rect fill="#DEE6F1" height="24" width="12" x="768.5" y="18.5" />
<rect fill="none" height="24" stroke="#405C86" stroke-width="3" width="12" x="768.5" y="18.5" />
<text class="label" x="774.5" y="31.5">1</text>
<rect fill="none" height="24" stroke="#405C86" stroke-width="3" width="12" x="744.5" y="18.5" />
<text class="label" x="750.5" y="31.5">0</text>
<rect fill="none" height="24" stroke="#405C86" stroke-width="3" width="12" x="720.5" y="18.5" />
<text class="label" x="726.5" y="31.5">0</text>
<rect fill="#DEE6F1" height="24" width="12" x="696.5" y="18.5" />
<rect fill="none" height="24" stroke="#405C86" stroke-width="3" width="12" x="696.5" y="18.5" />
<text class="label" x="702.5" y="31.5">1</text>
<rect fill="none" height="24" stroke="#405C86" stroke-width="3" width="12" x="672.5" y="18.5" />
<text class="label" x="678.5" y="31.5">0</text>
<rect fill="#DEE6F1" height="24" width="12" x="648.5" y="18.5" />
<rect fill="none" height="24" stroke="#405C86" stroke-width="3" width="12" x="648.5" y="18.5" />
<text class="label" x="654.5" y="31.5">1</text>
<rect fill="none" height="24" stroke="#405C86" stroke-width="3" width="12" x="624.5" y="18.5" />
<text class="label" x="630.5" y="31.5">0</text>
<rect fill="none" height="24" stroke="#405C86" stroke-width="3" width="12" x="600.5" y="18.5" />
<text class="label" x="606.5" y="31.5">0</text>
<rect fill="none" height="24" stroke="#405C86" stroke-width="3" width="12" x="576.5" y="18.5" />
<text class="label" x="582.5" y="31.5">0</text>
<rect fill="none" height="24" stroke="#405C86" stroke-width="3" width="12" x="552.5" y="18.5" />
<text class="label" x="558.5" y="31.5">0</text>
<rect fill="none" height="24" stroke="#405C86" stroke-width="3" width="12" x="528.5" y="18.5" />
<text class="label" x="534.5" y="31.5">0</text>
<rect fill="none" height="24" stroke="#405C86" stroke-width="3" width="12" x="504.5" y="18.5" />
<text class="label" x="510.5" y="31.5">0</text>
<rect fill="none" height="24" stroke="#405C86" stroke-width="3" width="12" x="480.5" y="18.5" />
<text class="label" x="486.5" y="31.5">0</text>
<rect fill="none" height="24" stroke="#405C86" stroke-width="3" width="12" x="456.5" y="18.5" />
<text class="label" x="462.5" y="31.5">0</text>
<rect fill="none" height="24" stroke="#405C86" stroke-width="3" width="12" x="432.5" y="18.5" />
<text class="label" x="438.5" y="31.5">0</text>
<rect fill="none" height="24" stroke="#405C86" stroke-width="3" width="12" x="408.5" y="18.5" />
<text class="label" x="414.5" y="31.5">0</text>
<rect fill="none" height="24" stroke="#405C86" stroke-width="3" width="12" x="384.5" y="18.5" />
<text class="label" x="390.5" y="31.5">0</text>
<rect fill="none" height="24" stroke="#405C86" stroke-width="3" width="12" x="360.5" y="18.5" />
<text class="label" x="366.5" y="31.5">0</text>
<rect fill="none" height="24" stroke="#405C86" stroke-width="3" width="12" x="336.5" y="18.5" />
<text class="label" x="342.5" y="31.5">0</text>
<rect fill="none" height="24" stroke="#405C86" stroke-width="3" width="12" x="312.5" y="18.5" />
<text class="label" x="318.5" y="31.5">0</text>
<rect fill="none" height="24" stroke="#405C86" stroke-width="3" width="12" x="288.5" y="18.5" />
<text class="label" x="294.5" y="31.5">0</text>
<rect fill="none" height="24" stroke="#405C86" stroke-width="3" width="12" x="264.5" y="18.5" />
<text class="label" x="270.5" y="31.5">0</text>
<rect fill="none" height="24" stroke="#405C86" stroke-width="3" width="12" x="240.5" y="18.5" />
<text class="label" x="246.5" y="31.5">0</text>
<rect fill="none" height="24" stroke="#405C86" stroke-width="3" width="12" x="216.5" y="18.5" />
<text class="label" x="222.5" y="31.5">0</text>
<rect fill="none" height="24" stroke="#405C86" stroke-width="3" width="12" x="192.5" y="18.5" />
<text class="label" x="198.5" y="31.5">0</text>
<rect fill="none" height="24" stroke="#405C86" stroke-width="3" width="12" x="168.5" y="18.5" />
<text class="label" x="174.5" y="31.5">0</text>
<rect fill="none" height="24" stroke="#405C86" stroke-width="3" width="12" x="144.5" y="18.5" />
<text class="label" x="150.5" y="31.5">0</text>
<rect fill="none" height="24" stroke="#405C86" stroke-width="3" width="12" x="120.5" y="18.5" />
<text class="label" x="126.5" y="31.5">0</text>
<rect fill="none" height="24" stroke="#405C86" stroke-width="3" width="12" x="96.5" y="18.5" />
<text class="label" x="102.5" y="31.5">0</text>
<text class="register-name" x="80.5" y="30.5">Pv</text>
<text class="intrinsic-name" x="80.5" y="42.5">pg</text>
<text class="register-number" x="10" y="30.5">(1)</text>
<rect fill="#EEDDDB" height="24" width="24" x="834.5" y="66.5" />
<rect fill="none" height="24" stroke="#405C86" stroke-width="3" width="24" x="834.5" y="66.5" />
<rect fill="#EEDDDB" height="24" width="24" x="810.5" y="66.5" />
<rect fill="none" height="24" stroke="#405C86" stroke-width="3" width="24" x="810.5" y="66.5" />
<rect fill="#EEDDDB" height="24" width="24" x="786.5" y="66.5" />
<rect fill="none" height="24" stroke="#405C86" stroke-width="3" width="24" x="786.5" y="66.5" />
<rect fill="#EEDDDB" height="24" width="24" x="762.5" y="66.5" />
<rect fill="none" height="24" stroke="#405C86" stroke-width="3" width="24" x="762.5" y="66.5" />
<rect fill="#EEDDDB" height="24" width="24" x="738.5" y="66.5" />
<rect fill="none" height="24" stroke="#405C86" stroke-width="3" width="24" x="738.5" y="66.5" />
<rect fill="#EEDDDB" height="24" width="24" x="714.5" y="66.5" />
<rect fill="none" height="24" stroke="#405C86" stroke-width="3" width="24" x="714.5" y="66.5" />
<rect fill="#EEDDDB" height="24" width="24" x="690.5" y="66.5" />
<rect fill="none" height="24" stroke="#405C86" stroke-width="3" width="24" x="690.5" y="66.5" />
<rect fill="#EEDDDB" height="24" width="24" x="666.5" y="66.5" />
<rect fill="none" height="24" stroke="#405C86" stroke-width="3" width="24" x="666.5" y="66.5" />
<rect fill="#EEDDDB" height="24" width="24" x="642.5" y="66.5" />
<rect fill="none" height="24" stroke="#405C86" stroke-width="3" width="24" x="642.5" y="66.5" />
<rect fill="#EEDDDB" height="24" width="24" x="618.5" y="66.5" />
<rect fill="none" height="24" stroke="#405C86" stroke-width="3" width="24" x="618.5" y="66.5" />
<rect fill="#EEDDDB" height="24" width="24" x="594.5" y="66.5" />
<rect fill="none" height="24" stroke="#405C86" stroke-width="3" width="24" x="594.5" y="66.5" />
<rect fill="#EEDDDB" height="24" width="24" x="570.5" y="66.5" />
<rect fill="none" height="24" stroke="#405C86" stroke-width="3" width="24" x="570.5" y="66.5" />
<rect fill="#EEDDDB" height="24" width="24" x="546.5" y="66.5" />
<rect fill="none" height="24" stroke="#405C86" stroke-width="3" width="24" x="546.5" y="66.5" />
<rect fill="#EEDDDB" height="24" width="24" x="522.5" y="66.5" />
<rect fill="none" height="24" stroke="#405C86" stroke-width="3" width="24" x="522.5" y="66.5" />
<rect fill="#EEDDDB" height="24" width="24" x="498.5" y="66.5" />
<rect fill="none" height="24" stroke="#405C86" stroke-width="3" width="24" x="498.5" y="66.5" />
<rect fill="#EEDDDB" height="24" width="24" x="474.5" y="66.5" />
<rect fill="none" height="24" stroke="#405C86" stroke-width="3" width="24" x="474.5" y="66.5" />
<rect fill="#EEDDDB" height="24" width="24" x="450.5" y="66.5" />
<rect fill="none" height="24" stroke="#405C86" stroke-width="3" width="24" x="450.5" y="66.5" />
<rect fill="#EEDDDB" height="24" width="24" x="426.5" y="66.5" />
<rect fill="none" height="24" stroke="#405C86" stroke-width="3" width="24" x="426.5" y="66.5" />
<rect fill="#EEDDDB" height="24" width="24" x="402.5" y="66.5" />
<rect fill="none" height="24" stroke="#405C86" stroke-width="3" width="24" x="402.5" y="66.5" />
<rect fill="#EEDDDB" height="24" width="24" x="378.5" y="66.5" />
<rect fill="none" height="24" stroke="#405C86" stroke-width="3" width="24" x="378.5" y="66.5" />
<rect fill="#EEDDDB" height="24" width="24" x="354.5" y="66.5" />
<rect fill="none" height="24" stroke="#405C86" stroke-width="3" width="24" x="354.5" y="66.5" />
<rect fill="#EEDDDB" height="24" width="24" x="330.5" y="66.5" />
<rect fill="none" height="24" stroke="#405C86" stroke-width="3" width="24" x="330.5" y="66.5" />
<rect fill="#EEDDDB" height="24" width="24" x="306.5" y="66.5" />
<rect fill="none" height="24" stroke="#405C86" stroke-width="3" width="24" x="306.5" y="66.5" />
<rect fill="#EEDDDB" height="24" width="24" x="282.5" y="66.5" />
<rect fill="none" height="24" stroke="#405C86" stroke-width="3" width="24" x="282.5" y="66.5" />
<rect fill="#EEDDDB" height="24" width="24" x="258.5" y="66.5" />
<rect fill="none" height="24" stroke="#405C86" stroke-width="3" width="24" x="258.5" y="66.5" />
<rect fill="#EEDDDB" height="24" width="24" x="234.5" y="66.5" />
<rect fill="none" height="24" stroke="#405C86" stroke-width="3" width="24" x="234.5" y="66.5" />
<rect fill="#EEDDDB" height="24" width="24" x="210.5" y="66.5" />
<rect fill="none" height="24" stroke="#405C86" stroke-width="3" width="24" x="210.5" y="66.5" />
<rect fill="#EEDDDB" height="24" width="24" x="186.5" y="66.5" />
<rect fill="none" height="24" stroke="#405C86" stroke-width="3" width="24" x="186.5" y="66.5" />
<rect fill="#EEDDDB" height="24" width="24" x="162.5" y="66.5" />
<rect fill="none" height="24" stroke="#405C86" stroke-width="3" width="24" x="162.5" y="66.5" />
<rect fill="#EEDDDB" height="24" width="24" x="138.5" y="66.5" />
<rect fill="none" height="24" stroke="#405C86" stroke-width="3" width="24" x="138.5" y="66.5" />
<rect fill="#EEDDDB" height="24" width="24" x="114.5" y="66.5" />
<rect fill="none" height="24" stroke="#405C86" stroke-width="3" width="24" x="114.5" y="66.5" />
<rect fill="#EEDDDB" height="24" width="24" x="90.5" y="66.5" />
<rect fill="none" height="24" stroke="#405C86" stroke-width="3" width="24" x="90.5" y="66.5" />
<text class="register-name" x="80.5" y="78.5">Zn1</text>
<text class="intrinsic-name" x="80.5" y="90.5">op1</text>
<text class="register-number" x="10" y="78.5">(2)</text>
<rect fill="#ECF1E0" height="24" width="24" x="834.5" y="114.5" />
<rect fill="none" height="24" stroke="#405C86" stroke-width="3" width="24" x="834.5" y="114.5" />
<rect fill="#ECF1E0" height="24" width="24" x="810.5" y="114.5" />
<rect fill="none" height="24" stroke="#405C86" stroke-width="3" width="24" x="810.5" y="114.5" />
<rect fill="#ECF1E0" height="24" width="24" x="786.5" y="114.5" />
<rect fill="none" height="24" stroke="#405C86" stroke-width="3" width="24" x="786.5" y="114.5" />
<rect fill="#ECF1E0" height="24" width="24" x="762.5" y="114.5" />
<rect fill="none" height="24" stroke="#405C86" stroke-width="3" width="24" x="762.5" y="114.5" />
<rect fill="#ECF1E0" height="24" width="24" x="738.5" y="114.5" />
<rect fill="none" height="24" stroke="#405C86" stroke-width="3" width="24" x="738.5" y="114.5" />
<rect fill="#ECF1E0" height="24" width="24" x="714.5" y="114.5" />
<rect fill="none" height="24" stroke="#405C86" stroke-width="3" width="24" x="714.5" y="114.5" />
<rect fill="#ECF1E0" height="24" width="24" x="690.5" y="114.5" />
<rect fill="none" height="24" stroke="#405C86" stroke-width="3" width="24" x="690.5" y="114.5" />
<rect fill="#ECF1E0" height="24" width="24" x="666.5" y="114.5" />
<rect fill="none" height="24" stroke="#405C86" stroke-width="3" width="24" x="666.5" y="114.5" />
<rect fill="#ECF1E0" height="24" width="24" x="642.5" y="114.5" />
<rect fill="none" height="24" stroke="#405C86" stroke-width="3" width="24" x="642.5" y="114.5" />
<rect fill="#ECF1E0" height="24" width="24" x="618.5" y="114.5" />
<rect fill="none" height="24" stroke="#405C86" stroke-width="3" width="24" x="618.5" y="114.5" />
<rect fill="#ECF1E0" height="24" width="24" x="594.5" y="114.5" />
<rect fill="none" height="24" stroke="#405C86" stroke-width="3" width="24" x="594.5" y="114.5" />
<rect fill="#ECF1E0" height="24" width="24" x="570.5" y="114.5" />
<rect fill="none" height="24" stroke="#405C86" stroke-width="3" width="24" x="570.5" y="114.5" />
<rect fill="#ECF1E0" height="24" width="24" x="546.5" y="114.5" />
<rect fill="none" height="24" stroke="#405C86" stroke-width="3" width="24" x="546.5" y="114.5" />
<rect fill="#ECF1E0" height="24" width="24" x="522.5" y="114.5" />
<rect fill="none" height="24" stroke="#405C86" stroke-width="3" width="24" x="522.5" y="114.5" />
<rect fill="#ECF1E0" height="24" width="24" x="498.5" y="114.5" />
<rect fill="none" height="24" stroke="#405C86" stroke-width="3" width="24" x="498.5" y="114.5" />
<rect fill="#ECF1E0" height="24" width="24" x="474.5" y="114.5" />
<rect fill="none" height="24" stroke="#405C86" stroke-width="3" width="24" x="474.5" y="114.5" />
<rect fill="#ECF1E0" height="24" width="24" x="450.5" y="114.5" />
<rect fill="none" height="24" stroke="#405C86" stroke-width="3" width="24" x="450.5" y="114.5" />
<rect fill="#ECF1E0" height="24" width="24" x="426.5" y="114.5" />
<rect fill="none" height="24" stroke="#405C86" stroke-width="3" width="24" x="426.5" y="114.5" />
<rect fill="#ECF1E0" height="24" width="24" x="402.5" y="114.5" />
<rect fill="none" height="24" stroke="#405C86" stroke-width="3" width="24" x="402.5" y="114.5" />
<rect fill="#ECF1E0" height="24" width="24" x="378.5" y="114.5" />
<rect fill="none" height="24" stroke="#405C86" stroke-width="3" width="24" x="378.5" y="114.5" />
<rect fill="#ECF1E0" height="24" width="24" x="354.5" y="114.5" />
<rect fill="none" height="24" stroke="#405C86" stroke-width="3" width="24" x="354.5" y="114.5" />
<rect fill="#ECF1E0" height="24" width="24" x="330.5" y="114.5" />
<rect fill="none" height="24" stroke="#405C86" stroke-width="3" width="24" x="330.5" y="114.5" />
<rect fill="#ECF1E0" height="24" width="24" x="306.5" y="114.5" />
<rect fill="none" height="24" stroke="#405C86" stroke-width="3" width="24" x="306.5" y="114.5" />
<rect fill="#ECF1E0" height="24" width="24" x="282.5" y="114.5" />
<rect fill="none" height="24" stroke="#405C86" stroke-width="3" width="24" x="282.5" y="114.5" />
<rect fill="#ECF1E0" height="24" width="24" x="258.5" y="114.5" />
<rect fill="none" height="24" stroke="#405C86" stroke-width="3" width="24" x="258.5" y="114.5" />
<rect fill="#ECF1E0" height="24" width="24" x="234.5" y="114.5" />
<rect fill="none" height="24" stroke="#405C86" stroke-width="3" width="24" x="234.5" y="114.5" />
<rect fill="#ECF1E0" height="24" width="24" x="210.5" y="114.5" />
<rect fill="none" height="24" stroke="#405C86" stroke-width="3" width="24" x="210.5" y="114.5" />
<rect fill="#ECF1E0" height="24" width="24" x="186.5" y="114.5" />
<rect fill="none" height="24" stroke="#405C86" stroke-width="3" width="24" x="186.5" y="114.5" />
<rect fill="#ECF1E0" height="24" width="24" x="162.5" y="114.5" />
<rect fill="none" height="24" stroke="#405C86" stroke-width="3" width="24" x="162.5" y="114.5" />
<rect fill="#ECF1E0" height="24" width="24" x="138.5" y="114.5" />
<rect fill="none" height="24" stroke="#405C86" stroke-width="3" width="24" x="138.5" y="114.5" />
<rect fill="#ECF1E0" height="24" width="24" x="114.5" y="114.5" />
<rect fill="none" height="24" stroke="#405C86" stroke-width="3" width="24" x="114.5" y="114.5" />
<rect fill="#ECF1E0" height="24" width="24" x="90.5" y="114.5" />
<rect fill="none" height="24" stroke="#405C86" stroke-width="3" width="24" x="90.5" y="114.5" />
<text class="register-name" x="80.5" y="126.5">Zn2</text>
<text class="intrinsic-name" x="80.5" y="138.5">op2</text>
<text class="register-number" x="10" y="126.5">(3)</text>
<rect fill="#EEDDDB" height="24" width="24" x="834.5" y="186.5" />
<rect fill="none" height="24" stroke="#405C86" stroke-width="3" width="24" x="834.5" y="186.5" />
<rect fill="#EEDDDB" height="24" width="24" x="810.5" y="186.5" />
<rect fill="none" height="24" stroke="#405C86" stroke-width="3" width="24" x="810.5" y="186.5" />
<rect fill="#EEDDDB" height="24" width="24" x="786.5" y="186.5" />
<rect fill="none" height="24" stroke="#405C86" stroke-width="3" width="24" x="786.5" y="186.5" />
<rect fill="#EEDDDB" height="24" width="24" x="762.5" y="186.5" />
<rect fill="none" height="24" stroke="#405C86" stroke-width="3" width="24" x="762.5" y="186.5" />
<rect fill="#EEDDDB" height="24" width="24" x="738.5" y="186.5" />
<rect fill="none" height="24" stroke="#405C86" stroke-width="3" width="24" x="738.5" y="186.5" />
<rect fill="#EEDDDB" height="24" width="24" x="714.5" y="186.5" />
<rect fill="none" height="24" stroke="#405C86" stroke-width="3" width="24" x="714.5" y="186.5" />
<rect fill="#EEDDDB" height="24" width="24" x="690.5" y="186.5" />
<rect fill="none" height="24" stroke="#405C86" stroke-width="3" width="24" x="690.5" y="186.5" />
<rect fill="#ECF1E0" height="24" width="24" x="666.5" y="186.5" />
<rect fill="none" height="24" stroke="#405C86" stroke-width="3" width="24" x="666.5" y="186.5" />
<rect fill="#ECF1E0" height="24" width="24" x="642.5" y="186.5" />
<rect fill="none" height="24" stroke="#405C86" stroke-width="3" width="24" x="642.5" y="186.5" />
<rect fill="#ECF1E0" height="24" width="24" x="618.5" y="186.5" />
<rect fill="none" height="24" stroke="#405C86" stroke-width="3" width="24" x="618.5" y="186.5" />
<rect fill="#ECF1E0" height="24" width="24" x="594.5" y="186.5" />
<rect fill="none" height="24" stroke="#405C86" stroke-width="3" width="24" x="594.5" y="186.5" />
<rect fill="#ECF1E0" height="24" width="24" x="570.5" y="186.5" />
<rect fill="none" height="24" stroke="#405C86" stroke-width="3" width="24" x="570.5" y="186.5" />
<rect fill="#ECF1E0" height="24" width="24" x="546.5" y="186.5" />
<rect fill="none" height="24" stroke="#405C86" stroke-width="3" width="24" x="546.5" y="186.5" />
<rect fill="#ECF1E0" height="24" width="24" x="522.5" y="186.5" />
<rect fill="none" height="24" stroke="#405C86" stroke-width="3" width="24" x="522.5" y="186.5" />
<rect fill="#ECF1E0" height="24" width="24" x="498.5" y="186.5" />
<rect fill="none" height="24" stroke="#405C86" stroke-width="3" width="24" x="498.5" y="186.5" />
<rect fill="#ECF1E0" height="24" width="24" x="474.5" y="186.5" />
<rect fill="none" height="24" stroke="#405C86" stroke-width="3" width="24" x="474.5" y="186.5" />
<rect fill="#ECF1E0" height="24" width="24" x="450.5" y="186.5" />
<rect fill="none" height="24" stroke="#405C86" stroke-width="3" width="24" x="450.5" y="186.5" />
<rect fill="#ECF1E0" height="24" width="24" x="426.5" y="186.5" />
<rect fill="none" height="24" stroke="#405C86" stroke-width="3" width="24" x="426.5" y="186.5" />
<rect fill="#ECF1E0" height="24" width="24" x="402.5" y="186.5" />
<rect fill="none" height="24" stroke="#405C86" stroke-width="3" width="24" x="402.5" y="186.5" />
<rect fill="#ECF1E0" height="24" width="24" x="378.5" y="186.5" />
<rect fill="none" height="24" stroke="#405C86" stroke-width="3" width="24" x="378.5" y="186.5" />
<rect fill="#ECF1E0" height="24" width="24" x="354.5" y="186.5" />
<rect fill="none" height="24" stroke="#405C86" stroke-width="3" width="24" x="354.5" y="186.5" />
<rect fill="#ECF1E0" height="24" width="24" x="330.5" y="186.5" />
<rect fill="none" height="24" stroke="#405C86" stroke-width="3" width="24" x="330.5" y="186.5" />
<rect fill="#ECF1E0" height="24" width="24" x="306.5" y="186.5" />
<rect fill="none" height="24" stroke="#405C86" stroke-width="3" width="24" x="306.5" y="186.5" />
<rect fill="#ECF1E0" height="24" width="24" x="282.5" y="186.5" />
<rect fill="none" height="24" stroke="#405C86" stroke-width="3" width="24" x="282.5" y="186.5" />
<rect fill="#ECF1E0" height="24" width="24" x="258.5" y="186.5" />
<rect fill="none" height="24" stroke="#405C86" stroke-width="3" width="24" x="258.5" y="186.5" />
<rect fill="#ECF1E0" height="24" width="24" x="234.5" y="186.5" />
<rect fill="none" height="24" stroke="#405C86" stroke-width="3" width="24" x="234.5" y="186.5" />
<rect fill="#ECF1E0" height="24" width="24" x="210.5" y="186.5" />
<rect fill="none" height="24" stroke="#405C86" stroke-width="3" width="24" x="210.5" y="186.5" />
<rect fill="#ECF1E0" height="24" width="24" x="186.5" y="186.5" />
<rect fill="none" height="24" stroke="#405C86" stroke-width="3" width="24" x="186.5" y="186.5" />
<rect fill="#ECF1E0" height="24" width="24" x="162.5" y="186.5" />
<rect fill="none" height="24" stroke="#405C86" stroke-width="3" width="24" x="162.5" y="186.5" />
<rect fill="#ECF1E0" height="24" width="24" x="138.5" y="186.5" />
<rect fill="none" height="24" stroke="#405C86" stroke-width="3" width="24" x="138.5" y="186.5" />
<rect fill="#ECF1E0" height="24" width="24" x="114.5" y="186.5" />
<rect fill="none" height="24" stroke="#405C86" stroke-width="3" width="24" x="114.5" y="186.5" />
<rect fill="#ECF1E0" height="24" width="24" x="90.5" y="186.5" />
<rect fill="none" height="24" stroke="#405C86" stroke-width="3" width="24" x="90.5" y="186.5" />
<text class="register-name" x="80.5" y="198.5">Zd</text>
<text class="intrinsic-name" x="80.5" y="210.5">returns</text>
<text class="register-number" x="10" y="198.5">(4)</text>
<line stroke="#567DB6" stroke-width="1" x1="798.5" x2="846.5" y1="91.5" y2="185" />
<line stroke="#567DB6" stroke-width="1" x1="774.5" x2="822.5" y1="91.5" y2="185" />
<line stroke="#567DB6" stroke-width="1" x1="750.5" x2="798.5" y1="91.5" y2="185" />
<line stroke="#567DB6" stroke-width="1" x1="726.5" x2="774.5" y1="91.5" y2="185" />
<line stroke="#567DB6" stroke-width="1" x1="702.5" x2="750.5" y1="91.5" y2="185" />
<line stroke="#567DB6" stroke-width="1" x1="678.5" x2="726.5" y1="91.5" y2="185" />
<line stroke="#567DB6" stroke-width="1" x1="654.5" x2="702.5" y1="91.5" y2="185" />
<line stroke="#567DB6" stroke-dasharray="4 3" stroke-width="1" x1="846.5" x2="678.5" y1="139.5" y2="185" />
<line stroke="#567DB6" stroke-dasharray="4 3" stroke-width="1" x1="822.5" x2="654.5" y1="139.5" y2="185" />
<line stroke="#567DB6" stroke-dasharray="4 3" stroke-width="1" x1="798.5" x2="630.5" y1="139.5" y2="185" />
<line stroke="#567DB6" stroke-dasharray="4 3" stroke-width="1" x1="774.5" x2="606.5" y1="139.5" y2="185" />
<line stroke="#567DB6" stroke-dasharray="4 3" stroke-width="1" x1="750.5" x2="582.5" y1="139.5" y2="185" />
<line stroke="#567DB6" stroke-dasharray="4 3" stroke-width="1" x1="726.5" x2="558.5" y1="139.5" y2="185" />
<line stroke="#567DB6" stroke-dasharray="4 3" stroke-width="1" x1="702.5" x2="534.5" y1="139.5" y2="185" />
<line stroke="#567DB6" stroke-dasharray="4 3" stroke-width="1" x1="678.5" x2="510.5" y1="139.5" y2="185" />
<line stroke="#567DB6" stroke-dasharray="4 3" stroke-width="1" x1="654.5" x2="486.5" y1="139.5" y2="185" />
<line stroke="#567DB6" stroke-dasharray="4 3" stroke-width="1" x1="630.5" x2="462.5" y1="139.5" y2="185" />
<line stroke="#567DB6" stroke-dasharray="4 3" stroke-width="1" x1="606.5" x2="438.5" y1="139.5" y2="185" />
<line stroke="#567DB6" stroke-dasharray="4 3" stroke-width="1" x1="582.5" x2="414.5" y1="139.5" y2="185" />
<line stroke="#567DB6" stroke-dasharray="4 3" stroke-width="1" x1="558.5" x2="390.5" y1="139.5" y2="185" />
<line stroke="#567DB6" stroke-dasharray="4 3" stroke-width="1" x1="534.5" x2="366.5" y1="139.5" y2="185" />
<line stroke="#567DB6" stroke-dasharray="4 3" stroke-width="1" x1="510.5" x2="342.5" y1="139.5" y2="185" />
<line stroke="#567DB6" stroke-dasharray="4 3" stroke-width="1" x1="486.5" x2="318.5" y1="139.5" y2="185" />
<line stroke="#567DB6" stroke-dasharray="4 3" stroke-width="1" x1="462.5" x2="294.5" y1="139.5" y2="185" />
<line stroke="#567DB6" stroke-dasharray="4 3" stroke-width="1" x1="438.5" x2="270.5" y1="139.5" y2="185" />
<line stroke="#567DB6" stroke-dasharray="4 3" stroke-width="1" x1="414.5" x2="246.5" y1="139.5" y2="185" />
<line stroke="#567DB6" stroke-dasharray="4 3" stroke-width="1" x1="390.5" x2="222.5" y1="139.5" y2="185" />
<line stroke="#567DB6" stroke-dasharray="4 3" stroke-width="1" x1="366.5" x2="198.5" y1="139.5" y2="185" />
<line stroke="#567DB6" stroke-dasharray="4 3" stroke-width="1" x1="342.5" x2="174.5" y1="139.5" y2="185" />
<line stroke="#567DB6" stroke-dasharray="4 3" stroke-width="1" x1="318.5" x2="150.5" y1="139.5" y2="185" />
<line stroke="#567DB6" stroke-dasharray="4 3" stroke-width="1" x1="294.5" x2="126.5" y1="139.5" y2="185" />
<line stroke="#567DB6" stroke-dasharray="4 3" stroke-width="1" x1="270.5" x2="102.5" y1="139.5" y2="185" />
<polyline fill="none" points="651.5 43.5,653.5 47.5,725.5 47.5,726.5 49.5,726.5 53.5,726.5 49.5,727.5 47.5,799.5 47.5,801.5 43.5" stroke="#567DB6" stroke-width="1" />
<polyline fill="none" points="645.5 65.5,647.5 61.5,725.5 61.5,726.5 59.5,726.5 55.5,726.5 59.5,727.5 61.5,805.5 61.5,807.5 65.5" stroke="#567DB6" stroke-width="1" />
<line stroke="#567DB6" stroke-width="1" x1="726.5" x2="726.5" y1="53.5" y2="55.5" />
<line marker-end="url(#arrowhead)" stroke="none" x1="798.5" x2="846.5" y1="91.5" y2="185" />
<line marker-end="url(#arrowhead)" stroke="none" x1="774.5" x2="822.5" y1="91.5" y2="185" />
<line marker-end="url(#arrowhead)" stroke="none" x1="750.5" x2="798.5" y1="91.5" y2="185" />
<line marker-end="url(#arrowhead)" stroke="none" x1="726.5" x2="774.5" y1="91.5" y2="185" />
<line marker-end="url(#arrowhead)" stroke="none" x1="702.5" x2="750.5" y1="91.5" y2="185" />
<line marker-end="url(#arrowhead)" stroke="none" x1="678.5" x2="726.5" y1="91.5" y2="185" />
<line marker-end="url(#arrowhead)" stroke="none" x1="654.5" x2="702.5" y1="91.5" y2="185" />
<line marker-end="url(#arrowhead)" stroke="none" stroke-dasharray="4 3" x1="846.5" x2="678.5" y1="139.5" y2="185" />
<line marker-end="url(#arrowhead)" stroke="none" stroke-dasharray="4 3" x1="822.5" x2="654.5" y1="139.5" y2="185" />
<line marker-end="url(#arrowhead)" stroke="none" stroke-dasharray="4 3" x1="798.5" x2="630.5" y1="139.5" y2="185" />
<line marker-end="url(#arrowhead)" stroke="none" stroke-dasharray="4 3" x1="774.5" x2="606.5" y1="139.5" y2="185" />
<line marker-end="url(#arrowhead)" stroke="none" stroke-dasharray="4 3" x1="750.5" x2="582.5" y1="139.5" y2="185" />
<line marker-end="url(#arrowhead)" stroke="none" stroke-dasharray="4 3" x1="726.5" x2="558.5" y1="139.5" y2="185" />
<line marker-end="url(#arrowhead)" stroke="none" stroke-dasharray="4 3" x1="702.5" x2="534.5" y1="139.5" y2="185" />
<line marker-end="url(#arrowhead)" stroke="none" stroke-dasharray="4 3" x1="678.5" x2="510.5" y1="139.5" y2="185" />
<line marker-end="url(#arrowhead)" stroke="none" stroke-dasharray="4 3" x1="654.5" x2="486.5" y1="139.5" y2="185" />
<line marker-end="url(#arrowhead)" stroke="none" stroke-dasharray="4 3" x1="630.5" x2="462.5" y1="139.5" y2="185" />
<line marker-end="url(#arrowhead)" stroke="none" stroke-dasharray="4 3" x1="606.5" x2="438.5" y1="139.5" y2="185" />
<line marker-end="url(#arrowhead)" stroke="none" stroke-dasharray="4 3" x1="582.5" x2="414.5" y1="139.5" y2="185" />
<line marker-end="url(#arrowhead)" stroke="none" stroke-dasharray="4 3" x1="558.5" x2="390.5" y1="139.5" y2="185" />
<line marker-end="url(#arrowhead)" stroke="none" stroke-dasharray="4 3" x1="534.5" x2="366.5" y1="139.5" y2="185" />
<line marker-end="url(#arrowhead)" stroke="none" stroke-dasharray="4 3" x1="510.5" x2="342.5" y1="139.5" y2="185" />
<line marker-end="url(#arrowhead)" stroke="none" stroke-dasharray="4 3" x1="486.5" x2="318.5" y1="139.5" y2="185" />
<line marker-end="url(#arrowhead)" stroke="none" stroke-dasharray="4 3" x1="462.5" x2="294.5" y1="139.5" y2="185" />
<line marker-end="url(#arrowhead)" stroke="none" stroke-dasharray="4 3" x1="438.5" x2="270.5" y1="139.5" y2="185" />
<line marker-end="url(#arrowhead)" stroke="none" stroke-dasharray="4 3" x1="414.5" x2="246.5" y1="139.5" y2="185" />
<line marker-end="url(#arrowhead)" stroke="none" stroke-dasharray="4 3" x1="390.5" x2="222.5" y1="139.5" y2="185" />
<line marker-end="url(#arrowhead)" stroke="none" stroke-dasharray="4 3" x1="366.5" x2="198.5" y1="139.5" y2="185" />
<line marker-end="url(#arrowhead)" stroke="none" stroke-dasharray="4 3" x1="342.5" x2="174.5" y1="139.5" y2="185" />
<line marker-end="url(#arrowhead)" stroke="none" stroke-dasharray="4 3" x1="318.5" x2="150.5" y1="139.5" y2="185" />
<line marker-end="url(#arrowhead)" stroke="none" stroke-dasharray="4 3" x1="294.5" x2="126.5" y1="139.5" y2="185" />
<line marker-end="url(#arrowhead)" stroke="none" stroke-dasharray="4 3" x1="270.5" x2="102.5" y1="139.5" y2="185" />
</svg>