<svg xmlns="http://www.w3.org/2000/svg" viewBox="0 0 1638 243">
<style>
.label { font: 14px Helvetica; dominant-baseline: middle; text-anchor: middle; }
.title-left { font: 12px Helvetica; dominant-baseline: middle; }
.title-right { font: 12px Helvetica; dominant-baseline: middle; text-anchor: end; }
.title-intrinsic { font: 12px Helvetica; dominant-baseline: middle; text-anchor: middle; fill: #6778ED; }
.title { font: 12px Helvetica; dominant-baseline: middle; text-anchor: middle; }
.title-unused { font: 12px Helvetica; dominant-baseline: middle; text-anchor: middle; fill: #AAA; }
.register-name { font: 14px Helvetica; dominant-baseline: middle; text-anchor: end; font-style: italic; }
.memory-name { font: 14px Helvetica; dominant-baseline: middle; text-anchor: end; }
.register-number { font: 14px Helvetica; dominant-baseline: middle; text-anchor: start; }
.intrinsic-name { font: 14px Helvetica; dominant-baseline: middle; text-anchor: end; fill: #6778ED; }
.intrinsic-color { fill: #6778ED; }
.small-label { font: 12px Helvetica; dominant-baseline: middle; text-anchor: middle; }
.label-10px { font: 10px Helvetica; dominant-baseline: middle; text-anchor: middle; }
.smaller-label { font: 9px Helvetica; dominant-baseline: middle; text-anchor: middle; }
.label-6px { font: 6px Helvetica; dominant-baseline: middle; text-anchor: middle; }
.label-7px { font: 7px Helvetica; dominant-baseline: middle; text-anchor: middle; }
.unused { fill: #AAA; }
.dim { fill: #888; }
</style>
<defs>
<marker id="arrowhead" markerWidth="10.75" markerHeight="24.5" refX="9.0" refY="6.125" orient="auto">
<polyline points="0.5 0.5, 8.75 6.125, 0.5 11.75" stroke="#567DB6" stroke-width="1" fill="none"/>
</marker>
</defs>
<line stroke="#000" stroke-width="3" x1="474.5" x2="474.5" y1="11" y2="242" />
<line stroke="#000" stroke-width="3" x1="858.5" x2="858.5" y1="11" y2="242" />
<line stroke="#000" stroke-width="3" x1="1242.5" x2="1242.5" y1="11" y2="242" />
<text class="title-left" x="90.5" y="9.5">upper</text>
<text class="title-right" x="1626.5" y="9.5">lower</text>
<text class="title-intrinsic" x="1482.5" y="8.5">imm_index=1</text>
<text class="title-intrinsic" x="1098.5" y="8.5">imm_index=1</text>
<text class="title-intrinsic" x="714.5" y="8.5">imm_index=1</text>
<text class="title-intrinsic" x="330.5" y="8.5">imm_index=1</text>
<rect fill="none" height="24" stroke="#405C86" stroke-dasharray="3 1" stroke-dashoffset="1.5" stroke-width="1" width="48" x="1578.5" y="90.5" />
<text class="label unused" x="1602.5" y="103.5"></text>
<rect fill="#DEE6F1" height="24" width="48" x="1530.5" y="90.5" />
<rect fill="none" height="24" stroke="#405C86" stroke-width="3" width="48" x="1530.5" y="90.5" />
<text class="label" x="1554.5" y="103.5">A</text>
<rect fill="none" height="24" stroke="#405C86" stroke-dasharray="3 1" stroke-dashoffset="1.5" stroke-width="1" width="48" x="1482.5" y="90.5" />
<text class="label unused" x="1506.5" y="103.5"></text>
<rect fill="#EEDDDB" height="24" width="48" x="1434.5" y="90.5" />
<rect fill="none" height="24" stroke="#405C86" stroke-width="3" width="48" x="1434.5" y="90.5" />
<text class="label" x="1458.5" y="103.5">A</text>
<rect fill="none" height="24" stroke="#405C86" stroke-dasharray="3 1" stroke-dashoffset="1.5" stroke-width="1" width="48" x="1386.5" y="90.5" />
<text class="label unused" x="1410.5" y="103.5"></text>
<rect fill="#DEE6F1" height="24" width="48" x="1338.5" y="90.5" />
<rect fill="none" height="24" stroke="#405C86" stroke-width="3" width="48" x="1338.5" y="90.5" />
<text class="label" x="1362.5" y="103.5">A</text>
<rect fill="none" height="24" stroke="#405C86" stroke-dasharray="3 1" stroke-dashoffset="1.5" stroke-width="1" width="48" x="1290.5" y="90.5" />
<text class="label unused" x="1314.5" y="103.5"></text>
<rect fill="#EEDDDB" height="24" width="48" x="1242.5" y="90.5" />
<rect fill="none" height="24" stroke="#405C86" stroke-width="3" width="48" x="1242.5" y="90.5" />
<text class="label" x="1266.5" y="103.5">A</text>
<rect fill="none" height="24" stroke="#405C86" stroke-dasharray="3 1" stroke-dashoffset="1.5" stroke-width="1" width="48" x="1194.5" y="90.5" />
<text class="label unused" x="1218.5" y="103.5"></text>
<rect fill="#DEE6F1" height="24" width="48" x="1146.5" y="90.5" />
<rect fill="none" height="24" stroke="#405C86" stroke-width="3" width="48" x="1146.5" y="90.5" />
<text class="label" x="1170.5" y="103.5">A</text>
<rect fill="none" height="24" stroke="#405C86" stroke-dasharray="3 1" stroke-dashoffset="1.5" stroke-width="1" width="48" x="1098.5" y="90.5" />
<text class="label unused" x="1122.5" y="103.5"></text>
<rect fill="#EEDDDB" height="24" width="48" x="1050.5" y="90.5" />
<rect fill="none" height="24" stroke="#405C86" stroke-width="3" width="48" x="1050.5" y="90.5" />
<text class="label" x="1074.5" y="103.5">A</text>
<rect fill="none" height="24" stroke="#405C86" stroke-dasharray="3 1" stroke-dashoffset="1.5" stroke-width="1" width="48" x="1002.5" y="90.5" />
<text class="label unused" x="1026.5" y="103.5"></text>
<rect fill="#DEE6F1" height="24" width="48" x="954.5" y="90.5" />
<rect fill="none" height="24" stroke="#405C86" stroke-width="3" width="48" x="954.5" y="90.5" />
<text class="label" x="978.5" y="103.5">A</text>
<rect fill="none" height="24" stroke="#405C86" stroke-dasharray="3 1" stroke-dashoffset="1.5" stroke-width="1" width="48" x="906.5" y="90.5" />
<text class="label unused" x="930.5" y="103.5"></text>
<rect fill="#EEDDDB" height="24" width="48" x="858.5" y="90.5" />
<rect fill="none" height="24" stroke="#405C86" stroke-width="3" width="48" x="858.5" y="90.5" />
<text class="label" x="882.5" y="103.5">A</text>
<rect fill="none" height="24" stroke="#405C86" stroke-dasharray="3 1" stroke-dashoffset="1.5" stroke-width="1" width="48" x="810.5" y="90.5" />
<text class="label unused" x="834.5" y="103.5"></text>
<rect fill="#DEE6F1" height="24" width="48" x="762.5" y="90.5" />
<rect fill="none" height="24" stroke="#405C86" stroke-width="3" width="48" x="762.5" y="90.5" />
<text class="label" x="786.5" y="103.5">A</text>
<rect fill="none" height="24" stroke="#405C86" stroke-dasharray="3 1" stroke-dashoffset="1.5" stroke-width="1" width="48" x="714.5" y="90.5" />
<text class="label unused" x="738.5" y="103.5"></text>
<rect fill="#EEDDDB" height="24" width="48" x="666.5" y="90.5" />
<rect fill="none" height="24" stroke="#405C86" stroke-width="3" width="48" x="666.5" y="90.5" />
<text class="label" x="690.5" y="103.5">A</text>
<rect fill="none" height="24" stroke="#405C86" stroke-dasharray="3 1" stroke-dashoffset="1.5" stroke-width="1" width="48" x="618.5" y="90.5" />
<text class="label unused" x="642.5" y="103.5"></text>
<rect fill="#DEE6F1" height="24" width="48" x="570.5" y="90.5" />
<rect fill="none" height="24" stroke="#405C86" stroke-width="3" width="48" x="570.5" y="90.5" />
<text class="label" x="594.5" y="103.5">A</text>
<rect fill="none" height="24" stroke="#405C86" stroke-dasharray="3 1" stroke-dashoffset="1.5" stroke-width="1" width="48" x="522.5" y="90.5" />
<text class="label unused" x="546.5" y="103.5"></text>
<rect fill="#EEDDDB" height="24" width="48" x="474.5" y="90.5" />
<rect fill="none" height="24" stroke="#405C86" stroke-width="3" width="48" x="474.5" y="90.5" />
<text class="label" x="498.5" y="103.5">A</text>
<rect fill="none" height="24" stroke="#405C86" stroke-dasharray="3 1" stroke-dashoffset="1.5" stroke-width="1" width="48" x="426.5" y="90.5" />
<text class="label unused" x="450.5" y="103.5"></text>
<rect fill="#DEE6F1" height="24" width="48" x="378.5" y="90.5" />
<rect fill="none" height="24" stroke="#405C86" stroke-width="3" width="48" x="378.5" y="90.5" />
<text class="label" x="402.5" y="103.5">A</text>
<rect fill="none" height="24" stroke="#405C86" stroke-dasharray="3 1" stroke-dashoffset="1.5" stroke-width="1" width="48" x="330.5" y="90.5" />
<text class="label unused" x="354.5" y="103.5"></text>
<rect fill="#EEDDDB" height="24" width="48" x="282.5" y="90.5" />
<rect fill="none" height="24" stroke="#405C86" stroke-width="3" width="48" x="282.5" y="90.5" />
<text class="label" x="306.5" y="103.5">A</text>
<rect fill="none" height="24" stroke="#405C86" stroke-dasharray="3 1" stroke-dashoffset="1.5" stroke-width="1" width="48" x="234.5" y="90.5" />
<text class="label unused" x="258.5" y="103.5"></text>
<rect fill="#DEE6F1" height="24" width="48" x="186.5" y="90.5" />
<rect fill="none" height="24" stroke="#405C86" stroke-width="3" width="48" x="186.5" y="90.5" />
<text class="label" x="210.5" y="103.5">A</text>
<rect fill="none" height="24" stroke="#405C86" stroke-dasharray="3 1" stroke-dashoffset="1.5" stroke-width="1" width="48" x="138.5" y="90.5" />
<text class="label unused" x="162.5" y="103.5"></text>
<rect fill="#EEDDDB" height="24" width="48" x="90.5" y="90.5" />
<rect fill="none" height="24" stroke="#405C86" stroke-width="3" width="48" x="90.5" y="90.5" />
<text class="label" x="114.5" y="103.5">A</text>
<text class="register-name" x="80.5" y="102.5">Zn</text>
<text class="intrinsic-name" x="80.5" y="114.5">op2</text>
<text class="register-number" x="10" y="102.5">(2)</text>
<rect fill="none" height="24" stroke="#405C86" stroke-dasharray="3 1" stroke-dashoffset="1.5" stroke-width="1" width="96" x="1530.5" y="18.5" />
<text class="label unused" x="1578.5" y="31.5">0</text>
<rect fill="#EEDDDB" height="24" width="48" x="1482.5" y="18.5" />
<rect fill="none" height="24" stroke="#405C86" stroke-width="3" width="48" x="1482.5" y="18.5" />
<text class="label" x="1506.5" y="31.5">B</text>
<rect fill="#EEDDDB" height="24" width="48" x="1434.5" y="18.5" />
<rect fill="none" height="24" stroke="#405C86" stroke-width="3" width="48" x="1434.5" y="18.5" />
<text class="label" x="1458.5" y="31.5">C</text>
<rect fill="none" height="24" stroke="#405C86" stroke-dasharray="3 1" stroke-dashoffset="1.5" stroke-width="1" width="96" x="1338.5" y="18.5" />
<text class="label unused" x="1386.5" y="31.5">2</text>
<rect fill="none" height="24" stroke="#405C86" stroke-dasharray="3 1" stroke-dashoffset="1.5" stroke-width="1" width="96" x="1242.5" y="18.5" />
<text class="label unused" x="1290.5" y="31.5">3</text>
<rect fill="none" height="24" stroke="#405C86" stroke-dasharray="3 1" stroke-dashoffset="1.5" stroke-width="1" width="96" x="1146.5" y="18.5" />
<text class="label unused" x="1194.5" y="31.5">0</text>
<rect fill="#EEDDDB" height="24" width="48" x="1098.5" y="18.5" />
<rect fill="none" height="24" stroke="#405C86" stroke-width="3" width="48" x="1098.5" y="18.5" />
<text class="label" x="1122.5" y="31.5">B</text>
<rect fill="#EEDDDB" height="24" width="48" x="1050.5" y="18.5" />
<rect fill="none" height="24" stroke="#405C86" stroke-width="3" width="48" x="1050.5" y="18.5" />
<text class="label" x="1074.5" y="31.5">C</text>
<rect fill="none" height="24" stroke="#405C86" stroke-dasharray="3 1" stroke-dashoffset="1.5" stroke-width="1" width="96" x="954.5" y="18.5" />
<text class="label unused" x="1002.5" y="31.5">2</text>
<rect fill="none" height="24" stroke="#405C86" stroke-dasharray="3 1" stroke-dashoffset="1.5" stroke-width="1" width="96" x="858.5" y="18.5" />
<text class="label unused" x="906.5" y="31.5">3</text>
<rect fill="none" height="24" stroke="#405C86" stroke-dasharray="3 1" stroke-dashoffset="1.5" stroke-width="1" width="96" x="762.5" y="18.5" />
<text class="label unused" x="810.5" y="31.5">0</text>
<rect fill="#EEDDDB" height="24" width="48" x="714.5" y="18.5" />
<rect fill="none" height="24" stroke="#405C86" stroke-width="3" width="48" x="714.5" y="18.5" />
<text class="label" x="738.5" y="31.5">B</text>
<rect fill="#EEDDDB" height="24" width="48" x="666.5" y="18.5" />
<rect fill="none" height="24" stroke="#405C86" stroke-width="3" width="48" x="666.5" y="18.5" />
<text class="label" x="690.5" y="31.5">C</text>
<rect fill="none" height="24" stroke="#405C86" stroke-dasharray="3 1" stroke-dashoffset="1.5" stroke-width="1" width="96" x="570.5" y="18.5" />
<text class="label unused" x="618.5" y="31.5">2</text>
<rect fill="none" height="24" stroke="#405C86" stroke-dasharray="3 1" stroke-dashoffset="1.5" stroke-width="1" width="96" x="474.5" y="18.5" />
<text class="label unused" x="522.5" y="31.5">3</text>
<rect fill="none" height="24" stroke="#405C86" stroke-dasharray="3 1" stroke-dashoffset="1.5" stroke-width="1" width="96" x="378.5" y="18.5" />
<text class="label unused" x="426.5" y="31.5">0</text>
<rect fill="#EEDDDB" height="24" width="48" x="330.5" y="18.5" />
<rect fill="none" height="24" stroke="#405C86" stroke-width="3" width="48" x="330.5" y="18.5" />
<text class="label" x="354.5" y="31.5">B</text>
<rect fill="#EEDDDB" height="24" width="48" x="282.5" y="18.5" />
<rect fill="none" height="24" stroke="#405C86" stroke-width="3" width="48" x="282.5" y="18.5" />
<text class="label" x="306.5" y="31.5">C</text>
<rect fill="none" height="24" stroke="#405C86" stroke-dasharray="3 1" stroke-dashoffset="1.5" stroke-width="1" width="96" x="186.5" y="18.5" />
<text class="label unused" x="234.5" y="31.5">2</text>
<rect fill="none" height="24" stroke="#405C86" stroke-dasharray="3 1" stroke-dashoffset="1.5" stroke-width="1" width="96" x="90.5" y="18.5" />
<text class="label unused" x="138.5" y="31.5">3</text>
<text class="register-name" x="80.5" y="30.5">Zm</text>
<text class="intrinsic-name" x="80.5" y="42.5">op3</text>
<text class="register-number" x="10" y="30.5">(1)</text>
<rect fill="#DEE6F1" height="24" width="48" x="1578.5" y="138.5" />
<rect fill="none" height="24" stroke="#405C86" stroke-width="3" width="48" x="1578.5" y="138.5" />
<text class="label" x="1602.5" y="151.5">D</text>
<rect fill="#DEE6F1" height="24" width="48" x="1530.5" y="138.5" />
<rect fill="none" height="24" stroke="#405C86" stroke-width="3" width="48" x="1530.5" y="138.5" />
<text class="label" x="1554.5" y="151.5">E</text>
<rect fill="#EEDDDB" height="24" width="48" x="1482.5" y="138.5" />
<rect fill="none" height="24" stroke="#405C86" stroke-width="3" width="48" x="1482.5" y="138.5" />
<text class="label" x="1506.5" y="151.5">D</text>
<rect fill="#EEDDDB" height="24" width="48" x="1434.5" y="138.5" />
<rect fill="none" height="24" stroke="#405C86" stroke-width="3" width="48" x="1434.5" y="138.5" />
<text class="label" x="1458.5" y="151.5">E</text>
<rect fill="#DEE6F1" height="24" width="48" x="1386.5" y="138.5" />
<rect fill="none" height="24" stroke="#405C86" stroke-width="3" width="48" x="1386.5" y="138.5" />
<text class="label" x="1410.5" y="151.5">D</text>
<rect fill="#DEE6F1" height="24" width="48" x="1338.5" y="138.5" />
<rect fill="none" height="24" stroke="#405C86" stroke-width="3" width="48" x="1338.5" y="138.5" />
<text class="label" x="1362.5" y="151.5">E</text>
<rect fill="#EEDDDB" height="24" width="48" x="1290.5" y="138.5" />
<rect fill="none" height="24" stroke="#405C86" stroke-width="3" width="48" x="1290.5" y="138.5" />
<text class="label" x="1314.5" y="151.5">D</text>
<rect fill="#EEDDDB" height="24" width="48" x="1242.5" y="138.5" />
<rect fill="none" height="24" stroke="#405C86" stroke-width="3" width="48" x="1242.5" y="138.5" />
<text class="label" x="1266.5" y="151.5">E</text>
<rect fill="#DEE6F1" height="24" width="48" x="1194.5" y="138.5" />
<rect fill="none" height="24" stroke="#405C86" stroke-width="3" width="48" x="1194.5" y="138.5" />
<text class="label" x="1218.5" y="151.5">D</text>
<rect fill="#DEE6F1" height="24" width="48" x="1146.5" y="138.5" />
<rect fill="none" height="24" stroke="#405C86" stroke-width="3" width="48" x="1146.5" y="138.5" />
<text class="label" x="1170.5" y="151.5">E</text>
<rect fill="#EEDDDB" height="24" width="48" x="1098.5" y="138.5" />
<rect fill="none" height="24" stroke="#405C86" stroke-width="3" width="48" x="1098.5" y="138.5" />
<text class="label" x="1122.5" y="151.5">D</text>
<rect fill="#EEDDDB" height="24" width="48" x="1050.5" y="138.5" />
<rect fill="none" height="24" stroke="#405C86" stroke-width="3" width="48" x="1050.5" y="138.5" />
<text class="label" x="1074.5" y="151.5">E</text>
<rect fill="#DEE6F1" height="24" width="48" x="1002.5" y="138.5" />
<rect fill="none" height="24" stroke="#405C86" stroke-width="3" width="48" x="1002.5" y="138.5" />
<text class="label" x="1026.5" y="151.5">D</text>
<rect fill="#DEE6F1" height="24" width="48" x="954.5" y="138.5" />
<rect fill="none" height="24" stroke="#405C86" stroke-width="3" width="48" x="954.5" y="138.5" />
<text class="label" x="978.5" y="151.5">E</text>
<rect fill="#EEDDDB" height="24" width="48" x="906.5" y="138.5" />
<rect fill="none" height="24" stroke="#405C86" stroke-width="3" width="48" x="906.5" y="138.5" />
<text class="label" x="930.5" y="151.5">D</text>
<rect fill="#EEDDDB" height="24" width="48" x="858.5" y="138.5" />
<rect fill="none" height="24" stroke="#405C86" stroke-width="3" width="48" x="858.5" y="138.5" />
<text class="label" x="882.5" y="151.5">E</text>
<rect fill="#DEE6F1" height="24" width="48" x="810.5" y="138.5" />
<rect fill="none" height="24" stroke="#405C86" stroke-width="3" width="48" x="810.5" y="138.5" />
<text class="label" x="834.5" y="151.5">D</text>
<rect fill="#DEE6F1" height="24" width="48" x="762.5" y="138.5" />
<rect fill="none" height="24" stroke="#405C86" stroke-width="3" width="48" x="762.5" y="138.5" />
<text class="label" x="786.5" y="151.5">E</text>
<rect fill="#EEDDDB" height="24" width="48" x="714.5" y="138.5" />
<rect fill="none" height="24" stroke="#405C86" stroke-width="3" width="48" x="714.5" y="138.5" />
<text class="label" x="738.5" y="151.5">D</text>
<rect fill="#EEDDDB" height="24" width="48" x="666.5" y="138.5" />
<rect fill="none" height="24" stroke="#405C86" stroke-width="3" width="48" x="666.5" y="138.5" />
<text class="label" x="690.5" y="151.5">E</text>
<rect fill="#DEE6F1" height="24" width="48" x="618.5" y="138.5" />
<rect fill="none" height="24" stroke="#405C86" stroke-width="3" width="48" x="618.5" y="138.5" />
<text class="label" x="642.5" y="151.5">D</text>
<rect fill="#DEE6F1" height="24" width="48" x="570.5" y="138.5" />
<rect fill="none" height="24" stroke="#405C86" stroke-width="3" width="48" x="570.5" y="138.5" />
<text class="label" x="594.5" y="151.5">E</text>
<rect fill="#EEDDDB" height="24" width="48" x="522.5" y="138.5" />
<rect fill="none" height="24" stroke="#405C86" stroke-width="3" width="48" x="522.5" y="138.5" />
<text class="label" x="546.5" y="151.5">D</text>
<rect fill="#EEDDDB" height="24" width="48" x="474.5" y="138.5" />
<rect fill="none" height="24" stroke="#405C86" stroke-width="3" width="48" x="474.5" y="138.5" />
<text class="label" x="498.5" y="151.5">E</text>
<rect fill="#DEE6F1" height="24" width="48" x="426.5" y="138.5" />
<rect fill="none" height="24" stroke="#405C86" stroke-width="3" width="48" x="426.5" y="138.5" />
<text class="label" x="450.5" y="151.5">D</text>
<rect fill="#DEE6F1" height="24" width="48" x="378.5" y="138.5" />
<rect fill="none" height="24" stroke="#405C86" stroke-width="3" width="48" x="378.5" y="138.5" />
<text class="label" x="402.5" y="151.5">E</text>
<rect fill="#EEDDDB" height="24" width="48" x="330.5" y="138.5" />
<rect fill="none" height="24" stroke="#405C86" stroke-width="3" width="48" x="330.5" y="138.5" />
<text class="label" x="354.5" y="151.5">D</text>
<rect fill="#EEDDDB" height="24" width="48" x="282.5" y="138.5" />
<rect fill="none" height="24" stroke="#405C86" stroke-width="3" width="48" x="282.5" y="138.5" />
<text class="label" x="306.5" y="151.5">E</text>
<rect fill="#DEE6F1" height="24" width="48" x="234.5" y="138.5" />
<rect fill="none" height="24" stroke="#405C86" stroke-width="3" width="48" x="234.5" y="138.5" />
<text class="label" x="258.5" y="151.5">D</text>
<rect fill="#DEE6F1" height="24" width="48" x="186.5" y="138.5" />
<rect fill="none" height="24" stroke="#405C86" stroke-width="3" width="48" x="186.5" y="138.5" />
<text class="label" x="210.5" y="151.5">E</text>
<rect fill="#EEDDDB" height="24" width="48" x="138.5" y="138.5" />
<rect fill="none" height="24" stroke="#405C86" stroke-width="3" width="48" x="138.5" y="138.5" />
<text class="label" x="162.5" y="151.5">D</text>
<rect fill="#EEDDDB" height="24" width="48" x="90.5" y="138.5" />
<rect fill="none" height="24" stroke="#405C86" stroke-width="3" width="48" x="90.5" y="138.5" />
<text class="label" x="114.5" y="151.5">E</text>
<text class="register-name" x="80.5" y="150.5">Zda</text>
<text class="intrinsic-name" x="80.5" y="162.5">op1</text>
<text class="register-number" x="10" y="150.5">(3)</text>
<rect fill="#DEE6F1" height="24" width="48" x="1578.5" y="210.5" />
<rect fill="none" height="24" stroke="#405C86" stroke-width="3" width="48" x="1578.5" y="210.5" />
<text class="label-10px" x="1602.5" y="223.5">f(D,A*C)</text>
<rect fill="#DEE6F1" height="24" width="48" x="1530.5" y="210.5" />
<rect fill="none" height="24" stroke="#405C86" stroke-width="3" width="48" x="1530.5" y="210.5" />
<text class="label-10px" x="1554.5" y="223.5">f(E,&#x2212;A*B)</text>
<rect fill="#EEDDDB" height="24" width="48" x="1482.5" y="210.5" />
<rect fill="none" height="24" stroke="#405C86" stroke-width="3" width="48" x="1482.5" y="210.5" />
<text class="label-10px" x="1506.5" y="223.5">f(D,A*C)</text>
<rect fill="#EEDDDB" height="24" width="48" x="1434.5" y="210.5" />
<rect fill="none" height="24" stroke="#405C86" stroke-width="3" width="48" x="1434.5" y="210.5" />
<text class="label-10px" x="1458.5" y="223.5">f(E,&#x2212;A*B)</text>
<rect fill="#DEE6F1" height="24" width="48" x="1386.5" y="210.5" />
<rect fill="none" height="24" stroke="#405C86" stroke-width="3" width="48" x="1386.5" y="210.5" />
<text class="label-10px" x="1410.5" y="223.5">f(D,A*C)</text>
<rect fill="#DEE6F1" height="24" width="48" x="1338.5" y="210.5" />
<rect fill="none" height="24" stroke="#405C86" stroke-width="3" width="48" x="1338.5" y="210.5" />
<text class="label-10px" x="1362.5" y="223.5">f(E,&#x2212;A*B)</text>
<rect fill="#EEDDDB" height="24" width="48" x="1290.5" y="210.5" />
<rect fill="none" height="24" stroke="#405C86" stroke-width="3" width="48" x="1290.5" y="210.5" />
<text class="label-10px" x="1314.5" y="223.5">f(D,A*C)</text>
<rect fill="#EEDDDB" height="24" width="48" x="1242.5" y="210.5" />
<rect fill="none" height="24" stroke="#405C86" stroke-width="3" width="48" x="1242.5" y="210.5" />
<text class="label-10px" x="1266.5" y="223.5">f(E,&#x2212;A*B)</text>
<rect fill="#DEE6F1" height="24" width="48" x="1194.5" y="210.5" />
<rect fill="none" height="24" stroke="#405C86" stroke-width="3" width="48" x="1194.5" y="210.5" />
<text class="label-10px" x="1218.5" y="223.5">f(D,A*C)</text>
<rect fill="#DEE6F1" height="24" width="48" x="1146.5" y="210.5" />
<rect fill="none" height="24" stroke="#405C86" stroke-width="3" width="48" x="1146.5" y="210.5" />
<text class="label-10px" x="1170.5" y="223.5">f(E,&#x2212;A*B)</text>
<rect fill="#EEDDDB" height="24" width="48" x="1098.5" y="210.5" />
<rect fill="none" height="24" stroke="#405C86" stroke-width="3" width="48" x="1098.5" y="210.5" />
<text class="label-10px" x="1122.5" y="223.5">f(D,A*C)</text>
<rect fill="#EEDDDB" height="24" width="48" x="1050.5" y="210.5" />
<rect fill="none" height="24" stroke="#405C86" stroke-width="3" width="48" x="1050.5" y="210.5" />
<text class="label-10px" x="1074.5" y="223.5">f(E,&#x2212;A*B)</text>
<rect fill="#DEE6F1" height="24" width="48" x="1002.5" y="210.5" />
<rect fill="none" height="24" stroke="#405C86" stroke-width="3" width="48" x="1002.5" y="210.5" />
<text class="label-10px" x="1026.5" y="223.5">f(D,A*C)</text>
<rect fill="#DEE6F1" height="24" width="48" x="954.5" y="210.5" />
<rect fill="none" height="24" stroke="#405C86" stroke-width="3" width="48" x="954.5" y="210.5" />
<text class="label-10px" x="978.5" y="223.5">f(E,&#x2212;A*B)</text>
<rect fill="#EEDDDB" height="24" width="48" x="906.5" y="210.5" />
<rect fill="none" height="24" stroke="#405C86" stroke-width="3" width="48" x="906.5" y="210.5" />
<text class="label-10px" x="930.5" y="223.5">f(D,A*C)</text>
<rect fill="#EEDDDB" height="24" width="48" x="858.5" y="210.5" />
<rect fill="none" height="24" stroke="#405C86" stroke-width="3" width="48" x="858.5" y="210.5" />
<text class="label-10px" x="882.5" y="223.5">f(E,&#x2212;A*B)</text>
<rect fill="#DEE6F1" height="24" width="48" x="810.5" y="210.5" />
<rect fill="none" height="24" stroke="#405C86" stroke-width="3" width="48" x="810.5" y="210.5" />
<text class="label-10px" x="834.5" y="223.5">f(D,A*C)</text>
<rect fill="#DEE6F1" height="24" width="48" x="762.5" y="210.5" />
<rect fill="none" height="24" stroke="#405C86" stroke-width="3" width="48" x="762.5" y="210.5" />
<text class="label-10px" x="786.5" y="223.5">f(E,&#x2212;A*B)</text>
<rect fill="#EEDDDB" height="24" width="48" x="714.5" y="210.5" />
<rect fill="none" height="24" stroke="#405C86" stroke-width="3" width="48" x="714.5" y="210.5" />
<text class="label-10px" x="738.5" y="223.5">f(D,A*C)</text>
<rect fill="#EEDDDB" height="24" width="48" x="666.5" y="210.5" />
<rect fill="none" height="24" stroke="#405C86" stroke-width="3" width="48" x="666.5" y="210.5" />
<text class="label-10px" x="690.5" y="223.5">f(E,&#x2212;A*B)</text>
<rect fill="#DEE6F1" height="24" width="48" x="618.5" y="210.5" />
<rect fill="none" height="24" stroke="#405C86" stroke-width="3" width="48" x="618.5" y="210.5" />
<text class="label-10px" x="642.5" y="223.5">f(D,A*C)</text>
<rect fill="#DEE6F1" height="24" width="48" x="570.5" y="210.5" />
<rect fill="none" height="24" stroke="#405C86" stroke-width="3" width="48" x="570.5" y="210.5" />
<text class="label-10px" x="594.5" y="223.5">f(E,&#x2212;A*B)</text>
<rect fill="#EEDDDB" height="24" width="48" x="522.5" y="210.5" />
<rect fill="none" height="24" stroke="#405C86" stroke-width="3" width="48" x="522.5" y="210.5" />
<text class="label-10px" x="546.5" y="223.5">f(D,A*C)</text>
<rect fill="#EEDDDB" height="24" width="48" x="474.5" y="210.5" />
<rect fill="none" height="24" stroke="#405C86" stroke-width="3" width="48" x="474.5" y="210.5" />
<text class="label-10px" x="498.5" y="223.5">f(E,&#x2212;A*B)</text>
<rect fill="#DEE6F1" height="24" width="48" x="426.5" y="210.5" />
<rect fill="none" height="24" stroke="#405C86" stroke-width="3" width="48" x="426.5" y="210.5" />
<text class="label-10px" x="450.5" y="223.5">f(D,A*C)</text>
<rect fill="#DEE6F1" height="24" width="48" x="378.5" y="210.5" />
<rect fill="none" height="24" stroke="#405C86" stroke-width="3" width="48" x="378.5" y="210.5" />
<text class="label-10px" x="402.5" y="223.5">f(E,&#x2212;A*B)</text>
<rect fill="#EEDDDB" height="24" width="48" x="330.5" y="210.5" />
<rect fill="none" height="24" stroke="#405C86" stroke-width="3" width="48" x="330.5" y="210.5" />
<text class="label-10px" x="354.5" y="223.5">f(D,A*C)</text>
<rect fill="#EEDDDB" height="24" width="48" x="282.5" y="210.5" />
<rect fill="none" height="24" stroke="#405C86" stroke-width="3" width="48" x="282.5" y="210.5" />
<text class="label-10px" x="306.5" y="223.5">f(E,&#x2212;A*B)</text>
<rect fill="#DEE6F1" height="24" width="48" x="234.5" y="210.5" />
<rect fill="none" height="24" stroke="#405C86" stroke-width="3" width="48" x="234.5" y="210.5" />
<text class="label-10px" x="258.5" y="223.5">f(D,A*C)</text>
<rect fill="#DEE6F1" height="24" width="48" x="186.5" y="210.5" />
<rect fill="none" height="24" stroke="#405C86" stroke-width="3" width="48" x="186.5" y="210.5" />
<text class="label-10px" x="210.5" y="223.5">f(E,&#x2212;A*B)</text>
<rect fill="#EEDDDB" height="24" width="48" x="138.5" y="210.5" />
<rect fill="none" height="24" stroke="#405C86" stroke-width="3" width="48" x="138.5" y="210.5" />
<text class="label-10px" x="162.5" y="223.5">f(D,A*C)</text>
<rect fill="#EEDDDB" height="24" width="48" x="90.5" y="210.5" />
<rect fill="none" height="24" stroke="#405C86" stroke-width="3" width="48" x="90.5" y="210.5" />
<text class="label-10px" x="114.5" y="223.5">f(E,&#x2212;A*B)</text>
<text class="register-name" x="80.5" y="222.5">Zda</text>
<text class="intrinsic-name" x="80.5" y="234.5">returns</text>
<text class="register-number" x="10" y="222.5">(4)</text>
<line stroke="#567DB6" stroke-width="1" x1="1554.5" x2="1602.5" y1="115.5" y2="137.5" />
<line stroke="#567DB6" stroke-width="1" x1="1554.5" x2="1554.5" y1="115.5" y2="137.5" />
<line stroke="#567DB6" stroke-width="1" x1="1458.5" x2="1506.5" y1="115.5" y2="137.5" />
<line stroke="#567DB6" stroke-width="1" x1="1458.5" x2="1458.5" y1="115.5" y2="137.5" />
<line stroke="#567DB6" stroke-width="1" x1="1362.5" x2="1410.5" y1="115.5" y2="137.5" />
<line stroke="#567DB6" stroke-width="1" x1="1362.5" x2="1362.5" y1="115.5" y2="137.5" />
<line stroke="#567DB6" stroke-width="1" x1="1266.5" x2="1314.5" y1="115.5" y2="137.5" />
<line stroke="#567DB6" stroke-width="1" x1="1266.5" x2="1266.5" y1="115.5" y2="137.5" />
<line stroke="#567DB6" stroke-width="1" x1="1170.5" x2="1218.5" y1="115.5" y2="137.5" />
<line stroke="#567DB6" stroke-width="1" x1="1170.5" x2="1170.5" y1="115.5" y2="137.5" />
<line stroke="#567DB6" stroke-width="1" x1="1074.5" x2="1122.5" y1="115.5" y2="137.5" />
<line stroke="#567DB6" stroke-width="1" x1="1074.5" x2="1074.5" y1="115.5" y2="137.5" />
<line stroke="#567DB6" stroke-width="1" x1="978.5" x2="1026.5" y1="115.5" y2="137.5" />
<line stroke="#567DB6" stroke-width="1" x1="978.5" x2="978.5" y1="115.5" y2="137.5" />
<line stroke="#567DB6" stroke-width="1" x1="882.5" x2="930.5" y1="115.5" y2="137.5" />
<line stroke="#567DB6" stroke-width="1" x1="882.5" x2="882.5" y1="115.5" y2="137.5" />
<line stroke="#567DB6" stroke-width="1" x1="786.5" x2="834.5" y1="115.5" y2="137.5" />
<line stroke="#567DB6" stroke-width="1" x1="786.5" x2="786.5" y1="115.5" y2="137.5" />
<line stroke="#567DB6" stroke-width="1" x1="690.5" x2="738.5" y1="115.5" y2="137.5" />
<line stroke="#567DB6" stroke-width="1" x1="690.5" x2="690.5" y1="115.5" y2="137.5" />
<line stroke="#567DB6" stroke-width="1" x1="594.5" x2="642.5" y1="115.5" y2="137.5" />
<line stroke="#567DB6" stroke-width="1" x1="594.5" x2="594.5" y1="115.5" y2="137.5" />
<line stroke="#567DB6" stroke-width="1" x1="498.5" x2="546.5" y1="115.5" y2="137.5" />
<line stroke="#567DB6" stroke-width="1" x1="498.5" x2="498.5" y1="115.5" y2="137.5" />
<line stroke="#567DB6" stroke-width="1" x1="402.5" x2="450.5" y1="115.5" y2="137.5" />
<line stroke="#567DB6" stroke-width="1" x1="402.5" x2="402.5" y1="115.5" y2="137.5" />
<line stroke="#567DB6" stroke-width="1" x1="306.5" x2="354.5" y1="115.5" y2="137.5" />
<line stroke="#567DB6" stroke-width="1" x1="306.5" x2="306.5" y1="115.5" y2="137.5" />
<line stroke="#567DB6" stroke-width="1" x1="210.5" x2="258.5" y1="115.5" y2="137.5" />
<line stroke="#567DB6" stroke-width="1" x1="210.5" x2="210.5" y1="115.5" y2="137.5" />
<line stroke="#567DB6" stroke-width="1" x1="114.5" x2="162.5" y1="115.5" y2="137.5" />
<line stroke="#567DB6" stroke-width="1" x1="114.5" x2="114.5" y1="115.5" y2="137.5" />
<line stroke="#567DB6" stroke-width="1" x1="1602.5" x2="1602.5" y1="163.5" y2="209" />
<line stroke="#567DB6" stroke-width="1" x1="1554.5" x2="1554.5" y1="163.5" y2="209" />
<line stroke="#567DB6" stroke-width="1" x1="1506.5" x2="1506.5" y1="163.5" y2="209" />
<line stroke="#567DB6" stroke-width="1" x1="1458.5" x2="1458.5" y1="163.5" y2="209" />
<line stroke="#567DB6" stroke-width="1" x1="1410.5" x2="1410.5" y1="163.5" y2="209" />
<line stroke="#567DB6" stroke-width="1" x1="1362.5" x2="1362.5" y1="163.5" y2="209" />
<line stroke="#567DB6" stroke-width="1" x1="1314.5" x2="1314.5" y1="163.5" y2="209" />
<line stroke="#567DB6" stroke-width="1" x1="1266.5" x2="1266.5" y1="163.5" y2="209" />
<line stroke="#567DB6" stroke-width="1" x1="1218.5" x2="1218.5" y1="163.5" y2="209" />
<line stroke="#567DB6" stroke-width="1" x1="1170.5" x2="1170.5" y1="163.5" y2="209" />
<line stroke="#567DB6" stroke-width="1" x1="1122.5" x2="1122.5" y1="163.5" y2="209" />
<line stroke="#567DB6" stroke-width="1" x1="1074.5" x2="1074.5" y1="163.5" y2="209" />
<line stroke="#567DB6" stroke-width="1" x1="1026.5" x2="1026.5" y1="163.5" y2="209" />
<line stroke="#567DB6" stroke-width="1" x1="978.5" x2="978.5" y1="163.5" y2="209" />
<line stroke="#567DB6" stroke-width="1" x1="930.5" x2="930.5" y1="163.5" y2="209" />
<line stroke="#567DB6" stroke-width="1" x1="882.5" x2="882.5" y1="163.5" y2="209" />
<line stroke="#567DB6" stroke-width="1" x1="834.5" x2="834.5" y1="163.5" y2="209" />
<line stroke="#567DB6" stroke-width="1" x1="786.5" x2="786.5" y1="163.5" y2="209" />
<line stroke="#567DB6" stroke-width="1" x1="738.5" x2="738.5" y1="163.5" y2="209" />
<line stroke="#567DB6" stroke-width="1" x1="690.5" x2="690.5" y1="163.5" y2="209" />
<line stroke="#567DB6" stroke-width="1" x1="642.5" x2="642.5" y1="163.5" y2="209" />
<line stroke="#567DB6" stroke-width="1" x1="594.5" x2="594.5" y1="163.5" y2="209" />
<line stroke="#567DB6" stroke-width="1" x1="546.5" x2="546.5" y1="163.5" y2="209" />
<line stroke="#567DB6" stroke-width="1" x1="498.5" x2="498.5" y1="163.5" y2="209" />
<line stroke="#567DB6" stroke-width="1" x1="450.5" x2="450.5" y1="163.5" y2="209" />
<line stroke="#567DB6" stroke-width="1" x1="402.5" x2="402.5" y1="163.5" y2="209" />
<line stroke="#567DB6" stroke-width="1" x1="354.5" x2="354.5" y1="163.5" y2="209" />
<line stroke="#567DB6" stroke-width="1" x1="306.5" x2="306.5" y1="163.5" y2="209" />
<line stroke="#567DB6" stroke-width="1" x1="258.5" x2="258.5" y1="163.5" y2="209" />
<line stroke="#567DB6" stroke-width="1" x1="210.5" x2="210.5" y1="163.5" y2="209" />
<line stroke="#567DB6" stroke-width="1" x1="162.5" x2="162.5" y1="163.5" y2="209" />
<line stroke="#567DB6" stroke-width="1" x1="114.5" x2="114.5" y1="163.5" y2="209" />
<polyline fill="none" points="1437.5 43.5,1439.5 47.5,1481.5 47.5,1482.5 49.5,1482.5 53.5,1482.5 49.5,1483.5 47.5,1525.5 47.5,1527.5 43.5" stroke="#567DB6" stroke-width="1" />
<polyline fill="none" points="1482.5 52.5,1482.5 53.5,1554.5 89.5" stroke="#567DB6" stroke-width="1" />
<polyline fill="none" points="1482.5 52.5,1482.5 53.5,1458.5 89.5" stroke="#567DB6" stroke-width="1" />
<polyline fill="none" points="1482.5 52.5,1482.5 53.5,1362.5 89.5" stroke="#567DB6" stroke-width="1" />
<polyline fill="none" points="1482.5 52.5,1482.5 53.5,1266.5 89.5" stroke="#567DB6" stroke-width="1" />
<polyline fill="none" points="1053.5 43.5,1055.5 47.5,1097.5 47.5,1098.5 49.5,1098.5 53.5,1098.5 49.5,1099.5 47.5,1141.5 47.5,1143.5 43.5" stroke="#567DB6" stroke-width="1" />
<polyline fill="none" points="1098.5 52.5,1098.5 53.5,1170.5 89.5" stroke="#567DB6" stroke-width="1" />
<polyline fill="none" points="1098.5 52.5,1098.5 53.5,1074.5 89.5" stroke="#567DB6" stroke-width="1" />
<polyline fill="none" points="1098.5 52.5,1098.5 53.5,978.5 89.5" stroke="#567DB6" stroke-width="1" />
<polyline fill="none" points="1098.5 52.5,1098.5 53.5,882.5 89.5" stroke="#567DB6" stroke-width="1" />
<polyline fill="none" points="669.5 43.5,671.5 47.5,713.5 47.5,714.5 49.5,714.5 53.5,714.5 49.5,715.5 47.5,757.5 47.5,759.5 43.5" stroke="#567DB6" stroke-width="1" />
<polyline fill="none" points="714.5 52.5,714.5 53.5,786.5 89.5" stroke="#567DB6" stroke-width="1" />
<polyline fill="none" points="714.5 52.5,714.5 53.5,690.5 89.5" stroke="#567DB6" stroke-width="1" />
<polyline fill="none" points="714.5 52.5,714.5 53.5,594.5 89.5" stroke="#567DB6" stroke-width="1" />
<polyline fill="none" points="714.5 52.5,714.5 53.5,498.5 89.5" stroke="#567DB6" stroke-width="1" />
<polyline fill="none" points="285.5 43.5,287.5 47.5,329.5 47.5,330.5 49.5,330.5 53.5,330.5 49.5,331.5 47.5,373.5 47.5,375.5 43.5" stroke="#567DB6" stroke-width="1" />
<polyline fill="none" points="330.5 52.5,330.5 53.5,402.5 89.5" stroke="#567DB6" stroke-width="1" />
<polyline fill="none" points="330.5 52.5,330.5 53.5,306.5 89.5" stroke="#567DB6" stroke-width="1" />
<polyline fill="none" points="330.5 52.5,330.5 53.5,210.5 89.5" stroke="#567DB6" stroke-width="1" />
<polyline fill="none" points="330.5 52.5,330.5 53.5,114.5 89.5" stroke="#567DB6" stroke-width="1" />
<line marker-end="url(#arrowhead)" stroke="none" x1="1602.5" x2="1602.5" y1="163.5" y2="209" />
<line marker-end="url(#arrowhead)" stroke="none" x1="1554.5" x2="1554.5" y1="163.5" y2="209" />
<line marker-end="url(#arrowhead)" stroke="none" x1="1506.5" x2="1506.5" y1="163.5" y2="209" />
<line marker-end="url(#arrowhead)" stroke="none" x1="1458.5" x2="1458.5" y1="163.5" y2="209" />
<line marker-end="url(#arrowhead)" stroke="none" x1="1410.5" x2="1410.5" y1="163.5" y2="209" />
<line marker-end="url(#arrowhead)" stroke="none" x1="1362.5" x2="1362.5" y1="163.5" y2="209" />
<line marker-end="url(#arrowhead)" stroke="none" x1="1314.5" x2="1314.5" y1="163.5" y2="209" />
<line marker-end="url(#arrowhead)" stroke="none" x1="1266.5" x2="1266.5" y1="163.5" y2="209" />
<line marker-end="url(#arrowhead)" stroke="none" x1="1218.5" x2="1218.5" y1="163.5" y2="209" />
<line marker-end="url(#arrowhead)" stroke="none" x1="1170.5" x2="1170.5" y1="163.5" y2="209" />
<line marker-end="url(#arrowhead)" stroke="none" x1="1122.5" x2="1122.5" y1="163.5" y2="209" />
<line marker-end="url(#arrowhead)" stroke="none" x1="1074.5" x2="1074.5" y1="163.5" y2="209" />
<line marker-end="url(#arrowhead)" stroke="none" x1="1026.5" x2="1026.5" y1="163.5" y2="209" />
<line marker-end="url(#arrowhead)" stroke="none" x1="978.5" x2="978.5" y1="163.5" y2="209" />
<line marker-end="url(#arrowhead)" stroke="none" x1="930.5" x2="930.5" y1="163.5" y2="209" />
<line marker-end="url(#arrowhead)" stroke="none" x1="882.5" x2="882.5" y1="163.5" y2="209" />
<line marker-end="url(#arrowhead)" stroke="none" x1="834.5" x2="834.5" y1="163.5" y2="209" />
<line marker-end="url(#arrowhead)" stroke="none" x1="786.5" x2="786.5" y1="163.5" y2="209" />
<line marker-end="url(#arrowhead)" stroke="none" x1="738.5" x2="738.5" y1="163.5" y2="209" />
<line marker-end="url(#arrowhead)" stroke="none" x1="690.5" x2="690.5" y1="163.5" y2="209" />
<line marker-end="url(#arrowhead)" stroke="none" x1="642.5" x2="642.5" y1="163.5" y2="209" />
<line marker-end="url(#arrowhead)" stroke="none" x1="594.5" x2="594.5" y1="163.5" y2="209" />
<line marker-end="url(#arrowhead)" stroke="none" x1="546.5" x2="546.5" y1="163.5" y2="209" />
<line marker-end="url(#arrowhead)" stroke="none" x1="498.5" x2="498.5" y1="163.5" y2="209" />
<line marker-end="url(#arrowhead)" stroke="none" x1="450.5" x2="450.5" y1="163.5" y2="209" />
<line marker-end="url(#arrowhead)" stroke="none" x1="402.5" x2="402.5" y1="163.5" y2="209" />
<line marker-end="url(#arrowhead)" stroke="none" x1="354.5" x2="354.5" y1="163.5" y2="209" />
<line marker-end="url(#arrowhead)" stroke="none" x1="306.5" x2="306.5" y1="163.5" y2="209" />
<line marker-end="url(#arrowhead)" stroke="none" x1="258.5" x2="258.5" y1="163.5" y2="209" />
<line marker-end="url(#arrowhead)" stroke="none" x1="210.5" x2="210.5" y1="163.5" y2="209" />
<line marker-end="url(#arrowhead)" stroke="none" x1="162.5" x2="162.5" y1="163.5" y2="209" />
<line marker-end="url(#arrowhead)" stroke="none" x1="114.5" x2="114.5" y1="163.5" y2="209" />
</svg>