<svg xmlns="http://www.w3.org/2000/svg" viewBox="0 0 3174 123">
<style>
.label { font: 14px Helvetica; dominant-baseline: middle; text-anchor: middle; }
.title-left { font: 12px Helvetica; dominant-baseline: middle; }
.title-right { font: 12px Helvetica; dominant-baseline: middle; text-anchor: end; }
.title-intrinsic { font: 12px Helvetica; dominant-baseline: middle; text-anchor: middle; fill: #6778ED; }
.title { font: 12px Helvetica; dominant-baseline: middle; text-anchor: middle; }
.title-unused { font: 12px Helvetica; dominant-baseline: middle; text-anchor: middle; fill: #AAA; }
.register-name { font: 14px Helvetica; dominant-baseline: middle; text-anchor: end; font-style: italic; }
.memory-name { font: 14px Helvetica; dominant-baseline: middle; text-anchor: end; }
.register-number { font: 14px Helvetica; dominant-baseline: middle; text-anchor: start; }
.intrinsic-name { font: 14px Helvetica; dominant-baseline: middle; text-anchor: end; fill: #6778ED; }
.intrinsic-color { fill: #6778ED; }
.small-label { font: 12px Helvetica; dominant-baseline: middle; text-anchor: middle; }
.label-10px { font: 10px Helvetica; dominant-baseline: middle; text-anchor: middle; }
.smaller-label { font: 9px Helvetica; dominant-baseline: middle; text-anchor: middle; }
.label-6px { font: 6px Helvetica; dominant-baseline: middle; text-anchor: middle; }
.label-7px { font: 7px Helvetica; dominant-baseline: middle; text-anchor: middle; }
.unused { fill: #AAA; }
.dim { fill: #888; }
</style>
<defs>
<marker id="arrowhead" markerWidth="10.75" markerHeight="24.5" refX="9.0" refY="6.125" orient="auto">
<polyline points="0.5 0.5, 8.75 6.125, 0.5 11.75" stroke="#567DB6" stroke-width="1" fill="none"/>
</marker>
</defs>
<line stroke="#567DB6" stroke-width="1" x1="2974.953125" x2="2989.71875" y1="43.5" y2="89" />
<line stroke="#567DB6" stroke-width="1" x1="3146.234375" x2="3162.5" y1="43.5" y2="89" />
<line stroke="#567DB6" stroke-width="1" x1="2782.953125" x2="2797.71875" y1="43.5" y2="89" />
<line stroke="#567DB6" stroke-width="1" x1="2954.234375" x2="2970.5" y1="43.5" y2="89" />
<line stroke="#567DB6" stroke-width="1" x1="2590.953125" x2="2605.71875" y1="43.5" y2="89" />
<line stroke="#567DB6" stroke-width="1" x1="2762.234375" x2="2778.5" y1="43.5" y2="89" />
<line stroke="#567DB6" stroke-width="1" x1="2398.953125" x2="2413.71875" y1="43.5" y2="89" />
<line stroke="#567DB6" stroke-width="1" x1="2570.234375" x2="2586.5" y1="43.5" y2="89" />
<line stroke="#567DB6" stroke-width="1" x1="2206.953125" x2="2221.71875" y1="43.5" y2="89" />
<line stroke="#567DB6" stroke-width="1" x1="2378.234375" x2="2394.5" y1="43.5" y2="89" />
<line stroke="#567DB6" stroke-width="1" x1="2014.953125" x2="2029.71875" y1="43.5" y2="89" />
<line stroke="#567DB6" stroke-width="1" x1="2186.234375" x2="2202.5" y1="43.5" y2="89" />
<line stroke="#567DB6" stroke-width="1" x1="1822.953125" x2="1837.71875" y1="43.5" y2="89" />
<line stroke="#567DB6" stroke-width="1" x1="1994.234375" x2="2010.5" y1="43.5" y2="89" />
<line stroke="#567DB6" stroke-width="1" x1="1630.953125" x2="1645.71875" y1="43.5" y2="89" />
<line stroke="#567DB6" stroke-width="1" x1="1802.234375" x2="1818.5" y1="43.5" y2="89" />
<line stroke="#567DB6" stroke-width="1" x1="1438.953125" x2="1453.71875" y1="43.5" y2="89" />
<line stroke="#567DB6" stroke-width="1" x1="1610.234375" x2="1626.5" y1="43.5" y2="89" />
<line stroke="#567DB6" stroke-width="1" x1="1246.953125" x2="1261.71875" y1="43.5" y2="89" />
<line stroke="#567DB6" stroke-width="1" x1="1418.234375" x2="1434.5" y1="43.5" y2="89" />
<line stroke="#567DB6" stroke-width="1" x1="1054.953125" x2="1069.71875" y1="43.5" y2="89" />
<line stroke="#567DB6" stroke-width="1" x1="1226.234375" x2="1242.5" y1="43.5" y2="89" />
<line stroke="#567DB6" stroke-width="1" x1="862.953125" x2="877.71875" y1="43.5" y2="89" />
<line stroke="#567DB6" stroke-width="1" x1="1034.234375" x2="1050.5" y1="43.5" y2="89" />
<line stroke="#567DB6" stroke-width="1" x1="670.953125" x2="685.71875" y1="43.5" y2="89" />
<line stroke="#567DB6" stroke-width="1" x1="842.234375" x2="858.5" y1="43.5" y2="89" />
<line stroke="#567DB6" stroke-width="1" x1="478.953125" x2="493.71875" y1="43.5" y2="89" />
<line stroke="#567DB6" stroke-width="1" x1="650.234375" x2="666.5" y1="43.5" y2="89" />
<line stroke="#567DB6" stroke-width="1" x1="286.953125" x2="301.71875" y1="43.5" y2="89" />
<line stroke="#567DB6" stroke-width="1" x1="458.234375" x2="474.5" y1="43.5" y2="89" />
<line stroke="#567DB6" stroke-width="1" x1="94.953125" x2="109.71875" y1="43.5" y2="89" />
<line stroke="#567DB6" stroke-width="1" x1="266.234375" x2="282.5" y1="43.5" y2="89" />
<text class="title-left" x="90.5" y="9.5">upper</text>
<text class="title-right" x="3162.5" y="9.5">lower</text>
<rect fill="#DEE6F1" height="24" width="171.28125" x="2974.953125" y="18.5" />
<rect fill="#EEDDDB" height="24" width="4.453125" x="2970.5" y="18.5" />
<rect fill="#ECF1E0" height="24" width="2.953125" x="3146.234375" y="18.5" />
<rect fill="none" height="24" stroke="#405C86" stroke-width="3" width="192" x="2970.5" y="18.5" />
<rect fill="#DEE6F1" height="24" width="171.28125" x="2782.953125" y="18.5" />
<rect fill="#EEDDDB" height="24" width="4.453125" x="2778.5" y="18.5" />
<rect fill="#ECF1E0" height="24" width="2.953125" x="2954.234375" y="18.5" />
<rect fill="none" height="24" stroke="#405C86" stroke-width="3" width="192" x="2778.5" y="18.5" />
<rect fill="#DEE6F1" height="24" width="171.28125" x="2590.953125" y="18.5" />
<rect fill="#EEDDDB" height="24" width="4.453125" x="2586.5" y="18.5" />
<rect fill="#ECF1E0" height="24" width="2.953125" x="2762.234375" y="18.5" />
<rect fill="none" height="24" stroke="#405C86" stroke-width="3" width="192" x="2586.5" y="18.5" />
<rect fill="#DEE6F1" height="24" width="171.28125" x="2398.953125" y="18.5" />
<rect fill="#EEDDDB" height="24" width="4.453125" x="2394.5" y="18.5" />
<rect fill="#ECF1E0" height="24" width="2.953125" x="2570.234375" y="18.5" />
<rect fill="none" height="24" stroke="#405C86" stroke-width="3" width="192" x="2394.5" y="18.5" />
<rect fill="#DEE6F1" height="24" width="171.28125" x="2206.953125" y="18.5" />
<rect fill="#EEDDDB" height="24" width="4.453125" x="2202.5" y="18.5" />
<rect fill="#ECF1E0" height="24" width="2.953125" x="2378.234375" y="18.5" />
<rect fill="none" height="24" stroke="#405C86" stroke-width="3" width="192" x="2202.5" y="18.5" />
<rect fill="#DEE6F1" height="24" width="171.28125" x="2014.953125" y="18.5" />
<rect fill="#EEDDDB" height="24" width="4.453125" x="2010.5" y="18.5" />
<rect fill="#ECF1E0" height="24" width="2.953125" x="2186.234375" y="18.5" />
<rect fill="none" height="24" stroke="#405C86" stroke-width="3" width="192" x="2010.5" y="18.5" />
<rect fill="#DEE6F1" height="24" width="171.28125" x="1822.953125" y="18.5" />
<rect fill="#EEDDDB" height="24" width="4.453125" x="1818.5" y="18.5" />
<rect fill="#ECF1E0" height="24" width="2.953125" x="1994.234375" y="18.5" />
<rect fill="none" height="24" stroke="#405C86" stroke-width="3" width="192" x="1818.5" y="18.5" />
<rect fill="#DEE6F1" height="24" width="171.28125" x="1630.953125" y="18.5" />
<rect fill="#EEDDDB" height="24" width="4.453125" x="1626.5" y="18.5" />
<rect fill="#ECF1E0" height="24" width="2.953125" x="1802.234375" y="18.5" />
<rect fill="none" height="24" stroke="#405C86" stroke-width="3" width="192" x="1626.5" y="18.5" />
<rect fill="#DEE6F1" height="24" width="171.28125" x="1438.953125" y="18.5" />
<rect fill="#EEDDDB" height="24" width="4.453125" x="1434.5" y="18.5" />
<rect fill="#ECF1E0" height="24" width="2.953125" x="1610.234375" y="18.5" />
<rect fill="none" height="24" stroke="#405C86" stroke-width="3" width="192" x="1434.5" y="18.5" />
<rect fill="#DEE6F1" height="24" width="171.28125" x="1246.953125" y="18.5" />
<rect fill="#EEDDDB" height="24" width="4.453125" x="1242.5" y="18.5" />
<rect fill="#ECF1E0" height="24" width="2.953125" x="1418.234375" y="18.5" />
<rect fill="none" height="24" stroke="#405C86" stroke-width="3" width="192" x="1242.5" y="18.5" />
<rect fill="#DEE6F1" height="24" width="171.28125" x="1054.953125" y="18.5" />
<rect fill="#EEDDDB" height="24" width="4.453125" x="1050.5" y="18.5" />
<rect fill="#ECF1E0" height="24" width="2.953125" x="1226.234375" y="18.5" />
<rect fill="none" height="24" stroke="#405C86" stroke-width="3" width="192" x="1050.5" y="18.5" />
<rect fill="#DEE6F1" height="24" width="171.28125" x="862.953125" y="18.5" />
<rect fill="#EEDDDB" height="24" width="4.453125" x="858.5" y="18.5" />
<rect fill="#ECF1E0" height="24" width="2.953125" x="1034.234375" y="18.5" />
<rect fill="none" height="24" stroke="#405C86" stroke-width="3" width="192" x="858.5" y="18.5" />
<rect fill="#DEE6F1" height="24" width="171.28125" x="670.953125" y="18.5" />
<rect fill="#EEDDDB" height="24" width="4.453125" x="666.5" y="18.5" />
<rect fill="#ECF1E0" height="24" width="2.953125" x="842.234375" y="18.5" />
<rect fill="none" height="24" stroke="#405C86" stroke-width="3" width="192" x="666.5" y="18.5" />
<rect fill="#DEE6F1" height="24" width="171.28125" x="478.953125" y="18.5" />
<rect fill="#EEDDDB" height="24" width="4.453125" x="474.5" y="18.5" />
<rect fill="#ECF1E0" height="24" width="2.953125" x="650.234375" y="18.5" />
<rect fill="none" height="24" stroke="#405C86" stroke-width="3" width="192" x="474.5" y="18.5" />
<rect fill="#DEE6F1" height="24" width="171.28125" x="286.953125" y="18.5" />
<rect fill="#EEDDDB" height="24" width="4.453125" x="282.5" y="18.5" />
<rect fill="#ECF1E0" height="24" width="2.953125" x="458.234375" y="18.5" />
<rect fill="none" height="24" stroke="#405C86" stroke-width="3" width="192" x="282.5" y="18.5" />
<rect fill="#DEE6F1" height="24" width="171.28125" x="94.953125" y="18.5" />
<rect fill="#EEDDDB" height="24" width="4.453125" x="90.5" y="18.5" />
<rect fill="#ECF1E0" height="24" width="2.953125" x="266.234375" y="18.5" />
<rect fill="none" height="24" stroke="#405C86" stroke-width="3" width="192" x="90.5" y="18.5" />
<text class="register-name" x="80.5" y="30.5">Zdn</text>
<text class="intrinsic-name" x="80.5" y="42.5">op1</text>
<text class="register-number" x="10" y="30.5">(1)</text>
<rect fill="#DEE6F1" height="24" width="192" x="2970.5" y="90.5" />
<rect fill="#DEE6F1" height="24" width="172.78125" x="2989.71875" y="90.5" />
<rect fill="none" height="24" stroke="#405C86" stroke-width="3" width="192" x="2970.5" y="90.5" />
<rect fill="#DEE6F1" height="24" width="192" x="2778.5" y="90.5" />
<rect fill="#DEE6F1" height="24" width="172.78125" x="2797.71875" y="90.5" />
<rect fill="none" height="24" stroke="#405C86" stroke-width="3" width="192" x="2778.5" y="90.5" />
<rect fill="#DEE6F1" height="24" width="192" x="2586.5" y="90.5" />
<rect fill="#DEE6F1" height="24" width="172.78125" x="2605.71875" y="90.5" />
<rect fill="none" height="24" stroke="#405C86" stroke-width="3" width="192" x="2586.5" y="90.5" />
<rect fill="#DEE6F1" height="24" width="192" x="2394.5" y="90.5" />
<rect fill="#DEE6F1" height="24" width="172.78125" x="2413.71875" y="90.5" />
<rect fill="none" height="24" stroke="#405C86" stroke-width="3" width="192" x="2394.5" y="90.5" />
<rect fill="#DEE6F1" height="24" width="192" x="2202.5" y="90.5" />
<rect fill="#DEE6F1" height="24" width="172.78125" x="2221.71875" y="90.5" />
<rect fill="none" height="24" stroke="#405C86" stroke-width="3" width="192" x="2202.5" y="90.5" />
<rect fill="#DEE6F1" height="24" width="192" x="2010.5" y="90.5" />
<rect fill="#DEE6F1" height="24" width="172.78125" x="2029.71875" y="90.5" />
<rect fill="none" height="24" stroke="#405C86" stroke-width="3" width="192" x="2010.5" y="90.5" />
<rect fill="#DEE6F1" height="24" width="192" x="1818.5" y="90.5" />
<rect fill="#DEE6F1" height="24" width="172.78125" x="1837.71875" y="90.5" />
<rect fill="none" height="24" stroke="#405C86" stroke-width="3" width="192" x="1818.5" y="90.5" />
<rect fill="#DEE6F1" height="24" width="192" x="1626.5" y="90.5" />
<rect fill="#DEE6F1" height="24" width="172.78125" x="1645.71875" y="90.5" />
<rect fill="none" height="24" stroke="#405C86" stroke-width="3" width="192" x="1626.5" y="90.5" />
<rect fill="#DEE6F1" height="24" width="192" x="1434.5" y="90.5" />
<rect fill="#DEE6F1" height="24" width="172.78125" x="1453.71875" y="90.5" />
<rect fill="none" height="24" stroke="#405C86" stroke-width="3" width="192" x="1434.5" y="90.5" />
<rect fill="#DEE6F1" height="24" width="192" x="1242.5" y="90.5" />
<rect fill="#DEE6F1" height="24" width="172.78125" x="1261.71875" y="90.5" />
<rect fill="none" height="24" stroke="#405C86" stroke-width="3" width="192" x="1242.5" y="90.5" />
<rect fill="#DEE6F1" height="24" width="192" x="1050.5" y="90.5" />
<rect fill="#DEE6F1" height="24" width="172.78125" x="1069.71875" y="90.5" />
<rect fill="none" height="24" stroke="#405C86" stroke-width="3" width="192" x="1050.5" y="90.5" />
<rect fill="#DEE6F1" height="24" width="192" x="858.5" y="90.5" />
<rect fill="#DEE6F1" height="24" width="172.78125" x="877.71875" y="90.5" />
<rect fill="none" height="24" stroke="#405C86" stroke-width="3" width="192" x="858.5" y="90.5" />
<rect fill="#DEE6F1" height="24" width="192" x="666.5" y="90.5" />
<rect fill="#DEE6F1" height="24" width="172.78125" x="685.71875" y="90.5" />
<rect fill="none" height="24" stroke="#405C86" stroke-width="3" width="192" x="666.5" y="90.5" />
<rect fill="#DEE6F1" height="24" width="192" x="474.5" y="90.5" />
<rect fill="#DEE6F1" height="24" width="172.78125" x="493.71875" y="90.5" />
<rect fill="none" height="24" stroke="#405C86" stroke-width="3" width="192" x="474.5" y="90.5" />
<rect fill="#DEE6F1" height="24" width="192" x="282.5" y="90.5" />
<rect fill="#DEE6F1" height="24" width="172.78125" x="301.71875" y="90.5" />
<rect fill="none" height="24" stroke="#405C86" stroke-width="3" width="192" x="282.5" y="90.5" />
<rect fill="#DEE6F1" height="24" width="192" x="90.5" y="90.5" />
<rect fill="#DEE6F1" height="24" width="172.78125" x="109.71875" y="90.5" />
<rect fill="none" height="24" stroke="#405C86" stroke-width="3" width="192" x="90.5" y="90.5" />
<text class="register-name" x="80.5" y="102.5">Zdn</text>
<text class="intrinsic-name" x="80.5" y="114.5">returns</text>
<text class="register-number" x="10" y="102.5">(2)</text>
<line marker-end="url(#arrowhead)" stroke="none" x1="2974.953125" x2="2989.71875" y1="43.5" y2="89" />
<line marker-end="url(#arrowhead)" stroke="none" x1="3146.234375" x2="3162.5" y1="43.5" y2="89" />
<line marker-end="url(#arrowhead)" stroke="none" x1="2782.953125" x2="2797.71875" y1="43.5" y2="89" />
<line marker-end="url(#arrowhead)" stroke="none" x1="2954.234375" x2="2970.5" y1="43.5" y2="89" />
<line marker-end="url(#arrowhead)" stroke="none" x1="2590.953125" x2="2605.71875" y1="43.5" y2="89" />
<line marker-end="url(#arrowhead)" stroke="none" x1="2762.234375" x2="2778.5" y1="43.5" y2="89" />
<line marker-end="url(#arrowhead)" stroke="none" x1="2398.953125" x2="2413.71875" y1="43.5" y2="89" />
<line marker-end="url(#arrowhead)" stroke="none" x1="2570.234375" x2="2586.5" y1="43.5" y2="89" />
<line marker-end="url(#arrowhead)" stroke="none" x1="2206.953125" x2="2221.71875" y1="43.5" y2="89" />
<line marker-end="url(#arrowhead)" stroke="none" x1="2378.234375" x2="2394.5" y1="43.5" y2="89" />
<line marker-end="url(#arrowhead)" stroke="none" x1="2014.953125" x2="2029.71875" y1="43.5" y2="89" />
<line marker-end="url(#arrowhead)" stroke="none" x1="2186.234375" x2="2202.5" y1="43.5" y2="89" />
<line marker-end="url(#arrowhead)" stroke="none" x1="1822.953125" x2="1837.71875" y1="43.5" y2="89" />
<line marker-end="url(#arrowhead)" stroke="none" x1="1994.234375" x2="2010.5" y1="43.5" y2="89" />
<line marker-end="url(#arrowhead)" stroke="none" x1="1630.953125" x2="1645.71875" y1="43.5" y2="89" />
<line marker-end="url(#arrowhead)" stroke="none" x1="1802.234375" x2="1818.5" y1="43.5" y2="89" />
<line marker-end="url(#arrowhead)" stroke="none" x1="1438.953125" x2="1453.71875" y1="43.5" y2="89" />
<line marker-end="url(#arrowhead)" stroke="none" x1="1610.234375" x2="1626.5" y1="43.5" y2="89" />
<line marker-end="url(#arrowhead)" stroke="none" x1="1246.953125" x2="1261.71875" y1="43.5" y2="89" />
<line marker-end="url(#arrowhead)" stroke="none" x1="1418.234375" x2="1434.5" y1="43.5" y2="89" />
<line marker-end="url(#arrowhead)" stroke="none" x1="1054.953125" x2="1069.71875" y1="43.5" y2="89" />
<line marker-end="url(#arrowhead)" stroke="none" x1="1226.234375" x2="1242.5" y1="43.5" y2="89" />
<line marker-end="url(#arrowhead)" stroke="none" x1="862.953125" x2="877.71875" y1="43.5" y2="89" />
<line marker-end="url(#arrowhead)" stroke="none" x1="1034.234375" x2="1050.5" y1="43.5" y2="89" />
<line marker-end="url(#arrowhead)" stroke="none" x1="670.953125" x2="685.71875" y1="43.5" y2="89" />
<line marker-end="url(#arrowhead)" stroke="none" x1="842.234375" x2="858.5" y1="43.5" y2="89" />
<line marker-end="url(#arrowhead)" stroke="none" x1="478.953125" x2="493.71875" y1="43.5" y2="89" />
<line marker-end="url(#arrowhead)" stroke="none" x1="650.234375" x2="666.5" y1="43.5" y2="89" />
<line marker-end="url(#arrowhead)" stroke="none" x1="286.953125" x2="301.71875" y1="43.5" y2="89" />
<line marker-end="url(#arrowhead)" stroke="none" x1="458.234375" x2="474.5" y1="43.5" y2="89" />
<line marker-end="url(#arrowhead)" stroke="none" x1="94.953125" x2="109.71875" y1="43.5" y2="89" />
<line marker-end="url(#arrowhead)" stroke="none" x1="266.234375" x2="282.5" y1="43.5" y2="89" />
</svg>