<svg xmlns="http://www.w3.org/2000/svg" viewBox="0 0 1638 123">
<style>
.label { font: 14px Helvetica; dominant-baseline: middle; text-anchor: middle; }
.title-left { font: 12px Helvetica; dominant-baseline: middle; }
.title-right { font: 12px Helvetica; dominant-baseline: middle; text-anchor: end; }
.title-intrinsic { font: 12px Helvetica; dominant-baseline: middle; text-anchor: middle; fill: #6778ED; }
.title { font: 12px Helvetica; dominant-baseline: middle; text-anchor: middle; }
.title-unused { font: 12px Helvetica; dominant-baseline: middle; text-anchor: middle; fill: #AAA; }
.register-name { font: 14px Helvetica; dominant-baseline: middle; text-anchor: end; font-style: italic; }
.memory-name { font: 14px Helvetica; dominant-baseline: middle; text-anchor: end; }
.register-number { font: 14px Helvetica; dominant-baseline: middle; text-anchor: start; }
.intrinsic-name { font: 14px Helvetica; dominant-baseline: middle; text-anchor: end; fill: #6778ED; }
.intrinsic-color { fill: #6778ED; }
.small-label { font: 12px Helvetica; dominant-baseline: middle; text-anchor: middle; }
.label-10px { font: 10px Helvetica; dominant-baseline: middle; text-anchor: middle; }
.smaller-label { font: 9px Helvetica; dominant-baseline: middle; text-anchor: middle; }
.label-6px { font: 6px Helvetica; dominant-baseline: middle; text-anchor: middle; }
.label-7px { font: 7px Helvetica; dominant-baseline: middle; text-anchor: middle; }
.unused { fill: #AAA; }
.dim { fill: #888; }
</style>
<defs>
<marker id="arrowhead" markerWidth="10.75" markerHeight="24.5" refX="9.0" refY="6.125" orient="auto">
<polyline points="0.5 0.5, 8.75 6.125, 0.5 11.75" stroke="#567DB6" stroke-width="1" fill="none"/>
</marker>
</defs>
<line stroke="#567DB6" stroke-width="1" x1="1611.875" x2="1620.5" y1="43.5" y2="89" />
<line stroke="#567DB6" stroke-width="1" x1="1587.875" x2="1596.5" y1="43.5" y2="89" />
<line stroke="#567DB6" stroke-width="1" x1="1563.875" x2="1572.5" y1="43.5" y2="89" />
<line stroke="#567DB6" stroke-width="1" x1="1539.875" x2="1548.5" y1="43.5" y2="89" />
<line stroke="#567DB6" stroke-width="1" x1="1515.875" x2="1524.5" y1="43.5" y2="89" />
<line stroke="#567DB6" stroke-width="1" x1="1491.875" x2="1500.5" y1="43.5" y2="89" />
<line stroke="#567DB6" stroke-width="1" x1="1467.875" x2="1476.5" y1="43.5" y2="89" />
<line stroke="#567DB6" stroke-width="1" x1="1443.875" x2="1452.5" y1="43.5" y2="89" />
<line stroke="#567DB6" stroke-width="1" x1="1419.875" x2="1428.5" y1="43.5" y2="89" />
<line stroke="#567DB6" stroke-width="1" x1="1395.875" x2="1404.5" y1="43.5" y2="89" />
<line stroke="#567DB6" stroke-width="1" x1="1371.875" x2="1380.5" y1="43.5" y2="89" />
<line stroke="#567DB6" stroke-width="1" x1="1347.875" x2="1356.5" y1="43.5" y2="89" />
<line stroke="#567DB6" stroke-width="1" x1="1323.875" x2="1332.5" y1="43.5" y2="89" />
<line stroke="#567DB6" stroke-width="1" x1="1299.875" x2="1308.5" y1="43.5" y2="89" />
<line stroke="#567DB6" stroke-width="1" x1="1275.875" x2="1284.5" y1="43.5" y2="89" />
<line stroke="#567DB6" stroke-width="1" x1="1251.875" x2="1260.5" y1="43.5" y2="89" />
<line stroke="#567DB6" stroke-width="1" x1="1227.875" x2="1236.5" y1="43.5" y2="89" />
<line stroke="#567DB6" stroke-width="1" x1="1203.875" x2="1212.5" y1="43.5" y2="89" />
<line stroke="#567DB6" stroke-width="1" x1="1179.875" x2="1188.5" y1="43.5" y2="89" />
<line stroke="#567DB6" stroke-width="1" x1="1155.875" x2="1164.5" y1="43.5" y2="89" />
<line stroke="#567DB6" stroke-width="1" x1="1131.875" x2="1140.5" y1="43.5" y2="89" />
<line stroke="#567DB6" stroke-width="1" x1="1107.875" x2="1116.5" y1="43.5" y2="89" />
<line stroke="#567DB6" stroke-width="1" x1="1083.875" x2="1092.5" y1="43.5" y2="89" />
<line stroke="#567DB6" stroke-width="1" x1="1059.875" x2="1068.5" y1="43.5" y2="89" />
<line stroke="#567DB6" stroke-width="1" x1="1035.875" x2="1044.5" y1="43.5" y2="89" />
<line stroke="#567DB6" stroke-width="1" x1="1011.875" x2="1020.5" y1="43.5" y2="89" />
<line stroke="#567DB6" stroke-width="1" x1="987.875" x2="996.5" y1="43.5" y2="89" />
<line stroke="#567DB6" stroke-width="1" x1="963.875" x2="972.5" y1="43.5" y2="89" />
<line stroke="#567DB6" stroke-width="1" x1="939.875" x2="948.5" y1="43.5" y2="89" />
<line stroke="#567DB6" stroke-width="1" x1="915.875" x2="924.5" y1="43.5" y2="89" />
<line stroke="#567DB6" stroke-width="1" x1="891.875" x2="900.5" y1="43.5" y2="89" />
<line stroke="#567DB6" stroke-width="1" x1="867.875" x2="876.5" y1="43.5" y2="89" />
<line stroke="#567DB6" stroke-width="1" x1="843.875" x2="852.5" y1="43.5" y2="89" />
<line stroke="#567DB6" stroke-width="1" x1="819.875" x2="828.5" y1="43.5" y2="89" />
<line stroke="#567DB6" stroke-width="1" x1="795.875" x2="804.5" y1="43.5" y2="89" />
<line stroke="#567DB6" stroke-width="1" x1="771.875" x2="780.5" y1="43.5" y2="89" />
<line stroke="#567DB6" stroke-width="1" x1="747.875" x2="756.5" y1="43.5" y2="89" />
<line stroke="#567DB6" stroke-width="1" x1="723.875" x2="732.5" y1="43.5" y2="89" />
<line stroke="#567DB6" stroke-width="1" x1="699.875" x2="708.5" y1="43.5" y2="89" />
<line stroke="#567DB6" stroke-width="1" x1="675.875" x2="684.5" y1="43.5" y2="89" />
<line stroke="#567DB6" stroke-width="1" x1="651.875" x2="660.5" y1="43.5" y2="89" />
<line stroke="#567DB6" stroke-width="1" x1="627.875" x2="636.5" y1="43.5" y2="89" />
<line stroke="#567DB6" stroke-width="1" x1="603.875" x2="612.5" y1="43.5" y2="89" />
<line stroke="#567DB6" stroke-width="1" x1="579.875" x2="588.5" y1="43.5" y2="89" />
<line stroke="#567DB6" stroke-width="1" x1="555.875" x2="564.5" y1="43.5" y2="89" />
<line stroke="#567DB6" stroke-width="1" x1="531.875" x2="540.5" y1="43.5" y2="89" />
<line stroke="#567DB6" stroke-width="1" x1="507.875" x2="516.5" y1="43.5" y2="89" />
<line stroke="#567DB6" stroke-width="1" x1="483.875" x2="492.5" y1="43.5" y2="89" />
<line stroke="#567DB6" stroke-width="1" x1="459.875" x2="468.5" y1="43.5" y2="89" />
<line stroke="#567DB6" stroke-width="1" x1="435.875" x2="444.5" y1="43.5" y2="89" />
<line stroke="#567DB6" stroke-width="1" x1="411.875" x2="420.5" y1="43.5" y2="89" />
<line stroke="#567DB6" stroke-width="1" x1="387.875" x2="396.5" y1="43.5" y2="89" />
<line stroke="#567DB6" stroke-width="1" x1="363.875" x2="372.5" y1="43.5" y2="89" />
<line stroke="#567DB6" stroke-width="1" x1="339.875" x2="348.5" y1="43.5" y2="89" />
<line stroke="#567DB6" stroke-width="1" x1="315.875" x2="324.5" y1="43.5" y2="89" />
<line stroke="#567DB6" stroke-width="1" x1="291.875" x2="300.5" y1="43.5" y2="89" />
<line stroke="#567DB6" stroke-width="1" x1="267.875" x2="276.5" y1="43.5" y2="89" />
<line stroke="#567DB6" stroke-width="1" x1="243.875" x2="252.5" y1="43.5" y2="89" />
<line stroke="#567DB6" stroke-width="1" x1="219.875" x2="228.5" y1="43.5" y2="89" />
<line stroke="#567DB6" stroke-width="1" x1="195.875" x2="204.5" y1="43.5" y2="89" />
<line stroke="#567DB6" stroke-width="1" x1="171.875" x2="180.5" y1="43.5" y2="89" />
<line stroke="#567DB6" stroke-width="1" x1="147.875" x2="156.5" y1="43.5" y2="89" />
<line stroke="#567DB6" stroke-width="1" x1="123.875" x2="132.5" y1="43.5" y2="89" />
<line stroke="#567DB6" stroke-width="1" x1="99.875" x2="108.5" y1="43.5" y2="89" />
<text class="title-left" x="90.5" y="9.5">upper</text>
<text class="title-right" x="1626.5" y="9.5">lower</text>
<rect fill="#DEE6F1" height="24" width="10.5" x="1606.625" y="18.5" />
<rect fill="#EEDDDB" height="24" width="4.125" x="1602.5" y="18.5" />
<rect fill="#ECF1E0" height="24" width="2.625" x="1617.125" y="18.5" />
<rect fill="none" height="24" stroke="#405C86" stroke-width="3" width="24" x="1602.5" y="18.5" />
<rect fill="#DEE6F1" height="24" width="10.5" x="1582.625" y="18.5" />
<rect fill="#EEDDDB" height="24" width="4.125" x="1578.5" y="18.5" />
<rect fill="#ECF1E0" height="24" width="2.625" x="1593.125" y="18.5" />
<rect fill="none" height="24" stroke="#405C86" stroke-width="3" width="24" x="1578.5" y="18.5" />
<rect fill="#DEE6F1" height="24" width="10.5" x="1558.625" y="18.5" />
<rect fill="#EEDDDB" height="24" width="4.125" x="1554.5" y="18.5" />
<rect fill="#ECF1E0" height="24" width="2.625" x="1569.125" y="18.5" />
<rect fill="none" height="24" stroke="#405C86" stroke-width="3" width="24" x="1554.5" y="18.5" />
<rect fill="#DEE6F1" height="24" width="10.5" x="1534.625" y="18.5" />
<rect fill="#EEDDDB" height="24" width="4.125" x="1530.5" y="18.5" />
<rect fill="#ECF1E0" height="24" width="2.625" x="1545.125" y="18.5" />
<rect fill="none" height="24" stroke="#405C86" stroke-width="3" width="24" x="1530.5" y="18.5" />
<rect fill="#DEE6F1" height="24" width="10.5" x="1510.625" y="18.5" />
<rect fill="#EEDDDB" height="24" width="4.125" x="1506.5" y="18.5" />
<rect fill="#ECF1E0" height="24" width="2.625" x="1521.125" y="18.5" />
<rect fill="none" height="24" stroke="#405C86" stroke-width="3" width="24" x="1506.5" y="18.5" />
<rect fill="#DEE6F1" height="24" width="10.5" x="1486.625" y="18.5" />
<rect fill="#EEDDDB" height="24" width="4.125" x="1482.5" y="18.5" />
<rect fill="#ECF1E0" height="24" width="2.625" x="1497.125" y="18.5" />
<rect fill="none" height="24" stroke="#405C86" stroke-width="3" width="24" x="1482.5" y="18.5" />
<rect fill="#DEE6F1" height="24" width="10.5" x="1462.625" y="18.5" />
<rect fill="#EEDDDB" height="24" width="4.125" x="1458.5" y="18.5" />
<rect fill="#ECF1E0" height="24" width="2.625" x="1473.125" y="18.5" />
<rect fill="none" height="24" stroke="#405C86" stroke-width="3" width="24" x="1458.5" y="18.5" />
<rect fill="#DEE6F1" height="24" width="10.5" x="1438.625" y="18.5" />
<rect fill="#EEDDDB" height="24" width="4.125" x="1434.5" y="18.5" />
<rect fill="#ECF1E0" height="24" width="2.625" x="1449.125" y="18.5" />
<rect fill="none" height="24" stroke="#405C86" stroke-width="3" width="24" x="1434.5" y="18.5" />
<rect fill="#DEE6F1" height="24" width="10.5" x="1414.625" y="18.5" />
<rect fill="#EEDDDB" height="24" width="4.125" x="1410.5" y="18.5" />
<rect fill="#ECF1E0" height="24" width="2.625" x="1425.125" y="18.5" />
<rect fill="none" height="24" stroke="#405C86" stroke-width="3" width="24" x="1410.5" y="18.5" />
<rect fill="#DEE6F1" height="24" width="10.5" x="1390.625" y="18.5" />
<rect fill="#EEDDDB" height="24" width="4.125" x="1386.5" y="18.5" />
<rect fill="#ECF1E0" height="24" width="2.625" x="1401.125" y="18.5" />
<rect fill="none" height="24" stroke="#405C86" stroke-width="3" width="24" x="1386.5" y="18.5" />
<rect fill="#DEE6F1" height="24" width="10.5" x="1366.625" y="18.5" />
<rect fill="#EEDDDB" height="24" width="4.125" x="1362.5" y="18.5" />
<rect fill="#ECF1E0" height="24" width="2.625" x="1377.125" y="18.5" />
<rect fill="none" height="24" stroke="#405C86" stroke-width="3" width="24" x="1362.5" y="18.5" />
<rect fill="#DEE6F1" height="24" width="10.5" x="1342.625" y="18.5" />
<rect fill="#EEDDDB" height="24" width="4.125" x="1338.5" y="18.5" />
<rect fill="#ECF1E0" height="24" width="2.625" x="1353.125" y="18.5" />
<rect fill="none" height="24" stroke="#405C86" stroke-width="3" width="24" x="1338.5" y="18.5" />
<rect fill="#DEE6F1" height="24" width="10.5" x="1318.625" y="18.5" />
<rect fill="#EEDDDB" height="24" width="4.125" x="1314.5" y="18.5" />
<rect fill="#ECF1E0" height="24" width="2.625" x="1329.125" y="18.5" />
<rect fill="none" height="24" stroke="#405C86" stroke-width="3" width="24" x="1314.5" y="18.5" />
<rect fill="#DEE6F1" height="24" width="10.5" x="1294.625" y="18.5" />
<rect fill="#EEDDDB" height="24" width="4.125" x="1290.5" y="18.5" />
<rect fill="#ECF1E0" height="24" width="2.625" x="1305.125" y="18.5" />
<rect fill="none" height="24" stroke="#405C86" stroke-width="3" width="24" x="1290.5" y="18.5" />
<rect fill="#DEE6F1" height="24" width="10.5" x="1270.625" y="18.5" />
<rect fill="#EEDDDB" height="24" width="4.125" x="1266.5" y="18.5" />
<rect fill="#ECF1E0" height="24" width="2.625" x="1281.125" y="18.5" />
<rect fill="none" height="24" stroke="#405C86" stroke-width="3" width="24" x="1266.5" y="18.5" />
<rect fill="#DEE6F1" height="24" width="10.5" x="1246.625" y="18.5" />
<rect fill="#EEDDDB" height="24" width="4.125" x="1242.5" y="18.5" />
<rect fill="#ECF1E0" height="24" width="2.625" x="1257.125" y="18.5" />
<rect fill="none" height="24" stroke="#405C86" stroke-width="3" width="24" x="1242.5" y="18.5" />
<rect fill="#DEE6F1" height="24" width="10.5" x="1222.625" y="18.5" />
<rect fill="#EEDDDB" height="24" width="4.125" x="1218.5" y="18.5" />
<rect fill="#ECF1E0" height="24" width="2.625" x="1233.125" y="18.5" />
<rect fill="none" height="24" stroke="#405C86" stroke-width="3" width="24" x="1218.5" y="18.5" />
<rect fill="#DEE6F1" height="24" width="10.5" x="1198.625" y="18.5" />
<rect fill="#EEDDDB" height="24" width="4.125" x="1194.5" y="18.5" />
<rect fill="#ECF1E0" height="24" width="2.625" x="1209.125" y="18.5" />
<rect fill="none" height="24" stroke="#405C86" stroke-width="3" width="24" x="1194.5" y="18.5" />
<rect fill="#DEE6F1" height="24" width="10.5" x="1174.625" y="18.5" />
<rect fill="#EEDDDB" height="24" width="4.125" x="1170.5" y="18.5" />
<rect fill="#ECF1E0" height="24" width="2.625" x="1185.125" y="18.5" />
<rect fill="none" height="24" stroke="#405C86" stroke-width="3" width="24" x="1170.5" y="18.5" />
<rect fill="#DEE6F1" height="24" width="10.5" x="1150.625" y="18.5" />
<rect fill="#EEDDDB" height="24" width="4.125" x="1146.5" y="18.5" />
<rect fill="#ECF1E0" height="24" width="2.625" x="1161.125" y="18.5" />
<rect fill="none" height="24" stroke="#405C86" stroke-width="3" width="24" x="1146.5" y="18.5" />
<rect fill="#DEE6F1" height="24" width="10.5" x="1126.625" y="18.5" />
<rect fill="#EEDDDB" height="24" width="4.125" x="1122.5" y="18.5" />
<rect fill="#ECF1E0" height="24" width="2.625" x="1137.125" y="18.5" />
<rect fill="none" height="24" stroke="#405C86" stroke-width="3" width="24" x="1122.5" y="18.5" />
<rect fill="#DEE6F1" height="24" width="10.5" x="1102.625" y="18.5" />
<rect fill="#EEDDDB" height="24" width="4.125" x="1098.5" y="18.5" />
<rect fill="#ECF1E0" height="24" width="2.625" x="1113.125" y="18.5" />
<rect fill="none" height="24" stroke="#405C86" stroke-width="3" width="24" x="1098.5" y="18.5" />
<rect fill="#DEE6F1" height="24" width="10.5" x="1078.625" y="18.5" />
<rect fill="#EEDDDB" height="24" width="4.125" x="1074.5" y="18.5" />
<rect fill="#ECF1E0" height="24" width="2.625" x="1089.125" y="18.5" />
<rect fill="none" height="24" stroke="#405C86" stroke-width="3" width="24" x="1074.5" y="18.5" />
<rect fill="#DEE6F1" height="24" width="10.5" x="1054.625" y="18.5" />
<rect fill="#EEDDDB" height="24" width="4.125" x="1050.5" y="18.5" />
<rect fill="#ECF1E0" height="24" width="2.625" x="1065.125" y="18.5" />
<rect fill="none" height="24" stroke="#405C86" stroke-width="3" width="24" x="1050.5" y="18.5" />
<rect fill="#DEE6F1" height="24" width="10.5" x="1030.625" y="18.5" />
<rect fill="#EEDDDB" height="24" width="4.125" x="1026.5" y="18.5" />
<rect fill="#ECF1E0" height="24" width="2.625" x="1041.125" y="18.5" />
<rect fill="none" height="24" stroke="#405C86" stroke-width="3" width="24" x="1026.5" y="18.5" />
<rect fill="#DEE6F1" height="24" width="10.5" x="1006.625" y="18.5" />
<rect fill="#EEDDDB" height="24" width="4.125" x="1002.5" y="18.5" />
<rect fill="#ECF1E0" height="24" width="2.625" x="1017.125" y="18.5" />
<rect fill="none" height="24" stroke="#405C86" stroke-width="3" width="24" x="1002.5" y="18.5" />
<rect fill="#DEE6F1" height="24" width="10.5" x="982.625" y="18.5" />
<rect fill="#EEDDDB" height="24" width="4.125" x="978.5" y="18.5" />
<rect fill="#ECF1E0" height="24" width="2.625" x="993.125" y="18.5" />
<rect fill="none" height="24" stroke="#405C86" stroke-width="3" width="24" x="978.5" y="18.5" />
<rect fill="#DEE6F1" height="24" width="10.5" x="958.625" y="18.5" />
<rect fill="#EEDDDB" height="24" width="4.125" x="954.5" y="18.5" />
<rect fill="#ECF1E0" height="24" width="2.625" x="969.125" y="18.5" />
<rect fill="none" height="24" stroke="#405C86" stroke-width="3" width="24" x="954.5" y="18.5" />
<rect fill="#DEE6F1" height="24" width="10.5" x="934.625" y="18.5" />
<rect fill="#EEDDDB" height="24" width="4.125" x="930.5" y="18.5" />
<rect fill="#ECF1E0" height="24" width="2.625" x="945.125" y="18.5" />
<rect fill="none" height="24" stroke="#405C86" stroke-width="3" width="24" x="930.5" y="18.5" />
<rect fill="#DEE6F1" height="24" width="10.5" x="910.625" y="18.5" />
<rect fill="#EEDDDB" height="24" width="4.125" x="906.5" y="18.5" />
<rect fill="#ECF1E0" height="24" width="2.625" x="921.125" y="18.5" />
<rect fill="none" height="24" stroke="#405C86" stroke-width="3" width="24" x="906.5" y="18.5" />
<rect fill="#DEE6F1" height="24" width="10.5" x="886.625" y="18.5" />
<rect fill="#EEDDDB" height="24" width="4.125" x="882.5" y="18.5" />
<rect fill="#ECF1E0" height="24" width="2.625" x="897.125" y="18.5" />
<rect fill="none" height="24" stroke="#405C86" stroke-width="3" width="24" x="882.5" y="18.5" />
<rect fill="#DEE6F1" height="24" width="10.5" x="862.625" y="18.5" />
<rect fill="#EEDDDB" height="24" width="4.125" x="858.5" y="18.5" />
<rect fill="#ECF1E0" height="24" width="2.625" x="873.125" y="18.5" />
<rect fill="none" height="24" stroke="#405C86" stroke-width="3" width="24" x="858.5" y="18.5" />
<rect fill="#DEE6F1" height="24" width="10.5" x="838.625" y="18.5" />
<rect fill="#EEDDDB" height="24" width="4.125" x="834.5" y="18.5" />
<rect fill="#ECF1E0" height="24" width="2.625" x="849.125" y="18.5" />
<rect fill="none" height="24" stroke="#405C86" stroke-width="3" width="24" x="834.5" y="18.5" />
<rect fill="#DEE6F1" height="24" width="10.5" x="814.625" y="18.5" />
<rect fill="#EEDDDB" height="24" width="4.125" x="810.5" y="18.5" />
<rect fill="#ECF1E0" height="24" width="2.625" x="825.125" y="18.5" />
<rect fill="none" height="24" stroke="#405C86" stroke-width="3" width="24" x="810.5" y="18.5" />
<rect fill="#DEE6F1" height="24" width="10.5" x="790.625" y="18.5" />
<rect fill="#EEDDDB" height="24" width="4.125" x="786.5" y="18.5" />
<rect fill="#ECF1E0" height="24" width="2.625" x="801.125" y="18.5" />
<rect fill="none" height="24" stroke="#405C86" stroke-width="3" width="24" x="786.5" y="18.5" />
<rect fill="#DEE6F1" height="24" width="10.5" x="766.625" y="18.5" />
<rect fill="#EEDDDB" height="24" width="4.125" x="762.5" y="18.5" />
<rect fill="#ECF1E0" height="24" width="2.625" x="777.125" y="18.5" />
<rect fill="none" height="24" stroke="#405C86" stroke-width="3" width="24" x="762.5" y="18.5" />
<rect fill="#DEE6F1" height="24" width="10.5" x="742.625" y="18.5" />
<rect fill="#EEDDDB" height="24" width="4.125" x="738.5" y="18.5" />
<rect fill="#ECF1E0" height="24" width="2.625" x="753.125" y="18.5" />
<rect fill="none" height="24" stroke="#405C86" stroke-width="3" width="24" x="738.5" y="18.5" />
<rect fill="#DEE6F1" height="24" width="10.5" x="718.625" y="18.5" />
<rect fill="#EEDDDB" height="24" width="4.125" x="714.5" y="18.5" />
<rect fill="#ECF1E0" height="24" width="2.625" x="729.125" y="18.5" />
<rect fill="none" height="24" stroke="#405C86" stroke-width="3" width="24" x="714.5" y="18.5" />
<rect fill="#DEE6F1" height="24" width="10.5" x="694.625" y="18.5" />
<rect fill="#EEDDDB" height="24" width="4.125" x="690.5" y="18.5" />
<rect fill="#ECF1E0" height="24" width="2.625" x="705.125" y="18.5" />
<rect fill="none" height="24" stroke="#405C86" stroke-width="3" width="24" x="690.5" y="18.5" />
<rect fill="#DEE6F1" height="24" width="10.5" x="670.625" y="18.5" />
<rect fill="#EEDDDB" height="24" width="4.125" x="666.5" y="18.5" />
<rect fill="#ECF1E0" height="24" width="2.625" x="681.125" y="18.5" />
<rect fill="none" height="24" stroke="#405C86" stroke-width="3" width="24" x="666.5" y="18.5" />
<rect fill="#DEE6F1" height="24" width="10.5" x="646.625" y="18.5" />
<rect fill="#EEDDDB" height="24" width="4.125" x="642.5" y="18.5" />
<rect fill="#ECF1E0" height="24" width="2.625" x="657.125" y="18.5" />
<rect fill="none" height="24" stroke="#405C86" stroke-width="3" width="24" x="642.5" y="18.5" />
<rect fill="#DEE6F1" height="24" width="10.5" x="622.625" y="18.5" />
<rect fill="#EEDDDB" height="24" width="4.125" x="618.5" y="18.5" />
<rect fill="#ECF1E0" height="24" width="2.625" x="633.125" y="18.5" />
<rect fill="none" height="24" stroke="#405C86" stroke-width="3" width="24" x="618.5" y="18.5" />
<rect fill="#DEE6F1" height="24" width="10.5" x="598.625" y="18.5" />
<rect fill="#EEDDDB" height="24" width="4.125" x="594.5" y="18.5" />
<rect fill="#ECF1E0" height="24" width="2.625" x="609.125" y="18.5" />
<rect fill="none" height="24" stroke="#405C86" stroke-width="3" width="24" x="594.5" y="18.5" />
<rect fill="#DEE6F1" height="24" width="10.5" x="574.625" y="18.5" />
<rect fill="#EEDDDB" height="24" width="4.125" x="570.5" y="18.5" />
<rect fill="#ECF1E0" height="24" width="2.625" x="585.125" y="18.5" />
<rect fill="none" height="24" stroke="#405C86" stroke-width="3" width="24" x="570.5" y="18.5" />
<rect fill="#DEE6F1" height="24" width="10.5" x="550.625" y="18.5" />
<rect fill="#EEDDDB" height="24" width="4.125" x="546.5" y="18.5" />
<rect fill="#ECF1E0" height="24" width="2.625" x="561.125" y="18.5" />
<rect fill="none" height="24" stroke="#405C86" stroke-width="3" width="24" x="546.5" y="18.5" />
<rect fill="#DEE6F1" height="24" width="10.5" x="526.625" y="18.5" />
<rect fill="#EEDDDB" height="24" width="4.125" x="522.5" y="18.5" />
<rect fill="#ECF1E0" height="24" width="2.625" x="537.125" y="18.5" />
<rect fill="none" height="24" stroke="#405C86" stroke-width="3" width="24" x="522.5" y="18.5" />
<rect fill="#DEE6F1" height="24" width="10.5" x="502.625" y="18.5" />
<rect fill="#EEDDDB" height="24" width="4.125" x="498.5" y="18.5" />
<rect fill="#ECF1E0" height="24" width="2.625" x="513.125" y="18.5" />
<rect fill="none" height="24" stroke="#405C86" stroke-width="3" width="24" x="498.5" y="18.5" />
<rect fill="#DEE6F1" height="24" width="10.5" x="478.625" y="18.5" />
<rect fill="#EEDDDB" height="24" width="4.125" x="474.5" y="18.5" />
<rect fill="#ECF1E0" height="24" width="2.625" x="489.125" y="18.5" />
<rect fill="none" height="24" stroke="#405C86" stroke-width="3" width="24" x="474.5" y="18.5" />
<rect fill="#DEE6F1" height="24" width="10.5" x="454.625" y="18.5" />
<rect fill="#EEDDDB" height="24" width="4.125" x="450.5" y="18.5" />
<rect fill="#ECF1E0" height="24" width="2.625" x="465.125" y="18.5" />
<rect fill="none" height="24" stroke="#405C86" stroke-width="3" width="24" x="450.5" y="18.5" />
<rect fill="#DEE6F1" height="24" width="10.5" x="430.625" y="18.5" />
<rect fill="#EEDDDB" height="24" width="4.125" x="426.5" y="18.5" />
<rect fill="#ECF1E0" height="24" width="2.625" x="441.125" y="18.5" />
<rect fill="none" height="24" stroke="#405C86" stroke-width="3" width="24" x="426.5" y="18.5" />
<rect fill="#DEE6F1" height="24" width="10.5" x="406.625" y="18.5" />
<rect fill="#EEDDDB" height="24" width="4.125" x="402.5" y="18.5" />
<rect fill="#ECF1E0" height="24" width="2.625" x="417.125" y="18.5" />
<rect fill="none" height="24" stroke="#405C86" stroke-width="3" width="24" x="402.5" y="18.5" />
<rect fill="#DEE6F1" height="24" width="10.5" x="382.625" y="18.5" />
<rect fill="#EEDDDB" height="24" width="4.125" x="378.5" y="18.5" />
<rect fill="#ECF1E0" height="24" width="2.625" x="393.125" y="18.5" />
<rect fill="none" height="24" stroke="#405C86" stroke-width="3" width="24" x="378.5" y="18.5" />
<rect fill="#DEE6F1" height="24" width="10.5" x="358.625" y="18.5" />
<rect fill="#EEDDDB" height="24" width="4.125" x="354.5" y="18.5" />
<rect fill="#ECF1E0" height="24" width="2.625" x="369.125" y="18.5" />
<rect fill="none" height="24" stroke="#405C86" stroke-width="3" width="24" x="354.5" y="18.5" />
<rect fill="#DEE6F1" height="24" width="10.5" x="334.625" y="18.5" />
<rect fill="#EEDDDB" height="24" width="4.125" x="330.5" y="18.5" />
<rect fill="#ECF1E0" height="24" width="2.625" x="345.125" y="18.5" />
<rect fill="none" height="24" stroke="#405C86" stroke-width="3" width="24" x="330.5" y="18.5" />
<rect fill="#DEE6F1" height="24" width="10.5" x="310.625" y="18.5" />
<rect fill="#EEDDDB" height="24" width="4.125" x="306.5" y="18.5" />
<rect fill="#ECF1E0" height="24" width="2.625" x="321.125" y="18.5" />
<rect fill="none" height="24" stroke="#405C86" stroke-width="3" width="24" x="306.5" y="18.5" />
<rect fill="#DEE6F1" height="24" width="10.5" x="286.625" y="18.5" />
<rect fill="#EEDDDB" height="24" width="4.125" x="282.5" y="18.5" />
<rect fill="#ECF1E0" height="24" width="2.625" x="297.125" y="18.5" />
<rect fill="none" height="24" stroke="#405C86" stroke-width="3" width="24" x="282.5" y="18.5" />
<rect fill="#DEE6F1" height="24" width="10.5" x="262.625" y="18.5" />
<rect fill="#EEDDDB" height="24" width="4.125" x="258.5" y="18.5" />
<rect fill="#ECF1E0" height="24" width="2.625" x="273.125" y="18.5" />
<rect fill="none" height="24" stroke="#405C86" stroke-width="3" width="24" x="258.5" y="18.5" />
<rect fill="#DEE6F1" height="24" width="10.5" x="238.625" y="18.5" />
<rect fill="#EEDDDB" height="24" width="4.125" x="234.5" y="18.5" />
<rect fill="#ECF1E0" height="24" width="2.625" x="249.125" y="18.5" />
<rect fill="none" height="24" stroke="#405C86" stroke-width="3" width="24" x="234.5" y="18.5" />
<rect fill="#DEE6F1" height="24" width="10.5" x="214.625" y="18.5" />
<rect fill="#EEDDDB" height="24" width="4.125" x="210.5" y="18.5" />
<rect fill="#ECF1E0" height="24" width="2.625" x="225.125" y="18.5" />
<rect fill="none" height="24" stroke="#405C86" stroke-width="3" width="24" x="210.5" y="18.5" />
<rect fill="#DEE6F1" height="24" width="10.5" x="190.625" y="18.5" />
<rect fill="#EEDDDB" height="24" width="4.125" x="186.5" y="18.5" />
<rect fill="#ECF1E0" height="24" width="2.625" x="201.125" y="18.5" />
<rect fill="none" height="24" stroke="#405C86" stroke-width="3" width="24" x="186.5" y="18.5" />
<rect fill="#DEE6F1" height="24" width="10.5" x="166.625" y="18.5" />
<rect fill="#EEDDDB" height="24" width="4.125" x="162.5" y="18.5" />
<rect fill="#ECF1E0" height="24" width="2.625" x="177.125" y="18.5" />
<rect fill="none" height="24" stroke="#405C86" stroke-width="3" width="24" x="162.5" y="18.5" />
<rect fill="#DEE6F1" height="24" width="10.5" x="142.625" y="18.5" />
<rect fill="#EEDDDB" height="24" width="4.125" x="138.5" y="18.5" />
<rect fill="#ECF1E0" height="24" width="2.625" x="153.125" y="18.5" />
<rect fill="none" height="24" stroke="#405C86" stroke-width="3" width="24" x="138.5" y="18.5" />
<rect fill="#DEE6F1" height="24" width="10.5" x="118.625" y="18.5" />
<rect fill="#EEDDDB" height="24" width="4.125" x="114.5" y="18.5" />
<rect fill="#ECF1E0" height="24" width="2.625" x="129.125" y="18.5" />
<rect fill="none" height="24" stroke="#405C86" stroke-width="3" width="24" x="114.5" y="18.5" />
<rect fill="#DEE6F1" height="24" width="10.5" x="94.625" y="18.5" />
<rect fill="#EEDDDB" height="24" width="4.125" x="90.5" y="18.5" />
<rect fill="#ECF1E0" height="24" width="2.625" x="105.125" y="18.5" />
<rect fill="none" height="24" stroke="#405C86" stroke-width="3" width="24" x="90.5" y="18.5" />
<text class="register-name" x="80.5" y="30.5">Zdn</text>
<text class="intrinsic-name" x="80.5" y="42.5">op1</text>
<text class="register-number" x="10" y="30.5">(1)</text>
<rect fill="#DEE6F1" height="24" width="24" x="1602.5" y="90.5" />
<rect fill="#DEE6F1" height="24" width="12" x="1614.5" y="90.5" />
<rect fill="none" height="24" stroke="#405C86" stroke-width="3" width="24" x="1602.5" y="90.5" />
<rect fill="#DEE6F1" height="24" width="24" x="1578.5" y="90.5" />
<rect fill="#DEE6F1" height="24" width="12" x="1590.5" y="90.5" />
<rect fill="none" height="24" stroke="#405C86" stroke-width="3" width="24" x="1578.5" y="90.5" />
<rect fill="#DEE6F1" height="24" width="24" x="1554.5" y="90.5" />
<rect fill="#DEE6F1" height="24" width="12" x="1566.5" y="90.5" />
<rect fill="none" height="24" stroke="#405C86" stroke-width="3" width="24" x="1554.5" y="90.5" />
<rect fill="#DEE6F1" height="24" width="24" x="1530.5" y="90.5" />
<rect fill="#DEE6F1" height="24" width="12" x="1542.5" y="90.5" />
<rect fill="none" height="24" stroke="#405C86" stroke-width="3" width="24" x="1530.5" y="90.5" />
<rect fill="#DEE6F1" height="24" width="24" x="1506.5" y="90.5" />
<rect fill="#DEE6F1" height="24" width="12" x="1518.5" y="90.5" />
<rect fill="none" height="24" stroke="#405C86" stroke-width="3" width="24" x="1506.5" y="90.5" />
<rect fill="#DEE6F1" height="24" width="24" x="1482.5" y="90.5" />
<rect fill="#DEE6F1" height="24" width="12" x="1494.5" y="90.5" />
<rect fill="none" height="24" stroke="#405C86" stroke-width="3" width="24" x="1482.5" y="90.5" />
<rect fill="#DEE6F1" height="24" width="24" x="1458.5" y="90.5" />
<rect fill="#DEE6F1" height="24" width="12" x="1470.5" y="90.5" />
<rect fill="none" height="24" stroke="#405C86" stroke-width="3" width="24" x="1458.5" y="90.5" />
<rect fill="#DEE6F1" height="24" width="24" x="1434.5" y="90.5" />
<rect fill="#DEE6F1" height="24" width="12" x="1446.5" y="90.5" />
<rect fill="none" height="24" stroke="#405C86" stroke-width="3" width="24" x="1434.5" y="90.5" />
<rect fill="#DEE6F1" height="24" width="24" x="1410.5" y="90.5" />
<rect fill="#DEE6F1" height="24" width="12" x="1422.5" y="90.5" />
<rect fill="none" height="24" stroke="#405C86" stroke-width="3" width="24" x="1410.5" y="90.5" />
<rect fill="#DEE6F1" height="24" width="24" x="1386.5" y="90.5" />
<rect fill="#DEE6F1" height="24" width="12" x="1398.5" y="90.5" />
<rect fill="none" height="24" stroke="#405C86" stroke-width="3" width="24" x="1386.5" y="90.5" />
<rect fill="#DEE6F1" height="24" width="24" x="1362.5" y="90.5" />
<rect fill="#DEE6F1" height="24" width="12" x="1374.5" y="90.5" />
<rect fill="none" height="24" stroke="#405C86" stroke-width="3" width="24" x="1362.5" y="90.5" />
<rect fill="#DEE6F1" height="24" width="24" x="1338.5" y="90.5" />
<rect fill="#DEE6F1" height="24" width="12" x="1350.5" y="90.5" />
<rect fill="none" height="24" stroke="#405C86" stroke-width="3" width="24" x="1338.5" y="90.5" />
<rect fill="#DEE6F1" height="24" width="24" x="1314.5" y="90.5" />
<rect fill="#DEE6F1" height="24" width="12" x="1326.5" y="90.5" />
<rect fill="none" height="24" stroke="#405C86" stroke-width="3" width="24" x="1314.5" y="90.5" />
<rect fill="#DEE6F1" height="24" width="24" x="1290.5" y="90.5" />
<rect fill="#DEE6F1" height="24" width="12" x="1302.5" y="90.5" />
<rect fill="none" height="24" stroke="#405C86" stroke-width="3" width="24" x="1290.5" y="90.5" />
<rect fill="#DEE6F1" height="24" width="24" x="1266.5" y="90.5" />
<rect fill="#DEE6F1" height="24" width="12" x="1278.5" y="90.5" />
<rect fill="none" height="24" stroke="#405C86" stroke-width="3" width="24" x="1266.5" y="90.5" />
<rect fill="#DEE6F1" height="24" width="24" x="1242.5" y="90.5" />
<rect fill="#DEE6F1" height="24" width="12" x="1254.5" y="90.5" />
<rect fill="none" height="24" stroke="#405C86" stroke-width="3" width="24" x="1242.5" y="90.5" />
<rect fill="#DEE6F1" height="24" width="24" x="1218.5" y="90.5" />
<rect fill="#DEE6F1" height="24" width="12" x="1230.5" y="90.5" />
<rect fill="none" height="24" stroke="#405C86" stroke-width="3" width="24" x="1218.5" y="90.5" />
<rect fill="#DEE6F1" height="24" width="24" x="1194.5" y="90.5" />
<rect fill="#DEE6F1" height="24" width="12" x="1206.5" y="90.5" />
<rect fill="none" height="24" stroke="#405C86" stroke-width="3" width="24" x="1194.5" y="90.5" />
<rect fill="#DEE6F1" height="24" width="24" x="1170.5" y="90.5" />
<rect fill="#DEE6F1" height="24" width="12" x="1182.5" y="90.5" />
<rect fill="none" height="24" stroke="#405C86" stroke-width="3" width="24" x="1170.5" y="90.5" />
<rect fill="#DEE6F1" height="24" width="24" x="1146.5" y="90.5" />
<rect fill="#DEE6F1" height="24" width="12" x="1158.5" y="90.5" />
<rect fill="none" height="24" stroke="#405C86" stroke-width="3" width="24" x="1146.5" y="90.5" />
<rect fill="#DEE6F1" height="24" width="24" x="1122.5" y="90.5" />
<rect fill="#DEE6F1" height="24" width="12" x="1134.5" y="90.5" />
<rect fill="none" height="24" stroke="#405C86" stroke-width="3" width="24" x="1122.5" y="90.5" />
<rect fill="#DEE6F1" height="24" width="24" x="1098.5" y="90.5" />
<rect fill="#DEE6F1" height="24" width="12" x="1110.5" y="90.5" />
<rect fill="none" height="24" stroke="#405C86" stroke-width="3" width="24" x="1098.5" y="90.5" />
<rect fill="#DEE6F1" height="24" width="24" x="1074.5" y="90.5" />
<rect fill="#DEE6F1" height="24" width="12" x="1086.5" y="90.5" />
<rect fill="none" height="24" stroke="#405C86" stroke-width="3" width="24" x="1074.5" y="90.5" />
<rect fill="#DEE6F1" height="24" width="24" x="1050.5" y="90.5" />
<rect fill="#DEE6F1" height="24" width="12" x="1062.5" y="90.5" />
<rect fill="none" height="24" stroke="#405C86" stroke-width="3" width="24" x="1050.5" y="90.5" />
<rect fill="#DEE6F1" height="24" width="24" x="1026.5" y="90.5" />
<rect fill="#DEE6F1" height="24" width="12" x="1038.5" y="90.5" />
<rect fill="none" height="24" stroke="#405C86" stroke-width="3" width="24" x="1026.5" y="90.5" />
<rect fill="#DEE6F1" height="24" width="24" x="1002.5" y="90.5" />
<rect fill="#DEE6F1" height="24" width="12" x="1014.5" y="90.5" />
<rect fill="none" height="24" stroke="#405C86" stroke-width="3" width="24" x="1002.5" y="90.5" />
<rect fill="#DEE6F1" height="24" width="24" x="978.5" y="90.5" />
<rect fill="#DEE6F1" height="24" width="12" x="990.5" y="90.5" />
<rect fill="none" height="24" stroke="#405C86" stroke-width="3" width="24" x="978.5" y="90.5" />
<rect fill="#DEE6F1" height="24" width="24" x="954.5" y="90.5" />
<rect fill="#DEE6F1" height="24" width="12" x="966.5" y="90.5" />
<rect fill="none" height="24" stroke="#405C86" stroke-width="3" width="24" x="954.5" y="90.5" />
<rect fill="#DEE6F1" height="24" width="24" x="930.5" y="90.5" />
<rect fill="#DEE6F1" height="24" width="12" x="942.5" y="90.5" />
<rect fill="none" height="24" stroke="#405C86" stroke-width="3" width="24" x="930.5" y="90.5" />
<rect fill="#DEE6F1" height="24" width="24" x="906.5" y="90.5" />
<rect fill="#DEE6F1" height="24" width="12" x="918.5" y="90.5" />
<rect fill="none" height="24" stroke="#405C86" stroke-width="3" width="24" x="906.5" y="90.5" />
<rect fill="#DEE6F1" height="24" width="24" x="882.5" y="90.5" />
<rect fill="#DEE6F1" height="24" width="12" x="894.5" y="90.5" />
<rect fill="none" height="24" stroke="#405C86" stroke-width="3" width="24" x="882.5" y="90.5" />
<rect fill="#DEE6F1" height="24" width="24" x="858.5" y="90.5" />
<rect fill="#DEE6F1" height="24" width="12" x="870.5" y="90.5" />
<rect fill="none" height="24" stroke="#405C86" stroke-width="3" width="24" x="858.5" y="90.5" />
<rect fill="#DEE6F1" height="24" width="24" x="834.5" y="90.5" />
<rect fill="#DEE6F1" height="24" width="12" x="846.5" y="90.5" />
<rect fill="none" height="24" stroke="#405C86" stroke-width="3" width="24" x="834.5" y="90.5" />
<rect fill="#DEE6F1" height="24" width="24" x="810.5" y="90.5" />
<rect fill="#DEE6F1" height="24" width="12" x="822.5" y="90.5" />
<rect fill="none" height="24" stroke="#405C86" stroke-width="3" width="24" x="810.5" y="90.5" />
<rect fill="#DEE6F1" height="24" width="24" x="786.5" y="90.5" />
<rect fill="#DEE6F1" height="24" width="12" x="798.5" y="90.5" />
<rect fill="none" height="24" stroke="#405C86" stroke-width="3" width="24" x="786.5" y="90.5" />
<rect fill="#DEE6F1" height="24" width="24" x="762.5" y="90.5" />
<rect fill="#DEE6F1" height="24" width="12" x="774.5" y="90.5" />
<rect fill="none" height="24" stroke="#405C86" stroke-width="3" width="24" x="762.5" y="90.5" />
<rect fill="#DEE6F1" height="24" width="24" x="738.5" y="90.5" />
<rect fill="#DEE6F1" height="24" width="12" x="750.5" y="90.5" />
<rect fill="none" height="24" stroke="#405C86" stroke-width="3" width="24" x="738.5" y="90.5" />
<rect fill="#DEE6F1" height="24" width="24" x="714.5" y="90.5" />
<rect fill="#DEE6F1" height="24" width="12" x="726.5" y="90.5" />
<rect fill="none" height="24" stroke="#405C86" stroke-width="3" width="24" x="714.5" y="90.5" />
<rect fill="#DEE6F1" height="24" width="24" x="690.5" y="90.5" />
<rect fill="#DEE6F1" height="24" width="12" x="702.5" y="90.5" />
<rect fill="none" height="24" stroke="#405C86" stroke-width="3" width="24" x="690.5" y="90.5" />
<rect fill="#DEE6F1" height="24" width="24" x="666.5" y="90.5" />
<rect fill="#DEE6F1" height="24" width="12" x="678.5" y="90.5" />
<rect fill="none" height="24" stroke="#405C86" stroke-width="3" width="24" x="666.5" y="90.5" />
<rect fill="#DEE6F1" height="24" width="24" x="642.5" y="90.5" />
<rect fill="#DEE6F1" height="24" width="12" x="654.5" y="90.5" />
<rect fill="none" height="24" stroke="#405C86" stroke-width="3" width="24" x="642.5" y="90.5" />
<rect fill="#DEE6F1" height="24" width="24" x="618.5" y="90.5" />
<rect fill="#DEE6F1" height="24" width="12" x="630.5" y="90.5" />
<rect fill="none" height="24" stroke="#405C86" stroke-width="3" width="24" x="618.5" y="90.5" />
<rect fill="#DEE6F1" height="24" width="24" x="594.5" y="90.5" />
<rect fill="#DEE6F1" height="24" width="12" x="606.5" y="90.5" />
<rect fill="none" height="24" stroke="#405C86" stroke-width="3" width="24" x="594.5" y="90.5" />
<rect fill="#DEE6F1" height="24" width="24" x="570.5" y="90.5" />
<rect fill="#DEE6F1" height="24" width="12" x="582.5" y="90.5" />
<rect fill="none" height="24" stroke="#405C86" stroke-width="3" width="24" x="570.5" y="90.5" />
<rect fill="#DEE6F1" height="24" width="24" x="546.5" y="90.5" />
<rect fill="#DEE6F1" height="24" width="12" x="558.5" y="90.5" />
<rect fill="none" height="24" stroke="#405C86" stroke-width="3" width="24" x="546.5" y="90.5" />
<rect fill="#DEE6F1" height="24" width="24" x="522.5" y="90.5" />
<rect fill="#DEE6F1" height="24" width="12" x="534.5" y="90.5" />
<rect fill="none" height="24" stroke="#405C86" stroke-width="3" width="24" x="522.5" y="90.5" />
<rect fill="#DEE6F1" height="24" width="24" x="498.5" y="90.5" />
<rect fill="#DEE6F1" height="24" width="12" x="510.5" y="90.5" />
<rect fill="none" height="24" stroke="#405C86" stroke-width="3" width="24" x="498.5" y="90.5" />
<rect fill="#DEE6F1" height="24" width="24" x="474.5" y="90.5" />
<rect fill="#DEE6F1" height="24" width="12" x="486.5" y="90.5" />
<rect fill="none" height="24" stroke="#405C86" stroke-width="3" width="24" x="474.5" y="90.5" />
<rect fill="#DEE6F1" height="24" width="24" x="450.5" y="90.5" />
<rect fill="#DEE6F1" height="24" width="12" x="462.5" y="90.5" />
<rect fill="none" height="24" stroke="#405C86" stroke-width="3" width="24" x="450.5" y="90.5" />
<rect fill="#DEE6F1" height="24" width="24" x="426.5" y="90.5" />
<rect fill="#DEE6F1" height="24" width="12" x="438.5" y="90.5" />
<rect fill="none" height="24" stroke="#405C86" stroke-width="3" width="24" x="426.5" y="90.5" />
<rect fill="#DEE6F1" height="24" width="24" x="402.5" y="90.5" />
<rect fill="#DEE6F1" height="24" width="12" x="414.5" y="90.5" />
<rect fill="none" height="24" stroke="#405C86" stroke-width="3" width="24" x="402.5" y="90.5" />
<rect fill="#DEE6F1" height="24" width="24" x="378.5" y="90.5" />
<rect fill="#DEE6F1" height="24" width="12" x="390.5" y="90.5" />
<rect fill="none" height="24" stroke="#405C86" stroke-width="3" width="24" x="378.5" y="90.5" />
<rect fill="#DEE6F1" height="24" width="24" x="354.5" y="90.5" />
<rect fill="#DEE6F1" height="24" width="12" x="366.5" y="90.5" />
<rect fill="none" height="24" stroke="#405C86" stroke-width="3" width="24" x="354.5" y="90.5" />
<rect fill="#DEE6F1" height="24" width="24" x="330.5" y="90.5" />
<rect fill="#DEE6F1" height="24" width="12" x="342.5" y="90.5" />
<rect fill="none" height="24" stroke="#405C86" stroke-width="3" width="24" x="330.5" y="90.5" />
<rect fill="#DEE6F1" height="24" width="24" x="306.5" y="90.5" />
<rect fill="#DEE6F1" height="24" width="12" x="318.5" y="90.5" />
<rect fill="none" height="24" stroke="#405C86" stroke-width="3" width="24" x="306.5" y="90.5" />
<rect fill="#DEE6F1" height="24" width="24" x="282.5" y="90.5" />
<rect fill="#DEE6F1" height="24" width="12" x="294.5" y="90.5" />
<rect fill="none" height="24" stroke="#405C86" stroke-width="3" width="24" x="282.5" y="90.5" />
<rect fill="#DEE6F1" height="24" width="24" x="258.5" y="90.5" />
<rect fill="#DEE6F1" height="24" width="12" x="270.5" y="90.5" />
<rect fill="none" height="24" stroke="#405C86" stroke-width="3" width="24" x="258.5" y="90.5" />
<rect fill="#DEE6F1" height="24" width="24" x="234.5" y="90.5" />
<rect fill="#DEE6F1" height="24" width="12" x="246.5" y="90.5" />
<rect fill="none" height="24" stroke="#405C86" stroke-width="3" width="24" x="234.5" y="90.5" />
<rect fill="#DEE6F1" height="24" width="24" x="210.5" y="90.5" />
<rect fill="#DEE6F1" height="24" width="12" x="222.5" y="90.5" />
<rect fill="none" height="24" stroke="#405C86" stroke-width="3" width="24" x="210.5" y="90.5" />
<rect fill="#DEE6F1" height="24" width="24" x="186.5" y="90.5" />
<rect fill="#DEE6F1" height="24" width="12" x="198.5" y="90.5" />
<rect fill="none" height="24" stroke="#405C86" stroke-width="3" width="24" x="186.5" y="90.5" />
<rect fill="#DEE6F1" height="24" width="24" x="162.5" y="90.5" />
<rect fill="#DEE6F1" height="24" width="12" x="174.5" y="90.5" />
<rect fill="none" height="24" stroke="#405C86" stroke-width="3" width="24" x="162.5" y="90.5" />
<rect fill="#DEE6F1" height="24" width="24" x="138.5" y="90.5" />
<rect fill="#DEE6F1" height="24" width="12" x="150.5" y="90.5" />
<rect fill="none" height="24" stroke="#405C86" stroke-width="3" width="24" x="138.5" y="90.5" />
<rect fill="#DEE6F1" height="24" width="24" x="114.5" y="90.5" />
<rect fill="#DEE6F1" height="24" width="12" x="126.5" y="90.5" />
<rect fill="none" height="24" stroke="#405C86" stroke-width="3" width="24" x="114.5" y="90.5" />
<rect fill="#DEE6F1" height="24" width="24" x="90.5" y="90.5" />
<rect fill="#DEE6F1" height="24" width="12" x="102.5" y="90.5" />
<rect fill="none" height="24" stroke="#405C86" stroke-width="3" width="24" x="90.5" y="90.5" />
<text class="register-name" x="80.5" y="102.5">Zdn</text>
<text class="intrinsic-name" x="80.5" y="114.5">returns</text>
<text class="register-number" x="10" y="102.5">(2)</text>
<line marker-end="url(#arrowhead)" stroke="none" x1="1611.875" x2="1620.5" y1="43.5" y2="89" />
<line marker-end="url(#arrowhead)" stroke="none" x1="1587.875" x2="1596.5" y1="43.5" y2="89" />
<line marker-end="url(#arrowhead)" stroke="none" x1="1563.875" x2="1572.5" y1="43.5" y2="89" />
<line marker-end="url(#arrowhead)" stroke="none" x1="1539.875" x2="1548.5" y1="43.5" y2="89" />
<line marker-end="url(#arrowhead)" stroke="none" x1="1515.875" x2="1524.5" y1="43.5" y2="89" />
<line marker-end="url(#arrowhead)" stroke="none" x1="1491.875" x2="1500.5" y1="43.5" y2="89" />
<line marker-end="url(#arrowhead)" stroke="none" x1="1467.875" x2="1476.5" y1="43.5" y2="89" />
<line marker-end="url(#arrowhead)" stroke="none" x1="1443.875" x2="1452.5" y1="43.5" y2="89" />
<line marker-end="url(#arrowhead)" stroke="none" x1="1419.875" x2="1428.5" y1="43.5" y2="89" />
<line marker-end="url(#arrowhead)" stroke="none" x1="1395.875" x2="1404.5" y1="43.5" y2="89" />
<line marker-end="url(#arrowhead)" stroke="none" x1="1371.875" x2="1380.5" y1="43.5" y2="89" />
<line marker-end="url(#arrowhead)" stroke="none" x1="1347.875" x2="1356.5" y1="43.5" y2="89" />
<line marker-end="url(#arrowhead)" stroke="none" x1="1323.875" x2="1332.5" y1="43.5" y2="89" />
<line marker-end="url(#arrowhead)" stroke="none" x1="1299.875" x2="1308.5" y1="43.5" y2="89" />
<line marker-end="url(#arrowhead)" stroke="none" x1="1275.875" x2="1284.5" y1="43.5" y2="89" />
<line marker-end="url(#arrowhead)" stroke="none" x1="1251.875" x2="1260.5" y1="43.5" y2="89" />
<line marker-end="url(#arrowhead)" stroke="none" x1="1227.875" x2="1236.5" y1="43.5" y2="89" />
<line marker-end="url(#arrowhead)" stroke="none" x1="1203.875" x2="1212.5" y1="43.5" y2="89" />
<line marker-end="url(#arrowhead)" stroke="none" x1="1179.875" x2="1188.5" y1="43.5" y2="89" />
<line marker-end="url(#arrowhead)" stroke="none" x1="1155.875" x2="1164.5" y1="43.5" y2="89" />
<line marker-end="url(#arrowhead)" stroke="none" x1="1131.875" x2="1140.5" y1="43.5" y2="89" />
<line marker-end="url(#arrowhead)" stroke="none" x1="1107.875" x2="1116.5" y1="43.5" y2="89" />
<line marker-end="url(#arrowhead)" stroke="none" x1="1083.875" x2="1092.5" y1="43.5" y2="89" />
<line marker-end="url(#arrowhead)" stroke="none" x1="1059.875" x2="1068.5" y1="43.5" y2="89" />
<line marker-end="url(#arrowhead)" stroke="none" x1="1035.875" x2="1044.5" y1="43.5" y2="89" />
<line marker-end="url(#arrowhead)" stroke="none" x1="1011.875" x2="1020.5" y1="43.5" y2="89" />
<line marker-end="url(#arrowhead)" stroke="none" x1="987.875" x2="996.5" y1="43.5" y2="89" />
<line marker-end="url(#arrowhead)" stroke="none" x1="963.875" x2="972.5" y1="43.5" y2="89" />
<line marker-end="url(#arrowhead)" stroke="none" x1="939.875" x2="948.5" y1="43.5" y2="89" />
<line marker-end="url(#arrowhead)" stroke="none" x1="915.875" x2="924.5" y1="43.5" y2="89" />
<line marker-end="url(#arrowhead)" stroke="none" x1="891.875" x2="900.5" y1="43.5" y2="89" />
<line marker-end="url(#arrowhead)" stroke="none" x1="867.875" x2="876.5" y1="43.5" y2="89" />
<line marker-end="url(#arrowhead)" stroke="none" x1="843.875" x2="852.5" y1="43.5" y2="89" />
<line marker-end="url(#arrowhead)" stroke="none" x1="819.875" x2="828.5" y1="43.5" y2="89" />
<line marker-end="url(#arrowhead)" stroke="none" x1="795.875" x2="804.5" y1="43.5" y2="89" />
<line marker-end="url(#arrowhead)" stroke="none" x1="771.875" x2="780.5" y1="43.5" y2="89" />
<line marker-end="url(#arrowhead)" stroke="none" x1="747.875" x2="756.5" y1="43.5" y2="89" />
<line marker-end="url(#arrowhead)" stroke="none" x1="723.875" x2="732.5" y1="43.5" y2="89" />
<line marker-end="url(#arrowhead)" stroke="none" x1="699.875" x2="708.5" y1="43.5" y2="89" />
<line marker-end="url(#arrowhead)" stroke="none" x1="675.875" x2="684.5" y1="43.5" y2="89" />
<line marker-end="url(#arrowhead)" stroke="none" x1="651.875" x2="660.5" y1="43.5" y2="89" />
<line marker-end="url(#arrowhead)" stroke="none" x1="627.875" x2="636.5" y1="43.5" y2="89" />
<line marker-end="url(#arrowhead)" stroke="none" x1="603.875" x2="612.5" y1="43.5" y2="89" />
<line marker-end="url(#arrowhead)" stroke="none" x1="579.875" x2="588.5" y1="43.5" y2="89" />
<line marker-end="url(#arrowhead)" stroke="none" x1="555.875" x2="564.5" y1="43.5" y2="89" />
<line marker-end="url(#arrowhead)" stroke="none" x1="531.875" x2="540.5" y1="43.5" y2="89" />
<line marker-end="url(#arrowhead)" stroke="none" x1="507.875" x2="516.5" y1="43.5" y2="89" />
<line marker-end="url(#arrowhead)" stroke="none" x1="483.875" x2="492.5" y1="43.5" y2="89" />
<line marker-end="url(#arrowhead)" stroke="none" x1="459.875" x2="468.5" y1="43.5" y2="89" />
<line marker-end="url(#arrowhead)" stroke="none" x1="435.875" x2="444.5" y1="43.5" y2="89" />
<line marker-end="url(#arrowhead)" stroke="none" x1="411.875" x2="420.5" y1="43.5" y2="89" />
<line marker-end="url(#arrowhead)" stroke="none" x1="387.875" x2="396.5" y1="43.5" y2="89" />
<line marker-end="url(#arrowhead)" stroke="none" x1="363.875" x2="372.5" y1="43.5" y2="89" />
<line marker-end="url(#arrowhead)" stroke="none" x1="339.875" x2="348.5" y1="43.5" y2="89" />
<line marker-end="url(#arrowhead)" stroke="none" x1="315.875" x2="324.5" y1="43.5" y2="89" />
<line marker-end="url(#arrowhead)" stroke="none" x1="291.875" x2="300.5" y1="43.5" y2="89" />
<line marker-end="url(#arrowhead)" stroke="none" x1="267.875" x2="276.5" y1="43.5" y2="89" />
<line marker-end="url(#arrowhead)" stroke="none" x1="243.875" x2="252.5" y1="43.5" y2="89" />
<line marker-end="url(#arrowhead)" stroke="none" x1="219.875" x2="228.5" y1="43.5" y2="89" />
<line marker-end="url(#arrowhead)" stroke="none" x1="195.875" x2="204.5" y1="43.5" y2="89" />
<line marker-end="url(#arrowhead)" stroke="none" x1="171.875" x2="180.5" y1="43.5" y2="89" />
<line marker-end="url(#arrowhead)" stroke="none" x1="147.875" x2="156.5" y1="43.5" y2="89" />
<line marker-end="url(#arrowhead)" stroke="none" x1="123.875" x2="132.5" y1="43.5" y2="89" />
<line marker-end="url(#arrowhead)" stroke="none" x1="99.875" x2="108.5" y1="43.5" y2="89" />
</svg>