<svg xmlns="http://www.w3.org/2000/svg" viewBox="0 0 3174 123">
<style>
.label { font: 14px Helvetica; dominant-baseline: middle; text-anchor: middle; }
.title-left { font: 12px Helvetica; dominant-baseline: middle; }
.title-right { font: 12px Helvetica; dominant-baseline: middle; text-anchor: end; }
.title-intrinsic { font: 12px Helvetica; dominant-baseline: middle; text-anchor: middle; fill: #6778ED; }
.title { font: 12px Helvetica; dominant-baseline: middle; text-anchor: middle; }
.title-unused { font: 12px Helvetica; dominant-baseline: middle; text-anchor: middle; fill: #AAA; }
.register-name { font: 14px Helvetica; dominant-baseline: middle; text-anchor: end; font-style: italic; }
.memory-name { font: 14px Helvetica; dominant-baseline: middle; text-anchor: end; }
.register-number { font: 14px Helvetica; dominant-baseline: middle; text-anchor: start; }
.intrinsic-name { font: 14px Helvetica; dominant-baseline: middle; text-anchor: end; fill: #6778ED; }
.intrinsic-color { fill: #6778ED; }
.small-label { font: 12px Helvetica; dominant-baseline: middle; text-anchor: middle; }
.label-10px { font: 10px Helvetica; dominant-baseline: middle; text-anchor: middle; }
.smaller-label { font: 9px Helvetica; dominant-baseline: middle; text-anchor: middle; }
.label-6px { font: 6px Helvetica; dominant-baseline: middle; text-anchor: middle; }
.label-7px { font: 7px Helvetica; dominant-baseline: middle; text-anchor: middle; }
.unused { fill: #AAA; }
.dim { fill: #888; }
</style>
<defs>
<marker id="arrowhead" markerWidth="10.75" markerHeight="24.5" refX="9.0" refY="6.125" orient="auto">
<polyline points="0.5 0.5, 8.75 6.125, 0.5 11.75" stroke="#567DB6" stroke-width="1" fill="none"/>
</marker>
</defs>
<line stroke="#567DB6" stroke-width="1" x1="3114.5" x2="3066.5" y1="43.5" y2="89" />
<line stroke="#567DB6" stroke-width="1" x1="2922.5" x2="2874.5" y1="43.5" y2="89" />
<line stroke="#567DB6" stroke-width="1" x1="2730.5" x2="2682.5" y1="43.5" y2="89" />
<line stroke="#567DB6" stroke-width="1" x1="2538.5" x2="2490.5" y1="43.5" y2="89" />
<line stroke="#567DB6" stroke-width="1" x1="2346.5" x2="2298.5" y1="43.5" y2="89" />
<line stroke="#567DB6" stroke-width="1" x1="2154.5" x2="2106.5" y1="43.5" y2="89" />
<line stroke="#567DB6" stroke-width="1" x1="1962.5" x2="1914.5" y1="43.5" y2="89" />
<line stroke="#567DB6" stroke-width="1" x1="1770.5" x2="1722.5" y1="43.5" y2="89" />
<line stroke="#567DB6" stroke-width="1" x1="1578.5" x2="1530.5" y1="43.5" y2="89" />
<line stroke="#567DB6" stroke-width="1" x1="1386.5" x2="1338.5" y1="43.5" y2="89" />
<line stroke="#567DB6" stroke-width="1" x1="1194.5" x2="1146.5" y1="43.5" y2="89" />
<line stroke="#567DB6" stroke-width="1" x1="1002.5" x2="954.5" y1="43.5" y2="89" />
<line stroke="#567DB6" stroke-width="1" x1="810.5" x2="762.5" y1="43.5" y2="89" />
<line stroke="#567DB6" stroke-width="1" x1="618.5" x2="570.5" y1="43.5" y2="89" />
<line stroke="#567DB6" stroke-width="1" x1="426.5" x2="378.5" y1="43.5" y2="89" />
<line stroke="#567DB6" stroke-width="1" x1="234.5" x2="186.5" y1="43.5" y2="89" />
<text class="title-left" x="90.5" y="9.5">upper</text>
<text class="title-right" x="3162.5" y="9.5">lower</text>
<rect fill="#DEE6F1" height="24" width="96" x="3066.5" y="18.5" />
<rect fill="#EEDDDB" height="24" width="4.40625" x="3066.5" y="18.5" />
<rect fill="none" height="24" stroke="#405C86" stroke-width="3" width="96" x="3066.5" y="18.5" />
<rect fill="none" height="24" stroke="#405C86" stroke-dasharray="3 1" stroke-dashoffset="1.5" stroke-width="1" width="96" x="2970.5" y="18.5" />
<text class="label unused" x="3018.5" y="31.5"></text>
<rect fill="#DEE6F1" height="24" width="96" x="2874.5" y="18.5" />
<rect fill="#EEDDDB" height="24" width="4.40625" x="2874.5" y="18.5" />
<rect fill="none" height="24" stroke="#405C86" stroke-width="3" width="96" x="2874.5" y="18.5" />
<rect fill="none" height="24" stroke="#405C86" stroke-dasharray="3 1" stroke-dashoffset="1.5" stroke-width="1" width="96" x="2778.5" y="18.5" />
<text class="label unused" x="2826.5" y="31.5"></text>
<rect fill="#DEE6F1" height="24" width="96" x="2682.5" y="18.5" />
<rect fill="#EEDDDB" height="24" width="4.40625" x="2682.5" y="18.5" />
<rect fill="none" height="24" stroke="#405C86" stroke-width="3" width="96" x="2682.5" y="18.5" />
<rect fill="none" height="24" stroke="#405C86" stroke-dasharray="3 1" stroke-dashoffset="1.5" stroke-width="1" width="96" x="2586.5" y="18.5" />
<text class="label unused" x="2634.5" y="31.5"></text>
<rect fill="#DEE6F1" height="24" width="96" x="2490.5" y="18.5" />
<rect fill="#EEDDDB" height="24" width="4.40625" x="2490.5" y="18.5" />
<rect fill="none" height="24" stroke="#405C86" stroke-width="3" width="96" x="2490.5" y="18.5" />
<rect fill="none" height="24" stroke="#405C86" stroke-dasharray="3 1" stroke-dashoffset="1.5" stroke-width="1" width="96" x="2394.5" y="18.5" />
<text class="label unused" x="2442.5" y="31.5"></text>
<rect fill="#DEE6F1" height="24" width="96" x="2298.5" y="18.5" />
<rect fill="#EEDDDB" height="24" width="4.40625" x="2298.5" y="18.5" />
<rect fill="none" height="24" stroke="#405C86" stroke-width="3" width="96" x="2298.5" y="18.5" />
<rect fill="none" height="24" stroke="#405C86" stroke-dasharray="3 1" stroke-dashoffset="1.5" stroke-width="1" width="96" x="2202.5" y="18.5" />
<text class="label unused" x="2250.5" y="31.5"></text>
<rect fill="#DEE6F1" height="24" width="96" x="2106.5" y="18.5" />
<rect fill="#EEDDDB" height="24" width="4.40625" x="2106.5" y="18.5" />
<rect fill="none" height="24" stroke="#405C86" stroke-width="3" width="96" x="2106.5" y="18.5" />
<rect fill="none" height="24" stroke="#405C86" stroke-dasharray="3 1" stroke-dashoffset="1.5" stroke-width="1" width="96" x="2010.5" y="18.5" />
<text class="label unused" x="2058.5" y="31.5"></text>
<rect fill="#DEE6F1" height="24" width="96" x="1914.5" y="18.5" />
<rect fill="#EEDDDB" height="24" width="4.40625" x="1914.5" y="18.5" />
<rect fill="none" height="24" stroke="#405C86" stroke-width="3" width="96" x="1914.5" y="18.5" />
<rect fill="none" height="24" stroke="#405C86" stroke-dasharray="3 1" stroke-dashoffset="1.5" stroke-width="1" width="96" x="1818.5" y="18.5" />
<text class="label unused" x="1866.5" y="31.5"></text>
<rect fill="#DEE6F1" height="24" width="96" x="1722.5" y="18.5" />
<rect fill="#EEDDDB" height="24" width="4.40625" x="1722.5" y="18.5" />
<rect fill="none" height="24" stroke="#405C86" stroke-width="3" width="96" x="1722.5" y="18.5" />
<rect fill="none" height="24" stroke="#405C86" stroke-dasharray="3 1" stroke-dashoffset="1.5" stroke-width="1" width="96" x="1626.5" y="18.5" />
<text class="label unused" x="1674.5" y="31.5"></text>
<rect fill="#DEE6F1" height="24" width="96" x="1530.5" y="18.5" />
<rect fill="#EEDDDB" height="24" width="4.40625" x="1530.5" y="18.5" />
<rect fill="none" height="24" stroke="#405C86" stroke-width="3" width="96" x="1530.5" y="18.5" />
<rect fill="none" height="24" stroke="#405C86" stroke-dasharray="3 1" stroke-dashoffset="1.5" stroke-width="1" width="96" x="1434.5" y="18.5" />
<text class="label unused" x="1482.5" y="31.5"></text>
<rect fill="#DEE6F1" height="24" width="96" x="1338.5" y="18.5" />
<rect fill="#EEDDDB" height="24" width="4.40625" x="1338.5" y="18.5" />
<rect fill="none" height="24" stroke="#405C86" stroke-width="3" width="96" x="1338.5" y="18.5" />
<rect fill="none" height="24" stroke="#405C86" stroke-dasharray="3 1" stroke-dashoffset="1.5" stroke-width="1" width="96" x="1242.5" y="18.5" />
<text class="label unused" x="1290.5" y="31.5"></text>
<rect fill="#DEE6F1" height="24" width="96" x="1146.5" y="18.5" />
<rect fill="#EEDDDB" height="24" width="4.40625" x="1146.5" y="18.5" />
<rect fill="none" height="24" stroke="#405C86" stroke-width="3" width="96" x="1146.5" y="18.5" />
<rect fill="none" height="24" stroke="#405C86" stroke-dasharray="3 1" stroke-dashoffset="1.5" stroke-width="1" width="96" x="1050.5" y="18.5" />
<text class="label unused" x="1098.5" y="31.5"></text>
<rect fill="#DEE6F1" height="24" width="96" x="954.5" y="18.5" />
<rect fill="#EEDDDB" height="24" width="4.40625" x="954.5" y="18.5" />
<rect fill="none" height="24" stroke="#405C86" stroke-width="3" width="96" x="954.5" y="18.5" />
<rect fill="none" height="24" stroke="#405C86" stroke-dasharray="3 1" stroke-dashoffset="1.5" stroke-width="1" width="96" x="858.5" y="18.5" />
<text class="label unused" x="906.5" y="31.5"></text>
<rect fill="#DEE6F1" height="24" width="96" x="762.5" y="18.5" />
<rect fill="#EEDDDB" height="24" width="4.40625" x="762.5" y="18.5" />
<rect fill="none" height="24" stroke="#405C86" stroke-width="3" width="96" x="762.5" y="18.5" />
<rect fill="none" height="24" stroke="#405C86" stroke-dasharray="3 1" stroke-dashoffset="1.5" stroke-width="1" width="96" x="666.5" y="18.5" />
<text class="label unused" x="714.5" y="31.5"></text>
<rect fill="#DEE6F1" height="24" width="96" x="570.5" y="18.5" />
<rect fill="#EEDDDB" height="24" width="4.40625" x="570.5" y="18.5" />
<rect fill="none" height="24" stroke="#405C86" stroke-width="3" width="96" x="570.5" y="18.5" />
<rect fill="none" height="24" stroke="#405C86" stroke-dasharray="3 1" stroke-dashoffset="1.5" stroke-width="1" width="96" x="474.5" y="18.5" />
<text class="label unused" x="522.5" y="31.5"></text>
<rect fill="#DEE6F1" height="24" width="96" x="378.5" y="18.5" />
<rect fill="#EEDDDB" height="24" width="4.40625" x="378.5" y="18.5" />
<rect fill="none" height="24" stroke="#405C86" stroke-width="3" width="96" x="378.5" y="18.5" />
<rect fill="none" height="24" stroke="#405C86" stroke-dasharray="3 1" stroke-dashoffset="1.5" stroke-width="1" width="96" x="282.5" y="18.5" />
<text class="label unused" x="330.5" y="31.5"></text>
<rect fill="#DEE6F1" height="24" width="96" x="186.5" y="18.5" />
<rect fill="#EEDDDB" height="24" width="4.40625" x="186.5" y="18.5" />
<rect fill="none" height="24" stroke="#405C86" stroke-width="3" width="96" x="186.5" y="18.5" />
<rect fill="none" height="24" stroke="#405C86" stroke-dasharray="3 1" stroke-dashoffset="1.5" stroke-width="1" width="96" x="90.5" y="18.5" />
<text class="label unused" x="138.5" y="31.5"></text>
<text class="register-name" x="80.5" y="30.5">Zn</text>
<text class="intrinsic-name" x="80.5" y="42.5">op1</text>
<text class="register-number" x="10" y="30.5">(1)</text>
<rect fill="#DEE6F1" height="24" width="91.546875" x="3022.203125" y="90.5" />
<rect fill="#EEDDDB" height="24" width="51.703125" x="2970.5" y="90.5" />
<rect fill="none" height="24" stroke="#405C86" stroke-width="3" width="192" x="2970.5" y="90.5" />
<rect fill="#DEE6F1" height="24" width="91.546875" x="2830.203125" y="90.5" />
<rect fill="#EEDDDB" height="24" width="51.703125" x="2778.5" y="90.5" />
<rect fill="none" height="24" stroke="#405C86" stroke-width="3" width="192" x="2778.5" y="90.5" />
<rect fill="#DEE6F1" height="24" width="91.546875" x="2638.203125" y="90.5" />
<rect fill="#EEDDDB" height="24" width="51.703125" x="2586.5" y="90.5" />
<rect fill="none" height="24" stroke="#405C86" stroke-width="3" width="192" x="2586.5" y="90.5" />
<rect fill="#DEE6F1" height="24" width="91.546875" x="2446.203125" y="90.5" />
<rect fill="#EEDDDB" height="24" width="51.703125" x="2394.5" y="90.5" />
<rect fill="none" height="24" stroke="#405C86" stroke-width="3" width="192" x="2394.5" y="90.5" />
<rect fill="#DEE6F1" height="24" width="91.546875" x="2254.203125" y="90.5" />
<rect fill="#EEDDDB" height="24" width="51.703125" x="2202.5" y="90.5" />
<rect fill="none" height="24" stroke="#405C86" stroke-width="3" width="192" x="2202.5" y="90.5" />
<rect fill="#DEE6F1" height="24" width="91.546875" x="2062.203125" y="90.5" />
<rect fill="#EEDDDB" height="24" width="51.703125" x="2010.5" y="90.5" />
<rect fill="none" height="24" stroke="#405C86" stroke-width="3" width="192" x="2010.5" y="90.5" />
<rect fill="#DEE6F1" height="24" width="91.546875" x="1870.203125" y="90.5" />
<rect fill="#EEDDDB" height="24" width="51.703125" x="1818.5" y="90.5" />
<rect fill="none" height="24" stroke="#405C86" stroke-width="3" width="192" x="1818.5" y="90.5" />
<rect fill="#DEE6F1" height="24" width="91.546875" x="1678.203125" y="90.5" />
<rect fill="#EEDDDB" height="24" width="51.703125" x="1626.5" y="90.5" />
<rect fill="none" height="24" stroke="#405C86" stroke-width="3" width="192" x="1626.5" y="90.5" />
<rect fill="#DEE6F1" height="24" width="91.546875" x="1486.203125" y="90.5" />
<rect fill="#EEDDDB" height="24" width="51.703125" x="1434.5" y="90.5" />
<rect fill="none" height="24" stroke="#405C86" stroke-width="3" width="192" x="1434.5" y="90.5" />
<rect fill="#DEE6F1" height="24" width="91.546875" x="1294.203125" y="90.5" />
<rect fill="#EEDDDB" height="24" width="51.703125" x="1242.5" y="90.5" />
<rect fill="none" height="24" stroke="#405C86" stroke-width="3" width="192" x="1242.5" y="90.5" />
<rect fill="#DEE6F1" height="24" width="91.546875" x="1102.203125" y="90.5" />
<rect fill="#EEDDDB" height="24" width="51.703125" x="1050.5" y="90.5" />
<rect fill="none" height="24" stroke="#405C86" stroke-width="3" width="192" x="1050.5" y="90.5" />
<rect fill="#DEE6F1" height="24" width="91.546875" x="910.203125" y="90.5" />
<rect fill="#EEDDDB" height="24" width="51.703125" x="858.5" y="90.5" />
<rect fill="none" height="24" stroke="#405C86" stroke-width="3" width="192" x="858.5" y="90.5" />
<rect fill="#DEE6F1" height="24" width="91.546875" x="718.203125" y="90.5" />
<rect fill="#EEDDDB" height="24" width="51.703125" x="666.5" y="90.5" />
<rect fill="none" height="24" stroke="#405C86" stroke-width="3" width="192" x="666.5" y="90.5" />
<rect fill="#DEE6F1" height="24" width="91.546875" x="526.203125" y="90.5" />
<rect fill="#EEDDDB" height="24" width="51.703125" x="474.5" y="90.5" />
<rect fill="none" height="24" stroke="#405C86" stroke-width="3" width="192" x="474.5" y="90.5" />
<rect fill="#DEE6F1" height="24" width="91.546875" x="334.203125" y="90.5" />
<rect fill="#EEDDDB" height="24" width="51.703125" x="282.5" y="90.5" />
<rect fill="none" height="24" stroke="#405C86" stroke-width="3" width="192" x="282.5" y="90.5" />
<rect fill="#DEE6F1" height="24" width="91.546875" x="142.203125" y="90.5" />
<rect fill="#EEDDDB" height="24" width="51.703125" x="90.5" y="90.5" />
<rect fill="none" height="24" stroke="#405C86" stroke-width="3" width="192" x="90.5" y="90.5" />
<text class="register-name" x="80.5" y="102.5">Zd</text>
<text class="intrinsic-name" x="80.5" y="114.5">returns</text>
<text class="register-number" x="10" y="102.5">(2)</text>
<line marker-end="url(#arrowhead)" stroke="none" x1="3114.5" x2="3066.5" y1="43.5" y2="89" />
<line marker-end="url(#arrowhead)" stroke="none" x1="2922.5" x2="2874.5" y1="43.5" y2="89" />
<line marker-end="url(#arrowhead)" stroke="none" x1="2730.5" x2="2682.5" y1="43.5" y2="89" />
<line marker-end="url(#arrowhead)" stroke="none" x1="2538.5" x2="2490.5" y1="43.5" y2="89" />
<line marker-end="url(#arrowhead)" stroke="none" x1="2346.5" x2="2298.5" y1="43.5" y2="89" />
<line marker-end="url(#arrowhead)" stroke="none" x1="2154.5" x2="2106.5" y1="43.5" y2="89" />
<line marker-end="url(#arrowhead)" stroke="none" x1="1962.5" x2="1914.5" y1="43.5" y2="89" />
<line marker-end="url(#arrowhead)" stroke="none" x1="1770.5" x2="1722.5" y1="43.5" y2="89" />
<line marker-end="url(#arrowhead)" stroke="none" x1="1578.5" x2="1530.5" y1="43.5" y2="89" />
<line marker-end="url(#arrowhead)" stroke="none" x1="1386.5" x2="1338.5" y1="43.5" y2="89" />
<line marker-end="url(#arrowhead)" stroke="none" x1="1194.5" x2="1146.5" y1="43.5" y2="89" />
<line marker-end="url(#arrowhead)" stroke="none" x1="1002.5" x2="954.5" y1="43.5" y2="89" />
<line marker-end="url(#arrowhead)" stroke="none" x1="810.5" x2="762.5" y1="43.5" y2="89" />
<line marker-end="url(#arrowhead)" stroke="none" x1="618.5" x2="570.5" y1="43.5" y2="89" />
<line marker-end="url(#arrowhead)" stroke="none" x1="426.5" x2="378.5" y1="43.5" y2="89" />
<line marker-end="url(#arrowhead)" stroke="none" x1="234.5" x2="186.5" y1="43.5" y2="89" />
</svg>