<svg xmlns="http://www.w3.org/2000/svg" viewBox="0 0 1638 171">
<style>
.label { font: 14px Helvetica; dominant-baseline: middle; text-anchor: middle; }
.title-left { font: 12px Helvetica; dominant-baseline: middle; }
.title-right { font: 12px Helvetica; dominant-baseline: middle; text-anchor: end; }
.title-intrinsic { font: 12px Helvetica; dominant-baseline: middle; text-anchor: middle; fill: #6778ED; }
.title { font: 12px Helvetica; dominant-baseline: middle; text-anchor: middle; }
.title-unused { font: 12px Helvetica; dominant-baseline: middle; text-anchor: middle; fill: #AAA; }
.register-name { font: 14px Helvetica; dominant-baseline: middle; text-anchor: end; font-style: italic; }
.memory-name { font: 14px Helvetica; dominant-baseline: middle; text-anchor: end; }
.register-number { font: 14px Helvetica; dominant-baseline: middle; text-anchor: start; }
.intrinsic-name { font: 14px Helvetica; dominant-baseline: middle; text-anchor: end; fill: #6778ED; }
.intrinsic-color { fill: #6778ED; }
.small-label { font: 12px Helvetica; dominant-baseline: middle; text-anchor: middle; }
.label-10px { font: 10px Helvetica; dominant-baseline: middle; text-anchor: middle; }
.smaller-label { font: 9px Helvetica; dominant-baseline: middle; text-anchor: middle; }
.label-6px { font: 6px Helvetica; dominant-baseline: middle; text-anchor: middle; }
.label-7px { font: 7px Helvetica; dominant-baseline: middle; text-anchor: middle; }
.unused { fill: #AAA; }
.dim { fill: #888; }
</style>
<defs>
<marker id="arrowhead" markerWidth="10.75" markerHeight="24.5" refX="9.0" refY="6.125" orient="auto">
<polyline points="0.5 0.5, 8.75 6.125, 0.5 11.75" stroke="#567DB6" stroke-width="1" fill="none"/>
</marker>
</defs>
<line stroke="#567DB6" stroke-width="1" x1="1614.5" x2="1614.5" y1="43.5" y2="65.5" />
<line stroke="#567DB6" stroke-width="1" x1="1566.5" x2="1566.5" y1="43.5" y2="65.5" />
<line stroke="#567DB6" stroke-width="1" x1="1566.5" x2="1206.5" y1="91.5" y2="137" />
<line stroke="#567DB6" stroke-width="1" x1="1518.5" x2="1518.5" y1="43.5" y2="65.5" />
<line stroke="#567DB6" stroke-width="1" x1="1518.5" x2="1182.5" y1="91.5" y2="137" />
<line stroke="#567DB6" stroke-width="1" x1="1470.5" x2="1470.5" y1="43.5" y2="65.5" />
<line stroke="#567DB6" stroke-width="1" x1="1422.5" x2="1422.5" y1="43.5" y2="65.5" />
<line stroke="#567DB6" stroke-width="1" x1="1422.5" x2="1134.5" y1="91.5" y2="137" />
<line stroke="#567DB6" stroke-width="1" x1="1374.5" x2="1374.5" y1="43.5" y2="65.5" />
<line stroke="#567DB6" stroke-width="1" x1="1374.5" x2="1110.5" y1="91.5" y2="137" />
<line stroke="#567DB6" stroke-width="1" x1="1326.5" x2="1326.5" y1="43.5" y2="65.5" />
<line stroke="#567DB6" stroke-width="1" x1="1278.5" x2="1278.5" y1="43.5" y2="65.5" />
<line stroke="#567DB6" stroke-width="1" x1="1278.5" x2="1062.5" y1="91.5" y2="137" />
<line stroke="#567DB6" stroke-width="1" x1="1230.5" x2="1230.5" y1="43.5" y2="65.5" />
<line stroke="#567DB6" stroke-width="1" x1="1230.5" x2="1038.5" y1="91.5" y2="137" />
<line stroke="#567DB6" stroke-width="1" x1="1182.5" x2="1182.5" y1="43.5" y2="65.5" />
<line stroke="#567DB6" stroke-width="1" x1="1182.5" x2="1014.5" y1="91.5" y2="137" />
<line stroke="#567DB6" stroke-width="1" x1="1134.5" x2="1134.5" y1="43.5" y2="65.5" />
<line stroke="#567DB6" stroke-width="1" x1="1134.5" x2="990.5" y1="91.5" y2="137" />
<line stroke="#567DB6" stroke-width="1" x1="1086.5" x2="1086.5" y1="43.5" y2="65.5" />
<line stroke="#567DB6" stroke-width="1" x1="1086.5" x2="966.5" y1="91.5" y2="137" />
<line stroke="#567DB6" stroke-width="1" x1="1038.5" x2="1038.5" y1="43.5" y2="65.5" />
<line stroke="#567DB6" stroke-width="1" x1="1038.5" x2="942.5" y1="91.5" y2="137" />
<line stroke="#567DB6" stroke-width="1" x1="990.5" x2="990.5" y1="43.5" y2="65.5" />
<line stroke="#567DB6" stroke-width="1" x1="990.5" x2="918.5" y1="91.5" y2="137" />
<line stroke="#567DB6" stroke-width="1" x1="942.5" x2="942.5" y1="43.5" y2="65.5" />
<line stroke="#567DB6" stroke-width="1" x1="894.5" x2="894.5" y1="43.5" y2="65.5" />
<line stroke="#567DB6" stroke-width="1" x1="894.5" x2="870.5" y1="91.5" y2="137" />
<line stroke="#567DB6" stroke-width="1" x1="846.5" x2="846.5" y1="43.5" y2="65.5" />
<line stroke="#567DB6" stroke-width="1" x1="846.5" x2="846.5" y1="91.5" y2="137" />
<line stroke="#567DB6" stroke-width="1" x1="798.5" x2="798.5" y1="43.5" y2="65.5" />
<line stroke="#567DB6" stroke-width="1" x1="750.5" x2="750.5" y1="43.5" y2="65.5" />
<line stroke="#567DB6" stroke-width="1" x1="750.5" x2="798.5" y1="91.5" y2="137" />
<line stroke="#567DB6" stroke-width="1" x1="702.5" x2="702.5" y1="43.5" y2="65.5" />
<line stroke="#567DB6" stroke-width="1" x1="702.5" x2="774.5" y1="91.5" y2="137" />
<line stroke="#567DB6" stroke-width="1" x1="654.5" x2="654.5" y1="43.5" y2="65.5" />
<line stroke="#567DB6" stroke-width="1" x1="654.5" x2="750.5" y1="91.5" y2="137" />
<line stroke="#567DB6" stroke-width="1" x1="606.5" x2="606.5" y1="43.5" y2="65.5" />
<line stroke="#567DB6" stroke-width="1" x1="606.5" x2="726.5" y1="91.5" y2="137" />
<line stroke="#567DB6" stroke-width="1" x1="558.5" x2="558.5" y1="43.5" y2="65.5" />
<line stroke="#567DB6" stroke-width="1" x1="558.5" x2="702.5" y1="91.5" y2="137" />
<line stroke="#567DB6" stroke-width="1" x1="510.5" x2="510.5" y1="43.5" y2="65.5" />
<line stroke="#567DB6" stroke-width="1" x1="510.5" x2="678.5" y1="91.5" y2="137" />
<line stroke="#567DB6" stroke-width="1" x1="462.5" x2="462.5" y1="43.5" y2="65.5" />
<line stroke="#567DB6" stroke-width="1" x1="462.5" x2="654.5" y1="91.5" y2="137" />
<line stroke="#567DB6" stroke-width="1" x1="414.5" x2="414.5" y1="43.5" y2="65.5" />
<line stroke="#567DB6" stroke-width="1" x1="414.5" x2="630.5" y1="91.5" y2="137" />
<line stroke="#567DB6" stroke-width="1" x1="366.5" x2="366.5" y1="43.5" y2="65.5" />
<line stroke="#567DB6" stroke-width="1" x1="366.5" x2="606.5" y1="91.5" y2="137" />
<line stroke="#567DB6" stroke-width="1" x1="318.5" x2="318.5" y1="43.5" y2="65.5" />
<line stroke="#567DB6" stroke-width="1" x1="318.5" x2="582.5" y1="91.5" y2="137" />
<line stroke="#567DB6" stroke-width="1" x1="270.5" x2="270.5" y1="43.5" y2="65.5" />
<line stroke="#567DB6" stroke-width="1" x1="222.5" x2="222.5" y1="43.5" y2="65.5" />
<line stroke="#567DB6" stroke-width="1" x1="222.5" x2="534.5" y1="91.5" y2="137" />
<line stroke="#567DB6" stroke-width="1" x1="174.5" x2="174.5" y1="43.5" y2="65.5" />
<line stroke="#567DB6" stroke-width="1" x1="126.5" x2="126.5" y1="43.5" y2="65.5" />
<line stroke="#567DB6" stroke-width="1" x1="126.5" x2="486.5" y1="91.5" y2="137" />
<text class="title-left" x="90.5" y="9.5">upper</text>
<text class="title-right" x="1626.5" y="9.5">lower</text>
<rect fill="#DEE6F1" height="24" width="24" x="1602.5" y="18.5" />
<rect fill="none" height="24" stroke="#405C86" stroke-width="3" width="48" x="1578.5" y="18.5" />
<rect fill="#DEE6F1" height="24" width="24" x="1554.5" y="18.5" />
<rect fill="none" height="24" stroke="#405C86" stroke-width="3" width="48" x="1530.5" y="18.5" />
<rect fill="#DEE6F1" height="24" width="24" x="1506.5" y="18.5" />
<rect fill="none" height="24" stroke="#405C86" stroke-width="3" width="48" x="1482.5" y="18.5" />
<rect fill="#DEE6F1" height="24" width="24" x="1458.5" y="18.5" />
<rect fill="none" height="24" stroke="#405C86" stroke-width="3" width="48" x="1434.5" y="18.5" />
<rect fill="#DEE6F1" height="24" width="24" x="1410.5" y="18.5" />
<rect fill="none" height="24" stroke="#405C86" stroke-width="3" width="48" x="1386.5" y="18.5" />
<rect fill="#DEE6F1" height="24" width="24" x="1362.5" y="18.5" />
<rect fill="none" height="24" stroke="#405C86" stroke-width="3" width="48" x="1338.5" y="18.5" />
<rect fill="#DEE6F1" height="24" width="24" x="1314.5" y="18.5" />
<rect fill="none" height="24" stroke="#405C86" stroke-width="3" width="48" x="1290.5" y="18.5" />
<rect fill="#DEE6F1" height="24" width="24" x="1266.5" y="18.5" />
<rect fill="none" height="24" stroke="#405C86" stroke-width="3" width="48" x="1242.5" y="18.5" />
<rect fill="#DEE6F1" height="24" width="24" x="1218.5" y="18.5" />
<rect fill="none" height="24" stroke="#405C86" stroke-width="3" width="48" x="1194.5" y="18.5" />
<rect fill="#DEE6F1" height="24" width="24" x="1170.5" y="18.5" />
<rect fill="none" height="24" stroke="#405C86" stroke-width="3" width="48" x="1146.5" y="18.5" />
<rect fill="#DEE6F1" height="24" width="24" x="1122.5" y="18.5" />
<rect fill="none" height="24" stroke="#405C86" stroke-width="3" width="48" x="1098.5" y="18.5" />
<rect fill="#DEE6F1" height="24" width="24" x="1074.5" y="18.5" />
<rect fill="none" height="24" stroke="#405C86" stroke-width="3" width="48" x="1050.5" y="18.5" />
<rect fill="#DEE6F1" height="24" width="24" x="1026.5" y="18.5" />
<rect fill="none" height="24" stroke="#405C86" stroke-width="3" width="48" x="1002.5" y="18.5" />
<rect fill="#DEE6F1" height="24" width="24" x="978.5" y="18.5" />
<rect fill="none" height="24" stroke="#405C86" stroke-width="3" width="48" x="954.5" y="18.5" />
<rect fill="#DEE6F1" height="24" width="24" x="930.5" y="18.5" />
<rect fill="none" height="24" stroke="#405C86" stroke-width="3" width="48" x="906.5" y="18.5" />
<rect fill="#DEE6F1" height="24" width="24" x="882.5" y="18.5" />
<rect fill="none" height="24" stroke="#405C86" stroke-width="3" width="48" x="858.5" y="18.5" />
<rect fill="#DEE6F1" height="24" width="24" x="834.5" y="18.5" />
<rect fill="none" height="24" stroke="#405C86" stroke-width="3" width="48" x="810.5" y="18.5" />
<rect fill="#DEE6F1" height="24" width="24" x="786.5" y="18.5" />
<rect fill="none" height="24" stroke="#405C86" stroke-width="3" width="48" x="762.5" y="18.5" />
<rect fill="#DEE6F1" height="24" width="24" x="738.5" y="18.5" />
<rect fill="none" height="24" stroke="#405C86" stroke-width="3" width="48" x="714.5" y="18.5" />
<rect fill="#DEE6F1" height="24" width="24" x="690.5" y="18.5" />
<rect fill="none" height="24" stroke="#405C86" stroke-width="3" width="48" x="666.5" y="18.5" />
<rect fill="#DEE6F1" height="24" width="24" x="642.5" y="18.5" />
<rect fill="none" height="24" stroke="#405C86" stroke-width="3" width="48" x="618.5" y="18.5" />
<rect fill="#DEE6F1" height="24" width="24" x="594.5" y="18.5" />
<rect fill="none" height="24" stroke="#405C86" stroke-width="3" width="48" x="570.5" y="18.5" />
<rect fill="#DEE6F1" height="24" width="24" x="546.5" y="18.5" />
<rect fill="none" height="24" stroke="#405C86" stroke-width="3" width="48" x="522.5" y="18.5" />
<rect fill="#DEE6F1" height="24" width="24" x="498.5" y="18.5" />
<rect fill="none" height="24" stroke="#405C86" stroke-width="3" width="48" x="474.5" y="18.5" />
<rect fill="#DEE6F1" height="24" width="24" x="450.5" y="18.5" />
<rect fill="none" height="24" stroke="#405C86" stroke-width="3" width="48" x="426.5" y="18.5" />
<rect fill="#DEE6F1" height="24" width="24" x="402.5" y="18.5" />
<rect fill="none" height="24" stroke="#405C86" stroke-width="3" width="48" x="378.5" y="18.5" />
<rect fill="#DEE6F1" height="24" width="24" x="354.5" y="18.5" />
<rect fill="none" height="24" stroke="#405C86" stroke-width="3" width="48" x="330.5" y="18.5" />
<rect fill="#DEE6F1" height="24" width="24" x="306.5" y="18.5" />
<rect fill="none" height="24" stroke="#405C86" stroke-width="3" width="48" x="282.5" y="18.5" />
<rect fill="#DEE6F1" height="24" width="24" x="258.5" y="18.5" />
<rect fill="none" height="24" stroke="#405C86" stroke-width="3" width="48" x="234.5" y="18.5" />
<rect fill="#DEE6F1" height="24" width="24" x="210.5" y="18.5" />
<rect fill="none" height="24" stroke="#405C86" stroke-width="3" width="48" x="186.5" y="18.5" />
<rect fill="#DEE6F1" height="24" width="24" x="162.5" y="18.5" />
<rect fill="none" height="24" stroke="#405C86" stroke-width="3" width="48" x="138.5" y="18.5" />
<rect fill="#DEE6F1" height="24" width="24" x="114.5" y="18.5" />
<rect fill="none" height="24" stroke="#405C86" stroke-width="3" width="48" x="90.5" y="18.5" />
<text class="register-name" x="80.5" y="30.5">Zt</text>
<text class="intrinsic-name" x="80.5" y="42.5">value</text>
<text class="register-number" x="10" y="30.5">(1)</text>
<rect fill="none" height="24" stroke="#405C86" stroke-width="3" width="12" x="1608.5" y="66.5" />
<text class="label" x="1614.5" y="79.5">0</text>
<rect fill="none" height="24" stroke="#405C86" stroke-dasharray="3 1" stroke-dashoffset="1.5" stroke-width="1" width="12" x="1596.5" y="66.5" />
<text class="label unused" x="1602.5" y="79.5"></text>
<rect fill="#DEE6F1" height="24" width="12" x="1560.5" y="66.5" />
<rect fill="none" height="24" stroke="#405C86" stroke-width="3" width="12" x="1560.5" y="66.5" />
<text class="label" x="1566.5" y="79.5">1</text>
<rect fill="none" height="24" stroke="#405C86" stroke-dasharray="3 1" stroke-dashoffset="1.5" stroke-width="1" width="12" x="1548.5" y="66.5" />
<text class="label unused" x="1554.5" y="79.5"></text>
<rect fill="#DEE6F1" height="24" width="12" x="1512.5" y="66.5" />
<rect fill="none" height="24" stroke="#405C86" stroke-width="3" width="12" x="1512.5" y="66.5" />
<text class="label" x="1518.5" y="79.5">1</text>
<rect fill="none" height="24" stroke="#405C86" stroke-dasharray="3 1" stroke-dashoffset="1.5" stroke-width="1" width="12" x="1500.5" y="66.5" />
<text class="label unused" x="1506.5" y="79.5"></text>
<rect fill="none" height="24" stroke="#405C86" stroke-width="3" width="12" x="1464.5" y="66.5" />
<text class="label" x="1470.5" y="79.5">0</text>
<rect fill="none" height="24" stroke="#405C86" stroke-dasharray="3 1" stroke-dashoffset="1.5" stroke-width="1" width="12" x="1452.5" y="66.5" />
<text class="label unused" x="1458.5" y="79.5"></text>
<rect fill="#DEE6F1" height="24" width="12" x="1416.5" y="66.5" />
<rect fill="none" height="24" stroke="#405C86" stroke-width="3" width="12" x="1416.5" y="66.5" />
<text class="label" x="1422.5" y="79.5">1</text>
<rect fill="none" height="24" stroke="#405C86" stroke-dasharray="3 1" stroke-dashoffset="1.5" stroke-width="1" width="12" x="1404.5" y="66.5" />
<text class="label unused" x="1410.5" y="79.5"></text>
<rect fill="#DEE6F1" height="24" width="12" x="1368.5" y="66.5" />
<rect fill="none" height="24" stroke="#405C86" stroke-width="3" width="12" x="1368.5" y="66.5" />
<text class="label" x="1374.5" y="79.5">1</text>
<rect fill="none" height="24" stroke="#405C86" stroke-dasharray="3 1" stroke-dashoffset="1.5" stroke-width="1" width="12" x="1356.5" y="66.5" />
<text class="label unused" x="1362.5" y="79.5"></text>
<rect fill="none" height="24" stroke="#405C86" stroke-width="3" width="12" x="1320.5" y="66.5" />
<text class="label" x="1326.5" y="79.5">0</text>
<rect fill="none" height="24" stroke="#405C86" stroke-dasharray="3 1" stroke-dashoffset="1.5" stroke-width="1" width="12" x="1308.5" y="66.5" />
<text class="label unused" x="1314.5" y="79.5"></text>
<rect fill="#DEE6F1" height="24" width="12" x="1272.5" y="66.5" />
<rect fill="none" height="24" stroke="#405C86" stroke-width="3" width="12" x="1272.5" y="66.5" />
<text class="label" x="1278.5" y="79.5">1</text>
<rect fill="none" height="24" stroke="#405C86" stroke-dasharray="3 1" stroke-dashoffset="1.5" stroke-width="1" width="12" x="1260.5" y="66.5" />
<text class="label unused" x="1266.5" y="79.5"></text>
<rect fill="#DEE6F1" height="24" width="12" x="1224.5" y="66.5" />
<rect fill="none" height="24" stroke="#405C86" stroke-width="3" width="12" x="1224.5" y="66.5" />
<text class="label" x="1230.5" y="79.5">1</text>
<rect fill="none" height="24" stroke="#405C86" stroke-dasharray="3 1" stroke-dashoffset="1.5" stroke-width="1" width="12" x="1212.5" y="66.5" />
<text class="label unused" x="1218.5" y="79.5"></text>
<rect fill="#DEE6F1" height="24" width="12" x="1176.5" y="66.5" />
<rect fill="none" height="24" stroke="#405C86" stroke-width="3" width="12" x="1176.5" y="66.5" />
<text class="label" x="1182.5" y="79.5">1</text>
<rect fill="none" height="24" stroke="#405C86" stroke-dasharray="3 1" stroke-dashoffset="1.5" stroke-width="1" width="12" x="1164.5" y="66.5" />
<text class="label unused" x="1170.5" y="79.5"></text>
<rect fill="#DEE6F1" height="24" width="12" x="1128.5" y="66.5" />
<rect fill="none" height="24" stroke="#405C86" stroke-width="3" width="12" x="1128.5" y="66.5" />
<text class="label" x="1134.5" y="79.5">1</text>
<rect fill="none" height="24" stroke="#405C86" stroke-dasharray="3 1" stroke-dashoffset="1.5" stroke-width="1" width="12" x="1116.5" y="66.5" />
<text class="label unused" x="1122.5" y="79.5"></text>
<rect fill="#DEE6F1" height="24" width="12" x="1080.5" y="66.5" />
<rect fill="none" height="24" stroke="#405C86" stroke-width="3" width="12" x="1080.5" y="66.5" />
<text class="label" x="1086.5" y="79.5">1</text>
<rect fill="none" height="24" stroke="#405C86" stroke-dasharray="3 1" stroke-dashoffset="1.5" stroke-width="1" width="12" x="1068.5" y="66.5" />
<text class="label unused" x="1074.5" y="79.5"></text>
<rect fill="#DEE6F1" height="24" width="12" x="1032.5" y="66.5" />
<rect fill="none" height="24" stroke="#405C86" stroke-width="3" width="12" x="1032.5" y="66.5" />
<text class="label" x="1038.5" y="79.5">1</text>
<rect fill="none" height="24" stroke="#405C86" stroke-dasharray="3 1" stroke-dashoffset="1.5" stroke-width="1" width="12" x="1020.5" y="66.5" />
<text class="label unused" x="1026.5" y="79.5"></text>
<rect fill="#DEE6F1" height="24" width="12" x="984.5" y="66.5" />
<rect fill="none" height="24" stroke="#405C86" stroke-width="3" width="12" x="984.5" y="66.5" />
<text class="label" x="990.5" y="79.5">1</text>
<rect fill="none" height="24" stroke="#405C86" stroke-dasharray="3 1" stroke-dashoffset="1.5" stroke-width="1" width="12" x="972.5" y="66.5" />
<text class="label unused" x="978.5" y="79.5"></text>
<rect fill="none" height="24" stroke="#405C86" stroke-width="3" width="12" x="936.5" y="66.5" />
<text class="label" x="942.5" y="79.5">0</text>
<rect fill="none" height="24" stroke="#405C86" stroke-dasharray="3 1" stroke-dashoffset="1.5" stroke-width="1" width="12" x="924.5" y="66.5" />
<text class="label unused" x="930.5" y="79.5"></text>
<rect fill="#DEE6F1" height="24" width="12" x="888.5" y="66.5" />
<rect fill="none" height="24" stroke="#405C86" stroke-width="3" width="12" x="888.5" y="66.5" />
<text class="label" x="894.5" y="79.5">1</text>
<rect fill="none" height="24" stroke="#405C86" stroke-dasharray="3 1" stroke-dashoffset="1.5" stroke-width="1" width="12" x="876.5" y="66.5" />
<text class="label unused" x="882.5" y="79.5"></text>
<rect fill="#DEE6F1" height="24" width="12" x="840.5" y="66.5" />
<rect fill="none" height="24" stroke="#405C86" stroke-width="3" width="12" x="840.5" y="66.5" />
<text class="label" x="846.5" y="79.5">1</text>
<rect fill="none" height="24" stroke="#405C86" stroke-dasharray="3 1" stroke-dashoffset="1.5" stroke-width="1" width="12" x="828.5" y="66.5" />
<text class="label unused" x="834.5" y="79.5"></text>
<rect fill="none" height="24" stroke="#405C86" stroke-width="3" width="12" x="792.5" y="66.5" />
<text class="label" x="798.5" y="79.5">0</text>
<rect fill="none" height="24" stroke="#405C86" stroke-dasharray="3 1" stroke-dashoffset="1.5" stroke-width="1" width="12" x="780.5" y="66.5" />
<text class="label unused" x="786.5" y="79.5"></text>
<rect fill="#DEE6F1" height="24" width="12" x="744.5" y="66.5" />
<rect fill="none" height="24" stroke="#405C86" stroke-width="3" width="12" x="744.5" y="66.5" />
<text class="label" x="750.5" y="79.5">1</text>
<rect fill="none" height="24" stroke="#405C86" stroke-dasharray="3 1" stroke-dashoffset="1.5" stroke-width="1" width="12" x="732.5" y="66.5" />
<text class="label unused" x="738.5" y="79.5"></text>
<rect fill="#DEE6F1" height="24" width="12" x="696.5" y="66.5" />
<rect fill="none" height="24" stroke="#405C86" stroke-width="3" width="12" x="696.5" y="66.5" />
<text class="label" x="702.5" y="79.5">1</text>
<rect fill="none" height="24" stroke="#405C86" stroke-dasharray="3 1" stroke-dashoffset="1.5" stroke-width="1" width="12" x="684.5" y="66.5" />
<text class="label unused" x="690.5" y="79.5"></text>
<rect fill="#DEE6F1" height="24" width="12" x="648.5" y="66.5" />
<rect fill="none" height="24" stroke="#405C86" stroke-width="3" width="12" x="648.5" y="66.5" />
<text class="label" x="654.5" y="79.5">1</text>
<rect fill="none" height="24" stroke="#405C86" stroke-dasharray="3 1" stroke-dashoffset="1.5" stroke-width="1" width="12" x="636.5" y="66.5" />
<text class="label unused" x="642.5" y="79.5"></text>
<rect fill="#DEE6F1" height="24" width="12" x="600.5" y="66.5" />
<rect fill="none" height="24" stroke="#405C86" stroke-width="3" width="12" x="600.5" y="66.5" />
<text class="label" x="606.5" y="79.5">1</text>
<rect fill="none" height="24" stroke="#405C86" stroke-dasharray="3 1" stroke-dashoffset="1.5" stroke-width="1" width="12" x="588.5" y="66.5" />
<text class="label unused" x="594.5" y="79.5"></text>
<rect fill="#DEE6F1" height="24" width="12" x="552.5" y="66.5" />
<rect fill="none" height="24" stroke="#405C86" stroke-width="3" width="12" x="552.5" y="66.5" />
<text class="label" x="558.5" y="79.5">1</text>
<rect fill="none" height="24" stroke="#405C86" stroke-dasharray="3 1" stroke-dashoffset="1.5" stroke-width="1" width="12" x="540.5" y="66.5" />
<text class="label unused" x="546.5" y="79.5"></text>
<rect fill="#DEE6F1" height="24" width="12" x="504.5" y="66.5" />
<rect fill="none" height="24" stroke="#405C86" stroke-width="3" width="12" x="504.5" y="66.5" />
<text class="label" x="510.5" y="79.5">1</text>
<rect fill="none" height="24" stroke="#405C86" stroke-dasharray="3 1" stroke-dashoffset="1.5" stroke-width="1" width="12" x="492.5" y="66.5" />
<text class="label unused" x="498.5" y="79.5"></text>
<rect fill="#DEE6F1" height="24" width="12" x="456.5" y="66.5" />
<rect fill="none" height="24" stroke="#405C86" stroke-width="3" width="12" x="456.5" y="66.5" />
<text class="label" x="462.5" y="79.5">1</text>
<rect fill="none" height="24" stroke="#405C86" stroke-dasharray="3 1" stroke-dashoffset="1.5" stroke-width="1" width="12" x="444.5" y="66.5" />
<text class="label unused" x="450.5" y="79.5"></text>
<rect fill="#DEE6F1" height="24" width="12" x="408.5" y="66.5" />
<rect fill="none" height="24" stroke="#405C86" stroke-width="3" width="12" x="408.5" y="66.5" />
<text class="label" x="414.5" y="79.5">1</text>
<rect fill="none" height="24" stroke="#405C86" stroke-dasharray="3 1" stroke-dashoffset="1.5" stroke-width="1" width="12" x="396.5" y="66.5" />
<text class="label unused" x="402.5" y="79.5"></text>
<rect fill="#DEE6F1" height="24" width="12" x="360.5" y="66.5" />
<rect fill="none" height="24" stroke="#405C86" stroke-width="3" width="12" x="360.5" y="66.5" />
<text class="label" x="366.5" y="79.5">1</text>
<rect fill="none" height="24" stroke="#405C86" stroke-dasharray="3 1" stroke-dashoffset="1.5" stroke-width="1" width="12" x="348.5" y="66.5" />
<text class="label unused" x="354.5" y="79.5"></text>
<rect fill="#DEE6F1" height="24" width="12" x="312.5" y="66.5" />
<rect fill="none" height="24" stroke="#405C86" stroke-width="3" width="12" x="312.5" y="66.5" />
<text class="label" x="318.5" y="79.5">1</text>
<rect fill="none" height="24" stroke="#405C86" stroke-dasharray="3 1" stroke-dashoffset="1.5" stroke-width="1" width="12" x="300.5" y="66.5" />
<text class="label unused" x="306.5" y="79.5"></text>
<rect fill="none" height="24" stroke="#405C86" stroke-width="3" width="12" x="264.5" y="66.5" />
<text class="label" x="270.5" y="79.5">0</text>
<rect fill="none" height="24" stroke="#405C86" stroke-dasharray="3 1" stroke-dashoffset="1.5" stroke-width="1" width="12" x="252.5" y="66.5" />
<text class="label unused" x="258.5" y="79.5"></text>
<rect fill="#DEE6F1" height="24" width="12" x="216.5" y="66.5" />
<rect fill="none" height="24" stroke="#405C86" stroke-width="3" width="12" x="216.5" y="66.5" />
<text class="label" x="222.5" y="79.5">1</text>
<rect fill="none" height="24" stroke="#405C86" stroke-dasharray="3 1" stroke-dashoffset="1.5" stroke-width="1" width="12" x="204.5" y="66.5" />
<text class="label unused" x="210.5" y="79.5"></text>
<rect fill="none" height="24" stroke="#405C86" stroke-width="3" width="12" x="168.5" y="66.5" />
<text class="label" x="174.5" y="79.5">0</text>
<rect fill="none" height="24" stroke="#405C86" stroke-dasharray="3 1" stroke-dashoffset="1.5" stroke-width="1" width="12" x="156.5" y="66.5" />
<text class="label unused" x="162.5" y="79.5"></text>
<rect fill="#DEE6F1" height="24" width="12" x="120.5" y="66.5" />
<rect fill="none" height="24" stroke="#405C86" stroke-width="3" width="12" x="120.5" y="66.5" />
<text class="label" x="126.5" y="79.5">1</text>
<rect fill="none" height="24" stroke="#405C86" stroke-dasharray="3 1" stroke-dashoffset="1.5" stroke-width="1" width="12" x="108.5" y="66.5" />
<text class="label unused" x="114.5" y="79.5"></text>
<text class="register-name" x="80.5" y="78.5">Pg</text>
<text class="intrinsic-name" x="80.5" y="90.5">pg</text>
<text class="register-number" x="10" y="78.5">(2)</text>
<rect fill="none" height="24" stroke="#405C86" stroke-dasharray="3 1" stroke-dashoffset="1.5" stroke-width="1" width="24" x="1218.5" y="138.5" />
<text class="smaller-label intrinsic-color" x="1230.5" y="151.5">b[0]</text>
<rect fill="#DEE6F1" height="24" width="24" x="1194.5" y="138.5" />
<rect fill="none" height="24" stroke="#405C86" stroke-width="3" width="24" x="1194.5" y="138.5" />
<text class="smaller-label intrinsic-color" x="1206.5" y="151.5">b[1]</text>
<rect fill="#DEE6F1" height="24" width="24" x="1170.5" y="138.5" />
<rect fill="none" height="24" stroke="#405C86" stroke-width="3" width="24" x="1170.5" y="138.5" />
<text class="smaller-label intrinsic-color" x="1182.5" y="151.5">b[2]</text>
<rect fill="none" height="24" stroke="#405C86" stroke-dasharray="3 1" stroke-dashoffset="1.5" stroke-width="1" width="24" x="1146.5" y="138.5" />
<text class="smaller-label intrinsic-color" x="1158.5" y="151.5">b[3]</text>
<rect fill="#DEE6F1" height="24" width="24" x="1122.5" y="138.5" />
<rect fill="none" height="24" stroke="#405C86" stroke-width="3" width="24" x="1122.5" y="138.5" />
<text class="smaller-label intrinsic-color" x="1134.5" y="151.5">b[4]</text>
<rect fill="#DEE6F1" height="24" width="24" x="1098.5" y="138.5" />
<rect fill="none" height="24" stroke="#405C86" stroke-width="3" width="24" x="1098.5" y="138.5" />
<text class="smaller-label intrinsic-color" x="1110.5" y="151.5">b[5]</text>
<rect fill="none" height="24" stroke="#405C86" stroke-dasharray="3 1" stroke-dashoffset="1.5" stroke-width="1" width="24" x="1074.5" y="138.5" />
<text class="smaller-label intrinsic-color" x="1086.5" y="151.5">b[6]</text>
<rect fill="#DEE6F1" height="24" width="24" x="1050.5" y="138.5" />
<rect fill="none" height="24" stroke="#405C86" stroke-width="3" width="24" x="1050.5" y="138.5" />
<text class="smaller-label intrinsic-color" x="1062.5" y="151.5">b[7]</text>
<rect fill="#DEE6F1" height="24" width="24" x="1026.5" y="138.5" />
<rect fill="none" height="24" stroke="#405C86" stroke-width="3" width="24" x="1026.5" y="138.5" />
<text class="smaller-label intrinsic-color" x="1038.5" y="151.5">b[8]</text>
<rect fill="#DEE6F1" height="24" width="24" x="1002.5" y="138.5" />
<rect fill="none" height="24" stroke="#405C86" stroke-width="3" width="24" x="1002.5" y="138.5" />
<text class="smaller-label intrinsic-color" x="1014.5" y="151.5">b[9]</text>
<rect fill="#DEE6F1" height="24" width="24" x="978.5" y="138.5" />
<rect fill="none" height="24" stroke="#405C86" stroke-width="3" width="24" x="978.5" y="138.5" />
<text class="smaller-label intrinsic-color" x="990.5" y="151.5">b[10]</text>
<rect fill="#DEE6F1" height="24" width="24" x="954.5" y="138.5" />
<rect fill="none" height="24" stroke="#405C86" stroke-width="3" width="24" x="954.5" y="138.5" />
<text class="smaller-label intrinsic-color" x="966.5" y="151.5">b[11]</text>
<rect fill="#DEE6F1" height="24" width="24" x="930.5" y="138.5" />
<rect fill="none" height="24" stroke="#405C86" stroke-width="3" width="24" x="930.5" y="138.5" />
<text class="smaller-label intrinsic-color" x="942.5" y="151.5">b[12]</text>
<rect fill="#DEE6F1" height="24" width="24" x="906.5" y="138.5" />
<rect fill="none" height="24" stroke="#405C86" stroke-width="3" width="24" x="906.5" y="138.5" />
<text class="smaller-label intrinsic-color" x="918.5" y="151.5">b[13]</text>
<rect fill="none" height="24" stroke="#405C86" stroke-dasharray="3 1" stroke-dashoffset="1.5" stroke-width="1" width="24" x="882.5" y="138.5" />
<text class="smaller-label intrinsic-color" x="894.5" y="151.5">b[14]</text>
<rect fill="#DEE6F1" height="24" width="24" x="858.5" y="138.5" />
<rect fill="none" height="24" stroke="#405C86" stroke-width="3" width="24" x="858.5" y="138.5" />
<text class="smaller-label intrinsic-color" x="870.5" y="151.5">b[15]</text>
<rect fill="#DEE6F1" height="24" width="24" x="834.5" y="138.5" />
<rect fill="none" height="24" stroke="#405C86" stroke-width="3" width="24" x="834.5" y="138.5" />
<text class="smaller-label intrinsic-color" x="846.5" y="151.5">b[16]</text>
<rect fill="none" height="24" stroke="#405C86" stroke-dasharray="3 1" stroke-dashoffset="1.5" stroke-width="1" width="24" x="810.5" y="138.5" />
<text class="smaller-label intrinsic-color" x="822.5" y="151.5">b[17]</text>
<rect fill="#DEE6F1" height="24" width="24" x="786.5" y="138.5" />
<rect fill="none" height="24" stroke="#405C86" stroke-width="3" width="24" x="786.5" y="138.5" />
<text class="smaller-label intrinsic-color" x="798.5" y="151.5">b[18]</text>
<rect fill="#DEE6F1" height="24" width="24" x="762.5" y="138.5" />
<rect fill="none" height="24" stroke="#405C86" stroke-width="3" width="24" x="762.5" y="138.5" />
<text class="smaller-label intrinsic-color" x="774.5" y="151.5">b[19]</text>
<rect fill="#DEE6F1" height="24" width="24" x="738.5" y="138.5" />
<rect fill="none" height="24" stroke="#405C86" stroke-width="3" width="24" x="738.5" y="138.5" />
<text class="smaller-label intrinsic-color" x="750.5" y="151.5">b[20]</text>
<rect fill="#DEE6F1" height="24" width="24" x="714.5" y="138.5" />
<rect fill="none" height="24" stroke="#405C86" stroke-width="3" width="24" x="714.5" y="138.5" />
<text class="smaller-label intrinsic-color" x="726.5" y="151.5">b[21]</text>
<rect fill="#DEE6F1" height="24" width="24" x="690.5" y="138.5" />
<rect fill="none" height="24" stroke="#405C86" stroke-width="3" width="24" x="690.5" y="138.5" />
<text class="smaller-label intrinsic-color" x="702.5" y="151.5">b[22]</text>
<rect fill="#DEE6F1" height="24" width="24" x="666.5" y="138.5" />
<rect fill="none" height="24" stroke="#405C86" stroke-width="3" width="24" x="666.5" y="138.5" />
<text class="smaller-label intrinsic-color" x="678.5" y="151.5">b[23]</text>
<rect fill="#DEE6F1" height="24" width="24" x="642.5" y="138.5" />
<rect fill="none" height="24" stroke="#405C86" stroke-width="3" width="24" x="642.5" y="138.5" />
<text class="smaller-label intrinsic-color" x="654.5" y="151.5">b[24]</text>
<rect fill="#DEE6F1" height="24" width="24" x="618.5" y="138.5" />
<rect fill="none" height="24" stroke="#405C86" stroke-width="3" width="24" x="618.5" y="138.5" />
<text class="smaller-label intrinsic-color" x="630.5" y="151.5">b[25]</text>
<rect fill="#DEE6F1" height="24" width="24" x="594.5" y="138.5" />
<rect fill="none" height="24" stroke="#405C86" stroke-width="3" width="24" x="594.5" y="138.5" />
<text class="smaller-label intrinsic-color" x="606.5" y="151.5">b[26]</text>
<rect fill="#DEE6F1" height="24" width="24" x="570.5" y="138.5" />
<rect fill="none" height="24" stroke="#405C86" stroke-width="3" width="24" x="570.5" y="138.5" />
<text class="smaller-label intrinsic-color" x="582.5" y="151.5">b[27]</text>
<rect fill="none" height="24" stroke="#405C86" stroke-dasharray="3 1" stroke-dashoffset="1.5" stroke-width="1" width="24" x="546.5" y="138.5" />
<text class="smaller-label intrinsic-color" x="558.5" y="151.5">b[28]</text>
<rect fill="#DEE6F1" height="24" width="24" x="522.5" y="138.5" />
<rect fill="none" height="24" stroke="#405C86" stroke-width="3" width="24" x="522.5" y="138.5" />
<text class="smaller-label intrinsic-color" x="534.5" y="151.5">b[29]</text>
<rect fill="none" height="24" stroke="#405C86" stroke-dasharray="3 1" stroke-dashoffset="1.5" stroke-width="1" width="24" x="498.5" y="138.5" />
<text class="smaller-label intrinsic-color" x="510.5" y="151.5">b[30]</text>
<rect fill="#DEE6F1" height="24" width="24" x="474.5" y="138.5" />
<rect fill="none" height="24" stroke="#405C86" stroke-width="3" width="24" x="474.5" y="138.5" />
<text class="smaller-label intrinsic-color" x="486.5" y="151.5">b[31]</text>
<text class="register-name" x="80.5" y="150.5">Zt</text>
<text class="intrinsic-name" x="80.5" y="162.5">value</text>
<text class="register-number" x="10" y="150.5">(3)</text>
<line marker-end="url(#arrowhead)" stroke="none" x1="1566.5" x2="1206.5" y1="91.5" y2="137" />
<line marker-end="url(#arrowhead)" stroke="none" x1="1518.5" x2="1182.5" y1="91.5" y2="137" />
<line marker-end="url(#arrowhead)" stroke="none" x1="1422.5" x2="1134.5" y1="91.5" y2="137" />
<line marker-end="url(#arrowhead)" stroke="none" x1="1374.5" x2="1110.5" y1="91.5" y2="137" />
<line marker-end="url(#arrowhead)" stroke="none" x1="1278.5" x2="1062.5" y1="91.5" y2="137" />
<line marker-end="url(#arrowhead)" stroke="none" x1="1230.5" x2="1038.5" y1="91.5" y2="137" />
<line marker-end="url(#arrowhead)" stroke="none" x1="1182.5" x2="1014.5" y1="91.5" y2="137" />
<line marker-end="url(#arrowhead)" stroke="none" x1="1134.5" x2="990.5" y1="91.5" y2="137" />
<line marker-end="url(#arrowhead)" stroke="none" x1="1086.5" x2="966.5" y1="91.5" y2="137" />
<line marker-end="url(#arrowhead)" stroke="none" x1="1038.5" x2="942.5" y1="91.5" y2="137" />
<line marker-end="url(#arrowhead)" stroke="none" x1="990.5" x2="918.5" y1="91.5" y2="137" />
<line marker-end="url(#arrowhead)" stroke="none" x1="894.5" x2="870.5" y1="91.5" y2="137" />
<line marker-end="url(#arrowhead)" stroke="none" x1="846.5" x2="846.5" y1="91.5" y2="137" />
<line marker-end="url(#arrowhead)" stroke="none" x1="750.5" x2="798.5" y1="91.5" y2="137" />
<line marker-end="url(#arrowhead)" stroke="none" x1="702.5" x2="774.5" y1="91.5" y2="137" />
<line marker-end="url(#arrowhead)" stroke="none" x1="654.5" x2="750.5" y1="91.5" y2="137" />
<line marker-end="url(#arrowhead)" stroke="none" x1="606.5" x2="726.5" y1="91.5" y2="137" />
<line marker-end="url(#arrowhead)" stroke="none" x1="558.5" x2="702.5" y1="91.5" y2="137" />
<line marker-end="url(#arrowhead)" stroke="none" x1="510.5" x2="678.5" y1="91.5" y2="137" />
<line marker-end="url(#arrowhead)" stroke="none" x1="462.5" x2="654.5" y1="91.5" y2="137" />
<line marker-end="url(#arrowhead)" stroke="none" x1="414.5" x2="630.5" y1="91.5" y2="137" />
<line marker-end="url(#arrowhead)" stroke="none" x1="366.5" x2="606.5" y1="91.5" y2="137" />
<line marker-end="url(#arrowhead)" stroke="none" x1="318.5" x2="582.5" y1="91.5" y2="137" />
<line marker-end="url(#arrowhead)" stroke="none" x1="222.5" x2="534.5" y1="91.5" y2="137" />
<line marker-end="url(#arrowhead)" stroke="none" x1="126.5" x2="486.5" y1="91.5" y2="137" />
</svg>