<svg xmlns="http://www.w3.org/2000/svg" viewBox="0 0 1638 171">
<style>
.label { font: 14px Helvetica; dominant-baseline: middle; text-anchor: middle; }
.title-left { font: 12px Helvetica; dominant-baseline: middle; }
.title-right { font: 12px Helvetica; dominant-baseline: middle; text-anchor: end; }
.title-intrinsic { font: 12px Helvetica; dominant-baseline: middle; text-anchor: middle; fill: #6778ED; }
.title { font: 12px Helvetica; dominant-baseline: middle; text-anchor: middle; }
.title-unused { font: 12px Helvetica; dominant-baseline: middle; text-anchor: middle; fill: #AAA; }
.register-name { font: 14px Helvetica; dominant-baseline: middle; text-anchor: end; font-style: italic; }
.memory-name { font: 14px Helvetica; dominant-baseline: middle; text-anchor: end; }
.register-number { font: 14px Helvetica; dominant-baseline: middle; text-anchor: start; }
.intrinsic-name { font: 14px Helvetica; dominant-baseline: middle; text-anchor: end; fill: #6778ED; }
.intrinsic-color { fill: #6778ED; }
.small-label { font: 12px Helvetica; dominant-baseline: middle; text-anchor: middle; }
.label-10px { font: 10px Helvetica; dominant-baseline: middle; text-anchor: middle; }
.smaller-label { font: 9px Helvetica; dominant-baseline: middle; text-anchor: middle; }
.label-6px { font: 6px Helvetica; dominant-baseline: middle; text-anchor: middle; }
.label-7px { font: 7px Helvetica; dominant-baseline: middle; text-anchor: middle; }
.unused { fill: #AAA; }
.dim { fill: #888; }
</style>
<defs>
<marker id="arrowhead" markerWidth="10.75" markerHeight="24.5" refX="9.0" refY="6.125" orient="auto">
<polyline points="0.5 0.5, 8.75 6.125, 0.5 11.75" stroke="#567DB6" stroke-width="1" fill="none"/>
</marker>
</defs>
<line stroke="#567DB6" stroke-width="1" x1="1613.5" x2="1613.5" y1="43.5" y2="65.5" />
<line stroke="#567DB6" stroke-width="1" x1="1421.5" x2="1421.5" y1="43.5" y2="65.5" />
<line stroke="#567DB6" stroke-width="1" x1="1421.5" x2="918.5" y1="91.5" y2="137" />
<line stroke="#567DB6" stroke-width="1" x1="1229.5" x2="1229.5" y1="43.5" y2="65.5" />
<line stroke="#567DB6" stroke-width="1" x1="1229.5" x2="894.5" y1="91.5" y2="137" />
<line stroke="#567DB6" stroke-width="1" x1="1037.5" x2="1037.5" y1="43.5" y2="65.5" />
<line stroke="#567DB6" stroke-width="1" x1="845.5" x2="845.5" y1="43.5" y2="65.5" />
<line stroke="#567DB6" stroke-width="1" x1="845.5" x2="846.5" y1="91.5" y2="137" />
<line stroke="#567DB6" stroke-width="1" x1="653.5" x2="653.5" y1="43.5" y2="65.5" />
<line stroke="#567DB6" stroke-width="1" x1="653.5" x2="822.5" y1="91.5" y2="137" />
<line stroke="#567DB6" stroke-width="1" x1="461.5" x2="461.5" y1="43.5" y2="65.5" />
<line stroke="#567DB6" stroke-width="1" x1="269.5" x2="269.5" y1="43.5" y2="65.5" />
<line stroke="#567DB6" stroke-width="1" x1="269.5" x2="774.5" y1="91.5" y2="137" />
<text class="title-left" x="90.5" y="9.5">upper</text>
<text class="title-right" x="1626.5" y="9.5">lower</text>
<rect fill="#DEE6F1" height="24" width="25.125" x="1601.375" y="18.5" />
<rect fill="none" height="24" stroke="#405C86" stroke-width="3" width="192" x="1434.5" y="18.5" />
<rect fill="#DEE6F1" height="24" width="25.125" x="1409.375" y="18.5" />
<rect fill="none" height="24" stroke="#405C86" stroke-width="3" width="192" x="1242.5" y="18.5" />
<rect fill="#DEE6F1" height="24" width="25.125" x="1217.375" y="18.5" />
<rect fill="none" height="24" stroke="#405C86" stroke-width="3" width="192" x="1050.5" y="18.5" />
<rect fill="#DEE6F1" height="24" width="25.125" x="1025.375" y="18.5" />
<rect fill="none" height="24" stroke="#405C86" stroke-width="3" width="192" x="858.5" y="18.5" />
<rect fill="#DEE6F1" height="24" width="25.125" x="833.375" y="18.5" />
<rect fill="none" height="24" stroke="#405C86" stroke-width="3" width="192" x="666.5" y="18.5" />
<rect fill="#DEE6F1" height="24" width="25.125" x="641.375" y="18.5" />
<rect fill="none" height="24" stroke="#405C86" stroke-width="3" width="192" x="474.5" y="18.5" />
<rect fill="#DEE6F1" height="24" width="25.125" x="449.375" y="18.5" />
<rect fill="none" height="24" stroke="#405C86" stroke-width="3" width="192" x="282.5" y="18.5" />
<rect fill="#DEE6F1" height="24" width="25.125" x="257.375" y="18.5" />
<rect fill="none" height="24" stroke="#405C86" stroke-width="3" width="192" x="90.5" y="18.5" />
<text class="register-name" x="80.5" y="30.5">Zt</text>
<text class="intrinsic-name" x="80.5" y="42.5">value</text>
<text class="register-number" x="10" y="30.5">(1)</text>
<rect fill="none" height="24" stroke="#405C86" stroke-width="3" width="12" x="1607.5" y="66.5" />
<text class="label" x="1613.5" y="79.5">0</text>
<rect fill="none" height="24" stroke="#405C86" stroke-dasharray="3 1" stroke-dashoffset="1.5" stroke-width="1" width="12" x="1595.5" y="66.5" />
<text class="label unused" x="1601.5" y="79.5"></text>
<rect fill="none" height="24" stroke="#405C86" stroke-dasharray="3 1" stroke-dashoffset="1.5" stroke-width="1" width="12" x="1583.5" y="66.5" />
<text class="label unused" x="1589.5" y="79.5"></text>
<rect fill="none" height="24" stroke="#405C86" stroke-dasharray="3 1" stroke-dashoffset="1.5" stroke-width="1" width="12" x="1571.5" y="66.5" />
<text class="label unused" x="1577.5" y="79.5"></text>
<rect fill="none" height="24" stroke="#405C86" stroke-dasharray="3 1" stroke-dashoffset="1.5" stroke-width="1" width="12" x="1559.5" y="66.5" />
<text class="label unused" x="1565.5" y="79.5"></text>
<rect fill="none" height="24" stroke="#405C86" stroke-dasharray="3 1" stroke-dashoffset="1.5" stroke-width="1" width="12" x="1547.5" y="66.5" />
<text class="label unused" x="1553.5" y="79.5"></text>
<rect fill="none" height="24" stroke="#405C86" stroke-dasharray="3 1" stroke-dashoffset="1.5" stroke-width="1" width="12" x="1535.5" y="66.5" />
<text class="label unused" x="1541.5" y="79.5"></text>
<rect fill="none" height="24" stroke="#405C86" stroke-dasharray="3 1" stroke-dashoffset="1.5" stroke-width="1" width="12" x="1523.5" y="66.5" />
<text class="label unused" x="1529.5" y="79.5"></text>
<rect fill="#DEE6F1" height="24" width="12" x="1415.5" y="66.5" />
<rect fill="none" height="24" stroke="#405C86" stroke-width="3" width="12" x="1415.5" y="66.5" />
<text class="label" x="1421.5" y="79.5">1</text>
<rect fill="none" height="24" stroke="#405C86" stroke-dasharray="3 1" stroke-dashoffset="1.5" stroke-width="1" width="12" x="1403.5" y="66.5" />
<text class="label unused" x="1409.5" y="79.5"></text>
<rect fill="none" height="24" stroke="#405C86" stroke-dasharray="3 1" stroke-dashoffset="1.5" stroke-width="1" width="12" x="1391.5" y="66.5" />
<text class="label unused" x="1397.5" y="79.5"></text>
<rect fill="none" height="24" stroke="#405C86" stroke-dasharray="3 1" stroke-dashoffset="1.5" stroke-width="1" width="12" x="1379.5" y="66.5" />
<text class="label unused" x="1385.5" y="79.5"></text>
<rect fill="none" height="24" stroke="#405C86" stroke-dasharray="3 1" stroke-dashoffset="1.5" stroke-width="1" width="12" x="1367.5" y="66.5" />
<text class="label unused" x="1373.5" y="79.5"></text>
<rect fill="none" height="24" stroke="#405C86" stroke-dasharray="3 1" stroke-dashoffset="1.5" stroke-width="1" width="12" x="1355.5" y="66.5" />
<text class="label unused" x="1361.5" y="79.5"></text>
<rect fill="none" height="24" stroke="#405C86" stroke-dasharray="3 1" stroke-dashoffset="1.5" stroke-width="1" width="12" x="1343.5" y="66.5" />
<text class="label unused" x="1349.5" y="79.5"></text>
<rect fill="none" height="24" stroke="#405C86" stroke-dasharray="3 1" stroke-dashoffset="1.5" stroke-width="1" width="12" x="1331.5" y="66.5" />
<text class="label unused" x="1337.5" y="79.5"></text>
<rect fill="#DEE6F1" height="24" width="12" x="1223.5" y="66.5" />
<rect fill="none" height="24" stroke="#405C86" stroke-width="3" width="12" x="1223.5" y="66.5" />
<text class="label" x="1229.5" y="79.5">1</text>
<rect fill="none" height="24" stroke="#405C86" stroke-dasharray="3 1" stroke-dashoffset="1.5" stroke-width="1" width="12" x="1211.5" y="66.5" />
<text class="label unused" x="1217.5" y="79.5"></text>
<rect fill="none" height="24" stroke="#405C86" stroke-dasharray="3 1" stroke-dashoffset="1.5" stroke-width="1" width="12" x="1199.5" y="66.5" />
<text class="label unused" x="1205.5" y="79.5"></text>
<rect fill="none" height="24" stroke="#405C86" stroke-dasharray="3 1" stroke-dashoffset="1.5" stroke-width="1" width="12" x="1187.5" y="66.5" />
<text class="label unused" x="1193.5" y="79.5"></text>
<rect fill="none" height="24" stroke="#405C86" stroke-dasharray="3 1" stroke-dashoffset="1.5" stroke-width="1" width="12" x="1175.5" y="66.5" />
<text class="label unused" x="1181.5" y="79.5"></text>
<rect fill="none" height="24" stroke="#405C86" stroke-dasharray="3 1" stroke-dashoffset="1.5" stroke-width="1" width="12" x="1163.5" y="66.5" />
<text class="label unused" x="1169.5" y="79.5"></text>
<rect fill="none" height="24" stroke="#405C86" stroke-dasharray="3 1" stroke-dashoffset="1.5" stroke-width="1" width="12" x="1151.5" y="66.5" />
<text class="label unused" x="1157.5" y="79.5"></text>
<rect fill="none" height="24" stroke="#405C86" stroke-dasharray="3 1" stroke-dashoffset="1.5" stroke-width="1" width="12" x="1139.5" y="66.5" />
<text class="label unused" x="1145.5" y="79.5"></text>
<rect fill="none" height="24" stroke="#405C86" stroke-width="3" width="12" x="1031.5" y="66.5" />
<text class="label" x="1037.5" y="79.5">0</text>
<rect fill="none" height="24" stroke="#405C86" stroke-dasharray="3 1" stroke-dashoffset="1.5" stroke-width="1" width="12" x="1019.5" y="66.5" />
<text class="label unused" x="1025.5" y="79.5"></text>
<rect fill="none" height="24" stroke="#405C86" stroke-dasharray="3 1" stroke-dashoffset="1.5" stroke-width="1" width="12" x="1007.5" y="66.5" />
<text class="label unused" x="1013.5" y="79.5"></text>
<rect fill="none" height="24" stroke="#405C86" stroke-dasharray="3 1" stroke-dashoffset="1.5" stroke-width="1" width="12" x="995.5" y="66.5" />
<text class="label unused" x="1001.5" y="79.5"></text>
<rect fill="none" height="24" stroke="#405C86" stroke-dasharray="3 1" stroke-dashoffset="1.5" stroke-width="1" width="12" x="983.5" y="66.5" />
<text class="label unused" x="989.5" y="79.5"></text>
<rect fill="none" height="24" stroke="#405C86" stroke-dasharray="3 1" stroke-dashoffset="1.5" stroke-width="1" width="12" x="971.5" y="66.5" />
<text class="label unused" x="977.5" y="79.5"></text>
<rect fill="none" height="24" stroke="#405C86" stroke-dasharray="3 1" stroke-dashoffset="1.5" stroke-width="1" width="12" x="959.5" y="66.5" />
<text class="label unused" x="965.5" y="79.5"></text>
<rect fill="none" height="24" stroke="#405C86" stroke-dasharray="3 1" stroke-dashoffset="1.5" stroke-width="1" width="12" x="947.5" y="66.5" />
<text class="label unused" x="953.5" y="79.5"></text>
<rect fill="#DEE6F1" height="24" width="12" x="839.5" y="66.5" />
<rect fill="none" height="24" stroke="#405C86" stroke-width="3" width="12" x="839.5" y="66.5" />
<text class="label" x="845.5" y="79.5">1</text>
<rect fill="none" height="24" stroke="#405C86" stroke-dasharray="3 1" stroke-dashoffset="1.5" stroke-width="1" width="12" x="827.5" y="66.5" />
<text class="label unused" x="833.5" y="79.5"></text>
<rect fill="none" height="24" stroke="#405C86" stroke-dasharray="3 1" stroke-dashoffset="1.5" stroke-width="1" width="12" x="815.5" y="66.5" />
<text class="label unused" x="821.5" y="79.5"></text>
<rect fill="none" height="24" stroke="#405C86" stroke-dasharray="3 1" stroke-dashoffset="1.5" stroke-width="1" width="12" x="803.5" y="66.5" />
<text class="label unused" x="809.5" y="79.5"></text>
<rect fill="none" height="24" stroke="#405C86" stroke-dasharray="3 1" stroke-dashoffset="1.5" stroke-width="1" width="12" x="791.5" y="66.5" />
<text class="label unused" x="797.5" y="79.5"></text>
<rect fill="none" height="24" stroke="#405C86" stroke-dasharray="3 1" stroke-dashoffset="1.5" stroke-width="1" width="12" x="779.5" y="66.5" />
<text class="label unused" x="785.5" y="79.5"></text>
<rect fill="none" height="24" stroke="#405C86" stroke-dasharray="3 1" stroke-dashoffset="1.5" stroke-width="1" width="12" x="767.5" y="66.5" />
<text class="label unused" x="773.5" y="79.5"></text>
<rect fill="none" height="24" stroke="#405C86" stroke-dasharray="3 1" stroke-dashoffset="1.5" stroke-width="1" width="12" x="755.5" y="66.5" />
<text class="label unused" x="761.5" y="79.5"></text>
<rect fill="#DEE6F1" height="24" width="12" x="647.5" y="66.5" />
<rect fill="none" height="24" stroke="#405C86" stroke-width="3" width="12" x="647.5" y="66.5" />
<text class="label" x="653.5" y="79.5">1</text>
<rect fill="none" height="24" stroke="#405C86" stroke-dasharray="3 1" stroke-dashoffset="1.5" stroke-width="1" width="12" x="635.5" y="66.5" />
<text class="label unused" x="641.5" y="79.5"></text>
<rect fill="none" height="24" stroke="#405C86" stroke-dasharray="3 1" stroke-dashoffset="1.5" stroke-width="1" width="12" x="623.5" y="66.5" />
<text class="label unused" x="629.5" y="79.5"></text>
<rect fill="none" height="24" stroke="#405C86" stroke-dasharray="3 1" stroke-dashoffset="1.5" stroke-width="1" width="12" x="611.5" y="66.5" />
<text class="label unused" x="617.5" y="79.5"></text>
<rect fill="none" height="24" stroke="#405C86" stroke-dasharray="3 1" stroke-dashoffset="1.5" stroke-width="1" width="12" x="599.5" y="66.5" />
<text class="label unused" x="605.5" y="79.5"></text>
<rect fill="none" height="24" stroke="#405C86" stroke-dasharray="3 1" stroke-dashoffset="1.5" stroke-width="1" width="12" x="587.5" y="66.5" />
<text class="label unused" x="593.5" y="79.5"></text>
<rect fill="none" height="24" stroke="#405C86" stroke-dasharray="3 1" stroke-dashoffset="1.5" stroke-width="1" width="12" x="575.5" y="66.5" />
<text class="label unused" x="581.5" y="79.5"></text>
<rect fill="none" height="24" stroke="#405C86" stroke-dasharray="3 1" stroke-dashoffset="1.5" stroke-width="1" width="12" x="563.5" y="66.5" />
<text class="label unused" x="569.5" y="79.5"></text>
<rect fill="none" height="24" stroke="#405C86" stroke-width="3" width="12" x="455.5" y="66.5" />
<text class="label" x="461.5" y="79.5">0</text>
<rect fill="none" height="24" stroke="#405C86" stroke-dasharray="3 1" stroke-dashoffset="1.5" stroke-width="1" width="12" x="443.5" y="66.5" />
<text class="label unused" x="449.5" y="79.5"></text>
<rect fill="none" height="24" stroke="#405C86" stroke-dasharray="3 1" stroke-dashoffset="1.5" stroke-width="1" width="12" x="431.5" y="66.5" />
<text class="label unused" x="437.5" y="79.5"></text>
<rect fill="none" height="24" stroke="#405C86" stroke-dasharray="3 1" stroke-dashoffset="1.5" stroke-width="1" width="12" x="419.5" y="66.5" />
<text class="label unused" x="425.5" y="79.5"></text>
<rect fill="none" height="24" stroke="#405C86" stroke-dasharray="3 1" stroke-dashoffset="1.5" stroke-width="1" width="12" x="407.5" y="66.5" />
<text class="label unused" x="413.5" y="79.5"></text>
<rect fill="none" height="24" stroke="#405C86" stroke-dasharray="3 1" stroke-dashoffset="1.5" stroke-width="1" width="12" x="395.5" y="66.5" />
<text class="label unused" x="401.5" y="79.5"></text>
<rect fill="none" height="24" stroke="#405C86" stroke-dasharray="3 1" stroke-dashoffset="1.5" stroke-width="1" width="12" x="383.5" y="66.5" />
<text class="label unused" x="389.5" y="79.5"></text>
<rect fill="none" height="24" stroke="#405C86" stroke-dasharray="3 1" stroke-dashoffset="1.5" stroke-width="1" width="12" x="371.5" y="66.5" />
<text class="label unused" x="377.5" y="79.5"></text>
<rect fill="#DEE6F1" height="24" width="12" x="263.5" y="66.5" />
<rect fill="none" height="24" stroke="#405C86" stroke-width="3" width="12" x="263.5" y="66.5" />
<text class="label" x="269.5" y="79.5">1</text>
<rect fill="none" height="24" stroke="#405C86" stroke-dasharray="3 1" stroke-dashoffset="1.5" stroke-width="1" width="12" x="251.5" y="66.5" />
<text class="label unused" x="257.5" y="79.5"></text>
<rect fill="none" height="24" stroke="#405C86" stroke-dasharray="3 1" stroke-dashoffset="1.5" stroke-width="1" width="12" x="239.5" y="66.5" />
<text class="label unused" x="245.5" y="79.5"></text>
<rect fill="none" height="24" stroke="#405C86" stroke-dasharray="3 1" stroke-dashoffset="1.5" stroke-width="1" width="12" x="227.5" y="66.5" />
<text class="label unused" x="233.5" y="79.5"></text>
<rect fill="none" height="24" stroke="#405C86" stroke-dasharray="3 1" stroke-dashoffset="1.5" stroke-width="1" width="12" x="215.5" y="66.5" />
<text class="label unused" x="221.5" y="79.5"></text>
<rect fill="none" height="24" stroke="#405C86" stroke-dasharray="3 1" stroke-dashoffset="1.5" stroke-width="1" width="12" x="203.5" y="66.5" />
<text class="label unused" x="209.5" y="79.5"></text>
<rect fill="none" height="24" stroke="#405C86" stroke-dasharray="3 1" stroke-dashoffset="1.5" stroke-width="1" width="12" x="191.5" y="66.5" />
<text class="label unused" x="197.5" y="79.5"></text>
<rect fill="none" height="24" stroke="#405C86" stroke-dasharray="3 1" stroke-dashoffset="1.5" stroke-width="1" width="12" x="179.5" y="66.5" />
<text class="label unused" x="185.5" y="79.5"></text>
<text class="register-name" x="80.5" y="78.5">Pg</text>
<text class="intrinsic-name" x="80.5" y="90.5">pg</text>
<text class="register-number" x="10" y="78.5">(2)</text>
<rect fill="none" height="24" stroke="#405C86" stroke-dasharray="3 1" stroke-dashoffset="1.5" stroke-width="1" width="24" x="930.5" y="138.5" />
<text class="smaller-label intrinsic-color" x="942.5" y="151.5">b[0]</text>
<rect fill="#DEE6F1" height="24" width="24" x="906.5" y="138.5" />
<rect fill="none" height="24" stroke="#405C86" stroke-width="3" width="24" x="906.5" y="138.5" />
<text class="smaller-label intrinsic-color" x="918.5" y="151.5">b[1]</text>
<rect fill="#DEE6F1" height="24" width="24" x="882.5" y="138.5" />
<rect fill="none" height="24" stroke="#405C86" stroke-width="3" width="24" x="882.5" y="138.5" />
<text class="smaller-label intrinsic-color" x="894.5" y="151.5">b[2]</text>
<rect fill="none" height="24" stroke="#405C86" stroke-dasharray="3 1" stroke-dashoffset="1.5" stroke-width="1" width="24" x="858.5" y="138.5" />
<text class="smaller-label intrinsic-color" x="870.5" y="151.5">b[3]</text>
<rect fill="#DEE6F1" height="24" width="24" x="834.5" y="138.5" />
<rect fill="none" height="24" stroke="#405C86" stroke-width="3" width="24" x="834.5" y="138.5" />
<text class="smaller-label intrinsic-color" x="846.5" y="151.5">b[4]</text>
<rect fill="#DEE6F1" height="24" width="24" x="810.5" y="138.5" />
<rect fill="none" height="24" stroke="#405C86" stroke-width="3" width="24" x="810.5" y="138.5" />
<text class="smaller-label intrinsic-color" x="822.5" y="151.5">b[5]</text>
<rect fill="none" height="24" stroke="#405C86" stroke-dasharray="3 1" stroke-dashoffset="1.5" stroke-width="1" width="24" x="786.5" y="138.5" />
<text class="smaller-label intrinsic-color" x="798.5" y="151.5">b[6]</text>
<rect fill="#DEE6F1" height="24" width="24" x="762.5" y="138.5" />
<rect fill="none" height="24" stroke="#405C86" stroke-width="3" width="24" x="762.5" y="138.5" />
<text class="smaller-label intrinsic-color" x="774.5" y="151.5">b[7]</text>
<text class="register-name" x="80.5" y="150.5">Zt</text>
<text class="intrinsic-name" x="80.5" y="162.5">value</text>
<text class="register-number" x="10" y="150.5">(3)</text>
<line marker-end="url(#arrowhead)" stroke="none" x1="1421.5" x2="918.5" y1="91.5" y2="137" />
<line marker-end="url(#arrowhead)" stroke="none" x1="1229.5" x2="894.5" y1="91.5" y2="137" />
<line marker-end="url(#arrowhead)" stroke="none" x1="845.5" x2="846.5" y1="91.5" y2="137" />
<line marker-end="url(#arrowhead)" stroke="none" x1="653.5" x2="822.5" y1="91.5" y2="137" />
<line marker-end="url(#arrowhead)" stroke="none" x1="269.5" x2="774.5" y1="91.5" y2="137" />
</svg>