<svg xmlns="http://www.w3.org/2000/svg" viewBox="0 0 1638 171">
<style>
.label { font: 14px Helvetica; dominant-baseline: middle; text-anchor: middle; }
.title-left { font: 12px Helvetica; dominant-baseline: middle; }
.title-right { font: 12px Helvetica; dominant-baseline: middle; text-anchor: end; }
.title-intrinsic { font: 12px Helvetica; dominant-baseline: middle; text-anchor: middle; fill: #6778ED; }
.title { font: 12px Helvetica; dominant-baseline: middle; text-anchor: middle; }
.title-unused { font: 12px Helvetica; dominant-baseline: middle; text-anchor: middle; fill: #AAA; }
.register-name { font: 14px Helvetica; dominant-baseline: middle; text-anchor: end; font-style: italic; }
.memory-name { font: 14px Helvetica; dominant-baseline: middle; text-anchor: end; }
.register-number { font: 14px Helvetica; dominant-baseline: middle; text-anchor: start; }
.intrinsic-name { font: 14px Helvetica; dominant-baseline: middle; text-anchor: end; fill: #6778ED; }
.intrinsic-color { fill: #6778ED; }
.small-label { font: 12px Helvetica; dominant-baseline: middle; text-anchor: middle; }
.label-10px { font: 10px Helvetica; dominant-baseline: middle; text-anchor: middle; }
.smaller-label { font: 9px Helvetica; dominant-baseline: middle; text-anchor: middle; }
.label-6px { font: 6px Helvetica; dominant-baseline: middle; text-anchor: middle; }
.label-7px { font: 7px Helvetica; dominant-baseline: middle; text-anchor: middle; }
.unused { fill: #AAA; }
.dim { fill: #888; }
</style>
<defs>
<marker id="arrowhead" markerWidth="10.75" markerHeight="24.5" refX="9.0" refY="6.125" orient="auto">
<polyline points="0.5 0.5, 8.75 6.125, 0.5 11.75" stroke="#567DB6" stroke-width="1" fill="none"/>
</marker>
</defs>
<line stroke="#567DB6" stroke-width="1" x1="1530.5" x2="1530.5" y1="43.5" y2="65.5" />
<line stroke="#567DB6" stroke-width="1" x1="1146.5" x2="1146.5" y1="43.5" y2="65.5" />
<line stroke="#567DB6" stroke-width="1" x1="1146.5" x2="954.5" y1="91.5" y2="137" />
<line stroke="#567DB6" stroke-width="1" x1="762.5" x2="762.5" y1="43.5" y2="65.5" />
<line stroke="#567DB6" stroke-width="1" x1="762.5" x2="762.5" y1="91.5" y2="137" />
<line stroke="#567DB6" stroke-width="1" x1="378.5" x2="378.5" y1="43.5" y2="65.5" />
<text class="title-left" x="90.5" y="9.5">upper</text>
<text class="title-right" x="1626.5" y="9.5">lower</text>
<rect fill="#DEE6F1" height="24" width="192" x="1434.5" y="18.5" />
<rect fill="none" height="24" stroke="#405C86" stroke-width="3" width="384" x="1242.5" y="18.5" />
<rect fill="#DEE6F1" height="24" width="192" x="1050.5" y="18.5" />
<rect fill="none" height="24" stroke="#405C86" stroke-width="3" width="384" x="858.5" y="18.5" />
<rect fill="#DEE6F1" height="24" width="192" x="666.5" y="18.5" />
<rect fill="none" height="24" stroke="#405C86" stroke-width="3" width="384" x="474.5" y="18.5" />
<rect fill="#DEE6F1" height="24" width="192" x="282.5" y="18.5" />
<rect fill="none" height="24" stroke="#405C86" stroke-width="3" width="384" x="90.5" y="18.5" />
<text class="register-name" x="80.5" y="30.5">Zt</text>
<text class="intrinsic-name" x="80.5" y="42.5">value</text>
<text class="register-number" x="10" y="30.5">(1)</text>
<rect fill="none" height="24" stroke="#405C86" stroke-width="3" width="12" x="1524.5" y="66.5" />
<text class="label" x="1530.5" y="79.5">0</text>
<rect fill="none" height="24" stroke="#405C86" stroke-dasharray="3 1" stroke-dashoffset="1.5" stroke-width="1" width="12" x="1512.5" y="66.5" />
<text class="label unused" x="1518.5" y="79.5"></text>
<rect fill="none" height="24" stroke="#405C86" stroke-dasharray="3 1" stroke-dashoffset="1.5" stroke-width="1" width="12" x="1500.5" y="66.5" />
<text class="label unused" x="1506.5" y="79.5"></text>
<rect fill="none" height="24" stroke="#405C86" stroke-dasharray="3 1" stroke-dashoffset="1.5" stroke-width="1" width="12" x="1488.5" y="66.5" />
<text class="label unused" x="1494.5" y="79.5"></text>
<rect fill="none" height="24" stroke="#405C86" stroke-dasharray="3 1" stroke-dashoffset="1.5" stroke-width="1" width="12" x="1476.5" y="66.5" />
<text class="label unused" x="1482.5" y="79.5"></text>
<rect fill="none" height="24" stroke="#405C86" stroke-dasharray="3 1" stroke-dashoffset="1.5" stroke-width="1" width="12" x="1464.5" y="66.5" />
<text class="label unused" x="1470.5" y="79.5"></text>
<rect fill="none" height="24" stroke="#405C86" stroke-dasharray="3 1" stroke-dashoffset="1.5" stroke-width="1" width="12" x="1452.5" y="66.5" />
<text class="label unused" x="1458.5" y="79.5"></text>
<rect fill="none" height="24" stroke="#405C86" stroke-dasharray="3 1" stroke-dashoffset="1.5" stroke-width="1" width="12" x="1440.5" y="66.5" />
<text class="label unused" x="1446.5" y="79.5"></text>
<rect fill="none" height="24" stroke="#405C86" stroke-dasharray="3 1" stroke-dashoffset="1.5" stroke-width="1" width="12" x="1428.5" y="66.5" />
<text class="label unused" x="1434.5" y="79.5"></text>
<rect fill="none" height="24" stroke="#405C86" stroke-dasharray="3 1" stroke-dashoffset="1.5" stroke-width="1" width="12" x="1416.5" y="66.5" />
<text class="label unused" x="1422.5" y="79.5"></text>
<rect fill="none" height="24" stroke="#405C86" stroke-dasharray="3 1" stroke-dashoffset="1.5" stroke-width="1" width="12" x="1404.5" y="66.5" />
<text class="label unused" x="1410.5" y="79.5"></text>
<rect fill="none" height="24" stroke="#405C86" stroke-dasharray="3 1" stroke-dashoffset="1.5" stroke-width="1" width="12" x="1392.5" y="66.5" />
<text class="label unused" x="1398.5" y="79.5"></text>
<rect fill="none" height="24" stroke="#405C86" stroke-dasharray="3 1" stroke-dashoffset="1.5" stroke-width="1" width="12" x="1380.5" y="66.5" />
<text class="label unused" x="1386.5" y="79.5"></text>
<rect fill="none" height="24" stroke="#405C86" stroke-dasharray="3 1" stroke-dashoffset="1.5" stroke-width="1" width="12" x="1368.5" y="66.5" />
<text class="label unused" x="1374.5" y="79.5"></text>
<rect fill="none" height="24" stroke="#405C86" stroke-dasharray="3 1" stroke-dashoffset="1.5" stroke-width="1" width="12" x="1356.5" y="66.5" />
<text class="label unused" x="1362.5" y="79.5"></text>
<rect fill="none" height="24" stroke="#405C86" stroke-dasharray="3 1" stroke-dashoffset="1.5" stroke-width="1" width="12" x="1344.5" y="66.5" />
<text class="label unused" x="1350.5" y="79.5"></text>
<rect fill="#DEE6F1" height="24" width="12" x="1140.5" y="66.5" />
<rect fill="none" height="24" stroke="#405C86" stroke-width="3" width="12" x="1140.5" y="66.5" />
<text class="label" x="1146.5" y="79.5">1</text>
<rect fill="none" height="24" stroke="#405C86" stroke-dasharray="3 1" stroke-dashoffset="1.5" stroke-width="1" width="12" x="1128.5" y="66.5" />
<text class="label unused" x="1134.5" y="79.5"></text>
<rect fill="none" height="24" stroke="#405C86" stroke-dasharray="3 1" stroke-dashoffset="1.5" stroke-width="1" width="12" x="1116.5" y="66.5" />
<text class="label unused" x="1122.5" y="79.5"></text>
<rect fill="none" height="24" stroke="#405C86" stroke-dasharray="3 1" stroke-dashoffset="1.5" stroke-width="1" width="12" x="1104.5" y="66.5" />
<text class="label unused" x="1110.5" y="79.5"></text>
<rect fill="none" height="24" stroke="#405C86" stroke-dasharray="3 1" stroke-dashoffset="1.5" stroke-width="1" width="12" x="1092.5" y="66.5" />
<text class="label unused" x="1098.5" y="79.5"></text>
<rect fill="none" height="24" stroke="#405C86" stroke-dasharray="3 1" stroke-dashoffset="1.5" stroke-width="1" width="12" x="1080.5" y="66.5" />
<text class="label unused" x="1086.5" y="79.5"></text>
<rect fill="none" height="24" stroke="#405C86" stroke-dasharray="3 1" stroke-dashoffset="1.5" stroke-width="1" width="12" x="1068.5" y="66.5" />
<text class="label unused" x="1074.5" y="79.5"></text>
<rect fill="none" height="24" stroke="#405C86" stroke-dasharray="3 1" stroke-dashoffset="1.5" stroke-width="1" width="12" x="1056.5" y="66.5" />
<text class="label unused" x="1062.5" y="79.5"></text>
<rect fill="none" height="24" stroke="#405C86" stroke-dasharray="3 1" stroke-dashoffset="1.5" stroke-width="1" width="12" x="1044.5" y="66.5" />
<text class="label unused" x="1050.5" y="79.5"></text>
<rect fill="none" height="24" stroke="#405C86" stroke-dasharray="3 1" stroke-dashoffset="1.5" stroke-width="1" width="12" x="1032.5" y="66.5" />
<text class="label unused" x="1038.5" y="79.5"></text>
<rect fill="none" height="24" stroke="#405C86" stroke-dasharray="3 1" stroke-dashoffset="1.5" stroke-width="1" width="12" x="1020.5" y="66.5" />
<text class="label unused" x="1026.5" y="79.5"></text>
<rect fill="none" height="24" stroke="#405C86" stroke-dasharray="3 1" stroke-dashoffset="1.5" stroke-width="1" width="12" x="1008.5" y="66.5" />
<text class="label unused" x="1014.5" y="79.5"></text>
<rect fill="none" height="24" stroke="#405C86" stroke-dasharray="3 1" stroke-dashoffset="1.5" stroke-width="1" width="12" x="996.5" y="66.5" />
<text class="label unused" x="1002.5" y="79.5"></text>
<rect fill="none" height="24" stroke="#405C86" stroke-dasharray="3 1" stroke-dashoffset="1.5" stroke-width="1" width="12" x="984.5" y="66.5" />
<text class="label unused" x="990.5" y="79.5"></text>
<rect fill="none" height="24" stroke="#405C86" stroke-dasharray="3 1" stroke-dashoffset="1.5" stroke-width="1" width="12" x="972.5" y="66.5" />
<text class="label unused" x="978.5" y="79.5"></text>
<rect fill="none" height="24" stroke="#405C86" stroke-dasharray="3 1" stroke-dashoffset="1.5" stroke-width="1" width="12" x="960.5" y="66.5" />
<text class="label unused" x="966.5" y="79.5"></text>
<rect fill="#DEE6F1" height="24" width="12" x="756.5" y="66.5" />
<rect fill="none" height="24" stroke="#405C86" stroke-width="3" width="12" x="756.5" y="66.5" />
<text class="label" x="762.5" y="79.5">1</text>
<rect fill="none" height="24" stroke="#405C86" stroke-dasharray="3 1" stroke-dashoffset="1.5" stroke-width="1" width="12" x="744.5" y="66.5" />
<text class="label unused" x="750.5" y="79.5"></text>
<rect fill="none" height="24" stroke="#405C86" stroke-dasharray="3 1" stroke-dashoffset="1.5" stroke-width="1" width="12" x="732.5" y="66.5" />
<text class="label unused" x="738.5" y="79.5"></text>
<rect fill="none" height="24" stroke="#405C86" stroke-dasharray="3 1" stroke-dashoffset="1.5" stroke-width="1" width="12" x="720.5" y="66.5" />
<text class="label unused" x="726.5" y="79.5"></text>
<rect fill="none" height="24" stroke="#405C86" stroke-dasharray="3 1" stroke-dashoffset="1.5" stroke-width="1" width="12" x="708.5" y="66.5" />
<text class="label unused" x="714.5" y="79.5"></text>
<rect fill="none" height="24" stroke="#405C86" stroke-dasharray="3 1" stroke-dashoffset="1.5" stroke-width="1" width="12" x="696.5" y="66.5" />
<text class="label unused" x="702.5" y="79.5"></text>
<rect fill="none" height="24" stroke="#405C86" stroke-dasharray="3 1" stroke-dashoffset="1.5" stroke-width="1" width="12" x="684.5" y="66.5" />
<text class="label unused" x="690.5" y="79.5"></text>
<rect fill="none" height="24" stroke="#405C86" stroke-dasharray="3 1" stroke-dashoffset="1.5" stroke-width="1" width="12" x="672.5" y="66.5" />
<text class="label unused" x="678.5" y="79.5"></text>
<rect fill="none" height="24" stroke="#405C86" stroke-dasharray="3 1" stroke-dashoffset="1.5" stroke-width="1" width="12" x="660.5" y="66.5" />
<text class="label unused" x="666.5" y="79.5"></text>
<rect fill="none" height="24" stroke="#405C86" stroke-dasharray="3 1" stroke-dashoffset="1.5" stroke-width="1" width="12" x="648.5" y="66.5" />
<text class="label unused" x="654.5" y="79.5"></text>
<rect fill="none" height="24" stroke="#405C86" stroke-dasharray="3 1" stroke-dashoffset="1.5" stroke-width="1" width="12" x="636.5" y="66.5" />
<text class="label unused" x="642.5" y="79.5"></text>
<rect fill="none" height="24" stroke="#405C86" stroke-dasharray="3 1" stroke-dashoffset="1.5" stroke-width="1" width="12" x="624.5" y="66.5" />
<text class="label unused" x="630.5" y="79.5"></text>
<rect fill="none" height="24" stroke="#405C86" stroke-dasharray="3 1" stroke-dashoffset="1.5" stroke-width="1" width="12" x="612.5" y="66.5" />
<text class="label unused" x="618.5" y="79.5"></text>
<rect fill="none" height="24" stroke="#405C86" stroke-dasharray="3 1" stroke-dashoffset="1.5" stroke-width="1" width="12" x="600.5" y="66.5" />
<text class="label unused" x="606.5" y="79.5"></text>
<rect fill="none" height="24" stroke="#405C86" stroke-dasharray="3 1" stroke-dashoffset="1.5" stroke-width="1" width="12" x="588.5" y="66.5" />
<text class="label unused" x="594.5" y="79.5"></text>
<rect fill="none" height="24" stroke="#405C86" stroke-dasharray="3 1" stroke-dashoffset="1.5" stroke-width="1" width="12" x="576.5" y="66.5" />
<text class="label unused" x="582.5" y="79.5"></text>
<rect fill="none" height="24" stroke="#405C86" stroke-width="3" width="12" x="372.5" y="66.5" />
<text class="label" x="378.5" y="79.5">0</text>
<rect fill="none" height="24" stroke="#405C86" stroke-dasharray="3 1" stroke-dashoffset="1.5" stroke-width="1" width="12" x="360.5" y="66.5" />
<text class="label unused" x="366.5" y="79.5"></text>
<rect fill="none" height="24" stroke="#405C86" stroke-dasharray="3 1" stroke-dashoffset="1.5" stroke-width="1" width="12" x="348.5" y="66.5" />
<text class="label unused" x="354.5" y="79.5"></text>
<rect fill="none" height="24" stroke="#405C86" stroke-dasharray="3 1" stroke-dashoffset="1.5" stroke-width="1" width="12" x="336.5" y="66.5" />
<text class="label unused" x="342.5" y="79.5"></text>
<rect fill="none" height="24" stroke="#405C86" stroke-dasharray="3 1" stroke-dashoffset="1.5" stroke-width="1" width="12" x="324.5" y="66.5" />
<text class="label unused" x="330.5" y="79.5"></text>
<rect fill="none" height="24" stroke="#405C86" stroke-dasharray="3 1" stroke-dashoffset="1.5" stroke-width="1" width="12" x="312.5" y="66.5" />
<text class="label unused" x="318.5" y="79.5"></text>
<rect fill="none" height="24" stroke="#405C86" stroke-dasharray="3 1" stroke-dashoffset="1.5" stroke-width="1" width="12" x="300.5" y="66.5" />
<text class="label unused" x="306.5" y="79.5"></text>
<rect fill="none" height="24" stroke="#405C86" stroke-dasharray="3 1" stroke-dashoffset="1.5" stroke-width="1" width="12" x="288.5" y="66.5" />
<text class="label unused" x="294.5" y="79.5"></text>
<rect fill="none" height="24" stroke="#405C86" stroke-dasharray="3 1" stroke-dashoffset="1.5" stroke-width="1" width="12" x="276.5" y="66.5" />
<text class="label unused" x="282.5" y="79.5"></text>
<rect fill="none" height="24" stroke="#405C86" stroke-dasharray="3 1" stroke-dashoffset="1.5" stroke-width="1" width="12" x="264.5" y="66.5" />
<text class="label unused" x="270.5" y="79.5"></text>
<rect fill="none" height="24" stroke="#405C86" stroke-dasharray="3 1" stroke-dashoffset="1.5" stroke-width="1" width="12" x="252.5" y="66.5" />
<text class="label unused" x="258.5" y="79.5"></text>
<rect fill="none" height="24" stroke="#405C86" stroke-dasharray="3 1" stroke-dashoffset="1.5" stroke-width="1" width="12" x="240.5" y="66.5" />
<text class="label unused" x="246.5" y="79.5"></text>
<rect fill="none" height="24" stroke="#405C86" stroke-dasharray="3 1" stroke-dashoffset="1.5" stroke-width="1" width="12" x="228.5" y="66.5" />
<text class="label unused" x="234.5" y="79.5"></text>
<rect fill="none" height="24" stroke="#405C86" stroke-dasharray="3 1" stroke-dashoffset="1.5" stroke-width="1" width="12" x="216.5" y="66.5" />
<text class="label unused" x="222.5" y="79.5"></text>
<rect fill="none" height="24" stroke="#405C86" stroke-dasharray="3 1" stroke-dashoffset="1.5" stroke-width="1" width="12" x="204.5" y="66.5" />
<text class="label unused" x="210.5" y="79.5"></text>
<rect fill="none" height="24" stroke="#405C86" stroke-dasharray="3 1" stroke-dashoffset="1.5" stroke-width="1" width="12" x="192.5" y="66.5" />
<text class="label unused" x="198.5" y="79.5"></text>
<text class="register-name" x="80.5" y="78.5">Pg</text>
<text class="intrinsic-name" x="80.5" y="90.5">pg</text>
<text class="register-number" x="10" y="78.5">(2)</text>
<rect fill="none" height="24" stroke="#405C86" stroke-dasharray="3 1" stroke-dashoffset="1.5" stroke-width="1" width="192" x="1050.5" y="138.5" />
<text class="small-label intrinsic-color" x="1146.5" y="151.5">base[0]</text>
<rect fill="#DEE6F1" height="24" width="192" x="858.5" y="138.5" />
<rect fill="none" height="24" stroke="#405C86" stroke-width="3" width="192" x="858.5" y="138.5" />
<text class="small-label intrinsic-color" x="954.5" y="151.5">base[1]</text>
<rect fill="#DEE6F1" height="24" width="192" x="666.5" y="138.5" />
<rect fill="none" height="24" stroke="#405C86" stroke-width="3" width="192" x="666.5" y="138.5" />
<text class="small-label intrinsic-color" x="762.5" y="151.5">base[2]</text>
<rect fill="none" height="24" stroke="#405C86" stroke-dasharray="3 1" stroke-dashoffset="1.5" stroke-width="1" width="192" x="474.5" y="138.5" />
<text class="small-label intrinsic-color" x="570.5" y="151.5">base[3]</text>
<text class="register-name" x="80.5" y="150.5">Zt</text>
<text class="intrinsic-name" x="80.5" y="162.5">value</text>
<text class="register-number" x="10" y="150.5">(3)</text>
<line marker-end="url(#arrowhead)" stroke="none" x1="1146.5" x2="954.5" y1="91.5" y2="137" />
<line marker-end="url(#arrowhead)" stroke="none" x1="762.5" x2="762.5" y1="91.5" y2="137" />
</svg>