<svg xmlns="http://www.w3.org/2000/svg" viewBox="0 0 3174 171">
<style>
.label { font: 14px Helvetica; dominant-baseline: middle; text-anchor: middle; }
.title-left { font: 12px Helvetica; dominant-baseline: middle; }
.title-right { font: 12px Helvetica; dominant-baseline: middle; text-anchor: end; }
.title-intrinsic { font: 12px Helvetica; dominant-baseline: middle; text-anchor: middle; fill: #6778ED; }
.title { font: 12px Helvetica; dominant-baseline: middle; text-anchor: middle; }
.title-unused { font: 12px Helvetica; dominant-baseline: middle; text-anchor: middle; fill: #AAA; }
.register-name { font: 14px Helvetica; dominant-baseline: middle; text-anchor: end; font-style: italic; }
.memory-name { font: 14px Helvetica; dominant-baseline: middle; text-anchor: end; }
.register-number { font: 14px Helvetica; dominant-baseline: middle; text-anchor: start; }
.intrinsic-name { font: 14px Helvetica; dominant-baseline: middle; text-anchor: end; fill: #6778ED; }
.intrinsic-color { fill: #6778ED; }
.small-label { font: 12px Helvetica; dominant-baseline: middle; text-anchor: middle; }
.label-10px { font: 10px Helvetica; dominant-baseline: middle; text-anchor: middle; }
.smaller-label { font: 9px Helvetica; dominant-baseline: middle; text-anchor: middle; }
.label-6px { font: 6px Helvetica; dominant-baseline: middle; text-anchor: middle; }
.label-7px { font: 7px Helvetica; dominant-baseline: middle; text-anchor: middle; }
.unused { fill: #AAA; }
.dim { fill: #888; }
</style>
<defs>
<marker id="arrowhead" markerWidth="10.75" markerHeight="24.5" refX="9.0" refY="6.125" orient="auto">
<polyline points="0.5 0.5, 8.75 6.125, 0.5 11.75" stroke="#567DB6" stroke-width="1" fill="none"/>
</marker>
</defs>
<line stroke="#567DB6" stroke-width="1" x1="3138.5" x2="3138.5" y1="43.5" y2="65.5" />
<line stroke="#567DB6" stroke-width="1" x1="3042.5" x2="3042.5" y1="43.5" y2="65.5" />
<line stroke="#567DB6" stroke-width="1" x1="3042.5" x2="2322.5" y1="91.5" y2="137" />
<line stroke="#567DB6" stroke-width="1" x1="2946.5" x2="2946.5" y1="43.5" y2="65.5" />
<line stroke="#567DB6" stroke-width="1" x1="2946.5" x2="2274.5" y1="91.5" y2="137" />
<line stroke="#567DB6" stroke-width="1" x1="2850.5" x2="2850.5" y1="43.5" y2="65.5" />
<line stroke="#567DB6" stroke-width="1" x1="2754.5" x2="2754.5" y1="43.5" y2="65.5" />
<line stroke="#567DB6" stroke-width="1" x1="2754.5" x2="2178.5" y1="91.5" y2="137" />
<line stroke="#567DB6" stroke-width="1" x1="2658.5" x2="2658.5" y1="43.5" y2="65.5" />
<line stroke="#567DB6" stroke-width="1" x1="2658.5" x2="2130.5" y1="91.5" y2="137" />
<line stroke="#567DB6" stroke-width="1" x1="2562.5" x2="2562.5" y1="43.5" y2="65.5" />
<line stroke="#567DB6" stroke-width="1" x1="2466.5" x2="2466.5" y1="43.5" y2="65.5" />
<line stroke="#567DB6" stroke-width="1" x1="2466.5" x2="2034.5" y1="91.5" y2="137" />
<line stroke="#567DB6" stroke-width="1" x1="2370.5" x2="2370.5" y1="43.5" y2="65.5" />
<line stroke="#567DB6" stroke-width="1" x1="2370.5" x2="1986.5" y1="91.5" y2="137" />
<line stroke="#567DB6" stroke-width="1" x1="2274.5" x2="2274.5" y1="43.5" y2="65.5" />
<line stroke="#567DB6" stroke-width="1" x1="2274.5" x2="1938.5" y1="91.5" y2="137" />
<line stroke="#567DB6" stroke-width="1" x1="2178.5" x2="2178.5" y1="43.5" y2="65.5" />
<line stroke="#567DB6" stroke-width="1" x1="2178.5" x2="1890.5" y1="91.5" y2="137" />
<line stroke="#567DB6" stroke-width="1" x1="2082.5" x2="2082.5" y1="43.5" y2="65.5" />
<line stroke="#567DB6" stroke-width="1" x1="2082.5" x2="1842.5" y1="91.5" y2="137" />
<line stroke="#567DB6" stroke-width="1" x1="1986.5" x2="1986.5" y1="43.5" y2="65.5" />
<line stroke="#567DB6" stroke-width="1" x1="1986.5" x2="1794.5" y1="91.5" y2="137" />
<line stroke="#567DB6" stroke-width="1" x1="1890.5" x2="1890.5" y1="43.5" y2="65.5" />
<line stroke="#567DB6" stroke-width="1" x1="1890.5" x2="1746.5" y1="91.5" y2="137" />
<line stroke="#567DB6" stroke-width="1" x1="1794.5" x2="1794.5" y1="43.5" y2="65.5" />
<line stroke="#567DB6" stroke-width="1" x1="1698.5" x2="1698.5" y1="43.5" y2="65.5" />
<line stroke="#567DB6" stroke-width="1" x1="1698.5" x2="1650.5" y1="91.5" y2="137" />
<line stroke="#567DB6" stroke-width="1" x1="1602.5" x2="1602.5" y1="43.5" y2="65.5" />
<line stroke="#567DB6" stroke-width="1" x1="1602.5" x2="1602.5" y1="91.5" y2="137" />
<line stroke="#567DB6" stroke-width="1" x1="1506.5" x2="1506.5" y1="43.5" y2="65.5" />
<line stroke="#567DB6" stroke-width="1" x1="1410.5" x2="1410.5" y1="43.5" y2="65.5" />
<line stroke="#567DB6" stroke-width="1" x1="1410.5" x2="1506.5" y1="91.5" y2="137" />
<line stroke="#567DB6" stroke-width="1" x1="1314.5" x2="1314.5" y1="43.5" y2="65.5" />
<line stroke="#567DB6" stroke-width="1" x1="1314.5" x2="1458.5" y1="91.5" y2="137" />
<line stroke="#567DB6" stroke-width="1" x1="1218.5" x2="1218.5" y1="43.5" y2="65.5" />
<line stroke="#567DB6" stroke-width="1" x1="1218.5" x2="1410.5" y1="91.5" y2="137" />
<line stroke="#567DB6" stroke-width="1" x1="1122.5" x2="1122.5" y1="43.5" y2="65.5" />
<line stroke="#567DB6" stroke-width="1" x1="1122.5" x2="1362.5" y1="91.5" y2="137" />
<line stroke="#567DB6" stroke-width="1" x1="1026.5" x2="1026.5" y1="43.5" y2="65.5" />
<line stroke="#567DB6" stroke-width="1" x1="1026.5" x2="1314.5" y1="91.5" y2="137" />
<line stroke="#567DB6" stroke-width="1" x1="930.5" x2="930.5" y1="43.5" y2="65.5" />
<line stroke="#567DB6" stroke-width="1" x1="930.5" x2="1266.5" y1="91.5" y2="137" />
<line stroke="#567DB6" stroke-width="1" x1="834.5" x2="834.5" y1="43.5" y2="65.5" />
<line stroke="#567DB6" stroke-width="1" x1="834.5" x2="1218.5" y1="91.5" y2="137" />
<line stroke="#567DB6" stroke-width="1" x1="738.5" x2="738.5" y1="43.5" y2="65.5" />
<line stroke="#567DB6" stroke-width="1" x1="738.5" x2="1170.5" y1="91.5" y2="137" />
<line stroke="#567DB6" stroke-width="1" x1="642.5" x2="642.5" y1="43.5" y2="65.5" />
<line stroke="#567DB6" stroke-width="1" x1="642.5" x2="1122.5" y1="91.5" y2="137" />
<line stroke="#567DB6" stroke-width="1" x1="546.5" x2="546.5" y1="43.5" y2="65.5" />
<line stroke="#567DB6" stroke-width="1" x1="546.5" x2="1074.5" y1="91.5" y2="137" />
<line stroke="#567DB6" stroke-width="1" x1="450.5" x2="450.5" y1="43.5" y2="65.5" />
<line stroke="#567DB6" stroke-width="1" x1="354.5" x2="354.5" y1="43.5" y2="65.5" />
<line stroke="#567DB6" stroke-width="1" x1="354.5" x2="978.5" y1="91.5" y2="137" />
<line stroke="#567DB6" stroke-width="1" x1="258.5" x2="258.5" y1="43.5" y2="65.5" />
<line stroke="#567DB6" stroke-width="1" x1="162.5" x2="162.5" y1="43.5" y2="65.5" />
<line stroke="#567DB6" stroke-width="1" x1="162.5" x2="882.5" y1="91.5" y2="137" />
<text class="title-left" x="90.5" y="9.5">upper</text>
<text class="title-right" x="3162.5" y="9.5">lower</text>
<rect fill="#DEE6F1" height="24" width="48" x="3114.5" y="18.5" />
<rect fill="none" height="24" stroke="#405C86" stroke-width="3" width="96" x="3066.5" y="18.5" />
<rect fill="#DEE6F1" height="24" width="48" x="3018.5" y="18.5" />
<rect fill="none" height="24" stroke="#405C86" stroke-width="3" width="96" x="2970.5" y="18.5" />
<rect fill="#DEE6F1" height="24" width="48" x="2922.5" y="18.5" />
<rect fill="none" height="24" stroke="#405C86" stroke-width="3" width="96" x="2874.5" y="18.5" />
<rect fill="#DEE6F1" height="24" width="48" x="2826.5" y="18.5" />
<rect fill="none" height="24" stroke="#405C86" stroke-width="3" width="96" x="2778.5" y="18.5" />
<rect fill="#DEE6F1" height="24" width="48" x="2730.5" y="18.5" />
<rect fill="none" height="24" stroke="#405C86" stroke-width="3" width="96" x="2682.5" y="18.5" />
<rect fill="#DEE6F1" height="24" width="48" x="2634.5" y="18.5" />
<rect fill="none" height="24" stroke="#405C86" stroke-width="3" width="96" x="2586.5" y="18.5" />
<rect fill="#DEE6F1" height="24" width="48" x="2538.5" y="18.5" />
<rect fill="none" height="24" stroke="#405C86" stroke-width="3" width="96" x="2490.5" y="18.5" />
<rect fill="#DEE6F1" height="24" width="48" x="2442.5" y="18.5" />
<rect fill="none" height="24" stroke="#405C86" stroke-width="3" width="96" x="2394.5" y="18.5" />
<rect fill="#DEE6F1" height="24" width="48" x="2346.5" y="18.5" />
<rect fill="none" height="24" stroke="#405C86" stroke-width="3" width="96" x="2298.5" y="18.5" />
<rect fill="#DEE6F1" height="24" width="48" x="2250.5" y="18.5" />
<rect fill="none" height="24" stroke="#405C86" stroke-width="3" width="96" x="2202.5" y="18.5" />
<rect fill="#DEE6F1" height="24" width="48" x="2154.5" y="18.5" />
<rect fill="none" height="24" stroke="#405C86" stroke-width="3" width="96" x="2106.5" y="18.5" />
<rect fill="#DEE6F1" height="24" width="48" x="2058.5" y="18.5" />
<rect fill="none" height="24" stroke="#405C86" stroke-width="3" width="96" x="2010.5" y="18.5" />
<rect fill="#DEE6F1" height="24" width="48" x="1962.5" y="18.5" />
<rect fill="none" height="24" stroke="#405C86" stroke-width="3" width="96" x="1914.5" y="18.5" />
<rect fill="#DEE6F1" height="24" width="48" x="1866.5" y="18.5" />
<rect fill="none" height="24" stroke="#405C86" stroke-width="3" width="96" x="1818.5" y="18.5" />
<rect fill="#DEE6F1" height="24" width="48" x="1770.5" y="18.5" />
<rect fill="none" height="24" stroke="#405C86" stroke-width="3" width="96" x="1722.5" y="18.5" />
<rect fill="#DEE6F1" height="24" width="48" x="1674.5" y="18.5" />
<rect fill="none" height="24" stroke="#405C86" stroke-width="3" width="96" x="1626.5" y="18.5" />
<rect fill="#DEE6F1" height="24" width="48" x="1578.5" y="18.5" />
<rect fill="none" height="24" stroke="#405C86" stroke-width="3" width="96" x="1530.5" y="18.5" />
<rect fill="#DEE6F1" height="24" width="48" x="1482.5" y="18.5" />
<rect fill="none" height="24" stroke="#405C86" stroke-width="3" width="96" x="1434.5" y="18.5" />
<rect fill="#DEE6F1" height="24" width="48" x="1386.5" y="18.5" />
<rect fill="none" height="24" stroke="#405C86" stroke-width="3" width="96" x="1338.5" y="18.5" />
<rect fill="#DEE6F1" height="24" width="48" x="1290.5" y="18.5" />
<rect fill="none" height="24" stroke="#405C86" stroke-width="3" width="96" x="1242.5" y="18.5" />
<rect fill="#DEE6F1" height="24" width="48" x="1194.5" y="18.5" />
<rect fill="none" height="24" stroke="#405C86" stroke-width="3" width="96" x="1146.5" y="18.5" />
<rect fill="#DEE6F1" height="24" width="48" x="1098.5" y="18.5" />
<rect fill="none" height="24" stroke="#405C86" stroke-width="3" width="96" x="1050.5" y="18.5" />
<rect fill="#DEE6F1" height="24" width="48" x="1002.5" y="18.5" />
<rect fill="none" height="24" stroke="#405C86" stroke-width="3" width="96" x="954.5" y="18.5" />
<rect fill="#DEE6F1" height="24" width="48" x="906.5" y="18.5" />
<rect fill="none" height="24" stroke="#405C86" stroke-width="3" width="96" x="858.5" y="18.5" />
<rect fill="#DEE6F1" height="24" width="48" x="810.5" y="18.5" />
<rect fill="none" height="24" stroke="#405C86" stroke-width="3" width="96" x="762.5" y="18.5" />
<rect fill="#DEE6F1" height="24" width="48" x="714.5" y="18.5" />
<rect fill="none" height="24" stroke="#405C86" stroke-width="3" width="96" x="666.5" y="18.5" />
<rect fill="#DEE6F1" height="24" width="48" x="618.5" y="18.5" />
<rect fill="none" height="24" stroke="#405C86" stroke-width="3" width="96" x="570.5" y="18.5" />
<rect fill="#DEE6F1" height="24" width="48" x="522.5" y="18.5" />
<rect fill="none" height="24" stroke="#405C86" stroke-width="3" width="96" x="474.5" y="18.5" />
<rect fill="#DEE6F1" height="24" width="48" x="426.5" y="18.5" />
<rect fill="none" height="24" stroke="#405C86" stroke-width="3" width="96" x="378.5" y="18.5" />
<rect fill="#DEE6F1" height="24" width="48" x="330.5" y="18.5" />
<rect fill="none" height="24" stroke="#405C86" stroke-width="3" width="96" x="282.5" y="18.5" />
<rect fill="#DEE6F1" height="24" width="48" x="234.5" y="18.5" />
<rect fill="none" height="24" stroke="#405C86" stroke-width="3" width="96" x="186.5" y="18.5" />
<rect fill="#DEE6F1" height="24" width="48" x="138.5" y="18.5" />
<rect fill="none" height="24" stroke="#405C86" stroke-width="3" width="96" x="90.5" y="18.5" />
<text class="register-name" x="80.5" y="30.5">Zt</text>
<text class="intrinsic-name" x="80.5" y="42.5">value</text>
<text class="register-number" x="10" y="30.5">(1)</text>
<rect fill="none" height="24" stroke="#405C86" stroke-width="3" width="12" x="3132.5" y="66.5" />
<text class="label" x="3138.5" y="79.5">0</text>
<rect fill="none" height="24" stroke="#405C86" stroke-dasharray="3 1" stroke-dashoffset="1.5" stroke-width="1" width="12" x="3120.5" y="66.5" />
<text class="label unused" x="3126.5" y="79.5"></text>
<rect fill="none" height="24" stroke="#405C86" stroke-dasharray="3 1" stroke-dashoffset="1.5" stroke-width="1" width="12" x="3108.5" y="66.5" />
<text class="label unused" x="3114.5" y="79.5"></text>
<rect fill="none" height="24" stroke="#405C86" stroke-dasharray="3 1" stroke-dashoffset="1.5" stroke-width="1" width="12" x="3096.5" y="66.5" />
<text class="label unused" x="3102.5" y="79.5"></text>
<rect fill="#DEE6F1" height="24" width="12" x="3036.5" y="66.5" />
<rect fill="none" height="24" stroke="#405C86" stroke-width="3" width="12" x="3036.5" y="66.5" />
<text class="label" x="3042.5" y="79.5">1</text>
<rect fill="none" height="24" stroke="#405C86" stroke-dasharray="3 1" stroke-dashoffset="1.5" stroke-width="1" width="12" x="3024.5" y="66.5" />
<text class="label unused" x="3030.5" y="79.5"></text>
<rect fill="none" height="24" stroke="#405C86" stroke-dasharray="3 1" stroke-dashoffset="1.5" stroke-width="1" width="12" x="3012.5" y="66.5" />
<text class="label unused" x="3018.5" y="79.5"></text>
<rect fill="none" height="24" stroke="#405C86" stroke-dasharray="3 1" stroke-dashoffset="1.5" stroke-width="1" width="12" x="3000.5" y="66.5" />
<text class="label unused" x="3006.5" y="79.5"></text>
<rect fill="#DEE6F1" height="24" width="12" x="2940.5" y="66.5" />
<rect fill="none" height="24" stroke="#405C86" stroke-width="3" width="12" x="2940.5" y="66.5" />
<text class="label" x="2946.5" y="79.5">1</text>
<rect fill="none" height="24" stroke="#405C86" stroke-dasharray="3 1" stroke-dashoffset="1.5" stroke-width="1" width="12" x="2928.5" y="66.5" />
<text class="label unused" x="2934.5" y="79.5"></text>
<rect fill="none" height="24" stroke="#405C86" stroke-dasharray="3 1" stroke-dashoffset="1.5" stroke-width="1" width="12" x="2916.5" y="66.5" />
<text class="label unused" x="2922.5" y="79.5"></text>
<rect fill="none" height="24" stroke="#405C86" stroke-dasharray="3 1" stroke-dashoffset="1.5" stroke-width="1" width="12" x="2904.5" y="66.5" />
<text class="label unused" x="2910.5" y="79.5"></text>
<rect fill="none" height="24" stroke="#405C86" stroke-width="3" width="12" x="2844.5" y="66.5" />
<text class="label" x="2850.5" y="79.5">0</text>
<rect fill="none" height="24" stroke="#405C86" stroke-dasharray="3 1" stroke-dashoffset="1.5" stroke-width="1" width="12" x="2832.5" y="66.5" />
<text class="label unused" x="2838.5" y="79.5"></text>
<rect fill="none" height="24" stroke="#405C86" stroke-dasharray="3 1" stroke-dashoffset="1.5" stroke-width="1" width="12" x="2820.5" y="66.5" />
<text class="label unused" x="2826.5" y="79.5"></text>
<rect fill="none" height="24" stroke="#405C86" stroke-dasharray="3 1" stroke-dashoffset="1.5" stroke-width="1" width="12" x="2808.5" y="66.5" />
<text class="label unused" x="2814.5" y="79.5"></text>
<rect fill="#DEE6F1" height="24" width="12" x="2748.5" y="66.5" />
<rect fill="none" height="24" stroke="#405C86" stroke-width="3" width="12" x="2748.5" y="66.5" />
<text class="label" x="2754.5" y="79.5">1</text>
<rect fill="none" height="24" stroke="#405C86" stroke-dasharray="3 1" stroke-dashoffset="1.5" stroke-width="1" width="12" x="2736.5" y="66.5" />
<text class="label unused" x="2742.5" y="79.5"></text>
<rect fill="none" height="24" stroke="#405C86" stroke-dasharray="3 1" stroke-dashoffset="1.5" stroke-width="1" width="12" x="2724.5" y="66.5" />
<text class="label unused" x="2730.5" y="79.5"></text>
<rect fill="none" height="24" stroke="#405C86" stroke-dasharray="3 1" stroke-dashoffset="1.5" stroke-width="1" width="12" x="2712.5" y="66.5" />
<text class="label unused" x="2718.5" y="79.5"></text>
<rect fill="#DEE6F1" height="24" width="12" x="2652.5" y="66.5" />
<rect fill="none" height="24" stroke="#405C86" stroke-width="3" width="12" x="2652.5" y="66.5" />
<text class="label" x="2658.5" y="79.5">1</text>
<rect fill="none" height="24" stroke="#405C86" stroke-dasharray="3 1" stroke-dashoffset="1.5" stroke-width="1" width="12" x="2640.5" y="66.5" />
<text class="label unused" x="2646.5" y="79.5"></text>
<rect fill="none" height="24" stroke="#405C86" stroke-dasharray="3 1" stroke-dashoffset="1.5" stroke-width="1" width="12" x="2628.5" y="66.5" />
<text class="label unused" x="2634.5" y="79.5"></text>
<rect fill="none" height="24" stroke="#405C86" stroke-dasharray="3 1" stroke-dashoffset="1.5" stroke-width="1" width="12" x="2616.5" y="66.5" />
<text class="label unused" x="2622.5" y="79.5"></text>
<rect fill="none" height="24" stroke="#405C86" stroke-width="3" width="12" x="2556.5" y="66.5" />
<text class="label" x="2562.5" y="79.5">0</text>
<rect fill="none" height="24" stroke="#405C86" stroke-dasharray="3 1" stroke-dashoffset="1.5" stroke-width="1" width="12" x="2544.5" y="66.5" />
<text class="label unused" x="2550.5" y="79.5"></text>
<rect fill="none" height="24" stroke="#405C86" stroke-dasharray="3 1" stroke-dashoffset="1.5" stroke-width="1" width="12" x="2532.5" y="66.5" />
<text class="label unused" x="2538.5" y="79.5"></text>
<rect fill="none" height="24" stroke="#405C86" stroke-dasharray="3 1" stroke-dashoffset="1.5" stroke-width="1" width="12" x="2520.5" y="66.5" />
<text class="label unused" x="2526.5" y="79.5"></text>
<rect fill="#DEE6F1" height="24" width="12" x="2460.5" y="66.5" />
<rect fill="none" height="24" stroke="#405C86" stroke-width="3" width="12" x="2460.5" y="66.5" />
<text class="label" x="2466.5" y="79.5">1</text>
<rect fill="none" height="24" stroke="#405C86" stroke-dasharray="3 1" stroke-dashoffset="1.5" stroke-width="1" width="12" x="2448.5" y="66.5" />
<text class="label unused" x="2454.5" y="79.5"></text>
<rect fill="none" height="24" stroke="#405C86" stroke-dasharray="3 1" stroke-dashoffset="1.5" stroke-width="1" width="12" x="2436.5" y="66.5" />
<text class="label unused" x="2442.5" y="79.5"></text>
<rect fill="none" height="24" stroke="#405C86" stroke-dasharray="3 1" stroke-dashoffset="1.5" stroke-width="1" width="12" x="2424.5" y="66.5" />
<text class="label unused" x="2430.5" y="79.5"></text>
<rect fill="#DEE6F1" height="24" width="12" x="2364.5" y="66.5" />
<rect fill="none" height="24" stroke="#405C86" stroke-width="3" width="12" x="2364.5" y="66.5" />
<text class="label" x="2370.5" y="79.5">1</text>
<rect fill="none" height="24" stroke="#405C86" stroke-dasharray="3 1" stroke-dashoffset="1.5" stroke-width="1" width="12" x="2352.5" y="66.5" />
<text class="label unused" x="2358.5" y="79.5"></text>
<rect fill="none" height="24" stroke="#405C86" stroke-dasharray="3 1" stroke-dashoffset="1.5" stroke-width="1" width="12" x="2340.5" y="66.5" />
<text class="label unused" x="2346.5" y="79.5"></text>
<rect fill="none" height="24" stroke="#405C86" stroke-dasharray="3 1" stroke-dashoffset="1.5" stroke-width="1" width="12" x="2328.5" y="66.5" />
<text class="label unused" x="2334.5" y="79.5"></text>
<rect fill="#DEE6F1" height="24" width="12" x="2268.5" y="66.5" />
<rect fill="none" height="24" stroke="#405C86" stroke-width="3" width="12" x="2268.5" y="66.5" />
<text class="label" x="2274.5" y="79.5">1</text>
<rect fill="none" height="24" stroke="#405C86" stroke-dasharray="3 1" stroke-dashoffset="1.5" stroke-width="1" width="12" x="2256.5" y="66.5" />
<text class="label unused" x="2262.5" y="79.5"></text>
<rect fill="none" height="24" stroke="#405C86" stroke-dasharray="3 1" stroke-dashoffset="1.5" stroke-width="1" width="12" x="2244.5" y="66.5" />
<text class="label unused" x="2250.5" y="79.5"></text>
<rect fill="none" height="24" stroke="#405C86" stroke-dasharray="3 1" stroke-dashoffset="1.5" stroke-width="1" width="12" x="2232.5" y="66.5" />
<text class="label unused" x="2238.5" y="79.5"></text>
<rect fill="#DEE6F1" height="24" width="12" x="2172.5" y="66.5" />
<rect fill="none" height="24" stroke="#405C86" stroke-width="3" width="12" x="2172.5" y="66.5" />
<text class="label" x="2178.5" y="79.5">1</text>
<rect fill="none" height="24" stroke="#405C86" stroke-dasharray="3 1" stroke-dashoffset="1.5" stroke-width="1" width="12" x="2160.5" y="66.5" />
<text class="label unused" x="2166.5" y="79.5"></text>
<rect fill="none" height="24" stroke="#405C86" stroke-dasharray="3 1" stroke-dashoffset="1.5" stroke-width="1" width="12" x="2148.5" y="66.5" />
<text class="label unused" x="2154.5" y="79.5"></text>
<rect fill="none" height="24" stroke="#405C86" stroke-dasharray="3 1" stroke-dashoffset="1.5" stroke-width="1" width="12" x="2136.5" y="66.5" />
<text class="label unused" x="2142.5" y="79.5"></text>
<rect fill="#DEE6F1" height="24" width="12" x="2076.5" y="66.5" />
<rect fill="none" height="24" stroke="#405C86" stroke-width="3" width="12" x="2076.5" y="66.5" />
<text class="label" x="2082.5" y="79.5">1</text>
<rect fill="none" height="24" stroke="#405C86" stroke-dasharray="3 1" stroke-dashoffset="1.5" stroke-width="1" width="12" x="2064.5" y="66.5" />
<text class="label unused" x="2070.5" y="79.5"></text>
<rect fill="none" height="24" stroke="#405C86" stroke-dasharray="3 1" stroke-dashoffset="1.5" stroke-width="1" width="12" x="2052.5" y="66.5" />
<text class="label unused" x="2058.5" y="79.5"></text>
<rect fill="none" height="24" stroke="#405C86" stroke-dasharray="3 1" stroke-dashoffset="1.5" stroke-width="1" width="12" x="2040.5" y="66.5" />
<text class="label unused" x="2046.5" y="79.5"></text>
<rect fill="#DEE6F1" height="24" width="12" x="1980.5" y="66.5" />
<rect fill="none" height="24" stroke="#405C86" stroke-width="3" width="12" x="1980.5" y="66.5" />
<text class="label" x="1986.5" y="79.5">1</text>
<rect fill="none" height="24" stroke="#405C86" stroke-dasharray="3 1" stroke-dashoffset="1.5" stroke-width="1" width="12" x="1968.5" y="66.5" />
<text class="label unused" x="1974.5" y="79.5"></text>
<rect fill="none" height="24" stroke="#405C86" stroke-dasharray="3 1" stroke-dashoffset="1.5" stroke-width="1" width="12" x="1956.5" y="66.5" />
<text class="label unused" x="1962.5" y="79.5"></text>
<rect fill="none" height="24" stroke="#405C86" stroke-dasharray="3 1" stroke-dashoffset="1.5" stroke-width="1" width="12" x="1944.5" y="66.5" />
<text class="label unused" x="1950.5" y="79.5"></text>
<rect fill="#DEE6F1" height="24" width="12" x="1884.5" y="66.5" />
<rect fill="none" height="24" stroke="#405C86" stroke-width="3" width="12" x="1884.5" y="66.5" />
<text class="label" x="1890.5" y="79.5">1</text>
<rect fill="none" height="24" stroke="#405C86" stroke-dasharray="3 1" stroke-dashoffset="1.5" stroke-width="1" width="12" x="1872.5" y="66.5" />
<text class="label unused" x="1878.5" y="79.5"></text>
<rect fill="none" height="24" stroke="#405C86" stroke-dasharray="3 1" stroke-dashoffset="1.5" stroke-width="1" width="12" x="1860.5" y="66.5" />
<text class="label unused" x="1866.5" y="79.5"></text>
<rect fill="none" height="24" stroke="#405C86" stroke-dasharray="3 1" stroke-dashoffset="1.5" stroke-width="1" width="12" x="1848.5" y="66.5" />
<text class="label unused" x="1854.5" y="79.5"></text>
<rect fill="none" height="24" stroke="#405C86" stroke-width="3" width="12" x="1788.5" y="66.5" />
<text class="label" x="1794.5" y="79.5">0</text>
<rect fill="none" height="24" stroke="#405C86" stroke-dasharray="3 1" stroke-dashoffset="1.5" stroke-width="1" width="12" x="1776.5" y="66.5" />
<text class="label unused" x="1782.5" y="79.5"></text>
<rect fill="none" height="24" stroke="#405C86" stroke-dasharray="3 1" stroke-dashoffset="1.5" stroke-width="1" width="12" x="1764.5" y="66.5" />
<text class="label unused" x="1770.5" y="79.5"></text>
<rect fill="none" height="24" stroke="#405C86" stroke-dasharray="3 1" stroke-dashoffset="1.5" stroke-width="1" width="12" x="1752.5" y="66.5" />
<text class="label unused" x="1758.5" y="79.5"></text>
<rect fill="#DEE6F1" height="24" width="12" x="1692.5" y="66.5" />
<rect fill="none" height="24" stroke="#405C86" stroke-width="3" width="12" x="1692.5" y="66.5" />
<text class="label" x="1698.5" y="79.5">1</text>
<rect fill="none" height="24" stroke="#405C86" stroke-dasharray="3 1" stroke-dashoffset="1.5" stroke-width="1" width="12" x="1680.5" y="66.5" />
<text class="label unused" x="1686.5" y="79.5"></text>
<rect fill="none" height="24" stroke="#405C86" stroke-dasharray="3 1" stroke-dashoffset="1.5" stroke-width="1" width="12" x="1668.5" y="66.5" />
<text class="label unused" x="1674.5" y="79.5"></text>
<rect fill="none" height="24" stroke="#405C86" stroke-dasharray="3 1" stroke-dashoffset="1.5" stroke-width="1" width="12" x="1656.5" y="66.5" />
<text class="label unused" x="1662.5" y="79.5"></text>
<rect fill="#DEE6F1" height="24" width="12" x="1596.5" y="66.5" />
<rect fill="none" height="24" stroke="#405C86" stroke-width="3" width="12" x="1596.5" y="66.5" />
<text class="label" x="1602.5" y="79.5">1</text>
<rect fill="none" height="24" stroke="#405C86" stroke-dasharray="3 1" stroke-dashoffset="1.5" stroke-width="1" width="12" x="1584.5" y="66.5" />
<text class="label unused" x="1590.5" y="79.5"></text>
<rect fill="none" height="24" stroke="#405C86" stroke-dasharray="3 1" stroke-dashoffset="1.5" stroke-width="1" width="12" x="1572.5" y="66.5" />
<text class="label unused" x="1578.5" y="79.5"></text>
<rect fill="none" height="24" stroke="#405C86" stroke-dasharray="3 1" stroke-dashoffset="1.5" stroke-width="1" width="12" x="1560.5" y="66.5" />
<text class="label unused" x="1566.5" y="79.5"></text>
<rect fill="none" height="24" stroke="#405C86" stroke-width="3" width="12" x="1500.5" y="66.5" />
<text class="label" x="1506.5" y="79.5">0</text>
<rect fill="none" height="24" stroke="#405C86" stroke-dasharray="3 1" stroke-dashoffset="1.5" stroke-width="1" width="12" x="1488.5" y="66.5" />
<text class="label unused" x="1494.5" y="79.5"></text>
<rect fill="none" height="24" stroke="#405C86" stroke-dasharray="3 1" stroke-dashoffset="1.5" stroke-width="1" width="12" x="1476.5" y="66.5" />
<text class="label unused" x="1482.5" y="79.5"></text>
<rect fill="none" height="24" stroke="#405C86" stroke-dasharray="3 1" stroke-dashoffset="1.5" stroke-width="1" width="12" x="1464.5" y="66.5" />
<text class="label unused" x="1470.5" y="79.5"></text>
<rect fill="#DEE6F1" height="24" width="12" x="1404.5" y="66.5" />
<rect fill="none" height="24" stroke="#405C86" stroke-width="3" width="12" x="1404.5" y="66.5" />
<text class="label" x="1410.5" y="79.5">1</text>
<rect fill="none" height="24" stroke="#405C86" stroke-dasharray="3 1" stroke-dashoffset="1.5" stroke-width="1" width="12" x="1392.5" y="66.5" />
<text class="label unused" x="1398.5" y="79.5"></text>
<rect fill="none" height="24" stroke="#405C86" stroke-dasharray="3 1" stroke-dashoffset="1.5" stroke-width="1" width="12" x="1380.5" y="66.5" />
<text class="label unused" x="1386.5" y="79.5"></text>
<rect fill="none" height="24" stroke="#405C86" stroke-dasharray="3 1" stroke-dashoffset="1.5" stroke-width="1" width="12" x="1368.5" y="66.5" />
<text class="label unused" x="1374.5" y="79.5"></text>
<rect fill="#DEE6F1" height="24" width="12" x="1308.5" y="66.5" />
<rect fill="none" height="24" stroke="#405C86" stroke-width="3" width="12" x="1308.5" y="66.5" />
<text class="label" x="1314.5" y="79.5">1</text>
<rect fill="none" height="24" stroke="#405C86" stroke-dasharray="3 1" stroke-dashoffset="1.5" stroke-width="1" width="12" x="1296.5" y="66.5" />
<text class="label unused" x="1302.5" y="79.5"></text>
<rect fill="none" height="24" stroke="#405C86" stroke-dasharray="3 1" stroke-dashoffset="1.5" stroke-width="1" width="12" x="1284.5" y="66.5" />
<text class="label unused" x="1290.5" y="79.5"></text>
<rect fill="none" height="24" stroke="#405C86" stroke-dasharray="3 1" stroke-dashoffset="1.5" stroke-width="1" width="12" x="1272.5" y="66.5" />
<text class="label unused" x="1278.5" y="79.5"></text>
<rect fill="#DEE6F1" height="24" width="12" x="1212.5" y="66.5" />
<rect fill="none" height="24" stroke="#405C86" stroke-width="3" width="12" x="1212.5" y="66.5" />
<text class="label" x="1218.5" y="79.5">1</text>
<rect fill="none" height="24" stroke="#405C86" stroke-dasharray="3 1" stroke-dashoffset="1.5" stroke-width="1" width="12" x="1200.5" y="66.5" />
<text class="label unused" x="1206.5" y="79.5"></text>
<rect fill="none" height="24" stroke="#405C86" stroke-dasharray="3 1" stroke-dashoffset="1.5" stroke-width="1" width="12" x="1188.5" y="66.5" />
<text class="label unused" x="1194.5" y="79.5"></text>
<rect fill="none" height="24" stroke="#405C86" stroke-dasharray="3 1" stroke-dashoffset="1.5" stroke-width="1" width="12" x="1176.5" y="66.5" />
<text class="label unused" x="1182.5" y="79.5"></text>
<rect fill="#DEE6F1" height="24" width="12" x="1116.5" y="66.5" />
<rect fill="none" height="24" stroke="#405C86" stroke-width="3" width="12" x="1116.5" y="66.5" />
<text class="label" x="1122.5" y="79.5">1</text>
<rect fill="none" height="24" stroke="#405C86" stroke-dasharray="3 1" stroke-dashoffset="1.5" stroke-width="1" width="12" x="1104.5" y="66.5" />
<text class="label unused" x="1110.5" y="79.5"></text>
<rect fill="none" height="24" stroke="#405C86" stroke-dasharray="3 1" stroke-dashoffset="1.5" stroke-width="1" width="12" x="1092.5" y="66.5" />
<text class="label unused" x="1098.5" y="79.5"></text>
<rect fill="none" height="24" stroke="#405C86" stroke-dasharray="3 1" stroke-dashoffset="1.5" stroke-width="1" width="12" x="1080.5" y="66.5" />
<text class="label unused" x="1086.5" y="79.5"></text>
<rect fill="#DEE6F1" height="24" width="12" x="1020.5" y="66.5" />
<rect fill="none" height="24" stroke="#405C86" stroke-width="3" width="12" x="1020.5" y="66.5" />
<text class="label" x="1026.5" y="79.5">1</text>
<rect fill="none" height="24" stroke="#405C86" stroke-dasharray="3 1" stroke-dashoffset="1.5" stroke-width="1" width="12" x="1008.5" y="66.5" />
<text class="label unused" x="1014.5" y="79.5"></text>
<rect fill="none" height="24" stroke="#405C86" stroke-dasharray="3 1" stroke-dashoffset="1.5" stroke-width="1" width="12" x="996.5" y="66.5" />
<text class="label unused" x="1002.5" y="79.5"></text>
<rect fill="none" height="24" stroke="#405C86" stroke-dasharray="3 1" stroke-dashoffset="1.5" stroke-width="1" width="12" x="984.5" y="66.5" />
<text class="label unused" x="990.5" y="79.5"></text>
<rect fill="#DEE6F1" height="24" width="12" x="924.5" y="66.5" />
<rect fill="none" height="24" stroke="#405C86" stroke-width="3" width="12" x="924.5" y="66.5" />
<text class="label" x="930.5" y="79.5">1</text>
<rect fill="none" height="24" stroke="#405C86" stroke-dasharray="3 1" stroke-dashoffset="1.5" stroke-width="1" width="12" x="912.5" y="66.5" />
<text class="label unused" x="918.5" y="79.5"></text>
<rect fill="none" height="24" stroke="#405C86" stroke-dasharray="3 1" stroke-dashoffset="1.5" stroke-width="1" width="12" x="900.5" y="66.5" />
<text class="label unused" x="906.5" y="79.5"></text>
<rect fill="none" height="24" stroke="#405C86" stroke-dasharray="3 1" stroke-dashoffset="1.5" stroke-width="1" width="12" x="888.5" y="66.5" />
<text class="label unused" x="894.5" y="79.5"></text>
<rect fill="#DEE6F1" height="24" width="12" x="828.5" y="66.5" />
<rect fill="none" height="24" stroke="#405C86" stroke-width="3" width="12" x="828.5" y="66.5" />
<text class="label" x="834.5" y="79.5">1</text>
<rect fill="none" height="24" stroke="#405C86" stroke-dasharray="3 1" stroke-dashoffset="1.5" stroke-width="1" width="12" x="816.5" y="66.5" />
<text class="label unused" x="822.5" y="79.5"></text>
<rect fill="none" height="24" stroke="#405C86" stroke-dasharray="3 1" stroke-dashoffset="1.5" stroke-width="1" width="12" x="804.5" y="66.5" />
<text class="label unused" x="810.5" y="79.5"></text>
<rect fill="none" height="24" stroke="#405C86" stroke-dasharray="3 1" stroke-dashoffset="1.5" stroke-width="1" width="12" x="792.5" y="66.5" />
<text class="label unused" x="798.5" y="79.5"></text>
<rect fill="#DEE6F1" height="24" width="12" x="732.5" y="66.5" />
<rect fill="none" height="24" stroke="#405C86" stroke-width="3" width="12" x="732.5" y="66.5" />
<text class="label" x="738.5" y="79.5">1</text>
<rect fill="none" height="24" stroke="#405C86" stroke-dasharray="3 1" stroke-dashoffset="1.5" stroke-width="1" width="12" x="720.5" y="66.5" />
<text class="label unused" x="726.5" y="79.5"></text>
<rect fill="none" height="24" stroke="#405C86" stroke-dasharray="3 1" stroke-dashoffset="1.5" stroke-width="1" width="12" x="708.5" y="66.5" />
<text class="label unused" x="714.5" y="79.5"></text>
<rect fill="none" height="24" stroke="#405C86" stroke-dasharray="3 1" stroke-dashoffset="1.5" stroke-width="1" width="12" x="696.5" y="66.5" />
<text class="label unused" x="702.5" y="79.5"></text>
<rect fill="#DEE6F1" height="24" width="12" x="636.5" y="66.5" />
<rect fill="none" height="24" stroke="#405C86" stroke-width="3" width="12" x="636.5" y="66.5" />
<text class="label" x="642.5" y="79.5">1</text>
<rect fill="none" height="24" stroke="#405C86" stroke-dasharray="3 1" stroke-dashoffset="1.5" stroke-width="1" width="12" x="624.5" y="66.5" />
<text class="label unused" x="630.5" y="79.5"></text>
<rect fill="none" height="24" stroke="#405C86" stroke-dasharray="3 1" stroke-dashoffset="1.5" stroke-width="1" width="12" x="612.5" y="66.5" />
<text class="label unused" x="618.5" y="79.5"></text>
<rect fill="none" height="24" stroke="#405C86" stroke-dasharray="3 1" stroke-dashoffset="1.5" stroke-width="1" width="12" x="600.5" y="66.5" />
<text class="label unused" x="606.5" y="79.5"></text>
<rect fill="#DEE6F1" height="24" width="12" x="540.5" y="66.5" />
<rect fill="none" height="24" stroke="#405C86" stroke-width="3" width="12" x="540.5" y="66.5" />
<text class="label" x="546.5" y="79.5">1</text>
<rect fill="none" height="24" stroke="#405C86" stroke-dasharray="3 1" stroke-dashoffset="1.5" stroke-width="1" width="12" x="528.5" y="66.5" />
<text class="label unused" x="534.5" y="79.5"></text>
<rect fill="none" height="24" stroke="#405C86" stroke-dasharray="3 1" stroke-dashoffset="1.5" stroke-width="1" width="12" x="516.5" y="66.5" />
<text class="label unused" x="522.5" y="79.5"></text>
<rect fill="none" height="24" stroke="#405C86" stroke-dasharray="3 1" stroke-dashoffset="1.5" stroke-width="1" width="12" x="504.5" y="66.5" />
<text class="label unused" x="510.5" y="79.5"></text>
<rect fill="none" height="24" stroke="#405C86" stroke-width="3" width="12" x="444.5" y="66.5" />
<text class="label" x="450.5" y="79.5">0</text>
<rect fill="none" height="24" stroke="#405C86" stroke-dasharray="3 1" stroke-dashoffset="1.5" stroke-width="1" width="12" x="432.5" y="66.5" />
<text class="label unused" x="438.5" y="79.5"></text>
<rect fill="none" height="24" stroke="#405C86" stroke-dasharray="3 1" stroke-dashoffset="1.5" stroke-width="1" width="12" x="420.5" y="66.5" />
<text class="label unused" x="426.5" y="79.5"></text>
<rect fill="none" height="24" stroke="#405C86" stroke-dasharray="3 1" stroke-dashoffset="1.5" stroke-width="1" width="12" x="408.5" y="66.5" />
<text class="label unused" x="414.5" y="79.5"></text>
<rect fill="#DEE6F1" height="24" width="12" x="348.5" y="66.5" />
<rect fill="none" height="24" stroke="#405C86" stroke-width="3" width="12" x="348.5" y="66.5" />
<text class="label" x="354.5" y="79.5">1</text>
<rect fill="none" height="24" stroke="#405C86" stroke-dasharray="3 1" stroke-dashoffset="1.5" stroke-width="1" width="12" x="336.5" y="66.5" />
<text class="label unused" x="342.5" y="79.5"></text>
<rect fill="none" height="24" stroke="#405C86" stroke-dasharray="3 1" stroke-dashoffset="1.5" stroke-width="1" width="12" x="324.5" y="66.5" />
<text class="label unused" x="330.5" y="79.5"></text>
<rect fill="none" height="24" stroke="#405C86" stroke-dasharray="3 1" stroke-dashoffset="1.5" stroke-width="1" width="12" x="312.5" y="66.5" />
<text class="label unused" x="318.5" y="79.5"></text>
<rect fill="none" height="24" stroke="#405C86" stroke-width="3" width="12" x="252.5" y="66.5" />
<text class="label" x="258.5" y="79.5">0</text>
<rect fill="none" height="24" stroke="#405C86" stroke-dasharray="3 1" stroke-dashoffset="1.5" stroke-width="1" width="12" x="240.5" y="66.5" />
<text class="label unused" x="246.5" y="79.5"></text>
<rect fill="none" height="24" stroke="#405C86" stroke-dasharray="3 1" stroke-dashoffset="1.5" stroke-width="1" width="12" x="228.5" y="66.5" />
<text class="label unused" x="234.5" y="79.5"></text>
<rect fill="none" height="24" stroke="#405C86" stroke-dasharray="3 1" stroke-dashoffset="1.5" stroke-width="1" width="12" x="216.5" y="66.5" />
<text class="label unused" x="222.5" y="79.5"></text>
<rect fill="#DEE6F1" height="24" width="12" x="156.5" y="66.5" />
<rect fill="none" height="24" stroke="#405C86" stroke-width="3" width="12" x="156.5" y="66.5" />
<text class="label" x="162.5" y="79.5">1</text>
<rect fill="none" height="24" stroke="#405C86" stroke-dasharray="3 1" stroke-dashoffset="1.5" stroke-width="1" width="12" x="144.5" y="66.5" />
<text class="label unused" x="150.5" y="79.5"></text>
<rect fill="none" height="24" stroke="#405C86" stroke-dasharray="3 1" stroke-dashoffset="1.5" stroke-width="1" width="12" x="132.5" y="66.5" />
<text class="label unused" x="138.5" y="79.5"></text>
<rect fill="none" height="24" stroke="#405C86" stroke-dasharray="3 1" stroke-dashoffset="1.5" stroke-width="1" width="12" x="120.5" y="66.5" />
<text class="label unused" x="126.5" y="79.5"></text>
<text class="register-name" x="80.5" y="78.5">Pg</text>
<text class="intrinsic-name" x="80.5" y="90.5">pg</text>
<text class="register-number" x="10" y="78.5">(2)</text>
<rect fill="none" height="24" stroke="#405C86" stroke-dasharray="3 1" stroke-dashoffset="1.5" stroke-width="1" width="48" x="2346.5" y="138.5" />
<text class="smaller-label intrinsic-color" x="2370.5" y="151.5">base[0]</text>
<rect fill="#DEE6F1" height="24" width="48" x="2298.5" y="138.5" />
<rect fill="none" height="24" stroke="#405C86" stroke-width="3" width="48" x="2298.5" y="138.5" />
<text class="smaller-label intrinsic-color" x="2322.5" y="151.5">base[1]</text>
<rect fill="#DEE6F1" height="24" width="48" x="2250.5" y="138.5" />
<rect fill="none" height="24" stroke="#405C86" stroke-width="3" width="48" x="2250.5" y="138.5" />
<text class="smaller-label intrinsic-color" x="2274.5" y="151.5">base[2]</text>
<rect fill="none" height="24" stroke="#405C86" stroke-dasharray="3 1" stroke-dashoffset="1.5" stroke-width="1" width="48" x="2202.5" y="138.5" />
<text class="smaller-label intrinsic-color" x="2226.5" y="151.5">base[3]</text>
<rect fill="#DEE6F1" height="24" width="48" x="2154.5" y="138.5" />
<rect fill="none" height="24" stroke="#405C86" stroke-width="3" width="48" x="2154.5" y="138.5" />
<text class="smaller-label intrinsic-color" x="2178.5" y="151.5">base[4]</text>
<rect fill="#DEE6F1" height="24" width="48" x="2106.5" y="138.5" />
<rect fill="none" height="24" stroke="#405C86" stroke-width="3" width="48" x="2106.5" y="138.5" />
<text class="smaller-label intrinsic-color" x="2130.5" y="151.5">base[5]</text>
<rect fill="none" height="24" stroke="#405C86" stroke-dasharray="3 1" stroke-dashoffset="1.5" stroke-width="1" width="48" x="2058.5" y="138.5" />
<text class="smaller-label intrinsic-color" x="2082.5" y="151.5">base[6]</text>
<rect fill="#DEE6F1" height="24" width="48" x="2010.5" y="138.5" />
<rect fill="none" height="24" stroke="#405C86" stroke-width="3" width="48" x="2010.5" y="138.5" />
<text class="smaller-label intrinsic-color" x="2034.5" y="151.5">base[7]</text>
<rect fill="#DEE6F1" height="24" width="48" x="1962.5" y="138.5" />
<rect fill="none" height="24" stroke="#405C86" stroke-width="3" width="48" x="1962.5" y="138.5" />
<text class="smaller-label intrinsic-color" x="1986.5" y="151.5">base[8]</text>
<rect fill="#DEE6F1" height="24" width="48" x="1914.5" y="138.5" />
<rect fill="none" height="24" stroke="#405C86" stroke-width="3" width="48" x="1914.5" y="138.5" />
<text class="smaller-label intrinsic-color" x="1938.5" y="151.5">base[9]</text>
<rect fill="#DEE6F1" height="24" width="48" x="1866.5" y="138.5" />
<rect fill="none" height="24" stroke="#405C86" stroke-width="3" width="48" x="1866.5" y="138.5" />
<text class="smaller-label intrinsic-color" x="1890.5" y="151.5">base[10]</text>
<rect fill="#DEE6F1" height="24" width="48" x="1818.5" y="138.5" />
<rect fill="none" height="24" stroke="#405C86" stroke-width="3" width="48" x="1818.5" y="138.5" />
<text class="smaller-label intrinsic-color" x="1842.5" y="151.5">base[11]</text>
<rect fill="#DEE6F1" height="24" width="48" x="1770.5" y="138.5" />
<rect fill="none" height="24" stroke="#405C86" stroke-width="3" width="48" x="1770.5" y="138.5" />
<text class="smaller-label intrinsic-color" x="1794.5" y="151.5">base[12]</text>
<rect fill="#DEE6F1" height="24" width="48" x="1722.5" y="138.5" />
<rect fill="none" height="24" stroke="#405C86" stroke-width="3" width="48" x="1722.5" y="138.5" />
<text class="smaller-label intrinsic-color" x="1746.5" y="151.5">base[13]</text>
<rect fill="none" height="24" stroke="#405C86" stroke-dasharray="3 1" stroke-dashoffset="1.5" stroke-width="1" width="48" x="1674.5" y="138.5" />
<text class="smaller-label intrinsic-color" x="1698.5" y="151.5">base[14]</text>
<rect fill="#DEE6F1" height="24" width="48" x="1626.5" y="138.5" />
<rect fill="none" height="24" stroke="#405C86" stroke-width="3" width="48" x="1626.5" y="138.5" />
<text class="smaller-label intrinsic-color" x="1650.5" y="151.5">base[15]</text>
<rect fill="#DEE6F1" height="24" width="48" x="1578.5" y="138.5" />
<rect fill="none" height="24" stroke="#405C86" stroke-width="3" width="48" x="1578.5" y="138.5" />
<text class="smaller-label intrinsic-color" x="1602.5" y="151.5">base[16]</text>
<rect fill="none" height="24" stroke="#405C86" stroke-dasharray="3 1" stroke-dashoffset="1.5" stroke-width="1" width="48" x="1530.5" y="138.5" />
<text class="smaller-label intrinsic-color" x="1554.5" y="151.5">base[17]</text>
<rect fill="#DEE6F1" height="24" width="48" x="1482.5" y="138.5" />
<rect fill="none" height="24" stroke="#405C86" stroke-width="3" width="48" x="1482.5" y="138.5" />
<text class="smaller-label intrinsic-color" x="1506.5" y="151.5">base[18]</text>
<rect fill="#DEE6F1" height="24" width="48" x="1434.5" y="138.5" />
<rect fill="none" height="24" stroke="#405C86" stroke-width="3" width="48" x="1434.5" y="138.5" />
<text class="smaller-label intrinsic-color" x="1458.5" y="151.5">base[19]</text>
<rect fill="#DEE6F1" height="24" width="48" x="1386.5" y="138.5" />
<rect fill="none" height="24" stroke="#405C86" stroke-width="3" width="48" x="1386.5" y="138.5" />
<text class="smaller-label intrinsic-color" x="1410.5" y="151.5">base[20]</text>
<rect fill="#DEE6F1" height="24" width="48" x="1338.5" y="138.5" />
<rect fill="none" height="24" stroke="#405C86" stroke-width="3" width="48" x="1338.5" y="138.5" />
<text class="smaller-label intrinsic-color" x="1362.5" y="151.5">base[21]</text>
<rect fill="#DEE6F1" height="24" width="48" x="1290.5" y="138.5" />
<rect fill="none" height="24" stroke="#405C86" stroke-width="3" width="48" x="1290.5" y="138.5" />
<text class="smaller-label intrinsic-color" x="1314.5" y="151.5">base[22]</text>
<rect fill="#DEE6F1" height="24" width="48" x="1242.5" y="138.5" />
<rect fill="none" height="24" stroke="#405C86" stroke-width="3" width="48" x="1242.5" y="138.5" />
<text class="smaller-label intrinsic-color" x="1266.5" y="151.5">base[23]</text>
<rect fill="#DEE6F1" height="24" width="48" x="1194.5" y="138.5" />
<rect fill="none" height="24" stroke="#405C86" stroke-width="3" width="48" x="1194.5" y="138.5" />
<text class="smaller-label intrinsic-color" x="1218.5" y="151.5">base[24]</text>
<rect fill="#DEE6F1" height="24" width="48" x="1146.5" y="138.5" />
<rect fill="none" height="24" stroke="#405C86" stroke-width="3" width="48" x="1146.5" y="138.5" />
<text class="smaller-label intrinsic-color" x="1170.5" y="151.5">base[25]</text>
<rect fill="#DEE6F1" height="24" width="48" x="1098.5" y="138.5" />
<rect fill="none" height="24" stroke="#405C86" stroke-width="3" width="48" x="1098.5" y="138.5" />
<text class="smaller-label intrinsic-color" x="1122.5" y="151.5">base[26]</text>
<rect fill="#DEE6F1" height="24" width="48" x="1050.5" y="138.5" />
<rect fill="none" height="24" stroke="#405C86" stroke-width="3" width="48" x="1050.5" y="138.5" />
<text class="smaller-label intrinsic-color" x="1074.5" y="151.5">base[27]</text>
<rect fill="none" height="24" stroke="#405C86" stroke-dasharray="3 1" stroke-dashoffset="1.5" stroke-width="1" width="48" x="1002.5" y="138.5" />
<text class="smaller-label intrinsic-color" x="1026.5" y="151.5">base[28]</text>
<rect fill="#DEE6F1" height="24" width="48" x="954.5" y="138.5" />
<rect fill="none" height="24" stroke="#405C86" stroke-width="3" width="48" x="954.5" y="138.5" />
<text class="smaller-label intrinsic-color" x="978.5" y="151.5">base[29]</text>
<rect fill="none" height="24" stroke="#405C86" stroke-dasharray="3 1" stroke-dashoffset="1.5" stroke-width="1" width="48" x="906.5" y="138.5" />
<text class="smaller-label intrinsic-color" x="930.5" y="151.5">base[30]</text>
<rect fill="#DEE6F1" height="24" width="48" x="858.5" y="138.5" />
<rect fill="none" height="24" stroke="#405C86" stroke-width="3" width="48" x="858.5" y="138.5" />
<text class="smaller-label intrinsic-color" x="882.5" y="151.5">base[31]</text>
<text class="register-name" x="80.5" y="150.5">Zt</text>
<text class="intrinsic-name" x="80.5" y="162.5">value</text>
<text class="register-number" x="10" y="150.5">(3)</text>
<line marker-end="url(#arrowhead)" stroke="none" x1="3042.5" x2="2322.5" y1="91.5" y2="137" />
<line marker-end="url(#arrowhead)" stroke="none" x1="2946.5" x2="2274.5" y1="91.5" y2="137" />
<line marker-end="url(#arrowhead)" stroke="none" x1="2754.5" x2="2178.5" y1="91.5" y2="137" />
<line marker-end="url(#arrowhead)" stroke="none" x1="2658.5" x2="2130.5" y1="91.5" y2="137" />
<line marker-end="url(#arrowhead)" stroke="none" x1="2466.5" x2="2034.5" y1="91.5" y2="137" />
<line marker-end="url(#arrowhead)" stroke="none" x1="2370.5" x2="1986.5" y1="91.5" y2="137" />
<line marker-end="url(#arrowhead)" stroke="none" x1="2274.5" x2="1938.5" y1="91.5" y2="137" />
<line marker-end="url(#arrowhead)" stroke="none" x1="2178.5" x2="1890.5" y1="91.5" y2="137" />
<line marker-end="url(#arrowhead)" stroke="none" x1="2082.5" x2="1842.5" y1="91.5" y2="137" />
<line marker-end="url(#arrowhead)" stroke="none" x1="1986.5" x2="1794.5" y1="91.5" y2="137" />
<line marker-end="url(#arrowhead)" stroke="none" x1="1890.5" x2="1746.5" y1="91.5" y2="137" />
<line marker-end="url(#arrowhead)" stroke="none" x1="1698.5" x2="1650.5" y1="91.5" y2="137" />
<line marker-end="url(#arrowhead)" stroke="none" x1="1602.5" x2="1602.5" y1="91.5" y2="137" />
<line marker-end="url(#arrowhead)" stroke="none" x1="1410.5" x2="1506.5" y1="91.5" y2="137" />
<line marker-end="url(#arrowhead)" stroke="none" x1="1314.5" x2="1458.5" y1="91.5" y2="137" />
<line marker-end="url(#arrowhead)" stroke="none" x1="1218.5" x2="1410.5" y1="91.5" y2="137" />
<line marker-end="url(#arrowhead)" stroke="none" x1="1122.5" x2="1362.5" y1="91.5" y2="137" />
<line marker-end="url(#arrowhead)" stroke="none" x1="1026.5" x2="1314.5" y1="91.5" y2="137" />
<line marker-end="url(#arrowhead)" stroke="none" x1="930.5" x2="1266.5" y1="91.5" y2="137" />
<line marker-end="url(#arrowhead)" stroke="none" x1="834.5" x2="1218.5" y1="91.5" y2="137" />
<line marker-end="url(#arrowhead)" stroke="none" x1="738.5" x2="1170.5" y1="91.5" y2="137" />
<line marker-end="url(#arrowhead)" stroke="none" x1="642.5" x2="1122.5" y1="91.5" y2="137" />
<line marker-end="url(#arrowhead)" stroke="none" x1="546.5" x2="1074.5" y1="91.5" y2="137" />
<line marker-end="url(#arrowhead)" stroke="none" x1="354.5" x2="978.5" y1="91.5" y2="137" />
<line marker-end="url(#arrowhead)" stroke="none" x1="162.5" x2="882.5" y1="91.5" y2="137" />
</svg>