<svg xmlns="http://www.w3.org/2000/svg" viewBox="0 0 1638 171">
<style>
.label { font: 14px Helvetica; dominant-baseline: middle; text-anchor: middle; }
.title-left { font: 12px Helvetica; dominant-baseline: middle; }
.title-right { font: 12px Helvetica; dominant-baseline: middle; text-anchor: end; }
.title-intrinsic { font: 12px Helvetica; dominant-baseline: middle; text-anchor: middle; fill: #6778ED; }
.title { font: 12px Helvetica; dominant-baseline: middle; text-anchor: middle; }
.title-unused { font: 12px Helvetica; dominant-baseline: middle; text-anchor: middle; fill: #AAA; }
.register-name { font: 14px Helvetica; dominant-baseline: middle; text-anchor: end; font-style: italic; }
.memory-name { font: 14px Helvetica; dominant-baseline: middle; text-anchor: end; }
.register-number { font: 14px Helvetica; dominant-baseline: middle; text-anchor: start; }
.intrinsic-name { font: 14px Helvetica; dominant-baseline: middle; text-anchor: end; fill: #6778ED; }
.intrinsic-color { fill: #6778ED; }
.small-label { font: 12px Helvetica; dominant-baseline: middle; text-anchor: middle; }
.label-10px { font: 10px Helvetica; dominant-baseline: middle; text-anchor: middle; }
.smaller-label { font: 9px Helvetica; dominant-baseline: middle; text-anchor: middle; }
.label-6px { font: 6px Helvetica; dominant-baseline: middle; text-anchor: middle; }
.label-7px { font: 7px Helvetica; dominant-baseline: middle; text-anchor: middle; }
.unused { fill: #AAA; }
.dim { fill: #888; }
</style>
<defs>
<marker id="arrowhead" markerWidth="10.75" markerHeight="24.5" refX="9.0" refY="6.125" orient="auto">
<polyline points="0.5 0.5, 8.75 6.125, 0.5 11.75" stroke="#567DB6" stroke-width="1" fill="none"/>
</marker>
</defs>
<line stroke="#567DB6" stroke-width="1" x1="1578.5" x2="1578.5" y1="43.5" y2="65.5" />
<line stroke="#567DB6" stroke-width="1" x1="1386.5" x2="1386.5" y1="43.5" y2="65.5" />
<line stroke="#567DB6" stroke-width="1" x1="1386.5" x2="1098.5" y1="91.5" y2="137" />
<line stroke="#567DB6" stroke-width="1" x1="1194.5" x2="1194.5" y1="43.5" y2="65.5" />
<line stroke="#567DB6" stroke-width="1" x1="1194.5" x2="1002.5" y1="91.5" y2="137" />
<line stroke="#567DB6" stroke-width="1" x1="1002.5" x2="1002.5" y1="43.5" y2="65.5" />
<line stroke="#567DB6" stroke-width="1" x1="810.5" x2="810.5" y1="43.5" y2="65.5" />
<line stroke="#567DB6" stroke-width="1" x1="810.5" x2="810.5" y1="91.5" y2="137" />
<line stroke="#567DB6" stroke-width="1" x1="618.5" x2="618.5" y1="43.5" y2="65.5" />
<line stroke="#567DB6" stroke-width="1" x1="618.5" x2="714.5" y1="91.5" y2="137" />
<line stroke="#567DB6" stroke-width="1" x1="426.5" x2="426.5" y1="43.5" y2="65.5" />
<line stroke="#567DB6" stroke-width="1" x1="234.5" x2="234.5" y1="43.5" y2="65.5" />
<line stroke="#567DB6" stroke-width="1" x1="234.5" x2="522.5" y1="91.5" y2="137" />
<text class="title-left" x="90.5" y="9.5">upper</text>
<text class="title-right" x="1626.5" y="9.5">lower</text>
<rect fill="#DEE6F1" height="24" width="96" x="1530.5" y="18.5" />
<rect fill="none" height="24" stroke="#405C86" stroke-width="3" width="192" x="1434.5" y="18.5" />
<rect fill="#DEE6F1" height="24" width="96" x="1338.5" y="18.5" />
<rect fill="none" height="24" stroke="#405C86" stroke-width="3" width="192" x="1242.5" y="18.5" />
<rect fill="#DEE6F1" height="24" width="96" x="1146.5" y="18.5" />
<rect fill="none" height="24" stroke="#405C86" stroke-width="3" width="192" x="1050.5" y="18.5" />
<rect fill="#DEE6F1" height="24" width="96" x="954.5" y="18.5" />
<rect fill="none" height="24" stroke="#405C86" stroke-width="3" width="192" x="858.5" y="18.5" />
<rect fill="#DEE6F1" height="24" width="96" x="762.5" y="18.5" />
<rect fill="none" height="24" stroke="#405C86" stroke-width="3" width="192" x="666.5" y="18.5" />
<rect fill="#DEE6F1" height="24" width="96" x="570.5" y="18.5" />
<rect fill="none" height="24" stroke="#405C86" stroke-width="3" width="192" x="474.5" y="18.5" />
<rect fill="#DEE6F1" height="24" width="96" x="378.5" y="18.5" />
<rect fill="none" height="24" stroke="#405C86" stroke-width="3" width="192" x="282.5" y="18.5" />
<rect fill="#DEE6F1" height="24" width="96" x="186.5" y="18.5" />
<rect fill="none" height="24" stroke="#405C86" stroke-width="3" width="192" x="90.5" y="18.5" />
<text class="register-name" x="80.5" y="30.5">Zt</text>
<text class="intrinsic-name" x="80.5" y="42.5">value</text>
<text class="register-number" x="10" y="30.5">(1)</text>
<rect fill="none" height="24" stroke="#405C86" stroke-width="3" width="12" x="1572.5" y="66.5" />
<text class="label" x="1578.5" y="79.5">0</text>
<rect fill="none" height="24" stroke="#405C86" stroke-dasharray="3 1" stroke-dashoffset="1.5" stroke-width="1" width="12" x="1560.5" y="66.5" />
<text class="label unused" x="1566.5" y="79.5"></text>
<rect fill="none" height="24" stroke="#405C86" stroke-dasharray="3 1" stroke-dashoffset="1.5" stroke-width="1" width="12" x="1548.5" y="66.5" />
<text class="label unused" x="1554.5" y="79.5"></text>
<rect fill="none" height="24" stroke="#405C86" stroke-dasharray="3 1" stroke-dashoffset="1.5" stroke-width="1" width="12" x="1536.5" y="66.5" />
<text class="label unused" x="1542.5" y="79.5"></text>
<rect fill="none" height="24" stroke="#405C86" stroke-dasharray="3 1" stroke-dashoffset="1.5" stroke-width="1" width="12" x="1524.5" y="66.5" />
<text class="label unused" x="1530.5" y="79.5"></text>
<rect fill="none" height="24" stroke="#405C86" stroke-dasharray="3 1" stroke-dashoffset="1.5" stroke-width="1" width="12" x="1512.5" y="66.5" />
<text class="label unused" x="1518.5" y="79.5"></text>
<rect fill="none" height="24" stroke="#405C86" stroke-dasharray="3 1" stroke-dashoffset="1.5" stroke-width="1" width="12" x="1500.5" y="66.5" />
<text class="label unused" x="1506.5" y="79.5"></text>
<rect fill="none" height="24" stroke="#405C86" stroke-dasharray="3 1" stroke-dashoffset="1.5" stroke-width="1" width="12" x="1488.5" y="66.5" />
<text class="label unused" x="1494.5" y="79.5"></text>
<rect fill="#DEE6F1" height="24" width="12" x="1380.5" y="66.5" />
<rect fill="none" height="24" stroke="#405C86" stroke-width="3" width="12" x="1380.5" y="66.5" />
<text class="label" x="1386.5" y="79.5">1</text>
<rect fill="none" height="24" stroke="#405C86" stroke-dasharray="3 1" stroke-dashoffset="1.5" stroke-width="1" width="12" x="1368.5" y="66.5" />
<text class="label unused" x="1374.5" y="79.5"></text>
<rect fill="none" height="24" stroke="#405C86" stroke-dasharray="3 1" stroke-dashoffset="1.5" stroke-width="1" width="12" x="1356.5" y="66.5" />
<text class="label unused" x="1362.5" y="79.5"></text>
<rect fill="none" height="24" stroke="#405C86" stroke-dasharray="3 1" stroke-dashoffset="1.5" stroke-width="1" width="12" x="1344.5" y="66.5" />
<text class="label unused" x="1350.5" y="79.5"></text>
<rect fill="none" height="24" stroke="#405C86" stroke-dasharray="3 1" stroke-dashoffset="1.5" stroke-width="1" width="12" x="1332.5" y="66.5" />
<text class="label unused" x="1338.5" y="79.5"></text>
<rect fill="none" height="24" stroke="#405C86" stroke-dasharray="3 1" stroke-dashoffset="1.5" stroke-width="1" width="12" x="1320.5" y="66.5" />
<text class="label unused" x="1326.5" y="79.5"></text>
<rect fill="none" height="24" stroke="#405C86" stroke-dasharray="3 1" stroke-dashoffset="1.5" stroke-width="1" width="12" x="1308.5" y="66.5" />
<text class="label unused" x="1314.5" y="79.5"></text>
<rect fill="none" height="24" stroke="#405C86" stroke-dasharray="3 1" stroke-dashoffset="1.5" stroke-width="1" width="12" x="1296.5" y="66.5" />
<text class="label unused" x="1302.5" y="79.5"></text>
<rect fill="#DEE6F1" height="24" width="12" x="1188.5" y="66.5" />
<rect fill="none" height="24" stroke="#405C86" stroke-width="3" width="12" x="1188.5" y="66.5" />
<text class="label" x="1194.5" y="79.5">1</text>
<rect fill="none" height="24" stroke="#405C86" stroke-dasharray="3 1" stroke-dashoffset="1.5" stroke-width="1" width="12" x="1176.5" y="66.5" />
<text class="label unused" x="1182.5" y="79.5"></text>
<rect fill="none" height="24" stroke="#405C86" stroke-dasharray="3 1" stroke-dashoffset="1.5" stroke-width="1" width="12" x="1164.5" y="66.5" />
<text class="label unused" x="1170.5" y="79.5"></text>
<rect fill="none" height="24" stroke="#405C86" stroke-dasharray="3 1" stroke-dashoffset="1.5" stroke-width="1" width="12" x="1152.5" y="66.5" />
<text class="label unused" x="1158.5" y="79.5"></text>
<rect fill="none" height="24" stroke="#405C86" stroke-dasharray="3 1" stroke-dashoffset="1.5" stroke-width="1" width="12" x="1140.5" y="66.5" />
<text class="label unused" x="1146.5" y="79.5"></text>
<rect fill="none" height="24" stroke="#405C86" stroke-dasharray="3 1" stroke-dashoffset="1.5" stroke-width="1" width="12" x="1128.5" y="66.5" />
<text class="label unused" x="1134.5" y="79.5"></text>
<rect fill="none" height="24" stroke="#405C86" stroke-dasharray="3 1" stroke-dashoffset="1.5" stroke-width="1" width="12" x="1116.5" y="66.5" />
<text class="label unused" x="1122.5" y="79.5"></text>
<rect fill="none" height="24" stroke="#405C86" stroke-dasharray="3 1" stroke-dashoffset="1.5" stroke-width="1" width="12" x="1104.5" y="66.5" />
<text class="label unused" x="1110.5" y="79.5"></text>
<rect fill="none" height="24" stroke="#405C86" stroke-width="3" width="12" x="996.5" y="66.5" />
<text class="label" x="1002.5" y="79.5">0</text>
<rect fill="none" height="24" stroke="#405C86" stroke-dasharray="3 1" stroke-dashoffset="1.5" stroke-width="1" width="12" x="984.5" y="66.5" />
<text class="label unused" x="990.5" y="79.5"></text>
<rect fill="none" height="24" stroke="#405C86" stroke-dasharray="3 1" stroke-dashoffset="1.5" stroke-width="1" width="12" x="972.5" y="66.5" />
<text class="label unused" x="978.5" y="79.5"></text>
<rect fill="none" height="24" stroke="#405C86" stroke-dasharray="3 1" stroke-dashoffset="1.5" stroke-width="1" width="12" x="960.5" y="66.5" />
<text class="label unused" x="966.5" y="79.5"></text>
<rect fill="none" height="24" stroke="#405C86" stroke-dasharray="3 1" stroke-dashoffset="1.5" stroke-width="1" width="12" x="948.5" y="66.5" />
<text class="label unused" x="954.5" y="79.5"></text>
<rect fill="none" height="24" stroke="#405C86" stroke-dasharray="3 1" stroke-dashoffset="1.5" stroke-width="1" width="12" x="936.5" y="66.5" />
<text class="label unused" x="942.5" y="79.5"></text>
<rect fill="none" height="24" stroke="#405C86" stroke-dasharray="3 1" stroke-dashoffset="1.5" stroke-width="1" width="12" x="924.5" y="66.5" />
<text class="label unused" x="930.5" y="79.5"></text>
<rect fill="none" height="24" stroke="#405C86" stroke-dasharray="3 1" stroke-dashoffset="1.5" stroke-width="1" width="12" x="912.5" y="66.5" />
<text class="label unused" x="918.5" y="79.5"></text>
<rect fill="#DEE6F1" height="24" width="12" x="804.5" y="66.5" />
<rect fill="none" height="24" stroke="#405C86" stroke-width="3" width="12" x="804.5" y="66.5" />
<text class="label" x="810.5" y="79.5">1</text>
<rect fill="none" height="24" stroke="#405C86" stroke-dasharray="3 1" stroke-dashoffset="1.5" stroke-width="1" width="12" x="792.5" y="66.5" />
<text class="label unused" x="798.5" y="79.5"></text>
<rect fill="none" height="24" stroke="#405C86" stroke-dasharray="3 1" stroke-dashoffset="1.5" stroke-width="1" width="12" x="780.5" y="66.5" />
<text class="label unused" x="786.5" y="79.5"></text>
<rect fill="none" height="24" stroke="#405C86" stroke-dasharray="3 1" stroke-dashoffset="1.5" stroke-width="1" width="12" x="768.5" y="66.5" />
<text class="label unused" x="774.5" y="79.5"></text>
<rect fill="none" height="24" stroke="#405C86" stroke-dasharray="3 1" stroke-dashoffset="1.5" stroke-width="1" width="12" x="756.5" y="66.5" />
<text class="label unused" x="762.5" y="79.5"></text>
<rect fill="none" height="24" stroke="#405C86" stroke-dasharray="3 1" stroke-dashoffset="1.5" stroke-width="1" width="12" x="744.5" y="66.5" />
<text class="label unused" x="750.5" y="79.5"></text>
<rect fill="none" height="24" stroke="#405C86" stroke-dasharray="3 1" stroke-dashoffset="1.5" stroke-width="1" width="12" x="732.5" y="66.5" />
<text class="label unused" x="738.5" y="79.5"></text>
<rect fill="none" height="24" stroke="#405C86" stroke-dasharray="3 1" stroke-dashoffset="1.5" stroke-width="1" width="12" x="720.5" y="66.5" />
<text class="label unused" x="726.5" y="79.5"></text>
<rect fill="#DEE6F1" height="24" width="12" x="612.5" y="66.5" />
<rect fill="none" height="24" stroke="#405C86" stroke-width="3" width="12" x="612.5" y="66.5" />
<text class="label" x="618.5" y="79.5">1</text>
<rect fill="none" height="24" stroke="#405C86" stroke-dasharray="3 1" stroke-dashoffset="1.5" stroke-width="1" width="12" x="600.5" y="66.5" />
<text class="label unused" x="606.5" y="79.5"></text>
<rect fill="none" height="24" stroke="#405C86" stroke-dasharray="3 1" stroke-dashoffset="1.5" stroke-width="1" width="12" x="588.5" y="66.5" />
<text class="label unused" x="594.5" y="79.5"></text>
<rect fill="none" height="24" stroke="#405C86" stroke-dasharray="3 1" stroke-dashoffset="1.5" stroke-width="1" width="12" x="576.5" y="66.5" />
<text class="label unused" x="582.5" y="79.5"></text>
<rect fill="none" height="24" stroke="#405C86" stroke-dasharray="3 1" stroke-dashoffset="1.5" stroke-width="1" width="12" x="564.5" y="66.5" />
<text class="label unused" x="570.5" y="79.5"></text>
<rect fill="none" height="24" stroke="#405C86" stroke-dasharray="3 1" stroke-dashoffset="1.5" stroke-width="1" width="12" x="552.5" y="66.5" />
<text class="label unused" x="558.5" y="79.5"></text>
<rect fill="none" height="24" stroke="#405C86" stroke-dasharray="3 1" stroke-dashoffset="1.5" stroke-width="1" width="12" x="540.5" y="66.5" />
<text class="label unused" x="546.5" y="79.5"></text>
<rect fill="none" height="24" stroke="#405C86" stroke-dasharray="3 1" stroke-dashoffset="1.5" stroke-width="1" width="12" x="528.5" y="66.5" />
<text class="label unused" x="534.5" y="79.5"></text>
<rect fill="none" height="24" stroke="#405C86" stroke-width="3" width="12" x="420.5" y="66.5" />
<text class="label" x="426.5" y="79.5">0</text>
<rect fill="none" height="24" stroke="#405C86" stroke-dasharray="3 1" stroke-dashoffset="1.5" stroke-width="1" width="12" x="408.5" y="66.5" />
<text class="label unused" x="414.5" y="79.5"></text>
<rect fill="none" height="24" stroke="#405C86" stroke-dasharray="3 1" stroke-dashoffset="1.5" stroke-width="1" width="12" x="396.5" y="66.5" />
<text class="label unused" x="402.5" y="79.5"></text>
<rect fill="none" height="24" stroke="#405C86" stroke-dasharray="3 1" stroke-dashoffset="1.5" stroke-width="1" width="12" x="384.5" y="66.5" />
<text class="label unused" x="390.5" y="79.5"></text>
<rect fill="none" height="24" stroke="#405C86" stroke-dasharray="3 1" stroke-dashoffset="1.5" stroke-width="1" width="12" x="372.5" y="66.5" />
<text class="label unused" x="378.5" y="79.5"></text>
<rect fill="none" height="24" stroke="#405C86" stroke-dasharray="3 1" stroke-dashoffset="1.5" stroke-width="1" width="12" x="360.5" y="66.5" />
<text class="label unused" x="366.5" y="79.5"></text>
<rect fill="none" height="24" stroke="#405C86" stroke-dasharray="3 1" stroke-dashoffset="1.5" stroke-width="1" width="12" x="348.5" y="66.5" />
<text class="label unused" x="354.5" y="79.5"></text>
<rect fill="none" height="24" stroke="#405C86" stroke-dasharray="3 1" stroke-dashoffset="1.5" stroke-width="1" width="12" x="336.5" y="66.5" />
<text class="label unused" x="342.5" y="79.5"></text>
<rect fill="#DEE6F1" height="24" width="12" x="228.5" y="66.5" />
<rect fill="none" height="24" stroke="#405C86" stroke-width="3" width="12" x="228.5" y="66.5" />
<text class="label" x="234.5" y="79.5">1</text>
<rect fill="none" height="24" stroke="#405C86" stroke-dasharray="3 1" stroke-dashoffset="1.5" stroke-width="1" width="12" x="216.5" y="66.5" />
<text class="label unused" x="222.5" y="79.5"></text>
<rect fill="none" height="24" stroke="#405C86" stroke-dasharray="3 1" stroke-dashoffset="1.5" stroke-width="1" width="12" x="204.5" y="66.5" />
<text class="label unused" x="210.5" y="79.5"></text>
<rect fill="none" height="24" stroke="#405C86" stroke-dasharray="3 1" stroke-dashoffset="1.5" stroke-width="1" width="12" x="192.5" y="66.5" />
<text class="label unused" x="198.5" y="79.5"></text>
<rect fill="none" height="24" stroke="#405C86" stroke-dasharray="3 1" stroke-dashoffset="1.5" stroke-width="1" width="12" x="180.5" y="66.5" />
<text class="label unused" x="186.5" y="79.5"></text>
<rect fill="none" height="24" stroke="#405C86" stroke-dasharray="3 1" stroke-dashoffset="1.5" stroke-width="1" width="12" x="168.5" y="66.5" />
<text class="label unused" x="174.5" y="79.5"></text>
<rect fill="none" height="24" stroke="#405C86" stroke-dasharray="3 1" stroke-dashoffset="1.5" stroke-width="1" width="12" x="156.5" y="66.5" />
<text class="label unused" x="162.5" y="79.5"></text>
<rect fill="none" height="24" stroke="#405C86" stroke-dasharray="3 1" stroke-dashoffset="1.5" stroke-width="1" width="12" x="144.5" y="66.5" />
<text class="label unused" x="150.5" y="79.5"></text>
<text class="register-name" x="80.5" y="78.5">Pg</text>
<text class="intrinsic-name" x="80.5" y="90.5">pg</text>
<text class="register-number" x="10" y="78.5">(2)</text>
<rect fill="none" height="24" stroke="#405C86" stroke-dasharray="3 1" stroke-dashoffset="1.5" stroke-width="1" width="96" x="1146.5" y="138.5" />
<text class="small-label intrinsic-color" x="1194.5" y="151.5">base[0]</text>
<rect fill="#DEE6F1" height="24" width="96" x="1050.5" y="138.5" />
<rect fill="none" height="24" stroke="#405C86" stroke-width="3" width="96" x="1050.5" y="138.5" />
<text class="small-label intrinsic-color" x="1098.5" y="151.5">base[1]</text>
<rect fill="#DEE6F1" height="24" width="96" x="954.5" y="138.5" />
<rect fill="none" height="24" stroke="#405C86" stroke-width="3" width="96" x="954.5" y="138.5" />
<text class="small-label intrinsic-color" x="1002.5" y="151.5">base[2]</text>
<rect fill="none" height="24" stroke="#405C86" stroke-dasharray="3 1" stroke-dashoffset="1.5" stroke-width="1" width="96" x="858.5" y="138.5" />
<text class="small-label intrinsic-color" x="906.5" y="151.5">base[3]</text>
<rect fill="#DEE6F1" height="24" width="96" x="762.5" y="138.5" />
<rect fill="none" height="24" stroke="#405C86" stroke-width="3" width="96" x="762.5" y="138.5" />
<text class="small-label intrinsic-color" x="810.5" y="151.5">base[4]</text>
<rect fill="#DEE6F1" height="24" width="96" x="666.5" y="138.5" />
<rect fill="none" height="24" stroke="#405C86" stroke-width="3" width="96" x="666.5" y="138.5" />
<text class="small-label intrinsic-color" x="714.5" y="151.5">base[5]</text>
<rect fill="none" height="24" stroke="#405C86" stroke-dasharray="3 1" stroke-dashoffset="1.5" stroke-width="1" width="96" x="570.5" y="138.5" />
<text class="small-label intrinsic-color" x="618.5" y="151.5">base[6]</text>
<rect fill="#DEE6F1" height="24" width="96" x="474.5" y="138.5" />
<rect fill="none" height="24" stroke="#405C86" stroke-width="3" width="96" x="474.5" y="138.5" />
<text class="small-label intrinsic-color" x="522.5" y="151.5">base[7]</text>
<text class="register-name" x="80.5" y="150.5">Zt</text>
<text class="intrinsic-name" x="80.5" y="162.5">value</text>
<text class="register-number" x="10" y="150.5">(3)</text>
<line marker-end="url(#arrowhead)" stroke="none" x1="1386.5" x2="1098.5" y1="91.5" y2="137" />
<line marker-end="url(#arrowhead)" stroke="none" x1="1194.5" x2="1002.5" y1="91.5" y2="137" />
<line marker-end="url(#arrowhead)" stroke="none" x1="810.5" x2="810.5" y1="91.5" y2="137" />
<line marker-end="url(#arrowhead)" stroke="none" x1="618.5" x2="714.5" y1="91.5" y2="137" />
<line marker-end="url(#arrowhead)" stroke="none" x1="234.5" x2="522.5" y1="91.5" y2="137" />
</svg>