<svg xmlns="http://www.w3.org/2000/svg" viewBox="0 0 3174 339">
<style>
.label { font: 14px Helvetica; dominant-baseline: middle; text-anchor: middle; }
.title-left { font: 12px Helvetica; dominant-baseline: middle; }
.title-right { font: 12px Helvetica; dominant-baseline: middle; text-anchor: end; }
.title-intrinsic { font: 12px Helvetica; dominant-baseline: middle; text-anchor: middle; fill: #6778ED; }
.title { font: 12px Helvetica; dominant-baseline: middle; text-anchor: middle; }
.title-unused { font: 12px Helvetica; dominant-baseline: middle; text-anchor: middle; fill: #AAA; }
.register-name { font: 14px Helvetica; dominant-baseline: middle; text-anchor: end; font-style: italic; }
.memory-name { font: 14px Helvetica; dominant-baseline: middle; text-anchor: end; }
.register-number { font: 14px Helvetica; dominant-baseline: middle; text-anchor: start; }
.intrinsic-name { font: 14px Helvetica; dominant-baseline: middle; text-anchor: end; fill: #6778ED; }
.intrinsic-color { fill: #6778ED; }
.small-label { font: 12px Helvetica; dominant-baseline: middle; text-anchor: middle; }
.label-10px { font: 10px Helvetica; dominant-baseline: middle; text-anchor: middle; }
.smaller-label { font: 9px Helvetica; dominant-baseline: middle; text-anchor: middle; }
.label-6px { font: 6px Helvetica; dominant-baseline: middle; text-anchor: middle; }
.label-7px { font: 7px Helvetica; dominant-baseline: middle; text-anchor: middle; }
.unused { fill: #AAA; }
.dim { fill: #888; }
</style>
<defs>
<marker id="arrowhead" markerWidth="10.75" markerHeight="24.5" refX="9.0" refY="6.125" orient="auto">
<polyline points="0.5 0.5, 8.75 6.125, 0.5 11.75" stroke="#567DB6" stroke-width="1" fill="none"/>
</marker>
</defs>
<text class="title-left" x="90.5" y="9.5">upper</text>
<text class="title-right" x="3162.5" y="9.5">lower</text>
<rect fill="#DEE6F1" height="24" width="384" x="2778.5" y="234.5" />
<rect fill="none" height="24" stroke="#405C86" stroke-width="3" width="384" x="2778.5" y="234.5" />
<text class="small-label intrinsic-color" x="2970.5" y="247.5">base[0]</text>
<rect fill="#EEDDDB" height="24" width="384" x="2394.5" y="234.5" />
<rect fill="none" height="24" stroke="#405C86" stroke-width="3" width="384" x="2394.5" y="234.5" />
<text class="small-label intrinsic-color" x="2586.5" y="247.5">base[1]</text>
<rect fill="#ECF1E0" height="24" width="384" x="2010.5" y="234.5" />
<rect fill="none" height="24" stroke="#405C86" stroke-width="3" width="384" x="2010.5" y="234.5" />
<text class="small-label intrinsic-color" x="2202.5" y="247.5">base[2]</text>
<rect fill="#DEE6F1" height="24" width="384" x="1626.5" y="234.5" />
<rect fill="none" height="24" stroke="#405C86" stroke-width="3" width="384" x="1626.5" y="234.5" />
<text class="small-label intrinsic-color" x="1818.5" y="247.5">base[3]</text>
<rect fill="#EEDDDB" height="24" width="384" x="1242.5" y="234.5" />
<rect fill="none" height="24" stroke="#405C86" stroke-width="3" width="384" x="1242.5" y="234.5" />
<text class="small-label intrinsic-color" x="1434.5" y="247.5">base[4]</text>
<rect fill="#ECF1E0" height="24" width="384" x="858.5" y="234.5" />
<rect fill="none" height="24" stroke="#405C86" stroke-width="3" width="384" x="858.5" y="234.5" />
<text class="small-label intrinsic-color" x="1050.5" y="247.5">base[5]</text>
<rect fill="#DEE6F1" height="24" width="384" x="474.5" y="234.5" />
<rect fill="none" height="24" stroke="#405C86" stroke-width="3" width="384" x="474.5" y="234.5" />
<text class="small-label intrinsic-color" x="666.5" y="247.5">base[6]</text>
<rect fill="#EEDDDB" height="24" width="384" x="90.5" y="234.5" />
<rect fill="none" height="24" stroke="#405C86" stroke-width="3" width="384" x="90.5" y="234.5" />
<text class="small-label intrinsic-color" x="282.5" y="247.5">base[7]</text>
<text class="register-name" x="80.5" y="246.5">[mem]</text>
<text class="intrinsic-name" x="80.5" y="258.5">*base</text>
<text class="register-number" x="10" y="246.5">(5)</text>
<rect fill="#ECF1E0" height="24" width="384" x="2778.5" y="270.5" />
<rect fill="none" height="24" stroke="#405C86" stroke-width="3" width="384" x="2778.5" y="270.5" />
<text class="small-label intrinsic-color" x="2970.5" y="283.5">base[8]</text>
<rect fill="#DEE6F1" height="24" width="384" x="2394.5" y="270.5" />
<rect fill="none" height="24" stroke="#405C86" stroke-width="3" width="384" x="2394.5" y="270.5" />
<text class="small-label intrinsic-color" x="2586.5" y="283.5">base[9]</text>
<rect fill="#EEDDDB" height="24" width="384" x="2010.5" y="270.5" />
<rect fill="none" height="24" stroke="#405C86" stroke-width="3" width="384" x="2010.5" y="270.5" />
<text class="small-label intrinsic-color" x="2202.5" y="283.5">base[10]</text>
<rect fill="#ECF1E0" height="24" width="384" x="1626.5" y="270.5" />
<rect fill="none" height="24" stroke="#405C86" stroke-width="3" width="384" x="1626.5" y="270.5" />
<text class="small-label intrinsic-color" x="1818.5" y="283.5">base[11]</text>
<rect fill="#DEE6F1" height="24" width="384" x="1242.5" y="270.5" />
<rect fill="none" height="24" stroke="#405C86" stroke-width="3" width="384" x="1242.5" y="270.5" />
<text class="small-label intrinsic-color" x="1434.5" y="283.5">base[12]</text>
<rect fill="#EEDDDB" height="24" width="384" x="858.5" y="270.5" />
<rect fill="none" height="24" stroke="#405C86" stroke-width="3" width="384" x="858.5" y="270.5" />
<text class="small-label intrinsic-color" x="1050.5" y="283.5">base[13]</text>
<rect fill="#ECF1E0" height="24" width="384" x="474.5" y="270.5" />
<rect fill="none" height="24" stroke="#405C86" stroke-width="3" width="384" x="474.5" y="270.5" />
<text class="small-label intrinsic-color" x="666.5" y="283.5">base[14]</text>
<rect fill="#DEE6F1" height="24" width="384" x="90.5" y="270.5" />
<rect fill="none" height="24" stroke="#405C86" stroke-width="3" width="384" x="90.5" y="270.5" />
<text class="small-label intrinsic-color" x="282.5" y="283.5">base[15]</text>
<rect fill="#EEDDDB" height="24" width="384" x="2778.5" y="306.5" />
<rect fill="none" height="24" stroke="#405C86" stroke-width="3" width="384" x="2778.5" y="306.5" />
<text class="small-label intrinsic-color" x="2970.5" y="319.5">base[16]</text>
<rect fill="#ECF1E0" height="24" width="384" x="2394.5" y="306.5" />
<rect fill="none" height="24" stroke="#405C86" stroke-width="3" width="384" x="2394.5" y="306.5" />
<text class="small-label intrinsic-color" x="2586.5" y="319.5">base[17]</text>
<rect fill="#DEE6F1" height="24" width="384" x="2010.5" y="306.5" />
<rect fill="none" height="24" stroke="#405C86" stroke-width="3" width="384" x="2010.5" y="306.5" />
<text class="small-label intrinsic-color" x="2202.5" y="319.5">base[18]</text>
<rect fill="#EEDDDB" height="24" width="384" x="1626.5" y="306.5" />
<rect fill="none" height="24" stroke="#405C86" stroke-width="3" width="384" x="1626.5" y="306.5" />
<text class="small-label intrinsic-color" x="1818.5" y="319.5">base[19]</text>
<rect fill="#ECF1E0" height="24" width="384" x="1242.5" y="306.5" />
<rect fill="none" height="24" stroke="#405C86" stroke-width="3" width="384" x="1242.5" y="306.5" />
<text class="small-label intrinsic-color" x="1434.5" y="319.5">base[20]</text>
<rect fill="#DEE6F1" height="24" width="384" x="858.5" y="306.5" />
<rect fill="none" height="24" stroke="#405C86" stroke-width="3" width="384" x="858.5" y="306.5" />
<text class="small-label intrinsic-color" x="1050.5" y="319.5">base[21]</text>
<rect fill="#EEDDDB" height="24" width="384" x="474.5" y="306.5" />
<rect fill="none" height="24" stroke="#405C86" stroke-width="3" width="384" x="474.5" y="306.5" />
<text class="small-label intrinsic-color" x="666.5" y="319.5">base[22]</text>
<rect fill="#ECF1E0" height="24" width="384" x="90.5" y="306.5" />
<rect fill="none" height="24" stroke="#405C86" stroke-width="3" width="384" x="90.5" y="306.5" />
<text class="small-label intrinsic-color" x="282.5" y="319.5">base[23]</text>
<rect fill="#DEE6F1" height="24" width="12" x="2964.5" y="18.5" />
<rect fill="none" height="24" stroke="#405C86" stroke-width="3" width="12" x="2964.5" y="18.5" />
<rect fill="none" height="24" stroke="#405C86" stroke-dasharray="3 1" stroke-dashoffset="1.5" stroke-width="1" width="12" x="2952.5" y="18.5" />
<text class="label unused" x="2958.5" y="31.5"></text>
<rect fill="none" height="24" stroke="#405C86" stroke-dasharray="3 1" stroke-dashoffset="1.5" stroke-width="1" width="12" x="2940.5" y="18.5" />
<text class="label unused" x="2946.5" y="31.5"></text>
<rect fill="none" height="24" stroke="#405C86" stroke-dasharray="3 1" stroke-dashoffset="1.5" stroke-width="1" width="12" x="2928.5" y="18.5" />
<text class="label unused" x="2934.5" y="31.5"></text>
<rect fill="none" height="24" stroke="#405C86" stroke-dasharray="3 1" stroke-dashoffset="1.5" stroke-width="1" width="12" x="2916.5" y="18.5" />
<text class="label unused" x="2922.5" y="31.5"></text>
<rect fill="none" height="24" stroke="#405C86" stroke-dasharray="3 1" stroke-dashoffset="1.5" stroke-width="1" width="12" x="2904.5" y="18.5" />
<text class="label unused" x="2910.5" y="31.5"></text>
<rect fill="none" height="24" stroke="#405C86" stroke-dasharray="3 1" stroke-dashoffset="1.5" stroke-width="1" width="12" x="2892.5" y="18.5" />
<text class="label unused" x="2898.5" y="31.5"></text>
<rect fill="none" height="24" stroke="#405C86" stroke-dasharray="3 1" stroke-dashoffset="1.5" stroke-width="1" width="12" x="2880.5" y="18.5" />
<text class="label unused" x="2886.5" y="31.5"></text>
<rect fill="none" height="24" stroke="#405C86" stroke-dasharray="3 1" stroke-dashoffset="1.5" stroke-width="1" width="12" x="2868.5" y="18.5" />
<text class="label unused" x="2874.5" y="31.5"></text>
<rect fill="none" height="24" stroke="#405C86" stroke-dasharray="3 1" stroke-dashoffset="1.5" stroke-width="1" width="12" x="2856.5" y="18.5" />
<text class="label unused" x="2862.5" y="31.5"></text>
<rect fill="none" height="24" stroke="#405C86" stroke-dasharray="3 1" stroke-dashoffset="1.5" stroke-width="1" width="12" x="2844.5" y="18.5" />
<text class="label unused" x="2850.5" y="31.5"></text>
<rect fill="none" height="24" stroke="#405C86" stroke-dasharray="3 1" stroke-dashoffset="1.5" stroke-width="1" width="12" x="2832.5" y="18.5" />
<text class="label unused" x="2838.5" y="31.5"></text>
<rect fill="none" height="24" stroke="#405C86" stroke-dasharray="3 1" stroke-dashoffset="1.5" stroke-width="1" width="12" x="2820.5" y="18.5" />
<text class="label unused" x="2826.5" y="31.5"></text>
<rect fill="none" height="24" stroke="#405C86" stroke-dasharray="3 1" stroke-dashoffset="1.5" stroke-width="1" width="12" x="2808.5" y="18.5" />
<text class="label unused" x="2814.5" y="31.5"></text>
<rect fill="none" height="24" stroke="#405C86" stroke-dasharray="3 1" stroke-dashoffset="1.5" stroke-width="1" width="12" x="2796.5" y="18.5" />
<text class="label unused" x="2802.5" y="31.5"></text>
<rect fill="none" height="24" stroke="#405C86" stroke-dasharray="3 1" stroke-dashoffset="1.5" stroke-width="1" width="12" x="2784.5" y="18.5" />
<text class="label unused" x="2790.5" y="31.5"></text>
<rect fill="#DEE6F1" height="24" width="12" x="2580.5" y="18.5" />
<rect fill="none" height="24" stroke="#405C86" stroke-width="3" width="12" x="2580.5" y="18.5" />
<rect fill="none" height="24" stroke="#405C86" stroke-dasharray="3 1" stroke-dashoffset="1.5" stroke-width="1" width="12" x="2568.5" y="18.5" />
<text class="label unused" x="2574.5" y="31.5"></text>
<rect fill="none" height="24" stroke="#405C86" stroke-dasharray="3 1" stroke-dashoffset="1.5" stroke-width="1" width="12" x="2556.5" y="18.5" />
<text class="label unused" x="2562.5" y="31.5"></text>
<rect fill="none" height="24" stroke="#405C86" stroke-dasharray="3 1" stroke-dashoffset="1.5" stroke-width="1" width="12" x="2544.5" y="18.5" />
<text class="label unused" x="2550.5" y="31.5"></text>
<rect fill="none" height="24" stroke="#405C86" stroke-dasharray="3 1" stroke-dashoffset="1.5" stroke-width="1" width="12" x="2532.5" y="18.5" />
<text class="label unused" x="2538.5" y="31.5"></text>
<rect fill="none" height="24" stroke="#405C86" stroke-dasharray="3 1" stroke-dashoffset="1.5" stroke-width="1" width="12" x="2520.5" y="18.5" />
<text class="label unused" x="2526.5" y="31.5"></text>
<rect fill="none" height="24" stroke="#405C86" stroke-dasharray="3 1" stroke-dashoffset="1.5" stroke-width="1" width="12" x="2508.5" y="18.5" />
<text class="label unused" x="2514.5" y="31.5"></text>
<rect fill="none" height="24" stroke="#405C86" stroke-dasharray="3 1" stroke-dashoffset="1.5" stroke-width="1" width="12" x="2496.5" y="18.5" />
<text class="label unused" x="2502.5" y="31.5"></text>
<rect fill="none" height="24" stroke="#405C86" stroke-dasharray="3 1" stroke-dashoffset="1.5" stroke-width="1" width="12" x="2484.5" y="18.5" />
<text class="label unused" x="2490.5" y="31.5"></text>
<rect fill="none" height="24" stroke="#405C86" stroke-dasharray="3 1" stroke-dashoffset="1.5" stroke-width="1" width="12" x="2472.5" y="18.5" />
<text class="label unused" x="2478.5" y="31.5"></text>
<rect fill="none" height="24" stroke="#405C86" stroke-dasharray="3 1" stroke-dashoffset="1.5" stroke-width="1" width="12" x="2460.5" y="18.5" />
<text class="label unused" x="2466.5" y="31.5"></text>
<rect fill="none" height="24" stroke="#405C86" stroke-dasharray="3 1" stroke-dashoffset="1.5" stroke-width="1" width="12" x="2448.5" y="18.5" />
<text class="label unused" x="2454.5" y="31.5"></text>
<rect fill="none" height="24" stroke="#405C86" stroke-dasharray="3 1" stroke-dashoffset="1.5" stroke-width="1" width="12" x="2436.5" y="18.5" />
<text class="label unused" x="2442.5" y="31.5"></text>
<rect fill="none" height="24" stroke="#405C86" stroke-dasharray="3 1" stroke-dashoffset="1.5" stroke-width="1" width="12" x="2424.5" y="18.5" />
<text class="label unused" x="2430.5" y="31.5"></text>
<rect fill="none" height="24" stroke="#405C86" stroke-dasharray="3 1" stroke-dashoffset="1.5" stroke-width="1" width="12" x="2412.5" y="18.5" />
<text class="label unused" x="2418.5" y="31.5"></text>
<rect fill="none" height="24" stroke="#405C86" stroke-dasharray="3 1" stroke-dashoffset="1.5" stroke-width="1" width="12" x="2400.5" y="18.5" />
<text class="label unused" x="2406.5" y="31.5"></text>
<rect fill="#DEE6F1" height="24" width="12" x="2196.5" y="18.5" />
<rect fill="none" height="24" stroke="#405C86" stroke-width="3" width="12" x="2196.5" y="18.5" />
<rect fill="none" height="24" stroke="#405C86" stroke-dasharray="3 1" stroke-dashoffset="1.5" stroke-width="1" width="12" x="2184.5" y="18.5" />
<text class="label unused" x="2190.5" y="31.5"></text>
<rect fill="none" height="24" stroke="#405C86" stroke-dasharray="3 1" stroke-dashoffset="1.5" stroke-width="1" width="12" x="2172.5" y="18.5" />
<text class="label unused" x="2178.5" y="31.5"></text>
<rect fill="none" height="24" stroke="#405C86" stroke-dasharray="3 1" stroke-dashoffset="1.5" stroke-width="1" width="12" x="2160.5" y="18.5" />
<text class="label unused" x="2166.5" y="31.5"></text>
<rect fill="none" height="24" stroke="#405C86" stroke-dasharray="3 1" stroke-dashoffset="1.5" stroke-width="1" width="12" x="2148.5" y="18.5" />
<text class="label unused" x="2154.5" y="31.5"></text>
<rect fill="none" height="24" stroke="#405C86" stroke-dasharray="3 1" stroke-dashoffset="1.5" stroke-width="1" width="12" x="2136.5" y="18.5" />
<text class="label unused" x="2142.5" y="31.5"></text>
<rect fill="none" height="24" stroke="#405C86" stroke-dasharray="3 1" stroke-dashoffset="1.5" stroke-width="1" width="12" x="2124.5" y="18.5" />
<text class="label unused" x="2130.5" y="31.5"></text>
<rect fill="none" height="24" stroke="#405C86" stroke-dasharray="3 1" stroke-dashoffset="1.5" stroke-width="1" width="12" x="2112.5" y="18.5" />
<text class="label unused" x="2118.5" y="31.5"></text>
<rect fill="none" height="24" stroke="#405C86" stroke-dasharray="3 1" stroke-dashoffset="1.5" stroke-width="1" width="12" x="2100.5" y="18.5" />
<text class="label unused" x="2106.5" y="31.5"></text>
<rect fill="none" height="24" stroke="#405C86" stroke-dasharray="3 1" stroke-dashoffset="1.5" stroke-width="1" width="12" x="2088.5" y="18.5" />
<text class="label unused" x="2094.5" y="31.5"></text>
<rect fill="none" height="24" stroke="#405C86" stroke-dasharray="3 1" stroke-dashoffset="1.5" stroke-width="1" width="12" x="2076.5" y="18.5" />
<text class="label unused" x="2082.5" y="31.5"></text>
<rect fill="none" height="24" stroke="#405C86" stroke-dasharray="3 1" stroke-dashoffset="1.5" stroke-width="1" width="12" x="2064.5" y="18.5" />
<text class="label unused" x="2070.5" y="31.5"></text>
<rect fill="none" height="24" stroke="#405C86" stroke-dasharray="3 1" stroke-dashoffset="1.5" stroke-width="1" width="12" x="2052.5" y="18.5" />
<text class="label unused" x="2058.5" y="31.5"></text>
<rect fill="none" height="24" stroke="#405C86" stroke-dasharray="3 1" stroke-dashoffset="1.5" stroke-width="1" width="12" x="2040.5" y="18.5" />
<text class="label unused" x="2046.5" y="31.5"></text>
<rect fill="none" height="24" stroke="#405C86" stroke-dasharray="3 1" stroke-dashoffset="1.5" stroke-width="1" width="12" x="2028.5" y="18.5" />
<text class="label unused" x="2034.5" y="31.5"></text>
<rect fill="none" height="24" stroke="#405C86" stroke-dasharray="3 1" stroke-dashoffset="1.5" stroke-width="1" width="12" x="2016.5" y="18.5" />
<text class="label unused" x="2022.5" y="31.5"></text>
<rect fill="#DEE6F1" height="24" width="12" x="1812.5" y="18.5" />
<rect fill="none" height="24" stroke="#405C86" stroke-width="3" width="12" x="1812.5" y="18.5" />
<rect fill="none" height="24" stroke="#405C86" stroke-dasharray="3 1" stroke-dashoffset="1.5" stroke-width="1" width="12" x="1800.5" y="18.5" />
<text class="label unused" x="1806.5" y="31.5"></text>
<rect fill="none" height="24" stroke="#405C86" stroke-dasharray="3 1" stroke-dashoffset="1.5" stroke-width="1" width="12" x="1788.5" y="18.5" />
<text class="label unused" x="1794.5" y="31.5"></text>
<rect fill="none" height="24" stroke="#405C86" stroke-dasharray="3 1" stroke-dashoffset="1.5" stroke-width="1" width="12" x="1776.5" y="18.5" />
<text class="label unused" x="1782.5" y="31.5"></text>
<rect fill="none" height="24" stroke="#405C86" stroke-dasharray="3 1" stroke-dashoffset="1.5" stroke-width="1" width="12" x="1764.5" y="18.5" />
<text class="label unused" x="1770.5" y="31.5"></text>
<rect fill="none" height="24" stroke="#405C86" stroke-dasharray="3 1" stroke-dashoffset="1.5" stroke-width="1" width="12" x="1752.5" y="18.5" />
<text class="label unused" x="1758.5" y="31.5"></text>
<rect fill="none" height="24" stroke="#405C86" stroke-dasharray="3 1" stroke-dashoffset="1.5" stroke-width="1" width="12" x="1740.5" y="18.5" />
<text class="label unused" x="1746.5" y="31.5"></text>
<rect fill="none" height="24" stroke="#405C86" stroke-dasharray="3 1" stroke-dashoffset="1.5" stroke-width="1" width="12" x="1728.5" y="18.5" />
<text class="label unused" x="1734.5" y="31.5"></text>
<rect fill="none" height="24" stroke="#405C86" stroke-dasharray="3 1" stroke-dashoffset="1.5" stroke-width="1" width="12" x="1716.5" y="18.5" />
<text class="label unused" x="1722.5" y="31.5"></text>
<rect fill="none" height="24" stroke="#405C86" stroke-dasharray="3 1" stroke-dashoffset="1.5" stroke-width="1" width="12" x="1704.5" y="18.5" />
<text class="label unused" x="1710.5" y="31.5"></text>
<rect fill="none" height="24" stroke="#405C86" stroke-dasharray="3 1" stroke-dashoffset="1.5" stroke-width="1" width="12" x="1692.5" y="18.5" />
<text class="label unused" x="1698.5" y="31.5"></text>
<rect fill="none" height="24" stroke="#405C86" stroke-dasharray="3 1" stroke-dashoffset="1.5" stroke-width="1" width="12" x="1680.5" y="18.5" />
<text class="label unused" x="1686.5" y="31.5"></text>
<rect fill="none" height="24" stroke="#405C86" stroke-dasharray="3 1" stroke-dashoffset="1.5" stroke-width="1" width="12" x="1668.5" y="18.5" />
<text class="label unused" x="1674.5" y="31.5"></text>
<rect fill="none" height="24" stroke="#405C86" stroke-dasharray="3 1" stroke-dashoffset="1.5" stroke-width="1" width="12" x="1656.5" y="18.5" />
<text class="label unused" x="1662.5" y="31.5"></text>
<rect fill="none" height="24" stroke="#405C86" stroke-dasharray="3 1" stroke-dashoffset="1.5" stroke-width="1" width="12" x="1644.5" y="18.5" />
<text class="label unused" x="1650.5" y="31.5"></text>
<rect fill="none" height="24" stroke="#405C86" stroke-dasharray="3 1" stroke-dashoffset="1.5" stroke-width="1" width="12" x="1632.5" y="18.5" />
<text class="label unused" x="1638.5" y="31.5"></text>
<rect fill="#DEE6F1" height="24" width="12" x="1428.5" y="18.5" />
<rect fill="none" height="24" stroke="#405C86" stroke-width="3" width="12" x="1428.5" y="18.5" />
<rect fill="none" height="24" stroke="#405C86" stroke-dasharray="3 1" stroke-dashoffset="1.5" stroke-width="1" width="12" x="1416.5" y="18.5" />
<text class="label unused" x="1422.5" y="31.5"></text>
<rect fill="none" height="24" stroke="#405C86" stroke-dasharray="3 1" stroke-dashoffset="1.5" stroke-width="1" width="12" x="1404.5" y="18.5" />
<text class="label unused" x="1410.5" y="31.5"></text>
<rect fill="none" height="24" stroke="#405C86" stroke-dasharray="3 1" stroke-dashoffset="1.5" stroke-width="1" width="12" x="1392.5" y="18.5" />
<text class="label unused" x="1398.5" y="31.5"></text>
<rect fill="none" height="24" stroke="#405C86" stroke-dasharray="3 1" stroke-dashoffset="1.5" stroke-width="1" width="12" x="1380.5" y="18.5" />
<text class="label unused" x="1386.5" y="31.5"></text>
<rect fill="none" height="24" stroke="#405C86" stroke-dasharray="3 1" stroke-dashoffset="1.5" stroke-width="1" width="12" x="1368.5" y="18.5" />
<text class="label unused" x="1374.5" y="31.5"></text>
<rect fill="none" height="24" stroke="#405C86" stroke-dasharray="3 1" stroke-dashoffset="1.5" stroke-width="1" width="12" x="1356.5" y="18.5" />
<text class="label unused" x="1362.5" y="31.5"></text>
<rect fill="none" height="24" stroke="#405C86" stroke-dasharray="3 1" stroke-dashoffset="1.5" stroke-width="1" width="12" x="1344.5" y="18.5" />
<text class="label unused" x="1350.5" y="31.5"></text>
<rect fill="none" height="24" stroke="#405C86" stroke-dasharray="3 1" stroke-dashoffset="1.5" stroke-width="1" width="12" x="1332.5" y="18.5" />
<text class="label unused" x="1338.5" y="31.5"></text>
<rect fill="none" height="24" stroke="#405C86" stroke-dasharray="3 1" stroke-dashoffset="1.5" stroke-width="1" width="12" x="1320.5" y="18.5" />
<text class="label unused" x="1326.5" y="31.5"></text>
<rect fill="none" height="24" stroke="#405C86" stroke-dasharray="3 1" stroke-dashoffset="1.5" stroke-width="1" width="12" x="1308.5" y="18.5" />
<text class="label unused" x="1314.5" y="31.5"></text>
<rect fill="none" height="24" stroke="#405C86" stroke-dasharray="3 1" stroke-dashoffset="1.5" stroke-width="1" width="12" x="1296.5" y="18.5" />
<text class="label unused" x="1302.5" y="31.5"></text>
<rect fill="none" height="24" stroke="#405C86" stroke-dasharray="3 1" stroke-dashoffset="1.5" stroke-width="1" width="12" x="1284.5" y="18.5" />
<text class="label unused" x="1290.5" y="31.5"></text>
<rect fill="none" height="24" stroke="#405C86" stroke-dasharray="3 1" stroke-dashoffset="1.5" stroke-width="1" width="12" x="1272.5" y="18.5" />
<text class="label unused" x="1278.5" y="31.5"></text>
<rect fill="none" height="24" stroke="#405C86" stroke-dasharray="3 1" stroke-dashoffset="1.5" stroke-width="1" width="12" x="1260.5" y="18.5" />
<text class="label unused" x="1266.5" y="31.5"></text>
<rect fill="none" height="24" stroke="#405C86" stroke-dasharray="3 1" stroke-dashoffset="1.5" stroke-width="1" width="12" x="1248.5" y="18.5" />
<text class="label unused" x="1254.5" y="31.5"></text>
<rect fill="#DEE6F1" height="24" width="12" x="1044.5" y="18.5" />
<rect fill="none" height="24" stroke="#405C86" stroke-width="3" width="12" x="1044.5" y="18.5" />
<rect fill="none" height="24" stroke="#405C86" stroke-dasharray="3 1" stroke-dashoffset="1.5" stroke-width="1" width="12" x="1032.5" y="18.5" />
<text class="label unused" x="1038.5" y="31.5"></text>
<rect fill="none" height="24" stroke="#405C86" stroke-dasharray="3 1" stroke-dashoffset="1.5" stroke-width="1" width="12" x="1020.5" y="18.5" />
<text class="label unused" x="1026.5" y="31.5"></text>
<rect fill="none" height="24" stroke="#405C86" stroke-dasharray="3 1" stroke-dashoffset="1.5" stroke-width="1" width="12" x="1008.5" y="18.5" />
<text class="label unused" x="1014.5" y="31.5"></text>
<rect fill="none" height="24" stroke="#405C86" stroke-dasharray="3 1" stroke-dashoffset="1.5" stroke-width="1" width="12" x="996.5" y="18.5" />
<text class="label unused" x="1002.5" y="31.5"></text>
<rect fill="none" height="24" stroke="#405C86" stroke-dasharray="3 1" stroke-dashoffset="1.5" stroke-width="1" width="12" x="984.5" y="18.5" />
<text class="label unused" x="990.5" y="31.5"></text>
<rect fill="none" height="24" stroke="#405C86" stroke-dasharray="3 1" stroke-dashoffset="1.5" stroke-width="1" width="12" x="972.5" y="18.5" />
<text class="label unused" x="978.5" y="31.5"></text>
<rect fill="none" height="24" stroke="#405C86" stroke-dasharray="3 1" stroke-dashoffset="1.5" stroke-width="1" width="12" x="960.5" y="18.5" />
<text class="label unused" x="966.5" y="31.5"></text>
<rect fill="none" height="24" stroke="#405C86" stroke-dasharray="3 1" stroke-dashoffset="1.5" stroke-width="1" width="12" x="948.5" y="18.5" />
<text class="label unused" x="954.5" y="31.5"></text>
<rect fill="none" height="24" stroke="#405C86" stroke-dasharray="3 1" stroke-dashoffset="1.5" stroke-width="1" width="12" x="936.5" y="18.5" />
<text class="label unused" x="942.5" y="31.5"></text>
<rect fill="none" height="24" stroke="#405C86" stroke-dasharray="3 1" stroke-dashoffset="1.5" stroke-width="1" width="12" x="924.5" y="18.5" />
<text class="label unused" x="930.5" y="31.5"></text>
<rect fill="none" height="24" stroke="#405C86" stroke-dasharray="3 1" stroke-dashoffset="1.5" stroke-width="1" width="12" x="912.5" y="18.5" />
<text class="label unused" x="918.5" y="31.5"></text>
<rect fill="none" height="24" stroke="#405C86" stroke-dasharray="3 1" stroke-dashoffset="1.5" stroke-width="1" width="12" x="900.5" y="18.5" />
<text class="label unused" x="906.5" y="31.5"></text>
<rect fill="none" height="24" stroke="#405C86" stroke-dasharray="3 1" stroke-dashoffset="1.5" stroke-width="1" width="12" x="888.5" y="18.5" />
<text class="label unused" x="894.5" y="31.5"></text>
<rect fill="none" height="24" stroke="#405C86" stroke-dasharray="3 1" stroke-dashoffset="1.5" stroke-width="1" width="12" x="876.5" y="18.5" />
<text class="label unused" x="882.5" y="31.5"></text>
<rect fill="none" height="24" stroke="#405C86" stroke-dasharray="3 1" stroke-dashoffset="1.5" stroke-width="1" width="12" x="864.5" y="18.5" />
<text class="label unused" x="870.5" y="31.5"></text>
<rect fill="#DEE6F1" height="24" width="12" x="660.5" y="18.5" />
<rect fill="none" height="24" stroke="#405C86" stroke-width="3" width="12" x="660.5" y="18.5" />
<rect fill="none" height="24" stroke="#405C86" stroke-dasharray="3 1" stroke-dashoffset="1.5" stroke-width="1" width="12" x="648.5" y="18.5" />
<text class="label unused" x="654.5" y="31.5"></text>
<rect fill="none" height="24" stroke="#405C86" stroke-dasharray="3 1" stroke-dashoffset="1.5" stroke-width="1" width="12" x="636.5" y="18.5" />
<text class="label unused" x="642.5" y="31.5"></text>
<rect fill="none" height="24" stroke="#405C86" stroke-dasharray="3 1" stroke-dashoffset="1.5" stroke-width="1" width="12" x="624.5" y="18.5" />
<text class="label unused" x="630.5" y="31.5"></text>
<rect fill="none" height="24" stroke="#405C86" stroke-dasharray="3 1" stroke-dashoffset="1.5" stroke-width="1" width="12" x="612.5" y="18.5" />
<text class="label unused" x="618.5" y="31.5"></text>
<rect fill="none" height="24" stroke="#405C86" stroke-dasharray="3 1" stroke-dashoffset="1.5" stroke-width="1" width="12" x="600.5" y="18.5" />
<text class="label unused" x="606.5" y="31.5"></text>
<rect fill="none" height="24" stroke="#405C86" stroke-dasharray="3 1" stroke-dashoffset="1.5" stroke-width="1" width="12" x="588.5" y="18.5" />
<text class="label unused" x="594.5" y="31.5"></text>
<rect fill="none" height="24" stroke="#405C86" stroke-dasharray="3 1" stroke-dashoffset="1.5" stroke-width="1" width="12" x="576.5" y="18.5" />
<text class="label unused" x="582.5" y="31.5"></text>
<rect fill="none" height="24" stroke="#405C86" stroke-dasharray="3 1" stroke-dashoffset="1.5" stroke-width="1" width="12" x="564.5" y="18.5" />
<text class="label unused" x="570.5" y="31.5"></text>
<rect fill="none" height="24" stroke="#405C86" stroke-dasharray="3 1" stroke-dashoffset="1.5" stroke-width="1" width="12" x="552.5" y="18.5" />
<text class="label unused" x="558.5" y="31.5"></text>
<rect fill="none" height="24" stroke="#405C86" stroke-dasharray="3 1" stroke-dashoffset="1.5" stroke-width="1" width="12" x="540.5" y="18.5" />
<text class="label unused" x="546.5" y="31.5"></text>
<rect fill="none" height="24" stroke="#405C86" stroke-dasharray="3 1" stroke-dashoffset="1.5" stroke-width="1" width="12" x="528.5" y="18.5" />
<text class="label unused" x="534.5" y="31.5"></text>
<rect fill="none" height="24" stroke="#405C86" stroke-dasharray="3 1" stroke-dashoffset="1.5" stroke-width="1" width="12" x="516.5" y="18.5" />
<text class="label unused" x="522.5" y="31.5"></text>
<rect fill="none" height="24" stroke="#405C86" stroke-dasharray="3 1" stroke-dashoffset="1.5" stroke-width="1" width="12" x="504.5" y="18.5" />
<text class="label unused" x="510.5" y="31.5"></text>
<rect fill="none" height="24" stroke="#405C86" stroke-dasharray="3 1" stroke-dashoffset="1.5" stroke-width="1" width="12" x="492.5" y="18.5" />
<text class="label unused" x="498.5" y="31.5"></text>
<rect fill="none" height="24" stroke="#405C86" stroke-dasharray="3 1" stroke-dashoffset="1.5" stroke-width="1" width="12" x="480.5" y="18.5" />
<text class="label unused" x="486.5" y="31.5"></text>
<rect fill="#DEE6F1" height="24" width="12" x="276.5" y="18.5" />
<rect fill="none" height="24" stroke="#405C86" stroke-width="3" width="12" x="276.5" y="18.5" />
<rect fill="none" height="24" stroke="#405C86" stroke-dasharray="3 1" stroke-dashoffset="1.5" stroke-width="1" width="12" x="264.5" y="18.5" />
<text class="label unused" x="270.5" y="31.5"></text>
<rect fill="none" height="24" stroke="#405C86" stroke-dasharray="3 1" stroke-dashoffset="1.5" stroke-width="1" width="12" x="252.5" y="18.5" />
<text class="label unused" x="258.5" y="31.5"></text>
<rect fill="none" height="24" stroke="#405C86" stroke-dasharray="3 1" stroke-dashoffset="1.5" stroke-width="1" width="12" x="240.5" y="18.5" />
<text class="label unused" x="246.5" y="31.5"></text>
<rect fill="none" height="24" stroke="#405C86" stroke-dasharray="3 1" stroke-dashoffset="1.5" stroke-width="1" width="12" x="228.5" y="18.5" />
<text class="label unused" x="234.5" y="31.5"></text>
<rect fill="none" height="24" stroke="#405C86" stroke-dasharray="3 1" stroke-dashoffset="1.5" stroke-width="1" width="12" x="216.5" y="18.5" />
<text class="label unused" x="222.5" y="31.5"></text>
<rect fill="none" height="24" stroke="#405C86" stroke-dasharray="3 1" stroke-dashoffset="1.5" stroke-width="1" width="12" x="204.5" y="18.5" />
<text class="label unused" x="210.5" y="31.5"></text>
<rect fill="none" height="24" stroke="#405C86" stroke-dasharray="3 1" stroke-dashoffset="1.5" stroke-width="1" width="12" x="192.5" y="18.5" />
<text class="label unused" x="198.5" y="31.5"></text>
<rect fill="none" height="24" stroke="#405C86" stroke-dasharray="3 1" stroke-dashoffset="1.5" stroke-width="1" width="12" x="180.5" y="18.5" />
<text class="label unused" x="186.5" y="31.5"></text>
<rect fill="none" height="24" stroke="#405C86" stroke-dasharray="3 1" stroke-dashoffset="1.5" stroke-width="1" width="12" x="168.5" y="18.5" />
<text class="label unused" x="174.5" y="31.5"></text>
<rect fill="none" height="24" stroke="#405C86" stroke-dasharray="3 1" stroke-dashoffset="1.5" stroke-width="1" width="12" x="156.5" y="18.5" />
<text class="label unused" x="162.5" y="31.5"></text>
<rect fill="none" height="24" stroke="#405C86" stroke-dasharray="3 1" stroke-dashoffset="1.5" stroke-width="1" width="12" x="144.5" y="18.5" />
<text class="label unused" x="150.5" y="31.5"></text>
<rect fill="none" height="24" stroke="#405C86" stroke-dasharray="3 1" stroke-dashoffset="1.5" stroke-width="1" width="12" x="132.5" y="18.5" />
<text class="label unused" x="138.5" y="31.5"></text>
<rect fill="none" height="24" stroke="#405C86" stroke-dasharray="3 1" stroke-dashoffset="1.5" stroke-width="1" width="12" x="120.5" y="18.5" />
<text class="label unused" x="126.5" y="31.5"></text>
<rect fill="none" height="24" stroke="#405C86" stroke-dasharray="3 1" stroke-dashoffset="1.5" stroke-width="1" width="12" x="108.5" y="18.5" />
<text class="label unused" x="114.5" y="31.5"></text>
<rect fill="none" height="24" stroke="#405C86" stroke-dasharray="3 1" stroke-dashoffset="1.5" stroke-width="1" width="12" x="96.5" y="18.5" />
<text class="label unused" x="102.5" y="31.5"></text>
<text class="register-name" x="80.5" y="30.5">Pg</text>
<text class="intrinsic-name" x="80.5" y="42.5">pg</text>
<text class="register-number" x="10" y="30.5">(1)</text>
<rect fill="#DEE6F1" height="24" width="384" x="2778.5" y="66.5" />
<rect fill="none" height="24" stroke="#405C86" stroke-width="3" width="384" x="2778.5" y="66.5" />
<text class="small-label intrinsic-color" x="2970.5" y="79.5">base[0]</text>
<rect fill="#DEE6F1" height="24" width="384" x="2394.5" y="66.5" />
<rect fill="none" height="24" stroke="#405C86" stroke-width="3" width="384" x="2394.5" y="66.5" />
<text class="small-label intrinsic-color" x="2586.5" y="79.5">base[3]</text>
<rect fill="#DEE6F1" height="24" width="384" x="2010.5" y="66.5" />
<rect fill="none" height="24" stroke="#405C86" stroke-width="3" width="384" x="2010.5" y="66.5" />
<text class="small-label intrinsic-color" x="2202.5" y="79.5">base[6]</text>
<rect fill="#DEE6F1" height="24" width="384" x="1626.5" y="66.5" />
<rect fill="none" height="24" stroke="#405C86" stroke-width="3" width="384" x="1626.5" y="66.5" />
<text class="small-label intrinsic-color" x="1818.5" y="79.5">base[9]</text>
<rect fill="#DEE6F1" height="24" width="384" x="1242.5" y="66.5" />
<rect fill="none" height="24" stroke="#405C86" stroke-width="3" width="384" x="1242.5" y="66.5" />
<text class="small-label intrinsic-color" x="1434.5" y="79.5">base[12]</text>
<rect fill="#DEE6F1" height="24" width="384" x="858.5" y="66.5" />
<rect fill="none" height="24" stroke="#405C86" stroke-width="3" width="384" x="858.5" y="66.5" />
<text class="small-label intrinsic-color" x="1050.5" y="79.5">base[15]</text>
<rect fill="#DEE6F1" height="24" width="384" x="474.5" y="66.5" />
<rect fill="none" height="24" stroke="#405C86" stroke-width="3" width="384" x="474.5" y="66.5" />
<text class="small-label intrinsic-color" x="666.5" y="79.5">base[18]</text>
<rect fill="#DEE6F1" height="24" width="384" x="90.5" y="66.5" />
<rect fill="none" height="24" stroke="#405C86" stroke-width="3" width="384" x="90.5" y="66.5" />
<text class="small-label intrinsic-color" x="282.5" y="79.5">base[21]</text>
<text class="register-name" x="80.5" y="78.5">Zt1</text>
<text class="intrinsic-name" x="80.5" y="90.5">data[0]</text>
<text class="register-number" x="10" y="78.5">(2)</text>
<rect fill="#EEDDDB" height="24" width="384" x="2778.5" y="114.5" />
<rect fill="none" height="24" stroke="#405C86" stroke-width="3" width="384" x="2778.5" y="114.5" />
<text class="small-label intrinsic-color" x="2970.5" y="127.5">base[1]</text>
<rect fill="#EEDDDB" height="24" width="384" x="2394.5" y="114.5" />
<rect fill="none" height="24" stroke="#405C86" stroke-width="3" width="384" x="2394.5" y="114.5" />
<text class="small-label intrinsic-color" x="2586.5" y="127.5">base[4]</text>
<rect fill="#EEDDDB" height="24" width="384" x="2010.5" y="114.5" />
<rect fill="none" height="24" stroke="#405C86" stroke-width="3" width="384" x="2010.5" y="114.5" />
<text class="small-label intrinsic-color" x="2202.5" y="127.5">base[7]</text>
<rect fill="#EEDDDB" height="24" width="384" x="1626.5" y="114.5" />
<rect fill="none" height="24" stroke="#405C86" stroke-width="3" width="384" x="1626.5" y="114.5" />
<text class="small-label intrinsic-color" x="1818.5" y="127.5">base[10]</text>
<rect fill="#EEDDDB" height="24" width="384" x="1242.5" y="114.5" />
<rect fill="none" height="24" stroke="#405C86" stroke-width="3" width="384" x="1242.5" y="114.5" />
<text class="small-label intrinsic-color" x="1434.5" y="127.5">base[13]</text>
<rect fill="#EEDDDB" height="24" width="384" x="858.5" y="114.5" />
<rect fill="none" height="24" stroke="#405C86" stroke-width="3" width="384" x="858.5" y="114.5" />
<text class="small-label intrinsic-color" x="1050.5" y="127.5">base[16]</text>
<rect fill="#EEDDDB" height="24" width="384" x="474.5" y="114.5" />
<rect fill="none" height="24" stroke="#405C86" stroke-width="3" width="384" x="474.5" y="114.5" />
<text class="small-label intrinsic-color" x="666.5" y="127.5">base[19]</text>
<rect fill="#EEDDDB" height="24" width="384" x="90.5" y="114.5" />
<rect fill="none" height="24" stroke="#405C86" stroke-width="3" width="384" x="90.5" y="114.5" />
<text class="small-label intrinsic-color" x="282.5" y="127.5">base[22]</text>
<text class="register-name" x="80.5" y="126.5">Zt2</text>
<text class="intrinsic-name" x="80.5" y="138.5">data[1]</text>
<text class="register-number" x="10" y="126.5">(3)</text>
<rect fill="#ECF1E0" height="24" width="384" x="2778.5" y="162.5" />
<rect fill="none" height="24" stroke="#405C86" stroke-width="3" width="384" x="2778.5" y="162.5" />
<text class="small-label intrinsic-color" x="2970.5" y="175.5">base[2]</text>
<rect fill="#ECF1E0" height="24" width="384" x="2394.5" y="162.5" />
<rect fill="none" height="24" stroke="#405C86" stroke-width="3" width="384" x="2394.5" y="162.5" />
<text class="small-label intrinsic-color" x="2586.5" y="175.5">base[5]</text>
<rect fill="#ECF1E0" height="24" width="384" x="2010.5" y="162.5" />
<rect fill="none" height="24" stroke="#405C86" stroke-width="3" width="384" x="2010.5" y="162.5" />
<text class="small-label intrinsic-color" x="2202.5" y="175.5">base[8]</text>
<rect fill="#ECF1E0" height="24" width="384" x="1626.5" y="162.5" />
<rect fill="none" height="24" stroke="#405C86" stroke-width="3" width="384" x="1626.5" y="162.5" />
<text class="small-label intrinsic-color" x="1818.5" y="175.5">base[11]</text>
<rect fill="#ECF1E0" height="24" width="384" x="1242.5" y="162.5" />
<rect fill="none" height="24" stroke="#405C86" stroke-width="3" width="384" x="1242.5" y="162.5" />
<text class="small-label intrinsic-color" x="1434.5" y="175.5">base[14]</text>
<rect fill="#ECF1E0" height="24" width="384" x="858.5" y="162.5" />
<rect fill="none" height="24" stroke="#405C86" stroke-width="3" width="384" x="858.5" y="162.5" />
<text class="small-label intrinsic-color" x="1050.5" y="175.5">base[17]</text>
<rect fill="#ECF1E0" height="24" width="384" x="474.5" y="162.5" />
<rect fill="none" height="24" stroke="#405C86" stroke-width="3" width="384" x="474.5" y="162.5" />
<text class="small-label intrinsic-color" x="666.5" y="175.5">base[20]</text>
<rect fill="#ECF1E0" height="24" width="384" x="90.5" y="162.5" />
<rect fill="none" height="24" stroke="#405C86" stroke-width="3" width="384" x="90.5" y="162.5" />
<text class="small-label intrinsic-color" x="282.5" y="175.5">base[23]</text>
<text class="register-name" x="80.5" y="174.5">Zt3</text>
<text class="intrinsic-name" x="80.5" y="186.5">data[2]</text>
<text class="register-number" x="10" y="174.5">(4)</text>
<line stroke="#567DB6" stroke-width="1" x1="2975.5" x2="2975.5" y1="91.5" y2="233" />
<line stroke="#567DB6" stroke-width="1" x1="2970.5" x2="2586.5" y1="139.5" y2="233" />
<line stroke="#567DB6" stroke-width="1" x1="2970.5" x2="2202.5" y1="187.5" y2="233" />
<line stroke="#567DB6" stroke-dasharray="4 3" stroke-width="1" x1="666.5" x2="2202.5" y1="91.5" y2="305" />
<line stroke="#567DB6" stroke-dasharray="4 3" stroke-width="1" x1="666.5" x2="1818.5" y1="139.5" y2="305" />
<line stroke="#567DB6" stroke-dasharray="4 3" stroke-width="1" x1="666.5" x2="1434.5" y1="187.5" y2="305" />
<line stroke="#567DB6" stroke-width="1" x1="282.5" x2="1050.5" y1="91.5" y2="305" />
<line stroke="#567DB6" stroke-width="1" x1="282.5" x2="666.5" y1="139.5" y2="305" />
<line stroke="#567DB6" stroke-width="1" x1="282.5" x2="282.5" y1="187.5" y2="305" />
<polyline fill="none" points="2781.5 65.5,2783.5 61.5,2969.5 61.5,2970.5 59.5,2970.5 55.5,2970.5 59.5,2971.5 61.5,3157.5 61.5,3159.5 65.5" stroke="#567DB6" stroke-width="1" />
<line stroke="#567DB6" stroke-width="1" x1="2970.5" x2="2970.5" y1="43.5" y2="55.5" />
<polyline fill="none" points="2397.5 65.5,2399.5 61.5,2585.5 61.5,2586.5 59.5,2586.5 55.5,2586.5 59.5,2587.5 61.5,2773.5 61.5,2775.5 65.5" stroke="#567DB6" stroke-width="1" />
<line stroke="#567DB6" stroke-width="1" x1="2586.5" x2="2586.5" y1="43.5" y2="55.5" />
<polyline fill="none" points="2013.5 65.5,2015.5 61.5,2201.5 61.5,2202.5 59.5,2202.5 55.5,2202.5 59.5,2203.5 61.5,2389.5 61.5,2391.5 65.5" stroke="#567DB6" stroke-width="1" />
<line stroke="#567DB6" stroke-width="1" x1="2202.5" x2="2202.5" y1="43.5" y2="55.5" />
<polyline fill="none" points="1629.5 65.5,1631.5 61.5,1817.5 61.5,1818.5 59.5,1818.5 55.5,1818.5 59.5,1819.5 61.5,2005.5 61.5,2007.5 65.5" stroke="#567DB6" stroke-width="1" />
<line stroke="#567DB6" stroke-width="1" x1="1818.5" x2="1818.5" y1="43.5" y2="55.5" />
<polyline fill="none" points="1245.5 65.5,1247.5 61.5,1433.5 61.5,1434.5 59.5,1434.5 55.5,1434.5 59.5,1435.5 61.5,1621.5 61.5,1623.5 65.5" stroke="#567DB6" stroke-width="1" />
<line stroke="#567DB6" stroke-width="1" x1="1434.5" x2="1434.5" y1="43.5" y2="55.5" />
<polyline fill="none" points="861.5 65.5,863.5 61.5,1049.5 61.5,1050.5 59.5,1050.5 55.5,1050.5 59.5,1051.5 61.5,1237.5 61.5,1239.5 65.5" stroke="#567DB6" stroke-width="1" />
<line stroke="#567DB6" stroke-width="1" x1="1050.5" x2="1050.5" y1="43.5" y2="55.5" />
<polyline fill="none" points="477.5 65.5,479.5 61.5,665.5 61.5,666.5 59.5,666.5 55.5,666.5 59.5,667.5 61.5,853.5 61.5,855.5 65.5" stroke="#567DB6" stroke-width="1" />
<line stroke="#567DB6" stroke-width="1" x1="666.5" x2="666.5" y1="43.5" y2="55.5" />
<polyline fill="none" points="93.5 65.5,95.5 61.5,281.5 61.5,282.5 59.5,282.5 55.5,282.5 59.5,283.5 61.5,469.5 61.5,471.5 65.5" stroke="#567DB6" stroke-width="1" />
<line stroke="#567DB6" stroke-width="1" x1="282.5" x2="282.5" y1="43.5" y2="55.5" />
<line marker-end="url(#arrowhead)" stroke="none" x1="2975.5" x2="2975.5" y1="91.5" y2="233" />
<line marker-end="url(#arrowhead)" stroke="none" x1="2970.5" x2="2586.5" y1="139.5" y2="233" />
<line marker-end="url(#arrowhead)" stroke="none" x1="2970.5" x2="2202.5" y1="187.5" y2="233" />
<line marker-end="url(#arrowhead)" stroke="none" stroke-dasharray="4 3" x1="666.5" x2="2202.5" y1="91.5" y2="305" />
<line marker-end="url(#arrowhead)" stroke="none" stroke-dasharray="4 3" x1="666.5" x2="1818.5" y1="139.5" y2="305" />
<line marker-end="url(#arrowhead)" stroke="none" stroke-dasharray="4 3" x1="666.5" x2="1434.5" y1="187.5" y2="305" />
<line marker-end="url(#arrowhead)" stroke="none" x1="282.5" x2="1050.5" y1="91.5" y2="305" />
<line marker-end="url(#arrowhead)" stroke="none" x1="282.5" x2="666.5" y1="139.5" y2="305" />
<line marker-end="url(#arrowhead)" stroke="none" x1="282.5" x2="282.5" y1="187.5" y2="305" />
</svg>