<svg xmlns="http://www.w3.org/2000/svg" viewBox="0 0 486 423">
<style>
.label { font: 14px Helvetica; dominant-baseline: middle; text-anchor: middle; }
.title-left { font: 12px Helvetica; dominant-baseline: middle; }
.title-right { font: 12px Helvetica; dominant-baseline: middle; text-anchor: end; }
.title-intrinsic { font: 12px Helvetica; dominant-baseline: middle; text-anchor: middle; fill: #6778ED; }
.title { font: 12px Helvetica; dominant-baseline: middle; text-anchor: middle; }
.title-unused { font: 12px Helvetica; dominant-baseline: middle; text-anchor: middle; fill: #AAA; }
.register-name { font: 14px Helvetica; dominant-baseline: middle; text-anchor: end; font-style: italic; }
.memory-name { font: 14px Helvetica; dominant-baseline: middle; text-anchor: end; }
.register-number { font: 14px Helvetica; dominant-baseline: middle; text-anchor: start; }
.intrinsic-name { font: 14px Helvetica; dominant-baseline: middle; text-anchor: end; fill: #6778ED; }
.intrinsic-color { fill: #6778ED; }
.small-label { font: 12px Helvetica; dominant-baseline: middle; text-anchor: middle; }
.label-10px { font: 10px Helvetica; dominant-baseline: middle; text-anchor: middle; }
.smaller-label { font: 9px Helvetica; dominant-baseline: middle; text-anchor: middle; }
.label-6px { font: 6px Helvetica; dominant-baseline: middle; text-anchor: middle; }
.label-7px { font: 7px Helvetica; dominant-baseline: middle; text-anchor: middle; }
.unused { fill: #AAA; }
.dim { fill: #888; }
</style>
<defs>
<marker id="arrowhead" markerWidth="10.75" markerHeight="24.5" refX="9.0" refY="6.125" orient="auto">
<polyline points="0.5 0.5, 8.75 6.125, 0.5 11.75" stroke="#567DB6" stroke-width="1" fill="none"/>
</marker>
</defs>
<text class="title-left" x="90.5" y="9.5">upper</text>
<text class="title-right" x="474.5" y="9.5">lower</text>
<rect fill="#DEE6F1" height="24" width="48" x="426.5" y="282.5" />
<rect fill="none" height="24" stroke="#405C86" stroke-width="3" width="48" x="426.5" y="282.5" />
<text class="smaller-label intrinsic-color" x="450.5" y="295.5">base[0]</text>
<rect fill="#EEDDDB" height="24" width="48" x="378.5" y="282.5" />
<rect fill="none" height="24" stroke="#405C86" stroke-width="3" width="48" x="378.5" y="282.5" />
<text class="smaller-label intrinsic-color" x="402.5" y="295.5">base[1]</text>
<rect fill="#ECF1E0" height="24" width="48" x="330.5" y="282.5" />
<rect fill="none" height="24" stroke="#405C86" stroke-width="3" width="48" x="330.5" y="282.5" />
<text class="smaller-label intrinsic-color" x="354.5" y="295.5">base[2]</text>
<rect fill="#E5E0EB" height="24" width="48" x="282.5" y="282.5" />
<rect fill="none" height="24" stroke="#405C86" stroke-width="3" width="48" x="282.5" y="282.5" />
<text class="smaller-label intrinsic-color" x="306.5" y="295.5">base[3]</text>
<rect fill="#DEE6F1" height="24" width="48" x="234.5" y="282.5" />
<rect fill="none" height="24" stroke="#405C86" stroke-width="3" width="48" x="234.5" y="282.5" />
<text class="smaller-label intrinsic-color" x="258.5" y="295.5">base[4]</text>
<rect fill="#EEDDDB" height="24" width="48" x="186.5" y="282.5" />
<rect fill="none" height="24" stroke="#405C86" stroke-width="3" width="48" x="186.5" y="282.5" />
<text class="smaller-label intrinsic-color" x="210.5" y="295.5">base[5]</text>
<rect fill="#ECF1E0" height="24" width="48" x="138.5" y="282.5" />
<rect fill="none" height="24" stroke="#405C86" stroke-width="3" width="48" x="138.5" y="282.5" />
<text class="smaller-label intrinsic-color" x="162.5" y="295.5">base[6]</text>
<rect fill="#E5E0EB" height="24" width="48" x="90.5" y="282.5" />
<rect fill="none" height="24" stroke="#405C86" stroke-width="3" width="48" x="90.5" y="282.5" />
<text class="smaller-label intrinsic-color" x="114.5" y="295.5">base[7]</text>
<text class="register-name" x="80.5" y="294.5">[mem]</text>
<text class="intrinsic-name" x="80.5" y="306.5">*base</text>
<text class="register-number" x="10" y="294.5">(6)</text>
<rect fill="#DEE6F1" height="24" width="48" x="426.5" y="318.5" />
<rect fill="none" height="24" stroke="#405C86" stroke-width="3" width="48" x="426.5" y="318.5" />
<text class="smaller-label intrinsic-color" x="450.5" y="331.5">base[8]</text>
<rect fill="#EEDDDB" height="24" width="48" x="378.5" y="318.5" />
<rect fill="none" height="24" stroke="#405C86" stroke-width="3" width="48" x="378.5" y="318.5" />
<text class="smaller-label intrinsic-color" x="402.5" y="331.5">base[9]</text>
<rect fill="#ECF1E0" height="24" width="48" x="330.5" y="318.5" />
<rect fill="none" height="24" stroke="#405C86" stroke-width="3" width="48" x="330.5" y="318.5" />
<text class="smaller-label intrinsic-color" x="354.5" y="331.5">base[10]</text>
<rect fill="#E5E0EB" height="24" width="48" x="282.5" y="318.5" />
<rect fill="none" height="24" stroke="#405C86" stroke-width="3" width="48" x="282.5" y="318.5" />
<text class="smaller-label intrinsic-color" x="306.5" y="331.5">base[11]</text>
<rect fill="#DEE6F1" height="24" width="48" x="234.5" y="318.5" />
<rect fill="none" height="24" stroke="#405C86" stroke-width="3" width="48" x="234.5" y="318.5" />
<text class="smaller-label intrinsic-color" x="258.5" y="331.5">base[12]</text>
<rect fill="#EEDDDB" height="24" width="48" x="186.5" y="318.5" />
<rect fill="none" height="24" stroke="#405C86" stroke-width="3" width="48" x="186.5" y="318.5" />
<text class="smaller-label intrinsic-color" x="210.5" y="331.5">base[13]</text>
<rect fill="#ECF1E0" height="24" width="48" x="138.5" y="318.5" />
<rect fill="none" height="24" stroke="#405C86" stroke-width="3" width="48" x="138.5" y="318.5" />
<text class="smaller-label intrinsic-color" x="162.5" y="331.5">base[14]</text>
<rect fill="#E5E0EB" height="24" width="48" x="90.5" y="318.5" />
<rect fill="none" height="24" stroke="#405C86" stroke-width="3" width="48" x="90.5" y="318.5" />
<text class="smaller-label intrinsic-color" x="114.5" y="331.5">base[15]</text>
<rect fill="#DEE6F1" height="24" width="48" x="426.5" y="354.5" />
<rect fill="none" height="24" stroke="#405C86" stroke-width="3" width="48" x="426.5" y="354.5" />
<text class="smaller-label intrinsic-color" x="450.5" y="367.5">base[16]</text>
<rect fill="#EEDDDB" height="24" width="48" x="378.5" y="354.5" />
<rect fill="none" height="24" stroke="#405C86" stroke-width="3" width="48" x="378.5" y="354.5" />
<text class="smaller-label intrinsic-color" x="402.5" y="367.5">base[17]</text>
<rect fill="#ECF1E0" height="24" width="48" x="330.5" y="354.5" />
<rect fill="none" height="24" stroke="#405C86" stroke-width="3" width="48" x="330.5" y="354.5" />
<text class="smaller-label intrinsic-color" x="354.5" y="367.5">base[18]</text>
<rect fill="#E5E0EB" height="24" width="48" x="282.5" y="354.5" />
<rect fill="none" height="24" stroke="#405C86" stroke-width="3" width="48" x="282.5" y="354.5" />
<text class="smaller-label intrinsic-color" x="306.5" y="367.5">base[19]</text>
<rect fill="#DEE6F1" height="24" width="48" x="234.5" y="354.5" />
<rect fill="none" height="24" stroke="#405C86" stroke-width="3" width="48" x="234.5" y="354.5" />
<text class="smaller-label intrinsic-color" x="258.5" y="367.5">base[20]</text>
<rect fill="#EEDDDB" height="24" width="48" x="186.5" y="354.5" />
<rect fill="none" height="24" stroke="#405C86" stroke-width="3" width="48" x="186.5" y="354.5" />
<text class="smaller-label intrinsic-color" x="210.5" y="367.5">base[21]</text>
<rect fill="#ECF1E0" height="24" width="48" x="138.5" y="354.5" />
<rect fill="none" height="24" stroke="#405C86" stroke-width="3" width="48" x="138.5" y="354.5" />
<text class="smaller-label intrinsic-color" x="162.5" y="367.5">base[22]</text>
<rect fill="#E5E0EB" height="24" width="48" x="90.5" y="354.5" />
<rect fill="none" height="24" stroke="#405C86" stroke-width="3" width="48" x="90.5" y="354.5" />
<text class="smaller-label intrinsic-color" x="114.5" y="367.5">base[23]</text>
<rect fill="#DEE6F1" height="24" width="48" x="426.5" y="390.5" />
<rect fill="none" height="24" stroke="#405C86" stroke-width="3" width="48" x="426.5" y="390.5" />
<text class="smaller-label intrinsic-color" x="450.5" y="403.5">base[24]</text>
<rect fill="#EEDDDB" height="24" width="48" x="378.5" y="390.5" />
<rect fill="none" height="24" stroke="#405C86" stroke-width="3" width="48" x="378.5" y="390.5" />
<text class="smaller-label intrinsic-color" x="402.5" y="403.5">base[25]</text>
<rect fill="#ECF1E0" height="24" width="48" x="330.5" y="390.5" />
<rect fill="none" height="24" stroke="#405C86" stroke-width="3" width="48" x="330.5" y="390.5" />
<text class="smaller-label intrinsic-color" x="354.5" y="403.5">base[26]</text>
<rect fill="#E5E0EB" height="24" width="48" x="282.5" y="390.5" />
<rect fill="none" height="24" stroke="#405C86" stroke-width="3" width="48" x="282.5" y="390.5" />
<text class="smaller-label intrinsic-color" x="306.5" y="403.5">base[27]</text>
<rect fill="#DEE6F1" height="24" width="48" x="234.5" y="390.5" />
<rect fill="none" height="24" stroke="#405C86" stroke-width="3" width="48" x="234.5" y="390.5" />
<text class="smaller-label intrinsic-color" x="258.5" y="403.5">base[28]</text>
<rect fill="#EEDDDB" height="24" width="48" x="186.5" y="390.5" />
<rect fill="none" height="24" stroke="#405C86" stroke-width="3" width="48" x="186.5" y="390.5" />
<text class="smaller-label intrinsic-color" x="210.5" y="403.5">base[29]</text>
<rect fill="#ECF1E0" height="24" width="48" x="138.5" y="390.5" />
<rect fill="none" height="24" stroke="#405C86" stroke-width="3" width="48" x="138.5" y="390.5" />
<text class="smaller-label intrinsic-color" x="162.5" y="403.5">base[30]</text>
<rect fill="#E5E0EB" height="24" width="48" x="90.5" y="390.5" />
<rect fill="none" height="24" stroke="#405C86" stroke-width="3" width="48" x="90.5" y="390.5" />
<text class="smaller-label intrinsic-color" x="114.5" y="403.5">base[31]</text>
<rect fill="#DEE6F1" height="24" width="12" x="444.5" y="18.5" />
<rect fill="none" height="24" stroke="#405C86" stroke-width="3" width="12" x="444.5" y="18.5" />
<rect fill="none" height="24" stroke="#405C86" stroke-dasharray="3 1" stroke-dashoffset="1.5" stroke-width="1" width="12" x="432.5" y="18.5" />
<text class="label unused" x="438.5" y="31.5"></text>
<rect fill="#DEE6F1" height="24" width="12" x="396.5" y="18.5" />
<rect fill="none" height="24" stroke="#405C86" stroke-width="3" width="12" x="396.5" y="18.5" />
<rect fill="none" height="24" stroke="#405C86" stroke-dasharray="3 1" stroke-dashoffset="1.5" stroke-width="1" width="12" x="384.5" y="18.5" />
<text class="label unused" x="390.5" y="31.5"></text>
<rect fill="#DEE6F1" height="24" width="12" x="348.5" y="18.5" />
<rect fill="none" height="24" stroke="#405C86" stroke-width="3" width="12" x="348.5" y="18.5" />
<rect fill="none" height="24" stroke="#405C86" stroke-dasharray="3 1" stroke-dashoffset="1.5" stroke-width="1" width="12" x="336.5" y="18.5" />
<text class="label unused" x="342.5" y="31.5"></text>
<rect fill="#DEE6F1" height="24" width="12" x="300.5" y="18.5" />
<rect fill="none" height="24" stroke="#405C86" stroke-width="3" width="12" x="300.5" y="18.5" />
<rect fill="none" height="24" stroke="#405C86" stroke-dasharray="3 1" stroke-dashoffset="1.5" stroke-width="1" width="12" x="288.5" y="18.5" />
<text class="label unused" x="294.5" y="31.5"></text>
<rect fill="#DEE6F1" height="24" width="12" x="252.5" y="18.5" />
<rect fill="none" height="24" stroke="#405C86" stroke-width="3" width="12" x="252.5" y="18.5" />
<rect fill="none" height="24" stroke="#405C86" stroke-dasharray="3 1" stroke-dashoffset="1.5" stroke-width="1" width="12" x="240.5" y="18.5" />
<text class="label unused" x="246.5" y="31.5"></text>
<rect fill="#DEE6F1" height="24" width="12" x="204.5" y="18.5" />
<rect fill="none" height="24" stroke="#405C86" stroke-width="3" width="12" x="204.5" y="18.5" />
<rect fill="none" height="24" stroke="#405C86" stroke-dasharray="3 1" stroke-dashoffset="1.5" stroke-width="1" width="12" x="192.5" y="18.5" />
<text class="label unused" x="198.5" y="31.5"></text>
<rect fill="#DEE6F1" height="24" width="12" x="156.5" y="18.5" />
<rect fill="none" height="24" stroke="#405C86" stroke-width="3" width="12" x="156.5" y="18.5" />
<rect fill="none" height="24" stroke="#405C86" stroke-dasharray="3 1" stroke-dashoffset="1.5" stroke-width="1" width="12" x="144.5" y="18.5" />
<text class="label unused" x="150.5" y="31.5"></text>
<rect fill="#DEE6F1" height="24" width="12" x="108.5" y="18.5" />
<rect fill="none" height="24" stroke="#405C86" stroke-width="3" width="12" x="108.5" y="18.5" />
<rect fill="none" height="24" stroke="#405C86" stroke-dasharray="3 1" stroke-dashoffset="1.5" stroke-width="1" width="12" x="96.5" y="18.5" />
<text class="label unused" x="102.5" y="31.5"></text>
<text class="register-name" x="80.5" y="30.5">Pg</text>
<text class="intrinsic-name" x="80.5" y="42.5">pg</text>
<text class="register-number" x="10" y="30.5">(1)</text>
<rect fill="#DEE6F1" height="24" width="48" x="426.5" y="66.5" />
<rect fill="none" height="24" stroke="#405C86" stroke-width="3" width="48" x="426.5" y="66.5" />
<text class="smaller-label intrinsic-color" x="450.5" y="79.5">base[0]</text>
<rect fill="#DEE6F1" height="24" width="48" x="378.5" y="66.5" />
<rect fill="none" height="24" stroke="#405C86" stroke-width="3" width="48" x="378.5" y="66.5" />
<text class="smaller-label intrinsic-color" x="402.5" y="79.5">base[4]</text>
<rect fill="#DEE6F1" height="24" width="48" x="330.5" y="66.5" />
<rect fill="none" height="24" stroke="#405C86" stroke-width="3" width="48" x="330.5" y="66.5" />
<text class="smaller-label intrinsic-color" x="354.5" y="79.5">base[8]</text>
<rect fill="#DEE6F1" height="24" width="48" x="282.5" y="66.5" />
<rect fill="none" height="24" stroke="#405C86" stroke-width="3" width="48" x="282.5" y="66.5" />
<text class="smaller-label intrinsic-color" x="306.5" y="79.5">base[12]</text>
<rect fill="#DEE6F1" height="24" width="48" x="234.5" y="66.5" />
<rect fill="none" height="24" stroke="#405C86" stroke-width="3" width="48" x="234.5" y="66.5" />
<text class="smaller-label intrinsic-color" x="258.5" y="79.5">base[16]</text>
<rect fill="#DEE6F1" height="24" width="48" x="186.5" y="66.5" />
<rect fill="none" height="24" stroke="#405C86" stroke-width="3" width="48" x="186.5" y="66.5" />
<text class="smaller-label intrinsic-color" x="210.5" y="79.5">base[20]</text>
<rect fill="#DEE6F1" height="24" width="48" x="138.5" y="66.5" />
<rect fill="none" height="24" stroke="#405C86" stroke-width="3" width="48" x="138.5" y="66.5" />
<text class="smaller-label intrinsic-color" x="162.5" y="79.5">base[24]</text>
<rect fill="#DEE6F1" height="24" width="48" x="90.5" y="66.5" />
<rect fill="none" height="24" stroke="#405C86" stroke-width="3" width="48" x="90.5" y="66.5" />
<text class="smaller-label intrinsic-color" x="114.5" y="79.5">base[28]</text>
<text class="register-name" x="80.5" y="78.5">Zt1</text>
<text class="intrinsic-name" x="80.5" y="90.5">data[0]</text>
<text class="register-number" x="10" y="78.5">(2)</text>
<rect fill="#EEDDDB" height="24" width="48" x="426.5" y="114.5" />
<rect fill="none" height="24" stroke="#405C86" stroke-width="3" width="48" x="426.5" y="114.5" />
<text class="smaller-label intrinsic-color" x="450.5" y="127.5">base[1]</text>
<rect fill="#EEDDDB" height="24" width="48" x="378.5" y="114.5" />
<rect fill="none" height="24" stroke="#405C86" stroke-width="3" width="48" x="378.5" y="114.5" />
<text class="smaller-label intrinsic-color" x="402.5" y="127.5">base[5]</text>
<rect fill="#EEDDDB" height="24" width="48" x="330.5" y="114.5" />
<rect fill="none" height="24" stroke="#405C86" stroke-width="3" width="48" x="330.5" y="114.5" />
<text class="smaller-label intrinsic-color" x="354.5" y="127.5">base[9]</text>
<rect fill="#EEDDDB" height="24" width="48" x="282.5" y="114.5" />
<rect fill="none" height="24" stroke="#405C86" stroke-width="3" width="48" x="282.5" y="114.5" />
<text class="smaller-label intrinsic-color" x="306.5" y="127.5">base[13]</text>
<rect fill="#EEDDDB" height="24" width="48" x="234.5" y="114.5" />
<rect fill="none" height="24" stroke="#405C86" stroke-width="3" width="48" x="234.5" y="114.5" />
<text class="smaller-label intrinsic-color" x="258.5" y="127.5">base[17]</text>
<rect fill="#EEDDDB" height="24" width="48" x="186.5" y="114.5" />
<rect fill="none" height="24" stroke="#405C86" stroke-width="3" width="48" x="186.5" y="114.5" />
<text class="smaller-label intrinsic-color" x="210.5" y="127.5">base[21]</text>
<rect fill="#EEDDDB" height="24" width="48" x="138.5" y="114.5" />
<rect fill="none" height="24" stroke="#405C86" stroke-width="3" width="48" x="138.5" y="114.5" />
<text class="smaller-label intrinsic-color" x="162.5" y="127.5">base[25]</text>
<rect fill="#EEDDDB" height="24" width="48" x="90.5" y="114.5" />
<rect fill="none" height="24" stroke="#405C86" stroke-width="3" width="48" x="90.5" y="114.5" />
<text class="smaller-label intrinsic-color" x="114.5" y="127.5">base[29]</text>
<text class="register-name" x="80.5" y="126.5">Zt2</text>
<text class="intrinsic-name" x="80.5" y="138.5">data[1]</text>
<text class="register-number" x="10" y="126.5">(3)</text>
<rect fill="#ECF1E0" height="24" width="48" x="426.5" y="162.5" />
<rect fill="none" height="24" stroke="#405C86" stroke-width="3" width="48" x="426.5" y="162.5" />
<text class="smaller-label intrinsic-color" x="450.5" y="175.5">base[2]</text>
<rect fill="#ECF1E0" height="24" width="48" x="378.5" y="162.5" />
<rect fill="none" height="24" stroke="#405C86" stroke-width="3" width="48" x="378.5" y="162.5" />
<text class="smaller-label intrinsic-color" x="402.5" y="175.5">base[6]</text>
<rect fill="#ECF1E0" height="24" width="48" x="330.5" y="162.5" />
<rect fill="none" height="24" stroke="#405C86" stroke-width="3" width="48" x="330.5" y="162.5" />
<text class="smaller-label intrinsic-color" x="354.5" y="175.5">base[10]</text>
<rect fill="#ECF1E0" height="24" width="48" x="282.5" y="162.5" />
<rect fill="none" height="24" stroke="#405C86" stroke-width="3" width="48" x="282.5" y="162.5" />
<text class="smaller-label intrinsic-color" x="306.5" y="175.5">base[14]</text>
<rect fill="#ECF1E0" height="24" width="48" x="234.5" y="162.5" />
<rect fill="none" height="24" stroke="#405C86" stroke-width="3" width="48" x="234.5" y="162.5" />
<text class="smaller-label intrinsic-color" x="258.5" y="175.5">base[18]</text>
<rect fill="#ECF1E0" height="24" width="48" x="186.5" y="162.5" />
<rect fill="none" height="24" stroke="#405C86" stroke-width="3" width="48" x="186.5" y="162.5" />
<text class="smaller-label intrinsic-color" x="210.5" y="175.5">base[22]</text>
<rect fill="#ECF1E0" height="24" width="48" x="138.5" y="162.5" />
<rect fill="none" height="24" stroke="#405C86" stroke-width="3" width="48" x="138.5" y="162.5" />
<text class="smaller-label intrinsic-color" x="162.5" y="175.5">base[26]</text>
<rect fill="#ECF1E0" height="24" width="48" x="90.5" y="162.5" />
<rect fill="none" height="24" stroke="#405C86" stroke-width="3" width="48" x="90.5" y="162.5" />
<text class="smaller-label intrinsic-color" x="114.5" y="175.5">base[30]</text>
<text class="register-name" x="80.5" y="174.5">Zt3</text>
<text class="intrinsic-name" x="80.5" y="186.5">data[2]</text>
<text class="register-number" x="10" y="174.5">(4)</text>
<rect fill="#E5E0EB" height="24" width="48" x="426.5" y="210.5" />
<rect fill="none" height="24" stroke="#405C86" stroke-width="3" width="48" x="426.5" y="210.5" />
<text class="smaller-label intrinsic-color" x="450.5" y="223.5">base[3]</text>
<rect fill="#E5E0EB" height="24" width="48" x="378.5" y="210.5" />
<rect fill="none" height="24" stroke="#405C86" stroke-width="3" width="48" x="378.5" y="210.5" />
<text class="smaller-label intrinsic-color" x="402.5" y="223.5">base[7]</text>
<rect fill="#E5E0EB" height="24" width="48" x="330.5" y="210.5" />
<rect fill="none" height="24" stroke="#405C86" stroke-width="3" width="48" x="330.5" y="210.5" />
<text class="smaller-label intrinsic-color" x="354.5" y="223.5">base[11]</text>
<rect fill="#E5E0EB" height="24" width="48" x="282.5" y="210.5" />
<rect fill="none" height="24" stroke="#405C86" stroke-width="3" width="48" x="282.5" y="210.5" />
<text class="smaller-label intrinsic-color" x="306.5" y="223.5">base[15]</text>
<rect fill="#E5E0EB" height="24" width="48" x="234.5" y="210.5" />
<rect fill="none" height="24" stroke="#405C86" stroke-width="3" width="48" x="234.5" y="210.5" />
<text class="smaller-label intrinsic-color" x="258.5" y="223.5">base[19]</text>
<rect fill="#E5E0EB" height="24" width="48" x="186.5" y="210.5" />
<rect fill="none" height="24" stroke="#405C86" stroke-width="3" width="48" x="186.5" y="210.5" />
<text class="smaller-label intrinsic-color" x="210.5" y="223.5">base[23]</text>
<rect fill="#E5E0EB" height="24" width="48" x="138.5" y="210.5" />
<rect fill="none" height="24" stroke="#405C86" stroke-width="3" width="48" x="138.5" y="210.5" />
<text class="smaller-label intrinsic-color" x="162.5" y="223.5">base[27]</text>
<rect fill="#E5E0EB" height="24" width="48" x="90.5" y="210.5" />
<rect fill="none" height="24" stroke="#405C86" stroke-width="3" width="48" x="90.5" y="210.5" />
<text class="smaller-label intrinsic-color" x="114.5" y="223.5">base[31]</text>
<text class="register-name" x="80.5" y="222.5">Zt4</text>
<text class="intrinsic-name" x="80.5" y="234.5">data[3]</text>
<text class="register-number" x="10" y="222.5">(5)</text>
<line stroke="#567DB6" stroke-width="1" x1="455.5" x2="455.5" y1="91.5" y2="281" />
<line stroke="#567DB6" stroke-width="1" x1="450.5" x2="402.5" y1="139.5" y2="281" />
<line stroke="#567DB6" stroke-width="1" x1="450.5" x2="354.5" y1="187.5" y2="281" />
<line stroke="#567DB6" stroke-width="1" x1="450.5" x2="306.5" y1="235.5" y2="281" />
<line stroke="#567DB6" stroke-width="1" x1="114.5" x2="258.5" y1="91.5" y2="389" />
<line stroke="#567DB6" stroke-width="1" x1="114.5" x2="210.5" y1="139.5" y2="389" />
<line stroke="#567DB6" stroke-width="1" x1="114.5" x2="162.5" y1="187.5" y2="389" />
<line stroke="#567DB6" stroke-width="1" x1="114.5" x2="114.5" y1="235.5" y2="389" />
<polyline fill="none" points="429.5 65.5,431.5 61.5,449.5 61.5,450.5 59.5,450.5 55.5,450.5 59.5,451.5 61.5,469.5 61.5,471.5 65.5" stroke="#567DB6" stroke-width="1" />
<line stroke="#567DB6" stroke-width="1" x1="450.5" x2="450.5" y1="43.5" y2="55.5" />
<polyline fill="none" points="381.5 65.5,383.5 61.5,401.5 61.5,402.5 59.5,402.5 55.5,402.5 59.5,403.5 61.5,421.5 61.5,423.5 65.5" stroke="#567DB6" stroke-width="1" />
<line stroke="#567DB6" stroke-width="1" x1="402.5" x2="402.5" y1="43.5" y2="55.5" />
<polyline fill="none" points="333.5 65.5,335.5 61.5,353.5 61.5,354.5 59.5,354.5 55.5,354.5 59.5,355.5 61.5,373.5 61.5,375.5 65.5" stroke="#567DB6" stroke-width="1" />
<line stroke="#567DB6" stroke-width="1" x1="354.5" x2="354.5" y1="43.5" y2="55.5" />
<polyline fill="none" points="285.5 65.5,287.5 61.5,305.5 61.5,306.5 59.5,306.5 55.5,306.5 59.5,307.5 61.5,325.5 61.5,327.5 65.5" stroke="#567DB6" stroke-width="1" />
<line stroke="#567DB6" stroke-width="1" x1="306.5" x2="306.5" y1="43.5" y2="55.5" />
<polyline fill="none" points="237.5 65.5,239.5 61.5,257.5 61.5,258.5 59.5,258.5 55.5,258.5 59.5,259.5 61.5,277.5 61.5,279.5 65.5" stroke="#567DB6" stroke-width="1" />
<line stroke="#567DB6" stroke-width="1" x1="258.5" x2="258.5" y1="43.5" y2="55.5" />
<polyline fill="none" points="189.5 65.5,191.5 61.5,209.5 61.5,210.5 59.5,210.5 55.5,210.5 59.5,211.5 61.5,229.5 61.5,231.5 65.5" stroke="#567DB6" stroke-width="1" />
<line stroke="#567DB6" stroke-width="1" x1="210.5" x2="210.5" y1="43.5" y2="55.5" />
<polyline fill="none" points="141.5 65.5,143.5 61.5,161.5 61.5,162.5 59.5,162.5 55.5,162.5 59.5,163.5 61.5,181.5 61.5,183.5 65.5" stroke="#567DB6" stroke-width="1" />
<line stroke="#567DB6" stroke-width="1" x1="162.5" x2="162.5" y1="43.5" y2="55.5" />
<polyline fill="none" points="93.5 65.5,95.5 61.5,113.5 61.5,114.5 59.5,114.5 55.5,114.5 59.5,115.5 61.5,133.5 61.5,135.5 65.5" stroke="#567DB6" stroke-width="1" />
<line stroke="#567DB6" stroke-width="1" x1="114.5" x2="114.5" y1="43.5" y2="55.5" />
<line marker-end="url(#arrowhead)" stroke="none" x1="455.5" x2="455.5" y1="91.5" y2="281" />
<line marker-end="url(#arrowhead)" stroke="none" x1="450.5" x2="402.5" y1="139.5" y2="281" />
<line marker-end="url(#arrowhead)" stroke="none" x1="450.5" x2="354.5" y1="187.5" y2="281" />
<line marker-end="url(#arrowhead)" stroke="none" x1="450.5" x2="306.5" y1="235.5" y2="281" />
<line marker-end="url(#arrowhead)" stroke="none" x1="114.5" x2="258.5" y1="91.5" y2="389" />
<line marker-end="url(#arrowhead)" stroke="none" x1="114.5" x2="210.5" y1="139.5" y2="389" />
<line marker-end="url(#arrowhead)" stroke="none" x1="114.5" x2="162.5" y1="187.5" y2="389" />
<line marker-end="url(#arrowhead)" stroke="none" x1="114.5" x2="114.5" y1="235.5" y2="389" />
</svg>