<svg xmlns="http://www.w3.org/2000/svg" viewBox="0 0 3174 123">
<style>
.label { font: 14px Helvetica; dominant-baseline: middle; text-anchor: middle; }
.title-left { font: 12px Helvetica; dominant-baseline: middle; }
.title-right { font: 12px Helvetica; dominant-baseline: middle; text-anchor: end; }
.title-intrinsic { font: 12px Helvetica; dominant-baseline: middle; text-anchor: middle; fill: #6778ED; }
.title { font: 12px Helvetica; dominant-baseline: middle; text-anchor: middle; }
.title-unused { font: 12px Helvetica; dominant-baseline: middle; text-anchor: middle; fill: #AAA; }
.register-name { font: 14px Helvetica; dominant-baseline: middle; text-anchor: end; font-style: italic; }
.memory-name { font: 14px Helvetica; dominant-baseline: middle; text-anchor: end; }
.register-number { font: 14px Helvetica; dominant-baseline: middle; text-anchor: start; }
.intrinsic-name { font: 14px Helvetica; dominant-baseline: middle; text-anchor: end; fill: #6778ED; }
.intrinsic-color { fill: #6778ED; }
.small-label { font: 12px Helvetica; dominant-baseline: middle; text-anchor: middle; }
.label-10px { font: 10px Helvetica; dominant-baseline: middle; text-anchor: middle; }
.smaller-label { font: 9px Helvetica; dominant-baseline: middle; text-anchor: middle; }
.label-6px { font: 6px Helvetica; dominant-baseline: middle; text-anchor: middle; }
.label-7px { font: 7px Helvetica; dominant-baseline: middle; text-anchor: middle; }
.unused { fill: #AAA; }
.dim { fill: #888; }
</style>
<defs>
<marker id="arrowhead" markerWidth="10.75" markerHeight="24.5" refX="9.0" refY="6.125" orient="auto">
<polyline points="0.5 0.5, 8.75 6.125, 0.5 11.75" stroke="#567DB6" stroke-width="1" fill="none"/>
</marker>
</defs>
<line stroke="#567DB6" stroke-width="1" x1="1580.703125" x2="3115.9765625" y1="43.5" y2="89" />
<line stroke="#567DB6" stroke-width="1" x1="1484.703125" x2="2923.9765625" y1="43.5" y2="89" />
<line stroke="#567DB6" stroke-width="1" x1="1388.703125" x2="2731.9765625" y1="43.5" y2="89" />
<line stroke="#567DB6" stroke-width="1" x1="1292.703125" x2="2539.9765625" y1="43.5" y2="89" />
<line stroke="#567DB6" stroke-width="1" x1="1196.703125" x2="2347.9765625" y1="43.5" y2="89" />
<line stroke="#567DB6" stroke-width="1" x1="1100.703125" x2="2155.9765625" y1="43.5" y2="89" />
<line stroke="#567DB6" stroke-width="1" x1="1004.703125" x2="1963.9765625" y1="43.5" y2="89" />
<line stroke="#567DB6" stroke-width="1" x1="908.703125" x2="1771.9765625" y1="43.5" y2="89" />
<line stroke="#567DB6" stroke-width="1" x1="812.703125" x2="1579.9765625" y1="43.5" y2="89" />
<line stroke="#567DB6" stroke-width="1" x1="716.703125" x2="1387.9765625" y1="43.5" y2="89" />
<line stroke="#567DB6" stroke-width="1" x1="620.703125" x2="1195.9765625" y1="43.5" y2="89" />
<line stroke="#567DB6" stroke-width="1" x1="524.703125" x2="1003.9765625" y1="43.5" y2="89" />
<line stroke="#567DB6" stroke-width="1" x1="428.703125" x2="811.9765625" y1="43.5" y2="89" />
<line stroke="#567DB6" stroke-width="1" x1="332.703125" x2="619.9765625" y1="43.5" y2="89" />
<line stroke="#567DB6" stroke-width="1" x1="236.703125" x2="427.9765625" y1="43.5" y2="89" />
<line stroke="#567DB6" stroke-width="1" x1="140.703125" x2="235.9765625" y1="43.5" y2="89" />
<text class="title-left" x="90.5" y="9.5">upper</text>
<text class="title-right" x="3162.5" y="9.5">lower</text>
<rect fill="none" height="24" stroke="#405C86" stroke-dasharray="3 1" stroke-dashoffset="1.5" stroke-width="1" width="1536" x="1626.5" y="18.5" />
<text class="label unused" x="2394.5" y="31.5"></text>
<rect fill="#DEE6F1" height="24" width="91.59375" x="1534.90625" y="18.5" />
<rect fill="#EEDDDB" height="24" width="4.40625" x="1530.5" y="18.5" />
<rect fill="none" height="24" stroke="#405C86" stroke-width="3" width="96" x="1530.5" y="18.5" />
<rect fill="#DEE6F1" height="24" width="91.59375" x="1438.90625" y="18.5" />
<rect fill="#EEDDDB" height="24" width="4.40625" x="1434.5" y="18.5" />
<rect fill="none" height="24" stroke="#405C86" stroke-width="3" width="96" x="1434.5" y="18.5" />
<rect fill="#DEE6F1" height="24" width="91.59375" x="1342.90625" y="18.5" />
<rect fill="#EEDDDB" height="24" width="4.40625" x="1338.5" y="18.5" />
<rect fill="none" height="24" stroke="#405C86" stroke-width="3" width="96" x="1338.5" y="18.5" />
<rect fill="#DEE6F1" height="24" width="91.59375" x="1246.90625" y="18.5" />
<rect fill="#EEDDDB" height="24" width="4.40625" x="1242.5" y="18.5" />
<rect fill="none" height="24" stroke="#405C86" stroke-width="3" width="96" x="1242.5" y="18.5" />
<rect fill="#DEE6F1" height="24" width="91.59375" x="1150.90625" y="18.5" />
<rect fill="#EEDDDB" height="24" width="4.40625" x="1146.5" y="18.5" />
<rect fill="none" height="24" stroke="#405C86" stroke-width="3" width="96" x="1146.5" y="18.5" />
<rect fill="#DEE6F1" height="24" width="91.59375" x="1054.90625" y="18.5" />
<rect fill="#EEDDDB" height="24" width="4.40625" x="1050.5" y="18.5" />
<rect fill="none" height="24" stroke="#405C86" stroke-width="3" width="96" x="1050.5" y="18.5" />
<rect fill="#DEE6F1" height="24" width="91.59375" x="958.90625" y="18.5" />
<rect fill="#EEDDDB" height="24" width="4.40625" x="954.5" y="18.5" />
<rect fill="none" height="24" stroke="#405C86" stroke-width="3" width="96" x="954.5" y="18.5" />
<rect fill="#DEE6F1" height="24" width="91.59375" x="862.90625" y="18.5" />
<rect fill="#EEDDDB" height="24" width="4.40625" x="858.5" y="18.5" />
<rect fill="none" height="24" stroke="#405C86" stroke-width="3" width="96" x="858.5" y="18.5" />
<rect fill="#DEE6F1" height="24" width="91.59375" x="766.90625" y="18.5" />
<rect fill="#EEDDDB" height="24" width="4.40625" x="762.5" y="18.5" />
<rect fill="none" height="24" stroke="#405C86" stroke-width="3" width="96" x="762.5" y="18.5" />
<rect fill="#DEE6F1" height="24" width="91.59375" x="670.90625" y="18.5" />
<rect fill="#EEDDDB" height="24" width="4.40625" x="666.5" y="18.5" />
<rect fill="none" height="24" stroke="#405C86" stroke-width="3" width="96" x="666.5" y="18.5" />
<rect fill="#DEE6F1" height="24" width="91.59375" x="574.90625" y="18.5" />
<rect fill="#EEDDDB" height="24" width="4.40625" x="570.5" y="18.5" />
<rect fill="none" height="24" stroke="#405C86" stroke-width="3" width="96" x="570.5" y="18.5" />
<rect fill="#DEE6F1" height="24" width="91.59375" x="478.90625" y="18.5" />
<rect fill="#EEDDDB" height="24" width="4.40625" x="474.5" y="18.5" />
<rect fill="none" height="24" stroke="#405C86" stroke-width="3" width="96" x="474.5" y="18.5" />
<rect fill="#DEE6F1" height="24" width="91.59375" x="382.90625" y="18.5" />
<rect fill="#EEDDDB" height="24" width="4.40625" x="378.5" y="18.5" />
<rect fill="none" height="24" stroke="#405C86" stroke-width="3" width="96" x="378.5" y="18.5" />
<rect fill="#DEE6F1" height="24" width="91.59375" x="286.90625" y="18.5" />
<rect fill="#EEDDDB" height="24" width="4.40625" x="282.5" y="18.5" />
<rect fill="none" height="24" stroke="#405C86" stroke-width="3" width="96" x="282.5" y="18.5" />
<rect fill="#DEE6F1" height="24" width="91.59375" x="190.90625" y="18.5" />
<rect fill="#EEDDDB" height="24" width="4.40625" x="186.5" y="18.5" />
<rect fill="none" height="24" stroke="#405C86" stroke-width="3" width="96" x="186.5" y="18.5" />
<rect fill="#DEE6F1" height="24" width="91.59375" x="94.90625" y="18.5" />
<rect fill="#EEDDDB" height="24" width="4.40625" x="90.5" y="18.5" />
<rect fill="none" height="24" stroke="#405C86" stroke-width="3" width="96" x="90.5" y="18.5" />
<text class="register-name" x="80.5" y="30.5">Zn</text>
<text class="intrinsic-name" x="80.5" y="42.5">op</text>
<text class="register-number" x="10" y="30.5">(1)</text>
<rect fill="#DEE6F1" height="24" width="93.046875" x="3069.453125" y="90.5" />
<rect fill="#EEDDDB" height="24" width="98.953125" x="2970.5" y="90.5" />
<rect fill="none" height="24" stroke="#405C86" stroke-width="3" width="192" x="2970.5" y="90.5" />
<rect fill="#DEE6F1" height="24" width="93.046875" x="2877.453125" y="90.5" />
<rect fill="#EEDDDB" height="24" width="98.953125" x="2778.5" y="90.5" />
<rect fill="none" height="24" stroke="#405C86" stroke-width="3" width="192" x="2778.5" y="90.5" />
<rect fill="#DEE6F1" height="24" width="93.046875" x="2685.453125" y="90.5" />
<rect fill="#EEDDDB" height="24" width="98.953125" x="2586.5" y="90.5" />
<rect fill="none" height="24" stroke="#405C86" stroke-width="3" width="192" x="2586.5" y="90.5" />
<rect fill="#DEE6F1" height="24" width="93.046875" x="2493.453125" y="90.5" />
<rect fill="#EEDDDB" height="24" width="98.953125" x="2394.5" y="90.5" />
<rect fill="none" height="24" stroke="#405C86" stroke-width="3" width="192" x="2394.5" y="90.5" />
<rect fill="#DEE6F1" height="24" width="93.046875" x="2301.453125" y="90.5" />
<rect fill="#EEDDDB" height="24" width="98.953125" x="2202.5" y="90.5" />
<rect fill="none" height="24" stroke="#405C86" stroke-width="3" width="192" x="2202.5" y="90.5" />
<rect fill="#DEE6F1" height="24" width="93.046875" x="2109.453125" y="90.5" />
<rect fill="#EEDDDB" height="24" width="98.953125" x="2010.5" y="90.5" />
<rect fill="none" height="24" stroke="#405C86" stroke-width="3" width="192" x="2010.5" y="90.5" />
<rect fill="#DEE6F1" height="24" width="93.046875" x="1917.453125" y="90.5" />
<rect fill="#EEDDDB" height="24" width="98.953125" x="1818.5" y="90.5" />
<rect fill="none" height="24" stroke="#405C86" stroke-width="3" width="192" x="1818.5" y="90.5" />
<rect fill="#DEE6F1" height="24" width="93.046875" x="1725.453125" y="90.5" />
<rect fill="#EEDDDB" height="24" width="98.953125" x="1626.5" y="90.5" />
<rect fill="none" height="24" stroke="#405C86" stroke-width="3" width="192" x="1626.5" y="90.5" />
<rect fill="#DEE6F1" height="24" width="93.046875" x="1533.453125" y="90.5" />
<rect fill="#EEDDDB" height="24" width="98.953125" x="1434.5" y="90.5" />
<rect fill="none" height="24" stroke="#405C86" stroke-width="3" width="192" x="1434.5" y="90.5" />
<rect fill="#DEE6F1" height="24" width="93.046875" x="1341.453125" y="90.5" />
<rect fill="#EEDDDB" height="24" width="98.953125" x="1242.5" y="90.5" />
<rect fill="none" height="24" stroke="#405C86" stroke-width="3" width="192" x="1242.5" y="90.5" />
<rect fill="#DEE6F1" height="24" width="93.046875" x="1149.453125" y="90.5" />
<rect fill="#EEDDDB" height="24" width="98.953125" x="1050.5" y="90.5" />
<rect fill="none" height="24" stroke="#405C86" stroke-width="3" width="192" x="1050.5" y="90.5" />
<rect fill="#DEE6F1" height="24" width="93.046875" x="957.453125" y="90.5" />
<rect fill="#EEDDDB" height="24" width="98.953125" x="858.5" y="90.5" />
<rect fill="none" height="24" stroke="#405C86" stroke-width="3" width="192" x="858.5" y="90.5" />
<rect fill="#DEE6F1" height="24" width="93.046875" x="765.453125" y="90.5" />
<rect fill="#EEDDDB" height="24" width="98.953125" x="666.5" y="90.5" />
<rect fill="none" height="24" stroke="#405C86" stroke-width="3" width="192" x="666.5" y="90.5" />
<rect fill="#DEE6F1" height="24" width="93.046875" x="573.453125" y="90.5" />
<rect fill="#EEDDDB" height="24" width="98.953125" x="474.5" y="90.5" />
<rect fill="none" height="24" stroke="#405C86" stroke-width="3" width="192" x="474.5" y="90.5" />
<rect fill="#DEE6F1" height="24" width="93.046875" x="381.453125" y="90.5" />
<rect fill="#EEDDDB" height="24" width="98.953125" x="282.5" y="90.5" />
<rect fill="none" height="24" stroke="#405C86" stroke-width="3" width="192" x="282.5" y="90.5" />
<rect fill="#DEE6F1" height="24" width="93.046875" x="189.453125" y="90.5" />
<rect fill="#EEDDDB" height="24" width="98.953125" x="90.5" y="90.5" />
<rect fill="none" height="24" stroke="#405C86" stroke-width="3" width="192" x="90.5" y="90.5" />
<text class="register-name" x="80.5" y="102.5">Zd</text>
<text class="intrinsic-name" x="80.5" y="114.5">returns</text>
<text class="register-number" x="10" y="102.5">(2)</text>
<line marker-end="url(#arrowhead)" stroke="none" x1="1580.703125" x2="3115.9765625" y1="43.5" y2="89" />
<line marker-end="url(#arrowhead)" stroke="none" x1="1484.703125" x2="2923.9765625" y1="43.5" y2="89" />
<line marker-end="url(#arrowhead)" stroke="none" x1="1388.703125" x2="2731.9765625" y1="43.5" y2="89" />
<line marker-end="url(#arrowhead)" stroke="none" x1="1292.703125" x2="2539.9765625" y1="43.5" y2="89" />
<line marker-end="url(#arrowhead)" stroke="none" x1="1196.703125" x2="2347.9765625" y1="43.5" y2="89" />
<line marker-end="url(#arrowhead)" stroke="none" x1="1100.703125" x2="2155.9765625" y1="43.5" y2="89" />
<line marker-end="url(#arrowhead)" stroke="none" x1="1004.703125" x2="1963.9765625" y1="43.5" y2="89" />
<line marker-end="url(#arrowhead)" stroke="none" x1="908.703125" x2="1771.9765625" y1="43.5" y2="89" />
<line marker-end="url(#arrowhead)" stroke="none" x1="812.703125" x2="1579.9765625" y1="43.5" y2="89" />
<line marker-end="url(#arrowhead)" stroke="none" x1="716.703125" x2="1387.9765625" y1="43.5" y2="89" />
<line marker-end="url(#arrowhead)" stroke="none" x1="620.703125" x2="1195.9765625" y1="43.5" y2="89" />
<line marker-end="url(#arrowhead)" stroke="none" x1="524.703125" x2="1003.9765625" y1="43.5" y2="89" />
<line marker-end="url(#arrowhead)" stroke="none" x1="428.703125" x2="811.9765625" y1="43.5" y2="89" />
<line marker-end="url(#arrowhead)" stroke="none" x1="332.703125" x2="619.9765625" y1="43.5" y2="89" />
<line marker-end="url(#arrowhead)" stroke="none" x1="236.703125" x2="427.9765625" y1="43.5" y2="89" />
<line marker-end="url(#arrowhead)" stroke="none" x1="140.703125" x2="235.9765625" y1="43.5" y2="89" />
</svg>