<svg xmlns="http://www.w3.org/2000/svg" viewBox="0 0 870 123">
<style>
.label { font: 14px Helvetica; dominant-baseline: middle; text-anchor: middle; }
.title-left { font: 12px Helvetica; dominant-baseline: middle; }
.title-right { font: 12px Helvetica; dominant-baseline: middle; text-anchor: end; }
.title-intrinsic { font: 12px Helvetica; dominant-baseline: middle; text-anchor: middle; fill: #6778ED; }
.title { font: 12px Helvetica; dominant-baseline: middle; text-anchor: middle; }
.title-unused { font: 12px Helvetica; dominant-baseline: middle; text-anchor: middle; fill: #AAA; }
.register-name { font: 14px Helvetica; dominant-baseline: middle; text-anchor: end; font-style: italic; }
.memory-name { font: 14px Helvetica; dominant-baseline: middle; text-anchor: end; }
.register-number { font: 14px Helvetica; dominant-baseline: middle; text-anchor: start; }
.intrinsic-name { font: 14px Helvetica; dominant-baseline: middle; text-anchor: end; fill: #6778ED; }
.intrinsic-color { fill: #6778ED; }
.small-label { font: 12px Helvetica; dominant-baseline: middle; text-anchor: middle; }
.label-10px { font: 10px Helvetica; dominant-baseline: middle; text-anchor: middle; }
.smaller-label { font: 9px Helvetica; dominant-baseline: middle; text-anchor: middle; }
.label-6px { font: 6px Helvetica; dominant-baseline: middle; text-anchor: middle; }
.label-7px { font: 7px Helvetica; dominant-baseline: middle; text-anchor: middle; }
.unused { fill: #AAA; }
.dim { fill: #888; }
</style>
<defs>
<marker id="arrowhead" markerWidth="10.75" markerHeight="24.5" refX="9.0" refY="6.125" orient="auto">
<polyline points="0.5 0.5, 8.75 6.125, 0.5 11.75" stroke="#567DB6" stroke-width="1" fill="none"/>
</marker>
</defs>
<line stroke="#567DB6" stroke-width="1" x1="452.65625" x2="835.953125" y1="43.5" y2="89" />
<line stroke="#567DB6" stroke-width="1" x1="404.65625" x2="739.953125" y1="43.5" y2="89" />
<line stroke="#567DB6" stroke-width="1" x1="356.65625" x2="643.953125" y1="43.5" y2="89" />
<line stroke="#567DB6" stroke-width="1" x1="308.65625" x2="547.953125" y1="43.5" y2="89" />
<line stroke="#567DB6" stroke-width="1" x1="260.65625" x2="451.953125" y1="43.5" y2="89" />
<line stroke="#567DB6" stroke-width="1" x1="212.65625" x2="355.953125" y1="43.5" y2="89" />
<line stroke="#567DB6" stroke-width="1" x1="164.65625" x2="259.953125" y1="43.5" y2="89" />
<line stroke="#567DB6" stroke-width="1" x1="116.65625" x2="163.953125" y1="43.5" y2="89" />
<text class="title-left" x="90.5" y="9.5">upper</text>
<text class="title-right" x="858.5" y="9.5">lower</text>
<rect fill="none" height="24" stroke="#405C86" stroke-dasharray="3 1" stroke-dashoffset="1.5" stroke-width="1" width="384" x="474.5" y="18.5" />
<text class="label unused" x="666.5" y="31.5"></text>
<rect fill="#DEE6F1" height="24" width="43.6875" x="430.8125" y="18.5" />
<rect fill="#EEDDDB" height="24" width="4.3125" x="426.5" y="18.5" />
<rect fill="none" height="24" stroke="#405C86" stroke-width="3" width="48" x="426.5" y="18.5" />
<rect fill="#DEE6F1" height="24" width="43.6875" x="382.8125" y="18.5" />
<rect fill="#EEDDDB" height="24" width="4.3125" x="378.5" y="18.5" />
<rect fill="none" height="24" stroke="#405C86" stroke-width="3" width="48" x="378.5" y="18.5" />
<rect fill="#DEE6F1" height="24" width="43.6875" x="334.8125" y="18.5" />
<rect fill="#EEDDDB" height="24" width="4.3125" x="330.5" y="18.5" />
<rect fill="none" height="24" stroke="#405C86" stroke-width="3" width="48" x="330.5" y="18.5" />
<rect fill="#DEE6F1" height="24" width="43.6875" x="286.8125" y="18.5" />
<rect fill="#EEDDDB" height="24" width="4.3125" x="282.5" y="18.5" />
<rect fill="none" height="24" stroke="#405C86" stroke-width="3" width="48" x="282.5" y="18.5" />
<rect fill="#DEE6F1" height="24" width="43.6875" x="238.8125" y="18.5" />
<rect fill="#EEDDDB" height="24" width="4.3125" x="234.5" y="18.5" />
<rect fill="none" height="24" stroke="#405C86" stroke-width="3" width="48" x="234.5" y="18.5" />
<rect fill="#DEE6F1" height="24" width="43.6875" x="190.8125" y="18.5" />
<rect fill="#EEDDDB" height="24" width="4.3125" x="186.5" y="18.5" />
<rect fill="none" height="24" stroke="#405C86" stroke-width="3" width="48" x="186.5" y="18.5" />
<rect fill="#DEE6F1" height="24" width="43.6875" x="142.8125" y="18.5" />
<rect fill="#EEDDDB" height="24" width="4.3125" x="138.5" y="18.5" />
<rect fill="none" height="24" stroke="#405C86" stroke-width="3" width="48" x="138.5" y="18.5" />
<rect fill="#DEE6F1" height="24" width="43.6875" x="94.8125" y="18.5" />
<rect fill="#EEDDDB" height="24" width="4.3125" x="90.5" y="18.5" />
<rect fill="none" height="24" stroke="#405C86" stroke-width="3" width="48" x="90.5" y="18.5" />
<text class="register-name" x="80.5" y="30.5">Zn</text>
<text class="intrinsic-name" x="80.5" y="42.5">op</text>
<text class="register-number" x="10" y="30.5">(1)</text>
<rect fill="#DEE6F1" height="24" width="45.09375" x="813.40625" y="90.5" />
<rect fill="#EEDDDB" height="24" width="50.90625" x="762.5" y="90.5" />
<rect fill="none" height="24" stroke="#405C86" stroke-width="3" width="96" x="762.5" y="90.5" />
<rect fill="#DEE6F1" height="24" width="45.09375" x="717.40625" y="90.5" />
<rect fill="#EEDDDB" height="24" width="50.90625" x="666.5" y="90.5" />
<rect fill="none" height="24" stroke="#405C86" stroke-width="3" width="96" x="666.5" y="90.5" />
<rect fill="#DEE6F1" height="24" width="45.09375" x="621.40625" y="90.5" />
<rect fill="#EEDDDB" height="24" width="50.90625" x="570.5" y="90.5" />
<rect fill="none" height="24" stroke="#405C86" stroke-width="3" width="96" x="570.5" y="90.5" />
<rect fill="#DEE6F1" height="24" width="45.09375" x="525.40625" y="90.5" />
<rect fill="#EEDDDB" height="24" width="50.90625" x="474.5" y="90.5" />
<rect fill="none" height="24" stroke="#405C86" stroke-width="3" width="96" x="474.5" y="90.5" />
<rect fill="#DEE6F1" height="24" width="45.09375" x="429.40625" y="90.5" />
<rect fill="#EEDDDB" height="24" width="50.90625" x="378.5" y="90.5" />
<rect fill="none" height="24" stroke="#405C86" stroke-width="3" width="96" x="378.5" y="90.5" />
<rect fill="#DEE6F1" height="24" width="45.09375" x="333.40625" y="90.5" />
<rect fill="#EEDDDB" height="24" width="50.90625" x="282.5" y="90.5" />
<rect fill="none" height="24" stroke="#405C86" stroke-width="3" width="96" x="282.5" y="90.5" />
<rect fill="#DEE6F1" height="24" width="45.09375" x="237.40625" y="90.5" />
<rect fill="#EEDDDB" height="24" width="50.90625" x="186.5" y="90.5" />
<rect fill="none" height="24" stroke="#405C86" stroke-width="3" width="96" x="186.5" y="90.5" />
<rect fill="#DEE6F1" height="24" width="45.09375" x="141.40625" y="90.5" />
<rect fill="#EEDDDB" height="24" width="50.90625" x="90.5" y="90.5" />
<rect fill="none" height="24" stroke="#405C86" stroke-width="3" width="96" x="90.5" y="90.5" />
<text class="register-name" x="80.5" y="102.5">Zd</text>
<text class="intrinsic-name" x="80.5" y="114.5">returns</text>
<text class="register-number" x="10" y="102.5">(2)</text>
<line marker-end="url(#arrowhead)" stroke="none" x1="452.65625" x2="835.953125" y1="43.5" y2="89" />
<line marker-end="url(#arrowhead)" stroke="none" x1="404.65625" x2="739.953125" y1="43.5" y2="89" />
<line marker-end="url(#arrowhead)" stroke="none" x1="356.65625" x2="643.953125" y1="43.5" y2="89" />
<line marker-end="url(#arrowhead)" stroke="none" x1="308.65625" x2="547.953125" y1="43.5" y2="89" />
<line marker-end="url(#arrowhead)" stroke="none" x1="260.65625" x2="451.953125" y1="43.5" y2="89" />
<line marker-end="url(#arrowhead)" stroke="none" x1="212.65625" x2="355.953125" y1="43.5" y2="89" />
<line marker-end="url(#arrowhead)" stroke="none" x1="164.65625" x2="259.953125" y1="43.5" y2="89" />
<line marker-end="url(#arrowhead)" stroke="none" x1="116.65625" x2="163.953125" y1="43.5" y2="89" />
</svg>