<svg xmlns="http://www.w3.org/2000/svg" viewBox="0 0 6246 123">
<style>
.label { font: 14px Helvetica; dominant-baseline: middle; text-anchor: middle; }
.title-left { font: 12px Helvetica; dominant-baseline: middle; }
.title-right { font: 12px Helvetica; dominant-baseline: middle; text-anchor: end; }
.title-intrinsic { font: 12px Helvetica; dominant-baseline: middle; text-anchor: middle; fill: #6778ED; }
.title { font: 12px Helvetica; dominant-baseline: middle; text-anchor: middle; }
.title-unused { font: 12px Helvetica; dominant-baseline: middle; text-anchor: middle; fill: #AAA; }
.register-name { font: 14px Helvetica; dominant-baseline: middle; text-anchor: end; font-style: italic; }
.memory-name { font: 14px Helvetica; dominant-baseline: middle; text-anchor: end; }
.register-number { font: 14px Helvetica; dominant-baseline: middle; text-anchor: start; }
.intrinsic-name { font: 14px Helvetica; dominant-baseline: middle; text-anchor: end; fill: #6778ED; }
.intrinsic-color { fill: #6778ED; }
.small-label { font: 12px Helvetica; dominant-baseline: middle; text-anchor: middle; }
.label-10px { font: 10px Helvetica; dominant-baseline: middle; text-anchor: middle; }
.smaller-label { font: 9px Helvetica; dominant-baseline: middle; text-anchor: middle; }
.label-6px { font: 6px Helvetica; dominant-baseline: middle; text-anchor: middle; }
.label-7px { font: 7px Helvetica; dominant-baseline: middle; text-anchor: middle; }
.unused { fill: #AAA; }
.dim { fill: #888; }
</style>
<defs>
<marker id="arrowhead" markerWidth="10.75" markerHeight="24.5" refX="9.0" refY="6.125" orient="auto">
<polyline points="0.5 0.5, 8.75 6.125, 0.5 11.75" stroke="#567DB6" stroke-width="1" fill="none"/>
</marker>
</defs>
<line stroke="#567DB6" stroke-width="1" x1="6212.65625" x2="6211.953125" y1="43.5" y2="89" />
<line stroke="#567DB6" stroke-width="1" x1="6164.65625" x2="6115.953125" y1="43.5" y2="89" />
<line stroke="#567DB6" stroke-width="1" x1="6116.65625" x2="6019.953125" y1="43.5" y2="89" />
<line stroke="#567DB6" stroke-width="1" x1="6068.65625" x2="5923.953125" y1="43.5" y2="89" />
<line stroke="#567DB6" stroke-width="1" x1="6020.65625" x2="5827.953125" y1="43.5" y2="89" />
<line stroke="#567DB6" stroke-width="1" x1="5972.65625" x2="5731.953125" y1="43.5" y2="89" />
<line stroke="#567DB6" stroke-width="1" x1="5924.65625" x2="5635.953125" y1="43.5" y2="89" />
<line stroke="#567DB6" stroke-width="1" x1="5876.65625" x2="5539.953125" y1="43.5" y2="89" />
<line stroke="#567DB6" stroke-width="1" x1="5828.65625" x2="5443.953125" y1="43.5" y2="89" />
<line stroke="#567DB6" stroke-width="1" x1="5780.65625" x2="5347.953125" y1="43.5" y2="89" />
<line stroke="#567DB6" stroke-width="1" x1="5732.65625" x2="5251.953125" y1="43.5" y2="89" />
<line stroke="#567DB6" stroke-width="1" x1="5684.65625" x2="5155.953125" y1="43.5" y2="89" />
<line stroke="#567DB6" stroke-width="1" x1="5636.65625" x2="5059.953125" y1="43.5" y2="89" />
<line stroke="#567DB6" stroke-width="1" x1="5588.65625" x2="4963.953125" y1="43.5" y2="89" />
<line stroke="#567DB6" stroke-width="1" x1="5540.65625" x2="4867.953125" y1="43.5" y2="89" />
<line stroke="#567DB6" stroke-width="1" x1="5492.65625" x2="4771.953125" y1="43.5" y2="89" />
<line stroke="#567DB6" stroke-width="1" x1="5444.65625" x2="4675.953125" y1="43.5" y2="89" />
<line stroke="#567DB6" stroke-width="1" x1="5396.65625" x2="4579.953125" y1="43.5" y2="89" />
<line stroke="#567DB6" stroke-width="1" x1="5348.65625" x2="4483.953125" y1="43.5" y2="89" />
<line stroke="#567DB6" stroke-width="1" x1="5300.65625" x2="4387.953125" y1="43.5" y2="89" />
<line stroke="#567DB6" stroke-width="1" x1="5252.65625" x2="4291.953125" y1="43.5" y2="89" />
<line stroke="#567DB6" stroke-width="1" x1="5204.65625" x2="4195.953125" y1="43.5" y2="89" />
<line stroke="#567DB6" stroke-width="1" x1="5156.65625" x2="4099.953125" y1="43.5" y2="89" />
<line stroke="#567DB6" stroke-width="1" x1="5108.65625" x2="4003.953125" y1="43.5" y2="89" />
<line stroke="#567DB6" stroke-width="1" x1="5060.65625" x2="3907.953125" y1="43.5" y2="89" />
<line stroke="#567DB6" stroke-width="1" x1="5012.65625" x2="3811.953125" y1="43.5" y2="89" />
<line stroke="#567DB6" stroke-width="1" x1="4964.65625" x2="3715.953125" y1="43.5" y2="89" />
<line stroke="#567DB6" stroke-width="1" x1="4916.65625" x2="3619.953125" y1="43.5" y2="89" />
<line stroke="#567DB6" stroke-width="1" x1="4868.65625" x2="3523.953125" y1="43.5" y2="89" />
<line stroke="#567DB6" stroke-width="1" x1="4820.65625" x2="3427.953125" y1="43.5" y2="89" />
<line stroke="#567DB6" stroke-width="1" x1="4772.65625" x2="3331.953125" y1="43.5" y2="89" />
<line stroke="#567DB6" stroke-width="1" x1="4724.65625" x2="3235.953125" y1="43.5" y2="89" />
<line stroke="#567DB6" stroke-width="1" x1="4676.65625" x2="3139.953125" y1="43.5" y2="89" />
<line stroke="#567DB6" stroke-width="1" x1="4628.65625" x2="3043.953125" y1="43.5" y2="89" />
<line stroke="#567DB6" stroke-width="1" x1="4580.65625" x2="2947.953125" y1="43.5" y2="89" />
<line stroke="#567DB6" stroke-width="1" x1="4532.65625" x2="2851.953125" y1="43.5" y2="89" />
<line stroke="#567DB6" stroke-width="1" x1="4484.65625" x2="2755.953125" y1="43.5" y2="89" />
<line stroke="#567DB6" stroke-width="1" x1="4436.65625" x2="2659.953125" y1="43.5" y2="89" />
<line stroke="#567DB6" stroke-width="1" x1="4388.65625" x2="2563.953125" y1="43.5" y2="89" />
<line stroke="#567DB6" stroke-width="1" x1="4340.65625" x2="2467.953125" y1="43.5" y2="89" />
<line stroke="#567DB6" stroke-width="1" x1="4292.65625" x2="2371.953125" y1="43.5" y2="89" />
<line stroke="#567DB6" stroke-width="1" x1="4244.65625" x2="2275.953125" y1="43.5" y2="89" />
<line stroke="#567DB6" stroke-width="1" x1="4196.65625" x2="2179.953125" y1="43.5" y2="89" />
<line stroke="#567DB6" stroke-width="1" x1="4148.65625" x2="2083.953125" y1="43.5" y2="89" />
<line stroke="#567DB6" stroke-width="1" x1="4100.65625" x2="1987.953125" y1="43.5" y2="89" />
<line stroke="#567DB6" stroke-width="1" x1="4052.65625" x2="1891.953125" y1="43.5" y2="89" />
<line stroke="#567DB6" stroke-width="1" x1="4004.65625" x2="1795.953125" y1="43.5" y2="89" />
<line stroke="#567DB6" stroke-width="1" x1="3956.65625" x2="1699.953125" y1="43.5" y2="89" />
<line stroke="#567DB6" stroke-width="1" x1="3908.65625" x2="1603.953125" y1="43.5" y2="89" />
<line stroke="#567DB6" stroke-width="1" x1="3860.65625" x2="1507.953125" y1="43.5" y2="89" />
<line stroke="#567DB6" stroke-width="1" x1="3812.65625" x2="1411.953125" y1="43.5" y2="89" />
<line stroke="#567DB6" stroke-width="1" x1="3764.65625" x2="1315.953125" y1="43.5" y2="89" />
<line stroke="#567DB6" stroke-width="1" x1="3716.65625" x2="1219.953125" y1="43.5" y2="89" />
<line stroke="#567DB6" stroke-width="1" x1="3668.65625" x2="1123.953125" y1="43.5" y2="89" />
<line stroke="#567DB6" stroke-width="1" x1="3620.65625" x2="1027.953125" y1="43.5" y2="89" />
<line stroke="#567DB6" stroke-width="1" x1="3572.65625" x2="931.953125" y1="43.5" y2="89" />
<line stroke="#567DB6" stroke-width="1" x1="3524.65625" x2="835.953125" y1="43.5" y2="89" />
<line stroke="#567DB6" stroke-width="1" x1="3476.65625" x2="739.953125" y1="43.5" y2="89" />
<line stroke="#567DB6" stroke-width="1" x1="3428.65625" x2="643.953125" y1="43.5" y2="89" />
<line stroke="#567DB6" stroke-width="1" x1="3380.65625" x2="547.953125" y1="43.5" y2="89" />
<line stroke="#567DB6" stroke-width="1" x1="3332.65625" x2="451.953125" y1="43.5" y2="89" />
<line stroke="#567DB6" stroke-width="1" x1="3284.65625" x2="355.953125" y1="43.5" y2="89" />
<line stroke="#567DB6" stroke-width="1" x1="3236.65625" x2="259.953125" y1="43.5" y2="89" />
<line stroke="#567DB6" stroke-width="1" x1="3188.65625" x2="163.953125" y1="43.5" y2="89" />
<text class="title-left" x="90.5" y="9.5">upper</text>
<text class="title-right" x="6234.5" y="9.5">lower</text>
<rect fill="#DEE6F1" height="24" width="43.6875" x="6190.8125" y="18.5" />
<rect fill="#EEDDDB" height="24" width="4.3125" x="6186.5" y="18.5" />
<rect fill="none" height="24" stroke="#405C86" stroke-width="3" width="48" x="6186.5" y="18.5" />
<rect fill="#DEE6F1" height="24" width="43.6875" x="6142.8125" y="18.5" />
<rect fill="#EEDDDB" height="24" width="4.3125" x="6138.5" y="18.5" />
<rect fill="none" height="24" stroke="#405C86" stroke-width="3" width="48" x="6138.5" y="18.5" />
<rect fill="#DEE6F1" height="24" width="43.6875" x="6094.8125" y="18.5" />
<rect fill="#EEDDDB" height="24" width="4.3125" x="6090.5" y="18.5" />
<rect fill="none" height="24" stroke="#405C86" stroke-width="3" width="48" x="6090.5" y="18.5" />
<rect fill="#DEE6F1" height="24" width="43.6875" x="6046.8125" y="18.5" />
<rect fill="#EEDDDB" height="24" width="4.3125" x="6042.5" y="18.5" />
<rect fill="none" height="24" stroke="#405C86" stroke-width="3" width="48" x="6042.5" y="18.5" />
<rect fill="#DEE6F1" height="24" width="43.6875" x="5998.8125" y="18.5" />
<rect fill="#EEDDDB" height="24" width="4.3125" x="5994.5" y="18.5" />
<rect fill="none" height="24" stroke="#405C86" stroke-width="3" width="48" x="5994.5" y="18.5" />
<rect fill="#DEE6F1" height="24" width="43.6875" x="5950.8125" y="18.5" />
<rect fill="#EEDDDB" height="24" width="4.3125" x="5946.5" y="18.5" />
<rect fill="none" height="24" stroke="#405C86" stroke-width="3" width="48" x="5946.5" y="18.5" />
<rect fill="#DEE6F1" height="24" width="43.6875" x="5902.8125" y="18.5" />
<rect fill="#EEDDDB" height="24" width="4.3125" x="5898.5" y="18.5" />
<rect fill="none" height="24" stroke="#405C86" stroke-width="3" width="48" x="5898.5" y="18.5" />
<rect fill="#DEE6F1" height="24" width="43.6875" x="5854.8125" y="18.5" />
<rect fill="#EEDDDB" height="24" width="4.3125" x="5850.5" y="18.5" />
<rect fill="none" height="24" stroke="#405C86" stroke-width="3" width="48" x="5850.5" y="18.5" />
<rect fill="#DEE6F1" height="24" width="43.6875" x="5806.8125" y="18.5" />
<rect fill="#EEDDDB" height="24" width="4.3125" x="5802.5" y="18.5" />
<rect fill="none" height="24" stroke="#405C86" stroke-width="3" width="48" x="5802.5" y="18.5" />
<rect fill="#DEE6F1" height="24" width="43.6875" x="5758.8125" y="18.5" />
<rect fill="#EEDDDB" height="24" width="4.3125" x="5754.5" y="18.5" />
<rect fill="none" height="24" stroke="#405C86" stroke-width="3" width="48" x="5754.5" y="18.5" />
<rect fill="#DEE6F1" height="24" width="43.6875" x="5710.8125" y="18.5" />
<rect fill="#EEDDDB" height="24" width="4.3125" x="5706.5" y="18.5" />
<rect fill="none" height="24" stroke="#405C86" stroke-width="3" width="48" x="5706.5" y="18.5" />
<rect fill="#DEE6F1" height="24" width="43.6875" x="5662.8125" y="18.5" />
<rect fill="#EEDDDB" height="24" width="4.3125" x="5658.5" y="18.5" />
<rect fill="none" height="24" stroke="#405C86" stroke-width="3" width="48" x="5658.5" y="18.5" />
<rect fill="#DEE6F1" height="24" width="43.6875" x="5614.8125" y="18.5" />
<rect fill="#EEDDDB" height="24" width="4.3125" x="5610.5" y="18.5" />
<rect fill="none" height="24" stroke="#405C86" stroke-width="3" width="48" x="5610.5" y="18.5" />
<rect fill="#DEE6F1" height="24" width="43.6875" x="5566.8125" y="18.5" />
<rect fill="#EEDDDB" height="24" width="4.3125" x="5562.5" y="18.5" />
<rect fill="none" height="24" stroke="#405C86" stroke-width="3" width="48" x="5562.5" y="18.5" />
<rect fill="#DEE6F1" height="24" width="43.6875" x="5518.8125" y="18.5" />
<rect fill="#EEDDDB" height="24" width="4.3125" x="5514.5" y="18.5" />
<rect fill="none" height="24" stroke="#405C86" stroke-width="3" width="48" x="5514.5" y="18.5" />
<rect fill="#DEE6F1" height="24" width="43.6875" x="5470.8125" y="18.5" />
<rect fill="#EEDDDB" height="24" width="4.3125" x="5466.5" y="18.5" />
<rect fill="none" height="24" stroke="#405C86" stroke-width="3" width="48" x="5466.5" y="18.5" />
<rect fill="#DEE6F1" height="24" width="43.6875" x="5422.8125" y="18.5" />
<rect fill="#EEDDDB" height="24" width="4.3125" x="5418.5" y="18.5" />
<rect fill="none" height="24" stroke="#405C86" stroke-width="3" width="48" x="5418.5" y="18.5" />
<rect fill="#DEE6F1" height="24" width="43.6875" x="5374.8125" y="18.5" />
<rect fill="#EEDDDB" height="24" width="4.3125" x="5370.5" y="18.5" />
<rect fill="none" height="24" stroke="#405C86" stroke-width="3" width="48" x="5370.5" y="18.5" />
<rect fill="#DEE6F1" height="24" width="43.6875" x="5326.8125" y="18.5" />
<rect fill="#EEDDDB" height="24" width="4.3125" x="5322.5" y="18.5" />
<rect fill="none" height="24" stroke="#405C86" stroke-width="3" width="48" x="5322.5" y="18.5" />
<rect fill="#DEE6F1" height="24" width="43.6875" x="5278.8125" y="18.5" />
<rect fill="#EEDDDB" height="24" width="4.3125" x="5274.5" y="18.5" />
<rect fill="none" height="24" stroke="#405C86" stroke-width="3" width="48" x="5274.5" y="18.5" />
<rect fill="#DEE6F1" height="24" width="43.6875" x="5230.8125" y="18.5" />
<rect fill="#EEDDDB" height="24" width="4.3125" x="5226.5" y="18.5" />
<rect fill="none" height="24" stroke="#405C86" stroke-width="3" width="48" x="5226.5" y="18.5" />
<rect fill="#DEE6F1" height="24" width="43.6875" x="5182.8125" y="18.5" />
<rect fill="#EEDDDB" height="24" width="4.3125" x="5178.5" y="18.5" />
<rect fill="none" height="24" stroke="#405C86" stroke-width="3" width="48" x="5178.5" y="18.5" />
<rect fill="#DEE6F1" height="24" width="43.6875" x="5134.8125" y="18.5" />
<rect fill="#EEDDDB" height="24" width="4.3125" x="5130.5" y="18.5" />
<rect fill="none" height="24" stroke="#405C86" stroke-width="3" width="48" x="5130.5" y="18.5" />
<rect fill="#DEE6F1" height="24" width="43.6875" x="5086.8125" y="18.5" />
<rect fill="#EEDDDB" height="24" width="4.3125" x="5082.5" y="18.5" />
<rect fill="none" height="24" stroke="#405C86" stroke-width="3" width="48" x="5082.5" y="18.5" />
<rect fill="#DEE6F1" height="24" width="43.6875" x="5038.8125" y="18.5" />
<rect fill="#EEDDDB" height="24" width="4.3125" x="5034.5" y="18.5" />
<rect fill="none" height="24" stroke="#405C86" stroke-width="3" width="48" x="5034.5" y="18.5" />
<rect fill="#DEE6F1" height="24" width="43.6875" x="4990.8125" y="18.5" />
<rect fill="#EEDDDB" height="24" width="4.3125" x="4986.5" y="18.5" />
<rect fill="none" height="24" stroke="#405C86" stroke-width="3" width="48" x="4986.5" y="18.5" />
<rect fill="#DEE6F1" height="24" width="43.6875" x="4942.8125" y="18.5" />
<rect fill="#EEDDDB" height="24" width="4.3125" x="4938.5" y="18.5" />
<rect fill="none" height="24" stroke="#405C86" stroke-width="3" width="48" x="4938.5" y="18.5" />
<rect fill="#DEE6F1" height="24" width="43.6875" x="4894.8125" y="18.5" />
<rect fill="#EEDDDB" height="24" width="4.3125" x="4890.5" y="18.5" />
<rect fill="none" height="24" stroke="#405C86" stroke-width="3" width="48" x="4890.5" y="18.5" />
<rect fill="#DEE6F1" height="24" width="43.6875" x="4846.8125" y="18.5" />
<rect fill="#EEDDDB" height="24" width="4.3125" x="4842.5" y="18.5" />
<rect fill="none" height="24" stroke="#405C86" stroke-width="3" width="48" x="4842.5" y="18.5" />
<rect fill="#DEE6F1" height="24" width="43.6875" x="4798.8125" y="18.5" />
<rect fill="#EEDDDB" height="24" width="4.3125" x="4794.5" y="18.5" />
<rect fill="none" height="24" stroke="#405C86" stroke-width="3" width="48" x="4794.5" y="18.5" />
<rect fill="#DEE6F1" height="24" width="43.6875" x="4750.8125" y="18.5" />
<rect fill="#EEDDDB" height="24" width="4.3125" x="4746.5" y="18.5" />
<rect fill="none" height="24" stroke="#405C86" stroke-width="3" width="48" x="4746.5" y="18.5" />
<rect fill="#DEE6F1" height="24" width="43.6875" x="4702.8125" y="18.5" />
<rect fill="#EEDDDB" height="24" width="4.3125" x="4698.5" y="18.5" />
<rect fill="none" height="24" stroke="#405C86" stroke-width="3" width="48" x="4698.5" y="18.5" />
<rect fill="#DEE6F1" height="24" width="43.6875" x="4654.8125" y="18.5" />
<rect fill="#EEDDDB" height="24" width="4.3125" x="4650.5" y="18.5" />
<rect fill="none" height="24" stroke="#405C86" stroke-width="3" width="48" x="4650.5" y="18.5" />
<rect fill="#DEE6F1" height="24" width="43.6875" x="4606.8125" y="18.5" />
<rect fill="#EEDDDB" height="24" width="4.3125" x="4602.5" y="18.5" />
<rect fill="none" height="24" stroke="#405C86" stroke-width="3" width="48" x="4602.5" y="18.5" />
<rect fill="#DEE6F1" height="24" width="43.6875" x="4558.8125" y="18.5" />
<rect fill="#EEDDDB" height="24" width="4.3125" x="4554.5" y="18.5" />
<rect fill="none" height="24" stroke="#405C86" stroke-width="3" width="48" x="4554.5" y="18.5" />
<rect fill="#DEE6F1" height="24" width="43.6875" x="4510.8125" y="18.5" />
<rect fill="#EEDDDB" height="24" width="4.3125" x="4506.5" y="18.5" />
<rect fill="none" height="24" stroke="#405C86" stroke-width="3" width="48" x="4506.5" y="18.5" />
<rect fill="#DEE6F1" height="24" width="43.6875" x="4462.8125" y="18.5" />
<rect fill="#EEDDDB" height="24" width="4.3125" x="4458.5" y="18.5" />
<rect fill="none" height="24" stroke="#405C86" stroke-width="3" width="48" x="4458.5" y="18.5" />
<rect fill="#DEE6F1" height="24" width="43.6875" x="4414.8125" y="18.5" />
<rect fill="#EEDDDB" height="24" width="4.3125" x="4410.5" y="18.5" />
<rect fill="none" height="24" stroke="#405C86" stroke-width="3" width="48" x="4410.5" y="18.5" />
<rect fill="#DEE6F1" height="24" width="43.6875" x="4366.8125" y="18.5" />
<rect fill="#EEDDDB" height="24" width="4.3125" x="4362.5" y="18.5" />
<rect fill="none" height="24" stroke="#405C86" stroke-width="3" width="48" x="4362.5" y="18.5" />
<rect fill="#DEE6F1" height="24" width="43.6875" x="4318.8125" y="18.5" />
<rect fill="#EEDDDB" height="24" width="4.3125" x="4314.5" y="18.5" />
<rect fill="none" height="24" stroke="#405C86" stroke-width="3" width="48" x="4314.5" y="18.5" />
<rect fill="#DEE6F1" height="24" width="43.6875" x="4270.8125" y="18.5" />
<rect fill="#EEDDDB" height="24" width="4.3125" x="4266.5" y="18.5" />
<rect fill="none" height="24" stroke="#405C86" stroke-width="3" width="48" x="4266.5" y="18.5" />
<rect fill="#DEE6F1" height="24" width="43.6875" x="4222.8125" y="18.5" />
<rect fill="#EEDDDB" height="24" width="4.3125" x="4218.5" y="18.5" />
<rect fill="none" height="24" stroke="#405C86" stroke-width="3" width="48" x="4218.5" y="18.5" />
<rect fill="#DEE6F1" height="24" width="43.6875" x="4174.8125" y="18.5" />
<rect fill="#EEDDDB" height="24" width="4.3125" x="4170.5" y="18.5" />
<rect fill="none" height="24" stroke="#405C86" stroke-width="3" width="48" x="4170.5" y="18.5" />
<rect fill="#DEE6F1" height="24" width="43.6875" x="4126.8125" y="18.5" />
<rect fill="#EEDDDB" height="24" width="4.3125" x="4122.5" y="18.5" />
<rect fill="none" height="24" stroke="#405C86" stroke-width="3" width="48" x="4122.5" y="18.5" />
<rect fill="#DEE6F1" height="24" width="43.6875" x="4078.8125" y="18.5" />
<rect fill="#EEDDDB" height="24" width="4.3125" x="4074.5" y="18.5" />
<rect fill="none" height="24" stroke="#405C86" stroke-width="3" width="48" x="4074.5" y="18.5" />
<rect fill="#DEE6F1" height="24" width="43.6875" x="4030.8125" y="18.5" />
<rect fill="#EEDDDB" height="24" width="4.3125" x="4026.5" y="18.5" />
<rect fill="none" height="24" stroke="#405C86" stroke-width="3" width="48" x="4026.5" y="18.5" />
<rect fill="#DEE6F1" height="24" width="43.6875" x="3982.8125" y="18.5" />
<rect fill="#EEDDDB" height="24" width="4.3125" x="3978.5" y="18.5" />
<rect fill="none" height="24" stroke="#405C86" stroke-width="3" width="48" x="3978.5" y="18.5" />
<rect fill="#DEE6F1" height="24" width="43.6875" x="3934.8125" y="18.5" />
<rect fill="#EEDDDB" height="24" width="4.3125" x="3930.5" y="18.5" />
<rect fill="none" height="24" stroke="#405C86" stroke-width="3" width="48" x="3930.5" y="18.5" />
<rect fill="#DEE6F1" height="24" width="43.6875" x="3886.8125" y="18.5" />
<rect fill="#EEDDDB" height="24" width="4.3125" x="3882.5" y="18.5" />
<rect fill="none" height="24" stroke="#405C86" stroke-width="3" width="48" x="3882.5" y="18.5" />
<rect fill="#DEE6F1" height="24" width="43.6875" x="3838.8125" y="18.5" />
<rect fill="#EEDDDB" height="24" width="4.3125" x="3834.5" y="18.5" />
<rect fill="none" height="24" stroke="#405C86" stroke-width="3" width="48" x="3834.5" y="18.5" />
<rect fill="#DEE6F1" height="24" width="43.6875" x="3790.8125" y="18.5" />
<rect fill="#EEDDDB" height="24" width="4.3125" x="3786.5" y="18.5" />
<rect fill="none" height="24" stroke="#405C86" stroke-width="3" width="48" x="3786.5" y="18.5" />
<rect fill="#DEE6F1" height="24" width="43.6875" x="3742.8125" y="18.5" />
<rect fill="#EEDDDB" height="24" width="4.3125" x="3738.5" y="18.5" />
<rect fill="none" height="24" stroke="#405C86" stroke-width="3" width="48" x="3738.5" y="18.5" />
<rect fill="#DEE6F1" height="24" width="43.6875" x="3694.8125" y="18.5" />
<rect fill="#EEDDDB" height="24" width="4.3125" x="3690.5" y="18.5" />
<rect fill="none" height="24" stroke="#405C86" stroke-width="3" width="48" x="3690.5" y="18.5" />
<rect fill="#DEE6F1" height="24" width="43.6875" x="3646.8125" y="18.5" />
<rect fill="#EEDDDB" height="24" width="4.3125" x="3642.5" y="18.5" />
<rect fill="none" height="24" stroke="#405C86" stroke-width="3" width="48" x="3642.5" y="18.5" />
<rect fill="#DEE6F1" height="24" width="43.6875" x="3598.8125" y="18.5" />
<rect fill="#EEDDDB" height="24" width="4.3125" x="3594.5" y="18.5" />
<rect fill="none" height="24" stroke="#405C86" stroke-width="3" width="48" x="3594.5" y="18.5" />
<rect fill="#DEE6F1" height="24" width="43.6875" x="3550.8125" y="18.5" />
<rect fill="#EEDDDB" height="24" width="4.3125" x="3546.5" y="18.5" />
<rect fill="none" height="24" stroke="#405C86" stroke-width="3" width="48" x="3546.5" y="18.5" />
<rect fill="#DEE6F1" height="24" width="43.6875" x="3502.8125" y="18.5" />
<rect fill="#EEDDDB" height="24" width="4.3125" x="3498.5" y="18.5" />
<rect fill="none" height="24" stroke="#405C86" stroke-width="3" width="48" x="3498.5" y="18.5" />
<rect fill="#DEE6F1" height="24" width="43.6875" x="3454.8125" y="18.5" />
<rect fill="#EEDDDB" height="24" width="4.3125" x="3450.5" y="18.5" />
<rect fill="none" height="24" stroke="#405C86" stroke-width="3" width="48" x="3450.5" y="18.5" />
<rect fill="#DEE6F1" height="24" width="43.6875" x="3406.8125" y="18.5" />
<rect fill="#EEDDDB" height="24" width="4.3125" x="3402.5" y="18.5" />
<rect fill="none" height="24" stroke="#405C86" stroke-width="3" width="48" x="3402.5" y="18.5" />
<rect fill="#DEE6F1" height="24" width="43.6875" x="3358.8125" y="18.5" />
<rect fill="#EEDDDB" height="24" width="4.3125" x="3354.5" y="18.5" />
<rect fill="none" height="24" stroke="#405C86" stroke-width="3" width="48" x="3354.5" y="18.5" />
<rect fill="#DEE6F1" height="24" width="43.6875" x="3310.8125" y="18.5" />
<rect fill="#EEDDDB" height="24" width="4.3125" x="3306.5" y="18.5" />
<rect fill="none" height="24" stroke="#405C86" stroke-width="3" width="48" x="3306.5" y="18.5" />
<rect fill="#DEE6F1" height="24" width="43.6875" x="3262.8125" y="18.5" />
<rect fill="#EEDDDB" height="24" width="4.3125" x="3258.5" y="18.5" />
<rect fill="none" height="24" stroke="#405C86" stroke-width="3" width="48" x="3258.5" y="18.5" />
<rect fill="#DEE6F1" height="24" width="43.6875" x="3214.8125" y="18.5" />
<rect fill="#EEDDDB" height="24" width="4.3125" x="3210.5" y="18.5" />
<rect fill="none" height="24" stroke="#405C86" stroke-width="3" width="48" x="3210.5" y="18.5" />
<rect fill="#DEE6F1" height="24" width="43.6875" x="3166.8125" y="18.5" />
<rect fill="#EEDDDB" height="24" width="4.3125" x="3162.5" y="18.5" />
<rect fill="none" height="24" stroke="#405C86" stroke-width="3" width="48" x="3162.5" y="18.5" />
<rect fill="none" height="24" stroke="#405C86" stroke-dasharray="3 1" stroke-dashoffset="1.5" stroke-width="1" width="3072" x="90.5" y="18.5" />
<text class="label unused" x="1626.5" y="31.5"></text>
<text class="register-name" x="80.5" y="30.5">Zn</text>
<text class="intrinsic-name" x="80.5" y="42.5">op</text>
<text class="register-number" x="10" y="30.5">(1)</text>
<rect fill="#DEE6F1" height="24" width="45.09375" x="6189.40625" y="90.5" />
<rect fill="#EEDDDB" height="24" width="50.90625" x="6138.5" y="90.5" />
<rect fill="none" height="24" stroke="#405C86" stroke-width="3" width="96" x="6138.5" y="90.5" />
<rect fill="#DEE6F1" height="24" width="45.09375" x="6093.40625" y="90.5" />
<rect fill="#EEDDDB" height="24" width="50.90625" x="6042.5" y="90.5" />
<rect fill="none" height="24" stroke="#405C86" stroke-width="3" width="96" x="6042.5" y="90.5" />
<rect fill="#DEE6F1" height="24" width="45.09375" x="5997.40625" y="90.5" />
<rect fill="#EEDDDB" height="24" width="50.90625" x="5946.5" y="90.5" />
<rect fill="none" height="24" stroke="#405C86" stroke-width="3" width="96" x="5946.5" y="90.5" />
<rect fill="#DEE6F1" height="24" width="45.09375" x="5901.40625" y="90.5" />
<rect fill="#EEDDDB" height="24" width="50.90625" x="5850.5" y="90.5" />
<rect fill="none" height="24" stroke="#405C86" stroke-width="3" width="96" x="5850.5" y="90.5" />
<rect fill="#DEE6F1" height="24" width="45.09375" x="5805.40625" y="90.5" />
<rect fill="#EEDDDB" height="24" width="50.90625" x="5754.5" y="90.5" />
<rect fill="none" height="24" stroke="#405C86" stroke-width="3" width="96" x="5754.5" y="90.5" />
<rect fill="#DEE6F1" height="24" width="45.09375" x="5709.40625" y="90.5" />
<rect fill="#EEDDDB" height="24" width="50.90625" x="5658.5" y="90.5" />
<rect fill="none" height="24" stroke="#405C86" stroke-width="3" width="96" x="5658.5" y="90.5" />
<rect fill="#DEE6F1" height="24" width="45.09375" x="5613.40625" y="90.5" />
<rect fill="#EEDDDB" height="24" width="50.90625" x="5562.5" y="90.5" />
<rect fill="none" height="24" stroke="#405C86" stroke-width="3" width="96" x="5562.5" y="90.5" />
<rect fill="#DEE6F1" height="24" width="45.09375" x="5517.40625" y="90.5" />
<rect fill="#EEDDDB" height="24" width="50.90625" x="5466.5" y="90.5" />
<rect fill="none" height="24" stroke="#405C86" stroke-width="3" width="96" x="5466.5" y="90.5" />
<rect fill="#DEE6F1" height="24" width="45.09375" x="5421.40625" y="90.5" />
<rect fill="#EEDDDB" height="24" width="50.90625" x="5370.5" y="90.5" />
<rect fill="none" height="24" stroke="#405C86" stroke-width="3" width="96" x="5370.5" y="90.5" />
<rect fill="#DEE6F1" height="24" width="45.09375" x="5325.40625" y="90.5" />
<rect fill="#EEDDDB" height="24" width="50.90625" x="5274.5" y="90.5" />
<rect fill="none" height="24" stroke="#405C86" stroke-width="3" width="96" x="5274.5" y="90.5" />
<rect fill="#DEE6F1" height="24" width="45.09375" x="5229.40625" y="90.5" />
<rect fill="#EEDDDB" height="24" width="50.90625" x="5178.5" y="90.5" />
<rect fill="none" height="24" stroke="#405C86" stroke-width="3" width="96" x="5178.5" y="90.5" />
<rect fill="#DEE6F1" height="24" width="45.09375" x="5133.40625" y="90.5" />
<rect fill="#EEDDDB" height="24" width="50.90625" x="5082.5" y="90.5" />
<rect fill="none" height="24" stroke="#405C86" stroke-width="3" width="96" x="5082.5" y="90.5" />
<rect fill="#DEE6F1" height="24" width="45.09375" x="5037.40625" y="90.5" />
<rect fill="#EEDDDB" height="24" width="50.90625" x="4986.5" y="90.5" />
<rect fill="none" height="24" stroke="#405C86" stroke-width="3" width="96" x="4986.5" y="90.5" />
<rect fill="#DEE6F1" height="24" width="45.09375" x="4941.40625" y="90.5" />
<rect fill="#EEDDDB" height="24" width="50.90625" x="4890.5" y="90.5" />
<rect fill="none" height="24" stroke="#405C86" stroke-width="3" width="96" x="4890.5" y="90.5" />
<rect fill="#DEE6F1" height="24" width="45.09375" x="4845.40625" y="90.5" />
<rect fill="#EEDDDB" height="24" width="50.90625" x="4794.5" y="90.5" />
<rect fill="none" height="24" stroke="#405C86" stroke-width="3" width="96" x="4794.5" y="90.5" />
<rect fill="#DEE6F1" height="24" width="45.09375" x="4749.40625" y="90.5" />
<rect fill="#EEDDDB" height="24" width="50.90625" x="4698.5" y="90.5" />
<rect fill="none" height="24" stroke="#405C86" stroke-width="3" width="96" x="4698.5" y="90.5" />
<rect fill="#DEE6F1" height="24" width="45.09375" x="4653.40625" y="90.5" />
<rect fill="#EEDDDB" height="24" width="50.90625" x="4602.5" y="90.5" />
<rect fill="none" height="24" stroke="#405C86" stroke-width="3" width="96" x="4602.5" y="90.5" />
<rect fill="#DEE6F1" height="24" width="45.09375" x="4557.40625" y="90.5" />
<rect fill="#EEDDDB" height="24" width="50.90625" x="4506.5" y="90.5" />
<rect fill="none" height="24" stroke="#405C86" stroke-width="3" width="96" x="4506.5" y="90.5" />
<rect fill="#DEE6F1" height="24" width="45.09375" x="4461.40625" y="90.5" />
<rect fill="#EEDDDB" height="24" width="50.90625" x="4410.5" y="90.5" />
<rect fill="none" height="24" stroke="#405C86" stroke-width="3" width="96" x="4410.5" y="90.5" />
<rect fill="#DEE6F1" height="24" width="45.09375" x="4365.40625" y="90.5" />
<rect fill="#EEDDDB" height="24" width="50.90625" x="4314.5" y="90.5" />
<rect fill="none" height="24" stroke="#405C86" stroke-width="3" width="96" x="4314.5" y="90.5" />
<rect fill="#DEE6F1" height="24" width="45.09375" x="4269.40625" y="90.5" />
<rect fill="#EEDDDB" height="24" width="50.90625" x="4218.5" y="90.5" />
<rect fill="none" height="24" stroke="#405C86" stroke-width="3" width="96" x="4218.5" y="90.5" />
<rect fill="#DEE6F1" height="24" width="45.09375" x="4173.40625" y="90.5" />
<rect fill="#EEDDDB" height="24" width="50.90625" x="4122.5" y="90.5" />
<rect fill="none" height="24" stroke="#405C86" stroke-width="3" width="96" x="4122.5" y="90.5" />
<rect fill="#DEE6F1" height="24" width="45.09375" x="4077.40625" y="90.5" />
<rect fill="#EEDDDB" height="24" width="50.90625" x="4026.5" y="90.5" />
<rect fill="none" height="24" stroke="#405C86" stroke-width="3" width="96" x="4026.5" y="90.5" />
<rect fill="#DEE6F1" height="24" width="45.09375" x="3981.40625" y="90.5" />
<rect fill="#EEDDDB" height="24" width="50.90625" x="3930.5" y="90.5" />
<rect fill="none" height="24" stroke="#405C86" stroke-width="3" width="96" x="3930.5" y="90.5" />
<rect fill="#DEE6F1" height="24" width="45.09375" x="3885.40625" y="90.5" />
<rect fill="#EEDDDB" height="24" width="50.90625" x="3834.5" y="90.5" />
<rect fill="none" height="24" stroke="#405C86" stroke-width="3" width="96" x="3834.5" y="90.5" />
<rect fill="#DEE6F1" height="24" width="45.09375" x="3789.40625" y="90.5" />
<rect fill="#EEDDDB" height="24" width="50.90625" x="3738.5" y="90.5" />
<rect fill="none" height="24" stroke="#405C86" stroke-width="3" width="96" x="3738.5" y="90.5" />
<rect fill="#DEE6F1" height="24" width="45.09375" x="3693.40625" y="90.5" />
<rect fill="#EEDDDB" height="24" width="50.90625" x="3642.5" y="90.5" />
<rect fill="none" height="24" stroke="#405C86" stroke-width="3" width="96" x="3642.5" y="90.5" />
<rect fill="#DEE6F1" height="24" width="45.09375" x="3597.40625" y="90.5" />
<rect fill="#EEDDDB" height="24" width="50.90625" x="3546.5" y="90.5" />
<rect fill="none" height="24" stroke="#405C86" stroke-width="3" width="96" x="3546.5" y="90.5" />
<rect fill="#DEE6F1" height="24" width="45.09375" x="3501.40625" y="90.5" />
<rect fill="#EEDDDB" height="24" width="50.90625" x="3450.5" y="90.5" />
<rect fill="none" height="24" stroke="#405C86" stroke-width="3" width="96" x="3450.5" y="90.5" />
<rect fill="#DEE6F1" height="24" width="45.09375" x="3405.40625" y="90.5" />
<rect fill="#EEDDDB" height="24" width="50.90625" x="3354.5" y="90.5" />
<rect fill="none" height="24" stroke="#405C86" stroke-width="3" width="96" x="3354.5" y="90.5" />
<rect fill="#DEE6F1" height="24" width="45.09375" x="3309.40625" y="90.5" />
<rect fill="#EEDDDB" height="24" width="50.90625" x="3258.5" y="90.5" />
<rect fill="none" height="24" stroke="#405C86" stroke-width="3" width="96" x="3258.5" y="90.5" />
<rect fill="#DEE6F1" height="24" width="45.09375" x="3213.40625" y="90.5" />
<rect fill="#EEDDDB" height="24" width="50.90625" x="3162.5" y="90.5" />
<rect fill="none" height="24" stroke="#405C86" stroke-width="3" width="96" x="3162.5" y="90.5" />
<rect fill="#DEE6F1" height="24" width="45.09375" x="3117.40625" y="90.5" />
<rect fill="#EEDDDB" height="24" width="50.90625" x="3066.5" y="90.5" />
<rect fill="none" height="24" stroke="#405C86" stroke-width="3" width="96" x="3066.5" y="90.5" />
<rect fill="#DEE6F1" height="24" width="45.09375" x="3021.40625" y="90.5" />
<rect fill="#EEDDDB" height="24" width="50.90625" x="2970.5" y="90.5" />
<rect fill="none" height="24" stroke="#405C86" stroke-width="3" width="96" x="2970.5" y="90.5" />
<rect fill="#DEE6F1" height="24" width="45.09375" x="2925.40625" y="90.5" />
<rect fill="#EEDDDB" height="24" width="50.90625" x="2874.5" y="90.5" />
<rect fill="none" height="24" stroke="#405C86" stroke-width="3" width="96" x="2874.5" y="90.5" />
<rect fill="#DEE6F1" height="24" width="45.09375" x="2829.40625" y="90.5" />
<rect fill="#EEDDDB" height="24" width="50.90625" x="2778.5" y="90.5" />
<rect fill="none" height="24" stroke="#405C86" stroke-width="3" width="96" x="2778.5" y="90.5" />
<rect fill="#DEE6F1" height="24" width="45.09375" x="2733.40625" y="90.5" />
<rect fill="#EEDDDB" height="24" width="50.90625" x="2682.5" y="90.5" />
<rect fill="none" height="24" stroke="#405C86" stroke-width="3" width="96" x="2682.5" y="90.5" />
<rect fill="#DEE6F1" height="24" width="45.09375" x="2637.40625" y="90.5" />
<rect fill="#EEDDDB" height="24" width="50.90625" x="2586.5" y="90.5" />
<rect fill="none" height="24" stroke="#405C86" stroke-width="3" width="96" x="2586.5" y="90.5" />
<rect fill="#DEE6F1" height="24" width="45.09375" x="2541.40625" y="90.5" />
<rect fill="#EEDDDB" height="24" width="50.90625" x="2490.5" y="90.5" />
<rect fill="none" height="24" stroke="#405C86" stroke-width="3" width="96" x="2490.5" y="90.5" />
<rect fill="#DEE6F1" height="24" width="45.09375" x="2445.40625" y="90.5" />
<rect fill="#EEDDDB" height="24" width="50.90625" x="2394.5" y="90.5" />
<rect fill="none" height="24" stroke="#405C86" stroke-width="3" width="96" x="2394.5" y="90.5" />
<rect fill="#DEE6F1" height="24" width="45.09375" x="2349.40625" y="90.5" />
<rect fill="#EEDDDB" height="24" width="50.90625" x="2298.5" y="90.5" />
<rect fill="none" height="24" stroke="#405C86" stroke-width="3" width="96" x="2298.5" y="90.5" />
<rect fill="#DEE6F1" height="24" width="45.09375" x="2253.40625" y="90.5" />
<rect fill="#EEDDDB" height="24" width="50.90625" x="2202.5" y="90.5" />
<rect fill="none" height="24" stroke="#405C86" stroke-width="3" width="96" x="2202.5" y="90.5" />
<rect fill="#DEE6F1" height="24" width="45.09375" x="2157.40625" y="90.5" />
<rect fill="#EEDDDB" height="24" width="50.90625" x="2106.5" y="90.5" />
<rect fill="none" height="24" stroke="#405C86" stroke-width="3" width="96" x="2106.5" y="90.5" />
<rect fill="#DEE6F1" height="24" width="45.09375" x="2061.40625" y="90.5" />
<rect fill="#EEDDDB" height="24" width="50.90625" x="2010.5" y="90.5" />
<rect fill="none" height="24" stroke="#405C86" stroke-width="3" width="96" x="2010.5" y="90.5" />
<rect fill="#DEE6F1" height="24" width="45.09375" x="1965.40625" y="90.5" />
<rect fill="#EEDDDB" height="24" width="50.90625" x="1914.5" y="90.5" />
<rect fill="none" height="24" stroke="#405C86" stroke-width="3" width="96" x="1914.5" y="90.5" />
<rect fill="#DEE6F1" height="24" width="45.09375" x="1869.40625" y="90.5" />
<rect fill="#EEDDDB" height="24" width="50.90625" x="1818.5" y="90.5" />
<rect fill="none" height="24" stroke="#405C86" stroke-width="3" width="96" x="1818.5" y="90.5" />
<rect fill="#DEE6F1" height="24" width="45.09375" x="1773.40625" y="90.5" />
<rect fill="#EEDDDB" height="24" width="50.90625" x="1722.5" y="90.5" />
<rect fill="none" height="24" stroke="#405C86" stroke-width="3" width="96" x="1722.5" y="90.5" />
<rect fill="#DEE6F1" height="24" width="45.09375" x="1677.40625" y="90.5" />
<rect fill="#EEDDDB" height="24" width="50.90625" x="1626.5" y="90.5" />
<rect fill="none" height="24" stroke="#405C86" stroke-width="3" width="96" x="1626.5" y="90.5" />
<rect fill="#DEE6F1" height="24" width="45.09375" x="1581.40625" y="90.5" />
<rect fill="#EEDDDB" height="24" width="50.90625" x="1530.5" y="90.5" />
<rect fill="none" height="24" stroke="#405C86" stroke-width="3" width="96" x="1530.5" y="90.5" />
<rect fill="#DEE6F1" height="24" width="45.09375" x="1485.40625" y="90.5" />
<rect fill="#EEDDDB" height="24" width="50.90625" x="1434.5" y="90.5" />
<rect fill="none" height="24" stroke="#405C86" stroke-width="3" width="96" x="1434.5" y="90.5" />
<rect fill="#DEE6F1" height="24" width="45.09375" x="1389.40625" y="90.5" />
<rect fill="#EEDDDB" height="24" width="50.90625" x="1338.5" y="90.5" />
<rect fill="none" height="24" stroke="#405C86" stroke-width="3" width="96" x="1338.5" y="90.5" />
<rect fill="#DEE6F1" height="24" width="45.09375" x="1293.40625" y="90.5" />
<rect fill="#EEDDDB" height="24" width="50.90625" x="1242.5" y="90.5" />
<rect fill="none" height="24" stroke="#405C86" stroke-width="3" width="96" x="1242.5" y="90.5" />
<rect fill="#DEE6F1" height="24" width="45.09375" x="1197.40625" y="90.5" />
<rect fill="#EEDDDB" height="24" width="50.90625" x="1146.5" y="90.5" />
<rect fill="none" height="24" stroke="#405C86" stroke-width="3" width="96" x="1146.5" y="90.5" />
<rect fill="#DEE6F1" height="24" width="45.09375" x="1101.40625" y="90.5" />
<rect fill="#EEDDDB" height="24" width="50.90625" x="1050.5" y="90.5" />
<rect fill="none" height="24" stroke="#405C86" stroke-width="3" width="96" x="1050.5" y="90.5" />
<rect fill="#DEE6F1" height="24" width="45.09375" x="1005.40625" y="90.5" />
<rect fill="#EEDDDB" height="24" width="50.90625" x="954.5" y="90.5" />
<rect fill="none" height="24" stroke="#405C86" stroke-width="3" width="96" x="954.5" y="90.5" />
<rect fill="#DEE6F1" height="24" width="45.09375" x="909.40625" y="90.5" />
<rect fill="#EEDDDB" height="24" width="50.90625" x="858.5" y="90.5" />
<rect fill="none" height="24" stroke="#405C86" stroke-width="3" width="96" x="858.5" y="90.5" />
<rect fill="#DEE6F1" height="24" width="45.09375" x="813.40625" y="90.5" />
<rect fill="#EEDDDB" height="24" width="50.90625" x="762.5" y="90.5" />
<rect fill="none" height="24" stroke="#405C86" stroke-width="3" width="96" x="762.5" y="90.5" />
<rect fill="#DEE6F1" height="24" width="45.09375" x="717.40625" y="90.5" />
<rect fill="#EEDDDB" height="24" width="50.90625" x="666.5" y="90.5" />
<rect fill="none" height="24" stroke="#405C86" stroke-width="3" width="96" x="666.5" y="90.5" />
<rect fill="#DEE6F1" height="24" width="45.09375" x="621.40625" y="90.5" />
<rect fill="#EEDDDB" height="24" width="50.90625" x="570.5" y="90.5" />
<rect fill="none" height="24" stroke="#405C86" stroke-width="3" width="96" x="570.5" y="90.5" />
<rect fill="#DEE6F1" height="24" width="45.09375" x="525.40625" y="90.5" />
<rect fill="#EEDDDB" height="24" width="50.90625" x="474.5" y="90.5" />
<rect fill="none" height="24" stroke="#405C86" stroke-width="3" width="96" x="474.5" y="90.5" />
<rect fill="#DEE6F1" height="24" width="45.09375" x="429.40625" y="90.5" />
<rect fill="#EEDDDB" height="24" width="50.90625" x="378.5" y="90.5" />
<rect fill="none" height="24" stroke="#405C86" stroke-width="3" width="96" x="378.5" y="90.5" />
<rect fill="#DEE6F1" height="24" width="45.09375" x="333.40625" y="90.5" />
<rect fill="#EEDDDB" height="24" width="50.90625" x="282.5" y="90.5" />
<rect fill="none" height="24" stroke="#405C86" stroke-width="3" width="96" x="282.5" y="90.5" />
<rect fill="#DEE6F1" height="24" width="45.09375" x="237.40625" y="90.5" />
<rect fill="#EEDDDB" height="24" width="50.90625" x="186.5" y="90.5" />
<rect fill="none" height="24" stroke="#405C86" stroke-width="3" width="96" x="186.5" y="90.5" />
<rect fill="#DEE6F1" height="24" width="45.09375" x="141.40625" y="90.5" />
<rect fill="#EEDDDB" height="24" width="50.90625" x="90.5" y="90.5" />
<rect fill="none" height="24" stroke="#405C86" stroke-width="3" width="96" x="90.5" y="90.5" />
<text class="register-name" x="80.5" y="102.5">Zd</text>
<text class="intrinsic-name" x="80.5" y="114.5">returns</text>
<text class="register-number" x="10" y="102.5">(2)</text>
<line marker-end="url(#arrowhead)" stroke="none" x1="6212.65625" x2="6211.953125" y1="43.5" y2="89" />
<line marker-end="url(#arrowhead)" stroke="none" x1="6164.65625" x2="6115.953125" y1="43.5" y2="89" />
<line marker-end="url(#arrowhead)" stroke="none" x1="6116.65625" x2="6019.953125" y1="43.5" y2="89" />
<line marker-end="url(#arrowhead)" stroke="none" x1="6068.65625" x2="5923.953125" y1="43.5" y2="89" />
<line marker-end="url(#arrowhead)" stroke="none" x1="6020.65625" x2="5827.953125" y1="43.5" y2="89" />
<line marker-end="url(#arrowhead)" stroke="none" x1="5972.65625" x2="5731.953125" y1="43.5" y2="89" />
<line marker-end="url(#arrowhead)" stroke="none" x1="5924.65625" x2="5635.953125" y1="43.5" y2="89" />
<line marker-end="url(#arrowhead)" stroke="none" x1="5876.65625" x2="5539.953125" y1="43.5" y2="89" />
<line marker-end="url(#arrowhead)" stroke="none" x1="5828.65625" x2="5443.953125" y1="43.5" y2="89" />
<line marker-end="url(#arrowhead)" stroke="none" x1="5780.65625" x2="5347.953125" y1="43.5" y2="89" />
<line marker-end="url(#arrowhead)" stroke="none" x1="5732.65625" x2="5251.953125" y1="43.5" y2="89" />
<line marker-end="url(#arrowhead)" stroke="none" x1="5684.65625" x2="5155.953125" y1="43.5" y2="89" />
<line marker-end="url(#arrowhead)" stroke="none" x1="5636.65625" x2="5059.953125" y1="43.5" y2="89" />
<line marker-end="url(#arrowhead)" stroke="none" x1="5588.65625" x2="4963.953125" y1="43.5" y2="89" />
<line marker-end="url(#arrowhead)" stroke="none" x1="5540.65625" x2="4867.953125" y1="43.5" y2="89" />
<line marker-end="url(#arrowhead)" stroke="none" x1="5492.65625" x2="4771.953125" y1="43.5" y2="89" />
<line marker-end="url(#arrowhead)" stroke="none" x1="5444.65625" x2="4675.953125" y1="43.5" y2="89" />
<line marker-end="url(#arrowhead)" stroke="none" x1="5396.65625" x2="4579.953125" y1="43.5" y2="89" />
<line marker-end="url(#arrowhead)" stroke="none" x1="5348.65625" x2="4483.953125" y1="43.5" y2="89" />
<line marker-end="url(#arrowhead)" stroke="none" x1="5300.65625" x2="4387.953125" y1="43.5" y2="89" />
<line marker-end="url(#arrowhead)" stroke="none" x1="5252.65625" x2="4291.953125" y1="43.5" y2="89" />
<line marker-end="url(#arrowhead)" stroke="none" x1="5204.65625" x2="4195.953125" y1="43.5" y2="89" />
<line marker-end="url(#arrowhead)" stroke="none" x1="5156.65625" x2="4099.953125" y1="43.5" y2="89" />
<line marker-end="url(#arrowhead)" stroke="none" x1="5108.65625" x2="4003.953125" y1="43.5" y2="89" />
<line marker-end="url(#arrowhead)" stroke="none" x1="5060.65625" x2="3907.953125" y1="43.5" y2="89" />
<line marker-end="url(#arrowhead)" stroke="none" x1="5012.65625" x2="3811.953125" y1="43.5" y2="89" />
<line marker-end="url(#arrowhead)" stroke="none" x1="4964.65625" x2="3715.953125" y1="43.5" y2="89" />
<line marker-end="url(#arrowhead)" stroke="none" x1="4916.65625" x2="3619.953125" y1="43.5" y2="89" />
<line marker-end="url(#arrowhead)" stroke="none" x1="4868.65625" x2="3523.953125" y1="43.5" y2="89" />
<line marker-end="url(#arrowhead)" stroke="none" x1="4820.65625" x2="3427.953125" y1="43.5" y2="89" />
<line marker-end="url(#arrowhead)" stroke="none" x1="4772.65625" x2="3331.953125" y1="43.5" y2="89" />
<line marker-end="url(#arrowhead)" stroke="none" x1="4724.65625" x2="3235.953125" y1="43.5" y2="89" />
<line marker-end="url(#arrowhead)" stroke="none" x1="4676.65625" x2="3139.953125" y1="43.5" y2="89" />
<line marker-end="url(#arrowhead)" stroke="none" x1="4628.65625" x2="3043.953125" y1="43.5" y2="89" />
<line marker-end="url(#arrowhead)" stroke="none" x1="4580.65625" x2="2947.953125" y1="43.5" y2="89" />
<line marker-end="url(#arrowhead)" stroke="none" x1="4532.65625" x2="2851.953125" y1="43.5" y2="89" />
<line marker-end="url(#arrowhead)" stroke="none" x1="4484.65625" x2="2755.953125" y1="43.5" y2="89" />
<line marker-end="url(#arrowhead)" stroke="none" x1="4436.65625" x2="2659.953125" y1="43.5" y2="89" />
<line marker-end="url(#arrowhead)" stroke="none" x1="4388.65625" x2="2563.953125" y1="43.5" y2="89" />
<line marker-end="url(#arrowhead)" stroke="none" x1="4340.65625" x2="2467.953125" y1="43.5" y2="89" />
<line marker-end="url(#arrowhead)" stroke="none" x1="4292.65625" x2="2371.953125" y1="43.5" y2="89" />
<line marker-end="url(#arrowhead)" stroke="none" x1="4244.65625" x2="2275.953125" y1="43.5" y2="89" />
<line marker-end="url(#arrowhead)" stroke="none" x1="4196.65625" x2="2179.953125" y1="43.5" y2="89" />
<line marker-end="url(#arrowhead)" stroke="none" x1="4148.65625" x2="2083.953125" y1="43.5" y2="89" />
<line marker-end="url(#arrowhead)" stroke="none" x1="4100.65625" x2="1987.953125" y1="43.5" y2="89" />
<line marker-end="url(#arrowhead)" stroke="none" x1="4052.65625" x2="1891.953125" y1="43.5" y2="89" />
<line marker-end="url(#arrowhead)" stroke="none" x1="4004.65625" x2="1795.953125" y1="43.5" y2="89" />
<line marker-end="url(#arrowhead)" stroke="none" x1="3956.65625" x2="1699.953125" y1="43.5" y2="89" />
<line marker-end="url(#arrowhead)" stroke="none" x1="3908.65625" x2="1603.953125" y1="43.5" y2="89" />
<line marker-end="url(#arrowhead)" stroke="none" x1="3860.65625" x2="1507.953125" y1="43.5" y2="89" />
<line marker-end="url(#arrowhead)" stroke="none" x1="3812.65625" x2="1411.953125" y1="43.5" y2="89" />
<line marker-end="url(#arrowhead)" stroke="none" x1="3764.65625" x2="1315.953125" y1="43.5" y2="89" />
<line marker-end="url(#arrowhead)" stroke="none" x1="3716.65625" x2="1219.953125" y1="43.5" y2="89" />
<line marker-end="url(#arrowhead)" stroke="none" x1="3668.65625" x2="1123.953125" y1="43.5" y2="89" />
<line marker-end="url(#arrowhead)" stroke="none" x1="3620.65625" x2="1027.953125" y1="43.5" y2="89" />
<line marker-end="url(#arrowhead)" stroke="none" x1="3572.65625" x2="931.953125" y1="43.5" y2="89" />
<line marker-end="url(#arrowhead)" stroke="none" x1="3524.65625" x2="835.953125" y1="43.5" y2="89" />
<line marker-end="url(#arrowhead)" stroke="none" x1="3476.65625" x2="739.953125" y1="43.5" y2="89" />
<line marker-end="url(#arrowhead)" stroke="none" x1="3428.65625" x2="643.953125" y1="43.5" y2="89" />
<line marker-end="url(#arrowhead)" stroke="none" x1="3380.65625" x2="547.953125" y1="43.5" y2="89" />
<line marker-end="url(#arrowhead)" stroke="none" x1="3332.65625" x2="451.953125" y1="43.5" y2="89" />
<line marker-end="url(#arrowhead)" stroke="none" x1="3284.65625" x2="355.953125" y1="43.5" y2="89" />
<line marker-end="url(#arrowhead)" stroke="none" x1="3236.65625" x2="259.953125" y1="43.5" y2="89" />
<line marker-end="url(#arrowhead)" stroke="none" x1="3188.65625" x2="163.953125" y1="43.5" y2="89" />
</svg>