<svg xmlns="http://www.w3.org/2000/svg" viewBox="0 0 1638 123">
<style>
.label { font: 14px Helvetica; dominant-baseline: middle; text-anchor: middle; }
.title-left { font: 12px Helvetica; dominant-baseline: middle; }
.title-right { font: 12px Helvetica; dominant-baseline: middle; text-anchor: end; }
.title-intrinsic { font: 12px Helvetica; dominant-baseline: middle; text-anchor: middle; fill: #6778ED; }
.title { font: 12px Helvetica; dominant-baseline: middle; text-anchor: middle; }
.title-unused { font: 12px Helvetica; dominant-baseline: middle; text-anchor: middle; fill: #AAA; }
.register-name { font: 14px Helvetica; dominant-baseline: middle; text-anchor: end; font-style: italic; }
.memory-name { font: 14px Helvetica; dominant-baseline: middle; text-anchor: end; }
.register-number { font: 14px Helvetica; dominant-baseline: middle; text-anchor: start; }
.intrinsic-name { font: 14px Helvetica; dominant-baseline: middle; text-anchor: end; fill: #6778ED; }
.intrinsic-color { fill: #6778ED; }
.small-label { font: 12px Helvetica; dominant-baseline: middle; text-anchor: middle; }
.label-10px { font: 10px Helvetica; dominant-baseline: middle; text-anchor: middle; }
.smaller-label { font: 9px Helvetica; dominant-baseline: middle; text-anchor: middle; }
.label-6px { font: 6px Helvetica; dominant-baseline: middle; text-anchor: middle; }
.label-7px { font: 7px Helvetica; dominant-baseline: middle; text-anchor: middle; }
.unused { fill: #AAA; }
.dim { fill: #888; }
</style>
<defs>
<marker id="arrowhead" markerWidth="10.75" markerHeight="24.5" refX="9.0" refY="6.125" orient="auto">
<polyline points="0.5 0.5, 8.75 6.125, 0.5 11.75" stroke="#567DB6" stroke-width="1" fill="none"/>
</marker>
</defs>
<line stroke="#567DB6" stroke-width="1" x1="1604.65625" x2="1603.953125" y1="43.5" y2="89" />
<line stroke="#567DB6" stroke-width="1" x1="1556.65625" x2="1507.953125" y1="43.5" y2="89" />
<line stroke="#567DB6" stroke-width="1" x1="1508.65625" x2="1411.953125" y1="43.5" y2="89" />
<line stroke="#567DB6" stroke-width="1" x1="1460.65625" x2="1315.953125" y1="43.5" y2="89" />
<line stroke="#567DB6" stroke-width="1" x1="1412.65625" x2="1219.953125" y1="43.5" y2="89" />
<line stroke="#567DB6" stroke-width="1" x1="1364.65625" x2="1123.953125" y1="43.5" y2="89" />
<line stroke="#567DB6" stroke-width="1" x1="1316.65625" x2="1027.953125" y1="43.5" y2="89" />
<line stroke="#567DB6" stroke-width="1" x1="1268.65625" x2="931.953125" y1="43.5" y2="89" />
<line stroke="#567DB6" stroke-width="1" x1="1220.65625" x2="835.953125" y1="43.5" y2="89" />
<line stroke="#567DB6" stroke-width="1" x1="1172.65625" x2="739.953125" y1="43.5" y2="89" />
<line stroke="#567DB6" stroke-width="1" x1="1124.65625" x2="643.953125" y1="43.5" y2="89" />
<line stroke="#567DB6" stroke-width="1" x1="1076.65625" x2="547.953125" y1="43.5" y2="89" />
<line stroke="#567DB6" stroke-width="1" x1="1028.65625" x2="451.953125" y1="43.5" y2="89" />
<line stroke="#567DB6" stroke-width="1" x1="980.65625" x2="355.953125" y1="43.5" y2="89" />
<line stroke="#567DB6" stroke-width="1" x1="932.65625" x2="259.953125" y1="43.5" y2="89" />
<line stroke="#567DB6" stroke-width="1" x1="884.65625" x2="163.953125" y1="43.5" y2="89" />
<text class="title-left" x="90.5" y="9.5">upper</text>
<text class="title-right" x="1626.5" y="9.5">lower</text>
<rect fill="#DEE6F1" height="24" width="43.6875" x="1582.8125" y="18.5" />
<rect fill="#EEDDDB" height="24" width="4.3125" x="1578.5" y="18.5" />
<rect fill="none" height="24" stroke="#405C86" stroke-width="3" width="48" x="1578.5" y="18.5" />
<rect fill="#DEE6F1" height="24" width="43.6875" x="1534.8125" y="18.5" />
<rect fill="#EEDDDB" height="24" width="4.3125" x="1530.5" y="18.5" />
<rect fill="none" height="24" stroke="#405C86" stroke-width="3" width="48" x="1530.5" y="18.5" />
<rect fill="#DEE6F1" height="24" width="43.6875" x="1486.8125" y="18.5" />
<rect fill="#EEDDDB" height="24" width="4.3125" x="1482.5" y="18.5" />
<rect fill="none" height="24" stroke="#405C86" stroke-width="3" width="48" x="1482.5" y="18.5" />
<rect fill="#DEE6F1" height="24" width="43.6875" x="1438.8125" y="18.5" />
<rect fill="#EEDDDB" height="24" width="4.3125" x="1434.5" y="18.5" />
<rect fill="none" height="24" stroke="#405C86" stroke-width="3" width="48" x="1434.5" y="18.5" />
<rect fill="#DEE6F1" height="24" width="43.6875" x="1390.8125" y="18.5" />
<rect fill="#EEDDDB" height="24" width="4.3125" x="1386.5" y="18.5" />
<rect fill="none" height="24" stroke="#405C86" stroke-width="3" width="48" x="1386.5" y="18.5" />
<rect fill="#DEE6F1" height="24" width="43.6875" x="1342.8125" y="18.5" />
<rect fill="#EEDDDB" height="24" width="4.3125" x="1338.5" y="18.5" />
<rect fill="none" height="24" stroke="#405C86" stroke-width="3" width="48" x="1338.5" y="18.5" />
<rect fill="#DEE6F1" height="24" width="43.6875" x="1294.8125" y="18.5" />
<rect fill="#EEDDDB" height="24" width="4.3125" x="1290.5" y="18.5" />
<rect fill="none" height="24" stroke="#405C86" stroke-width="3" width="48" x="1290.5" y="18.5" />
<rect fill="#DEE6F1" height="24" width="43.6875" x="1246.8125" y="18.5" />
<rect fill="#EEDDDB" height="24" width="4.3125" x="1242.5" y="18.5" />
<rect fill="none" height="24" stroke="#405C86" stroke-width="3" width="48" x="1242.5" y="18.5" />
<rect fill="#DEE6F1" height="24" width="43.6875" x="1198.8125" y="18.5" />
<rect fill="#EEDDDB" height="24" width="4.3125" x="1194.5" y="18.5" />
<rect fill="none" height="24" stroke="#405C86" stroke-width="3" width="48" x="1194.5" y="18.5" />
<rect fill="#DEE6F1" height="24" width="43.6875" x="1150.8125" y="18.5" />
<rect fill="#EEDDDB" height="24" width="4.3125" x="1146.5" y="18.5" />
<rect fill="none" height="24" stroke="#405C86" stroke-width="3" width="48" x="1146.5" y="18.5" />
<rect fill="#DEE6F1" height="24" width="43.6875" x="1102.8125" y="18.5" />
<rect fill="#EEDDDB" height="24" width="4.3125" x="1098.5" y="18.5" />
<rect fill="none" height="24" stroke="#405C86" stroke-width="3" width="48" x="1098.5" y="18.5" />
<rect fill="#DEE6F1" height="24" width="43.6875" x="1054.8125" y="18.5" />
<rect fill="#EEDDDB" height="24" width="4.3125" x="1050.5" y="18.5" />
<rect fill="none" height="24" stroke="#405C86" stroke-width="3" width="48" x="1050.5" y="18.5" />
<rect fill="#DEE6F1" height="24" width="43.6875" x="1006.8125" y="18.5" />
<rect fill="#EEDDDB" height="24" width="4.3125" x="1002.5" y="18.5" />
<rect fill="none" height="24" stroke="#405C86" stroke-width="3" width="48" x="1002.5" y="18.5" />
<rect fill="#DEE6F1" height="24" width="43.6875" x="958.8125" y="18.5" />
<rect fill="#EEDDDB" height="24" width="4.3125" x="954.5" y="18.5" />
<rect fill="none" height="24" stroke="#405C86" stroke-width="3" width="48" x="954.5" y="18.5" />
<rect fill="#DEE6F1" height="24" width="43.6875" x="910.8125" y="18.5" />
<rect fill="#EEDDDB" height="24" width="4.3125" x="906.5" y="18.5" />
<rect fill="none" height="24" stroke="#405C86" stroke-width="3" width="48" x="906.5" y="18.5" />
<rect fill="#DEE6F1" height="24" width="43.6875" x="862.8125" y="18.5" />
<rect fill="#EEDDDB" height="24" width="4.3125" x="858.5" y="18.5" />
<rect fill="none" height="24" stroke="#405C86" stroke-width="3" width="48" x="858.5" y="18.5" />
<rect fill="none" height="24" stroke="#405C86" stroke-dasharray="3 1" stroke-dashoffset="1.5" stroke-width="1" width="768" x="90.5" y="18.5" />
<text class="label unused" x="474.5" y="31.5"></text>
<text class="register-name" x="80.5" y="30.5">Zn</text>
<text class="intrinsic-name" x="80.5" y="42.5">op</text>
<text class="register-number" x="10" y="30.5">(1)</text>
<rect fill="#DEE6F1" height="24" width="45.09375" x="1581.40625" y="90.5" />
<rect fill="#EEDDDB" height="24" width="50.90625" x="1530.5" y="90.5" />
<rect fill="none" height="24" stroke="#405C86" stroke-width="3" width="96" x="1530.5" y="90.5" />
<rect fill="#DEE6F1" height="24" width="45.09375" x="1485.40625" y="90.5" />
<rect fill="#EEDDDB" height="24" width="50.90625" x="1434.5" y="90.5" />
<rect fill="none" height="24" stroke="#405C86" stroke-width="3" width="96" x="1434.5" y="90.5" />
<rect fill="#DEE6F1" height="24" width="45.09375" x="1389.40625" y="90.5" />
<rect fill="#EEDDDB" height="24" width="50.90625" x="1338.5" y="90.5" />
<rect fill="none" height="24" stroke="#405C86" stroke-width="3" width="96" x="1338.5" y="90.5" />
<rect fill="#DEE6F1" height="24" width="45.09375" x="1293.40625" y="90.5" />
<rect fill="#EEDDDB" height="24" width="50.90625" x="1242.5" y="90.5" />
<rect fill="none" height="24" stroke="#405C86" stroke-width="3" width="96" x="1242.5" y="90.5" />
<rect fill="#DEE6F1" height="24" width="45.09375" x="1197.40625" y="90.5" />
<rect fill="#EEDDDB" height="24" width="50.90625" x="1146.5" y="90.5" />
<rect fill="none" height="24" stroke="#405C86" stroke-width="3" width="96" x="1146.5" y="90.5" />
<rect fill="#DEE6F1" height="24" width="45.09375" x="1101.40625" y="90.5" />
<rect fill="#EEDDDB" height="24" width="50.90625" x="1050.5" y="90.5" />
<rect fill="none" height="24" stroke="#405C86" stroke-width="3" width="96" x="1050.5" y="90.5" />
<rect fill="#DEE6F1" height="24" width="45.09375" x="1005.40625" y="90.5" />
<rect fill="#EEDDDB" height="24" width="50.90625" x="954.5" y="90.5" />
<rect fill="none" height="24" stroke="#405C86" stroke-width="3" width="96" x="954.5" y="90.5" />
<rect fill="#DEE6F1" height="24" width="45.09375" x="909.40625" y="90.5" />
<rect fill="#EEDDDB" height="24" width="50.90625" x="858.5" y="90.5" />
<rect fill="none" height="24" stroke="#405C86" stroke-width="3" width="96" x="858.5" y="90.5" />
<rect fill="#DEE6F1" height="24" width="45.09375" x="813.40625" y="90.5" />
<rect fill="#EEDDDB" height="24" width="50.90625" x="762.5" y="90.5" />
<rect fill="none" height="24" stroke="#405C86" stroke-width="3" width="96" x="762.5" y="90.5" />
<rect fill="#DEE6F1" height="24" width="45.09375" x="717.40625" y="90.5" />
<rect fill="#EEDDDB" height="24" width="50.90625" x="666.5" y="90.5" />
<rect fill="none" height="24" stroke="#405C86" stroke-width="3" width="96" x="666.5" y="90.5" />
<rect fill="#DEE6F1" height="24" width="45.09375" x="621.40625" y="90.5" />
<rect fill="#EEDDDB" height="24" width="50.90625" x="570.5" y="90.5" />
<rect fill="none" height="24" stroke="#405C86" stroke-width="3" width="96" x="570.5" y="90.5" />
<rect fill="#DEE6F1" height="24" width="45.09375" x="525.40625" y="90.5" />
<rect fill="#EEDDDB" height="24" width="50.90625" x="474.5" y="90.5" />
<rect fill="none" height="24" stroke="#405C86" stroke-width="3" width="96" x="474.5" y="90.5" />
<rect fill="#DEE6F1" height="24" width="45.09375" x="429.40625" y="90.5" />
<rect fill="#EEDDDB" height="24" width="50.90625" x="378.5" y="90.5" />
<rect fill="none" height="24" stroke="#405C86" stroke-width="3" width="96" x="378.5" y="90.5" />
<rect fill="#DEE6F1" height="24" width="45.09375" x="333.40625" y="90.5" />
<rect fill="#EEDDDB" height="24" width="50.90625" x="282.5" y="90.5" />
<rect fill="none" height="24" stroke="#405C86" stroke-width="3" width="96" x="282.5" y="90.5" />
<rect fill="#DEE6F1" height="24" width="45.09375" x="237.40625" y="90.5" />
<rect fill="#EEDDDB" height="24" width="50.90625" x="186.5" y="90.5" />
<rect fill="none" height="24" stroke="#405C86" stroke-width="3" width="96" x="186.5" y="90.5" />
<rect fill="#DEE6F1" height="24" width="45.09375" x="141.40625" y="90.5" />
<rect fill="#EEDDDB" height="24" width="50.90625" x="90.5" y="90.5" />
<rect fill="none" height="24" stroke="#405C86" stroke-width="3" width="96" x="90.5" y="90.5" />
<text class="register-name" x="80.5" y="102.5">Zd</text>
<text class="intrinsic-name" x="80.5" y="114.5">returns</text>
<text class="register-number" x="10" y="102.5">(2)</text>
<line marker-end="url(#arrowhead)" stroke="none" x1="1604.65625" x2="1603.953125" y1="43.5" y2="89" />
<line marker-end="url(#arrowhead)" stroke="none" x1="1556.65625" x2="1507.953125" y1="43.5" y2="89" />
<line marker-end="url(#arrowhead)" stroke="none" x1="1508.65625" x2="1411.953125" y1="43.5" y2="89" />
<line marker-end="url(#arrowhead)" stroke="none" x1="1460.65625" x2="1315.953125" y1="43.5" y2="89" />
<line marker-end="url(#arrowhead)" stroke="none" x1="1412.65625" x2="1219.953125" y1="43.5" y2="89" />
<line marker-end="url(#arrowhead)" stroke="none" x1="1364.65625" x2="1123.953125" y1="43.5" y2="89" />
<line marker-end="url(#arrowhead)" stroke="none" x1="1316.65625" x2="1027.953125" y1="43.5" y2="89" />
<line marker-end="url(#arrowhead)" stroke="none" x1="1268.65625" x2="931.953125" y1="43.5" y2="89" />
<line marker-end="url(#arrowhead)" stroke="none" x1="1220.65625" x2="835.953125" y1="43.5" y2="89" />
<line marker-end="url(#arrowhead)" stroke="none" x1="1172.65625" x2="739.953125" y1="43.5" y2="89" />
<line marker-end="url(#arrowhead)" stroke="none" x1="1124.65625" x2="643.953125" y1="43.5" y2="89" />
<line marker-end="url(#arrowhead)" stroke="none" x1="1076.65625" x2="547.953125" y1="43.5" y2="89" />
<line marker-end="url(#arrowhead)" stroke="none" x1="1028.65625" x2="451.953125" y1="43.5" y2="89" />
<line marker-end="url(#arrowhead)" stroke="none" x1="980.65625" x2="355.953125" y1="43.5" y2="89" />
<line marker-end="url(#arrowhead)" stroke="none" x1="932.65625" x2="259.953125" y1="43.5" y2="89" />
<line marker-end="url(#arrowhead)" stroke="none" x1="884.65625" x2="163.953125" y1="43.5" y2="89" />
</svg>