<svg xmlns="http://www.w3.org/2000/svg" viewBox="0 0 3174 123">
<style>
.label { font: 14px Helvetica; dominant-baseline: middle; text-anchor: middle; }
.title-left { font: 12px Helvetica; dominant-baseline: middle; }
.title-right { font: 12px Helvetica; dominant-baseline: middle; text-anchor: end; }
.title-intrinsic { font: 12px Helvetica; dominant-baseline: middle; text-anchor: middle; fill: #6778ED; }
.title { font: 12px Helvetica; dominant-baseline: middle; text-anchor: middle; }
.title-unused { font: 12px Helvetica; dominant-baseline: middle; text-anchor: middle; fill: #AAA; }
.register-name { font: 14px Helvetica; dominant-baseline: middle; text-anchor: end; font-style: italic; }
.memory-name { font: 14px Helvetica; dominant-baseline: middle; text-anchor: end; }
.register-number { font: 14px Helvetica; dominant-baseline: middle; text-anchor: start; }
.intrinsic-name { font: 14px Helvetica; dominant-baseline: middle; text-anchor: end; fill: #6778ED; }
.intrinsic-color { fill: #6778ED; }
.small-label { font: 12px Helvetica; dominant-baseline: middle; text-anchor: middle; }
.label-10px { font: 10px Helvetica; dominant-baseline: middle; text-anchor: middle; }
.smaller-label { font: 9px Helvetica; dominant-baseline: middle; text-anchor: middle; }
.label-6px { font: 6px Helvetica; dominant-baseline: middle; text-anchor: middle; }
.label-7px { font: 7px Helvetica; dominant-baseline: middle; text-anchor: middle; }
.unused { fill: #AAA; }
.dim { fill: #888; }
</style>
<defs>
<marker id="arrowhead" markerWidth="10.75" markerHeight="24.5" refX="9.0" refY="6.125" orient="auto">
<polyline points="0.5 0.5, 8.75 6.125, 0.5 11.75" stroke="#567DB6" stroke-width="1" fill="none"/>
</marker>
</defs>
<line stroke="#567DB6" stroke-width="1" x1="3151.5" x2="3151.5" y1="43.5" y2="89" />
<line stroke="#567DB6" stroke-width="1" x1="3055.5" x2="3055.5" y1="43.5" y2="89" />
<line stroke="#567DB6" stroke-width="1" x1="2959.5" x2="2959.5" y1="43.5" y2="89" />
<line stroke="#567DB6" stroke-width="1" x1="2863.5" x2="2863.5" y1="43.5" y2="89" />
<line stroke="#567DB6" stroke-width="1" x1="2767.5" x2="2767.5" y1="43.5" y2="89" />
<line stroke="#567DB6" stroke-width="1" x1="2671.5" x2="2671.5" y1="43.5" y2="89" />
<line stroke="#567DB6" stroke-width="1" x1="2575.5" x2="2575.5" y1="43.5" y2="89" />
<line stroke="#567DB6" stroke-width="1" x1="2479.5" x2="2479.5" y1="43.5" y2="89" />
<line stroke="#567DB6" stroke-width="1" x1="2383.5" x2="2383.5" y1="43.5" y2="89" />
<line stroke="#567DB6" stroke-width="1" x1="2287.5" x2="2287.5" y1="43.5" y2="89" />
<line stroke="#567DB6" stroke-width="1" x1="2191.5" x2="2191.5" y1="43.5" y2="89" />
<line stroke="#567DB6" stroke-width="1" x1="2095.5" x2="2095.5" y1="43.5" y2="89" />
<line stroke="#567DB6" stroke-width="1" x1="1999.5" x2="1999.5" y1="43.5" y2="89" />
<line stroke="#567DB6" stroke-width="1" x1="1903.5" x2="1903.5" y1="43.5" y2="89" />
<line stroke="#567DB6" stroke-width="1" x1="1807.5" x2="1807.5" y1="43.5" y2="89" />
<line stroke="#567DB6" stroke-width="1" x1="1711.5" x2="1711.5" y1="43.5" y2="89" />
<line stroke="#567DB6" stroke-width="1" x1="1615.5" x2="1615.5" y1="43.5" y2="89" />
<line stroke="#567DB6" stroke-width="1" x1="1519.5" x2="1519.5" y1="43.5" y2="89" />
<line stroke="#567DB6" stroke-width="1" x1="1423.5" x2="1423.5" y1="43.5" y2="89" />
<line stroke="#567DB6" stroke-width="1" x1="1327.5" x2="1327.5" y1="43.5" y2="89" />
<line stroke="#567DB6" stroke-width="1" x1="1231.5" x2="1231.5" y1="43.5" y2="89" />
<line stroke="#567DB6" stroke-width="1" x1="1135.5" x2="1135.5" y1="43.5" y2="89" />
<line stroke="#567DB6" stroke-width="1" x1="1039.5" x2="1039.5" y1="43.5" y2="89" />
<line stroke="#567DB6" stroke-width="1" x1="943.5" x2="943.5" y1="43.5" y2="89" />
<line stroke="#567DB6" stroke-width="1" x1="847.5" x2="847.5" y1="43.5" y2="89" />
<line stroke="#567DB6" stroke-width="1" x1="751.5" x2="751.5" y1="43.5" y2="89" />
<line stroke="#567DB6" stroke-width="1" x1="655.5" x2="655.5" y1="43.5" y2="89" />
<line stroke="#567DB6" stroke-width="1" x1="559.5" x2="559.5" y1="43.5" y2="89" />
<line stroke="#567DB6" stroke-width="1" x1="463.5" x2="463.5" y1="43.5" y2="89" />
<line stroke="#567DB6" stroke-width="1" x1="367.5" x2="367.5" y1="43.5" y2="89" />
<line stroke="#567DB6" stroke-width="1" x1="271.5" x2="271.5" y1="43.5" y2="89" />
<line stroke="#567DB6" stroke-width="1" x1="175.5" x2="175.5" y1="43.5" y2="89" />
<text class="title-left" x="90.5" y="9.5">upper</text>
<text class="title-right" x="3162.5" y="9.5">lower</text>
<rect fill="#DEE6F1" height="24" width="21.84375" x="3140.65625" y="18.5" />
<rect fill="#EEDDDB" height="24" width="2.90625" x="3137.75" y="18.5" />
<rect fill="none" height="24" stroke="#405C86" stroke-width="3" width="96" x="3066.5" y="18.5" />
<rect fill="#DEE6F1" height="24" width="21.84375" x="3044.65625" y="18.5" />
<rect fill="#EEDDDB" height="24" width="2.90625" x="3041.75" y="18.5" />
<rect fill="none" height="24" stroke="#405C86" stroke-width="3" width="96" x="2970.5" y="18.5" />
<rect fill="#DEE6F1" height="24" width="21.84375" x="2948.65625" y="18.5" />
<rect fill="#EEDDDB" height="24" width="2.90625" x="2945.75" y="18.5" />
<rect fill="none" height="24" stroke="#405C86" stroke-width="3" width="96" x="2874.5" y="18.5" />
<rect fill="#DEE6F1" height="24" width="21.84375" x="2852.65625" y="18.5" />
<rect fill="#EEDDDB" height="24" width="2.90625" x="2849.75" y="18.5" />
<rect fill="none" height="24" stroke="#405C86" stroke-width="3" width="96" x="2778.5" y="18.5" />
<rect fill="#DEE6F1" height="24" width="21.84375" x="2756.65625" y="18.5" />
<rect fill="#EEDDDB" height="24" width="2.90625" x="2753.75" y="18.5" />
<rect fill="none" height="24" stroke="#405C86" stroke-width="3" width="96" x="2682.5" y="18.5" />
<rect fill="#DEE6F1" height="24" width="21.84375" x="2660.65625" y="18.5" />
<rect fill="#EEDDDB" height="24" width="2.90625" x="2657.75" y="18.5" />
<rect fill="none" height="24" stroke="#405C86" stroke-width="3" width="96" x="2586.5" y="18.5" />
<rect fill="#DEE6F1" height="24" width="21.84375" x="2564.65625" y="18.5" />
<rect fill="#EEDDDB" height="24" width="2.90625" x="2561.75" y="18.5" />
<rect fill="none" height="24" stroke="#405C86" stroke-width="3" width="96" x="2490.5" y="18.5" />
<rect fill="#DEE6F1" height="24" width="21.84375" x="2468.65625" y="18.5" />
<rect fill="#EEDDDB" height="24" width="2.90625" x="2465.75" y="18.5" />
<rect fill="none" height="24" stroke="#405C86" stroke-width="3" width="96" x="2394.5" y="18.5" />
<rect fill="#DEE6F1" height="24" width="21.84375" x="2372.65625" y="18.5" />
<rect fill="#EEDDDB" height="24" width="2.90625" x="2369.75" y="18.5" />
<rect fill="none" height="24" stroke="#405C86" stroke-width="3" width="96" x="2298.5" y="18.5" />
<rect fill="#DEE6F1" height="24" width="21.84375" x="2276.65625" y="18.5" />
<rect fill="#EEDDDB" height="24" width="2.90625" x="2273.75" y="18.5" />
<rect fill="none" height="24" stroke="#405C86" stroke-width="3" width="96" x="2202.5" y="18.5" />
<rect fill="#DEE6F1" height="24" width="21.84375" x="2180.65625" y="18.5" />
<rect fill="#EEDDDB" height="24" width="2.90625" x="2177.75" y="18.5" />
<rect fill="none" height="24" stroke="#405C86" stroke-width="3" width="96" x="2106.5" y="18.5" />
<rect fill="#DEE6F1" height="24" width="21.84375" x="2084.65625" y="18.5" />
<rect fill="#EEDDDB" height="24" width="2.90625" x="2081.75" y="18.5" />
<rect fill="none" height="24" stroke="#405C86" stroke-width="3" width="96" x="2010.5" y="18.5" />
<rect fill="#DEE6F1" height="24" width="21.84375" x="1988.65625" y="18.5" />
<rect fill="#EEDDDB" height="24" width="2.90625" x="1985.75" y="18.5" />
<rect fill="none" height="24" stroke="#405C86" stroke-width="3" width="96" x="1914.5" y="18.5" />
<rect fill="#DEE6F1" height="24" width="21.84375" x="1892.65625" y="18.5" />
<rect fill="#EEDDDB" height="24" width="2.90625" x="1889.75" y="18.5" />
<rect fill="none" height="24" stroke="#405C86" stroke-width="3" width="96" x="1818.5" y="18.5" />
<rect fill="#DEE6F1" height="24" width="21.84375" x="1796.65625" y="18.5" />
<rect fill="#EEDDDB" height="24" width="2.90625" x="1793.75" y="18.5" />
<rect fill="none" height="24" stroke="#405C86" stroke-width="3" width="96" x="1722.5" y="18.5" />
<rect fill="#DEE6F1" height="24" width="21.84375" x="1700.65625" y="18.5" />
<rect fill="#EEDDDB" height="24" width="2.90625" x="1697.75" y="18.5" />
<rect fill="none" height="24" stroke="#405C86" stroke-width="3" width="96" x="1626.5" y="18.5" />
<rect fill="#DEE6F1" height="24" width="21.84375" x="1604.65625" y="18.5" />
<rect fill="#EEDDDB" height="24" width="2.90625" x="1601.75" y="18.5" />
<rect fill="none" height="24" stroke="#405C86" stroke-width="3" width="96" x="1530.5" y="18.5" />
<rect fill="#DEE6F1" height="24" width="21.84375" x="1508.65625" y="18.5" />
<rect fill="#EEDDDB" height="24" width="2.90625" x="1505.75" y="18.5" />
<rect fill="none" height="24" stroke="#405C86" stroke-width="3" width="96" x="1434.5" y="18.5" />
<rect fill="#DEE6F1" height="24" width="21.84375" x="1412.65625" y="18.5" />
<rect fill="#EEDDDB" height="24" width="2.90625" x="1409.75" y="18.5" />
<rect fill="none" height="24" stroke="#405C86" stroke-width="3" width="96" x="1338.5" y="18.5" />
<rect fill="#DEE6F1" height="24" width="21.84375" x="1316.65625" y="18.5" />
<rect fill="#EEDDDB" height="24" width="2.90625" x="1313.75" y="18.5" />
<rect fill="none" height="24" stroke="#405C86" stroke-width="3" width="96" x="1242.5" y="18.5" />
<rect fill="#DEE6F1" height="24" width="21.84375" x="1220.65625" y="18.5" />
<rect fill="#EEDDDB" height="24" width="2.90625" x="1217.75" y="18.5" />
<rect fill="none" height="24" stroke="#405C86" stroke-width="3" width="96" x="1146.5" y="18.5" />
<rect fill="#DEE6F1" height="24" width="21.84375" x="1124.65625" y="18.5" />
<rect fill="#EEDDDB" height="24" width="2.90625" x="1121.75" y="18.5" />
<rect fill="none" height="24" stroke="#405C86" stroke-width="3" width="96" x="1050.5" y="18.5" />
<rect fill="#DEE6F1" height="24" width="21.84375" x="1028.65625" y="18.5" />
<rect fill="#EEDDDB" height="24" width="2.90625" x="1025.75" y="18.5" />
<rect fill="none" height="24" stroke="#405C86" stroke-width="3" width="96" x="954.5" y="18.5" />
<rect fill="#DEE6F1" height="24" width="21.84375" x="932.65625" y="18.5" />
<rect fill="#EEDDDB" height="24" width="2.90625" x="929.75" y="18.5" />
<rect fill="none" height="24" stroke="#405C86" stroke-width="3" width="96" x="858.5" y="18.5" />
<rect fill="#DEE6F1" height="24" width="21.84375" x="836.65625" y="18.5" />
<rect fill="#EEDDDB" height="24" width="2.90625" x="833.75" y="18.5" />
<rect fill="none" height="24" stroke="#405C86" stroke-width="3" width="96" x="762.5" y="18.5" />
<rect fill="#DEE6F1" height="24" width="21.84375" x="740.65625" y="18.5" />
<rect fill="#EEDDDB" height="24" width="2.90625" x="737.75" y="18.5" />
<rect fill="none" height="24" stroke="#405C86" stroke-width="3" width="96" x="666.5" y="18.5" />
<rect fill="#DEE6F1" height="24" width="21.84375" x="644.65625" y="18.5" />
<rect fill="#EEDDDB" height="24" width="2.90625" x="641.75" y="18.5" />
<rect fill="none" height="24" stroke="#405C86" stroke-width="3" width="96" x="570.5" y="18.5" />
<rect fill="#DEE6F1" height="24" width="21.84375" x="548.65625" y="18.5" />
<rect fill="#EEDDDB" height="24" width="2.90625" x="545.75" y="18.5" />
<rect fill="none" height="24" stroke="#405C86" stroke-width="3" width="96" x="474.5" y="18.5" />
<rect fill="#DEE6F1" height="24" width="21.84375" x="452.65625" y="18.5" />
<rect fill="#EEDDDB" height="24" width="2.90625" x="449.75" y="18.5" />
<rect fill="none" height="24" stroke="#405C86" stroke-width="3" width="96" x="378.5" y="18.5" />
<rect fill="#DEE6F1" height="24" width="21.84375" x="356.65625" y="18.5" />
<rect fill="#EEDDDB" height="24" width="2.90625" x="353.75" y="18.5" />
<rect fill="none" height="24" stroke="#405C86" stroke-width="3" width="96" x="282.5" y="18.5" />
<rect fill="#DEE6F1" height="24" width="21.84375" x="260.65625" y="18.5" />
<rect fill="#EEDDDB" height="24" width="2.90625" x="257.75" y="18.5" />
<rect fill="none" height="24" stroke="#405C86" stroke-width="3" width="96" x="186.5" y="18.5" />
<rect fill="#DEE6F1" height="24" width="21.84375" x="164.65625" y="18.5" />
<rect fill="#EEDDDB" height="24" width="2.90625" x="161.75" y="18.5" />
<rect fill="none" height="24" stroke="#405C86" stroke-width="3" width="96" x="90.5" y="18.5" />
<text class="register-name" x="80.5" y="30.5">Zn</text>
<text class="intrinsic-name" x="80.5" y="42.5">op1</text>
<text class="register-number" x="10" y="30.5">(1)</text>
<rect fill="#DEE6F1" height="24" width="21.84375" x="3140.65625" y="90.5" />
<rect fill="#EEDDDB" height="24" width="74.15625" x="3066.5" y="90.5" />
<rect fill="none" height="24" stroke="#405C86" stroke-width="3" width="96" x="3066.5" y="90.5" />
<rect fill="#DEE6F1" height="24" width="21.84375" x="3044.65625" y="90.5" />
<rect fill="#EEDDDB" height="24" width="74.15625" x="2970.5" y="90.5" />
<rect fill="none" height="24" stroke="#405C86" stroke-width="3" width="96" x="2970.5" y="90.5" />
<rect fill="#DEE6F1" height="24" width="21.84375" x="2948.65625" y="90.5" />
<rect fill="#EEDDDB" height="24" width="74.15625" x="2874.5" y="90.5" />
<rect fill="none" height="24" stroke="#405C86" stroke-width="3" width="96" x="2874.5" y="90.5" />
<rect fill="#DEE6F1" height="24" width="21.84375" x="2852.65625" y="90.5" />
<rect fill="#EEDDDB" height="24" width="74.15625" x="2778.5" y="90.5" />
<rect fill="none" height="24" stroke="#405C86" stroke-width="3" width="96" x="2778.5" y="90.5" />
<rect fill="#DEE6F1" height="24" width="21.84375" x="2756.65625" y="90.5" />
<rect fill="#EEDDDB" height="24" width="74.15625" x="2682.5" y="90.5" />
<rect fill="none" height="24" stroke="#405C86" stroke-width="3" width="96" x="2682.5" y="90.5" />
<rect fill="#DEE6F1" height="24" width="21.84375" x="2660.65625" y="90.5" />
<rect fill="#EEDDDB" height="24" width="74.15625" x="2586.5" y="90.5" />
<rect fill="none" height="24" stroke="#405C86" stroke-width="3" width="96" x="2586.5" y="90.5" />
<rect fill="#DEE6F1" height="24" width="21.84375" x="2564.65625" y="90.5" />
<rect fill="#EEDDDB" height="24" width="74.15625" x="2490.5" y="90.5" />
<rect fill="none" height="24" stroke="#405C86" stroke-width="3" width="96" x="2490.5" y="90.5" />
<rect fill="#DEE6F1" height="24" width="21.84375" x="2468.65625" y="90.5" />
<rect fill="#EEDDDB" height="24" width="74.15625" x="2394.5" y="90.5" />
<rect fill="none" height="24" stroke="#405C86" stroke-width="3" width="96" x="2394.5" y="90.5" />
<rect fill="#DEE6F1" height="24" width="21.84375" x="2372.65625" y="90.5" />
<rect fill="#EEDDDB" height="24" width="74.15625" x="2298.5" y="90.5" />
<rect fill="none" height="24" stroke="#405C86" stroke-width="3" width="96" x="2298.5" y="90.5" />
<rect fill="#DEE6F1" height="24" width="21.84375" x="2276.65625" y="90.5" />
<rect fill="#EEDDDB" height="24" width="74.15625" x="2202.5" y="90.5" />
<rect fill="none" height="24" stroke="#405C86" stroke-width="3" width="96" x="2202.5" y="90.5" />
<rect fill="#DEE6F1" height="24" width="21.84375" x="2180.65625" y="90.5" />
<rect fill="#EEDDDB" height="24" width="74.15625" x="2106.5" y="90.5" />
<rect fill="none" height="24" stroke="#405C86" stroke-width="3" width="96" x="2106.5" y="90.5" />
<rect fill="#DEE6F1" height="24" width="21.84375" x="2084.65625" y="90.5" />
<rect fill="#EEDDDB" height="24" width="74.15625" x="2010.5" y="90.5" />
<rect fill="none" height="24" stroke="#405C86" stroke-width="3" width="96" x="2010.5" y="90.5" />
<rect fill="#DEE6F1" height="24" width="21.84375" x="1988.65625" y="90.5" />
<rect fill="#EEDDDB" height="24" width="74.15625" x="1914.5" y="90.5" />
<rect fill="none" height="24" stroke="#405C86" stroke-width="3" width="96" x="1914.5" y="90.5" />
<rect fill="#DEE6F1" height="24" width="21.84375" x="1892.65625" y="90.5" />
<rect fill="#EEDDDB" height="24" width="74.15625" x="1818.5" y="90.5" />
<rect fill="none" height="24" stroke="#405C86" stroke-width="3" width="96" x="1818.5" y="90.5" />
<rect fill="#DEE6F1" height="24" width="21.84375" x="1796.65625" y="90.5" />
<rect fill="#EEDDDB" height="24" width="74.15625" x="1722.5" y="90.5" />
<rect fill="none" height="24" stroke="#405C86" stroke-width="3" width="96" x="1722.5" y="90.5" />
<rect fill="#DEE6F1" height="24" width="21.84375" x="1700.65625" y="90.5" />
<rect fill="#EEDDDB" height="24" width="74.15625" x="1626.5" y="90.5" />
<rect fill="none" height="24" stroke="#405C86" stroke-width="3" width="96" x="1626.5" y="90.5" />
<rect fill="#DEE6F1" height="24" width="21.84375" x="1604.65625" y="90.5" />
<rect fill="#EEDDDB" height="24" width="74.15625" x="1530.5" y="90.5" />
<rect fill="none" height="24" stroke="#405C86" stroke-width="3" width="96" x="1530.5" y="90.5" />
<rect fill="#DEE6F1" height="24" width="21.84375" x="1508.65625" y="90.5" />
<rect fill="#EEDDDB" height="24" width="74.15625" x="1434.5" y="90.5" />
<rect fill="none" height="24" stroke="#405C86" stroke-width="3" width="96" x="1434.5" y="90.5" />
<rect fill="#DEE6F1" height="24" width="21.84375" x="1412.65625" y="90.5" />
<rect fill="#EEDDDB" height="24" width="74.15625" x="1338.5" y="90.5" />
<rect fill="none" height="24" stroke="#405C86" stroke-width="3" width="96" x="1338.5" y="90.5" />
<rect fill="#DEE6F1" height="24" width="21.84375" x="1316.65625" y="90.5" />
<rect fill="#EEDDDB" height="24" width="74.15625" x="1242.5" y="90.5" />
<rect fill="none" height="24" stroke="#405C86" stroke-width="3" width="96" x="1242.5" y="90.5" />
<rect fill="#DEE6F1" height="24" width="21.84375" x="1220.65625" y="90.5" />
<rect fill="#EEDDDB" height="24" width="74.15625" x="1146.5" y="90.5" />
<rect fill="none" height="24" stroke="#405C86" stroke-width="3" width="96" x="1146.5" y="90.5" />
<rect fill="#DEE6F1" height="24" width="21.84375" x="1124.65625" y="90.5" />
<rect fill="#EEDDDB" height="24" width="74.15625" x="1050.5" y="90.5" />
<rect fill="none" height="24" stroke="#405C86" stroke-width="3" width="96" x="1050.5" y="90.5" />
<rect fill="#DEE6F1" height="24" width="21.84375" x="1028.65625" y="90.5" />
<rect fill="#EEDDDB" height="24" width="74.15625" x="954.5" y="90.5" />
<rect fill="none" height="24" stroke="#405C86" stroke-width="3" width="96" x="954.5" y="90.5" />
<rect fill="#DEE6F1" height="24" width="21.84375" x="932.65625" y="90.5" />
<rect fill="#EEDDDB" height="24" width="74.15625" x="858.5" y="90.5" />
<rect fill="none" height="24" stroke="#405C86" stroke-width="3" width="96" x="858.5" y="90.5" />
<rect fill="#DEE6F1" height="24" width="21.84375" x="836.65625" y="90.5" />
<rect fill="#EEDDDB" height="24" width="74.15625" x="762.5" y="90.5" />
<rect fill="none" height="24" stroke="#405C86" stroke-width="3" width="96" x="762.5" y="90.5" />
<rect fill="#DEE6F1" height="24" width="21.84375" x="740.65625" y="90.5" />
<rect fill="#EEDDDB" height="24" width="74.15625" x="666.5" y="90.5" />
<rect fill="none" height="24" stroke="#405C86" stroke-width="3" width="96" x="666.5" y="90.5" />
<rect fill="#DEE6F1" height="24" width="21.84375" x="644.65625" y="90.5" />
<rect fill="#EEDDDB" height="24" width="74.15625" x="570.5" y="90.5" />
<rect fill="none" height="24" stroke="#405C86" stroke-width="3" width="96" x="570.5" y="90.5" />
<rect fill="#DEE6F1" height="24" width="21.84375" x="548.65625" y="90.5" />
<rect fill="#EEDDDB" height="24" width="74.15625" x="474.5" y="90.5" />
<rect fill="none" height="24" stroke="#405C86" stroke-width="3" width="96" x="474.5" y="90.5" />
<rect fill="#DEE6F1" height="24" width="21.84375" x="452.65625" y="90.5" />
<rect fill="#EEDDDB" height="24" width="74.15625" x="378.5" y="90.5" />
<rect fill="none" height="24" stroke="#405C86" stroke-width="3" width="96" x="378.5" y="90.5" />
<rect fill="#DEE6F1" height="24" width="21.84375" x="356.65625" y="90.5" />
<rect fill="#EEDDDB" height="24" width="74.15625" x="282.5" y="90.5" />
<rect fill="none" height="24" stroke="#405C86" stroke-width="3" width="96" x="282.5" y="90.5" />
<rect fill="#DEE6F1" height="24" width="21.84375" x="260.65625" y="90.5" />
<rect fill="#EEDDDB" height="24" width="74.15625" x="186.5" y="90.5" />
<rect fill="none" height="24" stroke="#405C86" stroke-width="3" width="96" x="186.5" y="90.5" />
<rect fill="#DEE6F1" height="24" width="21.84375" x="164.65625" y="90.5" />
<rect fill="#EEDDDB" height="24" width="74.15625" x="90.5" y="90.5" />
<rect fill="none" height="24" stroke="#405C86" stroke-width="3" width="96" x="90.5" y="90.5" />
<text class="register-name" x="80.5" y="102.5">Zd</text>
<text class="intrinsic-name" x="80.5" y="114.5">returns</text>
<text class="register-number" x="10" y="102.5">(2)</text>
<line marker-end="url(#arrowhead)" stroke="none" x1="3151.5" x2="3151.5" y1="43.5" y2="89" />
<line marker-end="url(#arrowhead)" stroke="none" x1="3055.5" x2="3055.5" y1="43.5" y2="89" />
<line marker-end="url(#arrowhead)" stroke="none" x1="2959.5" x2="2959.5" y1="43.5" y2="89" />
<line marker-end="url(#arrowhead)" stroke="none" x1="2863.5" x2="2863.5" y1="43.5" y2="89" />
<line marker-end="url(#arrowhead)" stroke="none" x1="2767.5" x2="2767.5" y1="43.5" y2="89" />
<line marker-end="url(#arrowhead)" stroke="none" x1="2671.5" x2="2671.5" y1="43.5" y2="89" />
<line marker-end="url(#arrowhead)" stroke="none" x1="2575.5" x2="2575.5" y1="43.5" y2="89" />
<line marker-end="url(#arrowhead)" stroke="none" x1="2479.5" x2="2479.5" y1="43.5" y2="89" />
<line marker-end="url(#arrowhead)" stroke="none" x1="2383.5" x2="2383.5" y1="43.5" y2="89" />
<line marker-end="url(#arrowhead)" stroke="none" x1="2287.5" x2="2287.5" y1="43.5" y2="89" />
<line marker-end="url(#arrowhead)" stroke="none" x1="2191.5" x2="2191.5" y1="43.5" y2="89" />
<line marker-end="url(#arrowhead)" stroke="none" x1="2095.5" x2="2095.5" y1="43.5" y2="89" />
<line marker-end="url(#arrowhead)" stroke="none" x1="1999.5" x2="1999.5" y1="43.5" y2="89" />
<line marker-end="url(#arrowhead)" stroke="none" x1="1903.5" x2="1903.5" y1="43.5" y2="89" />
<line marker-end="url(#arrowhead)" stroke="none" x1="1807.5" x2="1807.5" y1="43.5" y2="89" />
<line marker-end="url(#arrowhead)" stroke="none" x1="1711.5" x2="1711.5" y1="43.5" y2="89" />
<line marker-end="url(#arrowhead)" stroke="none" x1="1615.5" x2="1615.5" y1="43.5" y2="89" />
<line marker-end="url(#arrowhead)" stroke="none" x1="1519.5" x2="1519.5" y1="43.5" y2="89" />
<line marker-end="url(#arrowhead)" stroke="none" x1="1423.5" x2="1423.5" y1="43.5" y2="89" />
<line marker-end="url(#arrowhead)" stroke="none" x1="1327.5" x2="1327.5" y1="43.5" y2="89" />
<line marker-end="url(#arrowhead)" stroke="none" x1="1231.5" x2="1231.5" y1="43.5" y2="89" />
<line marker-end="url(#arrowhead)" stroke="none" x1="1135.5" x2="1135.5" y1="43.5" y2="89" />
<line marker-end="url(#arrowhead)" stroke="none" x1="1039.5" x2="1039.5" y1="43.5" y2="89" />
<line marker-end="url(#arrowhead)" stroke="none" x1="943.5" x2="943.5" y1="43.5" y2="89" />
<line marker-end="url(#arrowhead)" stroke="none" x1="847.5" x2="847.5" y1="43.5" y2="89" />
<line marker-end="url(#arrowhead)" stroke="none" x1="751.5" x2="751.5" y1="43.5" y2="89" />
<line marker-end="url(#arrowhead)" stroke="none" x1="655.5" x2="655.5" y1="43.5" y2="89" />
<line marker-end="url(#arrowhead)" stroke="none" x1="559.5" x2="559.5" y1="43.5" y2="89" />
<line marker-end="url(#arrowhead)" stroke="none" x1="463.5" x2="463.5" y1="43.5" y2="89" />
<line marker-end="url(#arrowhead)" stroke="none" x1="367.5" x2="367.5" y1="43.5" y2="89" />
<line marker-end="url(#arrowhead)" stroke="none" x1="271.5" x2="271.5" y1="43.5" y2="89" />
<line marker-end="url(#arrowhead)" stroke="none" x1="175.5" x2="175.5" y1="43.5" y2="89" />
</svg>