<svg xmlns="http://www.w3.org/2000/svg" viewBox="0 0 1708 195">
<style>
.label { font: 14px Helvetica; dominant-baseline: middle; text-anchor: middle; }
.title-left { font: 12px Helvetica; dominant-baseline: middle; }
.title-right { font: 12px Helvetica; dominant-baseline: middle; text-anchor: end; }
.title-intrinsic { font: 12px Helvetica; dominant-baseline: middle; text-anchor: middle; fill: #6778ED; }
.title { font: 12px Helvetica; dominant-baseline: middle; text-anchor: middle; }
.title-unused { font: 12px Helvetica; dominant-baseline: middle; text-anchor: middle; fill: #AAA; }
.register-name { font: 14px Helvetica; dominant-baseline: middle; text-anchor: end; font-style: italic; }
.memory-name { font: 14px Helvetica; dominant-baseline: middle; text-anchor: end; }
.register-number { font: 14px Helvetica; dominant-baseline: middle; text-anchor: start; }
.intrinsic-name { font: 14px Helvetica; dominant-baseline: middle; text-anchor: end; fill: #6778ED; }
.intrinsic-color { fill: #6778ED; }
.small-label { font: 12px Helvetica; dominant-baseline: middle; text-anchor: middle; }
.label-10px { font: 10px Helvetica; dominant-baseline: middle; text-anchor: middle; }
.smaller-label { font: 9px Helvetica; dominant-baseline: middle; text-anchor: middle; }
.label-6px { font: 6px Helvetica; dominant-baseline: middle; text-anchor: middle; }
.label-7px { font: 7px Helvetica; dominant-baseline: middle; text-anchor: middle; }
.unused { fill: #AAA; }
.dim { fill: #888; }
</style>
<defs>
<marker id="arrowhead" markerWidth="10.75" markerHeight="24.5" refX="9.0" refY="6.125" orient="auto">
<polyline points="0.5 0.5, 8.75 6.125, 0.5 11.75" stroke="#567DB6" stroke-width="1" fill="none"/>
</marker>
</defs>
<polyline fill="none" points="931.5 43.5,933.5 47.5,1311.5 47.5,1312.5 49.5,1312.5 53.5,1312.5 49.5,1313.5 47.5,1691.5 47.5,1693.5 43.5" stroke="#567DB6" stroke-width="1" />
<polyline fill="none" points="93.5 43.5,95.5 47.5,473.5 47.5,474.5 49.5,474.5 53.5,474.5 49.5,475.5 47.5,853.5 47.5,855.5 43.5" stroke="#567DB6" stroke-width="1" />
<line stroke="#567DB6" stroke-width="1" top="True" x1="1312.5" x2="474.5" y1="53.5" y2="53.5" />
<line stroke="#567DB6" stroke-width="1" x1="474.5" x2="846.5" y1="53.5" y2="89.5" />
<line stroke="#567DB6" stroke-width="1" x1="474.5" x2="822.5" y1="53.5" y2="89.5" />
<line stroke="#567DB6" stroke-width="1" x1="474.5" x2="798.5" y1="53.5" y2="89.5" />
<line stroke="#567DB6" stroke-width="1" x1="474.5" x2="774.5" y1="53.5" y2="89.5" />
<line stroke="#567DB6" stroke-width="1" x1="474.5" x2="750.5" y1="53.5" y2="89.5" />
<line stroke="#567DB6" stroke-width="1" x1="474.5" x2="726.5" y1="53.5" y2="89.5" />
<line stroke="#567DB6" stroke-width="1" x1="474.5" x2="702.5" y1="53.5" y2="89.5" />
<line stroke="#567DB6" stroke-width="1" x1="474.5" x2="678.5" y1="53.5" y2="89.5" />
<line stroke="#567DB6" stroke-width="1" x1="474.5" x2="654.5" y1="53.5" y2="89.5" />
<line stroke="#567DB6" stroke-width="1" x1="474.5" x2="630.5" y1="53.5" y2="89.5" />
<line stroke="#567DB6" stroke-width="1" x1="474.5" x2="606.5" y1="53.5" y2="89.5" />
<line stroke="#567DB6" stroke-width="1" x1="474.5" x2="582.5" y1="53.5" y2="89.5" />
<line stroke="#567DB6" stroke-width="1" x1="474.5" x2="558.5" y1="53.5" y2="89.5" />
<line stroke="#567DB6" stroke-width="1" x1="474.5" x2="534.5" y1="53.5" y2="89.5" />
<line stroke="#567DB6" stroke-width="1" x1="474.5" x2="510.5" y1="53.5" y2="89.5" />
<line stroke="#567DB6" stroke-width="1" x1="474.5" x2="486.5" y1="53.5" y2="89.5" />
<line stroke="#567DB6" stroke-width="1" x1="474.5" x2="462.5" y1="53.5" y2="89.5" />
<line stroke="#567DB6" stroke-width="1" x1="474.5" x2="438.5" y1="53.5" y2="89.5" />
<line stroke="#567DB6" stroke-width="1" x1="474.5" x2="414.5" y1="53.5" y2="89.5" />
<line stroke="#567DB6" stroke-width="1" x1="474.5" x2="390.5" y1="53.5" y2="89.5" />
<line stroke="#567DB6" stroke-width="1" x1="474.5" x2="366.5" y1="53.5" y2="89.5" />
<line stroke="#567DB6" stroke-width="1" x1="474.5" x2="342.5" y1="53.5" y2="89.5" />
<line stroke="#567DB6" stroke-width="1" x1="474.5" x2="318.5" y1="53.5" y2="89.5" />
<line stroke="#567DB6" stroke-width="1" x1="474.5" x2="294.5" y1="53.5" y2="89.5" />
<line stroke="#567DB6" stroke-width="1" x1="474.5" x2="270.5" y1="53.5" y2="89.5" />
<line stroke="#567DB6" stroke-width="1" x1="474.5" x2="246.5" y1="53.5" y2="89.5" />
<line stroke="#567DB6" stroke-width="1" x1="474.5" x2="222.5" y1="53.5" y2="89.5" />
<line stroke="#567DB6" stroke-width="1" x1="474.5" x2="198.5" y1="53.5" y2="89.5" />
<line stroke="#567DB6" stroke-width="1" x1="474.5" x2="174.5" y1="53.5" y2="89.5" />
<line stroke="#567DB6" stroke-width="1" x1="474.5" x2="150.5" y1="53.5" y2="89.5" />
<line stroke="#567DB6" stroke-width="1" x1="474.5" x2="126.5" y1="53.5" y2="89.5" />
<line stroke="#567DB6" stroke-width="1" x1="474.5" x2="102.5" y1="53.5" y2="89.5" />
<line stroke="#567DB6" stroke-width="1" x1="846.5" x2="846.5" y1="115.5" y2="161" />
<line stroke="#567DB6" stroke-width="1" x1="822.5" x2="822.5" y1="115.5" y2="161" />
<line stroke="#567DB6" stroke-width="1" x1="798.5" x2="798.5" y1="115.5" y2="161" />
<line stroke="#567DB6" stroke-width="1" x1="774.5" x2="774.5" y1="115.5" y2="161" />
<line stroke="#567DB6" stroke-width="1" x1="750.5" x2="750.5" y1="115.5" y2="161" />
<line stroke="#567DB6" stroke-width="1" x1="726.5" x2="726.5" y1="115.5" y2="161" />
<line stroke="#567DB6" stroke-width="1" x1="702.5" x2="702.5" y1="115.5" y2="161" />
<line stroke="#567DB6" stroke-width="1" x1="678.5" x2="678.5" y1="115.5" y2="161" />
<line stroke="#567DB6" stroke-width="1" x1="654.5" x2="654.5" y1="115.5" y2="161" />
<line stroke="#567DB6" stroke-width="1" x1="630.5" x2="630.5" y1="115.5" y2="161" />
<line stroke="#567DB6" stroke-width="1" x1="606.5" x2="606.5" y1="115.5" y2="161" />
<line stroke="#567DB6" stroke-width="1" x1="582.5" x2="582.5" y1="115.5" y2="161" />
<line stroke="#567DB6" stroke-width="1" x1="558.5" x2="558.5" y1="115.5" y2="161" />
<line stroke="#567DB6" stroke-width="1" x1="534.5" x2="534.5" y1="115.5" y2="161" />
<line stroke="#567DB6" stroke-width="1" x1="510.5" x2="510.5" y1="115.5" y2="161" />
<line stroke="#567DB6" stroke-width="1" x1="486.5" x2="486.5" y1="115.5" y2="161" />
<line stroke="#567DB6" stroke-width="1" x1="462.5" x2="462.5" y1="115.5" y2="161" />
<line stroke="#567DB6" stroke-width="1" x1="438.5" x2="438.5" y1="115.5" y2="161" />
<line stroke="#567DB6" stroke-width="1" x1="414.5" x2="414.5" y1="115.5" y2="161" />
<line stroke="#567DB6" stroke-width="1" x1="390.5" x2="390.5" y1="115.5" y2="161" />
<line stroke="#567DB6" stroke-width="1" x1="366.5" x2="366.5" y1="115.5" y2="161" />
<line stroke="#567DB6" stroke-width="1" x1="342.5" x2="342.5" y1="115.5" y2="161" />
<line stroke="#567DB6" stroke-width="1" x1="318.5" x2="318.5" y1="115.5" y2="161" />
<line stroke="#567DB6" stroke-width="1" x1="294.5" x2="294.5" y1="115.5" y2="161" />
<line stroke="#567DB6" stroke-width="1" x1="270.5" x2="270.5" y1="115.5" y2="161" />
<line stroke="#567DB6" stroke-width="1" x1="246.5" x2="246.5" y1="115.5" y2="161" />
<line stroke="#567DB6" stroke-width="1" x1="222.5" x2="222.5" y1="115.5" y2="161" />
<line stroke="#567DB6" stroke-width="1" x1="198.5" x2="198.5" y1="115.5" y2="161" />
<line stroke="#567DB6" stroke-width="1" x1="174.5" x2="174.5" y1="115.5" y2="161" />
<line stroke="#567DB6" stroke-width="1" x1="150.5" x2="150.5" y1="115.5" y2="161" />
<line stroke="#567DB6" stroke-width="1" x1="126.5" x2="126.5" y1="115.5" y2="161" />
<line stroke="#567DB6" stroke-width="1" x1="102.5" x2="102.5" y1="115.5" y2="161" />
<text class="title-left" x="90.5" y="9.5">upper</text>
<text class="title-right" x="858.5" y="9.5">lower</text>
<rect fill="#DEE6F1" height="24" width="24" x="1672.5" y="18.5" />
<rect fill="none" height="24" stroke="#405C86" stroke-width="3" width="24" x="1672.5" y="18.5" />
<text class="label" x="1684.5" y="31.5">0</text>
<rect fill="#DEE6F1" height="24" width="24" x="1648.5" y="18.5" />
<rect fill="none" height="24" stroke="#405C86" stroke-width="3" width="24" x="1648.5" y="18.5" />
<text class="label" x="1660.5" y="31.5">1</text>
<rect fill="#DEE6F1" height="24" width="24" x="1624.5" y="18.5" />
<rect fill="none" height="24" stroke="#405C86" stroke-width="3" width="24" x="1624.5" y="18.5" />
<text class="label" x="1636.5" y="31.5">2</text>
<rect fill="#DEE6F1" height="24" width="24" x="1600.5" y="18.5" />
<rect fill="none" height="24" stroke="#405C86" stroke-width="3" width="24" x="1600.5" y="18.5" />
<text class="label" x="1612.5" y="31.5">3</text>
<rect fill="#DEE6F1" height="24" width="24" x="1576.5" y="18.5" />
<rect fill="none" height="24" stroke="#405C86" stroke-width="3" width="24" x="1576.5" y="18.5" />
<text class="label" x="1588.5" y="31.5">4</text>
<rect fill="#DEE6F1" height="24" width="24" x="1552.5" y="18.5" />
<rect fill="none" height="24" stroke="#405C86" stroke-width="3" width="24" x="1552.5" y="18.5" />
<text class="label" x="1564.5" y="31.5">5</text>
<rect fill="#DEE6F1" height="24" width="24" x="1528.5" y="18.5" />
<rect fill="none" height="24" stroke="#405C86" stroke-width="3" width="24" x="1528.5" y="18.5" />
<text class="label" x="1540.5" y="31.5">6</text>
<rect fill="#DEE6F1" height="24" width="24" x="1504.5" y="18.5" />
<rect fill="none" height="24" stroke="#405C86" stroke-width="3" width="24" x="1504.5" y="18.5" />
<text class="label" x="1516.5" y="31.5">7</text>
<rect fill="#DEE6F1" height="24" width="24" x="1480.5" y="18.5" />
<rect fill="none" height="24" stroke="#405C86" stroke-width="3" width="24" x="1480.5" y="18.5" />
<text class="label" x="1492.5" y="31.5">8</text>
<rect fill="#DEE6F1" height="24" width="24" x="1456.5" y="18.5" />
<rect fill="none" height="24" stroke="#405C86" stroke-width="3" width="24" x="1456.5" y="18.5" />
<text class="label" x="1468.5" y="31.5">9</text>
<rect fill="#DEE6F1" height="24" width="24" x="1432.5" y="18.5" />
<rect fill="none" height="24" stroke="#405C86" stroke-width="3" width="24" x="1432.5" y="18.5" />
<text class="label" x="1444.5" y="31.5">10</text>
<rect fill="#DEE6F1" height="24" width="24" x="1408.5" y="18.5" />
<rect fill="none" height="24" stroke="#405C86" stroke-width="3" width="24" x="1408.5" y="18.5" />
<text class="label" x="1420.5" y="31.5">11</text>
<rect fill="#DEE6F1" height="24" width="24" x="1384.5" y="18.5" />
<rect fill="none" height="24" stroke="#405C86" stroke-width="3" width="24" x="1384.5" y="18.5" />
<text class="label" x="1396.5" y="31.5">12</text>
<rect fill="#DEE6F1" height="24" width="24" x="1360.5" y="18.5" />
<rect fill="none" height="24" stroke="#405C86" stroke-width="3" width="24" x="1360.5" y="18.5" />
<text class="label" x="1372.5" y="31.5">13</text>
<rect fill="#DEE6F1" height="24" width="24" x="1336.5" y="18.5" />
<rect fill="none" height="24" stroke="#405C86" stroke-width="3" width="24" x="1336.5" y="18.5" />
<text class="label" x="1348.5" y="31.5">14</text>
<rect fill="#DEE6F1" height="24" width="24" x="1312.5" y="18.5" />
<rect fill="none" height="24" stroke="#405C86" stroke-width="3" width="24" x="1312.5" y="18.5" />
<text class="label" x="1324.5" y="31.5">15</text>
<rect fill="#DEE6F1" height="24" width="24" x="1288.5" y="18.5" />
<rect fill="none" height="24" stroke="#405C86" stroke-width="3" width="24" x="1288.5" y="18.5" />
<text class="label" x="1300.5" y="31.5">16</text>
<rect fill="#DEE6F1" height="24" width="24" x="1264.5" y="18.5" />
<rect fill="none" height="24" stroke="#405C86" stroke-width="3" width="24" x="1264.5" y="18.5" />
<text class="label" x="1276.5" y="31.5">17</text>
<rect fill="#DEE6F1" height="24" width="24" x="1240.5" y="18.5" />
<rect fill="none" height="24" stroke="#405C86" stroke-width="3" width="24" x="1240.5" y="18.5" />
<text class="label" x="1252.5" y="31.5">18</text>
<rect fill="#DEE6F1" height="24" width="24" x="1216.5" y="18.5" />
<rect fill="none" height="24" stroke="#405C86" stroke-width="3" width="24" x="1216.5" y="18.5" />
<text class="label" x="1228.5" y="31.5">19</text>
<rect fill="#DEE6F1" height="24" width="24" x="1192.5" y="18.5" />
<rect fill="none" height="24" stroke="#405C86" stroke-width="3" width="24" x="1192.5" y="18.5" />
<text class="label" x="1204.5" y="31.5">20</text>
<rect fill="#DEE6F1" height="24" width="24" x="1168.5" y="18.5" />
<rect fill="none" height="24" stroke="#405C86" stroke-width="3" width="24" x="1168.5" y="18.5" />
<text class="label" x="1180.5" y="31.5">21</text>
<rect fill="#DEE6F1" height="24" width="24" x="1144.5" y="18.5" />
<rect fill="none" height="24" stroke="#405C86" stroke-width="3" width="24" x="1144.5" y="18.5" />
<text class="label" x="1156.5" y="31.5">22</text>
<rect fill="#DEE6F1" height="24" width="24" x="1120.5" y="18.5" />
<rect fill="none" height="24" stroke="#405C86" stroke-width="3" width="24" x="1120.5" y="18.5" />
<text class="label" x="1132.5" y="31.5">23</text>
<rect fill="#DEE6F1" height="24" width="24" x="1096.5" y="18.5" />
<rect fill="none" height="24" stroke="#405C86" stroke-width="3" width="24" x="1096.5" y="18.5" />
<text class="label" x="1108.5" y="31.5">24</text>
<rect fill="#DEE6F1" height="24" width="24" x="1072.5" y="18.5" />
<rect fill="none" height="24" stroke="#405C86" stroke-width="3" width="24" x="1072.5" y="18.5" />
<text class="label" x="1084.5" y="31.5">25</text>
<rect fill="#DEE6F1" height="24" width="24" x="1048.5" y="18.5" />
<rect fill="none" height="24" stroke="#405C86" stroke-width="3" width="24" x="1048.5" y="18.5" />
<text class="label" x="1060.5" y="31.5">26</text>
<rect fill="#DEE6F1" height="24" width="24" x="1024.5" y="18.5" />
<rect fill="none" height="24" stroke="#405C86" stroke-width="3" width="24" x="1024.5" y="18.5" />
<text class="label" x="1036.5" y="31.5">27</text>
<rect fill="#DEE6F1" height="24" width="24" x="1000.5" y="18.5" />
<rect fill="none" height="24" stroke="#405C86" stroke-width="3" width="24" x="1000.5" y="18.5" />
<text class="label" x="1012.5" y="31.5">28</text>
<rect fill="#DEE6F1" height="24" width="24" x="976.5" y="18.5" />
<rect fill="none" height="24" stroke="#405C86" stroke-width="3" width="24" x="976.5" y="18.5" />
<text class="label" x="988.5" y="31.5">29</text>
<rect fill="#DEE6F1" height="24" width="24" x="952.5" y="18.5" />
<rect fill="none" height="24" stroke="#405C86" stroke-width="3" width="24" x="952.5" y="18.5" />
<text class="label" x="964.5" y="31.5">30</text>
<rect fill="#DEE6F1" height="24" width="24" x="928.5" y="18.5" />
<rect fill="none" height="24" stroke="#405C86" stroke-width="3" width="24" x="928.5" y="18.5" />
<text class="label" x="940.5" y="31.5">31</text>
<text class="register-name" x="918.5" y="30.5">Zn1</text>
<text class="intrinsic-name" x="918.5" y="42.5">data[0]</text>
<rect fill="#DEE6F1" height="24" width="24" x="834.5" y="18.5" />
<rect fill="none" height="24" stroke="#405C86" stroke-width="3" width="24" x="834.5" y="18.5" />
<text class="label" x="846.5" y="31.5">32</text>
<rect fill="#DEE6F1" height="24" width="24" x="810.5" y="18.5" />
<rect fill="none" height="24" stroke="#405C86" stroke-width="3" width="24" x="810.5" y="18.5" />
<text class="label" x="822.5" y="31.5">33</text>
<rect fill="#DEE6F1" height="24" width="24" x="786.5" y="18.5" />
<rect fill="none" height="24" stroke="#405C86" stroke-width="3" width="24" x="786.5" y="18.5" />
<text class="label" x="798.5" y="31.5">34</text>
<rect fill="#DEE6F1" height="24" width="24" x="762.5" y="18.5" />
<rect fill="none" height="24" stroke="#405C86" stroke-width="3" width="24" x="762.5" y="18.5" />
<text class="label" x="774.5" y="31.5">35</text>
<rect fill="#DEE6F1" height="24" width="24" x="738.5" y="18.5" />
<rect fill="none" height="24" stroke="#405C86" stroke-width="3" width="24" x="738.5" y="18.5" />
<text class="label" x="750.5" y="31.5">36</text>
<rect fill="#DEE6F1" height="24" width="24" x="714.5" y="18.5" />
<rect fill="none" height="24" stroke="#405C86" stroke-width="3" width="24" x="714.5" y="18.5" />
<text class="label" x="726.5" y="31.5">37</text>
<rect fill="#DEE6F1" height="24" width="24" x="690.5" y="18.5" />
<rect fill="none" height="24" stroke="#405C86" stroke-width="3" width="24" x="690.5" y="18.5" />
<text class="label" x="702.5" y="31.5">38</text>
<rect fill="#DEE6F1" height="24" width="24" x="666.5" y="18.5" />
<rect fill="none" height="24" stroke="#405C86" stroke-width="3" width="24" x="666.5" y="18.5" />
<text class="label" x="678.5" y="31.5">39</text>
<rect fill="#DEE6F1" height="24" width="24" x="642.5" y="18.5" />
<rect fill="none" height="24" stroke="#405C86" stroke-width="3" width="24" x="642.5" y="18.5" />
<text class="label" x="654.5" y="31.5">40</text>
<rect fill="#DEE6F1" height="24" width="24" x="618.5" y="18.5" />
<rect fill="none" height="24" stroke="#405C86" stroke-width="3" width="24" x="618.5" y="18.5" />
<text class="label" x="630.5" y="31.5">41</text>
<rect fill="#DEE6F1" height="24" width="24" x="594.5" y="18.5" />
<rect fill="none" height="24" stroke="#405C86" stroke-width="3" width="24" x="594.5" y="18.5" />
<text class="label" x="606.5" y="31.5">42</text>
<rect fill="#DEE6F1" height="24" width="24" x="570.5" y="18.5" />
<rect fill="none" height="24" stroke="#405C86" stroke-width="3" width="24" x="570.5" y="18.5" />
<text class="label" x="582.5" y="31.5">43</text>
<rect fill="#DEE6F1" height="24" width="24" x="546.5" y="18.5" />
<rect fill="none" height="24" stroke="#405C86" stroke-width="3" width="24" x="546.5" y="18.5" />
<text class="label" x="558.5" y="31.5">44</text>
<rect fill="#DEE6F1" height="24" width="24" x="522.5" y="18.5" />
<rect fill="none" height="24" stroke="#405C86" stroke-width="3" width="24" x="522.5" y="18.5" />
<text class="label" x="534.5" y="31.5">45</text>
<rect fill="#DEE6F1" height="24" width="24" x="498.5" y="18.5" />
<rect fill="none" height="24" stroke="#405C86" stroke-width="3" width="24" x="498.5" y="18.5" />
<text class="label" x="510.5" y="31.5">46</text>
<rect fill="#DEE6F1" height="24" width="24" x="474.5" y="18.5" />
<rect fill="none" height="24" stroke="#405C86" stroke-width="3" width="24" x="474.5" y="18.5" />
<text class="label" x="486.5" y="31.5">47</text>
<rect fill="#DEE6F1" height="24" width="24" x="450.5" y="18.5" />
<rect fill="none" height="24" stroke="#405C86" stroke-width="3" width="24" x="450.5" y="18.5" />
<text class="label" x="462.5" y="31.5">48</text>
<rect fill="#DEE6F1" height="24" width="24" x="426.5" y="18.5" />
<rect fill="none" height="24" stroke="#405C86" stroke-width="3" width="24" x="426.5" y="18.5" />
<text class="label" x="438.5" y="31.5">49</text>
<rect fill="#DEE6F1" height="24" width="24" x="402.5" y="18.5" />
<rect fill="none" height="24" stroke="#405C86" stroke-width="3" width="24" x="402.5" y="18.5" />
<text class="label" x="414.5" y="31.5">50</text>
<rect fill="#DEE6F1" height="24" width="24" x="378.5" y="18.5" />
<rect fill="none" height="24" stroke="#405C86" stroke-width="3" width="24" x="378.5" y="18.5" />
<text class="label" x="390.5" y="31.5">51</text>
<rect fill="#DEE6F1" height="24" width="24" x="354.5" y="18.5" />
<rect fill="none" height="24" stroke="#405C86" stroke-width="3" width="24" x="354.5" y="18.5" />
<text class="label" x="366.5" y="31.5">52</text>
<rect fill="#DEE6F1" height="24" width="24" x="330.5" y="18.5" />
<rect fill="none" height="24" stroke="#405C86" stroke-width="3" width="24" x="330.5" y="18.5" />
<text class="label" x="342.5" y="31.5">53</text>
<rect fill="#DEE6F1" height="24" width="24" x="306.5" y="18.5" />
<rect fill="none" height="24" stroke="#405C86" stroke-width="3" width="24" x="306.5" y="18.5" />
<text class="label" x="318.5" y="31.5">54</text>
<rect fill="#DEE6F1" height="24" width="24" x="282.5" y="18.5" />
<rect fill="none" height="24" stroke="#405C86" stroke-width="3" width="24" x="282.5" y="18.5" />
<text class="label" x="294.5" y="31.5">55</text>
<rect fill="#DEE6F1" height="24" width="24" x="258.5" y="18.5" />
<rect fill="none" height="24" stroke="#405C86" stroke-width="3" width="24" x="258.5" y="18.5" />
<text class="label" x="270.5" y="31.5">56</text>
<rect fill="#DEE6F1" height="24" width="24" x="234.5" y="18.5" />
<rect fill="none" height="24" stroke="#405C86" stroke-width="3" width="24" x="234.5" y="18.5" />
<text class="label" x="246.5" y="31.5">57</text>
<rect fill="#DEE6F1" height="24" width="24" x="210.5" y="18.5" />
<rect fill="none" height="24" stroke="#405C86" stroke-width="3" width="24" x="210.5" y="18.5" />
<text class="label" x="222.5" y="31.5">58</text>
<rect fill="#DEE6F1" height="24" width="24" x="186.5" y="18.5" />
<rect fill="none" height="24" stroke="#405C86" stroke-width="3" width="24" x="186.5" y="18.5" />
<text class="label" x="198.5" y="31.5">59</text>
<rect fill="#DEE6F1" height="24" width="24" x="162.5" y="18.5" />
<rect fill="none" height="24" stroke="#405C86" stroke-width="3" width="24" x="162.5" y="18.5" />
<text class="label" x="174.5" y="31.5">60</text>
<rect fill="#DEE6F1" height="24" width="24" x="138.5" y="18.5" />
<rect fill="none" height="24" stroke="#405C86" stroke-width="3" width="24" x="138.5" y="18.5" />
<text class="label" x="150.5" y="31.5">61</text>
<rect fill="#DEE6F1" height="24" width="24" x="114.5" y="18.5" />
<rect fill="none" height="24" stroke="#405C86" stroke-width="3" width="24" x="114.5" y="18.5" />
<text class="label" x="126.5" y="31.5">62</text>
<rect fill="#DEE6F1" height="24" width="24" x="90.5" y="18.5" />
<rect fill="none" height="24" stroke="#405C86" stroke-width="3" width="24" x="90.5" y="18.5" />
<text class="label" x="102.5" y="31.5">63</text>
<text class="register-name" x="80.5" y="30.5">Zn2</text>
<text class="intrinsic-name" x="80.5" y="42.5">data[1]</text>
<text class="register-number" x="10" y="30.5">(1)</text>
<rect fill="#DEE6F1" height="24" width="24" x="834.5" y="90.5" />
<rect fill="none" height="24" stroke="#405C86" stroke-width="3" width="24" x="834.5" y="90.5" />
<rect fill="#DEE6F1" height="24" width="24" x="810.5" y="90.5" />
<rect fill="none" height="24" stroke="#405C86" stroke-width="3" width="24" x="810.5" y="90.5" />
<rect fill="#DEE6F1" height="24" width="24" x="786.5" y="90.5" />
<rect fill="none" height="24" stroke="#405C86" stroke-width="3" width="24" x="786.5" y="90.5" />
<rect fill="#DEE6F1" height="24" width="24" x="762.5" y="90.5" />
<rect fill="none" height="24" stroke="#405C86" stroke-width="3" width="24" x="762.5" y="90.5" />
<rect fill="#DEE6F1" height="24" width="24" x="738.5" y="90.5" />
<rect fill="none" height="24" stroke="#405C86" stroke-width="3" width="24" x="738.5" y="90.5" />
<rect fill="#DEE6F1" height="24" width="24" x="714.5" y="90.5" />
<rect fill="none" height="24" stroke="#405C86" stroke-width="3" width="24" x="714.5" y="90.5" />
<rect fill="#DEE6F1" height="24" width="24" x="690.5" y="90.5" />
<rect fill="none" height="24" stroke="#405C86" stroke-width="3" width="24" x="690.5" y="90.5" />
<rect fill="#DEE6F1" height="24" width="24" x="666.5" y="90.5" />
<rect fill="none" height="24" stroke="#405C86" stroke-width="3" width="24" x="666.5" y="90.5" />
<rect fill="#DEE6F1" height="24" width="24" x="642.5" y="90.5" />
<rect fill="none" height="24" stroke="#405C86" stroke-width="3" width="24" x="642.5" y="90.5" />
<rect fill="#DEE6F1" height="24" width="24" x="618.5" y="90.5" />
<rect fill="none" height="24" stroke="#405C86" stroke-width="3" width="24" x="618.5" y="90.5" />
<rect fill="#DEE6F1" height="24" width="24" x="594.5" y="90.5" />
<rect fill="none" height="24" stroke="#405C86" stroke-width="3" width="24" x="594.5" y="90.5" />
<rect fill="#DEE6F1" height="24" width="24" x="570.5" y="90.5" />
<rect fill="none" height="24" stroke="#405C86" stroke-width="3" width="24" x="570.5" y="90.5" />
<rect fill="#DEE6F1" height="24" width="24" x="546.5" y="90.5" />
<rect fill="none" height="24" stroke="#405C86" stroke-width="3" width="24" x="546.5" y="90.5" />
<rect fill="#DEE6F1" height="24" width="24" x="522.5" y="90.5" />
<rect fill="none" height="24" stroke="#405C86" stroke-width="3" width="24" x="522.5" y="90.5" />
<rect fill="#DEE6F1" height="24" width="24" x="498.5" y="90.5" />
<rect fill="none" height="24" stroke="#405C86" stroke-width="3" width="24" x="498.5" y="90.5" />
<rect fill="#DEE6F1" height="24" width="24" x="474.5" y="90.5" />
<rect fill="none" height="24" stroke="#405C86" stroke-width="3" width="24" x="474.5" y="90.5" />
<rect fill="#DEE6F1" height="24" width="24" x="450.5" y="90.5" />
<rect fill="none" height="24" stroke="#405C86" stroke-width="3" width="24" x="450.5" y="90.5" />
<rect fill="#DEE6F1" height="24" width="24" x="426.5" y="90.5" />
<rect fill="none" height="24" stroke="#405C86" stroke-width="3" width="24" x="426.5" y="90.5" />
<rect fill="#DEE6F1" height="24" width="24" x="402.5" y="90.5" />
<rect fill="none" height="24" stroke="#405C86" stroke-width="3" width="24" x="402.5" y="90.5" />
<rect fill="#DEE6F1" height="24" width="24" x="378.5" y="90.5" />
<rect fill="none" height="24" stroke="#405C86" stroke-width="3" width="24" x="378.5" y="90.5" />
<rect fill="#DEE6F1" height="24" width="24" x="354.5" y="90.5" />
<rect fill="none" height="24" stroke="#405C86" stroke-width="3" width="24" x="354.5" y="90.5" />
<rect fill="#DEE6F1" height="24" width="24" x="330.5" y="90.5" />
<rect fill="none" height="24" stroke="#405C86" stroke-width="3" width="24" x="330.5" y="90.5" />
<rect fill="#DEE6F1" height="24" width="24" x="306.5" y="90.5" />
<rect fill="none" height="24" stroke="#405C86" stroke-width="3" width="24" x="306.5" y="90.5" />
<rect fill="#DEE6F1" height="24" width="24" x="282.5" y="90.5" />
<rect fill="none" height="24" stroke="#405C86" stroke-width="3" width="24" x="282.5" y="90.5" />
<rect fill="#DEE6F1" height="24" width="24" x="258.5" y="90.5" />
<rect fill="none" height="24" stroke="#405C86" stroke-width="3" width="24" x="258.5" y="90.5" />
<rect fill="#DEE6F1" height="24" width="24" x="234.5" y="90.5" />
<rect fill="none" height="24" stroke="#405C86" stroke-width="3" width="24" x="234.5" y="90.5" />
<rect fill="#DEE6F1" height="24" width="24" x="210.5" y="90.5" />
<rect fill="none" height="24" stroke="#405C86" stroke-width="3" width="24" x="210.5" y="90.5" />
<rect fill="#DEE6F1" height="24" width="24" x="186.5" y="90.5" />
<rect fill="none" height="24" stroke="#405C86" stroke-width="3" width="24" x="186.5" y="90.5" />
<rect fill="#DEE6F1" height="24" width="24" x="162.5" y="90.5" />
<rect fill="none" height="24" stroke="#405C86" stroke-width="3" width="24" x="162.5" y="90.5" />
<rect fill="#DEE6F1" height="24" width="24" x="138.5" y="90.5" />
<rect fill="none" height="24" stroke="#405C86" stroke-width="3" width="24" x="138.5" y="90.5" />
<rect fill="#DEE6F1" height="24" width="24" x="114.5" y="90.5" />
<rect fill="none" height="24" stroke="#405C86" stroke-width="3" width="24" x="114.5" y="90.5" />
<rect fill="#DEE6F1" height="24" width="24" x="90.5" y="90.5" />
<rect fill="none" height="24" stroke="#405C86" stroke-width="3" width="24" x="90.5" y="90.5" />
<text class="register-name" x="80.5" y="102.5">Zm</text>
<text class="intrinsic-name" x="80.5" y="114.5">indices</text>
<text class="register-number" x="10" y="102.5">(2)</text>
<rect fill="#DEE6F1" height="24" width="24" x="834.5" y="162.5" />
<rect fill="none" height="24" stroke="#405C86" stroke-width="3" width="24" x="834.5" y="162.5" />
<rect fill="#DEE6F1" height="24" width="24" x="810.5" y="162.5" />
<rect fill="none" height="24" stroke="#405C86" stroke-width="3" width="24" x="810.5" y="162.5" />
<rect fill="#DEE6F1" height="24" width="24" x="786.5" y="162.5" />
<rect fill="none" height="24" stroke="#405C86" stroke-width="3" width="24" x="786.5" y="162.5" />
<rect fill="#DEE6F1" height="24" width="24" x="762.5" y="162.5" />
<rect fill="none" height="24" stroke="#405C86" stroke-width="3" width="24" x="762.5" y="162.5" />
<rect fill="#DEE6F1" height="24" width="24" x="738.5" y="162.5" />
<rect fill="none" height="24" stroke="#405C86" stroke-width="3" width="24" x="738.5" y="162.5" />
<rect fill="#DEE6F1" height="24" width="24" x="714.5" y="162.5" />
<rect fill="none" height="24" stroke="#405C86" stroke-width="3" width="24" x="714.5" y="162.5" />
<rect fill="#DEE6F1" height="24" width="24" x="690.5" y="162.5" />
<rect fill="none" height="24" stroke="#405C86" stroke-width="3" width="24" x="690.5" y="162.5" />
<rect fill="#DEE6F1" height="24" width="24" x="666.5" y="162.5" />
<rect fill="none" height="24" stroke="#405C86" stroke-width="3" width="24" x="666.5" y="162.5" />
<rect fill="#DEE6F1" height="24" width="24" x="642.5" y="162.5" />
<rect fill="none" height="24" stroke="#405C86" stroke-width="3" width="24" x="642.5" y="162.5" />
<rect fill="#DEE6F1" height="24" width="24" x="618.5" y="162.5" />
<rect fill="none" height="24" stroke="#405C86" stroke-width="3" width="24" x="618.5" y="162.5" />
<rect fill="#DEE6F1" height="24" width="24" x="594.5" y="162.5" />
<rect fill="none" height="24" stroke="#405C86" stroke-width="3" width="24" x="594.5" y="162.5" />
<rect fill="#DEE6F1" height="24" width="24" x="570.5" y="162.5" />
<rect fill="none" height="24" stroke="#405C86" stroke-width="3" width="24" x="570.5" y="162.5" />
<rect fill="#DEE6F1" height="24" width="24" x="546.5" y="162.5" />
<rect fill="none" height="24" stroke="#405C86" stroke-width="3" width="24" x="546.5" y="162.5" />
<rect fill="#DEE6F1" height="24" width="24" x="522.5" y="162.5" />
<rect fill="none" height="24" stroke="#405C86" stroke-width="3" width="24" x="522.5" y="162.5" />
<rect fill="#DEE6F1" height="24" width="24" x="498.5" y="162.5" />
<rect fill="none" height="24" stroke="#405C86" stroke-width="3" width="24" x="498.5" y="162.5" />
<rect fill="#DEE6F1" height="24" width="24" x="474.5" y="162.5" />
<rect fill="none" height="24" stroke="#405C86" stroke-width="3" width="24" x="474.5" y="162.5" />
<rect fill="#DEE6F1" height="24" width="24" x="450.5" y="162.5" />
<rect fill="none" height="24" stroke="#405C86" stroke-width="3" width="24" x="450.5" y="162.5" />
<rect fill="#DEE6F1" height="24" width="24" x="426.5" y="162.5" />
<rect fill="none" height="24" stroke="#405C86" stroke-width="3" width="24" x="426.5" y="162.5" />
<rect fill="#DEE6F1" height="24" width="24" x="402.5" y="162.5" />
<rect fill="none" height="24" stroke="#405C86" stroke-width="3" width="24" x="402.5" y="162.5" />
<rect fill="#DEE6F1" height="24" width="24" x="378.5" y="162.5" />
<rect fill="none" height="24" stroke="#405C86" stroke-width="3" width="24" x="378.5" y="162.5" />
<rect fill="#DEE6F1" height="24" width="24" x="354.5" y="162.5" />
<rect fill="none" height="24" stroke="#405C86" stroke-width="3" width="24" x="354.5" y="162.5" />
<rect fill="#DEE6F1" height="24" width="24" x="330.5" y="162.5" />
<rect fill="none" height="24" stroke="#405C86" stroke-width="3" width="24" x="330.5" y="162.5" />
<rect fill="#DEE6F1" height="24" width="24" x="306.5" y="162.5" />
<rect fill="none" height="24" stroke="#405C86" stroke-width="3" width="24" x="306.5" y="162.5" />
<rect fill="#DEE6F1" height="24" width="24" x="282.5" y="162.5" />
<rect fill="none" height="24" stroke="#405C86" stroke-width="3" width="24" x="282.5" y="162.5" />
<rect fill="#DEE6F1" height="24" width="24" x="258.5" y="162.5" />
<rect fill="none" height="24" stroke="#405C86" stroke-width="3" width="24" x="258.5" y="162.5" />
<rect fill="#DEE6F1" height="24" width="24" x="234.5" y="162.5" />
<rect fill="none" height="24" stroke="#405C86" stroke-width="3" width="24" x="234.5" y="162.5" />
<rect fill="#DEE6F1" height="24" width="24" x="210.5" y="162.5" />
<rect fill="none" height="24" stroke="#405C86" stroke-width="3" width="24" x="210.5" y="162.5" />
<rect fill="#DEE6F1" height="24" width="24" x="186.5" y="162.5" />
<rect fill="none" height="24" stroke="#405C86" stroke-width="3" width="24" x="186.5" y="162.5" />
<rect fill="#DEE6F1" height="24" width="24" x="162.5" y="162.5" />
<rect fill="none" height="24" stroke="#405C86" stroke-width="3" width="24" x="162.5" y="162.5" />
<rect fill="#DEE6F1" height="24" width="24" x="138.5" y="162.5" />
<rect fill="none" height="24" stroke="#405C86" stroke-width="3" width="24" x="138.5" y="162.5" />
<rect fill="#DEE6F1" height="24" width="24" x="114.5" y="162.5" />
<rect fill="none" height="24" stroke="#405C86" stroke-width="3" width="24" x="114.5" y="162.5" />
<rect fill="#DEE6F1" height="24" width="24" x="90.5" y="162.5" />
<rect fill="none" height="24" stroke="#405C86" stroke-width="3" width="24" x="90.5" y="162.5" />
<text class="register-name" x="80.5" y="174.5">Zd</text>
<text class="intrinsic-name" x="80.5" y="186.5">returns</text>
<text class="register-number" x="10" y="174.5">(3)</text>
<line marker-end="url(#arrowhead)" stroke="none" x1="846.5" x2="846.5" y1="115.5" y2="161" />
<line marker-end="url(#arrowhead)" stroke="none" x1="822.5" x2="822.5" y1="115.5" y2="161" />
<line marker-end="url(#arrowhead)" stroke="none" x1="798.5" x2="798.5" y1="115.5" y2="161" />
<line marker-end="url(#arrowhead)" stroke="none" x1="774.5" x2="774.5" y1="115.5" y2="161" />
<line marker-end="url(#arrowhead)" stroke="none" x1="750.5" x2="750.5" y1="115.5" y2="161" />
<line marker-end="url(#arrowhead)" stroke="none" x1="726.5" x2="726.5" y1="115.5" y2="161" />
<line marker-end="url(#arrowhead)" stroke="none" x1="702.5" x2="702.5" y1="115.5" y2="161" />
<line marker-end="url(#arrowhead)" stroke="none" x1="678.5" x2="678.5" y1="115.5" y2="161" />
<line marker-end="url(#arrowhead)" stroke="none" x1="654.5" x2="654.5" y1="115.5" y2="161" />
<line marker-end="url(#arrowhead)" stroke="none" x1="630.5" x2="630.5" y1="115.5" y2="161" />
<line marker-end="url(#arrowhead)" stroke="none" x1="606.5" x2="606.5" y1="115.5" y2="161" />
<line marker-end="url(#arrowhead)" stroke="none" x1="582.5" x2="582.5" y1="115.5" y2="161" />
<line marker-end="url(#arrowhead)" stroke="none" x1="558.5" x2="558.5" y1="115.5" y2="161" />
<line marker-end="url(#arrowhead)" stroke="none" x1="534.5" x2="534.5" y1="115.5" y2="161" />
<line marker-end="url(#arrowhead)" stroke="none" x1="510.5" x2="510.5" y1="115.5" y2="161" />
<line marker-end="url(#arrowhead)" stroke="none" x1="486.5" x2="486.5" y1="115.5" y2="161" />
<line marker-end="url(#arrowhead)" stroke="none" x1="462.5" x2="462.5" y1="115.5" y2="161" />
<line marker-end="url(#arrowhead)" stroke="none" x1="438.5" x2="438.5" y1="115.5" y2="161" />
<line marker-end="url(#arrowhead)" stroke="none" x1="414.5" x2="414.5" y1="115.5" y2="161" />
<line marker-end="url(#arrowhead)" stroke="none" x1="390.5" x2="390.5" y1="115.5" y2="161" />
<line marker-end="url(#arrowhead)" stroke="none" x1="366.5" x2="366.5" y1="115.5" y2="161" />
<line marker-end="url(#arrowhead)" stroke="none" x1="342.5" x2="342.5" y1="115.5" y2="161" />
<line marker-end="url(#arrowhead)" stroke="none" x1="318.5" x2="318.5" y1="115.5" y2="161" />
<line marker-end="url(#arrowhead)" stroke="none" x1="294.5" x2="294.5" y1="115.5" y2="161" />
<line marker-end="url(#arrowhead)" stroke="none" x1="270.5" x2="270.5" y1="115.5" y2="161" />
<line marker-end="url(#arrowhead)" stroke="none" x1="246.5" x2="246.5" y1="115.5" y2="161" />
<line marker-end="url(#arrowhead)" stroke="none" x1="222.5" x2="222.5" y1="115.5" y2="161" />
<line marker-end="url(#arrowhead)" stroke="none" x1="198.5" x2="198.5" y1="115.5" y2="161" />
<line marker-end="url(#arrowhead)" stroke="none" x1="174.5" x2="174.5" y1="115.5" y2="161" />
<line marker-end="url(#arrowhead)" stroke="none" x1="150.5" x2="150.5" y1="115.5" y2="161" />
<line marker-end="url(#arrowhead)" stroke="none" x1="126.5" x2="126.5" y1="115.5" y2="161" />
<line marker-end="url(#arrowhead)" stroke="none" x1="102.5" x2="102.5" y1="115.5" y2="161" />
</svg>