<svg xmlns="http://www.w3.org/2000/svg" viewBox="0 0 870 123">
<style>
.label { font: 14px Helvetica; dominant-baseline: middle; text-anchor: middle; }
.title-left { font: 12px Helvetica; dominant-baseline: middle; }
.title-right { font: 12px Helvetica; dominant-baseline: middle; text-anchor: end; }
.title-intrinsic { font: 12px Helvetica; dominant-baseline: middle; text-anchor: middle; fill: #6778ED; }
.title { font: 12px Helvetica; dominant-baseline: middle; text-anchor: middle; }
.title-unused { font: 12px Helvetica; dominant-baseline: middle; text-anchor: middle; fill: #AAA; }
.register-name { font: 14px Helvetica; dominant-baseline: middle; text-anchor: end; font-style: italic; }
.memory-name { font: 14px Helvetica; dominant-baseline: middle; text-anchor: end; }
.register-number { font: 14px Helvetica; dominant-baseline: middle; text-anchor: start; }
.intrinsic-name { font: 14px Helvetica; dominant-baseline: middle; text-anchor: end; fill: #6778ED; }
.intrinsic-color { fill: #6778ED; }
.small-label { font: 12px Helvetica; dominant-baseline: middle; text-anchor: middle; }
.label-10px { font: 10px Helvetica; dominant-baseline: middle; text-anchor: middle; }
.smaller-label { font: 9px Helvetica; dominant-baseline: middle; text-anchor: middle; }
.label-6px { font: 6px Helvetica; dominant-baseline: middle; text-anchor: middle; }
.label-7px { font: 7px Helvetica; dominant-baseline: middle; text-anchor: middle; }
.unused { fill: #AAA; }
.dim { fill: #888; }
</style>
<defs>
<marker id="arrowhead" markerWidth="10.75" markerHeight="24.5" refX="9.0" refY="6.125" orient="auto">
<polyline points="0.5 0.5, 8.75 6.125, 0.5 11.75" stroke="#567DB6" stroke-width="1" fill="none"/>
</marker>
</defs>
<line stroke="#567DB6" stroke-width="1" x1="822.5" x2="834.5" y1="43.5" y2="89" />
<line stroke="#567DB6" stroke-width="1" x1="774.5" x2="786.5" y1="43.5" y2="89" />
<line stroke="#567DB6" stroke-width="1" x1="726.5" x2="738.5" y1="43.5" y2="89" />
<line stroke="#567DB6" stroke-width="1" x1="678.5" x2="690.5" y1="43.5" y2="89" />
<line stroke="#567DB6" stroke-width="1" x1="630.5" x2="642.5" y1="43.5" y2="89" />
<line stroke="#567DB6" stroke-width="1" x1="582.5" x2="594.5" y1="43.5" y2="89" />
<line stroke="#567DB6" stroke-width="1" x1="534.5" x2="546.5" y1="43.5" y2="89" />
<line stroke="#567DB6" stroke-width="1" x1="486.5" x2="498.5" y1="43.5" y2="89" />
<line stroke="#567DB6" stroke-width="1" x1="438.5" x2="450.5" y1="43.5" y2="89" />
<line stroke="#567DB6" stroke-width="1" x1="390.5" x2="402.5" y1="43.5" y2="89" />
<line stroke="#567DB6" stroke-width="1" x1="342.5" x2="354.5" y1="43.5" y2="89" />
<line stroke="#567DB6" stroke-width="1" x1="294.5" x2="306.5" y1="43.5" y2="89" />
<line stroke="#567DB6" stroke-width="1" x1="246.5" x2="258.5" y1="43.5" y2="89" />
<line stroke="#567DB6" stroke-width="1" x1="198.5" x2="210.5" y1="43.5" y2="89" />
<line stroke="#567DB6" stroke-width="1" x1="150.5" x2="162.5" y1="43.5" y2="89" />
<line stroke="#567DB6" stroke-width="1" x1="102.5" x2="114.5" y1="43.5" y2="89" />
<text class="title-left" x="90.5" y="9.5">upper</text>
<text class="title-right" x="858.5" y="9.5">lower</text>
<rect fill="none" height="24" stroke="#405C86" stroke-dasharray="3 1" stroke-dashoffset="1.5" stroke-width="1" width="24" x="834.5" y="18.5" />
<text class="label unused" x="846.5" y="31.5"></text>
<rect fill="#DEE6F1" height="24" width="24" x="810.5" y="18.5" />
<rect fill="none" height="24" stroke="#405C86" stroke-width="3" width="24" x="810.5" y="18.5" />
<rect fill="none" height="24" stroke="#405C86" stroke-dasharray="3 1" stroke-dashoffset="1.5" stroke-width="1" width="24" x="786.5" y="18.5" />
<text class="label unused" x="798.5" y="31.5"></text>
<rect fill="#DEE6F1" height="24" width="24" x="762.5" y="18.5" />
<rect fill="none" height="24" stroke="#405C86" stroke-width="3" width="24" x="762.5" y="18.5" />
<rect fill="none" height="24" stroke="#405C86" stroke-dasharray="3 1" stroke-dashoffset="1.5" stroke-width="1" width="24" x="738.5" y="18.5" />
<text class="label unused" x="750.5" y="31.5"></text>
<rect fill="#DEE6F1" height="24" width="24" x="714.5" y="18.5" />
<rect fill="none" height="24" stroke="#405C86" stroke-width="3" width="24" x="714.5" y="18.5" />
<rect fill="none" height="24" stroke="#405C86" stroke-dasharray="3 1" stroke-dashoffset="1.5" stroke-width="1" width="24" x="690.5" y="18.5" />
<text class="label unused" x="702.5" y="31.5"></text>
<rect fill="#DEE6F1" height="24" width="24" x="666.5" y="18.5" />
<rect fill="none" height="24" stroke="#405C86" stroke-width="3" width="24" x="666.5" y="18.5" />
<rect fill="none" height="24" stroke="#405C86" stroke-dasharray="3 1" stroke-dashoffset="1.5" stroke-width="1" width="24" x="642.5" y="18.5" />
<text class="label unused" x="654.5" y="31.5"></text>
<rect fill="#DEE6F1" height="24" width="24" x="618.5" y="18.5" />
<rect fill="none" height="24" stroke="#405C86" stroke-width="3" width="24" x="618.5" y="18.5" />
<rect fill="none" height="24" stroke="#405C86" stroke-dasharray="3 1" stroke-dashoffset="1.5" stroke-width="1" width="24" x="594.5" y="18.5" />
<text class="label unused" x="606.5" y="31.5"></text>
<rect fill="#DEE6F1" height="24" width="24" x="570.5" y="18.5" />
<rect fill="none" height="24" stroke="#405C86" stroke-width="3" width="24" x="570.5" y="18.5" />
<rect fill="none" height="24" stroke="#405C86" stroke-dasharray="3 1" stroke-dashoffset="1.5" stroke-width="1" width="24" x="546.5" y="18.5" />
<text class="label unused" x="558.5" y="31.5"></text>
<rect fill="#DEE6F1" height="24" width="24" x="522.5" y="18.5" />
<rect fill="none" height="24" stroke="#405C86" stroke-width="3" width="24" x="522.5" y="18.5" />
<rect fill="none" height="24" stroke="#405C86" stroke-dasharray="3 1" stroke-dashoffset="1.5" stroke-width="1" width="24" x="498.5" y="18.5" />
<text class="label unused" x="510.5" y="31.5"></text>
<rect fill="#DEE6F1" height="24" width="24" x="474.5" y="18.5" />
<rect fill="none" height="24" stroke="#405C86" stroke-width="3" width="24" x="474.5" y="18.5" />
<rect fill="none" height="24" stroke="#405C86" stroke-dasharray="3 1" stroke-dashoffset="1.5" stroke-width="1" width="24" x="450.5" y="18.5" />
<text class="label unused" x="462.5" y="31.5"></text>
<rect fill="#DEE6F1" height="24" width="24" x="426.5" y="18.5" />
<rect fill="none" height="24" stroke="#405C86" stroke-width="3" width="24" x="426.5" y="18.5" />
<rect fill="none" height="24" stroke="#405C86" stroke-dasharray="3 1" stroke-dashoffset="1.5" stroke-width="1" width="24" x="402.5" y="18.5" />
<text class="label unused" x="414.5" y="31.5"></text>
<rect fill="#DEE6F1" height="24" width="24" x="378.5" y="18.5" />
<rect fill="none" height="24" stroke="#405C86" stroke-width="3" width="24" x="378.5" y="18.5" />
<rect fill="none" height="24" stroke="#405C86" stroke-dasharray="3 1" stroke-dashoffset="1.5" stroke-width="1" width="24" x="354.5" y="18.5" />
<text class="label unused" x="366.5" y="31.5"></text>
<rect fill="#DEE6F1" height="24" width="24" x="330.5" y="18.5" />
<rect fill="none" height="24" stroke="#405C86" stroke-width="3" width="24" x="330.5" y="18.5" />
<rect fill="none" height="24" stroke="#405C86" stroke-dasharray="3 1" stroke-dashoffset="1.5" stroke-width="1" width="24" x="306.5" y="18.5" />
<text class="label unused" x="318.5" y="31.5"></text>
<rect fill="#DEE6F1" height="24" width="24" x="282.5" y="18.5" />
<rect fill="none" height="24" stroke="#405C86" stroke-width="3" width="24" x="282.5" y="18.5" />
<rect fill="none" height="24" stroke="#405C86" stroke-dasharray="3 1" stroke-dashoffset="1.5" stroke-width="1" width="24" x="258.5" y="18.5" />
<text class="label unused" x="270.5" y="31.5"></text>
<rect fill="#DEE6F1" height="24" width="24" x="234.5" y="18.5" />
<rect fill="none" height="24" stroke="#405C86" stroke-width="3" width="24" x="234.5" y="18.5" />
<rect fill="none" height="24" stroke="#405C86" stroke-dasharray="3 1" stroke-dashoffset="1.5" stroke-width="1" width="24" x="210.5" y="18.5" />
<text class="label unused" x="222.5" y="31.5"></text>
<rect fill="#DEE6F1" height="24" width="24" x="186.5" y="18.5" />
<rect fill="none" height="24" stroke="#405C86" stroke-width="3" width="24" x="186.5" y="18.5" />
<rect fill="none" height="24" stroke="#405C86" stroke-dasharray="3 1" stroke-dashoffset="1.5" stroke-width="1" width="24" x="162.5" y="18.5" />
<text class="label unused" x="174.5" y="31.5"></text>
<rect fill="#DEE6F1" height="24" width="24" x="138.5" y="18.5" />
<rect fill="none" height="24" stroke="#405C86" stroke-width="3" width="24" x="138.5" y="18.5" />
<rect fill="none" height="24" stroke="#405C86" stroke-dasharray="3 1" stroke-dashoffset="1.5" stroke-width="1" width="24" x="114.5" y="18.5" />
<text class="label unused" x="126.5" y="31.5"></text>
<rect fill="#DEE6F1" height="24" width="24" x="90.5" y="18.5" />
<rect fill="none" height="24" stroke="#405C86" stroke-width="3" width="24" x="90.5" y="18.5" />
<text class="register-name" x="80.5" y="30.5">Zn</text>
<text class="intrinsic-name" x="80.5" y="42.5">op1</text>
<text class="register-number" x="10" y="30.5">(1)</text>
<rect fill="#DEE6F1" height="24" width="22.5" x="823.25" y="90.5" />
<rect fill="none" height="24" stroke="#405C86" stroke-width="3" width="48" x="810.5" y="90.5" />
<rect fill="#DEE6F1" height="24" width="22.5" x="775.25" y="90.5" />
<rect fill="none" height="24" stroke="#405C86" stroke-width="3" width="48" x="762.5" y="90.5" />
<rect fill="#DEE6F1" height="24" width="22.5" x="727.25" y="90.5" />
<rect fill="none" height="24" stroke="#405C86" stroke-width="3" width="48" x="714.5" y="90.5" />
<rect fill="#DEE6F1" height="24" width="22.5" x="679.25" y="90.5" />
<rect fill="none" height="24" stroke="#405C86" stroke-width="3" width="48" x="666.5" y="90.5" />
<rect fill="#DEE6F1" height="24" width="22.5" x="631.25" y="90.5" />
<rect fill="none" height="24" stroke="#405C86" stroke-width="3" width="48" x="618.5" y="90.5" />
<rect fill="#DEE6F1" height="24" width="22.5" x="583.25" y="90.5" />
<rect fill="none" height="24" stroke="#405C86" stroke-width="3" width="48" x="570.5" y="90.5" />
<rect fill="#DEE6F1" height="24" width="22.5" x="535.25" y="90.5" />
<rect fill="none" height="24" stroke="#405C86" stroke-width="3" width="48" x="522.5" y="90.5" />
<rect fill="#DEE6F1" height="24" width="22.5" x="487.25" y="90.5" />
<rect fill="none" height="24" stroke="#405C86" stroke-width="3" width="48" x="474.5" y="90.5" />
<rect fill="#DEE6F1" height="24" width="22.5" x="439.25" y="90.5" />
<rect fill="none" height="24" stroke="#405C86" stroke-width="3" width="48" x="426.5" y="90.5" />
<rect fill="#DEE6F1" height="24" width="22.5" x="391.25" y="90.5" />
<rect fill="none" height="24" stroke="#405C86" stroke-width="3" width="48" x="378.5" y="90.5" />
<rect fill="#DEE6F1" height="24" width="22.5" x="343.25" y="90.5" />
<rect fill="none" height="24" stroke="#405C86" stroke-width="3" width="48" x="330.5" y="90.5" />
<rect fill="#DEE6F1" height="24" width="22.5" x="295.25" y="90.5" />
<rect fill="none" height="24" stroke="#405C86" stroke-width="3" width="48" x="282.5" y="90.5" />
<rect fill="#DEE6F1" height="24" width="22.5" x="247.25" y="90.5" />
<rect fill="none" height="24" stroke="#405C86" stroke-width="3" width="48" x="234.5" y="90.5" />
<rect fill="#DEE6F1" height="24" width="22.5" x="199.25" y="90.5" />
<rect fill="none" height="24" stroke="#405C86" stroke-width="3" width="48" x="186.5" y="90.5" />
<rect fill="#DEE6F1" height="24" width="22.5" x="151.25" y="90.5" />
<rect fill="none" height="24" stroke="#405C86" stroke-width="3" width="48" x="138.5" y="90.5" />
<rect fill="#DEE6F1" height="24" width="22.5" x="103.25" y="90.5" />
<rect fill="none" height="24" stroke="#405C86" stroke-width="3" width="48" x="90.5" y="90.5" />
<text class="register-name" x="80.5" y="102.5">Zd</text>
<text class="intrinsic-name" x="80.5" y="114.5">returns</text>
<text class="register-number" x="10" y="102.5">(2)</text>
<line marker-end="url(#arrowhead)" stroke="none" x1="822.5" x2="834.5" y1="43.5" y2="89" />
<line marker-end="url(#arrowhead)" stroke="none" x1="774.5" x2="786.5" y1="43.5" y2="89" />
<line marker-end="url(#arrowhead)" stroke="none" x1="726.5" x2="738.5" y1="43.5" y2="89" />
<line marker-end="url(#arrowhead)" stroke="none" x1="678.5" x2="690.5" y1="43.5" y2="89" />
<line marker-end="url(#arrowhead)" stroke="none" x1="630.5" x2="642.5" y1="43.5" y2="89" />
<line marker-end="url(#arrowhead)" stroke="none" x1="582.5" x2="594.5" y1="43.5" y2="89" />
<line marker-end="url(#arrowhead)" stroke="none" x1="534.5" x2="546.5" y1="43.5" y2="89" />
<line marker-end="url(#arrowhead)" stroke="none" x1="486.5" x2="498.5" y1="43.5" y2="89" />
<line marker-end="url(#arrowhead)" stroke="none" x1="438.5" x2="450.5" y1="43.5" y2="89" />
<line marker-end="url(#arrowhead)" stroke="none" x1="390.5" x2="402.5" y1="43.5" y2="89" />
<line marker-end="url(#arrowhead)" stroke="none" x1="342.5" x2="354.5" y1="43.5" y2="89" />
<line marker-end="url(#arrowhead)" stroke="none" x1="294.5" x2="306.5" y1="43.5" y2="89" />
<line marker-end="url(#arrowhead)" stroke="none" x1="246.5" x2="258.5" y1="43.5" y2="89" />
<line marker-end="url(#arrowhead)" stroke="none" x1="198.5" x2="210.5" y1="43.5" y2="89" />
<line marker-end="url(#arrowhead)" stroke="none" x1="150.5" x2="162.5" y1="43.5" y2="89" />
<line marker-end="url(#arrowhead)" stroke="none" x1="102.5" x2="114.5" y1="43.5" y2="89" />
</svg>