<svg xmlns="http://www.w3.org/2000/svg" viewBox="0 0 6246 123">
<style>
.label { font: 14px Helvetica; dominant-baseline: middle; text-anchor: middle; }
.title-left { font: 12px Helvetica; dominant-baseline: middle; }
.title-right { font: 12px Helvetica; dominant-baseline: middle; text-anchor: end; }
.title-intrinsic { font: 12px Helvetica; dominant-baseline: middle; text-anchor: middle; fill: #6778ED; }
.title { font: 12px Helvetica; dominant-baseline: middle; text-anchor: middle; }
.title-unused { font: 12px Helvetica; dominant-baseline: middle; text-anchor: middle; fill: #AAA; }
.register-name { font: 14px Helvetica; dominant-baseline: middle; text-anchor: end; font-style: italic; }
.memory-name { font: 14px Helvetica; dominant-baseline: middle; text-anchor: end; }
.register-number { font: 14px Helvetica; dominant-baseline: middle; text-anchor: start; }
.intrinsic-name { font: 14px Helvetica; dominant-baseline: middle; text-anchor: end; fill: #6778ED; }
.intrinsic-color { fill: #6778ED; }
.small-label { font: 12px Helvetica; dominant-baseline: middle; text-anchor: middle; }
.label-10px { font: 10px Helvetica; dominant-baseline: middle; text-anchor: middle; }
.smaller-label { font: 9px Helvetica; dominant-baseline: middle; text-anchor: middle; }
.label-6px { font: 6px Helvetica; dominant-baseline: middle; text-anchor: middle; }
.label-7px { font: 7px Helvetica; dominant-baseline: middle; text-anchor: middle; }
.unused { fill: #AAA; }
.dim { fill: #888; }
</style>
<defs>
<marker id="arrowhead" markerWidth="10.75" markerHeight="24.5" refX="9.0" refY="6.125" orient="auto">
<polyline points="0.5 0.5, 8.75 6.125, 0.5 11.75" stroke="#567DB6" stroke-width="1" fill="none"/>
</marker>
</defs>
<line stroke="#567DB6" stroke-width="1" x1="6221.5" x2="6221.5" y1="43.5" y2="89" />
<line stroke="#567DB6" stroke-width="1" x1="6029.5" x2="6029.5" y1="43.5" y2="89" />
<line stroke="#567DB6" stroke-width="1" x1="5837.5" x2="5837.5" y1="43.5" y2="89" />
<line stroke="#567DB6" stroke-width="1" x1="5645.5" x2="5645.5" y1="43.5" y2="89" />
<line stroke="#567DB6" stroke-width="1" x1="5453.5" x2="5453.5" y1="43.5" y2="89" />
<line stroke="#567DB6" stroke-width="1" x1="5261.5" x2="5261.5" y1="43.5" y2="89" />
<line stroke="#567DB6" stroke-width="1" x1="5069.5" x2="5069.5" y1="43.5" y2="89" />
<line stroke="#567DB6" stroke-width="1" x1="4877.5" x2="4877.5" y1="43.5" y2="89" />
<line stroke="#567DB6" stroke-width="1" x1="4685.5" x2="4685.5" y1="43.5" y2="89" />
<line stroke="#567DB6" stroke-width="1" x1="4493.5" x2="4493.5" y1="43.5" y2="89" />
<line stroke="#567DB6" stroke-width="1" x1="4301.5" x2="4301.5" y1="43.5" y2="89" />
<line stroke="#567DB6" stroke-width="1" x1="4109.5" x2="4109.5" y1="43.5" y2="89" />
<line stroke="#567DB6" stroke-width="1" x1="3917.5" x2="3917.5" y1="43.5" y2="89" />
<line stroke="#567DB6" stroke-width="1" x1="3725.5" x2="3725.5" y1="43.5" y2="89" />
<line stroke="#567DB6" stroke-width="1" x1="3533.5" x2="3533.5" y1="43.5" y2="89" />
<line stroke="#567DB6" stroke-width="1" x1="3341.5" x2="3341.5" y1="43.5" y2="89" />
<line stroke="#567DB6" stroke-width="1" x1="3149.5" x2="3149.5" y1="43.5" y2="89" />
<line stroke="#567DB6" stroke-width="1" x1="2957.5" x2="2957.5" y1="43.5" y2="89" />
<line stroke="#567DB6" stroke-width="1" x1="2765.5" x2="2765.5" y1="43.5" y2="89" />
<line stroke="#567DB6" stroke-width="1" x1="2573.5" x2="2573.5" y1="43.5" y2="89" />
<line stroke="#567DB6" stroke-width="1" x1="2381.5" x2="2381.5" y1="43.5" y2="89" />
<line stroke="#567DB6" stroke-width="1" x1="2189.5" x2="2189.5" y1="43.5" y2="89" />
<line stroke="#567DB6" stroke-width="1" x1="1997.5" x2="1997.5" y1="43.5" y2="89" />
<line stroke="#567DB6" stroke-width="1" x1="1805.5" x2="1805.5" y1="43.5" y2="89" />
<line stroke="#567DB6" stroke-width="1" x1="1613.5" x2="1613.5" y1="43.5" y2="89" />
<line stroke="#567DB6" stroke-width="1" x1="1421.5" x2="1421.5" y1="43.5" y2="89" />
<line stroke="#567DB6" stroke-width="1" x1="1229.5" x2="1229.5" y1="43.5" y2="89" />
<line stroke="#567DB6" stroke-width="1" x1="1037.5" x2="1037.5" y1="43.5" y2="89" />
<line stroke="#567DB6" stroke-width="1" x1="845.5" x2="845.5" y1="43.5" y2="89" />
<line stroke="#567DB6" stroke-width="1" x1="653.5" x2="653.5" y1="43.5" y2="89" />
<line stroke="#567DB6" stroke-width="1" x1="461.5" x2="461.5" y1="43.5" y2="89" />
<line stroke="#567DB6" stroke-width="1" x1="269.5" x2="269.5" y1="43.5" y2="89" />
<text class="title-left" x="90.5" y="9.5">upper</text>
<text class="title-right" x="6234.5" y="9.5">lower</text>
<rect fill="#DEE6F1" height="24" width="25.125" x="6209.375" y="18.5" />
<rect fill="none" height="24" stroke="#405C86" stroke-width="3" width="192" x="6042.5" y="18.5" />
<rect fill="#DEE6F1" height="24" width="25.125" x="6017.375" y="18.5" />
<rect fill="none" height="24" stroke="#405C86" stroke-width="3" width="192" x="5850.5" y="18.5" />
<rect fill="#DEE6F1" height="24" width="25.125" x="5825.375" y="18.5" />
<rect fill="none" height="24" stroke="#405C86" stroke-width="3" width="192" x="5658.5" y="18.5" />
<rect fill="#DEE6F1" height="24" width="25.125" x="5633.375" y="18.5" />
<rect fill="none" height="24" stroke="#405C86" stroke-width="3" width="192" x="5466.5" y="18.5" />
<rect fill="#DEE6F1" height="24" width="25.125" x="5441.375" y="18.5" />
<rect fill="none" height="24" stroke="#405C86" stroke-width="3" width="192" x="5274.5" y="18.5" />
<rect fill="#DEE6F1" height="24" width="25.125" x="5249.375" y="18.5" />
<rect fill="none" height="24" stroke="#405C86" stroke-width="3" width="192" x="5082.5" y="18.5" />
<rect fill="#DEE6F1" height="24" width="25.125" x="5057.375" y="18.5" />
<rect fill="none" height="24" stroke="#405C86" stroke-width="3" width="192" x="4890.5" y="18.5" />
<rect fill="#DEE6F1" height="24" width="25.125" x="4865.375" y="18.5" />
<rect fill="none" height="24" stroke="#405C86" stroke-width="3" width="192" x="4698.5" y="18.5" />
<rect fill="#DEE6F1" height="24" width="25.125" x="4673.375" y="18.5" />
<rect fill="none" height="24" stroke="#405C86" stroke-width="3" width="192" x="4506.5" y="18.5" />
<rect fill="#DEE6F1" height="24" width="25.125" x="4481.375" y="18.5" />
<rect fill="none" height="24" stroke="#405C86" stroke-width="3" width="192" x="4314.5" y="18.5" />
<rect fill="#DEE6F1" height="24" width="25.125" x="4289.375" y="18.5" />
<rect fill="none" height="24" stroke="#405C86" stroke-width="3" width="192" x="4122.5" y="18.5" />
<rect fill="#DEE6F1" height="24" width="25.125" x="4097.375" y="18.5" />
<rect fill="none" height="24" stroke="#405C86" stroke-width="3" width="192" x="3930.5" y="18.5" />
<rect fill="#DEE6F1" height="24" width="25.125" x="3905.375" y="18.5" />
<rect fill="none" height="24" stroke="#405C86" stroke-width="3" width="192" x="3738.5" y="18.5" />
<rect fill="#DEE6F1" height="24" width="25.125" x="3713.375" y="18.5" />
<rect fill="none" height="24" stroke="#405C86" stroke-width="3" width="192" x="3546.5" y="18.5" />
<rect fill="#DEE6F1" height="24" width="25.125" x="3521.375" y="18.5" />
<rect fill="none" height="24" stroke="#405C86" stroke-width="3" width="192" x="3354.5" y="18.5" />
<rect fill="#DEE6F1" height="24" width="25.125" x="3329.375" y="18.5" />
<rect fill="none" height="24" stroke="#405C86" stroke-width="3" width="192" x="3162.5" y="18.5" />
<rect fill="#DEE6F1" height="24" width="25.125" x="3137.375" y="18.5" />
<rect fill="none" height="24" stroke="#405C86" stroke-width="3" width="192" x="2970.5" y="18.5" />
<rect fill="#DEE6F1" height="24" width="25.125" x="2945.375" y="18.5" />
<rect fill="none" height="24" stroke="#405C86" stroke-width="3" width="192" x="2778.5" y="18.5" />
<rect fill="#DEE6F1" height="24" width="25.125" x="2753.375" y="18.5" />
<rect fill="none" height="24" stroke="#405C86" stroke-width="3" width="192" x="2586.5" y="18.5" />
<rect fill="#DEE6F1" height="24" width="25.125" x="2561.375" y="18.5" />
<rect fill="none" height="24" stroke="#405C86" stroke-width="3" width="192" x="2394.5" y="18.5" />
<rect fill="#DEE6F1" height="24" width="25.125" x="2369.375" y="18.5" />
<rect fill="none" height="24" stroke="#405C86" stroke-width="3" width="192" x="2202.5" y="18.5" />
<rect fill="#DEE6F1" height="24" width="25.125" x="2177.375" y="18.5" />
<rect fill="none" height="24" stroke="#405C86" stroke-width="3" width="192" x="2010.5" y="18.5" />
<rect fill="#DEE6F1" height="24" width="25.125" x="1985.375" y="18.5" />
<rect fill="none" height="24" stroke="#405C86" stroke-width="3" width="192" x="1818.5" y="18.5" />
<rect fill="#DEE6F1" height="24" width="25.125" x="1793.375" y="18.5" />
<rect fill="none" height="24" stroke="#405C86" stroke-width="3" width="192" x="1626.5" y="18.5" />
<rect fill="#DEE6F1" height="24" width="25.125" x="1601.375" y="18.5" />
<rect fill="none" height="24" stroke="#405C86" stroke-width="3" width="192" x="1434.5" y="18.5" />
<rect fill="#DEE6F1" height="24" width="25.125" x="1409.375" y="18.5" />
<rect fill="none" height="24" stroke="#405C86" stroke-width="3" width="192" x="1242.5" y="18.5" />
<rect fill="#DEE6F1" height="24" width="25.125" x="1217.375" y="18.5" />
<rect fill="none" height="24" stroke="#405C86" stroke-width="3" width="192" x="1050.5" y="18.5" />
<rect fill="#DEE6F1" height="24" width="25.125" x="1025.375" y="18.5" />
<rect fill="none" height="24" stroke="#405C86" stroke-width="3" width="192" x="858.5" y="18.5" />
<rect fill="#DEE6F1" height="24" width="25.125" x="833.375" y="18.5" />
<rect fill="none" height="24" stroke="#405C86" stroke-width="3" width="192" x="666.5" y="18.5" />
<rect fill="#DEE6F1" height="24" width="25.125" x="641.375" y="18.5" />
<rect fill="none" height="24" stroke="#405C86" stroke-width="3" width="192" x="474.5" y="18.5" />
<rect fill="#DEE6F1" height="24" width="25.125" x="449.375" y="18.5" />
<rect fill="none" height="24" stroke="#405C86" stroke-width="3" width="192" x="282.5" y="18.5" />
<rect fill="#DEE6F1" height="24" width="25.125" x="257.375" y="18.5" />
<rect fill="none" height="24" stroke="#405C86" stroke-width="3" width="192" x="90.5" y="18.5" />
<text class="register-name" x="80.5" y="30.5">Zn</text>
<text class="intrinsic-name" x="80.5" y="42.5">op1</text>
<text class="register-number" x="10" y="30.5">(1)</text>
<rect fill="#DEE6F1" height="24" width="25.125" x="6209.375" y="90.5" />
<text class="label" x="6125.9375" y="103.5">0</text>
<rect fill="none" height="24" stroke="#405C86" stroke-width="3" width="192" x="6042.5" y="90.5" />
<rect fill="#DEE6F1" height="24" width="25.125" x="6017.375" y="90.5" />
<text class="label" x="5933.9375" y="103.5">0</text>
<rect fill="none" height="24" stroke="#405C86" stroke-width="3" width="192" x="5850.5" y="90.5" />
<rect fill="#DEE6F1" height="24" width="25.125" x="5825.375" y="90.5" />
<text class="label" x="5741.9375" y="103.5">0</text>
<rect fill="none" height="24" stroke="#405C86" stroke-width="3" width="192" x="5658.5" y="90.5" />
<rect fill="#DEE6F1" height="24" width="25.125" x="5633.375" y="90.5" />
<text class="label" x="5549.9375" y="103.5">0</text>
<rect fill="none" height="24" stroke="#405C86" stroke-width="3" width="192" x="5466.5" y="90.5" />
<rect fill="#DEE6F1" height="24" width="25.125" x="5441.375" y="90.5" />
<text class="label" x="5357.9375" y="103.5">0</text>
<rect fill="none" height="24" stroke="#405C86" stroke-width="3" width="192" x="5274.5" y="90.5" />
<rect fill="#DEE6F1" height="24" width="25.125" x="5249.375" y="90.5" />
<text class="label" x="5165.9375" y="103.5">0</text>
<rect fill="none" height="24" stroke="#405C86" stroke-width="3" width="192" x="5082.5" y="90.5" />
<rect fill="#DEE6F1" height="24" width="25.125" x="5057.375" y="90.5" />
<text class="label" x="4973.9375" y="103.5">0</text>
<rect fill="none" height="24" stroke="#405C86" stroke-width="3" width="192" x="4890.5" y="90.5" />
<rect fill="#DEE6F1" height="24" width="25.125" x="4865.375" y="90.5" />
<text class="label" x="4781.9375" y="103.5">0</text>
<rect fill="none" height="24" stroke="#405C86" stroke-width="3" width="192" x="4698.5" y="90.5" />
<rect fill="#DEE6F1" height="24" width="25.125" x="4673.375" y="90.5" />
<text class="label" x="4589.9375" y="103.5">0</text>
<rect fill="none" height="24" stroke="#405C86" stroke-width="3" width="192" x="4506.5" y="90.5" />
<rect fill="#DEE6F1" height="24" width="25.125" x="4481.375" y="90.5" />
<text class="label" x="4397.9375" y="103.5">0</text>
<rect fill="none" height="24" stroke="#405C86" stroke-width="3" width="192" x="4314.5" y="90.5" />
<rect fill="#DEE6F1" height="24" width="25.125" x="4289.375" y="90.5" />
<text class="label" x="4205.9375" y="103.5">0</text>
<rect fill="none" height="24" stroke="#405C86" stroke-width="3" width="192" x="4122.5" y="90.5" />
<rect fill="#DEE6F1" height="24" width="25.125" x="4097.375" y="90.5" />
<text class="label" x="4013.9375" y="103.5">0</text>
<rect fill="none" height="24" stroke="#405C86" stroke-width="3" width="192" x="3930.5" y="90.5" />
<rect fill="#DEE6F1" height="24" width="25.125" x="3905.375" y="90.5" />
<text class="label" x="3821.9375" y="103.5">0</text>
<rect fill="none" height="24" stroke="#405C86" stroke-width="3" width="192" x="3738.5" y="90.5" />
<rect fill="#DEE6F1" height="24" width="25.125" x="3713.375" y="90.5" />
<text class="label" x="3629.9375" y="103.5">0</text>
<rect fill="none" height="24" stroke="#405C86" stroke-width="3" width="192" x="3546.5" y="90.5" />
<rect fill="#DEE6F1" height="24" width="25.125" x="3521.375" y="90.5" />
<text class="label" x="3437.9375" y="103.5">0</text>
<rect fill="none" height="24" stroke="#405C86" stroke-width="3" width="192" x="3354.5" y="90.5" />
<rect fill="#DEE6F1" height="24" width="25.125" x="3329.375" y="90.5" />
<text class="label" x="3245.9375" y="103.5">0</text>
<rect fill="none" height="24" stroke="#405C86" stroke-width="3" width="192" x="3162.5" y="90.5" />
<rect fill="#DEE6F1" height="24" width="25.125" x="3137.375" y="90.5" />
<text class="label" x="3053.9375" y="103.5">0</text>
<rect fill="none" height="24" stroke="#405C86" stroke-width="3" width="192" x="2970.5" y="90.5" />
<rect fill="#DEE6F1" height="24" width="25.125" x="2945.375" y="90.5" />
<text class="label" x="2861.9375" y="103.5">0</text>
<rect fill="none" height="24" stroke="#405C86" stroke-width="3" width="192" x="2778.5" y="90.5" />
<rect fill="#DEE6F1" height="24" width="25.125" x="2753.375" y="90.5" />
<text class="label" x="2669.9375" y="103.5">0</text>
<rect fill="none" height="24" stroke="#405C86" stroke-width="3" width="192" x="2586.5" y="90.5" />
<rect fill="#DEE6F1" height="24" width="25.125" x="2561.375" y="90.5" />
<text class="label" x="2477.9375" y="103.5">0</text>
<rect fill="none" height="24" stroke="#405C86" stroke-width="3" width="192" x="2394.5" y="90.5" />
<rect fill="#DEE6F1" height="24" width="25.125" x="2369.375" y="90.5" />
<text class="label" x="2285.9375" y="103.5">0</text>
<rect fill="none" height="24" stroke="#405C86" stroke-width="3" width="192" x="2202.5" y="90.5" />
<rect fill="#DEE6F1" height="24" width="25.125" x="2177.375" y="90.5" />
<text class="label" x="2093.9375" y="103.5">0</text>
<rect fill="none" height="24" stroke="#405C86" stroke-width="3" width="192" x="2010.5" y="90.5" />
<rect fill="#DEE6F1" height="24" width="25.125" x="1985.375" y="90.5" />
<text class="label" x="1901.9375" y="103.5">0</text>
<rect fill="none" height="24" stroke="#405C86" stroke-width="3" width="192" x="1818.5" y="90.5" />
<rect fill="#DEE6F1" height="24" width="25.125" x="1793.375" y="90.5" />
<text class="label" x="1709.9375" y="103.5">0</text>
<rect fill="none" height="24" stroke="#405C86" stroke-width="3" width="192" x="1626.5" y="90.5" />
<rect fill="#DEE6F1" height="24" width="25.125" x="1601.375" y="90.5" />
<text class="label" x="1517.9375" y="103.5">0</text>
<rect fill="none" height="24" stroke="#405C86" stroke-width="3" width="192" x="1434.5" y="90.5" />
<rect fill="#DEE6F1" height="24" width="25.125" x="1409.375" y="90.5" />
<text class="label" x="1325.9375" y="103.5">0</text>
<rect fill="none" height="24" stroke="#405C86" stroke-width="3" width="192" x="1242.5" y="90.5" />
<rect fill="#DEE6F1" height="24" width="25.125" x="1217.375" y="90.5" />
<text class="label" x="1133.9375" y="103.5">0</text>
<rect fill="none" height="24" stroke="#405C86" stroke-width="3" width="192" x="1050.5" y="90.5" />
<rect fill="#DEE6F1" height="24" width="25.125" x="1025.375" y="90.5" />
<text class="label" x="941.9375" y="103.5">0</text>
<rect fill="none" height="24" stroke="#405C86" stroke-width="3" width="192" x="858.5" y="90.5" />
<rect fill="#DEE6F1" height="24" width="25.125" x="833.375" y="90.5" />
<text class="label" x="749.9375" y="103.5">0</text>
<rect fill="none" height="24" stroke="#405C86" stroke-width="3" width="192" x="666.5" y="90.5" />
<rect fill="#DEE6F1" height="24" width="25.125" x="641.375" y="90.5" />
<text class="label" x="557.9375" y="103.5">0</text>
<rect fill="none" height="24" stroke="#405C86" stroke-width="3" width="192" x="474.5" y="90.5" />
<rect fill="#DEE6F1" height="24" width="25.125" x="449.375" y="90.5" />
<text class="label" x="365.9375" y="103.5">0</text>
<rect fill="none" height="24" stroke="#405C86" stroke-width="3" width="192" x="282.5" y="90.5" />
<rect fill="#DEE6F1" height="24" width="25.125" x="257.375" y="90.5" />
<text class="label" x="173.9375" y="103.5">0</text>
<rect fill="none" height="24" stroke="#405C86" stroke-width="3" width="192" x="90.5" y="90.5" />
<text class="register-name" x="80.5" y="102.5">Zd</text>
<text class="intrinsic-name" x="80.5" y="114.5">returns</text>
<text class="register-number" x="10" y="102.5">(2)</text>
<line marker-end="url(#arrowhead)" stroke="none" x1="6221.5" x2="6221.5" y1="43.5" y2="89" />
<line marker-end="url(#arrowhead)" stroke="none" x1="6029.5" x2="6029.5" y1="43.5" y2="89" />
<line marker-end="url(#arrowhead)" stroke="none" x1="5837.5" x2="5837.5" y1="43.5" y2="89" />
<line marker-end="url(#arrowhead)" stroke="none" x1="5645.5" x2="5645.5" y1="43.5" y2="89" />
<line marker-end="url(#arrowhead)" stroke="none" x1="5453.5" x2="5453.5" y1="43.5" y2="89" />
<line marker-end="url(#arrowhead)" stroke="none" x1="5261.5" x2="5261.5" y1="43.5" y2="89" />
<line marker-end="url(#arrowhead)" stroke="none" x1="5069.5" x2="5069.5" y1="43.5" y2="89" />
<line marker-end="url(#arrowhead)" stroke="none" x1="4877.5" x2="4877.5" y1="43.5" y2="89" />
<line marker-end="url(#arrowhead)" stroke="none" x1="4685.5" x2="4685.5" y1="43.5" y2="89" />
<line marker-end="url(#arrowhead)" stroke="none" x1="4493.5" x2="4493.5" y1="43.5" y2="89" />
<line marker-end="url(#arrowhead)" stroke="none" x1="4301.5" x2="4301.5" y1="43.5" y2="89" />
<line marker-end="url(#arrowhead)" stroke="none" x1="4109.5" x2="4109.5" y1="43.5" y2="89" />
<line marker-end="url(#arrowhead)" stroke="none" x1="3917.5" x2="3917.5" y1="43.5" y2="89" />
<line marker-end="url(#arrowhead)" stroke="none" x1="3725.5" x2="3725.5" y1="43.5" y2="89" />
<line marker-end="url(#arrowhead)" stroke="none" x1="3533.5" x2="3533.5" y1="43.5" y2="89" />
<line marker-end="url(#arrowhead)" stroke="none" x1="3341.5" x2="3341.5" y1="43.5" y2="89" />
<line marker-end="url(#arrowhead)" stroke="none" x1="3149.5" x2="3149.5" y1="43.5" y2="89" />
<line marker-end="url(#arrowhead)" stroke="none" x1="2957.5" x2="2957.5" y1="43.5" y2="89" />
<line marker-end="url(#arrowhead)" stroke="none" x1="2765.5" x2="2765.5" y1="43.5" y2="89" />
<line marker-end="url(#arrowhead)" stroke="none" x1="2573.5" x2="2573.5" y1="43.5" y2="89" />
<line marker-end="url(#arrowhead)" stroke="none" x1="2381.5" x2="2381.5" y1="43.5" y2="89" />
<line marker-end="url(#arrowhead)" stroke="none" x1="2189.5" x2="2189.5" y1="43.5" y2="89" />
<line marker-end="url(#arrowhead)" stroke="none" x1="1997.5" x2="1997.5" y1="43.5" y2="89" />
<line marker-end="url(#arrowhead)" stroke="none" x1="1805.5" x2="1805.5" y1="43.5" y2="89" />
<line marker-end="url(#arrowhead)" stroke="none" x1="1613.5" x2="1613.5" y1="43.5" y2="89" />
<line marker-end="url(#arrowhead)" stroke="none" x1="1421.5" x2="1421.5" y1="43.5" y2="89" />
<line marker-end="url(#arrowhead)" stroke="none" x1="1229.5" x2="1229.5" y1="43.5" y2="89" />
<line marker-end="url(#arrowhead)" stroke="none" x1="1037.5" x2="1037.5" y1="43.5" y2="89" />
<line marker-end="url(#arrowhead)" stroke="none" x1="845.5" x2="845.5" y1="43.5" y2="89" />
<line marker-end="url(#arrowhead)" stroke="none" x1="653.5" x2="653.5" y1="43.5" y2="89" />
<line marker-end="url(#arrowhead)" stroke="none" x1="461.5" x2="461.5" y1="43.5" y2="89" />
<line marker-end="url(#arrowhead)" stroke="none" x1="269.5" x2="269.5" y1="43.5" y2="89" />
</svg>