<svg xmlns="http://www.w3.org/2000/svg" viewBox="0 0 6246 123">
<style>
.label { font: 14px Helvetica; dominant-baseline: middle; text-anchor: middle; }
.title-left { font: 12px Helvetica; dominant-baseline: middle; }
.title-right { font: 12px Helvetica; dominant-baseline: middle; text-anchor: end; }
.title-intrinsic { font: 12px Helvetica; dominant-baseline: middle; text-anchor: middle; fill: #6778ED; }
.title { font: 12px Helvetica; dominant-baseline: middle; text-anchor: middle; }
.title-unused { font: 12px Helvetica; dominant-baseline: middle; text-anchor: middle; fill: #AAA; }
.register-name { font: 14px Helvetica; dominant-baseline: middle; text-anchor: end; font-style: italic; }
.memory-name { font: 14px Helvetica; dominant-baseline: middle; text-anchor: end; }
.register-number { font: 14px Helvetica; dominant-baseline: middle; text-anchor: start; }
.intrinsic-name { font: 14px Helvetica; dominant-baseline: middle; text-anchor: end; fill: #6778ED; }
.intrinsic-color { fill: #6778ED; }
.small-label { font: 12px Helvetica; dominant-baseline: middle; text-anchor: middle; }
.label-10px { font: 10px Helvetica; dominant-baseline: middle; text-anchor: middle; }
.smaller-label { font: 9px Helvetica; dominant-baseline: middle; text-anchor: middle; }
.label-6px { font: 6px Helvetica; dominant-baseline: middle; text-anchor: middle; }
.label-7px { font: 7px Helvetica; dominant-baseline: middle; text-anchor: middle; }
.unused { fill: #AAA; }
.dim { fill: #888; }
</style>
<defs>
<marker id="arrowhead" markerWidth="10.75" markerHeight="24.5" refX="9.0" refY="6.125" orient="auto">
<polyline points="0.5 0.5, 8.75 6.125, 0.5 11.75" stroke="#567DB6" stroke-width="1" fill="none"/>
</marker>
</defs>
<line stroke="#567DB6" stroke-width="1" x1="6222.5" x2="6222.5" y1="43.5" y2="89" />
<line stroke="#567DB6" stroke-width="1" x1="6126.5" x2="6126.5" y1="43.5" y2="89" />
<line stroke="#567DB6" stroke-width="1" x1="6030.5" x2="6030.5" y1="43.5" y2="89" />
<line stroke="#567DB6" stroke-width="1" x1="5934.5" x2="5934.5" y1="43.5" y2="89" />
<line stroke="#567DB6" stroke-width="1" x1="5838.5" x2="5838.5" y1="43.5" y2="89" />
<line stroke="#567DB6" stroke-width="1" x1="5742.5" x2="5742.5" y1="43.5" y2="89" />
<line stroke="#567DB6" stroke-width="1" x1="5646.5" x2="5646.5" y1="43.5" y2="89" />
<line stroke="#567DB6" stroke-width="1" x1="5550.5" x2="5550.5" y1="43.5" y2="89" />
<line stroke="#567DB6" stroke-width="1" x1="5454.5" x2="5454.5" y1="43.5" y2="89" />
<line stroke="#567DB6" stroke-width="1" x1="5358.5" x2="5358.5" y1="43.5" y2="89" />
<line stroke="#567DB6" stroke-width="1" x1="5262.5" x2="5262.5" y1="43.5" y2="89" />
<line stroke="#567DB6" stroke-width="1" x1="5166.5" x2="5166.5" y1="43.5" y2="89" />
<line stroke="#567DB6" stroke-width="1" x1="5070.5" x2="5070.5" y1="43.5" y2="89" />
<line stroke="#567DB6" stroke-width="1" x1="4974.5" x2="4974.5" y1="43.5" y2="89" />
<line stroke="#567DB6" stroke-width="1" x1="4878.5" x2="4878.5" y1="43.5" y2="89" />
<line stroke="#567DB6" stroke-width="1" x1="4782.5" x2="4782.5" y1="43.5" y2="89" />
<line stroke="#567DB6" stroke-width="1" x1="4686.5" x2="4686.5" y1="43.5" y2="89" />
<line stroke="#567DB6" stroke-width="1" x1="4590.5" x2="4590.5" y1="43.5" y2="89" />
<line stroke="#567DB6" stroke-width="1" x1="4494.5" x2="4494.5" y1="43.5" y2="89" />
<line stroke="#567DB6" stroke-width="1" x1="4398.5" x2="4398.5" y1="43.5" y2="89" />
<line stroke="#567DB6" stroke-width="1" x1="4302.5" x2="4302.5" y1="43.5" y2="89" />
<line stroke="#567DB6" stroke-width="1" x1="4206.5" x2="4206.5" y1="43.5" y2="89" />
<line stroke="#567DB6" stroke-width="1" x1="4110.5" x2="4110.5" y1="43.5" y2="89" />
<line stroke="#567DB6" stroke-width="1" x1="4014.5" x2="4014.5" y1="43.5" y2="89" />
<line stroke="#567DB6" stroke-width="1" x1="3918.5" x2="3918.5" y1="43.5" y2="89" />
<line stroke="#567DB6" stroke-width="1" x1="3822.5" x2="3822.5" y1="43.5" y2="89" />
<line stroke="#567DB6" stroke-width="1" x1="3726.5" x2="3726.5" y1="43.5" y2="89" />
<line stroke="#567DB6" stroke-width="1" x1="3630.5" x2="3630.5" y1="43.5" y2="89" />
<line stroke="#567DB6" stroke-width="1" x1="3534.5" x2="3534.5" y1="43.5" y2="89" />
<line stroke="#567DB6" stroke-width="1" x1="3438.5" x2="3438.5" y1="43.5" y2="89" />
<line stroke="#567DB6" stroke-width="1" x1="3342.5" x2="3342.5" y1="43.5" y2="89" />
<line stroke="#567DB6" stroke-width="1" x1="3246.5" x2="3246.5" y1="43.5" y2="89" />
<line stroke="#567DB6" stroke-width="1" x1="3150.5" x2="3150.5" y1="43.5" y2="89" />
<line stroke="#567DB6" stroke-width="1" x1="3054.5" x2="3054.5" y1="43.5" y2="89" />
<line stroke="#567DB6" stroke-width="1" x1="2958.5" x2="2958.5" y1="43.5" y2="89" />
<line stroke="#567DB6" stroke-width="1" x1="2862.5" x2="2862.5" y1="43.5" y2="89" />
<line stroke="#567DB6" stroke-width="1" x1="2766.5" x2="2766.5" y1="43.5" y2="89" />
<line stroke="#567DB6" stroke-width="1" x1="2670.5" x2="2670.5" y1="43.5" y2="89" />
<line stroke="#567DB6" stroke-width="1" x1="2574.5" x2="2574.5" y1="43.5" y2="89" />
<line stroke="#567DB6" stroke-width="1" x1="2478.5" x2="2478.5" y1="43.5" y2="89" />
<line stroke="#567DB6" stroke-width="1" x1="2382.5" x2="2382.5" y1="43.5" y2="89" />
<line stroke="#567DB6" stroke-width="1" x1="2286.5" x2="2286.5" y1="43.5" y2="89" />
<line stroke="#567DB6" stroke-width="1" x1="2190.5" x2="2190.5" y1="43.5" y2="89" />
<line stroke="#567DB6" stroke-width="1" x1="2094.5" x2="2094.5" y1="43.5" y2="89" />
<line stroke="#567DB6" stroke-width="1" x1="1998.5" x2="1998.5" y1="43.5" y2="89" />
<line stroke="#567DB6" stroke-width="1" x1="1902.5" x2="1902.5" y1="43.5" y2="89" />
<line stroke="#567DB6" stroke-width="1" x1="1806.5" x2="1806.5" y1="43.5" y2="89" />
<line stroke="#567DB6" stroke-width="1" x1="1710.5" x2="1710.5" y1="43.5" y2="89" />
<line stroke="#567DB6" stroke-width="1" x1="1614.5" x2="1614.5" y1="43.5" y2="89" />
<line stroke="#567DB6" stroke-width="1" x1="1518.5" x2="1518.5" y1="43.5" y2="89" />
<line stroke="#567DB6" stroke-width="1" x1="1422.5" x2="1422.5" y1="43.5" y2="89" />
<line stroke="#567DB6" stroke-width="1" x1="1326.5" x2="1326.5" y1="43.5" y2="89" />
<line stroke="#567DB6" stroke-width="1" x1="1230.5" x2="1230.5" y1="43.5" y2="89" />
<line stroke="#567DB6" stroke-width="1" x1="1134.5" x2="1134.5" y1="43.5" y2="89" />
<line stroke="#567DB6" stroke-width="1" x1="1038.5" x2="1038.5" y1="43.5" y2="89" />
<line stroke="#567DB6" stroke-width="1" x1="942.5" x2="942.5" y1="43.5" y2="89" />
<line stroke="#567DB6" stroke-width="1" x1="846.5" x2="846.5" y1="43.5" y2="89" />
<line stroke="#567DB6" stroke-width="1" x1="750.5" x2="750.5" y1="43.5" y2="89" />
<line stroke="#567DB6" stroke-width="1" x1="654.5" x2="654.5" y1="43.5" y2="89" />
<line stroke="#567DB6" stroke-width="1" x1="558.5" x2="558.5" y1="43.5" y2="89" />
<line stroke="#567DB6" stroke-width="1" x1="462.5" x2="462.5" y1="43.5" y2="89" />
<line stroke="#567DB6" stroke-width="1" x1="366.5" x2="366.5" y1="43.5" y2="89" />
<line stroke="#567DB6" stroke-width="1" x1="270.5" x2="270.5" y1="43.5" y2="89" />
<line stroke="#567DB6" stroke-width="1" x1="174.5" x2="174.5" y1="43.5" y2="89" />
<text class="title-left" x="90.5" y="9.5">upper</text>
<text class="title-right" x="6234.5" y="9.5">lower</text>
<rect fill="#DEE6F1" height="24" width="24.75" x="6209.75" y="18.5" />
<rect fill="none" height="24" stroke="#405C86" stroke-width="3" width="96" x="6138.5" y="18.5" />
<rect fill="#DEE6F1" height="24" width="24.75" x="6113.75" y="18.5" />
<rect fill="none" height="24" stroke="#405C86" stroke-width="3" width="96" x="6042.5" y="18.5" />
<rect fill="#DEE6F1" height="24" width="24.75" x="6017.75" y="18.5" />
<rect fill="none" height="24" stroke="#405C86" stroke-width="3" width="96" x="5946.5" y="18.5" />
<rect fill="#DEE6F1" height="24" width="24.75" x="5921.75" y="18.5" />
<rect fill="none" height="24" stroke="#405C86" stroke-width="3" width="96" x="5850.5" y="18.5" />
<rect fill="#DEE6F1" height="24" width="24.75" x="5825.75" y="18.5" />
<rect fill="none" height="24" stroke="#405C86" stroke-width="3" width="96" x="5754.5" y="18.5" />
<rect fill="#DEE6F1" height="24" width="24.75" x="5729.75" y="18.5" />
<rect fill="none" height="24" stroke="#405C86" stroke-width="3" width="96" x="5658.5" y="18.5" />
<rect fill="#DEE6F1" height="24" width="24.75" x="5633.75" y="18.5" />
<rect fill="none" height="24" stroke="#405C86" stroke-width="3" width="96" x="5562.5" y="18.5" />
<rect fill="#DEE6F1" height="24" width="24.75" x="5537.75" y="18.5" />
<rect fill="none" height="24" stroke="#405C86" stroke-width="3" width="96" x="5466.5" y="18.5" />
<rect fill="#DEE6F1" height="24" width="24.75" x="5441.75" y="18.5" />
<rect fill="none" height="24" stroke="#405C86" stroke-width="3" width="96" x="5370.5" y="18.5" />
<rect fill="#DEE6F1" height="24" width="24.75" x="5345.75" y="18.5" />
<rect fill="none" height="24" stroke="#405C86" stroke-width="3" width="96" x="5274.5" y="18.5" />
<rect fill="#DEE6F1" height="24" width="24.75" x="5249.75" y="18.5" />
<rect fill="none" height="24" stroke="#405C86" stroke-width="3" width="96" x="5178.5" y="18.5" />
<rect fill="#DEE6F1" height="24" width="24.75" x="5153.75" y="18.5" />
<rect fill="none" height="24" stroke="#405C86" stroke-width="3" width="96" x="5082.5" y="18.5" />
<rect fill="#DEE6F1" height="24" width="24.75" x="5057.75" y="18.5" />
<rect fill="none" height="24" stroke="#405C86" stroke-width="3" width="96" x="4986.5" y="18.5" />
<rect fill="#DEE6F1" height="24" width="24.75" x="4961.75" y="18.5" />
<rect fill="none" height="24" stroke="#405C86" stroke-width="3" width="96" x="4890.5" y="18.5" />
<rect fill="#DEE6F1" height="24" width="24.75" x="4865.75" y="18.5" />
<rect fill="none" height="24" stroke="#405C86" stroke-width="3" width="96" x="4794.5" y="18.5" />
<rect fill="#DEE6F1" height="24" width="24.75" x="4769.75" y="18.5" />
<rect fill="none" height="24" stroke="#405C86" stroke-width="3" width="96" x="4698.5" y="18.5" />
<rect fill="#DEE6F1" height="24" width="24.75" x="4673.75" y="18.5" />
<rect fill="none" height="24" stroke="#405C86" stroke-width="3" width="96" x="4602.5" y="18.5" />
<rect fill="#DEE6F1" height="24" width="24.75" x="4577.75" y="18.5" />
<rect fill="none" height="24" stroke="#405C86" stroke-width="3" width="96" x="4506.5" y="18.5" />
<rect fill="#DEE6F1" height="24" width="24.75" x="4481.75" y="18.5" />
<rect fill="none" height="24" stroke="#405C86" stroke-width="3" width="96" x="4410.5" y="18.5" />
<rect fill="#DEE6F1" height="24" width="24.75" x="4385.75" y="18.5" />
<rect fill="none" height="24" stroke="#405C86" stroke-width="3" width="96" x="4314.5" y="18.5" />
<rect fill="#DEE6F1" height="24" width="24.75" x="4289.75" y="18.5" />
<rect fill="none" height="24" stroke="#405C86" stroke-width="3" width="96" x="4218.5" y="18.5" />
<rect fill="#DEE6F1" height="24" width="24.75" x="4193.75" y="18.5" />
<rect fill="none" height="24" stroke="#405C86" stroke-width="3" width="96" x="4122.5" y="18.5" />
<rect fill="#DEE6F1" height="24" width="24.75" x="4097.75" y="18.5" />
<rect fill="none" height="24" stroke="#405C86" stroke-width="3" width="96" x="4026.5" y="18.5" />
<rect fill="#DEE6F1" height="24" width="24.75" x="4001.75" y="18.5" />
<rect fill="none" height="24" stroke="#405C86" stroke-width="3" width="96" x="3930.5" y="18.5" />
<rect fill="#DEE6F1" height="24" width="24.75" x="3905.75" y="18.5" />
<rect fill="none" height="24" stroke="#405C86" stroke-width="3" width="96" x="3834.5" y="18.5" />
<rect fill="#DEE6F1" height="24" width="24.75" x="3809.75" y="18.5" />
<rect fill="none" height="24" stroke="#405C86" stroke-width="3" width="96" x="3738.5" y="18.5" />
<rect fill="#DEE6F1" height="24" width="24.75" x="3713.75" y="18.5" />
<rect fill="none" height="24" stroke="#405C86" stroke-width="3" width="96" x="3642.5" y="18.5" />
<rect fill="#DEE6F1" height="24" width="24.75" x="3617.75" y="18.5" />
<rect fill="none" height="24" stroke="#405C86" stroke-width="3" width="96" x="3546.5" y="18.5" />
<rect fill="#DEE6F1" height="24" width="24.75" x="3521.75" y="18.5" />
<rect fill="none" height="24" stroke="#405C86" stroke-width="3" width="96" x="3450.5" y="18.5" />
<rect fill="#DEE6F1" height="24" width="24.75" x="3425.75" y="18.5" />
<rect fill="none" height="24" stroke="#405C86" stroke-width="3" width="96" x="3354.5" y="18.5" />
<rect fill="#DEE6F1" height="24" width="24.75" x="3329.75" y="18.5" />
<rect fill="none" height="24" stroke="#405C86" stroke-width="3" width="96" x="3258.5" y="18.5" />
<rect fill="#DEE6F1" height="24" width="24.75" x="3233.75" y="18.5" />
<rect fill="none" height="24" stroke="#405C86" stroke-width="3" width="96" x="3162.5" y="18.5" />
<rect fill="#DEE6F1" height="24" width="24.75" x="3137.75" y="18.5" />
<rect fill="none" height="24" stroke="#405C86" stroke-width="3" width="96" x="3066.5" y="18.5" />
<rect fill="#DEE6F1" height="24" width="24.75" x="3041.75" y="18.5" />
<rect fill="none" height="24" stroke="#405C86" stroke-width="3" width="96" x="2970.5" y="18.5" />
<rect fill="#DEE6F1" height="24" width="24.75" x="2945.75" y="18.5" />
<rect fill="none" height="24" stroke="#405C86" stroke-width="3" width="96" x="2874.5" y="18.5" />
<rect fill="#DEE6F1" height="24" width="24.75" x="2849.75" y="18.5" />
<rect fill="none" height="24" stroke="#405C86" stroke-width="3" width="96" x="2778.5" y="18.5" />
<rect fill="#DEE6F1" height="24" width="24.75" x="2753.75" y="18.5" />
<rect fill="none" height="24" stroke="#405C86" stroke-width="3" width="96" x="2682.5" y="18.5" />
<rect fill="#DEE6F1" height="24" width="24.75" x="2657.75" y="18.5" />
<rect fill="none" height="24" stroke="#405C86" stroke-width="3" width="96" x="2586.5" y="18.5" />
<rect fill="#DEE6F1" height="24" width="24.75" x="2561.75" y="18.5" />
<rect fill="none" height="24" stroke="#405C86" stroke-width="3" width="96" x="2490.5" y="18.5" />
<rect fill="#DEE6F1" height="24" width="24.75" x="2465.75" y="18.5" />
<rect fill="none" height="24" stroke="#405C86" stroke-width="3" width="96" x="2394.5" y="18.5" />
<rect fill="#DEE6F1" height="24" width="24.75" x="2369.75" y="18.5" />
<rect fill="none" height="24" stroke="#405C86" stroke-width="3" width="96" x="2298.5" y="18.5" />
<rect fill="#DEE6F1" height="24" width="24.75" x="2273.75" y="18.5" />
<rect fill="none" height="24" stroke="#405C86" stroke-width="3" width="96" x="2202.5" y="18.5" />
<rect fill="#DEE6F1" height="24" width="24.75" x="2177.75" y="18.5" />
<rect fill="none" height="24" stroke="#405C86" stroke-width="3" width="96" x="2106.5" y="18.5" />
<rect fill="#DEE6F1" height="24" width="24.75" x="2081.75" y="18.5" />
<rect fill="none" height="24" stroke="#405C86" stroke-width="3" width="96" x="2010.5" y="18.5" />
<rect fill="#DEE6F1" height="24" width="24.75" x="1985.75" y="18.5" />
<rect fill="none" height="24" stroke="#405C86" stroke-width="3" width="96" x="1914.5" y="18.5" />
<rect fill="#DEE6F1" height="24" width="24.75" x="1889.75" y="18.5" />
<rect fill="none" height="24" stroke="#405C86" stroke-width="3" width="96" x="1818.5" y="18.5" />
<rect fill="#DEE6F1" height="24" width="24.75" x="1793.75" y="18.5" />
<rect fill="none" height="24" stroke="#405C86" stroke-width="3" width="96" x="1722.5" y="18.5" />
<rect fill="#DEE6F1" height="24" width="24.75" x="1697.75" y="18.5" />
<rect fill="none" height="24" stroke="#405C86" stroke-width="3" width="96" x="1626.5" y="18.5" />
<rect fill="#DEE6F1" height="24" width="24.75" x="1601.75" y="18.5" />
<rect fill="none" height="24" stroke="#405C86" stroke-width="3" width="96" x="1530.5" y="18.5" />
<rect fill="#DEE6F1" height="24" width="24.75" x="1505.75" y="18.5" />
<rect fill="none" height="24" stroke="#405C86" stroke-width="3" width="96" x="1434.5" y="18.5" />
<rect fill="#DEE6F1" height="24" width="24.75" x="1409.75" y="18.5" />
<rect fill="none" height="24" stroke="#405C86" stroke-width="3" width="96" x="1338.5" y="18.5" />
<rect fill="#DEE6F1" height="24" width="24.75" x="1313.75" y="18.5" />
<rect fill="none" height="24" stroke="#405C86" stroke-width="3" width="96" x="1242.5" y="18.5" />
<rect fill="#DEE6F1" height="24" width="24.75" x="1217.75" y="18.5" />
<rect fill="none" height="24" stroke="#405C86" stroke-width="3" width="96" x="1146.5" y="18.5" />
<rect fill="#DEE6F1" height="24" width="24.75" x="1121.75" y="18.5" />
<rect fill="none" height="24" stroke="#405C86" stroke-width="3" width="96" x="1050.5" y="18.5" />
<rect fill="#DEE6F1" height="24" width="24.75" x="1025.75" y="18.5" />
<rect fill="none" height="24" stroke="#405C86" stroke-width="3" width="96" x="954.5" y="18.5" />
<rect fill="#DEE6F1" height="24" width="24.75" x="929.75" y="18.5" />
<rect fill="none" height="24" stroke="#405C86" stroke-width="3" width="96" x="858.5" y="18.5" />
<rect fill="#DEE6F1" height="24" width="24.75" x="833.75" y="18.5" />
<rect fill="none" height="24" stroke="#405C86" stroke-width="3" width="96" x="762.5" y="18.5" />
<rect fill="#DEE6F1" height="24" width="24.75" x="737.75" y="18.5" />
<rect fill="none" height="24" stroke="#405C86" stroke-width="3" width="96" x="666.5" y="18.5" />
<rect fill="#DEE6F1" height="24" width="24.75" x="641.75" y="18.5" />
<rect fill="none" height="24" stroke="#405C86" stroke-width="3" width="96" x="570.5" y="18.5" />
<rect fill="#DEE6F1" height="24" width="24.75" x="545.75" y="18.5" />
<rect fill="none" height="24" stroke="#405C86" stroke-width="3" width="96" x="474.5" y="18.5" />
<rect fill="#DEE6F1" height="24" width="24.75" x="449.75" y="18.5" />
<rect fill="none" height="24" stroke="#405C86" stroke-width="3" width="96" x="378.5" y="18.5" />
<rect fill="#DEE6F1" height="24" width="24.75" x="353.75" y="18.5" />
<rect fill="none" height="24" stroke="#405C86" stroke-width="3" width="96" x="282.5" y="18.5" />
<rect fill="#DEE6F1" height="24" width="24.75" x="257.75" y="18.5" />
<rect fill="none" height="24" stroke="#405C86" stroke-width="3" width="96" x="186.5" y="18.5" />
<rect fill="#DEE6F1" height="24" width="24.75" x="161.75" y="18.5" />
<rect fill="none" height="24" stroke="#405C86" stroke-width="3" width="96" x="90.5" y="18.5" />
<text class="register-name" x="80.5" y="30.5">Zn</text>
<text class="intrinsic-name" x="80.5" y="42.5">op1</text>
<text class="register-number" x="10" y="30.5">(1)</text>
<rect fill="#DEE6F1" height="24" width="24.75" x="6209.75" y="90.5" />
<text class="label" x="6174.125" y="103.5">0</text>
<rect fill="none" height="24" stroke="#405C86" stroke-width="3" width="96" x="6138.5" y="90.5" />
<rect fill="#DEE6F1" height="24" width="24.75" x="6113.75" y="90.5" />
<text class="label" x="6078.125" y="103.5">0</text>
<rect fill="none" height="24" stroke="#405C86" stroke-width="3" width="96" x="6042.5" y="90.5" />
<rect fill="#DEE6F1" height="24" width="24.75" x="6017.75" y="90.5" />
<text class="label" x="5982.125" y="103.5">0</text>
<rect fill="none" height="24" stroke="#405C86" stroke-width="3" width="96" x="5946.5" y="90.5" />
<rect fill="#DEE6F1" height="24" width="24.75" x="5921.75" y="90.5" />
<text class="label" x="5886.125" y="103.5">0</text>
<rect fill="none" height="24" stroke="#405C86" stroke-width="3" width="96" x="5850.5" y="90.5" />
<rect fill="#DEE6F1" height="24" width="24.75" x="5825.75" y="90.5" />
<text class="label" x="5790.125" y="103.5">0</text>
<rect fill="none" height="24" stroke="#405C86" stroke-width="3" width="96" x="5754.5" y="90.5" />
<rect fill="#DEE6F1" height="24" width="24.75" x="5729.75" y="90.5" />
<text class="label" x="5694.125" y="103.5">0</text>
<rect fill="none" height="24" stroke="#405C86" stroke-width="3" width="96" x="5658.5" y="90.5" />
<rect fill="#DEE6F1" height="24" width="24.75" x="5633.75" y="90.5" />
<text class="label" x="5598.125" y="103.5">0</text>
<rect fill="none" height="24" stroke="#405C86" stroke-width="3" width="96" x="5562.5" y="90.5" />
<rect fill="#DEE6F1" height="24" width="24.75" x="5537.75" y="90.5" />
<text class="label" x="5502.125" y="103.5">0</text>
<rect fill="none" height="24" stroke="#405C86" stroke-width="3" width="96" x="5466.5" y="90.5" />
<rect fill="#DEE6F1" height="24" width="24.75" x="5441.75" y="90.5" />
<text class="label" x="5406.125" y="103.5">0</text>
<rect fill="none" height="24" stroke="#405C86" stroke-width="3" width="96" x="5370.5" y="90.5" />
<rect fill="#DEE6F1" height="24" width="24.75" x="5345.75" y="90.5" />
<text class="label" x="5310.125" y="103.5">0</text>
<rect fill="none" height="24" stroke="#405C86" stroke-width="3" width="96" x="5274.5" y="90.5" />
<rect fill="#DEE6F1" height="24" width="24.75" x="5249.75" y="90.5" />
<text class="label" x="5214.125" y="103.5">0</text>
<rect fill="none" height="24" stroke="#405C86" stroke-width="3" width="96" x="5178.5" y="90.5" />
<rect fill="#DEE6F1" height="24" width="24.75" x="5153.75" y="90.5" />
<text class="label" x="5118.125" y="103.5">0</text>
<rect fill="none" height="24" stroke="#405C86" stroke-width="3" width="96" x="5082.5" y="90.5" />
<rect fill="#DEE6F1" height="24" width="24.75" x="5057.75" y="90.5" />
<text class="label" x="5022.125" y="103.5">0</text>
<rect fill="none" height="24" stroke="#405C86" stroke-width="3" width="96" x="4986.5" y="90.5" />
<rect fill="#DEE6F1" height="24" width="24.75" x="4961.75" y="90.5" />
<text class="label" x="4926.125" y="103.5">0</text>
<rect fill="none" height="24" stroke="#405C86" stroke-width="3" width="96" x="4890.5" y="90.5" />
<rect fill="#DEE6F1" height="24" width="24.75" x="4865.75" y="90.5" />
<text class="label" x="4830.125" y="103.5">0</text>
<rect fill="none" height="24" stroke="#405C86" stroke-width="3" width="96" x="4794.5" y="90.5" />
<rect fill="#DEE6F1" height="24" width="24.75" x="4769.75" y="90.5" />
<text class="label" x="4734.125" y="103.5">0</text>
<rect fill="none" height="24" stroke="#405C86" stroke-width="3" width="96" x="4698.5" y="90.5" />
<rect fill="#DEE6F1" height="24" width="24.75" x="4673.75" y="90.5" />
<text class="label" x="4638.125" y="103.5">0</text>
<rect fill="none" height="24" stroke="#405C86" stroke-width="3" width="96" x="4602.5" y="90.5" />
<rect fill="#DEE6F1" height="24" width="24.75" x="4577.75" y="90.5" />
<text class="label" x="4542.125" y="103.5">0</text>
<rect fill="none" height="24" stroke="#405C86" stroke-width="3" width="96" x="4506.5" y="90.5" />
<rect fill="#DEE6F1" height="24" width="24.75" x="4481.75" y="90.5" />
<text class="label" x="4446.125" y="103.5">0</text>
<rect fill="none" height="24" stroke="#405C86" stroke-width="3" width="96" x="4410.5" y="90.5" />
<rect fill="#DEE6F1" height="24" width="24.75" x="4385.75" y="90.5" />
<text class="label" x="4350.125" y="103.5">0</text>
<rect fill="none" height="24" stroke="#405C86" stroke-width="3" width="96" x="4314.5" y="90.5" />
<rect fill="#DEE6F1" height="24" width="24.75" x="4289.75" y="90.5" />
<text class="label" x="4254.125" y="103.5">0</text>
<rect fill="none" height="24" stroke="#405C86" stroke-width="3" width="96" x="4218.5" y="90.5" />
<rect fill="#DEE6F1" height="24" width="24.75" x="4193.75" y="90.5" />
<text class="label" x="4158.125" y="103.5">0</text>
<rect fill="none" height="24" stroke="#405C86" stroke-width="3" width="96" x="4122.5" y="90.5" />
<rect fill="#DEE6F1" height="24" width="24.75" x="4097.75" y="90.5" />
<text class="label" x="4062.125" y="103.5">0</text>
<rect fill="none" height="24" stroke="#405C86" stroke-width="3" width="96" x="4026.5" y="90.5" />
<rect fill="#DEE6F1" height="24" width="24.75" x="4001.75" y="90.5" />
<text class="label" x="3966.125" y="103.5">0</text>
<rect fill="none" height="24" stroke="#405C86" stroke-width="3" width="96" x="3930.5" y="90.5" />
<rect fill="#DEE6F1" height="24" width="24.75" x="3905.75" y="90.5" />
<text class="label" x="3870.125" y="103.5">0</text>
<rect fill="none" height="24" stroke="#405C86" stroke-width="3" width="96" x="3834.5" y="90.5" />
<rect fill="#DEE6F1" height="24" width="24.75" x="3809.75" y="90.5" />
<text class="label" x="3774.125" y="103.5">0</text>
<rect fill="none" height="24" stroke="#405C86" stroke-width="3" width="96" x="3738.5" y="90.5" />
<rect fill="#DEE6F1" height="24" width="24.75" x="3713.75" y="90.5" />
<text class="label" x="3678.125" y="103.5">0</text>
<rect fill="none" height="24" stroke="#405C86" stroke-width="3" width="96" x="3642.5" y="90.5" />
<rect fill="#DEE6F1" height="24" width="24.75" x="3617.75" y="90.5" />
<text class="label" x="3582.125" y="103.5">0</text>
<rect fill="none" height="24" stroke="#405C86" stroke-width="3" width="96" x="3546.5" y="90.5" />
<rect fill="#DEE6F1" height="24" width="24.75" x="3521.75" y="90.5" />
<text class="label" x="3486.125" y="103.5">0</text>
<rect fill="none" height="24" stroke="#405C86" stroke-width="3" width="96" x="3450.5" y="90.5" />
<rect fill="#DEE6F1" height="24" width="24.75" x="3425.75" y="90.5" />
<text class="label" x="3390.125" y="103.5">0</text>
<rect fill="none" height="24" stroke="#405C86" stroke-width="3" width="96" x="3354.5" y="90.5" />
<rect fill="#DEE6F1" height="24" width="24.75" x="3329.75" y="90.5" />
<text class="label" x="3294.125" y="103.5">0</text>
<rect fill="none" height="24" stroke="#405C86" stroke-width="3" width="96" x="3258.5" y="90.5" />
<rect fill="#DEE6F1" height="24" width="24.75" x="3233.75" y="90.5" />
<text class="label" x="3198.125" y="103.5">0</text>
<rect fill="none" height="24" stroke="#405C86" stroke-width="3" width="96" x="3162.5" y="90.5" />
<rect fill="#DEE6F1" height="24" width="24.75" x="3137.75" y="90.5" />
<text class="label" x="3102.125" y="103.5">0</text>
<rect fill="none" height="24" stroke="#405C86" stroke-width="3" width="96" x="3066.5" y="90.5" />
<rect fill="#DEE6F1" height="24" width="24.75" x="3041.75" y="90.5" />
<text class="label" x="3006.125" y="103.5">0</text>
<rect fill="none" height="24" stroke="#405C86" stroke-width="3" width="96" x="2970.5" y="90.5" />
<rect fill="#DEE6F1" height="24" width="24.75" x="2945.75" y="90.5" />
<text class="label" x="2910.125" y="103.5">0</text>
<rect fill="none" height="24" stroke="#405C86" stroke-width="3" width="96" x="2874.5" y="90.5" />
<rect fill="#DEE6F1" height="24" width="24.75" x="2849.75" y="90.5" />
<text class="label" x="2814.125" y="103.5">0</text>
<rect fill="none" height="24" stroke="#405C86" stroke-width="3" width="96" x="2778.5" y="90.5" />
<rect fill="#DEE6F1" height="24" width="24.75" x="2753.75" y="90.5" />
<text class="label" x="2718.125" y="103.5">0</text>
<rect fill="none" height="24" stroke="#405C86" stroke-width="3" width="96" x="2682.5" y="90.5" />
<rect fill="#DEE6F1" height="24" width="24.75" x="2657.75" y="90.5" />
<text class="label" x="2622.125" y="103.5">0</text>
<rect fill="none" height="24" stroke="#405C86" stroke-width="3" width="96" x="2586.5" y="90.5" />
<rect fill="#DEE6F1" height="24" width="24.75" x="2561.75" y="90.5" />
<text class="label" x="2526.125" y="103.5">0</text>
<rect fill="none" height="24" stroke="#405C86" stroke-width="3" width="96" x="2490.5" y="90.5" />
<rect fill="#DEE6F1" height="24" width="24.75" x="2465.75" y="90.5" />
<text class="label" x="2430.125" y="103.5">0</text>
<rect fill="none" height="24" stroke="#405C86" stroke-width="3" width="96" x="2394.5" y="90.5" />
<rect fill="#DEE6F1" height="24" width="24.75" x="2369.75" y="90.5" />
<text class="label" x="2334.125" y="103.5">0</text>
<rect fill="none" height="24" stroke="#405C86" stroke-width="3" width="96" x="2298.5" y="90.5" />
<rect fill="#DEE6F1" height="24" width="24.75" x="2273.75" y="90.5" />
<text class="label" x="2238.125" y="103.5">0</text>
<rect fill="none" height="24" stroke="#405C86" stroke-width="3" width="96" x="2202.5" y="90.5" />
<rect fill="#DEE6F1" height="24" width="24.75" x="2177.75" y="90.5" />
<text class="label" x="2142.125" y="103.5">0</text>
<rect fill="none" height="24" stroke="#405C86" stroke-width="3" width="96" x="2106.5" y="90.5" />
<rect fill="#DEE6F1" height="24" width="24.75" x="2081.75" y="90.5" />
<text class="label" x="2046.125" y="103.5">0</text>
<rect fill="none" height="24" stroke="#405C86" stroke-width="3" width="96" x="2010.5" y="90.5" />
<rect fill="#DEE6F1" height="24" width="24.75" x="1985.75" y="90.5" />
<text class="label" x="1950.125" y="103.5">0</text>
<rect fill="none" height="24" stroke="#405C86" stroke-width="3" width="96" x="1914.5" y="90.5" />
<rect fill="#DEE6F1" height="24" width="24.75" x="1889.75" y="90.5" />
<text class="label" x="1854.125" y="103.5">0</text>
<rect fill="none" height="24" stroke="#405C86" stroke-width="3" width="96" x="1818.5" y="90.5" />
<rect fill="#DEE6F1" height="24" width="24.75" x="1793.75" y="90.5" />
<text class="label" x="1758.125" y="103.5">0</text>
<rect fill="none" height="24" stroke="#405C86" stroke-width="3" width="96" x="1722.5" y="90.5" />
<rect fill="#DEE6F1" height="24" width="24.75" x="1697.75" y="90.5" />
<text class="label" x="1662.125" y="103.5">0</text>
<rect fill="none" height="24" stroke="#405C86" stroke-width="3" width="96" x="1626.5" y="90.5" />
<rect fill="#DEE6F1" height="24" width="24.75" x="1601.75" y="90.5" />
<text class="label" x="1566.125" y="103.5">0</text>
<rect fill="none" height="24" stroke="#405C86" stroke-width="3" width="96" x="1530.5" y="90.5" />
<rect fill="#DEE6F1" height="24" width="24.75" x="1505.75" y="90.5" />
<text class="label" x="1470.125" y="103.5">0</text>
<rect fill="none" height="24" stroke="#405C86" stroke-width="3" width="96" x="1434.5" y="90.5" />
<rect fill="#DEE6F1" height="24" width="24.75" x="1409.75" y="90.5" />
<text class="label" x="1374.125" y="103.5">0</text>
<rect fill="none" height="24" stroke="#405C86" stroke-width="3" width="96" x="1338.5" y="90.5" />
<rect fill="#DEE6F1" height="24" width="24.75" x="1313.75" y="90.5" />
<text class="label" x="1278.125" y="103.5">0</text>
<rect fill="none" height="24" stroke="#405C86" stroke-width="3" width="96" x="1242.5" y="90.5" />
<rect fill="#DEE6F1" height="24" width="24.75" x="1217.75" y="90.5" />
<text class="label" x="1182.125" y="103.5">0</text>
<rect fill="none" height="24" stroke="#405C86" stroke-width="3" width="96" x="1146.5" y="90.5" />
<rect fill="#DEE6F1" height="24" width="24.75" x="1121.75" y="90.5" />
<text class="label" x="1086.125" y="103.5">0</text>
<rect fill="none" height="24" stroke="#405C86" stroke-width="3" width="96" x="1050.5" y="90.5" />
<rect fill="#DEE6F1" height="24" width="24.75" x="1025.75" y="90.5" />
<text class="label" x="990.125" y="103.5">0</text>
<rect fill="none" height="24" stroke="#405C86" stroke-width="3" width="96" x="954.5" y="90.5" />
<rect fill="#DEE6F1" height="24" width="24.75" x="929.75" y="90.5" />
<text class="label" x="894.125" y="103.5">0</text>
<rect fill="none" height="24" stroke="#405C86" stroke-width="3" width="96" x="858.5" y="90.5" />
<rect fill="#DEE6F1" height="24" width="24.75" x="833.75" y="90.5" />
<text class="label" x="798.125" y="103.5">0</text>
<rect fill="none" height="24" stroke="#405C86" stroke-width="3" width="96" x="762.5" y="90.5" />
<rect fill="#DEE6F1" height="24" width="24.75" x="737.75" y="90.5" />
<text class="label" x="702.125" y="103.5">0</text>
<rect fill="none" height="24" stroke="#405C86" stroke-width="3" width="96" x="666.5" y="90.5" />
<rect fill="#DEE6F1" height="24" width="24.75" x="641.75" y="90.5" />
<text class="label" x="606.125" y="103.5">0</text>
<rect fill="none" height="24" stroke="#405C86" stroke-width="3" width="96" x="570.5" y="90.5" />
<rect fill="#DEE6F1" height="24" width="24.75" x="545.75" y="90.5" />
<text class="label" x="510.125" y="103.5">0</text>
<rect fill="none" height="24" stroke="#405C86" stroke-width="3" width="96" x="474.5" y="90.5" />
<rect fill="#DEE6F1" height="24" width="24.75" x="449.75" y="90.5" />
<text class="label" x="414.125" y="103.5">0</text>
<rect fill="none" height="24" stroke="#405C86" stroke-width="3" width="96" x="378.5" y="90.5" />
<rect fill="#DEE6F1" height="24" width="24.75" x="353.75" y="90.5" />
<text class="label" x="318.125" y="103.5">0</text>
<rect fill="none" height="24" stroke="#405C86" stroke-width="3" width="96" x="282.5" y="90.5" />
<rect fill="#DEE6F1" height="24" width="24.75" x="257.75" y="90.5" />
<text class="label" x="222.125" y="103.5">0</text>
<rect fill="none" height="24" stroke="#405C86" stroke-width="3" width="96" x="186.5" y="90.5" />
<rect fill="#DEE6F1" height="24" width="24.75" x="161.75" y="90.5" />
<text class="label" x="126.125" y="103.5">0</text>
<rect fill="none" height="24" stroke="#405C86" stroke-width="3" width="96" x="90.5" y="90.5" />
<text class="register-name" x="80.5" y="102.5">Zd</text>
<text class="intrinsic-name" x="80.5" y="114.5">returns</text>
<text class="register-number" x="10" y="102.5">(2)</text>
<line marker-end="url(#arrowhead)" stroke="none" x1="6222.5" x2="6222.5" y1="43.5" y2="89" />
<line marker-end="url(#arrowhead)" stroke="none" x1="6126.5" x2="6126.5" y1="43.5" y2="89" />
<line marker-end="url(#arrowhead)" stroke="none" x1="6030.5" x2="6030.5" y1="43.5" y2="89" />
<line marker-end="url(#arrowhead)" stroke="none" x1="5934.5" x2="5934.5" y1="43.5" y2="89" />
<line marker-end="url(#arrowhead)" stroke="none" x1="5838.5" x2="5838.5" y1="43.5" y2="89" />
<line marker-end="url(#arrowhead)" stroke="none" x1="5742.5" x2="5742.5" y1="43.5" y2="89" />
<line marker-end="url(#arrowhead)" stroke="none" x1="5646.5" x2="5646.5" y1="43.5" y2="89" />
<line marker-end="url(#arrowhead)" stroke="none" x1="5550.5" x2="5550.5" y1="43.5" y2="89" />
<line marker-end="url(#arrowhead)" stroke="none" x1="5454.5" x2="5454.5" y1="43.5" y2="89" />
<line marker-end="url(#arrowhead)" stroke="none" x1="5358.5" x2="5358.5" y1="43.5" y2="89" />
<line marker-end="url(#arrowhead)" stroke="none" x1="5262.5" x2="5262.5" y1="43.5" y2="89" />
<line marker-end="url(#arrowhead)" stroke="none" x1="5166.5" x2="5166.5" y1="43.5" y2="89" />
<line marker-end="url(#arrowhead)" stroke="none" x1="5070.5" x2="5070.5" y1="43.5" y2="89" />
<line marker-end="url(#arrowhead)" stroke="none" x1="4974.5" x2="4974.5" y1="43.5" y2="89" />
<line marker-end="url(#arrowhead)" stroke="none" x1="4878.5" x2="4878.5" y1="43.5" y2="89" />
<line marker-end="url(#arrowhead)" stroke="none" x1="4782.5" x2="4782.5" y1="43.5" y2="89" />
<line marker-end="url(#arrowhead)" stroke="none" x1="4686.5" x2="4686.5" y1="43.5" y2="89" />
<line marker-end="url(#arrowhead)" stroke="none" x1="4590.5" x2="4590.5" y1="43.5" y2="89" />
<line marker-end="url(#arrowhead)" stroke="none" x1="4494.5" x2="4494.5" y1="43.5" y2="89" />
<line marker-end="url(#arrowhead)" stroke="none" x1="4398.5" x2="4398.5" y1="43.5" y2="89" />
<line marker-end="url(#arrowhead)" stroke="none" x1="4302.5" x2="4302.5" y1="43.5" y2="89" />
<line marker-end="url(#arrowhead)" stroke="none" x1="4206.5" x2="4206.5" y1="43.5" y2="89" />
<line marker-end="url(#arrowhead)" stroke="none" x1="4110.5" x2="4110.5" y1="43.5" y2="89" />
<line marker-end="url(#arrowhead)" stroke="none" x1="4014.5" x2="4014.5" y1="43.5" y2="89" />
<line marker-end="url(#arrowhead)" stroke="none" x1="3918.5" x2="3918.5" y1="43.5" y2="89" />
<line marker-end="url(#arrowhead)" stroke="none" x1="3822.5" x2="3822.5" y1="43.5" y2="89" />
<line marker-end="url(#arrowhead)" stroke="none" x1="3726.5" x2="3726.5" y1="43.5" y2="89" />
<line marker-end="url(#arrowhead)" stroke="none" x1="3630.5" x2="3630.5" y1="43.5" y2="89" />
<line marker-end="url(#arrowhead)" stroke="none" x1="3534.5" x2="3534.5" y1="43.5" y2="89" />
<line marker-end="url(#arrowhead)" stroke="none" x1="3438.5" x2="3438.5" y1="43.5" y2="89" />
<line marker-end="url(#arrowhead)" stroke="none" x1="3342.5" x2="3342.5" y1="43.5" y2="89" />
<line marker-end="url(#arrowhead)" stroke="none" x1="3246.5" x2="3246.5" y1="43.5" y2="89" />
<line marker-end="url(#arrowhead)" stroke="none" x1="3150.5" x2="3150.5" y1="43.5" y2="89" />
<line marker-end="url(#arrowhead)" stroke="none" x1="3054.5" x2="3054.5" y1="43.5" y2="89" />
<line marker-end="url(#arrowhead)" stroke="none" x1="2958.5" x2="2958.5" y1="43.5" y2="89" />
<line marker-end="url(#arrowhead)" stroke="none" x1="2862.5" x2="2862.5" y1="43.5" y2="89" />
<line marker-end="url(#arrowhead)" stroke="none" x1="2766.5" x2="2766.5" y1="43.5" y2="89" />
<line marker-end="url(#arrowhead)" stroke="none" x1="2670.5" x2="2670.5" y1="43.5" y2="89" />
<line marker-end="url(#arrowhead)" stroke="none" x1="2574.5" x2="2574.5" y1="43.5" y2="89" />
<line marker-end="url(#arrowhead)" stroke="none" x1="2478.5" x2="2478.5" y1="43.5" y2="89" />
<line marker-end="url(#arrowhead)" stroke="none" x1="2382.5" x2="2382.5" y1="43.5" y2="89" />
<line marker-end="url(#arrowhead)" stroke="none" x1="2286.5" x2="2286.5" y1="43.5" y2="89" />
<line marker-end="url(#arrowhead)" stroke="none" x1="2190.5" x2="2190.5" y1="43.5" y2="89" />
<line marker-end="url(#arrowhead)" stroke="none" x1="2094.5" x2="2094.5" y1="43.5" y2="89" />
<line marker-end="url(#arrowhead)" stroke="none" x1="1998.5" x2="1998.5" y1="43.5" y2="89" />
<line marker-end="url(#arrowhead)" stroke="none" x1="1902.5" x2="1902.5" y1="43.5" y2="89" />
<line marker-end="url(#arrowhead)" stroke="none" x1="1806.5" x2="1806.5" y1="43.5" y2="89" />
<line marker-end="url(#arrowhead)" stroke="none" x1="1710.5" x2="1710.5" y1="43.5" y2="89" />
<line marker-end="url(#arrowhead)" stroke="none" x1="1614.5" x2="1614.5" y1="43.5" y2="89" />
<line marker-end="url(#arrowhead)" stroke="none" x1="1518.5" x2="1518.5" y1="43.5" y2="89" />
<line marker-end="url(#arrowhead)" stroke="none" x1="1422.5" x2="1422.5" y1="43.5" y2="89" />
<line marker-end="url(#arrowhead)" stroke="none" x1="1326.5" x2="1326.5" y1="43.5" y2="89" />
<line marker-end="url(#arrowhead)" stroke="none" x1="1230.5" x2="1230.5" y1="43.5" y2="89" />
<line marker-end="url(#arrowhead)" stroke="none" x1="1134.5" x2="1134.5" y1="43.5" y2="89" />
<line marker-end="url(#arrowhead)" stroke="none" x1="1038.5" x2="1038.5" y1="43.5" y2="89" />
<line marker-end="url(#arrowhead)" stroke="none" x1="942.5" x2="942.5" y1="43.5" y2="89" />
<line marker-end="url(#arrowhead)" stroke="none" x1="846.5" x2="846.5" y1="43.5" y2="89" />
<line marker-end="url(#arrowhead)" stroke="none" x1="750.5" x2="750.5" y1="43.5" y2="89" />
<line marker-end="url(#arrowhead)" stroke="none" x1="654.5" x2="654.5" y1="43.5" y2="89" />
<line marker-end="url(#arrowhead)" stroke="none" x1="558.5" x2="558.5" y1="43.5" y2="89" />
<line marker-end="url(#arrowhead)" stroke="none" x1="462.5" x2="462.5" y1="43.5" y2="89" />
<line marker-end="url(#arrowhead)" stroke="none" x1="366.5" x2="366.5" y1="43.5" y2="89" />
<line marker-end="url(#arrowhead)" stroke="none" x1="270.5" x2="270.5" y1="43.5" y2="89" />
<line marker-end="url(#arrowhead)" stroke="none" x1="174.5" x2="174.5" y1="43.5" y2="89" />
</svg>