<svg xmlns="http://www.w3.org/2000/svg" viewBox="0 0 868 315">
<style>
.label { font: 14px Helvetica; dominant-baseline: middle; text-anchor: middle; }
.title-left { font: 12px Helvetica; dominant-baseline: middle; }
.title-right { font: 12px Helvetica; dominant-baseline: middle; text-anchor: end; }
.title-intrinsic { font: 12px Helvetica; dominant-baseline: middle; text-anchor: middle; fill: #6778ED; }
.title { font: 12px Helvetica; dominant-baseline: middle; text-anchor: middle; }
.title-unused { font: 12px Helvetica; dominant-baseline: middle; text-anchor: middle; fill: #AAA; }
.register-name { font: 14px Helvetica; dominant-baseline: middle; text-anchor: end; font-style: italic; }
.memory-name { font: 14px Helvetica; dominant-baseline: middle; text-anchor: end; }
.register-number { font: 14px Helvetica; dominant-baseline: middle; text-anchor: start; }
.intrinsic-name { font: 14px Helvetica; dominant-baseline: middle; text-anchor: end; fill: #6778ED; }
.intrinsic-color { fill: #6778ED; }
.small-label { font: 12px Helvetica; dominant-baseline: middle; text-anchor: middle; }
.label-10px { font: 10px Helvetica; dominant-baseline: middle; text-anchor: middle; }
.smaller-label { font: 9px Helvetica; dominant-baseline: middle; text-anchor: middle; }
.label-6px { font: 6px Helvetica; dominant-baseline: middle; text-anchor: middle; }
.label-7px { font: 7px Helvetica; dominant-baseline: middle; text-anchor: middle; }
.unused { fill: #AAA; }
.dim { fill: #888; }
</style>
<defs>
<marker id="arrowhead" markerWidth="9.5" markerHeight="21.0" refX="7.75" refY="5.25" orient="auto">
<polyline points="0.5 0.5, 7.5 5.25, 0.5 10.0" stroke="#567DB6" stroke-width="1" fill="none"/>
</marker>
</defs>
<polyline fill="none" marker-end="url(#arrowhead)" points="846.5 163.5,825.0 163.5" stroke="#567DB6" stroke-width="1" />
<polyline fill="none" marker-end="url(#arrowhead)" points="822.5 163.5,801.0 163.5" stroke="#567DB6" stroke-width="1" />
<polyline fill="none" marker-end="url(#arrowhead)" points="798.5 163.5,777.0 163.5" stroke="#567DB6" stroke-width="1" />
<polyline fill="none" marker-end="url(#arrowhead)" points="774.5 163.5,753.0 163.5" stroke="#567DB6" stroke-width="1" />
<polyline fill="none" marker-end="url(#arrowhead)" points="750.5 163.5,729.0 163.5" stroke="#567DB6" stroke-width="1" />
<polyline fill="none" marker-end="url(#arrowhead)" points="726.5 163.5,705.0 163.5" stroke="#567DB6" stroke-width="1" />
<polyline fill="none" marker-end="url(#arrowhead)" points="702.5 163.5,681.0 163.5" stroke="#567DB6" stroke-width="1" />
<polyline fill="none" marker-end="url(#arrowhead)" points="678.5 163.5,657.0 163.5" stroke="#567DB6" stroke-width="1" />
<polyline fill="none" marker-end="url(#arrowhead)" points="654.5 163.5,633.0 163.5" stroke="#567DB6" stroke-width="1" />
<polyline fill="none" marker-end="url(#arrowhead)" points="630.5 163.5,609.0 163.5" stroke="#567DB6" stroke-width="1" />
<polyline fill="none" marker-end="url(#arrowhead)" points="606.5 163.5,585.0 163.5" stroke="#567DB6" stroke-width="1" />
<polyline fill="none" marker-end="url(#arrowhead)" points="582.5 163.5,561.0 163.5" stroke="#567DB6" stroke-width="1" />
<polyline fill="none" marker-end="url(#arrowhead)" points="558.5 163.5,537.0 163.5" stroke="#567DB6" stroke-width="1" />
<polyline fill="none" marker-end="url(#arrowhead)" points="534.5 163.5,513.0 163.5" stroke="#567DB6" stroke-width="1" />
<polyline fill="none" marker-end="url(#arrowhead)" points="510.5 163.5,489.0 163.5" stroke="#567DB6" stroke-width="1" />
<polyline fill="none" marker-end="url(#arrowhead)" points="486.5 163.5,465.0 163.5" stroke="#567DB6" stroke-width="1" />
<polyline fill="none" marker-end="url(#arrowhead)" points="462.5 163.5,441.0 163.5" stroke="#567DB6" stroke-width="1" />
<polyline fill="none" marker-end="url(#arrowhead)" points="438.5 163.5,417.0 163.5" stroke="#567DB6" stroke-width="1" />
<polyline fill="none" marker-end="url(#arrowhead)" points="414.5 163.5,393.0 163.5" stroke="#567DB6" stroke-width="1" />
<polyline fill="none" marker-end="url(#arrowhead)" points="390.5 163.5,369.0 163.5" stroke="#567DB6" stroke-width="1" />
<polyline fill="none" marker-end="url(#arrowhead)" points="366.5 163.5,345.0 163.5" stroke="#567DB6" stroke-width="1" />
<polyline fill="none" marker-end="url(#arrowhead)" points="342.5 163.5,321.0 163.5" stroke="#567DB6" stroke-width="1" />
<polyline fill="none" marker-end="url(#arrowhead)" points="318.5 163.5,297.0 163.5" stroke="#567DB6" stroke-width="1" />
<polyline fill="none" marker-end="url(#arrowhead)" points="294.5 163.5,273.0 163.5" stroke="#567DB6" stroke-width="1" />
<polyline fill="none" marker-end="url(#arrowhead)" points="270.5 163.5,249.0 163.5" stroke="#567DB6" stroke-width="1" />
<polyline fill="none" marker-end="url(#arrowhead)" points="246.5 163.5,225.0 163.5" stroke="#567DB6" stroke-width="1" />
<polyline fill="none" marker-end="url(#arrowhead)" points="222.5 163.5,201.0 163.5" stroke="#567DB6" stroke-width="1" />
<polyline fill="none" marker-end="url(#arrowhead)" points="198.5 163.5,177.0 163.5" stroke="#567DB6" stroke-width="1" />
<polyline fill="none" marker-end="url(#arrowhead)" points="174.5 163.5,153.0 163.5" stroke="#567DB6" stroke-width="1" />
<polyline fill="none" marker-end="url(#arrowhead)" points="150.5 163.5,129.0 163.5" stroke="#567DB6" stroke-width="1" />
<polyline fill="none" marker-end="url(#arrowhead)" points="126.5 163.5,105.0 163.5" stroke="#567DB6" stroke-width="1" />
<polyline fill="none" points="99.5 235.5,101.5 239.5,473.5 239.5,474.5 241.5,474.5 245.5,474.5 241.5,475.5 239.5,847.5 239.5,849.5 235.5" stroke="#567DB6" stroke-width="1" />
<polyline fill="none" marker-end="url(#arrowhead)" points="474.5 244.5,474.5 257.5,192.5 257.5,192.5 281.5" stroke="#567DB6" stroke-width="1" />
<line stroke="#567DB6" stroke-width="1" x1="846.5" x2="846.5" y1="43.5" y2="161" />
<polyline fill="none" marker-end="url(#arrowhead)" points="846.5 163.5,846.5 209.0" stroke="#567DB6" stroke-width="1" />
<polyline fill="none" marker-end="url(#arrowhead)" points="822.5 163.5,822.5 209.0" stroke="#567DB6" stroke-width="1" />
<polyline fill="none" marker-end="url(#arrowhead)" points="798.5 163.5,798.5 209.0" stroke="#567DB6" stroke-width="1" />
<polyline fill="none" marker-end="url(#arrowhead)" points="774.5 163.5,774.5 209.0" stroke="#567DB6" stroke-width="1" />
<polyline fill="none" marker-end="url(#arrowhead)" points="750.5 163.5,750.5 209.0" stroke="#567DB6" stroke-width="1" />
<polyline fill="none" marker-end="url(#arrowhead)" points="726.5 163.5,726.5 209.0" stroke="#567DB6" stroke-width="1" />
<polyline fill="none" marker-end="url(#arrowhead)" points="702.5 163.5,702.5 209.0" stroke="#567DB6" stroke-width="1" />
<polyline fill="none" marker-end="url(#arrowhead)" points="678.5 163.5,678.5 209.0" stroke="#567DB6" stroke-width="1" />
<polyline fill="none" marker-end="url(#arrowhead)" points="654.5 163.5,654.5 209.0" stroke="#567DB6" stroke-width="1" />
<polyline fill="none" marker-end="url(#arrowhead)" points="630.5 163.5,630.5 209.0" stroke="#567DB6" stroke-width="1" />
<polyline fill="none" marker-end="url(#arrowhead)" points="606.5 163.5,606.5 209.0" stroke="#567DB6" stroke-width="1" />
<polyline fill="none" marker-end="url(#arrowhead)" points="582.5 163.5,582.5 209.0" stroke="#567DB6" stroke-width="1" />
<polyline fill="none" marker-end="url(#arrowhead)" points="558.5 163.5,558.5 209.0" stroke="#567DB6" stroke-width="1" />
<polyline fill="none" marker-end="url(#arrowhead)" points="534.5 163.5,534.5 209.0" stroke="#567DB6" stroke-width="1" />
<polyline fill="none" marker-end="url(#arrowhead)" points="510.5 163.5,510.5 209.0" stroke="#567DB6" stroke-width="1" />
<polyline fill="none" marker-end="url(#arrowhead)" points="486.5 163.5,486.5 209.0" stroke="#567DB6" stroke-width="1" />
<polyline fill="none" marker-end="url(#arrowhead)" points="462.5 163.5,462.5 209.0" stroke="#567DB6" stroke-width="1" />
<polyline fill="none" marker-end="url(#arrowhead)" points="438.5 163.5,438.5 209.0" stroke="#567DB6" stroke-width="1" />
<polyline fill="none" marker-end="url(#arrowhead)" points="414.5 163.5,414.5 209.0" stroke="#567DB6" stroke-width="1" />
<polyline fill="none" marker-end="url(#arrowhead)" points="390.5 163.5,390.5 209.0" stroke="#567DB6" stroke-width="1" />
<polyline fill="none" marker-end="url(#arrowhead)" points="366.5 163.5,366.5 209.0" stroke="#567DB6" stroke-width="1" />
<polyline fill="none" marker-end="url(#arrowhead)" points="342.5 163.5,342.5 209.0" stroke="#567DB6" stroke-width="1" />
<polyline fill="none" marker-end="url(#arrowhead)" points="318.5 163.5,318.5 209.0" stroke="#567DB6" stroke-width="1" />
<polyline fill="none" marker-end="url(#arrowhead)" points="294.5 163.5,294.5 209.0" stroke="#567DB6" stroke-width="1" />
<polyline fill="none" marker-end="url(#arrowhead)" points="270.5 163.5,270.5 209.0" stroke="#567DB6" stroke-width="1" />
<polyline fill="none" marker-end="url(#arrowhead)" points="246.5 163.5,246.5 209.0" stroke="#567DB6" stroke-width="1" />
<polyline fill="none" marker-end="url(#arrowhead)" points="222.5 163.5,222.5 209.0" stroke="#567DB6" stroke-width="1" />
<polyline fill="none" marker-end="url(#arrowhead)" points="198.5 163.5,198.5 209.0" stroke="#567DB6" stroke-width="1" />
<polyline fill="none" marker-end="url(#arrowhead)" points="174.5 163.5,174.5 209.0" stroke="#567DB6" stroke-width="1" />
<polyline fill="none" marker-end="url(#arrowhead)" points="150.5 163.5,150.5 209.0" stroke="#567DB6" stroke-width="1" />
<polyline fill="none" marker-end="url(#arrowhead)" points="126.5 163.5,126.5 209.0" stroke="#567DB6" stroke-width="1" />
<polyline fill="none" marker-end="url(#arrowhead)" points="102.5 163.5,102.5 209.0" stroke="#567DB6" stroke-width="1" />
<text class="title-left" x="90.5" y="9.5">upper</text>
<text class="title-right" x="858.5" y="9.5">lower</text>
<text class="smaller-label" x="845.5" y="175.5">A≤B</text>
<text class="smaller-label" x="821.5" y="187.5">A+1≤B</text>
<text class="smaller-label" x="797.5" y="175.5">A+2≤B</text>
<text class="smaller-label" x="773.5" y="187.5">A+3≤B</text>
<text class="smaller-label" x="749.5" y="175.5">A+4≤B</text>
<text class="smaller-label" x="725.5" y="187.5">A+5≤B</text>
<text class="smaller-label" x="701.5" y="175.5">A+6≤B</text>
<text class="smaller-label" x="677.5" y="187.5">A+7≤B</text>
<text class="smaller-label" x="653.5" y="175.5">A+8≤B</text>
<text class="smaller-label" x="629.5" y="187.5">A+9≤B</text>
<text class="smaller-label" x="605.5" y="175.5">A+10≤B</text>
<text class="smaller-label" x="581.5" y="187.5">A+11≤B</text>
<text class="smaller-label" x="557.5" y="175.5">A+12≤B</text>
<text class="smaller-label" x="533.5" y="187.5">A+13≤B</text>
<text class="smaller-label" x="509.5" y="175.5">A+14≤B</text>
<text class="smaller-label" x="485.5" y="187.5">A+15≤B</text>
<text class="smaller-label" x="461.5" y="175.5">A+16≤B</text>
<text class="smaller-label" x="437.5" y="187.5">A+17≤B</text>
<text class="smaller-label" x="413.5" y="175.5">A+18≤B</text>
<text class="smaller-label" x="389.5" y="187.5">A+19≤B</text>
<text class="smaller-label" x="365.5" y="175.5">A+20≤B</text>
<text class="smaller-label" x="341.5" y="187.5">A+21≤B</text>
<text class="smaller-label" x="317.5" y="175.5">A+22≤B</text>
<text class="smaller-label" x="293.5" y="187.5">A+23≤B</text>
<text class="smaller-label" x="269.5" y="175.5">A+24≤B</text>
<text class="smaller-label" x="245.5" y="187.5">A+25≤B</text>
<text class="smaller-label" x="221.5" y="175.5">A+26≤B</text>
<text class="smaller-label" x="197.5" y="187.5">A+27≤B</text>
<text class="smaller-label" x="173.5" y="175.5">A+28≤B</text>
<text class="smaller-label" x="149.5" y="187.5">A+29≤B</text>
<text class="smaller-label" x="125.5" y="175.5">A+30≤B</text>
<text class="smaller-label" x="101.5" y="187.5">A+31≤B</text>
<circle cx="846.5" cy="163.5" fill="#567DB6" r="2.5" />
<circle cx="822.5" cy="163.5" fill="#567DB6" r="2.5" />
<circle cx="798.5" cy="163.5" fill="#567DB6" r="2.5" />
<circle cx="774.5" cy="163.5" fill="#567DB6" r="2.5" />
<circle cx="750.5" cy="163.5" fill="#567DB6" r="2.5" />
<circle cx="726.5" cy="163.5" fill="#567DB6" r="2.5" />
<circle cx="702.5" cy="163.5" fill="#567DB6" r="2.5" />
<circle cx="678.5" cy="163.5" fill="#567DB6" r="2.5" />
<circle cx="654.5" cy="163.5" fill="#567DB6" r="2.5" />
<circle cx="630.5" cy="163.5" fill="#567DB6" r="2.5" />
<circle cx="606.5" cy="163.5" fill="#567DB6" r="2.5" />
<circle cx="582.5" cy="163.5" fill="#567DB6" r="2.5" />
<circle cx="558.5" cy="163.5" fill="#567DB6" r="2.5" />
<circle cx="534.5" cy="163.5" fill="#567DB6" r="2.5" />
<circle cx="510.5" cy="163.5" fill="#567DB6" r="2.5" />
<circle cx="486.5" cy="163.5" fill="#567DB6" r="2.5" />
<circle cx="462.5" cy="163.5" fill="#567DB6" r="2.5" />
<circle cx="438.5" cy="163.5" fill="#567DB6" r="2.5" />
<circle cx="414.5" cy="163.5" fill="#567DB6" r="2.5" />
<circle cx="390.5" cy="163.5" fill="#567DB6" r="2.5" />
<circle cx="366.5" cy="163.5" fill="#567DB6" r="2.5" />
<circle cx="342.5" cy="163.5" fill="#567DB6" r="2.5" />
<circle cx="318.5" cy="163.5" fill="#567DB6" r="2.5" />
<circle cx="294.5" cy="163.5" fill="#567DB6" r="2.5" />
<circle cx="270.5" cy="163.5" fill="#567DB6" r="2.5" />
<circle cx="246.5" cy="163.5" fill="#567DB6" r="2.5" />
<circle cx="222.5" cy="163.5" fill="#567DB6" r="2.5" />
<circle cx="198.5" cy="163.5" fill="#567DB6" r="2.5" />
<circle cx="174.5" cy="163.5" fill="#567DB6" r="2.5" />
<circle cx="150.5" cy="163.5" fill="#567DB6" r="2.5" />
<circle cx="126.5" cy="163.5" fill="#567DB6" r="2.5" />
<circle cx="102.5" cy="163.5" fill="#567DB6" r="2.5" />
<text class="label" x="193.5" y="266.5">encode predicate-as-counter</text>
<rect fill="#DEE6F1" height="24" width="96" x="762.5" y="18.5" />
<text class="label" x="810.5" y="31.5">A</text>
<rect fill="none" height="24" stroke="#405C86" stroke-width="3" width="96" x="762.5" y="18.5" />
<rect fill="none" height="24" stroke="#405C86" stroke-dasharray="3 1" stroke-dashoffset="1.5" stroke-width="1" width="96" x="666.5" y="18.5" />
<text class="label unused" x="714.5" y="31.5"></text>
<text class="register-name" x="80.5" y="30.5">Wn</text>
<text class="intrinsic-name" x="80.5" y="42.5">op1</text>
<text class="register-number" x="10" y="30.5">(1)</text>
<rect fill="#DEE6F1" height="24" width="96" x="762.5" y="66.5" />
<text class="label" x="810.5" y="79.5">B</text>
<rect fill="none" height="24" stroke="#405C86" stroke-width="3" width="96" x="762.5" y="66.5" />
<rect fill="none" height="24" stroke="#405C86" stroke-dasharray="3 1" stroke-dashoffset="1.5" stroke-width="1" width="96" x="666.5" y="66.5" />
<text class="label unused" x="714.5" y="79.5"></text>
<text class="register-name" x="80.5" y="78.5">Wm</text>
<text class="intrinsic-name" x="80.5" y="90.5">op2</text>
<text class="register-number" x="10" y="78.5">(2)</text>
<rect fill="#DEE6F1" height="24" width="12" x="840.5" y="210.5" />
<rect fill="none" height="24" stroke="#405C86" stroke-width="3" width="12" x="840.5" y="210.5" />
<rect fill="#DEE6F1" height="24" width="12" x="816.5" y="210.5" />
<rect fill="none" height="24" stroke="#405C86" stroke-width="3" width="12" x="816.5" y="210.5" />
<rect fill="#DEE6F1" height="24" width="12" x="792.5" y="210.5" />
<rect fill="none" height="24" stroke="#405C86" stroke-width="3" width="12" x="792.5" y="210.5" />
<rect fill="#DEE6F1" height="24" width="12" x="768.5" y="210.5" />
<rect fill="none" height="24" stroke="#405C86" stroke-width="3" width="12" x="768.5" y="210.5" />
<rect fill="#DEE6F1" height="24" width="12" x="744.5" y="210.5" />
<rect fill="none" height="24" stroke="#405C86" stroke-width="3" width="12" x="744.5" y="210.5" />
<rect fill="#DEE6F1" height="24" width="12" x="720.5" y="210.5" />
<rect fill="none" height="24" stroke="#405C86" stroke-width="3" width="12" x="720.5" y="210.5" />
<rect fill="#DEE6F1" height="24" width="12" x="696.5" y="210.5" />
<rect fill="none" height="24" stroke="#405C86" stroke-width="3" width="12" x="696.5" y="210.5" />
<rect fill="#DEE6F1" height="24" width="12" x="672.5" y="210.5" />
<rect fill="none" height="24" stroke="#405C86" stroke-width="3" width="12" x="672.5" y="210.5" />
<rect fill="#DEE6F1" height="24" width="12" x="648.5" y="210.5" />
<rect fill="none" height="24" stroke="#405C86" stroke-width="3" width="12" x="648.5" y="210.5" />
<rect fill="#DEE6F1" height="24" width="12" x="624.5" y="210.5" />
<rect fill="none" height="24" stroke="#405C86" stroke-width="3" width="12" x="624.5" y="210.5" />
<rect fill="#DEE6F1" height="24" width="12" x="600.5" y="210.5" />
<rect fill="none" height="24" stroke="#405C86" stroke-width="3" width="12" x="600.5" y="210.5" />
<rect fill="#DEE6F1" height="24" width="12" x="576.5" y="210.5" />
<rect fill="none" height="24" stroke="#405C86" stroke-width="3" width="12" x="576.5" y="210.5" />
<rect fill="#DEE6F1" height="24" width="12" x="552.5" y="210.5" />
<rect fill="none" height="24" stroke="#405C86" stroke-width="3" width="12" x="552.5" y="210.5" />
<rect fill="#DEE6F1" height="24" width="12" x="528.5" y="210.5" />
<rect fill="none" height="24" stroke="#405C86" stroke-width="3" width="12" x="528.5" y="210.5" />
<rect fill="#DEE6F1" height="24" width="12" x="504.5" y="210.5" />
<rect fill="none" height="24" stroke="#405C86" stroke-width="3" width="12" x="504.5" y="210.5" />
<rect fill="#DEE6F1" height="24" width="12" x="480.5" y="210.5" />
<rect fill="none" height="24" stroke="#405C86" stroke-width="3" width="12" x="480.5" y="210.5" />
<rect fill="#DEE6F1" height="24" width="12" x="456.5" y="210.5" />
<rect fill="none" height="24" stroke="#405C86" stroke-width="3" width="12" x="456.5" y="210.5" />
<rect fill="#DEE6F1" height="24" width="12" x="432.5" y="210.5" />
<rect fill="none" height="24" stroke="#405C86" stroke-width="3" width="12" x="432.5" y="210.5" />
<rect fill="#DEE6F1" height="24" width="12" x="408.5" y="210.5" />
<rect fill="none" height="24" stroke="#405C86" stroke-width="3" width="12" x="408.5" y="210.5" />
<rect fill="#DEE6F1" height="24" width="12" x="384.5" y="210.5" />
<rect fill="none" height="24" stroke="#405C86" stroke-width="3" width="12" x="384.5" y="210.5" />
<rect fill="#DEE6F1" height="24" width="12" x="360.5" y="210.5" />
<rect fill="none" height="24" stroke="#405C86" stroke-width="3" width="12" x="360.5" y="210.5" />
<rect fill="#DEE6F1" height="24" width="12" x="336.5" y="210.5" />
<rect fill="none" height="24" stroke="#405C86" stroke-width="3" width="12" x="336.5" y="210.5" />
<rect fill="#DEE6F1" height="24" width="12" x="312.5" y="210.5" />
<rect fill="none" height="24" stroke="#405C86" stroke-width="3" width="12" x="312.5" y="210.5" />
<rect fill="#DEE6F1" height="24" width="12" x="288.5" y="210.5" />
<rect fill="none" height="24" stroke="#405C86" stroke-width="3" width="12" x="288.5" y="210.5" />
<rect fill="#DEE6F1" height="24" width="12" x="264.5" y="210.5" />
<rect fill="none" height="24" stroke="#405C86" stroke-width="3" width="12" x="264.5" y="210.5" />
<rect fill="#DEE6F1" height="24" width="12" x="240.5" y="210.5" />
<rect fill="none" height="24" stroke="#405C86" stroke-width="3" width="12" x="240.5" y="210.5" />
<rect fill="#DEE6F1" height="24" width="12" x="216.5" y="210.5" />
<rect fill="none" height="24" stroke="#405C86" stroke-width="3" width="12" x="216.5" y="210.5" />
<rect fill="#DEE6F1" height="24" width="12" x="192.5" y="210.5" />
<rect fill="none" height="24" stroke="#405C86" stroke-width="3" width="12" x="192.5" y="210.5" />
<rect fill="#DEE6F1" height="24" width="12" x="168.5" y="210.5" />
<rect fill="none" height="24" stroke="#405C86" stroke-width="3" width="12" x="168.5" y="210.5" />
<rect fill="#DEE6F1" height="24" width="12" x="144.5" y="210.5" />
<rect fill="none" height="24" stroke="#405C86" stroke-width="3" width="12" x="144.5" y="210.5" />
<rect fill="#DEE6F1" height="24" width="12" x="120.5" y="210.5" />
<rect fill="none" height="24" stroke="#405C86" stroke-width="3" width="12" x="120.5" y="210.5" />
<rect fill="#DEE6F1" height="24" width="12" x="96.5" y="210.5" />
<rect fill="none" height="24" stroke="#405C86" stroke-width="3" width="12" x="96.5" y="210.5" />
<rect fill="#ECF1E0" height="24" width="12" x="276.5" y="282.5" />
<rect fill="none" height="24" stroke="#405C86" stroke-width="3" width="12" x="276.5" y="282.5" />
<text class="label" x="282.5" y="295.5">1</text>
<rect fill="#DEE6F1" height="24" width="12" x="264.5" y="282.5" />
<rect fill="none" height="24" stroke="#405C86" stroke-width="3" width="12" x="264.5" y="282.5" />
<rect fill="#DEE6F1" height="24" width="12" x="252.5" y="282.5" />
<rect fill="none" height="24" stroke="#405C86" stroke-width="3" width="12" x="252.5" y="282.5" />
<rect fill="#DEE6F1" height="24" width="12" x="240.5" y="282.5" />
<rect fill="none" height="24" stroke="#405C86" stroke-width="3" width="12" x="240.5" y="282.5" />
<rect fill="#DEE6F1" height="24" width="12" x="228.5" y="282.5" />
<rect fill="none" height="24" stroke="#405C86" stroke-width="3" width="12" x="228.5" y="282.5" />
<rect fill="#DEE6F1" height="24" width="12" x="216.5" y="282.5" />
<rect fill="none" height="24" stroke="#405C86" stroke-width="3" width="12" x="216.5" y="282.5" />
<rect fill="#DEE6F1" height="24" width="12" x="204.5" y="282.5" />
<rect fill="none" height="24" stroke="#405C86" stroke-width="3" width="12" x="204.5" y="282.5" />
<rect fill="#DEE6F1" height="24" width="12" x="192.5" y="282.5" />
<rect fill="none" height="24" stroke="#405C86" stroke-width="3" width="12" x="192.5" y="282.5" />
<rect fill="#DEE6F1" height="24" width="12" x="180.5" y="282.5" />
<rect fill="none" height="24" stroke="#405C86" stroke-width="3" width="12" x="180.5" y="282.5" />
<rect fill="#DEE6F1" height="24" width="12" x="168.5" y="282.5" />
<rect fill="none" height="24" stroke="#405C86" stroke-width="3" width="12" x="168.5" y="282.5" />
<rect fill="#DEE6F1" height="24" width="12" x="156.5" y="282.5" />
<rect fill="none" height="24" stroke="#405C86" stroke-width="3" width="12" x="156.5" y="282.5" />
<rect fill="#DEE6F1" height="24" width="12" x="144.5" y="282.5" />
<rect fill="none" height="24" stroke="#405C86" stroke-width="3" width="12" x="144.5" y="282.5" />
<rect fill="#DEE6F1" height="24" width="12" x="132.5" y="282.5" />
<rect fill="none" height="24" stroke="#405C86" stroke-width="3" width="12" x="132.5" y="282.5" />
<rect fill="#DEE6F1" height="24" width="12" x="120.5" y="282.5" />
<rect fill="none" height="24" stroke="#405C86" stroke-width="3" width="12" x="120.5" y="282.5" />
<rect fill="#DEE6F1" height="24" width="12" x="108.5" y="282.5" />
<rect fill="none" height="24" stroke="#405C86" stroke-width="3" width="12" x="108.5" y="282.5" />
<rect fill="#EEDDDB" height="24" width="12" x="96.5" y="282.5" />
<rect fill="none" height="24" stroke="#405C86" stroke-width="3" width="12" x="96.5" y="282.5" />
<text class="register-name" x="80.5" y="294.5">PNd</text>
<text class="intrinsic-name" x="80.5" y="306.5">returns</text>
<text class="register-number" x="10" y="294.5">(3)</text>
<line marker-end="url(#arrowhead)" stroke="none" x1="846.5" x2="846.5" y1="43.5" y2="161" />
</svg>