<svg xmlns="http://www.w3.org/2000/svg" viewBox="0 0 870 243">
<style>
.label { font: 14px Helvetica; dominant-baseline: middle; text-anchor: middle; }
.title-left { font: 12px Helvetica; dominant-baseline: middle; }
.title-right { font: 12px Helvetica; dominant-baseline: middle; text-anchor: end; }
.title-intrinsic { font: 12px Helvetica; dominant-baseline: middle; text-anchor: middle; fill: #6778ED; }
.title { font: 12px Helvetica; dominant-baseline: middle; text-anchor: middle; }
.title-unused { font: 12px Helvetica; dominant-baseline: middle; text-anchor: middle; fill: #AAA; }
.register-name { font: 14px Helvetica; dominant-baseline: middle; text-anchor: end; font-style: italic; }
.memory-name { font: 14px Helvetica; dominant-baseline: middle; text-anchor: end; }
.register-number { font: 14px Helvetica; dominant-baseline: middle; text-anchor: start; }
.intrinsic-name { font: 14px Helvetica; dominant-baseline: middle; text-anchor: end; fill: #6778ED; }
.intrinsic-color { fill: #6778ED; }
.small-label { font: 12px Helvetica; dominant-baseline: middle; text-anchor: middle; }
.label-10px { font: 10px Helvetica; dominant-baseline: middle; text-anchor: middle; }
.smaller-label { font: 9px Helvetica; dominant-baseline: middle; text-anchor: middle; }
.label-6px { font: 6px Helvetica; dominant-baseline: middle; text-anchor: middle; }
.label-7px { font: 7px Helvetica; dominant-baseline: middle; text-anchor: middle; }
.unused { fill: #AAA; }
.dim { fill: #888; }
</style>
<defs>
<marker id="arrowhead" markerWidth="10.75" markerHeight="24.5" refX="9.0" refY="6.125" orient="auto">
<polyline points="0.5 0.5, 8.75 6.125, 0.5 11.75" stroke="#567DB6" stroke-width="1" fill="none"/>
</marker>
</defs>
<polyline fill="none" marker-end="url(#arrowhead)" points="834.5 163.5,789.0 163.5" stroke="#567DB6" stroke-width="1" />
<polyline fill="none" marker-end="url(#arrowhead)" points="786.5 163.5,741.0 163.5" stroke="#567DB6" stroke-width="1" />
<polyline fill="none" marker-end="url(#arrowhead)" points="738.5 163.5,693.0 163.5" stroke="#567DB6" stroke-width="1" />
<polyline fill="none" marker-end="url(#arrowhead)" points="690.5 163.5,645.0 163.5" stroke="#567DB6" stroke-width="1" />
<polyline fill="none" marker-end="url(#arrowhead)" points="642.5 163.5,597.0 163.5" stroke="#567DB6" stroke-width="1" />
<polyline fill="none" marker-end="url(#arrowhead)" points="594.5 163.5,549.0 163.5" stroke="#567DB6" stroke-width="1" />
<polyline fill="none" marker-end="url(#arrowhead)" points="546.5 163.5,501.0 163.5" stroke="#567DB6" stroke-width="1" />
<polyline fill="none" marker-end="url(#arrowhead)" points="498.5 163.5,453.0 163.5" stroke="#567DB6" stroke-width="1" />
<polyline fill="none" marker-end="url(#arrowhead)" points="450.5 163.5,405.0 163.5" stroke="#567DB6" stroke-width="1" />
<polyline fill="none" marker-end="url(#arrowhead)" points="402.5 163.5,357.0 163.5" stroke="#567DB6" stroke-width="1" />
<polyline fill="none" marker-end="url(#arrowhead)" points="354.5 163.5,309.0 163.5" stroke="#567DB6" stroke-width="1" />
<polyline fill="none" marker-end="url(#arrowhead)" points="306.5 163.5,261.0 163.5" stroke="#567DB6" stroke-width="1" />
<polyline fill="none" marker-end="url(#arrowhead)" points="258.5 163.5,213.0 163.5" stroke="#567DB6" stroke-width="1" />
<polyline fill="none" marker-end="url(#arrowhead)" points="210.5 163.5,165.0 163.5" stroke="#567DB6" stroke-width="1" />
<polyline fill="none" marker-end="url(#arrowhead)" points="162.5 163.5,117.0 163.5" stroke="#567DB6" stroke-width="1" />
<line stroke="#567DB6" stroke-width="1" x1="834.5" x2="834.5" y1="43.5" y2="161" />
<polyline fill="none" marker-end="url(#arrowhead)" points="834.5 163.5,834.5 209.0" stroke="#567DB6" stroke-width="1" />
<polyline fill="none" marker-end="url(#arrowhead)" points="786.5 163.5,786.5 209.0" stroke="#567DB6" stroke-width="1" />
<polyline fill="none" marker-end="url(#arrowhead)" points="738.5 163.5,738.5 209.0" stroke="#567DB6" stroke-width="1" />
<polyline fill="none" marker-end="url(#arrowhead)" points="690.5 163.5,690.5 209.0" stroke="#567DB6" stroke-width="1" />
<polyline fill="none" marker-end="url(#arrowhead)" points="642.5 163.5,642.5 209.0" stroke="#567DB6" stroke-width="1" />
<polyline fill="none" marker-end="url(#arrowhead)" points="594.5 163.5,594.5 209.0" stroke="#567DB6" stroke-width="1" />
<polyline fill="none" marker-end="url(#arrowhead)" points="546.5 163.5,546.5 209.0" stroke="#567DB6" stroke-width="1" />
<polyline fill="none" marker-end="url(#arrowhead)" points="498.5 163.5,498.5 209.0" stroke="#567DB6" stroke-width="1" />
<polyline fill="none" marker-end="url(#arrowhead)" points="450.5 163.5,450.5 209.0" stroke="#567DB6" stroke-width="1" />
<polyline fill="none" marker-end="url(#arrowhead)" points="402.5 163.5,402.5 209.0" stroke="#567DB6" stroke-width="1" />
<polyline fill="none" marker-end="url(#arrowhead)" points="354.5 163.5,354.5 209.0" stroke="#567DB6" stroke-width="1" />
<polyline fill="none" marker-end="url(#arrowhead)" points="306.5 163.5,306.5 209.0" stroke="#567DB6" stroke-width="1" />
<polyline fill="none" marker-end="url(#arrowhead)" points="258.5 163.5,258.5 209.0" stroke="#567DB6" stroke-width="1" />
<polyline fill="none" marker-end="url(#arrowhead)" points="210.5 163.5,210.5 209.0" stroke="#567DB6" stroke-width="1" />
<polyline fill="none" marker-end="url(#arrowhead)" points="162.5 163.5,162.5 209.0" stroke="#567DB6" stroke-width="1" />
<polyline fill="none" marker-end="url(#arrowhead)" points="114.5 163.5,114.5 209.0" stroke="#567DB6" stroke-width="1" />
<text class="title-left" x="90.5" y="9.5">upper</text>
<text class="title-right" x="858.5" y="9.5">lower</text>
<text class="smaller-label" x="831.5" y="175.5">A &lt; B</text>
<text class="smaller-label" x="785.5" y="175.5">A+1 &lt; B</text>
<text class="smaller-label" x="737.5" y="175.5">A+2 &lt; B</text>
<text class="smaller-label" x="689.5" y="175.5">A+3 &lt; B</text>
<text class="smaller-label" x="641.5" y="175.5">A+4 &lt; B</text>
<text class="smaller-label" x="593.5" y="175.5">A+5 &lt; B</text>
<text class="smaller-label" x="545.5" y="175.5">A+6 &lt; B</text>
<text class="smaller-label" x="497.5" y="175.5">A+7 &lt; B</text>
<text class="smaller-label" x="449.5" y="175.5">A+8 &lt; B</text>
<text class="smaller-label" x="401.5" y="175.5">A+9 &lt; B</text>
<text class="smaller-label" x="350.5" y="175.5">A+10 &lt; B</text>
<text class="smaller-label" x="302.5" y="175.5">A+11 &lt; B</text>
<text class="smaller-label" x="254.5" y="175.5">A+12 &lt; B</text>
<text class="smaller-label" x="206.5" y="175.5">A+13 &lt; B</text>
<text class="smaller-label" x="158.5" y="175.5">A+14 &lt; B</text>
<text class="smaller-label" x="110.5" y="175.5">A+15 &lt; B</text>
<circle cx="834.5" cy="163.5" fill="#567DB6" r="2.5" />
<circle cx="786.5" cy="163.5" fill="#567DB6" r="2.5" />
<circle cx="738.5" cy="163.5" fill="#567DB6" r="2.5" />
<circle cx="690.5" cy="163.5" fill="#567DB6" r="2.5" />
<circle cx="642.5" cy="163.5" fill="#567DB6" r="2.5" />
<circle cx="594.5" cy="163.5" fill="#567DB6" r="2.5" />
<circle cx="546.5" cy="163.5" fill="#567DB6" r="2.5" />
<circle cx="498.5" cy="163.5" fill="#567DB6" r="2.5" />
<circle cx="450.5" cy="163.5" fill="#567DB6" r="2.5" />
<circle cx="402.5" cy="163.5" fill="#567DB6" r="2.5" />
<circle cx="354.5" cy="163.5" fill="#567DB6" r="2.5" />
<circle cx="306.5" cy="163.5" fill="#567DB6" r="2.5" />
<circle cx="258.5" cy="163.5" fill="#567DB6" r="2.5" />
<circle cx="210.5" cy="163.5" fill="#567DB6" r="2.5" />
<circle cx="162.5" cy="163.5" fill="#567DB6" r="2.5" />
<circle cx="114.5" cy="163.5" fill="#567DB6" r="2.5" />
<rect fill="#DEE6F1" height="24" width="192" x="666.5" y="18.5" />
<text class="label" x="762.5" y="31.5">A</text>
<rect fill="none" height="24" stroke="#405C86" stroke-width="3" width="192" x="666.5" y="18.5" />
<text class="register-name" x="80.5" y="30.5">Xn</text>
<text class="intrinsic-name" x="80.5" y="42.5">op1</text>
<text class="register-number" x="10" y="30.5">(1)</text>
<rect fill="#DEE6F1" height="24" width="192" x="666.5" y="66.5" />
<text class="label" x="762.5" y="79.5">B</text>
<rect fill="none" height="24" stroke="#405C86" stroke-width="3" width="192" x="666.5" y="66.5" />
<text class="register-name" x="80.5" y="78.5">Xm</text>
<text class="intrinsic-name" x="80.5" y="90.5">op2</text>
<text class="register-number" x="10" y="78.5">(2)</text>
<rect fill="#DEE6F1" height="24" width="12" x="828.5" y="210.5" />
<rect fill="none" height="24" stroke="#405C86" stroke-width="3" width="12" x="828.5" y="210.5" />
<rect fill="none" height="24" stroke="#405C86" stroke-dasharray="3 1" stroke-dashoffset="1.5" stroke-width="1" width="12" x="816.5" y="210.5" />
<text class="label unused" x="822.5" y="223.5">0</text>
<rect fill="#DEE6F1" height="24" width="12" x="780.5" y="210.5" />
<rect fill="none" height="24" stroke="#405C86" stroke-width="3" width="12" x="780.5" y="210.5" />
<rect fill="none" height="24" stroke="#405C86" stroke-dasharray="3 1" stroke-dashoffset="1.5" stroke-width="1" width="12" x="768.5" y="210.5" />
<text class="label unused" x="774.5" y="223.5">0</text>
<rect fill="#DEE6F1" height="24" width="12" x="732.5" y="210.5" />
<rect fill="none" height="24" stroke="#405C86" stroke-width="3" width="12" x="732.5" y="210.5" />
<rect fill="none" height="24" stroke="#405C86" stroke-dasharray="3 1" stroke-dashoffset="1.5" stroke-width="1" width="12" x="720.5" y="210.5" />
<text class="label unused" x="726.5" y="223.5">0</text>
<rect fill="#DEE6F1" height="24" width="12" x="684.5" y="210.5" />
<rect fill="none" height="24" stroke="#405C86" stroke-width="3" width="12" x="684.5" y="210.5" />
<rect fill="none" height="24" stroke="#405C86" stroke-dasharray="3 1" stroke-dashoffset="1.5" stroke-width="1" width="12" x="672.5" y="210.5" />
<text class="label unused" x="678.5" y="223.5">0</text>
<rect fill="#DEE6F1" height="24" width="12" x="636.5" y="210.5" />
<rect fill="none" height="24" stroke="#405C86" stroke-width="3" width="12" x="636.5" y="210.5" />
<rect fill="none" height="24" stroke="#405C86" stroke-dasharray="3 1" stroke-dashoffset="1.5" stroke-width="1" width="12" x="624.5" y="210.5" />
<text class="label unused" x="630.5" y="223.5">0</text>
<rect fill="#DEE6F1" height="24" width="12" x="588.5" y="210.5" />
<rect fill="none" height="24" stroke="#405C86" stroke-width="3" width="12" x="588.5" y="210.5" />
<rect fill="none" height="24" stroke="#405C86" stroke-dasharray="3 1" stroke-dashoffset="1.5" stroke-width="1" width="12" x="576.5" y="210.5" />
<text class="label unused" x="582.5" y="223.5">0</text>
<rect fill="#DEE6F1" height="24" width="12" x="540.5" y="210.5" />
<rect fill="none" height="24" stroke="#405C86" stroke-width="3" width="12" x="540.5" y="210.5" />
<rect fill="none" height="24" stroke="#405C86" stroke-dasharray="3 1" stroke-dashoffset="1.5" stroke-width="1" width="12" x="528.5" y="210.5" />
<text class="label unused" x="534.5" y="223.5">0</text>
<rect fill="#DEE6F1" height="24" width="12" x="492.5" y="210.5" />
<rect fill="none" height="24" stroke="#405C86" stroke-width="3" width="12" x="492.5" y="210.5" />
<rect fill="none" height="24" stroke="#405C86" stroke-dasharray="3 1" stroke-dashoffset="1.5" stroke-width="1" width="12" x="480.5" y="210.5" />
<text class="label unused" x="486.5" y="223.5">0</text>
<rect fill="#DEE6F1" height="24" width="12" x="444.5" y="210.5" />
<rect fill="none" height="24" stroke="#405C86" stroke-width="3" width="12" x="444.5" y="210.5" />
<rect fill="none" height="24" stroke="#405C86" stroke-dasharray="3 1" stroke-dashoffset="1.5" stroke-width="1" width="12" x="432.5" y="210.5" />
<text class="label unused" x="438.5" y="223.5">0</text>
<rect fill="#DEE6F1" height="24" width="12" x="396.5" y="210.5" />
<rect fill="none" height="24" stroke="#405C86" stroke-width="3" width="12" x="396.5" y="210.5" />
<rect fill="none" height="24" stroke="#405C86" stroke-dasharray="3 1" stroke-dashoffset="1.5" stroke-width="1" width="12" x="384.5" y="210.5" />
<text class="label unused" x="390.5" y="223.5">0</text>
<rect fill="#DEE6F1" height="24" width="12" x="348.5" y="210.5" />
<rect fill="none" height="24" stroke="#405C86" stroke-width="3" width="12" x="348.5" y="210.5" />
<rect fill="none" height="24" stroke="#405C86" stroke-dasharray="3 1" stroke-dashoffset="1.5" stroke-width="1" width="12" x="336.5" y="210.5" />
<text class="label unused" x="342.5" y="223.5">0</text>
<rect fill="#DEE6F1" height="24" width="12" x="300.5" y="210.5" />
<rect fill="none" height="24" stroke="#405C86" stroke-width="3" width="12" x="300.5" y="210.5" />
<rect fill="none" height="24" stroke="#405C86" stroke-dasharray="3 1" stroke-dashoffset="1.5" stroke-width="1" width="12" x="288.5" y="210.5" />
<text class="label unused" x="294.5" y="223.5">0</text>
<rect fill="#DEE6F1" height="24" width="12" x="252.5" y="210.5" />
<rect fill="none" height="24" stroke="#405C86" stroke-width="3" width="12" x="252.5" y="210.5" />
<rect fill="none" height="24" stroke="#405C86" stroke-dasharray="3 1" stroke-dashoffset="1.5" stroke-width="1" width="12" x="240.5" y="210.5" />
<text class="label unused" x="246.5" y="223.5">0</text>
<rect fill="#DEE6F1" height="24" width="12" x="204.5" y="210.5" />
<rect fill="none" height="24" stroke="#405C86" stroke-width="3" width="12" x="204.5" y="210.5" />
<rect fill="none" height="24" stroke="#405C86" stroke-dasharray="3 1" stroke-dashoffset="1.5" stroke-width="1" width="12" x="192.5" y="210.5" />
<text class="label unused" x="198.5" y="223.5">0</text>
<rect fill="#DEE6F1" height="24" width="12" x="156.5" y="210.5" />
<rect fill="none" height="24" stroke="#405C86" stroke-width="3" width="12" x="156.5" y="210.5" />
<rect fill="none" height="24" stroke="#405C86" stroke-dasharray="3 1" stroke-dashoffset="1.5" stroke-width="1" width="12" x="144.5" y="210.5" />
<text class="label unused" x="150.5" y="223.5">0</text>
<rect fill="#DEE6F1" height="24" width="12" x="108.5" y="210.5" />
<rect fill="none" height="24" stroke="#405C86" stroke-width="3" width="12" x="108.5" y="210.5" />
<rect fill="none" height="24" stroke="#405C86" stroke-dasharray="3 1" stroke-dashoffset="1.5" stroke-width="1" width="12" x="96.5" y="210.5" />
<text class="label unused" x="102.5" y="223.5">0</text>
<text class="register-name" x="80.5" y="222.5">Pd</text>
<text class="intrinsic-name" x="80.5" y="234.5">returns</text>
<text class="register-number" x="10" y="222.5">(3)</text>
<line marker-end="url(#arrowhead)" stroke="none" x1="834.5" x2="834.5" y1="43.5" y2="161" />
</svg>