<svg xmlns="http://www.w3.org/2000/svg" viewBox="0 0 486 363">
<style>
.label { font: 14px Helvetica; dominant-baseline: middle; text-anchor: middle; }
.title-left { font: 12px Helvetica; dominant-baseline: middle; }
.title-right { font: 12px Helvetica; dominant-baseline: middle; text-anchor: end; }
.title-intrinsic { font: 12px Helvetica; dominant-baseline: middle; text-anchor: middle; fill: #6778ED; }
.title { font: 12px Helvetica; dominant-baseline: middle; text-anchor: middle; }
.title-unused { font: 12px Helvetica; dominant-baseline: middle; text-anchor: middle; fill: #AAA; }
.register-name { font: 14px Helvetica; dominant-baseline: middle; text-anchor: end; font-style: italic; }
.memory-name { font: 14px Helvetica; dominant-baseline: middle; text-anchor: end; }
.register-number { font: 14px Helvetica; dominant-baseline: middle; text-anchor: start; }
.intrinsic-name { font: 14px Helvetica; dominant-baseline: middle; text-anchor: end; fill: #6778ED; }
.intrinsic-color { fill: #6778ED; }
.small-label { font: 12px Helvetica; dominant-baseline: middle; text-anchor: middle; }
.label-10px { font: 10px Helvetica; dominant-baseline: middle; text-anchor: middle; }
.smaller-label { font: 9px Helvetica; dominant-baseline: middle; text-anchor: middle; }
.label-6px { font: 6px Helvetica; dominant-baseline: middle; text-anchor: middle; }
.label-7px { font: 7px Helvetica; dominant-baseline: middle; text-anchor: middle; }
.unused { fill: #AAA; }
.dim { fill: #888; }
</style>
<defs>
<marker id="arrowhead" markerWidth="9.5" markerHeight="21.0" refX="7.75" refY="5.25" orient="auto">
<polyline points="0.5 0.5, 7.5 5.25, 0.5 10.0" stroke="#567DB6" stroke-width="1" fill="none"/>
</marker>
</defs>
<polyline fill="none" marker-end="url(#arrowhead)" points="462.5 163.5,441.0 163.5" stroke="#567DB6" stroke-width="1" />
<polyline fill="none" marker-end="url(#arrowhead)" points="438.5 163.5,417.0 163.5" stroke="#567DB6" stroke-width="1" />
<polyline fill="none" marker-end="url(#arrowhead)" points="414.5 163.5,393.0 163.5" stroke="#567DB6" stroke-width="1" />
<polyline fill="none" marker-end="url(#arrowhead)" points="390.5 163.5,369.0 163.5" stroke="#567DB6" stroke-width="1" />
<polyline fill="none" marker-end="url(#arrowhead)" points="366.5 163.5,345.0 163.5" stroke="#567DB6" stroke-width="1" />
<polyline fill="none" marker-end="url(#arrowhead)" points="342.5 163.5,321.0 163.5" stroke="#567DB6" stroke-width="1" />
<polyline fill="none" marker-end="url(#arrowhead)" points="318.5 163.5,297.0 163.5" stroke="#567DB6" stroke-width="1" />
<polyline fill="none" marker-end="url(#arrowhead)" points="294.5 163.5,273.0 163.5" stroke="#567DB6" stroke-width="1" />
<polyline fill="none" marker-end="url(#arrowhead)" points="270.5 163.5,249.0 163.5" stroke="#567DB6" stroke-width="1" />
<polyline fill="none" marker-end="url(#arrowhead)" points="246.5 163.5,225.0 163.5" stroke="#567DB6" stroke-width="1" />
<polyline fill="none" marker-end="url(#arrowhead)" points="222.5 163.5,201.0 163.5" stroke="#567DB6" stroke-width="1" />
<polyline fill="none" marker-end="url(#arrowhead)" points="198.5 163.5,177.0 163.5" stroke="#567DB6" stroke-width="1" />
<polyline fill="none" marker-end="url(#arrowhead)" points="174.5 163.5,153.0 163.5" stroke="#567DB6" stroke-width="1" />
<polyline fill="none" marker-end="url(#arrowhead)" points="150.5 163.5,129.0 163.5" stroke="#567DB6" stroke-width="1" />
<polyline fill="none" marker-end="url(#arrowhead)" points="126.5 163.5,105.0 163.5" stroke="#567DB6" stroke-width="1" />
<polyline fill="none" marker-end="url(#arrowhead)" points="462.5 283.5,441.0 283.5" stroke="#567DB6" stroke-width="1" />
<polyline fill="none" marker-end="url(#arrowhead)" points="438.5 283.5,417.0 283.5" stroke="#567DB6" stroke-width="1" />
<polyline fill="none" marker-end="url(#arrowhead)" points="414.5 283.5,393.0 283.5" stroke="#567DB6" stroke-width="1" />
<polyline fill="none" marker-end="url(#arrowhead)" points="390.5 283.5,369.0 283.5" stroke="#567DB6" stroke-width="1" />
<polyline fill="none" marker-end="url(#arrowhead)" points="366.5 283.5,345.0 283.5" stroke="#567DB6" stroke-width="1" />
<polyline fill="none" marker-end="url(#arrowhead)" points="342.5 283.5,321.0 283.5" stroke="#567DB6" stroke-width="1" />
<polyline fill="none" marker-end="url(#arrowhead)" points="318.5 283.5,297.0 283.5" stroke="#567DB6" stroke-width="1" />
<polyline fill="none" marker-end="url(#arrowhead)" points="294.5 283.5,273.0 283.5" stroke="#567DB6" stroke-width="1" />
<polyline fill="none" marker-end="url(#arrowhead)" points="270.5 283.5,249.0 283.5" stroke="#567DB6" stroke-width="1" />
<polyline fill="none" marker-end="url(#arrowhead)" points="246.5 283.5,225.0 283.5" stroke="#567DB6" stroke-width="1" />
<polyline fill="none" marker-end="url(#arrowhead)" points="222.5 283.5,201.0 283.5" stroke="#567DB6" stroke-width="1" />
<polyline fill="none" marker-end="url(#arrowhead)" points="198.5 283.5,177.0 283.5" stroke="#567DB6" stroke-width="1" />
<polyline fill="none" marker-end="url(#arrowhead)" points="174.5 283.5,153.0 283.5" stroke="#567DB6" stroke-width="1" />
<polyline fill="none" marker-end="url(#arrowhead)" points="150.5 283.5,129.0 283.5" stroke="#567DB6" stroke-width="1" />
<polyline fill="none" marker-end="url(#arrowhead)" points="126.5 283.5,105.0 283.5" stroke="#567DB6" stroke-width="1" />
<line stroke="#567DB6" stroke-width="1" x1="462.5" x2="462.5" y1="43.5" y2="161" />
<polyline fill="none" marker-end="url(#arrowhead)" points="462.5 163.5,462.5 209.0" stroke="#567DB6" stroke-width="1" />
<polyline fill="none" marker-end="url(#arrowhead)" points="438.5 163.5,438.5 209.0" stroke="#567DB6" stroke-width="1" />
<polyline fill="none" marker-end="url(#arrowhead)" points="414.5 163.5,414.5 209.0" stroke="#567DB6" stroke-width="1" />
<polyline fill="none" marker-end="url(#arrowhead)" points="390.5 163.5,390.5 209.0" stroke="#567DB6" stroke-width="1" />
<polyline fill="none" marker-end="url(#arrowhead)" points="366.5 163.5,366.5 209.0" stroke="#567DB6" stroke-width="1" />
<polyline fill="none" marker-end="url(#arrowhead)" points="342.5 163.5,342.5 209.0" stroke="#567DB6" stroke-width="1" />
<polyline fill="none" marker-end="url(#arrowhead)" points="318.5 163.5,318.5 209.0" stroke="#567DB6" stroke-width="1" />
<polyline fill="none" marker-end="url(#arrowhead)" points="294.5 163.5,294.5 209.0" stroke="#567DB6" stroke-width="1" />
<polyline fill="none" marker-end="url(#arrowhead)" points="270.5 163.5,270.5 209.0" stroke="#567DB6" stroke-width="1" />
<polyline fill="none" marker-end="url(#arrowhead)" points="246.5 163.5,246.5 209.0" stroke="#567DB6" stroke-width="1" />
<polyline fill="none" marker-end="url(#arrowhead)" points="222.5 163.5,222.5 209.0" stroke="#567DB6" stroke-width="1" />
<polyline fill="none" marker-end="url(#arrowhead)" points="198.5 163.5,198.5 209.0" stroke="#567DB6" stroke-width="1" />
<polyline fill="none" marker-end="url(#arrowhead)" points="174.5 163.5,174.5 209.0" stroke="#567DB6" stroke-width="1" />
<polyline fill="none" marker-end="url(#arrowhead)" points="150.5 163.5,150.5 209.0" stroke="#567DB6" stroke-width="1" />
<polyline fill="none" marker-end="url(#arrowhead)" points="126.5 163.5,126.5 209.0" stroke="#567DB6" stroke-width="1" />
<polyline fill="none" marker-end="url(#arrowhead)" points="102.5 163.5,102.5 209.0" stroke="#567DB6" stroke-width="1" />
<polyline fill="none" marker-end="url(#arrowhead)" points="462.5 283.5,462.5 329.0" stroke="#567DB6" stroke-width="1" />
<polyline fill="none" marker-end="url(#arrowhead)" points="438.5 283.5,438.5 329.0" stroke="#567DB6" stroke-width="1" />
<polyline fill="none" marker-end="url(#arrowhead)" points="414.5 283.5,414.5 329.0" stroke="#567DB6" stroke-width="1" />
<polyline fill="none" marker-end="url(#arrowhead)" points="390.5 283.5,390.5 329.0" stroke="#567DB6" stroke-width="1" />
<polyline fill="none" marker-end="url(#arrowhead)" points="366.5 283.5,366.5 329.0" stroke="#567DB6" stroke-width="1" />
<polyline fill="none" marker-end="url(#arrowhead)" points="342.5 283.5,342.5 329.0" stroke="#567DB6" stroke-width="1" />
<polyline fill="none" marker-end="url(#arrowhead)" points="318.5 283.5,318.5 329.0" stroke="#567DB6" stroke-width="1" />
<polyline fill="none" marker-end="url(#arrowhead)" points="294.5 283.5,294.5 329.0" stroke="#567DB6" stroke-width="1" />
<polyline fill="none" marker-end="url(#arrowhead)" points="270.5 283.5,270.5 329.0" stroke="#567DB6" stroke-width="1" />
<polyline fill="none" marker-end="url(#arrowhead)" points="246.5 283.5,246.5 329.0" stroke="#567DB6" stroke-width="1" />
<polyline fill="none" marker-end="url(#arrowhead)" points="222.5 283.5,222.5 329.0" stroke="#567DB6" stroke-width="1" />
<polyline fill="none" marker-end="url(#arrowhead)" points="198.5 283.5,198.5 329.0" stroke="#567DB6" stroke-width="1" />
<polyline fill="none" marker-end="url(#arrowhead)" points="174.5 283.5,174.5 329.0" stroke="#567DB6" stroke-width="1" />
<polyline fill="none" marker-end="url(#arrowhead)" points="150.5 283.5,150.5 329.0" stroke="#567DB6" stroke-width="1" />
<polyline fill="none" marker-end="url(#arrowhead)" points="126.5 283.5,126.5 329.0" stroke="#567DB6" stroke-width="1" />
<polyline fill="none" marker-end="url(#arrowhead)" points="102.5 283.5,102.5 329.0" stroke="#567DB6" stroke-width="1" />
<text class="title-left" x="90.5" y="9.5">upper</text>
<text class="title-right" x="474.5" y="9.5">lower</text>
<text class="smaller-label" x="461.5" y="175.5">A≤B</text>
<text class="smaller-label" x="437.5" y="187.5">A+1≤B</text>
<text class="smaller-label" x="413.5" y="175.5">A+2≤B</text>
<text class="smaller-label" x="389.5" y="187.5">A+3≤B</text>
<text class="smaller-label" x="365.5" y="175.5">A+4≤B</text>
<text class="smaller-label" x="341.5" y="187.5">A+5≤B</text>
<text class="smaller-label" x="317.5" y="175.5">A+6≤B</text>
<text class="smaller-label" x="293.5" y="187.5">A+7≤B</text>
<text class="smaller-label" x="269.5" y="175.5">A+8≤B</text>
<text class="smaller-label" x="245.5" y="187.5">A+9≤B</text>
<text class="smaller-label" x="221.5" y="175.5">A+10≤B</text>
<text class="smaller-label" x="197.5" y="187.5">A+11≤B</text>
<text class="smaller-label" x="173.5" y="175.5">A+12≤B</text>
<text class="smaller-label" x="149.5" y="187.5">A+13≤B</text>
<text class="smaller-label" x="125.5" y="175.5">A+14≤B</text>
<text class="smaller-label" x="101.5" y="187.5">A+15≤B</text>
<text class="smaller-label" x="461.5" y="295.5">A+16≤B</text>
<text class="smaller-label" x="437.5" y="307.5">A+17≤B</text>
<text class="smaller-label" x="413.5" y="295.5">A+18≤B</text>
<text class="smaller-label" x="389.5" y="307.5">A+19≤B</text>
<text class="smaller-label" x="365.5" y="295.5">A+20≤B</text>
<text class="smaller-label" x="341.5" y="307.5">A+21≤B</text>
<text class="smaller-label" x="317.5" y="295.5">A+22≤B</text>
<text class="smaller-label" x="293.5" y="307.5">A+23≤B</text>
<text class="smaller-label" x="269.5" y="295.5">A+24≤B</text>
<text class="smaller-label" x="245.5" y="307.5">A+25≤B</text>
<text class="smaller-label" x="221.5" y="295.5">A+26≤B</text>
<text class="smaller-label" x="197.5" y="307.5">A+27≤B</text>
<text class="smaller-label" x="173.5" y="295.5">A+28≤B</text>
<text class="smaller-label" x="149.5" y="307.5">A+29≤B</text>
<text class="smaller-label" x="125.5" y="295.5">A+30≤B</text>
<text class="smaller-label" x="101.5" y="307.5">A+31≤B</text>
<circle cx="462.5" cy="163.5" fill="#567DB6" r="2.5" />
<circle cx="438.5" cy="163.5" fill="#567DB6" r="2.5" />
<circle cx="414.5" cy="163.5" fill="#567DB6" r="2.5" />
<circle cx="390.5" cy="163.5" fill="#567DB6" r="2.5" />
<circle cx="366.5" cy="163.5" fill="#567DB6" r="2.5" />
<circle cx="342.5" cy="163.5" fill="#567DB6" r="2.5" />
<circle cx="318.5" cy="163.5" fill="#567DB6" r="2.5" />
<circle cx="294.5" cy="163.5" fill="#567DB6" r="2.5" />
<circle cx="270.5" cy="163.5" fill="#567DB6" r="2.5" />
<circle cx="246.5" cy="163.5" fill="#567DB6" r="2.5" />
<circle cx="222.5" cy="163.5" fill="#567DB6" r="2.5" />
<circle cx="198.5" cy="163.5" fill="#567DB6" r="2.5" />
<circle cx="174.5" cy="163.5" fill="#567DB6" r="2.5" />
<circle cx="150.5" cy="163.5" fill="#567DB6" r="2.5" />
<circle cx="126.5" cy="163.5" fill="#567DB6" r="2.5" />
<circle cx="102.5" cy="163.5" fill="#567DB6" r="2.5" />
<circle cx="462.5" cy="283.5" fill="#567DB6" r="2.5" />
<circle cx="438.5" cy="283.5" fill="#567DB6" r="2.5" />
<circle cx="414.5" cy="283.5" fill="#567DB6" r="2.5" />
<circle cx="390.5" cy="283.5" fill="#567DB6" r="2.5" />
<circle cx="366.5" cy="283.5" fill="#567DB6" r="2.5" />
<circle cx="342.5" cy="283.5" fill="#567DB6" r="2.5" />
<circle cx="318.5" cy="283.5" fill="#567DB6" r="2.5" />
<circle cx="294.5" cy="283.5" fill="#567DB6" r="2.5" />
<circle cx="270.5" cy="283.5" fill="#567DB6" r="2.5" />
<circle cx="246.5" cy="283.5" fill="#567DB6" r="2.5" />
<circle cx="222.5" cy="283.5" fill="#567DB6" r="2.5" />
<circle cx="198.5" cy="283.5" fill="#567DB6" r="2.5" />
<circle cx="174.5" cy="283.5" fill="#567DB6" r="2.5" />
<circle cx="150.5" cy="283.5" fill="#567DB6" r="2.5" />
<circle cx="126.5" cy="283.5" fill="#567DB6" r="2.5" />
<circle cx="102.5" cy="283.5" fill="#567DB6" r="2.5" />
<rect fill="#DEE6F1" height="24" width="192" x="282.5" y="18.5" />
<text class="label" x="378.5" y="31.5">A</text>
<rect fill="none" height="24" stroke="#405C86" stroke-width="3" width="192" x="282.5" y="18.5" />
<text class="register-name" x="80.5" y="30.5">Xn</text>
<text class="register-number" x="10" y="30.5">(1)</text>
<rect fill="#DEE6F1" height="24" width="192" x="282.5" y="66.5" />
<text class="label" x="378.5" y="79.5">B</text>
<rect fill="none" height="24" stroke="#405C86" stroke-width="3" width="192" x="282.5" y="66.5" />
<text class="register-name" x="80.5" y="78.5">Xm</text>
<text class="register-number" x="10" y="78.5">(2)</text>
<rect fill="#DEE6F1" height="24" width="12" x="456.5" y="210.5" />
<rect fill="none" height="24" stroke="#405C86" stroke-width="3" width="12" x="456.5" y="210.5" />
<rect fill="#DEE6F1" height="24" width="12" x="432.5" y="210.5" />
<rect fill="none" height="24" stroke="#405C86" stroke-width="3" width="12" x="432.5" y="210.5" />
<rect fill="#DEE6F1" height="24" width="12" x="408.5" y="210.5" />
<rect fill="none" height="24" stroke="#405C86" stroke-width="3" width="12" x="408.5" y="210.5" />
<rect fill="#DEE6F1" height="24" width="12" x="384.5" y="210.5" />
<rect fill="none" height="24" stroke="#405C86" stroke-width="3" width="12" x="384.5" y="210.5" />
<rect fill="#DEE6F1" height="24" width="12" x="360.5" y="210.5" />
<rect fill="none" height="24" stroke="#405C86" stroke-width="3" width="12" x="360.5" y="210.5" />
<rect fill="#DEE6F1" height="24" width="12" x="336.5" y="210.5" />
<rect fill="none" height="24" stroke="#405C86" stroke-width="3" width="12" x="336.5" y="210.5" />
<rect fill="#DEE6F1" height="24" width="12" x="312.5" y="210.5" />
<rect fill="none" height="24" stroke="#405C86" stroke-width="3" width="12" x="312.5" y="210.5" />
<rect fill="#DEE6F1" height="24" width="12" x="288.5" y="210.5" />
<rect fill="none" height="24" stroke="#405C86" stroke-width="3" width="12" x="288.5" y="210.5" />
<rect fill="#DEE6F1" height="24" width="12" x="264.5" y="210.5" />
<rect fill="none" height="24" stroke="#405C86" stroke-width="3" width="12" x="264.5" y="210.5" />
<rect fill="#DEE6F1" height="24" width="12" x="240.5" y="210.5" />
<rect fill="none" height="24" stroke="#405C86" stroke-width="3" width="12" x="240.5" y="210.5" />
<rect fill="#DEE6F1" height="24" width="12" x="216.5" y="210.5" />
<rect fill="none" height="24" stroke="#405C86" stroke-width="3" width="12" x="216.5" y="210.5" />
<rect fill="#DEE6F1" height="24" width="12" x="192.5" y="210.5" />
<rect fill="none" height="24" stroke="#405C86" stroke-width="3" width="12" x="192.5" y="210.5" />
<rect fill="#DEE6F1" height="24" width="12" x="168.5" y="210.5" />
<rect fill="none" height="24" stroke="#405C86" stroke-width="3" width="12" x="168.5" y="210.5" />
<rect fill="#DEE6F1" height="24" width="12" x="144.5" y="210.5" />
<rect fill="none" height="24" stroke="#405C86" stroke-width="3" width="12" x="144.5" y="210.5" />
<rect fill="#DEE6F1" height="24" width="12" x="120.5" y="210.5" />
<rect fill="none" height="24" stroke="#405C86" stroke-width="3" width="12" x="120.5" y="210.5" />
<rect fill="#DEE6F1" height="24" width="12" x="96.5" y="210.5" />
<rect fill="none" height="24" stroke="#405C86" stroke-width="3" width="12" x="96.5" y="210.5" />
<text class="register-name" x="80.5" y="222.5">Pd1</text>
<text class="register-number" x="10" y="222.5">(3)</text>
<rect fill="#DEE6F1" height="24" width="12" x="456.5" y="330.5" />
<rect fill="none" height="24" stroke="#405C86" stroke-width="3" width="12" x="456.5" y="330.5" />
<rect fill="#DEE6F1" height="24" width="12" x="432.5" y="330.5" />
<rect fill="none" height="24" stroke="#405C86" stroke-width="3" width="12" x="432.5" y="330.5" />
<rect fill="#DEE6F1" height="24" width="12" x="408.5" y="330.5" />
<rect fill="none" height="24" stroke="#405C86" stroke-width="3" width="12" x="408.5" y="330.5" />
<rect fill="#DEE6F1" height="24" width="12" x="384.5" y="330.5" />
<rect fill="none" height="24" stroke="#405C86" stroke-width="3" width="12" x="384.5" y="330.5" />
<rect fill="#DEE6F1" height="24" width="12" x="360.5" y="330.5" />
<rect fill="none" height="24" stroke="#405C86" stroke-width="3" width="12" x="360.5" y="330.5" />
<rect fill="#DEE6F1" height="24" width="12" x="336.5" y="330.5" />
<rect fill="none" height="24" stroke="#405C86" stroke-width="3" width="12" x="336.5" y="330.5" />
<rect fill="#DEE6F1" height="24" width="12" x="312.5" y="330.5" />
<rect fill="none" height="24" stroke="#405C86" stroke-width="3" width="12" x="312.5" y="330.5" />
<rect fill="#DEE6F1" height="24" width="12" x="288.5" y="330.5" />
<rect fill="none" height="24" stroke="#405C86" stroke-width="3" width="12" x="288.5" y="330.5" />
<rect fill="#DEE6F1" height="24" width="12" x="264.5" y="330.5" />
<rect fill="none" height="24" stroke="#405C86" stroke-width="3" width="12" x="264.5" y="330.5" />
<rect fill="#DEE6F1" height="24" width="12" x="240.5" y="330.5" />
<rect fill="none" height="24" stroke="#405C86" stroke-width="3" width="12" x="240.5" y="330.5" />
<rect fill="#DEE6F1" height="24" width="12" x="216.5" y="330.5" />
<rect fill="none" height="24" stroke="#405C86" stroke-width="3" width="12" x="216.5" y="330.5" />
<rect fill="#DEE6F1" height="24" width="12" x="192.5" y="330.5" />
<rect fill="none" height="24" stroke="#405C86" stroke-width="3" width="12" x="192.5" y="330.5" />
<rect fill="#DEE6F1" height="24" width="12" x="168.5" y="330.5" />
<rect fill="none" height="24" stroke="#405C86" stroke-width="3" width="12" x="168.5" y="330.5" />
<rect fill="#DEE6F1" height="24" width="12" x="144.5" y="330.5" />
<rect fill="none" height="24" stroke="#405C86" stroke-width="3" width="12" x="144.5" y="330.5" />
<rect fill="#DEE6F1" height="24" width="12" x="120.5" y="330.5" />
<rect fill="none" height="24" stroke="#405C86" stroke-width="3" width="12" x="120.5" y="330.5" />
<rect fill="#DEE6F1" height="24" width="12" x="96.5" y="330.5" />
<rect fill="none" height="24" stroke="#405C86" stroke-width="3" width="12" x="96.5" y="330.5" />
<text class="register-name" x="80.5" y="342.5">Pd2</text>
<text class="register-number" x="10" y="342.5">(4)</text>
<polyline fill="none" marker-end="url(#arrowhead)" points="102.5 163.5,90.5 163.5,90.5 259.5,462.5 259.5,462.5 281.0" stroke="#567DB6" stroke-width="1" />
<line marker-end="url(#arrowhead)" stroke="none" x1="462.5" x2="462.5" y1="43.5" y2="161" />
</svg>