<svg xmlns="http://www.w3.org/2000/svg" viewBox="0 0 1648 315">
<style>
.label { font: 14px Helvetica; dominant-baseline: middle; text-anchor: middle; }
.title-left { font: 12px Helvetica; dominant-baseline: middle; }
.title-right { font: 12px Helvetica; dominant-baseline: middle; text-anchor: end; }
.title-intrinsic { font: 12px Helvetica; dominant-baseline: middle; text-anchor: middle; fill: #6778ED; }
.title { font: 12px Helvetica; dominant-baseline: middle; text-anchor: middle; }
.title-unused { font: 12px Helvetica; dominant-baseline: middle; text-anchor: middle; fill: #AAA; }
.register-name { font: 14px Helvetica; dominant-baseline: middle; text-anchor: end; font-style: italic; }
.memory-name { font: 14px Helvetica; dominant-baseline: middle; text-anchor: end; }
.register-number { font: 14px Helvetica; dominant-baseline: middle; text-anchor: start; }
.intrinsic-name { font: 14px Helvetica; dominant-baseline: middle; text-anchor: end; fill: #6778ED; }
.intrinsic-color { fill: #6778ED; }
.small-label { font: 12px Helvetica; dominant-baseline: middle; text-anchor: middle; }
.label-10px { font: 10px Helvetica; dominant-baseline: middle; text-anchor: middle; }
.smaller-label { font: 9px Helvetica; dominant-baseline: middle; text-anchor: middle; }
.label-6px { font: 6px Helvetica; dominant-baseline: middle; text-anchor: middle; }
.label-7px { font: 7px Helvetica; dominant-baseline: middle; text-anchor: middle; }
.unused { fill: #AAA; }
.dim { fill: #888; }
</style>
<defs>
<marker id="arrowhead" markerWidth="10.75" markerHeight="24.5" refX="9.0" refY="6.125" orient="auto">
<polyline points="0.5 0.5, 8.75 6.125, 0.5 11.75" stroke="#567DB6" stroke-width="1" fill="none"/>
</marker>
</defs>
<polyline fill="none" marker-end="url(#arrowhead)" points="1530.5 163.5,1624.0 163.5" stroke="#567DB6" stroke-width="1" />
<polyline fill="none" marker-end="url(#arrowhead)" points="1434.5 163.5,1528.0 163.5" stroke="#567DB6" stroke-width="1" />
<polyline fill="none" marker-end="url(#arrowhead)" points="1338.5 163.5,1432.0 163.5" stroke="#567DB6" stroke-width="1" />
<polyline fill="none" marker-end="url(#arrowhead)" points="1242.5 163.5,1336.0 163.5" stroke="#567DB6" stroke-width="1" />
<polyline fill="none" marker-end="url(#arrowhead)" points="1146.5 163.5,1240.0 163.5" stroke="#567DB6" stroke-width="1" />
<polyline fill="none" marker-end="url(#arrowhead)" points="1050.5 163.5,1144.0 163.5" stroke="#567DB6" stroke-width="1" />
<polyline fill="none" marker-end="url(#arrowhead)" points="954.5 163.5,1048.0 163.5" stroke="#567DB6" stroke-width="1" />
<polyline fill="none" marker-end="url(#arrowhead)" points="858.5 163.5,952.0 163.5" stroke="#567DB6" stroke-width="1" />
<polyline fill="none" marker-end="url(#arrowhead)" points="762.5 163.5,856.0 163.5" stroke="#567DB6" stroke-width="1" />
<polyline fill="none" marker-end="url(#arrowhead)" points="666.5 163.5,760.0 163.5" stroke="#567DB6" stroke-width="1" />
<polyline fill="none" marker-end="url(#arrowhead)" points="570.5 163.5,664.0 163.5" stroke="#567DB6" stroke-width="1" />
<polyline fill="none" marker-end="url(#arrowhead)" points="474.5 163.5,568.0 163.5" stroke="#567DB6" stroke-width="1" />
<polyline fill="none" marker-end="url(#arrowhead)" points="378.5 163.5,472.0 163.5" stroke="#567DB6" stroke-width="1" />
<polyline fill="none" marker-end="url(#arrowhead)" points="282.5 163.5,376.0 163.5" stroke="#567DB6" stroke-width="1" />
<polyline fill="none" marker-end="url(#arrowhead)" points="186.5 163.5,280.0 163.5" stroke="#567DB6" stroke-width="1" />
<polyline fill="none" points="99.5 234.5,101.5 238.5,863.5 238.5,864.5 240.5,864.5 244.5,864.5 240.5,865.5 238.5,1627.5 238.5,1629.5 234.5" stroke="#567DB6" stroke-width="1" />
<polyline fill="none" marker-end="url(#arrowhead)" points="864.5 243.5,864.5 257.5,384.5 257.5,384.5 281.5" stroke="#567DB6" stroke-width="1" />
<line stroke="#567DB6" stroke-width="1" x1="1578.5" x2="1578.5" y1="43.5" y2="65.5" />
<polyline fill="none" marker-end="url(#arrowhead)" points="1578.5 91.5,1578.5 127.5,186.5 127.5,186.5 161.0" stroke="#567DB6" stroke-width="1" />
<polyline fill="none" marker-end="url(#arrowhead)" points="1626.5 163.5,1626.5 209.0" stroke="#567DB6" stroke-width="1" />
<polyline fill="none" marker-end="url(#arrowhead)" points="1530.5 163.5,1530.5 209.0" stroke="#567DB6" stroke-width="1" />
<polyline fill="none" marker-end="url(#arrowhead)" points="1434.5 163.5,1434.5 209.0" stroke="#567DB6" stroke-width="1" />
<polyline fill="none" marker-end="url(#arrowhead)" points="1338.5 163.5,1338.5 209.0" stroke="#567DB6" stroke-width="1" />
<polyline fill="none" marker-end="url(#arrowhead)" points="1242.5 163.5,1242.5 209.0" stroke="#567DB6" stroke-width="1" />
<polyline fill="none" marker-end="url(#arrowhead)" points="1146.5 163.5,1146.5 209.0" stroke="#567DB6" stroke-width="1" />
<polyline fill="none" marker-end="url(#arrowhead)" points="1050.5 163.5,1050.5 209.0" stroke="#567DB6" stroke-width="1" />
<polyline fill="none" marker-end="url(#arrowhead)" points="954.5 163.5,954.5 209.0" stroke="#567DB6" stroke-width="1" />
<polyline fill="none" marker-end="url(#arrowhead)" points="858.5 163.5,858.5 209.0" stroke="#567DB6" stroke-width="1" />
<polyline fill="none" marker-end="url(#arrowhead)" points="762.5 163.5,762.5 209.0" stroke="#567DB6" stroke-width="1" />
<polyline fill="none" marker-end="url(#arrowhead)" points="666.5 163.5,666.5 209.0" stroke="#567DB6" stroke-width="1" />
<polyline fill="none" marker-end="url(#arrowhead)" points="570.5 163.5,570.5 209.0" stroke="#567DB6" stroke-width="1" />
<polyline fill="none" marker-end="url(#arrowhead)" points="474.5 163.5,474.5 209.0" stroke="#567DB6" stroke-width="1" />
<polyline fill="none" marker-end="url(#arrowhead)" points="378.5 163.5,378.5 209.0" stroke="#567DB6" stroke-width="1" />
<polyline fill="none" marker-end="url(#arrowhead)" points="282.5 163.5,282.5 209.0" stroke="#567DB6" stroke-width="1" />
<polyline fill="none" marker-end="url(#arrowhead)" points="186.5 163.5,186.5 209.0" stroke="#567DB6" stroke-width="1" />
<text class="title-left" x="90.5" y="9.5">upper</text>
<text class="title-right" x="1626.5" y="9.5">lower</text>
<text class="smaller-label" x="183.5" y="175.5">A > B</text>
<text class="smaller-label" x="281.5" y="175.5">A&#x2212;1 > B</text>
<text class="smaller-label" x="377.5" y="175.5">A&#x2212;2 > B</text>
<text class="smaller-label" x="473.5" y="175.5">A&#x2212;3 > B</text>
<text class="smaller-label" x="569.5" y="175.5">A&#x2212;4 > B</text>
<text class="smaller-label" x="665.5" y="175.5">A&#x2212;5 > B</text>
<text class="smaller-label" x="761.5" y="175.5">A&#x2212;6 > B</text>
<text class="smaller-label" x="857.5" y="175.5">A&#x2212;7 > B</text>
<text class="smaller-label" x="953.5" y="175.5">A&#x2212;8 > B</text>
<text class="smaller-label" x="1049.5" y="175.5">A&#x2212;9 > B</text>
<text class="smaller-label" x="1142.5" y="175.5">A&#x2212;10 > B</text>
<text class="smaller-label" x="1238.5" y="175.5">A&#x2212;11 > B</text>
<text class="smaller-label" x="1334.5" y="175.5">A&#x2212;12 > B</text>
<text class="smaller-label" x="1430.5" y="175.5">A&#x2212;13 > B</text>
<text class="smaller-label" x="1526.5" y="175.5">A&#x2212;14 > B</text>
<text class="smaller-label" x="1622.5" y="175.5">A&#x2212;15 > B</text>
<circle cx="1626.5" cy="163.5" fill="#567DB6" r="2.5" />
<circle cx="1530.5" cy="163.5" fill="#567DB6" r="2.5" />
<circle cx="1434.5" cy="163.5" fill="#567DB6" r="2.5" />
<circle cx="1338.5" cy="163.5" fill="#567DB6" r="2.5" />
<circle cx="1242.5" cy="163.5" fill="#567DB6" r="2.5" />
<circle cx="1146.5" cy="163.5" fill="#567DB6" r="2.5" />
<circle cx="1050.5" cy="163.5" fill="#567DB6" r="2.5" />
<circle cx="954.5" cy="163.5" fill="#567DB6" r="2.5" />
<circle cx="858.5" cy="163.5" fill="#567DB6" r="2.5" />
<circle cx="762.5" cy="163.5" fill="#567DB6" r="2.5" />
<circle cx="666.5" cy="163.5" fill="#567DB6" r="2.5" />
<circle cx="570.5" cy="163.5" fill="#567DB6" r="2.5" />
<circle cx="474.5" cy="163.5" fill="#567DB6" r="2.5" />
<circle cx="378.5" cy="163.5" fill="#567DB6" r="2.5" />
<circle cx="282.5" cy="163.5" fill="#567DB6" r="2.5" />
<circle cx="186.5" cy="163.5" fill="#567DB6" r="2.5" />
<text class="label" x="385.5" y="266.5">encode predicate-as-counter</text>
<rect fill="#DEE6F1" height="24" width="96" x="1530.5" y="18.5" />
<text class="label" x="1578.5" y="31.5">A</text>
<rect fill="none" height="24" stroke="#405C86" stroke-width="3" width="96" x="1530.5" y="18.5" />
<rect fill="none" height="24" stroke="#405C86" stroke-dasharray="3 1" stroke-dashoffset="1.5" stroke-width="1" width="96" x="1434.5" y="18.5" />
<text class="label unused" x="1482.5" y="31.5"></text>
<text class="register-name" x="80.5" y="30.5">Wn</text>
<text class="intrinsic-name" x="80.5" y="42.5">op1</text>
<text class="register-number" x="10" y="30.5">(1)</text>
<rect fill="#DEE6F1" height="24" width="96" x="1530.5" y="66.5" />
<text class="label" x="1578.5" y="79.5">B</text>
<rect fill="none" height="24" stroke="#405C86" stroke-width="3" width="96" x="1530.5" y="66.5" />
<rect fill="none" height="24" stroke="#405C86" stroke-dasharray="3 1" stroke-dashoffset="1.5" stroke-width="1" width="96" x="1434.5" y="66.5" />
<text class="label unused" x="1482.5" y="79.5"></text>
<text class="register-name" x="80.5" y="78.5">Wm</text>
<text class="intrinsic-name" x="80.5" y="90.5">op2</text>
<text class="register-number" x="10" y="78.5">(2)</text>
<rect fill="#DEE6F1" height="24" width="12" x="1620.5" y="210.5" />
<rect fill="none" height="24" stroke="#405C86" stroke-width="3" width="12" x="1620.5" y="210.5" />
<rect fill="none" height="24" stroke="#405C86" stroke-dasharray="3 1" stroke-dashoffset="1.5" stroke-width="1" width="12" x="1608.5" y="210.5" />
<text class="label unused" x="1614.5" y="223.5">0</text>
<rect fill="none" height="24" stroke="#405C86" stroke-dasharray="3 1" stroke-dashoffset="1.5" stroke-width="1" width="12" x="1596.5" y="210.5" />
<text class="label unused" x="1602.5" y="223.5">0</text>
<rect fill="none" height="24" stroke="#405C86" stroke-dasharray="3 1" stroke-dashoffset="1.5" stroke-width="1" width="12" x="1584.5" y="210.5" />
<text class="label unused" x="1590.5" y="223.5">0</text>
<rect fill="none" height="24" stroke="#405C86" stroke-dasharray="3 1" stroke-dashoffset="1.5" stroke-width="1" width="12" x="1572.5" y="210.5" />
<text class="label unused" x="1578.5" y="223.5">0</text>
<rect fill="none" height="24" stroke="#405C86" stroke-dasharray="3 1" stroke-dashoffset="1.5" stroke-width="1" width="12" x="1560.5" y="210.5" />
<text class="label unused" x="1566.5" y="223.5">0</text>
<rect fill="none" height="24" stroke="#405C86" stroke-dasharray="3 1" stroke-dashoffset="1.5" stroke-width="1" width="12" x="1548.5" y="210.5" />
<text class="label unused" x="1554.5" y="223.5">0</text>
<rect fill="none" height="24" stroke="#405C86" stroke-dasharray="3 1" stroke-dashoffset="1.5" stroke-width="1" width="12" x="1536.5" y="210.5" />
<text class="label unused" x="1542.5" y="223.5">0</text>
<rect fill="#DEE6F1" height="24" width="12" x="1524.5" y="210.5" />
<rect fill="none" height="24" stroke="#405C86" stroke-width="3" width="12" x="1524.5" y="210.5" />
<rect fill="none" height="24" stroke="#405C86" stroke-dasharray="3 1" stroke-dashoffset="1.5" stroke-width="1" width="12" x="1512.5" y="210.5" />
<text class="label unused" x="1518.5" y="223.5">0</text>
<rect fill="none" height="24" stroke="#405C86" stroke-dasharray="3 1" stroke-dashoffset="1.5" stroke-width="1" width="12" x="1500.5" y="210.5" />
<text class="label unused" x="1506.5" y="223.5">0</text>
<rect fill="none" height="24" stroke="#405C86" stroke-dasharray="3 1" stroke-dashoffset="1.5" stroke-width="1" width="12" x="1488.5" y="210.5" />
<text class="label unused" x="1494.5" y="223.5">0</text>
<rect fill="none" height="24" stroke="#405C86" stroke-dasharray="3 1" stroke-dashoffset="1.5" stroke-width="1" width="12" x="1476.5" y="210.5" />
<text class="label unused" x="1482.5" y="223.5">0</text>
<rect fill="none" height="24" stroke="#405C86" stroke-dasharray="3 1" stroke-dashoffset="1.5" stroke-width="1" width="12" x="1464.5" y="210.5" />
<text class="label unused" x="1470.5" y="223.5">0</text>
<rect fill="none" height="24" stroke="#405C86" stroke-dasharray="3 1" stroke-dashoffset="1.5" stroke-width="1" width="12" x="1452.5" y="210.5" />
<text class="label unused" x="1458.5" y="223.5">0</text>
<rect fill="none" height="24" stroke="#405C86" stroke-dasharray="3 1" stroke-dashoffset="1.5" stroke-width="1" width="12" x="1440.5" y="210.5" />
<text class="label unused" x="1446.5" y="223.5">0</text>
<rect fill="#DEE6F1" height="24" width="12" x="1428.5" y="210.5" />
<rect fill="none" height="24" stroke="#405C86" stroke-width="3" width="12" x="1428.5" y="210.5" />
<rect fill="none" height="24" stroke="#405C86" stroke-dasharray="3 1" stroke-dashoffset="1.5" stroke-width="1" width="12" x="1416.5" y="210.5" />
<text class="label unused" x="1422.5" y="223.5">0</text>
<rect fill="none" height="24" stroke="#405C86" stroke-dasharray="3 1" stroke-dashoffset="1.5" stroke-width="1" width="12" x="1404.5" y="210.5" />
<text class="label unused" x="1410.5" y="223.5">0</text>
<rect fill="none" height="24" stroke="#405C86" stroke-dasharray="3 1" stroke-dashoffset="1.5" stroke-width="1" width="12" x="1392.5" y="210.5" />
<text class="label unused" x="1398.5" y="223.5">0</text>
<rect fill="none" height="24" stroke="#405C86" stroke-dasharray="3 1" stroke-dashoffset="1.5" stroke-width="1" width="12" x="1380.5" y="210.5" />
<text class="label unused" x="1386.5" y="223.5">0</text>
<rect fill="none" height="24" stroke="#405C86" stroke-dasharray="3 1" stroke-dashoffset="1.5" stroke-width="1" width="12" x="1368.5" y="210.5" />
<text class="label unused" x="1374.5" y="223.5">0</text>
<rect fill="none" height="24" stroke="#405C86" stroke-dasharray="3 1" stroke-dashoffset="1.5" stroke-width="1" width="12" x="1356.5" y="210.5" />
<text class="label unused" x="1362.5" y="223.5">0</text>
<rect fill="none" height="24" stroke="#405C86" stroke-dasharray="3 1" stroke-dashoffset="1.5" stroke-width="1" width="12" x="1344.5" y="210.5" />
<text class="label unused" x="1350.5" y="223.5">0</text>
<rect fill="#DEE6F1" height="24" width="12" x="1332.5" y="210.5" />
<rect fill="none" height="24" stroke="#405C86" stroke-width="3" width="12" x="1332.5" y="210.5" />
<rect fill="none" height="24" stroke="#405C86" stroke-dasharray="3 1" stroke-dashoffset="1.5" stroke-width="1" width="12" x="1320.5" y="210.5" />
<text class="label unused" x="1326.5" y="223.5">0</text>
<rect fill="none" height="24" stroke="#405C86" stroke-dasharray="3 1" stroke-dashoffset="1.5" stroke-width="1" width="12" x="1308.5" y="210.5" />
<text class="label unused" x="1314.5" y="223.5">0</text>
<rect fill="none" height="24" stroke="#405C86" stroke-dasharray="3 1" stroke-dashoffset="1.5" stroke-width="1" width="12" x="1296.5" y="210.5" />
<text class="label unused" x="1302.5" y="223.5">0</text>
<rect fill="none" height="24" stroke="#405C86" stroke-dasharray="3 1" stroke-dashoffset="1.5" stroke-width="1" width="12" x="1284.5" y="210.5" />
<text class="label unused" x="1290.5" y="223.5">0</text>
<rect fill="none" height="24" stroke="#405C86" stroke-dasharray="3 1" stroke-dashoffset="1.5" stroke-width="1" width="12" x="1272.5" y="210.5" />
<text class="label unused" x="1278.5" y="223.5">0</text>
<rect fill="none" height="24" stroke="#405C86" stroke-dasharray="3 1" stroke-dashoffset="1.5" stroke-width="1" width="12" x="1260.5" y="210.5" />
<text class="label unused" x="1266.5" y="223.5">0</text>
<rect fill="none" height="24" stroke="#405C86" stroke-dasharray="3 1" stroke-dashoffset="1.5" stroke-width="1" width="12" x="1248.5" y="210.5" />
<text class="label unused" x="1254.5" y="223.5">0</text>
<rect fill="#DEE6F1" height="24" width="12" x="1236.5" y="210.5" />
<rect fill="none" height="24" stroke="#405C86" stroke-width="3" width="12" x="1236.5" y="210.5" />
<rect fill="none" height="24" stroke="#405C86" stroke-dasharray="3 1" stroke-dashoffset="1.5" stroke-width="1" width="12" x="1224.5" y="210.5" />
<text class="label unused" x="1230.5" y="223.5">0</text>
<rect fill="none" height="24" stroke="#405C86" stroke-dasharray="3 1" stroke-dashoffset="1.5" stroke-width="1" width="12" x="1212.5" y="210.5" />
<text class="label unused" x="1218.5" y="223.5">0</text>
<rect fill="none" height="24" stroke="#405C86" stroke-dasharray="3 1" stroke-dashoffset="1.5" stroke-width="1" width="12" x="1200.5" y="210.5" />
<text class="label unused" x="1206.5" y="223.5">0</text>
<rect fill="none" height="24" stroke="#405C86" stroke-dasharray="3 1" stroke-dashoffset="1.5" stroke-width="1" width="12" x="1188.5" y="210.5" />
<text class="label unused" x="1194.5" y="223.5">0</text>
<rect fill="none" height="24" stroke="#405C86" stroke-dasharray="3 1" stroke-dashoffset="1.5" stroke-width="1" width="12" x="1176.5" y="210.5" />
<text class="label unused" x="1182.5" y="223.5">0</text>
<rect fill="none" height="24" stroke="#405C86" stroke-dasharray="3 1" stroke-dashoffset="1.5" stroke-width="1" width="12" x="1164.5" y="210.5" />
<text class="label unused" x="1170.5" y="223.5">0</text>
<rect fill="none" height="24" stroke="#405C86" stroke-dasharray="3 1" stroke-dashoffset="1.5" stroke-width="1" width="12" x="1152.5" y="210.5" />
<text class="label unused" x="1158.5" y="223.5">0</text>
<rect fill="#DEE6F1" height="24" width="12" x="1140.5" y="210.5" />
<rect fill="none" height="24" stroke="#405C86" stroke-width="3" width="12" x="1140.5" y="210.5" />
<rect fill="none" height="24" stroke="#405C86" stroke-dasharray="3 1" stroke-dashoffset="1.5" stroke-width="1" width="12" x="1128.5" y="210.5" />
<text class="label unused" x="1134.5" y="223.5">0</text>
<rect fill="none" height="24" stroke="#405C86" stroke-dasharray="3 1" stroke-dashoffset="1.5" stroke-width="1" width="12" x="1116.5" y="210.5" />
<text class="label unused" x="1122.5" y="223.5">0</text>
<rect fill="none" height="24" stroke="#405C86" stroke-dasharray="3 1" stroke-dashoffset="1.5" stroke-width="1" width="12" x="1104.5" y="210.5" />
<text class="label unused" x="1110.5" y="223.5">0</text>
<rect fill="none" height="24" stroke="#405C86" stroke-dasharray="3 1" stroke-dashoffset="1.5" stroke-width="1" width="12" x="1092.5" y="210.5" />
<text class="label unused" x="1098.5" y="223.5">0</text>
<rect fill="none" height="24" stroke="#405C86" stroke-dasharray="3 1" stroke-dashoffset="1.5" stroke-width="1" width="12" x="1080.5" y="210.5" />
<text class="label unused" x="1086.5" y="223.5">0</text>
<rect fill="none" height="24" stroke="#405C86" stroke-dasharray="3 1" stroke-dashoffset="1.5" stroke-width="1" width="12" x="1068.5" y="210.5" />
<text class="label unused" x="1074.5" y="223.5">0</text>
<rect fill="none" height="24" stroke="#405C86" stroke-dasharray="3 1" stroke-dashoffset="1.5" stroke-width="1" width="12" x="1056.5" y="210.5" />
<text class="label unused" x="1062.5" y="223.5">0</text>
<rect fill="#DEE6F1" height="24" width="12" x="1044.5" y="210.5" />
<rect fill="none" height="24" stroke="#405C86" stroke-width="3" width="12" x="1044.5" y="210.5" />
<rect fill="none" height="24" stroke="#405C86" stroke-dasharray="3 1" stroke-dashoffset="1.5" stroke-width="1" width="12" x="1032.5" y="210.5" />
<text class="label unused" x="1038.5" y="223.5">0</text>
<rect fill="none" height="24" stroke="#405C86" stroke-dasharray="3 1" stroke-dashoffset="1.5" stroke-width="1" width="12" x="1020.5" y="210.5" />
<text class="label unused" x="1026.5" y="223.5">0</text>
<rect fill="none" height="24" stroke="#405C86" stroke-dasharray="3 1" stroke-dashoffset="1.5" stroke-width="1" width="12" x="1008.5" y="210.5" />
<text class="label unused" x="1014.5" y="223.5">0</text>
<rect fill="none" height="24" stroke="#405C86" stroke-dasharray="3 1" stroke-dashoffset="1.5" stroke-width="1" width="12" x="996.5" y="210.5" />
<text class="label unused" x="1002.5" y="223.5">0</text>
<rect fill="none" height="24" stroke="#405C86" stroke-dasharray="3 1" stroke-dashoffset="1.5" stroke-width="1" width="12" x="984.5" y="210.5" />
<text class="label unused" x="990.5" y="223.5">0</text>
<rect fill="none" height="24" stroke="#405C86" stroke-dasharray="3 1" stroke-dashoffset="1.5" stroke-width="1" width="12" x="972.5" y="210.5" />
<text class="label unused" x="978.5" y="223.5">0</text>
<rect fill="none" height="24" stroke="#405C86" stroke-dasharray="3 1" stroke-dashoffset="1.5" stroke-width="1" width="12" x="960.5" y="210.5" />
<text class="label unused" x="966.5" y="223.5">0</text>
<rect fill="#DEE6F1" height="24" width="12" x="948.5" y="210.5" />
<rect fill="none" height="24" stroke="#405C86" stroke-width="3" width="12" x="948.5" y="210.5" />
<rect fill="none" height="24" stroke="#405C86" stroke-dasharray="3 1" stroke-dashoffset="1.5" stroke-width="1" width="12" x="936.5" y="210.5" />
<text class="label unused" x="942.5" y="223.5">0</text>
<rect fill="none" height="24" stroke="#405C86" stroke-dasharray="3 1" stroke-dashoffset="1.5" stroke-width="1" width="12" x="924.5" y="210.5" />
<text class="label unused" x="930.5" y="223.5">0</text>
<rect fill="none" height="24" stroke="#405C86" stroke-dasharray="3 1" stroke-dashoffset="1.5" stroke-width="1" width="12" x="912.5" y="210.5" />
<text class="label unused" x="918.5" y="223.5">0</text>
<rect fill="none" height="24" stroke="#405C86" stroke-dasharray="3 1" stroke-dashoffset="1.5" stroke-width="1" width="12" x="900.5" y="210.5" />
<text class="label unused" x="906.5" y="223.5">0</text>
<rect fill="none" height="24" stroke="#405C86" stroke-dasharray="3 1" stroke-dashoffset="1.5" stroke-width="1" width="12" x="888.5" y="210.5" />
<text class="label unused" x="894.5" y="223.5">0</text>
<rect fill="none" height="24" stroke="#405C86" stroke-dasharray="3 1" stroke-dashoffset="1.5" stroke-width="1" width="12" x="876.5" y="210.5" />
<text class="label unused" x="882.5" y="223.5">0</text>
<rect fill="none" height="24" stroke="#405C86" stroke-dasharray="3 1" stroke-dashoffset="1.5" stroke-width="1" width="12" x="864.5" y="210.5" />
<text class="label unused" x="870.5" y="223.5">0</text>
<rect fill="#DEE6F1" height="24" width="12" x="852.5" y="210.5" />
<rect fill="none" height="24" stroke="#405C86" stroke-width="3" width="12" x="852.5" y="210.5" />
<rect fill="none" height="24" stroke="#405C86" stroke-dasharray="3 1" stroke-dashoffset="1.5" stroke-width="1" width="12" x="840.5" y="210.5" />
<text class="label unused" x="846.5" y="223.5">0</text>
<rect fill="none" height="24" stroke="#405C86" stroke-dasharray="3 1" stroke-dashoffset="1.5" stroke-width="1" width="12" x="828.5" y="210.5" />
<text class="label unused" x="834.5" y="223.5">0</text>
<rect fill="none" height="24" stroke="#405C86" stroke-dasharray="3 1" stroke-dashoffset="1.5" stroke-width="1" width="12" x="816.5" y="210.5" />
<text class="label unused" x="822.5" y="223.5">0</text>
<rect fill="none" height="24" stroke="#405C86" stroke-dasharray="3 1" stroke-dashoffset="1.5" stroke-width="1" width="12" x="804.5" y="210.5" />
<text class="label unused" x="810.5" y="223.5">0</text>
<rect fill="none" height="24" stroke="#405C86" stroke-dasharray="3 1" stroke-dashoffset="1.5" stroke-width="1" width="12" x="792.5" y="210.5" />
<text class="label unused" x="798.5" y="223.5">0</text>
<rect fill="none" height="24" stroke="#405C86" stroke-dasharray="3 1" stroke-dashoffset="1.5" stroke-width="1" width="12" x="780.5" y="210.5" />
<text class="label unused" x="786.5" y="223.5">0</text>
<rect fill="none" height="24" stroke="#405C86" stroke-dasharray="3 1" stroke-dashoffset="1.5" stroke-width="1" width="12" x="768.5" y="210.5" />
<text class="label unused" x="774.5" y="223.5">0</text>
<rect fill="#DEE6F1" height="24" width="12" x="756.5" y="210.5" />
<rect fill="none" height="24" stroke="#405C86" stroke-width="3" width="12" x="756.5" y="210.5" />
<rect fill="none" height="24" stroke="#405C86" stroke-dasharray="3 1" stroke-dashoffset="1.5" stroke-width="1" width="12" x="744.5" y="210.5" />
<text class="label unused" x="750.5" y="223.5">0</text>
<rect fill="none" height="24" stroke="#405C86" stroke-dasharray="3 1" stroke-dashoffset="1.5" stroke-width="1" width="12" x="732.5" y="210.5" />
<text class="label unused" x="738.5" y="223.5">0</text>
<rect fill="none" height="24" stroke="#405C86" stroke-dasharray="3 1" stroke-dashoffset="1.5" stroke-width="1" width="12" x="720.5" y="210.5" />
<text class="label unused" x="726.5" y="223.5">0</text>
<rect fill="none" height="24" stroke="#405C86" stroke-dasharray="3 1" stroke-dashoffset="1.5" stroke-width="1" width="12" x="708.5" y="210.5" />
<text class="label unused" x="714.5" y="223.5">0</text>
<rect fill="none" height="24" stroke="#405C86" stroke-dasharray="3 1" stroke-dashoffset="1.5" stroke-width="1" width="12" x="696.5" y="210.5" />
<text class="label unused" x="702.5" y="223.5">0</text>
<rect fill="none" height="24" stroke="#405C86" stroke-dasharray="3 1" stroke-dashoffset="1.5" stroke-width="1" width="12" x="684.5" y="210.5" />
<text class="label unused" x="690.5" y="223.5">0</text>
<rect fill="none" height="24" stroke="#405C86" stroke-dasharray="3 1" stroke-dashoffset="1.5" stroke-width="1" width="12" x="672.5" y="210.5" />
<text class="label unused" x="678.5" y="223.5">0</text>
<rect fill="#DEE6F1" height="24" width="12" x="660.5" y="210.5" />
<rect fill="none" height="24" stroke="#405C86" stroke-width="3" width="12" x="660.5" y="210.5" />
<rect fill="none" height="24" stroke="#405C86" stroke-dasharray="3 1" stroke-dashoffset="1.5" stroke-width="1" width="12" x="648.5" y="210.5" />
<text class="label unused" x="654.5" y="223.5">0</text>
<rect fill="none" height="24" stroke="#405C86" stroke-dasharray="3 1" stroke-dashoffset="1.5" stroke-width="1" width="12" x="636.5" y="210.5" />
<text class="label unused" x="642.5" y="223.5">0</text>
<rect fill="none" height="24" stroke="#405C86" stroke-dasharray="3 1" stroke-dashoffset="1.5" stroke-width="1" width="12" x="624.5" y="210.5" />
<text class="label unused" x="630.5" y="223.5">0</text>
<rect fill="none" height="24" stroke="#405C86" stroke-dasharray="3 1" stroke-dashoffset="1.5" stroke-width="1" width="12" x="612.5" y="210.5" />
<text class="label unused" x="618.5" y="223.5">0</text>
<rect fill="none" height="24" stroke="#405C86" stroke-dasharray="3 1" stroke-dashoffset="1.5" stroke-width="1" width="12" x="600.5" y="210.5" />
<text class="label unused" x="606.5" y="223.5">0</text>
<rect fill="none" height="24" stroke="#405C86" stroke-dasharray="3 1" stroke-dashoffset="1.5" stroke-width="1" width="12" x="588.5" y="210.5" />
<text class="label unused" x="594.5" y="223.5">0</text>
<rect fill="none" height="24" stroke="#405C86" stroke-dasharray="3 1" stroke-dashoffset="1.5" stroke-width="1" width="12" x="576.5" y="210.5" />
<text class="label unused" x="582.5" y="223.5">0</text>
<rect fill="#DEE6F1" height="24" width="12" x="564.5" y="210.5" />
<rect fill="none" height="24" stroke="#405C86" stroke-width="3" width="12" x="564.5" y="210.5" />
<rect fill="none" height="24" stroke="#405C86" stroke-dasharray="3 1" stroke-dashoffset="1.5" stroke-width="1" width="12" x="552.5" y="210.5" />
<text class="label unused" x="558.5" y="223.5">0</text>
<rect fill="none" height="24" stroke="#405C86" stroke-dasharray="3 1" stroke-dashoffset="1.5" stroke-width="1" width="12" x="540.5" y="210.5" />
<text class="label unused" x="546.5" y="223.5">0</text>
<rect fill="none" height="24" stroke="#405C86" stroke-dasharray="3 1" stroke-dashoffset="1.5" stroke-width="1" width="12" x="528.5" y="210.5" />
<text class="label unused" x="534.5" y="223.5">0</text>
<rect fill="none" height="24" stroke="#405C86" stroke-dasharray="3 1" stroke-dashoffset="1.5" stroke-width="1" width="12" x="516.5" y="210.5" />
<text class="label unused" x="522.5" y="223.5">0</text>
<rect fill="none" height="24" stroke="#405C86" stroke-dasharray="3 1" stroke-dashoffset="1.5" stroke-width="1" width="12" x="504.5" y="210.5" />
<text class="label unused" x="510.5" y="223.5">0</text>
<rect fill="none" height="24" stroke="#405C86" stroke-dasharray="3 1" stroke-dashoffset="1.5" stroke-width="1" width="12" x="492.5" y="210.5" />
<text class="label unused" x="498.5" y="223.5">0</text>
<rect fill="none" height="24" stroke="#405C86" stroke-dasharray="3 1" stroke-dashoffset="1.5" stroke-width="1" width="12" x="480.5" y="210.5" />
<text class="label unused" x="486.5" y="223.5">0</text>
<rect fill="#DEE6F1" height="24" width="12" x="468.5" y="210.5" />
<rect fill="none" height="24" stroke="#405C86" stroke-width="3" width="12" x="468.5" y="210.5" />
<rect fill="none" height="24" stroke="#405C86" stroke-dasharray="3 1" stroke-dashoffset="1.5" stroke-width="1" width="12" x="456.5" y="210.5" />
<text class="label unused" x="462.5" y="223.5">0</text>
<rect fill="none" height="24" stroke="#405C86" stroke-dasharray="3 1" stroke-dashoffset="1.5" stroke-width="1" width="12" x="444.5" y="210.5" />
<text class="label unused" x="450.5" y="223.5">0</text>
<rect fill="none" height="24" stroke="#405C86" stroke-dasharray="3 1" stroke-dashoffset="1.5" stroke-width="1" width="12" x="432.5" y="210.5" />
<text class="label unused" x="438.5" y="223.5">0</text>
<rect fill="none" height="24" stroke="#405C86" stroke-dasharray="3 1" stroke-dashoffset="1.5" stroke-width="1" width="12" x="420.5" y="210.5" />
<text class="label unused" x="426.5" y="223.5">0</text>
<rect fill="none" height="24" stroke="#405C86" stroke-dasharray="3 1" stroke-dashoffset="1.5" stroke-width="1" width="12" x="408.5" y="210.5" />
<text class="label unused" x="414.5" y="223.5">0</text>
<rect fill="none" height="24" stroke="#405C86" stroke-dasharray="3 1" stroke-dashoffset="1.5" stroke-width="1" width="12" x="396.5" y="210.5" />
<text class="label unused" x="402.5" y="223.5">0</text>
<rect fill="none" height="24" stroke="#405C86" stroke-dasharray="3 1" stroke-dashoffset="1.5" stroke-width="1" width="12" x="384.5" y="210.5" />
<text class="label unused" x="390.5" y="223.5">0</text>
<rect fill="#DEE6F1" height="24" width="12" x="372.5" y="210.5" />
<rect fill="none" height="24" stroke="#405C86" stroke-width="3" width="12" x="372.5" y="210.5" />
<rect fill="none" height="24" stroke="#405C86" stroke-dasharray="3 1" stroke-dashoffset="1.5" stroke-width="1" width="12" x="360.5" y="210.5" />
<text class="label unused" x="366.5" y="223.5">0</text>
<rect fill="none" height="24" stroke="#405C86" stroke-dasharray="3 1" stroke-dashoffset="1.5" stroke-width="1" width="12" x="348.5" y="210.5" />
<text class="label unused" x="354.5" y="223.5">0</text>
<rect fill="none" height="24" stroke="#405C86" stroke-dasharray="3 1" stroke-dashoffset="1.5" stroke-width="1" width="12" x="336.5" y="210.5" />
<text class="label unused" x="342.5" y="223.5">0</text>
<rect fill="none" height="24" stroke="#405C86" stroke-dasharray="3 1" stroke-dashoffset="1.5" stroke-width="1" width="12" x="324.5" y="210.5" />
<text class="label unused" x="330.5" y="223.5">0</text>
<rect fill="none" height="24" stroke="#405C86" stroke-dasharray="3 1" stroke-dashoffset="1.5" stroke-width="1" width="12" x="312.5" y="210.5" />
<text class="label unused" x="318.5" y="223.5">0</text>
<rect fill="none" height="24" stroke="#405C86" stroke-dasharray="3 1" stroke-dashoffset="1.5" stroke-width="1" width="12" x="300.5" y="210.5" />
<text class="label unused" x="306.5" y="223.5">0</text>
<rect fill="none" height="24" stroke="#405C86" stroke-dasharray="3 1" stroke-dashoffset="1.5" stroke-width="1" width="12" x="288.5" y="210.5" />
<text class="label unused" x="294.5" y="223.5">0</text>
<rect fill="#DEE6F1" height="24" width="12" x="276.5" y="210.5" />
<rect fill="none" height="24" stroke="#405C86" stroke-width="3" width="12" x="276.5" y="210.5" />
<rect fill="none" height="24" stroke="#405C86" stroke-dasharray="3 1" stroke-dashoffset="1.5" stroke-width="1" width="12" x="264.5" y="210.5" />
<text class="label unused" x="270.5" y="223.5">0</text>
<rect fill="none" height="24" stroke="#405C86" stroke-dasharray="3 1" stroke-dashoffset="1.5" stroke-width="1" width="12" x="252.5" y="210.5" />
<text class="label unused" x="258.5" y="223.5">0</text>
<rect fill="none" height="24" stroke="#405C86" stroke-dasharray="3 1" stroke-dashoffset="1.5" stroke-width="1" width="12" x="240.5" y="210.5" />
<text class="label unused" x="246.5" y="223.5">0</text>
<rect fill="none" height="24" stroke="#405C86" stroke-dasharray="3 1" stroke-dashoffset="1.5" stroke-width="1" width="12" x="228.5" y="210.5" />
<text class="label unused" x="234.5" y="223.5">0</text>
<rect fill="none" height="24" stroke="#405C86" stroke-dasharray="3 1" stroke-dashoffset="1.5" stroke-width="1" width="12" x="216.5" y="210.5" />
<text class="label unused" x="222.5" y="223.5">0</text>
<rect fill="none" height="24" stroke="#405C86" stroke-dasharray="3 1" stroke-dashoffset="1.5" stroke-width="1" width="12" x="204.5" y="210.5" />
<text class="label unused" x="210.5" y="223.5">0</text>
<rect fill="none" height="24" stroke="#405C86" stroke-dasharray="3 1" stroke-dashoffset="1.5" stroke-width="1" width="12" x="192.5" y="210.5" />
<text class="label unused" x="198.5" y="223.5">0</text>
<rect fill="#DEE6F1" height="24" width="12" x="180.5" y="210.5" />
<rect fill="none" height="24" stroke="#405C86" stroke-width="3" width="12" x="180.5" y="210.5" />
<rect fill="none" height="24" stroke="#405C86" stroke-dasharray="3 1" stroke-dashoffset="1.5" stroke-width="1" width="12" x="168.5" y="210.5" />
<text class="label unused" x="174.5" y="223.5">0</text>
<rect fill="none" height="24" stroke="#405C86" stroke-dasharray="3 1" stroke-dashoffset="1.5" stroke-width="1" width="12" x="156.5" y="210.5" />
<text class="label unused" x="162.5" y="223.5">0</text>
<rect fill="none" height="24" stroke="#405C86" stroke-dasharray="3 1" stroke-dashoffset="1.5" stroke-width="1" width="12" x="144.5" y="210.5" />
<text class="label unused" x="150.5" y="223.5">0</text>
<rect fill="none" height="24" stroke="#405C86" stroke-dasharray="3 1" stroke-dashoffset="1.5" stroke-width="1" width="12" x="132.5" y="210.5" />
<text class="label unused" x="138.5" y="223.5">0</text>
<rect fill="none" height="24" stroke="#405C86" stroke-dasharray="3 1" stroke-dashoffset="1.5" stroke-width="1" width="12" x="120.5" y="210.5" />
<text class="label unused" x="126.5" y="223.5">0</text>
<rect fill="none" height="24" stroke="#405C86" stroke-dasharray="3 1" stroke-dashoffset="1.5" stroke-width="1" width="12" x="108.5" y="210.5" />
<text class="label unused" x="114.5" y="223.5">0</text>
<rect fill="none" height="24" stroke="#405C86" stroke-dasharray="3 1" stroke-dashoffset="1.5" stroke-width="1" width="12" x="96.5" y="210.5" />
<text class="label unused" x="102.5" y="223.5">0</text>
<rect fill="#ECF1E0" height="24" width="12" x="468.5" y="282.5" />
<rect fill="none" height="24" stroke="#405C86" stroke-width="3" width="12" x="468.5" y="282.5" />
<text class="label" x="474.5" y="295.5">0</text>
<rect fill="#ECF1E0" height="24" width="12" x="456.5" y="282.5" />
<rect fill="none" height="24" stroke="#405C86" stroke-width="3" width="12" x="456.5" y="282.5" />
<text class="label" x="462.5" y="295.5">0</text>
<rect fill="#ECF1E0" height="24" width="12" x="444.5" y="282.5" />
<rect fill="none" height="24" stroke="#405C86" stroke-width="3" width="12" x="444.5" y="282.5" />
<text class="label" x="450.5" y="295.5">0</text>
<rect fill="#ECF1E0" height="24" width="12" x="432.5" y="282.5" />
<rect fill="none" height="24" stroke="#405C86" stroke-width="3" width="12" x="432.5" y="282.5" />
<text class="label" x="438.5" y="295.5">1</text>
<rect fill="#DEE6F1" height="24" width="12" x="420.5" y="282.5" />
<rect fill="none" height="24" stroke="#405C86" stroke-width="3" width="12" x="420.5" y="282.5" />
<rect fill="#DEE6F1" height="24" width="12" x="408.5" y="282.5" />
<rect fill="none" height="24" stroke="#405C86" stroke-width="3" width="12" x="408.5" y="282.5" />
<rect fill="#DEE6F1" height="24" width="12" x="396.5" y="282.5" />
<rect fill="none" height="24" stroke="#405C86" stroke-width="3" width="12" x="396.5" y="282.5" />
<rect fill="#DEE6F1" height="24" width="12" x="384.5" y="282.5" />
<rect fill="none" height="24" stroke="#405C86" stroke-width="3" width="12" x="384.5" y="282.5" />
<rect fill="#DEE6F1" height="24" width="12" x="372.5" y="282.5" />
<rect fill="none" height="24" stroke="#405C86" stroke-width="3" width="12" x="372.5" y="282.5" />
<rect fill="#DEE6F1" height="24" width="12" x="360.5" y="282.5" />
<rect fill="none" height="24" stroke="#405C86" stroke-width="3" width="12" x="360.5" y="282.5" />
<rect fill="#DEE6F1" height="24" width="12" x="348.5" y="282.5" />
<rect fill="none" height="24" stroke="#405C86" stroke-width="3" width="12" x="348.5" y="282.5" />
<rect fill="#DEE6F1" height="24" width="12" x="336.5" y="282.5" />
<rect fill="none" height="24" stroke="#405C86" stroke-width="3" width="12" x="336.5" y="282.5" />
<rect fill="#DEE6F1" height="24" width="12" x="324.5" y="282.5" />
<rect fill="none" height="24" stroke="#405C86" stroke-width="3" width="12" x="324.5" y="282.5" />
<rect fill="#DEE6F1" height="24" width="12" x="312.5" y="282.5" />
<rect fill="none" height="24" stroke="#405C86" stroke-width="3" width="12" x="312.5" y="282.5" />
<rect fill="#DEE6F1" height="24" width="12" x="300.5" y="282.5" />
<rect fill="none" height="24" stroke="#405C86" stroke-width="3" width="12" x="300.5" y="282.5" />
<rect fill="#EEDDDB" height="24" width="12" x="288.5" y="282.5" />
<rect fill="none" height="24" stroke="#405C86" stroke-width="3" width="12" x="288.5" y="282.5" />
<rect fill="none" height="24" stroke="#405C86" stroke-dasharray="3 1" stroke-dashoffset="1.5" stroke-width="1" width="192" x="96.5" y="282.5" />
<text class="label unused" x="192.5" y="295.5">zero clear</text>
<text class="register-name" x="80.5" y="294.5">PNd</text>
<text class="intrinsic-name" x="80.5" y="306.5">returns</text>
<text class="register-number" x="10" y="294.5">(3)</text>
</svg>