<svg xmlns="http://www.w3.org/2000/svg" viewBox="0 0 6246 171">
<style>
.label { font: 14px Helvetica; dominant-baseline: middle; text-anchor: middle; }
.title-left { font: 12px Helvetica; dominant-baseline: middle; }
.title-right { font: 12px Helvetica; dominant-baseline: middle; text-anchor: end; }
.title-intrinsic { font: 12px Helvetica; dominant-baseline: middle; text-anchor: middle; fill: #6778ED; }
.title { font: 12px Helvetica; dominant-baseline: middle; text-anchor: middle; }
.title-unused { font: 12px Helvetica; dominant-baseline: middle; text-anchor: middle; fill: #AAA; }
.register-name { font: 14px Helvetica; dominant-baseline: middle; text-anchor: end; font-style: italic; }
.memory-name { font: 14px Helvetica; dominant-baseline: middle; text-anchor: end; }
.register-number { font: 14px Helvetica; dominant-baseline: middle; text-anchor: start; }
.intrinsic-name { font: 14px Helvetica; dominant-baseline: middle; text-anchor: end; fill: #6778ED; }
.intrinsic-color { fill: #6778ED; }
.small-label { font: 12px Helvetica; dominant-baseline: middle; text-anchor: middle; }
.label-10px { font: 10px Helvetica; dominant-baseline: middle; text-anchor: middle; }
.smaller-label { font: 9px Helvetica; dominant-baseline: middle; text-anchor: middle; }
.label-6px { font: 6px Helvetica; dominant-baseline: middle; text-anchor: middle; }
.label-7px { font: 7px Helvetica; dominant-baseline: middle; text-anchor: middle; }
.unused { fill: #AAA; }
.dim { fill: #888; }
</style>
<defs>
<marker id="arrowhead" markerWidth="10.75" markerHeight="24.5" refX="9.0" refY="6.125" orient="auto">
<polyline points="0.5 0.5, 8.75 6.125, 0.5 11.75" stroke="#567DB6" stroke-width="1" fill="none"/>
</marker>
</defs>
<text class="title-left" x="90.5" y="9.5">upper</text>
<text class="title-right" x="6234.5" y="9.5">lower</text>
<rect fill="none" height="24" stroke="#405C86" stroke-dasharray="3 1" stroke-dashoffset="1.5" stroke-width="1" width="3072" x="3162.5" y="18.5" />
<text class="label unused" x="4698.5" y="31.5"></text>
<rect fill="#DEE6F1" height="24" width="96" x="3066.5" y="18.5" />
<rect fill="none" height="24" stroke="#405C86" stroke-width="3" width="96" x="3066.5" y="18.5" />
<text class="label" x="3114.5" y="31.5">32</text>
<rect fill="#DEE6F1" height="24" width="96" x="2970.5" y="18.5" />
<rect fill="none" height="24" stroke="#405C86" stroke-width="3" width="96" x="2970.5" y="18.5" />
<text class="label" x="3018.5" y="31.5">33</text>
<rect fill="#DEE6F1" height="24" width="96" x="2874.5" y="18.5" />
<rect fill="none" height="24" stroke="#405C86" stroke-width="3" width="96" x="2874.5" y="18.5" />
<text class="label" x="2922.5" y="31.5">34</text>
<rect fill="#DEE6F1" height="24" width="96" x="2778.5" y="18.5" />
<rect fill="none" height="24" stroke="#405C86" stroke-width="3" width="96" x="2778.5" y="18.5" />
<text class="label" x="2826.5" y="31.5">35</text>
<rect fill="#DEE6F1" height="24" width="96" x="2682.5" y="18.5" />
<rect fill="none" height="24" stroke="#405C86" stroke-width="3" width="96" x="2682.5" y="18.5" />
<text class="label" x="2730.5" y="31.5">36</text>
<rect fill="#DEE6F1" height="24" width="96" x="2586.5" y="18.5" />
<rect fill="none" height="24" stroke="#405C86" stroke-width="3" width="96" x="2586.5" y="18.5" />
<text class="label" x="2634.5" y="31.5">37</text>
<rect fill="#DEE6F1" height="24" width="96" x="2490.5" y="18.5" />
<rect fill="none" height="24" stroke="#405C86" stroke-width="3" width="96" x="2490.5" y="18.5" />
<text class="label" x="2538.5" y="31.5">38</text>
<rect fill="#DEE6F1" height="24" width="96" x="2394.5" y="18.5" />
<rect fill="none" height="24" stroke="#405C86" stroke-width="3" width="96" x="2394.5" y="18.5" />
<text class="label" x="2442.5" y="31.5">39</text>
<rect fill="#DEE6F1" height="24" width="96" x="2298.5" y="18.5" />
<rect fill="none" height="24" stroke="#405C86" stroke-width="3" width="96" x="2298.5" y="18.5" />
<text class="label" x="2346.5" y="31.5">40</text>
<rect fill="#DEE6F1" height="24" width="96" x="2202.5" y="18.5" />
<rect fill="none" height="24" stroke="#405C86" stroke-width="3" width="96" x="2202.5" y="18.5" />
<text class="label" x="2250.5" y="31.5">41</text>
<rect fill="#DEE6F1" height="24" width="96" x="2106.5" y="18.5" />
<rect fill="none" height="24" stroke="#405C86" stroke-width="3" width="96" x="2106.5" y="18.5" />
<text class="label" x="2154.5" y="31.5">42</text>
<rect fill="#DEE6F1" height="24" width="96" x="2010.5" y="18.5" />
<rect fill="none" height="24" stroke="#405C86" stroke-width="3" width="96" x="2010.5" y="18.5" />
<text class="label" x="2058.5" y="31.5">43</text>
<rect fill="#DEE6F1" height="24" width="96" x="1914.5" y="18.5" />
<rect fill="none" height="24" stroke="#405C86" stroke-width="3" width="96" x="1914.5" y="18.5" />
<text class="label" x="1962.5" y="31.5">44</text>
<rect fill="#DEE6F1" height="24" width="96" x="1818.5" y="18.5" />
<rect fill="none" height="24" stroke="#405C86" stroke-width="3" width="96" x="1818.5" y="18.5" />
<text class="label" x="1866.5" y="31.5">45</text>
<rect fill="#DEE6F1" height="24" width="96" x="1722.5" y="18.5" />
<rect fill="none" height="24" stroke="#405C86" stroke-width="3" width="96" x="1722.5" y="18.5" />
<text class="label" x="1770.5" y="31.5">46</text>
<rect fill="#DEE6F1" height="24" width="96" x="1626.5" y="18.5" />
<rect fill="none" height="24" stroke="#405C86" stroke-width="3" width="96" x="1626.5" y="18.5" />
<text class="label" x="1674.5" y="31.5">47</text>
<rect fill="#DEE6F1" height="24" width="96" x="1530.5" y="18.5" />
<rect fill="none" height="24" stroke="#405C86" stroke-width="3" width="96" x="1530.5" y="18.5" />
<text class="label" x="1578.5" y="31.5">48</text>
<rect fill="#DEE6F1" height="24" width="96" x="1434.5" y="18.5" />
<rect fill="none" height="24" stroke="#405C86" stroke-width="3" width="96" x="1434.5" y="18.5" />
<text class="label" x="1482.5" y="31.5">49</text>
<rect fill="#DEE6F1" height="24" width="96" x="1338.5" y="18.5" />
<rect fill="none" height="24" stroke="#405C86" stroke-width="3" width="96" x="1338.5" y="18.5" />
<text class="label" x="1386.5" y="31.5">50</text>
<rect fill="#DEE6F1" height="24" width="96" x="1242.5" y="18.5" />
<rect fill="none" height="24" stroke="#405C86" stroke-width="3" width="96" x="1242.5" y="18.5" />
<text class="label" x="1290.5" y="31.5">51</text>
<rect fill="#DEE6F1" height="24" width="96" x="1146.5" y="18.5" />
<rect fill="none" height="24" stroke="#405C86" stroke-width="3" width="96" x="1146.5" y="18.5" />
<text class="label" x="1194.5" y="31.5">52</text>
<rect fill="#DEE6F1" height="24" width="96" x="1050.5" y="18.5" />
<rect fill="none" height="24" stroke="#405C86" stroke-width="3" width="96" x="1050.5" y="18.5" />
<text class="label" x="1098.5" y="31.5">53</text>
<rect fill="#DEE6F1" height="24" width="96" x="954.5" y="18.5" />
<rect fill="none" height="24" stroke="#405C86" stroke-width="3" width="96" x="954.5" y="18.5" />
<text class="label" x="1002.5" y="31.5">54</text>
<rect fill="#DEE6F1" height="24" width="96" x="858.5" y="18.5" />
<rect fill="none" height="24" stroke="#405C86" stroke-width="3" width="96" x="858.5" y="18.5" />
<text class="label" x="906.5" y="31.5">55</text>
<rect fill="#DEE6F1" height="24" width="96" x="762.5" y="18.5" />
<rect fill="none" height="24" stroke="#405C86" stroke-width="3" width="96" x="762.5" y="18.5" />
<text class="label" x="810.5" y="31.5">56</text>
<rect fill="#DEE6F1" height="24" width="96" x="666.5" y="18.5" />
<rect fill="none" height="24" stroke="#405C86" stroke-width="3" width="96" x="666.5" y="18.5" />
<text class="label" x="714.5" y="31.5">57</text>
<rect fill="#DEE6F1" height="24" width="96" x="570.5" y="18.5" />
<rect fill="none" height="24" stroke="#405C86" stroke-width="3" width="96" x="570.5" y="18.5" />
<text class="label" x="618.5" y="31.5">58</text>
<rect fill="#DEE6F1" height="24" width="96" x="474.5" y="18.5" />
<rect fill="none" height="24" stroke="#405C86" stroke-width="3" width="96" x="474.5" y="18.5" />
<text class="label" x="522.5" y="31.5">59</text>
<rect fill="#DEE6F1" height="24" width="96" x="378.5" y="18.5" />
<rect fill="none" height="24" stroke="#405C86" stroke-width="3" width="96" x="378.5" y="18.5" />
<text class="label" x="426.5" y="31.5">60</text>
<rect fill="#DEE6F1" height="24" width="96" x="282.5" y="18.5" />
<rect fill="none" height="24" stroke="#405C86" stroke-width="3" width="96" x="282.5" y="18.5" />
<text class="label" x="330.5" y="31.5">61</text>
<rect fill="#DEE6F1" height="24" width="96" x="186.5" y="18.5" />
<rect fill="none" height="24" stroke="#405C86" stroke-width="3" width="96" x="186.5" y="18.5" />
<text class="label" x="234.5" y="31.5">62</text>
<rect fill="#DEE6F1" height="24" width="96" x="90.5" y="18.5" />
<rect fill="none" height="24" stroke="#405C86" stroke-width="3" width="96" x="90.5" y="18.5" />
<text class="label" x="138.5" y="31.5">63</text>
<text class="register-name" x="80.5" y="30.5">Zn</text>
<text class="intrinsic-name" x="80.5" y="42.5">op1</text>
<text class="register-number" x="10" y="30.5">(1)</text>
<rect fill="none" height="24" stroke="#405C86" stroke-dasharray="3 1" stroke-dashoffset="1.5" stroke-width="1" width="3072" x="3162.5" y="66.5" />
<text class="label unused" x="4698.5" y="79.5"></text>
<rect fill="#EEDDDB" height="24" width="96" x="3066.5" y="66.5" />
<rect fill="none" height="24" stroke="#405C86" stroke-width="3" width="96" x="3066.5" y="66.5" />
<text class="label" x="3114.5" y="79.5">32</text>
<rect fill="#EEDDDB" height="24" width="96" x="2970.5" y="66.5" />
<rect fill="none" height="24" stroke="#405C86" stroke-width="3" width="96" x="2970.5" y="66.5" />
<text class="label" x="3018.5" y="79.5">33</text>
<rect fill="#EEDDDB" height="24" width="96" x="2874.5" y="66.5" />
<rect fill="none" height="24" stroke="#405C86" stroke-width="3" width="96" x="2874.5" y="66.5" />
<text class="label" x="2922.5" y="79.5">34</text>
<rect fill="#EEDDDB" height="24" width="96" x="2778.5" y="66.5" />
<rect fill="none" height="24" stroke="#405C86" stroke-width="3" width="96" x="2778.5" y="66.5" />
<text class="label" x="2826.5" y="79.5">35</text>
<rect fill="#EEDDDB" height="24" width="96" x="2682.5" y="66.5" />
<rect fill="none" height="24" stroke="#405C86" stroke-width="3" width="96" x="2682.5" y="66.5" />
<text class="label" x="2730.5" y="79.5">36</text>
<rect fill="#EEDDDB" height="24" width="96" x="2586.5" y="66.5" />
<rect fill="none" height="24" stroke="#405C86" stroke-width="3" width="96" x="2586.5" y="66.5" />
<text class="label" x="2634.5" y="79.5">37</text>
<rect fill="#EEDDDB" height="24" width="96" x="2490.5" y="66.5" />
<rect fill="none" height="24" stroke="#405C86" stroke-width="3" width="96" x="2490.5" y="66.5" />
<text class="label" x="2538.5" y="79.5">38</text>
<rect fill="#EEDDDB" height="24" width="96" x="2394.5" y="66.5" />
<rect fill="none" height="24" stroke="#405C86" stroke-width="3" width="96" x="2394.5" y="66.5" />
<text class="label" x="2442.5" y="79.5">39</text>
<rect fill="#EEDDDB" height="24" width="96" x="2298.5" y="66.5" />
<rect fill="none" height="24" stroke="#405C86" stroke-width="3" width="96" x="2298.5" y="66.5" />
<text class="label" x="2346.5" y="79.5">40</text>
<rect fill="#EEDDDB" height="24" width="96" x="2202.5" y="66.5" />
<rect fill="none" height="24" stroke="#405C86" stroke-width="3" width="96" x="2202.5" y="66.5" />
<text class="label" x="2250.5" y="79.5">41</text>
<rect fill="#EEDDDB" height="24" width="96" x="2106.5" y="66.5" />
<rect fill="none" height="24" stroke="#405C86" stroke-width="3" width="96" x="2106.5" y="66.5" />
<text class="label" x="2154.5" y="79.5">42</text>
<rect fill="#EEDDDB" height="24" width="96" x="2010.5" y="66.5" />
<rect fill="none" height="24" stroke="#405C86" stroke-width="3" width="96" x="2010.5" y="66.5" />
<text class="label" x="2058.5" y="79.5">43</text>
<rect fill="#EEDDDB" height="24" width="96" x="1914.5" y="66.5" />
<rect fill="none" height="24" stroke="#405C86" stroke-width="3" width="96" x="1914.5" y="66.5" />
<text class="label" x="1962.5" y="79.5">44</text>
<rect fill="#EEDDDB" height="24" width="96" x="1818.5" y="66.5" />
<rect fill="none" height="24" stroke="#405C86" stroke-width="3" width="96" x="1818.5" y="66.5" />
<text class="label" x="1866.5" y="79.5">45</text>
<rect fill="#EEDDDB" height="24" width="96" x="1722.5" y="66.5" />
<rect fill="none" height="24" stroke="#405C86" stroke-width="3" width="96" x="1722.5" y="66.5" />
<text class="label" x="1770.5" y="79.5">46</text>
<rect fill="#EEDDDB" height="24" width="96" x="1626.5" y="66.5" />
<rect fill="none" height="24" stroke="#405C86" stroke-width="3" width="96" x="1626.5" y="66.5" />
<text class="label" x="1674.5" y="79.5">47</text>
<rect fill="#EEDDDB" height="24" width="96" x="1530.5" y="66.5" />
<rect fill="none" height="24" stroke="#405C86" stroke-width="3" width="96" x="1530.5" y="66.5" />
<text class="label" x="1578.5" y="79.5">48</text>
<rect fill="#EEDDDB" height="24" width="96" x="1434.5" y="66.5" />
<rect fill="none" height="24" stroke="#405C86" stroke-width="3" width="96" x="1434.5" y="66.5" />
<text class="label" x="1482.5" y="79.5">49</text>
<rect fill="#EEDDDB" height="24" width="96" x="1338.5" y="66.5" />
<rect fill="none" height="24" stroke="#405C86" stroke-width="3" width="96" x="1338.5" y="66.5" />
<text class="label" x="1386.5" y="79.5">50</text>
<rect fill="#EEDDDB" height="24" width="96" x="1242.5" y="66.5" />
<rect fill="none" height="24" stroke="#405C86" stroke-width="3" width="96" x="1242.5" y="66.5" />
<text class="label" x="1290.5" y="79.5">51</text>
<rect fill="#EEDDDB" height="24" width="96" x="1146.5" y="66.5" />
<rect fill="none" height="24" stroke="#405C86" stroke-width="3" width="96" x="1146.5" y="66.5" />
<text class="label" x="1194.5" y="79.5">52</text>
<rect fill="#EEDDDB" height="24" width="96" x="1050.5" y="66.5" />
<rect fill="none" height="24" stroke="#405C86" stroke-width="3" width="96" x="1050.5" y="66.5" />
<text class="label" x="1098.5" y="79.5">53</text>
<rect fill="#EEDDDB" height="24" width="96" x="954.5" y="66.5" />
<rect fill="none" height="24" stroke="#405C86" stroke-width="3" width="96" x="954.5" y="66.5" />
<text class="label" x="1002.5" y="79.5">54</text>
<rect fill="#EEDDDB" height="24" width="96" x="858.5" y="66.5" />
<rect fill="none" height="24" stroke="#405C86" stroke-width="3" width="96" x="858.5" y="66.5" />
<text class="label" x="906.5" y="79.5">55</text>
<rect fill="#EEDDDB" height="24" width="96" x="762.5" y="66.5" />
<rect fill="none" height="24" stroke="#405C86" stroke-width="3" width="96" x="762.5" y="66.5" />
<text class="label" x="810.5" y="79.5">56</text>
<rect fill="#EEDDDB" height="24" width="96" x="666.5" y="66.5" />
<rect fill="none" height="24" stroke="#405C86" stroke-width="3" width="96" x="666.5" y="66.5" />
<text class="label" x="714.5" y="79.5">57</text>
<rect fill="#EEDDDB" height="24" width="96" x="570.5" y="66.5" />
<rect fill="none" height="24" stroke="#405C86" stroke-width="3" width="96" x="570.5" y="66.5" />
<text class="label" x="618.5" y="79.5">58</text>
<rect fill="#EEDDDB" height="24" width="96" x="474.5" y="66.5" />
<rect fill="none" height="24" stroke="#405C86" stroke-width="3" width="96" x="474.5" y="66.5" />
<text class="label" x="522.5" y="79.5">59</text>
<rect fill="#EEDDDB" height="24" width="96" x="378.5" y="66.5" />
<rect fill="none" height="24" stroke="#405C86" stroke-width="3" width="96" x="378.5" y="66.5" />
<text class="label" x="426.5" y="79.5">60</text>
<rect fill="#EEDDDB" height="24" width="96" x="282.5" y="66.5" />
<rect fill="none" height="24" stroke="#405C86" stroke-width="3" width="96" x="282.5" y="66.5" />
<text class="label" x="330.5" y="79.5">61</text>
<rect fill="#EEDDDB" height="24" width="96" x="186.5" y="66.5" />
<rect fill="none" height="24" stroke="#405C86" stroke-width="3" width="96" x="186.5" y="66.5" />
<text class="label" x="234.5" y="79.5">62</text>
<rect fill="#EEDDDB" height="24" width="96" x="90.5" y="66.5" />
<rect fill="none" height="24" stroke="#405C86" stroke-width="3" width="96" x="90.5" y="66.5" />
<text class="label" x="138.5" y="79.5">63</text>
<text class="register-name" x="80.5" y="78.5">Zm</text>
<text class="intrinsic-name" x="80.5" y="90.5">op2</text>
<text class="register-number" x="10" y="78.5">(2)</text>
<rect fill="#DEE6F1" height="24" width="96" x="6138.5" y="138.5" />
<rect fill="none" height="24" stroke="#405C86" stroke-width="3" width="96" x="6138.5" y="138.5" />
<text class="label" x="6186.5" y="151.5">32</text>
<rect fill="#EEDDDB" height="24" width="96" x="6042.5" y="138.5" />
<rect fill="none" height="24" stroke="#405C86" stroke-width="3" width="96" x="6042.5" y="138.5" />
<text class="label" x="6090.5" y="151.5">32</text>
<rect fill="#DEE6F1" height="24" width="96" x="5946.5" y="138.5" />
<rect fill="none" height="24" stroke="#405C86" stroke-width="3" width="96" x="5946.5" y="138.5" />
<text class="label" x="5994.5" y="151.5">33</text>
<rect fill="#EEDDDB" height="24" width="96" x="5850.5" y="138.5" />
<rect fill="none" height="24" stroke="#405C86" stroke-width="3" width="96" x="5850.5" y="138.5" />
<text class="label" x="5898.5" y="151.5">33</text>
<rect fill="#DEE6F1" height="24" width="96" x="5754.5" y="138.5" />
<rect fill="none" height="24" stroke="#405C86" stroke-width="3" width="96" x="5754.5" y="138.5" />
<text class="label" x="5802.5" y="151.5">34</text>
<rect fill="#EEDDDB" height="24" width="96" x="5658.5" y="138.5" />
<rect fill="none" height="24" stroke="#405C86" stroke-width="3" width="96" x="5658.5" y="138.5" />
<text class="label" x="5706.5" y="151.5">34</text>
<rect fill="#DEE6F1" height="24" width="96" x="5562.5" y="138.5" />
<rect fill="none" height="24" stroke="#405C86" stroke-width="3" width="96" x="5562.5" y="138.5" />
<text class="label" x="5610.5" y="151.5">35</text>
<rect fill="#EEDDDB" height="24" width="96" x="5466.5" y="138.5" />
<rect fill="none" height="24" stroke="#405C86" stroke-width="3" width="96" x="5466.5" y="138.5" />
<text class="label" x="5514.5" y="151.5">35</text>
<rect fill="#DEE6F1" height="24" width="96" x="5370.5" y="138.5" />
<rect fill="none" height="24" stroke="#405C86" stroke-width="3" width="96" x="5370.5" y="138.5" />
<text class="label" x="5418.5" y="151.5">36</text>
<rect fill="#EEDDDB" height="24" width="96" x="5274.5" y="138.5" />
<rect fill="none" height="24" stroke="#405C86" stroke-width="3" width="96" x="5274.5" y="138.5" />
<text class="label" x="5322.5" y="151.5">36</text>
<rect fill="#DEE6F1" height="24" width="96" x="5178.5" y="138.5" />
<rect fill="none" height="24" stroke="#405C86" stroke-width="3" width="96" x="5178.5" y="138.5" />
<text class="label" x="5226.5" y="151.5">37</text>
<rect fill="#EEDDDB" height="24" width="96" x="5082.5" y="138.5" />
<rect fill="none" height="24" stroke="#405C86" stroke-width="3" width="96" x="5082.5" y="138.5" />
<text class="label" x="5130.5" y="151.5">37</text>
<rect fill="#DEE6F1" height="24" width="96" x="4986.5" y="138.5" />
<rect fill="none" height="24" stroke="#405C86" stroke-width="3" width="96" x="4986.5" y="138.5" />
<text class="label" x="5034.5" y="151.5">38</text>
<rect fill="#EEDDDB" height="24" width="96" x="4890.5" y="138.5" />
<rect fill="none" height="24" stroke="#405C86" stroke-width="3" width="96" x="4890.5" y="138.5" />
<text class="label" x="4938.5" y="151.5">38</text>
<rect fill="#DEE6F1" height="24" width="96" x="4794.5" y="138.5" />
<rect fill="none" height="24" stroke="#405C86" stroke-width="3" width="96" x="4794.5" y="138.5" />
<text class="label" x="4842.5" y="151.5">39</text>
<rect fill="#EEDDDB" height="24" width="96" x="4698.5" y="138.5" />
<rect fill="none" height="24" stroke="#405C86" stroke-width="3" width="96" x="4698.5" y="138.5" />
<text class="label" x="4746.5" y="151.5">39</text>
<rect fill="#DEE6F1" height="24" width="96" x="4602.5" y="138.5" />
<rect fill="none" height="24" stroke="#405C86" stroke-width="3" width="96" x="4602.5" y="138.5" />
<text class="label" x="4650.5" y="151.5">40</text>
<rect fill="#EEDDDB" height="24" width="96" x="4506.5" y="138.5" />
<rect fill="none" height="24" stroke="#405C86" stroke-width="3" width="96" x="4506.5" y="138.5" />
<text class="label" x="4554.5" y="151.5">40</text>
<rect fill="#DEE6F1" height="24" width="96" x="4410.5" y="138.5" />
<rect fill="none" height="24" stroke="#405C86" stroke-width="3" width="96" x="4410.5" y="138.5" />
<text class="label" x="4458.5" y="151.5">41</text>
<rect fill="#EEDDDB" height="24" width="96" x="4314.5" y="138.5" />
<rect fill="none" height="24" stroke="#405C86" stroke-width="3" width="96" x="4314.5" y="138.5" />
<text class="label" x="4362.5" y="151.5">41</text>
<rect fill="#DEE6F1" height="24" width="96" x="4218.5" y="138.5" />
<rect fill="none" height="24" stroke="#405C86" stroke-width="3" width="96" x="4218.5" y="138.5" />
<text class="label" x="4266.5" y="151.5">42</text>
<rect fill="#EEDDDB" height="24" width="96" x="4122.5" y="138.5" />
<rect fill="none" height="24" stroke="#405C86" stroke-width="3" width="96" x="4122.5" y="138.5" />
<text class="label" x="4170.5" y="151.5">42</text>
<rect fill="#DEE6F1" height="24" width="96" x="4026.5" y="138.5" />
<rect fill="none" height="24" stroke="#405C86" stroke-width="3" width="96" x="4026.5" y="138.5" />
<text class="label" x="4074.5" y="151.5">43</text>
<rect fill="#EEDDDB" height="24" width="96" x="3930.5" y="138.5" />
<rect fill="none" height="24" stroke="#405C86" stroke-width="3" width="96" x="3930.5" y="138.5" />
<text class="label" x="3978.5" y="151.5">43</text>
<rect fill="#DEE6F1" height="24" width="96" x="3834.5" y="138.5" />
<rect fill="none" height="24" stroke="#405C86" stroke-width="3" width="96" x="3834.5" y="138.5" />
<text class="label" x="3882.5" y="151.5">44</text>
<rect fill="#EEDDDB" height="24" width="96" x="3738.5" y="138.5" />
<rect fill="none" height="24" stroke="#405C86" stroke-width="3" width="96" x="3738.5" y="138.5" />
<text class="label" x="3786.5" y="151.5">44</text>
<rect fill="#DEE6F1" height="24" width="96" x="3642.5" y="138.5" />
<rect fill="none" height="24" stroke="#405C86" stroke-width="3" width="96" x="3642.5" y="138.5" />
<text class="label" x="3690.5" y="151.5">45</text>
<rect fill="#EEDDDB" height="24" width="96" x="3546.5" y="138.5" />
<rect fill="none" height="24" stroke="#405C86" stroke-width="3" width="96" x="3546.5" y="138.5" />
<text class="label" x="3594.5" y="151.5">45</text>
<rect fill="#DEE6F1" height="24" width="96" x="3450.5" y="138.5" />
<rect fill="none" height="24" stroke="#405C86" stroke-width="3" width="96" x="3450.5" y="138.5" />
<text class="label" x="3498.5" y="151.5">46</text>
<rect fill="#EEDDDB" height="24" width="96" x="3354.5" y="138.5" />
<rect fill="none" height="24" stroke="#405C86" stroke-width="3" width="96" x="3354.5" y="138.5" />
<text class="label" x="3402.5" y="151.5">46</text>
<rect fill="#DEE6F1" height="24" width="96" x="3258.5" y="138.5" />
<rect fill="none" height="24" stroke="#405C86" stroke-width="3" width="96" x="3258.5" y="138.5" />
<text class="label" x="3306.5" y="151.5">47</text>
<rect fill="#EEDDDB" height="24" width="96" x="3162.5" y="138.5" />
<rect fill="none" height="24" stroke="#405C86" stroke-width="3" width="96" x="3162.5" y="138.5" />
<text class="label" x="3210.5" y="151.5">47</text>
<rect fill="#DEE6F1" height="24" width="96" x="3066.5" y="138.5" />
<rect fill="none" height="24" stroke="#405C86" stroke-width="3" width="96" x="3066.5" y="138.5" />
<text class="label" x="3114.5" y="151.5">48</text>
<rect fill="#EEDDDB" height="24" width="96" x="2970.5" y="138.5" />
<rect fill="none" height="24" stroke="#405C86" stroke-width="3" width="96" x="2970.5" y="138.5" />
<text class="label" x="3018.5" y="151.5">48</text>
<rect fill="#DEE6F1" height="24" width="96" x="2874.5" y="138.5" />
<rect fill="none" height="24" stroke="#405C86" stroke-width="3" width="96" x="2874.5" y="138.5" />
<text class="label" x="2922.5" y="151.5">49</text>
<rect fill="#EEDDDB" height="24" width="96" x="2778.5" y="138.5" />
<rect fill="none" height="24" stroke="#405C86" stroke-width="3" width="96" x="2778.5" y="138.5" />
<text class="label" x="2826.5" y="151.5">49</text>
<rect fill="#DEE6F1" height="24" width="96" x="2682.5" y="138.5" />
<rect fill="none" height="24" stroke="#405C86" stroke-width="3" width="96" x="2682.5" y="138.5" />
<text class="label" x="2730.5" y="151.5">50</text>
<rect fill="#EEDDDB" height="24" width="96" x="2586.5" y="138.5" />
<rect fill="none" height="24" stroke="#405C86" stroke-width="3" width="96" x="2586.5" y="138.5" />
<text class="label" x="2634.5" y="151.5">50</text>
<rect fill="#DEE6F1" height="24" width="96" x="2490.5" y="138.5" />
<rect fill="none" height="24" stroke="#405C86" stroke-width="3" width="96" x="2490.5" y="138.5" />
<text class="label" x="2538.5" y="151.5">51</text>
<rect fill="#EEDDDB" height="24" width="96" x="2394.5" y="138.5" />
<rect fill="none" height="24" stroke="#405C86" stroke-width="3" width="96" x="2394.5" y="138.5" />
<text class="label" x="2442.5" y="151.5">51</text>
<rect fill="#DEE6F1" height="24" width="96" x="2298.5" y="138.5" />
<rect fill="none" height="24" stroke="#405C86" stroke-width="3" width="96" x="2298.5" y="138.5" />
<text class="label" x="2346.5" y="151.5">52</text>
<rect fill="#EEDDDB" height="24" width="96" x="2202.5" y="138.5" />
<rect fill="none" height="24" stroke="#405C86" stroke-width="3" width="96" x="2202.5" y="138.5" />
<text class="label" x="2250.5" y="151.5">52</text>
<rect fill="#DEE6F1" height="24" width="96" x="2106.5" y="138.5" />
<rect fill="none" height="24" stroke="#405C86" stroke-width="3" width="96" x="2106.5" y="138.5" />
<text class="label" x="2154.5" y="151.5">53</text>
<rect fill="#EEDDDB" height="24" width="96" x="2010.5" y="138.5" />
<rect fill="none" height="24" stroke="#405C86" stroke-width="3" width="96" x="2010.5" y="138.5" />
<text class="label" x="2058.5" y="151.5">53</text>
<rect fill="#DEE6F1" height="24" width="96" x="1914.5" y="138.5" />
<rect fill="none" height="24" stroke="#405C86" stroke-width="3" width="96" x="1914.5" y="138.5" />
<text class="label" x="1962.5" y="151.5">54</text>
<rect fill="#EEDDDB" height="24" width="96" x="1818.5" y="138.5" />
<rect fill="none" height="24" stroke="#405C86" stroke-width="3" width="96" x="1818.5" y="138.5" />
<text class="label" x="1866.5" y="151.5">54</text>
<rect fill="#DEE6F1" height="24" width="96" x="1722.5" y="138.5" />
<rect fill="none" height="24" stroke="#405C86" stroke-width="3" width="96" x="1722.5" y="138.5" />
<text class="label" x="1770.5" y="151.5">55</text>
<rect fill="#EEDDDB" height="24" width="96" x="1626.5" y="138.5" />
<rect fill="none" height="24" stroke="#405C86" stroke-width="3" width="96" x="1626.5" y="138.5" />
<text class="label" x="1674.5" y="151.5">55</text>
<rect fill="#DEE6F1" height="24" width="96" x="1530.5" y="138.5" />
<rect fill="none" height="24" stroke="#405C86" stroke-width="3" width="96" x="1530.5" y="138.5" />
<text class="label" x="1578.5" y="151.5">56</text>
<rect fill="#EEDDDB" height="24" width="96" x="1434.5" y="138.5" />
<rect fill="none" height="24" stroke="#405C86" stroke-width="3" width="96" x="1434.5" y="138.5" />
<text class="label" x="1482.5" y="151.5">56</text>
<rect fill="#DEE6F1" height="24" width="96" x="1338.5" y="138.5" />
<rect fill="none" height="24" stroke="#405C86" stroke-width="3" width="96" x="1338.5" y="138.5" />
<text class="label" x="1386.5" y="151.5">57</text>
<rect fill="#EEDDDB" height="24" width="96" x="1242.5" y="138.5" />
<rect fill="none" height="24" stroke="#405C86" stroke-width="3" width="96" x="1242.5" y="138.5" />
<text class="label" x="1290.5" y="151.5">57</text>
<rect fill="#DEE6F1" height="24" width="96" x="1146.5" y="138.5" />
<rect fill="none" height="24" stroke="#405C86" stroke-width="3" width="96" x="1146.5" y="138.5" />
<text class="label" x="1194.5" y="151.5">58</text>
<rect fill="#EEDDDB" height="24" width="96" x="1050.5" y="138.5" />
<rect fill="none" height="24" stroke="#405C86" stroke-width="3" width="96" x="1050.5" y="138.5" />
<text class="label" x="1098.5" y="151.5">58</text>
<rect fill="#DEE6F1" height="24" width="96" x="954.5" y="138.5" />
<rect fill="none" height="24" stroke="#405C86" stroke-width="3" width="96" x="954.5" y="138.5" />
<text class="label" x="1002.5" y="151.5">59</text>
<rect fill="#EEDDDB" height="24" width="96" x="858.5" y="138.5" />
<rect fill="none" height="24" stroke="#405C86" stroke-width="3" width="96" x="858.5" y="138.5" />
<text class="label" x="906.5" y="151.5">59</text>
<rect fill="#DEE6F1" height="24" width="96" x="762.5" y="138.5" />
<rect fill="none" height="24" stroke="#405C86" stroke-width="3" width="96" x="762.5" y="138.5" />
<text class="label" x="810.5" y="151.5">60</text>
<rect fill="#EEDDDB" height="24" width="96" x="666.5" y="138.5" />
<rect fill="none" height="24" stroke="#405C86" stroke-width="3" width="96" x="666.5" y="138.5" />
<text class="label" x="714.5" y="151.5">60</text>
<rect fill="#DEE6F1" height="24" width="96" x="570.5" y="138.5" />
<rect fill="none" height="24" stroke="#405C86" stroke-width="3" width="96" x="570.5" y="138.5" />
<text class="label" x="618.5" y="151.5">61</text>
<rect fill="#EEDDDB" height="24" width="96" x="474.5" y="138.5" />
<rect fill="none" height="24" stroke="#405C86" stroke-width="3" width="96" x="474.5" y="138.5" />
<text class="label" x="522.5" y="151.5">61</text>
<rect fill="#DEE6F1" height="24" width="96" x="378.5" y="138.5" />
<rect fill="none" height="24" stroke="#405C86" stroke-width="3" width="96" x="378.5" y="138.5" />
<text class="label" x="426.5" y="151.5">62</text>
<rect fill="#EEDDDB" height="24" width="96" x="282.5" y="138.5" />
<rect fill="none" height="24" stroke="#405C86" stroke-width="3" width="96" x="282.5" y="138.5" />
<text class="label" x="330.5" y="151.5">62</text>
<rect fill="#DEE6F1" height="24" width="96" x="186.5" y="138.5" />
<rect fill="none" height="24" stroke="#405C86" stroke-width="3" width="96" x="186.5" y="138.5" />
<text class="label" x="234.5" y="151.5">63</text>
<rect fill="#EEDDDB" height="24" width="96" x="90.5" y="138.5" />
<rect fill="none" height="24" stroke="#405C86" stroke-width="3" width="96" x="90.5" y="138.5" />
<text class="label" x="138.5" y="151.5">63</text>
<text class="register-name" x="80.5" y="150.5">Zd</text>
<text class="intrinsic-name" x="80.5" y="162.5">returns</text>
<text class="register-number" x="10" y="150.5">(3)</text>
<line stroke="#567DB6" stroke-width="1" x1="3114.5" x2="6186.5" y1="43.5" y2="137" />
<line stroke="#567DB6" stroke-width="1" x1="3114.5" x2="6090.5" y1="91.5" y2="137" />
<line stroke="#567DB6" stroke-width="1" x1="234.5" x2="426.5" y1="43.5" y2="137" />
<line stroke="#567DB6" stroke-width="1" x1="234.5" x2="330.5" y1="91.5" y2="137" />
<line stroke="#567DB6" stroke-width="1" x1="138.5" x2="234.5" y1="43.5" y2="137" />
<line stroke="#567DB6" stroke-width="1" x1="138.5" x2="138.5" y1="91.5" y2="137" />
<line marker-end="url(#arrowhead)" stroke="none" x1="3114.5" x2="6186.5" y1="43.5" y2="137" />
<line marker-end="url(#arrowhead)" stroke="none" x1="3114.5" x2="6090.5" y1="91.5" y2="137" />
<line marker-end="url(#arrowhead)" stroke="none" x1="234.5" x2="426.5" y1="43.5" y2="137" />
<line marker-end="url(#arrowhead)" stroke="none" x1="234.5" x2="330.5" y1="91.5" y2="137" />
<line marker-end="url(#arrowhead)" stroke="none" x1="138.5" x2="234.5" y1="43.5" y2="137" />
<line marker-end="url(#arrowhead)" stroke="none" x1="138.5" x2="138.5" y1="91.5" y2="137" />
</svg>