<svg xmlns="http://www.w3.org/2000/svg" viewBox="0 0 1638 171">
<style>
.label { font: 14px Helvetica; dominant-baseline: middle; text-anchor: middle; }
.title-left { font: 12px Helvetica; dominant-baseline: middle; }
.title-right { font: 12px Helvetica; dominant-baseline: middle; text-anchor: end; }
.title-intrinsic { font: 12px Helvetica; dominant-baseline: middle; text-anchor: middle; fill: #6778ED; }
.title { font: 12px Helvetica; dominant-baseline: middle; text-anchor: middle; }
.title-unused { font: 12px Helvetica; dominant-baseline: middle; text-anchor: middle; fill: #AAA; }
.register-name { font: 14px Helvetica; dominant-baseline: middle; text-anchor: end; font-style: italic; }
.memory-name { font: 14px Helvetica; dominant-baseline: middle; text-anchor: end; }
.register-number { font: 14px Helvetica; dominant-baseline: middle; text-anchor: start; }
.intrinsic-name { font: 14px Helvetica; dominant-baseline: middle; text-anchor: end; fill: #6778ED; }
.intrinsic-color { fill: #6778ED; }
.small-label { font: 12px Helvetica; dominant-baseline: middle; text-anchor: middle; }
.label-10px { font: 10px Helvetica; dominant-baseline: middle; text-anchor: middle; }
.smaller-label { font: 9px Helvetica; dominant-baseline: middle; text-anchor: middle; }
.label-6px { font: 6px Helvetica; dominant-baseline: middle; text-anchor: middle; }
.label-7px { font: 7px Helvetica; dominant-baseline: middle; text-anchor: middle; }
.unused { fill: #AAA; }
.dim { fill: #888; }
</style>
<defs>
<marker id="arrowhead" markerWidth="10.75" markerHeight="24.5" refX="9.0" refY="6.125" orient="auto">
<polyline points="0.5 0.5, 8.75 6.125, 0.5 11.75" stroke="#567DB6" stroke-width="1" fill="none"/>
</marker>
</defs>
<text class="title-left" x="90.5" y="9.5">upper</text>
<text class="title-right" x="1626.5" y="9.5">lower</text>
<rect fill="none" height="24" stroke="#405C86" stroke-dasharray="3 1" stroke-dashoffset="1.5" stroke-width="1" width="768" x="858.5" y="18.5" />
<text class="label unused" x="1242.5" y="31.5"></text>
<rect fill="#DEE6F1" height="24" width="12" x="846.5" y="18.5" />
<rect fill="none" height="24" stroke="#405C86" stroke-width="3" width="12" x="846.5" y="18.5" />
<rect fill="#DEE6F1" height="24" width="12" x="834.5" y="18.5" />
<rect fill="none" height="24" stroke="#405C86" stroke-width="3" width="12" x="834.5" y="18.5" />
<rect fill="#DEE6F1" height="24" width="12" x="822.5" y="18.5" />
<rect fill="none" height="24" stroke="#405C86" stroke-width="3" width="12" x="822.5" y="18.5" />
<rect fill="#DEE6F1" height="24" width="12" x="810.5" y="18.5" />
<rect fill="none" height="24" stroke="#405C86" stroke-width="3" width="12" x="810.5" y="18.5" />
<rect fill="#DEE6F1" height="24" width="12" x="798.5" y="18.5" />
<rect fill="none" height="24" stroke="#405C86" stroke-width="3" width="12" x="798.5" y="18.5" />
<rect fill="#DEE6F1" height="24" width="12" x="786.5" y="18.5" />
<rect fill="none" height="24" stroke="#405C86" stroke-width="3" width="12" x="786.5" y="18.5" />
<rect fill="#DEE6F1" height="24" width="12" x="774.5" y="18.5" />
<rect fill="none" height="24" stroke="#405C86" stroke-width="3" width="12" x="774.5" y="18.5" />
<rect fill="#DEE6F1" height="24" width="12" x="762.5" y="18.5" />
<rect fill="none" height="24" stroke="#405C86" stroke-width="3" width="12" x="762.5" y="18.5" />
<rect fill="#DEE6F1" height="24" width="12" x="750.5" y="18.5" />
<rect fill="none" height="24" stroke="#405C86" stroke-width="3" width="12" x="750.5" y="18.5" />
<rect fill="#DEE6F1" height="24" width="12" x="738.5" y="18.5" />
<rect fill="none" height="24" stroke="#405C86" stroke-width="3" width="12" x="738.5" y="18.5" />
<rect fill="#DEE6F1" height="24" width="12" x="726.5" y="18.5" />
<rect fill="none" height="24" stroke="#405C86" stroke-width="3" width="12" x="726.5" y="18.5" />
<rect fill="#DEE6F1" height="24" width="12" x="714.5" y="18.5" />
<rect fill="none" height="24" stroke="#405C86" stroke-width="3" width="12" x="714.5" y="18.5" />
<rect fill="#DEE6F1" height="24" width="12" x="702.5" y="18.5" />
<rect fill="none" height="24" stroke="#405C86" stroke-width="3" width="12" x="702.5" y="18.5" />
<rect fill="#DEE6F1" height="24" width="12" x="690.5" y="18.5" />
<rect fill="none" height="24" stroke="#405C86" stroke-width="3" width="12" x="690.5" y="18.5" />
<rect fill="#DEE6F1" height="24" width="12" x="678.5" y="18.5" />
<rect fill="none" height="24" stroke="#405C86" stroke-width="3" width="12" x="678.5" y="18.5" />
<rect fill="#DEE6F1" height="24" width="12" x="666.5" y="18.5" />
<rect fill="none" height="24" stroke="#405C86" stroke-width="3" width="12" x="666.5" y="18.5" />
<rect fill="#DEE6F1" height="24" width="12" x="654.5" y="18.5" />
<rect fill="none" height="24" stroke="#405C86" stroke-width="3" width="12" x="654.5" y="18.5" />
<rect fill="#DEE6F1" height="24" width="12" x="642.5" y="18.5" />
<rect fill="none" height="24" stroke="#405C86" stroke-width="3" width="12" x="642.5" y="18.5" />
<rect fill="#DEE6F1" height="24" width="12" x="630.5" y="18.5" />
<rect fill="none" height="24" stroke="#405C86" stroke-width="3" width="12" x="630.5" y="18.5" />
<rect fill="#DEE6F1" height="24" width="12" x="618.5" y="18.5" />
<rect fill="none" height="24" stroke="#405C86" stroke-width="3" width="12" x="618.5" y="18.5" />
<rect fill="#DEE6F1" height="24" width="12" x="606.5" y="18.5" />
<rect fill="none" height="24" stroke="#405C86" stroke-width="3" width="12" x="606.5" y="18.5" />
<rect fill="#DEE6F1" height="24" width="12" x="594.5" y="18.5" />
<rect fill="none" height="24" stroke="#405C86" stroke-width="3" width="12" x="594.5" y="18.5" />
<rect fill="#DEE6F1" height="24" width="12" x="582.5" y="18.5" />
<rect fill="none" height="24" stroke="#405C86" stroke-width="3" width="12" x="582.5" y="18.5" />
<rect fill="#DEE6F1" height="24" width="12" x="570.5" y="18.5" />
<rect fill="none" height="24" stroke="#405C86" stroke-width="3" width="12" x="570.5" y="18.5" />
<rect fill="#DEE6F1" height="24" width="12" x="558.5" y="18.5" />
<rect fill="none" height="24" stroke="#405C86" stroke-width="3" width="12" x="558.5" y="18.5" />
<rect fill="#DEE6F1" height="24" width="12" x="546.5" y="18.5" />
<rect fill="none" height="24" stroke="#405C86" stroke-width="3" width="12" x="546.5" y="18.5" />
<rect fill="#DEE6F1" height="24" width="12" x="534.5" y="18.5" />
<rect fill="none" height="24" stroke="#405C86" stroke-width="3" width="12" x="534.5" y="18.5" />
<rect fill="#DEE6F1" height="24" width="12" x="522.5" y="18.5" />
<rect fill="none" height="24" stroke="#405C86" stroke-width="3" width="12" x="522.5" y="18.5" />
<rect fill="#DEE6F1" height="24" width="12" x="510.5" y="18.5" />
<rect fill="none" height="24" stroke="#405C86" stroke-width="3" width="12" x="510.5" y="18.5" />
<rect fill="#DEE6F1" height="24" width="12" x="498.5" y="18.5" />
<rect fill="none" height="24" stroke="#405C86" stroke-width="3" width="12" x="498.5" y="18.5" />
<rect fill="#DEE6F1" height="24" width="12" x="486.5" y="18.5" />
<rect fill="none" height="24" stroke="#405C86" stroke-width="3" width="12" x="486.5" y="18.5" />
<rect fill="#DEE6F1" height="24" width="12" x="474.5" y="18.5" />
<rect fill="none" height="24" stroke="#405C86" stroke-width="3" width="12" x="474.5" y="18.5" />
<rect fill="#DEE6F1" height="24" width="12" x="462.5" y="18.5" />
<rect fill="none" height="24" stroke="#405C86" stroke-width="3" width="12" x="462.5" y="18.5" />
<rect fill="#DEE6F1" height="24" width="12" x="450.5" y="18.5" />
<rect fill="none" height="24" stroke="#405C86" stroke-width="3" width="12" x="450.5" y="18.5" />
<rect fill="#DEE6F1" height="24" width="12" x="438.5" y="18.5" />
<rect fill="none" height="24" stroke="#405C86" stroke-width="3" width="12" x="438.5" y="18.5" />
<rect fill="#DEE6F1" height="24" width="12" x="426.5" y="18.5" />
<rect fill="none" height="24" stroke="#405C86" stroke-width="3" width="12" x="426.5" y="18.5" />
<rect fill="#DEE6F1" height="24" width="12" x="414.5" y="18.5" />
<rect fill="none" height="24" stroke="#405C86" stroke-width="3" width="12" x="414.5" y="18.5" />
<rect fill="#DEE6F1" height="24" width="12" x="402.5" y="18.5" />
<rect fill="none" height="24" stroke="#405C86" stroke-width="3" width="12" x="402.5" y="18.5" />
<rect fill="#DEE6F1" height="24" width="12" x="390.5" y="18.5" />
<rect fill="none" height="24" stroke="#405C86" stroke-width="3" width="12" x="390.5" y="18.5" />
<rect fill="#DEE6F1" height="24" width="12" x="378.5" y="18.5" />
<rect fill="none" height="24" stroke="#405C86" stroke-width="3" width="12" x="378.5" y="18.5" />
<rect fill="#DEE6F1" height="24" width="12" x="366.5" y="18.5" />
<rect fill="none" height="24" stroke="#405C86" stroke-width="3" width="12" x="366.5" y="18.5" />
<rect fill="#DEE6F1" height="24" width="12" x="354.5" y="18.5" />
<rect fill="none" height="24" stroke="#405C86" stroke-width="3" width="12" x="354.5" y="18.5" />
<rect fill="#DEE6F1" height="24" width="12" x="342.5" y="18.5" />
<rect fill="none" height="24" stroke="#405C86" stroke-width="3" width="12" x="342.5" y="18.5" />
<rect fill="#DEE6F1" height="24" width="12" x="330.5" y="18.5" />
<rect fill="none" height="24" stroke="#405C86" stroke-width="3" width="12" x="330.5" y="18.5" />
<rect fill="#DEE6F1" height="24" width="12" x="318.5" y="18.5" />
<rect fill="none" height="24" stroke="#405C86" stroke-width="3" width="12" x="318.5" y="18.5" />
<rect fill="#DEE6F1" height="24" width="12" x="306.5" y="18.5" />
<rect fill="none" height="24" stroke="#405C86" stroke-width="3" width="12" x="306.5" y="18.5" />
<rect fill="#DEE6F1" height="24" width="12" x="294.5" y="18.5" />
<rect fill="none" height="24" stroke="#405C86" stroke-width="3" width="12" x="294.5" y="18.5" />
<rect fill="#DEE6F1" height="24" width="12" x="282.5" y="18.5" />
<rect fill="none" height="24" stroke="#405C86" stroke-width="3" width="12" x="282.5" y="18.5" />
<rect fill="#DEE6F1" height="24" width="12" x="270.5" y="18.5" />
<rect fill="none" height="24" stroke="#405C86" stroke-width="3" width="12" x="270.5" y="18.5" />
<rect fill="#DEE6F1" height="24" width="12" x="258.5" y="18.5" />
<rect fill="none" height="24" stroke="#405C86" stroke-width="3" width="12" x="258.5" y="18.5" />
<rect fill="#DEE6F1" height="24" width="12" x="246.5" y="18.5" />
<rect fill="none" height="24" stroke="#405C86" stroke-width="3" width="12" x="246.5" y="18.5" />
<rect fill="#DEE6F1" height="24" width="12" x="234.5" y="18.5" />
<rect fill="none" height="24" stroke="#405C86" stroke-width="3" width="12" x="234.5" y="18.5" />
<rect fill="#DEE6F1" height="24" width="12" x="222.5" y="18.5" />
<rect fill="none" height="24" stroke="#405C86" stroke-width="3" width="12" x="222.5" y="18.5" />
<rect fill="#DEE6F1" height="24" width="12" x="210.5" y="18.5" />
<rect fill="none" height="24" stroke="#405C86" stroke-width="3" width="12" x="210.5" y="18.5" />
<rect fill="#DEE6F1" height="24" width="12" x="198.5" y="18.5" />
<rect fill="none" height="24" stroke="#405C86" stroke-width="3" width="12" x="198.5" y="18.5" />
<rect fill="#DEE6F1" height="24" width="12" x="186.5" y="18.5" />
<rect fill="none" height="24" stroke="#405C86" stroke-width="3" width="12" x="186.5" y="18.5" />
<rect fill="#DEE6F1" height="24" width="12" x="174.5" y="18.5" />
<rect fill="none" height="24" stroke="#405C86" stroke-width="3" width="12" x="174.5" y="18.5" />
<rect fill="#DEE6F1" height="24" width="12" x="162.5" y="18.5" />
<rect fill="none" height="24" stroke="#405C86" stroke-width="3" width="12" x="162.5" y="18.5" />
<rect fill="#DEE6F1" height="24" width="12" x="150.5" y="18.5" />
<rect fill="none" height="24" stroke="#405C86" stroke-width="3" width="12" x="150.5" y="18.5" />
<rect fill="#DEE6F1" height="24" width="12" x="138.5" y="18.5" />
<rect fill="none" height="24" stroke="#405C86" stroke-width="3" width="12" x="138.5" y="18.5" />
<rect fill="#DEE6F1" height="24" width="12" x="126.5" y="18.5" />
<rect fill="none" height="24" stroke="#405C86" stroke-width="3" width="12" x="126.5" y="18.5" />
<rect fill="#DEE6F1" height="24" width="12" x="114.5" y="18.5" />
<rect fill="none" height="24" stroke="#405C86" stroke-width="3" width="12" x="114.5" y="18.5" />
<rect fill="#DEE6F1" height="24" width="12" x="102.5" y="18.5" />
<rect fill="none" height="24" stroke="#405C86" stroke-width="3" width="12" x="102.5" y="18.5" />
<rect fill="#DEE6F1" height="24" width="12" x="90.5" y="18.5" />
<rect fill="none" height="24" stroke="#405C86" stroke-width="3" width="12" x="90.5" y="18.5" />
<text class="register-name" x="80.5" y="30.5">Pn</text>
<text class="intrinsic-name" x="80.5" y="42.5">op1</text>
<text class="register-number" x="10" y="30.5">(1)</text>
<rect fill="none" height="24" stroke="#405C86" stroke-dasharray="3 1" stroke-dashoffset="1.5" stroke-width="1" width="768" x="858.5" y="66.5" />
<text class="label unused" x="1242.5" y="79.5"></text>
<rect fill="#EEDDDB" height="24" width="12" x="846.5" y="66.5" />
<rect fill="none" height="24" stroke="#405C86" stroke-width="3" width="12" x="846.5" y="66.5" />
<rect fill="#EEDDDB" height="24" width="12" x="834.5" y="66.5" />
<rect fill="none" height="24" stroke="#405C86" stroke-width="3" width="12" x="834.5" y="66.5" />
<rect fill="#EEDDDB" height="24" width="12" x="822.5" y="66.5" />
<rect fill="none" height="24" stroke="#405C86" stroke-width="3" width="12" x="822.5" y="66.5" />
<rect fill="#EEDDDB" height="24" width="12" x="810.5" y="66.5" />
<rect fill="none" height="24" stroke="#405C86" stroke-width="3" width="12" x="810.5" y="66.5" />
<rect fill="#EEDDDB" height="24" width="12" x="798.5" y="66.5" />
<rect fill="none" height="24" stroke="#405C86" stroke-width="3" width="12" x="798.5" y="66.5" />
<rect fill="#EEDDDB" height="24" width="12" x="786.5" y="66.5" />
<rect fill="none" height="24" stroke="#405C86" stroke-width="3" width="12" x="786.5" y="66.5" />
<rect fill="#EEDDDB" height="24" width="12" x="774.5" y="66.5" />
<rect fill="none" height="24" stroke="#405C86" stroke-width="3" width="12" x="774.5" y="66.5" />
<rect fill="#EEDDDB" height="24" width="12" x="762.5" y="66.5" />
<rect fill="none" height="24" stroke="#405C86" stroke-width="3" width="12" x="762.5" y="66.5" />
<rect fill="#EEDDDB" height="24" width="12" x="750.5" y="66.5" />
<rect fill="none" height="24" stroke="#405C86" stroke-width="3" width="12" x="750.5" y="66.5" />
<rect fill="#EEDDDB" height="24" width="12" x="738.5" y="66.5" />
<rect fill="none" height="24" stroke="#405C86" stroke-width="3" width="12" x="738.5" y="66.5" />
<rect fill="#EEDDDB" height="24" width="12" x="726.5" y="66.5" />
<rect fill="none" height="24" stroke="#405C86" stroke-width="3" width="12" x="726.5" y="66.5" />
<rect fill="#EEDDDB" height="24" width="12" x="714.5" y="66.5" />
<rect fill="none" height="24" stroke="#405C86" stroke-width="3" width="12" x="714.5" y="66.5" />
<rect fill="#EEDDDB" height="24" width="12" x="702.5" y="66.5" />
<rect fill="none" height="24" stroke="#405C86" stroke-width="3" width="12" x="702.5" y="66.5" />
<rect fill="#EEDDDB" height="24" width="12" x="690.5" y="66.5" />
<rect fill="none" height="24" stroke="#405C86" stroke-width="3" width="12" x="690.5" y="66.5" />
<rect fill="#EEDDDB" height="24" width="12" x="678.5" y="66.5" />
<rect fill="none" height="24" stroke="#405C86" stroke-width="3" width="12" x="678.5" y="66.5" />
<rect fill="#EEDDDB" height="24" width="12" x="666.5" y="66.5" />
<rect fill="none" height="24" stroke="#405C86" stroke-width="3" width="12" x="666.5" y="66.5" />
<rect fill="#EEDDDB" height="24" width="12" x="654.5" y="66.5" />
<rect fill="none" height="24" stroke="#405C86" stroke-width="3" width="12" x="654.5" y="66.5" />
<rect fill="#EEDDDB" height="24" width="12" x="642.5" y="66.5" />
<rect fill="none" height="24" stroke="#405C86" stroke-width="3" width="12" x="642.5" y="66.5" />
<rect fill="#EEDDDB" height="24" width="12" x="630.5" y="66.5" />
<rect fill="none" height="24" stroke="#405C86" stroke-width="3" width="12" x="630.5" y="66.5" />
<rect fill="#EEDDDB" height="24" width="12" x="618.5" y="66.5" />
<rect fill="none" height="24" stroke="#405C86" stroke-width="3" width="12" x="618.5" y="66.5" />
<rect fill="#EEDDDB" height="24" width="12" x="606.5" y="66.5" />
<rect fill="none" height="24" stroke="#405C86" stroke-width="3" width="12" x="606.5" y="66.5" />
<rect fill="#EEDDDB" height="24" width="12" x="594.5" y="66.5" />
<rect fill="none" height="24" stroke="#405C86" stroke-width="3" width="12" x="594.5" y="66.5" />
<rect fill="#EEDDDB" height="24" width="12" x="582.5" y="66.5" />
<rect fill="none" height="24" stroke="#405C86" stroke-width="3" width="12" x="582.5" y="66.5" />
<rect fill="#EEDDDB" height="24" width="12" x="570.5" y="66.5" />
<rect fill="none" height="24" stroke="#405C86" stroke-width="3" width="12" x="570.5" y="66.5" />
<rect fill="#EEDDDB" height="24" width="12" x="558.5" y="66.5" />
<rect fill="none" height="24" stroke="#405C86" stroke-width="3" width="12" x="558.5" y="66.5" />
<rect fill="#EEDDDB" height="24" width="12" x="546.5" y="66.5" />
<rect fill="none" height="24" stroke="#405C86" stroke-width="3" width="12" x="546.5" y="66.5" />
<rect fill="#EEDDDB" height="24" width="12" x="534.5" y="66.5" />
<rect fill="none" height="24" stroke="#405C86" stroke-width="3" width="12" x="534.5" y="66.5" />
<rect fill="#EEDDDB" height="24" width="12" x="522.5" y="66.5" />
<rect fill="none" height="24" stroke="#405C86" stroke-width="3" width="12" x="522.5" y="66.5" />
<rect fill="#EEDDDB" height="24" width="12" x="510.5" y="66.5" />
<rect fill="none" height="24" stroke="#405C86" stroke-width="3" width="12" x="510.5" y="66.5" />
<rect fill="#EEDDDB" height="24" width="12" x="498.5" y="66.5" />
<rect fill="none" height="24" stroke="#405C86" stroke-width="3" width="12" x="498.5" y="66.5" />
<rect fill="#EEDDDB" height="24" width="12" x="486.5" y="66.5" />
<rect fill="none" height="24" stroke="#405C86" stroke-width="3" width="12" x="486.5" y="66.5" />
<rect fill="#EEDDDB" height="24" width="12" x="474.5" y="66.5" />
<rect fill="none" height="24" stroke="#405C86" stroke-width="3" width="12" x="474.5" y="66.5" />
<rect fill="#EEDDDB" height="24" width="12" x="462.5" y="66.5" />
<rect fill="none" height="24" stroke="#405C86" stroke-width="3" width="12" x="462.5" y="66.5" />
<rect fill="#EEDDDB" height="24" width="12" x="450.5" y="66.5" />
<rect fill="none" height="24" stroke="#405C86" stroke-width="3" width="12" x="450.5" y="66.5" />
<rect fill="#EEDDDB" height="24" width="12" x="438.5" y="66.5" />
<rect fill="none" height="24" stroke="#405C86" stroke-width="3" width="12" x="438.5" y="66.5" />
<rect fill="#EEDDDB" height="24" width="12" x="426.5" y="66.5" />
<rect fill="none" height="24" stroke="#405C86" stroke-width="3" width="12" x="426.5" y="66.5" />
<rect fill="#EEDDDB" height="24" width="12" x="414.5" y="66.5" />
<rect fill="none" height="24" stroke="#405C86" stroke-width="3" width="12" x="414.5" y="66.5" />
<rect fill="#EEDDDB" height="24" width="12" x="402.5" y="66.5" />
<rect fill="none" height="24" stroke="#405C86" stroke-width="3" width="12" x="402.5" y="66.5" />
<rect fill="#EEDDDB" height="24" width="12" x="390.5" y="66.5" />
<rect fill="none" height="24" stroke="#405C86" stroke-width="3" width="12" x="390.5" y="66.5" />
<rect fill="#EEDDDB" height="24" width="12" x="378.5" y="66.5" />
<rect fill="none" height="24" stroke="#405C86" stroke-width="3" width="12" x="378.5" y="66.5" />
<rect fill="#EEDDDB" height="24" width="12" x="366.5" y="66.5" />
<rect fill="none" height="24" stroke="#405C86" stroke-width="3" width="12" x="366.5" y="66.5" />
<rect fill="#EEDDDB" height="24" width="12" x="354.5" y="66.5" />
<rect fill="none" height="24" stroke="#405C86" stroke-width="3" width="12" x="354.5" y="66.5" />
<rect fill="#EEDDDB" height="24" width="12" x="342.5" y="66.5" />
<rect fill="none" height="24" stroke="#405C86" stroke-width="3" width="12" x="342.5" y="66.5" />
<rect fill="#EEDDDB" height="24" width="12" x="330.5" y="66.5" />
<rect fill="none" height="24" stroke="#405C86" stroke-width="3" width="12" x="330.5" y="66.5" />
<rect fill="#EEDDDB" height="24" width="12" x="318.5" y="66.5" />
<rect fill="none" height="24" stroke="#405C86" stroke-width="3" width="12" x="318.5" y="66.5" />
<rect fill="#EEDDDB" height="24" width="12" x="306.5" y="66.5" />
<rect fill="none" height="24" stroke="#405C86" stroke-width="3" width="12" x="306.5" y="66.5" />
<rect fill="#EEDDDB" height="24" width="12" x="294.5" y="66.5" />
<rect fill="none" height="24" stroke="#405C86" stroke-width="3" width="12" x="294.5" y="66.5" />
<rect fill="#EEDDDB" height="24" width="12" x="282.5" y="66.5" />
<rect fill="none" height="24" stroke="#405C86" stroke-width="3" width="12" x="282.5" y="66.5" />
<rect fill="#EEDDDB" height="24" width="12" x="270.5" y="66.5" />
<rect fill="none" height="24" stroke="#405C86" stroke-width="3" width="12" x="270.5" y="66.5" />
<rect fill="#EEDDDB" height="24" width="12" x="258.5" y="66.5" />
<rect fill="none" height="24" stroke="#405C86" stroke-width="3" width="12" x="258.5" y="66.5" />
<rect fill="#EEDDDB" height="24" width="12" x="246.5" y="66.5" />
<rect fill="none" height="24" stroke="#405C86" stroke-width="3" width="12" x="246.5" y="66.5" />
<rect fill="#EEDDDB" height="24" width="12" x="234.5" y="66.5" />
<rect fill="none" height="24" stroke="#405C86" stroke-width="3" width="12" x="234.5" y="66.5" />
<rect fill="#EEDDDB" height="24" width="12" x="222.5" y="66.5" />
<rect fill="none" height="24" stroke="#405C86" stroke-width="3" width="12" x="222.5" y="66.5" />
<rect fill="#EEDDDB" height="24" width="12" x="210.5" y="66.5" />
<rect fill="none" height="24" stroke="#405C86" stroke-width="3" width="12" x="210.5" y="66.5" />
<rect fill="#EEDDDB" height="24" width="12" x="198.5" y="66.5" />
<rect fill="none" height="24" stroke="#405C86" stroke-width="3" width="12" x="198.5" y="66.5" />
<rect fill="#EEDDDB" height="24" width="12" x="186.5" y="66.5" />
<rect fill="none" height="24" stroke="#405C86" stroke-width="3" width="12" x="186.5" y="66.5" />
<rect fill="#EEDDDB" height="24" width="12" x="174.5" y="66.5" />
<rect fill="none" height="24" stroke="#405C86" stroke-width="3" width="12" x="174.5" y="66.5" />
<rect fill="#EEDDDB" height="24" width="12" x="162.5" y="66.5" />
<rect fill="none" height="24" stroke="#405C86" stroke-width="3" width="12" x="162.5" y="66.5" />
<rect fill="#EEDDDB" height="24" width="12" x="150.5" y="66.5" />
<rect fill="none" height="24" stroke="#405C86" stroke-width="3" width="12" x="150.5" y="66.5" />
<rect fill="#EEDDDB" height="24" width="12" x="138.5" y="66.5" />
<rect fill="none" height="24" stroke="#405C86" stroke-width="3" width="12" x="138.5" y="66.5" />
<rect fill="#EEDDDB" height="24" width="12" x="126.5" y="66.5" />
<rect fill="none" height="24" stroke="#405C86" stroke-width="3" width="12" x="126.5" y="66.5" />
<rect fill="#EEDDDB" height="24" width="12" x="114.5" y="66.5" />
<rect fill="none" height="24" stroke="#405C86" stroke-width="3" width="12" x="114.5" y="66.5" />
<rect fill="#EEDDDB" height="24" width="12" x="102.5" y="66.5" />
<rect fill="none" height="24" stroke="#405C86" stroke-width="3" width="12" x="102.5" y="66.5" />
<rect fill="#EEDDDB" height="24" width="12" x="90.5" y="66.5" />
<rect fill="none" height="24" stroke="#405C86" stroke-width="3" width="12" x="90.5" y="66.5" />
<text class="register-name" x="80.5" y="78.5">Pm</text>
<text class="intrinsic-name" x="80.5" y="90.5">op2</text>
<text class="register-number" x="10" y="78.5">(2)</text>
<rect fill="#DEE6F1" height="24" width="12" x="1614.5" y="138.5" />
<rect fill="none" height="24" stroke="#405C86" stroke-width="3" width="12" x="1614.5" y="138.5" />
<rect fill="#EEDDDB" height="24" width="12" x="1602.5" y="138.5" />
<rect fill="none" height="24" stroke="#405C86" stroke-width="3" width="12" x="1602.5" y="138.5" />
<rect fill="#DEE6F1" height="24" width="12" x="1590.5" y="138.5" />
<rect fill="none" height="24" stroke="#405C86" stroke-width="3" width="12" x="1590.5" y="138.5" />
<rect fill="#EEDDDB" height="24" width="12" x="1578.5" y="138.5" />
<rect fill="none" height="24" stroke="#405C86" stroke-width="3" width="12" x="1578.5" y="138.5" />
<rect fill="#DEE6F1" height="24" width="12" x="1566.5" y="138.5" />
<rect fill="none" height="24" stroke="#405C86" stroke-width="3" width="12" x="1566.5" y="138.5" />
<rect fill="#EEDDDB" height="24" width="12" x="1554.5" y="138.5" />
<rect fill="none" height="24" stroke="#405C86" stroke-width="3" width="12" x="1554.5" y="138.5" />
<rect fill="#DEE6F1" height="24" width="12" x="1542.5" y="138.5" />
<rect fill="none" height="24" stroke="#405C86" stroke-width="3" width="12" x="1542.5" y="138.5" />
<rect fill="#EEDDDB" height="24" width="12" x="1530.5" y="138.5" />
<rect fill="none" height="24" stroke="#405C86" stroke-width="3" width="12" x="1530.5" y="138.5" />
<rect fill="#DEE6F1" height="24" width="12" x="1518.5" y="138.5" />
<rect fill="none" height="24" stroke="#405C86" stroke-width="3" width="12" x="1518.5" y="138.5" />
<rect fill="#EEDDDB" height="24" width="12" x="1506.5" y="138.5" />
<rect fill="none" height="24" stroke="#405C86" stroke-width="3" width="12" x="1506.5" y="138.5" />
<rect fill="#DEE6F1" height="24" width="12" x="1494.5" y="138.5" />
<rect fill="none" height="24" stroke="#405C86" stroke-width="3" width="12" x="1494.5" y="138.5" />
<rect fill="#EEDDDB" height="24" width="12" x="1482.5" y="138.5" />
<rect fill="none" height="24" stroke="#405C86" stroke-width="3" width="12" x="1482.5" y="138.5" />
<rect fill="#DEE6F1" height="24" width="12" x="1470.5" y="138.5" />
<rect fill="none" height="24" stroke="#405C86" stroke-width="3" width="12" x="1470.5" y="138.5" />
<rect fill="#EEDDDB" height="24" width="12" x="1458.5" y="138.5" />
<rect fill="none" height="24" stroke="#405C86" stroke-width="3" width="12" x="1458.5" y="138.5" />
<rect fill="#DEE6F1" height="24" width="12" x="1446.5" y="138.5" />
<rect fill="none" height="24" stroke="#405C86" stroke-width="3" width="12" x="1446.5" y="138.5" />
<rect fill="#EEDDDB" height="24" width="12" x="1434.5" y="138.5" />
<rect fill="none" height="24" stroke="#405C86" stroke-width="3" width="12" x="1434.5" y="138.5" />
<rect fill="#DEE6F1" height="24" width="12" x="1422.5" y="138.5" />
<rect fill="none" height="24" stroke="#405C86" stroke-width="3" width="12" x="1422.5" y="138.5" />
<rect fill="#EEDDDB" height="24" width="12" x="1410.5" y="138.5" />
<rect fill="none" height="24" stroke="#405C86" stroke-width="3" width="12" x="1410.5" y="138.5" />
<rect fill="#DEE6F1" height="24" width="12" x="1398.5" y="138.5" />
<rect fill="none" height="24" stroke="#405C86" stroke-width="3" width="12" x="1398.5" y="138.5" />
<rect fill="#EEDDDB" height="24" width="12" x="1386.5" y="138.5" />
<rect fill="none" height="24" stroke="#405C86" stroke-width="3" width="12" x="1386.5" y="138.5" />
<rect fill="#DEE6F1" height="24" width="12" x="1374.5" y="138.5" />
<rect fill="none" height="24" stroke="#405C86" stroke-width="3" width="12" x="1374.5" y="138.5" />
<rect fill="#EEDDDB" height="24" width="12" x="1362.5" y="138.5" />
<rect fill="none" height="24" stroke="#405C86" stroke-width="3" width="12" x="1362.5" y="138.5" />
<rect fill="#DEE6F1" height="24" width="12" x="1350.5" y="138.5" />
<rect fill="none" height="24" stroke="#405C86" stroke-width="3" width="12" x="1350.5" y="138.5" />
<rect fill="#EEDDDB" height="24" width="12" x="1338.5" y="138.5" />
<rect fill="none" height="24" stroke="#405C86" stroke-width="3" width="12" x="1338.5" y="138.5" />
<rect fill="#DEE6F1" height="24" width="12" x="1326.5" y="138.5" />
<rect fill="none" height="24" stroke="#405C86" stroke-width="3" width="12" x="1326.5" y="138.5" />
<rect fill="#EEDDDB" height="24" width="12" x="1314.5" y="138.5" />
<rect fill="none" height="24" stroke="#405C86" stroke-width="3" width="12" x="1314.5" y="138.5" />
<rect fill="#DEE6F1" height="24" width="12" x="1302.5" y="138.5" />
<rect fill="none" height="24" stroke="#405C86" stroke-width="3" width="12" x="1302.5" y="138.5" />
<rect fill="#EEDDDB" height="24" width="12" x="1290.5" y="138.5" />
<rect fill="none" height="24" stroke="#405C86" stroke-width="3" width="12" x="1290.5" y="138.5" />
<rect fill="#DEE6F1" height="24" width="12" x="1278.5" y="138.5" />
<rect fill="none" height="24" stroke="#405C86" stroke-width="3" width="12" x="1278.5" y="138.5" />
<rect fill="#EEDDDB" height="24" width="12" x="1266.5" y="138.5" />
<rect fill="none" height="24" stroke="#405C86" stroke-width="3" width="12" x="1266.5" y="138.5" />
<rect fill="#DEE6F1" height="24" width="12" x="1254.5" y="138.5" />
<rect fill="none" height="24" stroke="#405C86" stroke-width="3" width="12" x="1254.5" y="138.5" />
<rect fill="#EEDDDB" height="24" width="12" x="1242.5" y="138.5" />
<rect fill="none" height="24" stroke="#405C86" stroke-width="3" width="12" x="1242.5" y="138.5" />
<rect fill="#DEE6F1" height="24" width="12" x="1230.5" y="138.5" />
<rect fill="none" height="24" stroke="#405C86" stroke-width="3" width="12" x="1230.5" y="138.5" />
<rect fill="#EEDDDB" height="24" width="12" x="1218.5" y="138.5" />
<rect fill="none" height="24" stroke="#405C86" stroke-width="3" width="12" x="1218.5" y="138.5" />
<rect fill="#DEE6F1" height="24" width="12" x="1206.5" y="138.5" />
<rect fill="none" height="24" stroke="#405C86" stroke-width="3" width="12" x="1206.5" y="138.5" />
<rect fill="#EEDDDB" height="24" width="12" x="1194.5" y="138.5" />
<rect fill="none" height="24" stroke="#405C86" stroke-width="3" width="12" x="1194.5" y="138.5" />
<rect fill="#DEE6F1" height="24" width="12" x="1182.5" y="138.5" />
<rect fill="none" height="24" stroke="#405C86" stroke-width="3" width="12" x="1182.5" y="138.5" />
<rect fill="#EEDDDB" height="24" width="12" x="1170.5" y="138.5" />
<rect fill="none" height="24" stroke="#405C86" stroke-width="3" width="12" x="1170.5" y="138.5" />
<rect fill="#DEE6F1" height="24" width="12" x="1158.5" y="138.5" />
<rect fill="none" height="24" stroke="#405C86" stroke-width="3" width="12" x="1158.5" y="138.5" />
<rect fill="#EEDDDB" height="24" width="12" x="1146.5" y="138.5" />
<rect fill="none" height="24" stroke="#405C86" stroke-width="3" width="12" x="1146.5" y="138.5" />
<rect fill="#DEE6F1" height="24" width="12" x="1134.5" y="138.5" />
<rect fill="none" height="24" stroke="#405C86" stroke-width="3" width="12" x="1134.5" y="138.5" />
<rect fill="#EEDDDB" height="24" width="12" x="1122.5" y="138.5" />
<rect fill="none" height="24" stroke="#405C86" stroke-width="3" width="12" x="1122.5" y="138.5" />
<rect fill="#DEE6F1" height="24" width="12" x="1110.5" y="138.5" />
<rect fill="none" height="24" stroke="#405C86" stroke-width="3" width="12" x="1110.5" y="138.5" />
<rect fill="#EEDDDB" height="24" width="12" x="1098.5" y="138.5" />
<rect fill="none" height="24" stroke="#405C86" stroke-width="3" width="12" x="1098.5" y="138.5" />
<rect fill="#DEE6F1" height="24" width="12" x="1086.5" y="138.5" />
<rect fill="none" height="24" stroke="#405C86" stroke-width="3" width="12" x="1086.5" y="138.5" />
<rect fill="#EEDDDB" height="24" width="12" x="1074.5" y="138.5" />
<rect fill="none" height="24" stroke="#405C86" stroke-width="3" width="12" x="1074.5" y="138.5" />
<rect fill="#DEE6F1" height="24" width="12" x="1062.5" y="138.5" />
<rect fill="none" height="24" stroke="#405C86" stroke-width="3" width="12" x="1062.5" y="138.5" />
<rect fill="#EEDDDB" height="24" width="12" x="1050.5" y="138.5" />
<rect fill="none" height="24" stroke="#405C86" stroke-width="3" width="12" x="1050.5" y="138.5" />
<rect fill="#DEE6F1" height="24" width="12" x="1038.5" y="138.5" />
<rect fill="none" height="24" stroke="#405C86" stroke-width="3" width="12" x="1038.5" y="138.5" />
<rect fill="#EEDDDB" height="24" width="12" x="1026.5" y="138.5" />
<rect fill="none" height="24" stroke="#405C86" stroke-width="3" width="12" x="1026.5" y="138.5" />
<rect fill="#DEE6F1" height="24" width="12" x="1014.5" y="138.5" />
<rect fill="none" height="24" stroke="#405C86" stroke-width="3" width="12" x="1014.5" y="138.5" />
<rect fill="#EEDDDB" height="24" width="12" x="1002.5" y="138.5" />
<rect fill="none" height="24" stroke="#405C86" stroke-width="3" width="12" x="1002.5" y="138.5" />
<rect fill="#DEE6F1" height="24" width="12" x="990.5" y="138.5" />
<rect fill="none" height="24" stroke="#405C86" stroke-width="3" width="12" x="990.5" y="138.5" />
<rect fill="#EEDDDB" height="24" width="12" x="978.5" y="138.5" />
<rect fill="none" height="24" stroke="#405C86" stroke-width="3" width="12" x="978.5" y="138.5" />
<rect fill="#DEE6F1" height="24" width="12" x="966.5" y="138.5" />
<rect fill="none" height="24" stroke="#405C86" stroke-width="3" width="12" x="966.5" y="138.5" />
<rect fill="#EEDDDB" height="24" width="12" x="954.5" y="138.5" />
<rect fill="none" height="24" stroke="#405C86" stroke-width="3" width="12" x="954.5" y="138.5" />
<rect fill="#DEE6F1" height="24" width="12" x="942.5" y="138.5" />
<rect fill="none" height="24" stroke="#405C86" stroke-width="3" width="12" x="942.5" y="138.5" />
<rect fill="#EEDDDB" height="24" width="12" x="930.5" y="138.5" />
<rect fill="none" height="24" stroke="#405C86" stroke-width="3" width="12" x="930.5" y="138.5" />
<rect fill="#DEE6F1" height="24" width="12" x="918.5" y="138.5" />
<rect fill="none" height="24" stroke="#405C86" stroke-width="3" width="12" x="918.5" y="138.5" />
<rect fill="#EEDDDB" height="24" width="12" x="906.5" y="138.5" />
<rect fill="none" height="24" stroke="#405C86" stroke-width="3" width="12" x="906.5" y="138.5" />
<rect fill="#DEE6F1" height="24" width="12" x="894.5" y="138.5" />
<rect fill="none" height="24" stroke="#405C86" stroke-width="3" width="12" x="894.5" y="138.5" />
<rect fill="#EEDDDB" height="24" width="12" x="882.5" y="138.5" />
<rect fill="none" height="24" stroke="#405C86" stroke-width="3" width="12" x="882.5" y="138.5" />
<rect fill="#DEE6F1" height="24" width="12" x="870.5" y="138.5" />
<rect fill="none" height="24" stroke="#405C86" stroke-width="3" width="12" x="870.5" y="138.5" />
<rect fill="#EEDDDB" height="24" width="12" x="858.5" y="138.5" />
<rect fill="none" height="24" stroke="#405C86" stroke-width="3" width="12" x="858.5" y="138.5" />
<rect fill="#DEE6F1" height="24" width="12" x="846.5" y="138.5" />
<rect fill="none" height="24" stroke="#405C86" stroke-width="3" width="12" x="846.5" y="138.5" />
<rect fill="#EEDDDB" height="24" width="12" x="834.5" y="138.5" />
<rect fill="none" height="24" stroke="#405C86" stroke-width="3" width="12" x="834.5" y="138.5" />
<rect fill="#DEE6F1" height="24" width="12" x="822.5" y="138.5" />
<rect fill="none" height="24" stroke="#405C86" stroke-width="3" width="12" x="822.5" y="138.5" />
<rect fill="#EEDDDB" height="24" width="12" x="810.5" y="138.5" />
<rect fill="none" height="24" stroke="#405C86" stroke-width="3" width="12" x="810.5" y="138.5" />
<rect fill="#DEE6F1" height="24" width="12" x="798.5" y="138.5" />
<rect fill="none" height="24" stroke="#405C86" stroke-width="3" width="12" x="798.5" y="138.5" />
<rect fill="#EEDDDB" height="24" width="12" x="786.5" y="138.5" />
<rect fill="none" height="24" stroke="#405C86" stroke-width="3" width="12" x="786.5" y="138.5" />
<rect fill="#DEE6F1" height="24" width="12" x="774.5" y="138.5" />
<rect fill="none" height="24" stroke="#405C86" stroke-width="3" width="12" x="774.5" y="138.5" />
<rect fill="#EEDDDB" height="24" width="12" x="762.5" y="138.5" />
<rect fill="none" height="24" stroke="#405C86" stroke-width="3" width="12" x="762.5" y="138.5" />
<rect fill="#DEE6F1" height="24" width="12" x="750.5" y="138.5" />
<rect fill="none" height="24" stroke="#405C86" stroke-width="3" width="12" x="750.5" y="138.5" />
<rect fill="#EEDDDB" height="24" width="12" x="738.5" y="138.5" />
<rect fill="none" height="24" stroke="#405C86" stroke-width="3" width="12" x="738.5" y="138.5" />
<rect fill="#DEE6F1" height="24" width="12" x="726.5" y="138.5" />
<rect fill="none" height="24" stroke="#405C86" stroke-width="3" width="12" x="726.5" y="138.5" />
<rect fill="#EEDDDB" height="24" width="12" x="714.5" y="138.5" />
<rect fill="none" height="24" stroke="#405C86" stroke-width="3" width="12" x="714.5" y="138.5" />
<rect fill="#DEE6F1" height="24" width="12" x="702.5" y="138.5" />
<rect fill="none" height="24" stroke="#405C86" stroke-width="3" width="12" x="702.5" y="138.5" />
<rect fill="#EEDDDB" height="24" width="12" x="690.5" y="138.5" />
<rect fill="none" height="24" stroke="#405C86" stroke-width="3" width="12" x="690.5" y="138.5" />
<rect fill="#DEE6F1" height="24" width="12" x="678.5" y="138.5" />
<rect fill="none" height="24" stroke="#405C86" stroke-width="3" width="12" x="678.5" y="138.5" />
<rect fill="#EEDDDB" height="24" width="12" x="666.5" y="138.5" />
<rect fill="none" height="24" stroke="#405C86" stroke-width="3" width="12" x="666.5" y="138.5" />
<rect fill="#DEE6F1" height="24" width="12" x="654.5" y="138.5" />
<rect fill="none" height="24" stroke="#405C86" stroke-width="3" width="12" x="654.5" y="138.5" />
<rect fill="#EEDDDB" height="24" width="12" x="642.5" y="138.5" />
<rect fill="none" height="24" stroke="#405C86" stroke-width="3" width="12" x="642.5" y="138.5" />
<rect fill="#DEE6F1" height="24" width="12" x="630.5" y="138.5" />
<rect fill="none" height="24" stroke="#405C86" stroke-width="3" width="12" x="630.5" y="138.5" />
<rect fill="#EEDDDB" height="24" width="12" x="618.5" y="138.5" />
<rect fill="none" height="24" stroke="#405C86" stroke-width="3" width="12" x="618.5" y="138.5" />
<rect fill="#DEE6F1" height="24" width="12" x="606.5" y="138.5" />
<rect fill="none" height="24" stroke="#405C86" stroke-width="3" width="12" x="606.5" y="138.5" />
<rect fill="#EEDDDB" height="24" width="12" x="594.5" y="138.5" />
<rect fill="none" height="24" stroke="#405C86" stroke-width="3" width="12" x="594.5" y="138.5" />
<rect fill="#DEE6F1" height="24" width="12" x="582.5" y="138.5" />
<rect fill="none" height="24" stroke="#405C86" stroke-width="3" width="12" x="582.5" y="138.5" />
<rect fill="#EEDDDB" height="24" width="12" x="570.5" y="138.5" />
<rect fill="none" height="24" stroke="#405C86" stroke-width="3" width="12" x="570.5" y="138.5" />
<rect fill="#DEE6F1" height="24" width="12" x="558.5" y="138.5" />
<rect fill="none" height="24" stroke="#405C86" stroke-width="3" width="12" x="558.5" y="138.5" />
<rect fill="#EEDDDB" height="24" width="12" x="546.5" y="138.5" />
<rect fill="none" height="24" stroke="#405C86" stroke-width="3" width="12" x="546.5" y="138.5" />
<rect fill="#DEE6F1" height="24" width="12" x="534.5" y="138.5" />
<rect fill="none" height="24" stroke="#405C86" stroke-width="3" width="12" x="534.5" y="138.5" />
<rect fill="#EEDDDB" height="24" width="12" x="522.5" y="138.5" />
<rect fill="none" height="24" stroke="#405C86" stroke-width="3" width="12" x="522.5" y="138.5" />
<rect fill="#DEE6F1" height="24" width="12" x="510.5" y="138.5" />
<rect fill="none" height="24" stroke="#405C86" stroke-width="3" width="12" x="510.5" y="138.5" />
<rect fill="#EEDDDB" height="24" width="12" x="498.5" y="138.5" />
<rect fill="none" height="24" stroke="#405C86" stroke-width="3" width="12" x="498.5" y="138.5" />
<rect fill="#DEE6F1" height="24" width="12" x="486.5" y="138.5" />
<rect fill="none" height="24" stroke="#405C86" stroke-width="3" width="12" x="486.5" y="138.5" />
<rect fill="#EEDDDB" height="24" width="12" x="474.5" y="138.5" />
<rect fill="none" height="24" stroke="#405C86" stroke-width="3" width="12" x="474.5" y="138.5" />
<rect fill="#DEE6F1" height="24" width="12" x="462.5" y="138.5" />
<rect fill="none" height="24" stroke="#405C86" stroke-width="3" width="12" x="462.5" y="138.5" />
<rect fill="#EEDDDB" height="24" width="12" x="450.5" y="138.5" />
<rect fill="none" height="24" stroke="#405C86" stroke-width="3" width="12" x="450.5" y="138.5" />
<rect fill="#DEE6F1" height="24" width="12" x="438.5" y="138.5" />
<rect fill="none" height="24" stroke="#405C86" stroke-width="3" width="12" x="438.5" y="138.5" />
<rect fill="#EEDDDB" height="24" width="12" x="426.5" y="138.5" />
<rect fill="none" height="24" stroke="#405C86" stroke-width="3" width="12" x="426.5" y="138.5" />
<rect fill="#DEE6F1" height="24" width="12" x="414.5" y="138.5" />
<rect fill="none" height="24" stroke="#405C86" stroke-width="3" width="12" x="414.5" y="138.5" />
<rect fill="#EEDDDB" height="24" width="12" x="402.5" y="138.5" />
<rect fill="none" height="24" stroke="#405C86" stroke-width="3" width="12" x="402.5" y="138.5" />
<rect fill="#DEE6F1" height="24" width="12" x="390.5" y="138.5" />
<rect fill="none" height="24" stroke="#405C86" stroke-width="3" width="12" x="390.5" y="138.5" />
<rect fill="#EEDDDB" height="24" width="12" x="378.5" y="138.5" />
<rect fill="none" height="24" stroke="#405C86" stroke-width="3" width="12" x="378.5" y="138.5" />
<rect fill="#DEE6F1" height="24" width="12" x="366.5" y="138.5" />
<rect fill="none" height="24" stroke="#405C86" stroke-width="3" width="12" x="366.5" y="138.5" />
<rect fill="#EEDDDB" height="24" width="12" x="354.5" y="138.5" />
<rect fill="none" height="24" stroke="#405C86" stroke-width="3" width="12" x="354.5" y="138.5" />
<rect fill="#DEE6F1" height="24" width="12" x="342.5" y="138.5" />
<rect fill="none" height="24" stroke="#405C86" stroke-width="3" width="12" x="342.5" y="138.5" />
<rect fill="#EEDDDB" height="24" width="12" x="330.5" y="138.5" />
<rect fill="none" height="24" stroke="#405C86" stroke-width="3" width="12" x="330.5" y="138.5" />
<rect fill="#DEE6F1" height="24" width="12" x="318.5" y="138.5" />
<rect fill="none" height="24" stroke="#405C86" stroke-width="3" width="12" x="318.5" y="138.5" />
<rect fill="#EEDDDB" height="24" width="12" x="306.5" y="138.5" />
<rect fill="none" height="24" stroke="#405C86" stroke-width="3" width="12" x="306.5" y="138.5" />
<rect fill="#DEE6F1" height="24" width="12" x="294.5" y="138.5" />
<rect fill="none" height="24" stroke="#405C86" stroke-width="3" width="12" x="294.5" y="138.5" />
<rect fill="#EEDDDB" height="24" width="12" x="282.5" y="138.5" />
<rect fill="none" height="24" stroke="#405C86" stroke-width="3" width="12" x="282.5" y="138.5" />
<rect fill="#DEE6F1" height="24" width="12" x="270.5" y="138.5" />
<rect fill="none" height="24" stroke="#405C86" stroke-width="3" width="12" x="270.5" y="138.5" />
<rect fill="#EEDDDB" height="24" width="12" x="258.5" y="138.5" />
<rect fill="none" height="24" stroke="#405C86" stroke-width="3" width="12" x="258.5" y="138.5" />
<rect fill="#DEE6F1" height="24" width="12" x="246.5" y="138.5" />
<rect fill="none" height="24" stroke="#405C86" stroke-width="3" width="12" x="246.5" y="138.5" />
<rect fill="#EEDDDB" height="24" width="12" x="234.5" y="138.5" />
<rect fill="none" height="24" stroke="#405C86" stroke-width="3" width="12" x="234.5" y="138.5" />
<rect fill="#DEE6F1" height="24" width="12" x="222.5" y="138.5" />
<rect fill="none" height="24" stroke="#405C86" stroke-width="3" width="12" x="222.5" y="138.5" />
<rect fill="#EEDDDB" height="24" width="12" x="210.5" y="138.5" />
<rect fill="none" height="24" stroke="#405C86" stroke-width="3" width="12" x="210.5" y="138.5" />
<rect fill="#DEE6F1" height="24" width="12" x="198.5" y="138.5" />
<rect fill="none" height="24" stroke="#405C86" stroke-width="3" width="12" x="198.5" y="138.5" />
<rect fill="#EEDDDB" height="24" width="12" x="186.5" y="138.5" />
<rect fill="none" height="24" stroke="#405C86" stroke-width="3" width="12" x="186.5" y="138.5" />
<rect fill="#DEE6F1" height="24" width="12" x="174.5" y="138.5" />
<rect fill="none" height="24" stroke="#405C86" stroke-width="3" width="12" x="174.5" y="138.5" />
<rect fill="#EEDDDB" height="24" width="12" x="162.5" y="138.5" />
<rect fill="none" height="24" stroke="#405C86" stroke-width="3" width="12" x="162.5" y="138.5" />
<rect fill="#DEE6F1" height="24" width="12" x="150.5" y="138.5" />
<rect fill="none" height="24" stroke="#405C86" stroke-width="3" width="12" x="150.5" y="138.5" />
<rect fill="#EEDDDB" height="24" width="12" x="138.5" y="138.5" />
<rect fill="none" height="24" stroke="#405C86" stroke-width="3" width="12" x="138.5" y="138.5" />
<rect fill="#DEE6F1" height="24" width="12" x="126.5" y="138.5" />
<rect fill="none" height="24" stroke="#405C86" stroke-width="3" width="12" x="126.5" y="138.5" />
<rect fill="#EEDDDB" height="24" width="12" x="114.5" y="138.5" />
<rect fill="none" height="24" stroke="#405C86" stroke-width="3" width="12" x="114.5" y="138.5" />
<rect fill="#DEE6F1" height="24" width="12" x="102.5" y="138.5" />
<rect fill="none" height="24" stroke="#405C86" stroke-width="3" width="12" x="102.5" y="138.5" />
<rect fill="#EEDDDB" height="24" width="12" x="90.5" y="138.5" />
<rect fill="none" height="24" stroke="#405C86" stroke-width="3" width="12" x="90.5" y="138.5" />
<text class="register-name" x="80.5" y="150.5">Pd</text>
<text class="intrinsic-name" x="80.5" y="162.5">returns</text>
<text class="register-number" x="10" y="150.5">(3)</text>
<line stroke="#567DB6" stroke-width="1" x1="852.5" x2="1620.5" y1="43.5" y2="137" />
<line stroke="#567DB6" stroke-width="1" x1="852.5" x2="1608.5" y1="91.5" y2="137" />
<line stroke="#567DB6" stroke-width="1" x1="108.5" x2="132.5" y1="43.5" y2="137" />
<line stroke="#567DB6" stroke-width="1" x1="108.5" x2="120.5" y1="91.5" y2="137" />
<line stroke="#567DB6" stroke-width="1" x1="96.5" x2="108.5" y1="43.5" y2="137" />
<line stroke="#567DB6" stroke-width="1" x1="96.5" x2="96.5" y1="91.5" y2="137" />
<line marker-end="url(#arrowhead)" stroke="none" x1="852.5" x2="1620.5" y1="43.5" y2="137" />
<line marker-end="url(#arrowhead)" stroke="none" x1="852.5" x2="1608.5" y1="91.5" y2="137" />
<line marker-end="url(#arrowhead)" stroke="none" x1="108.5" x2="132.5" y1="43.5" y2="137" />
<line marker-end="url(#arrowhead)" stroke="none" x1="108.5" x2="120.5" y1="91.5" y2="137" />
<line marker-end="url(#arrowhead)" stroke="none" x1="96.5" x2="108.5" y1="43.5" y2="137" />
<line marker-end="url(#arrowhead)" stroke="none" x1="96.5" x2="96.5" y1="91.5" y2="137" />
</svg>