<svg xmlns="http://www.w3.org/2000/svg" viewBox="0 0 486 219">
<style>
.label { font: 14px Helvetica; dominant-baseline: middle; text-anchor: middle; }
.title-left { font: 12px Helvetica; dominant-baseline: middle; }
.title-right { font: 12px Helvetica; dominant-baseline: middle; text-anchor: end; }
.title-intrinsic { font: 12px Helvetica; dominant-baseline: middle; text-anchor: middle; fill: #6778ED; }
.title { font: 12px Helvetica; dominant-baseline: middle; text-anchor: middle; }
.title-unused { font: 12px Helvetica; dominant-baseline: middle; text-anchor: middle; fill: #AAA; }
.register-name { font: 14px Helvetica; dominant-baseline: middle; text-anchor: end; font-style: italic; }
.memory-name { font: 14px Helvetica; dominant-baseline: middle; text-anchor: end; }
.register-number { font: 14px Helvetica; dominant-baseline: middle; text-anchor: start; }
.intrinsic-name { font: 14px Helvetica; dominant-baseline: middle; text-anchor: end; fill: #6778ED; }
.intrinsic-color { fill: #6778ED; }
.small-label { font: 12px Helvetica; dominant-baseline: middle; text-anchor: middle; }
.label-10px { font: 10px Helvetica; dominant-baseline: middle; text-anchor: middle; }
.smaller-label { font: 9px Helvetica; dominant-baseline: middle; text-anchor: middle; }
.label-6px { font: 6px Helvetica; dominant-baseline: middle; text-anchor: middle; }
.label-7px { font: 7px Helvetica; dominant-baseline: middle; text-anchor: middle; }
.unused { fill: #AAA; }
.dim { fill: #888; }
</style>
<defs>
<marker id="arrowhead" markerWidth="10.75" markerHeight="24.5" refX="9.0" refY="6.125" orient="auto">
<polyline points="0.5 0.5, 8.75 6.125, 0.5 11.75" stroke="#567DB6" stroke-width="1" fill="none"/>
</marker>
</defs>
<line stroke="#567DB6" stroke-width="1" x1="378" x2="369.09375" y1="42.5" y2="65.5" />
<line stroke="#567DB6" stroke-width="1" x1="474" x2="464.09375" y1="42.5" y2="65.5" />
<line stroke="#567DB6" stroke-width="1" x1="186" x2="177.09375" y1="42.5" y2="65.5" />
<line stroke="#567DB6" stroke-width="1" x1="282" x2="272.09375" y1="42.5" y2="65.5" />
<line stroke="#567DB6" stroke-width="1" x1="378" x2="378" y1="90.5" y2="113.5" />
<line stroke="#567DB6" stroke-width="1" x1="186" x2="186" y1="90.5" y2="113.5" />
<line stroke="#567DB6" stroke-width="1" x1="378" x2="378" y1="138.5" y2="185" />
<line stroke="#567DB6" stroke-width="1" x1="186" x2="186" y1="138.5" y2="185" />
<text class="title-left" x="90" y="9">upper</text>
<text class="title-right" x="474" y="9">lower</text>
<rect fill="#DEE6F1" height="24" width="192" x="282" y="114" />
<rect fill="none" height="24" stroke="#405C86" stroke-width="2" width="192" x="282" y="114" />
<rect fill="#DEE6F1" height="24" width="192" x="90" y="114" />
<rect fill="none" height="24" stroke="#405C86" stroke-width="2" width="192" x="90" y="114" />
<text class="register-name" x="80" y="126">Zn</text>
<text class="intrinsic-name" x="80" y="138">bases</text>
<text class="register-number" x="10" y="126">(2)</text>
<rect fill="#DEE6F1" height="24" width="92.03125" x="372.0625" y="66" />
<rect fill="#EEDDDB" height="24" width="90.0625" x="282" y="66" />
<rect fill="none" height="24" stroke="#405C86" stroke-width="2" width="192" x="282" y="66" />
<rect fill="#DEE6F1" height="24" width="92.03125" x="180.0625" y="66" />
<rect fill="#EEDDDB" height="24" width="90.0625" x="90" y="66" />
<rect fill="none" height="24" stroke="#405C86" stroke-width="2" width="192" x="90" y="66" />
<rect fill="#DEE6F1" height="24" width="93.03125" x="380.96875" y="18" />
<rect fill="#EEDDDB" height="24" width="2.96875" x="378" y="18" />
<rect fill="none" height="24" stroke="#405C86" stroke-width="2" width="192" x="282" y="18" />
<rect fill="#DEE6F1" height="24" width="93.03125" x="188.96875" y="18" />
<rect fill="#EEDDDB" height="24" width="2.96875" x="186" y="18" />
<rect fill="none" height="24" stroke="#405C86" stroke-width="2" width="192" x="90" y="18" />
<text class="register-name" x="80" y="30">Zm</text>
<text class="intrinsic-name" x="80" y="42">offsets</text>
<text class="register-number" x="10" y="30">(1)</text>
<rect fill="#DEE6F1" height="24" width="192" x="282" y="186" />
<rect fill="none" height="24" stroke="#405C86" stroke-width="2" width="192" x="282" y="186" />
<rect fill="#DEE6F1" height="24" width="192" x="90" y="186" />
<rect fill="none" height="24" stroke="#405C86" stroke-width="2" width="192" x="90" y="186" />
<text class="register-name" x="80" y="198">Zd</text>
<text class="intrinsic-name" x="80" y="210">returns</text>
<text class="register-number" x="10" y="198">(3)</text>
<line marker-end="url(#arrowhead)" stroke="none" x1="378" x2="378" y1="138.5" y2="185" />
<line marker-end="url(#arrowhead)" stroke="none" x1="186" x2="186" y1="138.5" y2="185" />
</svg>