<svg xmlns="http://www.w3.org/2000/svg" viewBox="0 0 870 351">
<style>
.label { font: 14px Helvetica; dominant-baseline: middle; text-anchor: middle; }
.title-left { font: 12px Helvetica; dominant-baseline: middle; }
.title-right { font: 12px Helvetica; dominant-baseline: middle; text-anchor: end; }
.title-intrinsic { font: 12px Helvetica; dominant-baseline: middle; text-anchor: middle; fill: #6778ED; }
.title { font: 12px Helvetica; dominant-baseline: middle; text-anchor: middle; }
.title-unused { font: 12px Helvetica; dominant-baseline: middle; text-anchor: middle; fill: #AAA; }
.register-name { font: 14px Helvetica; dominant-baseline: middle; text-anchor: end; font-style: italic; }
.memory-name { font: 14px Helvetica; dominant-baseline: middle; text-anchor: end; }
.register-number { font: 14px Helvetica; dominant-baseline: middle; text-anchor: start; }
.intrinsic-name { font: 14px Helvetica; dominant-baseline: middle; text-anchor: end; fill: #6778ED; }
.intrinsic-color { fill: #6778ED; }
.small-label { font: 12px Helvetica; dominant-baseline: middle; text-anchor: middle; }
.label-10px { font: 10px Helvetica; dominant-baseline: middle; text-anchor: middle; }
.smaller-label { font: 9px Helvetica; dominant-baseline: middle; text-anchor: middle; }
.label-6px { font: 6px Helvetica; dominant-baseline: middle; text-anchor: middle; }
.label-7px { font: 7px Helvetica; dominant-baseline: middle; text-anchor: middle; }
.unused { fill: #AAA; }
.dim { fill: #888; }
</style>
<defs>
<marker id="arrowhead" markerWidth="9.5" markerHeight="21.0" refX="7.75" refY="5.25" orient="auto">
<polyline points="0.5 0.5, 7.5 5.25, 0.5 10.0" stroke="#567DB6" stroke-width="1" fill="none"/>
</marker>
</defs>
<rect fill="#FAEBDC" height="144" width="48" x="138" y="2" />
<text class="title-left" x="90" y="9">upper</text>
<text class="title-right" x="858" y="9">lower</text>
<rect fill="#FAEBDC" height="168" width="193" x="66" y="182" />
<text class="title-left" x="66" y="189">upper</text>
<text class="title-right" x="258" y="189">lower</text>
<rect fill="#DEE6F1" height="24" width="12" x="246" y="198" />
<rect fill="none" height="24" stroke="#405C86" stroke-width="2" width="12" x="246" y="198" />
<text class="label unused" x="252" y="211">1</text>
<rect fill="#DEE6F1" height="24" width="12" x="234" y="198" />
<rect fill="none" height="24" stroke="#405C86" stroke-width="2" width="12" x="234" y="198" />
<text class="label unused" x="240" y="211">0</text>
<rect fill="#DEE6F1" height="24" width="12" x="222" y="198" />
<rect fill="none" height="24" stroke="#405C86" stroke-width="2" width="12" x="222" y="198" />
<text class="label unused" x="228" y="211">1</text>
<rect fill="#ECF1E0" height="24" width="12" x="210" y="198" />
<rect fill="none" height="24" stroke="#405C86" stroke-width="2" width="12" x="210" y="198" />
<text class="label unused" x="216" y="211">1</text>
<rect fill="#ECF1E0" height="24" width="12" x="198" y="198" />
<rect fill="none" height="24" stroke="#405C86" stroke-width="2" width="12" x="198" y="198" />
<text class="label unused" x="204" y="211">0</text>
<rect fill="#DEE6F1" height="24" width="12" x="186" y="198" />
<rect fill="none" height="24" stroke="#405C86" stroke-width="2" width="12" x="186" y="198" />
<text class="label unused" x="192" y="211">1</text>
<rect fill="#ECF1E0" height="24" width="12" x="174" y="198" />
<rect fill="none" height="24" stroke="#405C86" stroke-width="2" width="12" x="174" y="198" />
<text class="label unused" x="180" y="211">0</text>
<rect fill="#DEE6F1" height="24" width="12" x="162" y="198" />
<rect fill="none" height="24" stroke="#405C86" stroke-width="2" width="12" x="162" y="198" />
<text class="label unused" x="168" y="211">1</text>
<rect fill="#ECF1E0" height="24" width="12" x="150" y="198" />
<rect fill="none" height="24" stroke="#405C86" stroke-width="2" width="12" x="150" y="198" />
<text class="label unused" x="156" y="211">1</text>
<rect fill="#ECF1E0" height="24" width="12" x="138" y="198" />
<rect fill="none" height="24" stroke="#405C86" stroke-width="2" width="12" x="138" y="198" />
<text class="label unused" x="144" y="211">1</text>
<rect fill="#ECF1E0" height="24" width="12" x="126" y="198" />
<rect fill="none" height="24" stroke="#405C86" stroke-width="2" width="12" x="126" y="198" />
<text class="label unused" x="132" y="211">0</text>
<rect fill="#DEE6F1" height="24" width="12" x="114" y="198" />
<rect fill="none" height="24" stroke="#405C86" stroke-width="2" width="12" x="114" y="198" />
<text class="label unused" x="120" y="211">1</text>
<rect fill="#ECF1E0" height="24" width="12" x="102" y="198" />
<rect fill="none" height="24" stroke="#405C86" stroke-width="2" width="12" x="102" y="198" />
<text class="label unused" x="108" y="211">1</text>
<rect fill="#DEE6F1" height="24" width="12" x="90" y="198" />
<rect fill="none" height="24" stroke="#405C86" stroke-width="2" width="12" x="90" y="198" />
<text class="label unused" x="96" y="211">0</text>
<rect fill="#DEE6F1" height="24" width="12" x="78" y="198" />
<rect fill="none" height="24" stroke="#405C86" stroke-width="2" width="12" x="78" y="198" />
<text class="label unused" x="84" y="211">0</text>
<rect fill="#ECF1E0" height="24" width="12" x="66" y="198" />
<rect fill="none" height="24" stroke="#405C86" stroke-width="2" width="12" x="66" y="198" />
<text class="label unused" x="72" y="211">1</text>
<text class="register-name" x="56" y="210">Zn</text>
<text class="intrinsic-name" x="56" y="222">op1</text>
<rect fill="#EEDDDB" height="24" width="12" x="246" y="246" />
<rect fill="none" height="24" stroke="#405C86" stroke-width="2" width="12" x="246" y="246" />
<text class="label" x="252" y="259">1</text>
<rect fill="#EEDDDB" height="24" width="12" x="234" y="246" />
<rect fill="none" height="24" stroke="#405C86" stroke-width="2" width="12" x="234" y="246" />
<text class="label" x="240" y="259">1</text>
<rect fill="#EEDDDB" height="24" width="12" x="222" y="246" />
<rect fill="none" height="24" stroke="#405C86" stroke-width="2" width="12" x="222" y="246" />
<text class="label" x="228" y="259">1</text>
<rect fill="#EEDDDB" height="24" width="12" x="210" y="246" />
<rect fill="none" height="24" stroke="#405C86" stroke-width="2" width="12" x="210" y="246" />
<text class="label" x="216" y="259">0</text>
<rect fill="#EEDDDB" height="24" width="12" x="198" y="246" />
<rect fill="none" height="24" stroke="#405C86" stroke-width="2" width="12" x="198" y="246" />
<text class="label" x="204" y="259">0</text>
<rect fill="#EEDDDB" height="24" width="12" x="186" y="246" />
<rect fill="none" height="24" stroke="#405C86" stroke-width="2" width="12" x="186" y="246" />
<text class="label" x="192" y="259">1</text>
<rect fill="#EEDDDB" height="24" width="12" x="174" y="246" />
<rect fill="none" height="24" stroke="#405C86" stroke-width="2" width="12" x="174" y="246" />
<text class="label" x="180" y="259">0</text>
<rect fill="#EEDDDB" height="24" width="12" x="162" y="246" />
<rect fill="none" height="24" stroke="#405C86" stroke-width="2" width="12" x="162" y="246" />
<text class="label" x="168" y="259">1</text>
<rect fill="#EEDDDB" height="24" width="12" x="150" y="246" />
<rect fill="none" height="24" stroke="#405C86" stroke-width="2" width="12" x="150" y="246" />
<text class="label" x="156" y="259">0</text>
<rect fill="#EEDDDB" height="24" width="12" x="138" y="246" />
<rect fill="none" height="24" stroke="#405C86" stroke-width="2" width="12" x="138" y="246" />
<text class="label" x="144" y="259">0</text>
<rect fill="#EEDDDB" height="24" width="12" x="126" y="246" />
<rect fill="none" height="24" stroke="#405C86" stroke-width="2" width="12" x="126" y="246" />
<text class="label" x="132" y="259">0</text>
<rect fill="#EEDDDB" height="24" width="12" x="114" y="246" />
<rect fill="none" height="24" stroke="#405C86" stroke-width="2" width="12" x="114" y="246" />
<text class="label" x="120" y="259">1</text>
<rect fill="#EEDDDB" height="24" width="12" x="102" y="246" />
<rect fill="none" height="24" stroke="#405C86" stroke-width="2" width="12" x="102" y="246" />
<text class="label" x="108" y="259">0</text>
<rect fill="#EEDDDB" height="24" width="12" x="90" y="246" />
<rect fill="none" height="24" stroke="#405C86" stroke-width="2" width="12" x="90" y="246" />
<text class="label" x="96" y="259">1</text>
<rect fill="#EEDDDB" height="24" width="12" x="78" y="246" />
<rect fill="none" height="24" stroke="#405C86" stroke-width="2" width="12" x="78" y="246" />
<text class="label" x="84" y="259">1</text>
<rect fill="#EEDDDB" height="24" width="12" x="66" y="246" />
<rect fill="none" height="24" stroke="#405C86" stroke-width="2" width="12" x="66" y="246" />
<text class="label" x="72" y="259">0</text>
<text class="register-name" x="56" y="258">Zm</text>
<text class="intrinsic-name" x="56" y="270">op2</text>
<rect fill="#DEE6F1" height="24" width="12" x="246" y="318" />
<rect fill="none" height="24" stroke="#405C86" stroke-width="2" width="12" x="246" y="318" />
<text class="label unused" x="252" y="331">1</text>
<rect fill="#DEE6F1" height="24" width="12" x="234" y="318" />
<rect fill="none" height="24" stroke="#405C86" stroke-width="2" width="12" x="234" y="318" />
<text class="label unused" x="240" y="331">0</text>
<rect fill="#DEE6F1" height="24" width="12" x="222" y="318" />
<rect fill="none" height="24" stroke="#405C86" stroke-width="2" width="12" x="222" y="318" />
<text class="label unused" x="228" y="331">1</text>
<rect fill="#DEE6F1" height="24" width="12" x="210" y="318" />
<rect fill="none" height="24" stroke="#405C86" stroke-width="2" width="12" x="210" y="318" />
<text class="label unused" x="216" y="331">1</text>
<rect fill="#DEE6F1" height="24" width="12" x="198" y="318" />
<rect fill="none" height="24" stroke="#405C86" stroke-width="2" width="12" x="198" y="318" />
<text class="label unused" x="204" y="331">1</text>
<rect fill="#DEE6F1" height="24" width="12" x="186" y="318" />
<rect fill="none" height="24" stroke="#405C86" stroke-width="2" width="12" x="186" y="318" />
<text class="label unused" x="192" y="331">1</text>
<rect fill="#DEE6F1" height="24" width="12" x="174" y="318" />
<rect fill="none" height="24" stroke="#405C86" stroke-width="2" width="12" x="174" y="318" />
<text class="label unused" x="180" y="331">0</text>
<rect fill="#DEE6F1" height="24" width="12" x="162" y="318" />
<rect fill="none" height="24" stroke="#405C86" stroke-width="2" width="12" x="162" y="318" />
<text class="label unused" x="168" y="331">0</text>
<rect fill="#ECF1E0" height="24" width="12" x="150" y="318" />
<rect fill="none" height="24" stroke="#405C86" stroke-width="2" width="12" x="150" y="318" />
<text class="label unused" x="156" y="331">1</text>
<rect fill="#ECF1E0" height="24" width="12" x="138" y="318" />
<rect fill="none" height="24" stroke="#405C86" stroke-width="2" width="12" x="138" y="318" />
<text class="label unused" x="144" y="331">0</text>
<rect fill="#ECF1E0" height="24" width="12" x="126" y="318" />
<rect fill="none" height="24" stroke="#405C86" stroke-width="2" width="12" x="126" y="318" />
<text class="label unused" x="132" y="331">0</text>
<rect fill="#ECF1E0" height="24" width="12" x="114" y="318" />
<rect fill="none" height="24" stroke="#405C86" stroke-width="2" width="12" x="114" y="318" />
<text class="label unused" x="120" y="331">1</text>
<rect fill="#ECF1E0" height="24" width="12" x="102" y="318" />
<rect fill="none" height="24" stroke="#405C86" stroke-width="2" width="12" x="102" y="318" />
<text class="label unused" x="108" y="331">1</text>
<rect fill="#ECF1E0" height="24" width="12" x="90" y="318" />
<rect fill="none" height="24" stroke="#405C86" stroke-width="2" width="12" x="90" y="318" />
<text class="label unused" x="96" y="331">0</text>
<rect fill="#ECF1E0" height="24" width="12" x="78" y="318" />
<rect fill="none" height="24" stroke="#405C86" stroke-width="2" width="12" x="78" y="318" />
<text class="label unused" x="84" y="331">1</text>
<rect fill="#ECF1E0" height="24" width="12" x="66" y="318" />
<rect fill="none" height="24" stroke="#405C86" stroke-width="2" width="12" x="66" y="318" />
<text class="label unused" x="72" y="331">1</text>
<text class="register-name" x="56" y="330">Zd</text>
<text class="intrinsic-name" x="56" y="342">returns</text>
<rect fill="#DEE6F1" height="24" width="48" x="810" y="18" />
<rect fill="none" height="24" stroke="#405C86" stroke-width="2" width="48" x="810" y="18" />
<rect fill="#DEE6F1" height="24" width="48" x="762" y="18" />
<rect fill="none" height="24" stroke="#405C86" stroke-width="2" width="48" x="762" y="18" />
<rect fill="#DEE6F1" height="24" width="48" x="714" y="18" />
<rect fill="none" height="24" stroke="#405C86" stroke-width="2" width="48" x="714" y="18" />
<rect fill="#DEE6F1" height="24" width="48" x="666" y="18" />
<rect fill="none" height="24" stroke="#405C86" stroke-width="2" width="48" x="666" y="18" />
<rect fill="#DEE6F1" height="24" width="48" x="618" y="18" />
<rect fill="none" height="24" stroke="#405C86" stroke-width="2" width="48" x="618" y="18" />
<rect fill="#DEE6F1" height="24" width="48" x="570" y="18" />
<rect fill="none" height="24" stroke="#405C86" stroke-width="2" width="48" x="570" y="18" />
<rect fill="#DEE6F1" height="24" width="48" x="522" y="18" />
<rect fill="none" height="24" stroke="#405C86" stroke-width="2" width="48" x="522" y="18" />
<rect fill="#DEE6F1" height="24" width="48" x="474" y="18" />
<rect fill="none" height="24" stroke="#405C86" stroke-width="2" width="48" x="474" y="18" />
<rect fill="#DEE6F1" height="24" width="48" x="426" y="18" />
<rect fill="none" height="24" stroke="#405C86" stroke-width="2" width="48" x="426" y="18" />
<rect fill="#DEE6F1" height="24" width="48" x="378" y="18" />
<rect fill="none" height="24" stroke="#405C86" stroke-width="2" width="48" x="378" y="18" />
<rect fill="#DEE6F1" height="24" width="48" x="330" y="18" />
<rect fill="none" height="24" stroke="#405C86" stroke-width="2" width="48" x="330" y="18" />
<rect fill="#DEE6F1" height="24" width="48" x="282" y="18" />
<rect fill="none" height="24" stroke="#405C86" stroke-width="2" width="48" x="282" y="18" />
<rect fill="#DEE6F1" height="24" width="48" x="234" y="18" />
<rect fill="none" height="24" stroke="#405C86" stroke-width="2" width="48" x="234" y="18" />
<rect fill="#DEE6F1" height="24" width="48" x="186" y="18" />
<rect fill="none" height="24" stroke="#405C86" stroke-width="2" width="48" x="186" y="18" />
<rect fill="#DEE6F1" height="24" width="48" x="138" y="18" />
<rect fill="none" height="24" stroke="#405C86" stroke-width="2" width="48" x="138" y="18" />
<rect fill="#DEE6F1" height="24" width="48" x="90" y="18" />
<rect fill="none" height="24" stroke="#405C86" stroke-width="2" width="48" x="90" y="18" />
<text class="register-name" x="80" y="30">Zn</text>
<text class="intrinsic-name" x="80" y="42">op1</text>
<text class="register-number" x="10" y="30">(1)</text>
<rect fill="#DEE6F1" height="24" width="48" x="810" y="66" />
<rect fill="none" height="24" stroke="#405C86" stroke-width="2" width="48" x="810" y="66" />
<rect fill="#DEE6F1" height="24" width="48" x="762" y="66" />
<rect fill="none" height="24" stroke="#405C86" stroke-width="2" width="48" x="762" y="66" />
<rect fill="#DEE6F1" height="24" width="48" x="714" y="66" />
<rect fill="none" height="24" stroke="#405C86" stroke-width="2" width="48" x="714" y="66" />
<rect fill="#DEE6F1" height="24" width="48" x="666" y="66" />
<rect fill="none" height="24" stroke="#405C86" stroke-width="2" width="48" x="666" y="66" />
<rect fill="#DEE6F1" height="24" width="48" x="618" y="66" />
<rect fill="none" height="24" stroke="#405C86" stroke-width="2" width="48" x="618" y="66" />
<rect fill="#DEE6F1" height="24" width="48" x="570" y="66" />
<rect fill="none" height="24" stroke="#405C86" stroke-width="2" width="48" x="570" y="66" />
<rect fill="#DEE6F1" height="24" width="48" x="522" y="66" />
<rect fill="none" height="24" stroke="#405C86" stroke-width="2" width="48" x="522" y="66" />
<rect fill="#DEE6F1" height="24" width="48" x="474" y="66" />
<rect fill="none" height="24" stroke="#405C86" stroke-width="2" width="48" x="474" y="66" />
<rect fill="#DEE6F1" height="24" width="48" x="426" y="66" />
<rect fill="none" height="24" stroke="#405C86" stroke-width="2" width="48" x="426" y="66" />
<rect fill="#DEE6F1" height="24" width="48" x="378" y="66" />
<rect fill="none" height="24" stroke="#405C86" stroke-width="2" width="48" x="378" y="66" />
<rect fill="#DEE6F1" height="24" width="48" x="330" y="66" />
<rect fill="none" height="24" stroke="#405C86" stroke-width="2" width="48" x="330" y="66" />
<rect fill="#DEE6F1" height="24" width="48" x="282" y="66" />
<rect fill="none" height="24" stroke="#405C86" stroke-width="2" width="48" x="282" y="66" />
<rect fill="#DEE6F1" height="24" width="48" x="234" y="66" />
<rect fill="none" height="24" stroke="#405C86" stroke-width="2" width="48" x="234" y="66" />
<rect fill="#DEE6F1" height="24" width="48" x="186" y="66" />
<rect fill="none" height="24" stroke="#405C86" stroke-width="2" width="48" x="186" y="66" />
<rect fill="#DEE6F1" height="24" width="48" x="138" y="66" />
<rect fill="none" height="24" stroke="#405C86" stroke-width="2" width="48" x="138" y="66" />
<rect fill="#DEE6F1" height="24" width="48" x="90" y="66" />
<rect fill="none" height="24" stroke="#405C86" stroke-width="2" width="48" x="90" y="66" />
<text class="register-name" x="80" y="78">Zm</text>
<text class="intrinsic-name" x="80" y="90">op2</text>
<text class="register-number" x="10" y="78">(2)</text>
<rect fill="#DEE6F1" height="24" width="48" x="810" y="114" />
<rect fill="none" height="24" stroke="#405C86" stroke-width="2" width="48" x="810" y="114" />
<rect fill="#DEE6F1" height="24" width="48" x="762" y="114" />
<rect fill="none" height="24" stroke="#405C86" stroke-width="2" width="48" x="762" y="114" />
<rect fill="#DEE6F1" height="24" width="48" x="714" y="114" />
<rect fill="none" height="24" stroke="#405C86" stroke-width="2" width="48" x="714" y="114" />
<rect fill="#DEE6F1" height="24" width="48" x="666" y="114" />
<rect fill="none" height="24" stroke="#405C86" stroke-width="2" width="48" x="666" y="114" />
<rect fill="#DEE6F1" height="24" width="48" x="618" y="114" />
<rect fill="none" height="24" stroke="#405C86" stroke-width="2" width="48" x="618" y="114" />
<rect fill="#DEE6F1" height="24" width="48" x="570" y="114" />
<rect fill="none" height="24" stroke="#405C86" stroke-width="2" width="48" x="570" y="114" />
<rect fill="#DEE6F1" height="24" width="48" x="522" y="114" />
<rect fill="none" height="24" stroke="#405C86" stroke-width="2" width="48" x="522" y="114" />
<rect fill="#DEE6F1" height="24" width="48" x="474" y="114" />
<rect fill="none" height="24" stroke="#405C86" stroke-width="2" width="48" x="474" y="114" />
<rect fill="#DEE6F1" height="24" width="48" x="426" y="114" />
<rect fill="none" height="24" stroke="#405C86" stroke-width="2" width="48" x="426" y="114" />
<rect fill="#DEE6F1" height="24" width="48" x="378" y="114" />
<rect fill="none" height="24" stroke="#405C86" stroke-width="2" width="48" x="378" y="114" />
<rect fill="#DEE6F1" height="24" width="48" x="330" y="114" />
<rect fill="none" height="24" stroke="#405C86" stroke-width="2" width="48" x="330" y="114" />
<rect fill="#DEE6F1" height="24" width="48" x="282" y="114" />
<rect fill="none" height="24" stroke="#405C86" stroke-width="2" width="48" x="282" y="114" />
<rect fill="#DEE6F1" height="24" width="48" x="234" y="114" />
<rect fill="none" height="24" stroke="#405C86" stroke-width="2" width="48" x="234" y="114" />
<rect fill="#DEE6F1" height="24" width="48" x="186" y="114" />
<rect fill="none" height="24" stroke="#405C86" stroke-width="2" width="48" x="186" y="114" />
<rect fill="#DEE6F1" height="24" width="48" x="138" y="114" />
<rect fill="none" height="24" stroke="#405C86" stroke-width="2" width="48" x="138" y="114" />
<rect fill="#DEE6F1" height="24" width="48" x="90" y="114" />
<rect fill="none" height="24" stroke="#405C86" stroke-width="2" width="48" x="90" y="114" />
<text class="register-name" x="80" y="126">Zd</text>
<text class="intrinsic-name" x="80" y="138">returns</text>
<text class="register-number" x="10" y="126">(3)</text>
<line stroke="#567DB6" stroke-width="1" x1="834" x2="834" y1="42.5" y2="65.5" />
<line stroke="#567DB6" stroke-width="1" x1="834" x2="834" y1="90.5" y2="113" />
<line stroke="#567DB6" stroke-width="1" x1="786" x2="786" y1="42.5" y2="65.5" />
<line stroke="#567DB6" stroke-width="1" x1="786" x2="786" y1="90.5" y2="113" />
<line stroke="#567DB6" stroke-width="1" x1="738" x2="738" y1="42.5" y2="65.5" />
<line stroke="#567DB6" stroke-width="1" x1="738" x2="738" y1="90.5" y2="113" />
<line stroke="#567DB6" stroke-width="1" x1="690" x2="690" y1="42.5" y2="65.5" />
<line stroke="#567DB6" stroke-width="1" x1="690" x2="690" y1="90.5" y2="113" />
<line stroke="#567DB6" stroke-width="1" x1="642" x2="642" y1="42.5" y2="65.5" />
<line stroke="#567DB6" stroke-width="1" x1="642" x2="642" y1="90.5" y2="113" />
<line stroke="#567DB6" stroke-width="1" x1="594" x2="594" y1="42.5" y2="65.5" />
<line stroke="#567DB6" stroke-width="1" x1="594" x2="594" y1="90.5" y2="113" />
<line stroke="#567DB6" stroke-width="1" x1="546" x2="546" y1="42.5" y2="65.5" />
<line stroke="#567DB6" stroke-width="1" x1="546" x2="546" y1="90.5" y2="113" />
<line stroke="#567DB6" stroke-width="1" x1="498" x2="498" y1="42.5" y2="65.5" />
<line stroke="#567DB6" stroke-width="1" x1="498" x2="498" y1="90.5" y2="113" />
<line stroke="#567DB6" stroke-width="1" x1="450" x2="450" y1="42.5" y2="65.5" />
<line stroke="#567DB6" stroke-width="1" x1="450" x2="450" y1="90.5" y2="113" />
<line stroke="#567DB6" stroke-width="1" x1="402" x2="402" y1="42.5" y2="65.5" />
<line stroke="#567DB6" stroke-width="1" x1="402" x2="402" y1="90.5" y2="113" />
<line stroke="#567DB6" stroke-width="1" x1="354" x2="354" y1="42.5" y2="65.5" />
<line stroke="#567DB6" stroke-width="1" x1="354" x2="354" y1="90.5" y2="113" />
<line stroke="#567DB6" stroke-width="1" x1="306" x2="306" y1="42.5" y2="65.5" />
<line stroke="#567DB6" stroke-width="1" x1="306" x2="306" y1="90.5" y2="113" />
<line stroke="#567DB6" stroke-width="1" x1="258" x2="258" y1="42.5" y2="65.5" />
<line stroke="#567DB6" stroke-width="1" x1="258" x2="258" y1="90.5" y2="113" />
<line stroke="#567DB6" stroke-width="1" x1="210" x2="210" y1="42.5" y2="65.5" />
<line stroke="#567DB6" stroke-width="1" x1="210" x2="210" y1="90.5" y2="113" />
<line stroke="#567DB6" stroke-width="1" x1="162" x2="162" y1="42.5" y2="65.5" />
<line stroke="#567DB6" stroke-width="1" x1="162" x2="162" y1="90.5" y2="113" />
<line stroke="#567DB6" stroke-width="1" x1="114" x2="114" y1="42.5" y2="65.5" />
<line stroke="#567DB6" stroke-width="1" x1="114" x2="114" y1="90.5" y2="113" />
<line stroke="#567DB6" stroke-dasharray="3 3" stroke-width="0.75" x1="138" x2="66" y1="146" y2="182" />
<line stroke="#567DB6" stroke-dasharray="3 3" stroke-width="0.75" x1="186" x2="259" y1="146" y2="182" />
<line stroke="#567DB6" stroke-width="1" x1="252" x2="252" y1="222.5" y2="245.5" />
<line stroke="#567DB6" stroke-width="1" x1="252" x2="252" y1="270.5" y2="317" />
<line stroke="#567DB6" stroke-width="1" x1="240" x2="240" y1="222.5" y2="245.5" />
<line stroke="#567DB6" stroke-width="1" x1="240" x2="240" y1="270.5" y2="317" />
<line stroke="#567DB6" stroke-width="1" x1="228" x2="228" y1="222.5" y2="245.5" />
<line stroke="#567DB6" stroke-width="1" x1="228" x2="228" y1="270.5" y2="317" />
<line stroke="#567DB6" stroke-width="1" x1="192" x2="192" y1="222.5" y2="245.5" />
<line stroke="#567DB6" stroke-width="1" x1="192" x2="216" y1="270.5" y2="317" />
<line stroke="#567DB6" stroke-width="1" x1="168" x2="168" y1="222.5" y2="245.5" />
<line stroke="#567DB6" stroke-width="1" x1="168" x2="204" y1="270.5" y2="317" />
<line stroke="#567DB6" stroke-width="1" x1="120" x2="120" y1="222.5" y2="245.5" />
<line stroke="#567DB6" stroke-width="1" x1="120" x2="192" y1="270.5" y2="317" />
<line stroke="#567DB6" stroke-width="1" x1="96" x2="96" y1="222.5" y2="245.5" />
<line stroke="#567DB6" stroke-width="1" x1="96" x2="180" y1="270.5" y2="317" />
<line stroke="#567DB6" stroke-width="1" x1="84" x2="84" y1="222.5" y2="245.5" />
<line stroke="#567DB6" stroke-width="1" x1="84" x2="168" y1="270.5" y2="317" />
<line stroke="#567DB6" stroke-width="1" x1="216" x2="216" y1="222.5" y2="245.5" />
<line stroke="#567DB6" stroke-width="1" x1="216" x2="156" y1="270.5" y2="317" />
<line stroke="#567DB6" stroke-width="1" x1="204" x2="204" y1="222.5" y2="245.5" />
<line stroke="#567DB6" stroke-width="1" x1="204" x2="144" y1="270.5" y2="317" />
<line stroke="#567DB6" stroke-width="1" x1="180" x2="180" y1="222.5" y2="245.5" />
<line stroke="#567DB6" stroke-width="1" x1="180" x2="132" y1="270.5" y2="317" />
<line stroke="#567DB6" stroke-width="1" x1="156" x2="156" y1="222.5" y2="245.5" />
<line stroke="#567DB6" stroke-width="1" x1="156" x2="120" y1="270.5" y2="317" />
<line stroke="#567DB6" stroke-width="1" x1="144" x2="144" y1="222.5" y2="245.5" />
<line stroke="#567DB6" stroke-width="1" x1="144" x2="108" y1="270.5" y2="317" />
<line stroke="#567DB6" stroke-width="1" x1="132" x2="132" y1="222.5" y2="245.5" />
<line stroke="#567DB6" stroke-width="1" x1="132" x2="96" y1="270.5" y2="317" />
<line stroke="#567DB6" stroke-width="1" x1="108" x2="108" y1="222.5" y2="245.5" />
<line stroke="#567DB6" stroke-width="1" x1="108" x2="84" y1="270.5" y2="317" />
<line stroke="#567DB6" stroke-width="1" x1="72" x2="72" y1="222.5" y2="245.5" />
<line stroke="#567DB6" stroke-width="1" x1="72" x2="72" y1="270.5" y2="317" />
<line marker-end="url(#arrowhead)" stroke="none" x1="834" x2="834" y1="90.5" y2="113" />
<line marker-end="url(#arrowhead)" stroke="none" x1="786" x2="786" y1="90.5" y2="113" />
<line marker-end="url(#arrowhead)" stroke="none" x1="738" x2="738" y1="90.5" y2="113" />
<line marker-end="url(#arrowhead)" stroke="none" x1="690" x2="690" y1="90.5" y2="113" />
<line marker-end="url(#arrowhead)" stroke="none" x1="642" x2="642" y1="90.5" y2="113" />
<line marker-end="url(#arrowhead)" stroke="none" x1="594" x2="594" y1="90.5" y2="113" />
<line marker-end="url(#arrowhead)" stroke="none" x1="546" x2="546" y1="90.5" y2="113" />
<line marker-end="url(#arrowhead)" stroke="none" x1="498" x2="498" y1="90.5" y2="113" />
<line marker-end="url(#arrowhead)" stroke="none" x1="450" x2="450" y1="90.5" y2="113" />
<line marker-end="url(#arrowhead)" stroke="none" x1="402" x2="402" y1="90.5" y2="113" />
<line marker-end="url(#arrowhead)" stroke="none" x1="354" x2="354" y1="90.5" y2="113" />
<line marker-end="url(#arrowhead)" stroke="none" x1="306" x2="306" y1="90.5" y2="113" />
<line marker-end="url(#arrowhead)" stroke="none" x1="258" x2="258" y1="90.5" y2="113" />
<line marker-end="url(#arrowhead)" stroke="none" x1="210" x2="210" y1="90.5" y2="113" />
<line marker-end="url(#arrowhead)" stroke="none" x1="162" x2="162" y1="90.5" y2="113" />
<line marker-end="url(#arrowhead)" stroke="none" x1="114" x2="114" y1="90.5" y2="113" />
<line marker-end="url(#arrowhead)" stroke="none" x1="252" x2="252" y1="270.5" y2="317" />
<line marker-end="url(#arrowhead)" stroke="none" x1="240" x2="240" y1="270.5" y2="317" />
<line marker-end="url(#arrowhead)" stroke="none" x1="228" x2="228" y1="270.5" y2="317" />
<line marker-end="url(#arrowhead)" stroke="none" x1="192" x2="216" y1="270.5" y2="317" />
<line marker-end="url(#arrowhead)" stroke="none" x1="168" x2="204" y1="270.5" y2="317" />
<line marker-end="url(#arrowhead)" stroke="none" x1="120" x2="192" y1="270.5" y2="317" />
<line marker-end="url(#arrowhead)" stroke="none" x1="96" x2="180" y1="270.5" y2="317" />
<line marker-end="url(#arrowhead)" stroke="none" x1="84" x2="168" y1="270.5" y2="317" />
<line marker-end="url(#arrowhead)" stroke="none" x1="216" x2="156" y1="270.5" y2="317" />
<line marker-end="url(#arrowhead)" stroke="none" x1="204" x2="144" y1="270.5" y2="317" />
<line marker-end="url(#arrowhead)" stroke="none" x1="180" x2="132" y1="270.5" y2="317" />
<line marker-end="url(#arrowhead)" stroke="none" x1="156" x2="120" y1="270.5" y2="317" />
<line marker-end="url(#arrowhead)" stroke="none" x1="144" x2="108" y1="270.5" y2="317" />
<line marker-end="url(#arrowhead)" stroke="none" x1="132" x2="96" y1="270.5" y2="317" />
<line marker-end="url(#arrowhead)" stroke="none" x1="108" x2="84" y1="270.5" y2="317" />
<line marker-end="url(#arrowhead)" stroke="none" x1="72" x2="72" y1="270.5" y2="317" />
</svg>