<svg xmlns="http://www.w3.org/2000/svg" viewBox="0 0 1638 171">
<style>
.label { font: 14px Helvetica; dominant-baseline: middle; text-anchor: middle; }
.title-left { font: 12px Helvetica; dominant-baseline: middle; }
.title-right { font: 12px Helvetica; dominant-baseline: middle; text-anchor: end; }
.title-intrinsic { font: 12px Helvetica; dominant-baseline: middle; text-anchor: middle; fill: #6778ED; }
.title { font: 12px Helvetica; dominant-baseline: middle; text-anchor: middle; }
.title-unused { font: 12px Helvetica; dominant-baseline: middle; text-anchor: middle; fill: #AAA; }
.register-name { font: 14px Helvetica; dominant-baseline: middle; text-anchor: end; font-style: italic; }
.memory-name { font: 14px Helvetica; dominant-baseline: middle; text-anchor: end; }
.register-number { font: 14px Helvetica; dominant-baseline: middle; text-anchor: start; }
.intrinsic-name { font: 14px Helvetica; dominant-baseline: middle; text-anchor: end; fill: #6778ED; }
.intrinsic-color { fill: #6778ED; }
.small-label { font: 12px Helvetica; dominant-baseline: middle; text-anchor: middle; }
.label-10px { font: 10px Helvetica; dominant-baseline: middle; text-anchor: middle; }
.smaller-label { font: 9px Helvetica; dominant-baseline: middle; text-anchor: middle; }
.label-6px { font: 6px Helvetica; dominant-baseline: middle; text-anchor: middle; }
.label-7px { font: 7px Helvetica; dominant-baseline: middle; text-anchor: middle; }
.unused { fill: #AAA; }
.dim { fill: #888; }
</style>
<defs>
<marker id="arrowhead" markerWidth="10.75" markerHeight="24.5" refX="9.0" refY="6.125" orient="auto">
<polyline points="0.5 0.5, 8.75 6.125, 0.5 11.75" stroke="#567DB6" stroke-width="1" fill="none"/>
</marker>
</defs>
<line stroke="#567DB6" stroke-width="1" x1="1590" x2="1590" y1="42.5" y2="65.5" />
<line stroke="#567DB6" stroke-width="1" x1="1542" x2="1542" y1="42.5" y2="65.5" />
<line stroke="#567DB6" stroke-width="1" x1="1494" x2="1494" y1="42.5" y2="65.5" />
<line stroke="#567DB6" stroke-width="1" x1="1446" x2="1446" y1="42.5" y2="65.5" />
<line stroke="#567DB6" stroke-width="1" x1="1398" x2="1398" y1="42.5" y2="65.5" />
<line stroke="#567DB6" stroke-width="1" x1="1350" x2="1350" y1="42.5" y2="65.5" />
<line stroke="#567DB6" stroke-width="1" x1="1302" x2="1302" y1="42.5" y2="65.5" />
<line stroke="#567DB6" stroke-width="1" x1="1254" x2="1254" y1="42.5" y2="65.5" />
<line stroke="#567DB6" stroke-width="1" x1="1206" x2="1206" y1="42.5" y2="65.5" />
<line stroke="#567DB6" stroke-width="1" x1="1158" x2="1158" y1="42.5" y2="65.5" />
<line stroke="#567DB6" stroke-width="1" x1="1110" x2="1110" y1="42.5" y2="65.5" />
<line stroke="#567DB6" stroke-width="1" x1="1062" x2="1062" y1="42.5" y2="65.5" />
<line stroke="#567DB6" stroke-width="1" x1="1014" x2="1014" y1="42.5" y2="65.5" />
<line stroke="#567DB6" stroke-width="1" x1="966" x2="966" y1="42.5" y2="65.5" />
<line stroke="#567DB6" stroke-width="1" x1="918" x2="918" y1="42.5" y2="65.5" />
<line stroke="#567DB6" stroke-width="1" x1="870" x2="870" y1="42.5" y2="65.5" />
<line stroke="#567DB6" stroke-width="1" x1="822" x2="822" y1="42.5" y2="65.5" />
<line stroke="#567DB6" stroke-width="1" x1="774" x2="774" y1="42.5" y2="65.5" />
<line stroke="#567DB6" stroke-width="1" x1="726" x2="726" y1="42.5" y2="65.5" />
<line stroke="#567DB6" stroke-width="1" x1="678" x2="678" y1="42.5" y2="65.5" />
<line stroke="#567DB6" stroke-width="1" x1="630" x2="630" y1="42.5" y2="65.5" />
<line stroke="#567DB6" stroke-width="1" x1="582" x2="582" y1="42.5" y2="65.5" />
<line stroke="#567DB6" stroke-width="1" x1="534" x2="534" y1="42.5" y2="65.5" />
<line stroke="#567DB6" stroke-width="1" x1="486" x2="486" y1="42.5" y2="65.5" />
<line stroke="#567DB6" stroke-width="1" x1="438" x2="438" y1="42.5" y2="65.5" />
<line stroke="#567DB6" stroke-width="1" x1="390" x2="390" y1="42.5" y2="65.5" />
<line stroke="#567DB6" stroke-width="1" x1="342" x2="342" y1="42.5" y2="65.5" />
<line stroke="#567DB6" stroke-width="1" x1="294" x2="294" y1="42.5" y2="65.5" />
<line stroke="#567DB6" stroke-width="1" x1="246" x2="246" y1="42.5" y2="65.5" />
<line stroke="#567DB6" stroke-width="1" x1="198" x2="198" y1="42.5" y2="65.5" />
<line stroke="#567DB6" stroke-width="1" x1="150" x2="150" y1="42.5" y2="65.5" />
<line stroke="#567DB6" stroke-width="1" x1="102" x2="102" y1="42.5" y2="65.5" />
<line stroke="#567DB6" stroke-width="1" x1="1590" x2="1602" y1="90.5" y2="137" />
<line stroke="#567DB6" stroke-width="1" x1="1542" x2="1554" y1="90.5" y2="137" />
<line stroke="#567DB6" stroke-width="1" x1="1494" x2="1506" y1="90.5" y2="137" />
<line stroke="#567DB6" stroke-width="1" x1="1446" x2="1458" y1="90.5" y2="137" />
<line stroke="#567DB6" stroke-width="1" x1="1398" x2="1410" y1="90.5" y2="137" />
<line stroke="#567DB6" stroke-width="1" x1="1350" x2="1362" y1="90.5" y2="137" />
<line stroke="#567DB6" stroke-width="1" x1="1302" x2="1314" y1="90.5" y2="137" />
<line stroke="#567DB6" stroke-width="1" x1="1254" x2="1266" y1="90.5" y2="137" />
<line stroke="#567DB6" stroke-width="1" x1="1206" x2="1218" y1="90.5" y2="137" />
<line stroke="#567DB6" stroke-width="1" x1="1158" x2="1170" y1="90.5" y2="137" />
<line stroke="#567DB6" stroke-width="1" x1="1110" x2="1122" y1="90.5" y2="137" />
<line stroke="#567DB6" stroke-width="1" x1="1062" x2="1074" y1="90.5" y2="137" />
<line stroke="#567DB6" stroke-width="1" x1="1014" x2="1026" y1="90.5" y2="137" />
<line stroke="#567DB6" stroke-width="1" x1="966" x2="978" y1="90.5" y2="137" />
<line stroke="#567DB6" stroke-width="1" x1="918" x2="930" y1="90.5" y2="137" />
<line stroke="#567DB6" stroke-width="1" x1="870" x2="882" y1="90.5" y2="137" />
<line stroke="#567DB6" stroke-width="1" x1="822" x2="834" y1="90.5" y2="137" />
<line stroke="#567DB6" stroke-width="1" x1="774" x2="786" y1="90.5" y2="137" />
<line stroke="#567DB6" stroke-width="1" x1="726" x2="738" y1="90.5" y2="137" />
<line stroke="#567DB6" stroke-width="1" x1="678" x2="690" y1="90.5" y2="137" />
<line stroke="#567DB6" stroke-width="1" x1="630" x2="642" y1="90.5" y2="137" />
<line stroke="#567DB6" stroke-width="1" x1="582" x2="594" y1="90.5" y2="137" />
<line stroke="#567DB6" stroke-width="1" x1="534" x2="546" y1="90.5" y2="137" />
<line stroke="#567DB6" stroke-width="1" x1="486" x2="498" y1="90.5" y2="137" />
<line stroke="#567DB6" stroke-width="1" x1="438" x2="450" y1="90.5" y2="137" />
<line stroke="#567DB6" stroke-width="1" x1="390" x2="402" y1="90.5" y2="137" />
<line stroke="#567DB6" stroke-width="1" x1="342" x2="354" y1="90.5" y2="137" />
<line stroke="#567DB6" stroke-width="1" x1="294" x2="306" y1="90.5" y2="137" />
<line stroke="#567DB6" stroke-width="1" x1="246" x2="258" y1="90.5" y2="137" />
<line stroke="#567DB6" stroke-width="1" x1="198" x2="210" y1="90.5" y2="137" />
<line stroke="#567DB6" stroke-width="1" x1="150" x2="162" y1="90.5" y2="137" />
<line stroke="#567DB6" stroke-width="1" x1="102" x2="114" y1="90.5" y2="137" />
<text class="title-left" x="90" y="9">upper</text>
<text class="title-right" x="1626" y="9">lower</text>
<rect fill="none" height="24" stroke="#405C86" stroke-dasharray="3 1" stroke-dashoffset="1.5" stroke-width="1" width="24" x="1602" y="18" />
<text class="label unused" x="1614" y="31"></text>
<rect fill="#DEE6F1" height="24" width="24" x="1578" y="18" />
<rect fill="none" height="24" stroke="#405C86" stroke-width="2" width="24" x="1578" y="18" />
<rect fill="none" height="24" stroke="#405C86" stroke-dasharray="3 1" stroke-dashoffset="1.5" stroke-width="1" width="24" x="1554" y="18" />
<text class="label unused" x="1566" y="31"></text>
<rect fill="#DEE6F1" height="24" width="24" x="1530" y="18" />
<rect fill="none" height="24" stroke="#405C86" stroke-width="2" width="24" x="1530" y="18" />
<rect fill="none" height="24" stroke="#405C86" stroke-dasharray="3 1" stroke-dashoffset="1.5" stroke-width="1" width="24" x="1506" y="18" />
<text class="label unused" x="1518" y="31"></text>
<rect fill="#DEE6F1" height="24" width="24" x="1482" y="18" />
<rect fill="none" height="24" stroke="#405C86" stroke-width="2" width="24" x="1482" y="18" />
<rect fill="none" height="24" stroke="#405C86" stroke-dasharray="3 1" stroke-dashoffset="1.5" stroke-width="1" width="24" x="1458" y="18" />
<text class="label unused" x="1470" y="31"></text>
<rect fill="#DEE6F1" height="24" width="24" x="1434" y="18" />
<rect fill="none" height="24" stroke="#405C86" stroke-width="2" width="24" x="1434" y="18" />
<rect fill="none" height="24" stroke="#405C86" stroke-dasharray="3 1" stroke-dashoffset="1.5" stroke-width="1" width="24" x="1410" y="18" />
<text class="label unused" x="1422" y="31"></text>
<rect fill="#DEE6F1" height="24" width="24" x="1386" y="18" />
<rect fill="none" height="24" stroke="#405C86" stroke-width="2" width="24" x="1386" y="18" />
<rect fill="none" height="24" stroke="#405C86" stroke-dasharray="3 1" stroke-dashoffset="1.5" stroke-width="1" width="24" x="1362" y="18" />
<text class="label unused" x="1374" y="31"></text>
<rect fill="#DEE6F1" height="24" width="24" x="1338" y="18" />
<rect fill="none" height="24" stroke="#405C86" stroke-width="2" width="24" x="1338" y="18" />
<rect fill="none" height="24" stroke="#405C86" stroke-dasharray="3 1" stroke-dashoffset="1.5" stroke-width="1" width="24" x="1314" y="18" />
<text class="label unused" x="1326" y="31"></text>
<rect fill="#DEE6F1" height="24" width="24" x="1290" y="18" />
<rect fill="none" height="24" stroke="#405C86" stroke-width="2" width="24" x="1290" y="18" />
<rect fill="none" height="24" stroke="#405C86" stroke-dasharray="3 1" stroke-dashoffset="1.5" stroke-width="1" width="24" x="1266" y="18" />
<text class="label unused" x="1278" y="31"></text>
<rect fill="#DEE6F1" height="24" width="24" x="1242" y="18" />
<rect fill="none" height="24" stroke="#405C86" stroke-width="2" width="24" x="1242" y="18" />
<rect fill="none" height="24" stroke="#405C86" stroke-dasharray="3 1" stroke-dashoffset="1.5" stroke-width="1" width="24" x="1218" y="18" />
<text class="label unused" x="1230" y="31"></text>
<rect fill="#DEE6F1" height="24" width="24" x="1194" y="18" />
<rect fill="none" height="24" stroke="#405C86" stroke-width="2" width="24" x="1194" y="18" />
<rect fill="none" height="24" stroke="#405C86" stroke-dasharray="3 1" stroke-dashoffset="1.5" stroke-width="1" width="24" x="1170" y="18" />
<text class="label unused" x="1182" y="31"></text>
<rect fill="#DEE6F1" height="24" width="24" x="1146" y="18" />
<rect fill="none" height="24" stroke="#405C86" stroke-width="2" width="24" x="1146" y="18" />
<rect fill="none" height="24" stroke="#405C86" stroke-dasharray="3 1" stroke-dashoffset="1.5" stroke-width="1" width="24" x="1122" y="18" />
<text class="label unused" x="1134" y="31"></text>
<rect fill="#DEE6F1" height="24" width="24" x="1098" y="18" />
<rect fill="none" height="24" stroke="#405C86" stroke-width="2" width="24" x="1098" y="18" />
<rect fill="none" height="24" stroke="#405C86" stroke-dasharray="3 1" stroke-dashoffset="1.5" stroke-width="1" width="24" x="1074" y="18" />
<text class="label unused" x="1086" y="31"></text>
<rect fill="#DEE6F1" height="24" width="24" x="1050" y="18" />
<rect fill="none" height="24" stroke="#405C86" stroke-width="2" width="24" x="1050" y="18" />
<rect fill="none" height="24" stroke="#405C86" stroke-dasharray="3 1" stroke-dashoffset="1.5" stroke-width="1" width="24" x="1026" y="18" />
<text class="label unused" x="1038" y="31"></text>
<rect fill="#DEE6F1" height="24" width="24" x="1002" y="18" />
<rect fill="none" height="24" stroke="#405C86" stroke-width="2" width="24" x="1002" y="18" />
<rect fill="none" height="24" stroke="#405C86" stroke-dasharray="3 1" stroke-dashoffset="1.5" stroke-width="1" width="24" x="978" y="18" />
<text class="label unused" x="990" y="31"></text>
<rect fill="#DEE6F1" height="24" width="24" x="954" y="18" />
<rect fill="none" height="24" stroke="#405C86" stroke-width="2" width="24" x="954" y="18" />
<rect fill="none" height="24" stroke="#405C86" stroke-dasharray="3 1" stroke-dashoffset="1.5" stroke-width="1" width="24" x="930" y="18" />
<text class="label unused" x="942" y="31"></text>
<rect fill="#DEE6F1" height="24" width="24" x="906" y="18" />
<rect fill="none" height="24" stroke="#405C86" stroke-width="2" width="24" x="906" y="18" />
<rect fill="none" height="24" stroke="#405C86" stroke-dasharray="3 1" stroke-dashoffset="1.5" stroke-width="1" width="24" x="882" y="18" />
<text class="label unused" x="894" y="31"></text>
<rect fill="#DEE6F1" height="24" width="24" x="858" y="18" />
<rect fill="none" height="24" stroke="#405C86" stroke-width="2" width="24" x="858" y="18" />
<rect fill="none" height="24" stroke="#405C86" stroke-dasharray="3 1" stroke-dashoffset="1.5" stroke-width="1" width="24" x="834" y="18" />
<text class="label unused" x="846" y="31"></text>
<rect fill="#DEE6F1" height="24" width="24" x="810" y="18" />
<rect fill="none" height="24" stroke="#405C86" stroke-width="2" width="24" x="810" y="18" />
<rect fill="none" height="24" stroke="#405C86" stroke-dasharray="3 1" stroke-dashoffset="1.5" stroke-width="1" width="24" x="786" y="18" />
<text class="label unused" x="798" y="31"></text>
<rect fill="#DEE6F1" height="24" width="24" x="762" y="18" />
<rect fill="none" height="24" stroke="#405C86" stroke-width="2" width="24" x="762" y="18" />
<rect fill="none" height="24" stroke="#405C86" stroke-dasharray="3 1" stroke-dashoffset="1.5" stroke-width="1" width="24" x="738" y="18" />
<text class="label unused" x="750" y="31"></text>
<rect fill="#DEE6F1" height="24" width="24" x="714" y="18" />
<rect fill="none" height="24" stroke="#405C86" stroke-width="2" width="24" x="714" y="18" />
<rect fill="none" height="24" stroke="#405C86" stroke-dasharray="3 1" stroke-dashoffset="1.5" stroke-width="1" width="24" x="690" y="18" />
<text class="label unused" x="702" y="31"></text>
<rect fill="#DEE6F1" height="24" width="24" x="666" y="18" />
<rect fill="none" height="24" stroke="#405C86" stroke-width="2" width="24" x="666" y="18" />
<rect fill="none" height="24" stroke="#405C86" stroke-dasharray="3 1" stroke-dashoffset="1.5" stroke-width="1" width="24" x="642" y="18" />
<text class="label unused" x="654" y="31"></text>
<rect fill="#DEE6F1" height="24" width="24" x="618" y="18" />
<rect fill="none" height="24" stroke="#405C86" stroke-width="2" width="24" x="618" y="18" />
<rect fill="none" height="24" stroke="#405C86" stroke-dasharray="3 1" stroke-dashoffset="1.5" stroke-width="1" width="24" x="594" y="18" />
<text class="label unused" x="606" y="31"></text>
<rect fill="#DEE6F1" height="24" width="24" x="570" y="18" />
<rect fill="none" height="24" stroke="#405C86" stroke-width="2" width="24" x="570" y="18" />
<rect fill="none" height="24" stroke="#405C86" stroke-dasharray="3 1" stroke-dashoffset="1.5" stroke-width="1" width="24" x="546" y="18" />
<text class="label unused" x="558" y="31"></text>
<rect fill="#DEE6F1" height="24" width="24" x="522" y="18" />
<rect fill="none" height="24" stroke="#405C86" stroke-width="2" width="24" x="522" y="18" />
<rect fill="none" height="24" stroke="#405C86" stroke-dasharray="3 1" stroke-dashoffset="1.5" stroke-width="1" width="24" x="498" y="18" />
<text class="label unused" x="510" y="31"></text>
<rect fill="#DEE6F1" height="24" width="24" x="474" y="18" />
<rect fill="none" height="24" stroke="#405C86" stroke-width="2" width="24" x="474" y="18" />
<rect fill="none" height="24" stroke="#405C86" stroke-dasharray="3 1" stroke-dashoffset="1.5" stroke-width="1" width="24" x="450" y="18" />
<text class="label unused" x="462" y="31"></text>
<rect fill="#DEE6F1" height="24" width="24" x="426" y="18" />
<rect fill="none" height="24" stroke="#405C86" stroke-width="2" width="24" x="426" y="18" />
<rect fill="none" height="24" stroke="#405C86" stroke-dasharray="3 1" stroke-dashoffset="1.5" stroke-width="1" width="24" x="402" y="18" />
<text class="label unused" x="414" y="31"></text>
<rect fill="#DEE6F1" height="24" width="24" x="378" y="18" />
<rect fill="none" height="24" stroke="#405C86" stroke-width="2" width="24" x="378" y="18" />
<rect fill="none" height="24" stroke="#405C86" stroke-dasharray="3 1" stroke-dashoffset="1.5" stroke-width="1" width="24" x="354" y="18" />
<text class="label unused" x="366" y="31"></text>
<rect fill="#DEE6F1" height="24" width="24" x="330" y="18" />
<rect fill="none" height="24" stroke="#405C86" stroke-width="2" width="24" x="330" y="18" />
<rect fill="none" height="24" stroke="#405C86" stroke-dasharray="3 1" stroke-dashoffset="1.5" stroke-width="1" width="24" x="306" y="18" />
<text class="label unused" x="318" y="31"></text>
<rect fill="#DEE6F1" height="24" width="24" x="282" y="18" />
<rect fill="none" height="24" stroke="#405C86" stroke-width="2" width="24" x="282" y="18" />
<rect fill="none" height="24" stroke="#405C86" stroke-dasharray="3 1" stroke-dashoffset="1.5" stroke-width="1" width="24" x="258" y="18" />
<text class="label unused" x="270" y="31"></text>
<rect fill="#DEE6F1" height="24" width="24" x="234" y="18" />
<rect fill="none" height="24" stroke="#405C86" stroke-width="2" width="24" x="234" y="18" />
<rect fill="none" height="24" stroke="#405C86" stroke-dasharray="3 1" stroke-dashoffset="1.5" stroke-width="1" width="24" x="210" y="18" />
<text class="label unused" x="222" y="31"></text>
<rect fill="#DEE6F1" height="24" width="24" x="186" y="18" />
<rect fill="none" height="24" stroke="#405C86" stroke-width="2" width="24" x="186" y="18" />
<rect fill="none" height="24" stroke="#405C86" stroke-dasharray="3 1" stroke-dashoffset="1.5" stroke-width="1" width="24" x="162" y="18" />
<text class="label unused" x="174" y="31"></text>
<rect fill="#DEE6F1" height="24" width="24" x="138" y="18" />
<rect fill="none" height="24" stroke="#405C86" stroke-width="2" width="24" x="138" y="18" />
<rect fill="none" height="24" stroke="#405C86" stroke-dasharray="3 1" stroke-dashoffset="1.5" stroke-width="1" width="24" x="114" y="18" />
<text class="label unused" x="126" y="31"></text>
<rect fill="#DEE6F1" height="24" width="24" x="90" y="18" />
<rect fill="none" height="24" stroke="#405C86" stroke-width="2" width="24" x="90" y="18" />
<text class="register-name" x="80" y="30">Zn</text>
<text class="intrinsic-name" x="80" y="42">op1</text>
<text class="register-number" x="10" y="30">(1)</text>
<rect fill="none" height="24" stroke="#405C86" stroke-dasharray="3 1" stroke-dashoffset="1.5" stroke-width="1" width="24" x="1602" y="66" />
<text class="label unused" x="1614" y="79"></text>
<rect fill="#DEE6F1" height="24" width="24" x="1578" y="66" />
<rect fill="none" height="24" stroke="#405C86" stroke-width="2" width="24" x="1578" y="66" />
<rect fill="none" height="24" stroke="#405C86" stroke-dasharray="3 1" stroke-dashoffset="1.5" stroke-width="1" width="24" x="1554" y="66" />
<text class="label unused" x="1566" y="79"></text>
<rect fill="#DEE6F1" height="24" width="24" x="1530" y="66" />
<rect fill="none" height="24" stroke="#405C86" stroke-width="2" width="24" x="1530" y="66" />
<rect fill="none" height="24" stroke="#405C86" stroke-dasharray="3 1" stroke-dashoffset="1.5" stroke-width="1" width="24" x="1506" y="66" />
<text class="label unused" x="1518" y="79"></text>
<rect fill="#DEE6F1" height="24" width="24" x="1482" y="66" />
<rect fill="none" height="24" stroke="#405C86" stroke-width="2" width="24" x="1482" y="66" />
<rect fill="none" height="24" stroke="#405C86" stroke-dasharray="3 1" stroke-dashoffset="1.5" stroke-width="1" width="24" x="1458" y="66" />
<text class="label unused" x="1470" y="79"></text>
<rect fill="#DEE6F1" height="24" width="24" x="1434" y="66" />
<rect fill="none" height="24" stroke="#405C86" stroke-width="2" width="24" x="1434" y="66" />
<rect fill="none" height="24" stroke="#405C86" stroke-dasharray="3 1" stroke-dashoffset="1.5" stroke-width="1" width="24" x="1410" y="66" />
<text class="label unused" x="1422" y="79"></text>
<rect fill="#DEE6F1" height="24" width="24" x="1386" y="66" />
<rect fill="none" height="24" stroke="#405C86" stroke-width="2" width="24" x="1386" y="66" />
<rect fill="none" height="24" stroke="#405C86" stroke-dasharray="3 1" stroke-dashoffset="1.5" stroke-width="1" width="24" x="1362" y="66" />
<text class="label unused" x="1374" y="79"></text>
<rect fill="#DEE6F1" height="24" width="24" x="1338" y="66" />
<rect fill="none" height="24" stroke="#405C86" stroke-width="2" width="24" x="1338" y="66" />
<rect fill="none" height="24" stroke="#405C86" stroke-dasharray="3 1" stroke-dashoffset="1.5" stroke-width="1" width="24" x="1314" y="66" />
<text class="label unused" x="1326" y="79"></text>
<rect fill="#DEE6F1" height="24" width="24" x="1290" y="66" />
<rect fill="none" height="24" stroke="#405C86" stroke-width="2" width="24" x="1290" y="66" />
<rect fill="none" height="24" stroke="#405C86" stroke-dasharray="3 1" stroke-dashoffset="1.5" stroke-width="1" width="24" x="1266" y="66" />
<text class="label unused" x="1278" y="79"></text>
<rect fill="#DEE6F1" height="24" width="24" x="1242" y="66" />
<rect fill="none" height="24" stroke="#405C86" stroke-width="2" width="24" x="1242" y="66" />
<rect fill="none" height="24" stroke="#405C86" stroke-dasharray="3 1" stroke-dashoffset="1.5" stroke-width="1" width="24" x="1218" y="66" />
<text class="label unused" x="1230" y="79"></text>
<rect fill="#DEE6F1" height="24" width="24" x="1194" y="66" />
<rect fill="none" height="24" stroke="#405C86" stroke-width="2" width="24" x="1194" y="66" />
<rect fill="none" height="24" stroke="#405C86" stroke-dasharray="3 1" stroke-dashoffset="1.5" stroke-width="1" width="24" x="1170" y="66" />
<text class="label unused" x="1182" y="79"></text>
<rect fill="#DEE6F1" height="24" width="24" x="1146" y="66" />
<rect fill="none" height="24" stroke="#405C86" stroke-width="2" width="24" x="1146" y="66" />
<rect fill="none" height="24" stroke="#405C86" stroke-dasharray="3 1" stroke-dashoffset="1.5" stroke-width="1" width="24" x="1122" y="66" />
<text class="label unused" x="1134" y="79"></text>
<rect fill="#DEE6F1" height="24" width="24" x="1098" y="66" />
<rect fill="none" height="24" stroke="#405C86" stroke-width="2" width="24" x="1098" y="66" />
<rect fill="none" height="24" stroke="#405C86" stroke-dasharray="3 1" stroke-dashoffset="1.5" stroke-width="1" width="24" x="1074" y="66" />
<text class="label unused" x="1086" y="79"></text>
<rect fill="#DEE6F1" height="24" width="24" x="1050" y="66" />
<rect fill="none" height="24" stroke="#405C86" stroke-width="2" width="24" x="1050" y="66" />
<rect fill="none" height="24" stroke="#405C86" stroke-dasharray="3 1" stroke-dashoffset="1.5" stroke-width="1" width="24" x="1026" y="66" />
<text class="label unused" x="1038" y="79"></text>
<rect fill="#DEE6F1" height="24" width="24" x="1002" y="66" />
<rect fill="none" height="24" stroke="#405C86" stroke-width="2" width="24" x="1002" y="66" />
<rect fill="none" height="24" stroke="#405C86" stroke-dasharray="3 1" stroke-dashoffset="1.5" stroke-width="1" width="24" x="978" y="66" />
<text class="label unused" x="990" y="79"></text>
<rect fill="#DEE6F1" height="24" width="24" x="954" y="66" />
<rect fill="none" height="24" stroke="#405C86" stroke-width="2" width="24" x="954" y="66" />
<rect fill="none" height="24" stroke="#405C86" stroke-dasharray="3 1" stroke-dashoffset="1.5" stroke-width="1" width="24" x="930" y="66" />
<text class="label unused" x="942" y="79"></text>
<rect fill="#DEE6F1" height="24" width="24" x="906" y="66" />
<rect fill="none" height="24" stroke="#405C86" stroke-width="2" width="24" x="906" y="66" />
<rect fill="none" height="24" stroke="#405C86" stroke-dasharray="3 1" stroke-dashoffset="1.5" stroke-width="1" width="24" x="882" y="66" />
<text class="label unused" x="894" y="79"></text>
<rect fill="#DEE6F1" height="24" width="24" x="858" y="66" />
<rect fill="none" height="24" stroke="#405C86" stroke-width="2" width="24" x="858" y="66" />
<rect fill="none" height="24" stroke="#405C86" stroke-dasharray="3 1" stroke-dashoffset="1.5" stroke-width="1" width="24" x="834" y="66" />
<text class="label unused" x="846" y="79"></text>
<rect fill="#DEE6F1" height="24" width="24" x="810" y="66" />
<rect fill="none" height="24" stroke="#405C86" stroke-width="2" width="24" x="810" y="66" />
<rect fill="none" height="24" stroke="#405C86" stroke-dasharray="3 1" stroke-dashoffset="1.5" stroke-width="1" width="24" x="786" y="66" />
<text class="label unused" x="798" y="79"></text>
<rect fill="#DEE6F1" height="24" width="24" x="762" y="66" />
<rect fill="none" height="24" stroke="#405C86" stroke-width="2" width="24" x="762" y="66" />
<rect fill="none" height="24" stroke="#405C86" stroke-dasharray="3 1" stroke-dashoffset="1.5" stroke-width="1" width="24" x="738" y="66" />
<text class="label unused" x="750" y="79"></text>
<rect fill="#DEE6F1" height="24" width="24" x="714" y="66" />
<rect fill="none" height="24" stroke="#405C86" stroke-width="2" width="24" x="714" y="66" />
<rect fill="none" height="24" stroke="#405C86" stroke-dasharray="3 1" stroke-dashoffset="1.5" stroke-width="1" width="24" x="690" y="66" />
<text class="label unused" x="702" y="79"></text>
<rect fill="#DEE6F1" height="24" width="24" x="666" y="66" />
<rect fill="none" height="24" stroke="#405C86" stroke-width="2" width="24" x="666" y="66" />
<rect fill="none" height="24" stroke="#405C86" stroke-dasharray="3 1" stroke-dashoffset="1.5" stroke-width="1" width="24" x="642" y="66" />
<text class="label unused" x="654" y="79"></text>
<rect fill="#DEE6F1" height="24" width="24" x="618" y="66" />
<rect fill="none" height="24" stroke="#405C86" stroke-width="2" width="24" x="618" y="66" />
<rect fill="none" height="24" stroke="#405C86" stroke-dasharray="3 1" stroke-dashoffset="1.5" stroke-width="1" width="24" x="594" y="66" />
<text class="label unused" x="606" y="79"></text>
<rect fill="#DEE6F1" height="24" width="24" x="570" y="66" />
<rect fill="none" height="24" stroke="#405C86" stroke-width="2" width="24" x="570" y="66" />
<rect fill="none" height="24" stroke="#405C86" stroke-dasharray="3 1" stroke-dashoffset="1.5" stroke-width="1" width="24" x="546" y="66" />
<text class="label unused" x="558" y="79"></text>
<rect fill="#DEE6F1" height="24" width="24" x="522" y="66" />
<rect fill="none" height="24" stroke="#405C86" stroke-width="2" width="24" x="522" y="66" />
<rect fill="none" height="24" stroke="#405C86" stroke-dasharray="3 1" stroke-dashoffset="1.5" stroke-width="1" width="24" x="498" y="66" />
<text class="label unused" x="510" y="79"></text>
<rect fill="#DEE6F1" height="24" width="24" x="474" y="66" />
<rect fill="none" height="24" stroke="#405C86" stroke-width="2" width="24" x="474" y="66" />
<rect fill="none" height="24" stroke="#405C86" stroke-dasharray="3 1" stroke-dashoffset="1.5" stroke-width="1" width="24" x="450" y="66" />
<text class="label unused" x="462" y="79"></text>
<rect fill="#DEE6F1" height="24" width="24" x="426" y="66" />
<rect fill="none" height="24" stroke="#405C86" stroke-width="2" width="24" x="426" y="66" />
<rect fill="none" height="24" stroke="#405C86" stroke-dasharray="3 1" stroke-dashoffset="1.5" stroke-width="1" width="24" x="402" y="66" />
<text class="label unused" x="414" y="79"></text>
<rect fill="#DEE6F1" height="24" width="24" x="378" y="66" />
<rect fill="none" height="24" stroke="#405C86" stroke-width="2" width="24" x="378" y="66" />
<rect fill="none" height="24" stroke="#405C86" stroke-dasharray="3 1" stroke-dashoffset="1.5" stroke-width="1" width="24" x="354" y="66" />
<text class="label unused" x="366" y="79"></text>
<rect fill="#DEE6F1" height="24" width="24" x="330" y="66" />
<rect fill="none" height="24" stroke="#405C86" stroke-width="2" width="24" x="330" y="66" />
<rect fill="none" height="24" stroke="#405C86" stroke-dasharray="3 1" stroke-dashoffset="1.5" stroke-width="1" width="24" x="306" y="66" />
<text class="label unused" x="318" y="79"></text>
<rect fill="#DEE6F1" height="24" width="24" x="282" y="66" />
<rect fill="none" height="24" stroke="#405C86" stroke-width="2" width="24" x="282" y="66" />
<rect fill="none" height="24" stroke="#405C86" stroke-dasharray="3 1" stroke-dashoffset="1.5" stroke-width="1" width="24" x="258" y="66" />
<text class="label unused" x="270" y="79"></text>
<rect fill="#DEE6F1" height="24" width="24" x="234" y="66" />
<rect fill="none" height="24" stroke="#405C86" stroke-width="2" width="24" x="234" y="66" />
<rect fill="none" height="24" stroke="#405C86" stroke-dasharray="3 1" stroke-dashoffset="1.5" stroke-width="1" width="24" x="210" y="66" />
<text class="label unused" x="222" y="79"></text>
<rect fill="#DEE6F1" height="24" width="24" x="186" y="66" />
<rect fill="none" height="24" stroke="#405C86" stroke-width="2" width="24" x="186" y="66" />
<rect fill="none" height="24" stroke="#405C86" stroke-dasharray="3 1" stroke-dashoffset="1.5" stroke-width="1" width="24" x="162" y="66" />
<text class="label unused" x="174" y="79"></text>
<rect fill="#DEE6F1" height="24" width="24" x="138" y="66" />
<rect fill="none" height="24" stroke="#405C86" stroke-width="2" width="24" x="138" y="66" />
<rect fill="none" height="24" stroke="#405C86" stroke-dasharray="3 1" stroke-dashoffset="1.5" stroke-width="1" width="24" x="114" y="66" />
<text class="label unused" x="126" y="79"></text>
<rect fill="#DEE6F1" height="24" width="24" x="90" y="66" />
<rect fill="none" height="24" stroke="#405C86" stroke-width="2" width="24" x="90" y="66" />
<text class="register-name" x="80" y="78">Zm</text>
<text class="intrinsic-name" x="80" y="90">op2</text>
<text class="register-number" x="10" y="78">(2)</text>
<rect fill="#DEE6F1" height="24" width="48" x="1578" y="138" />
<rect fill="none" height="24" stroke="#405C86" stroke-width="2" width="48" x="1578" y="138" />
<rect fill="#DEE6F1" height="24" width="48" x="1530" y="138" />
<rect fill="none" height="24" stroke="#405C86" stroke-width="2" width="48" x="1530" y="138" />
<rect fill="#DEE6F1" height="24" width="48" x="1482" y="138" />
<rect fill="none" height="24" stroke="#405C86" stroke-width="2" width="48" x="1482" y="138" />
<rect fill="#DEE6F1" height="24" width="48" x="1434" y="138" />
<rect fill="none" height="24" stroke="#405C86" stroke-width="2" width="48" x="1434" y="138" />
<rect fill="#DEE6F1" height="24" width="48" x="1386" y="138" />
<rect fill="none" height="24" stroke="#405C86" stroke-width="2" width="48" x="1386" y="138" />
<rect fill="#DEE6F1" height="24" width="48" x="1338" y="138" />
<rect fill="none" height="24" stroke="#405C86" stroke-width="2" width="48" x="1338" y="138" />
<rect fill="#DEE6F1" height="24" width="48" x="1290" y="138" />
<rect fill="none" height="24" stroke="#405C86" stroke-width="2" width="48" x="1290" y="138" />
<rect fill="#DEE6F1" height="24" width="48" x="1242" y="138" />
<rect fill="none" height="24" stroke="#405C86" stroke-width="2" width="48" x="1242" y="138" />
<rect fill="#DEE6F1" height="24" width="48" x="1194" y="138" />
<rect fill="none" height="24" stroke="#405C86" stroke-width="2" width="48" x="1194" y="138" />
<rect fill="#DEE6F1" height="24" width="48" x="1146" y="138" />
<rect fill="none" height="24" stroke="#405C86" stroke-width="2" width="48" x="1146" y="138" />
<rect fill="#DEE6F1" height="24" width="48" x="1098" y="138" />
<rect fill="none" height="24" stroke="#405C86" stroke-width="2" width="48" x="1098" y="138" />
<rect fill="#DEE6F1" height="24" width="48" x="1050" y="138" />
<rect fill="none" height="24" stroke="#405C86" stroke-width="2" width="48" x="1050" y="138" />
<rect fill="#DEE6F1" height="24" width="48" x="1002" y="138" />
<rect fill="none" height="24" stroke="#405C86" stroke-width="2" width="48" x="1002" y="138" />
<rect fill="#DEE6F1" height="24" width="48" x="954" y="138" />
<rect fill="none" height="24" stroke="#405C86" stroke-width="2" width="48" x="954" y="138" />
<rect fill="#DEE6F1" height="24" width="48" x="906" y="138" />
<rect fill="none" height="24" stroke="#405C86" stroke-width="2" width="48" x="906" y="138" />
<rect fill="#DEE6F1" height="24" width="48" x="858" y="138" />
<rect fill="none" height="24" stroke="#405C86" stroke-width="2" width="48" x="858" y="138" />
<rect fill="#DEE6F1" height="24" width="48" x="810" y="138" />
<rect fill="none" height="24" stroke="#405C86" stroke-width="2" width="48" x="810" y="138" />
<rect fill="#DEE6F1" height="24" width="48" x="762" y="138" />
<rect fill="none" height="24" stroke="#405C86" stroke-width="2" width="48" x="762" y="138" />
<rect fill="#DEE6F1" height="24" width="48" x="714" y="138" />
<rect fill="none" height="24" stroke="#405C86" stroke-width="2" width="48" x="714" y="138" />
<rect fill="#DEE6F1" height="24" width="48" x="666" y="138" />
<rect fill="none" height="24" stroke="#405C86" stroke-width="2" width="48" x="666" y="138" />
<rect fill="#DEE6F1" height="24" width="48" x="618" y="138" />
<rect fill="none" height="24" stroke="#405C86" stroke-width="2" width="48" x="618" y="138" />
<rect fill="#DEE6F1" height="24" width="48" x="570" y="138" />
<rect fill="none" height="24" stroke="#405C86" stroke-width="2" width="48" x="570" y="138" />
<rect fill="#DEE6F1" height="24" width="48" x="522" y="138" />
<rect fill="none" height="24" stroke="#405C86" stroke-width="2" width="48" x="522" y="138" />
<rect fill="#DEE6F1" height="24" width="48" x="474" y="138" />
<rect fill="none" height="24" stroke="#405C86" stroke-width="2" width="48" x="474" y="138" />
<rect fill="#DEE6F1" height="24" width="48" x="426" y="138" />
<rect fill="none" height="24" stroke="#405C86" stroke-width="2" width="48" x="426" y="138" />
<rect fill="#DEE6F1" height="24" width="48" x="378" y="138" />
<rect fill="none" height="24" stroke="#405C86" stroke-width="2" width="48" x="378" y="138" />
<rect fill="#DEE6F1" height="24" width="48" x="330" y="138" />
<rect fill="none" height="24" stroke="#405C86" stroke-width="2" width="48" x="330" y="138" />
<rect fill="#DEE6F1" height="24" width="48" x="282" y="138" />
<rect fill="none" height="24" stroke="#405C86" stroke-width="2" width="48" x="282" y="138" />
<rect fill="#DEE6F1" height="24" width="48" x="234" y="138" />
<rect fill="none" height="24" stroke="#405C86" stroke-width="2" width="48" x="234" y="138" />
<rect fill="#DEE6F1" height="24" width="48" x="186" y="138" />
<rect fill="none" height="24" stroke="#405C86" stroke-width="2" width="48" x="186" y="138" />
<rect fill="#DEE6F1" height="24" width="48" x="138" y="138" />
<rect fill="none" height="24" stroke="#405C86" stroke-width="2" width="48" x="138" y="138" />
<rect fill="#DEE6F1" height="24" width="48" x="90" y="138" />
<rect fill="none" height="24" stroke="#405C86" stroke-width="2" width="48" x="90" y="138" />
<text class="register-name" x="80" y="150">Zd</text>
<text class="intrinsic-name" x="80" y="162">returns</text>
<text class="register-number" x="10" y="150">(3)</text>
<line marker-end="url(#arrowhead)" stroke="none" x1="1590" x2="1602" y1="90.5" y2="137" />
<line marker-end="url(#arrowhead)" stroke="none" x1="1542" x2="1554" y1="90.5" y2="137" />
<line marker-end="url(#arrowhead)" stroke="none" x1="1494" x2="1506" y1="90.5" y2="137" />
<line marker-end="url(#arrowhead)" stroke="none" x1="1446" x2="1458" y1="90.5" y2="137" />
<line marker-end="url(#arrowhead)" stroke="none" x1="1398" x2="1410" y1="90.5" y2="137" />
<line marker-end="url(#arrowhead)" stroke="none" x1="1350" x2="1362" y1="90.5" y2="137" />
<line marker-end="url(#arrowhead)" stroke="none" x1="1302" x2="1314" y1="90.5" y2="137" />
<line marker-end="url(#arrowhead)" stroke="none" x1="1254" x2="1266" y1="90.5" y2="137" />
<line marker-end="url(#arrowhead)" stroke="none" x1="1206" x2="1218" y1="90.5" y2="137" />
<line marker-end="url(#arrowhead)" stroke="none" x1="1158" x2="1170" y1="90.5" y2="137" />
<line marker-end="url(#arrowhead)" stroke="none" x1="1110" x2="1122" y1="90.5" y2="137" />
<line marker-end="url(#arrowhead)" stroke="none" x1="1062" x2="1074" y1="90.5" y2="137" />
<line marker-end="url(#arrowhead)" stroke="none" x1="1014" x2="1026" y1="90.5" y2="137" />
<line marker-end="url(#arrowhead)" stroke="none" x1="966" x2="978" y1="90.5" y2="137" />
<line marker-end="url(#arrowhead)" stroke="none" x1="918" x2="930" y1="90.5" y2="137" />
<line marker-end="url(#arrowhead)" stroke="none" x1="870" x2="882" y1="90.5" y2="137" />
<line marker-end="url(#arrowhead)" stroke="none" x1="822" x2="834" y1="90.5" y2="137" />
<line marker-end="url(#arrowhead)" stroke="none" x1="774" x2="786" y1="90.5" y2="137" />
<line marker-end="url(#arrowhead)" stroke="none" x1="726" x2="738" y1="90.5" y2="137" />
<line marker-end="url(#arrowhead)" stroke="none" x1="678" x2="690" y1="90.5" y2="137" />
<line marker-end="url(#arrowhead)" stroke="none" x1="630" x2="642" y1="90.5" y2="137" />
<line marker-end="url(#arrowhead)" stroke="none" x1="582" x2="594" y1="90.5" y2="137" />
<line marker-end="url(#arrowhead)" stroke="none" x1="534" x2="546" y1="90.5" y2="137" />
<line marker-end="url(#arrowhead)" stroke="none" x1="486" x2="498" y1="90.5" y2="137" />
<line marker-end="url(#arrowhead)" stroke="none" x1="438" x2="450" y1="90.5" y2="137" />
<line marker-end="url(#arrowhead)" stroke="none" x1="390" x2="402" y1="90.5" y2="137" />
<line marker-end="url(#arrowhead)" stroke="none" x1="342" x2="354" y1="90.5" y2="137" />
<line marker-end="url(#arrowhead)" stroke="none" x1="294" x2="306" y1="90.5" y2="137" />
<line marker-end="url(#arrowhead)" stroke="none" x1="246" x2="258" y1="90.5" y2="137" />
<line marker-end="url(#arrowhead)" stroke="none" x1="198" x2="210" y1="90.5" y2="137" />
<line marker-end="url(#arrowhead)" stroke="none" x1="150" x2="162" y1="90.5" y2="137" />
<line marker-end="url(#arrowhead)" stroke="none" x1="102" x2="114" y1="90.5" y2="137" />
</svg>