<svg xmlns="http://www.w3.org/2000/svg" viewBox="0 0 3174 219">
<style>
.label { font: 14px Helvetica; dominant-baseline: middle; text-anchor: middle; }
.title-left { font: 12px Helvetica; dominant-baseline: middle; }
.title-right { font: 12px Helvetica; dominant-baseline: middle; text-anchor: end; }
.title-intrinsic { font: 12px Helvetica; dominant-baseline: middle; text-anchor: middle; fill: #6778ED; }
.title { font: 12px Helvetica; dominant-baseline: middle; text-anchor: middle; }
.title-unused { font: 12px Helvetica; dominant-baseline: middle; text-anchor: middle; fill: #AAA; }
.register-name { font: 14px Helvetica; dominant-baseline: middle; text-anchor: end; font-style: italic; }
.memory-name { font: 14px Helvetica; dominant-baseline: middle; text-anchor: end; }
.register-number { font: 14px Helvetica; dominant-baseline: middle; text-anchor: start; }
.intrinsic-name { font: 14px Helvetica; dominant-baseline: middle; text-anchor: end; fill: #6778ED; }
.intrinsic-color { fill: #6778ED; }
.small-label { font: 12px Helvetica; dominant-baseline: middle; text-anchor: middle; }
.label-10px { font: 10px Helvetica; dominant-baseline: middle; text-anchor: middle; }
.smaller-label { font: 9px Helvetica; dominant-baseline: middle; text-anchor: middle; }
.label-6px { font: 6px Helvetica; dominant-baseline: middle; text-anchor: middle; }
.label-7px { font: 7px Helvetica; dominant-baseline: middle; text-anchor: middle; }
.unused { fill: #AAA; }
.dim { fill: #888; }
</style>
<defs>
<marker id="arrowhead" markerWidth="10.75" markerHeight="24.5" refX="9.0" refY="6.125" orient="auto">
<polyline points="0.5 0.5, 8.75 6.125, 0.5 11.75" stroke="#567DB6" stroke-width="1" fill="none"/>
</marker>
</defs>
<text class="title-left" x="90" y="9">upper</text>
<text class="title-right" x="3162" y="9">lower</text>
<rect fill="#DEE6F1" height="24" width="192" x="2970" y="18" />
<rect fill="none" height="24" stroke="#405C86" stroke-width="2" width="192" x="2970" y="18" />
<rect fill="#DEE6F1" height="24" width="192" x="2778" y="18" />
<rect fill="none" height="24" stroke="#405C86" stroke-width="2" width="192" x="2778" y="18" />
<rect fill="#DEE6F1" height="24" width="192" x="2586" y="18" />
<rect fill="none" height="24" stroke="#405C86" stroke-width="2" width="192" x="2586" y="18" />
<rect fill="#DEE6F1" height="24" width="192" x="2394" y="18" />
<rect fill="none" height="24" stroke="#405C86" stroke-width="2" width="192" x="2394" y="18" />
<rect fill="#DEE6F1" height="24" width="192" x="2202" y="18" />
<rect fill="none" height="24" stroke="#405C86" stroke-width="2" width="192" x="2202" y="18" />
<rect fill="#DEE6F1" height="24" width="192" x="2010" y="18" />
<rect fill="none" height="24" stroke="#405C86" stroke-width="2" width="192" x="2010" y="18" />
<rect fill="#DEE6F1" height="24" width="192" x="1818" y="18" />
<rect fill="none" height="24" stroke="#405C86" stroke-width="2" width="192" x="1818" y="18" />
<rect fill="#DEE6F1" height="24" width="192" x="1626" y="18" />
<rect fill="none" height="24" stroke="#405C86" stroke-width="2" width="192" x="1626" y="18" />
<rect fill="#DEE6F1" height="24" width="192" x="1434" y="18" />
<rect fill="none" height="24" stroke="#405C86" stroke-width="2" width="192" x="1434" y="18" />
<rect fill="#DEE6F1" height="24" width="192" x="1242" y="18" />
<rect fill="none" height="24" stroke="#405C86" stroke-width="2" width="192" x="1242" y="18" />
<rect fill="#DEE6F1" height="24" width="192" x="1050" y="18" />
<rect fill="none" height="24" stroke="#405C86" stroke-width="2" width="192" x="1050" y="18" />
<rect fill="#DEE6F1" height="24" width="192" x="858" y="18" />
<rect fill="none" height="24" stroke="#405C86" stroke-width="2" width="192" x="858" y="18" />
<rect fill="#DEE6F1" height="24" width="192" x="666" y="18" />
<rect fill="none" height="24" stroke="#405C86" stroke-width="2" width="192" x="666" y="18" />
<rect fill="#DEE6F1" height="24" width="192" x="474" y="18" />
<rect fill="none" height="24" stroke="#405C86" stroke-width="2" width="192" x="474" y="18" />
<rect fill="#DEE6F1" height="24" width="192" x="282" y="18" />
<rect fill="none" height="24" stroke="#405C86" stroke-width="2" width="192" x="282" y="18" />
<rect fill="#DEE6F1" height="24" width="192" x="90" y="18" />
<rect fill="none" height="24" stroke="#405C86" stroke-width="2" width="192" x="90" y="18" />
<text class="register-name" x="80" y="30">Zn</text>
<text class="intrinsic-name" x="80" y="42">op1</text>
<text class="register-number" x="10" y="30">(1)</text>
<rect fill="#DEE6F1" height="24" width="192" x="2970" y="66" />
<rect fill="none" height="24" stroke="#405C86" stroke-width="2" width="192" x="2970" y="66" />
<rect fill="#DEE6F1" height="24" width="192" x="2778" y="66" />
<rect fill="none" height="24" stroke="#405C86" stroke-width="2" width="192" x="2778" y="66" />
<rect fill="#DEE6F1" height="24" width="192" x="2586" y="66" />
<rect fill="none" height="24" stroke="#405C86" stroke-width="2" width="192" x="2586" y="66" />
<rect fill="#DEE6F1" height="24" width="192" x="2394" y="66" />
<rect fill="none" height="24" stroke="#405C86" stroke-width="2" width="192" x="2394" y="66" />
<rect fill="#DEE6F1" height="24" width="192" x="2202" y="66" />
<rect fill="none" height="24" stroke="#405C86" stroke-width="2" width="192" x="2202" y="66" />
<rect fill="#DEE6F1" height="24" width="192" x="2010" y="66" />
<rect fill="none" height="24" stroke="#405C86" stroke-width="2" width="192" x="2010" y="66" />
<rect fill="#DEE6F1" height="24" width="192" x="1818" y="66" />
<rect fill="none" height="24" stroke="#405C86" stroke-width="2" width="192" x="1818" y="66" />
<rect fill="#DEE6F1" height="24" width="192" x="1626" y="66" />
<rect fill="none" height="24" stroke="#405C86" stroke-width="2" width="192" x="1626" y="66" />
<rect fill="#DEE6F1" height="24" width="192" x="1434" y="66" />
<rect fill="none" height="24" stroke="#405C86" stroke-width="2" width="192" x="1434" y="66" />
<rect fill="#DEE6F1" height="24" width="192" x="1242" y="66" />
<rect fill="none" height="24" stroke="#405C86" stroke-width="2" width="192" x="1242" y="66" />
<rect fill="#DEE6F1" height="24" width="192" x="1050" y="66" />
<rect fill="none" height="24" stroke="#405C86" stroke-width="2" width="192" x="1050" y="66" />
<rect fill="#DEE6F1" height="24" width="192" x="858" y="66" />
<rect fill="none" height="24" stroke="#405C86" stroke-width="2" width="192" x="858" y="66" />
<rect fill="#DEE6F1" height="24" width="192" x="666" y="66" />
<rect fill="none" height="24" stroke="#405C86" stroke-width="2" width="192" x="666" y="66" />
<rect fill="#DEE6F1" height="24" width="192" x="474" y="66" />
<rect fill="none" height="24" stroke="#405C86" stroke-width="2" width="192" x="474" y="66" />
<rect fill="#DEE6F1" height="24" width="192" x="282" y="66" />
<rect fill="none" height="24" stroke="#405C86" stroke-width="2" width="192" x="282" y="66" />
<rect fill="#DEE6F1" height="24" width="192" x="90" y="66" />
<rect fill="none" height="24" stroke="#405C86" stroke-width="2" width="192" x="90" y="66" />
<text class="register-name" x="80" y="78">Zm</text>
<text class="intrinsic-name" x="80" y="90">op2</text>
<text class="register-number" x="10" y="78">(2)</text>
<rect fill="#DEE6F1" height="24" width="96" x="3066" y="114" />
<rect fill="none" height="24" stroke="#405C86" stroke-width="2" width="96" x="3066" y="114" />
<rect fill="none" height="24" stroke="#405C86" stroke-dasharray="3 1" stroke-dashoffset="1.5" stroke-width="1" width="96" x="2970" y="114" />
<text class="label unused" x="3018" y="127"></text>
<rect fill="#DEE6F1" height="24" width="96" x="2874" y="114" />
<rect fill="none" height="24" stroke="#405C86" stroke-width="2" width="96" x="2874" y="114" />
<rect fill="none" height="24" stroke="#405C86" stroke-dasharray="3 1" stroke-dashoffset="1.5" stroke-width="1" width="96" x="2778" y="114" />
<text class="label unused" x="2826" y="127"></text>
<rect fill="#DEE6F1" height="24" width="96" x="2682" y="114" />
<rect fill="none" height="24" stroke="#405C86" stroke-width="2" width="96" x="2682" y="114" />
<rect fill="none" height="24" stroke="#405C86" stroke-dasharray="3 1" stroke-dashoffset="1.5" stroke-width="1" width="96" x="2586" y="114" />
<text class="label unused" x="2634" y="127"></text>
<rect fill="#DEE6F1" height="24" width="96" x="2490" y="114" />
<rect fill="none" height="24" stroke="#405C86" stroke-width="2" width="96" x="2490" y="114" />
<rect fill="none" height="24" stroke="#405C86" stroke-dasharray="3 1" stroke-dashoffset="1.5" stroke-width="1" width="96" x="2394" y="114" />
<text class="label unused" x="2442" y="127"></text>
<rect fill="#DEE6F1" height="24" width="96" x="2298" y="114" />
<rect fill="none" height="24" stroke="#405C86" stroke-width="2" width="96" x="2298" y="114" />
<rect fill="none" height="24" stroke="#405C86" stroke-dasharray="3 1" stroke-dashoffset="1.5" stroke-width="1" width="96" x="2202" y="114" />
<text class="label unused" x="2250" y="127"></text>
<rect fill="#DEE6F1" height="24" width="96" x="2106" y="114" />
<rect fill="none" height="24" stroke="#405C86" stroke-width="2" width="96" x="2106" y="114" />
<rect fill="none" height="24" stroke="#405C86" stroke-dasharray="3 1" stroke-dashoffset="1.5" stroke-width="1" width="96" x="2010" y="114" />
<text class="label unused" x="2058" y="127"></text>
<rect fill="#DEE6F1" height="24" width="96" x="1914" y="114" />
<rect fill="none" height="24" stroke="#405C86" stroke-width="2" width="96" x="1914" y="114" />
<rect fill="none" height="24" stroke="#405C86" stroke-dasharray="3 1" stroke-dashoffset="1.5" stroke-width="1" width="96" x="1818" y="114" />
<text class="label unused" x="1866" y="127"></text>
<rect fill="#DEE6F1" height="24" width="96" x="1722" y="114" />
<rect fill="none" height="24" stroke="#405C86" stroke-width="2" width="96" x="1722" y="114" />
<rect fill="none" height="24" stroke="#405C86" stroke-dasharray="3 1" stroke-dashoffset="1.5" stroke-width="1" width="96" x="1626" y="114" />
<text class="label unused" x="1674" y="127"></text>
<rect fill="#DEE6F1" height="24" width="96" x="1530" y="114" />
<rect fill="none" height="24" stroke="#405C86" stroke-width="2" width="96" x="1530" y="114" />
<rect fill="none" height="24" stroke="#405C86" stroke-dasharray="3 1" stroke-dashoffset="1.5" stroke-width="1" width="96" x="1434" y="114" />
<text class="label unused" x="1482" y="127"></text>
<rect fill="#DEE6F1" height="24" width="96" x="1338" y="114" />
<rect fill="none" height="24" stroke="#405C86" stroke-width="2" width="96" x="1338" y="114" />
<rect fill="none" height="24" stroke="#405C86" stroke-dasharray="3 1" stroke-dashoffset="1.5" stroke-width="1" width="96" x="1242" y="114" />
<text class="label unused" x="1290" y="127"></text>
<rect fill="#DEE6F1" height="24" width="96" x="1146" y="114" />
<rect fill="none" height="24" stroke="#405C86" stroke-width="2" width="96" x="1146" y="114" />
<rect fill="none" height="24" stroke="#405C86" stroke-dasharray="3 1" stroke-dashoffset="1.5" stroke-width="1" width="96" x="1050" y="114" />
<text class="label unused" x="1098" y="127"></text>
<rect fill="#DEE6F1" height="24" width="96" x="954" y="114" />
<rect fill="none" height="24" stroke="#405C86" stroke-width="2" width="96" x="954" y="114" />
<rect fill="none" height="24" stroke="#405C86" stroke-dasharray="3 1" stroke-dashoffset="1.5" stroke-width="1" width="96" x="858" y="114" />
<text class="label unused" x="906" y="127"></text>
<rect fill="#DEE6F1" height="24" width="96" x="762" y="114" />
<rect fill="none" height="24" stroke="#405C86" stroke-width="2" width="96" x="762" y="114" />
<rect fill="none" height="24" stroke="#405C86" stroke-dasharray="3 1" stroke-dashoffset="1.5" stroke-width="1" width="96" x="666" y="114" />
<text class="label unused" x="714" y="127"></text>
<rect fill="#DEE6F1" height="24" width="96" x="570" y="114" />
<rect fill="none" height="24" stroke="#405C86" stroke-width="2" width="96" x="570" y="114" />
<rect fill="none" height="24" stroke="#405C86" stroke-dasharray="3 1" stroke-dashoffset="1.5" stroke-width="1" width="96" x="474" y="114" />
<text class="label unused" x="522" y="127"></text>
<rect fill="#DEE6F1" height="24" width="96" x="378" y="114" />
<rect fill="none" height="24" stroke="#405C86" stroke-width="2" width="96" x="378" y="114" />
<rect fill="none" height="24" stroke="#405C86" stroke-dasharray="3 1" stroke-dashoffset="1.5" stroke-width="1" width="96" x="282" y="114" />
<text class="label unused" x="330" y="127"></text>
<rect fill="#DEE6F1" height="24" width="96" x="186" y="114" />
<rect fill="none" height="24" stroke="#405C86" stroke-width="2" width="96" x="186" y="114" />
<rect fill="none" height="24" stroke="#405C86" stroke-dasharray="3 1" stroke-dashoffset="1.5" stroke-width="1" width="96" x="90" y="114" />
<text class="label unused" x="138" y="127"></text>
<text class="register-name" x="80" y="126">Zd</text>
<text class="intrinsic-name" x="80" y="138">even</text>
<text class="register-number" x="10" y="126">(3)</text>
<rect fill="#DEE6F1" height="24" width="96" x="3066" y="186" />
<rect fill="none" height="24" stroke="#405C86" stroke-width="2" width="96" x="3066" y="186" />
<rect fill="#DEE6F1" height="24" width="96" x="2970" y="186" />
<rect fill="none" height="24" stroke="#405C86" stroke-width="2" width="96" x="2970" y="186" />
<rect fill="#DEE6F1" height="24" width="96" x="2874" y="186" />
<rect fill="none" height="24" stroke="#405C86" stroke-width="2" width="96" x="2874" y="186" />
<rect fill="#DEE6F1" height="24" width="96" x="2778" y="186" />
<rect fill="none" height="24" stroke="#405C86" stroke-width="2" width="96" x="2778" y="186" />
<rect fill="#DEE6F1" height="24" width="96" x="2682" y="186" />
<rect fill="none" height="24" stroke="#405C86" stroke-width="2" width="96" x="2682" y="186" />
<rect fill="#DEE6F1" height="24" width="96" x="2586" y="186" />
<rect fill="none" height="24" stroke="#405C86" stroke-width="2" width="96" x="2586" y="186" />
<rect fill="#DEE6F1" height="24" width="96" x="2490" y="186" />
<rect fill="none" height="24" stroke="#405C86" stroke-width="2" width="96" x="2490" y="186" />
<rect fill="#DEE6F1" height="24" width="96" x="2394" y="186" />
<rect fill="none" height="24" stroke="#405C86" stroke-width="2" width="96" x="2394" y="186" />
<rect fill="#DEE6F1" height="24" width="96" x="2298" y="186" />
<rect fill="none" height="24" stroke="#405C86" stroke-width="2" width="96" x="2298" y="186" />
<rect fill="#DEE6F1" height="24" width="96" x="2202" y="186" />
<rect fill="none" height="24" stroke="#405C86" stroke-width="2" width="96" x="2202" y="186" />
<rect fill="#DEE6F1" height="24" width="96" x="2106" y="186" />
<rect fill="none" height="24" stroke="#405C86" stroke-width="2" width="96" x="2106" y="186" />
<rect fill="#DEE6F1" height="24" width="96" x="2010" y="186" />
<rect fill="none" height="24" stroke="#405C86" stroke-width="2" width="96" x="2010" y="186" />
<rect fill="#DEE6F1" height="24" width="96" x="1914" y="186" />
<rect fill="none" height="24" stroke="#405C86" stroke-width="2" width="96" x="1914" y="186" />
<rect fill="#DEE6F1" height="24" width="96" x="1818" y="186" />
<rect fill="none" height="24" stroke="#405C86" stroke-width="2" width="96" x="1818" y="186" />
<rect fill="#DEE6F1" height="24" width="96" x="1722" y="186" />
<rect fill="none" height="24" stroke="#405C86" stroke-width="2" width="96" x="1722" y="186" />
<rect fill="#DEE6F1" height="24" width="96" x="1626" y="186" />
<rect fill="none" height="24" stroke="#405C86" stroke-width="2" width="96" x="1626" y="186" />
<rect fill="#DEE6F1" height="24" width="96" x="1530" y="186" />
<rect fill="none" height="24" stroke="#405C86" stroke-width="2" width="96" x="1530" y="186" />
<rect fill="#DEE6F1" height="24" width="96" x="1434" y="186" />
<rect fill="none" height="24" stroke="#405C86" stroke-width="2" width="96" x="1434" y="186" />
<rect fill="#DEE6F1" height="24" width="96" x="1338" y="186" />
<rect fill="none" height="24" stroke="#405C86" stroke-width="2" width="96" x="1338" y="186" />
<rect fill="#DEE6F1" height="24" width="96" x="1242" y="186" />
<rect fill="none" height="24" stroke="#405C86" stroke-width="2" width="96" x="1242" y="186" />
<rect fill="#DEE6F1" height="24" width="96" x="1146" y="186" />
<rect fill="none" height="24" stroke="#405C86" stroke-width="2" width="96" x="1146" y="186" />
<rect fill="#DEE6F1" height="24" width="96" x="1050" y="186" />
<rect fill="none" height="24" stroke="#405C86" stroke-width="2" width="96" x="1050" y="186" />
<rect fill="#DEE6F1" height="24" width="96" x="954" y="186" />
<rect fill="none" height="24" stroke="#405C86" stroke-width="2" width="96" x="954" y="186" />
<rect fill="#DEE6F1" height="24" width="96" x="858" y="186" />
<rect fill="none" height="24" stroke="#405C86" stroke-width="2" width="96" x="858" y="186" />
<rect fill="#DEE6F1" height="24" width="96" x="762" y="186" />
<rect fill="none" height="24" stroke="#405C86" stroke-width="2" width="96" x="762" y="186" />
<rect fill="#DEE6F1" height="24" width="96" x="666" y="186" />
<rect fill="none" height="24" stroke="#405C86" stroke-width="2" width="96" x="666" y="186" />
<rect fill="#DEE6F1" height="24" width="96" x="570" y="186" />
<rect fill="none" height="24" stroke="#405C86" stroke-width="2" width="96" x="570" y="186" />
<rect fill="#DEE6F1" height="24" width="96" x="474" y="186" />
<rect fill="none" height="24" stroke="#405C86" stroke-width="2" width="96" x="474" y="186" />
<rect fill="#DEE6F1" height="24" width="96" x="378" y="186" />
<rect fill="none" height="24" stroke="#405C86" stroke-width="2" width="96" x="378" y="186" />
<rect fill="#DEE6F1" height="24" width="96" x="282" y="186" />
<rect fill="none" height="24" stroke="#405C86" stroke-width="2" width="96" x="282" y="186" />
<rect fill="#DEE6F1" height="24" width="96" x="186" y="186" />
<rect fill="none" height="24" stroke="#405C86" stroke-width="2" width="96" x="186" y="186" />
<rect fill="#DEE6F1" height="24" width="96" x="90" y="186" />
<rect fill="none" height="24" stroke="#405C86" stroke-width="2" width="96" x="90" y="186" />
<text class="register-name" x="80" y="198">Zd</text>
<text class="intrinsic-name" x="80" y="210">returns</text>
<text class="register-number" x="10" y="198">(3)</text>
<line stroke="#567DB6" stroke-width="1" x1="3018" x2="3018" y1="42.5" y2="65.5" />
<line stroke="#567DB6" stroke-width="1" x1="2826" x2="2826" y1="42.5" y2="65.5" />
<line stroke="#567DB6" stroke-width="1" x1="2634" x2="2634" y1="42.5" y2="65.5" />
<line stroke="#567DB6" stroke-width="1" x1="2442" x2="2442" y1="42.5" y2="65.5" />
<line stroke="#567DB6" stroke-width="1" x1="2250" x2="2250" y1="42.5" y2="65.5" />
<line stroke="#567DB6" stroke-width="1" x1="2058" x2="2058" y1="42.5" y2="65.5" />
<line stroke="#567DB6" stroke-width="1" x1="1866" x2="1866" y1="42.5" y2="65.5" />
<line stroke="#567DB6" stroke-width="1" x1="1674" x2="1674" y1="42.5" y2="65.5" />
<line stroke="#567DB6" stroke-width="1" x1="1482" x2="1482" y1="42.5" y2="65.5" />
<line stroke="#567DB6" stroke-width="1" x1="1290" x2="1290" y1="42.5" y2="65.5" />
<line stroke="#567DB6" stroke-width="1" x1="1098" x2="1098" y1="42.5" y2="65.5" />
<line stroke="#567DB6" stroke-width="1" x1="906" x2="906" y1="42.5" y2="65.5" />
<line stroke="#567DB6" stroke-width="1" x1="714" x2="714" y1="42.5" y2="65.5" />
<line stroke="#567DB6" stroke-width="1" x1="522" x2="522" y1="42.5" y2="65.5" />
<line stroke="#567DB6" stroke-width="1" x1="330" x2="330" y1="42.5" y2="65.5" />
<line stroke="#567DB6" stroke-width="1" x1="138" x2="138" y1="42.5" y2="65.5" />
<polyline fill="none" points="2973.0 90.5,2975.0 94.5,3017.0 94.5,3018.0 96.5,3018.0 100.5,3018.0 96.5,3019.0 94.5,3061.0 94.5,3063.0 90.5" stroke="#567DB6" stroke-width="1" />
<line stroke="#567DB6" stroke-width="1" x1="3018" x2="3018" y1="100.5" y2="185" />
<polyline fill="none" points="2781.0 90.5,2783.0 94.5,2825.0 94.5,2826.0 96.5,2826.0 100.5,2826.0 96.5,2827.0 94.5,2869.0 94.5,2871.0 90.5" stroke="#567DB6" stroke-width="1" />
<line stroke="#567DB6" stroke-width="1" x1="2826" x2="2826" y1="100.5" y2="185" />
<polyline fill="none" points="2589.0 90.5,2591.0 94.5,2633.0 94.5,2634.0 96.5,2634.0 100.5,2634.0 96.5,2635.0 94.5,2677.0 94.5,2679.0 90.5" stroke="#567DB6" stroke-width="1" />
<line stroke="#567DB6" stroke-width="1" x1="2634" x2="2634" y1="100.5" y2="185" />
<polyline fill="none" points="2397.0 90.5,2399.0 94.5,2441.0 94.5,2442.0 96.5,2442.0 100.5,2442.0 96.5,2443.0 94.5,2485.0 94.5,2487.0 90.5" stroke="#567DB6" stroke-width="1" />
<line stroke="#567DB6" stroke-width="1" x1="2442" x2="2442" y1="100.5" y2="185" />
<polyline fill="none" points="2205.0 90.5,2207.0 94.5,2249.0 94.5,2250.0 96.5,2250.0 100.5,2250.0 96.5,2251.0 94.5,2293.0 94.5,2295.0 90.5" stroke="#567DB6" stroke-width="1" />
<line stroke="#567DB6" stroke-width="1" x1="2250" x2="2250" y1="100.5" y2="185" />
<polyline fill="none" points="2013.0 90.5,2015.0 94.5,2057.0 94.5,2058.0 96.5,2058.0 100.5,2058.0 96.5,2059.0 94.5,2101.0 94.5,2103.0 90.5" stroke="#567DB6" stroke-width="1" />
<line stroke="#567DB6" stroke-width="1" x1="2058" x2="2058" y1="100.5" y2="185" />
<polyline fill="none" points="1821.0 90.5,1823.0 94.5,1865.0 94.5,1866.0 96.5,1866.0 100.5,1866.0 96.5,1867.0 94.5,1909.0 94.5,1911.0 90.5" stroke="#567DB6" stroke-width="1" />
<line stroke="#567DB6" stroke-width="1" x1="1866" x2="1866" y1="100.5" y2="185" />
<polyline fill="none" points="1629.0 90.5,1631.0 94.5,1673.0 94.5,1674.0 96.5,1674.0 100.5,1674.0 96.5,1675.0 94.5,1717.0 94.5,1719.0 90.5" stroke="#567DB6" stroke-width="1" />
<line stroke="#567DB6" stroke-width="1" x1="1674" x2="1674" y1="100.5" y2="185" />
<polyline fill="none" points="1437.0 90.5,1439.0 94.5,1481.0 94.5,1482.0 96.5,1482.0 100.5,1482.0 96.5,1483.0 94.5,1525.0 94.5,1527.0 90.5" stroke="#567DB6" stroke-width="1" />
<line stroke="#567DB6" stroke-width="1" x1="1482" x2="1482" y1="100.5" y2="185" />
<polyline fill="none" points="1245.0 90.5,1247.0 94.5,1289.0 94.5,1290.0 96.5,1290.0 100.5,1290.0 96.5,1291.0 94.5,1333.0 94.5,1335.0 90.5" stroke="#567DB6" stroke-width="1" />
<line stroke="#567DB6" stroke-width="1" x1="1290" x2="1290" y1="100.5" y2="185" />
<polyline fill="none" points="1053.0 90.5,1055.0 94.5,1097.0 94.5,1098.0 96.5,1098.0 100.5,1098.0 96.5,1099.0 94.5,1141.0 94.5,1143.0 90.5" stroke="#567DB6" stroke-width="1" />
<line stroke="#567DB6" stroke-width="1" x1="1098" x2="1098" y1="100.5" y2="185" />
<polyline fill="none" points="861.0 90.5,863.0 94.5,905.0 94.5,906.0 96.5,906.0 100.5,906.0 96.5,907.0 94.5,949.0 94.5,951.0 90.5" stroke="#567DB6" stroke-width="1" />
<line stroke="#567DB6" stroke-width="1" x1="906" x2="906" y1="100.5" y2="185" />
<polyline fill="none" points="669.0 90.5,671.0 94.5,713.0 94.5,714.0 96.5,714.0 100.5,714.0 96.5,715.0 94.5,757.0 94.5,759.0 90.5" stroke="#567DB6" stroke-width="1" />
<line stroke="#567DB6" stroke-width="1" x1="714" x2="714" y1="100.5" y2="185" />
<polyline fill="none" points="477.0 90.5,479.0 94.5,521.0 94.5,522.0 96.5,522.0 100.5,522.0 96.5,523.0 94.5,565.0 94.5,567.0 90.5" stroke="#567DB6" stroke-width="1" />
<line stroke="#567DB6" stroke-width="1" x1="522" x2="522" y1="100.5" y2="185" />
<polyline fill="none" points="285.0 90.5,287.0 94.5,329.0 94.5,330.0 96.5,330.0 100.5,330.0 96.5,331.0 94.5,373.0 94.5,375.0 90.5" stroke="#567DB6" stroke-width="1" />
<line stroke="#567DB6" stroke-width="1" x1="330" x2="330" y1="100.5" y2="185" />
<polyline fill="none" points="93.0 90.5,95.0 94.5,137.0 94.5,138.0 96.5,138.0 100.5,138.0 96.5,139.0 94.5,181.0 94.5,183.0 90.5" stroke="#567DB6" stroke-width="1" />
<line stroke="#567DB6" stroke-width="1" x1="138" x2="138" y1="100.5" y2="185" />
<line stroke="#567DB6" stroke-width="1" x1="3114" x2="3114" y1="138.5" y2="185" />
<line stroke="#567DB6" stroke-width="1" x1="2922" x2="2922" y1="138.5" y2="185" />
<line stroke="#567DB6" stroke-width="1" x1="2730" x2="2730" y1="138.5" y2="185" />
<line stroke="#567DB6" stroke-width="1" x1="2538" x2="2538" y1="138.5" y2="185" />
<line stroke="#567DB6" stroke-width="1" x1="2346" x2="2346" y1="138.5" y2="185" />
<line stroke="#567DB6" stroke-width="1" x1="2154" x2="2154" y1="138.5" y2="185" />
<line stroke="#567DB6" stroke-width="1" x1="1962" x2="1962" y1="138.5" y2="185" />
<line stroke="#567DB6" stroke-width="1" x1="1770" x2="1770" y1="138.5" y2="185" />
<line stroke="#567DB6" stroke-width="1" x1="1578" x2="1578" y1="138.5" y2="185" />
<line stroke="#567DB6" stroke-width="1" x1="1386" x2="1386" y1="138.5" y2="185" />
<line stroke="#567DB6" stroke-width="1" x1="1194" x2="1194" y1="138.5" y2="185" />
<line stroke="#567DB6" stroke-width="1" x1="1002" x2="1002" y1="138.5" y2="185" />
<line stroke="#567DB6" stroke-width="1" x1="810" x2="810" y1="138.5" y2="185" />
<line stroke="#567DB6" stroke-width="1" x1="618" x2="618" y1="138.5" y2="185" />
<line stroke="#567DB6" stroke-width="1" x1="426" x2="426" y1="138.5" y2="185" />
<line stroke="#567DB6" stroke-width="1" x1="234" x2="234" y1="138.5" y2="185" />
<line marker-end="url(#arrowhead)" stroke="none" x1="3018" x2="3018" y1="100.5" y2="185" />
<line marker-end="url(#arrowhead)" stroke="none" x1="2826" x2="2826" y1="100.5" y2="185" />
<line marker-end="url(#arrowhead)" stroke="none" x1="2634" x2="2634" y1="100.5" y2="185" />
<line marker-end="url(#arrowhead)" stroke="none" x1="2442" x2="2442" y1="100.5" y2="185" />
<line marker-end="url(#arrowhead)" stroke="none" x1="2250" x2="2250" y1="100.5" y2="185" />
<line marker-end="url(#arrowhead)" stroke="none" x1="2058" x2="2058" y1="100.5" y2="185" />
<line marker-end="url(#arrowhead)" stroke="none" x1="1866" x2="1866" y1="100.5" y2="185" />
<line marker-end="url(#arrowhead)" stroke="none" x1="1674" x2="1674" y1="100.5" y2="185" />
<line marker-end="url(#arrowhead)" stroke="none" x1="1482" x2="1482" y1="100.5" y2="185" />
<line marker-end="url(#arrowhead)" stroke="none" x1="1290" x2="1290" y1="100.5" y2="185" />
<line marker-end="url(#arrowhead)" stroke="none" x1="1098" x2="1098" y1="100.5" y2="185" />
<line marker-end="url(#arrowhead)" stroke="none" x1="906" x2="906" y1="100.5" y2="185" />
<line marker-end="url(#arrowhead)" stroke="none" x1="714" x2="714" y1="100.5" y2="185" />
<line marker-end="url(#arrowhead)" stroke="none" x1="522" x2="522" y1="100.5" y2="185" />
<line marker-end="url(#arrowhead)" stroke="none" x1="330" x2="330" y1="100.5" y2="185" />
<line marker-end="url(#arrowhead)" stroke="none" x1="138" x2="138" y1="100.5" y2="185" />
<line marker-end="url(#arrowhead)" stroke="none" x1="3114" x2="3114" y1="138.5" y2="185" />
<line marker-end="url(#arrowhead)" stroke="none" x1="2922" x2="2922" y1="138.5" y2="185" />
<line marker-end="url(#arrowhead)" stroke="none" x1="2730" x2="2730" y1="138.5" y2="185" />
<line marker-end="url(#arrowhead)" stroke="none" x1="2538" x2="2538" y1="138.5" y2="185" />
<line marker-end="url(#arrowhead)" stroke="none" x1="2346" x2="2346" y1="138.5" y2="185" />
<line marker-end="url(#arrowhead)" stroke="none" x1="2154" x2="2154" y1="138.5" y2="185" />
<line marker-end="url(#arrowhead)" stroke="none" x1="1962" x2="1962" y1="138.5" y2="185" />
<line marker-end="url(#arrowhead)" stroke="none" x1="1770" x2="1770" y1="138.5" y2="185" />
<line marker-end="url(#arrowhead)" stroke="none" x1="1578" x2="1578" y1="138.5" y2="185" />
<line marker-end="url(#arrowhead)" stroke="none" x1="1386" x2="1386" y1="138.5" y2="185" />
<line marker-end="url(#arrowhead)" stroke="none" x1="1194" x2="1194" y1="138.5" y2="185" />
<line marker-end="url(#arrowhead)" stroke="none" x1="1002" x2="1002" y1="138.5" y2="185" />
<line marker-end="url(#arrowhead)" stroke="none" x1="810" x2="810" y1="138.5" y2="185" />
<line marker-end="url(#arrowhead)" stroke="none" x1="618" x2="618" y1="138.5" y2="185" />
<line marker-end="url(#arrowhead)" stroke="none" x1="426" x2="426" y1="138.5" y2="185" />
<line marker-end="url(#arrowhead)" stroke="none" x1="234" x2="234" y1="138.5" y2="185" />
</svg>