<svg xmlns="http://www.w3.org/2000/svg" viewBox="0 0 3174 171">
<style>
.label { font: 14px Helvetica; dominant-baseline: middle; text-anchor: middle; }
.title-left { font: 12px Helvetica; dominant-baseline: middle; }
.title-right { font: 12px Helvetica; dominant-baseline: middle; text-anchor: end; }
.title-intrinsic { font: 12px Helvetica; dominant-baseline: middle; text-anchor: middle; fill: #6778ED; }
.title { font: 12px Helvetica; dominant-baseline: middle; text-anchor: middle; }
.title-unused { font: 12px Helvetica; dominant-baseline: middle; text-anchor: middle; fill: #AAA; }
.register-name { font: 14px Helvetica; dominant-baseline: middle; text-anchor: end; font-style: italic; }
.memory-name { font: 14px Helvetica; dominant-baseline: middle; text-anchor: end; }
.register-number { font: 14px Helvetica; dominant-baseline: middle; text-anchor: start; }
.intrinsic-name { font: 14px Helvetica; dominant-baseline: middle; text-anchor: end; fill: #6778ED; }
.intrinsic-color { fill: #6778ED; }
.small-label { font: 12px Helvetica; dominant-baseline: middle; text-anchor: middle; }
.label-10px { font: 10px Helvetica; dominant-baseline: middle; text-anchor: middle; }
.smaller-label { font: 9px Helvetica; dominant-baseline: middle; text-anchor: middle; }
.label-6px { font: 6px Helvetica; dominant-baseline: middle; text-anchor: middle; }
.label-7px { font: 7px Helvetica; dominant-baseline: middle; text-anchor: middle; }
.unused { fill: #AAA; }
.dim { fill: #888; }
</style>
<defs>
<marker id="arrowhead" markerWidth="10.75" markerHeight="24.5" refX="9.0" refY="6.125" orient="auto">
<polyline points="0.5 0.5, 8.75 6.125, 0.5 11.75" stroke="#567DB6" stroke-width="1" fill="none"/>
</marker>
</defs>
<line stroke="#567DB6" stroke-width="1" x1="3018" x2="3018" y1="42.5" y2="65.5" />
<line stroke="#567DB6" stroke-width="1" x1="2826" x2="2826" y1="42.5" y2="65.5" />
<line stroke="#567DB6" stroke-width="1" x1="2634" x2="2634" y1="42.5" y2="65.5" />
<line stroke="#567DB6" stroke-width="1" x1="2442" x2="2442" y1="42.5" y2="65.5" />
<line stroke="#567DB6" stroke-width="1" x1="2250" x2="2250" y1="42.5" y2="65.5" />
<line stroke="#567DB6" stroke-width="1" x1="2058" x2="2058" y1="42.5" y2="65.5" />
<line stroke="#567DB6" stroke-width="1" x1="1866" x2="1866" y1="42.5" y2="65.5" />
<line stroke="#567DB6" stroke-width="1" x1="1674" x2="1674" y1="42.5" y2="65.5" />
<line stroke="#567DB6" stroke-width="1" x1="1482" x2="1482" y1="42.5" y2="65.5" />
<line stroke="#567DB6" stroke-width="1" x1="1290" x2="1290" y1="42.5" y2="65.5" />
<line stroke="#567DB6" stroke-width="1" x1="1098" x2="1098" y1="42.5" y2="65.5" />
<line stroke="#567DB6" stroke-width="1" x1="906" x2="906" y1="42.5" y2="65.5" />
<line stroke="#567DB6" stroke-width="1" x1="714" x2="714" y1="42.5" y2="65.5" />
<line stroke="#567DB6" stroke-width="1" x1="522" x2="522" y1="42.5" y2="65.5" />
<line stroke="#567DB6" stroke-width="1" x1="330" x2="330" y1="42.5" y2="65.5" />
<line stroke="#567DB6" stroke-width="1" x1="138" x2="138" y1="42.5" y2="65.5" />
<line stroke="#567DB6" stroke-width="1" x1="3018" x2="3066" y1="90.5" y2="137" />
<line stroke="#567DB6" stroke-width="1" x1="2826" x2="2874" y1="90.5" y2="137" />
<line stroke="#567DB6" stroke-width="1" x1="2634" x2="2682" y1="90.5" y2="137" />
<line stroke="#567DB6" stroke-width="1" x1="2442" x2="2490" y1="90.5" y2="137" />
<line stroke="#567DB6" stroke-width="1" x1="2250" x2="2298" y1="90.5" y2="137" />
<line stroke="#567DB6" stroke-width="1" x1="2058" x2="2106" y1="90.5" y2="137" />
<line stroke="#567DB6" stroke-width="1" x1="1866" x2="1914" y1="90.5" y2="137" />
<line stroke="#567DB6" stroke-width="1" x1="1674" x2="1722" y1="90.5" y2="137" />
<line stroke="#567DB6" stroke-width="1" x1="1482" x2="1530" y1="90.5" y2="137" />
<line stroke="#567DB6" stroke-width="1" x1="1290" x2="1338" y1="90.5" y2="137" />
<line stroke="#567DB6" stroke-width="1" x1="1098" x2="1146" y1="90.5" y2="137" />
<line stroke="#567DB6" stroke-width="1" x1="906" x2="954" y1="90.5" y2="137" />
<line stroke="#567DB6" stroke-width="1" x1="714" x2="762" y1="90.5" y2="137" />
<line stroke="#567DB6" stroke-width="1" x1="522" x2="570" y1="90.5" y2="137" />
<line stroke="#567DB6" stroke-width="1" x1="330" x2="378" y1="90.5" y2="137" />
<line stroke="#567DB6" stroke-width="1" x1="138" x2="186" y1="90.5" y2="137" />
<text class="title-left" x="90" y="9">upper</text>
<text class="title-right" x="3162" y="9">lower</text>
<rect fill="none" height="24" stroke="#405C86" stroke-dasharray="3 1" stroke-dashoffset="1.5" stroke-width="1" width="96" x="3066" y="18" />
<text class="label unused" x="3114" y="31"></text>
<rect fill="#DEE6F1" height="24" width="96" x="2970" y="18" />
<rect fill="none" height="24" stroke="#405C86" stroke-width="2" width="96" x="2970" y="18" />
<rect fill="none" height="24" stroke="#405C86" stroke-dasharray="3 1" stroke-dashoffset="1.5" stroke-width="1" width="96" x="2874" y="18" />
<text class="label unused" x="2922" y="31"></text>
<rect fill="#DEE6F1" height="24" width="96" x="2778" y="18" />
<rect fill="none" height="24" stroke="#405C86" stroke-width="2" width="96" x="2778" y="18" />
<rect fill="none" height="24" stroke="#405C86" stroke-dasharray="3 1" stroke-dashoffset="1.5" stroke-width="1" width="96" x="2682" y="18" />
<text class="label unused" x="2730" y="31"></text>
<rect fill="#DEE6F1" height="24" width="96" x="2586" y="18" />
<rect fill="none" height="24" stroke="#405C86" stroke-width="2" width="96" x="2586" y="18" />
<rect fill="none" height="24" stroke="#405C86" stroke-dasharray="3 1" stroke-dashoffset="1.5" stroke-width="1" width="96" x="2490" y="18" />
<text class="label unused" x="2538" y="31"></text>
<rect fill="#DEE6F1" height="24" width="96" x="2394" y="18" />
<rect fill="none" height="24" stroke="#405C86" stroke-width="2" width="96" x="2394" y="18" />
<rect fill="none" height="24" stroke="#405C86" stroke-dasharray="3 1" stroke-dashoffset="1.5" stroke-width="1" width="96" x="2298" y="18" />
<text class="label unused" x="2346" y="31"></text>
<rect fill="#DEE6F1" height="24" width="96" x="2202" y="18" />
<rect fill="none" height="24" stroke="#405C86" stroke-width="2" width="96" x="2202" y="18" />
<rect fill="none" height="24" stroke="#405C86" stroke-dasharray="3 1" stroke-dashoffset="1.5" stroke-width="1" width="96" x="2106" y="18" />
<text class="label unused" x="2154" y="31"></text>
<rect fill="#DEE6F1" height="24" width="96" x="2010" y="18" />
<rect fill="none" height="24" stroke="#405C86" stroke-width="2" width="96" x="2010" y="18" />
<rect fill="none" height="24" stroke="#405C86" stroke-dasharray="3 1" stroke-dashoffset="1.5" stroke-width="1" width="96" x="1914" y="18" />
<text class="label unused" x="1962" y="31"></text>
<rect fill="#DEE6F1" height="24" width="96" x="1818" y="18" />
<rect fill="none" height="24" stroke="#405C86" stroke-width="2" width="96" x="1818" y="18" />
<rect fill="none" height="24" stroke="#405C86" stroke-dasharray="3 1" stroke-dashoffset="1.5" stroke-width="1" width="96" x="1722" y="18" />
<text class="label unused" x="1770" y="31"></text>
<rect fill="#DEE6F1" height="24" width="96" x="1626" y="18" />
<rect fill="none" height="24" stroke="#405C86" stroke-width="2" width="96" x="1626" y="18" />
<rect fill="none" height="24" stroke="#405C86" stroke-dasharray="3 1" stroke-dashoffset="1.5" stroke-width="1" width="96" x="1530" y="18" />
<text class="label unused" x="1578" y="31"></text>
<rect fill="#DEE6F1" height="24" width="96" x="1434" y="18" />
<rect fill="none" height="24" stroke="#405C86" stroke-width="2" width="96" x="1434" y="18" />
<rect fill="none" height="24" stroke="#405C86" stroke-dasharray="3 1" stroke-dashoffset="1.5" stroke-width="1" width="96" x="1338" y="18" />
<text class="label unused" x="1386" y="31"></text>
<rect fill="#DEE6F1" height="24" width="96" x="1242" y="18" />
<rect fill="none" height="24" stroke="#405C86" stroke-width="2" width="96" x="1242" y="18" />
<rect fill="none" height="24" stroke="#405C86" stroke-dasharray="3 1" stroke-dashoffset="1.5" stroke-width="1" width="96" x="1146" y="18" />
<text class="label unused" x="1194" y="31"></text>
<rect fill="#DEE6F1" height="24" width="96" x="1050" y="18" />
<rect fill="none" height="24" stroke="#405C86" stroke-width="2" width="96" x="1050" y="18" />
<rect fill="none" height="24" stroke="#405C86" stroke-dasharray="3 1" stroke-dashoffset="1.5" stroke-width="1" width="96" x="954" y="18" />
<text class="label unused" x="1002" y="31"></text>
<rect fill="#DEE6F1" height="24" width="96" x="858" y="18" />
<rect fill="none" height="24" stroke="#405C86" stroke-width="2" width="96" x="858" y="18" />
<rect fill="none" height="24" stroke="#405C86" stroke-dasharray="3 1" stroke-dashoffset="1.5" stroke-width="1" width="96" x="762" y="18" />
<text class="label unused" x="810" y="31"></text>
<rect fill="#DEE6F1" height="24" width="96" x="666" y="18" />
<rect fill="none" height="24" stroke="#405C86" stroke-width="2" width="96" x="666" y="18" />
<rect fill="none" height="24" stroke="#405C86" stroke-dasharray="3 1" stroke-dashoffset="1.5" stroke-width="1" width="96" x="570" y="18" />
<text class="label unused" x="618" y="31"></text>
<rect fill="#DEE6F1" height="24" width="96" x="474" y="18" />
<rect fill="none" height="24" stroke="#405C86" stroke-width="2" width="96" x="474" y="18" />
<rect fill="none" height="24" stroke="#405C86" stroke-dasharray="3 1" stroke-dashoffset="1.5" stroke-width="1" width="96" x="378" y="18" />
<text class="label unused" x="426" y="31"></text>
<rect fill="#DEE6F1" height="24" width="96" x="282" y="18" />
<rect fill="none" height="24" stroke="#405C86" stroke-width="2" width="96" x="282" y="18" />
<rect fill="none" height="24" stroke="#405C86" stroke-dasharray="3 1" stroke-dashoffset="1.5" stroke-width="1" width="96" x="186" y="18" />
<text class="label unused" x="234" y="31"></text>
<rect fill="#DEE6F1" height="24" width="96" x="90" y="18" />
<rect fill="none" height="24" stroke="#405C86" stroke-width="2" width="96" x="90" y="18" />
<text class="register-name" x="80" y="30">Zn</text>
<text class="intrinsic-name" x="80" y="42">op1</text>
<text class="register-number" x="10" y="30">(1)</text>
<rect fill="none" height="24" stroke="#405C86" stroke-dasharray="3 1" stroke-dashoffset="1.5" stroke-width="1" width="96" x="3066" y="66" />
<text class="label unused" x="3114" y="79"></text>
<rect fill="#DEE6F1" height="24" width="96" x="2970" y="66" />
<rect fill="none" height="24" stroke="#405C86" stroke-width="2" width="96" x="2970" y="66" />
<rect fill="none" height="24" stroke="#405C86" stroke-dasharray="3 1" stroke-dashoffset="1.5" stroke-width="1" width="96" x="2874" y="66" />
<text class="label unused" x="2922" y="79"></text>
<rect fill="#DEE6F1" height="24" width="96" x="2778" y="66" />
<rect fill="none" height="24" stroke="#405C86" stroke-width="2" width="96" x="2778" y="66" />
<rect fill="none" height="24" stroke="#405C86" stroke-dasharray="3 1" stroke-dashoffset="1.5" stroke-width="1" width="96" x="2682" y="66" />
<text class="label unused" x="2730" y="79"></text>
<rect fill="#DEE6F1" height="24" width="96" x="2586" y="66" />
<rect fill="none" height="24" stroke="#405C86" stroke-width="2" width="96" x="2586" y="66" />
<rect fill="none" height="24" stroke="#405C86" stroke-dasharray="3 1" stroke-dashoffset="1.5" stroke-width="1" width="96" x="2490" y="66" />
<text class="label unused" x="2538" y="79"></text>
<rect fill="#DEE6F1" height="24" width="96" x="2394" y="66" />
<rect fill="none" height="24" stroke="#405C86" stroke-width="2" width="96" x="2394" y="66" />
<rect fill="none" height="24" stroke="#405C86" stroke-dasharray="3 1" stroke-dashoffset="1.5" stroke-width="1" width="96" x="2298" y="66" />
<text class="label unused" x="2346" y="79"></text>
<rect fill="#DEE6F1" height="24" width="96" x="2202" y="66" />
<rect fill="none" height="24" stroke="#405C86" stroke-width="2" width="96" x="2202" y="66" />
<rect fill="none" height="24" stroke="#405C86" stroke-dasharray="3 1" stroke-dashoffset="1.5" stroke-width="1" width="96" x="2106" y="66" />
<text class="label unused" x="2154" y="79"></text>
<rect fill="#DEE6F1" height="24" width="96" x="2010" y="66" />
<rect fill="none" height="24" stroke="#405C86" stroke-width="2" width="96" x="2010" y="66" />
<rect fill="none" height="24" stroke="#405C86" stroke-dasharray="3 1" stroke-dashoffset="1.5" stroke-width="1" width="96" x="1914" y="66" />
<text class="label unused" x="1962" y="79"></text>
<rect fill="#DEE6F1" height="24" width="96" x="1818" y="66" />
<rect fill="none" height="24" stroke="#405C86" stroke-width="2" width="96" x="1818" y="66" />
<rect fill="none" height="24" stroke="#405C86" stroke-dasharray="3 1" stroke-dashoffset="1.5" stroke-width="1" width="96" x="1722" y="66" />
<text class="label unused" x="1770" y="79"></text>
<rect fill="#DEE6F1" height="24" width="96" x="1626" y="66" />
<rect fill="none" height="24" stroke="#405C86" stroke-width="2" width="96" x="1626" y="66" />
<rect fill="none" height="24" stroke="#405C86" stroke-dasharray="3 1" stroke-dashoffset="1.5" stroke-width="1" width="96" x="1530" y="66" />
<text class="label unused" x="1578" y="79"></text>
<rect fill="#DEE6F1" height="24" width="96" x="1434" y="66" />
<rect fill="none" height="24" stroke="#405C86" stroke-width="2" width="96" x="1434" y="66" />
<rect fill="none" height="24" stroke="#405C86" stroke-dasharray="3 1" stroke-dashoffset="1.5" stroke-width="1" width="96" x="1338" y="66" />
<text class="label unused" x="1386" y="79"></text>
<rect fill="#DEE6F1" height="24" width="96" x="1242" y="66" />
<rect fill="none" height="24" stroke="#405C86" stroke-width="2" width="96" x="1242" y="66" />
<rect fill="none" height="24" stroke="#405C86" stroke-dasharray="3 1" stroke-dashoffset="1.5" stroke-width="1" width="96" x="1146" y="66" />
<text class="label unused" x="1194" y="79"></text>
<rect fill="#DEE6F1" height="24" width="96" x="1050" y="66" />
<rect fill="none" height="24" stroke="#405C86" stroke-width="2" width="96" x="1050" y="66" />
<rect fill="none" height="24" stroke="#405C86" stroke-dasharray="3 1" stroke-dashoffset="1.5" stroke-width="1" width="96" x="954" y="66" />
<text class="label unused" x="1002" y="79"></text>
<rect fill="#DEE6F1" height="24" width="96" x="858" y="66" />
<rect fill="none" height="24" stroke="#405C86" stroke-width="2" width="96" x="858" y="66" />
<rect fill="none" height="24" stroke="#405C86" stroke-dasharray="3 1" stroke-dashoffset="1.5" stroke-width="1" width="96" x="762" y="66" />
<text class="label unused" x="810" y="79"></text>
<rect fill="#DEE6F1" height="24" width="96" x="666" y="66" />
<rect fill="none" height="24" stroke="#405C86" stroke-width="2" width="96" x="666" y="66" />
<rect fill="none" height="24" stroke="#405C86" stroke-dasharray="3 1" stroke-dashoffset="1.5" stroke-width="1" width="96" x="570" y="66" />
<text class="label unused" x="618" y="79"></text>
<rect fill="#DEE6F1" height="24" width="96" x="474" y="66" />
<rect fill="none" height="24" stroke="#405C86" stroke-width="2" width="96" x="474" y="66" />
<rect fill="none" height="24" stroke="#405C86" stroke-dasharray="3 1" stroke-dashoffset="1.5" stroke-width="1" width="96" x="378" y="66" />
<text class="label unused" x="426" y="79"></text>
<rect fill="#DEE6F1" height="24" width="96" x="282" y="66" />
<rect fill="none" height="24" stroke="#405C86" stroke-width="2" width="96" x="282" y="66" />
<rect fill="none" height="24" stroke="#405C86" stroke-dasharray="3 1" stroke-dashoffset="1.5" stroke-width="1" width="96" x="186" y="66" />
<text class="label unused" x="234" y="79"></text>
<rect fill="#DEE6F1" height="24" width="96" x="90" y="66" />
<rect fill="none" height="24" stroke="#405C86" stroke-width="2" width="96" x="90" y="66" />
<text class="register-name" x="80" y="78">Zm</text>
<text class="intrinsic-name" x="80" y="90">op2</text>
<text class="register-number" x="10" y="78">(2)</text>
<rect fill="#DEE6F1" height="24" width="192" x="2970" y="138" />
<rect fill="none" height="24" stroke="#405C86" stroke-width="2" width="192" x="2970" y="138" />
<rect fill="#DEE6F1" height="24" width="192" x="2778" y="138" />
<rect fill="none" height="24" stroke="#405C86" stroke-width="2" width="192" x="2778" y="138" />
<rect fill="#DEE6F1" height="24" width="192" x="2586" y="138" />
<rect fill="none" height="24" stroke="#405C86" stroke-width="2" width="192" x="2586" y="138" />
<rect fill="#DEE6F1" height="24" width="192" x="2394" y="138" />
<rect fill="none" height="24" stroke="#405C86" stroke-width="2" width="192" x="2394" y="138" />
<rect fill="#DEE6F1" height="24" width="192" x="2202" y="138" />
<rect fill="none" height="24" stroke="#405C86" stroke-width="2" width="192" x="2202" y="138" />
<rect fill="#DEE6F1" height="24" width="192" x="2010" y="138" />
<rect fill="none" height="24" stroke="#405C86" stroke-width="2" width="192" x="2010" y="138" />
<rect fill="#DEE6F1" height="24" width="192" x="1818" y="138" />
<rect fill="none" height="24" stroke="#405C86" stroke-width="2" width="192" x="1818" y="138" />
<rect fill="#DEE6F1" height="24" width="192" x="1626" y="138" />
<rect fill="none" height="24" stroke="#405C86" stroke-width="2" width="192" x="1626" y="138" />
<rect fill="#DEE6F1" height="24" width="192" x="1434" y="138" />
<rect fill="none" height="24" stroke="#405C86" stroke-width="2" width="192" x="1434" y="138" />
<rect fill="#DEE6F1" height="24" width="192" x="1242" y="138" />
<rect fill="none" height="24" stroke="#405C86" stroke-width="2" width="192" x="1242" y="138" />
<rect fill="#DEE6F1" height="24" width="192" x="1050" y="138" />
<rect fill="none" height="24" stroke="#405C86" stroke-width="2" width="192" x="1050" y="138" />
<rect fill="#DEE6F1" height="24" width="192" x="858" y="138" />
<rect fill="none" height="24" stroke="#405C86" stroke-width="2" width="192" x="858" y="138" />
<rect fill="#DEE6F1" height="24" width="192" x="666" y="138" />
<rect fill="none" height="24" stroke="#405C86" stroke-width="2" width="192" x="666" y="138" />
<rect fill="#DEE6F1" height="24" width="192" x="474" y="138" />
<rect fill="none" height="24" stroke="#405C86" stroke-width="2" width="192" x="474" y="138" />
<rect fill="#DEE6F1" height="24" width="192" x="282" y="138" />
<rect fill="none" height="24" stroke="#405C86" stroke-width="2" width="192" x="282" y="138" />
<rect fill="#DEE6F1" height="24" width="192" x="90" y="138" />
<rect fill="none" height="24" stroke="#405C86" stroke-width="2" width="192" x="90" y="138" />
<text class="register-name" x="80" y="150">Zd</text>
<text class="intrinsic-name" x="80" y="162">returns</text>
<text class="register-number" x="10" y="150">(3)</text>
<line marker-end="url(#arrowhead)" stroke="none" x1="3018" x2="3066" y1="90.5" y2="137" />
<line marker-end="url(#arrowhead)" stroke="none" x1="2826" x2="2874" y1="90.5" y2="137" />
<line marker-end="url(#arrowhead)" stroke="none" x1="2634" x2="2682" y1="90.5" y2="137" />
<line marker-end="url(#arrowhead)" stroke="none" x1="2442" x2="2490" y1="90.5" y2="137" />
<line marker-end="url(#arrowhead)" stroke="none" x1="2250" x2="2298" y1="90.5" y2="137" />
<line marker-end="url(#arrowhead)" stroke="none" x1="2058" x2="2106" y1="90.5" y2="137" />
<line marker-end="url(#arrowhead)" stroke="none" x1="1866" x2="1914" y1="90.5" y2="137" />
<line marker-end="url(#arrowhead)" stroke="none" x1="1674" x2="1722" y1="90.5" y2="137" />
<line marker-end="url(#arrowhead)" stroke="none" x1="1482" x2="1530" y1="90.5" y2="137" />
<line marker-end="url(#arrowhead)" stroke="none" x1="1290" x2="1338" y1="90.5" y2="137" />
<line marker-end="url(#arrowhead)" stroke="none" x1="1098" x2="1146" y1="90.5" y2="137" />
<line marker-end="url(#arrowhead)" stroke="none" x1="906" x2="954" y1="90.5" y2="137" />
<line marker-end="url(#arrowhead)" stroke="none" x1="714" x2="762" y1="90.5" y2="137" />
<line marker-end="url(#arrowhead)" stroke="none" x1="522" x2="570" y1="90.5" y2="137" />
<line marker-end="url(#arrowhead)" stroke="none" x1="330" x2="378" y1="90.5" y2="137" />
<line marker-end="url(#arrowhead)" stroke="none" x1="138" x2="186" y1="90.5" y2="137" />
</svg>