<svg xmlns="http://www.w3.org/2000/svg" viewBox="0 0 486 171">
<style>
.label { font: 14px Helvetica; dominant-baseline: middle; text-anchor: middle; }
.title-left { font: 12px Helvetica; dominant-baseline: middle; }
.title-right { font: 12px Helvetica; dominant-baseline: middle; text-anchor: end; }
.title-intrinsic { font: 12px Helvetica; dominant-baseline: middle; text-anchor: middle; fill: #6778ED; }
.title { font: 12px Helvetica; dominant-baseline: middle; text-anchor: middle; }
.title-unused { font: 12px Helvetica; dominant-baseline: middle; text-anchor: middle; fill: #AAA; }
.register-name { font: 14px Helvetica; dominant-baseline: middle; text-anchor: end; font-style: italic; }
.memory-name { font: 14px Helvetica; dominant-baseline: middle; text-anchor: end; }
.register-number { font: 14px Helvetica; dominant-baseline: middle; text-anchor: start; }
.intrinsic-name { font: 14px Helvetica; dominant-baseline: middle; text-anchor: end; fill: #6778ED; }
.intrinsic-color { fill: #6778ED; }
.small-label { font: 12px Helvetica; dominant-baseline: middle; text-anchor: middle; }
.label-10px { font: 10px Helvetica; dominant-baseline: middle; text-anchor: middle; }
.smaller-label { font: 9px Helvetica; dominant-baseline: middle; text-anchor: middle; }
.label-6px { font: 6px Helvetica; dominant-baseline: middle; text-anchor: middle; }
.label-7px { font: 7px Helvetica; dominant-baseline: middle; text-anchor: middle; }
.unused { fill: #AAA; }
.dim { fill: #888; }
</style>
<defs>
<marker id="arrowhead" markerWidth="10.75" markerHeight="24.5" refX="9.0" refY="6.125" orient="auto">
<polyline points="0.5 0.5, 8.75 6.125, 0.5 11.75" stroke="#567DB6" stroke-width="1" fill="none"/>
</marker>
</defs>
<polyline fill="none" points="285.0 42.5,287.0 46.5,377.0 46.5,378.0 48.5,378.0 52.5,378.0 48.5,379.0 46.5,469.0 46.5,471.0 42.5" stroke="#567DB6" stroke-width="1" />
<line stroke="#567DB6" stroke-width="1" x1="378" x2="378" y1="52.5" y2="65.5" />
<line stroke="#567DB6" stroke-width="1" x1="378" x2="378" y1="90.5" y2="137" />
<polyline fill="none" points="93.0 42.5,95.0 46.5,185.0 46.5,186.0 48.5,186.0 52.5,186.0 48.5,187.0 46.5,277.0 46.5,279.0 42.5" stroke="#567DB6" stroke-width="1" />
<line stroke="#567DB6" stroke-width="1" x1="186" x2="186" y1="52.5" y2="65.5" />
<line stroke="#567DB6" stroke-width="1" x1="186" x2="186" y1="90.5" y2="137" />
<text class="title-left" x="90" y="9">upper</text>
<text class="title-right" x="474" y="9">lower</text>
<rect fill="#DEE6F1" height="24" width="96" x="378" y="18" />
<rect fill="none" height="24" stroke="#405C86" stroke-width="2" width="96" x="378" y="18" />
<text class="label" x="426" y="31">A</text>
<rect fill="#DEE6F1" height="24" width="96" x="282" y="18" />
<rect fill="none" height="24" stroke="#405C86" stroke-width="2" width="96" x="282" y="18" />
<text class="label" x="330" y="31">B</text>
<rect fill="#EEDDDB" height="24" width="96" x="186" y="18" />
<rect fill="none" height="24" stroke="#405C86" stroke-width="2" width="96" x="186" y="18" />
<text class="label" x="234" y="31">A</text>
<rect fill="#EEDDDB" height="24" width="96" x="90" y="18" />
<rect fill="none" height="24" stroke="#405C86" stroke-width="2" width="96" x="90" y="18" />
<text class="label" x="138" y="31">B</text>
<text class="register-name" x="80" y="30">Zn</text>
<text class="intrinsic-name" x="80" y="42">op2</text>
<text class="register-number" x="10" y="30">(1)</text>
<rect fill="#DEE6F1" height="24" width="192" x="282" y="66" />
<rect fill="none" height="24" stroke="#405C86" stroke-width="2" width="192" x="282" y="66" />
<text class="label" x="378" y="79">C</text>
<rect fill="#EEDDDB" height="24" width="192" x="90" y="66" />
<rect fill="none" height="24" stroke="#405C86" stroke-width="2" width="192" x="90" y="66" />
<text class="label" x="186" y="79">C</text>
<text class="register-name" x="80" y="78">Zda</text>
<text class="intrinsic-name" x="80" y="90">op1</text>
<text class="register-number" x="10" y="78">(2)</text>
<rect fill="#DEE6F1" height="24" width="192" x="282" y="138" />
<rect fill="none" height="24" stroke="#405C86" stroke-width="2" width="192" x="282" y="138" />
<text class="label" x="378" y="151">A+B+C</text>
<rect fill="#EEDDDB" height="24" width="192" x="90" y="138" />
<rect fill="none" height="24" stroke="#405C86" stroke-width="2" width="192" x="90" y="138" />
<text class="label" x="186" y="151">A+B+C</text>
<text class="register-name" x="80" y="150">Zda</text>
<text class="intrinsic-name" x="80" y="162">returns</text>
<text class="register-number" x="10" y="150">(3)</text>
<line marker-end="url(#arrowhead)" stroke="none" x1="378" x2="378" y1="90.5" y2="137" />
<line marker-end="url(#arrowhead)" stroke="none" x1="186" x2="186" y1="90.5" y2="137" />
</svg>