<svg xmlns="http://www.w3.org/2000/svg" viewBox="0 0 508 195">
<style>
.label { font: 14px Helvetica; dominant-baseline: middle; text-anchor: middle; }
.title-left { font: 12px Helvetica; dominant-baseline: middle; }
.title-right { font: 12px Helvetica; dominant-baseline: middle; text-anchor: end; }
.title-intrinsic { font: 12px Helvetica; dominant-baseline: middle; text-anchor: middle; fill: #6778ED; }
.title { font: 12px Helvetica; dominant-baseline: middle; text-anchor: middle; }
.title-unused { font: 12px Helvetica; dominant-baseline: middle; text-anchor: middle; fill: #AAA; }
.register-name { font: 14px Helvetica; dominant-baseline: middle; text-anchor: end; font-style: italic; }
.memory-name { font: 14px Helvetica; dominant-baseline: middle; text-anchor: end; }
.register-number { font: 14px Helvetica; dominant-baseline: middle; text-anchor: start; }
.intrinsic-name { font: 14px Helvetica; dominant-baseline: middle; text-anchor: end; fill: #6778ED; }
.intrinsic-color { fill: #6778ED; }
.small-label { font: 12px Helvetica; dominant-baseline: middle; text-anchor: middle; }
.label-10px { font: 10px Helvetica; dominant-baseline: middle; text-anchor: middle; }
.smaller-label { font: 9px Helvetica; dominant-baseline: middle; text-anchor: middle; }
.label-6px { font: 6px Helvetica; dominant-baseline: middle; text-anchor: middle; }
.label-7px { font: 7px Helvetica; dominant-baseline: middle; text-anchor: middle; }
.unused { fill: #AAA; }
.dim { fill: #888; }
</style>
<defs>
<marker id="arrowhead" markerWidth="9.5" markerHeight="21.0" refX="7.75" refY="5.25" orient="auto">
<polyline points="0.5 0.5, 7.5 5.25, 0.5 10.0" stroke="#567DB6" stroke-width="1" fill="none"/>
</marker>
</defs>
<text class="title-left" x="90" y="9">upper</text>
<text class="title-right" x="474" y="9">lower</text>
<rect fill="#FAEBDC" height="24" width="12" x="484" y="90" />
<rect fill="none" height="24" stroke="#405C86" stroke-width="2" width="12" x="484" y="90" />
<text class="small-label" x="490" y="103">!a</text>
<rect fill="none" height="24" stroke="#405C86" stroke-dasharray="3 1" stroke-dashoffset="1.5" stroke-width="1" width="12" x="462" y="18" />
<text class="label unused" x="468" y="31"></text>
<rect fill="none" height="24" stroke="#405C86" stroke-dasharray="3 1" stroke-dashoffset="1.5" stroke-width="1" width="12" x="450" y="18" />
<text class="label unused" x="456" y="31"></text>
<rect fill="none" height="24" stroke="#405C86" stroke-dasharray="3 1" stroke-dashoffset="1.5" stroke-width="1" width="12" x="438" y="18" />
<text class="label unused" x="444" y="31"></text>
<rect fill="none" height="24" stroke="#405C86" stroke-dasharray="3 1" stroke-dashoffset="1.5" stroke-width="1" width="12" x="426" y="18" />
<text class="label unused" x="432" y="31"></text>
<rect fill="none" height="24" stroke="#405C86" stroke-dasharray="3 1" stroke-dashoffset="1.5" stroke-width="1" width="12" x="414" y="18" />
<text class="label unused" x="420" y="31"></text>
<rect fill="none" height="24" stroke="#405C86" stroke-dasharray="3 1" stroke-dashoffset="1.5" stroke-width="1" width="12" x="402" y="18" />
<text class="label unused" x="408" y="31"></text>
<rect fill="none" height="24" stroke="#405C86" stroke-dasharray="3 1" stroke-dashoffset="1.5" stroke-width="1" width="12" x="390" y="18" />
<text class="label unused" x="396" y="31"></text>
<rect fill="none" height="24" stroke="#405C86" stroke-dasharray="3 1" stroke-dashoffset="1.5" stroke-width="1" width="12" x="378" y="18" />
<text class="label unused" x="384" y="31"></text>
<rect fill="none" height="24" stroke="#405C86" stroke-dasharray="3 1" stroke-dashoffset="1.5" stroke-width="1" width="12" x="366" y="18" />
<text class="label unused" x="372" y="31"></text>
<rect fill="none" height="24" stroke="#405C86" stroke-dasharray="3 1" stroke-dashoffset="1.5" stroke-width="1" width="12" x="354" y="18" />
<text class="label unused" x="360" y="31"></text>
<rect fill="none" height="24" stroke="#405C86" stroke-dasharray="3 1" stroke-dashoffset="1.5" stroke-width="1" width="12" x="342" y="18" />
<text class="label unused" x="348" y="31"></text>
<rect fill="none" height="24" stroke="#405C86" stroke-dasharray="3 1" stroke-dashoffset="1.5" stroke-width="1" width="12" x="330" y="18" />
<text class="label unused" x="336" y="31"></text>
<rect fill="none" height="24" stroke="#405C86" stroke-dasharray="3 1" stroke-dashoffset="1.5" stroke-width="1" width="12" x="318" y="18" />
<text class="label unused" x="324" y="31"></text>
<rect fill="none" height="24" stroke="#405C86" stroke-dasharray="3 1" stroke-dashoffset="1.5" stroke-width="1" width="12" x="306" y="18" />
<text class="label unused" x="312" y="31"></text>
<rect fill="none" height="24" stroke="#405C86" stroke-dasharray="3 1" stroke-dashoffset="1.5" stroke-width="1" width="12" x="294" y="18" />
<text class="label unused" x="300" y="31"></text>
<rect fill="none" height="24" stroke="#405C86" stroke-dasharray="3 1" stroke-dashoffset="1.5" stroke-width="1" width="12" x="282" y="18" />
<text class="label unused" x="288" y="31"></text>
<rect fill="none" height="24" stroke="#405C86" stroke-dasharray="3 1" stroke-dashoffset="1.5" stroke-width="1" width="12" x="270" y="18" />
<text class="label unused" x="276" y="31"></text>
<rect fill="none" height="24" stroke="#405C86" stroke-dasharray="3 1" stroke-dashoffset="1.5" stroke-width="1" width="12" x="258" y="18" />
<text class="label unused" x="264" y="31"></text>
<rect fill="none" height="24" stroke="#405C86" stroke-dasharray="3 1" stroke-dashoffset="1.5" stroke-width="1" width="12" x="246" y="18" />
<text class="label unused" x="252" y="31"></text>
<rect fill="none" height="24" stroke="#405C86" stroke-dasharray="3 1" stroke-dashoffset="1.5" stroke-width="1" width="12" x="234" y="18" />
<text class="label unused" x="240" y="31"></text>
<rect fill="none" height="24" stroke="#405C86" stroke-dasharray="3 1" stroke-dashoffset="1.5" stroke-width="1" width="12" x="222" y="18" />
<text class="label unused" x="228" y="31"></text>
<rect fill="none" height="24" stroke="#405C86" stroke-dasharray="3 1" stroke-dashoffset="1.5" stroke-width="1" width="12" x="210" y="18" />
<text class="label unused" x="216" y="31"></text>
<rect fill="none" height="24" stroke="#405C86" stroke-dasharray="3 1" stroke-dashoffset="1.5" stroke-width="1" width="12" x="198" y="18" />
<text class="label unused" x="204" y="31"></text>
<rect fill="none" height="24" stroke="#405C86" stroke-dasharray="3 1" stroke-dashoffset="1.5" stroke-width="1" width="12" x="186" y="18" />
<text class="label unused" x="192" y="31"></text>
<rect fill="none" height="24" stroke="#405C86" stroke-dasharray="3 1" stroke-dashoffset="1.5" stroke-width="1" width="12" x="174" y="18" />
<text class="label unused" x="180" y="31"></text>
<rect fill="none" height="24" stroke="#405C86" stroke-dasharray="3 1" stroke-dashoffset="1.5" stroke-width="1" width="12" x="162" y="18" />
<text class="label unused" x="168" y="31"></text>
<rect fill="none" height="24" stroke="#405C86" stroke-dasharray="3 1" stroke-dashoffset="1.5" stroke-width="1" width="12" x="150" y="18" />
<text class="label unused" x="156" y="31"></text>
<rect fill="none" height="24" stroke="#405C86" stroke-dasharray="3 1" stroke-dashoffset="1.5" stroke-width="1" width="12" x="138" y="18" />
<text class="label unused" x="144" y="31"></text>
<rect fill="none" height="24" stroke="#405C86" stroke-dasharray="3 1" stroke-dashoffset="1.5" stroke-width="1" width="12" x="126" y="18" />
<text class="label unused" x="132" y="31"></text>
<rect fill="none" height="24" stroke="#405C86" stroke-dasharray="3 1" stroke-dashoffset="1.5" stroke-width="1" width="12" x="114" y="18" />
<text class="label unused" x="120" y="31"></text>
<rect fill="none" height="24" stroke="#405C86" stroke-dasharray="3 1" stroke-dashoffset="1.5" stroke-width="1" width="12" x="102" y="18" />
<text class="label unused" x="108" y="31"></text>
<rect fill="#DCD9C5" height="24" width="12" x="90" y="18" />
<rect fill="none" height="24" stroke="#405C86" stroke-width="2" width="12" x="90" y="18" />
<text class="small-label" x="96" y="31">a</text>
<text class="register-name" x="80" y="30">Pn</text>
<text class="intrinsic-name" x="80" y="42">op1</text>
<text class="register-number" x="10" y="30">(1)</text>
<rect fill="#DEE6F1" height="24" width="12" x="462" y="90" />
<rect fill="none" height="24" stroke="#405C86" stroke-width="2" width="12" x="462" y="90" />
<text class="label" x="468" y="103">0</text>
<rect fill="#DEE6F1" height="24" width="12" x="450" y="90" />
<rect fill="none" height="24" stroke="#405C86" stroke-width="2" width="12" x="450" y="90" />
<text class="label" x="456" y="103">0</text>
<rect fill="#DEE6F1" height="24" width="12" x="438" y="90" />
<rect fill="none" height="24" stroke="#405C86" stroke-width="2" width="12" x="438" y="90" />
<text class="label" x="444" y="103">0</text>
<rect fill="#DEE6F1" height="24" width="12" x="426" y="90" />
<rect fill="none" height="24" stroke="#405C86" stroke-width="2" width="12" x="426" y="90" />
<text class="label" x="432" y="103">0</text>
<rect fill="#DEE6F1" height="24" width="12" x="414" y="90" />
<rect fill="none" height="24" stroke="#405C86" stroke-width="2" width="12" x="414" y="90" />
<text class="label" x="420" y="103">0</text>
<rect fill="#DEE6F1" height="24" width="12" x="402" y="90" />
<rect fill="none" height="24" stroke="#405C86" stroke-width="2" width="12" x="402" y="90" />
<text class="label" x="408" y="103">0</text>
<rect fill="#DEE6F1" height="24" width="12" x="390" y="90" />
<rect fill="none" height="24" stroke="#405C86" stroke-width="2" width="12" x="390" y="90" />
<text class="label" x="396" y="103">0</text>
<rect fill="#DEE6F1" height="24" width="12" x="378" y="90" />
<rect fill="none" height="24" stroke="#405C86" stroke-width="2" width="12" x="378" y="90" />
<text class="label" x="384" y="103">0</text>
<rect fill="#DEE6F1" height="24" width="12" x="366" y="90" />
<rect fill="none" height="24" stroke="#405C86" stroke-width="2" width="12" x="366" y="90" />
<text class="label" x="372" y="103">0</text>
<rect fill="#DEE6F1" height="24" width="12" x="354" y="90" />
<rect fill="none" height="24" stroke="#405C86" stroke-width="2" width="12" x="354" y="90" />
<text class="label" x="360" y="103">0</text>
<rect fill="#DEE6F1" height="24" width="12" x="342" y="90" />
<rect fill="none" height="24" stroke="#405C86" stroke-width="2" width="12" x="342" y="90" />
<text class="label" x="348" y="103">0</text>
<rect fill="#DEE6F1" height="24" width="12" x="330" y="90" />
<rect fill="none" height="24" stroke="#405C86" stroke-width="2" width="12" x="330" y="90" />
<text class="label" x="336" y="103">0</text>
<rect fill="#DEE6F1" height="24" width="12" x="318" y="90" />
<rect fill="none" height="24" stroke="#405C86" stroke-width="2" width="12" x="318" y="90" />
<text class="label" x="324" y="103">0</text>
<rect fill="#DEE6F1" height="24" width="12" x="306" y="90" />
<rect fill="none" height="24" stroke="#405C86" stroke-width="2" width="12" x="306" y="90" />
<text class="label" x="312" y="103">0</text>
<rect fill="#DEE6F1" height="24" width="12" x="294" y="90" />
<rect fill="none" height="24" stroke="#405C86" stroke-width="2" width="12" x="294" y="90" />
<text class="label" x="300" y="103">0</text>
<rect fill="#DEE6F1" height="24" width="12" x="282" y="90" />
<rect fill="none" height="24" stroke="#405C86" stroke-width="2" width="12" x="282" y="90" />
<text class="label" x="288" y="103">0</text>
<rect fill="#DEE6F1" height="24" width="12" x="270" y="90" />
<rect fill="none" height="24" stroke="#405C86" stroke-width="2" width="12" x="270" y="90" />
<text class="label" x="276" y="103">1</text>
<rect fill="#DEE6F1" height="24" width="12" x="258" y="90" />
<rect fill="none" height="24" stroke="#405C86" stroke-width="2" width="12" x="258" y="90" />
<text class="label dim" x="264" y="103">0</text>
<rect fill="#DEE6F1" height="24" width="12" x="246" y="90" />
<rect fill="none" height="24" stroke="#405C86" stroke-width="2" width="12" x="246" y="90" />
<text class="label dim" x="252" y="103">0</text>
<rect fill="#DEE6F1" height="24" width="12" x="234" y="90" />
<rect fill="none" height="24" stroke="#405C86" stroke-width="2" width="12" x="234" y="90" />
<text class="label dim" x="240" y="103">0</text>
<rect fill="#DEE6F1" height="24" width="12" x="222" y="90" />
<rect fill="none" height="24" stroke="#405C86" stroke-width="2" width="12" x="222" y="90" />
<text class="label dim" x="228" y="103">0</text>
<rect fill="#DEE6F1" height="24" width="12" x="210" y="90" />
<rect fill="none" height="24" stroke="#405C86" stroke-width="2" width="12" x="210" y="90" />
<text class="label dim" x="216" y="103">1</text>
<rect fill="#DEE6F1" height="24" width="12" x="198" y="90" />
<rect fill="none" height="24" stroke="#405C86" stroke-width="2" width="12" x="198" y="90" />
<text class="label dim" x="204" y="103">0</text>
<rect fill="#DEE6F1" height="24" width="12" x="186" y="90" />
<rect fill="none" height="24" stroke="#405C86" stroke-width="2" width="12" x="186" y="90" />
<text class="label dim" x="192" y="103">0</text>
<rect fill="#DEE6F1" height="24" width="12" x="174" y="90" />
<rect fill="none" height="24" stroke="#405C86" stroke-width="2" width="12" x="174" y="90" />
<text class="label dim" x="180" y="103">0</text>
<rect fill="#DEE6F1" height="24" width="12" x="162" y="90" />
<rect fill="none" height="24" stroke="#405C86" stroke-width="2" width="12" x="162" y="90" />
<text class="label dim" x="168" y="103">0</text>
<rect fill="#DEE6F1" height="24" width="12" x="150" y="90" />
<rect fill="none" height="24" stroke="#405C86" stroke-width="2" width="12" x="150" y="90" />
<text class="label dim" x="156" y="103">0</text>
<rect fill="#DEE6F1" height="24" width="12" x="138" y="90" />
<rect fill="none" height="24" stroke="#405C86" stroke-width="2" width="12" x="138" y="90" />
<text class="label dim" x="144" y="103">0</text>
<rect fill="#DEE6F1" height="24" width="12" x="126" y="90" />
<rect fill="none" height="24" stroke="#405C86" stroke-width="2" width="12" x="126" y="90" />
<text class="label dim" x="132" y="103">0</text>
<rect fill="#DEE6F1" height="24" width="12" x="114" y="90" />
<rect fill="none" height="24" stroke="#405C86" stroke-width="2" width="12" x="114" y="90" />
<text class="label dim" x="120" y="103">0</text>
<rect fill="#DEE6F1" height="24" width="12" x="102" y="90" />
<rect fill="none" height="24" stroke="#405C86" stroke-width="2" width="12" x="102" y="90" />
<text class="label dim" x="108" y="103">1</text>
<rect fill="#DEE6F1" height="24" width="12" x="90" y="90" />
<rect fill="none" height="24" stroke="#405C86" stroke-width="2" width="12" x="90" y="90" />
<text class="label dim" x="96" y="103">0</text>
<text class="register-name" x="80" y="102">Pm</text>
<text class="intrinsic-name" x="80" y="114">op2</text>
<text class="register-number" x="10" y="102">(2)</text>
<rect fill="#ECF1E0" height="24" width="12" x="462" y="162" />
<rect fill="none" height="24" stroke="#405C86" stroke-width="2" width="12" x="462" y="162" />
<text class="label" x="468" y="175">1</text>
<rect fill="#ECF1E0" height="24" width="12" x="450" y="162" />
<rect fill="none" height="24" stroke="#405C86" stroke-width="2" width="12" x="450" y="162" />
<text class="label" x="456" y="175">1</text>
<rect fill="#ECF1E0" height="24" width="12" x="438" y="162" />
<rect fill="none" height="24" stroke="#405C86" stroke-width="2" width="12" x="438" y="162" />
<text class="label" x="444" y="175">1</text>
<rect fill="#ECF1E0" height="24" width="12" x="426" y="162" />
<rect fill="none" height="24" stroke="#405C86" stroke-width="2" width="12" x="426" y="162" />
<text class="label" x="432" y="175">1</text>
<rect fill="#ECF1E0" height="24" width="12" x="414" y="162" />
<rect fill="none" height="24" stroke="#405C86" stroke-width="2" width="12" x="414" y="162" />
<text class="label" x="420" y="175">1</text>
<rect fill="#ECF1E0" height="24" width="12" x="402" y="162" />
<rect fill="none" height="24" stroke="#405C86" stroke-width="2" width="12" x="402" y="162" />
<text class="label" x="408" y="175">1</text>
<rect fill="#ECF1E0" height="24" width="12" x="390" y="162" />
<rect fill="none" height="24" stroke="#405C86" stroke-width="2" width="12" x="390" y="162" />
<text class="label" x="396" y="175">1</text>
<rect fill="#ECF1E0" height="24" width="12" x="378" y="162" />
<rect fill="none" height="24" stroke="#405C86" stroke-width="2" width="12" x="378" y="162" />
<text class="label" x="384" y="175">1</text>
<rect fill="#ECF1E0" height="24" width="12" x="366" y="162" />
<rect fill="none" height="24" stroke="#405C86" stroke-width="2" width="12" x="366" y="162" />
<text class="label" x="372" y="175">1</text>
<rect fill="#ECF1E0" height="24" width="12" x="354" y="162" />
<rect fill="none" height="24" stroke="#405C86" stroke-width="2" width="12" x="354" y="162" />
<text class="label" x="360" y="175">1</text>
<rect fill="#ECF1E0" height="24" width="12" x="342" y="162" />
<rect fill="none" height="24" stroke="#405C86" stroke-width="2" width="12" x="342" y="162" />
<text class="label" x="348" y="175">1</text>
<rect fill="#ECF1E0" height="24" width="12" x="330" y="162" />
<rect fill="none" height="24" stroke="#405C86" stroke-width="2" width="12" x="330" y="162" />
<text class="label" x="336" y="175">1</text>
<rect fill="#ECF1E0" height="24" width="12" x="318" y="162" />
<rect fill="none" height="24" stroke="#405C86" stroke-width="2" width="12" x="318" y="162" />
<text class="label" x="324" y="175">1</text>
<rect fill="#ECF1E0" height="24" width="12" x="306" y="162" />
<rect fill="none" height="24" stroke="#405C86" stroke-width="2" width="12" x="306" y="162" />
<text class="label" x="312" y="175">1</text>
<rect fill="#ECF1E0" height="24" width="12" x="294" y="162" />
<rect fill="none" height="24" stroke="#405C86" stroke-width="2" width="12" x="294" y="162" />
<text class="label" x="300" y="175">1</text>
<rect fill="#ECF1E0" height="24" width="12" x="282" y="162" />
<rect fill="none" height="24" stroke="#405C86" stroke-width="2" width="12" x="282" y="162" />
<text class="label" x="288" y="175">1</text>
<rect fill="#EEDDDB" height="24" width="12" x="270" y="162" />
<rect fill="none" height="24" stroke="#405C86" stroke-width="2" width="12" x="270" y="162" />
<text class="label" x="276" y="175">0</text>
<rect fill="#EEDDDB" height="24" width="12" x="258" y="162" />
<rect fill="none" height="24" stroke="#405C86" stroke-width="2" width="12" x="258" y="162" />
<text class="label" x="264" y="175">0</text>
<rect fill="#EEDDDB" height="24" width="12" x="246" y="162" />
<rect fill="none" height="24" stroke="#405C86" stroke-width="2" width="12" x="246" y="162" />
<text class="label" x="252" y="175">0</text>
<rect fill="#EEDDDB" height="24" width="12" x="234" y="162" />
<rect fill="none" height="24" stroke="#405C86" stroke-width="2" width="12" x="234" y="162" />
<text class="label" x="240" y="175">0</text>
<rect fill="#EEDDDB" height="24" width="12" x="222" y="162" />
<rect fill="none" height="24" stroke="#405C86" stroke-width="2" width="12" x="222" y="162" />
<text class="label" x="228" y="175">0</text>
<rect fill="#EEDDDB" height="24" width="12" x="210" y="162" />
<rect fill="none" height="24" stroke="#405C86" stroke-width="2" width="12" x="210" y="162" />
<text class="label" x="216" y="175">0</text>
<rect fill="#EEDDDB" height="24" width="12" x="198" y="162" />
<rect fill="none" height="24" stroke="#405C86" stroke-width="2" width="12" x="198" y="162" />
<text class="label" x="204" y="175">0</text>
<rect fill="#EEDDDB" height="24" width="12" x="186" y="162" />
<rect fill="none" height="24" stroke="#405C86" stroke-width="2" width="12" x="186" y="162" />
<text class="label" x="192" y="175">0</text>
<rect fill="#EEDDDB" height="24" width="12" x="174" y="162" />
<rect fill="none" height="24" stroke="#405C86" stroke-width="2" width="12" x="174" y="162" />
<text class="label" x="180" y="175">0</text>
<rect fill="#EEDDDB" height="24" width="12" x="162" y="162" />
<rect fill="none" height="24" stroke="#405C86" stroke-width="2" width="12" x="162" y="162" />
<text class="label" x="168" y="175">0</text>
<rect fill="#EEDDDB" height="24" width="12" x="150" y="162" />
<rect fill="none" height="24" stroke="#405C86" stroke-width="2" width="12" x="150" y="162" />
<text class="label" x="156" y="175">0</text>
<rect fill="#EEDDDB" height="24" width="12" x="138" y="162" />
<rect fill="none" height="24" stroke="#405C86" stroke-width="2" width="12" x="138" y="162" />
<text class="label" x="144" y="175">0</text>
<rect fill="#EEDDDB" height="24" width="12" x="126" y="162" />
<rect fill="none" height="24" stroke="#405C86" stroke-width="2" width="12" x="126" y="162" />
<text class="label" x="132" y="175">0</text>
<rect fill="#EEDDDB" height="24" width="12" x="114" y="162" />
<rect fill="none" height="24" stroke="#405C86" stroke-width="2" width="12" x="114" y="162" />
<text class="label" x="120" y="175">0</text>
<rect fill="#EEDDDB" height="24" width="12" x="102" y="162" />
<rect fill="none" height="24" stroke="#405C86" stroke-width="2" width="12" x="102" y="162" />
<text class="label" x="108" y="175">0</text>
<rect fill="#EEDDDB" height="24" width="12" x="90" y="162" />
<rect fill="none" height="24" stroke="#405C86" stroke-width="2" width="12" x="90" y="162" />
<text class="label" x="96" y="175">0</text>
<text class="register-name" x="80" y="174">Pd</text>
<text class="intrinsic-name" x="80" y="186">returns</text>
<text class="register-number" x="10" y="174">(3)</text>
<line stroke="#567DB6" stroke-width="1" x1="102" x2="484" y1="42.5" y2="89" />
<line stroke="#000" stroke-width="2" x1="282" x2="282" y1="154" y2="194" />
<line stroke="#567DB6" stroke-width="1" x1="276" x2="282" y1="114.5" y2="154" />
<line marker-end="url(#arrowhead)" stroke="none" x1="102" x2="484" y1="42.5" y2="89" />
<line marker-end="url(#arrowhead)" stroke="none" x1="276" x2="282" y1="114.5" y2="154" />
</svg>