<svg xmlns="http://www.w3.org/2000/svg" viewBox="0 0 3174 219">
<style>
.label { font: 14px Helvetica; dominant-baseline: middle; text-anchor: middle; }
.title-left { font: 12px Helvetica; dominant-baseline: middle; }
.title-right { font: 12px Helvetica; dominant-baseline: middle; text-anchor: end; }
.title-intrinsic { font: 12px Helvetica; dominant-baseline: middle; text-anchor: middle; fill: #6778ED; }
.title { font: 12px Helvetica; dominant-baseline: middle; text-anchor: middle; }
.title-unused { font: 12px Helvetica; dominant-baseline: middle; text-anchor: middle; fill: #AAA; }
.register-name { font: 14px Helvetica; dominant-baseline: middle; text-anchor: end; font-style: italic; }
.memory-name { font: 14px Helvetica; dominant-baseline: middle; text-anchor: end; }
.register-number { font: 14px Helvetica; dominant-baseline: middle; text-anchor: start; }
.intrinsic-name { font: 14px Helvetica; dominant-baseline: middle; text-anchor: end; fill: #6778ED; }
.intrinsic-color { fill: #6778ED; }
.small-label { font: 12px Helvetica; dominant-baseline: middle; text-anchor: middle; }
.label-10px { font: 10px Helvetica; dominant-baseline: middle; text-anchor: middle; }
.smaller-label { font: 9px Helvetica; dominant-baseline: middle; text-anchor: middle; }
.label-6px { font: 6px Helvetica; dominant-baseline: middle; text-anchor: middle; }
.label-7px { font: 7px Helvetica; dominant-baseline: middle; text-anchor: middle; }
.unused { fill: #AAA; }
.dim { fill: #888; }
</style>
<defs>
<marker id="arrowhead" markerWidth="10.75" markerHeight="24.5" refX="9.0" refY="6.125" orient="auto">
<polyline points="0.5 0.5, 8.75 6.125, 0.5 11.75" stroke="#567DB6" stroke-width="1" fill="none"/>
</marker>
</defs>
<line stroke="#567DB6" stroke-width="1" x1="3138" x2="3090" y1="42.5" y2="65.5" />
<line stroke="#567DB6" stroke-width="1" x1="3090" x2="3138" y1="42.5" y2="65.5" />
<line stroke="#567DB6" stroke-width="1" x1="3042" x2="2994" y1="42.5" y2="65.5" />
<line stroke="#567DB6" stroke-width="1" x1="2994" x2="3042" y1="42.5" y2="65.5" />
<line stroke="#567DB6" stroke-width="1" x1="2946" x2="2898" y1="42.5" y2="65.5" />
<line stroke="#567DB6" stroke-width="1" x1="2898" x2="2946" y1="42.5" y2="65.5" />
<line stroke="#567DB6" stroke-width="1" x1="2850" x2="2802" y1="42.5" y2="65.5" />
<line stroke="#567DB6" stroke-width="1" x1="2802" x2="2850" y1="42.5" y2="65.5" />
<line stroke="#567DB6" stroke-width="1" x1="2754" x2="2706" y1="42.5" y2="65.5" />
<line stroke="#567DB6" stroke-width="1" x1="2706" x2="2754" y1="42.5" y2="65.5" />
<line stroke="#567DB6" stroke-width="1" x1="2658" x2="2610" y1="42.5" y2="65.5" />
<line stroke="#567DB6" stroke-width="1" x1="2610" x2="2658" y1="42.5" y2="65.5" />
<line stroke="#567DB6" stroke-width="1" x1="2562" x2="2514" y1="42.5" y2="65.5" />
<line stroke="#567DB6" stroke-width="1" x1="2514" x2="2562" y1="42.5" y2="65.5" />
<line stroke="#567DB6" stroke-width="1" x1="2466" x2="2418" y1="42.5" y2="65.5" />
<line stroke="#567DB6" stroke-width="1" x1="2418" x2="2466" y1="42.5" y2="65.5" />
<line stroke="#567DB6" stroke-width="1" x1="2370" x2="2322" y1="42.5" y2="65.5" />
<line stroke="#567DB6" stroke-width="1" x1="2322" x2="2370" y1="42.5" y2="65.5" />
<line stroke="#567DB6" stroke-width="1" x1="2274" x2="2226" y1="42.5" y2="65.5" />
<line stroke="#567DB6" stroke-width="1" x1="2226" x2="2274" y1="42.5" y2="65.5" />
<line stroke="#567DB6" stroke-width="1" x1="2178" x2="2130" y1="42.5" y2="65.5" />
<line stroke="#567DB6" stroke-width="1" x1="2130" x2="2178" y1="42.5" y2="65.5" />
<line stroke="#567DB6" stroke-width="1" x1="2082" x2="2034" y1="42.5" y2="65.5" />
<line stroke="#567DB6" stroke-width="1" x1="2034" x2="2082" y1="42.5" y2="65.5" />
<line stroke="#567DB6" stroke-width="1" x1="1986" x2="1938" y1="42.5" y2="65.5" />
<line stroke="#567DB6" stroke-width="1" x1="1938" x2="1986" y1="42.5" y2="65.5" />
<line stroke="#567DB6" stroke-width="1" x1="1890" x2="1842" y1="42.5" y2="65.5" />
<line stroke="#567DB6" stroke-width="1" x1="1842" x2="1890" y1="42.5" y2="65.5" />
<line stroke="#567DB6" stroke-width="1" x1="1794" x2="1746" y1="42.5" y2="65.5" />
<line stroke="#567DB6" stroke-width="1" x1="1746" x2="1794" y1="42.5" y2="65.5" />
<line stroke="#567DB6" stroke-width="1" x1="1698" x2="1650" y1="42.5" y2="65.5" />
<line stroke="#567DB6" stroke-width="1" x1="1650" x2="1698" y1="42.5" y2="65.5" />
<line stroke="#567DB6" stroke-width="1" x1="1602" x2="1554" y1="42.5" y2="65.5" />
<line stroke="#567DB6" stroke-width="1" x1="1554" x2="1602" y1="42.5" y2="65.5" />
<line stroke="#567DB6" stroke-width="1" x1="1506" x2="1458" y1="42.5" y2="65.5" />
<line stroke="#567DB6" stroke-width="1" x1="1458" x2="1506" y1="42.5" y2="65.5" />
<line stroke="#567DB6" stroke-width="1" x1="1410" x2="1362" y1="42.5" y2="65.5" />
<line stroke="#567DB6" stroke-width="1" x1="1362" x2="1410" y1="42.5" y2="65.5" />
<line stroke="#567DB6" stroke-width="1" x1="1314" x2="1266" y1="42.5" y2="65.5" />
<line stroke="#567DB6" stroke-width="1" x1="1266" x2="1314" y1="42.5" y2="65.5" />
<line stroke="#567DB6" stroke-width="1" x1="1218" x2="1170" y1="42.5" y2="65.5" />
<line stroke="#567DB6" stroke-width="1" x1="1170" x2="1218" y1="42.5" y2="65.5" />
<line stroke="#567DB6" stroke-width="1" x1="1122" x2="1074" y1="42.5" y2="65.5" />
<line stroke="#567DB6" stroke-width="1" x1="1074" x2="1122" y1="42.5" y2="65.5" />
<line stroke="#567DB6" stroke-width="1" x1="1026" x2="978" y1="42.5" y2="65.5" />
<line stroke="#567DB6" stroke-width="1" x1="978" x2="1026" y1="42.5" y2="65.5" />
<line stroke="#567DB6" stroke-width="1" x1="930" x2="882" y1="42.5" y2="65.5" />
<line stroke="#567DB6" stroke-width="1" x1="882" x2="930" y1="42.5" y2="65.5" />
<line stroke="#567DB6" stroke-width="1" x1="834" x2="786" y1="42.5" y2="65.5" />
<line stroke="#567DB6" stroke-width="1" x1="786" x2="834" y1="42.5" y2="65.5" />
<line stroke="#567DB6" stroke-width="1" x1="738" x2="690" y1="42.5" y2="65.5" />
<line stroke="#567DB6" stroke-width="1" x1="690" x2="738" y1="42.5" y2="65.5" />
<line stroke="#567DB6" stroke-width="1" x1="642" x2="594" y1="42.5" y2="65.5" />
<line stroke="#567DB6" stroke-width="1" x1="594" x2="642" y1="42.5" y2="65.5" />
<line stroke="#567DB6" stroke-width="1" x1="546" x2="498" y1="42.5" y2="65.5" />
<line stroke="#567DB6" stroke-width="1" x1="498" x2="546" y1="42.5" y2="65.5" />
<line stroke="#567DB6" stroke-width="1" x1="450" x2="402" y1="42.5" y2="65.5" />
<line stroke="#567DB6" stroke-width="1" x1="402" x2="450" y1="42.5" y2="65.5" />
<line stroke="#567DB6" stroke-width="1" x1="354" x2="306" y1="42.5" y2="65.5" />
<line stroke="#567DB6" stroke-width="1" x1="306" x2="354" y1="42.5" y2="65.5" />
<line stroke="#567DB6" stroke-width="1" x1="258" x2="210" y1="42.5" y2="65.5" />
<line stroke="#567DB6" stroke-width="1" x1="210" x2="258" y1="42.5" y2="65.5" />
<line stroke="#567DB6" stroke-width="1" x1="162" x2="114" y1="42.5" y2="65.5" />
<line stroke="#567DB6" stroke-width="1" x1="114" x2="162" y1="42.5" y2="65.5" />
<line stroke="#567DB6" stroke-width="1" x1="3066" x2="3066" y1="138.5" y2="185" />
<line stroke="#567DB6" stroke-width="1" x1="2874" x2="2874" y1="138.5" y2="185" />
<line stroke="#567DB6" stroke-width="1" x1="2682" x2="2682" y1="138.5" y2="185" />
<line stroke="#567DB6" stroke-width="1" x1="2490" x2="2490" y1="138.5" y2="185" />
<line stroke="#567DB6" stroke-width="1" x1="2298" x2="2298" y1="138.5" y2="185" />
<line stroke="#567DB6" stroke-width="1" x1="2106" x2="2106" y1="138.5" y2="185" />
<line stroke="#567DB6" stroke-width="1" x1="1914" x2="1914" y1="138.5" y2="185" />
<line stroke="#567DB6" stroke-width="1" x1="1722" x2="1722" y1="138.5" y2="185" />
<line stroke="#567DB6" stroke-width="1" x1="1530" x2="1530" y1="138.5" y2="185" />
<line stroke="#567DB6" stroke-width="1" x1="1338" x2="1338" y1="138.5" y2="185" />
<line stroke="#567DB6" stroke-width="1" x1="1146" x2="1146" y1="138.5" y2="185" />
<line stroke="#567DB6" stroke-width="1" x1="954" x2="954" y1="138.5" y2="185" />
<line stroke="#567DB6" stroke-width="1" x1="762" x2="762" y1="138.5" y2="185" />
<line stroke="#567DB6" stroke-width="1" x1="570" x2="570" y1="138.5" y2="185" />
<line stroke="#567DB6" stroke-width="1" x1="378" x2="378" y1="138.5" y2="185" />
<line stroke="#567DB6" stroke-width="1" x1="186" x2="186" y1="138.5" y2="185" />
<line stroke="#567DB6" stroke-width="1" x1="3138" x2="3138" y1="90.5" y2="113" />
<line stroke="#567DB6" stroke-width="1" x1="3090" x2="3090" y1="90.5" y2="113" />
<line stroke="#567DB6" stroke-width="1" x1="3042" x2="3042" y1="90.5" y2="113" />
<line stroke="#567DB6" stroke-width="1" x1="2994" x2="2994" y1="90.5" y2="113" />
<line stroke="#567DB6" stroke-width="1" x1="2946" x2="2946" y1="90.5" y2="113" />
<line stroke="#567DB6" stroke-width="1" x1="2898" x2="2898" y1="90.5" y2="113" />
<line stroke="#567DB6" stroke-width="1" x1="2850" x2="2850" y1="90.5" y2="113" />
<line stroke="#567DB6" stroke-width="1" x1="2802" x2="2802" y1="90.5" y2="113" />
<line stroke="#567DB6" stroke-width="1" x1="2754" x2="2754" y1="90.5" y2="113" />
<line stroke="#567DB6" stroke-width="1" x1="2706" x2="2706" y1="90.5" y2="113" />
<line stroke="#567DB6" stroke-width="1" x1="2658" x2="2658" y1="90.5" y2="113" />
<line stroke="#567DB6" stroke-width="1" x1="2610" x2="2610" y1="90.5" y2="113" />
<line stroke="#567DB6" stroke-width="1" x1="2562" x2="2562" y1="90.5" y2="113" />
<line stroke="#567DB6" stroke-width="1" x1="2514" x2="2514" y1="90.5" y2="113" />
<line stroke="#567DB6" stroke-width="1" x1="2466" x2="2466" y1="90.5" y2="113" />
<line stroke="#567DB6" stroke-width="1" x1="2418" x2="2418" y1="90.5" y2="113" />
<line stroke="#567DB6" stroke-width="1" x1="2370" x2="2370" y1="90.5" y2="113" />
<line stroke="#567DB6" stroke-width="1" x1="2322" x2="2322" y1="90.5" y2="113" />
<line stroke="#567DB6" stroke-width="1" x1="2274" x2="2274" y1="90.5" y2="113" />
<line stroke="#567DB6" stroke-width="1" x1="2226" x2="2226" y1="90.5" y2="113" />
<line stroke="#567DB6" stroke-width="1" x1="2178" x2="2178" y1="90.5" y2="113" />
<line stroke="#567DB6" stroke-width="1" x1="2130" x2="2130" y1="90.5" y2="113" />
<line stroke="#567DB6" stroke-width="1" x1="2082" x2="2082" y1="90.5" y2="113" />
<line stroke="#567DB6" stroke-width="1" x1="2034" x2="2034" y1="90.5" y2="113" />
<line stroke="#567DB6" stroke-width="1" x1="1986" x2="1986" y1="90.5" y2="113" />
<line stroke="#567DB6" stroke-width="1" x1="1938" x2="1938" y1="90.5" y2="113" />
<line stroke="#567DB6" stroke-width="1" x1="1890" x2="1890" y1="90.5" y2="113" />
<line stroke="#567DB6" stroke-width="1" x1="1842" x2="1842" y1="90.5" y2="113" />
<line stroke="#567DB6" stroke-width="1" x1="1794" x2="1794" y1="90.5" y2="113" />
<line stroke="#567DB6" stroke-width="1" x1="1746" x2="1746" y1="90.5" y2="113" />
<line stroke="#567DB6" stroke-width="1" x1="1698" x2="1698" y1="90.5" y2="113" />
<line stroke="#567DB6" stroke-width="1" x1="1650" x2="1650" y1="90.5" y2="113" />
<line stroke="#567DB6" stroke-width="1" x1="1602" x2="1602" y1="90.5" y2="113" />
<line stroke="#567DB6" stroke-width="1" x1="1554" x2="1554" y1="90.5" y2="113" />
<line stroke="#567DB6" stroke-width="1" x1="1506" x2="1506" y1="90.5" y2="113" />
<line stroke="#567DB6" stroke-width="1" x1="1458" x2="1458" y1="90.5" y2="113" />
<line stroke="#567DB6" stroke-width="1" x1="1410" x2="1410" y1="90.5" y2="113" />
<line stroke="#567DB6" stroke-width="1" x1="1362" x2="1362" y1="90.5" y2="113" />
<line stroke="#567DB6" stroke-width="1" x1="1314" x2="1314" y1="90.5" y2="113" />
<line stroke="#567DB6" stroke-width="1" x1="1266" x2="1266" y1="90.5" y2="113" />
<line stroke="#567DB6" stroke-width="1" x1="1218" x2="1218" y1="90.5" y2="113" />
<line stroke="#567DB6" stroke-width="1" x1="1170" x2="1170" y1="90.5" y2="113" />
<line stroke="#567DB6" stroke-width="1" x1="1122" x2="1122" y1="90.5" y2="113" />
<line stroke="#567DB6" stroke-width="1" x1="1074" x2="1074" y1="90.5" y2="113" />
<line stroke="#567DB6" stroke-width="1" x1="1026" x2="1026" y1="90.5" y2="113" />
<line stroke="#567DB6" stroke-width="1" x1="978" x2="978" y1="90.5" y2="113" />
<line stroke="#567DB6" stroke-width="1" x1="930" x2="930" y1="90.5" y2="113" />
<line stroke="#567DB6" stroke-width="1" x1="882" x2="882" y1="90.5" y2="113" />
<line stroke="#567DB6" stroke-width="1" x1="834" x2="834" y1="90.5" y2="113" />
<line stroke="#567DB6" stroke-width="1" x1="786" x2="786" y1="90.5" y2="113" />
<line stroke="#567DB6" stroke-width="1" x1="738" x2="738" y1="90.5" y2="113" />
<line stroke="#567DB6" stroke-width="1" x1="690" x2="690" y1="90.5" y2="113" />
<line stroke="#567DB6" stroke-width="1" x1="642" x2="642" y1="90.5" y2="113" />
<line stroke="#567DB6" stroke-width="1" x1="594" x2="594" y1="90.5" y2="113" />
<line stroke="#567DB6" stroke-width="1" x1="546" x2="546" y1="90.5" y2="113" />
<line stroke="#567DB6" stroke-width="1" x1="498" x2="498" y1="90.5" y2="113" />
<line stroke="#567DB6" stroke-width="1" x1="450" x2="450" y1="90.5" y2="113" />
<line stroke="#567DB6" stroke-width="1" x1="402" x2="402" y1="90.5" y2="113" />
<line stroke="#567DB6" stroke-width="1" x1="354" x2="354" y1="90.5" y2="113" />
<line stroke="#567DB6" stroke-width="1" x1="306" x2="306" y1="90.5" y2="113" />
<line stroke="#567DB6" stroke-width="1" x1="258" x2="258" y1="90.5" y2="113" />
<line stroke="#567DB6" stroke-width="1" x1="210" x2="210" y1="90.5" y2="113" />
<line stroke="#567DB6" stroke-width="1" x1="162" x2="162" y1="90.5" y2="113" />
<line stroke="#567DB6" stroke-width="1" x1="114" x2="114" y1="90.5" y2="113" />
<text class="title-left" x="90" y="9">upper</text>
<text class="title-right" x="3162" y="9">lower</text>
<rect fill="#DEE6F1" height="24" width="48" x="3114" y="18" />
<rect fill="none" height="24" stroke="#405C86" stroke-width="2" width="48" x="3114" y="18" />
<text class="label" x="3138" y="31">A</text>
<rect fill="#DEE6F1" height="24" width="48" x="3066" y="18" />
<rect fill="none" height="24" stroke="#405C86" stroke-width="2" width="48" x="3066" y="18" />
<text class="label" x="3090" y="31">B</text>
<rect fill="#DEE6F1" height="24" width="48" x="3018" y="18" />
<rect fill="none" height="24" stroke="#405C86" stroke-width="2" width="48" x="3018" y="18" />
<text class="label" x="3042" y="31">C</text>
<rect fill="#DEE6F1" height="24" width="48" x="2970" y="18" />
<rect fill="none" height="24" stroke="#405C86" stroke-width="2" width="48" x="2970" y="18" />
<text class="label" x="2994" y="31">D</text>
<rect fill="#EEDDDB" height="24" width="48" x="2922" y="18" />
<rect fill="none" height="24" stroke="#405C86" stroke-width="2" width="48" x="2922" y="18" />
<text class="label" x="2946" y="31">A</text>
<rect fill="#EEDDDB" height="24" width="48" x="2874" y="18" />
<rect fill="none" height="24" stroke="#405C86" stroke-width="2" width="48" x="2874" y="18" />
<text class="label" x="2898" y="31">B</text>
<rect fill="#EEDDDB" height="24" width="48" x="2826" y="18" />
<rect fill="none" height="24" stroke="#405C86" stroke-width="2" width="48" x="2826" y="18" />
<text class="label" x="2850" y="31">C</text>
<rect fill="#EEDDDB" height="24" width="48" x="2778" y="18" />
<rect fill="none" height="24" stroke="#405C86" stroke-width="2" width="48" x="2778" y="18" />
<text class="label" x="2802" y="31">D</text>
<rect fill="#DEE6F1" height="24" width="48" x="2730" y="18" />
<rect fill="none" height="24" stroke="#405C86" stroke-width="2" width="48" x="2730" y="18" />
<text class="label" x="2754" y="31">A</text>
<rect fill="#DEE6F1" height="24" width="48" x="2682" y="18" />
<rect fill="none" height="24" stroke="#405C86" stroke-width="2" width="48" x="2682" y="18" />
<text class="label" x="2706" y="31">B</text>
<rect fill="#DEE6F1" height="24" width="48" x="2634" y="18" />
<rect fill="none" height="24" stroke="#405C86" stroke-width="2" width="48" x="2634" y="18" />
<text class="label" x="2658" y="31">C</text>
<rect fill="#DEE6F1" height="24" width="48" x="2586" y="18" />
<rect fill="none" height="24" stroke="#405C86" stroke-width="2" width="48" x="2586" y="18" />
<text class="label" x="2610" y="31">D</text>
<rect fill="#EEDDDB" height="24" width="48" x="2538" y="18" />
<rect fill="none" height="24" stroke="#405C86" stroke-width="2" width="48" x="2538" y="18" />
<text class="label" x="2562" y="31">A</text>
<rect fill="#EEDDDB" height="24" width="48" x="2490" y="18" />
<rect fill="none" height="24" stroke="#405C86" stroke-width="2" width="48" x="2490" y="18" />
<text class="label" x="2514" y="31">B</text>
<rect fill="#EEDDDB" height="24" width="48" x="2442" y="18" />
<rect fill="none" height="24" stroke="#405C86" stroke-width="2" width="48" x="2442" y="18" />
<text class="label" x="2466" y="31">C</text>
<rect fill="#EEDDDB" height="24" width="48" x="2394" y="18" />
<rect fill="none" height="24" stroke="#405C86" stroke-width="2" width="48" x="2394" y="18" />
<text class="label" x="2418" y="31">D</text>
<rect fill="#DEE6F1" height="24" width="48" x="2346" y="18" />
<rect fill="none" height="24" stroke="#405C86" stroke-width="2" width="48" x="2346" y="18" />
<text class="label" x="2370" y="31">A</text>
<rect fill="#DEE6F1" height="24" width="48" x="2298" y="18" />
<rect fill="none" height="24" stroke="#405C86" stroke-width="2" width="48" x="2298" y="18" />
<text class="label" x="2322" y="31">B</text>
<rect fill="#DEE6F1" height="24" width="48" x="2250" y="18" />
<rect fill="none" height="24" stroke="#405C86" stroke-width="2" width="48" x="2250" y="18" />
<text class="label" x="2274" y="31">C</text>
<rect fill="#DEE6F1" height="24" width="48" x="2202" y="18" />
<rect fill="none" height="24" stroke="#405C86" stroke-width="2" width="48" x="2202" y="18" />
<text class="label" x="2226" y="31">D</text>
<rect fill="#EEDDDB" height="24" width="48" x="2154" y="18" />
<rect fill="none" height="24" stroke="#405C86" stroke-width="2" width="48" x="2154" y="18" />
<text class="label" x="2178" y="31">A</text>
<rect fill="#EEDDDB" height="24" width="48" x="2106" y="18" />
<rect fill="none" height="24" stroke="#405C86" stroke-width="2" width="48" x="2106" y="18" />
<text class="label" x="2130" y="31">B</text>
<rect fill="#EEDDDB" height="24" width="48" x="2058" y="18" />
<rect fill="none" height="24" stroke="#405C86" stroke-width="2" width="48" x="2058" y="18" />
<text class="label" x="2082" y="31">C</text>
<rect fill="#EEDDDB" height="24" width="48" x="2010" y="18" />
<rect fill="none" height="24" stroke="#405C86" stroke-width="2" width="48" x="2010" y="18" />
<text class="label" x="2034" y="31">D</text>
<rect fill="#DEE6F1" height="24" width="48" x="1962" y="18" />
<rect fill="none" height="24" stroke="#405C86" stroke-width="2" width="48" x="1962" y="18" />
<text class="label" x="1986" y="31">A</text>
<rect fill="#DEE6F1" height="24" width="48" x="1914" y="18" />
<rect fill="none" height="24" stroke="#405C86" stroke-width="2" width="48" x="1914" y="18" />
<text class="label" x="1938" y="31">B</text>
<rect fill="#DEE6F1" height="24" width="48" x="1866" y="18" />
<rect fill="none" height="24" stroke="#405C86" stroke-width="2" width="48" x="1866" y="18" />
<text class="label" x="1890" y="31">C</text>
<rect fill="#DEE6F1" height="24" width="48" x="1818" y="18" />
<rect fill="none" height="24" stroke="#405C86" stroke-width="2" width="48" x="1818" y="18" />
<text class="label" x="1842" y="31">D</text>
<rect fill="#EEDDDB" height="24" width="48" x="1770" y="18" />
<rect fill="none" height="24" stroke="#405C86" stroke-width="2" width="48" x="1770" y="18" />
<text class="label" x="1794" y="31">A</text>
<rect fill="#EEDDDB" height="24" width="48" x="1722" y="18" />
<rect fill="none" height="24" stroke="#405C86" stroke-width="2" width="48" x="1722" y="18" />
<text class="label" x="1746" y="31">B</text>
<rect fill="#EEDDDB" height="24" width="48" x="1674" y="18" />
<rect fill="none" height="24" stroke="#405C86" stroke-width="2" width="48" x="1674" y="18" />
<text class="label" x="1698" y="31">C</text>
<rect fill="#EEDDDB" height="24" width="48" x="1626" y="18" />
<rect fill="none" height="24" stroke="#405C86" stroke-width="2" width="48" x="1626" y="18" />
<text class="label" x="1650" y="31">D</text>
<rect fill="#DEE6F1" height="24" width="48" x="1578" y="18" />
<rect fill="none" height="24" stroke="#405C86" stroke-width="2" width="48" x="1578" y="18" />
<text class="label" x="1602" y="31">A</text>
<rect fill="#DEE6F1" height="24" width="48" x="1530" y="18" />
<rect fill="none" height="24" stroke="#405C86" stroke-width="2" width="48" x="1530" y="18" />
<text class="label" x="1554" y="31">B</text>
<rect fill="#DEE6F1" height="24" width="48" x="1482" y="18" />
<rect fill="none" height="24" stroke="#405C86" stroke-width="2" width="48" x="1482" y="18" />
<text class="label" x="1506" y="31">C</text>
<rect fill="#DEE6F1" height="24" width="48" x="1434" y="18" />
<rect fill="none" height="24" stroke="#405C86" stroke-width="2" width="48" x="1434" y="18" />
<text class="label" x="1458" y="31">D</text>
<rect fill="#EEDDDB" height="24" width="48" x="1386" y="18" />
<rect fill="none" height="24" stroke="#405C86" stroke-width="2" width="48" x="1386" y="18" />
<text class="label" x="1410" y="31">A</text>
<rect fill="#EEDDDB" height="24" width="48" x="1338" y="18" />
<rect fill="none" height="24" stroke="#405C86" stroke-width="2" width="48" x="1338" y="18" />
<text class="label" x="1362" y="31">B</text>
<rect fill="#EEDDDB" height="24" width="48" x="1290" y="18" />
<rect fill="none" height="24" stroke="#405C86" stroke-width="2" width="48" x="1290" y="18" />
<text class="label" x="1314" y="31">C</text>
<rect fill="#EEDDDB" height="24" width="48" x="1242" y="18" />
<rect fill="none" height="24" stroke="#405C86" stroke-width="2" width="48" x="1242" y="18" />
<text class="label" x="1266" y="31">D</text>
<rect fill="#DEE6F1" height="24" width="48" x="1194" y="18" />
<rect fill="none" height="24" stroke="#405C86" stroke-width="2" width="48" x="1194" y="18" />
<text class="label" x="1218" y="31">A</text>
<rect fill="#DEE6F1" height="24" width="48" x="1146" y="18" />
<rect fill="none" height="24" stroke="#405C86" stroke-width="2" width="48" x="1146" y="18" />
<text class="label" x="1170" y="31">B</text>
<rect fill="#DEE6F1" height="24" width="48" x="1098" y="18" />
<rect fill="none" height="24" stroke="#405C86" stroke-width="2" width="48" x="1098" y="18" />
<text class="label" x="1122" y="31">C</text>
<rect fill="#DEE6F1" height="24" width="48" x="1050" y="18" />
<rect fill="none" height="24" stroke="#405C86" stroke-width="2" width="48" x="1050" y="18" />
<text class="label" x="1074" y="31">D</text>
<rect fill="#EEDDDB" height="24" width="48" x="1002" y="18" />
<rect fill="none" height="24" stroke="#405C86" stroke-width="2" width="48" x="1002" y="18" />
<text class="label" x="1026" y="31">A</text>
<rect fill="#EEDDDB" height="24" width="48" x="954" y="18" />
<rect fill="none" height="24" stroke="#405C86" stroke-width="2" width="48" x="954" y="18" />
<text class="label" x="978" y="31">B</text>
<rect fill="#EEDDDB" height="24" width="48" x="906" y="18" />
<rect fill="none" height="24" stroke="#405C86" stroke-width="2" width="48" x="906" y="18" />
<text class="label" x="930" y="31">C</text>
<rect fill="#EEDDDB" height="24" width="48" x="858" y="18" />
<rect fill="none" height="24" stroke="#405C86" stroke-width="2" width="48" x="858" y="18" />
<text class="label" x="882" y="31">D</text>
<rect fill="#DEE6F1" height="24" width="48" x="810" y="18" />
<rect fill="none" height="24" stroke="#405C86" stroke-width="2" width="48" x="810" y="18" />
<text class="label" x="834" y="31">A</text>
<rect fill="#DEE6F1" height="24" width="48" x="762" y="18" />
<rect fill="none" height="24" stroke="#405C86" stroke-width="2" width="48" x="762" y="18" />
<text class="label" x="786" y="31">B</text>
<rect fill="#DEE6F1" height="24" width="48" x="714" y="18" />
<rect fill="none" height="24" stroke="#405C86" stroke-width="2" width="48" x="714" y="18" />
<text class="label" x="738" y="31">C</text>
<rect fill="#DEE6F1" height="24" width="48" x="666" y="18" />
<rect fill="none" height="24" stroke="#405C86" stroke-width="2" width="48" x="666" y="18" />
<text class="label" x="690" y="31">D</text>
<rect fill="#EEDDDB" height="24" width="48" x="618" y="18" />
<rect fill="none" height="24" stroke="#405C86" stroke-width="2" width="48" x="618" y="18" />
<text class="label" x="642" y="31">A</text>
<rect fill="#EEDDDB" height="24" width="48" x="570" y="18" />
<rect fill="none" height="24" stroke="#405C86" stroke-width="2" width="48" x="570" y="18" />
<text class="label" x="594" y="31">B</text>
<rect fill="#EEDDDB" height="24" width="48" x="522" y="18" />
<rect fill="none" height="24" stroke="#405C86" stroke-width="2" width="48" x="522" y="18" />
<text class="label" x="546" y="31">C</text>
<rect fill="#EEDDDB" height="24" width="48" x="474" y="18" />
<rect fill="none" height="24" stroke="#405C86" stroke-width="2" width="48" x="474" y="18" />
<text class="label" x="498" y="31">D</text>
<rect fill="#DEE6F1" height="24" width="48" x="426" y="18" />
<rect fill="none" height="24" stroke="#405C86" stroke-width="2" width="48" x="426" y="18" />
<text class="label" x="450" y="31">A</text>
<rect fill="#DEE6F1" height="24" width="48" x="378" y="18" />
<rect fill="none" height="24" stroke="#405C86" stroke-width="2" width="48" x="378" y="18" />
<text class="label" x="402" y="31">B</text>
<rect fill="#DEE6F1" height="24" width="48" x="330" y="18" />
<rect fill="none" height="24" stroke="#405C86" stroke-width="2" width="48" x="330" y="18" />
<text class="label" x="354" y="31">C</text>
<rect fill="#DEE6F1" height="24" width="48" x="282" y="18" />
<rect fill="none" height="24" stroke="#405C86" stroke-width="2" width="48" x="282" y="18" />
<text class="label" x="306" y="31">D</text>
<rect fill="#EEDDDB" height="24" width="48" x="234" y="18" />
<rect fill="none" height="24" stroke="#405C86" stroke-width="2" width="48" x="234" y="18" />
<text class="label" x="258" y="31">A</text>
<rect fill="#EEDDDB" height="24" width="48" x="186" y="18" />
<rect fill="none" height="24" stroke="#405C86" stroke-width="2" width="48" x="186" y="18" />
<text class="label" x="210" y="31">B</text>
<rect fill="#EEDDDB" height="24" width="48" x="138" y="18" />
<rect fill="none" height="24" stroke="#405C86" stroke-width="2" width="48" x="138" y="18" />
<text class="label" x="162" y="31">C</text>
<rect fill="#EEDDDB" height="24" width="48" x="90" y="18" />
<rect fill="none" height="24" stroke="#405C86" stroke-width="2" width="48" x="90" y="18" />
<text class="label" x="114" y="31">D</text>
<text class="register-name" x="80" y="30">Zn</text>
<text class="intrinsic-name" x="80" y="42">op2</text>
<text class="register-number" x="10" y="30">(1)</text>
<rect fill="#DEE6F1" height="24" width="48" x="3114" y="66" />
<rect fill="none" height="24" stroke="#405C86" stroke-width="2" width="48" x="3114" y="66" />
<text class="label" x="3138" y="79">E</text>
<rect fill="#DEE6F1" height="24" width="48" x="3066" y="66" />
<rect fill="none" height="24" stroke="#405C86" stroke-width="2" width="48" x="3066" y="66" />
<text class="label" x="3090" y="79">F</text>
<rect fill="#DEE6F1" height="24" width="48" x="3018" y="66" />
<rect fill="none" height="24" stroke="#405C86" stroke-width="2" width="48" x="3018" y="66" />
<text class="label" x="3042" y="79">G</text>
<rect fill="#DEE6F1" height="24" width="48" x="2970" y="66" />
<rect fill="none" height="24" stroke="#405C86" stroke-width="2" width="48" x="2970" y="66" />
<text class="label" x="2994" y="79">H</text>
<rect fill="#EEDDDB" height="24" width="48" x="2922" y="66" />
<rect fill="none" height="24" stroke="#405C86" stroke-width="2" width="48" x="2922" y="66" />
<text class="label" x="2946" y="79">E</text>
<rect fill="#EEDDDB" height="24" width="48" x="2874" y="66" />
<rect fill="none" height="24" stroke="#405C86" stroke-width="2" width="48" x="2874" y="66" />
<text class="label" x="2898" y="79">F</text>
<rect fill="#EEDDDB" height="24" width="48" x="2826" y="66" />
<rect fill="none" height="24" stroke="#405C86" stroke-width="2" width="48" x="2826" y="66" />
<text class="label" x="2850" y="79">G</text>
<rect fill="#EEDDDB" height="24" width="48" x="2778" y="66" />
<rect fill="none" height="24" stroke="#405C86" stroke-width="2" width="48" x="2778" y="66" />
<text class="label" x="2802" y="79">H</text>
<rect fill="#DEE6F1" height="24" width="48" x="2730" y="66" />
<rect fill="none" height="24" stroke="#405C86" stroke-width="2" width="48" x="2730" y="66" />
<text class="label" x="2754" y="79">E</text>
<rect fill="#DEE6F1" height="24" width="48" x="2682" y="66" />
<rect fill="none" height="24" stroke="#405C86" stroke-width="2" width="48" x="2682" y="66" />
<text class="label" x="2706" y="79">F</text>
<rect fill="#DEE6F1" height="24" width="48" x="2634" y="66" />
<rect fill="none" height="24" stroke="#405C86" stroke-width="2" width="48" x="2634" y="66" />
<text class="label" x="2658" y="79">G</text>
<rect fill="#DEE6F1" height="24" width="48" x="2586" y="66" />
<rect fill="none" height="24" stroke="#405C86" stroke-width="2" width="48" x="2586" y="66" />
<text class="label" x="2610" y="79">H</text>
<rect fill="#EEDDDB" height="24" width="48" x="2538" y="66" />
<rect fill="none" height="24" stroke="#405C86" stroke-width="2" width="48" x="2538" y="66" />
<text class="label" x="2562" y="79">E</text>
<rect fill="#EEDDDB" height="24" width="48" x="2490" y="66" />
<rect fill="none" height="24" stroke="#405C86" stroke-width="2" width="48" x="2490" y="66" />
<text class="label" x="2514" y="79">F</text>
<rect fill="#EEDDDB" height="24" width="48" x="2442" y="66" />
<rect fill="none" height="24" stroke="#405C86" stroke-width="2" width="48" x="2442" y="66" />
<text class="label" x="2466" y="79">G</text>
<rect fill="#EEDDDB" height="24" width="48" x="2394" y="66" />
<rect fill="none" height="24" stroke="#405C86" stroke-width="2" width="48" x="2394" y="66" />
<text class="label" x="2418" y="79">H</text>
<rect fill="#DEE6F1" height="24" width="48" x="2346" y="66" />
<rect fill="none" height="24" stroke="#405C86" stroke-width="2" width="48" x="2346" y="66" />
<text class="label" x="2370" y="79">E</text>
<rect fill="#DEE6F1" height="24" width="48" x="2298" y="66" />
<rect fill="none" height="24" stroke="#405C86" stroke-width="2" width="48" x="2298" y="66" />
<text class="label" x="2322" y="79">F</text>
<rect fill="#DEE6F1" height="24" width="48" x="2250" y="66" />
<rect fill="none" height="24" stroke="#405C86" stroke-width="2" width="48" x="2250" y="66" />
<text class="label" x="2274" y="79">G</text>
<rect fill="#DEE6F1" height="24" width="48" x="2202" y="66" />
<rect fill="none" height="24" stroke="#405C86" stroke-width="2" width="48" x="2202" y="66" />
<text class="label" x="2226" y="79">H</text>
<rect fill="#EEDDDB" height="24" width="48" x="2154" y="66" />
<rect fill="none" height="24" stroke="#405C86" stroke-width="2" width="48" x="2154" y="66" />
<text class="label" x="2178" y="79">E</text>
<rect fill="#EEDDDB" height="24" width="48" x="2106" y="66" />
<rect fill="none" height="24" stroke="#405C86" stroke-width="2" width="48" x="2106" y="66" />
<text class="label" x="2130" y="79">F</text>
<rect fill="#EEDDDB" height="24" width="48" x="2058" y="66" />
<rect fill="none" height="24" stroke="#405C86" stroke-width="2" width="48" x="2058" y="66" />
<text class="label" x="2082" y="79">G</text>
<rect fill="#EEDDDB" height="24" width="48" x="2010" y="66" />
<rect fill="none" height="24" stroke="#405C86" stroke-width="2" width="48" x="2010" y="66" />
<text class="label" x="2034" y="79">H</text>
<rect fill="#DEE6F1" height="24" width="48" x="1962" y="66" />
<rect fill="none" height="24" stroke="#405C86" stroke-width="2" width="48" x="1962" y="66" />
<text class="label" x="1986" y="79">E</text>
<rect fill="#DEE6F1" height="24" width="48" x="1914" y="66" />
<rect fill="none" height="24" stroke="#405C86" stroke-width="2" width="48" x="1914" y="66" />
<text class="label" x="1938" y="79">F</text>
<rect fill="#DEE6F1" height="24" width="48" x="1866" y="66" />
<rect fill="none" height="24" stroke="#405C86" stroke-width="2" width="48" x="1866" y="66" />
<text class="label" x="1890" y="79">G</text>
<rect fill="#DEE6F1" height="24" width="48" x="1818" y="66" />
<rect fill="none" height="24" stroke="#405C86" stroke-width="2" width="48" x="1818" y="66" />
<text class="label" x="1842" y="79">H</text>
<rect fill="#EEDDDB" height="24" width="48" x="1770" y="66" />
<rect fill="none" height="24" stroke="#405C86" stroke-width="2" width="48" x="1770" y="66" />
<text class="label" x="1794" y="79">E</text>
<rect fill="#EEDDDB" height="24" width="48" x="1722" y="66" />
<rect fill="none" height="24" stroke="#405C86" stroke-width="2" width="48" x="1722" y="66" />
<text class="label" x="1746" y="79">F</text>
<rect fill="#EEDDDB" height="24" width="48" x="1674" y="66" />
<rect fill="none" height="24" stroke="#405C86" stroke-width="2" width="48" x="1674" y="66" />
<text class="label" x="1698" y="79">G</text>
<rect fill="#EEDDDB" height="24" width="48" x="1626" y="66" />
<rect fill="none" height="24" stroke="#405C86" stroke-width="2" width="48" x="1626" y="66" />
<text class="label" x="1650" y="79">H</text>
<rect fill="#DEE6F1" height="24" width="48" x="1578" y="66" />
<rect fill="none" height="24" stroke="#405C86" stroke-width="2" width="48" x="1578" y="66" />
<text class="label" x="1602" y="79">E</text>
<rect fill="#DEE6F1" height="24" width="48" x="1530" y="66" />
<rect fill="none" height="24" stroke="#405C86" stroke-width="2" width="48" x="1530" y="66" />
<text class="label" x="1554" y="79">F</text>
<rect fill="#DEE6F1" height="24" width="48" x="1482" y="66" />
<rect fill="none" height="24" stroke="#405C86" stroke-width="2" width="48" x="1482" y="66" />
<text class="label" x="1506" y="79">G</text>
<rect fill="#DEE6F1" height="24" width="48" x="1434" y="66" />
<rect fill="none" height="24" stroke="#405C86" stroke-width="2" width="48" x="1434" y="66" />
<text class="label" x="1458" y="79">H</text>
<rect fill="#EEDDDB" height="24" width="48" x="1386" y="66" />
<rect fill="none" height="24" stroke="#405C86" stroke-width="2" width="48" x="1386" y="66" />
<text class="label" x="1410" y="79">E</text>
<rect fill="#EEDDDB" height="24" width="48" x="1338" y="66" />
<rect fill="none" height="24" stroke="#405C86" stroke-width="2" width="48" x="1338" y="66" />
<text class="label" x="1362" y="79">F</text>
<rect fill="#EEDDDB" height="24" width="48" x="1290" y="66" />
<rect fill="none" height="24" stroke="#405C86" stroke-width="2" width="48" x="1290" y="66" />
<text class="label" x="1314" y="79">G</text>
<rect fill="#EEDDDB" height="24" width="48" x="1242" y="66" />
<rect fill="none" height="24" stroke="#405C86" stroke-width="2" width="48" x="1242" y="66" />
<text class="label" x="1266" y="79">H</text>
<rect fill="#DEE6F1" height="24" width="48" x="1194" y="66" />
<rect fill="none" height="24" stroke="#405C86" stroke-width="2" width="48" x="1194" y="66" />
<text class="label" x="1218" y="79">E</text>
<rect fill="#DEE6F1" height="24" width="48" x="1146" y="66" />
<rect fill="none" height="24" stroke="#405C86" stroke-width="2" width="48" x="1146" y="66" />
<text class="label" x="1170" y="79">F</text>
<rect fill="#DEE6F1" height="24" width="48" x="1098" y="66" />
<rect fill="none" height="24" stroke="#405C86" stroke-width="2" width="48" x="1098" y="66" />
<text class="label" x="1122" y="79">G</text>
<rect fill="#DEE6F1" height="24" width="48" x="1050" y="66" />
<rect fill="none" height="24" stroke="#405C86" stroke-width="2" width="48" x="1050" y="66" />
<text class="label" x="1074" y="79">H</text>
<rect fill="#EEDDDB" height="24" width="48" x="1002" y="66" />
<rect fill="none" height="24" stroke="#405C86" stroke-width="2" width="48" x="1002" y="66" />
<text class="label" x="1026" y="79">E</text>
<rect fill="#EEDDDB" height="24" width="48" x="954" y="66" />
<rect fill="none" height="24" stroke="#405C86" stroke-width="2" width="48" x="954" y="66" />
<text class="label" x="978" y="79">F</text>
<rect fill="#EEDDDB" height="24" width="48" x="906" y="66" />
<rect fill="none" height="24" stroke="#405C86" stroke-width="2" width="48" x="906" y="66" />
<text class="label" x="930" y="79">G</text>
<rect fill="#EEDDDB" height="24" width="48" x="858" y="66" />
<rect fill="none" height="24" stroke="#405C86" stroke-width="2" width="48" x="858" y="66" />
<text class="label" x="882" y="79">H</text>
<rect fill="#DEE6F1" height="24" width="48" x="810" y="66" />
<rect fill="none" height="24" stroke="#405C86" stroke-width="2" width="48" x="810" y="66" />
<text class="label" x="834" y="79">E</text>
<rect fill="#DEE6F1" height="24" width="48" x="762" y="66" />
<rect fill="none" height="24" stroke="#405C86" stroke-width="2" width="48" x="762" y="66" />
<text class="label" x="786" y="79">F</text>
<rect fill="#DEE6F1" height="24" width="48" x="714" y="66" />
<rect fill="none" height="24" stroke="#405C86" stroke-width="2" width="48" x="714" y="66" />
<text class="label" x="738" y="79">G</text>
<rect fill="#DEE6F1" height="24" width="48" x="666" y="66" />
<rect fill="none" height="24" stroke="#405C86" stroke-width="2" width="48" x="666" y="66" />
<text class="label" x="690" y="79">H</text>
<rect fill="#EEDDDB" height="24" width="48" x="618" y="66" />
<rect fill="none" height="24" stroke="#405C86" stroke-width="2" width="48" x="618" y="66" />
<text class="label" x="642" y="79">E</text>
<rect fill="#EEDDDB" height="24" width="48" x="570" y="66" />
<rect fill="none" height="24" stroke="#405C86" stroke-width="2" width="48" x="570" y="66" />
<text class="label" x="594" y="79">F</text>
<rect fill="#EEDDDB" height="24" width="48" x="522" y="66" />
<rect fill="none" height="24" stroke="#405C86" stroke-width="2" width="48" x="522" y="66" />
<text class="label" x="546" y="79">G</text>
<rect fill="#EEDDDB" height="24" width="48" x="474" y="66" />
<rect fill="none" height="24" stroke="#405C86" stroke-width="2" width="48" x="474" y="66" />
<text class="label" x="498" y="79">H</text>
<rect fill="#DEE6F1" height="24" width="48" x="426" y="66" />
<rect fill="none" height="24" stroke="#405C86" stroke-width="2" width="48" x="426" y="66" />
<text class="label" x="450" y="79">E</text>
<rect fill="#DEE6F1" height="24" width="48" x="378" y="66" />
<rect fill="none" height="24" stroke="#405C86" stroke-width="2" width="48" x="378" y="66" />
<text class="label" x="402" y="79">F</text>
<rect fill="#DEE6F1" height="24" width="48" x="330" y="66" />
<rect fill="none" height="24" stroke="#405C86" stroke-width="2" width="48" x="330" y="66" />
<text class="label" x="354" y="79">G</text>
<rect fill="#DEE6F1" height="24" width="48" x="282" y="66" />
<rect fill="none" height="24" stroke="#405C86" stroke-width="2" width="48" x="282" y="66" />
<text class="label" x="306" y="79">H</text>
<rect fill="#EEDDDB" height="24" width="48" x="234" y="66" />
<rect fill="none" height="24" stroke="#405C86" stroke-width="2" width="48" x="234" y="66" />
<text class="label" x="258" y="79">E</text>
<rect fill="#EEDDDB" height="24" width="48" x="186" y="66" />
<rect fill="none" height="24" stroke="#405C86" stroke-width="2" width="48" x="186" y="66" />
<text class="label" x="210" y="79">F</text>
<rect fill="#EEDDDB" height="24" width="48" x="138" y="66" />
<rect fill="none" height="24" stroke="#405C86" stroke-width="2" width="48" x="138" y="66" />
<text class="label" x="162" y="79">G</text>
<rect fill="#EEDDDB" height="24" width="48" x="90" y="66" />
<rect fill="none" height="24" stroke="#405C86" stroke-width="2" width="48" x="90" y="66" />
<text class="label" x="114" y="79">H</text>
<text class="register-name" x="80" y="78">Zm</text>
<text class="intrinsic-name" x="80" y="90">op3</text>
<text class="register-number" x="10" y="78">(2)</text>
<rect fill="#DEE6F1" height="24" width="192" x="2970" y="114" />
<rect fill="none" height="24" stroke="#405C86" stroke-width="2" width="192" x="2970" y="114" />
<text class="label" x="3066" y="127">I</text>
<rect fill="#EEDDDB" height="24" width="192" x="2778" y="114" />
<rect fill="none" height="24" stroke="#405C86" stroke-width="2" width="192" x="2778" y="114" />
<text class="label" x="2874" y="127">I</text>
<rect fill="#DEE6F1" height="24" width="192" x="2586" y="114" />
<rect fill="none" height="24" stroke="#405C86" stroke-width="2" width="192" x="2586" y="114" />
<text class="label" x="2682" y="127">I</text>
<rect fill="#EEDDDB" height="24" width="192" x="2394" y="114" />
<rect fill="none" height="24" stroke="#405C86" stroke-width="2" width="192" x="2394" y="114" />
<text class="label" x="2490" y="127">I</text>
<rect fill="#DEE6F1" height="24" width="192" x="2202" y="114" />
<rect fill="none" height="24" stroke="#405C86" stroke-width="2" width="192" x="2202" y="114" />
<text class="label" x="2298" y="127">I</text>
<rect fill="#EEDDDB" height="24" width="192" x="2010" y="114" />
<rect fill="none" height="24" stroke="#405C86" stroke-width="2" width="192" x="2010" y="114" />
<text class="label" x="2106" y="127">I</text>
<rect fill="#DEE6F1" height="24" width="192" x="1818" y="114" />
<rect fill="none" height="24" stroke="#405C86" stroke-width="2" width="192" x="1818" y="114" />
<text class="label" x="1914" y="127">I</text>
<rect fill="#EEDDDB" height="24" width="192" x="1626" y="114" />
<rect fill="none" height="24" stroke="#405C86" stroke-width="2" width="192" x="1626" y="114" />
<text class="label" x="1722" y="127">I</text>
<rect fill="#DEE6F1" height="24" width="192" x="1434" y="114" />
<rect fill="none" height="24" stroke="#405C86" stroke-width="2" width="192" x="1434" y="114" />
<text class="label" x="1530" y="127">I</text>
<rect fill="#EEDDDB" height="24" width="192" x="1242" y="114" />
<rect fill="none" height="24" stroke="#405C86" stroke-width="2" width="192" x="1242" y="114" />
<text class="label" x="1338" y="127">I</text>
<rect fill="#DEE6F1" height="24" width="192" x="1050" y="114" />
<rect fill="none" height="24" stroke="#405C86" stroke-width="2" width="192" x="1050" y="114" />
<text class="label" x="1146" y="127">I</text>
<rect fill="#EEDDDB" height="24" width="192" x="858" y="114" />
<rect fill="none" height="24" stroke="#405C86" stroke-width="2" width="192" x="858" y="114" />
<text class="label" x="954" y="127">I</text>
<rect fill="#DEE6F1" height="24" width="192" x="666" y="114" />
<rect fill="none" height="24" stroke="#405C86" stroke-width="2" width="192" x="666" y="114" />
<text class="label" x="762" y="127">I</text>
<rect fill="#EEDDDB" height="24" width="192" x="474" y="114" />
<rect fill="none" height="24" stroke="#405C86" stroke-width="2" width="192" x="474" y="114" />
<text class="label" x="570" y="127">I</text>
<rect fill="#DEE6F1" height="24" width="192" x="282" y="114" />
<rect fill="none" height="24" stroke="#405C86" stroke-width="2" width="192" x="282" y="114" />
<text class="label" x="378" y="127">I</text>
<rect fill="#EEDDDB" height="24" width="192" x="90" y="114" />
<rect fill="none" height="24" stroke="#405C86" stroke-width="2" width="192" x="90" y="114" />
<text class="label" x="186" y="127">I</text>
<text class="register-name" x="80" y="126">Zda</text>
<text class="intrinsic-name" x="80" y="138">op1</text>
<text class="register-number" x="10" y="126">(3)</text>
<rect fill="#DEE6F1" height="24" width="192" x="2970" y="186" />
<rect fill="none" height="24" stroke="#405C86" stroke-width="2" width="192" x="2970" y="186" />
<text class="label" x="3066" y="199">A*F&#x2212;B*E+C*H&#x2212;D*G+I</text>
<rect fill="#EEDDDB" height="24" width="192" x="2778" y="186" />
<rect fill="none" height="24" stroke="#405C86" stroke-width="2" width="192" x="2778" y="186" />
<text class="label" x="2874" y="199">A*F&#x2212;B*E+C*H&#x2212;D*G+I</text>
<rect fill="#DEE6F1" height="24" width="192" x="2586" y="186" />
<rect fill="none" height="24" stroke="#405C86" stroke-width="2" width="192" x="2586" y="186" />
<text class="label" x="2682" y="199">A*F&#x2212;B*E+C*H&#x2212;D*G+I</text>
<rect fill="#EEDDDB" height="24" width="192" x="2394" y="186" />
<rect fill="none" height="24" stroke="#405C86" stroke-width="2" width="192" x="2394" y="186" />
<text class="label" x="2490" y="199">A*F&#x2212;B*E+C*H&#x2212;D*G+I</text>
<rect fill="#DEE6F1" height="24" width="192" x="2202" y="186" />
<rect fill="none" height="24" stroke="#405C86" stroke-width="2" width="192" x="2202" y="186" />
<text class="label" x="2298" y="199">A*F&#x2212;B*E+C*H&#x2212;D*G+I</text>
<rect fill="#EEDDDB" height="24" width="192" x="2010" y="186" />
<rect fill="none" height="24" stroke="#405C86" stroke-width="2" width="192" x="2010" y="186" />
<text class="label" x="2106" y="199">A*F&#x2212;B*E+C*H&#x2212;D*G+I</text>
<rect fill="#DEE6F1" height="24" width="192" x="1818" y="186" />
<rect fill="none" height="24" stroke="#405C86" stroke-width="2" width="192" x="1818" y="186" />
<text class="label" x="1914" y="199">A*F&#x2212;B*E+C*H&#x2212;D*G+I</text>
<rect fill="#EEDDDB" height="24" width="192" x="1626" y="186" />
<rect fill="none" height="24" stroke="#405C86" stroke-width="2" width="192" x="1626" y="186" />
<text class="label" x="1722" y="199">A*F&#x2212;B*E+C*H&#x2212;D*G+I</text>
<rect fill="#DEE6F1" height="24" width="192" x="1434" y="186" />
<rect fill="none" height="24" stroke="#405C86" stroke-width="2" width="192" x="1434" y="186" />
<text class="label" x="1530" y="199">A*F&#x2212;B*E+C*H&#x2212;D*G+I</text>
<rect fill="#EEDDDB" height="24" width="192" x="1242" y="186" />
<rect fill="none" height="24" stroke="#405C86" stroke-width="2" width="192" x="1242" y="186" />
<text class="label" x="1338" y="199">A*F&#x2212;B*E+C*H&#x2212;D*G+I</text>
<rect fill="#DEE6F1" height="24" width="192" x="1050" y="186" />
<rect fill="none" height="24" stroke="#405C86" stroke-width="2" width="192" x="1050" y="186" />
<text class="label" x="1146" y="199">A*F&#x2212;B*E+C*H&#x2212;D*G+I</text>
<rect fill="#EEDDDB" height="24" width="192" x="858" y="186" />
<rect fill="none" height="24" stroke="#405C86" stroke-width="2" width="192" x="858" y="186" />
<text class="label" x="954" y="199">A*F&#x2212;B*E+C*H&#x2212;D*G+I</text>
<rect fill="#DEE6F1" height="24" width="192" x="666" y="186" />
<rect fill="none" height="24" stroke="#405C86" stroke-width="2" width="192" x="666" y="186" />
<text class="label" x="762" y="199">A*F&#x2212;B*E+C*H&#x2212;D*G+I</text>
<rect fill="#EEDDDB" height="24" width="192" x="474" y="186" />
<rect fill="none" height="24" stroke="#405C86" stroke-width="2" width="192" x="474" y="186" />
<text class="label" x="570" y="199">A*F&#x2212;B*E+C*H&#x2212;D*G+I</text>
<rect fill="#DEE6F1" height="24" width="192" x="282" y="186" />
<rect fill="none" height="24" stroke="#405C86" stroke-width="2" width="192" x="282" y="186" />
<text class="label" x="378" y="199">A*F&#x2212;B*E+C*H&#x2212;D*G+I</text>
<rect fill="#EEDDDB" height="24" width="192" x="90" y="186" />
<rect fill="none" height="24" stroke="#405C86" stroke-width="2" width="192" x="90" y="186" />
<text class="label" x="186" y="199">A*F&#x2212;B*E+C*H&#x2212;D*G+I</text>
<text class="register-name" x="80" y="198">Zda</text>
<text class="intrinsic-name" x="80" y="210">returns</text>
<text class="register-number" x="10" y="198">(4)</text>
<line marker-end="url(#arrowhead)" stroke="none" x1="3066" x2="3066" y1="138.5" y2="185" />
<line marker-end="url(#arrowhead)" stroke="none" x1="2874" x2="2874" y1="138.5" y2="185" />
<line marker-end="url(#arrowhead)" stroke="none" x1="2682" x2="2682" y1="138.5" y2="185" />
<line marker-end="url(#arrowhead)" stroke="none" x1="2490" x2="2490" y1="138.5" y2="185" />
<line marker-end="url(#arrowhead)" stroke="none" x1="2298" x2="2298" y1="138.5" y2="185" />
<line marker-end="url(#arrowhead)" stroke="none" x1="2106" x2="2106" y1="138.5" y2="185" />
<line marker-end="url(#arrowhead)" stroke="none" x1="1914" x2="1914" y1="138.5" y2="185" />
<line marker-end="url(#arrowhead)" stroke="none" x1="1722" x2="1722" y1="138.5" y2="185" />
<line marker-end="url(#arrowhead)" stroke="none" x1="1530" x2="1530" y1="138.5" y2="185" />
<line marker-end="url(#arrowhead)" stroke="none" x1="1338" x2="1338" y1="138.5" y2="185" />
<line marker-end="url(#arrowhead)" stroke="none" x1="1146" x2="1146" y1="138.5" y2="185" />
<line marker-end="url(#arrowhead)" stroke="none" x1="954" x2="954" y1="138.5" y2="185" />
<line marker-end="url(#arrowhead)" stroke="none" x1="762" x2="762" y1="138.5" y2="185" />
<line marker-end="url(#arrowhead)" stroke="none" x1="570" x2="570" y1="138.5" y2="185" />
<line marker-end="url(#arrowhead)" stroke="none" x1="378" x2="378" y1="138.5" y2="185" />
<line marker-end="url(#arrowhead)" stroke="none" x1="186" x2="186" y1="138.5" y2="185" />
</svg>