<svg xmlns="http://www.w3.org/2000/svg" viewBox="0 0 486 219">
<style>
.label { font: 14px Helvetica; dominant-baseline: middle; text-anchor: middle; }
.title-left { font: 12px Helvetica; dominant-baseline: middle; }
.title-right { font: 12px Helvetica; dominant-baseline: middle; text-anchor: end; }
.title-intrinsic { font: 12px Helvetica; dominant-baseline: middle; text-anchor: middle; fill: #6778ED; }
.title { font: 12px Helvetica; dominant-baseline: middle; text-anchor: middle; }
.title-unused { font: 12px Helvetica; dominant-baseline: middle; text-anchor: middle; fill: #AAA; }
.register-name { font: 14px Helvetica; dominant-baseline: middle; text-anchor: end; font-style: italic; }
.memory-name { font: 14px Helvetica; dominant-baseline: middle; text-anchor: end; }
.register-number { font: 14px Helvetica; dominant-baseline: middle; text-anchor: start; }
.intrinsic-name { font: 14px Helvetica; dominant-baseline: middle; text-anchor: end; fill: #6778ED; }
.intrinsic-color { fill: #6778ED; }
.small-label { font: 12px Helvetica; dominant-baseline: middle; text-anchor: middle; }
.label-10px { font: 10px Helvetica; dominant-baseline: middle; text-anchor: middle; }
.smaller-label { font: 9px Helvetica; dominant-baseline: middle; text-anchor: middle; }
.label-6px { font: 6px Helvetica; dominant-baseline: middle; text-anchor: middle; }
.label-7px { font: 7px Helvetica; dominant-baseline: middle; text-anchor: middle; }
.unused { fill: #AAA; }
.dim { fill: #888; }
</style>
<defs>
<marker id="arrowhead" markerWidth="9.5" markerHeight="21.0" refX="7.75" refY="5.25" orient="auto">
<polyline points="0.5 0.5, 7.5 5.25, 0.5 10.0" stroke="#567DB6" stroke-width="1" fill="none"/>
</marker>
</defs>
<text class="title-left" x="90" y="9">upper</text>
<text class="title-right" x="474" y="9">lower</text>
<circle cx="462" cy="161" fill="#567DB6" r="2.5" />
<rect fill="none" height="24" stroke="#405C86" stroke-width="2" width="12" x="456" y="18" />
<text class="label" x="462" y="31">0</text>
<rect fill="#DEE6F1" height="24" width="12" x="432" y="18" />
<rect fill="none" height="24" stroke="#405C86" stroke-width="2" width="12" x="432" y="18" />
<text class="label" x="438" y="31">1</text>
<rect fill="#DEE6F1" height="24" width="12" x="408" y="18" />
<rect fill="none" height="24" stroke="#405C86" stroke-width="2" width="12" x="408" y="18" />
<text class="label" x="414" y="31">1</text>
<rect fill="none" height="24" stroke="#405C86" stroke-width="2" width="12" x="384" y="18" />
<text class="label" x="390" y="31">0</text>
<rect fill="#DEE6F1" height="24" width="12" x="360" y="18" />
<rect fill="none" height="24" stroke="#405C86" stroke-width="2" width="12" x="360" y="18" />
<text class="label" x="366" y="31">1</text>
<rect fill="#DEE6F1" height="24" width="12" x="336" y="18" />
<rect fill="none" height="24" stroke="#405C86" stroke-width="2" width="12" x="336" y="18" />
<text class="label" x="342" y="31">1</text>
<rect fill="none" height="24" stroke="#405C86" stroke-width="2" width="12" x="312" y="18" />
<text class="label" x="318" y="31">0</text>
<rect fill="#DEE6F1" height="24" width="12" x="288" y="18" />
<rect fill="none" height="24" stroke="#405C86" stroke-width="2" width="12" x="288" y="18" />
<text class="label" x="294" y="31">1</text>
<rect fill="#DEE6F1" height="24" width="12" x="264" y="18" />
<rect fill="none" height="24" stroke="#405C86" stroke-width="2" width="12" x="264" y="18" />
<text class="label" x="270" y="31">1</text>
<rect fill="#DEE6F1" height="24" width="12" x="240" y="18" />
<rect fill="none" height="24" stroke="#405C86" stroke-width="2" width="12" x="240" y="18" />
<text class="label" x="246" y="31">1</text>
<rect fill="#DEE6F1" height="24" width="12" x="216" y="18" />
<rect fill="none" height="24" stroke="#405C86" stroke-width="2" width="12" x="216" y="18" />
<text class="label" x="222" y="31">1</text>
<rect fill="#DEE6F1" height="24" width="12" x="192" y="18" />
<rect fill="none" height="24" stroke="#405C86" stroke-width="2" width="12" x="192" y="18" />
<text class="label" x="198" y="31">1</text>
<rect fill="#DEE6F1" height="24" width="12" x="168" y="18" />
<rect fill="none" height="24" stroke="#405C86" stroke-width="2" width="12" x="168" y="18" />
<text class="label" x="174" y="31">1</text>
<rect fill="#DEE6F1" height="24" width="12" x="144" y="18" />
<rect fill="none" height="24" stroke="#405C86" stroke-width="2" width="12" x="144" y="18" />
<text class="label" x="150" y="31">1</text>
<rect fill="#EEDDDB" height="24" width="12" x="120" y="18" />
<rect fill="none" height="24" stroke="#405C86" stroke-width="2" width="12" x="120" y="18" />
<text class="label" x="126" y="31">0</text>
<rect fill="#EEDDDB" height="24" width="12" x="96" y="18" />
<rect fill="none" height="24" stroke="#405C86" stroke-width="2" width="12" x="96" y="18" />
<text class="label" x="102" y="31">0</text>
<text class="register-name" x="80" y="30">Pg</text>
<text class="intrinsic-name" x="80" y="42">pg</text>
<text class="register-number" x="10" y="30">(1)</text>
<rect fill="none" height="24" stroke="#405C86" stroke-dasharray="3 1" stroke-dashoffset="1.5" stroke-width="1" width="24" x="450" y="66" />
<text class="label unused" x="462" y="79"></text>
<rect fill="none" height="24" stroke="#405C86" stroke-dasharray="3 1" stroke-dashoffset="1.5" stroke-width="1" width="24" x="426" y="66" />
<text class="label unused" x="438" y="79"></text>
<rect fill="none" height="24" stroke="#405C86" stroke-dasharray="3 1" stroke-dashoffset="1.5" stroke-width="1" width="24" x="402" y="66" />
<text class="label unused" x="414" y="79"></text>
<rect fill="none" height="24" stroke="#405C86" stroke-dasharray="3 1" stroke-dashoffset="1.5" stroke-width="1" width="24" x="378" y="66" />
<text class="label unused" x="390" y="79"></text>
<rect fill="none" height="24" stroke="#405C86" stroke-dasharray="3 1" stroke-dashoffset="1.5" stroke-width="1" width="24" x="354" y="66" />
<text class="label unused" x="366" y="79"></text>
<rect fill="none" height="24" stroke="#405C86" stroke-dasharray="3 1" stroke-dashoffset="1.5" stroke-width="1" width="24" x="330" y="66" />
<text class="label unused" x="342" y="79"></text>
<rect fill="none" height="24" stroke="#405C86" stroke-dasharray="3 1" stroke-dashoffset="1.5" stroke-width="1" width="24" x="306" y="66" />
<text class="label unused" x="318" y="79"></text>
<rect fill="none" height="24" stroke="#405C86" stroke-dasharray="3 1" stroke-dashoffset="1.5" stroke-width="1" width="24" x="282" y="66" />
<text class="label unused" x="294" y="79"></text>
<rect fill="none" height="24" stroke="#405C86" stroke-dasharray="3 1" stroke-dashoffset="1.5" stroke-width="1" width="24" x="258" y="66" />
<text class="label unused" x="270" y="79"></text>
<rect fill="none" height="24" stroke="#405C86" stroke-dasharray="3 1" stroke-dashoffset="1.5" stroke-width="1" width="24" x="234" y="66" />
<text class="label unused" x="246" y="79"></text>
<rect fill="none" height="24" stroke="#405C86" stroke-dasharray="3 1" stroke-dashoffset="1.5" stroke-width="1" width="24" x="210" y="66" />
<text class="label unused" x="222" y="79"></text>
<rect fill="none" height="24" stroke="#405C86" stroke-dasharray="3 1" stroke-dashoffset="1.5" stroke-width="1" width="24" x="186" y="66" />
<text class="label unused" x="198" y="79"></text>
<rect fill="none" height="24" stroke="#405C86" stroke-dasharray="3 1" stroke-dashoffset="1.5" stroke-width="1" width="24" x="162" y="66" />
<text class="label unused" x="174" y="79"></text>
<rect fill="none" height="24" stroke="#405C86" stroke-dasharray="3 1" stroke-dashoffset="1.5" stroke-width="1" width="24" x="138" y="66" />
<text class="label unused" x="150" y="79"></text>
<rect fill="#DEE6F1" height="24" width="24" x="114" y="66" />
<rect fill="none" height="24" stroke="#405C86" stroke-width="2" width="24" x="114" y="66" />
<rect fill="none" height="24" stroke="#405C86" stroke-dasharray="3 1" stroke-dashoffset="1.5" stroke-width="1" width="24" x="90" y="66" />
<text class="label unused" x="102" y="79"></text>
<text class="register-name" x="80" y="78">Zm</text>
<text class="intrinsic-name" x="80" y="90">data</text>
<text class="register-number" x="10" y="78">(2)</text>
<rect fill="#ECF1E0" height="24" width="24" x="450" y="114" />
<rect fill="none" height="24" stroke="#405C86" stroke-width="2" width="24" x="450" y="114" />
<rect fill="none" height="24" stroke="#405C86" stroke-dasharray="3 1" stroke-dashoffset="1.5" stroke-width="1" width="360" x="90" y="114" />
<text class="label unused" x="270" y="127"></text>
<text class="register-name" x="80" y="126">Bdn</text>
<text class="intrinsic-name" x="80" y="138">fallback</text>
<text class="register-number" x="10" y="126">(3)</text>
<rect fill="#DEE6F1" height="24" width="24" x="450" y="186" />
<rect fill="none" height="24" stroke="#405C86" stroke-width="2" width="24" x="450" y="186" />
<rect fill="none" height="24" stroke="#405C86" stroke-dasharray="3 1" stroke-dashoffset="1.5" stroke-width="1" width="360" x="90" y="186" />
<text class="label unused" x="270" y="199">0</text>
<text class="register-name" x="80" y="198">Bdn</text>
<text class="intrinsic-name" x="80" y="210">returns</text>
<text class="register-number" x="10" y="198">(4)</text>
<line stroke="#567DB6" stroke-width="1" x1="462" x2="462" y1="138.5" y2="185" />
<line stroke="#567DB6" stroke-width="1" x1="150" x2="126" y1="42.5" y2="65.5" />
<line stroke="#567DB6" stroke-width="1" x1="126" x2="462" y1="90.5" y2="161" />
<line marker-end="url(#arrowhead)" stroke="none" x1="462" x2="462" y1="138.5" y2="185" />
</svg>