<svg xmlns="http://www.w3.org/2000/svg" viewBox="0 0 3174 123">
<style>
.label { font: 14px Helvetica; dominant-baseline: middle; text-anchor: middle; }
.title-left { font: 12px Helvetica; dominant-baseline: middle; }
.title-right { font: 12px Helvetica; dominant-baseline: middle; text-anchor: end; }
.title-intrinsic { font: 12px Helvetica; dominant-baseline: middle; text-anchor: middle; fill: #6778ED; }
.title { font: 12px Helvetica; dominant-baseline: middle; text-anchor: middle; }
.title-unused { font: 12px Helvetica; dominant-baseline: middle; text-anchor: middle; fill: #AAA; }
.register-name { font: 14px Helvetica; dominant-baseline: middle; text-anchor: end; font-style: italic; }
.memory-name { font: 14px Helvetica; dominant-baseline: middle; text-anchor: end; }
.register-number { font: 14px Helvetica; dominant-baseline: middle; text-anchor: start; }
.intrinsic-name { font: 14px Helvetica; dominant-baseline: middle; text-anchor: end; fill: #6778ED; }
.intrinsic-color { fill: #6778ED; }
.small-label { font: 12px Helvetica; dominant-baseline: middle; text-anchor: middle; }
.label-10px { font: 10px Helvetica; dominant-baseline: middle; text-anchor: middle; }
.smaller-label { font: 9px Helvetica; dominant-baseline: middle; text-anchor: middle; }
.label-6px { font: 6px Helvetica; dominant-baseline: middle; text-anchor: middle; }
.label-7px { font: 7px Helvetica; dominant-baseline: middle; text-anchor: middle; }
.unused { fill: #AAA; }
.dim { fill: #888; }
</style>
<defs>
<marker id="arrowhead" markerWidth="10.75" markerHeight="24.5" refX="9.0" refY="6.125" orient="auto">
<polyline points="0.5 0.5, 8.75 6.125, 0.5 11.75" stroke="#567DB6" stroke-width="1" fill="none"/>
</marker>
</defs>
<line stroke="#567DB6" stroke-width="1" x1="3066" x2="3137.75" y1="42.5" y2="89" />
<line stroke="#567DB6" stroke-width="1" x1="2874" x2="2945.75" y1="42.5" y2="89" />
<line stroke="#567DB6" stroke-width="1" x1="2682" x2="2753.75" y1="42.5" y2="89" />
<line stroke="#567DB6" stroke-width="1" x1="2490" x2="2561.75" y1="42.5" y2="89" />
<line stroke="#567DB6" stroke-width="1" x1="2298" x2="2369.75" y1="42.5" y2="89" />
<line stroke="#567DB6" stroke-width="1" x1="2106" x2="2177.75" y1="42.5" y2="89" />
<line stroke="#567DB6" stroke-width="1" x1="1914" x2="1985.75" y1="42.5" y2="89" />
<line stroke="#567DB6" stroke-width="1" x1="1722" x2="1793.75" y1="42.5" y2="89" />
<line stroke="#567DB6" stroke-width="1" x1="1530" x2="1601.75" y1="42.5" y2="89" />
<line stroke="#567DB6" stroke-width="1" x1="1338" x2="1409.75" y1="42.5" y2="89" />
<line stroke="#567DB6" stroke-width="1" x1="1146" x2="1217.75" y1="42.5" y2="89" />
<line stroke="#567DB6" stroke-width="1" x1="954" x2="1025.75" y1="42.5" y2="89" />
<line stroke="#567DB6" stroke-width="1" x1="762" x2="833.75" y1="42.5" y2="89" />
<line stroke="#567DB6" stroke-width="1" x1="570" x2="641.75" y1="42.5" y2="89" />
<line stroke="#567DB6" stroke-width="1" x1="378" x2="449.75" y1="42.5" y2="89" />
<line stroke="#567DB6" stroke-width="1" x1="186" x2="257.75" y1="42.5" y2="89" />
<text class="title-left" x="90" y="9">upper</text>
<text class="title-right" x="3162" y="9">lower</text>
<rect fill="#DEE6F1" height="24" width="192" x="2970" y="18" />
<rect fill="none" height="24" stroke="#405C86" stroke-width="2" width="192" x="2970" y="18" />
<rect fill="#DEE6F1" height="24" width="192" x="2778" y="18" />
<rect fill="none" height="24" stroke="#405C86" stroke-width="2" width="192" x="2778" y="18" />
<rect fill="#DEE6F1" height="24" width="192" x="2586" y="18" />
<rect fill="none" height="24" stroke="#405C86" stroke-width="2" width="192" x="2586" y="18" />
<rect fill="#DEE6F1" height="24" width="192" x="2394" y="18" />
<rect fill="none" height="24" stroke="#405C86" stroke-width="2" width="192" x="2394" y="18" />
<rect fill="#DEE6F1" height="24" width="192" x="2202" y="18" />
<rect fill="none" height="24" stroke="#405C86" stroke-width="2" width="192" x="2202" y="18" />
<rect fill="#DEE6F1" height="24" width="192" x="2010" y="18" />
<rect fill="none" height="24" stroke="#405C86" stroke-width="2" width="192" x="2010" y="18" />
<rect fill="#DEE6F1" height="24" width="192" x="1818" y="18" />
<rect fill="none" height="24" stroke="#405C86" stroke-width="2" width="192" x="1818" y="18" />
<rect fill="#DEE6F1" height="24" width="192" x="1626" y="18" />
<rect fill="none" height="24" stroke="#405C86" stroke-width="2" width="192" x="1626" y="18" />
<rect fill="#DEE6F1" height="24" width="192" x="1434" y="18" />
<rect fill="none" height="24" stroke="#405C86" stroke-width="2" width="192" x="1434" y="18" />
<rect fill="#DEE6F1" height="24" width="192" x="1242" y="18" />
<rect fill="none" height="24" stroke="#405C86" stroke-width="2" width="192" x="1242" y="18" />
<rect fill="#DEE6F1" height="24" width="192" x="1050" y="18" />
<rect fill="none" height="24" stroke="#405C86" stroke-width="2" width="192" x="1050" y="18" />
<rect fill="#DEE6F1" height="24" width="192" x="858" y="18" />
<rect fill="none" height="24" stroke="#405C86" stroke-width="2" width="192" x="858" y="18" />
<rect fill="#DEE6F1" height="24" width="192" x="666" y="18" />
<rect fill="none" height="24" stroke="#405C86" stroke-width="2" width="192" x="666" y="18" />
<rect fill="#DEE6F1" height="24" width="192" x="474" y="18" />
<rect fill="none" height="24" stroke="#405C86" stroke-width="2" width="192" x="474" y="18" />
<rect fill="#DEE6F1" height="24" width="192" x="282" y="18" />
<rect fill="none" height="24" stroke="#405C86" stroke-width="2" width="192" x="282" y="18" />
<rect fill="#DEE6F1" height="24" width="192" x="90" y="18" />
<rect fill="none" height="24" stroke="#405C86" stroke-width="2" width="192" x="90" y="18" />
<text class="register-name" x="80" y="30">Zn</text>
<text class="intrinsic-name" x="80" y="42">op</text>
<text class="register-number" x="10" y="30">(1)</text>
<rect fill="#DEE6F1" height="24" width="48.5" x="3113.5" y="90" />
<rect fill="none" height="24" stroke="#405C86" stroke-width="2" width="48.5" x="3113.5" y="90" />
<text class="label" x="3041.75" y="103">0</text>
<rect fill="none" height="24" stroke="#405C86" stroke-width="2" width="192" x="2970" y="90" />
<rect fill="#DEE6F1" height="24" width="48.5" x="2921.5" y="90" />
<rect fill="none" height="24" stroke="#405C86" stroke-width="2" width="48.5" x="2921.5" y="90" />
<text class="label" x="2849.75" y="103">0</text>
<rect fill="none" height="24" stroke="#405C86" stroke-width="2" width="192" x="2778" y="90" />
<rect fill="#DEE6F1" height="24" width="48.5" x="2729.5" y="90" />
<rect fill="none" height="24" stroke="#405C86" stroke-width="2" width="48.5" x="2729.5" y="90" />
<text class="label" x="2657.75" y="103">0</text>
<rect fill="none" height="24" stroke="#405C86" stroke-width="2" width="192" x="2586" y="90" />
<rect fill="#DEE6F1" height="24" width="48.5" x="2537.5" y="90" />
<rect fill="none" height="24" stroke="#405C86" stroke-width="2" width="48.5" x="2537.5" y="90" />
<text class="label" x="2465.75" y="103">0</text>
<rect fill="none" height="24" stroke="#405C86" stroke-width="2" width="192" x="2394" y="90" />
<rect fill="#DEE6F1" height="24" width="48.5" x="2345.5" y="90" />
<rect fill="none" height="24" stroke="#405C86" stroke-width="2" width="48.5" x="2345.5" y="90" />
<text class="label" x="2273.75" y="103">0</text>
<rect fill="none" height="24" stroke="#405C86" stroke-width="2" width="192" x="2202" y="90" />
<rect fill="#DEE6F1" height="24" width="48.5" x="2153.5" y="90" />
<rect fill="none" height="24" stroke="#405C86" stroke-width="2" width="48.5" x="2153.5" y="90" />
<text class="label" x="2081.75" y="103">0</text>
<rect fill="none" height="24" stroke="#405C86" stroke-width="2" width="192" x="2010" y="90" />
<rect fill="#DEE6F1" height="24" width="48.5" x="1961.5" y="90" />
<rect fill="none" height="24" stroke="#405C86" stroke-width="2" width="48.5" x="1961.5" y="90" />
<text class="label" x="1889.75" y="103">0</text>
<rect fill="none" height="24" stroke="#405C86" stroke-width="2" width="192" x="1818" y="90" />
<rect fill="#DEE6F1" height="24" width="48.5" x="1769.5" y="90" />
<rect fill="none" height="24" stroke="#405C86" stroke-width="2" width="48.5" x="1769.5" y="90" />
<text class="label" x="1697.75" y="103">0</text>
<rect fill="none" height="24" stroke="#405C86" stroke-width="2" width="192" x="1626" y="90" />
<rect fill="#DEE6F1" height="24" width="48.5" x="1577.5" y="90" />
<rect fill="none" height="24" stroke="#405C86" stroke-width="2" width="48.5" x="1577.5" y="90" />
<text class="label" x="1505.75" y="103">0</text>
<rect fill="none" height="24" stroke="#405C86" stroke-width="2" width="192" x="1434" y="90" />
<rect fill="#DEE6F1" height="24" width="48.5" x="1385.5" y="90" />
<rect fill="none" height="24" stroke="#405C86" stroke-width="2" width="48.5" x="1385.5" y="90" />
<text class="label" x="1313.75" y="103">0</text>
<rect fill="none" height="24" stroke="#405C86" stroke-width="2" width="192" x="1242" y="90" />
<rect fill="#DEE6F1" height="24" width="48.5" x="1193.5" y="90" />
<rect fill="none" height="24" stroke="#405C86" stroke-width="2" width="48.5" x="1193.5" y="90" />
<text class="label" x="1121.75" y="103">0</text>
<rect fill="none" height="24" stroke="#405C86" stroke-width="2" width="192" x="1050" y="90" />
<rect fill="#DEE6F1" height="24" width="48.5" x="1001.5" y="90" />
<rect fill="none" height="24" stroke="#405C86" stroke-width="2" width="48.5" x="1001.5" y="90" />
<text class="label" x="929.75" y="103">0</text>
<rect fill="none" height="24" stroke="#405C86" stroke-width="2" width="192" x="858" y="90" />
<rect fill="#DEE6F1" height="24" width="48.5" x="809.5" y="90" />
<rect fill="none" height="24" stroke="#405C86" stroke-width="2" width="48.5" x="809.5" y="90" />
<text class="label" x="737.75" y="103">0</text>
<rect fill="none" height="24" stroke="#405C86" stroke-width="2" width="192" x="666" y="90" />
<rect fill="#DEE6F1" height="24" width="48.5" x="617.5" y="90" />
<rect fill="none" height="24" stroke="#405C86" stroke-width="2" width="48.5" x="617.5" y="90" />
<text class="label" x="545.75" y="103">0</text>
<rect fill="none" height="24" stroke="#405C86" stroke-width="2" width="192" x="474" y="90" />
<rect fill="#DEE6F1" height="24" width="48.5" x="425.5" y="90" />
<rect fill="none" height="24" stroke="#405C86" stroke-width="2" width="48.5" x="425.5" y="90" />
<text class="label" x="353.75" y="103">0</text>
<rect fill="none" height="24" stroke="#405C86" stroke-width="2" width="192" x="282" y="90" />
<rect fill="#DEE6F1" height="24" width="48.5" x="233.5" y="90" />
<rect fill="none" height="24" stroke="#405C86" stroke-width="2" width="48.5" x="233.5" y="90" />
<text class="label" x="161.75" y="103">0</text>
<rect fill="none" height="24" stroke="#405C86" stroke-width="2" width="192" x="90" y="90" />
<text class="register-name" x="80" y="102">Zd</text>
<text class="intrinsic-name" x="80" y="114">returns</text>
<text class="register-number" x="10" y="102">(2)</text>
<line marker-end="url(#arrowhead)" stroke="none" x1="3066" x2="3137.75" y1="42.5" y2="89" />
<line marker-end="url(#arrowhead)" stroke="none" x1="2874" x2="2945.75" y1="42.5" y2="89" />
<line marker-end="url(#arrowhead)" stroke="none" x1="2682" x2="2753.75" y1="42.5" y2="89" />
<line marker-end="url(#arrowhead)" stroke="none" x1="2490" x2="2561.75" y1="42.5" y2="89" />
<line marker-end="url(#arrowhead)" stroke="none" x1="2298" x2="2369.75" y1="42.5" y2="89" />
<line marker-end="url(#arrowhead)" stroke="none" x1="2106" x2="2177.75" y1="42.5" y2="89" />
<line marker-end="url(#arrowhead)" stroke="none" x1="1914" x2="1985.75" y1="42.5" y2="89" />
<line marker-end="url(#arrowhead)" stroke="none" x1="1722" x2="1793.75" y1="42.5" y2="89" />
<line marker-end="url(#arrowhead)" stroke="none" x1="1530" x2="1601.75" y1="42.5" y2="89" />
<line marker-end="url(#arrowhead)" stroke="none" x1="1338" x2="1409.75" y1="42.5" y2="89" />
<line marker-end="url(#arrowhead)" stroke="none" x1="1146" x2="1217.75" y1="42.5" y2="89" />
<line marker-end="url(#arrowhead)" stroke="none" x1="954" x2="1025.75" y1="42.5" y2="89" />
<line marker-end="url(#arrowhead)" stroke="none" x1="762" x2="833.75" y1="42.5" y2="89" />
<line marker-end="url(#arrowhead)" stroke="none" x1="570" x2="641.75" y1="42.5" y2="89" />
<line marker-end="url(#arrowhead)" stroke="none" x1="378" x2="449.75" y1="42.5" y2="89" />
<line marker-end="url(#arrowhead)" stroke="none" x1="186" x2="257.75" y1="42.5" y2="89" />
</svg>