<svg xmlns="http://www.w3.org/2000/svg" viewBox="0 0 1638 243">
<style>
.label { font: 14px Helvetica; dominant-baseline: middle; text-anchor: middle; }
.title-left { font: 12px Helvetica; dominant-baseline: middle; }
.title-right { font: 12px Helvetica; dominant-baseline: middle; text-anchor: end; }
.title-intrinsic { font: 12px Helvetica; dominant-baseline: middle; text-anchor: middle; fill: #6778ED; }
.title { font: 12px Helvetica; dominant-baseline: middle; text-anchor: middle; }
.title-unused { font: 12px Helvetica; dominant-baseline: middle; text-anchor: middle; fill: #AAA; }
.register-name { font: 14px Helvetica; dominant-baseline: middle; text-anchor: end; font-style: italic; }
.memory-name { font: 14px Helvetica; dominant-baseline: middle; text-anchor: end; }
.register-number { font: 14px Helvetica; dominant-baseline: middle; text-anchor: start; }
.intrinsic-name { font: 14px Helvetica; dominant-baseline: middle; text-anchor: end; fill: #6778ED; }
.intrinsic-color { fill: #6778ED; }
.small-label { font: 12px Helvetica; dominant-baseline: middle; text-anchor: middle; }
.label-10px { font: 10px Helvetica; dominant-baseline: middle; text-anchor: middle; }
.smaller-label { font: 9px Helvetica; dominant-baseline: middle; text-anchor: middle; }
.label-6px { font: 6px Helvetica; dominant-baseline: middle; text-anchor: middle; }
.label-7px { font: 7px Helvetica; dominant-baseline: middle; text-anchor: middle; }
.unused { fill: #AAA; }
.dim { fill: #888; }
</style>
<defs>
<marker id="arrowhead" markerWidth="10.75" markerHeight="24.5" refX="9.0" refY="6.125" orient="auto">
<polyline points="0.5 0.5, 8.75 6.125, 0.5 11.75" stroke="#567DB6" stroke-width="1" fill="none"/>
</marker>
</defs>
<line stroke="#000" stroke-width="2" x1="474" x2="474" y1="10" y2="242" />
<line stroke="#000" stroke-width="2" x1="858" x2="858" y1="10" y2="242" />
<line stroke="#000" stroke-width="2" x1="1242" x2="1242" y1="10" y2="242" />
<text class="title-left" x="90" y="9">upper</text>
<text class="title-right" x="1626" y="9">lower</text>
<text class="title-intrinsic" x="1386" y="8.5">imm</text>
<text class="title-intrinsic" x="1002" y="8.5">imm</text>
<text class="title-intrinsic" x="618" y="8.5">imm</text>
<text class="title-intrinsic" x="234" y="8.5">imm</text>
<rect fill="none" height="24" stroke="#405C86" stroke-dasharray="3 1" stroke-dashoffset="1.5" stroke-width="1" width="96" x="1530" y="18" />
<text class="label unused" x="1578" y="31">0</text>
<rect fill="none" height="24" stroke="#405C86" stroke-dasharray="3 1" stroke-dashoffset="1.5" stroke-width="1" width="96" x="1434" y="18" />
<text class="label unused" x="1482" y="31">1</text>
<rect fill="#DEE6F1" height="24" width="48" x="1386" y="18" />
<rect fill="none" height="24" stroke="#405C86" stroke-width="2" width="48" x="1386" y="18" />
<text class="label" x="1410" y="31">A</text>
<rect fill="#DEE6F1" height="24" width="48" x="1338" y="18" />
<rect fill="none" height="24" stroke="#405C86" stroke-width="2" width="48" x="1338" y="18" />
<text class="label" x="1362" y="31">C</text>
<rect fill="none" height="24" stroke="#405C86" stroke-dasharray="3 1" stroke-dashoffset="1.5" stroke-width="1" width="96" x="1242" y="18" />
<text class="label unused" x="1290" y="31">3</text>
<rect fill="none" height="24" stroke="#405C86" stroke-dasharray="3 1" stroke-dashoffset="1.5" stroke-width="1" width="96" x="1146" y="18" />
<text class="label unused" x="1194" y="31">0</text>
<rect fill="none" height="24" stroke="#405C86" stroke-dasharray="3 1" stroke-dashoffset="1.5" stroke-width="1" width="96" x="1050" y="18" />
<text class="label unused" x="1098" y="31">1</text>
<rect fill="#DEE6F1" height="24" width="48" x="1002" y="18" />
<rect fill="none" height="24" stroke="#405C86" stroke-width="2" width="48" x="1002" y="18" />
<text class="label" x="1026" y="31">A</text>
<rect fill="#DEE6F1" height="24" width="48" x="954" y="18" />
<rect fill="none" height="24" stroke="#405C86" stroke-width="2" width="48" x="954" y="18" />
<text class="label" x="978" y="31">C</text>
<rect fill="none" height="24" stroke="#405C86" stroke-dasharray="3 1" stroke-dashoffset="1.5" stroke-width="1" width="96" x="858" y="18" />
<text class="label unused" x="906" y="31">3</text>
<rect fill="none" height="24" stroke="#405C86" stroke-dasharray="3 1" stroke-dashoffset="1.5" stroke-width="1" width="96" x="762" y="18" />
<text class="label unused" x="810" y="31">0</text>
<rect fill="none" height="24" stroke="#405C86" stroke-dasharray="3 1" stroke-dashoffset="1.5" stroke-width="1" width="96" x="666" y="18" />
<text class="label unused" x="714" y="31">1</text>
<rect fill="#DEE6F1" height="24" width="48" x="618" y="18" />
<rect fill="none" height="24" stroke="#405C86" stroke-width="2" width="48" x="618" y="18" />
<text class="label" x="642" y="31">A</text>
<rect fill="#DEE6F1" height="24" width="48" x="570" y="18" />
<rect fill="none" height="24" stroke="#405C86" stroke-width="2" width="48" x="570" y="18" />
<text class="label" x="594" y="31">C</text>
<rect fill="none" height="24" stroke="#405C86" stroke-dasharray="3 1" stroke-dashoffset="1.5" stroke-width="1" width="96" x="474" y="18" />
<text class="label unused" x="522" y="31">3</text>
<rect fill="none" height="24" stroke="#405C86" stroke-dasharray="3 1" stroke-dashoffset="1.5" stroke-width="1" width="96" x="378" y="18" />
<text class="label unused" x="426" y="31">0</text>
<rect fill="none" height="24" stroke="#405C86" stroke-dasharray="3 1" stroke-dashoffset="1.5" stroke-width="1" width="96" x="282" y="18" />
<text class="label unused" x="330" y="31">1</text>
<rect fill="#DEE6F1" height="24" width="48" x="234" y="18" />
<rect fill="none" height="24" stroke="#405C86" stroke-width="2" width="48" x="234" y="18" />
<text class="label" x="258" y="31">A</text>
<rect fill="#DEE6F1" height="24" width="48" x="186" y="18" />
<rect fill="none" height="24" stroke="#405C86" stroke-width="2" width="48" x="186" y="18" />
<text class="label" x="210" y="31">C</text>
<rect fill="none" height="24" stroke="#405C86" stroke-dasharray="3 1" stroke-dashoffset="1.5" stroke-width="1" width="96" x="90" y="18" />
<text class="label unused" x="138" y="31">3</text>
<text class="register-name" x="80" y="30">Zm</text>
<text class="register-number" x="10" y="30">(1)</text>
<rect fill="#EEDDDB" height="24" width="48" x="1578" y="90" />
<rect fill="none" height="24" stroke="#405C86" stroke-width="2" width="48" x="1578" y="90" />
<text class="label" x="1602" y="103">B</text>
<rect fill="#EEDDDB" height="24" width="48" x="1530" y="90" />
<rect fill="none" height="24" stroke="#405C86" stroke-width="2" width="48" x="1530" y="90" />
<text class="label" x="1554" y="103">D</text>
<rect fill="#ECF1E0" height="24" width="48" x="1482" y="90" />
<rect fill="none" height="24" stroke="#405C86" stroke-width="2" width="48" x="1482" y="90" />
<text class="label" x="1506" y="103">F</text>
<rect fill="#ECF1E0" height="24" width="48" x="1434" y="90" />
<rect fill="none" height="24" stroke="#405C86" stroke-width="2" width="48" x="1434" y="90" />
<text class="label" x="1458" y="103">H</text>
<rect fill="#E5E0EB" height="24" width="48" x="1386" y="90" />
<rect fill="none" height="24" stroke="#405C86" stroke-width="2" width="48" x="1386" y="90" />
<text class="label" x="1410" y="103">B</text>
<rect fill="#E5E0EB" height="24" width="48" x="1338" y="90" />
<rect fill="none" height="24" stroke="#405C86" stroke-width="2" width="48" x="1338" y="90" />
<text class="label" x="1362" y="103">D</text>
<rect fill="#FAEBDC" height="24" width="48" x="1290" y="90" />
<rect fill="none" height="24" stroke="#405C86" stroke-width="2" width="48" x="1290" y="90" />
<text class="label" x="1314" y="103">F</text>
<rect fill="#FAEBDC" height="24" width="48" x="1242" y="90" />
<rect fill="none" height="24" stroke="#405C86" stroke-width="2" width="48" x="1242" y="90" />
<text class="label" x="1266" y="103">H</text>
<rect fill="#EEDDDB" height="24" width="48" x="1194" y="90" />
<rect fill="none" height="24" stroke="#405C86" stroke-width="2" width="48" x="1194" y="90" />
<text class="label" x="1218" y="103">B</text>
<rect fill="#EEDDDB" height="24" width="48" x="1146" y="90" />
<rect fill="none" height="24" stroke="#405C86" stroke-width="2" width="48" x="1146" y="90" />
<text class="label" x="1170" y="103">D</text>
<rect fill="#ECF1E0" height="24" width="48" x="1098" y="90" />
<rect fill="none" height="24" stroke="#405C86" stroke-width="2" width="48" x="1098" y="90" />
<text class="label" x="1122" y="103">F</text>
<rect fill="#ECF1E0" height="24" width="48" x="1050" y="90" />
<rect fill="none" height="24" stroke="#405C86" stroke-width="2" width="48" x="1050" y="90" />
<text class="label" x="1074" y="103">H</text>
<rect fill="#E5E0EB" height="24" width="48" x="1002" y="90" />
<rect fill="none" height="24" stroke="#405C86" stroke-width="2" width="48" x="1002" y="90" />
<text class="label" x="1026" y="103">B</text>
<rect fill="#E5E0EB" height="24" width="48" x="954" y="90" />
<rect fill="none" height="24" stroke="#405C86" stroke-width="2" width="48" x="954" y="90" />
<text class="label" x="978" y="103">D</text>
<rect fill="#FAEBDC" height="24" width="48" x="906" y="90" />
<rect fill="none" height="24" stroke="#405C86" stroke-width="2" width="48" x="906" y="90" />
<text class="label" x="930" y="103">F</text>
<rect fill="#FAEBDC" height="24" width="48" x="858" y="90" />
<rect fill="none" height="24" stroke="#405C86" stroke-width="2" width="48" x="858" y="90" />
<text class="label" x="882" y="103">H</text>
<rect fill="#EEDDDB" height="24" width="48" x="810" y="90" />
<rect fill="none" height="24" stroke="#405C86" stroke-width="2" width="48" x="810" y="90" />
<text class="label" x="834" y="103">B</text>
<rect fill="#EEDDDB" height="24" width="48" x="762" y="90" />
<rect fill="none" height="24" stroke="#405C86" stroke-width="2" width="48" x="762" y="90" />
<text class="label" x="786" y="103">D</text>
<rect fill="#ECF1E0" height="24" width="48" x="714" y="90" />
<rect fill="none" height="24" stroke="#405C86" stroke-width="2" width="48" x="714" y="90" />
<text class="label" x="738" y="103">F</text>
<rect fill="#ECF1E0" height="24" width="48" x="666" y="90" />
<rect fill="none" height="24" stroke="#405C86" stroke-width="2" width="48" x="666" y="90" />
<text class="label" x="690" y="103">H</text>
<rect fill="#E5E0EB" height="24" width="48" x="618" y="90" />
<rect fill="none" height="24" stroke="#405C86" stroke-width="2" width="48" x="618" y="90" />
<text class="label" x="642" y="103">B</text>
<rect fill="#E5E0EB" height="24" width="48" x="570" y="90" />
<rect fill="none" height="24" stroke="#405C86" stroke-width="2" width="48" x="570" y="90" />
<text class="label" x="594" y="103">D</text>
<rect fill="#FAEBDC" height="24" width="48" x="522" y="90" />
<rect fill="none" height="24" stroke="#405C86" stroke-width="2" width="48" x="522" y="90" />
<text class="label" x="546" y="103">F</text>
<rect fill="#FAEBDC" height="24" width="48" x="474" y="90" />
<rect fill="none" height="24" stroke="#405C86" stroke-width="2" width="48" x="474" y="90" />
<text class="label" x="498" y="103">H</text>
<rect fill="#EEDDDB" height="24" width="48" x="426" y="90" />
<rect fill="none" height="24" stroke="#405C86" stroke-width="2" width="48" x="426" y="90" />
<text class="label" x="450" y="103">B</text>
<rect fill="#EEDDDB" height="24" width="48" x="378" y="90" />
<rect fill="none" height="24" stroke="#405C86" stroke-width="2" width="48" x="378" y="90" />
<text class="label" x="402" y="103">D</text>
<rect fill="#ECF1E0" height="24" width="48" x="330" y="90" />
<rect fill="none" height="24" stroke="#405C86" stroke-width="2" width="48" x="330" y="90" />
<text class="label" x="354" y="103">F</text>
<rect fill="#ECF1E0" height="24" width="48" x="282" y="90" />
<rect fill="none" height="24" stroke="#405C86" stroke-width="2" width="48" x="282" y="90" />
<text class="label" x="306" y="103">H</text>
<rect fill="#E5E0EB" height="24" width="48" x="234" y="90" />
<rect fill="none" height="24" stroke="#405C86" stroke-width="2" width="48" x="234" y="90" />
<text class="label" x="258" y="103">B</text>
<rect fill="#E5E0EB" height="24" width="48" x="186" y="90" />
<rect fill="none" height="24" stroke="#405C86" stroke-width="2" width="48" x="186" y="90" />
<text class="label" x="210" y="103">D</text>
<rect fill="#FAEBDC" height="24" width="48" x="138" y="90" />
<rect fill="none" height="24" stroke="#405C86" stroke-width="2" width="48" x="138" y="90" />
<text class="label" x="162" y="103">F</text>
<rect fill="#FAEBDC" height="24" width="48" x="90" y="90" />
<rect fill="none" height="24" stroke="#405C86" stroke-width="2" width="48" x="90" y="90" />
<text class="label" x="114" y="103">H</text>
<text class="register-name" x="80" y="102">Zn</text>
<text class="register-number" x="10" y="102">(2)</text>
<rect fill="#EEDDDB" height="24" width="96" x="1530" y="138" />
<rect fill="none" height="24" stroke="#405C86" stroke-width="2" width="96" x="1530" y="138" />
<text class="label" x="1578" y="151">E</text>
<rect fill="#ECF1E0" height="24" width="96" x="1434" y="138" />
<rect fill="none" height="24" stroke="#405C86" stroke-width="2" width="96" x="1434" y="138" />
<text class="label" x="1482" y="151">E</text>
<rect fill="#E5E0EB" height="24" width="96" x="1338" y="138" />
<rect fill="none" height="24" stroke="#405C86" stroke-width="2" width="96" x="1338" y="138" />
<text class="label" x="1386" y="151">E</text>
<rect fill="#FAEBDC" height="24" width="96" x="1242" y="138" />
<rect fill="none" height="24" stroke="#405C86" stroke-width="2" width="96" x="1242" y="138" />
<text class="label" x="1290" y="151">E</text>
<rect fill="#EEDDDB" height="24" width="96" x="1146" y="138" />
<rect fill="none" height="24" stroke="#405C86" stroke-width="2" width="96" x="1146" y="138" />
<text class="label" x="1194" y="151">E</text>
<rect fill="#ECF1E0" height="24" width="96" x="1050" y="138" />
<rect fill="none" height="24" stroke="#405C86" stroke-width="2" width="96" x="1050" y="138" />
<text class="label" x="1098" y="151">E</text>
<rect fill="#E5E0EB" height="24" width="96" x="954" y="138" />
<rect fill="none" height="24" stroke="#405C86" stroke-width="2" width="96" x="954" y="138" />
<text class="label" x="1002" y="151">E</text>
<rect fill="#FAEBDC" height="24" width="96" x="858" y="138" />
<rect fill="none" height="24" stroke="#405C86" stroke-width="2" width="96" x="858" y="138" />
<text class="label" x="906" y="151">E</text>
<rect fill="#EEDDDB" height="24" width="96" x="762" y="138" />
<rect fill="none" height="24" stroke="#405C86" stroke-width="2" width="96" x="762" y="138" />
<text class="label" x="810" y="151">E</text>
<rect fill="#ECF1E0" height="24" width="96" x="666" y="138" />
<rect fill="none" height="24" stroke="#405C86" stroke-width="2" width="96" x="666" y="138" />
<text class="label" x="714" y="151">E</text>
<rect fill="#E5E0EB" height="24" width="96" x="570" y="138" />
<rect fill="none" height="24" stroke="#405C86" stroke-width="2" width="96" x="570" y="138" />
<text class="label" x="618" y="151">E</text>
<rect fill="#FAEBDC" height="24" width="96" x="474" y="138" />
<rect fill="none" height="24" stroke="#405C86" stroke-width="2" width="96" x="474" y="138" />
<text class="label" x="522" y="151">E</text>
<rect fill="#EEDDDB" height="24" width="96" x="378" y="138" />
<rect fill="none" height="24" stroke="#405C86" stroke-width="2" width="96" x="378" y="138" />
<text class="label" x="426" y="151">E</text>
<rect fill="#ECF1E0" height="24" width="96" x="282" y="138" />
<rect fill="none" height="24" stroke="#405C86" stroke-width="2" width="96" x="282" y="138" />
<text class="label" x="330" y="151">E</text>
<rect fill="#E5E0EB" height="24" width="96" x="186" y="138" />
<rect fill="none" height="24" stroke="#405C86" stroke-width="2" width="96" x="186" y="138" />
<text class="label" x="234" y="151">E</text>
<rect fill="#FAEBDC" height="24" width="96" x="90" y="138" />
<rect fill="none" height="24" stroke="#405C86" stroke-width="2" width="96" x="90" y="138" />
<text class="label" x="138" y="151">E</text>
<text class="register-name" x="80" y="150">Zda</text>
<text class="register-number" x="10" y="150">(3)</text>
<rect fill="#EEDDDB" height="24" width="96" x="1530" y="210" />
<rect fill="none" height="24" stroke="#405C86" stroke-width="2" width="96" x="1530" y="210" />
<text class="label" x="1578" y="223">A*B+C*D+E</text>
<rect fill="#ECF1E0" height="24" width="96" x="1434" y="210" />
<rect fill="none" height="24" stroke="#405C86" stroke-width="2" width="96" x="1434" y="210" />
<text class="label" x="1482" y="223">A*B+C*D+E</text>
<rect fill="#E5E0EB" height="24" width="96" x="1338" y="210" />
<rect fill="none" height="24" stroke="#405C86" stroke-width="2" width="96" x="1338" y="210" />
<text class="label" x="1386" y="223">A*B+C*D+E</text>
<rect fill="#FAEBDC" height="24" width="96" x="1242" y="210" />
<rect fill="none" height="24" stroke="#405C86" stroke-width="2" width="96" x="1242" y="210" />
<text class="label" x="1290" y="223">A*B+C*D+E</text>
<rect fill="#EEDDDB" height="24" width="96" x="1146" y="210" />
<rect fill="none" height="24" stroke="#405C86" stroke-width="2" width="96" x="1146" y="210" />
<text class="label" x="1194" y="223">A*B+C*D+E</text>
<rect fill="#ECF1E0" height="24" width="96" x="1050" y="210" />
<rect fill="none" height="24" stroke="#405C86" stroke-width="2" width="96" x="1050" y="210" />
<text class="label" x="1098" y="223">A*B+C*D+E</text>
<rect fill="#E5E0EB" height="24" width="96" x="954" y="210" />
<rect fill="none" height="24" stroke="#405C86" stroke-width="2" width="96" x="954" y="210" />
<text class="label" x="1002" y="223">A*B+C*D+E</text>
<rect fill="#FAEBDC" height="24" width="96" x="858" y="210" />
<rect fill="none" height="24" stroke="#405C86" stroke-width="2" width="96" x="858" y="210" />
<text class="label" x="906" y="223">A*B+C*D+E</text>
<rect fill="#EEDDDB" height="24" width="96" x="762" y="210" />
<rect fill="none" height="24" stroke="#405C86" stroke-width="2" width="96" x="762" y="210" />
<text class="label" x="810" y="223">A*B+C*D+E</text>
<rect fill="#ECF1E0" height="24" width="96" x="666" y="210" />
<rect fill="none" height="24" stroke="#405C86" stroke-width="2" width="96" x="666" y="210" />
<text class="label" x="714" y="223">A*B+C*D+E</text>
<rect fill="#E5E0EB" height="24" width="96" x="570" y="210" />
<rect fill="none" height="24" stroke="#405C86" stroke-width="2" width="96" x="570" y="210" />
<text class="label" x="618" y="223">A*B+C*D+E</text>
<rect fill="#FAEBDC" height="24" width="96" x="474" y="210" />
<rect fill="none" height="24" stroke="#405C86" stroke-width="2" width="96" x="474" y="210" />
<text class="label" x="522" y="223">A*B+C*D+E</text>
<rect fill="#EEDDDB" height="24" width="96" x="378" y="210" />
<rect fill="none" height="24" stroke="#405C86" stroke-width="2" width="96" x="378" y="210" />
<text class="label" x="426" y="223">A*B+C*D+E</text>
<rect fill="#ECF1E0" height="24" width="96" x="282" y="210" />
<rect fill="none" height="24" stroke="#405C86" stroke-width="2" width="96" x="282" y="210" />
<text class="label" x="330" y="223">A*B+C*D+E</text>
<rect fill="#E5E0EB" height="24" width="96" x="186" y="210" />
<rect fill="none" height="24" stroke="#405C86" stroke-width="2" width="96" x="186" y="210" />
<text class="label" x="234" y="223">A*B+C*D+E</text>
<rect fill="#FAEBDC" height="24" width="96" x="90" y="210" />
<rect fill="none" height="24" stroke="#405C86" stroke-width="2" width="96" x="90" y="210" />
<text class="label" x="138" y="223">A*B+C*D+E</text>
<text class="register-name" x="80" y="222">Zda</text>
<text class="register-number" x="10" y="222">(4)</text>
<polyline fill="none" points="1341.0 42.5,1343.0 46.5,1385.0 46.5,1386.0 48.5,1386.0 52.5,1386.0 48.5,1387.0 46.5,1429.0 46.5,1431.0 42.5" stroke="#567DB6" stroke-width="1" />
<polyline fill="none" points="1533.0 89.5,1535.0 85.5,1577.0 85.5,1578.0 83.5,1578.0 79.5,1578.0 83.5,1579.0 85.5,1621.0 85.5,1623.0 89.5" stroke="#567DB6" stroke-width="1" />
<polyline fill="none" points="1386.0 51.5,1386.0 52.5,1578.0 79.5,1578.0 80.5" stroke="#567DB6" stroke-width="1" />
<polyline fill="none" points="1437.0 89.5,1439.0 85.5,1481.0 85.5,1482.0 83.5,1482.0 79.5,1482.0 83.5,1483.0 85.5,1525.0 85.5,1527.0 89.5" stroke="#567DB6" stroke-width="1" />
<polyline fill="none" points="1386.0 51.5,1386.0 52.5,1482.0 79.5,1482.0 80.5" stroke="#567DB6" stroke-width="1" />
<polyline fill="none" points="1341.0 89.5,1343.0 85.5,1385.0 85.5,1386.0 83.5,1386.0 79.5,1386.0 83.5,1387.0 85.5,1429.0 85.5,1431.0 89.5" stroke="#567DB6" stroke-width="1" />
<polyline fill="none" points="1386.0 51.5,1386.0 52.5,1386.0 79.5,1386.0 80.5" stroke="#567DB6" stroke-width="1" />
<polyline fill="none" points="1245.0 89.5,1247.0 85.5,1289.0 85.5,1290.0 83.5,1290.0 79.5,1290.0 83.5,1291.0 85.5,1333.0 85.5,1335.0 89.5" stroke="#567DB6" stroke-width="1" />
<polyline fill="none" points="1386.0 51.5,1386.0 52.5,1290.0 79.5,1290.0 80.5" stroke="#567DB6" stroke-width="1" />
<polyline fill="none" points="957.0 42.5,959.0 46.5,1001.0 46.5,1002.0 48.5,1002.0 52.5,1002.0 48.5,1003.0 46.5,1045.0 46.5,1047.0 42.5" stroke="#567DB6" stroke-width="1" />
<polyline fill="none" points="1149.0 89.5,1151.0 85.5,1193.0 85.5,1194.0 83.5,1194.0 79.5,1194.0 83.5,1195.0 85.5,1237.0 85.5,1239.0 89.5" stroke="#567DB6" stroke-width="1" />
<polyline fill="none" points="1002.0 51.5,1002.0 52.5,1194.0 79.5,1194.0 80.5" stroke="#567DB6" stroke-width="1" />
<polyline fill="none" points="1053.0 89.5,1055.0 85.5,1097.0 85.5,1098.0 83.5,1098.0 79.5,1098.0 83.5,1099.0 85.5,1141.0 85.5,1143.0 89.5" stroke="#567DB6" stroke-width="1" />
<polyline fill="none" points="1002.0 51.5,1002.0 52.5,1098.0 79.5,1098.0 80.5" stroke="#567DB6" stroke-width="1" />
<polyline fill="none" points="957.0 89.5,959.0 85.5,1001.0 85.5,1002.0 83.5,1002.0 79.5,1002.0 83.5,1003.0 85.5,1045.0 85.5,1047.0 89.5" stroke="#567DB6" stroke-width="1" />
<polyline fill="none" points="1002.0 51.5,1002.0 52.5,1002.0 79.5,1002.0 80.5" stroke="#567DB6" stroke-width="1" />
<polyline fill="none" points="861.0 89.5,863.0 85.5,905.0 85.5,906.0 83.5,906.0 79.5,906.0 83.5,907.0 85.5,949.0 85.5,951.0 89.5" stroke="#567DB6" stroke-width="1" />
<polyline fill="none" points="1002.0 51.5,1002.0 52.5,906.0 79.5,906.0 80.5" stroke="#567DB6" stroke-width="1" />
<polyline fill="none" points="573.0 42.5,575.0 46.5,617.0 46.5,618.0 48.5,618.0 52.5,618.0 48.5,619.0 46.5,661.0 46.5,663.0 42.5" stroke="#567DB6" stroke-width="1" />
<polyline fill="none" points="765.0 89.5,767.0 85.5,809.0 85.5,810.0 83.5,810.0 79.5,810.0 83.5,811.0 85.5,853.0 85.5,855.0 89.5" stroke="#567DB6" stroke-width="1" />
<polyline fill="none" points="618.0 51.5,618.0 52.5,810.0 79.5,810.0 80.5" stroke="#567DB6" stroke-width="1" />
<polyline fill="none" points="669.0 89.5,671.0 85.5,713.0 85.5,714.0 83.5,714.0 79.5,714.0 83.5,715.0 85.5,757.0 85.5,759.0 89.5" stroke="#567DB6" stroke-width="1" />
<polyline fill="none" points="618.0 51.5,618.0 52.5,714.0 79.5,714.0 80.5" stroke="#567DB6" stroke-width="1" />
<polyline fill="none" points="573.0 89.5,575.0 85.5,617.0 85.5,618.0 83.5,618.0 79.5,618.0 83.5,619.0 85.5,661.0 85.5,663.0 89.5" stroke="#567DB6" stroke-width="1" />
<polyline fill="none" points="618.0 51.5,618.0 52.5,618.0 79.5,618.0 80.5" stroke="#567DB6" stroke-width="1" />
<polyline fill="none" points="477.0 89.5,479.0 85.5,521.0 85.5,522.0 83.5,522.0 79.5,522.0 83.5,523.0 85.5,565.0 85.5,567.0 89.5" stroke="#567DB6" stroke-width="1" />
<polyline fill="none" points="618.0 51.5,618.0 52.5,522.0 79.5,522.0 80.5" stroke="#567DB6" stroke-width="1" />
<polyline fill="none" points="189.0 42.5,191.0 46.5,233.0 46.5,234.0 48.5,234.0 52.5,234.0 48.5,235.0 46.5,277.0 46.5,279.0 42.5" stroke="#567DB6" stroke-width="1" />
<polyline fill="none" points="381.0 89.5,383.0 85.5,425.0 85.5,426.0 83.5,426.0 79.5,426.0 83.5,427.0 85.5,469.0 85.5,471.0 89.5" stroke="#567DB6" stroke-width="1" />
<polyline fill="none" points="234.0 51.5,234.0 52.5,426.0 79.5,426.0 80.5" stroke="#567DB6" stroke-width="1" />
<polyline fill="none" points="285.0 89.5,287.0 85.5,329.0 85.5,330.0 83.5,330.0 79.5,330.0 83.5,331.0 85.5,373.0 85.5,375.0 89.5" stroke="#567DB6" stroke-width="1" />
<polyline fill="none" points="234.0 51.5,234.0 52.5,330.0 79.5,330.0 80.5" stroke="#567DB6" stroke-width="1" />
<polyline fill="none" points="189.0 89.5,191.0 85.5,233.0 85.5,234.0 83.5,234.0 79.5,234.0 83.5,235.0 85.5,277.0 85.5,279.0 89.5" stroke="#567DB6" stroke-width="1" />
<polyline fill="none" points="234.0 51.5,234.0 52.5,234.0 79.5,234.0 80.5" stroke="#567DB6" stroke-width="1" />
<polyline fill="none" points="93.0 89.5,95.0 85.5,137.0 85.5,138.0 83.5,138.0 79.5,138.0 83.5,139.0 85.5,181.0 85.5,183.0 89.5" stroke="#567DB6" stroke-width="1" />
<polyline fill="none" points="234.0 51.5,234.0 52.5,138.0 79.5,138.0 80.5" stroke="#567DB6" stroke-width="1" />
<line stroke="#567DB6" stroke-width="1" x1="1578" x2="1578" y1="162.5" y2="209" />
<line stroke="#567DB6" stroke-width="1" x1="1482" x2="1482" y1="162.5" y2="209" />
<line stroke="#567DB6" stroke-width="1" x1="1386" x2="1386" y1="162.5" y2="209" />
<line stroke="#567DB6" stroke-width="1" x1="1290" x2="1290" y1="162.5" y2="209" />
<line stroke="#567DB6" stroke-width="1" x1="1194" x2="1194" y1="162.5" y2="209" />
<line stroke="#567DB6" stroke-width="1" x1="1098" x2="1098" y1="162.5" y2="209" />
<line stroke="#567DB6" stroke-width="1" x1="1002" x2="1002" y1="162.5" y2="209" />
<line stroke="#567DB6" stroke-width="1" x1="906" x2="906" y1="162.5" y2="209" />
<line stroke="#567DB6" stroke-width="1" x1="810" x2="810" y1="162.5" y2="209" />
<line stroke="#567DB6" stroke-width="1" x1="714" x2="714" y1="162.5" y2="209" />
<line stroke="#567DB6" stroke-width="1" x1="618" x2="618" y1="162.5" y2="209" />
<line stroke="#567DB6" stroke-width="1" x1="522" x2="522" y1="162.5" y2="209" />
<line stroke="#567DB6" stroke-width="1" x1="426" x2="426" y1="162.5" y2="209" />
<line stroke="#567DB6" stroke-width="1" x1="330" x2="330" y1="162.5" y2="209" />
<line stroke="#567DB6" stroke-width="1" x1="234" x2="234" y1="162.5" y2="209" />
<line stroke="#567DB6" stroke-width="1" x1="138" x2="138" y1="162.5" y2="209" />
<line stroke="#567DB6" stroke-width="1" x1="1602" x2="1602" y1="114.5" y2="137" />
<line stroke="#567DB6" stroke-width="1" x1="1554" x2="1554" y1="114.5" y2="137" />
<line stroke="#567DB6" stroke-width="1" x1="1506" x2="1506" y1="114.5" y2="137" />
<line stroke="#567DB6" stroke-width="1" x1="1458" x2="1458" y1="114.5" y2="137" />
<line stroke="#567DB6" stroke-width="1" x1="1410" x2="1410" y1="114.5" y2="137" />
<line stroke="#567DB6" stroke-width="1" x1="1362" x2="1362" y1="114.5" y2="137" />
<line stroke="#567DB6" stroke-width="1" x1="1314" x2="1314" y1="114.5" y2="137" />
<line stroke="#567DB6" stroke-width="1" x1="1266" x2="1266" y1="114.5" y2="137" />
<line stroke="#567DB6" stroke-width="1" x1="1218" x2="1218" y1="114.5" y2="137" />
<line stroke="#567DB6" stroke-width="1" x1="1170" x2="1170" y1="114.5" y2="137" />
<line stroke="#567DB6" stroke-width="1" x1="1122" x2="1122" y1="114.5" y2="137" />
<line stroke="#567DB6" stroke-width="1" x1="1074" x2="1074" y1="114.5" y2="137" />
<line stroke="#567DB6" stroke-width="1" x1="1026" x2="1026" y1="114.5" y2="137" />
<line stroke="#567DB6" stroke-width="1" x1="978" x2="978" y1="114.5" y2="137" />
<line stroke="#567DB6" stroke-width="1" x1="930" x2="930" y1="114.5" y2="137" />
<line stroke="#567DB6" stroke-width="1" x1="882" x2="882" y1="114.5" y2="137" />
<line stroke="#567DB6" stroke-width="1" x1="834" x2="834" y1="114.5" y2="137" />
<line stroke="#567DB6" stroke-width="1" x1="786" x2="786" y1="114.5" y2="137" />
<line stroke="#567DB6" stroke-width="1" x1="738" x2="738" y1="114.5" y2="137" />
<line stroke="#567DB6" stroke-width="1" x1="690" x2="690" y1="114.5" y2="137" />
<line stroke="#567DB6" stroke-width="1" x1="642" x2="642" y1="114.5" y2="137" />
<line stroke="#567DB6" stroke-width="1" x1="594" x2="594" y1="114.5" y2="137" />
<line stroke="#567DB6" stroke-width="1" x1="546" x2="546" y1="114.5" y2="137" />
<line stroke="#567DB6" stroke-width="1" x1="498" x2="498" y1="114.5" y2="137" />
<line stroke="#567DB6" stroke-width="1" x1="450" x2="450" y1="114.5" y2="137" />
<line stroke="#567DB6" stroke-width="1" x1="402" x2="402" y1="114.5" y2="137" />
<line stroke="#567DB6" stroke-width="1" x1="354" x2="354" y1="114.5" y2="137" />
<line stroke="#567DB6" stroke-width="1" x1="306" x2="306" y1="114.5" y2="137" />
<line stroke="#567DB6" stroke-width="1" x1="258" x2="258" y1="114.5" y2="137" />
<line stroke="#567DB6" stroke-width="1" x1="210" x2="210" y1="114.5" y2="137" />
<line stroke="#567DB6" stroke-width="1" x1="162" x2="162" y1="114.5" y2="137" />
<line stroke="#567DB6" stroke-width="1" x1="114" x2="114" y1="114.5" y2="137" />
<line marker-end="url(#arrowhead)" stroke="none" x1="1578" x2="1578" y1="162.5" y2="209" />
<line marker-end="url(#arrowhead)" stroke="none" x1="1482" x2="1482" y1="162.5" y2="209" />
<line marker-end="url(#arrowhead)" stroke="none" x1="1386" x2="1386" y1="162.5" y2="209" />
<line marker-end="url(#arrowhead)" stroke="none" x1="1290" x2="1290" y1="162.5" y2="209" />
<line marker-end="url(#arrowhead)" stroke="none" x1="1194" x2="1194" y1="162.5" y2="209" />
<line marker-end="url(#arrowhead)" stroke="none" x1="1098" x2="1098" y1="162.5" y2="209" />
<line marker-end="url(#arrowhead)" stroke="none" x1="1002" x2="1002" y1="162.5" y2="209" />
<line marker-end="url(#arrowhead)" stroke="none" x1="906" x2="906" y1="162.5" y2="209" />
<line marker-end="url(#arrowhead)" stroke="none" x1="810" x2="810" y1="162.5" y2="209" />
<line marker-end="url(#arrowhead)" stroke="none" x1="714" x2="714" y1="162.5" y2="209" />
<line marker-end="url(#arrowhead)" stroke="none" x1="618" x2="618" y1="162.5" y2="209" />
<line marker-end="url(#arrowhead)" stroke="none" x1="522" x2="522" y1="162.5" y2="209" />
<line marker-end="url(#arrowhead)" stroke="none" x1="426" x2="426" y1="162.5" y2="209" />
<line marker-end="url(#arrowhead)" stroke="none" x1="330" x2="330" y1="162.5" y2="209" />
<line marker-end="url(#arrowhead)" stroke="none" x1="234" x2="234" y1="162.5" y2="209" />
<line marker-end="url(#arrowhead)" stroke="none" x1="138" x2="138" y1="162.5" y2="209" />
</svg>