<svg xmlns="http://www.w3.org/2000/svg" viewBox="0 0 486 243">
<style>
.label { font: 14px Helvetica; dominant-baseline: middle; text-anchor: middle; }
.title-left { font: 12px Helvetica; dominant-baseline: middle; }
.title-right { font: 12px Helvetica; dominant-baseline: middle; text-anchor: end; }
.title-intrinsic { font: 12px Helvetica; dominant-baseline: middle; text-anchor: middle; fill: #6778ED; }
.title { font: 12px Helvetica; dominant-baseline: middle; text-anchor: middle; }
.title-unused { font: 12px Helvetica; dominant-baseline: middle; text-anchor: middle; fill: #AAA; }
.register-name { font: 14px Helvetica; dominant-baseline: middle; text-anchor: end; font-style: italic; }
.memory-name { font: 14px Helvetica; dominant-baseline: middle; text-anchor: end; }
.register-number { font: 14px Helvetica; dominant-baseline: middle; text-anchor: start; }
.intrinsic-name { font: 14px Helvetica; dominant-baseline: middle; text-anchor: end; fill: #6778ED; }
.intrinsic-color { fill: #6778ED; }
.small-label { font: 12px Helvetica; dominant-baseline: middle; text-anchor: middle; }
.label-10px { font: 10px Helvetica; dominant-baseline: middle; text-anchor: middle; }
.smaller-label { font: 9px Helvetica; dominant-baseline: middle; text-anchor: middle; }
.label-6px { font: 6px Helvetica; dominant-baseline: middle; text-anchor: middle; }
.label-7px { font: 7px Helvetica; dominant-baseline: middle; text-anchor: middle; }
.unused { fill: #AAA; }
.dim { fill: #888; }
</style>
<defs>
<marker id="arrowhead" markerWidth="10.75" markerHeight="24.5" refX="9.0" refY="6.125" orient="auto">
<polyline points="0.5 0.5, 8.75 6.125, 0.5 11.75" stroke="#567DB6" stroke-width="1" fill="none"/>
</marker>
</defs>
<text class="title-left" x="90" y="9">upper</text>
<text class="title-right" x="474" y="9">lower</text>
<text class="title-intrinsic" x="234" y="8.5">imm</text>
<rect fill="none" height="24" stroke="#405C86" stroke-dasharray="3 1" stroke-dashoffset="1.5" stroke-width="1" width="96" x="378" y="18" />
<text class="label unused" x="426" y="31">0</text>
<rect fill="none" height="24" stroke="#405C86" stroke-dasharray="3 1" stroke-dashoffset="1.5" stroke-width="1" width="96" x="282" y="18" />
<text class="label unused" x="330" y="31">1</text>
<rect fill="#DEE6F1" height="24" width="48" x="234" y="18" />
<rect fill="none" height="24" stroke="#405C86" stroke-width="2" width="48" x="234" y="18" />
<text class="label" x="258" y="31">A</text>
<rect fill="#DEE6F1" height="24" width="48" x="186" y="18" />
<rect fill="none" height="24" stroke="#405C86" stroke-width="2" width="48" x="186" y="18" />
<text class="label" x="210" y="31">C</text>
<rect fill="none" height="24" stroke="#405C86" stroke-dasharray="3 1" stroke-dashoffset="1.5" stroke-width="1" width="96" x="90" y="18" />
<text class="label unused" x="138" y="31">3</text>
<text class="register-name" x="80" y="30">Zm</text>
<text class="register-number" x="10" y="30">(1)</text>
<rect fill="#EEDDDB" height="24" width="48" x="426" y="90" />
<rect fill="none" height="24" stroke="#405C86" stroke-width="2" width="48" x="426" y="90" />
<text class="label" x="450" y="103">B</text>
<rect fill="#EEDDDB" height="24" width="48" x="378" y="90" />
<rect fill="none" height="24" stroke="#405C86" stroke-width="2" width="48" x="378" y="90" />
<text class="label" x="402" y="103">D</text>
<rect fill="#ECF1E0" height="24" width="48" x="330" y="90" />
<rect fill="none" height="24" stroke="#405C86" stroke-width="2" width="48" x="330" y="90" />
<text class="label" x="354" y="103">F</text>
<rect fill="#ECF1E0" height="24" width="48" x="282" y="90" />
<rect fill="none" height="24" stroke="#405C86" stroke-width="2" width="48" x="282" y="90" />
<text class="label" x="306" y="103">H</text>
<rect fill="#E5E0EB" height="24" width="48" x="234" y="90" />
<rect fill="none" height="24" stroke="#405C86" stroke-width="2" width="48" x="234" y="90" />
<text class="label" x="258" y="103">B</text>
<rect fill="#E5E0EB" height="24" width="48" x="186" y="90" />
<rect fill="none" height="24" stroke="#405C86" stroke-width="2" width="48" x="186" y="90" />
<text class="label" x="210" y="103">D</text>
<rect fill="#FAEBDC" height="24" width="48" x="138" y="90" />
<rect fill="none" height="24" stroke="#405C86" stroke-width="2" width="48" x="138" y="90" />
<text class="label" x="162" y="103">F</text>
<rect fill="#FAEBDC" height="24" width="48" x="90" y="90" />
<rect fill="none" height="24" stroke="#405C86" stroke-width="2" width="48" x="90" y="90" />
<text class="label" x="114" y="103">H</text>
<text class="register-name" x="80" y="102">Zn</text>
<text class="register-number" x="10" y="102">(2)</text>
<rect fill="#EEDDDB" height="24" width="96" x="378" y="138" />
<rect fill="none" height="24" stroke="#405C86" stroke-width="2" width="96" x="378" y="138" />
<text class="label" x="426" y="151">E</text>
<rect fill="#ECF1E0" height="24" width="96" x="282" y="138" />
<rect fill="none" height="24" stroke="#405C86" stroke-width="2" width="96" x="282" y="138" />
<text class="label" x="330" y="151">E</text>
<rect fill="#E5E0EB" height="24" width="96" x="186" y="138" />
<rect fill="none" height="24" stroke="#405C86" stroke-width="2" width="96" x="186" y="138" />
<text class="label" x="234" y="151">E</text>
<rect fill="#FAEBDC" height="24" width="96" x="90" y="138" />
<rect fill="none" height="24" stroke="#405C86" stroke-width="2" width="96" x="90" y="138" />
<text class="label" x="138" y="151">E</text>
<text class="register-name" x="80" y="150">Zda</text>
<text class="register-number" x="10" y="150">(3)</text>
<rect fill="#EEDDDB" height="24" width="96" x="378" y="210" />
<rect fill="none" height="24" stroke="#405C86" stroke-width="2" width="96" x="378" y="210" />
<text class="label" x="426" y="223">A*B+C*D+E</text>
<rect fill="#ECF1E0" height="24" width="96" x="282" y="210" />
<rect fill="none" height="24" stroke="#405C86" stroke-width="2" width="96" x="282" y="210" />
<text class="label" x="330" y="223">A*B+C*D+E</text>
<rect fill="#E5E0EB" height="24" width="96" x="186" y="210" />
<rect fill="none" height="24" stroke="#405C86" stroke-width="2" width="96" x="186" y="210" />
<text class="label" x="234" y="223">A*B+C*D+E</text>
<rect fill="#FAEBDC" height="24" width="96" x="90" y="210" />
<rect fill="none" height="24" stroke="#405C86" stroke-width="2" width="96" x="90" y="210" />
<text class="label" x="138" y="223">A*B+C*D+E</text>
<text class="register-name" x="80" y="222">Zda</text>
<text class="register-number" x="10" y="222">(4)</text>
<polyline fill="none" points="189.0 42.5,191.0 46.5,233.0 46.5,234.0 48.5,234.0 52.5,234.0 48.5,235.0 46.5,277.0 46.5,279.0 42.5" stroke="#567DB6" stroke-width="1" />
<polyline fill="none" points="381.0 89.5,383.0 85.5,425.0 85.5,426.0 83.5,426.0 79.5,426.0 83.5,427.0 85.5,469.0 85.5,471.0 89.5" stroke="#567DB6" stroke-width="1" />
<polyline fill="none" points="234.0 51.5,234.0 52.5,426.0 79.5,426.0 80.5" stroke="#567DB6" stroke-width="1" />
<polyline fill="none" points="285.0 89.5,287.0 85.5,329.0 85.5,330.0 83.5,330.0 79.5,330.0 83.5,331.0 85.5,373.0 85.5,375.0 89.5" stroke="#567DB6" stroke-width="1" />
<polyline fill="none" points="234.0 51.5,234.0 52.5,330.0 79.5,330.0 80.5" stroke="#567DB6" stroke-width="1" />
<polyline fill="none" points="189.0 89.5,191.0 85.5,233.0 85.5,234.0 83.5,234.0 79.5,234.0 83.5,235.0 85.5,277.0 85.5,279.0 89.5" stroke="#567DB6" stroke-width="1" />
<polyline fill="none" points="234.0 51.5,234.0 52.5,234.0 79.5,234.0 80.5" stroke="#567DB6" stroke-width="1" />
<polyline fill="none" points="93.0 89.5,95.0 85.5,137.0 85.5,138.0 83.5,138.0 79.5,138.0 83.5,139.0 85.5,181.0 85.5,183.0 89.5" stroke="#567DB6" stroke-width="1" />
<polyline fill="none" points="234.0 51.5,234.0 52.5,138.0 79.5,138.0 80.5" stroke="#567DB6" stroke-width="1" />
<line stroke="#567DB6" stroke-width="1" x1="426" x2="426" y1="162.5" y2="209" />
<line stroke="#567DB6" stroke-width="1" x1="330" x2="330" y1="162.5" y2="209" />
<line stroke="#567DB6" stroke-width="1" x1="234" x2="234" y1="162.5" y2="209" />
<line stroke="#567DB6" stroke-width="1" x1="138" x2="138" y1="162.5" y2="209" />
<line stroke="#567DB6" stroke-width="1" x1="450" x2="450" y1="114.5" y2="137" />
<line stroke="#567DB6" stroke-width="1" x1="402" x2="402" y1="114.5" y2="137" />
<line stroke="#567DB6" stroke-width="1" x1="354" x2="354" y1="114.5" y2="137" />
<line stroke="#567DB6" stroke-width="1" x1="306" x2="306" y1="114.5" y2="137" />
<line stroke="#567DB6" stroke-width="1" x1="258" x2="258" y1="114.5" y2="137" />
<line stroke="#567DB6" stroke-width="1" x1="210" x2="210" y1="114.5" y2="137" />
<line stroke="#567DB6" stroke-width="1" x1="162" x2="162" y1="114.5" y2="137" />
<line stroke="#567DB6" stroke-width="1" x1="114" x2="114" y1="114.5" y2="137" />
<line marker-end="url(#arrowhead)" stroke="none" x1="426" x2="426" y1="162.5" y2="209" />
<line marker-end="url(#arrowhead)" stroke="none" x1="330" x2="330" y1="162.5" y2="209" />
<line marker-end="url(#arrowhead)" stroke="none" x1="234" x2="234" y1="162.5" y2="209" />
<line marker-end="url(#arrowhead)" stroke="none" x1="138" x2="138" y1="162.5" y2="209" />
</svg>