<svg xmlns="http://www.w3.org/2000/svg" viewBox="0 0 1638 123">
<style>
.label { font: 14px Helvetica; dominant-baseline: middle; text-anchor: middle; }
.title-left { font: 12px Helvetica; dominant-baseline: middle; }
.title-right { font: 12px Helvetica; dominant-baseline: middle; text-anchor: end; }
.title-intrinsic { font: 12px Helvetica; dominant-baseline: middle; text-anchor: middle; fill: #6778ED; }
.title { font: 12px Helvetica; dominant-baseline: middle; text-anchor: middle; }
.title-unused { font: 12px Helvetica; dominant-baseline: middle; text-anchor: middle; fill: #AAA; }
.register-name { font: 14px Helvetica; dominant-baseline: middle; text-anchor: end; font-style: italic; }
.memory-name { font: 14px Helvetica; dominant-baseline: middle; text-anchor: end; }
.register-number { font: 14px Helvetica; dominant-baseline: middle; text-anchor: start; }
.intrinsic-name { font: 14px Helvetica; dominant-baseline: middle; text-anchor: end; fill: #6778ED; }
.intrinsic-color { fill: #6778ED; }
.small-label { font: 12px Helvetica; dominant-baseline: middle; text-anchor: middle; }
.label-10px { font: 10px Helvetica; dominant-baseline: middle; text-anchor: middle; }
.smaller-label { font: 9px Helvetica; dominant-baseline: middle; text-anchor: middle; }
.label-6px { font: 6px Helvetica; dominant-baseline: middle; text-anchor: middle; }
.label-7px { font: 7px Helvetica; dominant-baseline: middle; text-anchor: middle; }
.unused { fill: #AAA; }
.dim { fill: #888; }
</style>
<defs>
<marker id="arrowhead" markerWidth="10.75" markerHeight="24.5" refX="9.0" refY="6.125" orient="auto">
<polyline points="0.5 0.5, 8.75 6.125, 0.5 11.75" stroke="#567DB6" stroke-width="1" fill="none"/>
</marker>
</defs>
<line stroke="#567DB6" stroke-width="1" x1="834" x2="1602" y1="42.5" y2="89" />
<line stroke="#567DB6" stroke-width="1" x1="834" x2="1554" y1="42.5" y2="89" />
<line stroke="#567DB6" stroke-width="1" x1="834" x2="1506" y1="42.5" y2="89" />
<line stroke="#567DB6" stroke-width="1" x1="834" x2="1458" y1="42.5" y2="89" />
<line stroke="#567DB6" stroke-width="1" x1="834" x2="1410" y1="42.5" y2="89" />
<line stroke="#567DB6" stroke-width="1" x1="834" x2="1362" y1="42.5" y2="89" />
<line stroke="#567DB6" stroke-width="1" x1="834" x2="1314" y1="42.5" y2="89" />
<line stroke="#567DB6" stroke-width="1" x1="834" x2="1266" y1="42.5" y2="89" />
<line stroke="#567DB6" stroke-width="1" x1="834" x2="1218" y1="42.5" y2="89" />
<line stroke="#567DB6" stroke-width="1" x1="834" x2="1170" y1="42.5" y2="89" />
<line stroke="#567DB6" stroke-width="1" x1="834" x2="1122" y1="42.5" y2="89" />
<line stroke="#567DB6" stroke-width="1" x1="834" x2="1074" y1="42.5" y2="89" />
<line stroke="#567DB6" stroke-width="1" x1="834" x2="1026" y1="42.5" y2="89" />
<line stroke="#567DB6" stroke-width="1" x1="834" x2="978" y1="42.5" y2="89" />
<line stroke="#567DB6" stroke-width="1" x1="834" x2="930" y1="42.5" y2="89" />
<line stroke="#567DB6" stroke-width="1" x1="834" x2="882" y1="42.5" y2="89" />
<line stroke="#567DB6" stroke-width="1" x1="834" x2="834" y1="42.5" y2="89" />
<line stroke="#567DB6" stroke-width="1" x1="834" x2="786" y1="42.5" y2="89" />
<line stroke="#567DB6" stroke-width="1" x1="834" x2="738" y1="42.5" y2="89" />
<line stroke="#567DB6" stroke-width="1" x1="834" x2="690" y1="42.5" y2="89" />
<line stroke="#567DB6" stroke-width="1" x1="834" x2="642" y1="42.5" y2="89" />
<line stroke="#567DB6" stroke-width="1" x1="834" x2="594" y1="42.5" y2="89" />
<line stroke="#567DB6" stroke-width="1" x1="834" x2="546" y1="42.5" y2="89" />
<line stroke="#567DB6" stroke-width="1" x1="834" x2="498" y1="42.5" y2="89" />
<line stroke="#567DB6" stroke-width="1" x1="834" x2="450" y1="42.5" y2="89" />
<line stroke="#567DB6" stroke-width="1" x1="834" x2="402" y1="42.5" y2="89" />
<line stroke="#567DB6" stroke-width="1" x1="834" x2="354" y1="42.5" y2="89" />
<line stroke="#567DB6" stroke-width="1" x1="834" x2="306" y1="42.5" y2="89" />
<line stroke="#567DB6" stroke-width="1" x1="834" x2="258" y1="42.5" y2="89" />
<line stroke="#567DB6" stroke-width="1" x1="834" x2="210" y1="42.5" y2="89" />
<line stroke="#567DB6" stroke-width="1" x1="834" x2="162" y1="42.5" y2="89" />
<line stroke="#567DB6" stroke-width="1" x1="834" x2="114" y1="42.5" y2="89" />
<text class="title-left" x="90" y="9">upper</text>
<text class="title-right" x="1626" y="9">lower</text>
<text class="title-intrinsic" x="834" y="8.5">index</text>
<rect fill="none" height="24" stroke="#405C86" stroke-dasharray="3 1" stroke-dashoffset="1.5" stroke-width="1" width="48" x="1578" y="18" />
<text class="label unused" x="1602" y="31">0</text>
<rect fill="none" height="24" stroke="#405C86" stroke-dasharray="3 1" stroke-dashoffset="1.5" stroke-width="1" width="48" x="1530" y="18" />
<text class="label unused" x="1554" y="31">1</text>
<rect fill="none" height="24" stroke="#405C86" stroke-dasharray="3 1" stroke-dashoffset="1.5" stroke-width="1" width="48" x="1482" y="18" />
<text class="label unused" x="1506" y="31">2</text>
<rect fill="none" height="24" stroke="#405C86" stroke-dasharray="3 1" stroke-dashoffset="1.5" stroke-width="1" width="48" x="1434" y="18" />
<text class="label unused" x="1458" y="31">3</text>
<rect fill="none" height="24" stroke="#405C86" stroke-dasharray="3 1" stroke-dashoffset="1.5" stroke-width="1" width="48" x="1386" y="18" />
<text class="label unused" x="1410" y="31">4</text>
<rect fill="none" height="24" stroke="#405C86" stroke-dasharray="3 1" stroke-dashoffset="1.5" stroke-width="1" width="48" x="1338" y="18" />
<text class="label unused" x="1362" y="31">5</text>
<rect fill="none" height="24" stroke="#405C86" stroke-dasharray="3 1" stroke-dashoffset="1.5" stroke-width="1" width="48" x="1290" y="18" />
<text class="label unused" x="1314" y="31">6</text>
<rect fill="none" height="24" stroke="#405C86" stroke-dasharray="3 1" stroke-dashoffset="1.5" stroke-width="1" width="48" x="1242" y="18" />
<text class="label unused" x="1266" y="31">7</text>
<rect fill="none" height="24" stroke="#405C86" stroke-dasharray="3 1" stroke-dashoffset="1.5" stroke-width="1" width="48" x="1194" y="18" />
<text class="label unused" x="1218" y="31">8</text>
<rect fill="none" height="24" stroke="#405C86" stroke-dasharray="3 1" stroke-dashoffset="1.5" stroke-width="1" width="48" x="1146" y="18" />
<text class="label unused" x="1170" y="31">9</text>
<rect fill="none" height="24" stroke="#405C86" stroke-dasharray="3 1" stroke-dashoffset="1.5" stroke-width="1" width="48" x="1098" y="18" />
<text class="label unused" x="1122" y="31">10</text>
<rect fill="none" height="24" stroke="#405C86" stroke-dasharray="3 1" stroke-dashoffset="1.5" stroke-width="1" width="48" x="1050" y="18" />
<text class="label unused" x="1074" y="31">11</text>
<rect fill="none" height="24" stroke="#405C86" stroke-dasharray="3 1" stroke-dashoffset="1.5" stroke-width="1" width="48" x="1002" y="18" />
<text class="label unused" x="1026" y="31">12</text>
<rect fill="none" height="24" stroke="#405C86" stroke-dasharray="3 1" stroke-dashoffset="1.5" stroke-width="1" width="48" x="954" y="18" />
<text class="label unused" x="978" y="31">13</text>
<rect fill="none" height="24" stroke="#405C86" stroke-dasharray="3 1" stroke-dashoffset="1.5" stroke-width="1" width="48" x="906" y="18" />
<text class="label unused" x="930" y="31">14</text>
<rect fill="none" height="24" stroke="#405C86" stroke-dasharray="3 1" stroke-dashoffset="1.5" stroke-width="1" width="48" x="858" y="18" />
<text class="label unused" x="882" y="31">15</text>
<rect fill="#DEE6F1" height="24" width="48" x="810" y="18" />
<rect fill="none" height="24" stroke="#405C86" stroke-width="2" width="48" x="810" y="18" />
<rect fill="none" height="24" stroke="#405C86" stroke-dasharray="3 1" stroke-dashoffset="1.5" stroke-width="1" width="48" x="762" y="18" />
<text class="label unused" x="786" y="31">17</text>
<rect fill="none" height="24" stroke="#405C86" stroke-dasharray="3 1" stroke-dashoffset="1.5" stroke-width="1" width="48" x="714" y="18" />
<text class="label unused" x="738" y="31">18</text>
<rect fill="none" height="24" stroke="#405C86" stroke-dasharray="3 1" stroke-dashoffset="1.5" stroke-width="1" width="48" x="666" y="18" />
<text class="label unused" x="690" y="31">19</text>
<rect fill="none" height="24" stroke="#405C86" stroke-dasharray="3 1" stroke-dashoffset="1.5" stroke-width="1" width="48" x="618" y="18" />
<text class="label unused" x="642" y="31">20</text>
<rect fill="none" height="24" stroke="#405C86" stroke-dasharray="3 1" stroke-dashoffset="1.5" stroke-width="1" width="48" x="570" y="18" />
<text class="label unused" x="594" y="31">21</text>
<rect fill="none" height="24" stroke="#405C86" stroke-dasharray="3 1" stroke-dashoffset="1.5" stroke-width="1" width="48" x="522" y="18" />
<text class="label unused" x="546" y="31">22</text>
<rect fill="none" height="24" stroke="#405C86" stroke-dasharray="3 1" stroke-dashoffset="1.5" stroke-width="1" width="48" x="474" y="18" />
<text class="label unused" x="498" y="31">23</text>
<rect fill="none" height="24" stroke="#405C86" stroke-dasharray="3 1" stroke-dashoffset="1.5" stroke-width="1" width="48" x="426" y="18" />
<text class="label unused" x="450" y="31">24</text>
<rect fill="none" height="24" stroke="#405C86" stroke-dasharray="3 1" stroke-dashoffset="1.5" stroke-width="1" width="48" x="378" y="18" />
<text class="label unused" x="402" y="31">25</text>
<rect fill="none" height="24" stroke="#405C86" stroke-dasharray="3 1" stroke-dashoffset="1.5" stroke-width="1" width="48" x="330" y="18" />
<text class="label unused" x="354" y="31">26</text>
<rect fill="none" height="24" stroke="#405C86" stroke-dasharray="3 1" stroke-dashoffset="1.5" stroke-width="1" width="48" x="282" y="18" />
<text class="label unused" x="306" y="31">27</text>
<rect fill="none" height="24" stroke="#405C86" stroke-dasharray="3 1" stroke-dashoffset="1.5" stroke-width="1" width="48" x="234" y="18" />
<text class="label unused" x="258" y="31">28</text>
<rect fill="none" height="24" stroke="#405C86" stroke-dasharray="3 1" stroke-dashoffset="1.5" stroke-width="1" width="48" x="186" y="18" />
<text class="label unused" x="210" y="31">29</text>
<rect fill="none" height="24" stroke="#405C86" stroke-dasharray="3 1" stroke-dashoffset="1.5" stroke-width="1" width="48" x="138" y="18" />
<text class="label unused" x="162" y="31">30</text>
<rect fill="none" height="24" stroke="#405C86" stroke-dasharray="3 1" stroke-dashoffset="1.5" stroke-width="1" width="48" x="90" y="18" />
<text class="label unused" x="114" y="31">31</text>
<text class="register-name" x="80" y="30">Zn</text>
<text class="intrinsic-name" x="80" y="42">data</text>
<text class="register-number" x="10" y="30">(1)</text>
<rect fill="#DEE6F1" height="24" width="48" x="1578" y="90" />
<rect fill="none" height="24" stroke="#405C86" stroke-width="2" width="48" x="1578" y="90" />
<rect fill="#DEE6F1" height="24" width="48" x="1530" y="90" />
<rect fill="none" height="24" stroke="#405C86" stroke-width="2" width="48" x="1530" y="90" />
<rect fill="#DEE6F1" height="24" width="48" x="1482" y="90" />
<rect fill="none" height="24" stroke="#405C86" stroke-width="2" width="48" x="1482" y="90" />
<rect fill="#DEE6F1" height="24" width="48" x="1434" y="90" />
<rect fill="none" height="24" stroke="#405C86" stroke-width="2" width="48" x="1434" y="90" />
<rect fill="#DEE6F1" height="24" width="48" x="1386" y="90" />
<rect fill="none" height="24" stroke="#405C86" stroke-width="2" width="48" x="1386" y="90" />
<rect fill="#DEE6F1" height="24" width="48" x="1338" y="90" />
<rect fill="none" height="24" stroke="#405C86" stroke-width="2" width="48" x="1338" y="90" />
<rect fill="#DEE6F1" height="24" width="48" x="1290" y="90" />
<rect fill="none" height="24" stroke="#405C86" stroke-width="2" width="48" x="1290" y="90" />
<rect fill="#DEE6F1" height="24" width="48" x="1242" y="90" />
<rect fill="none" height="24" stroke="#405C86" stroke-width="2" width="48" x="1242" y="90" />
<rect fill="#DEE6F1" height="24" width="48" x="1194" y="90" />
<rect fill="none" height="24" stroke="#405C86" stroke-width="2" width="48" x="1194" y="90" />
<rect fill="#DEE6F1" height="24" width="48" x="1146" y="90" />
<rect fill="none" height="24" stroke="#405C86" stroke-width="2" width="48" x="1146" y="90" />
<rect fill="#DEE6F1" height="24" width="48" x="1098" y="90" />
<rect fill="none" height="24" stroke="#405C86" stroke-width="2" width="48" x="1098" y="90" />
<rect fill="#DEE6F1" height="24" width="48" x="1050" y="90" />
<rect fill="none" height="24" stroke="#405C86" stroke-width="2" width="48" x="1050" y="90" />
<rect fill="#DEE6F1" height="24" width="48" x="1002" y="90" />
<rect fill="none" height="24" stroke="#405C86" stroke-width="2" width="48" x="1002" y="90" />
<rect fill="#DEE6F1" height="24" width="48" x="954" y="90" />
<rect fill="none" height="24" stroke="#405C86" stroke-width="2" width="48" x="954" y="90" />
<rect fill="#DEE6F1" height="24" width="48" x="906" y="90" />
<rect fill="none" height="24" stroke="#405C86" stroke-width="2" width="48" x="906" y="90" />
<rect fill="#DEE6F1" height="24" width="48" x="858" y="90" />
<rect fill="none" height="24" stroke="#405C86" stroke-width="2" width="48" x="858" y="90" />
<rect fill="#DEE6F1" height="24" width="48" x="810" y="90" />
<rect fill="none" height="24" stroke="#405C86" stroke-width="2" width="48" x="810" y="90" />
<rect fill="#DEE6F1" height="24" width="48" x="762" y="90" />
<rect fill="none" height="24" stroke="#405C86" stroke-width="2" width="48" x="762" y="90" />
<rect fill="#DEE6F1" height="24" width="48" x="714" y="90" />
<rect fill="none" height="24" stroke="#405C86" stroke-width="2" width="48" x="714" y="90" />
<rect fill="#DEE6F1" height="24" width="48" x="666" y="90" />
<rect fill="none" height="24" stroke="#405C86" stroke-width="2" width="48" x="666" y="90" />
<rect fill="#DEE6F1" height="24" width="48" x="618" y="90" />
<rect fill="none" height="24" stroke="#405C86" stroke-width="2" width="48" x="618" y="90" />
<rect fill="#DEE6F1" height="24" width="48" x="570" y="90" />
<rect fill="none" height="24" stroke="#405C86" stroke-width="2" width="48" x="570" y="90" />
<rect fill="#DEE6F1" height="24" width="48" x="522" y="90" />
<rect fill="none" height="24" stroke="#405C86" stroke-width="2" width="48" x="522" y="90" />
<rect fill="#DEE6F1" height="24" width="48" x="474" y="90" />
<rect fill="none" height="24" stroke="#405C86" stroke-width="2" width="48" x="474" y="90" />
<rect fill="#DEE6F1" height="24" width="48" x="426" y="90" />
<rect fill="none" height="24" stroke="#405C86" stroke-width="2" width="48" x="426" y="90" />
<rect fill="#DEE6F1" height="24" width="48" x="378" y="90" />
<rect fill="none" height="24" stroke="#405C86" stroke-width="2" width="48" x="378" y="90" />
<rect fill="#DEE6F1" height="24" width="48" x="330" y="90" />
<rect fill="none" height="24" stroke="#405C86" stroke-width="2" width="48" x="330" y="90" />
<rect fill="#DEE6F1" height="24" width="48" x="282" y="90" />
<rect fill="none" height="24" stroke="#405C86" stroke-width="2" width="48" x="282" y="90" />
<rect fill="#DEE6F1" height="24" width="48" x="234" y="90" />
<rect fill="none" height="24" stroke="#405C86" stroke-width="2" width="48" x="234" y="90" />
<rect fill="#DEE6F1" height="24" width="48" x="186" y="90" />
<rect fill="none" height="24" stroke="#405C86" stroke-width="2" width="48" x="186" y="90" />
<rect fill="#DEE6F1" height="24" width="48" x="138" y="90" />
<rect fill="none" height="24" stroke="#405C86" stroke-width="2" width="48" x="138" y="90" />
<rect fill="#DEE6F1" height="24" width="48" x="90" y="90" />
<rect fill="none" height="24" stroke="#405C86" stroke-width="2" width="48" x="90" y="90" />
<text class="register-name" x="80" y="102">Zd</text>
<text class="intrinsic-name" x="80" y="114">returns</text>
<text class="register-number" x="10" y="102">(2)</text>
<line marker-end="url(#arrowhead)" stroke="none" x1="834" x2="1602" y1="42.5" y2="89" />
<line marker-end="url(#arrowhead)" stroke="none" x1="834" x2="1554" y1="42.5" y2="89" />
<line marker-end="url(#arrowhead)" stroke="none" x1="834" x2="1506" y1="42.5" y2="89" />
<line marker-end="url(#arrowhead)" stroke="none" x1="834" x2="1458" y1="42.5" y2="89" />
<line marker-end="url(#arrowhead)" stroke="none" x1="834" x2="1410" y1="42.5" y2="89" />
<line marker-end="url(#arrowhead)" stroke="none" x1="834" x2="1362" y1="42.5" y2="89" />
<line marker-end="url(#arrowhead)" stroke="none" x1="834" x2="1314" y1="42.5" y2="89" />
<line marker-end="url(#arrowhead)" stroke="none" x1="834" x2="1266" y1="42.5" y2="89" />
<line marker-end="url(#arrowhead)" stroke="none" x1="834" x2="1218" y1="42.5" y2="89" />
<line marker-end="url(#arrowhead)" stroke="none" x1="834" x2="1170" y1="42.5" y2="89" />
<line marker-end="url(#arrowhead)" stroke="none" x1="834" x2="1122" y1="42.5" y2="89" />
<line marker-end="url(#arrowhead)" stroke="none" x1="834" x2="1074" y1="42.5" y2="89" />
<line marker-end="url(#arrowhead)" stroke="none" x1="834" x2="1026" y1="42.5" y2="89" />
<line marker-end="url(#arrowhead)" stroke="none" x1="834" x2="978" y1="42.5" y2="89" />
<line marker-end="url(#arrowhead)" stroke="none" x1="834" x2="930" y1="42.5" y2="89" />
<line marker-end="url(#arrowhead)" stroke="none" x1="834" x2="882" y1="42.5" y2="89" />
<line marker-end="url(#arrowhead)" stroke="none" x1="834" x2="834" y1="42.5" y2="89" />
<line marker-end="url(#arrowhead)" stroke="none" x1="834" x2="786" y1="42.5" y2="89" />
<line marker-end="url(#arrowhead)" stroke="none" x1="834" x2="738" y1="42.5" y2="89" />
<line marker-end="url(#arrowhead)" stroke="none" x1="834" x2="690" y1="42.5" y2="89" />
<line marker-end="url(#arrowhead)" stroke="none" x1="834" x2="642" y1="42.5" y2="89" />
<line marker-end="url(#arrowhead)" stroke="none" x1="834" x2="594" y1="42.5" y2="89" />
<line marker-end="url(#arrowhead)" stroke="none" x1="834" x2="546" y1="42.5" y2="89" />
<line marker-end="url(#arrowhead)" stroke="none" x1="834" x2="498" y1="42.5" y2="89" />
<line marker-end="url(#arrowhead)" stroke="none" x1="834" x2="450" y1="42.5" y2="89" />
<line marker-end="url(#arrowhead)" stroke="none" x1="834" x2="402" y1="42.5" y2="89" />
<line marker-end="url(#arrowhead)" stroke="none" x1="834" x2="354" y1="42.5" y2="89" />
<line marker-end="url(#arrowhead)" stroke="none" x1="834" x2="306" y1="42.5" y2="89" />
<line marker-end="url(#arrowhead)" stroke="none" x1="834" x2="258" y1="42.5" y2="89" />
<line marker-end="url(#arrowhead)" stroke="none" x1="834" x2="210" y1="42.5" y2="89" />
<line marker-end="url(#arrowhead)" stroke="none" x1="834" x2="162" y1="42.5" y2="89" />
<line marker-end="url(#arrowhead)" stroke="none" x1="834" x2="114" y1="42.5" y2="89" />
</svg>