<svg xmlns="http://www.w3.org/2000/svg" viewBox="0 0 870 183">
<style>
.label { font: 14px Helvetica; dominant-baseline: middle; text-anchor: middle; }
.title-left { font: 12px Helvetica; dominant-baseline: middle; }
.title-right { font: 12px Helvetica; dominant-baseline: middle; text-anchor: end; }
.title-intrinsic { font: 12px Helvetica; dominant-baseline: middle; text-anchor: middle; fill: #6778ED; }
.title { font: 12px Helvetica; dominant-baseline: middle; text-anchor: middle; }
.title-unused { font: 12px Helvetica; dominant-baseline: middle; text-anchor: middle; fill: #AAA; }
.register-name { font: 14px Helvetica; dominant-baseline: middle; text-anchor: end; font-style: italic; }
.memory-name { font: 14px Helvetica; dominant-baseline: middle; text-anchor: end; }
.register-number { font: 14px Helvetica; dominant-baseline: middle; text-anchor: start; }
.intrinsic-name { font: 14px Helvetica; dominant-baseline: middle; text-anchor: end; fill: #6778ED; }
.intrinsic-color { fill: #6778ED; }
.small-label { font: 12px Helvetica; dominant-baseline: middle; text-anchor: middle; }
.label-10px { font: 10px Helvetica; dominant-baseline: middle; text-anchor: middle; }
.smaller-label { font: 9px Helvetica; dominant-baseline: middle; text-anchor: middle; }
.label-6px { font: 6px Helvetica; dominant-baseline: middle; text-anchor: middle; }
.label-7px { font: 7px Helvetica; dominant-baseline: middle; text-anchor: middle; }
.unused { fill: #AAA; }
.dim { fill: #888; }
</style>
<defs>
<marker id="arrowhead" markerWidth="10.75" markerHeight="24.5" refX="9.0" refY="6.125" orient="auto">
<polyline points="0.5 0.5, 8.75 6.125, 0.5 11.75" stroke="#567DB6" stroke-width="1" fill="none"/>
</marker>
</defs>
<text class="title-left" x="90" y="9">upper</text>
<text class="title-right" x="858" y="9">lower</text>
<rect fill="#EEDDDB" height="24" width="24" x="834" y="66" />
<rect fill="none" height="24" stroke="#405C86" stroke-width="2" width="24" x="834" y="66" />
<text class="label" x="846" y="79">0</text>
<rect fill="#EEDDDB" height="24" width="24" x="810" y="66" />
<rect fill="none" height="24" stroke="#405C86" stroke-width="2" width="24" x="810" y="66" />
<text class="label" x="822" y="79">1</text>
<rect fill="#EEDDDB" height="24" width="24" x="786" y="66" />
<rect fill="none" height="24" stroke="#405C86" stroke-width="2" width="24" x="786" y="66" />
<text class="label" x="798" y="79">2</text>
<rect fill="#EEDDDB" height="24" width="24" x="762" y="66" />
<rect fill="none" height="24" stroke="#405C86" stroke-width="2" width="24" x="762" y="66" />
<text class="label" x="774" y="79">3</text>
<rect fill="#EEDDDB" height="24" width="24" x="738" y="66" />
<rect fill="none" height="24" stroke="#405C86" stroke-width="2" width="24" x="738" y="66" />
<text class="label" x="750" y="79">4</text>
<rect fill="#EEDDDB" height="24" width="24" x="714" y="66" />
<rect fill="none" height="24" stroke="#405C86" stroke-width="2" width="24" x="714" y="66" />
<text class="label" x="726" y="79">5</text>
<rect fill="#EEDDDB" height="24" width="24" x="690" y="66" />
<rect fill="none" height="24" stroke="#405C86" stroke-width="2" width="24" x="690" y="66" />
<text class="label" x="702" y="79">6</text>
<rect fill="#EEDDDB" height="24" width="24" x="666" y="66" />
<rect fill="none" height="24" stroke="#405C86" stroke-width="2" width="24" x="666" y="66" />
<text class="label" x="678" y="79">7</text>
<rect fill="#EEDDDB" height="24" width="24" x="642" y="66" />
<rect fill="none" height="24" stroke="#405C86" stroke-width="2" width="24" x="642" y="66" />
<text class="label" x="654" y="79">8</text>
<rect fill="#EEDDDB" height="24" width="24" x="618" y="66" />
<rect fill="none" height="24" stroke="#405C86" stroke-width="2" width="24" x="618" y="66" />
<text class="label" x="630" y="79">9</text>
<rect fill="#EEDDDB" height="24" width="24" x="594" y="66" />
<rect fill="none" height="24" stroke="#405C86" stroke-width="2" width="24" x="594" y="66" />
<text class="label" x="606" y="79">10</text>
<rect fill="#EEDDDB" height="24" width="24" x="570" y="66" />
<rect fill="none" height="24" stroke="#405C86" stroke-width="2" width="24" x="570" y="66" />
<text class="label" x="582" y="79">11</text>
<rect fill="#EEDDDB" height="24" width="24" x="546" y="66" />
<rect fill="none" height="24" stroke="#405C86" stroke-width="2" width="24" x="546" y="66" />
<text class="label" x="558" y="79">12</text>
<rect fill="#EEDDDB" height="24" width="24" x="522" y="66" />
<rect fill="none" height="24" stroke="#405C86" stroke-width="2" width="24" x="522" y="66" />
<text class="label" x="534" y="79">13</text>
<rect fill="#EEDDDB" height="24" width="24" x="498" y="66" />
<rect fill="none" height="24" stroke="#405C86" stroke-width="2" width="24" x="498" y="66" />
<text class="label" x="510" y="79">14</text>
<rect fill="#EEDDDB" height="24" width="24" x="474" y="66" />
<rect fill="none" height="24" stroke="#405C86" stroke-width="2" width="24" x="474" y="66" />
<text class="label" x="486" y="79">15</text>
<rect fill="#EEDDDB" height="24" width="24" x="450" y="66" />
<rect fill="none" height="24" stroke="#405C86" stroke-width="2" width="24" x="450" y="66" />
<text class="label" x="462" y="79">16</text>
<rect fill="#EEDDDB" height="24" width="24" x="426" y="66" />
<rect fill="none" height="24" stroke="#405C86" stroke-width="2" width="24" x="426" y="66" />
<text class="label" x="438" y="79">17</text>
<rect fill="#EEDDDB" height="24" width="24" x="402" y="66" />
<rect fill="none" height="24" stroke="#405C86" stroke-width="2" width="24" x="402" y="66" />
<text class="label" x="414" y="79">18</text>
<rect fill="#EEDDDB" height="24" width="24" x="378" y="66" />
<rect fill="none" height="24" stroke="#405C86" stroke-width="2" width="24" x="378" y="66" />
<text class="label" x="390" y="79">19</text>
<rect fill="#EEDDDB" height="24" width="24" x="354" y="66" />
<rect fill="none" height="24" stroke="#405C86" stroke-width="2" width="24" x="354" y="66" />
<text class="label" x="366" y="79">20</text>
<rect fill="#EEDDDB" height="24" width="24" x="330" y="66" />
<rect fill="none" height="24" stroke="#405C86" stroke-width="2" width="24" x="330" y="66" />
<text class="label" x="342" y="79">21</text>
<rect fill="#EEDDDB" height="24" width="24" x="306" y="66" />
<rect fill="none" height="24" stroke="#405C86" stroke-width="2" width="24" x="306" y="66" />
<text class="label" x="318" y="79">22</text>
<rect fill="#EEDDDB" height="24" width="24" x="282" y="66" />
<rect fill="none" height="24" stroke="#405C86" stroke-width="2" width="24" x="282" y="66" />
<text class="label" x="294" y="79">23</text>
<rect fill="#EEDDDB" height="24" width="24" x="258" y="66" />
<rect fill="none" height="24" stroke="#405C86" stroke-width="2" width="24" x="258" y="66" />
<text class="label" x="270" y="79">24</text>
<rect fill="#EEDDDB" height="24" width="24" x="234" y="66" />
<rect fill="none" height="24" stroke="#405C86" stroke-width="2" width="24" x="234" y="66" />
<text class="label" x="246" y="79">25</text>
<rect fill="#EEDDDB" height="24" width="24" x="210" y="66" />
<rect fill="none" height="24" stroke="#405C86" stroke-width="2" width="24" x="210" y="66" />
<text class="label" x="222" y="79">26</text>
<rect fill="#EEDDDB" height="24" width="24" x="186" y="66" />
<rect fill="none" height="24" stroke="#405C86" stroke-width="2" width="24" x="186" y="66" />
<text class="label" x="198" y="79">27</text>
<rect fill="#EEDDDB" height="24" width="24" x="162" y="66" />
<rect fill="none" height="24" stroke="#405C86" stroke-width="2" width="24" x="162" y="66" />
<text class="label" x="174" y="79">28</text>
<rect fill="#EEDDDB" height="24" width="24" x="138" y="66" />
<rect fill="none" height="24" stroke="#405C86" stroke-width="2" width="24" x="138" y="66" />
<text class="label" x="150" y="79">29</text>
<rect fill="#EEDDDB" height="24" width="24" x="114" y="66" />
<rect fill="none" height="24" stroke="#405C86" stroke-width="2" width="24" x="114" y="66" />
<text class="label" x="126" y="79">30</text>
<rect fill="#EEDDDB" height="24" width="24" x="90" y="66" />
<rect fill="none" height="24" stroke="#405C86" stroke-width="2" width="24" x="90" y="66" />
<text class="label" x="102" y="79">31</text>
<text class="register-name" x="80" y="78">Zn1</text>
<text class="intrinsic-name" x="80" y="90">op1</text>
<text class="register-number" x="10" y="78">(2)</text>
<rect fill="#DEE6F1" height="24" width="24" x="834" y="18" />
<rect fill="none" height="24" stroke="#405C86" stroke-width="2" width="24" x="834" y="18" />
<text class="label" x="846" y="31">0</text>
<rect fill="#DEE6F1" height="24" width="24" x="810" y="18" />
<rect fill="none" height="24" stroke="#405C86" stroke-width="2" width="24" x="810" y="18" />
<text class="label" x="822" y="31">1</text>
<rect fill="#DEE6F1" height="24" width="24" x="786" y="18" />
<rect fill="none" height="24" stroke="#405C86" stroke-width="2" width="24" x="786" y="18" />
<text class="label" x="798" y="31">2</text>
<rect fill="#DEE6F1" height="24" width="24" x="762" y="18" />
<rect fill="none" height="24" stroke="#405C86" stroke-width="2" width="24" x="762" y="18" />
<text class="label" x="774" y="31">3</text>
<rect fill="#DEE6F1" height="24" width="24" x="738" y="18" />
<rect fill="none" height="24" stroke="#405C86" stroke-width="2" width="24" x="738" y="18" />
<text class="label" x="750" y="31">4</text>
<rect fill="#DEE6F1" height="24" width="24" x="714" y="18" />
<rect fill="none" height="24" stroke="#405C86" stroke-width="2" width="24" x="714" y="18" />
<text class="label" x="726" y="31">5</text>
<rect fill="#DEE6F1" height="24" width="24" x="690" y="18" />
<rect fill="none" height="24" stroke="#405C86" stroke-width="2" width="24" x="690" y="18" />
<text class="label" x="702" y="31">6</text>
<rect fill="#DEE6F1" height="24" width="24" x="666" y="18" />
<rect fill="none" height="24" stroke="#405C86" stroke-width="2" width="24" x="666" y="18" />
<text class="label" x="678" y="31">7</text>
<rect fill="#DEE6F1" height="24" width="24" x="642" y="18" />
<rect fill="none" height="24" stroke="#405C86" stroke-width="2" width="24" x="642" y="18" />
<text class="label" x="654" y="31">8</text>
<rect fill="#DEE6F1" height="24" width="24" x="618" y="18" />
<rect fill="none" height="24" stroke="#405C86" stroke-width="2" width="24" x="618" y="18" />
<text class="label" x="630" y="31">9</text>
<rect fill="#DEE6F1" height="24" width="24" x="594" y="18" />
<rect fill="none" height="24" stroke="#405C86" stroke-width="2" width="24" x="594" y="18" />
<text class="label" x="606" y="31">10</text>
<rect fill="#DEE6F1" height="24" width="24" x="570" y="18" />
<rect fill="none" height="24" stroke="#405C86" stroke-width="2" width="24" x="570" y="18" />
<text class="label" x="582" y="31">11</text>
<rect fill="#DEE6F1" height="24" width="24" x="546" y="18" />
<rect fill="none" height="24" stroke="#405C86" stroke-width="2" width="24" x="546" y="18" />
<text class="label" x="558" y="31">12</text>
<rect fill="#DEE6F1" height="24" width="24" x="522" y="18" />
<rect fill="none" height="24" stroke="#405C86" stroke-width="2" width="24" x="522" y="18" />
<text class="label" x="534" y="31">13</text>
<rect fill="#DEE6F1" height="24" width="24" x="498" y="18" />
<rect fill="none" height="24" stroke="#405C86" stroke-width="2" width="24" x="498" y="18" />
<text class="label" x="510" y="31">14</text>
<rect fill="#DEE6F1" height="24" width="24" x="474" y="18" />
<rect fill="none" height="24" stroke="#405C86" stroke-width="2" width="24" x="474" y="18" />
<text class="label" x="486" y="31">15</text>
<rect fill="#DEE6F1" height="24" width="24" x="450" y="18" />
<rect fill="none" height="24" stroke="#405C86" stroke-width="2" width="24" x="450" y="18" />
<text class="label" x="462" y="31">16</text>
<rect fill="#DEE6F1" height="24" width="24" x="426" y="18" />
<rect fill="none" height="24" stroke="#405C86" stroke-width="2" width="24" x="426" y="18" />
<text class="label" x="438" y="31">17</text>
<rect fill="#DEE6F1" height="24" width="24" x="402" y="18" />
<rect fill="none" height="24" stroke="#405C86" stroke-width="2" width="24" x="402" y="18" />
<text class="label" x="414" y="31">18</text>
<rect fill="#DEE6F1" height="24" width="24" x="378" y="18" />
<rect fill="none" height="24" stroke="#405C86" stroke-width="2" width="24" x="378" y="18" />
<text class="label" x="390" y="31">19</text>
<rect fill="#DEE6F1" height="24" width="24" x="354" y="18" />
<rect fill="none" height="24" stroke="#405C86" stroke-width="2" width="24" x="354" y="18" />
<text class="label" x="366" y="31">20</text>
<rect fill="#DEE6F1" height="24" width="24" x="330" y="18" />
<rect fill="none" height="24" stroke="#405C86" stroke-width="2" width="24" x="330" y="18" />
<text class="label" x="342" y="31">21</text>
<rect fill="#DEE6F1" height="24" width="24" x="306" y="18" />
<rect fill="none" height="24" stroke="#405C86" stroke-width="2" width="24" x="306" y="18" />
<text class="label" x="318" y="31">22</text>
<rect fill="#DEE6F1" height="24" width="24" x="282" y="18" />
<rect fill="none" height="24" stroke="#405C86" stroke-width="2" width="24" x="282" y="18" />
<text class="label" x="294" y="31">23</text>
<rect fill="#DEE6F1" height="24" width="24" x="258" y="18" />
<rect fill="none" height="24" stroke="#405C86" stroke-width="2" width="24" x="258" y="18" />
<text class="label" x="270" y="31">24</text>
<rect fill="#DEE6F1" height="24" width="24" x="234" y="18" />
<rect fill="none" height="24" stroke="#405C86" stroke-width="2" width="24" x="234" y="18" />
<text class="label" x="246" y="31">25</text>
<rect fill="#DEE6F1" height="24" width="24" x="210" y="18" />
<rect fill="none" height="24" stroke="#405C86" stroke-width="2" width="24" x="210" y="18" />
<text class="label" x="222" y="31">26</text>
<rect fill="#DEE6F1" height="24" width="24" x="186" y="18" />
<rect fill="none" height="24" stroke="#405C86" stroke-width="2" width="24" x="186" y="18" />
<text class="label" x="198" y="31">27</text>
<rect fill="#DEE6F1" height="24" width="24" x="162" y="18" />
<rect fill="none" height="24" stroke="#405C86" stroke-width="2" width="24" x="162" y="18" />
<text class="label" x="174" y="31">28</text>
<rect fill="#DEE6F1" height="24" width="24" x="138" y="18" />
<rect fill="none" height="24" stroke="#405C86" stroke-width="2" width="24" x="138" y="18" />
<text class="label" x="150" y="31">29</text>
<rect fill="#DEE6F1" height="24" width="24" x="114" y="18" />
<rect fill="none" height="24" stroke="#405C86" stroke-width="2" width="24" x="114" y="18" />
<text class="label" x="126" y="31">30</text>
<rect fill="#DEE6F1" height="24" width="24" x="90" y="18" />
<rect fill="none" height="24" stroke="#405C86" stroke-width="2" width="24" x="90" y="18" />
<text class="label" x="102" y="31">31</text>
<text class="register-name" x="80" y="30">Zn2</text>
<text class="intrinsic-name" x="80" y="42">op2</text>
<text class="register-number" x="10" y="30">(1)</text>
<rect fill="#EEDDDB" height="24" width="24" x="834" y="150" />
<rect fill="none" height="24" stroke="#405C86" stroke-width="2" width="24" x="834" y="150" />
<text class="label" x="846" y="163">3</text>
<rect fill="#EEDDDB" height="24" width="24" x="810" y="150" />
<rect fill="none" height="24" stroke="#405C86" stroke-width="2" width="24" x="810" y="150" />
<text class="label" x="822" y="163">4</text>
<rect fill="#EEDDDB" height="24" width="24" x="786" y="150" />
<rect fill="none" height="24" stroke="#405C86" stroke-width="2" width="24" x="786" y="150" />
<text class="label" x="798" y="163">5</text>
<rect fill="#EEDDDB" height="24" width="24" x="762" y="150" />
<rect fill="none" height="24" stroke="#405C86" stroke-width="2" width="24" x="762" y="150" />
<text class="label" x="774" y="163">6</text>
<rect fill="#EEDDDB" height="24" width="24" x="738" y="150" />
<rect fill="none" height="24" stroke="#405C86" stroke-width="2" width="24" x="738" y="150" />
<text class="label" x="750" y="163">7</text>
<rect fill="#EEDDDB" height="24" width="24" x="714" y="150" />
<rect fill="none" height="24" stroke="#405C86" stroke-width="2" width="24" x="714" y="150" />
<text class="label" x="726" y="163">8</text>
<rect fill="#EEDDDB" height="24" width="24" x="690" y="150" />
<rect fill="none" height="24" stroke="#405C86" stroke-width="2" width="24" x="690" y="150" />
<text class="label" x="702" y="163">9</text>
<rect fill="#EEDDDB" height="24" width="24" x="666" y="150" />
<rect fill="none" height="24" stroke="#405C86" stroke-width="2" width="24" x="666" y="150" />
<text class="label" x="678" y="163">10</text>
<rect fill="#EEDDDB" height="24" width="24" x="642" y="150" />
<rect fill="none" height="24" stroke="#405C86" stroke-width="2" width="24" x="642" y="150" />
<text class="label" x="654" y="163">11</text>
<rect fill="#EEDDDB" height="24" width="24" x="618" y="150" />
<rect fill="none" height="24" stroke="#405C86" stroke-width="2" width="24" x="618" y="150" />
<text class="label" x="630" y="163">12</text>
<rect fill="#EEDDDB" height="24" width="24" x="594" y="150" />
<rect fill="none" height="24" stroke="#405C86" stroke-width="2" width="24" x="594" y="150" />
<text class="label" x="606" y="163">13</text>
<rect fill="#EEDDDB" height="24" width="24" x="570" y="150" />
<rect fill="none" height="24" stroke="#405C86" stroke-width="2" width="24" x="570" y="150" />
<text class="label" x="582" y="163">14</text>
<rect fill="#EEDDDB" height="24" width="24" x="546" y="150" />
<rect fill="none" height="24" stroke="#405C86" stroke-width="2" width="24" x="546" y="150" />
<text class="label" x="558" y="163">15</text>
<rect fill="#EEDDDB" height="24" width="24" x="522" y="150" />
<rect fill="none" height="24" stroke="#405C86" stroke-width="2" width="24" x="522" y="150" />
<text class="label" x="534" y="163">16</text>
<rect fill="#EEDDDB" height="24" width="24" x="498" y="150" />
<rect fill="none" height="24" stroke="#405C86" stroke-width="2" width="24" x="498" y="150" />
<text class="label" x="510" y="163">17</text>
<rect fill="#EEDDDB" height="24" width="24" x="474" y="150" />
<rect fill="none" height="24" stroke="#405C86" stroke-width="2" width="24" x="474" y="150" />
<text class="label" x="486" y="163">18</text>
<rect fill="#EEDDDB" height="24" width="24" x="450" y="150" />
<rect fill="none" height="24" stroke="#405C86" stroke-width="2" width="24" x="450" y="150" />
<text class="label" x="462" y="163">19</text>
<rect fill="#EEDDDB" height="24" width="24" x="426" y="150" />
<rect fill="none" height="24" stroke="#405C86" stroke-width="2" width="24" x="426" y="150" />
<text class="label" x="438" y="163">20</text>
<rect fill="#EEDDDB" height="24" width="24" x="402" y="150" />
<rect fill="none" height="24" stroke="#405C86" stroke-width="2" width="24" x="402" y="150" />
<text class="label" x="414" y="163">21</text>
<rect fill="#EEDDDB" height="24" width="24" x="378" y="150" />
<rect fill="none" height="24" stroke="#405C86" stroke-width="2" width="24" x="378" y="150" />
<text class="label" x="390" y="163">22</text>
<rect fill="#EEDDDB" height="24" width="24" x="354" y="150" />
<rect fill="none" height="24" stroke="#405C86" stroke-width="2" width="24" x="354" y="150" />
<text class="label" x="366" y="163">23</text>
<rect fill="#EEDDDB" height="24" width="24" x="330" y="150" />
<rect fill="none" height="24" stroke="#405C86" stroke-width="2" width="24" x="330" y="150" />
<text class="label" x="342" y="163">24</text>
<rect fill="#EEDDDB" height="24" width="24" x="306" y="150" />
<rect fill="none" height="24" stroke="#405C86" stroke-width="2" width="24" x="306" y="150" />
<text class="label" x="318" y="163">25</text>
<rect fill="#EEDDDB" height="24" width="24" x="282" y="150" />
<rect fill="none" height="24" stroke="#405C86" stroke-width="2" width="24" x="282" y="150" />
<text class="label" x="294" y="163">26</text>
<rect fill="#EEDDDB" height="24" width="24" x="258" y="150" />
<rect fill="none" height="24" stroke="#405C86" stroke-width="2" width="24" x="258" y="150" />
<text class="label" x="270" y="163">27</text>
<rect fill="#EEDDDB" height="24" width="24" x="234" y="150" />
<rect fill="none" height="24" stroke="#405C86" stroke-width="2" width="24" x="234" y="150" />
<text class="label" x="246" y="163">28</text>
<rect fill="#EEDDDB" height="24" width="24" x="210" y="150" />
<rect fill="none" height="24" stroke="#405C86" stroke-width="2" width="24" x="210" y="150" />
<text class="label" x="222" y="163">29</text>
<rect fill="#EEDDDB" height="24" width="24" x="186" y="150" />
<rect fill="none" height="24" stroke="#405C86" stroke-width="2" width="24" x="186" y="150" />
<text class="label" x="198" y="163">30</text>
<rect fill="#EEDDDB" height="24" width="24" x="162" y="150" />
<rect fill="none" height="24" stroke="#405C86" stroke-width="2" width="24" x="162" y="150" />
<text class="label" x="174" y="163">31</text>
<rect fill="#DEE6F1" height="24" width="24" x="138" y="150" />
<rect fill="none" height="24" stroke="#405C86" stroke-width="2" width="24" x="138" y="150" />
<text class="label" x="150" y="163">0</text>
<rect fill="#DEE6F1" height="24" width="24" x="114" y="150" />
<rect fill="none" height="24" stroke="#405C86" stroke-width="2" width="24" x="114" y="150" />
<text class="label" x="126" y="163">1</text>
<rect fill="#DEE6F1" height="24" width="24" x="90" y="150" />
<rect fill="none" height="24" stroke="#405C86" stroke-width="2" width="24" x="90" y="150" />
<text class="label" x="102" y="163">2</text>
<text class="register-name" x="80" y="162">Zd</text>
<text class="intrinsic-name" x="80" y="174">returns</text>
<text class="register-number" x="10" y="162">(3)</text>
<line stroke="#567DB6" stroke-width="1" x1="774" x2="846" y1="90.5" y2="149" />
<line stroke="#567DB6" stroke-width="1" x1="750" x2="822" y1="90.5" y2="149" />
<line stroke="#567DB6" stroke-width="1" x1="726" x2="798" y1="90.5" y2="149" />
<line stroke="#567DB6" stroke-width="1" x1="702" x2="774" y1="90.5" y2="149" />
<line stroke="#567DB6" stroke-width="1" x1="678" x2="750" y1="90.5" y2="149" />
<line stroke="#567DB6" stroke-width="1" x1="654" x2="726" y1="90.5" y2="149" />
<line stroke="#567DB6" stroke-width="1" x1="630" x2="702" y1="90.5" y2="149" />
<line stroke="#567DB6" stroke-width="1" x1="606" x2="678" y1="90.5" y2="149" />
<line stroke="#567DB6" stroke-width="1" x1="582" x2="654" y1="90.5" y2="149" />
<line stroke="#567DB6" stroke-width="1" x1="558" x2="630" y1="90.5" y2="149" />
<line stroke="#567DB6" stroke-width="1" x1="534" x2="606" y1="90.5" y2="149" />
<line stroke="#567DB6" stroke-width="1" x1="510" x2="582" y1="90.5" y2="149" />
<line stroke="#567DB6" stroke-width="1" x1="486" x2="558" y1="90.5" y2="149" />
<line stroke="#567DB6" stroke-width="1" x1="462" x2="534" y1="90.5" y2="149" />
<line stroke="#567DB6" stroke-width="1" x1="438" x2="510" y1="90.5" y2="149" />
<line stroke="#567DB6" stroke-width="1" x1="414" x2="486" y1="90.5" y2="149" />
<line stroke="#567DB6" stroke-width="1" x1="390" x2="462" y1="90.5" y2="149" />
<line stroke="#567DB6" stroke-width="1" x1="366" x2="438" y1="90.5" y2="149" />
<line stroke="#567DB6" stroke-width="1" x1="342" x2="414" y1="90.5" y2="149" />
<line stroke="#567DB6" stroke-width="1" x1="318" x2="390" y1="90.5" y2="149" />
<line stroke="#567DB6" stroke-width="1" x1="294" x2="366" y1="90.5" y2="149" />
<line stroke="#567DB6" stroke-width="1" x1="270" x2="342" y1="90.5" y2="149" />
<line stroke="#567DB6" stroke-width="1" x1="246" x2="318" y1="90.5" y2="149" />
<line stroke="#567DB6" stroke-width="1" x1="222" x2="294" y1="90.5" y2="149" />
<line stroke="#567DB6" stroke-width="1" x1="198" x2="270" y1="90.5" y2="149" />
<line stroke="#567DB6" stroke-width="1" x1="174" x2="246" y1="90.5" y2="149" />
<line stroke="#567DB6" stroke-width="1" x1="150" x2="222" y1="90.5" y2="149" />
<line stroke="#567DB6" stroke-width="1" x1="126" x2="198" y1="90.5" y2="149" />
<line stroke="#567DB6" stroke-width="1" x1="102" x2="174" y1="90.5" y2="149" />
<line stroke="#567DB6" stroke-dasharray="3 1" stroke-width="1" x1="846" x2="150" y1="42.5" y2="149" />
<line stroke="#567DB6" stroke-dasharray="3 1" stroke-width="1" x1="822" x2="126" y1="42.5" y2="149" />
<line stroke="#567DB6" stroke-dasharray="3 1" stroke-width="1" x1="798" x2="102" y1="42.5" y2="149" />
<line marker-end="url(#arrowhead)" stroke="none" x1="774" x2="846" y1="90.5" y2="149" />
<line marker-end="url(#arrowhead)" stroke="none" x1="750" x2="822" y1="90.5" y2="149" />
<line marker-end="url(#arrowhead)" stroke="none" x1="726" x2="798" y1="90.5" y2="149" />
<line marker-end="url(#arrowhead)" stroke="none" x1="702" x2="774" y1="90.5" y2="149" />
<line marker-end="url(#arrowhead)" stroke="none" x1="678" x2="750" y1="90.5" y2="149" />
<line marker-end="url(#arrowhead)" stroke="none" x1="654" x2="726" y1="90.5" y2="149" />
<line marker-end="url(#arrowhead)" stroke="none" x1="630" x2="702" y1="90.5" y2="149" />
<line marker-end="url(#arrowhead)" stroke="none" x1="606" x2="678" y1="90.5" y2="149" />
<line marker-end="url(#arrowhead)" stroke="none" x1="582" x2="654" y1="90.5" y2="149" />
<line marker-end="url(#arrowhead)" stroke="none" x1="558" x2="630" y1="90.5" y2="149" />
<line marker-end="url(#arrowhead)" stroke="none" x1="534" x2="606" y1="90.5" y2="149" />
<line marker-end="url(#arrowhead)" stroke="none" x1="510" x2="582" y1="90.5" y2="149" />
<line marker-end="url(#arrowhead)" stroke="none" x1="486" x2="558" y1="90.5" y2="149" />
<line marker-end="url(#arrowhead)" stroke="none" x1="462" x2="534" y1="90.5" y2="149" />
<line marker-end="url(#arrowhead)" stroke="none" x1="438" x2="510" y1="90.5" y2="149" />
<line marker-end="url(#arrowhead)" stroke="none" x1="414" x2="486" y1="90.5" y2="149" />
<line marker-end="url(#arrowhead)" stroke="none" x1="390" x2="462" y1="90.5" y2="149" />
<line marker-end="url(#arrowhead)" stroke="none" x1="366" x2="438" y1="90.5" y2="149" />
<line marker-end="url(#arrowhead)" stroke="none" x1="342" x2="414" y1="90.5" y2="149" />
<line marker-end="url(#arrowhead)" stroke="none" x1="318" x2="390" y1="90.5" y2="149" />
<line marker-end="url(#arrowhead)" stroke="none" x1="294" x2="366" y1="90.5" y2="149" />
<line marker-end="url(#arrowhead)" stroke="none" x1="270" x2="342" y1="90.5" y2="149" />
<line marker-end="url(#arrowhead)" stroke="none" x1="246" x2="318" y1="90.5" y2="149" />
<line marker-end="url(#arrowhead)" stroke="none" x1="222" x2="294" y1="90.5" y2="149" />
<line marker-end="url(#arrowhead)" stroke="none" x1="198" x2="270" y1="90.5" y2="149" />
<line marker-end="url(#arrowhead)" stroke="none" x1="174" x2="246" y1="90.5" y2="149" />
<line marker-end="url(#arrowhead)" stroke="none" x1="150" x2="222" y1="90.5" y2="149" />
<line marker-end="url(#arrowhead)" stroke="none" x1="126" x2="198" y1="90.5" y2="149" />
<line marker-end="url(#arrowhead)" stroke="none" x1="102" x2="174" y1="90.5" y2="149" />
<line marker-end="url(#arrowhead)" stroke="none" stroke-dasharray="3 1" x1="846" x2="150" y1="42.5" y2="149" />
<line marker-end="url(#arrowhead)" stroke="none" stroke-dasharray="3 1" x1="822" x2="126" y1="42.5" y2="149" />
<line marker-end="url(#arrowhead)" stroke="none" stroke-dasharray="3 1" x1="798" x2="102" y1="42.5" y2="149" />
</svg>