<svg xmlns="http://www.w3.org/2000/svg" viewBox="0 0 3174 268">
<style>
.label { font: 14px Helvetica; dominant-baseline: middle; text-anchor: middle; }
.title-left { font: 12px Helvetica; dominant-baseline: middle; }
.title-right { font: 12px Helvetica; dominant-baseline: middle; text-anchor: end; }
.title-intrinsic { font: 12px Helvetica; dominant-baseline: middle; text-anchor: middle; fill: #6778ED; }
.title { font: 12px Helvetica; dominant-baseline: middle; text-anchor: middle; }
.title-unused { font: 12px Helvetica; dominant-baseline: middle; text-anchor: middle; fill: #AAA; }
.register-name { font: 14px Helvetica; dominant-baseline: middle; text-anchor: end; font-style: italic; }
.memory-name { font: 14px Helvetica; dominant-baseline: middle; text-anchor: end; }
.register-number { font: 14px Helvetica; dominant-baseline: middle; text-anchor: start; }
.intrinsic-name { font: 14px Helvetica; dominant-baseline: middle; text-anchor: end; fill: #6778ED; }
.intrinsic-color { fill: #6778ED; }
.small-label { font: 12px Helvetica; dominant-baseline: middle; text-anchor: middle; }
.label-10px { font: 10px Helvetica; dominant-baseline: middle; text-anchor: middle; }
.smaller-label { font: 9px Helvetica; dominant-baseline: middle; text-anchor: middle; }
.label-6px { font: 6px Helvetica; dominant-baseline: middle; text-anchor: middle; }
.label-7px { font: 7px Helvetica; dominant-baseline: middle; text-anchor: middle; }
.unused { fill: #AAA; }
.dim { fill: #888; }
</style>
<defs>
<marker id="arrowhead" markerWidth="10.75" markerHeight="24.5" refX="9.0" refY="6.125" orient="auto">
<polyline points="0.5 0.5, 8.75 6.125, 0.5 11.75" stroke="#567DB6" stroke-width="1" fill="none"/>
</marker>
</defs>
<line stroke="#567DB6" stroke-width="1" x1="3114" x2="3114" y1="42.5" y2="65" />
<line stroke="#567DB6" stroke-width="1" x1="3018" x2="3018" y1="42.5" y2="65" />
<line stroke="#567DB6" stroke-width="1" x1="2922" x2="2922" y1="42.5" y2="65" />
<line stroke="#567DB6" stroke-width="1" x1="2826" x2="2826" y1="42.5" y2="65" />
<line stroke="#567DB6" stroke-width="1" x1="2730" x2="2730" y1="42.5" y2="65" />
<line stroke="#567DB6" stroke-width="1" x1="2634" x2="2634" y1="42.5" y2="65" />
<line stroke="#567DB6" stroke-width="1" x1="2538" x2="2538" y1="42.5" y2="65" />
<line stroke="#567DB6" stroke-width="1" x1="2442" x2="2442" y1="42.5" y2="65" />
<line stroke="#567DB6" stroke-width="1" x1="2346" x2="2346" y1="42.5" y2="65" />
<line stroke="#567DB6" stroke-width="1" x1="2250" x2="2250" y1="42.5" y2="65" />
<line stroke="#567DB6" stroke-width="1" x1="2154" x2="2154" y1="42.5" y2="65" />
<line stroke="#567DB6" stroke-width="1" x1="2058" x2="2058" y1="42.5" y2="65" />
<line stroke="#567DB6" stroke-width="1" x1="1962" x2="1962" y1="42.5" y2="65" />
<line stroke="#567DB6" stroke-width="1" x1="1866" x2="1866" y1="42.5" y2="65" />
<line stroke="#567DB6" stroke-width="1" x1="1770" x2="1770" y1="42.5" y2="65" />
<line stroke="#567DB6" stroke-width="1" x1="1674" x2="1674" y1="42.5" y2="65" />
<line stroke="#567DB6" stroke-width="1" x1="1578" x2="1578" y1="42.5" y2="65" />
<line stroke="#567DB6" stroke-width="1" x1="1482" x2="1482" y1="42.5" y2="65" />
<line stroke="#567DB6" stroke-width="1" x1="1386" x2="1386" y1="42.5" y2="65" />
<line stroke="#567DB6" stroke-width="1" x1="1290" x2="1290" y1="42.5" y2="65" />
<line stroke="#567DB6" stroke-width="1" x1="1194" x2="1194" y1="42.5" y2="65" />
<line stroke="#567DB6" stroke-width="1" x1="1098" x2="1098" y1="42.5" y2="65" />
<line stroke="#567DB6" stroke-width="1" x1="1002" x2="1002" y1="42.5" y2="65" />
<line stroke="#567DB6" stroke-width="1" x1="906" x2="906" y1="42.5" y2="65" />
<line stroke="#567DB6" stroke-width="1" x1="810" x2="810" y1="42.5" y2="65" />
<line stroke="#567DB6" stroke-width="1" x1="714" x2="714" y1="42.5" y2="65" />
<line stroke="#567DB6" stroke-width="1" x1="618" x2="618" y1="42.5" y2="65" />
<line stroke="#567DB6" stroke-width="1" x1="522" x2="522" y1="42.5" y2="65" />
<line stroke="#567DB6" stroke-width="1" x1="426" x2="426" y1="42.5" y2="65" />
<line stroke="#567DB6" stroke-width="1" x1="330" x2="330" y1="42.5" y2="65" />
<line stroke="#567DB6" stroke-width="1" x1="234" x2="234" y1="42.5" y2="65" />
<line stroke="#567DB6" stroke-width="1" x1="138" x2="138" y1="42.5" y2="65" />
<line stroke="#567DB6" stroke-width="1" x1="3114" x2="3114" y1="90.5" y2="114.5" />
<line stroke="#567DB6" stroke-width="1" x1="3018" x2="3114" y1="90.5" y2="114.5" />
<line stroke="#567DB6" stroke-width="1" x1="2922" x2="2922" y1="90.5" y2="114.5" />
<line stroke="#567DB6" stroke-width="1" x1="2826" x2="2922" y1="90.5" y2="114.5" />
<line stroke="#567DB6" stroke-width="1" x1="2730" x2="2730" y1="90.5" y2="114.5" />
<line stroke="#567DB6" stroke-width="1" x1="2634" x2="2730" y1="90.5" y2="114.5" />
<line stroke="#567DB6" stroke-width="1" x1="2538" x2="2538" y1="90.5" y2="114.5" />
<line stroke="#567DB6" stroke-width="1" x1="2442" x2="2538" y1="90.5" y2="114.5" />
<line stroke="#567DB6" stroke-width="1" x1="2346" x2="2346" y1="90.5" y2="114.5" />
<line stroke="#567DB6" stroke-width="1" x1="2250" x2="2346" y1="90.5" y2="114.5" />
<line stroke="#567DB6" stroke-width="1" x1="2154" x2="2154" y1="90.5" y2="114.5" />
<line stroke="#567DB6" stroke-width="1" x1="2058" x2="2154" y1="90.5" y2="114.5" />
<line stroke="#567DB6" stroke-width="1" x1="1962" x2="1962" y1="90.5" y2="114.5" />
<line stroke="#567DB6" stroke-width="1" x1="1866" x2="1962" y1="90.5" y2="114.5" />
<line stroke="#567DB6" stroke-width="1" x1="1770" x2="1770" y1="90.5" y2="114.5" />
<line stroke="#567DB6" stroke-width="1" x1="1674" x2="1770" y1="90.5" y2="114.5" />
<line stroke="#567DB6" stroke-width="1" x1="1578" x2="1578" y1="90.5" y2="114.5" />
<line stroke="#567DB6" stroke-width="1" x1="1482" x2="1578" y1="90.5" y2="114.5" />
<line stroke="#567DB6" stroke-width="1" x1="1386" x2="1386" y1="90.5" y2="114.5" />
<line stroke="#567DB6" stroke-width="1" x1="1290" x2="1386" y1="90.5" y2="114.5" />
<line stroke="#567DB6" stroke-width="1" x1="1194" x2="1194" y1="90.5" y2="114.5" />
<line stroke="#567DB6" stroke-width="1" x1="1098" x2="1194" y1="90.5" y2="114.5" />
<line stroke="#567DB6" stroke-width="1" x1="1002" x2="1002" y1="90.5" y2="114.5" />
<line stroke="#567DB6" stroke-width="1" x1="906" x2="1002" y1="90.5" y2="114.5" />
<line stroke="#567DB6" stroke-width="1" x1="810" x2="810" y1="90.5" y2="114.5" />
<line stroke="#567DB6" stroke-width="1" x1="714" x2="810" y1="90.5" y2="114.5" />
<line stroke="#567DB6" stroke-width="1" x1="618" x2="618" y1="90.5" y2="114.5" />
<line stroke="#567DB6" stroke-width="1" x1="522" x2="618" y1="90.5" y2="114.5" />
<line stroke="#567DB6" stroke-width="1" x1="426" x2="426" y1="90.5" y2="114.5" />
<line stroke="#567DB6" stroke-width="1" x1="330" x2="426" y1="90.5" y2="114.5" />
<line stroke="#567DB6" stroke-width="1" x1="234" x2="234" y1="90.5" y2="114.5" />
<line stroke="#567DB6" stroke-width="1" x1="138" x2="234" y1="90.5" y2="114.5" />
<line stroke="#567DB6" stroke-width="1" x1="3114" x2="3114" y1="114.5" y2="138.5" />
<polyline fill="none" points="2826.0 90.5,2922.0 114.5,3114.0 138.5" stroke="#567DB6" stroke-width="1" />
<line stroke="#567DB6" stroke-width="1" x1="2730" x2="2730" y1="114.5" y2="138.5" />
<polyline fill="none" points="2442.0 90.5,2538.0 114.5,2730.0 138.5" stroke="#567DB6" stroke-width="1" />
<line stroke="#567DB6" stroke-width="1" x1="2346" x2="2346" y1="114.5" y2="138.5" />
<polyline fill="none" points="2058.0 90.5,2154.0 114.5,2346.0 138.5" stroke="#567DB6" stroke-width="1" />
<line stroke="#567DB6" stroke-width="1" x1="1962" x2="1962" y1="114.5" y2="138.5" />
<polyline fill="none" points="1674.0 90.5,1770.0 114.5,1962.0 138.5" stroke="#567DB6" stroke-width="1" />
<line stroke="#567DB6" stroke-width="1" x1="1578" x2="1578" y1="114.5" y2="138.5" />
<polyline fill="none" points="1290.0 90.5,1386.0 114.5,1578.0 138.5" stroke="#567DB6" stroke-width="1" />
<line stroke="#567DB6" stroke-width="1" x1="1194" x2="1194" y1="114.5" y2="138.5" />
<polyline fill="none" points="906.0 90.5,1002.0 114.5,1194.0 138.5" stroke="#567DB6" stroke-width="1" />
<line stroke="#567DB6" stroke-width="1" x1="810" x2="810" y1="114.5" y2="138.5" />
<polyline fill="none" points="522.0 90.5,618.0 114.5,810.0 138.5" stroke="#567DB6" stroke-width="1" />
<line stroke="#567DB6" stroke-width="1" x1="426" x2="426" y1="114.5" y2="138.5" />
<polyline fill="none" points="138.0 90.5,234.0 114.5,426.0 138.5" stroke="#567DB6" stroke-width="1" />
<line stroke="#567DB6" stroke-width="1" x1="3114" x2="3114" y1="138.5" y2="162.5" />
<polyline fill="none" points="2538.0 114.5,2730.0 138.5,3114.0 162.5" stroke="#567DB6" stroke-width="1" />
<line stroke="#567DB6" stroke-width="1" x1="2346" x2="2346" y1="138.5" y2="162.5" />
<polyline fill="none" points="1770.0 114.5,1962.0 138.5,2346.0 162.5" stroke="#567DB6" stroke-width="1" />
<line stroke="#567DB6" stroke-width="1" x1="1578" x2="1578" y1="138.5" y2="162.5" />
<polyline fill="none" points="1002.0 114.5,1194.0 138.5,1578.0 162.5" stroke="#567DB6" stroke-width="1" />
<line stroke="#567DB6" stroke-width="1" x1="810" x2="810" y1="138.5" y2="162.5" />
<polyline fill="none" points="234.0 114.5,426.0 138.5,810.0 162.5" stroke="#567DB6" stroke-width="1" />
<line stroke="#567DB6" stroke-width="1" x1="3114" x2="3114" y1="162.5" y2="186.5" />
<polyline fill="none" points="1962.0 138.5,2346.0 162.5,3114.0 186.5" stroke="#567DB6" stroke-width="1" />
<line stroke="#567DB6" stroke-width="1" x1="1578" x2="1578" y1="162.5" y2="186.5" />
<polyline fill="none" points="426.0 138.5,810.0 162.5,1578.0 186.5" stroke="#567DB6" stroke-width="1" />
<line stroke="#567DB6" stroke-width="1" x1="3114" x2="3114" y1="186.5" y2="210.5" />
<polyline fill="none" points="810.0 162.5,1578.0 186.5,3114.0 210.5" stroke="#567DB6" stroke-width="1" />
<line stroke="#567DB6" stroke-width="1" x1="3114" x2="3114" y1="210.5" y2="233.5" />
<text class="title-left" x="90" y="9">upper</text>
<text class="title-right" x="3162" y="9">lower</text>
<circle cx="3114" cy="114.5" fill="#567DB6" r="2.5" />
<circle cx="2922" cy="114.5" fill="#567DB6" r="2.5" />
<circle cx="2730" cy="114.5" fill="#567DB6" r="2.5" />
<circle cx="2538" cy="114.5" fill="#567DB6" r="2.5" />
<circle cx="2346" cy="114.5" fill="#567DB6" r="2.5" />
<circle cx="2154" cy="114.5" fill="#567DB6" r="2.5" />
<circle cx="1962" cy="114.5" fill="#567DB6" r="2.5" />
<circle cx="1770" cy="114.5" fill="#567DB6" r="2.5" />
<circle cx="1578" cy="114.5" fill="#567DB6" r="2.5" />
<circle cx="1386" cy="114.5" fill="#567DB6" r="2.5" />
<circle cx="1194" cy="114.5" fill="#567DB6" r="2.5" />
<circle cx="1002" cy="114.5" fill="#567DB6" r="2.5" />
<circle cx="810" cy="114.5" fill="#567DB6" r="2.5" />
<circle cx="618" cy="114.5" fill="#567DB6" r="2.5" />
<circle cx="426" cy="114.5" fill="#567DB6" r="2.5" />
<circle cx="234" cy="114.5" fill="#567DB6" r="2.5" />
<circle cx="3114" cy="138.5" fill="#567DB6" r="2.5" />
<circle cx="2730" cy="138.5" fill="#567DB6" r="2.5" />
<circle cx="2346" cy="138.5" fill="#567DB6" r="2.5" />
<circle cx="1962" cy="138.5" fill="#567DB6" r="2.5" />
<circle cx="1578" cy="138.5" fill="#567DB6" r="2.5" />
<circle cx="1194" cy="138.5" fill="#567DB6" r="2.5" />
<circle cx="810" cy="138.5" fill="#567DB6" r="2.5" />
<circle cx="426" cy="138.5" fill="#567DB6" r="2.5" />
<circle cx="3114" cy="162.5" fill="#567DB6" r="2.5" />
<circle cx="2346" cy="162.5" fill="#567DB6" r="2.5" />
<circle cx="1578" cy="162.5" fill="#567DB6" r="2.5" />
<circle cx="810" cy="162.5" fill="#567DB6" r="2.5" />
<circle cx="3114" cy="186.5" fill="#567DB6" r="2.5" />
<circle cx="1578" cy="186.5" fill="#567DB6" r="2.5" />
<circle cx="3114" cy="210.5" fill="#567DB6" r="2.5" />
<rect fill="#DEE6F1" height="24" width="96" x="3066" y="18" />
<rect fill="none" height="24" stroke="#405C86" stroke-width="2" width="96" x="3066" y="18" />
<rect fill="#DEE6F1" height="24" width="96" x="2970" y="18" />
<rect fill="none" height="24" stroke="#405C86" stroke-width="2" width="96" x="2970" y="18" />
<rect fill="#DEE6F1" height="24" width="96" x="2874" y="18" />
<rect fill="none" height="24" stroke="#405C86" stroke-width="2" width="96" x="2874" y="18" />
<rect fill="#DEE6F1" height="24" width="96" x="2778" y="18" />
<rect fill="none" height="24" stroke="#405C86" stroke-width="2" width="96" x="2778" y="18" />
<rect fill="#DEE6F1" height="24" width="96" x="2682" y="18" />
<rect fill="none" height="24" stroke="#405C86" stroke-width="2" width="96" x="2682" y="18" />
<rect fill="#DEE6F1" height="24" width="96" x="2586" y="18" />
<rect fill="none" height="24" stroke="#405C86" stroke-width="2" width="96" x="2586" y="18" />
<rect fill="#DEE6F1" height="24" width="96" x="2490" y="18" />
<rect fill="none" height="24" stroke="#405C86" stroke-width="2" width="96" x="2490" y="18" />
<rect fill="#DEE6F1" height="24" width="96" x="2394" y="18" />
<rect fill="none" height="24" stroke="#405C86" stroke-width="2" width="96" x="2394" y="18" />
<rect fill="#DEE6F1" height="24" width="96" x="2298" y="18" />
<rect fill="none" height="24" stroke="#405C86" stroke-width="2" width="96" x="2298" y="18" />
<rect fill="#DEE6F1" height="24" width="96" x="2202" y="18" />
<rect fill="none" height="24" stroke="#405C86" stroke-width="2" width="96" x="2202" y="18" />
<rect fill="#DEE6F1" height="24" width="96" x="2106" y="18" />
<rect fill="none" height="24" stroke="#405C86" stroke-width="2" width="96" x="2106" y="18" />
<rect fill="#DEE6F1" height="24" width="96" x="2010" y="18" />
<rect fill="none" height="24" stroke="#405C86" stroke-width="2" width="96" x="2010" y="18" />
<rect fill="#DEE6F1" height="24" width="96" x="1914" y="18" />
<rect fill="none" height="24" stroke="#405C86" stroke-width="2" width="96" x="1914" y="18" />
<rect fill="#DEE6F1" height="24" width="96" x="1818" y="18" />
<rect fill="none" height="24" stroke="#405C86" stroke-width="2" width="96" x="1818" y="18" />
<rect fill="#DEE6F1" height="24" width="96" x="1722" y="18" />
<rect fill="none" height="24" stroke="#405C86" stroke-width="2" width="96" x="1722" y="18" />
<rect fill="#DEE6F1" height="24" width="96" x="1626" y="18" />
<rect fill="none" height="24" stroke="#405C86" stroke-width="2" width="96" x="1626" y="18" />
<rect fill="#DEE6F1" height="24" width="96" x="1530" y="18" />
<rect fill="none" height="24" stroke="#405C86" stroke-width="2" width="96" x="1530" y="18" />
<rect fill="#DEE6F1" height="24" width="96" x="1434" y="18" />
<rect fill="none" height="24" stroke="#405C86" stroke-width="2" width="96" x="1434" y="18" />
<rect fill="#DEE6F1" height="24" width="96" x="1338" y="18" />
<rect fill="none" height="24" stroke="#405C86" stroke-width="2" width="96" x="1338" y="18" />
<rect fill="#DEE6F1" height="24" width="96" x="1242" y="18" />
<rect fill="none" height="24" stroke="#405C86" stroke-width="2" width="96" x="1242" y="18" />
<rect fill="#DEE6F1" height="24" width="96" x="1146" y="18" />
<rect fill="none" height="24" stroke="#405C86" stroke-width="2" width="96" x="1146" y="18" />
<rect fill="#DEE6F1" height="24" width="96" x="1050" y="18" />
<rect fill="none" height="24" stroke="#405C86" stroke-width="2" width="96" x="1050" y="18" />
<rect fill="#DEE6F1" height="24" width="96" x="954" y="18" />
<rect fill="none" height="24" stroke="#405C86" stroke-width="2" width="96" x="954" y="18" />
<rect fill="#DEE6F1" height="24" width="96" x="858" y="18" />
<rect fill="none" height="24" stroke="#405C86" stroke-width="2" width="96" x="858" y="18" />
<rect fill="#DEE6F1" height="24" width="96" x="762" y="18" />
<rect fill="none" height="24" stroke="#405C86" stroke-width="2" width="96" x="762" y="18" />
<rect fill="#DEE6F1" height="24" width="96" x="666" y="18" />
<rect fill="none" height="24" stroke="#405C86" stroke-width="2" width="96" x="666" y="18" />
<rect fill="#DEE6F1" height="24" width="96" x="570" y="18" />
<rect fill="none" height="24" stroke="#405C86" stroke-width="2" width="96" x="570" y="18" />
<rect fill="#DEE6F1" height="24" width="96" x="474" y="18" />
<rect fill="none" height="24" stroke="#405C86" stroke-width="2" width="96" x="474" y="18" />
<rect fill="#DEE6F1" height="24" width="96" x="378" y="18" />
<rect fill="none" height="24" stroke="#405C86" stroke-width="2" width="96" x="378" y="18" />
<rect fill="#DEE6F1" height="24" width="96" x="282" y="18" />
<rect fill="none" height="24" stroke="#405C86" stroke-width="2" width="96" x="282" y="18" />
<rect fill="#DEE6F1" height="24" width="96" x="186" y="18" />
<rect fill="none" height="24" stroke="#405C86" stroke-width="2" width="96" x="186" y="18" />
<rect fill="#DEE6F1" height="24" width="96" x="90" y="18" />
<rect fill="none" height="24" stroke="#405C86" stroke-width="2" width="96" x="90" y="18" />
<text class="register-name" x="80" y="30">Zn</text>
<text class="intrinsic-name" x="80" y="42">op</text>
<text class="register-number" x="10" y="30">(1)</text>
<rect fill="#DEE6F1" height="24" width="12" x="3108" y="66" />
<rect fill="none" height="24" stroke="#405C86" stroke-width="2" width="12" x="3108" y="66" />
<rect fill="none" height="24" stroke="#405C86" stroke-dasharray="3 1" stroke-dashoffset="1.5" stroke-width="1" width="12" x="3096" y="66" />
<text class="label unused" x="3102" y="79"></text>
<rect fill="none" height="24" stroke="#405C86" stroke-dasharray="3 1" stroke-dashoffset="1.5" stroke-width="1" width="12" x="3084" y="66" />
<text class="label unused" x="3090" y="79"></text>
<rect fill="none" height="24" stroke="#405C86" stroke-dasharray="3 1" stroke-dashoffset="1.5" stroke-width="1" width="12" x="3072" y="66" />
<text class="label unused" x="3078" y="79"></text>
<rect fill="#DEE6F1" height="24" width="12" x="3012" y="66" />
<rect fill="none" height="24" stroke="#405C86" stroke-width="2" width="12" x="3012" y="66" />
<rect fill="none" height="24" stroke="#405C86" stroke-dasharray="3 1" stroke-dashoffset="1.5" stroke-width="1" width="12" x="3000" y="66" />
<text class="label unused" x="3006" y="79"></text>
<rect fill="none" height="24" stroke="#405C86" stroke-dasharray="3 1" stroke-dashoffset="1.5" stroke-width="1" width="12" x="2988" y="66" />
<text class="label unused" x="2994" y="79"></text>
<rect fill="none" height="24" stroke="#405C86" stroke-dasharray="3 1" stroke-dashoffset="1.5" stroke-width="1" width="12" x="2976" y="66" />
<text class="label unused" x="2982" y="79"></text>
<rect fill="#DEE6F1" height="24" width="12" x="2916" y="66" />
<rect fill="none" height="24" stroke="#405C86" stroke-width="2" width="12" x="2916" y="66" />
<rect fill="none" height="24" stroke="#405C86" stroke-dasharray="3 1" stroke-dashoffset="1.5" stroke-width="1" width="12" x="2904" y="66" />
<text class="label unused" x="2910" y="79"></text>
<rect fill="none" height="24" stroke="#405C86" stroke-dasharray="3 1" stroke-dashoffset="1.5" stroke-width="1" width="12" x="2892" y="66" />
<text class="label unused" x="2898" y="79"></text>
<rect fill="none" height="24" stroke="#405C86" stroke-dasharray="3 1" stroke-dashoffset="1.5" stroke-width="1" width="12" x="2880" y="66" />
<text class="label unused" x="2886" y="79"></text>
<rect fill="#DEE6F1" height="24" width="12" x="2820" y="66" />
<rect fill="none" height="24" stroke="#405C86" stroke-width="2" width="12" x="2820" y="66" />
<rect fill="none" height="24" stroke="#405C86" stroke-dasharray="3 1" stroke-dashoffset="1.5" stroke-width="1" width="12" x="2808" y="66" />
<text class="label unused" x="2814" y="79"></text>
<rect fill="none" height="24" stroke="#405C86" stroke-dasharray="3 1" stroke-dashoffset="1.5" stroke-width="1" width="12" x="2796" y="66" />
<text class="label unused" x="2802" y="79"></text>
<rect fill="none" height="24" stroke="#405C86" stroke-dasharray="3 1" stroke-dashoffset="1.5" stroke-width="1" width="12" x="2784" y="66" />
<text class="label unused" x="2790" y="79"></text>
<rect fill="#DEE6F1" height="24" width="12" x="2724" y="66" />
<rect fill="none" height="24" stroke="#405C86" stroke-width="2" width="12" x="2724" y="66" />
<rect fill="none" height="24" stroke="#405C86" stroke-dasharray="3 1" stroke-dashoffset="1.5" stroke-width="1" width="12" x="2712" y="66" />
<text class="label unused" x="2718" y="79"></text>
<rect fill="none" height="24" stroke="#405C86" stroke-dasharray="3 1" stroke-dashoffset="1.5" stroke-width="1" width="12" x="2700" y="66" />
<text class="label unused" x="2706" y="79"></text>
<rect fill="none" height="24" stroke="#405C86" stroke-dasharray="3 1" stroke-dashoffset="1.5" stroke-width="1" width="12" x="2688" y="66" />
<text class="label unused" x="2694" y="79"></text>
<rect fill="#DEE6F1" height="24" width="12" x="2628" y="66" />
<rect fill="none" height="24" stroke="#405C86" stroke-width="2" width="12" x="2628" y="66" />
<rect fill="none" height="24" stroke="#405C86" stroke-dasharray="3 1" stroke-dashoffset="1.5" stroke-width="1" width="12" x="2616" y="66" />
<text class="label unused" x="2622" y="79"></text>
<rect fill="none" height="24" stroke="#405C86" stroke-dasharray="3 1" stroke-dashoffset="1.5" stroke-width="1" width="12" x="2604" y="66" />
<text class="label unused" x="2610" y="79"></text>
<rect fill="none" height="24" stroke="#405C86" stroke-dasharray="3 1" stroke-dashoffset="1.5" stroke-width="1" width="12" x="2592" y="66" />
<text class="label unused" x="2598" y="79"></text>
<rect fill="#DEE6F1" height="24" width="12" x="2532" y="66" />
<rect fill="none" height="24" stroke="#405C86" stroke-width="2" width="12" x="2532" y="66" />
<rect fill="none" height="24" stroke="#405C86" stroke-dasharray="3 1" stroke-dashoffset="1.5" stroke-width="1" width="12" x="2520" y="66" />
<text class="label unused" x="2526" y="79"></text>
<rect fill="none" height="24" stroke="#405C86" stroke-dasharray="3 1" stroke-dashoffset="1.5" stroke-width="1" width="12" x="2508" y="66" />
<text class="label unused" x="2514" y="79"></text>
<rect fill="none" height="24" stroke="#405C86" stroke-dasharray="3 1" stroke-dashoffset="1.5" stroke-width="1" width="12" x="2496" y="66" />
<text class="label unused" x="2502" y="79"></text>
<rect fill="#DEE6F1" height="24" width="12" x="2436" y="66" />
<rect fill="none" height="24" stroke="#405C86" stroke-width="2" width="12" x="2436" y="66" />
<rect fill="none" height="24" stroke="#405C86" stroke-dasharray="3 1" stroke-dashoffset="1.5" stroke-width="1" width="12" x="2424" y="66" />
<text class="label unused" x="2430" y="79"></text>
<rect fill="none" height="24" stroke="#405C86" stroke-dasharray="3 1" stroke-dashoffset="1.5" stroke-width="1" width="12" x="2412" y="66" />
<text class="label unused" x="2418" y="79"></text>
<rect fill="none" height="24" stroke="#405C86" stroke-dasharray="3 1" stroke-dashoffset="1.5" stroke-width="1" width="12" x="2400" y="66" />
<text class="label unused" x="2406" y="79"></text>
<rect fill="#DEE6F1" height="24" width="12" x="2340" y="66" />
<rect fill="none" height="24" stroke="#405C86" stroke-width="2" width="12" x="2340" y="66" />
<rect fill="none" height="24" stroke="#405C86" stroke-dasharray="3 1" stroke-dashoffset="1.5" stroke-width="1" width="12" x="2328" y="66" />
<text class="label unused" x="2334" y="79"></text>
<rect fill="none" height="24" stroke="#405C86" stroke-dasharray="3 1" stroke-dashoffset="1.5" stroke-width="1" width="12" x="2316" y="66" />
<text class="label unused" x="2322" y="79"></text>
<rect fill="none" height="24" stroke="#405C86" stroke-dasharray="3 1" stroke-dashoffset="1.5" stroke-width="1" width="12" x="2304" y="66" />
<text class="label unused" x="2310" y="79"></text>
<rect fill="#DEE6F1" height="24" width="12" x="2244" y="66" />
<rect fill="none" height="24" stroke="#405C86" stroke-width="2" width="12" x="2244" y="66" />
<rect fill="none" height="24" stroke="#405C86" stroke-dasharray="3 1" stroke-dashoffset="1.5" stroke-width="1" width="12" x="2232" y="66" />
<text class="label unused" x="2238" y="79"></text>
<rect fill="none" height="24" stroke="#405C86" stroke-dasharray="3 1" stroke-dashoffset="1.5" stroke-width="1" width="12" x="2220" y="66" />
<text class="label unused" x="2226" y="79"></text>
<rect fill="none" height="24" stroke="#405C86" stroke-dasharray="3 1" stroke-dashoffset="1.5" stroke-width="1" width="12" x="2208" y="66" />
<text class="label unused" x="2214" y="79"></text>
<rect fill="#DEE6F1" height="24" width="12" x="2148" y="66" />
<rect fill="none" height="24" stroke="#405C86" stroke-width="2" width="12" x="2148" y="66" />
<rect fill="none" height="24" stroke="#405C86" stroke-dasharray="3 1" stroke-dashoffset="1.5" stroke-width="1" width="12" x="2136" y="66" />
<text class="label unused" x="2142" y="79"></text>
<rect fill="none" height="24" stroke="#405C86" stroke-dasharray="3 1" stroke-dashoffset="1.5" stroke-width="1" width="12" x="2124" y="66" />
<text class="label unused" x="2130" y="79"></text>
<rect fill="none" height="24" stroke="#405C86" stroke-dasharray="3 1" stroke-dashoffset="1.5" stroke-width="1" width="12" x="2112" y="66" />
<text class="label unused" x="2118" y="79"></text>
<rect fill="#DEE6F1" height="24" width="12" x="2052" y="66" />
<rect fill="none" height="24" stroke="#405C86" stroke-width="2" width="12" x="2052" y="66" />
<rect fill="none" height="24" stroke="#405C86" stroke-dasharray="3 1" stroke-dashoffset="1.5" stroke-width="1" width="12" x="2040" y="66" />
<text class="label unused" x="2046" y="79"></text>
<rect fill="none" height="24" stroke="#405C86" stroke-dasharray="3 1" stroke-dashoffset="1.5" stroke-width="1" width="12" x="2028" y="66" />
<text class="label unused" x="2034" y="79"></text>
<rect fill="none" height="24" stroke="#405C86" stroke-dasharray="3 1" stroke-dashoffset="1.5" stroke-width="1" width="12" x="2016" y="66" />
<text class="label unused" x="2022" y="79"></text>
<rect fill="#DEE6F1" height="24" width="12" x="1956" y="66" />
<rect fill="none" height="24" stroke="#405C86" stroke-width="2" width="12" x="1956" y="66" />
<rect fill="none" height="24" stroke="#405C86" stroke-dasharray="3 1" stroke-dashoffset="1.5" stroke-width="1" width="12" x="1944" y="66" />
<text class="label unused" x="1950" y="79"></text>
<rect fill="none" height="24" stroke="#405C86" stroke-dasharray="3 1" stroke-dashoffset="1.5" stroke-width="1" width="12" x="1932" y="66" />
<text class="label unused" x="1938" y="79"></text>
<rect fill="none" height="24" stroke="#405C86" stroke-dasharray="3 1" stroke-dashoffset="1.5" stroke-width="1" width="12" x="1920" y="66" />
<text class="label unused" x="1926" y="79"></text>
<rect fill="#DEE6F1" height="24" width="12" x="1860" y="66" />
<rect fill="none" height="24" stroke="#405C86" stroke-width="2" width="12" x="1860" y="66" />
<rect fill="none" height="24" stroke="#405C86" stroke-dasharray="3 1" stroke-dashoffset="1.5" stroke-width="1" width="12" x="1848" y="66" />
<text class="label unused" x="1854" y="79"></text>
<rect fill="none" height="24" stroke="#405C86" stroke-dasharray="3 1" stroke-dashoffset="1.5" stroke-width="1" width="12" x="1836" y="66" />
<text class="label unused" x="1842" y="79"></text>
<rect fill="none" height="24" stroke="#405C86" stroke-dasharray="3 1" stroke-dashoffset="1.5" stroke-width="1" width="12" x="1824" y="66" />
<text class="label unused" x="1830" y="79"></text>
<rect fill="#DEE6F1" height="24" width="12" x="1764" y="66" />
<rect fill="none" height="24" stroke="#405C86" stroke-width="2" width="12" x="1764" y="66" />
<rect fill="none" height="24" stroke="#405C86" stroke-dasharray="3 1" stroke-dashoffset="1.5" stroke-width="1" width="12" x="1752" y="66" />
<text class="label unused" x="1758" y="79"></text>
<rect fill="none" height="24" stroke="#405C86" stroke-dasharray="3 1" stroke-dashoffset="1.5" stroke-width="1" width="12" x="1740" y="66" />
<text class="label unused" x="1746" y="79"></text>
<rect fill="none" height="24" stroke="#405C86" stroke-dasharray="3 1" stroke-dashoffset="1.5" stroke-width="1" width="12" x="1728" y="66" />
<text class="label unused" x="1734" y="79"></text>
<rect fill="#DEE6F1" height="24" width="12" x="1668" y="66" />
<rect fill="none" height="24" stroke="#405C86" stroke-width="2" width="12" x="1668" y="66" />
<rect fill="none" height="24" stroke="#405C86" stroke-dasharray="3 1" stroke-dashoffset="1.5" stroke-width="1" width="12" x="1656" y="66" />
<text class="label unused" x="1662" y="79"></text>
<rect fill="none" height="24" stroke="#405C86" stroke-dasharray="3 1" stroke-dashoffset="1.5" stroke-width="1" width="12" x="1644" y="66" />
<text class="label unused" x="1650" y="79"></text>
<rect fill="none" height="24" stroke="#405C86" stroke-dasharray="3 1" stroke-dashoffset="1.5" stroke-width="1" width="12" x="1632" y="66" />
<text class="label unused" x="1638" y="79"></text>
<rect fill="#DEE6F1" height="24" width="12" x="1572" y="66" />
<rect fill="none" height="24" stroke="#405C86" stroke-width="2" width="12" x="1572" y="66" />
<rect fill="none" height="24" stroke="#405C86" stroke-dasharray="3 1" stroke-dashoffset="1.5" stroke-width="1" width="12" x="1560" y="66" />
<text class="label unused" x="1566" y="79"></text>
<rect fill="none" height="24" stroke="#405C86" stroke-dasharray="3 1" stroke-dashoffset="1.5" stroke-width="1" width="12" x="1548" y="66" />
<text class="label unused" x="1554" y="79"></text>
<rect fill="none" height="24" stroke="#405C86" stroke-dasharray="3 1" stroke-dashoffset="1.5" stroke-width="1" width="12" x="1536" y="66" />
<text class="label unused" x="1542" y="79"></text>
<rect fill="#DEE6F1" height="24" width="12" x="1476" y="66" />
<rect fill="none" height="24" stroke="#405C86" stroke-width="2" width="12" x="1476" y="66" />
<rect fill="none" height="24" stroke="#405C86" stroke-dasharray="3 1" stroke-dashoffset="1.5" stroke-width="1" width="12" x="1464" y="66" />
<text class="label unused" x="1470" y="79"></text>
<rect fill="none" height="24" stroke="#405C86" stroke-dasharray="3 1" stroke-dashoffset="1.5" stroke-width="1" width="12" x="1452" y="66" />
<text class="label unused" x="1458" y="79"></text>
<rect fill="none" height="24" stroke="#405C86" stroke-dasharray="3 1" stroke-dashoffset="1.5" stroke-width="1" width="12" x="1440" y="66" />
<text class="label unused" x="1446" y="79"></text>
<rect fill="#DEE6F1" height="24" width="12" x="1380" y="66" />
<rect fill="none" height="24" stroke="#405C86" stroke-width="2" width="12" x="1380" y="66" />
<rect fill="none" height="24" stroke="#405C86" stroke-dasharray="3 1" stroke-dashoffset="1.5" stroke-width="1" width="12" x="1368" y="66" />
<text class="label unused" x="1374" y="79"></text>
<rect fill="none" height="24" stroke="#405C86" stroke-dasharray="3 1" stroke-dashoffset="1.5" stroke-width="1" width="12" x="1356" y="66" />
<text class="label unused" x="1362" y="79"></text>
<rect fill="none" height="24" stroke="#405C86" stroke-dasharray="3 1" stroke-dashoffset="1.5" stroke-width="1" width="12" x="1344" y="66" />
<text class="label unused" x="1350" y="79"></text>
<rect fill="#DEE6F1" height="24" width="12" x="1284" y="66" />
<rect fill="none" height="24" stroke="#405C86" stroke-width="2" width="12" x="1284" y="66" />
<rect fill="none" height="24" stroke="#405C86" stroke-dasharray="3 1" stroke-dashoffset="1.5" stroke-width="1" width="12" x="1272" y="66" />
<text class="label unused" x="1278" y="79"></text>
<rect fill="none" height="24" stroke="#405C86" stroke-dasharray="3 1" stroke-dashoffset="1.5" stroke-width="1" width="12" x="1260" y="66" />
<text class="label unused" x="1266" y="79"></text>
<rect fill="none" height="24" stroke="#405C86" stroke-dasharray="3 1" stroke-dashoffset="1.5" stroke-width="1" width="12" x="1248" y="66" />
<text class="label unused" x="1254" y="79"></text>
<rect fill="#DEE6F1" height="24" width="12" x="1188" y="66" />
<rect fill="none" height="24" stroke="#405C86" stroke-width="2" width="12" x="1188" y="66" />
<rect fill="none" height="24" stroke="#405C86" stroke-dasharray="3 1" stroke-dashoffset="1.5" stroke-width="1" width="12" x="1176" y="66" />
<text class="label unused" x="1182" y="79"></text>
<rect fill="none" height="24" stroke="#405C86" stroke-dasharray="3 1" stroke-dashoffset="1.5" stroke-width="1" width="12" x="1164" y="66" />
<text class="label unused" x="1170" y="79"></text>
<rect fill="none" height="24" stroke="#405C86" stroke-dasharray="3 1" stroke-dashoffset="1.5" stroke-width="1" width="12" x="1152" y="66" />
<text class="label unused" x="1158" y="79"></text>
<rect fill="#DEE6F1" height="24" width="12" x="1092" y="66" />
<rect fill="none" height="24" stroke="#405C86" stroke-width="2" width="12" x="1092" y="66" />
<rect fill="none" height="24" stroke="#405C86" stroke-dasharray="3 1" stroke-dashoffset="1.5" stroke-width="1" width="12" x="1080" y="66" />
<text class="label unused" x="1086" y="79"></text>
<rect fill="none" height="24" stroke="#405C86" stroke-dasharray="3 1" stroke-dashoffset="1.5" stroke-width="1" width="12" x="1068" y="66" />
<text class="label unused" x="1074" y="79"></text>
<rect fill="none" height="24" stroke="#405C86" stroke-dasharray="3 1" stroke-dashoffset="1.5" stroke-width="1" width="12" x="1056" y="66" />
<text class="label unused" x="1062" y="79"></text>
<rect fill="#DEE6F1" height="24" width="12" x="996" y="66" />
<rect fill="none" height="24" stroke="#405C86" stroke-width="2" width="12" x="996" y="66" />
<rect fill="none" height="24" stroke="#405C86" stroke-dasharray="3 1" stroke-dashoffset="1.5" stroke-width="1" width="12" x="984" y="66" />
<text class="label unused" x="990" y="79"></text>
<rect fill="none" height="24" stroke="#405C86" stroke-dasharray="3 1" stroke-dashoffset="1.5" stroke-width="1" width="12" x="972" y="66" />
<text class="label unused" x="978" y="79"></text>
<rect fill="none" height="24" stroke="#405C86" stroke-dasharray="3 1" stroke-dashoffset="1.5" stroke-width="1" width="12" x="960" y="66" />
<text class="label unused" x="966" y="79"></text>
<rect fill="#DEE6F1" height="24" width="12" x="900" y="66" />
<rect fill="none" height="24" stroke="#405C86" stroke-width="2" width="12" x="900" y="66" />
<rect fill="none" height="24" stroke="#405C86" stroke-dasharray="3 1" stroke-dashoffset="1.5" stroke-width="1" width="12" x="888" y="66" />
<text class="label unused" x="894" y="79"></text>
<rect fill="none" height="24" stroke="#405C86" stroke-dasharray="3 1" stroke-dashoffset="1.5" stroke-width="1" width="12" x="876" y="66" />
<text class="label unused" x="882" y="79"></text>
<rect fill="none" height="24" stroke="#405C86" stroke-dasharray="3 1" stroke-dashoffset="1.5" stroke-width="1" width="12" x="864" y="66" />
<text class="label unused" x="870" y="79"></text>
<rect fill="#DEE6F1" height="24" width="12" x="804" y="66" />
<rect fill="none" height="24" stroke="#405C86" stroke-width="2" width="12" x="804" y="66" />
<rect fill="none" height="24" stroke="#405C86" stroke-dasharray="3 1" stroke-dashoffset="1.5" stroke-width="1" width="12" x="792" y="66" />
<text class="label unused" x="798" y="79"></text>
<rect fill="none" height="24" stroke="#405C86" stroke-dasharray="3 1" stroke-dashoffset="1.5" stroke-width="1" width="12" x="780" y="66" />
<text class="label unused" x="786" y="79"></text>
<rect fill="none" height="24" stroke="#405C86" stroke-dasharray="3 1" stroke-dashoffset="1.5" stroke-width="1" width="12" x="768" y="66" />
<text class="label unused" x="774" y="79"></text>
<rect fill="#DEE6F1" height="24" width="12" x="708" y="66" />
<rect fill="none" height="24" stroke="#405C86" stroke-width="2" width="12" x="708" y="66" />
<rect fill="none" height="24" stroke="#405C86" stroke-dasharray="3 1" stroke-dashoffset="1.5" stroke-width="1" width="12" x="696" y="66" />
<text class="label unused" x="702" y="79"></text>
<rect fill="none" height="24" stroke="#405C86" stroke-dasharray="3 1" stroke-dashoffset="1.5" stroke-width="1" width="12" x="684" y="66" />
<text class="label unused" x="690" y="79"></text>
<rect fill="none" height="24" stroke="#405C86" stroke-dasharray="3 1" stroke-dashoffset="1.5" stroke-width="1" width="12" x="672" y="66" />
<text class="label unused" x="678" y="79"></text>
<rect fill="#DEE6F1" height="24" width="12" x="612" y="66" />
<rect fill="none" height="24" stroke="#405C86" stroke-width="2" width="12" x="612" y="66" />
<rect fill="none" height="24" stroke="#405C86" stroke-dasharray="3 1" stroke-dashoffset="1.5" stroke-width="1" width="12" x="600" y="66" />
<text class="label unused" x="606" y="79"></text>
<rect fill="none" height="24" stroke="#405C86" stroke-dasharray="3 1" stroke-dashoffset="1.5" stroke-width="1" width="12" x="588" y="66" />
<text class="label unused" x="594" y="79"></text>
<rect fill="none" height="24" stroke="#405C86" stroke-dasharray="3 1" stroke-dashoffset="1.5" stroke-width="1" width="12" x="576" y="66" />
<text class="label unused" x="582" y="79"></text>
<rect fill="#DEE6F1" height="24" width="12" x="516" y="66" />
<rect fill="none" height="24" stroke="#405C86" stroke-width="2" width="12" x="516" y="66" />
<rect fill="none" height="24" stroke="#405C86" stroke-dasharray="3 1" stroke-dashoffset="1.5" stroke-width="1" width="12" x="504" y="66" />
<text class="label unused" x="510" y="79"></text>
<rect fill="none" height="24" stroke="#405C86" stroke-dasharray="3 1" stroke-dashoffset="1.5" stroke-width="1" width="12" x="492" y="66" />
<text class="label unused" x="498" y="79"></text>
<rect fill="none" height="24" stroke="#405C86" stroke-dasharray="3 1" stroke-dashoffset="1.5" stroke-width="1" width="12" x="480" y="66" />
<text class="label unused" x="486" y="79"></text>
<rect fill="#DEE6F1" height="24" width="12" x="420" y="66" />
<rect fill="none" height="24" stroke="#405C86" stroke-width="2" width="12" x="420" y="66" />
<rect fill="none" height="24" stroke="#405C86" stroke-dasharray="3 1" stroke-dashoffset="1.5" stroke-width="1" width="12" x="408" y="66" />
<text class="label unused" x="414" y="79"></text>
<rect fill="none" height="24" stroke="#405C86" stroke-dasharray="3 1" stroke-dashoffset="1.5" stroke-width="1" width="12" x="396" y="66" />
<text class="label unused" x="402" y="79"></text>
<rect fill="none" height="24" stroke="#405C86" stroke-dasharray="3 1" stroke-dashoffset="1.5" stroke-width="1" width="12" x="384" y="66" />
<text class="label unused" x="390" y="79"></text>
<rect fill="#DEE6F1" height="24" width="12" x="324" y="66" />
<rect fill="none" height="24" stroke="#405C86" stroke-width="2" width="12" x="324" y="66" />
<rect fill="none" height="24" stroke="#405C86" stroke-dasharray="3 1" stroke-dashoffset="1.5" stroke-width="1" width="12" x="312" y="66" />
<text class="label unused" x="318" y="79"></text>
<rect fill="none" height="24" stroke="#405C86" stroke-dasharray="3 1" stroke-dashoffset="1.5" stroke-width="1" width="12" x="300" y="66" />
<text class="label unused" x="306" y="79"></text>
<rect fill="none" height="24" stroke="#405C86" stroke-dasharray="3 1" stroke-dashoffset="1.5" stroke-width="1" width="12" x="288" y="66" />
<text class="label unused" x="294" y="79"></text>
<rect fill="#DEE6F1" height="24" width="12" x="228" y="66" />
<rect fill="none" height="24" stroke="#405C86" stroke-width="2" width="12" x="228" y="66" />
<rect fill="none" height="24" stroke="#405C86" stroke-dasharray="3 1" stroke-dashoffset="1.5" stroke-width="1" width="12" x="216" y="66" />
<text class="label unused" x="222" y="79"></text>
<rect fill="none" height="24" stroke="#405C86" stroke-dasharray="3 1" stroke-dashoffset="1.5" stroke-width="1" width="12" x="204" y="66" />
<text class="label unused" x="210" y="79"></text>
<rect fill="none" height="24" stroke="#405C86" stroke-dasharray="3 1" stroke-dashoffset="1.5" stroke-width="1" width="12" x="192" y="66" />
<text class="label unused" x="198" y="79"></text>
<rect fill="#DEE6F1" height="24" width="12" x="132" y="66" />
<rect fill="none" height="24" stroke="#405C86" stroke-width="2" width="12" x="132" y="66" />
<rect fill="none" height="24" stroke="#405C86" stroke-dasharray="3 1" stroke-dashoffset="1.5" stroke-width="1" width="12" x="120" y="66" />
<text class="label unused" x="126" y="79"></text>
<rect fill="none" height="24" stroke="#405C86" stroke-dasharray="3 1" stroke-dashoffset="1.5" stroke-width="1" width="12" x="108" y="66" />
<text class="label unused" x="114" y="79"></text>
<rect fill="none" height="24" stroke="#405C86" stroke-dasharray="3 1" stroke-dashoffset="1.5" stroke-width="1" width="12" x="96" y="66" />
<text class="label unused" x="102" y="79"></text>
<text class="register-name" x="80" y="78">Pg</text>
<text class="intrinsic-name" x="80" y="90">pg</text>
<rect fill="#DEE6F1" height="24" width="96" x="3066" y="234.5" />
<rect fill="none" height="24" stroke="#405C86" stroke-width="2" width="96" x="3066" y="234.5" />
<rect fill="none" height="24" stroke="#405C86" stroke-dasharray="3 1" stroke-dashoffset="1.5" stroke-width="1" width="2976" x="90" y="234.5" />
<text class="label unused" x="1578" y="247.5"></text>
<text class="register-name" x="80" y="246.5">Sd</text>
<text class="intrinsic-name" x="80" y="258.5">returns</text>
<text class="register-number" x="10" y="246.5">(2)</text>
<line marker-end="url(#arrowhead)" stroke="none" x1="3114" x2="3114" y1="210.5" y2="233.5" />
</svg>