<svg xmlns="http://www.w3.org/2000/svg" viewBox="0 0 486 243">
<style>
.label { font: 14px Helvetica; dominant-baseline: middle; text-anchor: middle; }
.title-left { font: 12px Helvetica; dominant-baseline: middle; }
.title-right { font: 12px Helvetica; dominant-baseline: middle; text-anchor: end; }
.title-intrinsic { font: 12px Helvetica; dominant-baseline: middle; text-anchor: middle; fill: #6778ED; }
.title { font: 12px Helvetica; dominant-baseline: middle; text-anchor: middle; }
.title-unused { font: 12px Helvetica; dominant-baseline: middle; text-anchor: middle; fill: #AAA; }
.register-name { font: 14px Helvetica; dominant-baseline: middle; text-anchor: end; font-style: italic; }
.memory-name { font: 14px Helvetica; dominant-baseline: middle; text-anchor: end; }
.register-number { font: 14px Helvetica; dominant-baseline: middle; text-anchor: start; }
.intrinsic-name { font: 14px Helvetica; dominant-baseline: middle; text-anchor: end; fill: #6778ED; }
.intrinsic-color { fill: #6778ED; }
.small-label { font: 12px Helvetica; dominant-baseline: middle; text-anchor: middle; }
.label-10px { font: 10px Helvetica; dominant-baseline: middle; text-anchor: middle; }
.smaller-label { font: 9px Helvetica; dominant-baseline: middle; text-anchor: middle; }
.label-6px { font: 6px Helvetica; dominant-baseline: middle; text-anchor: middle; }
.label-7px { font: 7px Helvetica; dominant-baseline: middle; text-anchor: middle; }
.unused { fill: #AAA; }
.dim { fill: #888; }
</style>
<defs>
<marker id="arrowhead" markerWidth="10.75" markerHeight="24.5" refX="9.0" refY="6.125" orient="auto">
<polyline points="0.5 0.5, 8.75 6.125, 0.5 11.75" stroke="#567DB6" stroke-width="1" fill="none"/>
</marker>
</defs>
<line stroke="#567DB6" stroke-width="1" x1="378" x2="378" y1="90.5" y2="113.5" />
<line stroke="#567DB6" stroke-width="1" x1="186" x2="186" y1="90.5" y2="113.5" />
<polyline fill="none" marker-end="url(#arrowhead)" points="378.0 138.5,378.0 162.5,188.5 162.5" stroke="#567DB6" stroke-width="1" />
<polyline fill="none" marker-end="url(#arrowhead)" points="186.0 138.5,186.0 186.5,378.0 186.5,378.0 209.0" stroke="#567DB6" stroke-width="1" />
<text class="title-left" x="90" y="9">upper</text>
<text class="title-right" x="474" y="9">lower</text>
<circle cx="378" cy="162.5" fill="#567DB6" r="2.5" />
<circle cx="186" cy="162.5" fill="#567DB6" r="2.5" />
<rect fill="#DEE6F1" height="24" width="192" x="282" y="18" />
<rect fill="none" height="24" stroke="#405C86" stroke-width="2" width="192" x="282" y="18" />
<rect fill="none" height="24" stroke="#405C86" stroke-dasharray="3 1" stroke-dashoffset="1.5" stroke-width="1" width="192" x="90" y="18" />
<text class="label unused" x="186" y="31"></text>
<text class="register-name" x="80" y="30">Ddn</text>
<text class="intrinsic-name" x="80" y="42">initial</text>
<text class="register-number" x="10" y="30">(1)</text>
<rect fill="#DEE6F1" height="24" width="192" x="282" y="66" />
<rect fill="none" height="24" stroke="#405C86" stroke-width="2" width="192" x="282" y="66" />
<rect fill="#DEE6F1" height="24" width="192" x="90" y="66" />
<rect fill="none" height="24" stroke="#405C86" stroke-width="2" width="192" x="90" y="66" />
<text class="register-name" x="80" y="78">Zm</text>
<text class="intrinsic-name" x="80" y="90">op</text>
<text class="register-number" x="10" y="78">(2)</text>
<rect fill="#DEE6F1" height="24" width="12" x="372" y="114" />
<rect fill="none" height="24" stroke="#405C86" stroke-width="2" width="12" x="372" y="114" />
<rect fill="none" height="24" stroke="#405C86" stroke-dasharray="3 1" stroke-dashoffset="1.5" stroke-width="1" width="12" x="360" y="114" />
<text class="label unused" x="366" y="127"></text>
<rect fill="none" height="24" stroke="#405C86" stroke-dasharray="3 1" stroke-dashoffset="1.5" stroke-width="1" width="12" x="348" y="114" />
<text class="label unused" x="354" y="127"></text>
<rect fill="none" height="24" stroke="#405C86" stroke-dasharray="3 1" stroke-dashoffset="1.5" stroke-width="1" width="12" x="336" y="114" />
<text class="label unused" x="342" y="127"></text>
<rect fill="none" height="24" stroke="#405C86" stroke-dasharray="3 1" stroke-dashoffset="1.5" stroke-width="1" width="12" x="324" y="114" />
<text class="label unused" x="330" y="127"></text>
<rect fill="none" height="24" stroke="#405C86" stroke-dasharray="3 1" stroke-dashoffset="1.5" stroke-width="1" width="12" x="312" y="114" />
<text class="label unused" x="318" y="127"></text>
<rect fill="none" height="24" stroke="#405C86" stroke-dasharray="3 1" stroke-dashoffset="1.5" stroke-width="1" width="12" x="300" y="114" />
<text class="label unused" x="306" y="127"></text>
<rect fill="none" height="24" stroke="#405C86" stroke-dasharray="3 1" stroke-dashoffset="1.5" stroke-width="1" width="12" x="288" y="114" />
<text class="label unused" x="294" y="127"></text>
<rect fill="#DEE6F1" height="24" width="12" x="180" y="114" />
<rect fill="none" height="24" stroke="#405C86" stroke-width="2" width="12" x="180" y="114" />
<rect fill="none" height="24" stroke="#405C86" stroke-dasharray="3 1" stroke-dashoffset="1.5" stroke-width="1" width="12" x="168" y="114" />
<text class="label unused" x="174" y="127"></text>
<rect fill="none" height="24" stroke="#405C86" stroke-dasharray="3 1" stroke-dashoffset="1.5" stroke-width="1" width="12" x="156" y="114" />
<text class="label unused" x="162" y="127"></text>
<rect fill="none" height="24" stroke="#405C86" stroke-dasharray="3 1" stroke-dashoffset="1.5" stroke-width="1" width="12" x="144" y="114" />
<text class="label unused" x="150" y="127"></text>
<rect fill="none" height="24" stroke="#405C86" stroke-dasharray="3 1" stroke-dashoffset="1.5" stroke-width="1" width="12" x="132" y="114" />
<text class="label unused" x="138" y="127"></text>
<rect fill="none" height="24" stroke="#405C86" stroke-dasharray="3 1" stroke-dashoffset="1.5" stroke-width="1" width="12" x="120" y="114" />
<text class="label unused" x="126" y="127"></text>
<rect fill="none" height="24" stroke="#405C86" stroke-dasharray="3 1" stroke-dashoffset="1.5" stroke-width="1" width="12" x="108" y="114" />
<text class="label unused" x="114" y="127"></text>
<rect fill="none" height="24" stroke="#405C86" stroke-dasharray="3 1" stroke-dashoffset="1.5" stroke-width="1" width="12" x="96" y="114" />
<text class="label unused" x="102" y="127"></text>
<text class="register-name" x="80" y="126">Pg</text>
<text class="intrinsic-name" x="80" y="138">pg</text>
<rect fill="#DEE6F1" height="24" width="192" x="282" y="210" />
<rect fill="none" height="24" stroke="#405C86" stroke-width="2" width="192" x="282" y="210" />
<rect fill="none" height="24" stroke="#405C86" stroke-dasharray="3 1" stroke-dashoffset="1.5" stroke-width="1" width="192" x="90" y="210" />
<text class="label unused" x="186" y="223"></text>
<text class="register-name" x="80" y="222">Ddn</text>
<text class="intrinsic-name" x="80" y="234">returns</text>
<text class="register-number" x="10" y="222">(3)</text>
<polyline fill="none" marker-end="url(#arrowhead)" points="394.0 42.5,394.0 162.5,380.5 162.5" stroke="#567DB6" stroke-width="1" />
</svg>