<svg xmlns="http://www.w3.org/2000/svg" viewBox="0 0 486 267">
<style>
.label { font: 14px Helvetica; dominant-baseline: middle; text-anchor: middle; }
.title-left { font: 12px Helvetica; dominant-baseline: middle; }
.title-right { font: 12px Helvetica; dominant-baseline: middle; text-anchor: end; }
.title-intrinsic { font: 12px Helvetica; dominant-baseline: middle; text-anchor: middle; fill: #6778ED; }
.title { font: 12px Helvetica; dominant-baseline: middle; text-anchor: middle; }
.title-unused { font: 12px Helvetica; dominant-baseline: middle; text-anchor: middle; fill: #AAA; }
.register-name { font: 14px Helvetica; dominant-baseline: middle; text-anchor: end; font-style: italic; }
.memory-name { font: 14px Helvetica; dominant-baseline: middle; text-anchor: end; }
.register-number { font: 14px Helvetica; dominant-baseline: middle; text-anchor: start; }
.intrinsic-name { font: 14px Helvetica; dominant-baseline: middle; text-anchor: end; fill: #6778ED; }
.intrinsic-color { fill: #6778ED; }
.small-label { font: 12px Helvetica; dominant-baseline: middle; text-anchor: middle; }
.label-10px { font: 10px Helvetica; dominant-baseline: middle; text-anchor: middle; }
.smaller-label { font: 9px Helvetica; dominant-baseline: middle; text-anchor: middle; }
.label-6px { font: 6px Helvetica; dominant-baseline: middle; text-anchor: middle; }
.label-7px { font: 7px Helvetica; dominant-baseline: middle; text-anchor: middle; }
.unused { fill: #AAA; }
.dim { fill: #888; }
</style>
<defs>
<marker id="arrowhead" markerWidth="9.5" markerHeight="21.0" refX="7.75" refY="5.25" orient="auto">
<polyline points="0.5 0.5, 7.5 5.25, 0.5 10.0" stroke="#567DB6" stroke-width="1" fill="none"/>
</marker>
</defs>
<line stroke="#567DB6" stroke-width="1" x1="282" x2="282" y1="65.5" y2="89.5" />
<line stroke="#567DB6" stroke-width="1" x1="282" x2="450" y1="114.5" y2="161.5" />
<line stroke="#567DB6" stroke-width="1" x1="450" x2="450" y1="186.5" y2="233" />
<line stroke="#567DB6" stroke-width="1" x1="282" x2="402" y1="114.5" y2="161.5" />
<line stroke="#567DB6" stroke-width="1" x1="402" x2="402" y1="186.5" y2="233" />
<line stroke="#567DB6" stroke-width="1" x1="282" x2="354" y1="114.5" y2="161.5" />
<line stroke="#567DB6" stroke-width="1" x1="354" x2="354" y1="186.5" y2="233" />
<line stroke="#567DB6" stroke-width="1" x1="282" x2="306" y1="114.5" y2="161.5" />
<line stroke="#567DB6" stroke-width="1" x1="306" x2="306" y1="186.5" y2="233" />
<line stroke="#567DB6" stroke-width="1" x1="282" x2="258" y1="114.5" y2="161.5" />
<line stroke="#567DB6" stroke-width="1" x1="258" x2="258" y1="186.5" y2="233" />
<line stroke="#567DB6" stroke-width="1" x1="282" x2="210" y1="114.5" y2="161.5" />
<line stroke="#567DB6" stroke-width="1" x1="210" x2="210" y1="186.5" y2="233" />
<line stroke="#567DB6" stroke-width="1" x1="282" x2="162" y1="114.5" y2="161.5" />
<line stroke="#567DB6" stroke-width="1" x1="162" x2="162" y1="186.5" y2="233" />
<line stroke="#567DB6" stroke-width="1" x1="282" x2="114" y1="114.5" y2="161.5" />
<line stroke="#567DB6" stroke-width="1" x1="114" x2="114" y1="186.5" y2="233" />
<line stroke="#567DB6" stroke-width="1" x1="402" x2="402" y1="42.5" y2="65.5" />
<line stroke="#567DB6" stroke-width="1" x1="354" x2="354" y1="42.5" y2="65.5" />
<line stroke="#567DB6" stroke-width="1" x1="306" x2="306" y1="42.5" y2="65.5" />
<line stroke="#567DB6" stroke-width="1" x1="258" x2="258" y1="42.5" y2="65.5" />
<line stroke="#567DB6" stroke-width="1" x1="210" x2="210" y1="42.5" y2="65.5" />
<line stroke="#567DB6" stroke-width="1" x1="162" x2="162" y1="42.5" y2="65.5" />
<polyline fill="none" points="450.0 42.5,450.0 65.5,114.0 65.5,114.0 42.5" stroke="#567DB6" stroke-width="1" />
<text class="title-left" x="90" y="9">upper</text>
<text class="title-right" x="474" y="9">lower</text>
<rect fill="#DEE6F1" height="24" width="12" x="444" y="18" />
<rect fill="none" height="24" stroke="#405C86" stroke-width="2" width="12" x="444" y="18" />
<rect fill="none" height="24" stroke="#405C86" stroke-dasharray="3 1" stroke-dashoffset="1.5" stroke-width="1" width="12" x="432" y="18" />
<text class="label unused" x="438" y="31"></text>
<rect fill="#DEE6F1" height="24" width="12" x="396" y="18" />
<rect fill="none" height="24" stroke="#405C86" stroke-width="2" width="12" x="396" y="18" />
<rect fill="none" height="24" stroke="#405C86" stroke-dasharray="3 1" stroke-dashoffset="1.5" stroke-width="1" width="12" x="384" y="18" />
<text class="label unused" x="390" y="31"></text>
<rect fill="#DEE6F1" height="24" width="12" x="348" y="18" />
<rect fill="none" height="24" stroke="#405C86" stroke-width="2" width="12" x="348" y="18" />
<rect fill="none" height="24" stroke="#405C86" stroke-dasharray="3 1" stroke-dashoffset="1.5" stroke-width="1" width="12" x="336" y="18" />
<text class="label unused" x="342" y="31"></text>
<rect fill="#DEE6F1" height="24" width="12" x="300" y="18" />
<rect fill="none" height="24" stroke="#405C86" stroke-width="2" width="12" x="300" y="18" />
<rect fill="none" height="24" stroke="#405C86" stroke-dasharray="3 1" stroke-dashoffset="1.5" stroke-width="1" width="12" x="288" y="18" />
<text class="label unused" x="294" y="31"></text>
<rect fill="#DEE6F1" height="24" width="12" x="252" y="18" />
<rect fill="none" height="24" stroke="#405C86" stroke-width="2" width="12" x="252" y="18" />
<rect fill="none" height="24" stroke="#405C86" stroke-dasharray="3 1" stroke-dashoffset="1.5" stroke-width="1" width="12" x="240" y="18" />
<text class="label unused" x="246" y="31"></text>
<rect fill="#DEE6F1" height="24" width="12" x="204" y="18" />
<rect fill="none" height="24" stroke="#405C86" stroke-width="2" width="12" x="204" y="18" />
<rect fill="none" height="24" stroke="#405C86" stroke-dasharray="3 1" stroke-dashoffset="1.5" stroke-width="1" width="12" x="192" y="18" />
<text class="label unused" x="198" y="31"></text>
<rect fill="#DEE6F1" height="24" width="12" x="156" y="18" />
<rect fill="none" height="24" stroke="#405C86" stroke-width="2" width="12" x="156" y="18" />
<rect fill="none" height="24" stroke="#405C86" stroke-dasharray="3 1" stroke-dashoffset="1.5" stroke-width="1" width="12" x="144" y="18" />
<text class="label unused" x="150" y="31"></text>
<rect fill="#DEE6F1" height="24" width="12" x="108" y="18" />
<rect fill="none" height="24" stroke="#405C86" stroke-width="2" width="12" x="108" y="18" />
<rect fill="none" height="24" stroke="#405C86" stroke-dasharray="3 1" stroke-dashoffset="1.5" stroke-width="1" width="12" x="96" y="18" />
<text class="label unused" x="102" y="31"></text>
<text class="register-name" x="80" y="30">Pm</text>
<text class="register-number" x="10" y="30">(1)</text>
<rect fill="#DEE6F1" height="24" width="96" x="234" y="90" />
<rect fill="none" height="24" stroke="#405C86" stroke-width="2" width="96" x="234" y="90" />
<text class="label" x="282" y="103">count ones</text>
<rect fill="#DEE6F1" height="24" width="48" x="426" y="162" />
<rect fill="none" height="24" stroke="#405C86" stroke-width="2" width="48" x="426" y="162" />
<rect fill="#DEE6F1" height="24" width="48" x="378" y="162" />
<rect fill="none" height="24" stroke="#405C86" stroke-width="2" width="48" x="378" y="162" />
<rect fill="#DEE6F1" height="24" width="48" x="330" y="162" />
<rect fill="none" height="24" stroke="#405C86" stroke-width="2" width="48" x="330" y="162" />
<rect fill="#DEE6F1" height="24" width="48" x="282" y="162" />
<rect fill="none" height="24" stroke="#405C86" stroke-width="2" width="48" x="282" y="162" />
<rect fill="#DEE6F1" height="24" width="48" x="234" y="162" />
<rect fill="none" height="24" stroke="#405C86" stroke-width="2" width="48" x="234" y="162" />
<rect fill="#DEE6F1" height="24" width="48" x="186" y="162" />
<rect fill="none" height="24" stroke="#405C86" stroke-width="2" width="48" x="186" y="162" />
<rect fill="#DEE6F1" height="24" width="48" x="138" y="162" />
<rect fill="none" height="24" stroke="#405C86" stroke-width="2" width="48" x="138" y="162" />
<rect fill="#DEE6F1" height="24" width="48" x="90" y="162" />
<rect fill="none" height="24" stroke="#405C86" stroke-width="2" width="48" x="90" y="162" />
<text class="register-name" x="80" y="174">Zdn</text>
<text class="register-number" x="10" y="174">(2)</text>
<rect fill="#DEE6F1" height="24" width="48" x="426" y="234" />
<rect fill="none" height="24" stroke="#405C86" stroke-width="2" width="48" x="426" y="234" />
<rect fill="#DEE6F1" height="24" width="48" x="378" y="234" />
<rect fill="none" height="24" stroke="#405C86" stroke-width="2" width="48" x="378" y="234" />
<rect fill="#DEE6F1" height="24" width="48" x="330" y="234" />
<rect fill="none" height="24" stroke="#405C86" stroke-width="2" width="48" x="330" y="234" />
<rect fill="#DEE6F1" height="24" width="48" x="282" y="234" />
<rect fill="none" height="24" stroke="#405C86" stroke-width="2" width="48" x="282" y="234" />
<rect fill="#DEE6F1" height="24" width="48" x="234" y="234" />
<rect fill="none" height="24" stroke="#405C86" stroke-width="2" width="48" x="234" y="234" />
<rect fill="#DEE6F1" height="24" width="48" x="186" y="234" />
<rect fill="none" height="24" stroke="#405C86" stroke-width="2" width="48" x="186" y="234" />
<rect fill="#DEE6F1" height="24" width="48" x="138" y="234" />
<rect fill="none" height="24" stroke="#405C86" stroke-width="2" width="48" x="138" y="234" />
<rect fill="#DEE6F1" height="24" width="48" x="90" y="234" />
<rect fill="none" height="24" stroke="#405C86" stroke-width="2" width="48" x="90" y="234" />
<text class="register-name" x="80" y="246">Zdn</text>
<text class="register-number" x="10" y="246">(3)</text>
<line marker-end="url(#arrowhead)" stroke="none" x1="450" x2="450" y1="186.5" y2="233" />
<line marker-end="url(#arrowhead)" stroke="none" x1="402" x2="402" y1="186.5" y2="233" />
<line marker-end="url(#arrowhead)" stroke="none" x1="354" x2="354" y1="186.5" y2="233" />
<line marker-end="url(#arrowhead)" stroke="none" x1="306" x2="306" y1="186.5" y2="233" />
<line marker-end="url(#arrowhead)" stroke="none" x1="258" x2="258" y1="186.5" y2="233" />
<line marker-end="url(#arrowhead)" stroke="none" x1="210" x2="210" y1="186.5" y2="233" />
<line marker-end="url(#arrowhead)" stroke="none" x1="162" x2="162" y1="186.5" y2="233" />
<line marker-end="url(#arrowhead)" stroke="none" x1="114" x2="114" y1="186.5" y2="233" />
</svg>