<svg xmlns="http://www.w3.org/2000/svg" viewBox="0 0 870 171">
<style>
.label { font: 14px Helvetica; dominant-baseline: middle; text-anchor: middle; }
.title-left { font: 12px Helvetica; dominant-baseline: middle; }
.title-right { font: 12px Helvetica; dominant-baseline: middle; text-anchor: end; }
.title-intrinsic { font: 12px Helvetica; dominant-baseline: middle; text-anchor: middle; fill: #6778ED; }
.title { font: 12px Helvetica; dominant-baseline: middle; text-anchor: middle; }
.title-unused { font: 12px Helvetica; dominant-baseline: middle; text-anchor: middle; fill: #AAA; }
.register-name { font: 14px Helvetica; dominant-baseline: middle; text-anchor: end; font-style: italic; }
.memory-name { font: 14px Helvetica; dominant-baseline: middle; text-anchor: end; }
.register-number { font: 14px Helvetica; dominant-baseline: middle; text-anchor: start; }
.intrinsic-name { font: 14px Helvetica; dominant-baseline: middle; text-anchor: end; fill: #6778ED; }
.intrinsic-color { fill: #6778ED; }
.small-label { font: 12px Helvetica; dominant-baseline: middle; text-anchor: middle; }
.label-10px { font: 10px Helvetica; dominant-baseline: middle; text-anchor: middle; }
.smaller-label { font: 9px Helvetica; dominant-baseline: middle; text-anchor: middle; }
.label-6px { font: 6px Helvetica; dominant-baseline: middle; text-anchor: middle; }
.label-7px { font: 7px Helvetica; dominant-baseline: middle; text-anchor: middle; }
.unused { fill: #AAA; }
.dim { fill: #888; }
</style>
<defs>
<marker id="arrowhead" markerWidth="10.75" markerHeight="24.5" refX="9.0" refY="6.125" orient="auto">
<polyline points="0.5 0.5, 8.75 6.125, 0.5 11.75" stroke="#567DB6" stroke-width="1" fill="none"/>
</marker>
</defs>
<line stroke="#567DB6" stroke-width="1" x1="210" x2="162" y1="42.5" y2="65.5" />
<line stroke="#567DB6" stroke-width="1" x1="162" x2="834" y1="90.5" y2="137" />
<text class="title-left" x="90" y="9">upper</text>
<text class="title-right" x="858" y="9">lower</text>
<rect fill="none" height="24" stroke="#405C86" stroke-width="2" width="12" x="828" y="18" />
<text class="label" x="834" y="31">0</text>
<rect fill="none" height="24" stroke="#405C86" stroke-dasharray="3 1" stroke-dashoffset="1.5" stroke-width="1" width="12" x="816" y="18" />
<text class="label unused" x="822" y="31"></text>
<rect fill="#DEE6F1" height="24" width="12" x="780" y="18" />
<rect fill="none" height="24" stroke="#405C86" stroke-width="2" width="12" x="780" y="18" />
<text class="label" x="786" y="31">1</text>
<rect fill="none" height="24" stroke="#405C86" stroke-dasharray="3 1" stroke-dashoffset="1.5" stroke-width="1" width="12" x="768" y="18" />
<text class="label unused" x="774" y="31"></text>
<rect fill="#DEE6F1" height="24" width="12" x="732" y="18" />
<rect fill="none" height="24" stroke="#405C86" stroke-width="2" width="12" x="732" y="18" />
<text class="label" x="738" y="31">1</text>
<rect fill="none" height="24" stroke="#405C86" stroke-dasharray="3 1" stroke-dashoffset="1.5" stroke-width="1" width="12" x="720" y="18" />
<text class="label unused" x="726" y="31"></text>
<rect fill="none" height="24" stroke="#405C86" stroke-width="2" width="12" x="684" y="18" />
<text class="label" x="690" y="31">0</text>
<rect fill="none" height="24" stroke="#405C86" stroke-dasharray="3 1" stroke-dashoffset="1.5" stroke-width="1" width="12" x="672" y="18" />
<text class="label unused" x="678" y="31"></text>
<rect fill="#DEE6F1" height="24" width="12" x="636" y="18" />
<rect fill="none" height="24" stroke="#405C86" stroke-width="2" width="12" x="636" y="18" />
<text class="label" x="642" y="31">1</text>
<rect fill="none" height="24" stroke="#405C86" stroke-dasharray="3 1" stroke-dashoffset="1.5" stroke-width="1" width="12" x="624" y="18" />
<text class="label unused" x="630" y="31"></text>
<rect fill="#DEE6F1" height="24" width="12" x="588" y="18" />
<rect fill="none" height="24" stroke="#405C86" stroke-width="2" width="12" x="588" y="18" />
<text class="label" x="594" y="31">1</text>
<rect fill="none" height="24" stroke="#405C86" stroke-dasharray="3 1" stroke-dashoffset="1.5" stroke-width="1" width="12" x="576" y="18" />
<text class="label unused" x="582" y="31"></text>
<rect fill="none" height="24" stroke="#405C86" stroke-width="2" width="12" x="540" y="18" />
<text class="label" x="546" y="31">0</text>
<rect fill="none" height="24" stroke="#405C86" stroke-dasharray="3 1" stroke-dashoffset="1.5" stroke-width="1" width="12" x="528" y="18" />
<text class="label unused" x="534" y="31"></text>
<rect fill="#DEE6F1" height="24" width="12" x="492" y="18" />
<rect fill="none" height="24" stroke="#405C86" stroke-width="2" width="12" x="492" y="18" />
<text class="label" x="498" y="31">1</text>
<rect fill="none" height="24" stroke="#405C86" stroke-dasharray="3 1" stroke-dashoffset="1.5" stroke-width="1" width="12" x="480" y="18" />
<text class="label unused" x="486" y="31"></text>
<rect fill="#DEE6F1" height="24" width="12" x="444" y="18" />
<rect fill="none" height="24" stroke="#405C86" stroke-width="2" width="12" x="444" y="18" />
<text class="label" x="450" y="31">1</text>
<rect fill="none" height="24" stroke="#405C86" stroke-dasharray="3 1" stroke-dashoffset="1.5" stroke-width="1" width="12" x="432" y="18" />
<text class="label unused" x="438" y="31"></text>
<rect fill="#DEE6F1" height="24" width="12" x="396" y="18" />
<rect fill="none" height="24" stroke="#405C86" stroke-width="2" width="12" x="396" y="18" />
<text class="label" x="402" y="31">1</text>
<rect fill="none" height="24" stroke="#405C86" stroke-dasharray="3 1" stroke-dashoffset="1.5" stroke-width="1" width="12" x="384" y="18" />
<text class="label unused" x="390" y="31"></text>
<rect fill="#DEE6F1" height="24" width="12" x="348" y="18" />
<rect fill="none" height="24" stroke="#405C86" stroke-width="2" width="12" x="348" y="18" />
<text class="label" x="354" y="31">1</text>
<rect fill="none" height="24" stroke="#405C86" stroke-dasharray="3 1" stroke-dashoffset="1.5" stroke-width="1" width="12" x="336" y="18" />
<text class="label unused" x="342" y="31"></text>
<rect fill="#DEE6F1" height="24" width="12" x="300" y="18" />
<rect fill="none" height="24" stroke="#405C86" stroke-width="2" width="12" x="300" y="18" />
<text class="label" x="306" y="31">1</text>
<rect fill="none" height="24" stroke="#405C86" stroke-dasharray="3 1" stroke-dashoffset="1.5" stroke-width="1" width="12" x="288" y="18" />
<text class="label unused" x="294" y="31"></text>
<rect fill="#DEE6F1" height="24" width="12" x="252" y="18" />
<rect fill="none" height="24" stroke="#405C86" stroke-width="2" width="12" x="252" y="18" />
<text class="label" x="258" y="31">1</text>
<rect fill="none" height="24" stroke="#405C86" stroke-dasharray="3 1" stroke-dashoffset="1.5" stroke-width="1" width="12" x="240" y="18" />
<text class="label unused" x="246" y="31"></text>
<rect fill="#DEE6F1" height="24" width="12" x="204" y="18" />
<rect fill="none" height="24" stroke="#405C86" stroke-width="2" width="12" x="204" y="18" />
<text class="label" x="210" y="31">1</text>
<rect fill="none" height="24" stroke="#405C86" stroke-dasharray="3 1" stroke-dashoffset="1.5" stroke-width="1" width="12" x="192" y="18" />
<text class="label unused" x="198" y="31"></text>
<rect fill="#EEDDDB" height="24" width="12" x="156" y="18" />
<rect fill="none" height="24" stroke="#405C86" stroke-width="2" width="12" x="156" y="18" />
<text class="label" x="162" y="31">0</text>
<rect fill="none" height="24" stroke="#405C86" stroke-dasharray="3 1" stroke-dashoffset="1.5" stroke-width="1" width="12" x="144" y="18" />
<text class="label unused" x="150" y="31"></text>
<rect fill="#EEDDDB" height="24" width="12" x="108" y="18" />
<rect fill="none" height="24" stroke="#405C86" stroke-width="2" width="12" x="108" y="18" />
<text class="label" x="114" y="31">0</text>
<rect fill="none" height="24" stroke="#405C86" stroke-dasharray="3 1" stroke-dashoffset="1.5" stroke-width="1" width="12" x="96" y="18" />
<text class="label unused" x="102" y="31"></text>
<text class="register-name" x="80" y="30">Pg</text>
<text class="intrinsic-name" x="80" y="42">pg</text>
<text class="register-number" x="10" y="30">(1)</text>
<rect fill="none" height="24" stroke="#405C86" stroke-dasharray="3 1" stroke-dashoffset="1.5" stroke-width="1" width="48" x="810" y="66" />
<text class="label unused" x="834" y="79"></text>
<rect fill="none" height="24" stroke="#405C86" stroke-dasharray="3 1" stroke-dashoffset="1.5" stroke-width="1" width="48" x="762" y="66" />
<text class="label unused" x="786" y="79"></text>
<rect fill="none" height="24" stroke="#405C86" stroke-dasharray="3 1" stroke-dashoffset="1.5" stroke-width="1" width="48" x="714" y="66" />
<text class="label unused" x="738" y="79"></text>
<rect fill="none" height="24" stroke="#405C86" stroke-dasharray="3 1" stroke-dashoffset="1.5" stroke-width="1" width="48" x="666" y="66" />
<text class="label unused" x="690" y="79"></text>
<rect fill="none" height="24" stroke="#405C86" stroke-dasharray="3 1" stroke-dashoffset="1.5" stroke-width="1" width="48" x="618" y="66" />
<text class="label unused" x="642" y="79"></text>
<rect fill="none" height="24" stroke="#405C86" stroke-dasharray="3 1" stroke-dashoffset="1.5" stroke-width="1" width="48" x="570" y="66" />
<text class="label unused" x="594" y="79"></text>
<rect fill="none" height="24" stroke="#405C86" stroke-dasharray="3 1" stroke-dashoffset="1.5" stroke-width="1" width="48" x="522" y="66" />
<text class="label unused" x="546" y="79"></text>
<rect fill="none" height="24" stroke="#405C86" stroke-dasharray="3 1" stroke-dashoffset="1.5" stroke-width="1" width="48" x="474" y="66" />
<text class="label unused" x="498" y="79"></text>
<rect fill="none" height="24" stroke="#405C86" stroke-dasharray="3 1" stroke-dashoffset="1.5" stroke-width="1" width="48" x="426" y="66" />
<text class="label unused" x="450" y="79"></text>
<rect fill="none" height="24" stroke="#405C86" stroke-dasharray="3 1" stroke-dashoffset="1.5" stroke-width="1" width="48" x="378" y="66" />
<text class="label unused" x="402" y="79"></text>
<rect fill="none" height="24" stroke="#405C86" stroke-dasharray="3 1" stroke-dashoffset="1.5" stroke-width="1" width="48" x="330" y="66" />
<text class="label unused" x="354" y="79"></text>
<rect fill="none" height="24" stroke="#405C86" stroke-dasharray="3 1" stroke-dashoffset="1.5" stroke-width="1" width="48" x="282" y="66" />
<text class="label unused" x="306" y="79"></text>
<rect fill="none" height="24" stroke="#405C86" stroke-dasharray="3 1" stroke-dashoffset="1.5" stroke-width="1" width="48" x="234" y="66" />
<text class="label unused" x="258" y="79"></text>
<rect fill="none" height="24" stroke="#405C86" stroke-dasharray="3 1" stroke-dashoffset="1.5" stroke-width="1" width="48" x="186" y="66" />
<text class="label unused" x="210" y="79"></text>
<rect fill="#DEE6F1" height="24" width="48" x="138" y="66" />
<rect fill="none" height="24" stroke="#405C86" stroke-width="2" width="48" x="138" y="66" />
<rect fill="none" height="24" stroke="#405C86" stroke-dasharray="3 1" stroke-dashoffset="1.5" stroke-width="1" width="48" x="90" y="66" />
<text class="label unused" x="114" y="79"></text>
<text class="register-name" x="80" y="78">Zn</text>
<text class="intrinsic-name" x="80" y="90">data</text>
<text class="register-number" x="10" y="78">(2)</text>
<rect fill="#DEE6F1" height="24" width="48" x="810" y="138" />
<rect fill="none" height="24" stroke="#405C86" stroke-width="2" width="48" x="810" y="138" />
<rect fill="none" height="24" stroke="#405C86" stroke-dasharray="3 1" stroke-dashoffset="1.5" stroke-width="1" width="720" x="90" y="138" />
<text class="label unused" x="450" y="151">0</text>
<text class="register-name" x="80" y="150">Hd</text>
<text class="intrinsic-name" x="80" y="162">returns</text>
<text class="register-number" x="10" y="150">(3)</text>
<line marker-end="url(#arrowhead)" stroke="none" x1="162" x2="834" y1="90.5" y2="137" />
</svg>