<svg xmlns="http://www.w3.org/2000/svg" viewBox="0 0 6246 123">
<style>
.label { font: 14px Helvetica; dominant-baseline: middle; text-anchor: middle; }
.title-left { font: 12px Helvetica; dominant-baseline: middle; }
.title-right { font: 12px Helvetica; dominant-baseline: middle; text-anchor: end; }
.title-intrinsic { font: 12px Helvetica; dominant-baseline: middle; text-anchor: middle; fill: #6778ED; }
.title { font: 12px Helvetica; dominant-baseline: middle; text-anchor: middle; }
.title-unused { font: 12px Helvetica; dominant-baseline: middle; text-anchor: middle; fill: #AAA; }
.register-name { font: 14px Helvetica; dominant-baseline: middle; text-anchor: end; font-style: italic; }
.memory-name { font: 14px Helvetica; dominant-baseline: middle; text-anchor: end; }
.register-number { font: 14px Helvetica; dominant-baseline: middle; text-anchor: start; }
.intrinsic-name { font: 14px Helvetica; dominant-baseline: middle; text-anchor: end; fill: #6778ED; }
.intrinsic-color { fill: #6778ED; }
.small-label { font: 12px Helvetica; dominant-baseline: middle; text-anchor: middle; }
.label-10px { font: 10px Helvetica; dominant-baseline: middle; text-anchor: middle; }
.smaller-label { font: 9px Helvetica; dominant-baseline: middle; text-anchor: middle; }
.label-6px { font: 6px Helvetica; dominant-baseline: middle; text-anchor: middle; }
.label-7px { font: 7px Helvetica; dominant-baseline: middle; text-anchor: middle; }
.unused { fill: #AAA; }
.dim { fill: #888; }
</style>
<defs>
<marker id="arrowhead" markerWidth="10.75" markerHeight="24.5" refX="9.0" refY="6.125" orient="auto">
<polyline points="0.5 0.5, 8.75 6.125, 0.5 11.75" stroke="#567DB6" stroke-width="1" fill="none"/>
</marker>
</defs>
<line stroke="#567DB6" stroke-width="1" x1="3534" x2="6221.625" y1="42.5" y2="89" />
<line stroke="#567DB6" stroke-width="1" x1="3510" x2="6029.625" y1="42.5" y2="89" />
<line stroke="#567DB6" stroke-width="1" x1="3486" x2="5837.625" y1="42.5" y2="89" />
<line stroke="#567DB6" stroke-width="1" x1="3462" x2="5645.625" y1="42.5" y2="89" />
<line stroke="#567DB6" stroke-width="1" x1="3438" x2="5453.625" y1="42.5" y2="89" />
<line stroke="#567DB6" stroke-width="1" x1="3414" x2="5261.625" y1="42.5" y2="89" />
<line stroke="#567DB6" stroke-width="1" x1="3390" x2="5069.625" y1="42.5" y2="89" />
<line stroke="#567DB6" stroke-width="1" x1="3366" x2="4877.625" y1="42.5" y2="89" />
<line stroke="#567DB6" stroke-width="1" x1="3342" x2="4685.625" y1="42.5" y2="89" />
<line stroke="#567DB6" stroke-width="1" x1="3318" x2="4493.625" y1="42.5" y2="89" />
<line stroke="#567DB6" stroke-width="1" x1="3294" x2="4301.625" y1="42.5" y2="89" />
<line stroke="#567DB6" stroke-width="1" x1="3270" x2="4109.625" y1="42.5" y2="89" />
<line stroke="#567DB6" stroke-width="1" x1="3246" x2="3917.625" y1="42.5" y2="89" />
<line stroke="#567DB6" stroke-width="1" x1="3222" x2="3725.625" y1="42.5" y2="89" />
<line stroke="#567DB6" stroke-width="1" x1="3198" x2="3533.625" y1="42.5" y2="89" />
<line stroke="#567DB6" stroke-width="1" x1="3174" x2="3341.625" y1="42.5" y2="89" />
<line stroke="#567DB6" stroke-width="1" x1="3150" x2="3149.625" y1="42.5" y2="89" />
<line stroke="#567DB6" stroke-width="1" x1="3126" x2="2957.625" y1="42.5" y2="89" />
<line stroke="#567DB6" stroke-width="1" x1="3102" x2="2765.625" y1="42.5" y2="89" />
<line stroke="#567DB6" stroke-width="1" x1="3078" x2="2573.625" y1="42.5" y2="89" />
<line stroke="#567DB6" stroke-width="1" x1="3054" x2="2381.625" y1="42.5" y2="89" />
<line stroke="#567DB6" stroke-width="1" x1="3030" x2="2189.625" y1="42.5" y2="89" />
<line stroke="#567DB6" stroke-width="1" x1="3006" x2="1997.625" y1="42.5" y2="89" />
<line stroke="#567DB6" stroke-width="1" x1="2982" x2="1805.625" y1="42.5" y2="89" />
<line stroke="#567DB6" stroke-width="1" x1="2958" x2="1613.625" y1="42.5" y2="89" />
<line stroke="#567DB6" stroke-width="1" x1="2934" x2="1421.625" y1="42.5" y2="89" />
<line stroke="#567DB6" stroke-width="1" x1="2910" x2="1229.625" y1="42.5" y2="89" />
<line stroke="#567DB6" stroke-width="1" x1="2886" x2="1037.625" y1="42.5" y2="89" />
<line stroke="#567DB6" stroke-width="1" x1="2862" x2="845.625" y1="42.5" y2="89" />
<line stroke="#567DB6" stroke-width="1" x1="2838" x2="653.625" y1="42.5" y2="89" />
<line stroke="#567DB6" stroke-width="1" x1="2814" x2="461.625" y1="42.5" y2="89" />
<line stroke="#567DB6" stroke-width="1" x1="2790" x2="269.625" y1="42.5" y2="89" />
<text class="title-left" x="90" y="9">upper</text>
<text class="title-right" x="6234" y="9">lower</text>
<rect fill="#DEE6F1" height="24" width="24" x="3522" y="18" />
<rect fill="none" height="24" stroke="#405C86" stroke-width="2" width="24" x="3522" y="18" />
<text class="smaller-label intrinsic-color" x="3534" y="31">b[0]</text>
<rect fill="#DEE6F1" height="24" width="24" x="3498" y="18" />
<rect fill="none" height="24" stroke="#405C86" stroke-width="2" width="24" x="3498" y="18" />
<text class="smaller-label intrinsic-color" x="3510" y="31">b[1]</text>
<rect fill="#DEE6F1" height="24" width="24" x="3474" y="18" />
<rect fill="none" height="24" stroke="#405C86" stroke-width="2" width="24" x="3474" y="18" />
<text class="smaller-label intrinsic-color" x="3486" y="31">b[2]</text>
<rect fill="#DEE6F1" height="24" width="24" x="3450" y="18" />
<rect fill="none" height="24" stroke="#405C86" stroke-width="2" width="24" x="3450" y="18" />
<text class="smaller-label intrinsic-color" x="3462" y="31">b[3]</text>
<rect fill="#DEE6F1" height="24" width="24" x="3426" y="18" />
<rect fill="none" height="24" stroke="#405C86" stroke-width="2" width="24" x="3426" y="18" />
<text class="smaller-label intrinsic-color" x="3438" y="31">b[4]</text>
<rect fill="#DEE6F1" height="24" width="24" x="3402" y="18" />
<rect fill="none" height="24" stroke="#405C86" stroke-width="2" width="24" x="3402" y="18" />
<text class="smaller-label intrinsic-color" x="3414" y="31">b[5]</text>
<rect fill="#DEE6F1" height="24" width="24" x="3378" y="18" />
<rect fill="none" height="24" stroke="#405C86" stroke-width="2" width="24" x="3378" y="18" />
<text class="smaller-label intrinsic-color" x="3390" y="31">b[6]</text>
<rect fill="#DEE6F1" height="24" width="24" x="3354" y="18" />
<rect fill="none" height="24" stroke="#405C86" stroke-width="2" width="24" x="3354" y="18" />
<text class="smaller-label intrinsic-color" x="3366" y="31">b[7]</text>
<rect fill="#DEE6F1" height="24" width="24" x="3330" y="18" />
<rect fill="none" height="24" stroke="#405C86" stroke-width="2" width="24" x="3330" y="18" />
<text class="smaller-label intrinsic-color" x="3342" y="31">b[8]</text>
<rect fill="#DEE6F1" height="24" width="24" x="3306" y="18" />
<rect fill="none" height="24" stroke="#405C86" stroke-width="2" width="24" x="3306" y="18" />
<text class="smaller-label intrinsic-color" x="3318" y="31">b[9]</text>
<rect fill="#DEE6F1" height="24" width="24" x="3282" y="18" />
<rect fill="none" height="24" stroke="#405C86" stroke-width="2" width="24" x="3282" y="18" />
<text class="smaller-label intrinsic-color" x="3294" y="31">b[10]</text>
<rect fill="#DEE6F1" height="24" width="24" x="3258" y="18" />
<rect fill="none" height="24" stroke="#405C86" stroke-width="2" width="24" x="3258" y="18" />
<text class="smaller-label intrinsic-color" x="3270" y="31">b[11]</text>
<rect fill="#DEE6F1" height="24" width="24" x="3234" y="18" />
<rect fill="none" height="24" stroke="#405C86" stroke-width="2" width="24" x="3234" y="18" />
<text class="smaller-label intrinsic-color" x="3246" y="31">b[12]</text>
<rect fill="#DEE6F1" height="24" width="24" x="3210" y="18" />
<rect fill="none" height="24" stroke="#405C86" stroke-width="2" width="24" x="3210" y="18" />
<text class="smaller-label intrinsic-color" x="3222" y="31">b[13]</text>
<rect fill="#DEE6F1" height="24" width="24" x="3186" y="18" />
<rect fill="none" height="24" stroke="#405C86" stroke-width="2" width="24" x="3186" y="18" />
<text class="smaller-label intrinsic-color" x="3198" y="31">b[14]</text>
<rect fill="#DEE6F1" height="24" width="24" x="3162" y="18" />
<rect fill="none" height="24" stroke="#405C86" stroke-width="2" width="24" x="3162" y="18" />
<text class="smaller-label intrinsic-color" x="3174" y="31">b[15]</text>
<rect fill="#DEE6F1" height="24" width="24" x="3138" y="18" />
<rect fill="none" height="24" stroke="#405C86" stroke-width="2" width="24" x="3138" y="18" />
<text class="smaller-label intrinsic-color" x="3150" y="31">b[16]</text>
<rect fill="#DEE6F1" height="24" width="24" x="3114" y="18" />
<rect fill="none" height="24" stroke="#405C86" stroke-width="2" width="24" x="3114" y="18" />
<text class="smaller-label intrinsic-color" x="3126" y="31">b[17]</text>
<rect fill="#DEE6F1" height="24" width="24" x="3090" y="18" />
<rect fill="none" height="24" stroke="#405C86" stroke-width="2" width="24" x="3090" y="18" />
<text class="smaller-label intrinsic-color" x="3102" y="31">b[18]</text>
<rect fill="#DEE6F1" height="24" width="24" x="3066" y="18" />
<rect fill="none" height="24" stroke="#405C86" stroke-width="2" width="24" x="3066" y="18" />
<text class="smaller-label intrinsic-color" x="3078" y="31">b[19]</text>
<rect fill="#DEE6F1" height="24" width="24" x="3042" y="18" />
<rect fill="none" height="24" stroke="#405C86" stroke-width="2" width="24" x="3042" y="18" />
<text class="smaller-label intrinsic-color" x="3054" y="31">b[20]</text>
<rect fill="#DEE6F1" height="24" width="24" x="3018" y="18" />
<rect fill="none" height="24" stroke="#405C86" stroke-width="2" width="24" x="3018" y="18" />
<text class="smaller-label intrinsic-color" x="3030" y="31">b[21]</text>
<rect fill="#DEE6F1" height="24" width="24" x="2994" y="18" />
<rect fill="none" height="24" stroke="#405C86" stroke-width="2" width="24" x="2994" y="18" />
<text class="smaller-label intrinsic-color" x="3006" y="31">b[22]</text>
<rect fill="#DEE6F1" height="24" width="24" x="2970" y="18" />
<rect fill="none" height="24" stroke="#405C86" stroke-width="2" width="24" x="2970" y="18" />
<text class="smaller-label intrinsic-color" x="2982" y="31">b[23]</text>
<rect fill="#DEE6F1" height="24" width="24" x="2946" y="18" />
<rect fill="none" height="24" stroke="#405C86" stroke-width="2" width="24" x="2946" y="18" />
<text class="smaller-label intrinsic-color" x="2958" y="31">b[24]</text>
<rect fill="#DEE6F1" height="24" width="24" x="2922" y="18" />
<rect fill="none" height="24" stroke="#405C86" stroke-width="2" width="24" x="2922" y="18" />
<text class="smaller-label intrinsic-color" x="2934" y="31">b[25]</text>
<rect fill="#DEE6F1" height="24" width="24" x="2898" y="18" />
<rect fill="none" height="24" stroke="#405C86" stroke-width="2" width="24" x="2898" y="18" />
<text class="smaller-label intrinsic-color" x="2910" y="31">b[26]</text>
<rect fill="#DEE6F1" height="24" width="24" x="2874" y="18" />
<rect fill="none" height="24" stroke="#405C86" stroke-width="2" width="24" x="2874" y="18" />
<text class="smaller-label intrinsic-color" x="2886" y="31">b[27]</text>
<rect fill="#DEE6F1" height="24" width="24" x="2850" y="18" />
<rect fill="none" height="24" stroke="#405C86" stroke-width="2" width="24" x="2850" y="18" />
<text class="smaller-label intrinsic-color" x="2862" y="31">b[28]</text>
<rect fill="#DEE6F1" height="24" width="24" x="2826" y="18" />
<rect fill="none" height="24" stroke="#405C86" stroke-width="2" width="24" x="2826" y="18" />
<text class="smaller-label intrinsic-color" x="2838" y="31">b[29]</text>
<rect fill="#DEE6F1" height="24" width="24" x="2802" y="18" />
<rect fill="none" height="24" stroke="#405C86" stroke-width="2" width="24" x="2802" y="18" />
<text class="smaller-label intrinsic-color" x="2814" y="31">b[30]</text>
<rect fill="#DEE6F1" height="24" width="24" x="2778" y="18" />
<rect fill="none" height="24" stroke="#405C86" stroke-width="2" width="24" x="2778" y="18" />
<text class="smaller-label intrinsic-color" x="2790" y="31">b[31]</text>
<text class="register-name" x="80" y="30">[mem]</text>
<text class="intrinsic-name" x="80" y="42">*base</text>
<text class="register-number" x="10" y="30">(1)</text>
<rect fill="#DEE6F1" height="24" width="24.75" x="6209.25" y="90" />
<rect fill="none" height="24" stroke="#405C86" stroke-width="2" width="192" x="6042" y="90" />
<rect fill="#DEE6F1" height="24" width="24.75" x="6017.25" y="90" />
<rect fill="none" height="24" stroke="#405C86" stroke-width="2" width="192" x="5850" y="90" />
<rect fill="#DEE6F1" height="24" width="24.75" x="5825.25" y="90" />
<rect fill="none" height="24" stroke="#405C86" stroke-width="2" width="192" x="5658" y="90" />
<rect fill="#DEE6F1" height="24" width="24.75" x="5633.25" y="90" />
<rect fill="none" height="24" stroke="#405C86" stroke-width="2" width="192" x="5466" y="90" />
<rect fill="#DEE6F1" height="24" width="24.75" x="5441.25" y="90" />
<rect fill="none" height="24" stroke="#405C86" stroke-width="2" width="192" x="5274" y="90" />
<rect fill="#DEE6F1" height="24" width="24.75" x="5249.25" y="90" />
<rect fill="none" height="24" stroke="#405C86" stroke-width="2" width="192" x="5082" y="90" />
<rect fill="#DEE6F1" height="24" width="24.75" x="5057.25" y="90" />
<rect fill="none" height="24" stroke="#405C86" stroke-width="2" width="192" x="4890" y="90" />
<rect fill="#DEE6F1" height="24" width="24.75" x="4865.25" y="90" />
<rect fill="none" height="24" stroke="#405C86" stroke-width="2" width="192" x="4698" y="90" />
<rect fill="#DEE6F1" height="24" width="24.75" x="4673.25" y="90" />
<rect fill="none" height="24" stroke="#405C86" stroke-width="2" width="192" x="4506" y="90" />
<rect fill="#DEE6F1" height="24" width="24.75" x="4481.25" y="90" />
<rect fill="none" height="24" stroke="#405C86" stroke-width="2" width="192" x="4314" y="90" />
<rect fill="#DEE6F1" height="24" width="24.75" x="4289.25" y="90" />
<rect fill="none" height="24" stroke="#405C86" stroke-width="2" width="192" x="4122" y="90" />
<rect fill="#DEE6F1" height="24" width="24.75" x="4097.25" y="90" />
<rect fill="none" height="24" stroke="#405C86" stroke-width="2" width="192" x="3930" y="90" />
<rect fill="#DEE6F1" height="24" width="24.75" x="3905.25" y="90" />
<rect fill="none" height="24" stroke="#405C86" stroke-width="2" width="192" x="3738" y="90" />
<rect fill="#DEE6F1" height="24" width="24.75" x="3713.25" y="90" />
<rect fill="none" height="24" stroke="#405C86" stroke-width="2" width="192" x="3546" y="90" />
<rect fill="#DEE6F1" height="24" width="24.75" x="3521.25" y="90" />
<rect fill="none" height="24" stroke="#405C86" stroke-width="2" width="192" x="3354" y="90" />
<rect fill="#DEE6F1" height="24" width="24.75" x="3329.25" y="90" />
<rect fill="none" height="24" stroke="#405C86" stroke-width="2" width="192" x="3162" y="90" />
<rect fill="#DEE6F1" height="24" width="24.75" x="3137.25" y="90" />
<rect fill="none" height="24" stroke="#405C86" stroke-width="2" width="192" x="2970" y="90" />
<rect fill="#DEE6F1" height="24" width="24.75" x="2945.25" y="90" />
<rect fill="none" height="24" stroke="#405C86" stroke-width="2" width="192" x="2778" y="90" />
<rect fill="#DEE6F1" height="24" width="24.75" x="2753.25" y="90" />
<rect fill="none" height="24" stroke="#405C86" stroke-width="2" width="192" x="2586" y="90" />
<rect fill="#DEE6F1" height="24" width="24.75" x="2561.25" y="90" />
<rect fill="none" height="24" stroke="#405C86" stroke-width="2" width="192" x="2394" y="90" />
<rect fill="#DEE6F1" height="24" width="24.75" x="2369.25" y="90" />
<rect fill="none" height="24" stroke="#405C86" stroke-width="2" width="192" x="2202" y="90" />
<rect fill="#DEE6F1" height="24" width="24.75" x="2177.25" y="90" />
<rect fill="none" height="24" stroke="#405C86" stroke-width="2" width="192" x="2010" y="90" />
<rect fill="#DEE6F1" height="24" width="24.75" x="1985.25" y="90" />
<rect fill="none" height="24" stroke="#405C86" stroke-width="2" width="192" x="1818" y="90" />
<rect fill="#DEE6F1" height="24" width="24.75" x="1793.25" y="90" />
<rect fill="none" height="24" stroke="#405C86" stroke-width="2" width="192" x="1626" y="90" />
<rect fill="#DEE6F1" height="24" width="24.75" x="1601.25" y="90" />
<rect fill="none" height="24" stroke="#405C86" stroke-width="2" width="192" x="1434" y="90" />
<rect fill="#DEE6F1" height="24" width="24.75" x="1409.25" y="90" />
<rect fill="none" height="24" stroke="#405C86" stroke-width="2" width="192" x="1242" y="90" />
<rect fill="#DEE6F1" height="24" width="24.75" x="1217.25" y="90" />
<rect fill="none" height="24" stroke="#405C86" stroke-width="2" width="192" x="1050" y="90" />
<rect fill="#DEE6F1" height="24" width="24.75" x="1025.25" y="90" />
<rect fill="none" height="24" stroke="#405C86" stroke-width="2" width="192" x="858" y="90" />
<rect fill="#DEE6F1" height="24" width="24.75" x="833.25" y="90" />
<rect fill="none" height="24" stroke="#405C86" stroke-width="2" width="192" x="666" y="90" />
<rect fill="#DEE6F1" height="24" width="24.75" x="641.25" y="90" />
<rect fill="none" height="24" stroke="#405C86" stroke-width="2" width="192" x="474" y="90" />
<rect fill="#DEE6F1" height="24" width="24.75" x="449.25" y="90" />
<rect fill="none" height="24" stroke="#405C86" stroke-width="2" width="192" x="282" y="90" />
<rect fill="#DEE6F1" height="24" width="24.75" x="257.25" y="90" />
<rect fill="none" height="24" stroke="#405C86" stroke-width="2" width="192" x="90" y="90" />
<text class="register-name" x="80" y="102">Zt</text>
<text class="intrinsic-name" x="80" y="114">returns</text>
<text class="register-number" x="10" y="102">(2)</text>
<line marker-end="url(#arrowhead)" stroke="none" x1="3534" x2="6221.625" y1="42.5" y2="89" />
<line marker-end="url(#arrowhead)" stroke="none" x1="3510" x2="6029.625" y1="42.5" y2="89" />
<line marker-end="url(#arrowhead)" stroke="none" x1="3486" x2="5837.625" y1="42.5" y2="89" />
<line marker-end="url(#arrowhead)" stroke="none" x1="3462" x2="5645.625" y1="42.5" y2="89" />
<line marker-end="url(#arrowhead)" stroke="none" x1="3438" x2="5453.625" y1="42.5" y2="89" />
<line marker-end="url(#arrowhead)" stroke="none" x1="3414" x2="5261.625" y1="42.5" y2="89" />
<line marker-end="url(#arrowhead)" stroke="none" x1="3390" x2="5069.625" y1="42.5" y2="89" />
<line marker-end="url(#arrowhead)" stroke="none" x1="3366" x2="4877.625" y1="42.5" y2="89" />
<line marker-end="url(#arrowhead)" stroke="none" x1="3342" x2="4685.625" y1="42.5" y2="89" />
<line marker-end="url(#arrowhead)" stroke="none" x1="3318" x2="4493.625" y1="42.5" y2="89" />
<line marker-end="url(#arrowhead)" stroke="none" x1="3294" x2="4301.625" y1="42.5" y2="89" />
<line marker-end="url(#arrowhead)" stroke="none" x1="3270" x2="4109.625" y1="42.5" y2="89" />
<line marker-end="url(#arrowhead)" stroke="none" x1="3246" x2="3917.625" y1="42.5" y2="89" />
<line marker-end="url(#arrowhead)" stroke="none" x1="3222" x2="3725.625" y1="42.5" y2="89" />
<line marker-end="url(#arrowhead)" stroke="none" x1="3198" x2="3533.625" y1="42.5" y2="89" />
<line marker-end="url(#arrowhead)" stroke="none" x1="3174" x2="3341.625" y1="42.5" y2="89" />
<line marker-end="url(#arrowhead)" stroke="none" x1="3150" x2="3149.625" y1="42.5" y2="89" />
<line marker-end="url(#arrowhead)" stroke="none" x1="3126" x2="2957.625" y1="42.5" y2="89" />
<line marker-end="url(#arrowhead)" stroke="none" x1="3102" x2="2765.625" y1="42.5" y2="89" />
<line marker-end="url(#arrowhead)" stroke="none" x1="3078" x2="2573.625" y1="42.5" y2="89" />
<line marker-end="url(#arrowhead)" stroke="none" x1="3054" x2="2381.625" y1="42.5" y2="89" />
<line marker-end="url(#arrowhead)" stroke="none" x1="3030" x2="2189.625" y1="42.5" y2="89" />
<line marker-end="url(#arrowhead)" stroke="none" x1="3006" x2="1997.625" y1="42.5" y2="89" />
<line marker-end="url(#arrowhead)" stroke="none" x1="2982" x2="1805.625" y1="42.5" y2="89" />
<line marker-end="url(#arrowhead)" stroke="none" x1="2958" x2="1613.625" y1="42.5" y2="89" />
<line marker-end="url(#arrowhead)" stroke="none" x1="2934" x2="1421.625" y1="42.5" y2="89" />
<line marker-end="url(#arrowhead)" stroke="none" x1="2910" x2="1229.625" y1="42.5" y2="89" />
<line marker-end="url(#arrowhead)" stroke="none" x1="2886" x2="1037.625" y1="42.5" y2="89" />
<line marker-end="url(#arrowhead)" stroke="none" x1="2862" x2="845.625" y1="42.5" y2="89" />
<line marker-end="url(#arrowhead)" stroke="none" x1="2838" x2="653.625" y1="42.5" y2="89" />
<line marker-end="url(#arrowhead)" stroke="none" x1="2814" x2="461.625" y1="42.5" y2="89" />
<line marker-end="url(#arrowhead)" stroke="none" x1="2790" x2="269.625" y1="42.5" y2="89" />
</svg>