<svg xmlns="http://www.w3.org/2000/svg" viewBox="0 0 3174 123">
<style>
.label { font: 14px Helvetica; dominant-baseline: middle; text-anchor: middle; }
.title-left { font: 12px Helvetica; dominant-baseline: middle; }
.title-right { font: 12px Helvetica; dominant-baseline: middle; text-anchor: end; }
.title-intrinsic { font: 12px Helvetica; dominant-baseline: middle; text-anchor: middle; fill: #6778ED; }
.title { font: 12px Helvetica; dominant-baseline: middle; text-anchor: middle; }
.title-unused { font: 12px Helvetica; dominant-baseline: middle; text-anchor: middle; fill: #AAA; }
.register-name { font: 14px Helvetica; dominant-baseline: middle; text-anchor: end; font-style: italic; }
.memory-name { font: 14px Helvetica; dominant-baseline: middle; text-anchor: end; }
.register-number { font: 14px Helvetica; dominant-baseline: middle; text-anchor: start; }
.intrinsic-name { font: 14px Helvetica; dominant-baseline: middle; text-anchor: end; fill: #6778ED; }
.intrinsic-color { fill: #6778ED; }
.small-label { font: 12px Helvetica; dominant-baseline: middle; text-anchor: middle; }
.label-10px { font: 10px Helvetica; dominant-baseline: middle; text-anchor: middle; }
.smaller-label { font: 9px Helvetica; dominant-baseline: middle; text-anchor: middle; }
.label-6px { font: 6px Helvetica; dominant-baseline: middle; text-anchor: middle; }
.label-7px { font: 7px Helvetica; dominant-baseline: middle; text-anchor: middle; }
.unused { fill: #AAA; }
.dim { fill: #888; }
</style>
<defs>
<marker id="arrowhead" markerWidth="10.75" markerHeight="24.5" refX="9.0" refY="6.125" orient="auto">
<polyline points="0.5 0.5, 8.75 6.125, 0.5 11.75" stroke="#567DB6" stroke-width="1" fill="none"/>
</marker>
</defs>
<line stroke="#567DB6" stroke-width="1" x1="1710" x2="3149.5625" y1="42.5" y2="89" />
<line stroke="#567DB6" stroke-width="1" x1="1686" x2="2765.5625" y1="42.5" y2="89" />
<line stroke="#567DB6" stroke-width="1" x1="1662" x2="2381.5625" y1="42.5" y2="89" />
<line stroke="#567DB6" stroke-width="1" x1="1638" x2="1997.5625" y1="42.5" y2="89" />
<line stroke="#567DB6" stroke-width="1" x1="1614" x2="1613.5625" y1="42.5" y2="89" />
<line stroke="#567DB6" stroke-width="1" x1="1590" x2="1229.5625" y1="42.5" y2="89" />
<line stroke="#567DB6" stroke-width="1" x1="1566" x2="845.5625" y1="42.5" y2="89" />
<line stroke="#567DB6" stroke-width="1" x1="1542" x2="461.5625" y1="42.5" y2="89" />
<text class="title-left" x="90" y="9">upper</text>
<text class="title-right" x="3162" y="9">lower</text>
<rect fill="#DEE6F1" height="24" width="24" x="1698" y="18" />
<rect fill="none" height="24" stroke="#405C86" stroke-width="2" width="24" x="1698" y="18" />
<text class="smaller-label intrinsic-color" x="1710" y="31">b[0]</text>
<rect fill="#DEE6F1" height="24" width="24" x="1674" y="18" />
<rect fill="none" height="24" stroke="#405C86" stroke-width="2" width="24" x="1674" y="18" />
<text class="smaller-label intrinsic-color" x="1686" y="31">b[1]</text>
<rect fill="#DEE6F1" height="24" width="24" x="1650" y="18" />
<rect fill="none" height="24" stroke="#405C86" stroke-width="2" width="24" x="1650" y="18" />
<text class="smaller-label intrinsic-color" x="1662" y="31">b[2]</text>
<rect fill="#DEE6F1" height="24" width="24" x="1626" y="18" />
<rect fill="none" height="24" stroke="#405C86" stroke-width="2" width="24" x="1626" y="18" />
<text class="smaller-label intrinsic-color" x="1638" y="31">b[3]</text>
<rect fill="#DEE6F1" height="24" width="24" x="1602" y="18" />
<rect fill="none" height="24" stroke="#405C86" stroke-width="2" width="24" x="1602" y="18" />
<text class="smaller-label intrinsic-color" x="1614" y="31">b[4]</text>
<rect fill="#DEE6F1" height="24" width="24" x="1578" y="18" />
<rect fill="none" height="24" stroke="#405C86" stroke-width="2" width="24" x="1578" y="18" />
<text class="smaller-label intrinsic-color" x="1590" y="31">b[5]</text>
<rect fill="#DEE6F1" height="24" width="24" x="1554" y="18" />
<rect fill="none" height="24" stroke="#405C86" stroke-width="2" width="24" x="1554" y="18" />
<text class="smaller-label intrinsic-color" x="1566" y="31">b[6]</text>
<rect fill="#DEE6F1" height="24" width="24" x="1530" y="18" />
<rect fill="none" height="24" stroke="#405C86" stroke-width="2" width="24" x="1530" y="18" />
<text class="smaller-label intrinsic-color" x="1542" y="31">b[7]</text>
<text class="register-name" x="80" y="30">[mem]</text>
<text class="intrinsic-name" x="80" y="42">*base</text>
<text class="register-number" x="10" y="30">(1)</text>
<rect fill="#DEE6F1" height="24" width="24.875" x="3137.125" y="90" />
<rect fill="none" height="24" stroke="#405C86" stroke-width="2" width="384" x="2778" y="90" />
<rect fill="#DEE6F1" height="24" width="24.875" x="2753.125" y="90" />
<rect fill="none" height="24" stroke="#405C86" stroke-width="2" width="384" x="2394" y="90" />
<rect fill="#DEE6F1" height="24" width="24.875" x="2369.125" y="90" />
<rect fill="none" height="24" stroke="#405C86" stroke-width="2" width="384" x="2010" y="90" />
<rect fill="#DEE6F1" height="24" width="24.875" x="1985.125" y="90" />
<rect fill="none" height="24" stroke="#405C86" stroke-width="2" width="384" x="1626" y="90" />
<rect fill="#DEE6F1" height="24" width="24.875" x="1601.125" y="90" />
<rect fill="none" height="24" stroke="#405C86" stroke-width="2" width="384" x="1242" y="90" />
<rect fill="#DEE6F1" height="24" width="24.875" x="1217.125" y="90" />
<rect fill="none" height="24" stroke="#405C86" stroke-width="2" width="384" x="858" y="90" />
<rect fill="#DEE6F1" height="24" width="24.875" x="833.125" y="90" />
<rect fill="none" height="24" stroke="#405C86" stroke-width="2" width="384" x="474" y="90" />
<rect fill="#DEE6F1" height="24" width="24.875" x="449.125" y="90" />
<rect fill="none" height="24" stroke="#405C86" stroke-width="2" width="384" x="90" y="90" />
<text class="register-name" x="80" y="102">Zt</text>
<text class="intrinsic-name" x="80" y="114">returns</text>
<text class="register-number" x="10" y="102">(2)</text>
<line marker-end="url(#arrowhead)" stroke="none" x1="1710" x2="3149.5625" y1="42.5" y2="89" />
<line marker-end="url(#arrowhead)" stroke="none" x1="1686" x2="2765.5625" y1="42.5" y2="89" />
<line marker-end="url(#arrowhead)" stroke="none" x1="1662" x2="2381.5625" y1="42.5" y2="89" />
<line marker-end="url(#arrowhead)" stroke="none" x1="1638" x2="1997.5625" y1="42.5" y2="89" />
<line marker-end="url(#arrowhead)" stroke="none" x1="1614" x2="1613.5625" y1="42.5" y2="89" />
<line marker-end="url(#arrowhead)" stroke="none" x1="1590" x2="1229.5625" y1="42.5" y2="89" />
<line marker-end="url(#arrowhead)" stroke="none" x1="1566" x2="845.5625" y1="42.5" y2="89" />
<line marker-end="url(#arrowhead)" stroke="none" x1="1542" x2="461.5625" y1="42.5" y2="89" />
</svg>