<svg xmlns="http://www.w3.org/2000/svg" viewBox="0 0 1638 123">
<style>
.label { font: 14px Helvetica; dominant-baseline: middle; text-anchor: middle; }
.title-left { font: 12px Helvetica; dominant-baseline: middle; }
.title-right { font: 12px Helvetica; dominant-baseline: middle; text-anchor: end; }
.title-intrinsic { font: 12px Helvetica; dominant-baseline: middle; text-anchor: middle; fill: #6778ED; }
.title { font: 12px Helvetica; dominant-baseline: middle; text-anchor: middle; }
.title-unused { font: 12px Helvetica; dominant-baseline: middle; text-anchor: middle; fill: #AAA; }
.register-name { font: 14px Helvetica; dominant-baseline: middle; text-anchor: end; font-style: italic; }
.memory-name { font: 14px Helvetica; dominant-baseline: middle; text-anchor: end; }
.register-number { font: 14px Helvetica; dominant-baseline: middle; text-anchor: start; }
.intrinsic-name { font: 14px Helvetica; dominant-baseline: middle; text-anchor: end; fill: #6778ED; }
.intrinsic-color { fill: #6778ED; }
.small-label { font: 12px Helvetica; dominant-baseline: middle; text-anchor: middle; }
.label-10px { font: 10px Helvetica; dominant-baseline: middle; text-anchor: middle; }
.smaller-label { font: 9px Helvetica; dominant-baseline: middle; text-anchor: middle; }
.label-6px { font: 6px Helvetica; dominant-baseline: middle; text-anchor: middle; }
.label-7px { font: 7px Helvetica; dominant-baseline: middle; text-anchor: middle; }
.unused { fill: #AAA; }
.dim { fill: #888; }
</style>
<defs>
<marker id="arrowhead" markerWidth="10.75" markerHeight="24.5" refX="9.0" refY="6.125" orient="auto">
<polyline points="0.5 0.5, 8.75 6.125, 0.5 11.75" stroke="#567DB6" stroke-width="1" fill="none"/>
</marker>
</defs>
<line stroke="#567DB6" stroke-width="1" x1="1218" x2="1602" y1="42.5" y2="89" />
<line stroke="#567DB6" stroke-width="1" x1="1170" x2="1506" y1="42.5" y2="89" />
<line stroke="#567DB6" stroke-width="1" x1="1122" x2="1410" y1="42.5" y2="89" />
<line stroke="#567DB6" stroke-width="1" x1="1074" x2="1314" y1="42.5" y2="89" />
<line stroke="#567DB6" stroke-width="1" x1="1026" x2="1218" y1="42.5" y2="89" />
<line stroke="#567DB6" stroke-width="1" x1="978" x2="1122" y1="42.5" y2="89" />
<line stroke="#567DB6" stroke-width="1" x1="930" x2="1026" y1="42.5" y2="89" />
<line stroke="#567DB6" stroke-width="1" x1="882" x2="930" y1="42.5" y2="89" />
<line stroke="#567DB6" stroke-width="1" x1="834" x2="834" y1="42.5" y2="89" />
<line stroke="#567DB6" stroke-width="1" x1="786" x2="738" y1="42.5" y2="89" />
<line stroke="#567DB6" stroke-width="1" x1="738" x2="642" y1="42.5" y2="89" />
<line stroke="#567DB6" stroke-width="1" x1="690" x2="546" y1="42.5" y2="89" />
<line stroke="#567DB6" stroke-width="1" x1="642" x2="450" y1="42.5" y2="89" />
<line stroke="#567DB6" stroke-width="1" x1="594" x2="354" y1="42.5" y2="89" />
<line stroke="#567DB6" stroke-width="1" x1="546" x2="258" y1="42.5" y2="89" />
<line stroke="#567DB6" stroke-width="1" x1="498" x2="162" y1="42.5" y2="89" />
<text class="title-left" x="90" y="9">upper</text>
<text class="title-right" x="1626" y="9">lower</text>
<rect fill="#DEE6F1" height="24" width="48" x="1194" y="18" />
<rect fill="none" height="24" stroke="#405C86" stroke-width="2" width="48" x="1194" y="18" />
<text class="smaller-label intrinsic-color" x="1218" y="31">base[0]</text>
<rect fill="#DEE6F1" height="24" width="48" x="1146" y="18" />
<rect fill="none" height="24" stroke="#405C86" stroke-width="2" width="48" x="1146" y="18" />
<text class="smaller-label intrinsic-color" x="1170" y="31">base[1]</text>
<rect fill="#DEE6F1" height="24" width="48" x="1098" y="18" />
<rect fill="none" height="24" stroke="#405C86" stroke-width="2" width="48" x="1098" y="18" />
<text class="smaller-label intrinsic-color" x="1122" y="31">base[2]</text>
<rect fill="#DEE6F1" height="24" width="48" x="1050" y="18" />
<rect fill="none" height="24" stroke="#405C86" stroke-width="2" width="48" x="1050" y="18" />
<text class="smaller-label intrinsic-color" x="1074" y="31">base[3]</text>
<rect fill="#DEE6F1" height="24" width="48" x="1002" y="18" />
<rect fill="none" height="24" stroke="#405C86" stroke-width="2" width="48" x="1002" y="18" />
<text class="smaller-label intrinsic-color" x="1026" y="31">base[4]</text>
<rect fill="#DEE6F1" height="24" width="48" x="954" y="18" />
<rect fill="none" height="24" stroke="#405C86" stroke-width="2" width="48" x="954" y="18" />
<text class="smaller-label intrinsic-color" x="978" y="31">base[5]</text>
<rect fill="#DEE6F1" height="24" width="48" x="906" y="18" />
<rect fill="none" height="24" stroke="#405C86" stroke-width="2" width="48" x="906" y="18" />
<text class="smaller-label intrinsic-color" x="930" y="31">base[6]</text>
<rect fill="#DEE6F1" height="24" width="48" x="858" y="18" />
<rect fill="none" height="24" stroke="#405C86" stroke-width="2" width="48" x="858" y="18" />
<text class="smaller-label intrinsic-color" x="882" y="31">base[7]</text>
<rect fill="#DEE6F1" height="24" width="48" x="810" y="18" />
<rect fill="none" height="24" stroke="#405C86" stroke-width="2" width="48" x="810" y="18" />
<text class="smaller-label intrinsic-color" x="834" y="31">base[8]</text>
<rect fill="#DEE6F1" height="24" width="48" x="762" y="18" />
<rect fill="none" height="24" stroke="#405C86" stroke-width="2" width="48" x="762" y="18" />
<text class="smaller-label intrinsic-color" x="786" y="31">base[9]</text>
<rect fill="#DEE6F1" height="24" width="48" x="714" y="18" />
<rect fill="none" height="24" stroke="#405C86" stroke-width="2" width="48" x="714" y="18" />
<text class="smaller-label intrinsic-color" x="738" y="31">base[10]</text>
<rect fill="#DEE6F1" height="24" width="48" x="666" y="18" />
<rect fill="none" height="24" stroke="#405C86" stroke-width="2" width="48" x="666" y="18" />
<text class="smaller-label intrinsic-color" x="690" y="31">base[11]</text>
<rect fill="#DEE6F1" height="24" width="48" x="618" y="18" />
<rect fill="none" height="24" stroke="#405C86" stroke-width="2" width="48" x="618" y="18" />
<text class="smaller-label intrinsic-color" x="642" y="31">base[12]</text>
<rect fill="#DEE6F1" height="24" width="48" x="570" y="18" />
<rect fill="none" height="24" stroke="#405C86" stroke-width="2" width="48" x="570" y="18" />
<text class="smaller-label intrinsic-color" x="594" y="31">base[13]</text>
<rect fill="#DEE6F1" height="24" width="48" x="522" y="18" />
<rect fill="none" height="24" stroke="#405C86" stroke-width="2" width="48" x="522" y="18" />
<text class="smaller-label intrinsic-color" x="546" y="31">base[14]</text>
<rect fill="#DEE6F1" height="24" width="48" x="474" y="18" />
<rect fill="none" height="24" stroke="#405C86" stroke-width="2" width="48" x="474" y="18" />
<text class="smaller-label intrinsic-color" x="498" y="31">base[15]</text>
<text class="register-name" x="80" y="30">[mem]</text>
<text class="intrinsic-name" x="80" y="42">*base</text>
<text class="register-number" x="10" y="30">(1)</text>
<rect fill="#DEE6F1" height="24" width="48" x="1578" y="90" />
<rect fill="none" height="24" stroke="#405C86" stroke-width="2" width="96" x="1530" y="90" />
<rect fill="#DEE6F1" height="24" width="48" x="1482" y="90" />
<rect fill="none" height="24" stroke="#405C86" stroke-width="2" width="96" x="1434" y="90" />
<rect fill="#DEE6F1" height="24" width="48" x="1386" y="90" />
<rect fill="none" height="24" stroke="#405C86" stroke-width="2" width="96" x="1338" y="90" />
<rect fill="#DEE6F1" height="24" width="48" x="1290" y="90" />
<rect fill="none" height="24" stroke="#405C86" stroke-width="2" width="96" x="1242" y="90" />
<rect fill="#DEE6F1" height="24" width="48" x="1194" y="90" />
<rect fill="none" height="24" stroke="#405C86" stroke-width="2" width="96" x="1146" y="90" />
<rect fill="#DEE6F1" height="24" width="48" x="1098" y="90" />
<rect fill="none" height="24" stroke="#405C86" stroke-width="2" width="96" x="1050" y="90" />
<rect fill="#DEE6F1" height="24" width="48" x="1002" y="90" />
<rect fill="none" height="24" stroke="#405C86" stroke-width="2" width="96" x="954" y="90" />
<rect fill="#DEE6F1" height="24" width="48" x="906" y="90" />
<rect fill="none" height="24" stroke="#405C86" stroke-width="2" width="96" x="858" y="90" />
<rect fill="#DEE6F1" height="24" width="48" x="810" y="90" />
<rect fill="none" height="24" stroke="#405C86" stroke-width="2" width="96" x="762" y="90" />
<rect fill="#DEE6F1" height="24" width="48" x="714" y="90" />
<rect fill="none" height="24" stroke="#405C86" stroke-width="2" width="96" x="666" y="90" />
<rect fill="#DEE6F1" height="24" width="48" x="618" y="90" />
<rect fill="none" height="24" stroke="#405C86" stroke-width="2" width="96" x="570" y="90" />
<rect fill="#DEE6F1" height="24" width="48" x="522" y="90" />
<rect fill="none" height="24" stroke="#405C86" stroke-width="2" width="96" x="474" y="90" />
<rect fill="#DEE6F1" height="24" width="48" x="426" y="90" />
<rect fill="none" height="24" stroke="#405C86" stroke-width="2" width="96" x="378" y="90" />
<rect fill="#DEE6F1" height="24" width="48" x="330" y="90" />
<rect fill="none" height="24" stroke="#405C86" stroke-width="2" width="96" x="282" y="90" />
<rect fill="#DEE6F1" height="24" width="48" x="234" y="90" />
<rect fill="none" height="24" stroke="#405C86" stroke-width="2" width="96" x="186" y="90" />
<rect fill="#DEE6F1" height="24" width="48" x="138" y="90" />
<rect fill="none" height="24" stroke="#405C86" stroke-width="2" width="96" x="90" y="90" />
<text class="register-name" x="80" y="102">Zt</text>
<text class="intrinsic-name" x="80" y="114">returns</text>
<text class="register-number" x="10" y="102">(2)</text>
<line marker-end="url(#arrowhead)" stroke="none" x1="1218" x2="1602" y1="42.5" y2="89" />
<line marker-end="url(#arrowhead)" stroke="none" x1="1170" x2="1506" y1="42.5" y2="89" />
<line marker-end="url(#arrowhead)" stroke="none" x1="1122" x2="1410" y1="42.5" y2="89" />
<line marker-end="url(#arrowhead)" stroke="none" x1="1074" x2="1314" y1="42.5" y2="89" />
<line marker-end="url(#arrowhead)" stroke="none" x1="1026" x2="1218" y1="42.5" y2="89" />
<line marker-end="url(#arrowhead)" stroke="none" x1="978" x2="1122" y1="42.5" y2="89" />
<line marker-end="url(#arrowhead)" stroke="none" x1="930" x2="1026" y1="42.5" y2="89" />
<line marker-end="url(#arrowhead)" stroke="none" x1="882" x2="930" y1="42.5" y2="89" />
<line marker-end="url(#arrowhead)" stroke="none" x1="834" x2="834" y1="42.5" y2="89" />
<line marker-end="url(#arrowhead)" stroke="none" x1="786" x2="738" y1="42.5" y2="89" />
<line marker-end="url(#arrowhead)" stroke="none" x1="738" x2="642" y1="42.5" y2="89" />
<line marker-end="url(#arrowhead)" stroke="none" x1="690" x2="546" y1="42.5" y2="89" />
<line marker-end="url(#arrowhead)" stroke="none" x1="642" x2="450" y1="42.5" y2="89" />
<line marker-end="url(#arrowhead)" stroke="none" x1="594" x2="354" y1="42.5" y2="89" />
<line marker-end="url(#arrowhead)" stroke="none" x1="546" x2="258" y1="42.5" y2="89" />
<line marker-end="url(#arrowhead)" stroke="none" x1="498" x2="162" y1="42.5" y2="89" />
</svg>