<svg xmlns="http://www.w3.org/2000/svg" viewBox="0 0 870 207">
<style>
.label { font: 14px Helvetica; dominant-baseline: middle; text-anchor: middle; }
.title-left { font: 12px Helvetica; dominant-baseline: middle; }
.title-right { font: 12px Helvetica; dominant-baseline: middle; text-anchor: end; }
.title-intrinsic { font: 12px Helvetica; dominant-baseline: middle; text-anchor: middle; fill: #6778ED; }
.title { font: 12px Helvetica; dominant-baseline: middle; text-anchor: middle; }
.title-unused { font: 12px Helvetica; dominant-baseline: middle; text-anchor: middle; fill: #AAA; }
.register-name { font: 14px Helvetica; dominant-baseline: middle; text-anchor: end; font-style: italic; }
.memory-name { font: 14px Helvetica; dominant-baseline: middle; text-anchor: end; }
.register-number { font: 14px Helvetica; dominant-baseline: middle; text-anchor: start; }
.intrinsic-name { font: 14px Helvetica; dominant-baseline: middle; text-anchor: end; fill: #6778ED; }
.intrinsic-color { fill: #6778ED; }
.small-label { font: 12px Helvetica; dominant-baseline: middle; text-anchor: middle; }
.label-10px { font: 10px Helvetica; dominant-baseline: middle; text-anchor: middle; }
.smaller-label { font: 9px Helvetica; dominant-baseline: middle; text-anchor: middle; }
.label-6px { font: 6px Helvetica; dominant-baseline: middle; text-anchor: middle; }
.label-7px { font: 7px Helvetica; dominant-baseline: middle; text-anchor: middle; }
.unused { fill: #AAA; }
.dim { fill: #888; }
</style>
<defs>
<marker id="arrowhead" markerWidth="10.75" markerHeight="24.5" refX="9.0" refY="6.125" orient="auto">
<polyline points="0.5 0.5, 8.75 6.125, 0.5 11.75" stroke="#567DB6" stroke-width="1" fill="none"/>
</marker>
</defs>
<line stroke="#567DB6" stroke-width="1" x1="830" x2="830" y1="42.5" y2="125" />
<line stroke="#567DB6" stroke-width="1" x1="782" x2="782" y1="42.5" y2="125" />
<line stroke="#567DB6" stroke-width="1" x1="734" x2="734" y1="42.5" y2="125" />
<line stroke="#567DB6" stroke-width="1" x1="686" x2="686" y1="42.5" y2="125" />
<line stroke="#567DB6" stroke-width="1" x1="638" x2="638" y1="42.5" y2="125" />
<line stroke="#567DB6" stroke-width="1" x1="590" x2="590" y1="42.5" y2="125" />
<line stroke="#567DB6" stroke-width="1" x1="542" x2="542" y1="42.5" y2="125" />
<line stroke="#567DB6" stroke-width="1" x1="494" x2="494" y1="42.5" y2="125" />
<line stroke="#567DB6" stroke-width="1" x1="446" x2="446" y1="42.5" y2="125" />
<line stroke="#567DB6" stroke-width="1" x1="398" x2="398" y1="42.5" y2="125" />
<line stroke="#567DB6" stroke-width="1" x1="350" x2="350" y1="42.5" y2="125" />
<line stroke="#567DB6" stroke-width="1" x1="302" x2="302" y1="42.5" y2="125" />
<line stroke="#567DB6" stroke-width="1" x1="254" x2="254" y1="42.5" y2="125" />
<line stroke="#567DB6" stroke-width="1" x1="206" x2="206" y1="42.5" y2="125" />
<line stroke="#567DB6" stroke-width="1" x1="158" x2="158" y1="42.5" y2="125" />
<line stroke="#567DB6" stroke-width="1" x1="110" x2="110" y1="42.5" y2="125" />
<line stroke="#567DB6" stroke-dasharray="3 1" stroke-width="1" x1="838" x2="838" y1="78.5" y2="173" />
<line stroke="#567DB6" stroke-dasharray="3 1" stroke-width="1" x1="790" x2="790" y1="78.5" y2="173" />
<line stroke="#567DB6" stroke-dasharray="3 1" stroke-width="1" x1="742" x2="742" y1="78.5" y2="173" />
<line stroke="#567DB6" stroke-dasharray="3 1" stroke-width="1" x1="694" x2="694" y1="78.5" y2="173" />
<line stroke="#567DB6" stroke-dasharray="3 1" stroke-width="1" x1="646" x2="646" y1="78.5" y2="173" />
<line stroke="#567DB6" stroke-dasharray="3 1" stroke-width="1" x1="598" x2="598" y1="78.5" y2="173" />
<line stroke="#567DB6" stroke-dasharray="3 1" stroke-width="1" x1="550" x2="550" y1="78.5" y2="173" />
<line stroke="#567DB6" stroke-dasharray="3 1" stroke-width="1" x1="502" x2="502" y1="78.5" y2="173" />
<line stroke="#567DB6" stroke-dasharray="3 1" stroke-width="1" x1="454" x2="454" y1="78.5" y2="173" />
<line stroke="#567DB6" stroke-dasharray="3 1" stroke-width="1" x1="406" x2="406" y1="78.5" y2="173" />
<line stroke="#567DB6" stroke-dasharray="3 1" stroke-width="1" x1="358" x2="358" y1="78.5" y2="173" />
<line stroke="#567DB6" stroke-dasharray="3 1" stroke-width="1" x1="310" x2="310" y1="78.5" y2="173" />
<line stroke="#567DB6" stroke-dasharray="3 1" stroke-width="1" x1="262" x2="262" y1="78.5" y2="173" />
<line stroke="#567DB6" stroke-dasharray="3 1" stroke-width="1" x1="214" x2="214" y1="78.5" y2="173" />
<line stroke="#567DB6" stroke-dasharray="3 1" stroke-width="1" x1="166" x2="166" y1="78.5" y2="173" />
<line stroke="#567DB6" stroke-dasharray="3 1" stroke-width="1" x1="118" x2="118" y1="78.5" y2="173" />
<text class="title-left" x="90" y="9">upper</text>
<text class="title-right" x="858" y="9">lower</text>
<rect fill="#DEE6F1" height="24" width="48" x="810" y="18" />
<rect fill="none" height="24" stroke="#405C86" stroke-width="2" width="48" x="810" y="18" />
<text class="smaller-label intrinsic-color" x="834" y="31">base[0]</text>
<rect fill="#DEE6F1" height="24" width="48" x="762" y="18" />
<rect fill="none" height="24" stroke="#405C86" stroke-width="2" width="48" x="762" y="18" />
<text class="smaller-label intrinsic-color" x="786" y="31">base[1]</text>
<rect fill="#DEE6F1" height="24" width="48" x="714" y="18" />
<rect fill="none" height="24" stroke="#405C86" stroke-width="2" width="48" x="714" y="18" />
<text class="smaller-label intrinsic-color" x="738" y="31">base[2]</text>
<rect fill="#DEE6F1" height="24" width="48" x="666" y="18" />
<rect fill="none" height="24" stroke="#405C86" stroke-width="2" width="48" x="666" y="18" />
<text class="smaller-label intrinsic-color" x="690" y="31">base[3]</text>
<rect fill="#DEE6F1" height="24" width="48" x="618" y="18" />
<rect fill="none" height="24" stroke="#405C86" stroke-width="2" width="48" x="618" y="18" />
<text class="smaller-label intrinsic-color" x="642" y="31">base[4]</text>
<rect fill="#DEE6F1" height="24" width="48" x="570" y="18" />
<rect fill="none" height="24" stroke="#405C86" stroke-width="2" width="48" x="570" y="18" />
<text class="smaller-label intrinsic-color" x="594" y="31">base[5]</text>
<rect fill="#DEE6F1" height="24" width="48" x="522" y="18" />
<rect fill="none" height="24" stroke="#405C86" stroke-width="2" width="48" x="522" y="18" />
<text class="smaller-label intrinsic-color" x="546" y="31">base[6]</text>
<rect fill="#DEE6F1" height="24" width="48" x="474" y="18" />
<rect fill="none" height="24" stroke="#405C86" stroke-width="2" width="48" x="474" y="18" />
<text class="smaller-label intrinsic-color" x="498" y="31">base[7]</text>
<rect fill="#DEE6F1" height="24" width="48" x="426" y="18" />
<rect fill="none" height="24" stroke="#405C86" stroke-width="2" width="48" x="426" y="18" />
<text class="smaller-label intrinsic-color" x="450" y="31">base[8]</text>
<rect fill="#DEE6F1" height="24" width="48" x="378" y="18" />
<rect fill="none" height="24" stroke="#405C86" stroke-width="2" width="48" x="378" y="18" />
<text class="smaller-label intrinsic-color" x="402" y="31">base[9]</text>
<rect fill="#DEE6F1" height="24" width="48" x="330" y="18" />
<rect fill="none" height="24" stroke="#405C86" stroke-width="2" width="48" x="330" y="18" />
<text class="smaller-label intrinsic-color" x="354" y="31">base[10]</text>
<rect fill="#DEE6F1" height="24" width="48" x="282" y="18" />
<rect fill="none" height="24" stroke="#405C86" stroke-width="2" width="48" x="282" y="18" />
<text class="smaller-label intrinsic-color" x="306" y="31">base[11]</text>
<rect fill="#DEE6F1" height="24" width="48" x="234" y="18" />
<rect fill="none" height="24" stroke="#405C86" stroke-width="2" width="48" x="234" y="18" />
<text class="smaller-label intrinsic-color" x="258" y="31">base[12]</text>
<rect fill="#DEE6F1" height="24" width="48" x="186" y="18" />
<rect fill="none" height="24" stroke="#405C86" stroke-width="2" width="48" x="186" y="18" />
<text class="smaller-label intrinsic-color" x="210" y="31">base[13]</text>
<rect fill="#DEE6F1" height="24" width="48" x="138" y="18" />
<rect fill="none" height="24" stroke="#405C86" stroke-width="2" width="48" x="138" y="18" />
<text class="smaller-label intrinsic-color" x="162" y="31">base[14]</text>
<rect fill="#DEE6F1" height="24" width="48" x="90" y="18" />
<rect fill="none" height="24" stroke="#405C86" stroke-width="2" width="48" x="90" y="18" />
<text class="smaller-label intrinsic-color" x="114" y="31">base[15]</text>
<text class="register-name" x="80" y="30">[mem]</text>
<text class="register-number" x="10" y="30">(1)</text>
<rect fill="#EEDDDB" height="24" width="48" x="810" y="54" />
<rect fill="none" height="24" stroke="#405C86" stroke-width="2" width="48" x="810" y="54" />
<text class="smaller-label intrinsic-color" x="834" y="67">base[16]</text>
<rect fill="#EEDDDB" height="24" width="48" x="762" y="54" />
<rect fill="none" height="24" stroke="#405C86" stroke-width="2" width="48" x="762" y="54" />
<text class="smaller-label intrinsic-color" x="786" y="67">base[17]</text>
<rect fill="#EEDDDB" height="24" width="48" x="714" y="54" />
<rect fill="none" height="24" stroke="#405C86" stroke-width="2" width="48" x="714" y="54" />
<text class="smaller-label intrinsic-color" x="738" y="67">base[18]</text>
<rect fill="#EEDDDB" height="24" width="48" x="666" y="54" />
<rect fill="none" height="24" stroke="#405C86" stroke-width="2" width="48" x="666" y="54" />
<text class="smaller-label intrinsic-color" x="690" y="67">base[19]</text>
<rect fill="#EEDDDB" height="24" width="48" x="618" y="54" />
<rect fill="none" height="24" stroke="#405C86" stroke-width="2" width="48" x="618" y="54" />
<text class="smaller-label intrinsic-color" x="642" y="67">base[20]</text>
<rect fill="#EEDDDB" height="24" width="48" x="570" y="54" />
<rect fill="none" height="24" stroke="#405C86" stroke-width="2" width="48" x="570" y="54" />
<text class="smaller-label intrinsic-color" x="594" y="67">base[21]</text>
<rect fill="#EEDDDB" height="24" width="48" x="522" y="54" />
<rect fill="none" height="24" stroke="#405C86" stroke-width="2" width="48" x="522" y="54" />
<text class="smaller-label intrinsic-color" x="546" y="67">base[22]</text>
<rect fill="#EEDDDB" height="24" width="48" x="474" y="54" />
<rect fill="none" height="24" stroke="#405C86" stroke-width="2" width="48" x="474" y="54" />
<text class="smaller-label intrinsic-color" x="498" y="67">base[23]</text>
<rect fill="#EEDDDB" height="24" width="48" x="426" y="54" />
<rect fill="none" height="24" stroke="#405C86" stroke-width="2" width="48" x="426" y="54" />
<text class="smaller-label intrinsic-color" x="450" y="67">base[24]</text>
<rect fill="#EEDDDB" height="24" width="48" x="378" y="54" />
<rect fill="none" height="24" stroke="#405C86" stroke-width="2" width="48" x="378" y="54" />
<text class="smaller-label intrinsic-color" x="402" y="67">base[25]</text>
<rect fill="#EEDDDB" height="24" width="48" x="330" y="54" />
<rect fill="none" height="24" stroke="#405C86" stroke-width="2" width="48" x="330" y="54" />
<text class="smaller-label intrinsic-color" x="354" y="67">base[26]</text>
<rect fill="#EEDDDB" height="24" width="48" x="282" y="54" />
<rect fill="none" height="24" stroke="#405C86" stroke-width="2" width="48" x="282" y="54" />
<text class="smaller-label intrinsic-color" x="306" y="67">base[27]</text>
<rect fill="#EEDDDB" height="24" width="48" x="234" y="54" />
<rect fill="none" height="24" stroke="#405C86" stroke-width="2" width="48" x="234" y="54" />
<text class="smaller-label intrinsic-color" x="258" y="67">base[28]</text>
<rect fill="#EEDDDB" height="24" width="48" x="186" y="54" />
<rect fill="none" height="24" stroke="#405C86" stroke-width="2" width="48" x="186" y="54" />
<text class="smaller-label intrinsic-color" x="210" y="67">base[29]</text>
<rect fill="#EEDDDB" height="24" width="48" x="138" y="54" />
<rect fill="none" height="24" stroke="#405C86" stroke-width="2" width="48" x="138" y="54" />
<text class="smaller-label intrinsic-color" x="162" y="67">base[30]</text>
<rect fill="#EEDDDB" height="24" width="48" x="90" y="54" />
<rect fill="none" height="24" stroke="#405C86" stroke-width="2" width="48" x="90" y="54" />
<text class="smaller-label intrinsic-color" x="114" y="67">base[31]</text>
<rect fill="#DEE6F1" height="24" width="48" x="810" y="126" />
<rect fill="none" height="24" stroke="#405C86" stroke-width="2" width="48" x="810" y="126" />
<rect fill="#DEE6F1" height="24" width="48" x="762" y="126" />
<rect fill="none" height="24" stroke="#405C86" stroke-width="2" width="48" x="762" y="126" />
<rect fill="#DEE6F1" height="24" width="48" x="714" y="126" />
<rect fill="none" height="24" stroke="#405C86" stroke-width="2" width="48" x="714" y="126" />
<rect fill="#DEE6F1" height="24" width="48" x="666" y="126" />
<rect fill="none" height="24" stroke="#405C86" stroke-width="2" width="48" x="666" y="126" />
<rect fill="#DEE6F1" height="24" width="48" x="618" y="126" />
<rect fill="none" height="24" stroke="#405C86" stroke-width="2" width="48" x="618" y="126" />
<rect fill="#DEE6F1" height="24" width="48" x="570" y="126" />
<rect fill="none" height="24" stroke="#405C86" stroke-width="2" width="48" x="570" y="126" />
<rect fill="#DEE6F1" height="24" width="48" x="522" y="126" />
<rect fill="none" height="24" stroke="#405C86" stroke-width="2" width="48" x="522" y="126" />
<rect fill="#DEE6F1" height="24" width="48" x="474" y="126" />
<rect fill="none" height="24" stroke="#405C86" stroke-width="2" width="48" x="474" y="126" />
<rect fill="#DEE6F1" height="24" width="48" x="426" y="126" />
<rect fill="none" height="24" stroke="#405C86" stroke-width="2" width="48" x="426" y="126" />
<rect fill="#DEE6F1" height="24" width="48" x="378" y="126" />
<rect fill="none" height="24" stroke="#405C86" stroke-width="2" width="48" x="378" y="126" />
<rect fill="#DEE6F1" height="24" width="48" x="330" y="126" />
<rect fill="none" height="24" stroke="#405C86" stroke-width="2" width="48" x="330" y="126" />
<rect fill="#DEE6F1" height="24" width="48" x="282" y="126" />
<rect fill="none" height="24" stroke="#405C86" stroke-width="2" width="48" x="282" y="126" />
<rect fill="#DEE6F1" height="24" width="48" x="234" y="126" />
<rect fill="none" height="24" stroke="#405C86" stroke-width="2" width="48" x="234" y="126" />
<rect fill="#DEE6F1" height="24" width="48" x="186" y="126" />
<rect fill="none" height="24" stroke="#405C86" stroke-width="2" width="48" x="186" y="126" />
<rect fill="#DEE6F1" height="24" width="48" x="138" y="126" />
<rect fill="none" height="24" stroke="#405C86" stroke-width="2" width="48" x="138" y="126" />
<rect fill="#DEE6F1" height="24" width="48" x="90" y="126" />
<rect fill="none" height="24" stroke="#405C86" stroke-width="2" width="48" x="90" y="126" />
<text class="register-name" x="80" y="138">Zt1</text>
<text class="register-number" x="10" y="138">(2)</text>
<rect fill="#EEDDDB" height="24" width="48" x="810" y="174" />
<rect fill="none" height="24" stroke="#405C86" stroke-width="2" width="48" x="810" y="174" />
<rect fill="#EEDDDB" height="24" width="48" x="762" y="174" />
<rect fill="none" height="24" stroke="#405C86" stroke-width="2" width="48" x="762" y="174" />
<rect fill="#EEDDDB" height="24" width="48" x="714" y="174" />
<rect fill="none" height="24" stroke="#405C86" stroke-width="2" width="48" x="714" y="174" />
<rect fill="#EEDDDB" height="24" width="48" x="666" y="174" />
<rect fill="none" height="24" stroke="#405C86" stroke-width="2" width="48" x="666" y="174" />
<rect fill="#EEDDDB" height="24" width="48" x="618" y="174" />
<rect fill="none" height="24" stroke="#405C86" stroke-width="2" width="48" x="618" y="174" />
<rect fill="#EEDDDB" height="24" width="48" x="570" y="174" />
<rect fill="none" height="24" stroke="#405C86" stroke-width="2" width="48" x="570" y="174" />
<rect fill="#EEDDDB" height="24" width="48" x="522" y="174" />
<rect fill="none" height="24" stroke="#405C86" stroke-width="2" width="48" x="522" y="174" />
<rect fill="#EEDDDB" height="24" width="48" x="474" y="174" />
<rect fill="none" height="24" stroke="#405C86" stroke-width="2" width="48" x="474" y="174" />
<rect fill="#EEDDDB" height="24" width="48" x="426" y="174" />
<rect fill="none" height="24" stroke="#405C86" stroke-width="2" width="48" x="426" y="174" />
<rect fill="#EEDDDB" height="24" width="48" x="378" y="174" />
<rect fill="none" height="24" stroke="#405C86" stroke-width="2" width="48" x="378" y="174" />
<rect fill="#EEDDDB" height="24" width="48" x="330" y="174" />
<rect fill="none" height="24" stroke="#405C86" stroke-width="2" width="48" x="330" y="174" />
<rect fill="#EEDDDB" height="24" width="48" x="282" y="174" />
<rect fill="none" height="24" stroke="#405C86" stroke-width="2" width="48" x="282" y="174" />
<rect fill="#EEDDDB" height="24" width="48" x="234" y="174" />
<rect fill="none" height="24" stroke="#405C86" stroke-width="2" width="48" x="234" y="174" />
<rect fill="#EEDDDB" height="24" width="48" x="186" y="174" />
<rect fill="none" height="24" stroke="#405C86" stroke-width="2" width="48" x="186" y="174" />
<rect fill="#EEDDDB" height="24" width="48" x="138" y="174" />
<rect fill="none" height="24" stroke="#405C86" stroke-width="2" width="48" x="138" y="174" />
<rect fill="#EEDDDB" height="24" width="48" x="90" y="174" />
<rect fill="none" height="24" stroke="#405C86" stroke-width="2" width="48" x="90" y="174" />
<text class="register-name" x="80" y="186">Zt2</text>
<text class="register-number" x="10" y="186">(3)</text>
<line marker-end="url(#arrowhead)" stroke="none" x1="830" x2="830" y1="42.5" y2="125" />
<line marker-end="url(#arrowhead)" stroke="none" x1="782" x2="782" y1="42.5" y2="125" />
<line marker-end="url(#arrowhead)" stroke="none" x1="734" x2="734" y1="42.5" y2="125" />
<line marker-end="url(#arrowhead)" stroke="none" x1="686" x2="686" y1="42.5" y2="125" />
<line marker-end="url(#arrowhead)" stroke="none" x1="638" x2="638" y1="42.5" y2="125" />
<line marker-end="url(#arrowhead)" stroke="none" x1="590" x2="590" y1="42.5" y2="125" />
<line marker-end="url(#arrowhead)" stroke="none" x1="542" x2="542" y1="42.5" y2="125" />
<line marker-end="url(#arrowhead)" stroke="none" x1="494" x2="494" y1="42.5" y2="125" />
<line marker-end="url(#arrowhead)" stroke="none" x1="446" x2="446" y1="42.5" y2="125" />
<line marker-end="url(#arrowhead)" stroke="none" x1="398" x2="398" y1="42.5" y2="125" />
<line marker-end="url(#arrowhead)" stroke="none" x1="350" x2="350" y1="42.5" y2="125" />
<line marker-end="url(#arrowhead)" stroke="none" x1="302" x2="302" y1="42.5" y2="125" />
<line marker-end="url(#arrowhead)" stroke="none" x1="254" x2="254" y1="42.5" y2="125" />
<line marker-end="url(#arrowhead)" stroke="none" x1="206" x2="206" y1="42.5" y2="125" />
<line marker-end="url(#arrowhead)" stroke="none" x1="158" x2="158" y1="42.5" y2="125" />
<line marker-end="url(#arrowhead)" stroke="none" x1="110" x2="110" y1="42.5" y2="125" />
<line marker-end="url(#arrowhead)" stroke="none" stroke-dasharray="3 1" x1="838" x2="838" y1="78.5" y2="173" />
<line marker-end="url(#arrowhead)" stroke="none" stroke-dasharray="3 1" x1="790" x2="790" y1="78.5" y2="173" />
<line marker-end="url(#arrowhead)" stroke="none" stroke-dasharray="3 1" x1="742" x2="742" y1="78.5" y2="173" />
<line marker-end="url(#arrowhead)" stroke="none" stroke-dasharray="3 1" x1="694" x2="694" y1="78.5" y2="173" />
<line marker-end="url(#arrowhead)" stroke="none" stroke-dasharray="3 1" x1="646" x2="646" y1="78.5" y2="173" />
<line marker-end="url(#arrowhead)" stroke="none" stroke-dasharray="3 1" x1="598" x2="598" y1="78.5" y2="173" />
<line marker-end="url(#arrowhead)" stroke="none" stroke-dasharray="3 1" x1="550" x2="550" y1="78.5" y2="173" />
<line marker-end="url(#arrowhead)" stroke="none" stroke-dasharray="3 1" x1="502" x2="502" y1="78.5" y2="173" />
<line marker-end="url(#arrowhead)" stroke="none" stroke-dasharray="3 1" x1="454" x2="454" y1="78.5" y2="173" />
<line marker-end="url(#arrowhead)" stroke="none" stroke-dasharray="3 1" x1="406" x2="406" y1="78.5" y2="173" />
<line marker-end="url(#arrowhead)" stroke="none" stroke-dasharray="3 1" x1="358" x2="358" y1="78.5" y2="173" />
<line marker-end="url(#arrowhead)" stroke="none" stroke-dasharray="3 1" x1="310" x2="310" y1="78.5" y2="173" />
<line marker-end="url(#arrowhead)" stroke="none" stroke-dasharray="3 1" x1="262" x2="262" y1="78.5" y2="173" />
<line marker-end="url(#arrowhead)" stroke="none" stroke-dasharray="3 1" x1="214" x2="214" y1="78.5" y2="173" />
<line marker-end="url(#arrowhead)" stroke="none" stroke-dasharray="3 1" x1="166" x2="166" y1="78.5" y2="173" />
<line marker-end="url(#arrowhead)" stroke="none" stroke-dasharray="3 1" x1="118" x2="118" y1="78.5" y2="173" />
</svg>