<svg xmlns="http://www.w3.org/2000/svg" viewBox="0 0 6246 123">
<style>
.label { font: 14px Helvetica; dominant-baseline: middle; text-anchor: middle; }
.title-left { font: 12px Helvetica; dominant-baseline: middle; }
.title-right { font: 12px Helvetica; dominant-baseline: middle; text-anchor: end; }
.title-intrinsic { font: 12px Helvetica; dominant-baseline: middle; text-anchor: middle; fill: #6778ED; }
.title { font: 12px Helvetica; dominant-baseline: middle; text-anchor: middle; }
.title-unused { font: 12px Helvetica; dominant-baseline: middle; text-anchor: middle; fill: #AAA; }
.register-name { font: 14px Helvetica; dominant-baseline: middle; text-anchor: end; font-style: italic; }
.memory-name { font: 14px Helvetica; dominant-baseline: middle; text-anchor: end; }
.register-number { font: 14px Helvetica; dominant-baseline: middle; text-anchor: start; }
.intrinsic-name { font: 14px Helvetica; dominant-baseline: middle; text-anchor: end; fill: #6778ED; }
.intrinsic-color { fill: #6778ED; }
.small-label { font: 12px Helvetica; dominant-baseline: middle; text-anchor: middle; }
.label-10px { font: 10px Helvetica; dominant-baseline: middle; text-anchor: middle; }
.smaller-label { font: 9px Helvetica; dominant-baseline: middle; text-anchor: middle; }
.label-6px { font: 6px Helvetica; dominant-baseline: middle; text-anchor: middle; }
.label-7px { font: 7px Helvetica; dominant-baseline: middle; text-anchor: middle; }
.unused { fill: #AAA; }
.dim { fill: #888; }
</style>
<defs>
<marker id="arrowhead" markerWidth="10.75" markerHeight="24.5" refX="9.0" refY="6.125" orient="auto">
<polyline points="0.5 0.5, 8.75 6.125, 0.5 11.75" stroke="#567DB6" stroke-width="1" fill="none"/>
</marker>
</defs>
<line stroke="#567DB6" stroke-width="1" x1="4674" x2="6210" y1="42.5" y2="89" />
<line stroke="#567DB6" stroke-width="1" x1="4626" x2="6114" y1="42.5" y2="89" />
<line stroke="#567DB6" stroke-width="1" x1="4578" x2="6018" y1="42.5" y2="89" />
<line stroke="#567DB6" stroke-width="1" x1="4530" x2="5922" y1="42.5" y2="89" />
<line stroke="#567DB6" stroke-width="1" x1="4482" x2="5826" y1="42.5" y2="89" />
<line stroke="#567DB6" stroke-width="1" x1="4434" x2="5730" y1="42.5" y2="89" />
<line stroke="#567DB6" stroke-width="1" x1="4386" x2="5634" y1="42.5" y2="89" />
<line stroke="#567DB6" stroke-width="1" x1="4338" x2="5538" y1="42.5" y2="89" />
<line stroke="#567DB6" stroke-width="1" x1="4290" x2="5442" y1="42.5" y2="89" />
<line stroke="#567DB6" stroke-width="1" x1="4242" x2="5346" y1="42.5" y2="89" />
<line stroke="#567DB6" stroke-width="1" x1="4194" x2="5250" y1="42.5" y2="89" />
<line stroke="#567DB6" stroke-width="1" x1="4146" x2="5154" y1="42.5" y2="89" />
<line stroke="#567DB6" stroke-width="1" x1="4098" x2="5058" y1="42.5" y2="89" />
<line stroke="#567DB6" stroke-width="1" x1="4050" x2="4962" y1="42.5" y2="89" />
<line stroke="#567DB6" stroke-width="1" x1="4002" x2="4866" y1="42.5" y2="89" />
<line stroke="#567DB6" stroke-width="1" x1="3954" x2="4770" y1="42.5" y2="89" />
<line stroke="#567DB6" stroke-width="1" x1="3906" x2="4674" y1="42.5" y2="89" />
<line stroke="#567DB6" stroke-width="1" x1="3858" x2="4578" y1="42.5" y2="89" />
<line stroke="#567DB6" stroke-width="1" x1="3810" x2="4482" y1="42.5" y2="89" />
<line stroke="#567DB6" stroke-width="1" x1="3762" x2="4386" y1="42.5" y2="89" />
<line stroke="#567DB6" stroke-width="1" x1="3714" x2="4290" y1="42.5" y2="89" />
<line stroke="#567DB6" stroke-width="1" x1="3666" x2="4194" y1="42.5" y2="89" />
<line stroke="#567DB6" stroke-width="1" x1="3618" x2="4098" y1="42.5" y2="89" />
<line stroke="#567DB6" stroke-width="1" x1="3570" x2="4002" y1="42.5" y2="89" />
<line stroke="#567DB6" stroke-width="1" x1="3522" x2="3906" y1="42.5" y2="89" />
<line stroke="#567DB6" stroke-width="1" x1="3474" x2="3810" y1="42.5" y2="89" />
<line stroke="#567DB6" stroke-width="1" x1="3426" x2="3714" y1="42.5" y2="89" />
<line stroke="#567DB6" stroke-width="1" x1="3378" x2="3618" y1="42.5" y2="89" />
<line stroke="#567DB6" stroke-width="1" x1="3330" x2="3522" y1="42.5" y2="89" />
<line stroke="#567DB6" stroke-width="1" x1="3282" x2="3426" y1="42.5" y2="89" />
<line stroke="#567DB6" stroke-width="1" x1="3234" x2="3330" y1="42.5" y2="89" />
<line stroke="#567DB6" stroke-width="1" x1="3186" x2="3234" y1="42.5" y2="89" />
<line stroke="#567DB6" stroke-width="1" x1="3138" x2="3138" y1="42.5" y2="89" />
<line stroke="#567DB6" stroke-width="1" x1="3090" x2="3042" y1="42.5" y2="89" />
<line stroke="#567DB6" stroke-width="1" x1="3042" x2="2946" y1="42.5" y2="89" />
<line stroke="#567DB6" stroke-width="1" x1="2994" x2="2850" y1="42.5" y2="89" />
<line stroke="#567DB6" stroke-width="1" x1="2946" x2="2754" y1="42.5" y2="89" />
<line stroke="#567DB6" stroke-width="1" x1="2898" x2="2658" y1="42.5" y2="89" />
<line stroke="#567DB6" stroke-width="1" x1="2850" x2="2562" y1="42.5" y2="89" />
<line stroke="#567DB6" stroke-width="1" x1="2802" x2="2466" y1="42.5" y2="89" />
<line stroke="#567DB6" stroke-width="1" x1="2754" x2="2370" y1="42.5" y2="89" />
<line stroke="#567DB6" stroke-width="1" x1="2706" x2="2274" y1="42.5" y2="89" />
<line stroke="#567DB6" stroke-width="1" x1="2658" x2="2178" y1="42.5" y2="89" />
<line stroke="#567DB6" stroke-width="1" x1="2610" x2="2082" y1="42.5" y2="89" />
<line stroke="#567DB6" stroke-width="1" x1="2562" x2="1986" y1="42.5" y2="89" />
<line stroke="#567DB6" stroke-width="1" x1="2514" x2="1890" y1="42.5" y2="89" />
<line stroke="#567DB6" stroke-width="1" x1="2466" x2="1794" y1="42.5" y2="89" />
<line stroke="#567DB6" stroke-width="1" x1="2418" x2="1698" y1="42.5" y2="89" />
<line stroke="#567DB6" stroke-width="1" x1="2370" x2="1602" y1="42.5" y2="89" />
<line stroke="#567DB6" stroke-width="1" x1="2322" x2="1506" y1="42.5" y2="89" />
<line stroke="#567DB6" stroke-width="1" x1="2274" x2="1410" y1="42.5" y2="89" />
<line stroke="#567DB6" stroke-width="1" x1="2226" x2="1314" y1="42.5" y2="89" />
<line stroke="#567DB6" stroke-width="1" x1="2178" x2="1218" y1="42.5" y2="89" />
<line stroke="#567DB6" stroke-width="1" x1="2130" x2="1122" y1="42.5" y2="89" />
<line stroke="#567DB6" stroke-width="1" x1="2082" x2="1026" y1="42.5" y2="89" />
<line stroke="#567DB6" stroke-width="1" x1="2034" x2="930" y1="42.5" y2="89" />
<line stroke="#567DB6" stroke-width="1" x1="1986" x2="834" y1="42.5" y2="89" />
<line stroke="#567DB6" stroke-width="1" x1="1938" x2="738" y1="42.5" y2="89" />
<line stroke="#567DB6" stroke-width="1" x1="1890" x2="642" y1="42.5" y2="89" />
<line stroke="#567DB6" stroke-width="1" x1="1842" x2="546" y1="42.5" y2="89" />
<line stroke="#567DB6" stroke-width="1" x1="1794" x2="450" y1="42.5" y2="89" />
<line stroke="#567DB6" stroke-width="1" x1="1746" x2="354" y1="42.5" y2="89" />
<line stroke="#567DB6" stroke-width="1" x1="1698" x2="258" y1="42.5" y2="89" />
<line stroke="#567DB6" stroke-width="1" x1="1650" x2="162" y1="42.5" y2="89" />
<text class="title-left" x="90" y="9">upper</text>
<text class="title-right" x="6234" y="9">lower</text>
<rect fill="#DEE6F1" height="24" width="48" x="4650" y="18" />
<rect fill="none" height="24" stroke="#405C86" stroke-width="2" width="48" x="4650" y="18" />
<text class="smaller-label intrinsic-color" x="4674" y="31">base[0]</text>
<rect fill="#DEE6F1" height="24" width="48" x="4602" y="18" />
<rect fill="none" height="24" stroke="#405C86" stroke-width="2" width="48" x="4602" y="18" />
<text class="smaller-label intrinsic-color" x="4626" y="31">base[1]</text>
<rect fill="#DEE6F1" height="24" width="48" x="4554" y="18" />
<rect fill="none" height="24" stroke="#405C86" stroke-width="2" width="48" x="4554" y="18" />
<text class="smaller-label intrinsic-color" x="4578" y="31">base[2]</text>
<rect fill="#DEE6F1" height="24" width="48" x="4506" y="18" />
<rect fill="none" height="24" stroke="#405C86" stroke-width="2" width="48" x="4506" y="18" />
<text class="smaller-label intrinsic-color" x="4530" y="31">base[3]</text>
<rect fill="#DEE6F1" height="24" width="48" x="4458" y="18" />
<rect fill="none" height="24" stroke="#405C86" stroke-width="2" width="48" x="4458" y="18" />
<text class="smaller-label intrinsic-color" x="4482" y="31">base[4]</text>
<rect fill="#DEE6F1" height="24" width="48" x="4410" y="18" />
<rect fill="none" height="24" stroke="#405C86" stroke-width="2" width="48" x="4410" y="18" />
<text class="smaller-label intrinsic-color" x="4434" y="31">base[5]</text>
<rect fill="#DEE6F1" height="24" width="48" x="4362" y="18" />
<rect fill="none" height="24" stroke="#405C86" stroke-width="2" width="48" x="4362" y="18" />
<text class="smaller-label intrinsic-color" x="4386" y="31">base[6]</text>
<rect fill="#DEE6F1" height="24" width="48" x="4314" y="18" />
<rect fill="none" height="24" stroke="#405C86" stroke-width="2" width="48" x="4314" y="18" />
<text class="smaller-label intrinsic-color" x="4338" y="31">base[7]</text>
<rect fill="#DEE6F1" height="24" width="48" x="4266" y="18" />
<rect fill="none" height="24" stroke="#405C86" stroke-width="2" width="48" x="4266" y="18" />
<text class="smaller-label intrinsic-color" x="4290" y="31">base[8]</text>
<rect fill="#DEE6F1" height="24" width="48" x="4218" y="18" />
<rect fill="none" height="24" stroke="#405C86" stroke-width="2" width="48" x="4218" y="18" />
<text class="smaller-label intrinsic-color" x="4242" y="31">base[9]</text>
<rect fill="#DEE6F1" height="24" width="48" x="4170" y="18" />
<rect fill="none" height="24" stroke="#405C86" stroke-width="2" width="48" x="4170" y="18" />
<text class="smaller-label intrinsic-color" x="4194" y="31">base[10]</text>
<rect fill="#DEE6F1" height="24" width="48" x="4122" y="18" />
<rect fill="none" height="24" stroke="#405C86" stroke-width="2" width="48" x="4122" y="18" />
<text class="smaller-label intrinsic-color" x="4146" y="31">base[11]</text>
<rect fill="#DEE6F1" height="24" width="48" x="4074" y="18" />
<rect fill="none" height="24" stroke="#405C86" stroke-width="2" width="48" x="4074" y="18" />
<text class="smaller-label intrinsic-color" x="4098" y="31">base[12]</text>
<rect fill="#DEE6F1" height="24" width="48" x="4026" y="18" />
<rect fill="none" height="24" stroke="#405C86" stroke-width="2" width="48" x="4026" y="18" />
<text class="smaller-label intrinsic-color" x="4050" y="31">base[13]</text>
<rect fill="#DEE6F1" height="24" width="48" x="3978" y="18" />
<rect fill="none" height="24" stroke="#405C86" stroke-width="2" width="48" x="3978" y="18" />
<text class="smaller-label intrinsic-color" x="4002" y="31">base[14]</text>
<rect fill="#DEE6F1" height="24" width="48" x="3930" y="18" />
<rect fill="none" height="24" stroke="#405C86" stroke-width="2" width="48" x="3930" y="18" />
<text class="smaller-label intrinsic-color" x="3954" y="31">base[15]</text>
<rect fill="#DEE6F1" height="24" width="48" x="3882" y="18" />
<rect fill="none" height="24" stroke="#405C86" stroke-width="2" width="48" x="3882" y="18" />
<text class="smaller-label intrinsic-color" x="3906" y="31">base[16]</text>
<rect fill="#DEE6F1" height="24" width="48" x="3834" y="18" />
<rect fill="none" height="24" stroke="#405C86" stroke-width="2" width="48" x="3834" y="18" />
<text class="smaller-label intrinsic-color" x="3858" y="31">base[17]</text>
<rect fill="#DEE6F1" height="24" width="48" x="3786" y="18" />
<rect fill="none" height="24" stroke="#405C86" stroke-width="2" width="48" x="3786" y="18" />
<text class="smaller-label intrinsic-color" x="3810" y="31">base[18]</text>
<rect fill="#DEE6F1" height="24" width="48" x="3738" y="18" />
<rect fill="none" height="24" stroke="#405C86" stroke-width="2" width="48" x="3738" y="18" />
<text class="smaller-label intrinsic-color" x="3762" y="31">base[19]</text>
<rect fill="#DEE6F1" height="24" width="48" x="3690" y="18" />
<rect fill="none" height="24" stroke="#405C86" stroke-width="2" width="48" x="3690" y="18" />
<text class="smaller-label intrinsic-color" x="3714" y="31">base[20]</text>
<rect fill="#DEE6F1" height="24" width="48" x="3642" y="18" />
<rect fill="none" height="24" stroke="#405C86" stroke-width="2" width="48" x="3642" y="18" />
<text class="smaller-label intrinsic-color" x="3666" y="31">base[21]</text>
<rect fill="#DEE6F1" height="24" width="48" x="3594" y="18" />
<rect fill="none" height="24" stroke="#405C86" stroke-width="2" width="48" x="3594" y="18" />
<text class="smaller-label intrinsic-color" x="3618" y="31">base[22]</text>
<rect fill="#DEE6F1" height="24" width="48" x="3546" y="18" />
<rect fill="none" height="24" stroke="#405C86" stroke-width="2" width="48" x="3546" y="18" />
<text class="smaller-label intrinsic-color" x="3570" y="31">base[23]</text>
<rect fill="#DEE6F1" height="24" width="48" x="3498" y="18" />
<rect fill="none" height="24" stroke="#405C86" stroke-width="2" width="48" x="3498" y="18" />
<text class="smaller-label intrinsic-color" x="3522" y="31">base[24]</text>
<rect fill="#DEE6F1" height="24" width="48" x="3450" y="18" />
<rect fill="none" height="24" stroke="#405C86" stroke-width="2" width="48" x="3450" y="18" />
<text class="smaller-label intrinsic-color" x="3474" y="31">base[25]</text>
<rect fill="#DEE6F1" height="24" width="48" x="3402" y="18" />
<rect fill="none" height="24" stroke="#405C86" stroke-width="2" width="48" x="3402" y="18" />
<text class="smaller-label intrinsic-color" x="3426" y="31">base[26]</text>
<rect fill="#DEE6F1" height="24" width="48" x="3354" y="18" />
<rect fill="none" height="24" stroke="#405C86" stroke-width="2" width="48" x="3354" y="18" />
<text class="smaller-label intrinsic-color" x="3378" y="31">base[27]</text>
<rect fill="#DEE6F1" height="24" width="48" x="3306" y="18" />
<rect fill="none" height="24" stroke="#405C86" stroke-width="2" width="48" x="3306" y="18" />
<text class="smaller-label intrinsic-color" x="3330" y="31">base[28]</text>
<rect fill="#DEE6F1" height="24" width="48" x="3258" y="18" />
<rect fill="none" height="24" stroke="#405C86" stroke-width="2" width="48" x="3258" y="18" />
<text class="smaller-label intrinsic-color" x="3282" y="31">base[29]</text>
<rect fill="#DEE6F1" height="24" width="48" x="3210" y="18" />
<rect fill="none" height="24" stroke="#405C86" stroke-width="2" width="48" x="3210" y="18" />
<text class="smaller-label intrinsic-color" x="3234" y="31">base[30]</text>
<rect fill="#DEE6F1" height="24" width="48" x="3162" y="18" />
<rect fill="none" height="24" stroke="#405C86" stroke-width="2" width="48" x="3162" y="18" />
<text class="smaller-label intrinsic-color" x="3186" y="31">base[31]</text>
<rect fill="#DEE6F1" height="24" width="48" x="3114" y="18" />
<rect fill="none" height="24" stroke="#405C86" stroke-width="2" width="48" x="3114" y="18" />
<text class="smaller-label intrinsic-color" x="3138" y="31">base[32]</text>
<rect fill="#DEE6F1" height="24" width="48" x="3066" y="18" />
<rect fill="none" height="24" stroke="#405C86" stroke-width="2" width="48" x="3066" y="18" />
<text class="smaller-label intrinsic-color" x="3090" y="31">base[33]</text>
<rect fill="#DEE6F1" height="24" width="48" x="3018" y="18" />
<rect fill="none" height="24" stroke="#405C86" stroke-width="2" width="48" x="3018" y="18" />
<text class="smaller-label intrinsic-color" x="3042" y="31">base[34]</text>
<rect fill="#DEE6F1" height="24" width="48" x="2970" y="18" />
<rect fill="none" height="24" stroke="#405C86" stroke-width="2" width="48" x="2970" y="18" />
<text class="smaller-label intrinsic-color" x="2994" y="31">base[35]</text>
<rect fill="#DEE6F1" height="24" width="48" x="2922" y="18" />
<rect fill="none" height="24" stroke="#405C86" stroke-width="2" width="48" x="2922" y="18" />
<text class="smaller-label intrinsic-color" x="2946" y="31">base[36]</text>
<rect fill="#DEE6F1" height="24" width="48" x="2874" y="18" />
<rect fill="none" height="24" stroke="#405C86" stroke-width="2" width="48" x="2874" y="18" />
<text class="smaller-label intrinsic-color" x="2898" y="31">base[37]</text>
<rect fill="#DEE6F1" height="24" width="48" x="2826" y="18" />
<rect fill="none" height="24" stroke="#405C86" stroke-width="2" width="48" x="2826" y="18" />
<text class="smaller-label intrinsic-color" x="2850" y="31">base[38]</text>
<rect fill="#DEE6F1" height="24" width="48" x="2778" y="18" />
<rect fill="none" height="24" stroke="#405C86" stroke-width="2" width="48" x="2778" y="18" />
<text class="smaller-label intrinsic-color" x="2802" y="31">base[39]</text>
<rect fill="#DEE6F1" height="24" width="48" x="2730" y="18" />
<rect fill="none" height="24" stroke="#405C86" stroke-width="2" width="48" x="2730" y="18" />
<text class="smaller-label intrinsic-color" x="2754" y="31">base[40]</text>
<rect fill="#DEE6F1" height="24" width="48" x="2682" y="18" />
<rect fill="none" height="24" stroke="#405C86" stroke-width="2" width="48" x="2682" y="18" />
<text class="smaller-label intrinsic-color" x="2706" y="31">base[41]</text>
<rect fill="#DEE6F1" height="24" width="48" x="2634" y="18" />
<rect fill="none" height="24" stroke="#405C86" stroke-width="2" width="48" x="2634" y="18" />
<text class="smaller-label intrinsic-color" x="2658" y="31">base[42]</text>
<rect fill="#DEE6F1" height="24" width="48" x="2586" y="18" />
<rect fill="none" height="24" stroke="#405C86" stroke-width="2" width="48" x="2586" y="18" />
<text class="smaller-label intrinsic-color" x="2610" y="31">base[43]</text>
<rect fill="#DEE6F1" height="24" width="48" x="2538" y="18" />
<rect fill="none" height="24" stroke="#405C86" stroke-width="2" width="48" x="2538" y="18" />
<text class="smaller-label intrinsic-color" x="2562" y="31">base[44]</text>
<rect fill="#DEE6F1" height="24" width="48" x="2490" y="18" />
<rect fill="none" height="24" stroke="#405C86" stroke-width="2" width="48" x="2490" y="18" />
<text class="smaller-label intrinsic-color" x="2514" y="31">base[45]</text>
<rect fill="#DEE6F1" height="24" width="48" x="2442" y="18" />
<rect fill="none" height="24" stroke="#405C86" stroke-width="2" width="48" x="2442" y="18" />
<text class="smaller-label intrinsic-color" x="2466" y="31">base[46]</text>
<rect fill="#DEE6F1" height="24" width="48" x="2394" y="18" />
<rect fill="none" height="24" stroke="#405C86" stroke-width="2" width="48" x="2394" y="18" />
<text class="smaller-label intrinsic-color" x="2418" y="31">base[47]</text>
<rect fill="#DEE6F1" height="24" width="48" x="2346" y="18" />
<rect fill="none" height="24" stroke="#405C86" stroke-width="2" width="48" x="2346" y="18" />
<text class="smaller-label intrinsic-color" x="2370" y="31">base[48]</text>
<rect fill="#DEE6F1" height="24" width="48" x="2298" y="18" />
<rect fill="none" height="24" stroke="#405C86" stroke-width="2" width="48" x="2298" y="18" />
<text class="smaller-label intrinsic-color" x="2322" y="31">base[49]</text>
<rect fill="#DEE6F1" height="24" width="48" x="2250" y="18" />
<rect fill="none" height="24" stroke="#405C86" stroke-width="2" width="48" x="2250" y="18" />
<text class="smaller-label intrinsic-color" x="2274" y="31">base[50]</text>
<rect fill="#DEE6F1" height="24" width="48" x="2202" y="18" />
<rect fill="none" height="24" stroke="#405C86" stroke-width="2" width="48" x="2202" y="18" />
<text class="smaller-label intrinsic-color" x="2226" y="31">base[51]</text>
<rect fill="#DEE6F1" height="24" width="48" x="2154" y="18" />
<rect fill="none" height="24" stroke="#405C86" stroke-width="2" width="48" x="2154" y="18" />
<text class="smaller-label intrinsic-color" x="2178" y="31">base[52]</text>
<rect fill="#DEE6F1" height="24" width="48" x="2106" y="18" />
<rect fill="none" height="24" stroke="#405C86" stroke-width="2" width="48" x="2106" y="18" />
<text class="smaller-label intrinsic-color" x="2130" y="31">base[53]</text>
<rect fill="#DEE6F1" height="24" width="48" x="2058" y="18" />
<rect fill="none" height="24" stroke="#405C86" stroke-width="2" width="48" x="2058" y="18" />
<text class="smaller-label intrinsic-color" x="2082" y="31">base[54]</text>
<rect fill="#DEE6F1" height="24" width="48" x="2010" y="18" />
<rect fill="none" height="24" stroke="#405C86" stroke-width="2" width="48" x="2010" y="18" />
<text class="smaller-label intrinsic-color" x="2034" y="31">base[55]</text>
<rect fill="#DEE6F1" height="24" width="48" x="1962" y="18" />
<rect fill="none" height="24" stroke="#405C86" stroke-width="2" width="48" x="1962" y="18" />
<text class="smaller-label intrinsic-color" x="1986" y="31">base[56]</text>
<rect fill="#DEE6F1" height="24" width="48" x="1914" y="18" />
<rect fill="none" height="24" stroke="#405C86" stroke-width="2" width="48" x="1914" y="18" />
<text class="smaller-label intrinsic-color" x="1938" y="31">base[57]</text>
<rect fill="#DEE6F1" height="24" width="48" x="1866" y="18" />
<rect fill="none" height="24" stroke="#405C86" stroke-width="2" width="48" x="1866" y="18" />
<text class="smaller-label intrinsic-color" x="1890" y="31">base[58]</text>
<rect fill="#DEE6F1" height="24" width="48" x="1818" y="18" />
<rect fill="none" height="24" stroke="#405C86" stroke-width="2" width="48" x="1818" y="18" />
<text class="smaller-label intrinsic-color" x="1842" y="31">base[59]</text>
<rect fill="#DEE6F1" height="24" width="48" x="1770" y="18" />
<rect fill="none" height="24" stroke="#405C86" stroke-width="2" width="48" x="1770" y="18" />
<text class="smaller-label intrinsic-color" x="1794" y="31">base[60]</text>
<rect fill="#DEE6F1" height="24" width="48" x="1722" y="18" />
<rect fill="none" height="24" stroke="#405C86" stroke-width="2" width="48" x="1722" y="18" />
<text class="smaller-label intrinsic-color" x="1746" y="31">base[61]</text>
<rect fill="#DEE6F1" height="24" width="48" x="1674" y="18" />
<rect fill="none" height="24" stroke="#405C86" stroke-width="2" width="48" x="1674" y="18" />
<text class="smaller-label intrinsic-color" x="1698" y="31">base[62]</text>
<rect fill="#DEE6F1" height="24" width="48" x="1626" y="18" />
<rect fill="none" height="24" stroke="#405C86" stroke-width="2" width="48" x="1626" y="18" />
<text class="smaller-label intrinsic-color" x="1650" y="31">base[63]</text>
<text class="register-name" x="80" y="30">[mem]</text>
<text class="intrinsic-name" x="80" y="42">*base</text>
<text class="register-number" x="10" y="30">(1)</text>
<rect fill="#DEE6F1" height="24" width="48" x="6186" y="90" />
<rect fill="none" height="24" stroke="#405C86" stroke-width="2" width="96" x="6138" y="90" />
<rect fill="#DEE6F1" height="24" width="48" x="6090" y="90" />
<rect fill="none" height="24" stroke="#405C86" stroke-width="2" width="96" x="6042" y="90" />
<rect fill="#DEE6F1" height="24" width="48" x="5994" y="90" />
<rect fill="none" height="24" stroke="#405C86" stroke-width="2" width="96" x="5946" y="90" />
<rect fill="#DEE6F1" height="24" width="48" x="5898" y="90" />
<rect fill="none" height="24" stroke="#405C86" stroke-width="2" width="96" x="5850" y="90" />
<rect fill="#DEE6F1" height="24" width="48" x="5802" y="90" />
<rect fill="none" height="24" stroke="#405C86" stroke-width="2" width="96" x="5754" y="90" />
<rect fill="#DEE6F1" height="24" width="48" x="5706" y="90" />
<rect fill="none" height="24" stroke="#405C86" stroke-width="2" width="96" x="5658" y="90" />
<rect fill="#DEE6F1" height="24" width="48" x="5610" y="90" />
<rect fill="none" height="24" stroke="#405C86" stroke-width="2" width="96" x="5562" y="90" />
<rect fill="#DEE6F1" height="24" width="48" x="5514" y="90" />
<rect fill="none" height="24" stroke="#405C86" stroke-width="2" width="96" x="5466" y="90" />
<rect fill="#DEE6F1" height="24" width="48" x="5418" y="90" />
<rect fill="none" height="24" stroke="#405C86" stroke-width="2" width="96" x="5370" y="90" />
<rect fill="#DEE6F1" height="24" width="48" x="5322" y="90" />
<rect fill="none" height="24" stroke="#405C86" stroke-width="2" width="96" x="5274" y="90" />
<rect fill="#DEE6F1" height="24" width="48" x="5226" y="90" />
<rect fill="none" height="24" stroke="#405C86" stroke-width="2" width="96" x="5178" y="90" />
<rect fill="#DEE6F1" height="24" width="48" x="5130" y="90" />
<rect fill="none" height="24" stroke="#405C86" stroke-width="2" width="96" x="5082" y="90" />
<rect fill="#DEE6F1" height="24" width="48" x="5034" y="90" />
<rect fill="none" height="24" stroke="#405C86" stroke-width="2" width="96" x="4986" y="90" />
<rect fill="#DEE6F1" height="24" width="48" x="4938" y="90" />
<rect fill="none" height="24" stroke="#405C86" stroke-width="2" width="96" x="4890" y="90" />
<rect fill="#DEE6F1" height="24" width="48" x="4842" y="90" />
<rect fill="none" height="24" stroke="#405C86" stroke-width="2" width="96" x="4794" y="90" />
<rect fill="#DEE6F1" height="24" width="48" x="4746" y="90" />
<rect fill="none" height="24" stroke="#405C86" stroke-width="2" width="96" x="4698" y="90" />
<rect fill="#DEE6F1" height="24" width="48" x="4650" y="90" />
<rect fill="none" height="24" stroke="#405C86" stroke-width="2" width="96" x="4602" y="90" />
<rect fill="#DEE6F1" height="24" width="48" x="4554" y="90" />
<rect fill="none" height="24" stroke="#405C86" stroke-width="2" width="96" x="4506" y="90" />
<rect fill="#DEE6F1" height="24" width="48" x="4458" y="90" />
<rect fill="none" height="24" stroke="#405C86" stroke-width="2" width="96" x="4410" y="90" />
<rect fill="#DEE6F1" height="24" width="48" x="4362" y="90" />
<rect fill="none" height="24" stroke="#405C86" stroke-width="2" width="96" x="4314" y="90" />
<rect fill="#DEE6F1" height="24" width="48" x="4266" y="90" />
<rect fill="none" height="24" stroke="#405C86" stroke-width="2" width="96" x="4218" y="90" />
<rect fill="#DEE6F1" height="24" width="48" x="4170" y="90" />
<rect fill="none" height="24" stroke="#405C86" stroke-width="2" width="96" x="4122" y="90" />
<rect fill="#DEE6F1" height="24" width="48" x="4074" y="90" />
<rect fill="none" height="24" stroke="#405C86" stroke-width="2" width="96" x="4026" y="90" />
<rect fill="#DEE6F1" height="24" width="48" x="3978" y="90" />
<rect fill="none" height="24" stroke="#405C86" stroke-width="2" width="96" x="3930" y="90" />
<rect fill="#DEE6F1" height="24" width="48" x="3882" y="90" />
<rect fill="none" height="24" stroke="#405C86" stroke-width="2" width="96" x="3834" y="90" />
<rect fill="#DEE6F1" height="24" width="48" x="3786" y="90" />
<rect fill="none" height="24" stroke="#405C86" stroke-width="2" width="96" x="3738" y="90" />
<rect fill="#DEE6F1" height="24" width="48" x="3690" y="90" />
<rect fill="none" height="24" stroke="#405C86" stroke-width="2" width="96" x="3642" y="90" />
<rect fill="#DEE6F1" height="24" width="48" x="3594" y="90" />
<rect fill="none" height="24" stroke="#405C86" stroke-width="2" width="96" x="3546" y="90" />
<rect fill="#DEE6F1" height="24" width="48" x="3498" y="90" />
<rect fill="none" height="24" stroke="#405C86" stroke-width="2" width="96" x="3450" y="90" />
<rect fill="#DEE6F1" height="24" width="48" x="3402" y="90" />
<rect fill="none" height="24" stroke="#405C86" stroke-width="2" width="96" x="3354" y="90" />
<rect fill="#DEE6F1" height="24" width="48" x="3306" y="90" />
<rect fill="none" height="24" stroke="#405C86" stroke-width="2" width="96" x="3258" y="90" />
<rect fill="#DEE6F1" height="24" width="48" x="3210" y="90" />
<rect fill="none" height="24" stroke="#405C86" stroke-width="2" width="96" x="3162" y="90" />
<rect fill="#DEE6F1" height="24" width="48" x="3114" y="90" />
<rect fill="none" height="24" stroke="#405C86" stroke-width="2" width="96" x="3066" y="90" />
<rect fill="#DEE6F1" height="24" width="48" x="3018" y="90" />
<rect fill="none" height="24" stroke="#405C86" stroke-width="2" width="96" x="2970" y="90" />
<rect fill="#DEE6F1" height="24" width="48" x="2922" y="90" />
<rect fill="none" height="24" stroke="#405C86" stroke-width="2" width="96" x="2874" y="90" />
<rect fill="#DEE6F1" height="24" width="48" x="2826" y="90" />
<rect fill="none" height="24" stroke="#405C86" stroke-width="2" width="96" x="2778" y="90" />
<rect fill="#DEE6F1" height="24" width="48" x="2730" y="90" />
<rect fill="none" height="24" stroke="#405C86" stroke-width="2" width="96" x="2682" y="90" />
<rect fill="#DEE6F1" height="24" width="48" x="2634" y="90" />
<rect fill="none" height="24" stroke="#405C86" stroke-width="2" width="96" x="2586" y="90" />
<rect fill="#DEE6F1" height="24" width="48" x="2538" y="90" />
<rect fill="none" height="24" stroke="#405C86" stroke-width="2" width="96" x="2490" y="90" />
<rect fill="#DEE6F1" height="24" width="48" x="2442" y="90" />
<rect fill="none" height="24" stroke="#405C86" stroke-width="2" width="96" x="2394" y="90" />
<rect fill="#DEE6F1" height="24" width="48" x="2346" y="90" />
<rect fill="none" height="24" stroke="#405C86" stroke-width="2" width="96" x="2298" y="90" />
<rect fill="#DEE6F1" height="24" width="48" x="2250" y="90" />
<rect fill="none" height="24" stroke="#405C86" stroke-width="2" width="96" x="2202" y="90" />
<rect fill="#DEE6F1" height="24" width="48" x="2154" y="90" />
<rect fill="none" height="24" stroke="#405C86" stroke-width="2" width="96" x="2106" y="90" />
<rect fill="#DEE6F1" height="24" width="48" x="2058" y="90" />
<rect fill="none" height="24" stroke="#405C86" stroke-width="2" width="96" x="2010" y="90" />
<rect fill="#DEE6F1" height="24" width="48" x="1962" y="90" />
<rect fill="none" height="24" stroke="#405C86" stroke-width="2" width="96" x="1914" y="90" />
<rect fill="#DEE6F1" height="24" width="48" x="1866" y="90" />
<rect fill="none" height="24" stroke="#405C86" stroke-width="2" width="96" x="1818" y="90" />
<rect fill="#DEE6F1" height="24" width="48" x="1770" y="90" />
<rect fill="none" height="24" stroke="#405C86" stroke-width="2" width="96" x="1722" y="90" />
<rect fill="#DEE6F1" height="24" width="48" x="1674" y="90" />
<rect fill="none" height="24" stroke="#405C86" stroke-width="2" width="96" x="1626" y="90" />
<rect fill="#DEE6F1" height="24" width="48" x="1578" y="90" />
<rect fill="none" height="24" stroke="#405C86" stroke-width="2" width="96" x="1530" y="90" />
<rect fill="#DEE6F1" height="24" width="48" x="1482" y="90" />
<rect fill="none" height="24" stroke="#405C86" stroke-width="2" width="96" x="1434" y="90" />
<rect fill="#DEE6F1" height="24" width="48" x="1386" y="90" />
<rect fill="none" height="24" stroke="#405C86" stroke-width="2" width="96" x="1338" y="90" />
<rect fill="#DEE6F1" height="24" width="48" x="1290" y="90" />
<rect fill="none" height="24" stroke="#405C86" stroke-width="2" width="96" x="1242" y="90" />
<rect fill="#DEE6F1" height="24" width="48" x="1194" y="90" />
<rect fill="none" height="24" stroke="#405C86" stroke-width="2" width="96" x="1146" y="90" />
<rect fill="#DEE6F1" height="24" width="48" x="1098" y="90" />
<rect fill="none" height="24" stroke="#405C86" stroke-width="2" width="96" x="1050" y="90" />
<rect fill="#DEE6F1" height="24" width="48" x="1002" y="90" />
<rect fill="none" height="24" stroke="#405C86" stroke-width="2" width="96" x="954" y="90" />
<rect fill="#DEE6F1" height="24" width="48" x="906" y="90" />
<rect fill="none" height="24" stroke="#405C86" stroke-width="2" width="96" x="858" y="90" />
<rect fill="#DEE6F1" height="24" width="48" x="810" y="90" />
<rect fill="none" height="24" stroke="#405C86" stroke-width="2" width="96" x="762" y="90" />
<rect fill="#DEE6F1" height="24" width="48" x="714" y="90" />
<rect fill="none" height="24" stroke="#405C86" stroke-width="2" width="96" x="666" y="90" />
<rect fill="#DEE6F1" height="24" width="48" x="618" y="90" />
<rect fill="none" height="24" stroke="#405C86" stroke-width="2" width="96" x="570" y="90" />
<rect fill="#DEE6F1" height="24" width="48" x="522" y="90" />
<rect fill="none" height="24" stroke="#405C86" stroke-width="2" width="96" x="474" y="90" />
<rect fill="#DEE6F1" height="24" width="48" x="426" y="90" />
<rect fill="none" height="24" stroke="#405C86" stroke-width="2" width="96" x="378" y="90" />
<rect fill="#DEE6F1" height="24" width="48" x="330" y="90" />
<rect fill="none" height="24" stroke="#405C86" stroke-width="2" width="96" x="282" y="90" />
<rect fill="#DEE6F1" height="24" width="48" x="234" y="90" />
<rect fill="none" height="24" stroke="#405C86" stroke-width="2" width="96" x="186" y="90" />
<rect fill="#DEE6F1" height="24" width="48" x="138" y="90" />
<rect fill="none" height="24" stroke="#405C86" stroke-width="2" width="96" x="90" y="90" />
<text class="register-name" x="80" y="102">Zt</text>
<text class="intrinsic-name" x="80" y="114">returns</text>
<text class="register-number" x="10" y="102">(2)</text>
<line marker-end="url(#arrowhead)" stroke="none" x1="4674" x2="6210" y1="42.5" y2="89" />
<line marker-end="url(#arrowhead)" stroke="none" x1="4626" x2="6114" y1="42.5" y2="89" />
<line marker-end="url(#arrowhead)" stroke="none" x1="4578" x2="6018" y1="42.5" y2="89" />
<line marker-end="url(#arrowhead)" stroke="none" x1="4530" x2="5922" y1="42.5" y2="89" />
<line marker-end="url(#arrowhead)" stroke="none" x1="4482" x2="5826" y1="42.5" y2="89" />
<line marker-end="url(#arrowhead)" stroke="none" x1="4434" x2="5730" y1="42.5" y2="89" />
<line marker-end="url(#arrowhead)" stroke="none" x1="4386" x2="5634" y1="42.5" y2="89" />
<line marker-end="url(#arrowhead)" stroke="none" x1="4338" x2="5538" y1="42.5" y2="89" />
<line marker-end="url(#arrowhead)" stroke="none" x1="4290" x2="5442" y1="42.5" y2="89" />
<line marker-end="url(#arrowhead)" stroke="none" x1="4242" x2="5346" y1="42.5" y2="89" />
<line marker-end="url(#arrowhead)" stroke="none" x1="4194" x2="5250" y1="42.5" y2="89" />
<line marker-end="url(#arrowhead)" stroke="none" x1="4146" x2="5154" y1="42.5" y2="89" />
<line marker-end="url(#arrowhead)" stroke="none" x1="4098" x2="5058" y1="42.5" y2="89" />
<line marker-end="url(#arrowhead)" stroke="none" x1="4050" x2="4962" y1="42.5" y2="89" />
<line marker-end="url(#arrowhead)" stroke="none" x1="4002" x2="4866" y1="42.5" y2="89" />
<line marker-end="url(#arrowhead)" stroke="none" x1="3954" x2="4770" y1="42.5" y2="89" />
<line marker-end="url(#arrowhead)" stroke="none" x1="3906" x2="4674" y1="42.5" y2="89" />
<line marker-end="url(#arrowhead)" stroke="none" x1="3858" x2="4578" y1="42.5" y2="89" />
<line marker-end="url(#arrowhead)" stroke="none" x1="3810" x2="4482" y1="42.5" y2="89" />
<line marker-end="url(#arrowhead)" stroke="none" x1="3762" x2="4386" y1="42.5" y2="89" />
<line marker-end="url(#arrowhead)" stroke="none" x1="3714" x2="4290" y1="42.5" y2="89" />
<line marker-end="url(#arrowhead)" stroke="none" x1="3666" x2="4194" y1="42.5" y2="89" />
<line marker-end="url(#arrowhead)" stroke="none" x1="3618" x2="4098" y1="42.5" y2="89" />
<line marker-end="url(#arrowhead)" stroke="none" x1="3570" x2="4002" y1="42.5" y2="89" />
<line marker-end="url(#arrowhead)" stroke="none" x1="3522" x2="3906" y1="42.5" y2="89" />
<line marker-end="url(#arrowhead)" stroke="none" x1="3474" x2="3810" y1="42.5" y2="89" />
<line marker-end="url(#arrowhead)" stroke="none" x1="3426" x2="3714" y1="42.5" y2="89" />
<line marker-end="url(#arrowhead)" stroke="none" x1="3378" x2="3618" y1="42.5" y2="89" />
<line marker-end="url(#arrowhead)" stroke="none" x1="3330" x2="3522" y1="42.5" y2="89" />
<line marker-end="url(#arrowhead)" stroke="none" x1="3282" x2="3426" y1="42.5" y2="89" />
<line marker-end="url(#arrowhead)" stroke="none" x1="3234" x2="3330" y1="42.5" y2="89" />
<line marker-end="url(#arrowhead)" stroke="none" x1="3186" x2="3234" y1="42.5" y2="89" />
<line marker-end="url(#arrowhead)" stroke="none" x1="3138" x2="3138" y1="42.5" y2="89" />
<line marker-end="url(#arrowhead)" stroke="none" x1="3090" x2="3042" y1="42.5" y2="89" />
<line marker-end="url(#arrowhead)" stroke="none" x1="3042" x2="2946" y1="42.5" y2="89" />
<line marker-end="url(#arrowhead)" stroke="none" x1="2994" x2="2850" y1="42.5" y2="89" />
<line marker-end="url(#arrowhead)" stroke="none" x1="2946" x2="2754" y1="42.5" y2="89" />
<line marker-end="url(#arrowhead)" stroke="none" x1="2898" x2="2658" y1="42.5" y2="89" />
<line marker-end="url(#arrowhead)" stroke="none" x1="2850" x2="2562" y1="42.5" y2="89" />
<line marker-end="url(#arrowhead)" stroke="none" x1="2802" x2="2466" y1="42.5" y2="89" />
<line marker-end="url(#arrowhead)" stroke="none" x1="2754" x2="2370" y1="42.5" y2="89" />
<line marker-end="url(#arrowhead)" stroke="none" x1="2706" x2="2274" y1="42.5" y2="89" />
<line marker-end="url(#arrowhead)" stroke="none" x1="2658" x2="2178" y1="42.5" y2="89" />
<line marker-end="url(#arrowhead)" stroke="none" x1="2610" x2="2082" y1="42.5" y2="89" />
<line marker-end="url(#arrowhead)" stroke="none" x1="2562" x2="1986" y1="42.5" y2="89" />
<line marker-end="url(#arrowhead)" stroke="none" x1="2514" x2="1890" y1="42.5" y2="89" />
<line marker-end="url(#arrowhead)" stroke="none" x1="2466" x2="1794" y1="42.5" y2="89" />
<line marker-end="url(#arrowhead)" stroke="none" x1="2418" x2="1698" y1="42.5" y2="89" />
<line marker-end="url(#arrowhead)" stroke="none" x1="2370" x2="1602" y1="42.5" y2="89" />
<line marker-end="url(#arrowhead)" stroke="none" x1="2322" x2="1506" y1="42.5" y2="89" />
<line marker-end="url(#arrowhead)" stroke="none" x1="2274" x2="1410" y1="42.5" y2="89" />
<line marker-end="url(#arrowhead)" stroke="none" x1="2226" x2="1314" y1="42.5" y2="89" />
<line marker-end="url(#arrowhead)" stroke="none" x1="2178" x2="1218" y1="42.5" y2="89" />
<line marker-end="url(#arrowhead)" stroke="none" x1="2130" x2="1122" y1="42.5" y2="89" />
<line marker-end="url(#arrowhead)" stroke="none" x1="2082" x2="1026" y1="42.5" y2="89" />
<line marker-end="url(#arrowhead)" stroke="none" x1="2034" x2="930" y1="42.5" y2="89" />
<line marker-end="url(#arrowhead)" stroke="none" x1="1986" x2="834" y1="42.5" y2="89" />
<line marker-end="url(#arrowhead)" stroke="none" x1="1938" x2="738" y1="42.5" y2="89" />
<line marker-end="url(#arrowhead)" stroke="none" x1="1890" x2="642" y1="42.5" y2="89" />
<line marker-end="url(#arrowhead)" stroke="none" x1="1842" x2="546" y1="42.5" y2="89" />
<line marker-end="url(#arrowhead)" stroke="none" x1="1794" x2="450" y1="42.5" y2="89" />
<line marker-end="url(#arrowhead)" stroke="none" x1="1746" x2="354" y1="42.5" y2="89" />
<line marker-end="url(#arrowhead)" stroke="none" x1="1698" x2="258" y1="42.5" y2="89" />
<line marker-end="url(#arrowhead)" stroke="none" x1="1650" x2="162" y1="42.5" y2="89" />
</svg>