<svg xmlns="http://www.w3.org/2000/svg" viewBox="0 0 3174 123">
<style>
.label { font: 14px Helvetica; dominant-baseline: middle; text-anchor: middle; }
.title-left { font: 12px Helvetica; dominant-baseline: middle; }
.title-right { font: 12px Helvetica; dominant-baseline: middle; text-anchor: end; }
.title-intrinsic { font: 12px Helvetica; dominant-baseline: middle; text-anchor: middle; fill: #6778ED; }
.title { font: 12px Helvetica; dominant-baseline: middle; text-anchor: middle; }
.title-unused { font: 12px Helvetica; dominant-baseline: middle; text-anchor: middle; fill: #AAA; }
.register-name { font: 14px Helvetica; dominant-baseline: middle; text-anchor: end; font-style: italic; }
.memory-name { font: 14px Helvetica; dominant-baseline: middle; text-anchor: end; }
.register-number { font: 14px Helvetica; dominant-baseline: middle; text-anchor: start; }
.intrinsic-name { font: 14px Helvetica; dominant-baseline: middle; text-anchor: end; fill: #6778ED; }
.intrinsic-color { fill: #6778ED; }
.small-label { font: 12px Helvetica; dominant-baseline: middle; text-anchor: middle; }
.label-10px { font: 10px Helvetica; dominant-baseline: middle; text-anchor: middle; }
.smaller-label { font: 9px Helvetica; dominant-baseline: middle; text-anchor: middle; }
.label-6px { font: 6px Helvetica; dominant-baseline: middle; text-anchor: middle; }
.label-7px { font: 7px Helvetica; dominant-baseline: middle; text-anchor: middle; }
.unused { fill: #AAA; }
.dim { fill: #888; }
</style>
<defs>
<marker id="arrowhead" markerWidth="10.75" markerHeight="24.5" refX="9.0" refY="6.125" orient="auto">
<polyline points="0.5 0.5, 8.75 6.125, 0.5 11.75" stroke="#567DB6" stroke-width="1" fill="none"/>
</marker>
</defs>
<line stroke="#567DB6" stroke-width="1" x1="1626" x2="3151.21875" y1="42.5" y2="89" />
<line stroke="#567DB6" stroke-width="1" x1="1626" x2="3055.21875" y1="42.5" y2="89" />
<line stroke="#567DB6" stroke-width="1" x1="1626" x2="2959.21875" y1="42.5" y2="89" />
<line stroke="#567DB6" stroke-width="1" x1="1626" x2="2863.21875" y1="42.5" y2="89" />
<line stroke="#567DB6" stroke-width="1" x1="1626" x2="2767.21875" y1="42.5" y2="89" />
<line stroke="#567DB6" stroke-width="1" x1="1626" x2="2671.21875" y1="42.5" y2="89" />
<line stroke="#567DB6" stroke-width="1" x1="1626" x2="2575.21875" y1="42.5" y2="89" />
<line stroke="#567DB6" stroke-width="1" x1="1626" x2="2479.21875" y1="42.5" y2="89" />
<line stroke="#567DB6" stroke-width="1" x1="1626" x2="2383.21875" y1="42.5" y2="89" />
<line stroke="#567DB6" stroke-width="1" x1="1626" x2="2287.21875" y1="42.5" y2="89" />
<line stroke="#567DB6" stroke-width="1" x1="1626" x2="2191.21875" y1="42.5" y2="89" />
<line stroke="#567DB6" stroke-width="1" x1="1626" x2="2095.21875" y1="42.5" y2="89" />
<line stroke="#567DB6" stroke-width="1" x1="1626" x2="1999.21875" y1="42.5" y2="89" />
<line stroke="#567DB6" stroke-width="1" x1="1626" x2="1903.21875" y1="42.5" y2="89" />
<line stroke="#567DB6" stroke-width="1" x1="1626" x2="1807.21875" y1="42.5" y2="89" />
<line stroke="#567DB6" stroke-width="1" x1="1626" x2="1711.21875" y1="42.5" y2="89" />
<line stroke="#567DB6" stroke-width="1" x1="1626" x2="1615.21875" y1="42.5" y2="89" />
<line stroke="#567DB6" stroke-width="1" x1="1626" x2="1519.21875" y1="42.5" y2="89" />
<line stroke="#567DB6" stroke-width="1" x1="1626" x2="1423.21875" y1="42.5" y2="89" />
<line stroke="#567DB6" stroke-width="1" x1="1626" x2="1327.21875" y1="42.5" y2="89" />
<line stroke="#567DB6" stroke-width="1" x1="1626" x2="1231.21875" y1="42.5" y2="89" />
<line stroke="#567DB6" stroke-width="1" x1="1626" x2="1135.21875" y1="42.5" y2="89" />
<line stroke="#567DB6" stroke-width="1" x1="1626" x2="1039.21875" y1="42.5" y2="89" />
<line stroke="#567DB6" stroke-width="1" x1="1626" x2="943.21875" y1="42.5" y2="89" />
<line stroke="#567DB6" stroke-width="1" x1="1626" x2="847.21875" y1="42.5" y2="89" />
<line stroke="#567DB6" stroke-width="1" x1="1626" x2="751.21875" y1="42.5" y2="89" />
<line stroke="#567DB6" stroke-width="1" x1="1626" x2="655.21875" y1="42.5" y2="89" />
<line stroke="#567DB6" stroke-width="1" x1="1626" x2="559.21875" y1="42.5" y2="89" />
<line stroke="#567DB6" stroke-width="1" x1="1626" x2="463.21875" y1="42.5" y2="89" />
<line stroke="#567DB6" stroke-width="1" x1="1626" x2="367.21875" y1="42.5" y2="89" />
<line stroke="#567DB6" stroke-width="1" x1="1626" x2="271.21875" y1="42.5" y2="89" />
<line stroke="#567DB6" stroke-width="1" x1="1626" x2="175.21875" y1="42.5" y2="89" />
<text class="title-left" x="90" y="9">upper</text>
<text class="title-right" x="3162" y="9">lower</text>
<rect fill="#DEE6F1" height="24" width="20.25" x="1617.75" y="18" />
<rect fill="#EEDDDB" height="24" width="3.75" x="1614" y="18" />
<rect fill="none" height="24" stroke="#405C86" stroke-width="2" width="24" x="1614" y="18" />
<text class="register-name" x="80" y="30">[mem]</text>
<text class="intrinsic-name" x="80" y="42">*base</text>
<text class="register-number" x="10" y="30">(1)</text>
<rect fill="#DEE6F1" height="24" width="21.5625" x="3140.4375" y="90" />
<rect fill="#EEDDDB" height="24" width="74.4375" x="3066" y="90" />
<rect fill="none" height="24" stroke="#405C86" stroke-width="2" width="96" x="3066" y="90" />
<rect fill="#DEE6F1" height="24" width="21.5625" x="3044.4375" y="90" />
<rect fill="#EEDDDB" height="24" width="74.4375" x="2970" y="90" />
<rect fill="none" height="24" stroke="#405C86" stroke-width="2" width="96" x="2970" y="90" />
<rect fill="#DEE6F1" height="24" width="21.5625" x="2948.4375" y="90" />
<rect fill="#EEDDDB" height="24" width="74.4375" x="2874" y="90" />
<rect fill="none" height="24" stroke="#405C86" stroke-width="2" width="96" x="2874" y="90" />
<rect fill="#DEE6F1" height="24" width="21.5625" x="2852.4375" y="90" />
<rect fill="#EEDDDB" height="24" width="74.4375" x="2778" y="90" />
<rect fill="none" height="24" stroke="#405C86" stroke-width="2" width="96" x="2778" y="90" />
<rect fill="#DEE6F1" height="24" width="21.5625" x="2756.4375" y="90" />
<rect fill="#EEDDDB" height="24" width="74.4375" x="2682" y="90" />
<rect fill="none" height="24" stroke="#405C86" stroke-width="2" width="96" x="2682" y="90" />
<rect fill="#DEE6F1" height="24" width="21.5625" x="2660.4375" y="90" />
<rect fill="#EEDDDB" height="24" width="74.4375" x="2586" y="90" />
<rect fill="none" height="24" stroke="#405C86" stroke-width="2" width="96" x="2586" y="90" />
<rect fill="#DEE6F1" height="24" width="21.5625" x="2564.4375" y="90" />
<rect fill="#EEDDDB" height="24" width="74.4375" x="2490" y="90" />
<rect fill="none" height="24" stroke="#405C86" stroke-width="2" width="96" x="2490" y="90" />
<rect fill="#DEE6F1" height="24" width="21.5625" x="2468.4375" y="90" />
<rect fill="#EEDDDB" height="24" width="74.4375" x="2394" y="90" />
<rect fill="none" height="24" stroke="#405C86" stroke-width="2" width="96" x="2394" y="90" />
<rect fill="#DEE6F1" height="24" width="21.5625" x="2372.4375" y="90" />
<rect fill="#EEDDDB" height="24" width="74.4375" x="2298" y="90" />
<rect fill="none" height="24" stroke="#405C86" stroke-width="2" width="96" x="2298" y="90" />
<rect fill="#DEE6F1" height="24" width="21.5625" x="2276.4375" y="90" />
<rect fill="#EEDDDB" height="24" width="74.4375" x="2202" y="90" />
<rect fill="none" height="24" stroke="#405C86" stroke-width="2" width="96" x="2202" y="90" />
<rect fill="#DEE6F1" height="24" width="21.5625" x="2180.4375" y="90" />
<rect fill="#EEDDDB" height="24" width="74.4375" x="2106" y="90" />
<rect fill="none" height="24" stroke="#405C86" stroke-width="2" width="96" x="2106" y="90" />
<rect fill="#DEE6F1" height="24" width="21.5625" x="2084.4375" y="90" />
<rect fill="#EEDDDB" height="24" width="74.4375" x="2010" y="90" />
<rect fill="none" height="24" stroke="#405C86" stroke-width="2" width="96" x="2010" y="90" />
<rect fill="#DEE6F1" height="24" width="21.5625" x="1988.4375" y="90" />
<rect fill="#EEDDDB" height="24" width="74.4375" x="1914" y="90" />
<rect fill="none" height="24" stroke="#405C86" stroke-width="2" width="96" x="1914" y="90" />
<rect fill="#DEE6F1" height="24" width="21.5625" x="1892.4375" y="90" />
<rect fill="#EEDDDB" height="24" width="74.4375" x="1818" y="90" />
<rect fill="none" height="24" stroke="#405C86" stroke-width="2" width="96" x="1818" y="90" />
<rect fill="#DEE6F1" height="24" width="21.5625" x="1796.4375" y="90" />
<rect fill="#EEDDDB" height="24" width="74.4375" x="1722" y="90" />
<rect fill="none" height="24" stroke="#405C86" stroke-width="2" width="96" x="1722" y="90" />
<rect fill="#DEE6F1" height="24" width="21.5625" x="1700.4375" y="90" />
<rect fill="#EEDDDB" height="24" width="74.4375" x="1626" y="90" />
<rect fill="none" height="24" stroke="#405C86" stroke-width="2" width="96" x="1626" y="90" />
<rect fill="#DEE6F1" height="24" width="21.5625" x="1604.4375" y="90" />
<rect fill="#EEDDDB" height="24" width="74.4375" x="1530" y="90" />
<rect fill="none" height="24" stroke="#405C86" stroke-width="2" width="96" x="1530" y="90" />
<rect fill="#DEE6F1" height="24" width="21.5625" x="1508.4375" y="90" />
<rect fill="#EEDDDB" height="24" width="74.4375" x="1434" y="90" />
<rect fill="none" height="24" stroke="#405C86" stroke-width="2" width="96" x="1434" y="90" />
<rect fill="#DEE6F1" height="24" width="21.5625" x="1412.4375" y="90" />
<rect fill="#EEDDDB" height="24" width="74.4375" x="1338" y="90" />
<rect fill="none" height="24" stroke="#405C86" stroke-width="2" width="96" x="1338" y="90" />
<rect fill="#DEE6F1" height="24" width="21.5625" x="1316.4375" y="90" />
<rect fill="#EEDDDB" height="24" width="74.4375" x="1242" y="90" />
<rect fill="none" height="24" stroke="#405C86" stroke-width="2" width="96" x="1242" y="90" />
<rect fill="#DEE6F1" height="24" width="21.5625" x="1220.4375" y="90" />
<rect fill="#EEDDDB" height="24" width="74.4375" x="1146" y="90" />
<rect fill="none" height="24" stroke="#405C86" stroke-width="2" width="96" x="1146" y="90" />
<rect fill="#DEE6F1" height="24" width="21.5625" x="1124.4375" y="90" />
<rect fill="#EEDDDB" height="24" width="74.4375" x="1050" y="90" />
<rect fill="none" height="24" stroke="#405C86" stroke-width="2" width="96" x="1050" y="90" />
<rect fill="#DEE6F1" height="24" width="21.5625" x="1028.4375" y="90" />
<rect fill="#EEDDDB" height="24" width="74.4375" x="954" y="90" />
<rect fill="none" height="24" stroke="#405C86" stroke-width="2" width="96" x="954" y="90" />
<rect fill="#DEE6F1" height="24" width="21.5625" x="932.4375" y="90" />
<rect fill="#EEDDDB" height="24" width="74.4375" x="858" y="90" />
<rect fill="none" height="24" stroke="#405C86" stroke-width="2" width="96" x="858" y="90" />
<rect fill="#DEE6F1" height="24" width="21.5625" x="836.4375" y="90" />
<rect fill="#EEDDDB" height="24" width="74.4375" x="762" y="90" />
<rect fill="none" height="24" stroke="#405C86" stroke-width="2" width="96" x="762" y="90" />
<rect fill="#DEE6F1" height="24" width="21.5625" x="740.4375" y="90" />
<rect fill="#EEDDDB" height="24" width="74.4375" x="666" y="90" />
<rect fill="none" height="24" stroke="#405C86" stroke-width="2" width="96" x="666" y="90" />
<rect fill="#DEE6F1" height="24" width="21.5625" x="644.4375" y="90" />
<rect fill="#EEDDDB" height="24" width="74.4375" x="570" y="90" />
<rect fill="none" height="24" stroke="#405C86" stroke-width="2" width="96" x="570" y="90" />
<rect fill="#DEE6F1" height="24" width="21.5625" x="548.4375" y="90" />
<rect fill="#EEDDDB" height="24" width="74.4375" x="474" y="90" />
<rect fill="none" height="24" stroke="#405C86" stroke-width="2" width="96" x="474" y="90" />
<rect fill="#DEE6F1" height="24" width="21.5625" x="452.4375" y="90" />
<rect fill="#EEDDDB" height="24" width="74.4375" x="378" y="90" />
<rect fill="none" height="24" stroke="#405C86" stroke-width="2" width="96" x="378" y="90" />
<rect fill="#DEE6F1" height="24" width="21.5625" x="356.4375" y="90" />
<rect fill="#EEDDDB" height="24" width="74.4375" x="282" y="90" />
<rect fill="none" height="24" stroke="#405C86" stroke-width="2" width="96" x="282" y="90" />
<rect fill="#DEE6F1" height="24" width="21.5625" x="260.4375" y="90" />
<rect fill="#EEDDDB" height="24" width="74.4375" x="186" y="90" />
<rect fill="none" height="24" stroke="#405C86" stroke-width="2" width="96" x="186" y="90" />
<rect fill="#DEE6F1" height="24" width="21.5625" x="164.4375" y="90" />
<rect fill="#EEDDDB" height="24" width="74.4375" x="90" y="90" />
<rect fill="none" height="24" stroke="#405C86" stroke-width="2" width="96" x="90" y="90" />
<text class="register-name" x="80" y="102">Zt</text>
<text class="intrinsic-name" x="80" y="114">returns</text>
<text class="register-number" x="10" y="102">(2)</text>
<line marker-end="url(#arrowhead)" stroke="none" x1="1626" x2="3151.21875" y1="42.5" y2="89" />
<line marker-end="url(#arrowhead)" stroke="none" x1="1626" x2="3055.21875" y1="42.5" y2="89" />
<line marker-end="url(#arrowhead)" stroke="none" x1="1626" x2="2959.21875" y1="42.5" y2="89" />
<line marker-end="url(#arrowhead)" stroke="none" x1="1626" x2="2863.21875" y1="42.5" y2="89" />
<line marker-end="url(#arrowhead)" stroke="none" x1="1626" x2="2767.21875" y1="42.5" y2="89" />
<line marker-end="url(#arrowhead)" stroke="none" x1="1626" x2="2671.21875" y1="42.5" y2="89" />
<line marker-end="url(#arrowhead)" stroke="none" x1="1626" x2="2575.21875" y1="42.5" y2="89" />
<line marker-end="url(#arrowhead)" stroke="none" x1="1626" x2="2479.21875" y1="42.5" y2="89" />
<line marker-end="url(#arrowhead)" stroke="none" x1="1626" x2="2383.21875" y1="42.5" y2="89" />
<line marker-end="url(#arrowhead)" stroke="none" x1="1626" x2="2287.21875" y1="42.5" y2="89" />
<line marker-end="url(#arrowhead)" stroke="none" x1="1626" x2="2191.21875" y1="42.5" y2="89" />
<line marker-end="url(#arrowhead)" stroke="none" x1="1626" x2="2095.21875" y1="42.5" y2="89" />
<line marker-end="url(#arrowhead)" stroke="none" x1="1626" x2="1999.21875" y1="42.5" y2="89" />
<line marker-end="url(#arrowhead)" stroke="none" x1="1626" x2="1903.21875" y1="42.5" y2="89" />
<line marker-end="url(#arrowhead)" stroke="none" x1="1626" x2="1807.21875" y1="42.5" y2="89" />
<line marker-end="url(#arrowhead)" stroke="none" x1="1626" x2="1711.21875" y1="42.5" y2="89" />
<line marker-end="url(#arrowhead)" stroke="none" x1="1626" x2="1615.21875" y1="42.5" y2="89" />
<line marker-end="url(#arrowhead)" stroke="none" x1="1626" x2="1519.21875" y1="42.5" y2="89" />
<line marker-end="url(#arrowhead)" stroke="none" x1="1626" x2="1423.21875" y1="42.5" y2="89" />
<line marker-end="url(#arrowhead)" stroke="none" x1="1626" x2="1327.21875" y1="42.5" y2="89" />
<line marker-end="url(#arrowhead)" stroke="none" x1="1626" x2="1231.21875" y1="42.5" y2="89" />
<line marker-end="url(#arrowhead)" stroke="none" x1="1626" x2="1135.21875" y1="42.5" y2="89" />
<line marker-end="url(#arrowhead)" stroke="none" x1="1626" x2="1039.21875" y1="42.5" y2="89" />
<line marker-end="url(#arrowhead)" stroke="none" x1="1626" x2="943.21875" y1="42.5" y2="89" />
<line marker-end="url(#arrowhead)" stroke="none" x1="1626" x2="847.21875" y1="42.5" y2="89" />
<line marker-end="url(#arrowhead)" stroke="none" x1="1626" x2="751.21875" y1="42.5" y2="89" />
<line marker-end="url(#arrowhead)" stroke="none" x1="1626" x2="655.21875" y1="42.5" y2="89" />
<line marker-end="url(#arrowhead)" stroke="none" x1="1626" x2="559.21875" y1="42.5" y2="89" />
<line marker-end="url(#arrowhead)" stroke="none" x1="1626" x2="463.21875" y1="42.5" y2="89" />
<line marker-end="url(#arrowhead)" stroke="none" x1="1626" x2="367.21875" y1="42.5" y2="89" />
<line marker-end="url(#arrowhead)" stroke="none" x1="1626" x2="271.21875" y1="42.5" y2="89" />
<line marker-end="url(#arrowhead)" stroke="none" x1="1626" x2="175.21875" y1="42.5" y2="89" />
</svg>