<svg xmlns="http://www.w3.org/2000/svg" viewBox="0 0 1638 219">
<style>
.label { font: 14px Helvetica; dominant-baseline: middle; text-anchor: middle; }
.title-left { font: 12px Helvetica; dominant-baseline: middle; }
.title-right { font: 12px Helvetica; dominant-baseline: middle; text-anchor: end; }
.title-intrinsic { font: 12px Helvetica; dominant-baseline: middle; text-anchor: middle; fill: #6778ED; }
.title { font: 12px Helvetica; dominant-baseline: middle; text-anchor: middle; }
.title-unused { font: 12px Helvetica; dominant-baseline: middle; text-anchor: middle; fill: #AAA; }
.register-name { font: 14px Helvetica; dominant-baseline: middle; text-anchor: end; font-style: italic; }
.memory-name { font: 14px Helvetica; dominant-baseline: middle; text-anchor: end; }
.register-number { font: 14px Helvetica; dominant-baseline: middle; text-anchor: start; }
.intrinsic-name { font: 14px Helvetica; dominant-baseline: middle; text-anchor: end; fill: #6778ED; }
.intrinsic-color { fill: #6778ED; }
.small-label { font: 12px Helvetica; dominant-baseline: middle; text-anchor: middle; }
.label-10px { font: 10px Helvetica; dominant-baseline: middle; text-anchor: middle; }
.smaller-label { font: 9px Helvetica; dominant-baseline: middle; text-anchor: middle; }
.label-6px { font: 6px Helvetica; dominant-baseline: middle; text-anchor: middle; }
.label-7px { font: 7px Helvetica; dominant-baseline: middle; text-anchor: middle; }
.unused { fill: #AAA; }
.dim { fill: #888; }
</style>
<defs>
<marker id="arrowhead" markerWidth="10.75" markerHeight="24.5" refX="9.0" refY="6.125" orient="auto">
<polyline points="0.5 0.5, 8.75 6.125, 0.5 11.75" stroke="#567DB6" stroke-width="1" fill="none"/>
</marker>
</defs>
<line stroke="#000" stroke-width="2" x1="474" x2="474" y1="178" y2="218" />
<line stroke="#000" stroke-width="2" x1="858" x2="858" y1="178" y2="218" />
<line stroke="#000" stroke-width="2" x1="1242" x2="1242" y1="178" y2="218" />
<text class="title-left" x="90" y="9">upper</text>
<text class="title-right" x="1626" y="9">lower</text>
<rect fill="none" height="24" stroke="#405C86" stroke-width="2" width="12" x="1608" y="18" />
<text class="label" x="1614" y="31">0</text>
<rect fill="#DEE6F1" height="24" width="12" x="1584" y="18" />
<rect fill="none" height="24" stroke="#405C86" stroke-width="2" width="12" x="1584" y="18" />
<text class="label" x="1590" y="31">1</text>
<rect fill="#DEE6F1" height="24" width="12" x="1560" y="18" />
<rect fill="none" height="24" stroke="#405C86" stroke-width="2" width="12" x="1560" y="18" />
<text class="label" x="1566" y="31">1</text>
<rect fill="none" height="24" stroke="#405C86" stroke-width="2" width="12" x="1536" y="18" />
<text class="label" x="1542" y="31">0</text>
<rect fill="#DEE6F1" height="24" width="12" x="1512" y="18" />
<rect fill="none" height="24" stroke="#405C86" stroke-width="2" width="12" x="1512" y="18" />
<text class="label" x="1518" y="31">1</text>
<rect fill="#DEE6F1" height="24" width="12" x="1488" y="18" />
<rect fill="none" height="24" stroke="#405C86" stroke-width="2" width="12" x="1488" y="18" />
<text class="label" x="1494" y="31">1</text>
<rect fill="none" height="24" stroke="#405C86" stroke-width="2" width="12" x="1464" y="18" />
<text class="label" x="1470" y="31">0</text>
<rect fill="#DEE6F1" height="24" width="12" x="1440" y="18" />
<rect fill="none" height="24" stroke="#405C86" stroke-width="2" width="12" x="1440" y="18" />
<text class="label" x="1446" y="31">1</text>
<rect fill="#DEE6F1" height="24" width="12" x="1416" y="18" />
<rect fill="none" height="24" stroke="#405C86" stroke-width="2" width="12" x="1416" y="18" />
<text class="label" x="1422" y="31">1</text>
<rect fill="#DEE6F1" height="24" width="12" x="1392" y="18" />
<rect fill="none" height="24" stroke="#405C86" stroke-width="2" width="12" x="1392" y="18" />
<text class="label" x="1398" y="31">1</text>
<rect fill="#DEE6F1" height="24" width="12" x="1368" y="18" />
<rect fill="none" height="24" stroke="#405C86" stroke-width="2" width="12" x="1368" y="18" />
<text class="label" x="1374" y="31">1</text>
<rect fill="#DEE6F1" height="24" width="12" x="1344" y="18" />
<rect fill="none" height="24" stroke="#405C86" stroke-width="2" width="12" x="1344" y="18" />
<text class="label" x="1350" y="31">1</text>
<rect fill="#DEE6F1" height="24" width="12" x="1320" y="18" />
<rect fill="none" height="24" stroke="#405C86" stroke-width="2" width="12" x="1320" y="18" />
<text class="label" x="1326" y="31">1</text>
<rect fill="#DEE6F1" height="24" width="12" x="1296" y="18" />
<rect fill="none" height="24" stroke="#405C86" stroke-width="2" width="12" x="1296" y="18" />
<text class="label" x="1302" y="31">1</text>
<rect fill="none" height="24" stroke="#405C86" stroke-width="2" width="12" x="1272" y="18" />
<text class="label" x="1278" y="31">0</text>
<rect fill="#DEE6F1" height="24" width="12" x="1248" y="18" />
<rect fill="none" height="24" stroke="#405C86" stroke-width="2" width="12" x="1248" y="18" />
<text class="label" x="1254" y="31">1</text>
<rect fill="none" height="24" stroke="#405C86" stroke-dasharray="3 1" stroke-dashoffset="1.5" stroke-width="1" width="12" x="1224" y="18" />
<text class="label unused" x="1230" y="31"></text>
<rect fill="none" height="24" stroke="#405C86" stroke-dasharray="3 1" stroke-dashoffset="1.5" stroke-width="1" width="12" x="1200" y="18" />
<text class="label unused" x="1206" y="31"></text>
<rect fill="none" height="24" stroke="#405C86" stroke-dasharray="3 1" stroke-dashoffset="1.5" stroke-width="1" width="12" x="1176" y="18" />
<text class="label unused" x="1182" y="31"></text>
<rect fill="none" height="24" stroke="#405C86" stroke-dasharray="3 1" stroke-dashoffset="1.5" stroke-width="1" width="12" x="1152" y="18" />
<text class="label unused" x="1158" y="31"></text>
<rect fill="none" height="24" stroke="#405C86" stroke-dasharray="3 1" stroke-dashoffset="1.5" stroke-width="1" width="12" x="1128" y="18" />
<text class="label unused" x="1134" y="31"></text>
<rect fill="none" height="24" stroke="#405C86" stroke-dasharray="3 1" stroke-dashoffset="1.5" stroke-width="1" width="12" x="1104" y="18" />
<text class="label unused" x="1110" y="31"></text>
<rect fill="none" height="24" stroke="#405C86" stroke-dasharray="3 1" stroke-dashoffset="1.5" stroke-width="1" width="12" x="1080" y="18" />
<text class="label unused" x="1086" y="31"></text>
<rect fill="none" height="24" stroke="#405C86" stroke-dasharray="3 1" stroke-dashoffset="1.5" stroke-width="1" width="12" x="1056" y="18" />
<text class="label unused" x="1062" y="31"></text>
<rect fill="none" height="24" stroke="#405C86" stroke-dasharray="3 1" stroke-dashoffset="1.5" stroke-width="1" width="12" x="1032" y="18" />
<text class="label unused" x="1038" y="31"></text>
<rect fill="none" height="24" stroke="#405C86" stroke-dasharray="3 1" stroke-dashoffset="1.5" stroke-width="1" width="12" x="1008" y="18" />
<text class="label unused" x="1014" y="31"></text>
<rect fill="none" height="24" stroke="#405C86" stroke-dasharray="3 1" stroke-dashoffset="1.5" stroke-width="1" width="12" x="984" y="18" />
<text class="label unused" x="990" y="31"></text>
<rect fill="none" height="24" stroke="#405C86" stroke-dasharray="3 1" stroke-dashoffset="1.5" stroke-width="1" width="12" x="960" y="18" />
<text class="label unused" x="966" y="31"></text>
<rect fill="none" height="24" stroke="#405C86" stroke-dasharray="3 1" stroke-dashoffset="1.5" stroke-width="1" width="12" x="936" y="18" />
<text class="label unused" x="942" y="31"></text>
<rect fill="none" height="24" stroke="#405C86" stroke-dasharray="3 1" stroke-dashoffset="1.5" stroke-width="1" width="12" x="912" y="18" />
<text class="label unused" x="918" y="31"></text>
<rect fill="none" height="24" stroke="#405C86" stroke-dasharray="3 1" stroke-dashoffset="1.5" stroke-width="1" width="12" x="888" y="18" />
<text class="label unused" x="894" y="31"></text>
<rect fill="none" height="24" stroke="#405C86" stroke-dasharray="3 1" stroke-dashoffset="1.5" stroke-width="1" width="12" x="864" y="18" />
<text class="label unused" x="870" y="31"></text>
<rect fill="none" height="24" stroke="#405C86" stroke-dasharray="3 1" stroke-dashoffset="1.5" stroke-width="1" width="12" x="840" y="18" />
<text class="label unused" x="846" y="31"></text>
<rect fill="none" height="24" stroke="#405C86" stroke-dasharray="3 1" stroke-dashoffset="1.5" stroke-width="1" width="12" x="816" y="18" />
<text class="label unused" x="822" y="31"></text>
<rect fill="none" height="24" stroke="#405C86" stroke-dasharray="3 1" stroke-dashoffset="1.5" stroke-width="1" width="12" x="792" y="18" />
<text class="label unused" x="798" y="31"></text>
<rect fill="none" height="24" stroke="#405C86" stroke-dasharray="3 1" stroke-dashoffset="1.5" stroke-width="1" width="12" x="768" y="18" />
<text class="label unused" x="774" y="31"></text>
<rect fill="none" height="24" stroke="#405C86" stroke-dasharray="3 1" stroke-dashoffset="1.5" stroke-width="1" width="12" x="744" y="18" />
<text class="label unused" x="750" y="31"></text>
<rect fill="none" height="24" stroke="#405C86" stroke-dasharray="3 1" stroke-dashoffset="1.5" stroke-width="1" width="12" x="720" y="18" />
<text class="label unused" x="726" y="31"></text>
<rect fill="none" height="24" stroke="#405C86" stroke-dasharray="3 1" stroke-dashoffset="1.5" stroke-width="1" width="12" x="696" y="18" />
<text class="label unused" x="702" y="31"></text>
<rect fill="none" height="24" stroke="#405C86" stroke-dasharray="3 1" stroke-dashoffset="1.5" stroke-width="1" width="12" x="672" y="18" />
<text class="label unused" x="678" y="31"></text>
<rect fill="none" height="24" stroke="#405C86" stroke-dasharray="3 1" stroke-dashoffset="1.5" stroke-width="1" width="12" x="648" y="18" />
<text class="label unused" x="654" y="31"></text>
<rect fill="none" height="24" stroke="#405C86" stroke-dasharray="3 1" stroke-dashoffset="1.5" stroke-width="1" width="12" x="624" y="18" />
<text class="label unused" x="630" y="31"></text>
<rect fill="none" height="24" stroke="#405C86" stroke-dasharray="3 1" stroke-dashoffset="1.5" stroke-width="1" width="12" x="600" y="18" />
<text class="label unused" x="606" y="31"></text>
<rect fill="none" height="24" stroke="#405C86" stroke-dasharray="3 1" stroke-dashoffset="1.5" stroke-width="1" width="12" x="576" y="18" />
<text class="label unused" x="582" y="31"></text>
<rect fill="none" height="24" stroke="#405C86" stroke-dasharray="3 1" stroke-dashoffset="1.5" stroke-width="1" width="12" x="552" y="18" />
<text class="label unused" x="558" y="31"></text>
<rect fill="none" height="24" stroke="#405C86" stroke-dasharray="3 1" stroke-dashoffset="1.5" stroke-width="1" width="12" x="528" y="18" />
<text class="label unused" x="534" y="31"></text>
<rect fill="none" height="24" stroke="#405C86" stroke-dasharray="3 1" stroke-dashoffset="1.5" stroke-width="1" width="12" x="504" y="18" />
<text class="label unused" x="510" y="31"></text>
<rect fill="none" height="24" stroke="#405C86" stroke-dasharray="3 1" stroke-dashoffset="1.5" stroke-width="1" width="12" x="480" y="18" />
<text class="label unused" x="486" y="31"></text>
<rect fill="none" height="24" stroke="#405C86" stroke-dasharray="3 1" stroke-dashoffset="1.5" stroke-width="1" width="12" x="456" y="18" />
<text class="label unused" x="462" y="31"></text>
<rect fill="none" height="24" stroke="#405C86" stroke-dasharray="3 1" stroke-dashoffset="1.5" stroke-width="1" width="12" x="432" y="18" />
<text class="label unused" x="438" y="31"></text>
<rect fill="none" height="24" stroke="#405C86" stroke-dasharray="3 1" stroke-dashoffset="1.5" stroke-width="1" width="12" x="408" y="18" />
<text class="label unused" x="414" y="31"></text>
<rect fill="none" height="24" stroke="#405C86" stroke-dasharray="3 1" stroke-dashoffset="1.5" stroke-width="1" width="12" x="384" y="18" />
<text class="label unused" x="390" y="31"></text>
<rect fill="none" height="24" stroke="#405C86" stroke-dasharray="3 1" stroke-dashoffset="1.5" stroke-width="1" width="12" x="360" y="18" />
<text class="label unused" x="366" y="31"></text>
<rect fill="none" height="24" stroke="#405C86" stroke-dasharray="3 1" stroke-dashoffset="1.5" stroke-width="1" width="12" x="336" y="18" />
<text class="label unused" x="342" y="31"></text>
<rect fill="none" height="24" stroke="#405C86" stroke-dasharray="3 1" stroke-dashoffset="1.5" stroke-width="1" width="12" x="312" y="18" />
<text class="label unused" x="318" y="31"></text>
<rect fill="none" height="24" stroke="#405C86" stroke-dasharray="3 1" stroke-dashoffset="1.5" stroke-width="1" width="12" x="288" y="18" />
<text class="label unused" x="294" y="31"></text>
<rect fill="none" height="24" stroke="#405C86" stroke-dasharray="3 1" stroke-dashoffset="1.5" stroke-width="1" width="12" x="264" y="18" />
<text class="label unused" x="270" y="31"></text>
<rect fill="none" height="24" stroke="#405C86" stroke-dasharray="3 1" stroke-dashoffset="1.5" stroke-width="1" width="12" x="240" y="18" />
<text class="label unused" x="246" y="31"></text>
<rect fill="none" height="24" stroke="#405C86" stroke-dasharray="3 1" stroke-dashoffset="1.5" stroke-width="1" width="12" x="216" y="18" />
<text class="label unused" x="222" y="31"></text>
<rect fill="none" height="24" stroke="#405C86" stroke-dasharray="3 1" stroke-dashoffset="1.5" stroke-width="1" width="12" x="192" y="18" />
<text class="label unused" x="198" y="31"></text>
<rect fill="none" height="24" stroke="#405C86" stroke-dasharray="3 1" stroke-dashoffset="1.5" stroke-width="1" width="12" x="168" y="18" />
<text class="label unused" x="174" y="31"></text>
<rect fill="none" height="24" stroke="#405C86" stroke-dasharray="3 1" stroke-dashoffset="1.5" stroke-width="1" width="12" x="144" y="18" />
<text class="label unused" x="150" y="31"></text>
<rect fill="none" height="24" stroke="#405C86" stroke-dasharray="3 1" stroke-dashoffset="1.5" stroke-width="1" width="12" x="120" y="18" />
<text class="label unused" x="126" y="31"></text>
<rect fill="none" height="24" stroke="#405C86" stroke-dasharray="3 1" stroke-dashoffset="1.5" stroke-width="1" width="12" x="96" y="18" />
<text class="label unused" x="102" y="31"></text>
<text class="register-name" x="80" y="30">Pg</text>
<text class="intrinsic-name" x="80" y="42">pg</text>
<text class="register-number" x="10" y="30">(1)</text>
<rect fill="none" height="24" stroke="#405C86" stroke-width="2" width="24" x="1602" y="66" />
<text class="smaller-label intrinsic-color" x="1614" y="79">b[0]</text>
<rect fill="#DEE6F1" height="24" width="24" x="1578" y="66" />
<rect fill="none" height="24" stroke="#405C86" stroke-width="2" width="24" x="1578" y="66" />
<text class="smaller-label intrinsic-color" x="1590" y="79">b[1]</text>
<rect fill="#DEE6F1" height="24" width="24" x="1554" y="66" />
<rect fill="none" height="24" stroke="#405C86" stroke-width="2" width="24" x="1554" y="66" />
<text class="smaller-label intrinsic-color" x="1566" y="79">b[2]</text>
<rect fill="none" height="24" stroke="#405C86" stroke-width="2" width="24" x="1530" y="66" />
<text class="smaller-label intrinsic-color" x="1542" y="79">b[3]</text>
<rect fill="#DEE6F1" height="24" width="24" x="1506" y="66" />
<rect fill="none" height="24" stroke="#405C86" stroke-width="2" width="24" x="1506" y="66" />
<text class="smaller-label intrinsic-color" x="1518" y="79">b[4]</text>
<rect fill="#DEE6F1" height="24" width="24" x="1482" y="66" />
<rect fill="none" height="24" stroke="#405C86" stroke-width="2" width="24" x="1482" y="66" />
<text class="smaller-label intrinsic-color" x="1494" y="79">b[5]</text>
<rect fill="none" height="24" stroke="#405C86" stroke-width="2" width="24" x="1458" y="66" />
<text class="smaller-label intrinsic-color" x="1470" y="79">b[6]</text>
<rect fill="#DEE6F1" height="24" width="24" x="1434" y="66" />
<rect fill="none" height="24" stroke="#405C86" stroke-width="2" width="24" x="1434" y="66" />
<text class="smaller-label intrinsic-color" x="1446" y="79">b[7]</text>
<rect fill="#DEE6F1" height="24" width="24" x="1410" y="66" />
<rect fill="none" height="24" stroke="#405C86" stroke-width="2" width="24" x="1410" y="66" />
<text class="smaller-label intrinsic-color" x="1422" y="79">b[8]</text>
<rect fill="#DEE6F1" height="24" width="24" x="1386" y="66" />
<rect fill="none" height="24" stroke="#405C86" stroke-width="2" width="24" x="1386" y="66" />
<text class="smaller-label intrinsic-color" x="1398" y="79">b[9]</text>
<rect fill="#DEE6F1" height="24" width="24" x="1362" y="66" />
<rect fill="none" height="24" stroke="#405C86" stroke-width="2" width="24" x="1362" y="66" />
<text class="smaller-label intrinsic-color" x="1374" y="79">b[10]</text>
<rect fill="#DEE6F1" height="24" width="24" x="1338" y="66" />
<rect fill="none" height="24" stroke="#405C86" stroke-width="2" width="24" x="1338" y="66" />
<text class="smaller-label intrinsic-color" x="1350" y="79">b[11]</text>
<rect fill="#DEE6F1" height="24" width="24" x="1314" y="66" />
<rect fill="none" height="24" stroke="#405C86" stroke-width="2" width="24" x="1314" y="66" />
<text class="smaller-label intrinsic-color" x="1326" y="79">b[12]</text>
<rect fill="#DEE6F1" height="24" width="24" x="1290" y="66" />
<rect fill="none" height="24" stroke="#405C86" stroke-width="2" width="24" x="1290" y="66" />
<text class="smaller-label intrinsic-color" x="1302" y="79">b[13]</text>
<rect fill="none" height="24" stroke="#405C86" stroke-width="2" width="24" x="1266" y="66" />
<text class="smaller-label intrinsic-color" x="1278" y="79">b[14]</text>
<rect fill="#DEE6F1" height="24" width="24" x="1242" y="66" />
<rect fill="none" height="24" stroke="#405C86" stroke-width="2" width="24" x="1242" y="66" />
<text class="smaller-label intrinsic-color" x="1254" y="79">b[15]</text>
<text class="register-name" x="80" y="78">[mem]</text>
<text class="intrinsic-name" x="80" y="90">*base</text>
<text class="register-number" x="10" y="78">(2)</text>
<rect fill="#EEDDDB" height="24" width="24" x="1602" y="114" />
<rect fill="none" height="24" stroke="#405C86" stroke-width="2" width="24" x="1602" y="114" />
<text class="label" x="1614" y="127">0</text>
<rect fill="#DEE6F1" height="24" width="24" x="1578" y="114" />
<rect fill="none" height="24" stroke="#405C86" stroke-width="2" width="24" x="1578" y="114" />
<rect fill="#DEE6F1" height="24" width="24" x="1554" y="114" />
<rect fill="none" height="24" stroke="#405C86" stroke-width="2" width="24" x="1554" y="114" />
<rect fill="#EEDDDB" height="24" width="24" x="1530" y="114" />
<rect fill="none" height="24" stroke="#405C86" stroke-width="2" width="24" x="1530" y="114" />
<text class="label" x="1542" y="127">0</text>
<rect fill="#DEE6F1" height="24" width="24" x="1506" y="114" />
<rect fill="none" height="24" stroke="#405C86" stroke-width="2" width="24" x="1506" y="114" />
<rect fill="#DEE6F1" height="24" width="24" x="1482" y="114" />
<rect fill="none" height="24" stroke="#405C86" stroke-width="2" width="24" x="1482" y="114" />
<rect fill="#EEDDDB" height="24" width="24" x="1458" y="114" />
<rect fill="none" height="24" stroke="#405C86" stroke-width="2" width="24" x="1458" y="114" />
<text class="label" x="1470" y="127">0</text>
<rect fill="#DEE6F1" height="24" width="24" x="1434" y="114" />
<rect fill="none" height="24" stroke="#405C86" stroke-width="2" width="24" x="1434" y="114" />
<rect fill="#DEE6F1" height="24" width="24" x="1410" y="114" />
<rect fill="none" height="24" stroke="#405C86" stroke-width="2" width="24" x="1410" y="114" />
<rect fill="#DEE6F1" height="24" width="24" x="1386" y="114" />
<rect fill="none" height="24" stroke="#405C86" stroke-width="2" width="24" x="1386" y="114" />
<rect fill="#DEE6F1" height="24" width="24" x="1362" y="114" />
<rect fill="none" height="24" stroke="#405C86" stroke-width="2" width="24" x="1362" y="114" />
<rect fill="#DEE6F1" height="24" width="24" x="1338" y="114" />
<rect fill="none" height="24" stroke="#405C86" stroke-width="2" width="24" x="1338" y="114" />
<rect fill="#DEE6F1" height="24" width="24" x="1314" y="114" />
<rect fill="none" height="24" stroke="#405C86" stroke-width="2" width="24" x="1314" y="114" />
<rect fill="#DEE6F1" height="24" width="24" x="1290" y="114" />
<rect fill="none" height="24" stroke="#405C86" stroke-width="2" width="24" x="1290" y="114" />
<rect fill="#EEDDDB" height="24" width="24" x="1266" y="114" />
<rect fill="none" height="24" stroke="#405C86" stroke-width="2" width="24" x="1266" y="114" />
<text class="label" x="1278" y="127">0</text>
<rect fill="#DEE6F1" height="24" width="24" x="1242" y="114" />
<rect fill="none" height="24" stroke="#405C86" stroke-width="2" width="24" x="1242" y="114" />
<rect fill="#EEDDDB" height="24" width="24" x="1602" y="186" />
<rect fill="none" height="24" stroke="#405C86" stroke-width="2" width="24" x="1602" y="186" />
<text class="label" x="1614" y="199">0</text>
<rect fill="#DEE6F1" height="24" width="24" x="1578" y="186" />
<rect fill="none" height="24" stroke="#405C86" stroke-width="2" width="24" x="1578" y="186" />
<rect fill="#DEE6F1" height="24" width="24" x="1554" y="186" />
<rect fill="none" height="24" stroke="#405C86" stroke-width="2" width="24" x="1554" y="186" />
<rect fill="#EEDDDB" height="24" width="24" x="1530" y="186" />
<rect fill="none" height="24" stroke="#405C86" stroke-width="2" width="24" x="1530" y="186" />
<text class="label" x="1542" y="199">0</text>
<rect fill="#DEE6F1" height="24" width="24" x="1506" y="186" />
<rect fill="none" height="24" stroke="#405C86" stroke-width="2" width="24" x="1506" y="186" />
<rect fill="#DEE6F1" height="24" width="24" x="1482" y="186" />
<rect fill="none" height="24" stroke="#405C86" stroke-width="2" width="24" x="1482" y="186" />
<rect fill="#EEDDDB" height="24" width="24" x="1458" y="186" />
<rect fill="none" height="24" stroke="#405C86" stroke-width="2" width="24" x="1458" y="186" />
<text class="label" x="1470" y="199">0</text>
<rect fill="#DEE6F1" height="24" width="24" x="1434" y="186" />
<rect fill="none" height="24" stroke="#405C86" stroke-width="2" width="24" x="1434" y="186" />
<rect fill="#DEE6F1" height="24" width="24" x="1410" y="186" />
<rect fill="none" height="24" stroke="#405C86" stroke-width="2" width="24" x="1410" y="186" />
<rect fill="#DEE6F1" height="24" width="24" x="1386" y="186" />
<rect fill="none" height="24" stroke="#405C86" stroke-width="2" width="24" x="1386" y="186" />
<rect fill="#DEE6F1" height="24" width="24" x="1362" y="186" />
<rect fill="none" height="24" stroke="#405C86" stroke-width="2" width="24" x="1362" y="186" />
<rect fill="#DEE6F1" height="24" width="24" x="1338" y="186" />
<rect fill="none" height="24" stroke="#405C86" stroke-width="2" width="24" x="1338" y="186" />
<rect fill="#DEE6F1" height="24" width="24" x="1314" y="186" />
<rect fill="none" height="24" stroke="#405C86" stroke-width="2" width="24" x="1314" y="186" />
<rect fill="#DEE6F1" height="24" width="24" x="1290" y="186" />
<rect fill="none" height="24" stroke="#405C86" stroke-width="2" width="24" x="1290" y="186" />
<rect fill="#EEDDDB" height="24" width="24" x="1266" y="186" />
<rect fill="none" height="24" stroke="#405C86" stroke-width="2" width="24" x="1266" y="186" />
<text class="label" x="1278" y="199">0</text>
<rect fill="#DEE6F1" height="24" width="24" x="1242" y="186" />
<rect fill="none" height="24" stroke="#405C86" stroke-width="2" width="24" x="1242" y="186" />
<rect fill="#EEDDDB" height="24" width="24" x="1218" y="186" />
<rect fill="none" height="24" stroke="#405C86" stroke-width="2" width="24" x="1218" y="186" />
<text class="label" x="1230" y="199">0</text>
<rect fill="#DEE6F1" height="24" width="24" x="1194" y="186" />
<rect fill="none" height="24" stroke="#405C86" stroke-width="2" width="24" x="1194" y="186" />
<rect fill="#DEE6F1" height="24" width="24" x="1170" y="186" />
<rect fill="none" height="24" stroke="#405C86" stroke-width="2" width="24" x="1170" y="186" />
<rect fill="#EEDDDB" height="24" width="24" x="1146" y="186" />
<rect fill="none" height="24" stroke="#405C86" stroke-width="2" width="24" x="1146" y="186" />
<text class="label" x="1158" y="199">0</text>
<rect fill="#DEE6F1" height="24" width="24" x="1122" y="186" />
<rect fill="none" height="24" stroke="#405C86" stroke-width="2" width="24" x="1122" y="186" />
<rect fill="#DEE6F1" height="24" width="24" x="1098" y="186" />
<rect fill="none" height="24" stroke="#405C86" stroke-width="2" width="24" x="1098" y="186" />
<rect fill="#EEDDDB" height="24" width="24" x="1074" y="186" />
<rect fill="none" height="24" stroke="#405C86" stroke-width="2" width="24" x="1074" y="186" />
<text class="label" x="1086" y="199">0</text>
<rect fill="#DEE6F1" height="24" width="24" x="1050" y="186" />
<rect fill="none" height="24" stroke="#405C86" stroke-width="2" width="24" x="1050" y="186" />
<rect fill="#DEE6F1" height="24" width="24" x="1026" y="186" />
<rect fill="none" height="24" stroke="#405C86" stroke-width="2" width="24" x="1026" y="186" />
<rect fill="#DEE6F1" height="24" width="24" x="1002" y="186" />
<rect fill="none" height="24" stroke="#405C86" stroke-width="2" width="24" x="1002" y="186" />
<rect fill="#DEE6F1" height="24" width="24" x="978" y="186" />
<rect fill="none" height="24" stroke="#405C86" stroke-width="2" width="24" x="978" y="186" />
<rect fill="#DEE6F1" height="24" width="24" x="954" y="186" />
<rect fill="none" height="24" stroke="#405C86" stroke-width="2" width="24" x="954" y="186" />
<rect fill="#DEE6F1" height="24" width="24" x="930" y="186" />
<rect fill="none" height="24" stroke="#405C86" stroke-width="2" width="24" x="930" y="186" />
<rect fill="#DEE6F1" height="24" width="24" x="906" y="186" />
<rect fill="none" height="24" stroke="#405C86" stroke-width="2" width="24" x="906" y="186" />
<rect fill="#EEDDDB" height="24" width="24" x="882" y="186" />
<rect fill="none" height="24" stroke="#405C86" stroke-width="2" width="24" x="882" y="186" />
<text class="label" x="894" y="199">0</text>
<rect fill="#DEE6F1" height="24" width="24" x="858" y="186" />
<rect fill="none" height="24" stroke="#405C86" stroke-width="2" width="24" x="858" y="186" />
<rect fill="#EEDDDB" height="24" width="24" x="834" y="186" />
<rect fill="none" height="24" stroke="#405C86" stroke-width="2" width="24" x="834" y="186" />
<text class="label" x="846" y="199">0</text>
<rect fill="#DEE6F1" height="24" width="24" x="810" y="186" />
<rect fill="none" height="24" stroke="#405C86" stroke-width="2" width="24" x="810" y="186" />
<rect fill="#DEE6F1" height="24" width="24" x="786" y="186" />
<rect fill="none" height="24" stroke="#405C86" stroke-width="2" width="24" x="786" y="186" />
<rect fill="#EEDDDB" height="24" width="24" x="762" y="186" />
<rect fill="none" height="24" stroke="#405C86" stroke-width="2" width="24" x="762" y="186" />
<text class="label" x="774" y="199">0</text>
<rect fill="#DEE6F1" height="24" width="24" x="738" y="186" />
<rect fill="none" height="24" stroke="#405C86" stroke-width="2" width="24" x="738" y="186" />
<rect fill="#DEE6F1" height="24" width="24" x="714" y="186" />
<rect fill="none" height="24" stroke="#405C86" stroke-width="2" width="24" x="714" y="186" />
<rect fill="#EEDDDB" height="24" width="24" x="690" y="186" />
<rect fill="none" height="24" stroke="#405C86" stroke-width="2" width="24" x="690" y="186" />
<text class="label" x="702" y="199">0</text>
<rect fill="#DEE6F1" height="24" width="24" x="666" y="186" />
<rect fill="none" height="24" stroke="#405C86" stroke-width="2" width="24" x="666" y="186" />
<rect fill="#DEE6F1" height="24" width="24" x="642" y="186" />
<rect fill="none" height="24" stroke="#405C86" stroke-width="2" width="24" x="642" y="186" />
<rect fill="#DEE6F1" height="24" width="24" x="618" y="186" />
<rect fill="none" height="24" stroke="#405C86" stroke-width="2" width="24" x="618" y="186" />
<rect fill="#DEE6F1" height="24" width="24" x="594" y="186" />
<rect fill="none" height="24" stroke="#405C86" stroke-width="2" width="24" x="594" y="186" />
<rect fill="#DEE6F1" height="24" width="24" x="570" y="186" />
<rect fill="none" height="24" stroke="#405C86" stroke-width="2" width="24" x="570" y="186" />
<rect fill="#DEE6F1" height="24" width="24" x="546" y="186" />
<rect fill="none" height="24" stroke="#405C86" stroke-width="2" width="24" x="546" y="186" />
<rect fill="#DEE6F1" height="24" width="24" x="522" y="186" />
<rect fill="none" height="24" stroke="#405C86" stroke-width="2" width="24" x="522" y="186" />
<rect fill="#EEDDDB" height="24" width="24" x="498" y="186" />
<rect fill="none" height="24" stroke="#405C86" stroke-width="2" width="24" x="498" y="186" />
<text class="label" x="510" y="199">0</text>
<rect fill="#DEE6F1" height="24" width="24" x="474" y="186" />
<rect fill="none" height="24" stroke="#405C86" stroke-width="2" width="24" x="474" y="186" />
<rect fill="#EEDDDB" height="24" width="24" x="450" y="186" />
<rect fill="none" height="24" stroke="#405C86" stroke-width="2" width="24" x="450" y="186" />
<text class="label" x="462" y="199">0</text>
<rect fill="#DEE6F1" height="24" width="24" x="426" y="186" />
<rect fill="none" height="24" stroke="#405C86" stroke-width="2" width="24" x="426" y="186" />
<rect fill="#DEE6F1" height="24" width="24" x="402" y="186" />
<rect fill="none" height="24" stroke="#405C86" stroke-width="2" width="24" x="402" y="186" />
<rect fill="#EEDDDB" height="24" width="24" x="378" y="186" />
<rect fill="none" height="24" stroke="#405C86" stroke-width="2" width="24" x="378" y="186" />
<text class="label" x="390" y="199">0</text>
<rect fill="#DEE6F1" height="24" width="24" x="354" y="186" />
<rect fill="none" height="24" stroke="#405C86" stroke-width="2" width="24" x="354" y="186" />
<rect fill="#DEE6F1" height="24" width="24" x="330" y="186" />
<rect fill="none" height="24" stroke="#405C86" stroke-width="2" width="24" x="330" y="186" />
<rect fill="#EEDDDB" height="24" width="24" x="306" y="186" />
<rect fill="none" height="24" stroke="#405C86" stroke-width="2" width="24" x="306" y="186" />
<text class="label" x="318" y="199">0</text>
<rect fill="#DEE6F1" height="24" width="24" x="282" y="186" />
<rect fill="none" height="24" stroke="#405C86" stroke-width="2" width="24" x="282" y="186" />
<rect fill="#DEE6F1" height="24" width="24" x="258" y="186" />
<rect fill="none" height="24" stroke="#405C86" stroke-width="2" width="24" x="258" y="186" />
<rect fill="#DEE6F1" height="24" width="24" x="234" y="186" />
<rect fill="none" height="24" stroke="#405C86" stroke-width="2" width="24" x="234" y="186" />
<rect fill="#DEE6F1" height="24" width="24" x="210" y="186" />
<rect fill="none" height="24" stroke="#405C86" stroke-width="2" width="24" x="210" y="186" />
<rect fill="#DEE6F1" height="24" width="24" x="186" y="186" />
<rect fill="none" height="24" stroke="#405C86" stroke-width="2" width="24" x="186" y="186" />
<rect fill="#DEE6F1" height="24" width="24" x="162" y="186" />
<rect fill="none" height="24" stroke="#405C86" stroke-width="2" width="24" x="162" y="186" />
<rect fill="#DEE6F1" height="24" width="24" x="138" y="186" />
<rect fill="none" height="24" stroke="#405C86" stroke-width="2" width="24" x="138" y="186" />
<rect fill="#EEDDDB" height="24" width="24" x="114" y="186" />
<rect fill="none" height="24" stroke="#405C86" stroke-width="2" width="24" x="114" y="186" />
<text class="label" x="126" y="199">0</text>
<rect fill="#DEE6F1" height="24" width="24" x="90" y="186" />
<rect fill="none" height="24" stroke="#405C86" stroke-width="2" width="24" x="90" y="186" />
<text class="register-name" x="80" y="198">Zt</text>
<text class="intrinsic-name" x="80" y="210">returns</text>
<text class="register-number" x="10" y="198">(3)</text>
<line stroke="#567DB6" stroke-width="1" x1="1614" x2="1614" y1="42.5" y2="65.5" />
<line stroke="#567DB6" stroke-width="1" x1="1590" x2="1590" y1="42.5" y2="65.5" />
<line stroke="#567DB6" stroke-width="1" x1="1590" x2="1590" y1="90.5" y2="113" />
<line stroke="#567DB6" stroke-width="1" x1="1566" x2="1566" y1="42.5" y2="65.5" />
<line stroke="#567DB6" stroke-width="1" x1="1566" x2="1566" y1="90.5" y2="113" />
<line stroke="#567DB6" stroke-width="1" x1="1542" x2="1542" y1="42.5" y2="65.5" />
<line stroke="#567DB6" stroke-width="1" x1="1518" x2="1518" y1="42.5" y2="65.5" />
<line stroke="#567DB6" stroke-width="1" x1="1518" x2="1518" y1="90.5" y2="113" />
<line stroke="#567DB6" stroke-width="1" x1="1494" x2="1494" y1="42.5" y2="65.5" />
<line stroke="#567DB6" stroke-width="1" x1="1494" x2="1494" y1="90.5" y2="113" />
<line stroke="#567DB6" stroke-width="1" x1="1470" x2="1470" y1="42.5" y2="65.5" />
<line stroke="#567DB6" stroke-width="1" x1="1446" x2="1446" y1="42.5" y2="65.5" />
<line stroke="#567DB6" stroke-width="1" x1="1446" x2="1446" y1="90.5" y2="113" />
<line stroke="#567DB6" stroke-width="1" x1="1422" x2="1422" y1="42.5" y2="65.5" />
<line stroke="#567DB6" stroke-width="1" x1="1422" x2="1422" y1="90.5" y2="113" />
<line stroke="#567DB6" stroke-width="1" x1="1398" x2="1398" y1="42.5" y2="65.5" />
<line stroke="#567DB6" stroke-width="1" x1="1398" x2="1398" y1="90.5" y2="113" />
<line stroke="#567DB6" stroke-width="1" x1="1374" x2="1374" y1="42.5" y2="65.5" />
<line stroke="#567DB6" stroke-width="1" x1="1374" x2="1374" y1="90.5" y2="113" />
<line stroke="#567DB6" stroke-width="1" x1="1350" x2="1350" y1="42.5" y2="65.5" />
<line stroke="#567DB6" stroke-width="1" x1="1350" x2="1350" y1="90.5" y2="113" />
<line stroke="#567DB6" stroke-width="1" x1="1326" x2="1326" y1="42.5" y2="65.5" />
<line stroke="#567DB6" stroke-width="1" x1="1326" x2="1326" y1="90.5" y2="113" />
<line stroke="#567DB6" stroke-width="1" x1="1302" x2="1302" y1="42.5" y2="65.5" />
<line stroke="#567DB6" stroke-width="1" x1="1302" x2="1302" y1="90.5" y2="113" />
<line stroke="#567DB6" stroke-width="1" x1="1278" x2="1278" y1="42.5" y2="65.5" />
<line stroke="#567DB6" stroke-width="1" x1="1254" x2="1254" y1="42.5" y2="65.5" />
<line stroke="#567DB6" stroke-width="1" x1="1254" x2="1254" y1="90.5" y2="113" />
<polyline fill="none" points="1245.0 138.5,1247.0 142.5,1433.0 142.5,1434.0 144.5,1434.0 148.5,1434.0 144.5,1435.0 142.5,1621.0 142.5,1623.0 138.5" stroke="#567DB6" stroke-width="1" />
<polyline fill="none" points="1245.0 185.5,1247.0 181.5,1433.0 181.5,1434.0 179.5,1434.0 175.5,1434.0 179.5,1435.0 181.5,1621.0 181.5,1623.0 185.5" stroke="#567DB6" stroke-width="1" />
<line stroke="#567DB6" stroke-width="1" x1="1434" x2="1434" y1="148.5" y2="175.5" />
<polyline fill="none" points="861.0 185.5,863.0 181.5,1049.0 181.5,1050.0 179.5,1050.0 175.5,1050.0 179.5,1051.0 181.5,1237.0 181.5,1239.0 185.5" stroke="#567DB6" stroke-width="1" />
<line stroke="#567DB6" stroke-width="1" x1="1434" x2="1050" y1="148.5" y2="175.5" />
<polyline fill="none" points="477.0 185.5,479.0 181.5,665.0 181.5,666.0 179.5,666.0 175.5,666.0 179.5,667.0 181.5,853.0 181.5,855.0 185.5" stroke="#567DB6" stroke-width="1" />
<line stroke="#567DB6" stroke-width="1" x1="1434" x2="666" y1="148.5" y2="175.5" />
<polyline fill="none" points="93.0 185.5,95.0 181.5,281.0 181.5,282.0 179.5,282.0 175.5,282.0 179.5,283.0 181.5,469.0 181.5,471.0 185.5" stroke="#567DB6" stroke-width="1" />
<line stroke="#567DB6" stroke-width="1" x1="1434" x2="282" y1="148.5" y2="175.5" />
<line marker-end="url(#arrowhead)" stroke="none" x1="1590" x2="1590" y1="90.5" y2="113" />
<line marker-end="url(#arrowhead)" stroke="none" x1="1566" x2="1566" y1="90.5" y2="113" />
<line marker-end="url(#arrowhead)" stroke="none" x1="1518" x2="1518" y1="90.5" y2="113" />
<line marker-end="url(#arrowhead)" stroke="none" x1="1494" x2="1494" y1="90.5" y2="113" />
<line marker-end="url(#arrowhead)" stroke="none" x1="1446" x2="1446" y1="90.5" y2="113" />
<line marker-end="url(#arrowhead)" stroke="none" x1="1422" x2="1422" y1="90.5" y2="113" />
<line marker-end="url(#arrowhead)" stroke="none" x1="1398" x2="1398" y1="90.5" y2="113" />
<line marker-end="url(#arrowhead)" stroke="none" x1="1374" x2="1374" y1="90.5" y2="113" />
<line marker-end="url(#arrowhead)" stroke="none" x1="1350" x2="1350" y1="90.5" y2="113" />
<line marker-end="url(#arrowhead)" stroke="none" x1="1326" x2="1326" y1="90.5" y2="113" />
<line marker-end="url(#arrowhead)" stroke="none" x1="1302" x2="1302" y1="90.5" y2="113" />
<line marker-end="url(#arrowhead)" stroke="none" x1="1254" x2="1254" y1="90.5" y2="113" />
</svg>