<svg xmlns="http://www.w3.org/2000/svg" viewBox="0 0 1638 123">
<style>
.label { font: 14px Helvetica; dominant-baseline: middle; text-anchor: middle; }
.title-left { font: 12px Helvetica; dominant-baseline: middle; }
.title-right { font: 12px Helvetica; dominant-baseline: middle; text-anchor: end; }
.title-intrinsic { font: 12px Helvetica; dominant-baseline: middle; text-anchor: middle; fill: #6778ED; }
.title { font: 12px Helvetica; dominant-baseline: middle; text-anchor: middle; }
.title-unused { font: 12px Helvetica; dominant-baseline: middle; text-anchor: middle; fill: #AAA; }
.register-name { font: 14px Helvetica; dominant-baseline: middle; text-anchor: end; font-style: italic; }
.memory-name { font: 14px Helvetica; dominant-baseline: middle; text-anchor: end; }
.register-number { font: 14px Helvetica; dominant-baseline: middle; text-anchor: start; }
.intrinsic-name { font: 14px Helvetica; dominant-baseline: middle; text-anchor: end; fill: #6778ED; }
.intrinsic-color { fill: #6778ED; }
.small-label { font: 12px Helvetica; dominant-baseline: middle; text-anchor: middle; }
.label-10px { font: 10px Helvetica; dominant-baseline: middle; text-anchor: middle; }
.smaller-label { font: 9px Helvetica; dominant-baseline: middle; text-anchor: middle; }
.label-6px { font: 6px Helvetica; dominant-baseline: middle; text-anchor: middle; }
.label-7px { font: 7px Helvetica; dominant-baseline: middle; text-anchor: middle; }
.unused { fill: #AAA; }
.dim { fill: #888; }
</style>
<defs>
<marker id="arrowhead" markerWidth="10.75" markerHeight="24.5" refX="9.0" refY="6.125" orient="auto">
<polyline points="0.5 0.5, 8.75 6.125, 0.5 11.75" stroke="#567DB6" stroke-width="1" fill="none"/>
</marker>
</defs>
<line stroke="#567DB6" stroke-width="1" x1="858" x2="1613.75" y1="42.5" y2="89" />
<line stroke="#567DB6" stroke-width="1" x1="858" x2="1517.75" y1="42.5" y2="89" />
<line stroke="#567DB6" stroke-width="1" x1="858" x2="1421.75" y1="42.5" y2="89" />
<line stroke="#567DB6" stroke-width="1" x1="858" x2="1325.75" y1="42.5" y2="89" />
<line stroke="#567DB6" stroke-width="1" x1="858" x2="1229.75" y1="42.5" y2="89" />
<line stroke="#567DB6" stroke-width="1" x1="858" x2="1133.75" y1="42.5" y2="89" />
<line stroke="#567DB6" stroke-width="1" x1="858" x2="1037.75" y1="42.5" y2="89" />
<line stroke="#567DB6" stroke-width="1" x1="858" x2="941.75" y1="42.5" y2="89" />
<line stroke="#567DB6" stroke-width="1" x1="858" x2="845.75" y1="42.5" y2="89" />
<line stroke="#567DB6" stroke-width="1" x1="858" x2="749.75" y1="42.5" y2="89" />
<line stroke="#567DB6" stroke-width="1" x1="858" x2="653.75" y1="42.5" y2="89" />
<line stroke="#567DB6" stroke-width="1" x1="858" x2="557.75" y1="42.5" y2="89" />
<line stroke="#567DB6" stroke-width="1" x1="858" x2="461.75" y1="42.5" y2="89" />
<line stroke="#567DB6" stroke-width="1" x1="858" x2="365.75" y1="42.5" y2="89" />
<line stroke="#567DB6" stroke-width="1" x1="858" x2="269.75" y1="42.5" y2="89" />
<line stroke="#567DB6" stroke-width="1" x1="858" x2="173.75" y1="42.5" y2="89" />
<text class="title-left" x="90" y="9">upper</text>
<text class="title-right" x="1626" y="9">lower</text>
<rect fill="#DEE6F1" height="24" width="24" x="846" y="18" />
<rect fill="none" height="24" stroke="#405C86" stroke-width="2" width="24" x="846" y="18" />
<text class="register-name" x="80" y="30">[mem]</text>
<text class="intrinsic-name" x="80" y="42">*base</text>
<text class="register-number" x="10" y="30">(1)</text>
<rect fill="#DEE6F1" height="24" width="24.5" x="1601.5" y="90" />
<rect fill="none" height="24" stroke="#405C86" stroke-width="2" width="96" x="1530" y="90" />
<rect fill="#DEE6F1" height="24" width="24.5" x="1505.5" y="90" />
<rect fill="none" height="24" stroke="#405C86" stroke-width="2" width="96" x="1434" y="90" />
<rect fill="#DEE6F1" height="24" width="24.5" x="1409.5" y="90" />
<rect fill="none" height="24" stroke="#405C86" stroke-width="2" width="96" x="1338" y="90" />
<rect fill="#DEE6F1" height="24" width="24.5" x="1313.5" y="90" />
<rect fill="none" height="24" stroke="#405C86" stroke-width="2" width="96" x="1242" y="90" />
<rect fill="#DEE6F1" height="24" width="24.5" x="1217.5" y="90" />
<rect fill="none" height="24" stroke="#405C86" stroke-width="2" width="96" x="1146" y="90" />
<rect fill="#DEE6F1" height="24" width="24.5" x="1121.5" y="90" />
<rect fill="none" height="24" stroke="#405C86" stroke-width="2" width="96" x="1050" y="90" />
<rect fill="#DEE6F1" height="24" width="24.5" x="1025.5" y="90" />
<rect fill="none" height="24" stroke="#405C86" stroke-width="2" width="96" x="954" y="90" />
<rect fill="#DEE6F1" height="24" width="24.5" x="929.5" y="90" />
<rect fill="none" height="24" stroke="#405C86" stroke-width="2" width="96" x="858" y="90" />
<rect fill="#DEE6F1" height="24" width="24.5" x="833.5" y="90" />
<rect fill="none" height="24" stroke="#405C86" stroke-width="2" width="96" x="762" y="90" />
<rect fill="#DEE6F1" height="24" width="24.5" x="737.5" y="90" />
<rect fill="none" height="24" stroke="#405C86" stroke-width="2" width="96" x="666" y="90" />
<rect fill="#DEE6F1" height="24" width="24.5" x="641.5" y="90" />
<rect fill="none" height="24" stroke="#405C86" stroke-width="2" width="96" x="570" y="90" />
<rect fill="#DEE6F1" height="24" width="24.5" x="545.5" y="90" />
<rect fill="none" height="24" stroke="#405C86" stroke-width="2" width="96" x="474" y="90" />
<rect fill="#DEE6F1" height="24" width="24.5" x="449.5" y="90" />
<rect fill="none" height="24" stroke="#405C86" stroke-width="2" width="96" x="378" y="90" />
<rect fill="#DEE6F1" height="24" width="24.5" x="353.5" y="90" />
<rect fill="none" height="24" stroke="#405C86" stroke-width="2" width="96" x="282" y="90" />
<rect fill="#DEE6F1" height="24" width="24.5" x="257.5" y="90" />
<rect fill="none" height="24" stroke="#405C86" stroke-width="2" width="96" x="186" y="90" />
<rect fill="#DEE6F1" height="24" width="24.5" x="161.5" y="90" />
<rect fill="none" height="24" stroke="#405C86" stroke-width="2" width="96" x="90" y="90" />
<text class="register-name" x="80" y="102">Zt</text>
<text class="intrinsic-name" x="80" y="114">returns</text>
<text class="register-number" x="10" y="102">(2)</text>
<line marker-end="url(#arrowhead)" stroke="none" x1="858" x2="1613.75" y1="42.5" y2="89" />
<line marker-end="url(#arrowhead)" stroke="none" x1="858" x2="1517.75" y1="42.5" y2="89" />
<line marker-end="url(#arrowhead)" stroke="none" x1="858" x2="1421.75" y1="42.5" y2="89" />
<line marker-end="url(#arrowhead)" stroke="none" x1="858" x2="1325.75" y1="42.5" y2="89" />
<line marker-end="url(#arrowhead)" stroke="none" x1="858" x2="1229.75" y1="42.5" y2="89" />
<line marker-end="url(#arrowhead)" stroke="none" x1="858" x2="1133.75" y1="42.5" y2="89" />
<line marker-end="url(#arrowhead)" stroke="none" x1="858" x2="1037.75" y1="42.5" y2="89" />
<line marker-end="url(#arrowhead)" stroke="none" x1="858" x2="941.75" y1="42.5" y2="89" />
<line marker-end="url(#arrowhead)" stroke="none" x1="858" x2="845.75" y1="42.5" y2="89" />
<line marker-end="url(#arrowhead)" stroke="none" x1="858" x2="749.75" y1="42.5" y2="89" />
<line marker-end="url(#arrowhead)" stroke="none" x1="858" x2="653.75" y1="42.5" y2="89" />
<line marker-end="url(#arrowhead)" stroke="none" x1="858" x2="557.75" y1="42.5" y2="89" />
<line marker-end="url(#arrowhead)" stroke="none" x1="858" x2="461.75" y1="42.5" y2="89" />
<line marker-end="url(#arrowhead)" stroke="none" x1="858" x2="365.75" y1="42.5" y2="89" />
<line marker-end="url(#arrowhead)" stroke="none" x1="858" x2="269.75" y1="42.5" y2="89" />
<line marker-end="url(#arrowhead)" stroke="none" x1="858" x2="173.75" y1="42.5" y2="89" />
</svg>