<svg xmlns="http://www.w3.org/2000/svg" viewBox="0 0 6246 123">
<style>
.label { font: 14px Helvetica; dominant-baseline: middle; text-anchor: middle; }
.title-left { font: 12px Helvetica; dominant-baseline: middle; }
.title-right { font: 12px Helvetica; dominant-baseline: middle; text-anchor: end; }
.title-intrinsic { font: 12px Helvetica; dominant-baseline: middle; text-anchor: middle; fill: #6778ED; }
.title { font: 12px Helvetica; dominant-baseline: middle; text-anchor: middle; }
.title-unused { font: 12px Helvetica; dominant-baseline: middle; text-anchor: middle; fill: #AAA; }
.register-name { font: 14px Helvetica; dominant-baseline: middle; text-anchor: end; font-style: italic; }
.memory-name { font: 14px Helvetica; dominant-baseline: middle; text-anchor: end; }
.register-number { font: 14px Helvetica; dominant-baseline: middle; text-anchor: start; }
.intrinsic-name { font: 14px Helvetica; dominant-baseline: middle; text-anchor: end; fill: #6778ED; }
.intrinsic-color { fill: #6778ED; }
.small-label { font: 12px Helvetica; dominant-baseline: middle; text-anchor: middle; }
.label-10px { font: 10px Helvetica; dominant-baseline: middle; text-anchor: middle; }
.smaller-label { font: 9px Helvetica; dominant-baseline: middle; text-anchor: middle; }
.label-6px { font: 6px Helvetica; dominant-baseline: middle; text-anchor: middle; }
.label-7px { font: 7px Helvetica; dominant-baseline: middle; text-anchor: middle; }
.unused { fill: #AAA; }
.dim { fill: #888; }
</style>
<defs>
<marker id="arrowhead" markerWidth="10.75" markerHeight="24.5" refX="9.0" refY="6.125" orient="auto">
<polyline points="0.5 0.5, 8.75 6.125, 0.5 11.75" stroke="#567DB6" stroke-width="1" fill="none"/>
</marker>
</defs>
<line stroke="#567DB6" stroke-width="1" x1="3162" x2="6210" y1="42.5" y2="89" />
<line stroke="#567DB6" stroke-width="1" x1="3162" x2="6114" y1="42.5" y2="89" />
<line stroke="#567DB6" stroke-width="1" x1="3162" x2="6018" y1="42.5" y2="89" />
<line stroke="#567DB6" stroke-width="1" x1="3162" x2="5922" y1="42.5" y2="89" />
<line stroke="#567DB6" stroke-width="1" x1="3162" x2="5826" y1="42.5" y2="89" />
<line stroke="#567DB6" stroke-width="1" x1="3162" x2="5730" y1="42.5" y2="89" />
<line stroke="#567DB6" stroke-width="1" x1="3162" x2="5634" y1="42.5" y2="89" />
<line stroke="#567DB6" stroke-width="1" x1="3162" x2="5538" y1="42.5" y2="89" />
<line stroke="#567DB6" stroke-width="1" x1="3162" x2="5442" y1="42.5" y2="89" />
<line stroke="#567DB6" stroke-width="1" x1="3162" x2="5346" y1="42.5" y2="89" />
<line stroke="#567DB6" stroke-width="1" x1="3162" x2="5250" y1="42.5" y2="89" />
<line stroke="#567DB6" stroke-width="1" x1="3162" x2="5154" y1="42.5" y2="89" />
<line stroke="#567DB6" stroke-width="1" x1="3162" x2="5058" y1="42.5" y2="89" />
<line stroke="#567DB6" stroke-width="1" x1="3162" x2="4962" y1="42.5" y2="89" />
<line stroke="#567DB6" stroke-width="1" x1="3162" x2="4866" y1="42.5" y2="89" />
<line stroke="#567DB6" stroke-width="1" x1="3162" x2="4770" y1="42.5" y2="89" />
<line stroke="#567DB6" stroke-width="1" x1="3162" x2="4674" y1="42.5" y2="89" />
<line stroke="#567DB6" stroke-width="1" x1="3162" x2="4578" y1="42.5" y2="89" />
<line stroke="#567DB6" stroke-width="1" x1="3162" x2="4482" y1="42.5" y2="89" />
<line stroke="#567DB6" stroke-width="1" x1="3162" x2="4386" y1="42.5" y2="89" />
<line stroke="#567DB6" stroke-width="1" x1="3162" x2="4290" y1="42.5" y2="89" />
<line stroke="#567DB6" stroke-width="1" x1="3162" x2="4194" y1="42.5" y2="89" />
<line stroke="#567DB6" stroke-width="1" x1="3162" x2="4098" y1="42.5" y2="89" />
<line stroke="#567DB6" stroke-width="1" x1="3162" x2="4002" y1="42.5" y2="89" />
<line stroke="#567DB6" stroke-width="1" x1="3162" x2="3906" y1="42.5" y2="89" />
<line stroke="#567DB6" stroke-width="1" x1="3162" x2="3810" y1="42.5" y2="89" />
<line stroke="#567DB6" stroke-width="1" x1="3162" x2="3714" y1="42.5" y2="89" />
<line stroke="#567DB6" stroke-width="1" x1="3162" x2="3618" y1="42.5" y2="89" />
<line stroke="#567DB6" stroke-width="1" x1="3162" x2="3522" y1="42.5" y2="89" />
<line stroke="#567DB6" stroke-width="1" x1="3162" x2="3426" y1="42.5" y2="89" />
<line stroke="#567DB6" stroke-width="1" x1="3162" x2="3330" y1="42.5" y2="89" />
<line stroke="#567DB6" stroke-width="1" x1="3162" x2="3234" y1="42.5" y2="89" />
<line stroke="#567DB6" stroke-width="1" x1="3162" x2="3138" y1="42.5" y2="89" />
<line stroke="#567DB6" stroke-width="1" x1="3162" x2="3042" y1="42.5" y2="89" />
<line stroke="#567DB6" stroke-width="1" x1="3162" x2="2946" y1="42.5" y2="89" />
<line stroke="#567DB6" stroke-width="1" x1="3162" x2="2850" y1="42.5" y2="89" />
<line stroke="#567DB6" stroke-width="1" x1="3162" x2="2754" y1="42.5" y2="89" />
<line stroke="#567DB6" stroke-width="1" x1="3162" x2="2658" y1="42.5" y2="89" />
<line stroke="#567DB6" stroke-width="1" x1="3162" x2="2562" y1="42.5" y2="89" />
<line stroke="#567DB6" stroke-width="1" x1="3162" x2="2466" y1="42.5" y2="89" />
<line stroke="#567DB6" stroke-width="1" x1="3162" x2="2370" y1="42.5" y2="89" />
<line stroke="#567DB6" stroke-width="1" x1="3162" x2="2274" y1="42.5" y2="89" />
<line stroke="#567DB6" stroke-width="1" x1="3162" x2="2178" y1="42.5" y2="89" />
<line stroke="#567DB6" stroke-width="1" x1="3162" x2="2082" y1="42.5" y2="89" />
<line stroke="#567DB6" stroke-width="1" x1="3162" x2="1986" y1="42.5" y2="89" />
<line stroke="#567DB6" stroke-width="1" x1="3162" x2="1890" y1="42.5" y2="89" />
<line stroke="#567DB6" stroke-width="1" x1="3162" x2="1794" y1="42.5" y2="89" />
<line stroke="#567DB6" stroke-width="1" x1="3162" x2="1698" y1="42.5" y2="89" />
<line stroke="#567DB6" stroke-width="1" x1="3162" x2="1602" y1="42.5" y2="89" />
<line stroke="#567DB6" stroke-width="1" x1="3162" x2="1506" y1="42.5" y2="89" />
<line stroke="#567DB6" stroke-width="1" x1="3162" x2="1410" y1="42.5" y2="89" />
<line stroke="#567DB6" stroke-width="1" x1="3162" x2="1314" y1="42.5" y2="89" />
<line stroke="#567DB6" stroke-width="1" x1="3162" x2="1218" y1="42.5" y2="89" />
<line stroke="#567DB6" stroke-width="1" x1="3162" x2="1122" y1="42.5" y2="89" />
<line stroke="#567DB6" stroke-width="1" x1="3162" x2="1026" y1="42.5" y2="89" />
<line stroke="#567DB6" stroke-width="1" x1="3162" x2="930" y1="42.5" y2="89" />
<line stroke="#567DB6" stroke-width="1" x1="3162" x2="834" y1="42.5" y2="89" />
<line stroke="#567DB6" stroke-width="1" x1="3162" x2="738" y1="42.5" y2="89" />
<line stroke="#567DB6" stroke-width="1" x1="3162" x2="642" y1="42.5" y2="89" />
<line stroke="#567DB6" stroke-width="1" x1="3162" x2="546" y1="42.5" y2="89" />
<line stroke="#567DB6" stroke-width="1" x1="3162" x2="450" y1="42.5" y2="89" />
<line stroke="#567DB6" stroke-width="1" x1="3162" x2="354" y1="42.5" y2="89" />
<line stroke="#567DB6" stroke-width="1" x1="3162" x2="258" y1="42.5" y2="89" />
<line stroke="#567DB6" stroke-width="1" x1="3162" x2="162" y1="42.5" y2="89" />
<text class="title-left" x="90" y="9">upper</text>
<text class="title-right" x="6234" y="9">lower</text>
<rect fill="#DEE6F1" height="24" width="48" x="3138" y="18" />
<rect fill="none" height="24" stroke="#405C86" stroke-width="2" width="48" x="3138" y="18" />
<text class="register-name" x="80" y="30">[mem]</text>
<text class="intrinsic-name" x="80" y="42">*base</text>
<text class="register-number" x="10" y="30">(1)</text>
<rect fill="#DEE6F1" height="24" width="48" x="6186" y="90" />
<rect fill="none" height="24" stroke="#405C86" stroke-width="2" width="96" x="6138" y="90" />
<rect fill="#DEE6F1" height="24" width="48" x="6090" y="90" />
<rect fill="none" height="24" stroke="#405C86" stroke-width="2" width="96" x="6042" y="90" />
<rect fill="#DEE6F1" height="24" width="48" x="5994" y="90" />
<rect fill="none" height="24" stroke="#405C86" stroke-width="2" width="96" x="5946" y="90" />
<rect fill="#DEE6F1" height="24" width="48" x="5898" y="90" />
<rect fill="none" height="24" stroke="#405C86" stroke-width="2" width="96" x="5850" y="90" />
<rect fill="#DEE6F1" height="24" width="48" x="5802" y="90" />
<rect fill="none" height="24" stroke="#405C86" stroke-width="2" width="96" x="5754" y="90" />
<rect fill="#DEE6F1" height="24" width="48" x="5706" y="90" />
<rect fill="none" height="24" stroke="#405C86" stroke-width="2" width="96" x="5658" y="90" />
<rect fill="#DEE6F1" height="24" width="48" x="5610" y="90" />
<rect fill="none" height="24" stroke="#405C86" stroke-width="2" width="96" x="5562" y="90" />
<rect fill="#DEE6F1" height="24" width="48" x="5514" y="90" />
<rect fill="none" height="24" stroke="#405C86" stroke-width="2" width="96" x="5466" y="90" />
<rect fill="#DEE6F1" height="24" width="48" x="5418" y="90" />
<rect fill="none" height="24" stroke="#405C86" stroke-width="2" width="96" x="5370" y="90" />
<rect fill="#DEE6F1" height="24" width="48" x="5322" y="90" />
<rect fill="none" height="24" stroke="#405C86" stroke-width="2" width="96" x="5274" y="90" />
<rect fill="#DEE6F1" height="24" width="48" x="5226" y="90" />
<rect fill="none" height="24" stroke="#405C86" stroke-width="2" width="96" x="5178" y="90" />
<rect fill="#DEE6F1" height="24" width="48" x="5130" y="90" />
<rect fill="none" height="24" stroke="#405C86" stroke-width="2" width="96" x="5082" y="90" />
<rect fill="#DEE6F1" height="24" width="48" x="5034" y="90" />
<rect fill="none" height="24" stroke="#405C86" stroke-width="2" width="96" x="4986" y="90" />
<rect fill="#DEE6F1" height="24" width="48" x="4938" y="90" />
<rect fill="none" height="24" stroke="#405C86" stroke-width="2" width="96" x="4890" y="90" />
<rect fill="#DEE6F1" height="24" width="48" x="4842" y="90" />
<rect fill="none" height="24" stroke="#405C86" stroke-width="2" width="96" x="4794" y="90" />
<rect fill="#DEE6F1" height="24" width="48" x="4746" y="90" />
<rect fill="none" height="24" stroke="#405C86" stroke-width="2" width="96" x="4698" y="90" />
<rect fill="#DEE6F1" height="24" width="48" x="4650" y="90" />
<rect fill="none" height="24" stroke="#405C86" stroke-width="2" width="96" x="4602" y="90" />
<rect fill="#DEE6F1" height="24" width="48" x="4554" y="90" />
<rect fill="none" height="24" stroke="#405C86" stroke-width="2" width="96" x="4506" y="90" />
<rect fill="#DEE6F1" height="24" width="48" x="4458" y="90" />
<rect fill="none" height="24" stroke="#405C86" stroke-width="2" width="96" x="4410" y="90" />
<rect fill="#DEE6F1" height="24" width="48" x="4362" y="90" />
<rect fill="none" height="24" stroke="#405C86" stroke-width="2" width="96" x="4314" y="90" />
<rect fill="#DEE6F1" height="24" width="48" x="4266" y="90" />
<rect fill="none" height="24" stroke="#405C86" stroke-width="2" width="96" x="4218" y="90" />
<rect fill="#DEE6F1" height="24" width="48" x="4170" y="90" />
<rect fill="none" height="24" stroke="#405C86" stroke-width="2" width="96" x="4122" y="90" />
<rect fill="#DEE6F1" height="24" width="48" x="4074" y="90" />
<rect fill="none" height="24" stroke="#405C86" stroke-width="2" width="96" x="4026" y="90" />
<rect fill="#DEE6F1" height="24" width="48" x="3978" y="90" />
<rect fill="none" height="24" stroke="#405C86" stroke-width="2" width="96" x="3930" y="90" />
<rect fill="#DEE6F1" height="24" width="48" x="3882" y="90" />
<rect fill="none" height="24" stroke="#405C86" stroke-width="2" width="96" x="3834" y="90" />
<rect fill="#DEE6F1" height="24" width="48" x="3786" y="90" />
<rect fill="none" height="24" stroke="#405C86" stroke-width="2" width="96" x="3738" y="90" />
<rect fill="#DEE6F1" height="24" width="48" x="3690" y="90" />
<rect fill="none" height="24" stroke="#405C86" stroke-width="2" width="96" x="3642" y="90" />
<rect fill="#DEE6F1" height="24" width="48" x="3594" y="90" />
<rect fill="none" height="24" stroke="#405C86" stroke-width="2" width="96" x="3546" y="90" />
<rect fill="#DEE6F1" height="24" width="48" x="3498" y="90" />
<rect fill="none" height="24" stroke="#405C86" stroke-width="2" width="96" x="3450" y="90" />
<rect fill="#DEE6F1" height="24" width="48" x="3402" y="90" />
<rect fill="none" height="24" stroke="#405C86" stroke-width="2" width="96" x="3354" y="90" />
<rect fill="#DEE6F1" height="24" width="48" x="3306" y="90" />
<rect fill="none" height="24" stroke="#405C86" stroke-width="2" width="96" x="3258" y="90" />
<rect fill="#DEE6F1" height="24" width="48" x="3210" y="90" />
<rect fill="none" height="24" stroke="#405C86" stroke-width="2" width="96" x="3162" y="90" />
<rect fill="#DEE6F1" height="24" width="48" x="3114" y="90" />
<rect fill="none" height="24" stroke="#405C86" stroke-width="2" width="96" x="3066" y="90" />
<rect fill="#DEE6F1" height="24" width="48" x="3018" y="90" />
<rect fill="none" height="24" stroke="#405C86" stroke-width="2" width="96" x="2970" y="90" />
<rect fill="#DEE6F1" height="24" width="48" x="2922" y="90" />
<rect fill="none" height="24" stroke="#405C86" stroke-width="2" width="96" x="2874" y="90" />
<rect fill="#DEE6F1" height="24" width="48" x="2826" y="90" />
<rect fill="none" height="24" stroke="#405C86" stroke-width="2" width="96" x="2778" y="90" />
<rect fill="#DEE6F1" height="24" width="48" x="2730" y="90" />
<rect fill="none" height="24" stroke="#405C86" stroke-width="2" width="96" x="2682" y="90" />
<rect fill="#DEE6F1" height="24" width="48" x="2634" y="90" />
<rect fill="none" height="24" stroke="#405C86" stroke-width="2" width="96" x="2586" y="90" />
<rect fill="#DEE6F1" height="24" width="48" x="2538" y="90" />
<rect fill="none" height="24" stroke="#405C86" stroke-width="2" width="96" x="2490" y="90" />
<rect fill="#DEE6F1" height="24" width="48" x="2442" y="90" />
<rect fill="none" height="24" stroke="#405C86" stroke-width="2" width="96" x="2394" y="90" />
<rect fill="#DEE6F1" height="24" width="48" x="2346" y="90" />
<rect fill="none" height="24" stroke="#405C86" stroke-width="2" width="96" x="2298" y="90" />
<rect fill="#DEE6F1" height="24" width="48" x="2250" y="90" />
<rect fill="none" height="24" stroke="#405C86" stroke-width="2" width="96" x="2202" y="90" />
<rect fill="#DEE6F1" height="24" width="48" x="2154" y="90" />
<rect fill="none" height="24" stroke="#405C86" stroke-width="2" width="96" x="2106" y="90" />
<rect fill="#DEE6F1" height="24" width="48" x="2058" y="90" />
<rect fill="none" height="24" stroke="#405C86" stroke-width="2" width="96" x="2010" y="90" />
<rect fill="#DEE6F1" height="24" width="48" x="1962" y="90" />
<rect fill="none" height="24" stroke="#405C86" stroke-width="2" width="96" x="1914" y="90" />
<rect fill="#DEE6F1" height="24" width="48" x="1866" y="90" />
<rect fill="none" height="24" stroke="#405C86" stroke-width="2" width="96" x="1818" y="90" />
<rect fill="#DEE6F1" height="24" width="48" x="1770" y="90" />
<rect fill="none" height="24" stroke="#405C86" stroke-width="2" width="96" x="1722" y="90" />
<rect fill="#DEE6F1" height="24" width="48" x="1674" y="90" />
<rect fill="none" height="24" stroke="#405C86" stroke-width="2" width="96" x="1626" y="90" />
<rect fill="#DEE6F1" height="24" width="48" x="1578" y="90" />
<rect fill="none" height="24" stroke="#405C86" stroke-width="2" width="96" x="1530" y="90" />
<rect fill="#DEE6F1" height="24" width="48" x="1482" y="90" />
<rect fill="none" height="24" stroke="#405C86" stroke-width="2" width="96" x="1434" y="90" />
<rect fill="#DEE6F1" height="24" width="48" x="1386" y="90" />
<rect fill="none" height="24" stroke="#405C86" stroke-width="2" width="96" x="1338" y="90" />
<rect fill="#DEE6F1" height="24" width="48" x="1290" y="90" />
<rect fill="none" height="24" stroke="#405C86" stroke-width="2" width="96" x="1242" y="90" />
<rect fill="#DEE6F1" height="24" width="48" x="1194" y="90" />
<rect fill="none" height="24" stroke="#405C86" stroke-width="2" width="96" x="1146" y="90" />
<rect fill="#DEE6F1" height="24" width="48" x="1098" y="90" />
<rect fill="none" height="24" stroke="#405C86" stroke-width="2" width="96" x="1050" y="90" />
<rect fill="#DEE6F1" height="24" width="48" x="1002" y="90" />
<rect fill="none" height="24" stroke="#405C86" stroke-width="2" width="96" x="954" y="90" />
<rect fill="#DEE6F1" height="24" width="48" x="906" y="90" />
<rect fill="none" height="24" stroke="#405C86" stroke-width="2" width="96" x="858" y="90" />
<rect fill="#DEE6F1" height="24" width="48" x="810" y="90" />
<rect fill="none" height="24" stroke="#405C86" stroke-width="2" width="96" x="762" y="90" />
<rect fill="#DEE6F1" height="24" width="48" x="714" y="90" />
<rect fill="none" height="24" stroke="#405C86" stroke-width="2" width="96" x="666" y="90" />
<rect fill="#DEE6F1" height="24" width="48" x="618" y="90" />
<rect fill="none" height="24" stroke="#405C86" stroke-width="2" width="96" x="570" y="90" />
<rect fill="#DEE6F1" height="24" width="48" x="522" y="90" />
<rect fill="none" height="24" stroke="#405C86" stroke-width="2" width="96" x="474" y="90" />
<rect fill="#DEE6F1" height="24" width="48" x="426" y="90" />
<rect fill="none" height="24" stroke="#405C86" stroke-width="2" width="96" x="378" y="90" />
<rect fill="#DEE6F1" height="24" width="48" x="330" y="90" />
<rect fill="none" height="24" stroke="#405C86" stroke-width="2" width="96" x="282" y="90" />
<rect fill="#DEE6F1" height="24" width="48" x="234" y="90" />
<rect fill="none" height="24" stroke="#405C86" stroke-width="2" width="96" x="186" y="90" />
<rect fill="#DEE6F1" height="24" width="48" x="138" y="90" />
<rect fill="none" height="24" stroke="#405C86" stroke-width="2" width="96" x="90" y="90" />
<text class="register-name" x="80" y="102">Zt</text>
<text class="intrinsic-name" x="80" y="114">returns</text>
<text class="register-number" x="10" y="102">(2)</text>
<line marker-end="url(#arrowhead)" stroke="none" x1="3162" x2="6210" y1="42.5" y2="89" />
<line marker-end="url(#arrowhead)" stroke="none" x1="3162" x2="6114" y1="42.5" y2="89" />
<line marker-end="url(#arrowhead)" stroke="none" x1="3162" x2="6018" y1="42.5" y2="89" />
<line marker-end="url(#arrowhead)" stroke="none" x1="3162" x2="5922" y1="42.5" y2="89" />
<line marker-end="url(#arrowhead)" stroke="none" x1="3162" x2="5826" y1="42.5" y2="89" />
<line marker-end="url(#arrowhead)" stroke="none" x1="3162" x2="5730" y1="42.5" y2="89" />
<line marker-end="url(#arrowhead)" stroke="none" x1="3162" x2="5634" y1="42.5" y2="89" />
<line marker-end="url(#arrowhead)" stroke="none" x1="3162" x2="5538" y1="42.5" y2="89" />
<line marker-end="url(#arrowhead)" stroke="none" x1="3162" x2="5442" y1="42.5" y2="89" />
<line marker-end="url(#arrowhead)" stroke="none" x1="3162" x2="5346" y1="42.5" y2="89" />
<line marker-end="url(#arrowhead)" stroke="none" x1="3162" x2="5250" y1="42.5" y2="89" />
<line marker-end="url(#arrowhead)" stroke="none" x1="3162" x2="5154" y1="42.5" y2="89" />
<line marker-end="url(#arrowhead)" stroke="none" x1="3162" x2="5058" y1="42.5" y2="89" />
<line marker-end="url(#arrowhead)" stroke="none" x1="3162" x2="4962" y1="42.5" y2="89" />
<line marker-end="url(#arrowhead)" stroke="none" x1="3162" x2="4866" y1="42.5" y2="89" />
<line marker-end="url(#arrowhead)" stroke="none" x1="3162" x2="4770" y1="42.5" y2="89" />
<line marker-end="url(#arrowhead)" stroke="none" x1="3162" x2="4674" y1="42.5" y2="89" />
<line marker-end="url(#arrowhead)" stroke="none" x1="3162" x2="4578" y1="42.5" y2="89" />
<line marker-end="url(#arrowhead)" stroke="none" x1="3162" x2="4482" y1="42.5" y2="89" />
<line marker-end="url(#arrowhead)" stroke="none" x1="3162" x2="4386" y1="42.5" y2="89" />
<line marker-end="url(#arrowhead)" stroke="none" x1="3162" x2="4290" y1="42.5" y2="89" />
<line marker-end="url(#arrowhead)" stroke="none" x1="3162" x2="4194" y1="42.5" y2="89" />
<line marker-end="url(#arrowhead)" stroke="none" x1="3162" x2="4098" y1="42.5" y2="89" />
<line marker-end="url(#arrowhead)" stroke="none" x1="3162" x2="4002" y1="42.5" y2="89" />
<line marker-end="url(#arrowhead)" stroke="none" x1="3162" x2="3906" y1="42.5" y2="89" />
<line marker-end="url(#arrowhead)" stroke="none" x1="3162" x2="3810" y1="42.5" y2="89" />
<line marker-end="url(#arrowhead)" stroke="none" x1="3162" x2="3714" y1="42.5" y2="89" />
<line marker-end="url(#arrowhead)" stroke="none" x1="3162" x2="3618" y1="42.5" y2="89" />
<line marker-end="url(#arrowhead)" stroke="none" x1="3162" x2="3522" y1="42.5" y2="89" />
<line marker-end="url(#arrowhead)" stroke="none" x1="3162" x2="3426" y1="42.5" y2="89" />
<line marker-end="url(#arrowhead)" stroke="none" x1="3162" x2="3330" y1="42.5" y2="89" />
<line marker-end="url(#arrowhead)" stroke="none" x1="3162" x2="3234" y1="42.5" y2="89" />
<line marker-end="url(#arrowhead)" stroke="none" x1="3162" x2="3138" y1="42.5" y2="89" />
<line marker-end="url(#arrowhead)" stroke="none" x1="3162" x2="3042" y1="42.5" y2="89" />
<line marker-end="url(#arrowhead)" stroke="none" x1="3162" x2="2946" y1="42.5" y2="89" />
<line marker-end="url(#arrowhead)" stroke="none" x1="3162" x2="2850" y1="42.5" y2="89" />
<line marker-end="url(#arrowhead)" stroke="none" x1="3162" x2="2754" y1="42.5" y2="89" />
<line marker-end="url(#arrowhead)" stroke="none" x1="3162" x2="2658" y1="42.5" y2="89" />
<line marker-end="url(#arrowhead)" stroke="none" x1="3162" x2="2562" y1="42.5" y2="89" />
<line marker-end="url(#arrowhead)" stroke="none" x1="3162" x2="2466" y1="42.5" y2="89" />
<line marker-end="url(#arrowhead)" stroke="none" x1="3162" x2="2370" y1="42.5" y2="89" />
<line marker-end="url(#arrowhead)" stroke="none" x1="3162" x2="2274" y1="42.5" y2="89" />
<line marker-end="url(#arrowhead)" stroke="none" x1="3162" x2="2178" y1="42.5" y2="89" />
<line marker-end="url(#arrowhead)" stroke="none" x1="3162" x2="2082" y1="42.5" y2="89" />
<line marker-end="url(#arrowhead)" stroke="none" x1="3162" x2="1986" y1="42.5" y2="89" />
<line marker-end="url(#arrowhead)" stroke="none" x1="3162" x2="1890" y1="42.5" y2="89" />
<line marker-end="url(#arrowhead)" stroke="none" x1="3162" x2="1794" y1="42.5" y2="89" />
<line marker-end="url(#arrowhead)" stroke="none" x1="3162" x2="1698" y1="42.5" y2="89" />
<line marker-end="url(#arrowhead)" stroke="none" x1="3162" x2="1602" y1="42.5" y2="89" />
<line marker-end="url(#arrowhead)" stroke="none" x1="3162" x2="1506" y1="42.5" y2="89" />
<line marker-end="url(#arrowhead)" stroke="none" x1="3162" x2="1410" y1="42.5" y2="89" />
<line marker-end="url(#arrowhead)" stroke="none" x1="3162" x2="1314" y1="42.5" y2="89" />
<line marker-end="url(#arrowhead)" stroke="none" x1="3162" x2="1218" y1="42.5" y2="89" />
<line marker-end="url(#arrowhead)" stroke="none" x1="3162" x2="1122" y1="42.5" y2="89" />
<line marker-end="url(#arrowhead)" stroke="none" x1="3162" x2="1026" y1="42.5" y2="89" />
<line marker-end="url(#arrowhead)" stroke="none" x1="3162" x2="930" y1="42.5" y2="89" />
<line marker-end="url(#arrowhead)" stroke="none" x1="3162" x2="834" y1="42.5" y2="89" />
<line marker-end="url(#arrowhead)" stroke="none" x1="3162" x2="738" y1="42.5" y2="89" />
<line marker-end="url(#arrowhead)" stroke="none" x1="3162" x2="642" y1="42.5" y2="89" />
<line marker-end="url(#arrowhead)" stroke="none" x1="3162" x2="546" y1="42.5" y2="89" />
<line marker-end="url(#arrowhead)" stroke="none" x1="3162" x2="450" y1="42.5" y2="89" />
<line marker-end="url(#arrowhead)" stroke="none" x1="3162" x2="354" y1="42.5" y2="89" />
<line marker-end="url(#arrowhead)" stroke="none" x1="3162" x2="258" y1="42.5" y2="89" />
<line marker-end="url(#arrowhead)" stroke="none" x1="3162" x2="162" y1="42.5" y2="89" />
</svg>