<svg xmlns="http://www.w3.org/2000/svg" viewBox="0 0 870 219">
<style>
.label { font: 14px Helvetica; dominant-baseline: middle; text-anchor: middle; }
.title-left { font: 12px Helvetica; dominant-baseline: middle; }
.title-right { font: 12px Helvetica; dominant-baseline: middle; text-anchor: end; }
.title-intrinsic { font: 12px Helvetica; dominant-baseline: middle; text-anchor: middle; fill: #6778ED; }
.title { font: 12px Helvetica; dominant-baseline: middle; text-anchor: middle; }
.title-unused { font: 12px Helvetica; dominant-baseline: middle; text-anchor: middle; fill: #AAA; }
.register-name { font: 14px Helvetica; dominant-baseline: middle; text-anchor: end; font-style: italic; }
.memory-name { font: 14px Helvetica; dominant-baseline: middle; text-anchor: end; }
.register-number { font: 14px Helvetica; dominant-baseline: middle; text-anchor: start; }
.intrinsic-name { font: 14px Helvetica; dominant-baseline: middle; text-anchor: end; fill: #6778ED; }
.intrinsic-color { fill: #6778ED; }
.small-label { font: 12px Helvetica; dominant-baseline: middle; text-anchor: middle; }
.label-10px { font: 10px Helvetica; dominant-baseline: middle; text-anchor: middle; }
.smaller-label { font: 9px Helvetica; dominant-baseline: middle; text-anchor: middle; }
.label-6px { font: 6px Helvetica; dominant-baseline: middle; text-anchor: middle; }
.label-7px { font: 7px Helvetica; dominant-baseline: middle; text-anchor: middle; }
.unused { fill: #AAA; }
.dim { fill: #888; }
</style>
<defs>
<marker id="arrowhead" markerWidth="10.75" markerHeight="24.5" refX="9.0" refY="6.125" orient="auto">
<polyline points="0.5 0.5, 8.75 6.125, 0.5 11.75" stroke="#567DB6" stroke-width="1" fill="none"/>
</marker>
</defs>
<line stroke="#000" stroke-width="2" x1="474" x2="474" y1="178" y2="218" />
<text class="title-left" x="90" y="9">upper</text>
<text class="title-right" x="858" y="9">lower</text>
<rect fill="none" height="24" stroke="#405C86" stroke-width="2" width="12" x="840" y="18" />
<text class="label" x="846" y="31">0</text>
<rect fill="#DEE6F1" height="24" width="12" x="816" y="18" />
<rect fill="none" height="24" stroke="#405C86" stroke-width="2" width="12" x="816" y="18" />
<text class="label" x="822" y="31">1</text>
<rect fill="#DEE6F1" height="24" width="12" x="792" y="18" />
<rect fill="none" height="24" stroke="#405C86" stroke-width="2" width="12" x="792" y="18" />
<text class="label" x="798" y="31">1</text>
<rect fill="none" height="24" stroke="#405C86" stroke-width="2" width="12" x="768" y="18" />
<text class="label" x="774" y="31">0</text>
<rect fill="#DEE6F1" height="24" width="12" x="744" y="18" />
<rect fill="none" height="24" stroke="#405C86" stroke-width="2" width="12" x="744" y="18" />
<text class="label" x="750" y="31">1</text>
<rect fill="#DEE6F1" height="24" width="12" x="720" y="18" />
<rect fill="none" height="24" stroke="#405C86" stroke-width="2" width="12" x="720" y="18" />
<text class="label" x="726" y="31">1</text>
<rect fill="none" height="24" stroke="#405C86" stroke-width="2" width="12" x="696" y="18" />
<text class="label" x="702" y="31">0</text>
<rect fill="#DEE6F1" height="24" width="12" x="672" y="18" />
<rect fill="none" height="24" stroke="#405C86" stroke-width="2" width="12" x="672" y="18" />
<text class="label" x="678" y="31">1</text>
<rect fill="#DEE6F1" height="24" width="12" x="648" y="18" />
<rect fill="none" height="24" stroke="#405C86" stroke-width="2" width="12" x="648" y="18" />
<text class="label" x="654" y="31">1</text>
<rect fill="#DEE6F1" height="24" width="12" x="624" y="18" />
<rect fill="none" height="24" stroke="#405C86" stroke-width="2" width="12" x="624" y="18" />
<text class="label" x="630" y="31">1</text>
<rect fill="#DEE6F1" height="24" width="12" x="600" y="18" />
<rect fill="none" height="24" stroke="#405C86" stroke-width="2" width="12" x="600" y="18" />
<text class="label" x="606" y="31">1</text>
<rect fill="#DEE6F1" height="24" width="12" x="576" y="18" />
<rect fill="none" height="24" stroke="#405C86" stroke-width="2" width="12" x="576" y="18" />
<text class="label" x="582" y="31">1</text>
<rect fill="#DEE6F1" height="24" width="12" x="552" y="18" />
<rect fill="none" height="24" stroke="#405C86" stroke-width="2" width="12" x="552" y="18" />
<text class="label" x="558" y="31">1</text>
<rect fill="#DEE6F1" height="24" width="12" x="528" y="18" />
<rect fill="none" height="24" stroke="#405C86" stroke-width="2" width="12" x="528" y="18" />
<text class="label" x="534" y="31">1</text>
<rect fill="none" height="24" stroke="#405C86" stroke-width="2" width="12" x="504" y="18" />
<text class="label" x="510" y="31">0</text>
<rect fill="#DEE6F1" height="24" width="12" x="480" y="18" />
<rect fill="none" height="24" stroke="#405C86" stroke-width="2" width="12" x="480" y="18" />
<text class="label" x="486" y="31">1</text>
<rect fill="none" height="24" stroke="#405C86" stroke-dasharray="3 1" stroke-dashoffset="1.5" stroke-width="1" width="12" x="456" y="18" />
<text class="label unused" x="462" y="31"></text>
<rect fill="none" height="24" stroke="#405C86" stroke-dasharray="3 1" stroke-dashoffset="1.5" stroke-width="1" width="12" x="432" y="18" />
<text class="label unused" x="438" y="31"></text>
<rect fill="none" height="24" stroke="#405C86" stroke-dasharray="3 1" stroke-dashoffset="1.5" stroke-width="1" width="12" x="408" y="18" />
<text class="label unused" x="414" y="31"></text>
<rect fill="none" height="24" stroke="#405C86" stroke-dasharray="3 1" stroke-dashoffset="1.5" stroke-width="1" width="12" x="384" y="18" />
<text class="label unused" x="390" y="31"></text>
<rect fill="none" height="24" stroke="#405C86" stroke-dasharray="3 1" stroke-dashoffset="1.5" stroke-width="1" width="12" x="360" y="18" />
<text class="label unused" x="366" y="31"></text>
<rect fill="none" height="24" stroke="#405C86" stroke-dasharray="3 1" stroke-dashoffset="1.5" stroke-width="1" width="12" x="336" y="18" />
<text class="label unused" x="342" y="31"></text>
<rect fill="none" height="24" stroke="#405C86" stroke-dasharray="3 1" stroke-dashoffset="1.5" stroke-width="1" width="12" x="312" y="18" />
<text class="label unused" x="318" y="31"></text>
<rect fill="none" height="24" stroke="#405C86" stroke-dasharray="3 1" stroke-dashoffset="1.5" stroke-width="1" width="12" x="288" y="18" />
<text class="label unused" x="294" y="31"></text>
<rect fill="none" height="24" stroke="#405C86" stroke-dasharray="3 1" stroke-dashoffset="1.5" stroke-width="1" width="12" x="264" y="18" />
<text class="label unused" x="270" y="31"></text>
<rect fill="none" height="24" stroke="#405C86" stroke-dasharray="3 1" stroke-dashoffset="1.5" stroke-width="1" width="12" x="240" y="18" />
<text class="label unused" x="246" y="31"></text>
<rect fill="none" height="24" stroke="#405C86" stroke-dasharray="3 1" stroke-dashoffset="1.5" stroke-width="1" width="12" x="216" y="18" />
<text class="label unused" x="222" y="31"></text>
<rect fill="none" height="24" stroke="#405C86" stroke-dasharray="3 1" stroke-dashoffset="1.5" stroke-width="1" width="12" x="192" y="18" />
<text class="label unused" x="198" y="31"></text>
<rect fill="none" height="24" stroke="#405C86" stroke-dasharray="3 1" stroke-dashoffset="1.5" stroke-width="1" width="12" x="168" y="18" />
<text class="label unused" x="174" y="31"></text>
<rect fill="none" height="24" stroke="#405C86" stroke-dasharray="3 1" stroke-dashoffset="1.5" stroke-width="1" width="12" x="144" y="18" />
<text class="label unused" x="150" y="31"></text>
<rect fill="none" height="24" stroke="#405C86" stroke-dasharray="3 1" stroke-dashoffset="1.5" stroke-width="1" width="12" x="120" y="18" />
<text class="label unused" x="126" y="31"></text>
<rect fill="none" height="24" stroke="#405C86" stroke-dasharray="3 1" stroke-dashoffset="1.5" stroke-width="1" width="12" x="96" y="18" />
<text class="label unused" x="102" y="31"></text>
<text class="register-name" x="80" y="30">Pg</text>
<text class="intrinsic-name" x="80" y="42">pg</text>
<text class="register-number" x="10" y="30">(1)</text>
<rect fill="none" height="24" stroke="#405C86" stroke-width="2" width="24" x="834" y="66" />
<text class="smaller-label intrinsic-color" x="846" y="79">b[0]</text>
<rect fill="#DEE6F1" height="24" width="24" x="810" y="66" />
<rect fill="none" height="24" stroke="#405C86" stroke-width="2" width="24" x="810" y="66" />
<text class="smaller-label intrinsic-color" x="822" y="79">b[1]</text>
<rect fill="#DEE6F1" height="24" width="24" x="786" y="66" />
<rect fill="none" height="24" stroke="#405C86" stroke-width="2" width="24" x="786" y="66" />
<text class="smaller-label intrinsic-color" x="798" y="79">b[2]</text>
<rect fill="none" height="24" stroke="#405C86" stroke-width="2" width="24" x="762" y="66" />
<text class="smaller-label intrinsic-color" x="774" y="79">b[3]</text>
<rect fill="#DEE6F1" height="24" width="24" x="738" y="66" />
<rect fill="none" height="24" stroke="#405C86" stroke-width="2" width="24" x="738" y="66" />
<text class="smaller-label intrinsic-color" x="750" y="79">b[4]</text>
<rect fill="#DEE6F1" height="24" width="24" x="714" y="66" />
<rect fill="none" height="24" stroke="#405C86" stroke-width="2" width="24" x="714" y="66" />
<text class="smaller-label intrinsic-color" x="726" y="79">b[5]</text>
<rect fill="none" height="24" stroke="#405C86" stroke-width="2" width="24" x="690" y="66" />
<text class="smaller-label intrinsic-color" x="702" y="79">b[6]</text>
<rect fill="#DEE6F1" height="24" width="24" x="666" y="66" />
<rect fill="none" height="24" stroke="#405C86" stroke-width="2" width="24" x="666" y="66" />
<text class="smaller-label intrinsic-color" x="678" y="79">b[7]</text>
<rect fill="#DEE6F1" height="24" width="24" x="642" y="66" />
<rect fill="none" height="24" stroke="#405C86" stroke-width="2" width="24" x="642" y="66" />
<text class="smaller-label intrinsic-color" x="654" y="79">b[8]</text>
<rect fill="#DEE6F1" height="24" width="24" x="618" y="66" />
<rect fill="none" height="24" stroke="#405C86" stroke-width="2" width="24" x="618" y="66" />
<text class="smaller-label intrinsic-color" x="630" y="79">b[9]</text>
<rect fill="#DEE6F1" height="24" width="24" x="594" y="66" />
<rect fill="none" height="24" stroke="#405C86" stroke-width="2" width="24" x="594" y="66" />
<text class="smaller-label intrinsic-color" x="606" y="79">b[10]</text>
<rect fill="#DEE6F1" height="24" width="24" x="570" y="66" />
<rect fill="none" height="24" stroke="#405C86" stroke-width="2" width="24" x="570" y="66" />
<text class="smaller-label intrinsic-color" x="582" y="79">b[11]</text>
<rect fill="#DEE6F1" height="24" width="24" x="546" y="66" />
<rect fill="none" height="24" stroke="#405C86" stroke-width="2" width="24" x="546" y="66" />
<text class="smaller-label intrinsic-color" x="558" y="79">b[12]</text>
<rect fill="#DEE6F1" height="24" width="24" x="522" y="66" />
<rect fill="none" height="24" stroke="#405C86" stroke-width="2" width="24" x="522" y="66" />
<text class="smaller-label intrinsic-color" x="534" y="79">b[13]</text>
<rect fill="none" height="24" stroke="#405C86" stroke-width="2" width="24" x="498" y="66" />
<text class="smaller-label intrinsic-color" x="510" y="79">b[14]</text>
<rect fill="#DEE6F1" height="24" width="24" x="474" y="66" />
<rect fill="none" height="24" stroke="#405C86" stroke-width="2" width="24" x="474" y="66" />
<text class="smaller-label intrinsic-color" x="486" y="79">b[15]</text>
<text class="register-name" x="80" y="78">[mem]</text>
<text class="intrinsic-name" x="80" y="90">*base</text>
<text class="register-number" x="10" y="78">(2)</text>
<rect fill="#EEDDDB" height="24" width="24" x="834" y="114" />
<rect fill="none" height="24" stroke="#405C86" stroke-width="2" width="24" x="834" y="114" />
<text class="label" x="846" y="127">0</text>
<rect fill="#DEE6F1" height="24" width="24" x="810" y="114" />
<rect fill="none" height="24" stroke="#405C86" stroke-width="2" width="24" x="810" y="114" />
<rect fill="#DEE6F1" height="24" width="24" x="786" y="114" />
<rect fill="none" height="24" stroke="#405C86" stroke-width="2" width="24" x="786" y="114" />
<rect fill="#EEDDDB" height="24" width="24" x="762" y="114" />
<rect fill="none" height="24" stroke="#405C86" stroke-width="2" width="24" x="762" y="114" />
<text class="label" x="774" y="127">0</text>
<rect fill="#DEE6F1" height="24" width="24" x="738" y="114" />
<rect fill="none" height="24" stroke="#405C86" stroke-width="2" width="24" x="738" y="114" />
<rect fill="#DEE6F1" height="24" width="24" x="714" y="114" />
<rect fill="none" height="24" stroke="#405C86" stroke-width="2" width="24" x="714" y="114" />
<rect fill="#EEDDDB" height="24" width="24" x="690" y="114" />
<rect fill="none" height="24" stroke="#405C86" stroke-width="2" width="24" x="690" y="114" />
<text class="label" x="702" y="127">0</text>
<rect fill="#DEE6F1" height="24" width="24" x="666" y="114" />
<rect fill="none" height="24" stroke="#405C86" stroke-width="2" width="24" x="666" y="114" />
<rect fill="#DEE6F1" height="24" width="24" x="642" y="114" />
<rect fill="none" height="24" stroke="#405C86" stroke-width="2" width="24" x="642" y="114" />
<rect fill="#DEE6F1" height="24" width="24" x="618" y="114" />
<rect fill="none" height="24" stroke="#405C86" stroke-width="2" width="24" x="618" y="114" />
<rect fill="#DEE6F1" height="24" width="24" x="594" y="114" />
<rect fill="none" height="24" stroke="#405C86" stroke-width="2" width="24" x="594" y="114" />
<rect fill="#DEE6F1" height="24" width="24" x="570" y="114" />
<rect fill="none" height="24" stroke="#405C86" stroke-width="2" width="24" x="570" y="114" />
<rect fill="#DEE6F1" height="24" width="24" x="546" y="114" />
<rect fill="none" height="24" stroke="#405C86" stroke-width="2" width="24" x="546" y="114" />
<rect fill="#DEE6F1" height="24" width="24" x="522" y="114" />
<rect fill="none" height="24" stroke="#405C86" stroke-width="2" width="24" x="522" y="114" />
<rect fill="#EEDDDB" height="24" width="24" x="498" y="114" />
<rect fill="none" height="24" stroke="#405C86" stroke-width="2" width="24" x="498" y="114" />
<text class="label" x="510" y="127">0</text>
<rect fill="#DEE6F1" height="24" width="24" x="474" y="114" />
<rect fill="none" height="24" stroke="#405C86" stroke-width="2" width="24" x="474" y="114" />
<rect fill="#EEDDDB" height="24" width="24" x="834" y="186" />
<rect fill="none" height="24" stroke="#405C86" stroke-width="2" width="24" x="834" y="186" />
<text class="label" x="846" y="199">0</text>
<rect fill="#DEE6F1" height="24" width="24" x="810" y="186" />
<rect fill="none" height="24" stroke="#405C86" stroke-width="2" width="24" x="810" y="186" />
<rect fill="#DEE6F1" height="24" width="24" x="786" y="186" />
<rect fill="none" height="24" stroke="#405C86" stroke-width="2" width="24" x="786" y="186" />
<rect fill="#EEDDDB" height="24" width="24" x="762" y="186" />
<rect fill="none" height="24" stroke="#405C86" stroke-width="2" width="24" x="762" y="186" />
<text class="label" x="774" y="199">0</text>
<rect fill="#DEE6F1" height="24" width="24" x="738" y="186" />
<rect fill="none" height="24" stroke="#405C86" stroke-width="2" width="24" x="738" y="186" />
<rect fill="#DEE6F1" height="24" width="24" x="714" y="186" />
<rect fill="none" height="24" stroke="#405C86" stroke-width="2" width="24" x="714" y="186" />
<rect fill="#EEDDDB" height="24" width="24" x="690" y="186" />
<rect fill="none" height="24" stroke="#405C86" stroke-width="2" width="24" x="690" y="186" />
<text class="label" x="702" y="199">0</text>
<rect fill="#DEE6F1" height="24" width="24" x="666" y="186" />
<rect fill="none" height="24" stroke="#405C86" stroke-width="2" width="24" x="666" y="186" />
<rect fill="#DEE6F1" height="24" width="24" x="642" y="186" />
<rect fill="none" height="24" stroke="#405C86" stroke-width="2" width="24" x="642" y="186" />
<rect fill="#DEE6F1" height="24" width="24" x="618" y="186" />
<rect fill="none" height="24" stroke="#405C86" stroke-width="2" width="24" x="618" y="186" />
<rect fill="#DEE6F1" height="24" width="24" x="594" y="186" />
<rect fill="none" height="24" stroke="#405C86" stroke-width="2" width="24" x="594" y="186" />
<rect fill="#DEE6F1" height="24" width="24" x="570" y="186" />
<rect fill="none" height="24" stroke="#405C86" stroke-width="2" width="24" x="570" y="186" />
<rect fill="#DEE6F1" height="24" width="24" x="546" y="186" />
<rect fill="none" height="24" stroke="#405C86" stroke-width="2" width="24" x="546" y="186" />
<rect fill="#DEE6F1" height="24" width="24" x="522" y="186" />
<rect fill="none" height="24" stroke="#405C86" stroke-width="2" width="24" x="522" y="186" />
<rect fill="#EEDDDB" height="24" width="24" x="498" y="186" />
<rect fill="none" height="24" stroke="#405C86" stroke-width="2" width="24" x="498" y="186" />
<text class="label" x="510" y="199">0</text>
<rect fill="#DEE6F1" height="24" width="24" x="474" y="186" />
<rect fill="none" height="24" stroke="#405C86" stroke-width="2" width="24" x="474" y="186" />
<rect fill="#EEDDDB" height="24" width="24" x="450" y="186" />
<rect fill="none" height="24" stroke="#405C86" stroke-width="2" width="24" x="450" y="186" />
<text class="label" x="462" y="199">0</text>
<rect fill="#DEE6F1" height="24" width="24" x="426" y="186" />
<rect fill="none" height="24" stroke="#405C86" stroke-width="2" width="24" x="426" y="186" />
<rect fill="#DEE6F1" height="24" width="24" x="402" y="186" />
<rect fill="none" height="24" stroke="#405C86" stroke-width="2" width="24" x="402" y="186" />
<rect fill="#EEDDDB" height="24" width="24" x="378" y="186" />
<rect fill="none" height="24" stroke="#405C86" stroke-width="2" width="24" x="378" y="186" />
<text class="label" x="390" y="199">0</text>
<rect fill="#DEE6F1" height="24" width="24" x="354" y="186" />
<rect fill="none" height="24" stroke="#405C86" stroke-width="2" width="24" x="354" y="186" />
<rect fill="#DEE6F1" height="24" width="24" x="330" y="186" />
<rect fill="none" height="24" stroke="#405C86" stroke-width="2" width="24" x="330" y="186" />
<rect fill="#EEDDDB" height="24" width="24" x="306" y="186" />
<rect fill="none" height="24" stroke="#405C86" stroke-width="2" width="24" x="306" y="186" />
<text class="label" x="318" y="199">0</text>
<rect fill="#DEE6F1" height="24" width="24" x="282" y="186" />
<rect fill="none" height="24" stroke="#405C86" stroke-width="2" width="24" x="282" y="186" />
<rect fill="#DEE6F1" height="24" width="24" x="258" y="186" />
<rect fill="none" height="24" stroke="#405C86" stroke-width="2" width="24" x="258" y="186" />
<rect fill="#DEE6F1" height="24" width="24" x="234" y="186" />
<rect fill="none" height="24" stroke="#405C86" stroke-width="2" width="24" x="234" y="186" />
<rect fill="#DEE6F1" height="24" width="24" x="210" y="186" />
<rect fill="none" height="24" stroke="#405C86" stroke-width="2" width="24" x="210" y="186" />
<rect fill="#DEE6F1" height="24" width="24" x="186" y="186" />
<rect fill="none" height="24" stroke="#405C86" stroke-width="2" width="24" x="186" y="186" />
<rect fill="#DEE6F1" height="24" width="24" x="162" y="186" />
<rect fill="none" height="24" stroke="#405C86" stroke-width="2" width="24" x="162" y="186" />
<rect fill="#DEE6F1" height="24" width="24" x="138" y="186" />
<rect fill="none" height="24" stroke="#405C86" stroke-width="2" width="24" x="138" y="186" />
<rect fill="#EEDDDB" height="24" width="24" x="114" y="186" />
<rect fill="none" height="24" stroke="#405C86" stroke-width="2" width="24" x="114" y="186" />
<text class="label" x="126" y="199">0</text>
<rect fill="#DEE6F1" height="24" width="24" x="90" y="186" />
<rect fill="none" height="24" stroke="#405C86" stroke-width="2" width="24" x="90" y="186" />
<text class="register-name" x="80" y="198">Zt</text>
<text class="intrinsic-name" x="80" y="210">returns</text>
<text class="register-number" x="10" y="198">(3)</text>
<line stroke="#567DB6" stroke-width="1" x1="846" x2="846" y1="42.5" y2="65.5" />
<line stroke="#567DB6" stroke-width="1" x1="822" x2="822" y1="42.5" y2="65.5" />
<line stroke="#567DB6" stroke-width="1" x1="822" x2="822" y1="90.5" y2="113" />
<line stroke="#567DB6" stroke-width="1" x1="798" x2="798" y1="42.5" y2="65.5" />
<line stroke="#567DB6" stroke-width="1" x1="798" x2="798" y1="90.5" y2="113" />
<line stroke="#567DB6" stroke-width="1" x1="774" x2="774" y1="42.5" y2="65.5" />
<line stroke="#567DB6" stroke-width="1" x1="750" x2="750" y1="42.5" y2="65.5" />
<line stroke="#567DB6" stroke-width="1" x1="750" x2="750" y1="90.5" y2="113" />
<line stroke="#567DB6" stroke-width="1" x1="726" x2="726" y1="42.5" y2="65.5" />
<line stroke="#567DB6" stroke-width="1" x1="726" x2="726" y1="90.5" y2="113" />
<line stroke="#567DB6" stroke-width="1" x1="702" x2="702" y1="42.5" y2="65.5" />
<line stroke="#567DB6" stroke-width="1" x1="678" x2="678" y1="42.5" y2="65.5" />
<line stroke="#567DB6" stroke-width="1" x1="678" x2="678" y1="90.5" y2="113" />
<line stroke="#567DB6" stroke-width="1" x1="654" x2="654" y1="42.5" y2="65.5" />
<line stroke="#567DB6" stroke-width="1" x1="654" x2="654" y1="90.5" y2="113" />
<line stroke="#567DB6" stroke-width="1" x1="630" x2="630" y1="42.5" y2="65.5" />
<line stroke="#567DB6" stroke-width="1" x1="630" x2="630" y1="90.5" y2="113" />
<line stroke="#567DB6" stroke-width="1" x1="606" x2="606" y1="42.5" y2="65.5" />
<line stroke="#567DB6" stroke-width="1" x1="606" x2="606" y1="90.5" y2="113" />
<line stroke="#567DB6" stroke-width="1" x1="582" x2="582" y1="42.5" y2="65.5" />
<line stroke="#567DB6" stroke-width="1" x1="582" x2="582" y1="90.5" y2="113" />
<line stroke="#567DB6" stroke-width="1" x1="558" x2="558" y1="42.5" y2="65.5" />
<line stroke="#567DB6" stroke-width="1" x1="558" x2="558" y1="90.5" y2="113" />
<line stroke="#567DB6" stroke-width="1" x1="534" x2="534" y1="42.5" y2="65.5" />
<line stroke="#567DB6" stroke-width="1" x1="534" x2="534" y1="90.5" y2="113" />
<line stroke="#567DB6" stroke-width="1" x1="510" x2="510" y1="42.5" y2="65.5" />
<line stroke="#567DB6" stroke-width="1" x1="486" x2="486" y1="42.5" y2="65.5" />
<line stroke="#567DB6" stroke-width="1" x1="486" x2="486" y1="90.5" y2="113" />
<polyline fill="none" points="477.0 138.5,479.0 142.5,665.0 142.5,666.0 144.5,666.0 148.5,666.0 144.5,667.0 142.5,853.0 142.5,855.0 138.5" stroke="#567DB6" stroke-width="1" />
<polyline fill="none" points="477.0 185.5,479.0 181.5,665.0 181.5,666.0 179.5,666.0 175.5,666.0 179.5,667.0 181.5,853.0 181.5,855.0 185.5" stroke="#567DB6" stroke-width="1" />
<line stroke="#567DB6" stroke-width="1" x1="666" x2="666" y1="148.5" y2="175.5" />
<polyline fill="none" points="93.0 185.5,95.0 181.5,281.0 181.5,282.0 179.5,282.0 175.5,282.0 179.5,283.0 181.5,469.0 181.5,471.0 185.5" stroke="#567DB6" stroke-width="1" />
<line stroke="#567DB6" stroke-width="1" x1="666" x2="282" y1="148.5" y2="175.5" />
<line marker-end="url(#arrowhead)" stroke="none" x1="822" x2="822" y1="90.5" y2="113" />
<line marker-end="url(#arrowhead)" stroke="none" x1="798" x2="798" y1="90.5" y2="113" />
<line marker-end="url(#arrowhead)" stroke="none" x1="750" x2="750" y1="90.5" y2="113" />
<line marker-end="url(#arrowhead)" stroke="none" x1="726" x2="726" y1="90.5" y2="113" />
<line marker-end="url(#arrowhead)" stroke="none" x1="678" x2="678" y1="90.5" y2="113" />
<line marker-end="url(#arrowhead)" stroke="none" x1="654" x2="654" y1="90.5" y2="113" />
<line marker-end="url(#arrowhead)" stroke="none" x1="630" x2="630" y1="90.5" y2="113" />
<line marker-end="url(#arrowhead)" stroke="none" x1="606" x2="606" y1="90.5" y2="113" />
<line marker-end="url(#arrowhead)" stroke="none" x1="582" x2="582" y1="90.5" y2="113" />
<line marker-end="url(#arrowhead)" stroke="none" x1="558" x2="558" y1="90.5" y2="113" />
<line marker-end="url(#arrowhead)" stroke="none" x1="534" x2="534" y1="90.5" y2="113" />
<line marker-end="url(#arrowhead)" stroke="none" x1="486" x2="486" y1="90.5" y2="113" />
</svg>