<svg xmlns="http://www.w3.org/2000/svg" viewBox="0 0 1638 123">
<style>
.label { font: 14px Helvetica; dominant-baseline: middle; text-anchor: middle; }
.title-left { font: 12px Helvetica; dominant-baseline: middle; }
.title-right { font: 12px Helvetica; dominant-baseline: middle; text-anchor: end; }
.title-intrinsic { font: 12px Helvetica; dominant-baseline: middle; text-anchor: middle; fill: #6778ED; }
.title { font: 12px Helvetica; dominant-baseline: middle; text-anchor: middle; }
.title-unused { font: 12px Helvetica; dominant-baseline: middle; text-anchor: middle; fill: #AAA; }
.register-name { font: 14px Helvetica; dominant-baseline: middle; text-anchor: end; font-style: italic; }
.memory-name { font: 14px Helvetica; dominant-baseline: middle; text-anchor: end; }
.register-number { font: 14px Helvetica; dominant-baseline: middle; text-anchor: start; }
.intrinsic-name { font: 14px Helvetica; dominant-baseline: middle; text-anchor: end; fill: #6778ED; }
.intrinsic-color { fill: #6778ED; }
.small-label { font: 12px Helvetica; dominant-baseline: middle; text-anchor: middle; }
.label-10px { font: 10px Helvetica; dominant-baseline: middle; text-anchor: middle; }
.smaller-label { font: 9px Helvetica; dominant-baseline: middle; text-anchor: middle; }
.label-6px { font: 6px Helvetica; dominant-baseline: middle; text-anchor: middle; }
.label-7px { font: 7px Helvetica; dominant-baseline: middle; text-anchor: middle; }
.unused { fill: #AAA; }
.dim { fill: #888; }
</style>
<defs>
<marker id="arrowhead" markerWidth="10.75" markerHeight="24.5" refX="9.0" refY="6.125" orient="auto">
<polyline points="0.5 0.5, 8.75 6.125, 0.5 11.75" stroke="#567DB6" stroke-width="1" fill="none"/>
</marker>
</defs>
<line stroke="#567DB6" stroke-width="1" x1="1230" x2="1615.4375" y1="42.5" y2="89" />
<line stroke="#567DB6" stroke-width="1" x1="1206" x2="1567.4375" y1="42.5" y2="89" />
<line stroke="#567DB6" stroke-width="1" x1="1182" x2="1519.4375" y1="42.5" y2="89" />
<line stroke="#567DB6" stroke-width="1" x1="1158" x2="1471.4375" y1="42.5" y2="89" />
<line stroke="#567DB6" stroke-width="1" x1="1134" x2="1423.4375" y1="42.5" y2="89" />
<line stroke="#567DB6" stroke-width="1" x1="1110" x2="1375.4375" y1="42.5" y2="89" />
<line stroke="#567DB6" stroke-width="1" x1="1086" x2="1327.4375" y1="42.5" y2="89" />
<line stroke="#567DB6" stroke-width="1" x1="1062" x2="1279.4375" y1="42.5" y2="89" />
<line stroke="#567DB6" stroke-width="1" x1="1038" x2="1231.4375" y1="42.5" y2="89" />
<line stroke="#567DB6" stroke-width="1" x1="1014" x2="1183.4375" y1="42.5" y2="89" />
<line stroke="#567DB6" stroke-width="1" x1="990" x2="1135.4375" y1="42.5" y2="89" />
<line stroke="#567DB6" stroke-width="1" x1="966" x2="1087.4375" y1="42.5" y2="89" />
<line stroke="#567DB6" stroke-width="1" x1="942" x2="1039.4375" y1="42.5" y2="89" />
<line stroke="#567DB6" stroke-width="1" x1="918" x2="991.4375" y1="42.5" y2="89" />
<line stroke="#567DB6" stroke-width="1" x1="894" x2="943.4375" y1="42.5" y2="89" />
<line stroke="#567DB6" stroke-width="1" x1="870" x2="895.4375" y1="42.5" y2="89" />
<line stroke="#567DB6" stroke-width="1" x1="846" x2="847.4375" y1="42.5" y2="89" />
<line stroke="#567DB6" stroke-width="1" x1="822" x2="799.4375" y1="42.5" y2="89" />
<line stroke="#567DB6" stroke-width="1" x1="798" x2="751.4375" y1="42.5" y2="89" />
<line stroke="#567DB6" stroke-width="1" x1="774" x2="703.4375" y1="42.5" y2="89" />
<line stroke="#567DB6" stroke-width="1" x1="750" x2="655.4375" y1="42.5" y2="89" />
<line stroke="#567DB6" stroke-width="1" x1="726" x2="607.4375" y1="42.5" y2="89" />
<line stroke="#567DB6" stroke-width="1" x1="702" x2="559.4375" y1="42.5" y2="89" />
<line stroke="#567DB6" stroke-width="1" x1="678" x2="511.4375" y1="42.5" y2="89" />
<line stroke="#567DB6" stroke-width="1" x1="654" x2="463.4375" y1="42.5" y2="89" />
<line stroke="#567DB6" stroke-width="1" x1="630" x2="415.4375" y1="42.5" y2="89" />
<line stroke="#567DB6" stroke-width="1" x1="606" x2="367.4375" y1="42.5" y2="89" />
<line stroke="#567DB6" stroke-width="1" x1="582" x2="319.4375" y1="42.5" y2="89" />
<line stroke="#567DB6" stroke-width="1" x1="558" x2="271.4375" y1="42.5" y2="89" />
<line stroke="#567DB6" stroke-width="1" x1="534" x2="223.4375" y1="42.5" y2="89" />
<line stroke="#567DB6" stroke-width="1" x1="510" x2="175.4375" y1="42.5" y2="89" />
<line stroke="#567DB6" stroke-width="1" x1="486" x2="127.4375" y1="42.5" y2="89" />
<text class="title-left" x="90" y="9">upper</text>
<text class="title-right" x="1626" y="9">lower</text>
<rect fill="#DEE6F1" height="24" width="20.25" x="1221.75" y="18" />
<rect fill="#EEDDDB" height="24" width="3.75" x="1218" y="18" />
<rect fill="none" height="24" stroke="#405C86" stroke-width="2" width="24" x="1218" y="18" />
<text class="smaller-label intrinsic-color" x="1230" y="31">b[0]</text>
<rect fill="#DEE6F1" height="24" width="20.25" x="1197.75" y="18" />
<rect fill="#EEDDDB" height="24" width="3.75" x="1194" y="18" />
<rect fill="none" height="24" stroke="#405C86" stroke-width="2" width="24" x="1194" y="18" />
<text class="smaller-label intrinsic-color" x="1206" y="31">b[1]</text>
<rect fill="#DEE6F1" height="24" width="20.25" x="1173.75" y="18" />
<rect fill="#EEDDDB" height="24" width="3.75" x="1170" y="18" />
<rect fill="none" height="24" stroke="#405C86" stroke-width="2" width="24" x="1170" y="18" />
<text class="smaller-label intrinsic-color" x="1182" y="31">b[2]</text>
<rect fill="#DEE6F1" height="24" width="20.25" x="1149.75" y="18" />
<rect fill="#EEDDDB" height="24" width="3.75" x="1146" y="18" />
<rect fill="none" height="24" stroke="#405C86" stroke-width="2" width="24" x="1146" y="18" />
<text class="smaller-label intrinsic-color" x="1158" y="31">b[3]</text>
<rect fill="#DEE6F1" height="24" width="20.25" x="1125.75" y="18" />
<rect fill="#EEDDDB" height="24" width="3.75" x="1122" y="18" />
<rect fill="none" height="24" stroke="#405C86" stroke-width="2" width="24" x="1122" y="18" />
<text class="smaller-label intrinsic-color" x="1134" y="31">b[4]</text>
<rect fill="#DEE6F1" height="24" width="20.25" x="1101.75" y="18" />
<rect fill="#EEDDDB" height="24" width="3.75" x="1098" y="18" />
<rect fill="none" height="24" stroke="#405C86" stroke-width="2" width="24" x="1098" y="18" />
<text class="smaller-label intrinsic-color" x="1110" y="31">b[5]</text>
<rect fill="#DEE6F1" height="24" width="20.25" x="1077.75" y="18" />
<rect fill="#EEDDDB" height="24" width="3.75" x="1074" y="18" />
<rect fill="none" height="24" stroke="#405C86" stroke-width="2" width="24" x="1074" y="18" />
<text class="smaller-label intrinsic-color" x="1086" y="31">b[6]</text>
<rect fill="#DEE6F1" height="24" width="20.25" x="1053.75" y="18" />
<rect fill="#EEDDDB" height="24" width="3.75" x="1050" y="18" />
<rect fill="none" height="24" stroke="#405C86" stroke-width="2" width="24" x="1050" y="18" />
<text class="smaller-label intrinsic-color" x="1062" y="31">b[7]</text>
<rect fill="#DEE6F1" height="24" width="20.25" x="1029.75" y="18" />
<rect fill="#EEDDDB" height="24" width="3.75" x="1026" y="18" />
<rect fill="none" height="24" stroke="#405C86" stroke-width="2" width="24" x="1026" y="18" />
<text class="smaller-label intrinsic-color" x="1038" y="31">b[8]</text>
<rect fill="#DEE6F1" height="24" width="20.25" x="1005.75" y="18" />
<rect fill="#EEDDDB" height="24" width="3.75" x="1002" y="18" />
<rect fill="none" height="24" stroke="#405C86" stroke-width="2" width="24" x="1002" y="18" />
<text class="smaller-label intrinsic-color" x="1014" y="31">b[9]</text>
<rect fill="#DEE6F1" height="24" width="20.25" x="981.75" y="18" />
<rect fill="#EEDDDB" height="24" width="3.75" x="978" y="18" />
<rect fill="none" height="24" stroke="#405C86" stroke-width="2" width="24" x="978" y="18" />
<text class="smaller-label intrinsic-color" x="990" y="31">b[10]</text>
<rect fill="#DEE6F1" height="24" width="20.25" x="957.75" y="18" />
<rect fill="#EEDDDB" height="24" width="3.75" x="954" y="18" />
<rect fill="none" height="24" stroke="#405C86" stroke-width="2" width="24" x="954" y="18" />
<text class="smaller-label intrinsic-color" x="966" y="31">b[11]</text>
<rect fill="#DEE6F1" height="24" width="20.25" x="933.75" y="18" />
<rect fill="#EEDDDB" height="24" width="3.75" x="930" y="18" />
<rect fill="none" height="24" stroke="#405C86" stroke-width="2" width="24" x="930" y="18" />
<text class="smaller-label intrinsic-color" x="942" y="31">b[12]</text>
<rect fill="#DEE6F1" height="24" width="20.25" x="909.75" y="18" />
<rect fill="#EEDDDB" height="24" width="3.75" x="906" y="18" />
<rect fill="none" height="24" stroke="#405C86" stroke-width="2" width="24" x="906" y="18" />
<text class="smaller-label intrinsic-color" x="918" y="31">b[13]</text>
<rect fill="#DEE6F1" height="24" width="20.25" x="885.75" y="18" />
<rect fill="#EEDDDB" height="24" width="3.75" x="882" y="18" />
<rect fill="none" height="24" stroke="#405C86" stroke-width="2" width="24" x="882" y="18" />
<text class="smaller-label intrinsic-color" x="894" y="31">b[14]</text>
<rect fill="#DEE6F1" height="24" width="20.25" x="861.75" y="18" />
<rect fill="#EEDDDB" height="24" width="3.75" x="858" y="18" />
<rect fill="none" height="24" stroke="#405C86" stroke-width="2" width="24" x="858" y="18" />
<text class="smaller-label intrinsic-color" x="870" y="31">b[15]</text>
<rect fill="#DEE6F1" height="24" width="20.25" x="837.75" y="18" />
<rect fill="#EEDDDB" height="24" width="3.75" x="834" y="18" />
<rect fill="none" height="24" stroke="#405C86" stroke-width="2" width="24" x="834" y="18" />
<text class="smaller-label intrinsic-color" x="846" y="31">b[16]</text>
<rect fill="#DEE6F1" height="24" width="20.25" x="813.75" y="18" />
<rect fill="#EEDDDB" height="24" width="3.75" x="810" y="18" />
<rect fill="none" height="24" stroke="#405C86" stroke-width="2" width="24" x="810" y="18" />
<text class="smaller-label intrinsic-color" x="822" y="31">b[17]</text>
<rect fill="#DEE6F1" height="24" width="20.25" x="789.75" y="18" />
<rect fill="#EEDDDB" height="24" width="3.75" x="786" y="18" />
<rect fill="none" height="24" stroke="#405C86" stroke-width="2" width="24" x="786" y="18" />
<text class="smaller-label intrinsic-color" x="798" y="31">b[18]</text>
<rect fill="#DEE6F1" height="24" width="20.25" x="765.75" y="18" />
<rect fill="#EEDDDB" height="24" width="3.75" x="762" y="18" />
<rect fill="none" height="24" stroke="#405C86" stroke-width="2" width="24" x="762" y="18" />
<text class="smaller-label intrinsic-color" x="774" y="31">b[19]</text>
<rect fill="#DEE6F1" height="24" width="20.25" x="741.75" y="18" />
<rect fill="#EEDDDB" height="24" width="3.75" x="738" y="18" />
<rect fill="none" height="24" stroke="#405C86" stroke-width="2" width="24" x="738" y="18" />
<text class="smaller-label intrinsic-color" x="750" y="31">b[20]</text>
<rect fill="#DEE6F1" height="24" width="20.25" x="717.75" y="18" />
<rect fill="#EEDDDB" height="24" width="3.75" x="714" y="18" />
<rect fill="none" height="24" stroke="#405C86" stroke-width="2" width="24" x="714" y="18" />
<text class="smaller-label intrinsic-color" x="726" y="31">b[21]</text>
<rect fill="#DEE6F1" height="24" width="20.25" x="693.75" y="18" />
<rect fill="#EEDDDB" height="24" width="3.75" x="690" y="18" />
<rect fill="none" height="24" stroke="#405C86" stroke-width="2" width="24" x="690" y="18" />
<text class="smaller-label intrinsic-color" x="702" y="31">b[22]</text>
<rect fill="#DEE6F1" height="24" width="20.25" x="669.75" y="18" />
<rect fill="#EEDDDB" height="24" width="3.75" x="666" y="18" />
<rect fill="none" height="24" stroke="#405C86" stroke-width="2" width="24" x="666" y="18" />
<text class="smaller-label intrinsic-color" x="678" y="31">b[23]</text>
<rect fill="#DEE6F1" height="24" width="20.25" x="645.75" y="18" />
<rect fill="#EEDDDB" height="24" width="3.75" x="642" y="18" />
<rect fill="none" height="24" stroke="#405C86" stroke-width="2" width="24" x="642" y="18" />
<text class="smaller-label intrinsic-color" x="654" y="31">b[24]</text>
<rect fill="#DEE6F1" height="24" width="20.25" x="621.75" y="18" />
<rect fill="#EEDDDB" height="24" width="3.75" x="618" y="18" />
<rect fill="none" height="24" stroke="#405C86" stroke-width="2" width="24" x="618" y="18" />
<text class="smaller-label intrinsic-color" x="630" y="31">b[25]</text>
<rect fill="#DEE6F1" height="24" width="20.25" x="597.75" y="18" />
<rect fill="#EEDDDB" height="24" width="3.75" x="594" y="18" />
<rect fill="none" height="24" stroke="#405C86" stroke-width="2" width="24" x="594" y="18" />
<text class="smaller-label intrinsic-color" x="606" y="31">b[26]</text>
<rect fill="#DEE6F1" height="24" width="20.25" x="573.75" y="18" />
<rect fill="#EEDDDB" height="24" width="3.75" x="570" y="18" />
<rect fill="none" height="24" stroke="#405C86" stroke-width="2" width="24" x="570" y="18" />
<text class="smaller-label intrinsic-color" x="582" y="31">b[27]</text>
<rect fill="#DEE6F1" height="24" width="20.25" x="549.75" y="18" />
<rect fill="#EEDDDB" height="24" width="3.75" x="546" y="18" />
<rect fill="none" height="24" stroke="#405C86" stroke-width="2" width="24" x="546" y="18" />
<text class="smaller-label intrinsic-color" x="558" y="31">b[28]</text>
<rect fill="#DEE6F1" height="24" width="20.25" x="525.75" y="18" />
<rect fill="#EEDDDB" height="24" width="3.75" x="522" y="18" />
<rect fill="none" height="24" stroke="#405C86" stroke-width="2" width="24" x="522" y="18" />
<text class="smaller-label intrinsic-color" x="534" y="31">b[29]</text>
<rect fill="#DEE6F1" height="24" width="20.25" x="501.75" y="18" />
<rect fill="#EEDDDB" height="24" width="3.75" x="498" y="18" />
<rect fill="none" height="24" stroke="#405C86" stroke-width="2" width="24" x="498" y="18" />
<text class="smaller-label intrinsic-color" x="510" y="31">b[30]</text>
<rect fill="#DEE6F1" height="24" width="20.25" x="477.75" y="18" />
<rect fill="#EEDDDB" height="24" width="3.75" x="474" y="18" />
<rect fill="none" height="24" stroke="#405C86" stroke-width="2" width="24" x="474" y="18" />
<text class="smaller-label intrinsic-color" x="486" y="31">b[31]</text>
<text class="register-name" x="80" y="30">[mem]</text>
<text class="intrinsic-name" x="80" y="42">*base</text>
<text class="register-number" x="10" y="30">(1)</text>
<rect fill="#DEE6F1" height="24" width="21.125" x="1604.875" y="90" />
<rect fill="#EEDDDB" height="24" width="26.875" x="1578" y="90" />
<rect fill="none" height="24" stroke="#405C86" stroke-width="2" width="48" x="1578" y="90" />
<rect fill="#DEE6F1" height="24" width="21.125" x="1556.875" y="90" />
<rect fill="#EEDDDB" height="24" width="26.875" x="1530" y="90" />
<rect fill="none" height="24" stroke="#405C86" stroke-width="2" width="48" x="1530" y="90" />
<rect fill="#DEE6F1" height="24" width="21.125" x="1508.875" y="90" />
<rect fill="#EEDDDB" height="24" width="26.875" x="1482" y="90" />
<rect fill="none" height="24" stroke="#405C86" stroke-width="2" width="48" x="1482" y="90" />
<rect fill="#DEE6F1" height="24" width="21.125" x="1460.875" y="90" />
<rect fill="#EEDDDB" height="24" width="26.875" x="1434" y="90" />
<rect fill="none" height="24" stroke="#405C86" stroke-width="2" width="48" x="1434" y="90" />
<rect fill="#DEE6F1" height="24" width="21.125" x="1412.875" y="90" />
<rect fill="#EEDDDB" height="24" width="26.875" x="1386" y="90" />
<rect fill="none" height="24" stroke="#405C86" stroke-width="2" width="48" x="1386" y="90" />
<rect fill="#DEE6F1" height="24" width="21.125" x="1364.875" y="90" />
<rect fill="#EEDDDB" height="24" width="26.875" x="1338" y="90" />
<rect fill="none" height="24" stroke="#405C86" stroke-width="2" width="48" x="1338" y="90" />
<rect fill="#DEE6F1" height="24" width="21.125" x="1316.875" y="90" />
<rect fill="#EEDDDB" height="24" width="26.875" x="1290" y="90" />
<rect fill="none" height="24" stroke="#405C86" stroke-width="2" width="48" x="1290" y="90" />
<rect fill="#DEE6F1" height="24" width="21.125" x="1268.875" y="90" />
<rect fill="#EEDDDB" height="24" width="26.875" x="1242" y="90" />
<rect fill="none" height="24" stroke="#405C86" stroke-width="2" width="48" x="1242" y="90" />
<rect fill="#DEE6F1" height="24" width="21.125" x="1220.875" y="90" />
<rect fill="#EEDDDB" height="24" width="26.875" x="1194" y="90" />
<rect fill="none" height="24" stroke="#405C86" stroke-width="2" width="48" x="1194" y="90" />
<rect fill="#DEE6F1" height="24" width="21.125" x="1172.875" y="90" />
<rect fill="#EEDDDB" height="24" width="26.875" x="1146" y="90" />
<rect fill="none" height="24" stroke="#405C86" stroke-width="2" width="48" x="1146" y="90" />
<rect fill="#DEE6F1" height="24" width="21.125" x="1124.875" y="90" />
<rect fill="#EEDDDB" height="24" width="26.875" x="1098" y="90" />
<rect fill="none" height="24" stroke="#405C86" stroke-width="2" width="48" x="1098" y="90" />
<rect fill="#DEE6F1" height="24" width="21.125" x="1076.875" y="90" />
<rect fill="#EEDDDB" height="24" width="26.875" x="1050" y="90" />
<rect fill="none" height="24" stroke="#405C86" stroke-width="2" width="48" x="1050" y="90" />
<rect fill="#DEE6F1" height="24" width="21.125" x="1028.875" y="90" />
<rect fill="#EEDDDB" height="24" width="26.875" x="1002" y="90" />
<rect fill="none" height="24" stroke="#405C86" stroke-width="2" width="48" x="1002" y="90" />
<rect fill="#DEE6F1" height="24" width="21.125" x="980.875" y="90" />
<rect fill="#EEDDDB" height="24" width="26.875" x="954" y="90" />
<rect fill="none" height="24" stroke="#405C86" stroke-width="2" width="48" x="954" y="90" />
<rect fill="#DEE6F1" height="24" width="21.125" x="932.875" y="90" />
<rect fill="#EEDDDB" height="24" width="26.875" x="906" y="90" />
<rect fill="none" height="24" stroke="#405C86" stroke-width="2" width="48" x="906" y="90" />
<rect fill="#DEE6F1" height="24" width="21.125" x="884.875" y="90" />
<rect fill="#EEDDDB" height="24" width="26.875" x="858" y="90" />
<rect fill="none" height="24" stroke="#405C86" stroke-width="2" width="48" x="858" y="90" />
<rect fill="#DEE6F1" height="24" width="21.125" x="836.875" y="90" />
<rect fill="#EEDDDB" height="24" width="26.875" x="810" y="90" />
<rect fill="none" height="24" stroke="#405C86" stroke-width="2" width="48" x="810" y="90" />
<rect fill="#DEE6F1" height="24" width="21.125" x="788.875" y="90" />
<rect fill="#EEDDDB" height="24" width="26.875" x="762" y="90" />
<rect fill="none" height="24" stroke="#405C86" stroke-width="2" width="48" x="762" y="90" />
<rect fill="#DEE6F1" height="24" width="21.125" x="740.875" y="90" />
<rect fill="#EEDDDB" height="24" width="26.875" x="714" y="90" />
<rect fill="none" height="24" stroke="#405C86" stroke-width="2" width="48" x="714" y="90" />
<rect fill="#DEE6F1" height="24" width="21.125" x="692.875" y="90" />
<rect fill="#EEDDDB" height="24" width="26.875" x="666" y="90" />
<rect fill="none" height="24" stroke="#405C86" stroke-width="2" width="48" x="666" y="90" />
<rect fill="#DEE6F1" height="24" width="21.125" x="644.875" y="90" />
<rect fill="#EEDDDB" height="24" width="26.875" x="618" y="90" />
<rect fill="none" height="24" stroke="#405C86" stroke-width="2" width="48" x="618" y="90" />
<rect fill="#DEE6F1" height="24" width="21.125" x="596.875" y="90" />
<rect fill="#EEDDDB" height="24" width="26.875" x="570" y="90" />
<rect fill="none" height="24" stroke="#405C86" stroke-width="2" width="48" x="570" y="90" />
<rect fill="#DEE6F1" height="24" width="21.125" x="548.875" y="90" />
<rect fill="#EEDDDB" height="24" width="26.875" x="522" y="90" />
<rect fill="none" height="24" stroke="#405C86" stroke-width="2" width="48" x="522" y="90" />
<rect fill="#DEE6F1" height="24" width="21.125" x="500.875" y="90" />
<rect fill="#EEDDDB" height="24" width="26.875" x="474" y="90" />
<rect fill="none" height="24" stroke="#405C86" stroke-width="2" width="48" x="474" y="90" />
<rect fill="#DEE6F1" height="24" width="21.125" x="452.875" y="90" />
<rect fill="#EEDDDB" height="24" width="26.875" x="426" y="90" />
<rect fill="none" height="24" stroke="#405C86" stroke-width="2" width="48" x="426" y="90" />
<rect fill="#DEE6F1" height="24" width="21.125" x="404.875" y="90" />
<rect fill="#EEDDDB" height="24" width="26.875" x="378" y="90" />
<rect fill="none" height="24" stroke="#405C86" stroke-width="2" width="48" x="378" y="90" />
<rect fill="#DEE6F1" height="24" width="21.125" x="356.875" y="90" />
<rect fill="#EEDDDB" height="24" width="26.875" x="330" y="90" />
<rect fill="none" height="24" stroke="#405C86" stroke-width="2" width="48" x="330" y="90" />
<rect fill="#DEE6F1" height="24" width="21.125" x="308.875" y="90" />
<rect fill="#EEDDDB" height="24" width="26.875" x="282" y="90" />
<rect fill="none" height="24" stroke="#405C86" stroke-width="2" width="48" x="282" y="90" />
<rect fill="#DEE6F1" height="24" width="21.125" x="260.875" y="90" />
<rect fill="#EEDDDB" height="24" width="26.875" x="234" y="90" />
<rect fill="none" height="24" stroke="#405C86" stroke-width="2" width="48" x="234" y="90" />
<rect fill="#DEE6F1" height="24" width="21.125" x="212.875" y="90" />
<rect fill="#EEDDDB" height="24" width="26.875" x="186" y="90" />
<rect fill="none" height="24" stroke="#405C86" stroke-width="2" width="48" x="186" y="90" />
<rect fill="#DEE6F1" height="24" width="21.125" x="164.875" y="90" />
<rect fill="#EEDDDB" height="24" width="26.875" x="138" y="90" />
<rect fill="none" height="24" stroke="#405C86" stroke-width="2" width="48" x="138" y="90" />
<rect fill="#DEE6F1" height="24" width="21.125" x="116.875" y="90" />
<rect fill="#EEDDDB" height="24" width="26.875" x="90" y="90" />
<rect fill="none" height="24" stroke="#405C86" stroke-width="2" width="48" x="90" y="90" />
<text class="register-name" x="80" y="102">Zt</text>
<text class="intrinsic-name" x="80" y="114">returns</text>
<text class="register-number" x="10" y="102">(2)</text>
<line marker-end="url(#arrowhead)" stroke="none" x1="1230" x2="1615.4375" y1="42.5" y2="89" />
<line marker-end="url(#arrowhead)" stroke="none" x1="1206" x2="1567.4375" y1="42.5" y2="89" />
<line marker-end="url(#arrowhead)" stroke="none" x1="1182" x2="1519.4375" y1="42.5" y2="89" />
<line marker-end="url(#arrowhead)" stroke="none" x1="1158" x2="1471.4375" y1="42.5" y2="89" />
<line marker-end="url(#arrowhead)" stroke="none" x1="1134" x2="1423.4375" y1="42.5" y2="89" />
<line marker-end="url(#arrowhead)" stroke="none" x1="1110" x2="1375.4375" y1="42.5" y2="89" />
<line marker-end="url(#arrowhead)" stroke="none" x1="1086" x2="1327.4375" y1="42.5" y2="89" />
<line marker-end="url(#arrowhead)" stroke="none" x1="1062" x2="1279.4375" y1="42.5" y2="89" />
<line marker-end="url(#arrowhead)" stroke="none" x1="1038" x2="1231.4375" y1="42.5" y2="89" />
<line marker-end="url(#arrowhead)" stroke="none" x1="1014" x2="1183.4375" y1="42.5" y2="89" />
<line marker-end="url(#arrowhead)" stroke="none" x1="990" x2="1135.4375" y1="42.5" y2="89" />
<line marker-end="url(#arrowhead)" stroke="none" x1="966" x2="1087.4375" y1="42.5" y2="89" />
<line marker-end="url(#arrowhead)" stroke="none" x1="942" x2="1039.4375" y1="42.5" y2="89" />
<line marker-end="url(#arrowhead)" stroke="none" x1="918" x2="991.4375" y1="42.5" y2="89" />
<line marker-end="url(#arrowhead)" stroke="none" x1="894" x2="943.4375" y1="42.5" y2="89" />
<line marker-end="url(#arrowhead)" stroke="none" x1="870" x2="895.4375" y1="42.5" y2="89" />
<line marker-end="url(#arrowhead)" stroke="none" x1="846" x2="847.4375" y1="42.5" y2="89" />
<line marker-end="url(#arrowhead)" stroke="none" x1="822" x2="799.4375" y1="42.5" y2="89" />
<line marker-end="url(#arrowhead)" stroke="none" x1="798" x2="751.4375" y1="42.5" y2="89" />
<line marker-end="url(#arrowhead)" stroke="none" x1="774" x2="703.4375" y1="42.5" y2="89" />
<line marker-end="url(#arrowhead)" stroke="none" x1="750" x2="655.4375" y1="42.5" y2="89" />
<line marker-end="url(#arrowhead)" stroke="none" x1="726" x2="607.4375" y1="42.5" y2="89" />
<line marker-end="url(#arrowhead)" stroke="none" x1="702" x2="559.4375" y1="42.5" y2="89" />
<line marker-end="url(#arrowhead)" stroke="none" x1="678" x2="511.4375" y1="42.5" y2="89" />
<line marker-end="url(#arrowhead)" stroke="none" x1="654" x2="463.4375" y1="42.5" y2="89" />
<line marker-end="url(#arrowhead)" stroke="none" x1="630" x2="415.4375" y1="42.5" y2="89" />
<line marker-end="url(#arrowhead)" stroke="none" x1="606" x2="367.4375" y1="42.5" y2="89" />
<line marker-end="url(#arrowhead)" stroke="none" x1="582" x2="319.4375" y1="42.5" y2="89" />
<line marker-end="url(#arrowhead)" stroke="none" x1="558" x2="271.4375" y1="42.5" y2="89" />
<line marker-end="url(#arrowhead)" stroke="none" x1="534" x2="223.4375" y1="42.5" y2="89" />
<line marker-end="url(#arrowhead)" stroke="none" x1="510" x2="175.4375" y1="42.5" y2="89" />
<line marker-end="url(#arrowhead)" stroke="none" x1="486" x2="127.4375" y1="42.5" y2="89" />
</svg>