<svg xmlns="http://www.w3.org/2000/svg" viewBox="0 0 6246 123">
<style>
.label { font: 14px Helvetica; dominant-baseline: middle; text-anchor: middle; }
.title-left { font: 12px Helvetica; dominant-baseline: middle; }
.title-right { font: 12px Helvetica; dominant-baseline: middle; text-anchor: end; }
.title-intrinsic { font: 12px Helvetica; dominant-baseline: middle; text-anchor: middle; fill: #6778ED; }
.title { font: 12px Helvetica; dominant-baseline: middle; text-anchor: middle; }
.title-unused { font: 12px Helvetica; dominant-baseline: middle; text-anchor: middle; fill: #AAA; }
.register-name { font: 14px Helvetica; dominant-baseline: middle; text-anchor: end; font-style: italic; }
.memory-name { font: 14px Helvetica; dominant-baseline: middle; text-anchor: end; }
.register-number { font: 14px Helvetica; dominant-baseline: middle; text-anchor: start; }
.intrinsic-name { font: 14px Helvetica; dominant-baseline: middle; text-anchor: end; fill: #6778ED; }
.intrinsic-color { fill: #6778ED; }
.small-label { font: 12px Helvetica; dominant-baseline: middle; text-anchor: middle; }
.label-10px { font: 10px Helvetica; dominant-baseline: middle; text-anchor: middle; }
.smaller-label { font: 9px Helvetica; dominant-baseline: middle; text-anchor: middle; }
.label-6px { font: 6px Helvetica; dominant-baseline: middle; text-anchor: middle; }
.label-7px { font: 7px Helvetica; dominant-baseline: middle; text-anchor: middle; }
.unused { fill: #AAA; }
.dim { fill: #888; }
</style>
<defs>
<marker id="arrowhead" markerWidth="10.75" markerHeight="24.5" refX="9.0" refY="6.125" orient="auto">
<polyline points="0.5 0.5, 8.75 6.125, 0.5 11.75" stroke="#567DB6" stroke-width="1" fill="none"/>
</marker>
</defs>
<line stroke="#567DB6" stroke-width="1" x1="3882" x2="6187.2421875" y1="42.5" y2="89" />
<line stroke="#567DB6" stroke-width="1" x1="3786" x2="5803.2421875" y1="42.5" y2="89" />
<line stroke="#567DB6" stroke-width="1" x1="3690" x2="5419.2421875" y1="42.5" y2="89" />
<line stroke="#567DB6" stroke-width="1" x1="3594" x2="5035.2421875" y1="42.5" y2="89" />
<line stroke="#567DB6" stroke-width="1" x1="3498" x2="4651.2421875" y1="42.5" y2="89" />
<line stroke="#567DB6" stroke-width="1" x1="3402" x2="4267.2421875" y1="42.5" y2="89" />
<line stroke="#567DB6" stroke-width="1" x1="3306" x2="3883.2421875" y1="42.5" y2="89" />
<line stroke="#567DB6" stroke-width="1" x1="3210" x2="3499.2421875" y1="42.5" y2="89" />
<line stroke="#567DB6" stroke-width="1" x1="3114" x2="3115.2421875" y1="42.5" y2="89" />
<line stroke="#567DB6" stroke-width="1" x1="3018" x2="2731.2421875" y1="42.5" y2="89" />
<line stroke="#567DB6" stroke-width="1" x1="2922" x2="2347.2421875" y1="42.5" y2="89" />
<line stroke="#567DB6" stroke-width="1" x1="2826" x2="1963.2421875" y1="42.5" y2="89" />
<line stroke="#567DB6" stroke-width="1" x1="2730" x2="1579.2421875" y1="42.5" y2="89" />
<line stroke="#567DB6" stroke-width="1" x1="2634" x2="1195.2421875" y1="42.5" y2="89" />
<line stroke="#567DB6" stroke-width="1" x1="2538" x2="811.2421875" y1="42.5" y2="89" />
<line stroke="#567DB6" stroke-width="1" x1="2442" x2="427.2421875" y1="42.5" y2="89" />
<text class="title-left" x="90" y="9">upper</text>
<text class="title-right" x="6234" y="9">lower</text>
<rect fill="#DEE6F1" height="24" width="92.0625" x="3837.9375" y="18" />
<rect fill="#EEDDDB" height="24" width="3.9375" x="3834" y="18" />
<rect fill="none" height="24" stroke="#405C86" stroke-width="2" width="96" x="3834" y="18" />
<text class="small-label intrinsic-color" x="3882" y="31">base[0]</text>
<rect fill="#DEE6F1" height="24" width="92.0625" x="3741.9375" y="18" />
<rect fill="#EEDDDB" height="24" width="3.9375" x="3738" y="18" />
<rect fill="none" height="24" stroke="#405C86" stroke-width="2" width="96" x="3738" y="18" />
<text class="small-label intrinsic-color" x="3786" y="31">base[1]</text>
<rect fill="#DEE6F1" height="24" width="92.0625" x="3645.9375" y="18" />
<rect fill="#EEDDDB" height="24" width="3.9375" x="3642" y="18" />
<rect fill="none" height="24" stroke="#405C86" stroke-width="2" width="96" x="3642" y="18" />
<text class="small-label intrinsic-color" x="3690" y="31">base[2]</text>
<rect fill="#DEE6F1" height="24" width="92.0625" x="3549.9375" y="18" />
<rect fill="#EEDDDB" height="24" width="3.9375" x="3546" y="18" />
<rect fill="none" height="24" stroke="#405C86" stroke-width="2" width="96" x="3546" y="18" />
<text class="small-label intrinsic-color" x="3594" y="31">base[3]</text>
<rect fill="#DEE6F1" height="24" width="92.0625" x="3453.9375" y="18" />
<rect fill="#EEDDDB" height="24" width="3.9375" x="3450" y="18" />
<rect fill="none" height="24" stroke="#405C86" stroke-width="2" width="96" x="3450" y="18" />
<text class="small-label intrinsic-color" x="3498" y="31">base[4]</text>
<rect fill="#DEE6F1" height="24" width="92.0625" x="3357.9375" y="18" />
<rect fill="#EEDDDB" height="24" width="3.9375" x="3354" y="18" />
<rect fill="none" height="24" stroke="#405C86" stroke-width="2" width="96" x="3354" y="18" />
<text class="small-label intrinsic-color" x="3402" y="31">base[5]</text>
<rect fill="#DEE6F1" height="24" width="92.0625" x="3261.9375" y="18" />
<rect fill="#EEDDDB" height="24" width="3.9375" x="3258" y="18" />
<rect fill="none" height="24" stroke="#405C86" stroke-width="2" width="96" x="3258" y="18" />
<text class="small-label intrinsic-color" x="3306" y="31">base[6]</text>
<rect fill="#DEE6F1" height="24" width="92.0625" x="3165.9375" y="18" />
<rect fill="#EEDDDB" height="24" width="3.9375" x="3162" y="18" />
<rect fill="none" height="24" stroke="#405C86" stroke-width="2" width="96" x="3162" y="18" />
<text class="small-label intrinsic-color" x="3210" y="31">base[7]</text>
<rect fill="#DEE6F1" height="24" width="92.0625" x="3069.9375" y="18" />
<rect fill="#EEDDDB" height="24" width="3.9375" x="3066" y="18" />
<rect fill="none" height="24" stroke="#405C86" stroke-width="2" width="96" x="3066" y="18" />
<text class="small-label intrinsic-color" x="3114" y="31">base[8]</text>
<rect fill="#DEE6F1" height="24" width="92.0625" x="2973.9375" y="18" />
<rect fill="#EEDDDB" height="24" width="3.9375" x="2970" y="18" />
<rect fill="none" height="24" stroke="#405C86" stroke-width="2" width="96" x="2970" y="18" />
<text class="small-label intrinsic-color" x="3018" y="31">base[9]</text>
<rect fill="#DEE6F1" height="24" width="92.0625" x="2877.9375" y="18" />
<rect fill="#EEDDDB" height="24" width="3.9375" x="2874" y="18" />
<rect fill="none" height="24" stroke="#405C86" stroke-width="2" width="96" x="2874" y="18" />
<text class="small-label intrinsic-color" x="2922" y="31">base[10]</text>
<rect fill="#DEE6F1" height="24" width="92.0625" x="2781.9375" y="18" />
<rect fill="#EEDDDB" height="24" width="3.9375" x="2778" y="18" />
<rect fill="none" height="24" stroke="#405C86" stroke-width="2" width="96" x="2778" y="18" />
<text class="small-label intrinsic-color" x="2826" y="31">base[11]</text>
<rect fill="#DEE6F1" height="24" width="92.0625" x="2685.9375" y="18" />
<rect fill="#EEDDDB" height="24" width="3.9375" x="2682" y="18" />
<rect fill="none" height="24" stroke="#405C86" stroke-width="2" width="96" x="2682" y="18" />
<text class="small-label intrinsic-color" x="2730" y="31">base[12]</text>
<rect fill="#DEE6F1" height="24" width="92.0625" x="2589.9375" y="18" />
<rect fill="#EEDDDB" height="24" width="3.9375" x="2586" y="18" />
<rect fill="none" height="24" stroke="#405C86" stroke-width="2" width="96" x="2586" y="18" />
<text class="small-label intrinsic-color" x="2634" y="31">base[13]</text>
<rect fill="#DEE6F1" height="24" width="92.0625" x="2493.9375" y="18" />
<rect fill="#EEDDDB" height="24" width="3.9375" x="2490" y="18" />
<rect fill="none" height="24" stroke="#405C86" stroke-width="2" width="96" x="2490" y="18" />
<text class="small-label intrinsic-color" x="2538" y="31">base[14]</text>
<rect fill="#DEE6F1" height="24" width="92.0625" x="2397.9375" y="18" />
<rect fill="#EEDDDB" height="24" width="3.9375" x="2394" y="18" />
<rect fill="none" height="24" stroke="#405C86" stroke-width="2" width="96" x="2394" y="18" />
<text class="small-label intrinsic-color" x="2442" y="31">base[15]</text>
<text class="register-name" x="80" y="30">[mem]</text>
<text class="intrinsic-name" x="80" y="42">*base</text>
<text class="register-number" x="10" y="30">(1)</text>
<rect fill="#DEE6F1" height="24" width="93.515625" x="6140.484375" y="90" />
<rect fill="#EEDDDB" height="24" width="290.484375" x="5850" y="90" />
<rect fill="none" height="24" stroke="#405C86" stroke-width="2" width="384" x="5850" y="90" />
<rect fill="#DEE6F1" height="24" width="93.515625" x="5756.484375" y="90" />
<rect fill="#EEDDDB" height="24" width="290.484375" x="5466" y="90" />
<rect fill="none" height="24" stroke="#405C86" stroke-width="2" width="384" x="5466" y="90" />
<rect fill="#DEE6F1" height="24" width="93.515625" x="5372.484375" y="90" />
<rect fill="#EEDDDB" height="24" width="290.484375" x="5082" y="90" />
<rect fill="none" height="24" stroke="#405C86" stroke-width="2" width="384" x="5082" y="90" />
<rect fill="#DEE6F1" height="24" width="93.515625" x="4988.484375" y="90" />
<rect fill="#EEDDDB" height="24" width="290.484375" x="4698" y="90" />
<rect fill="none" height="24" stroke="#405C86" stroke-width="2" width="384" x="4698" y="90" />
<rect fill="#DEE6F1" height="24" width="93.515625" x="4604.484375" y="90" />
<rect fill="#EEDDDB" height="24" width="290.484375" x="4314" y="90" />
<rect fill="none" height="24" stroke="#405C86" stroke-width="2" width="384" x="4314" y="90" />
<rect fill="#DEE6F1" height="24" width="93.515625" x="4220.484375" y="90" />
<rect fill="#EEDDDB" height="24" width="290.484375" x="3930" y="90" />
<rect fill="none" height="24" stroke="#405C86" stroke-width="2" width="384" x="3930" y="90" />
<rect fill="#DEE6F1" height="24" width="93.515625" x="3836.484375" y="90" />
<rect fill="#EEDDDB" height="24" width="290.484375" x="3546" y="90" />
<rect fill="none" height="24" stroke="#405C86" stroke-width="2" width="384" x="3546" y="90" />
<rect fill="#DEE6F1" height="24" width="93.515625" x="3452.484375" y="90" />
<rect fill="#EEDDDB" height="24" width="290.484375" x="3162" y="90" />
<rect fill="none" height="24" stroke="#405C86" stroke-width="2" width="384" x="3162" y="90" />
<rect fill="#DEE6F1" height="24" width="93.515625" x="3068.484375" y="90" />
<rect fill="#EEDDDB" height="24" width="290.484375" x="2778" y="90" />
<rect fill="none" height="24" stroke="#405C86" stroke-width="2" width="384" x="2778" y="90" />
<rect fill="#DEE6F1" height="24" width="93.515625" x="2684.484375" y="90" />
<rect fill="#EEDDDB" height="24" width="290.484375" x="2394" y="90" />
<rect fill="none" height="24" stroke="#405C86" stroke-width="2" width="384" x="2394" y="90" />
<rect fill="#DEE6F1" height="24" width="93.515625" x="2300.484375" y="90" />
<rect fill="#EEDDDB" height="24" width="290.484375" x="2010" y="90" />
<rect fill="none" height="24" stroke="#405C86" stroke-width="2" width="384" x="2010" y="90" />
<rect fill="#DEE6F1" height="24" width="93.515625" x="1916.484375" y="90" />
<rect fill="#EEDDDB" height="24" width="290.484375" x="1626" y="90" />
<rect fill="none" height="24" stroke="#405C86" stroke-width="2" width="384" x="1626" y="90" />
<rect fill="#DEE6F1" height="24" width="93.515625" x="1532.484375" y="90" />
<rect fill="#EEDDDB" height="24" width="290.484375" x="1242" y="90" />
<rect fill="none" height="24" stroke="#405C86" stroke-width="2" width="384" x="1242" y="90" />
<rect fill="#DEE6F1" height="24" width="93.515625" x="1148.484375" y="90" />
<rect fill="#EEDDDB" height="24" width="290.484375" x="858" y="90" />
<rect fill="none" height="24" stroke="#405C86" stroke-width="2" width="384" x="858" y="90" />
<rect fill="#DEE6F1" height="24" width="93.515625" x="764.484375" y="90" />
<rect fill="#EEDDDB" height="24" width="290.484375" x="474" y="90" />
<rect fill="none" height="24" stroke="#405C86" stroke-width="2" width="384" x="474" y="90" />
<rect fill="#DEE6F1" height="24" width="93.515625" x="380.484375" y="90" />
<rect fill="#EEDDDB" height="24" width="290.484375" x="90" y="90" />
<rect fill="none" height="24" stroke="#405C86" stroke-width="2" width="384" x="90" y="90" />
<text class="register-name" x="80" y="102">Zt</text>
<text class="intrinsic-name" x="80" y="114">returns</text>
<text class="register-number" x="10" y="102">(2)</text>
<line marker-end="url(#arrowhead)" stroke="none" x1="3882" x2="6187.2421875" y1="42.5" y2="89" />
<line marker-end="url(#arrowhead)" stroke="none" x1="3786" x2="5803.2421875" y1="42.5" y2="89" />
<line marker-end="url(#arrowhead)" stroke="none" x1="3690" x2="5419.2421875" y1="42.5" y2="89" />
<line marker-end="url(#arrowhead)" stroke="none" x1="3594" x2="5035.2421875" y1="42.5" y2="89" />
<line marker-end="url(#arrowhead)" stroke="none" x1="3498" x2="4651.2421875" y1="42.5" y2="89" />
<line marker-end="url(#arrowhead)" stroke="none" x1="3402" x2="4267.2421875" y1="42.5" y2="89" />
<line marker-end="url(#arrowhead)" stroke="none" x1="3306" x2="3883.2421875" y1="42.5" y2="89" />
<line marker-end="url(#arrowhead)" stroke="none" x1="3210" x2="3499.2421875" y1="42.5" y2="89" />
<line marker-end="url(#arrowhead)" stroke="none" x1="3114" x2="3115.2421875" y1="42.5" y2="89" />
<line marker-end="url(#arrowhead)" stroke="none" x1="3018" x2="2731.2421875" y1="42.5" y2="89" />
<line marker-end="url(#arrowhead)" stroke="none" x1="2922" x2="2347.2421875" y1="42.5" y2="89" />
<line marker-end="url(#arrowhead)" stroke="none" x1="2826" x2="1963.2421875" y1="42.5" y2="89" />
<line marker-end="url(#arrowhead)" stroke="none" x1="2730" x2="1579.2421875" y1="42.5" y2="89" />
<line marker-end="url(#arrowhead)" stroke="none" x1="2634" x2="1195.2421875" y1="42.5" y2="89" />
<line marker-end="url(#arrowhead)" stroke="none" x1="2538" x2="811.2421875" y1="42.5" y2="89" />
<line marker-end="url(#arrowhead)" stroke="none" x1="2442" x2="427.2421875" y1="42.5" y2="89" />
</svg>