<svg xmlns="http://www.w3.org/2000/svg" viewBox="0 0 6246 123">
<style>
.label { font: 14px Helvetica; dominant-baseline: middle; text-anchor: middle; }
.title-left { font: 12px Helvetica; dominant-baseline: middle; }
.title-right { font: 12px Helvetica; dominant-baseline: middle; text-anchor: end; }
.title-intrinsic { font: 12px Helvetica; dominant-baseline: middle; text-anchor: middle; fill: #6778ED; }
.title { font: 12px Helvetica; dominant-baseline: middle; text-anchor: middle; }
.title-unused { font: 12px Helvetica; dominant-baseline: middle; text-anchor: middle; fill: #AAA; }
.register-name { font: 14px Helvetica; dominant-baseline: middle; text-anchor: end; font-style: italic; }
.memory-name { font: 14px Helvetica; dominant-baseline: middle; text-anchor: end; }
.register-number { font: 14px Helvetica; dominant-baseline: middle; text-anchor: start; }
.intrinsic-name { font: 14px Helvetica; dominant-baseline: middle; text-anchor: end; fill: #6778ED; }
.intrinsic-color { fill: #6778ED; }
.small-label { font: 12px Helvetica; dominant-baseline: middle; text-anchor: middle; }
.label-10px { font: 10px Helvetica; dominant-baseline: middle; text-anchor: middle; }
.smaller-label { font: 9px Helvetica; dominant-baseline: middle; text-anchor: middle; }
.label-6px { font: 6px Helvetica; dominant-baseline: middle; text-anchor: middle; }
.label-7px { font: 7px Helvetica; dominant-baseline: middle; text-anchor: middle; }
.unused { fill: #AAA; }
.dim { fill: #888; }
</style>
<defs>
<marker id="arrowhead" markerWidth="10.75" markerHeight="24.5" refX="9.0" refY="6.125" orient="auto">
<polyline points="0.5 0.5, 8.75 6.125, 0.5 11.75" stroke="#567DB6" stroke-width="1" fill="none"/>
</marker>
</defs>
<line stroke="#567DB6" stroke-width="1" x1="4650" x2="6187.484375" y1="42.5" y2="89" />
<line stroke="#567DB6" stroke-width="1" x1="4554" x2="5995.484375" y1="42.5" y2="89" />
<line stroke="#567DB6" stroke-width="1" x1="4458" x2="5803.484375" y1="42.5" y2="89" />
<line stroke="#567DB6" stroke-width="1" x1="4362" x2="5611.484375" y1="42.5" y2="89" />
<line stroke="#567DB6" stroke-width="1" x1="4266" x2="5419.484375" y1="42.5" y2="89" />
<line stroke="#567DB6" stroke-width="1" x1="4170" x2="5227.484375" y1="42.5" y2="89" />
<line stroke="#567DB6" stroke-width="1" x1="4074" x2="5035.484375" y1="42.5" y2="89" />
<line stroke="#567DB6" stroke-width="1" x1="3978" x2="4843.484375" y1="42.5" y2="89" />
<line stroke="#567DB6" stroke-width="1" x1="3882" x2="4651.484375" y1="42.5" y2="89" />
<line stroke="#567DB6" stroke-width="1" x1="3786" x2="4459.484375" y1="42.5" y2="89" />
<line stroke="#567DB6" stroke-width="1" x1="3690" x2="4267.484375" y1="42.5" y2="89" />
<line stroke="#567DB6" stroke-width="1" x1="3594" x2="4075.484375" y1="42.5" y2="89" />
<line stroke="#567DB6" stroke-width="1" x1="3498" x2="3883.484375" y1="42.5" y2="89" />
<line stroke="#567DB6" stroke-width="1" x1="3402" x2="3691.484375" y1="42.5" y2="89" />
<line stroke="#567DB6" stroke-width="1" x1="3306" x2="3499.484375" y1="42.5" y2="89" />
<line stroke="#567DB6" stroke-width="1" x1="3210" x2="3307.484375" y1="42.5" y2="89" />
<line stroke="#567DB6" stroke-width="1" x1="3114" x2="3115.484375" y1="42.5" y2="89" />
<line stroke="#567DB6" stroke-width="1" x1="3018" x2="2923.484375" y1="42.5" y2="89" />
<line stroke="#567DB6" stroke-width="1" x1="2922" x2="2731.484375" y1="42.5" y2="89" />
<line stroke="#567DB6" stroke-width="1" x1="2826" x2="2539.484375" y1="42.5" y2="89" />
<line stroke="#567DB6" stroke-width="1" x1="2730" x2="2347.484375" y1="42.5" y2="89" />
<line stroke="#567DB6" stroke-width="1" x1="2634" x2="2155.484375" y1="42.5" y2="89" />
<line stroke="#567DB6" stroke-width="1" x1="2538" x2="1963.484375" y1="42.5" y2="89" />
<line stroke="#567DB6" stroke-width="1" x1="2442" x2="1771.484375" y1="42.5" y2="89" />
<line stroke="#567DB6" stroke-width="1" x1="2346" x2="1579.484375" y1="42.5" y2="89" />
<line stroke="#567DB6" stroke-width="1" x1="2250" x2="1387.484375" y1="42.5" y2="89" />
<line stroke="#567DB6" stroke-width="1" x1="2154" x2="1195.484375" y1="42.5" y2="89" />
<line stroke="#567DB6" stroke-width="1" x1="2058" x2="1003.484375" y1="42.5" y2="89" />
<line stroke="#567DB6" stroke-width="1" x1="1962" x2="811.484375" y1="42.5" y2="89" />
<line stroke="#567DB6" stroke-width="1" x1="1866" x2="619.484375" y1="42.5" y2="89" />
<line stroke="#567DB6" stroke-width="1" x1="1770" x2="427.484375" y1="42.5" y2="89" />
<line stroke="#567DB6" stroke-width="1" x1="1674" x2="235.484375" y1="42.5" y2="89" />
<text class="title-left" x="90" y="9">upper</text>
<text class="title-right" x="6234" y="9">lower</text>
<rect fill="#DEE6F1" height="24" width="92.0625" x="4605.9375" y="18" />
<rect fill="#EEDDDB" height="24" width="3.9375" x="4602" y="18" />
<rect fill="none" height="24" stroke="#405C86" stroke-width="2" width="96" x="4602" y="18" />
<text class="small-label intrinsic-color" x="4650" y="31">base[0]</text>
<rect fill="#DEE6F1" height="24" width="92.0625" x="4509.9375" y="18" />
<rect fill="#EEDDDB" height="24" width="3.9375" x="4506" y="18" />
<rect fill="none" height="24" stroke="#405C86" stroke-width="2" width="96" x="4506" y="18" />
<text class="small-label intrinsic-color" x="4554" y="31">base[1]</text>
<rect fill="#DEE6F1" height="24" width="92.0625" x="4413.9375" y="18" />
<rect fill="#EEDDDB" height="24" width="3.9375" x="4410" y="18" />
<rect fill="none" height="24" stroke="#405C86" stroke-width="2" width="96" x="4410" y="18" />
<text class="small-label intrinsic-color" x="4458" y="31">base[2]</text>
<rect fill="#DEE6F1" height="24" width="92.0625" x="4317.9375" y="18" />
<rect fill="#EEDDDB" height="24" width="3.9375" x="4314" y="18" />
<rect fill="none" height="24" stroke="#405C86" stroke-width="2" width="96" x="4314" y="18" />
<text class="small-label intrinsic-color" x="4362" y="31">base[3]</text>
<rect fill="#DEE6F1" height="24" width="92.0625" x="4221.9375" y="18" />
<rect fill="#EEDDDB" height="24" width="3.9375" x="4218" y="18" />
<rect fill="none" height="24" stroke="#405C86" stroke-width="2" width="96" x="4218" y="18" />
<text class="small-label intrinsic-color" x="4266" y="31">base[4]</text>
<rect fill="#DEE6F1" height="24" width="92.0625" x="4125.9375" y="18" />
<rect fill="#EEDDDB" height="24" width="3.9375" x="4122" y="18" />
<rect fill="none" height="24" stroke="#405C86" stroke-width="2" width="96" x="4122" y="18" />
<text class="small-label intrinsic-color" x="4170" y="31">base[5]</text>
<rect fill="#DEE6F1" height="24" width="92.0625" x="4029.9375" y="18" />
<rect fill="#EEDDDB" height="24" width="3.9375" x="4026" y="18" />
<rect fill="none" height="24" stroke="#405C86" stroke-width="2" width="96" x="4026" y="18" />
<text class="small-label intrinsic-color" x="4074" y="31">base[6]</text>
<rect fill="#DEE6F1" height="24" width="92.0625" x="3933.9375" y="18" />
<rect fill="#EEDDDB" height="24" width="3.9375" x="3930" y="18" />
<rect fill="none" height="24" stroke="#405C86" stroke-width="2" width="96" x="3930" y="18" />
<text class="small-label intrinsic-color" x="3978" y="31">base[7]</text>
<rect fill="#DEE6F1" height="24" width="92.0625" x="3837.9375" y="18" />
<rect fill="#EEDDDB" height="24" width="3.9375" x="3834" y="18" />
<rect fill="none" height="24" stroke="#405C86" stroke-width="2" width="96" x="3834" y="18" />
<text class="small-label intrinsic-color" x="3882" y="31">base[8]</text>
<rect fill="#DEE6F1" height="24" width="92.0625" x="3741.9375" y="18" />
<rect fill="#EEDDDB" height="24" width="3.9375" x="3738" y="18" />
<rect fill="none" height="24" stroke="#405C86" stroke-width="2" width="96" x="3738" y="18" />
<text class="small-label intrinsic-color" x="3786" y="31">base[9]</text>
<rect fill="#DEE6F1" height="24" width="92.0625" x="3645.9375" y="18" />
<rect fill="#EEDDDB" height="24" width="3.9375" x="3642" y="18" />
<rect fill="none" height="24" stroke="#405C86" stroke-width="2" width="96" x="3642" y="18" />
<text class="small-label intrinsic-color" x="3690" y="31">base[10]</text>
<rect fill="#DEE6F1" height="24" width="92.0625" x="3549.9375" y="18" />
<rect fill="#EEDDDB" height="24" width="3.9375" x="3546" y="18" />
<rect fill="none" height="24" stroke="#405C86" stroke-width="2" width="96" x="3546" y="18" />
<text class="small-label intrinsic-color" x="3594" y="31">base[11]</text>
<rect fill="#DEE6F1" height="24" width="92.0625" x="3453.9375" y="18" />
<rect fill="#EEDDDB" height="24" width="3.9375" x="3450" y="18" />
<rect fill="none" height="24" stroke="#405C86" stroke-width="2" width="96" x="3450" y="18" />
<text class="small-label intrinsic-color" x="3498" y="31">base[12]</text>
<rect fill="#DEE6F1" height="24" width="92.0625" x="3357.9375" y="18" />
<rect fill="#EEDDDB" height="24" width="3.9375" x="3354" y="18" />
<rect fill="none" height="24" stroke="#405C86" stroke-width="2" width="96" x="3354" y="18" />
<text class="small-label intrinsic-color" x="3402" y="31">base[13]</text>
<rect fill="#DEE6F1" height="24" width="92.0625" x="3261.9375" y="18" />
<rect fill="#EEDDDB" height="24" width="3.9375" x="3258" y="18" />
<rect fill="none" height="24" stroke="#405C86" stroke-width="2" width="96" x="3258" y="18" />
<text class="small-label intrinsic-color" x="3306" y="31">base[14]</text>
<rect fill="#DEE6F1" height="24" width="92.0625" x="3165.9375" y="18" />
<rect fill="#EEDDDB" height="24" width="3.9375" x="3162" y="18" />
<rect fill="none" height="24" stroke="#405C86" stroke-width="2" width="96" x="3162" y="18" />
<text class="small-label intrinsic-color" x="3210" y="31">base[15]</text>
<rect fill="#DEE6F1" height="24" width="92.0625" x="3069.9375" y="18" />
<rect fill="#EEDDDB" height="24" width="3.9375" x="3066" y="18" />
<rect fill="none" height="24" stroke="#405C86" stroke-width="2" width="96" x="3066" y="18" />
<text class="small-label intrinsic-color" x="3114" y="31">base[16]</text>
<rect fill="#DEE6F1" height="24" width="92.0625" x="2973.9375" y="18" />
<rect fill="#EEDDDB" height="24" width="3.9375" x="2970" y="18" />
<rect fill="none" height="24" stroke="#405C86" stroke-width="2" width="96" x="2970" y="18" />
<text class="small-label intrinsic-color" x="3018" y="31">base[17]</text>
<rect fill="#DEE6F1" height="24" width="92.0625" x="2877.9375" y="18" />
<rect fill="#EEDDDB" height="24" width="3.9375" x="2874" y="18" />
<rect fill="none" height="24" stroke="#405C86" stroke-width="2" width="96" x="2874" y="18" />
<text class="small-label intrinsic-color" x="2922" y="31">base[18]</text>
<rect fill="#DEE6F1" height="24" width="92.0625" x="2781.9375" y="18" />
<rect fill="#EEDDDB" height="24" width="3.9375" x="2778" y="18" />
<rect fill="none" height="24" stroke="#405C86" stroke-width="2" width="96" x="2778" y="18" />
<text class="small-label intrinsic-color" x="2826" y="31">base[19]</text>
<rect fill="#DEE6F1" height="24" width="92.0625" x="2685.9375" y="18" />
<rect fill="#EEDDDB" height="24" width="3.9375" x="2682" y="18" />
<rect fill="none" height="24" stroke="#405C86" stroke-width="2" width="96" x="2682" y="18" />
<text class="small-label intrinsic-color" x="2730" y="31">base[20]</text>
<rect fill="#DEE6F1" height="24" width="92.0625" x="2589.9375" y="18" />
<rect fill="#EEDDDB" height="24" width="3.9375" x="2586" y="18" />
<rect fill="none" height="24" stroke="#405C86" stroke-width="2" width="96" x="2586" y="18" />
<text class="small-label intrinsic-color" x="2634" y="31">base[21]</text>
<rect fill="#DEE6F1" height="24" width="92.0625" x="2493.9375" y="18" />
<rect fill="#EEDDDB" height="24" width="3.9375" x="2490" y="18" />
<rect fill="none" height="24" stroke="#405C86" stroke-width="2" width="96" x="2490" y="18" />
<text class="small-label intrinsic-color" x="2538" y="31">base[22]</text>
<rect fill="#DEE6F1" height="24" width="92.0625" x="2397.9375" y="18" />
<rect fill="#EEDDDB" height="24" width="3.9375" x="2394" y="18" />
<rect fill="none" height="24" stroke="#405C86" stroke-width="2" width="96" x="2394" y="18" />
<text class="small-label intrinsic-color" x="2442" y="31">base[23]</text>
<rect fill="#DEE6F1" height="24" width="92.0625" x="2301.9375" y="18" />
<rect fill="#EEDDDB" height="24" width="3.9375" x="2298" y="18" />
<rect fill="none" height="24" stroke="#405C86" stroke-width="2" width="96" x="2298" y="18" />
<text class="small-label intrinsic-color" x="2346" y="31">base[24]</text>
<rect fill="#DEE6F1" height="24" width="92.0625" x="2205.9375" y="18" />
<rect fill="#EEDDDB" height="24" width="3.9375" x="2202" y="18" />
<rect fill="none" height="24" stroke="#405C86" stroke-width="2" width="96" x="2202" y="18" />
<text class="small-label intrinsic-color" x="2250" y="31">base[25]</text>
<rect fill="#DEE6F1" height="24" width="92.0625" x="2109.9375" y="18" />
<rect fill="#EEDDDB" height="24" width="3.9375" x="2106" y="18" />
<rect fill="none" height="24" stroke="#405C86" stroke-width="2" width="96" x="2106" y="18" />
<text class="small-label intrinsic-color" x="2154" y="31">base[26]</text>
<rect fill="#DEE6F1" height="24" width="92.0625" x="2013.9375" y="18" />
<rect fill="#EEDDDB" height="24" width="3.9375" x="2010" y="18" />
<rect fill="none" height="24" stroke="#405C86" stroke-width="2" width="96" x="2010" y="18" />
<text class="small-label intrinsic-color" x="2058" y="31">base[27]</text>
<rect fill="#DEE6F1" height="24" width="92.0625" x="1917.9375" y="18" />
<rect fill="#EEDDDB" height="24" width="3.9375" x="1914" y="18" />
<rect fill="none" height="24" stroke="#405C86" stroke-width="2" width="96" x="1914" y="18" />
<text class="small-label intrinsic-color" x="1962" y="31">base[28]</text>
<rect fill="#DEE6F1" height="24" width="92.0625" x="1821.9375" y="18" />
<rect fill="#EEDDDB" height="24" width="3.9375" x="1818" y="18" />
<rect fill="none" height="24" stroke="#405C86" stroke-width="2" width="96" x="1818" y="18" />
<text class="small-label intrinsic-color" x="1866" y="31">base[29]</text>
<rect fill="#DEE6F1" height="24" width="92.0625" x="1725.9375" y="18" />
<rect fill="#EEDDDB" height="24" width="3.9375" x="1722" y="18" />
<rect fill="none" height="24" stroke="#405C86" stroke-width="2" width="96" x="1722" y="18" />
<text class="small-label intrinsic-color" x="1770" y="31">base[30]</text>
<rect fill="#DEE6F1" height="24" width="92.0625" x="1629.9375" y="18" />
<rect fill="#EEDDDB" height="24" width="3.9375" x="1626" y="18" />
<rect fill="none" height="24" stroke="#405C86" stroke-width="2" width="96" x="1626" y="18" />
<text class="small-label intrinsic-color" x="1674" y="31">base[31]</text>
<text class="register-name" x="80" y="30">[mem]</text>
<text class="intrinsic-name" x="80" y="42">*base</text>
<text class="register-number" x="10" y="30">(1)</text>
<rect fill="#DEE6F1" height="24" width="93.03125" x="6140.96875" y="90" />
<rect fill="#EEDDDB" height="24" width="98.96875" x="6042" y="90" />
<rect fill="none" height="24" stroke="#405C86" stroke-width="2" width="192" x="6042" y="90" />
<rect fill="#DEE6F1" height="24" width="93.03125" x="5948.96875" y="90" />
<rect fill="#EEDDDB" height="24" width="98.96875" x="5850" y="90" />
<rect fill="none" height="24" stroke="#405C86" stroke-width="2" width="192" x="5850" y="90" />
<rect fill="#DEE6F1" height="24" width="93.03125" x="5756.96875" y="90" />
<rect fill="#EEDDDB" height="24" width="98.96875" x="5658" y="90" />
<rect fill="none" height="24" stroke="#405C86" stroke-width="2" width="192" x="5658" y="90" />
<rect fill="#DEE6F1" height="24" width="93.03125" x="5564.96875" y="90" />
<rect fill="#EEDDDB" height="24" width="98.96875" x="5466" y="90" />
<rect fill="none" height="24" stroke="#405C86" stroke-width="2" width="192" x="5466" y="90" />
<rect fill="#DEE6F1" height="24" width="93.03125" x="5372.96875" y="90" />
<rect fill="#EEDDDB" height="24" width="98.96875" x="5274" y="90" />
<rect fill="none" height="24" stroke="#405C86" stroke-width="2" width="192" x="5274" y="90" />
<rect fill="#DEE6F1" height="24" width="93.03125" x="5180.96875" y="90" />
<rect fill="#EEDDDB" height="24" width="98.96875" x="5082" y="90" />
<rect fill="none" height="24" stroke="#405C86" stroke-width="2" width="192" x="5082" y="90" />
<rect fill="#DEE6F1" height="24" width="93.03125" x="4988.96875" y="90" />
<rect fill="#EEDDDB" height="24" width="98.96875" x="4890" y="90" />
<rect fill="none" height="24" stroke="#405C86" stroke-width="2" width="192" x="4890" y="90" />
<rect fill="#DEE6F1" height="24" width="93.03125" x="4796.96875" y="90" />
<rect fill="#EEDDDB" height="24" width="98.96875" x="4698" y="90" />
<rect fill="none" height="24" stroke="#405C86" stroke-width="2" width="192" x="4698" y="90" />
<rect fill="#DEE6F1" height="24" width="93.03125" x="4604.96875" y="90" />
<rect fill="#EEDDDB" height="24" width="98.96875" x="4506" y="90" />
<rect fill="none" height="24" stroke="#405C86" stroke-width="2" width="192" x="4506" y="90" />
<rect fill="#DEE6F1" height="24" width="93.03125" x="4412.96875" y="90" />
<rect fill="#EEDDDB" height="24" width="98.96875" x="4314" y="90" />
<rect fill="none" height="24" stroke="#405C86" stroke-width="2" width="192" x="4314" y="90" />
<rect fill="#DEE6F1" height="24" width="93.03125" x="4220.96875" y="90" />
<rect fill="#EEDDDB" height="24" width="98.96875" x="4122" y="90" />
<rect fill="none" height="24" stroke="#405C86" stroke-width="2" width="192" x="4122" y="90" />
<rect fill="#DEE6F1" height="24" width="93.03125" x="4028.96875" y="90" />
<rect fill="#EEDDDB" height="24" width="98.96875" x="3930" y="90" />
<rect fill="none" height="24" stroke="#405C86" stroke-width="2" width="192" x="3930" y="90" />
<rect fill="#DEE6F1" height="24" width="93.03125" x="3836.96875" y="90" />
<rect fill="#EEDDDB" height="24" width="98.96875" x="3738" y="90" />
<rect fill="none" height="24" stroke="#405C86" stroke-width="2" width="192" x="3738" y="90" />
<rect fill="#DEE6F1" height="24" width="93.03125" x="3644.96875" y="90" />
<rect fill="#EEDDDB" height="24" width="98.96875" x="3546" y="90" />
<rect fill="none" height="24" stroke="#405C86" stroke-width="2" width="192" x="3546" y="90" />
<rect fill="#DEE6F1" height="24" width="93.03125" x="3452.96875" y="90" />
<rect fill="#EEDDDB" height="24" width="98.96875" x="3354" y="90" />
<rect fill="none" height="24" stroke="#405C86" stroke-width="2" width="192" x="3354" y="90" />
<rect fill="#DEE6F1" height="24" width="93.03125" x="3260.96875" y="90" />
<rect fill="#EEDDDB" height="24" width="98.96875" x="3162" y="90" />
<rect fill="none" height="24" stroke="#405C86" stroke-width="2" width="192" x="3162" y="90" />
<rect fill="#DEE6F1" height="24" width="93.03125" x="3068.96875" y="90" />
<rect fill="#EEDDDB" height="24" width="98.96875" x="2970" y="90" />
<rect fill="none" height="24" stroke="#405C86" stroke-width="2" width="192" x="2970" y="90" />
<rect fill="#DEE6F1" height="24" width="93.03125" x="2876.96875" y="90" />
<rect fill="#EEDDDB" height="24" width="98.96875" x="2778" y="90" />
<rect fill="none" height="24" stroke="#405C86" stroke-width="2" width="192" x="2778" y="90" />
<rect fill="#DEE6F1" height="24" width="93.03125" x="2684.96875" y="90" />
<rect fill="#EEDDDB" height="24" width="98.96875" x="2586" y="90" />
<rect fill="none" height="24" stroke="#405C86" stroke-width="2" width="192" x="2586" y="90" />
<rect fill="#DEE6F1" height="24" width="93.03125" x="2492.96875" y="90" />
<rect fill="#EEDDDB" height="24" width="98.96875" x="2394" y="90" />
<rect fill="none" height="24" stroke="#405C86" stroke-width="2" width="192" x="2394" y="90" />
<rect fill="#DEE6F1" height="24" width="93.03125" x="2300.96875" y="90" />
<rect fill="#EEDDDB" height="24" width="98.96875" x="2202" y="90" />
<rect fill="none" height="24" stroke="#405C86" stroke-width="2" width="192" x="2202" y="90" />
<rect fill="#DEE6F1" height="24" width="93.03125" x="2108.96875" y="90" />
<rect fill="#EEDDDB" height="24" width="98.96875" x="2010" y="90" />
<rect fill="none" height="24" stroke="#405C86" stroke-width="2" width="192" x="2010" y="90" />
<rect fill="#DEE6F1" height="24" width="93.03125" x="1916.96875" y="90" />
<rect fill="#EEDDDB" height="24" width="98.96875" x="1818" y="90" />
<rect fill="none" height="24" stroke="#405C86" stroke-width="2" width="192" x="1818" y="90" />
<rect fill="#DEE6F1" height="24" width="93.03125" x="1724.96875" y="90" />
<rect fill="#EEDDDB" height="24" width="98.96875" x="1626" y="90" />
<rect fill="none" height="24" stroke="#405C86" stroke-width="2" width="192" x="1626" y="90" />
<rect fill="#DEE6F1" height="24" width="93.03125" x="1532.96875" y="90" />
<rect fill="#EEDDDB" height="24" width="98.96875" x="1434" y="90" />
<rect fill="none" height="24" stroke="#405C86" stroke-width="2" width="192" x="1434" y="90" />
<rect fill="#DEE6F1" height="24" width="93.03125" x="1340.96875" y="90" />
<rect fill="#EEDDDB" height="24" width="98.96875" x="1242" y="90" />
<rect fill="none" height="24" stroke="#405C86" stroke-width="2" width="192" x="1242" y="90" />
<rect fill="#DEE6F1" height="24" width="93.03125" x="1148.96875" y="90" />
<rect fill="#EEDDDB" height="24" width="98.96875" x="1050" y="90" />
<rect fill="none" height="24" stroke="#405C86" stroke-width="2" width="192" x="1050" y="90" />
<rect fill="#DEE6F1" height="24" width="93.03125" x="956.96875" y="90" />
<rect fill="#EEDDDB" height="24" width="98.96875" x="858" y="90" />
<rect fill="none" height="24" stroke="#405C86" stroke-width="2" width="192" x="858" y="90" />
<rect fill="#DEE6F1" height="24" width="93.03125" x="764.96875" y="90" />
<rect fill="#EEDDDB" height="24" width="98.96875" x="666" y="90" />
<rect fill="none" height="24" stroke="#405C86" stroke-width="2" width="192" x="666" y="90" />
<rect fill="#DEE6F1" height="24" width="93.03125" x="572.96875" y="90" />
<rect fill="#EEDDDB" height="24" width="98.96875" x="474" y="90" />
<rect fill="none" height="24" stroke="#405C86" stroke-width="2" width="192" x="474" y="90" />
<rect fill="#DEE6F1" height="24" width="93.03125" x="380.96875" y="90" />
<rect fill="#EEDDDB" height="24" width="98.96875" x="282" y="90" />
<rect fill="none" height="24" stroke="#405C86" stroke-width="2" width="192" x="282" y="90" />
<rect fill="#DEE6F1" height="24" width="93.03125" x="188.96875" y="90" />
<rect fill="#EEDDDB" height="24" width="98.96875" x="90" y="90" />
<rect fill="none" height="24" stroke="#405C86" stroke-width="2" width="192" x="90" y="90" />
<text class="register-name" x="80" y="102">Zt</text>
<text class="intrinsic-name" x="80" y="114">returns</text>
<text class="register-number" x="10" y="102">(2)</text>
<line marker-end="url(#arrowhead)" stroke="none" x1="4650" x2="6187.484375" y1="42.5" y2="89" />
<line marker-end="url(#arrowhead)" stroke="none" x1="4554" x2="5995.484375" y1="42.5" y2="89" />
<line marker-end="url(#arrowhead)" stroke="none" x1="4458" x2="5803.484375" y1="42.5" y2="89" />
<line marker-end="url(#arrowhead)" stroke="none" x1="4362" x2="5611.484375" y1="42.5" y2="89" />
<line marker-end="url(#arrowhead)" stroke="none" x1="4266" x2="5419.484375" y1="42.5" y2="89" />
<line marker-end="url(#arrowhead)" stroke="none" x1="4170" x2="5227.484375" y1="42.5" y2="89" />
<line marker-end="url(#arrowhead)" stroke="none" x1="4074" x2="5035.484375" y1="42.5" y2="89" />
<line marker-end="url(#arrowhead)" stroke="none" x1="3978" x2="4843.484375" y1="42.5" y2="89" />
<line marker-end="url(#arrowhead)" stroke="none" x1="3882" x2="4651.484375" y1="42.5" y2="89" />
<line marker-end="url(#arrowhead)" stroke="none" x1="3786" x2="4459.484375" y1="42.5" y2="89" />
<line marker-end="url(#arrowhead)" stroke="none" x1="3690" x2="4267.484375" y1="42.5" y2="89" />
<line marker-end="url(#arrowhead)" stroke="none" x1="3594" x2="4075.484375" y1="42.5" y2="89" />
<line marker-end="url(#arrowhead)" stroke="none" x1="3498" x2="3883.484375" y1="42.5" y2="89" />
<line marker-end="url(#arrowhead)" stroke="none" x1="3402" x2="3691.484375" y1="42.5" y2="89" />
<line marker-end="url(#arrowhead)" stroke="none" x1="3306" x2="3499.484375" y1="42.5" y2="89" />
<line marker-end="url(#arrowhead)" stroke="none" x1="3210" x2="3307.484375" y1="42.5" y2="89" />
<line marker-end="url(#arrowhead)" stroke="none" x1="3114" x2="3115.484375" y1="42.5" y2="89" />
<line marker-end="url(#arrowhead)" stroke="none" x1="3018" x2="2923.484375" y1="42.5" y2="89" />
<line marker-end="url(#arrowhead)" stroke="none" x1="2922" x2="2731.484375" y1="42.5" y2="89" />
<line marker-end="url(#arrowhead)" stroke="none" x1="2826" x2="2539.484375" y1="42.5" y2="89" />
<line marker-end="url(#arrowhead)" stroke="none" x1="2730" x2="2347.484375" y1="42.5" y2="89" />
<line marker-end="url(#arrowhead)" stroke="none" x1="2634" x2="2155.484375" y1="42.5" y2="89" />
<line marker-end="url(#arrowhead)" stroke="none" x1="2538" x2="1963.484375" y1="42.5" y2="89" />
<line marker-end="url(#arrowhead)" stroke="none" x1="2442" x2="1771.484375" y1="42.5" y2="89" />
<line marker-end="url(#arrowhead)" stroke="none" x1="2346" x2="1579.484375" y1="42.5" y2="89" />
<line marker-end="url(#arrowhead)" stroke="none" x1="2250" x2="1387.484375" y1="42.5" y2="89" />
<line marker-end="url(#arrowhead)" stroke="none" x1="2154" x2="1195.484375" y1="42.5" y2="89" />
<line marker-end="url(#arrowhead)" stroke="none" x1="2058" x2="1003.484375" y1="42.5" y2="89" />
<line marker-end="url(#arrowhead)" stroke="none" x1="1962" x2="811.484375" y1="42.5" y2="89" />
<line marker-end="url(#arrowhead)" stroke="none" x1="1866" x2="619.484375" y1="42.5" y2="89" />
<line marker-end="url(#arrowhead)" stroke="none" x1="1770" x2="427.484375" y1="42.5" y2="89" />
<line marker-end="url(#arrowhead)" stroke="none" x1="1674" x2="235.484375" y1="42.5" y2="89" />
</svg>