<svg xmlns="http://www.w3.org/2000/svg" viewBox="0 0 3174 123">
<style>
.label { font: 14px Helvetica; dominant-baseline: middle; text-anchor: middle; }
.title-left { font: 12px Helvetica; dominant-baseline: middle; }
.title-right { font: 12px Helvetica; dominant-baseline: middle; text-anchor: end; }
.title-intrinsic { font: 12px Helvetica; dominant-baseline: middle; text-anchor: middle; fill: #6778ED; }
.title { font: 12px Helvetica; dominant-baseline: middle; text-anchor: middle; }
.title-unused { font: 12px Helvetica; dominant-baseline: middle; text-anchor: middle; fill: #AAA; }
.register-name { font: 14px Helvetica; dominant-baseline: middle; text-anchor: end; font-style: italic; }
.memory-name { font: 14px Helvetica; dominant-baseline: middle; text-anchor: end; }
.register-number { font: 14px Helvetica; dominant-baseline: middle; text-anchor: start; }
.intrinsic-name { font: 14px Helvetica; dominant-baseline: middle; text-anchor: end; fill: #6778ED; }
.intrinsic-color { fill: #6778ED; }
.small-label { font: 12px Helvetica; dominant-baseline: middle; text-anchor: middle; }
.label-10px { font: 10px Helvetica; dominant-baseline: middle; text-anchor: middle; }
.smaller-label { font: 9px Helvetica; dominant-baseline: middle; text-anchor: middle; }
.label-6px { font: 6px Helvetica; dominant-baseline: middle; text-anchor: middle; }
.label-7px { font: 7px Helvetica; dominant-baseline: middle; text-anchor: middle; }
.unused { fill: #AAA; }
.dim { fill: #888; }
</style>
<defs>
<marker id="arrowhead" markerWidth="10.75" markerHeight="24.5" refX="9.0" refY="6.125" orient="auto">
<polyline points="0.5 0.5, 8.75 6.125, 0.5 11.75" stroke="#567DB6" stroke-width="1" fill="none"/>
</marker>
</defs>
<line stroke="#567DB6" stroke-width="1" x1="1794" x2="3139.1171875" y1="42.5" y2="89" />
<line stroke="#567DB6" stroke-width="1" x1="1746" x2="2755.1171875" y1="42.5" y2="89" />
<line stroke="#567DB6" stroke-width="1" x1="1698" x2="2371.1171875" y1="42.5" y2="89" />
<line stroke="#567DB6" stroke-width="1" x1="1650" x2="1987.1171875" y1="42.5" y2="89" />
<line stroke="#567DB6" stroke-width="1" x1="1602" x2="1603.1171875" y1="42.5" y2="89" />
<line stroke="#567DB6" stroke-width="1" x1="1554" x2="1219.1171875" y1="42.5" y2="89" />
<line stroke="#567DB6" stroke-width="1" x1="1506" x2="835.1171875" y1="42.5" y2="89" />
<line stroke="#567DB6" stroke-width="1" x1="1458" x2="451.1171875" y1="42.5" y2="89" />
<text class="title-left" x="90" y="9">upper</text>
<text class="title-right" x="3162" y="9">lower</text>
<rect fill="#DEE6F1" height="24" width="44.125" x="1773.875" y="18" />
<rect fill="#EEDDDB" height="24" width="3.875" x="1770" y="18" />
<rect fill="none" height="24" stroke="#405C86" stroke-width="2" width="48" x="1770" y="18" />
<text class="smaller-label intrinsic-color" x="1794" y="31">base[0]</text>
<rect fill="#DEE6F1" height="24" width="44.125" x="1725.875" y="18" />
<rect fill="#EEDDDB" height="24" width="3.875" x="1722" y="18" />
<rect fill="none" height="24" stroke="#405C86" stroke-width="2" width="48" x="1722" y="18" />
<text class="smaller-label intrinsic-color" x="1746" y="31">base[1]</text>
<rect fill="#DEE6F1" height="24" width="44.125" x="1677.875" y="18" />
<rect fill="#EEDDDB" height="24" width="3.875" x="1674" y="18" />
<rect fill="none" height="24" stroke="#405C86" stroke-width="2" width="48" x="1674" y="18" />
<text class="smaller-label intrinsic-color" x="1698" y="31">base[2]</text>
<rect fill="#DEE6F1" height="24" width="44.125" x="1629.875" y="18" />
<rect fill="#EEDDDB" height="24" width="3.875" x="1626" y="18" />
<rect fill="none" height="24" stroke="#405C86" stroke-width="2" width="48" x="1626" y="18" />
<text class="smaller-label intrinsic-color" x="1650" y="31">base[3]</text>
<rect fill="#DEE6F1" height="24" width="44.125" x="1581.875" y="18" />
<rect fill="#EEDDDB" height="24" width="3.875" x="1578" y="18" />
<rect fill="none" height="24" stroke="#405C86" stroke-width="2" width="48" x="1578" y="18" />
<text class="smaller-label intrinsic-color" x="1602" y="31">base[4]</text>
<rect fill="#DEE6F1" height="24" width="44.125" x="1533.875" y="18" />
<rect fill="#EEDDDB" height="24" width="3.875" x="1530" y="18" />
<rect fill="none" height="24" stroke="#405C86" stroke-width="2" width="48" x="1530" y="18" />
<text class="smaller-label intrinsic-color" x="1554" y="31">base[5]</text>
<rect fill="#DEE6F1" height="24" width="44.125" x="1485.875" y="18" />
<rect fill="#EEDDDB" height="24" width="3.875" x="1482" y="18" />
<rect fill="none" height="24" stroke="#405C86" stroke-width="2" width="48" x="1482" y="18" />
<text class="smaller-label intrinsic-color" x="1506" y="31">base[6]</text>
<rect fill="#DEE6F1" height="24" width="44.125" x="1437.875" y="18" />
<rect fill="#EEDDDB" height="24" width="3.875" x="1434" y="18" />
<rect fill="none" height="24" stroke="#405C86" stroke-width="2" width="48" x="1434" y="18" />
<text class="smaller-label intrinsic-color" x="1458" y="31">base[7]</text>
<text class="register-name" x="80" y="30">[mem]</text>
<text class="intrinsic-name" x="80" y="42">*base</text>
<text class="register-number" x="10" y="30">(1)</text>
<rect fill="#DEE6F1" height="24" width="45.765625" x="3116.234375" y="90" />
<rect fill="#EEDDDB" height="24" width="338.234375" x="2778" y="90" />
<rect fill="none" height="24" stroke="#405C86" stroke-width="2" width="384" x="2778" y="90" />
<rect fill="#DEE6F1" height="24" width="45.765625" x="2732.234375" y="90" />
<rect fill="#EEDDDB" height="24" width="338.234375" x="2394" y="90" />
<rect fill="none" height="24" stroke="#405C86" stroke-width="2" width="384" x="2394" y="90" />
<rect fill="#DEE6F1" height="24" width="45.765625" x="2348.234375" y="90" />
<rect fill="#EEDDDB" height="24" width="338.234375" x="2010" y="90" />
<rect fill="none" height="24" stroke="#405C86" stroke-width="2" width="384" x="2010" y="90" />
<rect fill="#DEE6F1" height="24" width="45.765625" x="1964.234375" y="90" />
<rect fill="#EEDDDB" height="24" width="338.234375" x="1626" y="90" />
<rect fill="none" height="24" stroke="#405C86" stroke-width="2" width="384" x="1626" y="90" />
<rect fill="#DEE6F1" height="24" width="45.765625" x="1580.234375" y="90" />
<rect fill="#EEDDDB" height="24" width="338.234375" x="1242" y="90" />
<rect fill="none" height="24" stroke="#405C86" stroke-width="2" width="384" x="1242" y="90" />
<rect fill="#DEE6F1" height="24" width="45.765625" x="1196.234375" y="90" />
<rect fill="#EEDDDB" height="24" width="338.234375" x="858" y="90" />
<rect fill="none" height="24" stroke="#405C86" stroke-width="2" width="384" x="858" y="90" />
<rect fill="#DEE6F1" height="24" width="45.765625" x="812.234375" y="90" />
<rect fill="#EEDDDB" height="24" width="338.234375" x="474" y="90" />
<rect fill="none" height="24" stroke="#405C86" stroke-width="2" width="384" x="474" y="90" />
<rect fill="#DEE6F1" height="24" width="45.765625" x="428.234375" y="90" />
<rect fill="#EEDDDB" height="24" width="338.234375" x="90" y="90" />
<rect fill="none" height="24" stroke="#405C86" stroke-width="2" width="384" x="90" y="90" />
<text class="register-name" x="80" y="102">Zt</text>
<text class="intrinsic-name" x="80" y="114">returns</text>
<text class="register-number" x="10" y="102">(2)</text>
<line marker-end="url(#arrowhead)" stroke="none" x1="1794" x2="3139.1171875" y1="42.5" y2="89" />
<line marker-end="url(#arrowhead)" stroke="none" x1="1746" x2="2755.1171875" y1="42.5" y2="89" />
<line marker-end="url(#arrowhead)" stroke="none" x1="1698" x2="2371.1171875" y1="42.5" y2="89" />
<line marker-end="url(#arrowhead)" stroke="none" x1="1650" x2="1987.1171875" y1="42.5" y2="89" />
<line marker-end="url(#arrowhead)" stroke="none" x1="1602" x2="1603.1171875" y1="42.5" y2="89" />
<line marker-end="url(#arrowhead)" stroke="none" x1="1554" x2="1219.1171875" y1="42.5" y2="89" />
<line marker-end="url(#arrowhead)" stroke="none" x1="1506" x2="835.1171875" y1="42.5" y2="89" />
<line marker-end="url(#arrowhead)" stroke="none" x1="1458" x2="451.1171875" y1="42.5" y2="89" />
</svg>