<svg xmlns="http://www.w3.org/2000/svg" viewBox="0 0 6246 207">
<style>
.label { font: 14px Helvetica; dominant-baseline: middle; text-anchor: middle; }
.title-left { font: 12px Helvetica; dominant-baseline: middle; }
.title-right { font: 12px Helvetica; dominant-baseline: middle; text-anchor: end; }
.title-intrinsic { font: 12px Helvetica; dominant-baseline: middle; text-anchor: middle; fill: #6778ED; }
.title { font: 12px Helvetica; dominant-baseline: middle; text-anchor: middle; }
.title-unused { font: 12px Helvetica; dominant-baseline: middle; text-anchor: middle; fill: #AAA; }
.register-name { font: 14px Helvetica; dominant-baseline: middle; text-anchor: end; font-style: italic; }
.memory-name { font: 14px Helvetica; dominant-baseline: middle; text-anchor: end; }
.register-number { font: 14px Helvetica; dominant-baseline: middle; text-anchor: start; }
.intrinsic-name { font: 14px Helvetica; dominant-baseline: middle; text-anchor: end; fill: #6778ED; }
.intrinsic-color { fill: #6778ED; }
.small-label { font: 12px Helvetica; dominant-baseline: middle; text-anchor: middle; }
.label-10px { font: 10px Helvetica; dominant-baseline: middle; text-anchor: middle; }
.smaller-label { font: 9px Helvetica; dominant-baseline: middle; text-anchor: middle; }
.label-6px { font: 6px Helvetica; dominant-baseline: middle; text-anchor: middle; }
.label-7px { font: 7px Helvetica; dominant-baseline: middle; text-anchor: middle; }
.unused { fill: #AAA; }
.dim { fill: #888; }
</style>
<defs>
<marker id="arrowhead" markerWidth="10.75" markerHeight="24.5" refX="9.0" refY="6.125" orient="auto">
<polyline points="0.5 0.5, 8.75 6.125, 0.5 11.75" stroke="#567DB6" stroke-width="1" fill="none"/>
</marker>
</defs>
<text class="title-left" x="90" y="9">upper</text>
<text class="title-right" x="6234" y="9">lower</text>
<rect fill="#DEE6F1" height="24" width="192" x="6042" y="18" />
<rect fill="none" height="24" stroke="#405C86" stroke-width="2" width="192" x="6042" y="18" />
<text class="small-label intrinsic-color" x="6138" y="31">base[0]</text>
<rect fill="#EEDDDB" height="24" width="192" x="5850" y="18" />
<rect fill="none" height="24" stroke="#405C86" stroke-width="2" width="192" x="5850" y="18" />
<text class="small-label intrinsic-color" x="5946" y="31">base[1]</text>
<rect fill="#DEE6F1" height="24" width="192" x="5658" y="18" />
<rect fill="none" height="24" stroke="#405C86" stroke-width="2" width="192" x="5658" y="18" />
<text class="small-label intrinsic-color" x="5754" y="31">base[2]</text>
<rect fill="#EEDDDB" height="24" width="192" x="5466" y="18" />
<rect fill="none" height="24" stroke="#405C86" stroke-width="2" width="192" x="5466" y="18" />
<text class="small-label intrinsic-color" x="5562" y="31">base[3]</text>
<rect fill="#DEE6F1" height="24" width="192" x="5274" y="18" />
<rect fill="none" height="24" stroke="#405C86" stroke-width="2" width="192" x="5274" y="18" />
<text class="small-label intrinsic-color" x="5370" y="31">base[4]</text>
<rect fill="#EEDDDB" height="24" width="192" x="5082" y="18" />
<rect fill="none" height="24" stroke="#405C86" stroke-width="2" width="192" x="5082" y="18" />
<text class="small-label intrinsic-color" x="5178" y="31">base[5]</text>
<rect fill="#DEE6F1" height="24" width="192" x="4890" y="18" />
<rect fill="none" height="24" stroke="#405C86" stroke-width="2" width="192" x="4890" y="18" />
<text class="small-label intrinsic-color" x="4986" y="31">base[6]</text>
<rect fill="#EEDDDB" height="24" width="192" x="4698" y="18" />
<rect fill="none" height="24" stroke="#405C86" stroke-width="2" width="192" x="4698" y="18" />
<text class="small-label intrinsic-color" x="4794" y="31">base[7]</text>
<rect fill="#DEE6F1" height="24" width="192" x="4506" y="18" />
<rect fill="none" height="24" stroke="#405C86" stroke-width="2" width="192" x="4506" y="18" />
<text class="small-label intrinsic-color" x="4602" y="31">base[8]</text>
<rect fill="#EEDDDB" height="24" width="192" x="4314" y="18" />
<rect fill="none" height="24" stroke="#405C86" stroke-width="2" width="192" x="4314" y="18" />
<text class="small-label intrinsic-color" x="4410" y="31">base[9]</text>
<rect fill="#DEE6F1" height="24" width="192" x="4122" y="18" />
<rect fill="none" height="24" stroke="#405C86" stroke-width="2" width="192" x="4122" y="18" />
<text class="small-label intrinsic-color" x="4218" y="31">base[10]</text>
<rect fill="#EEDDDB" height="24" width="192" x="3930" y="18" />
<rect fill="none" height="24" stroke="#405C86" stroke-width="2" width="192" x="3930" y="18" />
<text class="small-label intrinsic-color" x="4026" y="31">base[11]</text>
<rect fill="#DEE6F1" height="24" width="192" x="3738" y="18" />
<rect fill="none" height="24" stroke="#405C86" stroke-width="2" width="192" x="3738" y="18" />
<text class="small-label intrinsic-color" x="3834" y="31">base[12]</text>
<rect fill="#EEDDDB" height="24" width="192" x="3546" y="18" />
<rect fill="none" height="24" stroke="#405C86" stroke-width="2" width="192" x="3546" y="18" />
<text class="small-label intrinsic-color" x="3642" y="31">base[13]</text>
<rect fill="#DEE6F1" height="24" width="192" x="3354" y="18" />
<rect fill="none" height="24" stroke="#405C86" stroke-width="2" width="192" x="3354" y="18" />
<text class="small-label intrinsic-color" x="3450" y="31">base[14]</text>
<rect fill="#EEDDDB" height="24" width="192" x="3162" y="18" />
<rect fill="none" height="24" stroke="#405C86" stroke-width="2" width="192" x="3162" y="18" />
<text class="small-label intrinsic-color" x="3258" y="31">base[15]</text>
<rect fill="#DEE6F1" height="24" width="192" x="2970" y="18" />
<rect fill="none" height="24" stroke="#405C86" stroke-width="2" width="192" x="2970" y="18" />
<text class="small-label intrinsic-color" x="3066" y="31">base[16]</text>
<rect fill="#EEDDDB" height="24" width="192" x="2778" y="18" />
<rect fill="none" height="24" stroke="#405C86" stroke-width="2" width="192" x="2778" y="18" />
<text class="small-label intrinsic-color" x="2874" y="31">base[17]</text>
<rect fill="#DEE6F1" height="24" width="192" x="2586" y="18" />
<rect fill="none" height="24" stroke="#405C86" stroke-width="2" width="192" x="2586" y="18" />
<text class="small-label intrinsic-color" x="2682" y="31">base[18]</text>
<rect fill="#EEDDDB" height="24" width="192" x="2394" y="18" />
<rect fill="none" height="24" stroke="#405C86" stroke-width="2" width="192" x="2394" y="18" />
<text class="small-label intrinsic-color" x="2490" y="31">base[19]</text>
<rect fill="#DEE6F1" height="24" width="192" x="2202" y="18" />
<rect fill="none" height="24" stroke="#405C86" stroke-width="2" width="192" x="2202" y="18" />
<text class="small-label intrinsic-color" x="2298" y="31">base[20]</text>
<rect fill="#EEDDDB" height="24" width="192" x="2010" y="18" />
<rect fill="none" height="24" stroke="#405C86" stroke-width="2" width="192" x="2010" y="18" />
<text class="small-label intrinsic-color" x="2106" y="31">base[21]</text>
<rect fill="#DEE6F1" height="24" width="192" x="1818" y="18" />
<rect fill="none" height="24" stroke="#405C86" stroke-width="2" width="192" x="1818" y="18" />
<text class="small-label intrinsic-color" x="1914" y="31">base[22]</text>
<rect fill="#EEDDDB" height="24" width="192" x="1626" y="18" />
<rect fill="none" height="24" stroke="#405C86" stroke-width="2" width="192" x="1626" y="18" />
<text class="small-label intrinsic-color" x="1722" y="31">base[23]</text>
<rect fill="#DEE6F1" height="24" width="192" x="1434" y="18" />
<rect fill="none" height="24" stroke="#405C86" stroke-width="2" width="192" x="1434" y="18" />
<text class="small-label intrinsic-color" x="1530" y="31">base[24]</text>
<rect fill="#EEDDDB" height="24" width="192" x="1242" y="18" />
<rect fill="none" height="24" stroke="#405C86" stroke-width="2" width="192" x="1242" y="18" />
<text class="small-label intrinsic-color" x="1338" y="31">base[25]</text>
<rect fill="#DEE6F1" height="24" width="192" x="1050" y="18" />
<rect fill="none" height="24" stroke="#405C86" stroke-width="2" width="192" x="1050" y="18" />
<text class="small-label intrinsic-color" x="1146" y="31">base[26]</text>
<rect fill="#EEDDDB" height="24" width="192" x="858" y="18" />
<rect fill="none" height="24" stroke="#405C86" stroke-width="2" width="192" x="858" y="18" />
<text class="small-label intrinsic-color" x="954" y="31">base[27]</text>
<rect fill="#DEE6F1" height="24" width="192" x="666" y="18" />
<rect fill="none" height="24" stroke="#405C86" stroke-width="2" width="192" x="666" y="18" />
<text class="small-label intrinsic-color" x="762" y="31">base[28]</text>
<rect fill="#EEDDDB" height="24" width="192" x="474" y="18" />
<rect fill="none" height="24" stroke="#405C86" stroke-width="2" width="192" x="474" y="18" />
<text class="small-label intrinsic-color" x="570" y="31">base[29]</text>
<rect fill="#DEE6F1" height="24" width="192" x="282" y="18" />
<rect fill="none" height="24" stroke="#405C86" stroke-width="2" width="192" x="282" y="18" />
<text class="small-label intrinsic-color" x="378" y="31">base[30]</text>
<rect fill="#EEDDDB" height="24" width="192" x="90" y="18" />
<rect fill="none" height="24" stroke="#405C86" stroke-width="2" width="192" x="90" y="18" />
<text class="small-label intrinsic-color" x="186" y="31">base[31]</text>
<text class="register-name" x="80" y="30">[mem]</text>
<text class="intrinsic-name" x="80" y="42">*base</text>
<text class="register-number" x="10" y="30">(1)</text>
<rect fill="#DEE6F1" height="24" width="192" x="6042" y="54" />
<rect fill="none" height="24" stroke="#405C86" stroke-width="2" width="192" x="6042" y="54" />
<text class="small-label intrinsic-color" x="6138" y="67">base[32]</text>
<rect fill="#EEDDDB" height="24" width="192" x="5850" y="54" />
<rect fill="none" height="24" stroke="#405C86" stroke-width="2" width="192" x="5850" y="54" />
<text class="small-label intrinsic-color" x="5946" y="67">base[33]</text>
<rect fill="#DEE6F1" height="24" width="192" x="5658" y="54" />
<rect fill="none" height="24" stroke="#405C86" stroke-width="2" width="192" x="5658" y="54" />
<text class="small-label intrinsic-color" x="5754" y="67">base[34]</text>
<rect fill="#EEDDDB" height="24" width="192" x="5466" y="54" />
<rect fill="none" height="24" stroke="#405C86" stroke-width="2" width="192" x="5466" y="54" />
<text class="small-label intrinsic-color" x="5562" y="67">base[35]</text>
<rect fill="#DEE6F1" height="24" width="192" x="5274" y="54" />
<rect fill="none" height="24" stroke="#405C86" stroke-width="2" width="192" x="5274" y="54" />
<text class="small-label intrinsic-color" x="5370" y="67">base[36]</text>
<rect fill="#EEDDDB" height="24" width="192" x="5082" y="54" />
<rect fill="none" height="24" stroke="#405C86" stroke-width="2" width="192" x="5082" y="54" />
<text class="small-label intrinsic-color" x="5178" y="67">base[37]</text>
<rect fill="#DEE6F1" height="24" width="192" x="4890" y="54" />
<rect fill="none" height="24" stroke="#405C86" stroke-width="2" width="192" x="4890" y="54" />
<text class="small-label intrinsic-color" x="4986" y="67">base[38]</text>
<rect fill="#EEDDDB" height="24" width="192" x="4698" y="54" />
<rect fill="none" height="24" stroke="#405C86" stroke-width="2" width="192" x="4698" y="54" />
<text class="small-label intrinsic-color" x="4794" y="67">base[39]</text>
<rect fill="#DEE6F1" height="24" width="192" x="4506" y="54" />
<rect fill="none" height="24" stroke="#405C86" stroke-width="2" width="192" x="4506" y="54" />
<text class="small-label intrinsic-color" x="4602" y="67">base[40]</text>
<rect fill="#EEDDDB" height="24" width="192" x="4314" y="54" />
<rect fill="none" height="24" stroke="#405C86" stroke-width="2" width="192" x="4314" y="54" />
<text class="small-label intrinsic-color" x="4410" y="67">base[41]</text>
<rect fill="#DEE6F1" height="24" width="192" x="4122" y="54" />
<rect fill="none" height="24" stroke="#405C86" stroke-width="2" width="192" x="4122" y="54" />
<text class="small-label intrinsic-color" x="4218" y="67">base[42]</text>
<rect fill="#EEDDDB" height="24" width="192" x="3930" y="54" />
<rect fill="none" height="24" stroke="#405C86" stroke-width="2" width="192" x="3930" y="54" />
<text class="small-label intrinsic-color" x="4026" y="67">base[43]</text>
<rect fill="#DEE6F1" height="24" width="192" x="3738" y="54" />
<rect fill="none" height="24" stroke="#405C86" stroke-width="2" width="192" x="3738" y="54" />
<text class="small-label intrinsic-color" x="3834" y="67">base[44]</text>
<rect fill="#EEDDDB" height="24" width="192" x="3546" y="54" />
<rect fill="none" height="24" stroke="#405C86" stroke-width="2" width="192" x="3546" y="54" />
<text class="small-label intrinsic-color" x="3642" y="67">base[45]</text>
<rect fill="#DEE6F1" height="24" width="192" x="3354" y="54" />
<rect fill="none" height="24" stroke="#405C86" stroke-width="2" width="192" x="3354" y="54" />
<text class="small-label intrinsic-color" x="3450" y="67">base[46]</text>
<rect fill="#EEDDDB" height="24" width="192" x="3162" y="54" />
<rect fill="none" height="24" stroke="#405C86" stroke-width="2" width="192" x="3162" y="54" />
<text class="small-label intrinsic-color" x="3258" y="67">base[47]</text>
<rect fill="#DEE6F1" height="24" width="192" x="2970" y="54" />
<rect fill="none" height="24" stroke="#405C86" stroke-width="2" width="192" x="2970" y="54" />
<text class="small-label intrinsic-color" x="3066" y="67">base[48]</text>
<rect fill="#EEDDDB" height="24" width="192" x="2778" y="54" />
<rect fill="none" height="24" stroke="#405C86" stroke-width="2" width="192" x="2778" y="54" />
<text class="small-label intrinsic-color" x="2874" y="67">base[49]</text>
<rect fill="#DEE6F1" height="24" width="192" x="2586" y="54" />
<rect fill="none" height="24" stroke="#405C86" stroke-width="2" width="192" x="2586" y="54" />
<text class="small-label intrinsic-color" x="2682" y="67">base[50]</text>
<rect fill="#EEDDDB" height="24" width="192" x="2394" y="54" />
<rect fill="none" height="24" stroke="#405C86" stroke-width="2" width="192" x="2394" y="54" />
<text class="small-label intrinsic-color" x="2490" y="67">base[51]</text>
<rect fill="#DEE6F1" height="24" width="192" x="2202" y="54" />
<rect fill="none" height="24" stroke="#405C86" stroke-width="2" width="192" x="2202" y="54" />
<text class="small-label intrinsic-color" x="2298" y="67">base[52]</text>
<rect fill="#EEDDDB" height="24" width="192" x="2010" y="54" />
<rect fill="none" height="24" stroke="#405C86" stroke-width="2" width="192" x="2010" y="54" />
<text class="small-label intrinsic-color" x="2106" y="67">base[53]</text>
<rect fill="#DEE6F1" height="24" width="192" x="1818" y="54" />
<rect fill="none" height="24" stroke="#405C86" stroke-width="2" width="192" x="1818" y="54" />
<text class="small-label intrinsic-color" x="1914" y="67">base[54]</text>
<rect fill="#EEDDDB" height="24" width="192" x="1626" y="54" />
<rect fill="none" height="24" stroke="#405C86" stroke-width="2" width="192" x="1626" y="54" />
<text class="small-label intrinsic-color" x="1722" y="67">base[55]</text>
<rect fill="#DEE6F1" height="24" width="192" x="1434" y="54" />
<rect fill="none" height="24" stroke="#405C86" stroke-width="2" width="192" x="1434" y="54" />
<text class="small-label intrinsic-color" x="1530" y="67">base[56]</text>
<rect fill="#EEDDDB" height="24" width="192" x="1242" y="54" />
<rect fill="none" height="24" stroke="#405C86" stroke-width="2" width="192" x="1242" y="54" />
<text class="small-label intrinsic-color" x="1338" y="67">base[57]</text>
<rect fill="#DEE6F1" height="24" width="192" x="1050" y="54" />
<rect fill="none" height="24" stroke="#405C86" stroke-width="2" width="192" x="1050" y="54" />
<text class="small-label intrinsic-color" x="1146" y="67">base[58]</text>
<rect fill="#EEDDDB" height="24" width="192" x="858" y="54" />
<rect fill="none" height="24" stroke="#405C86" stroke-width="2" width="192" x="858" y="54" />
<text class="small-label intrinsic-color" x="954" y="67">base[59]</text>
<rect fill="#DEE6F1" height="24" width="192" x="666" y="54" />
<rect fill="none" height="24" stroke="#405C86" stroke-width="2" width="192" x="666" y="54" />
<text class="small-label intrinsic-color" x="762" y="67">base[60]</text>
<rect fill="#EEDDDB" height="24" width="192" x="474" y="54" />
<rect fill="none" height="24" stroke="#405C86" stroke-width="2" width="192" x="474" y="54" />
<text class="small-label intrinsic-color" x="570" y="67">base[61]</text>
<rect fill="#DEE6F1" height="24" width="192" x="282" y="54" />
<rect fill="none" height="24" stroke="#405C86" stroke-width="2" width="192" x="282" y="54" />
<text class="small-label intrinsic-color" x="378" y="67">base[62]</text>
<rect fill="#EEDDDB" height="24" width="192" x="90" y="54" />
<rect fill="none" height="24" stroke="#405C86" stroke-width="2" width="192" x="90" y="54" />
<text class="small-label intrinsic-color" x="186" y="67">base[63]</text>
<rect fill="#DEE6F1" height="24" width="192" x="6042" y="126" />
<rect fill="none" height="24" stroke="#405C86" stroke-width="2" width="192" x="6042" y="126" />
<text class="small-label intrinsic-color" x="6138" y="139">base[0]</text>
<rect fill="#DEE6F1" height="24" width="192" x="5850" y="126" />
<rect fill="none" height="24" stroke="#405C86" stroke-width="2" width="192" x="5850" y="126" />
<text class="small-label intrinsic-color" x="5946" y="139">base[2]</text>
<rect fill="#DEE6F1" height="24" width="192" x="5658" y="126" />
<rect fill="none" height="24" stroke="#405C86" stroke-width="2" width="192" x="5658" y="126" />
<text class="small-label intrinsic-color" x="5754" y="139">base[4]</text>
<rect fill="#DEE6F1" height="24" width="192" x="5466" y="126" />
<rect fill="none" height="24" stroke="#405C86" stroke-width="2" width="192" x="5466" y="126" />
<text class="small-label intrinsic-color" x="5562" y="139">base[6]</text>
<rect fill="#DEE6F1" height="24" width="192" x="5274" y="126" />
<rect fill="none" height="24" stroke="#405C86" stroke-width="2" width="192" x="5274" y="126" />
<text class="small-label intrinsic-color" x="5370" y="139">base[8]</text>
<rect fill="#DEE6F1" height="24" width="192" x="5082" y="126" />
<rect fill="none" height="24" stroke="#405C86" stroke-width="2" width="192" x="5082" y="126" />
<text class="small-label intrinsic-color" x="5178" y="139">base[10]</text>
<rect fill="#DEE6F1" height="24" width="192" x="4890" y="126" />
<rect fill="none" height="24" stroke="#405C86" stroke-width="2" width="192" x="4890" y="126" />
<text class="small-label intrinsic-color" x="4986" y="139">base[12]</text>
<rect fill="#DEE6F1" height="24" width="192" x="4698" y="126" />
<rect fill="none" height="24" stroke="#405C86" stroke-width="2" width="192" x="4698" y="126" />
<text class="small-label intrinsic-color" x="4794" y="139">base[14]</text>
<rect fill="#DEE6F1" height="24" width="192" x="4506" y="126" />
<rect fill="none" height="24" stroke="#405C86" stroke-width="2" width="192" x="4506" y="126" />
<text class="small-label intrinsic-color" x="4602" y="139">base[16]</text>
<rect fill="#DEE6F1" height="24" width="192" x="4314" y="126" />
<rect fill="none" height="24" stroke="#405C86" stroke-width="2" width="192" x="4314" y="126" />
<text class="small-label intrinsic-color" x="4410" y="139">base[18]</text>
<rect fill="#DEE6F1" height="24" width="192" x="4122" y="126" />
<rect fill="none" height="24" stroke="#405C86" stroke-width="2" width="192" x="4122" y="126" />
<text class="small-label intrinsic-color" x="4218" y="139">base[20]</text>
<rect fill="#DEE6F1" height="24" width="192" x="3930" y="126" />
<rect fill="none" height="24" stroke="#405C86" stroke-width="2" width="192" x="3930" y="126" />
<text class="small-label intrinsic-color" x="4026" y="139">base[22]</text>
<rect fill="#DEE6F1" height="24" width="192" x="3738" y="126" />
<rect fill="none" height="24" stroke="#405C86" stroke-width="2" width="192" x="3738" y="126" />
<text class="small-label intrinsic-color" x="3834" y="139">base[24]</text>
<rect fill="#DEE6F1" height="24" width="192" x="3546" y="126" />
<rect fill="none" height="24" stroke="#405C86" stroke-width="2" width="192" x="3546" y="126" />
<text class="small-label intrinsic-color" x="3642" y="139">base[26]</text>
<rect fill="#DEE6F1" height="24" width="192" x="3354" y="126" />
<rect fill="none" height="24" stroke="#405C86" stroke-width="2" width="192" x="3354" y="126" />
<text class="small-label intrinsic-color" x="3450" y="139">base[28]</text>
<rect fill="#DEE6F1" height="24" width="192" x="3162" y="126" />
<rect fill="none" height="24" stroke="#405C86" stroke-width="2" width="192" x="3162" y="126" />
<text class="small-label intrinsic-color" x="3258" y="139">base[30]</text>
<rect fill="#DEE6F1" height="24" width="192" x="2970" y="126" />
<rect fill="none" height="24" stroke="#405C86" stroke-width="2" width="192" x="2970" y="126" />
<text class="small-label intrinsic-color" x="3066" y="139">base[32]</text>
<rect fill="#DEE6F1" height="24" width="192" x="2778" y="126" />
<rect fill="none" height="24" stroke="#405C86" stroke-width="2" width="192" x="2778" y="126" />
<text class="small-label intrinsic-color" x="2874" y="139">base[34]</text>
<rect fill="#DEE6F1" height="24" width="192" x="2586" y="126" />
<rect fill="none" height="24" stroke="#405C86" stroke-width="2" width="192" x="2586" y="126" />
<text class="small-label intrinsic-color" x="2682" y="139">base[36]</text>
<rect fill="#DEE6F1" height="24" width="192" x="2394" y="126" />
<rect fill="none" height="24" stroke="#405C86" stroke-width="2" width="192" x="2394" y="126" />
<text class="small-label intrinsic-color" x="2490" y="139">base[38]</text>
<rect fill="#DEE6F1" height="24" width="192" x="2202" y="126" />
<rect fill="none" height="24" stroke="#405C86" stroke-width="2" width="192" x="2202" y="126" />
<text class="small-label intrinsic-color" x="2298" y="139">base[40]</text>
<rect fill="#DEE6F1" height="24" width="192" x="2010" y="126" />
<rect fill="none" height="24" stroke="#405C86" stroke-width="2" width="192" x="2010" y="126" />
<text class="small-label intrinsic-color" x="2106" y="139">base[42]</text>
<rect fill="#DEE6F1" height="24" width="192" x="1818" y="126" />
<rect fill="none" height="24" stroke="#405C86" stroke-width="2" width="192" x="1818" y="126" />
<text class="small-label intrinsic-color" x="1914" y="139">base[44]</text>
<rect fill="#DEE6F1" height="24" width="192" x="1626" y="126" />
<rect fill="none" height="24" stroke="#405C86" stroke-width="2" width="192" x="1626" y="126" />
<text class="small-label intrinsic-color" x="1722" y="139">base[46]</text>
<rect fill="#DEE6F1" height="24" width="192" x="1434" y="126" />
<rect fill="none" height="24" stroke="#405C86" stroke-width="2" width="192" x="1434" y="126" />
<text class="small-label intrinsic-color" x="1530" y="139">base[48]</text>
<rect fill="#DEE6F1" height="24" width="192" x="1242" y="126" />
<rect fill="none" height="24" stroke="#405C86" stroke-width="2" width="192" x="1242" y="126" />
<text class="small-label intrinsic-color" x="1338" y="139">base[50]</text>
<rect fill="#DEE6F1" height="24" width="192" x="1050" y="126" />
<rect fill="none" height="24" stroke="#405C86" stroke-width="2" width="192" x="1050" y="126" />
<text class="small-label intrinsic-color" x="1146" y="139">base[52]</text>
<rect fill="#DEE6F1" height="24" width="192" x="858" y="126" />
<rect fill="none" height="24" stroke="#405C86" stroke-width="2" width="192" x="858" y="126" />
<text class="small-label intrinsic-color" x="954" y="139">base[54]</text>
<rect fill="#DEE6F1" height="24" width="192" x="666" y="126" />
<rect fill="none" height="24" stroke="#405C86" stroke-width="2" width="192" x="666" y="126" />
<text class="small-label intrinsic-color" x="762" y="139">base[56]</text>
<rect fill="#DEE6F1" height="24" width="192" x="474" y="126" />
<rect fill="none" height="24" stroke="#405C86" stroke-width="2" width="192" x="474" y="126" />
<text class="small-label intrinsic-color" x="570" y="139">base[58]</text>
<rect fill="#DEE6F1" height="24" width="192" x="282" y="126" />
<rect fill="none" height="24" stroke="#405C86" stroke-width="2" width="192" x="282" y="126" />
<text class="small-label intrinsic-color" x="378" y="139">base[60]</text>
<rect fill="#DEE6F1" height="24" width="192" x="90" y="126" />
<rect fill="none" height="24" stroke="#405C86" stroke-width="2" width="192" x="90" y="126" />
<text class="small-label intrinsic-color" x="186" y="139">base[62]</text>
<text class="register-name" x="80" y="138">Zt1</text>
<text class="intrinsic-name" x="80" y="150">ret[0]</text>
<text class="register-number" x="10" y="138">(2)</text>
<rect fill="#EEDDDB" height="24" width="192" x="6042" y="174" />
<rect fill="none" height="24" stroke="#405C86" stroke-width="2" width="192" x="6042" y="174" />
<text class="small-label intrinsic-color" x="6138" y="187">base[1]</text>
<rect fill="#EEDDDB" height="24" width="192" x="5850" y="174" />
<rect fill="none" height="24" stroke="#405C86" stroke-width="2" width="192" x="5850" y="174" />
<text class="small-label intrinsic-color" x="5946" y="187">base[3]</text>
<rect fill="#EEDDDB" height="24" width="192" x="5658" y="174" />
<rect fill="none" height="24" stroke="#405C86" stroke-width="2" width="192" x="5658" y="174" />
<text class="small-label intrinsic-color" x="5754" y="187">base[5]</text>
<rect fill="#EEDDDB" height="24" width="192" x="5466" y="174" />
<rect fill="none" height="24" stroke="#405C86" stroke-width="2" width="192" x="5466" y="174" />
<text class="small-label intrinsic-color" x="5562" y="187">base[7]</text>
<rect fill="#EEDDDB" height="24" width="192" x="5274" y="174" />
<rect fill="none" height="24" stroke="#405C86" stroke-width="2" width="192" x="5274" y="174" />
<text class="small-label intrinsic-color" x="5370" y="187">base[9]</text>
<rect fill="#EEDDDB" height="24" width="192" x="5082" y="174" />
<rect fill="none" height="24" stroke="#405C86" stroke-width="2" width="192" x="5082" y="174" />
<text class="small-label intrinsic-color" x="5178" y="187">base[11]</text>
<rect fill="#EEDDDB" height="24" width="192" x="4890" y="174" />
<rect fill="none" height="24" stroke="#405C86" stroke-width="2" width="192" x="4890" y="174" />
<text class="small-label intrinsic-color" x="4986" y="187">base[13]</text>
<rect fill="#EEDDDB" height="24" width="192" x="4698" y="174" />
<rect fill="none" height="24" stroke="#405C86" stroke-width="2" width="192" x="4698" y="174" />
<text class="small-label intrinsic-color" x="4794" y="187">base[15]</text>
<rect fill="#EEDDDB" height="24" width="192" x="4506" y="174" />
<rect fill="none" height="24" stroke="#405C86" stroke-width="2" width="192" x="4506" y="174" />
<text class="small-label intrinsic-color" x="4602" y="187">base[17]</text>
<rect fill="#EEDDDB" height="24" width="192" x="4314" y="174" />
<rect fill="none" height="24" stroke="#405C86" stroke-width="2" width="192" x="4314" y="174" />
<text class="small-label intrinsic-color" x="4410" y="187">base[19]</text>
<rect fill="#EEDDDB" height="24" width="192" x="4122" y="174" />
<rect fill="none" height="24" stroke="#405C86" stroke-width="2" width="192" x="4122" y="174" />
<text class="small-label intrinsic-color" x="4218" y="187">base[21]</text>
<rect fill="#EEDDDB" height="24" width="192" x="3930" y="174" />
<rect fill="none" height="24" stroke="#405C86" stroke-width="2" width="192" x="3930" y="174" />
<text class="small-label intrinsic-color" x="4026" y="187">base[23]</text>
<rect fill="#EEDDDB" height="24" width="192" x="3738" y="174" />
<rect fill="none" height="24" stroke="#405C86" stroke-width="2" width="192" x="3738" y="174" />
<text class="small-label intrinsic-color" x="3834" y="187">base[25]</text>
<rect fill="#EEDDDB" height="24" width="192" x="3546" y="174" />
<rect fill="none" height="24" stroke="#405C86" stroke-width="2" width="192" x="3546" y="174" />
<text class="small-label intrinsic-color" x="3642" y="187">base[27]</text>
<rect fill="#EEDDDB" height="24" width="192" x="3354" y="174" />
<rect fill="none" height="24" stroke="#405C86" stroke-width="2" width="192" x="3354" y="174" />
<text class="small-label intrinsic-color" x="3450" y="187">base[29]</text>
<rect fill="#EEDDDB" height="24" width="192" x="3162" y="174" />
<rect fill="none" height="24" stroke="#405C86" stroke-width="2" width="192" x="3162" y="174" />
<text class="small-label intrinsic-color" x="3258" y="187">base[31]</text>
<rect fill="#EEDDDB" height="24" width="192" x="2970" y="174" />
<rect fill="none" height="24" stroke="#405C86" stroke-width="2" width="192" x="2970" y="174" />
<text class="small-label intrinsic-color" x="3066" y="187">base[33]</text>
<rect fill="#EEDDDB" height="24" width="192" x="2778" y="174" />
<rect fill="none" height="24" stroke="#405C86" stroke-width="2" width="192" x="2778" y="174" />
<text class="small-label intrinsic-color" x="2874" y="187">base[35]</text>
<rect fill="#EEDDDB" height="24" width="192" x="2586" y="174" />
<rect fill="none" height="24" stroke="#405C86" stroke-width="2" width="192" x="2586" y="174" />
<text class="small-label intrinsic-color" x="2682" y="187">base[37]</text>
<rect fill="#EEDDDB" height="24" width="192" x="2394" y="174" />
<rect fill="none" height="24" stroke="#405C86" stroke-width="2" width="192" x="2394" y="174" />
<text class="small-label intrinsic-color" x="2490" y="187">base[39]</text>
<rect fill="#EEDDDB" height="24" width="192" x="2202" y="174" />
<rect fill="none" height="24" stroke="#405C86" stroke-width="2" width="192" x="2202" y="174" />
<text class="small-label intrinsic-color" x="2298" y="187">base[41]</text>
<rect fill="#EEDDDB" height="24" width="192" x="2010" y="174" />
<rect fill="none" height="24" stroke="#405C86" stroke-width="2" width="192" x="2010" y="174" />
<text class="small-label intrinsic-color" x="2106" y="187">base[43]</text>
<rect fill="#EEDDDB" height="24" width="192" x="1818" y="174" />
<rect fill="none" height="24" stroke="#405C86" stroke-width="2" width="192" x="1818" y="174" />
<text class="small-label intrinsic-color" x="1914" y="187">base[45]</text>
<rect fill="#EEDDDB" height="24" width="192" x="1626" y="174" />
<rect fill="none" height="24" stroke="#405C86" stroke-width="2" width="192" x="1626" y="174" />
<text class="small-label intrinsic-color" x="1722" y="187">base[47]</text>
<rect fill="#EEDDDB" height="24" width="192" x="1434" y="174" />
<rect fill="none" height="24" stroke="#405C86" stroke-width="2" width="192" x="1434" y="174" />
<text class="small-label intrinsic-color" x="1530" y="187">base[49]</text>
<rect fill="#EEDDDB" height="24" width="192" x="1242" y="174" />
<rect fill="none" height="24" stroke="#405C86" stroke-width="2" width="192" x="1242" y="174" />
<text class="small-label intrinsic-color" x="1338" y="187">base[51]</text>
<rect fill="#EEDDDB" height="24" width="192" x="1050" y="174" />
<rect fill="none" height="24" stroke="#405C86" stroke-width="2" width="192" x="1050" y="174" />
<text class="small-label intrinsic-color" x="1146" y="187">base[53]</text>
<rect fill="#EEDDDB" height="24" width="192" x="858" y="174" />
<rect fill="none" height="24" stroke="#405C86" stroke-width="2" width="192" x="858" y="174" />
<text class="small-label intrinsic-color" x="954" y="187">base[55]</text>
<rect fill="#EEDDDB" height="24" width="192" x="666" y="174" />
<rect fill="none" height="24" stroke="#405C86" stroke-width="2" width="192" x="666" y="174" />
<text class="small-label intrinsic-color" x="762" y="187">base[57]</text>
<rect fill="#EEDDDB" height="24" width="192" x="474" y="174" />
<rect fill="none" height="24" stroke="#405C86" stroke-width="2" width="192" x="474" y="174" />
<text class="small-label intrinsic-color" x="570" y="187">base[59]</text>
<rect fill="#EEDDDB" height="24" width="192" x="282" y="174" />
<rect fill="none" height="24" stroke="#405C86" stroke-width="2" width="192" x="282" y="174" />
<text class="small-label intrinsic-color" x="378" y="187">base[61]</text>
<rect fill="#EEDDDB" height="24" width="192" x="90" y="174" />
<rect fill="none" height="24" stroke="#405C86" stroke-width="2" width="192" x="90" y="174" />
<text class="small-label intrinsic-color" x="186" y="187">base[63]</text>
<text class="register-name" x="80" y="186">Zt2</text>
<text class="intrinsic-name" x="80" y="198">ret[1]</text>
<text class="register-number" x="10" y="186">(3)</text>
<line stroke="#567DB6" stroke-width="1" x1="6138" x2="6138" y1="42.5" y2="125" />
<line stroke="#567DB6" stroke-width="1" x1="5946" x2="6138" y1="42.5" y2="173" />
<line stroke="#567DB6" stroke-dasharray="3 1" stroke-width="1" x1="5754" x2="5946" y1="42.5" y2="125" />
<line stroke="#567DB6" stroke-dasharray="3 1" stroke-width="1" x1="5562" x2="5946" y1="42.5" y2="173" />
<line stroke="#567DB6" stroke-width="1" x1="378" x2="186" y1="78.5" y2="125" />
<line stroke="#567DB6" stroke-width="1" x1="181" x2="181" y1="78.5" y2="173" />
<line marker-end="url(#arrowhead)" stroke="none" x1="6138" x2="6138" y1="42.5" y2="125" />
<line marker-end="url(#arrowhead)" stroke="none" x1="5946" x2="6138" y1="42.5" y2="173" />
<line marker-end="url(#arrowhead)" stroke="none" stroke-dasharray="3 1" x1="5754" x2="5946" y1="42.5" y2="125" />
<line marker-end="url(#arrowhead)" stroke="none" stroke-dasharray="3 1" x1="5562" x2="5946" y1="42.5" y2="173" />
<line marker-end="url(#arrowhead)" stroke="none" x1="378" x2="186" y1="78.5" y2="125" />
<line marker-end="url(#arrowhead)" stroke="none" x1="181" x2="181" y1="78.5" y2="173" />
</svg>