<svg xmlns="http://www.w3.org/2000/svg" viewBox="0 0 6246 207">
<style>
.label { font: 14px Helvetica; dominant-baseline: middle; text-anchor: middle; }
.title-left { font: 12px Helvetica; dominant-baseline: middle; }
.title-right { font: 12px Helvetica; dominant-baseline: middle; text-anchor: end; }
.title-intrinsic { font: 12px Helvetica; dominant-baseline: middle; text-anchor: middle; fill: #6778ED; }
.title { font: 12px Helvetica; dominant-baseline: middle; text-anchor: middle; }
.title-unused { font: 12px Helvetica; dominant-baseline: middle; text-anchor: middle; fill: #AAA; }
.register-name { font: 14px Helvetica; dominant-baseline: middle; text-anchor: end; font-style: italic; }
.memory-name { font: 14px Helvetica; dominant-baseline: middle; text-anchor: end; }
.register-number { font: 14px Helvetica; dominant-baseline: middle; text-anchor: start; }
.intrinsic-name { font: 14px Helvetica; dominant-baseline: middle; text-anchor: end; fill: #6778ED; }
.intrinsic-color { fill: #6778ED; }
.small-label { font: 12px Helvetica; dominant-baseline: middle; text-anchor: middle; }
.label-10px { font: 10px Helvetica; dominant-baseline: middle; text-anchor: middle; }
.smaller-label { font: 9px Helvetica; dominant-baseline: middle; text-anchor: middle; }
.label-6px { font: 6px Helvetica; dominant-baseline: middle; text-anchor: middle; }
.label-7px { font: 7px Helvetica; dominant-baseline: middle; text-anchor: middle; }
.unused { fill: #AAA; }
.dim { fill: #888; }
</style>
<defs>
<marker id="arrowhead" markerWidth="10.75" markerHeight="24.5" refX="9.0" refY="6.125" orient="auto">
<polyline points="0.5 0.5, 8.75 6.125, 0.5 11.75" stroke="#567DB6" stroke-width="1" fill="none"/>
</marker>
</defs>
<text class="title-left" x="90" y="9">upper</text>
<text class="title-right" x="6234" y="9">lower</text>
<rect fill="#DEE6F1" height="24" width="384" x="5850" y="18" />
<rect fill="none" height="24" stroke="#405C86" stroke-width="2" width="384" x="5850" y="18" />
<text class="small-label intrinsic-color" x="6042" y="31">base[0]</text>
<rect fill="#EEDDDB" height="24" width="384" x="5466" y="18" />
<rect fill="none" height="24" stroke="#405C86" stroke-width="2" width="384" x="5466" y="18" />
<text class="small-label intrinsic-color" x="5658" y="31">base[1]</text>
<rect fill="#DEE6F1" height="24" width="384" x="5082" y="18" />
<rect fill="none" height="24" stroke="#405C86" stroke-width="2" width="384" x="5082" y="18" />
<text class="small-label intrinsic-color" x="5274" y="31">base[2]</text>
<rect fill="#EEDDDB" height="24" width="384" x="4698" y="18" />
<rect fill="none" height="24" stroke="#405C86" stroke-width="2" width="384" x="4698" y="18" />
<text class="small-label intrinsic-color" x="4890" y="31">base[3]</text>
<rect fill="#DEE6F1" height="24" width="384" x="4314" y="18" />
<rect fill="none" height="24" stroke="#405C86" stroke-width="2" width="384" x="4314" y="18" />
<text class="small-label intrinsic-color" x="4506" y="31">base[4]</text>
<rect fill="#EEDDDB" height="24" width="384" x="3930" y="18" />
<rect fill="none" height="24" stroke="#405C86" stroke-width="2" width="384" x="3930" y="18" />
<text class="small-label intrinsic-color" x="4122" y="31">base[5]</text>
<rect fill="#DEE6F1" height="24" width="384" x="3546" y="18" />
<rect fill="none" height="24" stroke="#405C86" stroke-width="2" width="384" x="3546" y="18" />
<text class="small-label intrinsic-color" x="3738" y="31">base[6]</text>
<rect fill="#EEDDDB" height="24" width="384" x="3162" y="18" />
<rect fill="none" height="24" stroke="#405C86" stroke-width="2" width="384" x="3162" y="18" />
<text class="small-label intrinsic-color" x="3354" y="31">base[7]</text>
<rect fill="#DEE6F1" height="24" width="384" x="2778" y="18" />
<rect fill="none" height="24" stroke="#405C86" stroke-width="2" width="384" x="2778" y="18" />
<text class="small-label intrinsic-color" x="2970" y="31">base[8]</text>
<rect fill="#EEDDDB" height="24" width="384" x="2394" y="18" />
<rect fill="none" height="24" stroke="#405C86" stroke-width="2" width="384" x="2394" y="18" />
<text class="small-label intrinsic-color" x="2586" y="31">base[9]</text>
<rect fill="#DEE6F1" height="24" width="384" x="2010" y="18" />
<rect fill="none" height="24" stroke="#405C86" stroke-width="2" width="384" x="2010" y="18" />
<text class="small-label intrinsic-color" x="2202" y="31">base[10]</text>
<rect fill="#EEDDDB" height="24" width="384" x="1626" y="18" />
<rect fill="none" height="24" stroke="#405C86" stroke-width="2" width="384" x="1626" y="18" />
<text class="small-label intrinsic-color" x="1818" y="31">base[11]</text>
<rect fill="#DEE6F1" height="24" width="384" x="1242" y="18" />
<rect fill="none" height="24" stroke="#405C86" stroke-width="2" width="384" x="1242" y="18" />
<text class="small-label intrinsic-color" x="1434" y="31">base[12]</text>
<rect fill="#EEDDDB" height="24" width="384" x="858" y="18" />
<rect fill="none" height="24" stroke="#405C86" stroke-width="2" width="384" x="858" y="18" />
<text class="small-label intrinsic-color" x="1050" y="31">base[13]</text>
<rect fill="#DEE6F1" height="24" width="384" x="474" y="18" />
<rect fill="none" height="24" stroke="#405C86" stroke-width="2" width="384" x="474" y="18" />
<text class="small-label intrinsic-color" x="666" y="31">base[14]</text>
<rect fill="#EEDDDB" height="24" width="384" x="90" y="18" />
<rect fill="none" height="24" stroke="#405C86" stroke-width="2" width="384" x="90" y="18" />
<text class="small-label intrinsic-color" x="282" y="31">base[15]</text>
<text class="register-name" x="80" y="30">[mem]</text>
<text class="intrinsic-name" x="80" y="42">*base</text>
<text class="register-number" x="10" y="30">(1)</text>
<rect fill="#DEE6F1" height="24" width="384" x="5850" y="54" />
<rect fill="none" height="24" stroke="#405C86" stroke-width="2" width="384" x="5850" y="54" />
<text class="small-label intrinsic-color" x="6042" y="67">base[16]</text>
<rect fill="#EEDDDB" height="24" width="384" x="5466" y="54" />
<rect fill="none" height="24" stroke="#405C86" stroke-width="2" width="384" x="5466" y="54" />
<text class="small-label intrinsic-color" x="5658" y="67">base[17]</text>
<rect fill="#DEE6F1" height="24" width="384" x="5082" y="54" />
<rect fill="none" height="24" stroke="#405C86" stroke-width="2" width="384" x="5082" y="54" />
<text class="small-label intrinsic-color" x="5274" y="67">base[18]</text>
<rect fill="#EEDDDB" height="24" width="384" x="4698" y="54" />
<rect fill="none" height="24" stroke="#405C86" stroke-width="2" width="384" x="4698" y="54" />
<text class="small-label intrinsic-color" x="4890" y="67">base[19]</text>
<rect fill="#DEE6F1" height="24" width="384" x="4314" y="54" />
<rect fill="none" height="24" stroke="#405C86" stroke-width="2" width="384" x="4314" y="54" />
<text class="small-label intrinsic-color" x="4506" y="67">base[20]</text>
<rect fill="#EEDDDB" height="24" width="384" x="3930" y="54" />
<rect fill="none" height="24" stroke="#405C86" stroke-width="2" width="384" x="3930" y="54" />
<text class="small-label intrinsic-color" x="4122" y="67">base[21]</text>
<rect fill="#DEE6F1" height="24" width="384" x="3546" y="54" />
<rect fill="none" height="24" stroke="#405C86" stroke-width="2" width="384" x="3546" y="54" />
<text class="small-label intrinsic-color" x="3738" y="67">base[22]</text>
<rect fill="#EEDDDB" height="24" width="384" x="3162" y="54" />
<rect fill="none" height="24" stroke="#405C86" stroke-width="2" width="384" x="3162" y="54" />
<text class="small-label intrinsic-color" x="3354" y="67">base[23]</text>
<rect fill="#DEE6F1" height="24" width="384" x="2778" y="54" />
<rect fill="none" height="24" stroke="#405C86" stroke-width="2" width="384" x="2778" y="54" />
<text class="small-label intrinsic-color" x="2970" y="67">base[24]</text>
<rect fill="#EEDDDB" height="24" width="384" x="2394" y="54" />
<rect fill="none" height="24" stroke="#405C86" stroke-width="2" width="384" x="2394" y="54" />
<text class="small-label intrinsic-color" x="2586" y="67">base[25]</text>
<rect fill="#DEE6F1" height="24" width="384" x="2010" y="54" />
<rect fill="none" height="24" stroke="#405C86" stroke-width="2" width="384" x="2010" y="54" />
<text class="small-label intrinsic-color" x="2202" y="67">base[26]</text>
<rect fill="#EEDDDB" height="24" width="384" x="1626" y="54" />
<rect fill="none" height="24" stroke="#405C86" stroke-width="2" width="384" x="1626" y="54" />
<text class="small-label intrinsic-color" x="1818" y="67">base[27]</text>
<rect fill="#DEE6F1" height="24" width="384" x="1242" y="54" />
<rect fill="none" height="24" stroke="#405C86" stroke-width="2" width="384" x="1242" y="54" />
<text class="small-label intrinsic-color" x="1434" y="67">base[28]</text>
<rect fill="#EEDDDB" height="24" width="384" x="858" y="54" />
<rect fill="none" height="24" stroke="#405C86" stroke-width="2" width="384" x="858" y="54" />
<text class="small-label intrinsic-color" x="1050" y="67">base[29]</text>
<rect fill="#DEE6F1" height="24" width="384" x="474" y="54" />
<rect fill="none" height="24" stroke="#405C86" stroke-width="2" width="384" x="474" y="54" />
<text class="small-label intrinsic-color" x="666" y="67">base[30]</text>
<rect fill="#EEDDDB" height="24" width="384" x="90" y="54" />
<rect fill="none" height="24" stroke="#405C86" stroke-width="2" width="384" x="90" y="54" />
<text class="small-label intrinsic-color" x="282" y="67">base[31]</text>
<rect fill="#DEE6F1" height="24" width="384" x="5850" y="126" />
<rect fill="none" height="24" stroke="#405C86" stroke-width="2" width="384" x="5850" y="126" />
<text class="small-label intrinsic-color" x="6042" y="139">base[0]</text>
<rect fill="#DEE6F1" height="24" width="384" x="5466" y="126" />
<rect fill="none" height="24" stroke="#405C86" stroke-width="2" width="384" x="5466" y="126" />
<text class="small-label intrinsic-color" x="5658" y="139">base[2]</text>
<rect fill="#DEE6F1" height="24" width="384" x="5082" y="126" />
<rect fill="none" height="24" stroke="#405C86" stroke-width="2" width="384" x="5082" y="126" />
<text class="small-label intrinsic-color" x="5274" y="139">base[4]</text>
<rect fill="#DEE6F1" height="24" width="384" x="4698" y="126" />
<rect fill="none" height="24" stroke="#405C86" stroke-width="2" width="384" x="4698" y="126" />
<text class="small-label intrinsic-color" x="4890" y="139">base[6]</text>
<rect fill="#DEE6F1" height="24" width="384" x="4314" y="126" />
<rect fill="none" height="24" stroke="#405C86" stroke-width="2" width="384" x="4314" y="126" />
<text class="small-label intrinsic-color" x="4506" y="139">base[8]</text>
<rect fill="#DEE6F1" height="24" width="384" x="3930" y="126" />
<rect fill="none" height="24" stroke="#405C86" stroke-width="2" width="384" x="3930" y="126" />
<text class="small-label intrinsic-color" x="4122" y="139">base[10]</text>
<rect fill="#DEE6F1" height="24" width="384" x="3546" y="126" />
<rect fill="none" height="24" stroke="#405C86" stroke-width="2" width="384" x="3546" y="126" />
<text class="small-label intrinsic-color" x="3738" y="139">base[12]</text>
<rect fill="#DEE6F1" height="24" width="384" x="3162" y="126" />
<rect fill="none" height="24" stroke="#405C86" stroke-width="2" width="384" x="3162" y="126" />
<text class="small-label intrinsic-color" x="3354" y="139">base[14]</text>
<rect fill="#DEE6F1" height="24" width="384" x="2778" y="126" />
<rect fill="none" height="24" stroke="#405C86" stroke-width="2" width="384" x="2778" y="126" />
<text class="small-label intrinsic-color" x="2970" y="139">base[16]</text>
<rect fill="#DEE6F1" height="24" width="384" x="2394" y="126" />
<rect fill="none" height="24" stroke="#405C86" stroke-width="2" width="384" x="2394" y="126" />
<text class="small-label intrinsic-color" x="2586" y="139">base[18]</text>
<rect fill="#DEE6F1" height="24" width="384" x="2010" y="126" />
<rect fill="none" height="24" stroke="#405C86" stroke-width="2" width="384" x="2010" y="126" />
<text class="small-label intrinsic-color" x="2202" y="139">base[20]</text>
<rect fill="#DEE6F1" height="24" width="384" x="1626" y="126" />
<rect fill="none" height="24" stroke="#405C86" stroke-width="2" width="384" x="1626" y="126" />
<text class="small-label intrinsic-color" x="1818" y="139">base[22]</text>
<rect fill="#DEE6F1" height="24" width="384" x="1242" y="126" />
<rect fill="none" height="24" stroke="#405C86" stroke-width="2" width="384" x="1242" y="126" />
<text class="small-label intrinsic-color" x="1434" y="139">base[24]</text>
<rect fill="#DEE6F1" height="24" width="384" x="858" y="126" />
<rect fill="none" height="24" stroke="#405C86" stroke-width="2" width="384" x="858" y="126" />
<text class="small-label intrinsic-color" x="1050" y="139">base[26]</text>
<rect fill="#DEE6F1" height="24" width="384" x="474" y="126" />
<rect fill="none" height="24" stroke="#405C86" stroke-width="2" width="384" x="474" y="126" />
<text class="small-label intrinsic-color" x="666" y="139">base[28]</text>
<rect fill="#DEE6F1" height="24" width="384" x="90" y="126" />
<rect fill="none" height="24" stroke="#405C86" stroke-width="2" width="384" x="90" y="126" />
<text class="small-label intrinsic-color" x="282" y="139">base[30]</text>
<text class="register-name" x="80" y="138">Zt1</text>
<text class="intrinsic-name" x="80" y="150">ret[0]</text>
<text class="register-number" x="10" y="138">(2)</text>
<rect fill="#EEDDDB" height="24" width="384" x="5850" y="174" />
<rect fill="none" height="24" stroke="#405C86" stroke-width="2" width="384" x="5850" y="174" />
<text class="small-label intrinsic-color" x="6042" y="187">base[1]</text>
<rect fill="#EEDDDB" height="24" width="384" x="5466" y="174" />
<rect fill="none" height="24" stroke="#405C86" stroke-width="2" width="384" x="5466" y="174" />
<text class="small-label intrinsic-color" x="5658" y="187">base[3]</text>
<rect fill="#EEDDDB" height="24" width="384" x="5082" y="174" />
<rect fill="none" height="24" stroke="#405C86" stroke-width="2" width="384" x="5082" y="174" />
<text class="small-label intrinsic-color" x="5274" y="187">base[5]</text>
<rect fill="#EEDDDB" height="24" width="384" x="4698" y="174" />
<rect fill="none" height="24" stroke="#405C86" stroke-width="2" width="384" x="4698" y="174" />
<text class="small-label intrinsic-color" x="4890" y="187">base[7]</text>
<rect fill="#EEDDDB" height="24" width="384" x="4314" y="174" />
<rect fill="none" height="24" stroke="#405C86" stroke-width="2" width="384" x="4314" y="174" />
<text class="small-label intrinsic-color" x="4506" y="187">base[9]</text>
<rect fill="#EEDDDB" height="24" width="384" x="3930" y="174" />
<rect fill="none" height="24" stroke="#405C86" stroke-width="2" width="384" x="3930" y="174" />
<text class="small-label intrinsic-color" x="4122" y="187">base[11]</text>
<rect fill="#EEDDDB" height="24" width="384" x="3546" y="174" />
<rect fill="none" height="24" stroke="#405C86" stroke-width="2" width="384" x="3546" y="174" />
<text class="small-label intrinsic-color" x="3738" y="187">base[13]</text>
<rect fill="#EEDDDB" height="24" width="384" x="3162" y="174" />
<rect fill="none" height="24" stroke="#405C86" stroke-width="2" width="384" x="3162" y="174" />
<text class="small-label intrinsic-color" x="3354" y="187">base[15]</text>
<rect fill="#EEDDDB" height="24" width="384" x="2778" y="174" />
<rect fill="none" height="24" stroke="#405C86" stroke-width="2" width="384" x="2778" y="174" />
<text class="small-label intrinsic-color" x="2970" y="187">base[17]</text>
<rect fill="#EEDDDB" height="24" width="384" x="2394" y="174" />
<rect fill="none" height="24" stroke="#405C86" stroke-width="2" width="384" x="2394" y="174" />
<text class="small-label intrinsic-color" x="2586" y="187">base[19]</text>
<rect fill="#EEDDDB" height="24" width="384" x="2010" y="174" />
<rect fill="none" height="24" stroke="#405C86" stroke-width="2" width="384" x="2010" y="174" />
<text class="small-label intrinsic-color" x="2202" y="187">base[21]</text>
<rect fill="#EEDDDB" height="24" width="384" x="1626" y="174" />
<rect fill="none" height="24" stroke="#405C86" stroke-width="2" width="384" x="1626" y="174" />
<text class="small-label intrinsic-color" x="1818" y="187">base[23]</text>
<rect fill="#EEDDDB" height="24" width="384" x="1242" y="174" />
<rect fill="none" height="24" stroke="#405C86" stroke-width="2" width="384" x="1242" y="174" />
<text class="small-label intrinsic-color" x="1434" y="187">base[25]</text>
<rect fill="#EEDDDB" height="24" width="384" x="858" y="174" />
<rect fill="none" height="24" stroke="#405C86" stroke-width="2" width="384" x="858" y="174" />
<text class="small-label intrinsic-color" x="1050" y="187">base[27]</text>
<rect fill="#EEDDDB" height="24" width="384" x="474" y="174" />
<rect fill="none" height="24" stroke="#405C86" stroke-width="2" width="384" x="474" y="174" />
<text class="small-label intrinsic-color" x="666" y="187">base[29]</text>
<rect fill="#EEDDDB" height="24" width="384" x="90" y="174" />
<rect fill="none" height="24" stroke="#405C86" stroke-width="2" width="384" x="90" y="174" />
<text class="small-label intrinsic-color" x="282" y="187">base[31]</text>
<text class="register-name" x="80" y="186">Zt2</text>
<text class="intrinsic-name" x="80" y="198">ret[1]</text>
<text class="register-number" x="10" y="186">(3)</text>
<line stroke="#567DB6" stroke-width="1" x1="6042" x2="6042" y1="42.5" y2="125" />
<line stroke="#567DB6" stroke-width="1" x1="5658" x2="6042" y1="42.5" y2="173" />
<line stroke="#567DB6" stroke-dasharray="3 1" stroke-width="1" x1="5274" x2="5658" y1="42.5" y2="125" />
<line stroke="#567DB6" stroke-dasharray="3 1" stroke-width="1" x1="4890" x2="5658" y1="42.5" y2="173" />
<line stroke="#567DB6" stroke-width="1" x1="666" x2="282" y1="78.5" y2="125" />
<line stroke="#567DB6" stroke-width="1" x1="277" x2="277" y1="78.5" y2="173" />
<line marker-end="url(#arrowhead)" stroke="none" x1="6042" x2="6042" y1="42.5" y2="125" />
<line marker-end="url(#arrowhead)" stroke="none" x1="5658" x2="6042" y1="42.5" y2="173" />
<line marker-end="url(#arrowhead)" stroke="none" stroke-dasharray="3 1" x1="5274" x2="5658" y1="42.5" y2="125" />
<line marker-end="url(#arrowhead)" stroke="none" stroke-dasharray="3 1" x1="4890" x2="5658" y1="42.5" y2="173" />
<line marker-end="url(#arrowhead)" stroke="none" x1="666" x2="282" y1="78.5" y2="125" />
<line marker-end="url(#arrowhead)" stroke="none" x1="277" x2="277" y1="78.5" y2="173" />
</svg>