<svg xmlns="http://www.w3.org/2000/svg" viewBox="0 0 486 291">
<style>
.label { font: 14px Helvetica; dominant-baseline: middle; text-anchor: middle; }
.title-left { font: 12px Helvetica; dominant-baseline: middle; }
.title-right { font: 12px Helvetica; dominant-baseline: middle; text-anchor: end; }
.title-intrinsic { font: 12px Helvetica; dominant-baseline: middle; text-anchor: middle; fill: #6778ED; }
.title { font: 12px Helvetica; dominant-baseline: middle; text-anchor: middle; }
.title-unused { font: 12px Helvetica; dominant-baseline: middle; text-anchor: middle; fill: #AAA; }
.register-name { font: 14px Helvetica; dominant-baseline: middle; text-anchor: end; font-style: italic; }
.memory-name { font: 14px Helvetica; dominant-baseline: middle; text-anchor: end; }
.register-number { font: 14px Helvetica; dominant-baseline: middle; text-anchor: start; }
.intrinsic-name { font: 14px Helvetica; dominant-baseline: middle; text-anchor: end; fill: #6778ED; }
.intrinsic-color { fill: #6778ED; }
.small-label { font: 12px Helvetica; dominant-baseline: middle; text-anchor: middle; }
.label-10px { font: 10px Helvetica; dominant-baseline: middle; text-anchor: middle; }
.smaller-label { font: 9px Helvetica; dominant-baseline: middle; text-anchor: middle; }
.label-6px { font: 6px Helvetica; dominant-baseline: middle; text-anchor: middle; }
.label-7px { font: 7px Helvetica; dominant-baseline: middle; text-anchor: middle; }
.unused { fill: #AAA; }
.dim { fill: #888; }
</style>
<defs>
<marker id="arrowhead" markerWidth="10.75" markerHeight="24.5" refX="9.0" refY="6.125" orient="auto">
<polyline points="0.5 0.5, 8.75 6.125, 0.5 11.75" stroke="#567DB6" stroke-width="1" fill="none"/>
</marker>
</defs>
<text class="title-left" x="90" y="9">upper</text>
<text class="title-right" x="474" y="9">lower</text>
<rect fill="#DEE6F1" height="24" width="24" x="450" y="18" />
<rect fill="none" height="24" stroke="#405C86" stroke-width="2" width="24" x="450" y="18" />
<text class="smaller-label intrinsic-color" x="462" y="31">b[0]</text>
<rect fill="#EEDDDB" height="24" width="24" x="426" y="18" />
<rect fill="none" height="24" stroke="#405C86" stroke-width="2" width="24" x="426" y="18" />
<text class="smaller-label intrinsic-color" x="438" y="31">b[1]</text>
<rect fill="#ECF1E0" height="24" width="24" x="402" y="18" />
<rect fill="none" height="24" stroke="#405C86" stroke-width="2" width="24" x="402" y="18" />
<text class="smaller-label intrinsic-color" x="414" y="31">b[2]</text>
<rect fill="#DEE6F1" height="24" width="24" x="378" y="18" />
<rect fill="none" height="24" stroke="#405C86" stroke-width="2" width="24" x="378" y="18" />
<text class="smaller-label intrinsic-color" x="390" y="31">b[3]</text>
<rect fill="#EEDDDB" height="24" width="24" x="354" y="18" />
<rect fill="none" height="24" stroke="#405C86" stroke-width="2" width="24" x="354" y="18" />
<text class="smaller-label intrinsic-color" x="366" y="31">b[4]</text>
<rect fill="#ECF1E0" height="24" width="24" x="330" y="18" />
<rect fill="none" height="24" stroke="#405C86" stroke-width="2" width="24" x="330" y="18" />
<text class="smaller-label intrinsic-color" x="342" y="31">b[5]</text>
<rect fill="#DEE6F1" height="24" width="24" x="306" y="18" />
<rect fill="none" height="24" stroke="#405C86" stroke-width="2" width="24" x="306" y="18" />
<text class="smaller-label intrinsic-color" x="318" y="31">b[6]</text>
<rect fill="#EEDDDB" height="24" width="24" x="282" y="18" />
<rect fill="none" height="24" stroke="#405C86" stroke-width="2" width="24" x="282" y="18" />
<text class="smaller-label intrinsic-color" x="294" y="31">b[7]</text>
<rect fill="#ECF1E0" height="24" width="24" x="258" y="18" />
<rect fill="none" height="24" stroke="#405C86" stroke-width="2" width="24" x="258" y="18" />
<text class="smaller-label intrinsic-color" x="270" y="31">b[8]</text>
<rect fill="#DEE6F1" height="24" width="24" x="234" y="18" />
<rect fill="none" height="24" stroke="#405C86" stroke-width="2" width="24" x="234" y="18" />
<text class="smaller-label intrinsic-color" x="246" y="31">b[9]</text>
<rect fill="#EEDDDB" height="24" width="24" x="210" y="18" />
<rect fill="none" height="24" stroke="#405C86" stroke-width="2" width="24" x="210" y="18" />
<text class="smaller-label intrinsic-color" x="222" y="31">b[10]</text>
<rect fill="#ECF1E0" height="24" width="24" x="186" y="18" />
<rect fill="none" height="24" stroke="#405C86" stroke-width="2" width="24" x="186" y="18" />
<text class="smaller-label intrinsic-color" x="198" y="31">b[11]</text>
<rect fill="#DEE6F1" height="24" width="24" x="162" y="18" />
<rect fill="none" height="24" stroke="#405C86" stroke-width="2" width="24" x="162" y="18" />
<text class="smaller-label intrinsic-color" x="174" y="31">b[12]</text>
<rect fill="#EEDDDB" height="24" width="24" x="138" y="18" />
<rect fill="none" height="24" stroke="#405C86" stroke-width="2" width="24" x="138" y="18" />
<text class="smaller-label intrinsic-color" x="150" y="31">b[13]</text>
<rect fill="#ECF1E0" height="24" width="24" x="114" y="18" />
<rect fill="none" height="24" stroke="#405C86" stroke-width="2" width="24" x="114" y="18" />
<text class="smaller-label intrinsic-color" x="126" y="31">b[14]</text>
<rect fill="#DEE6F1" height="24" width="24" x="90" y="18" />
<rect fill="none" height="24" stroke="#405C86" stroke-width="2" width="24" x="90" y="18" />
<text class="smaller-label intrinsic-color" x="102" y="31">b[15]</text>
<text class="register-name" x="80" y="30">[mem]</text>
<text class="intrinsic-name" x="80" y="42">*base</text>
<text class="register-number" x="10" y="30">(1)</text>
<rect fill="#EEDDDB" height="24" width="24" x="450" y="54" />
<rect fill="none" height="24" stroke="#405C86" stroke-width="2" width="24" x="450" y="54" />
<text class="smaller-label intrinsic-color" x="462" y="67">b[16]</text>
<rect fill="#ECF1E0" height="24" width="24" x="426" y="54" />
<rect fill="none" height="24" stroke="#405C86" stroke-width="2" width="24" x="426" y="54" />
<text class="smaller-label intrinsic-color" x="438" y="67">b[17]</text>
<rect fill="#DEE6F1" height="24" width="24" x="402" y="54" />
<rect fill="none" height="24" stroke="#405C86" stroke-width="2" width="24" x="402" y="54" />
<text class="smaller-label intrinsic-color" x="414" y="67">b[18]</text>
<rect fill="#EEDDDB" height="24" width="24" x="378" y="54" />
<rect fill="none" height="24" stroke="#405C86" stroke-width="2" width="24" x="378" y="54" />
<text class="smaller-label intrinsic-color" x="390" y="67">b[19]</text>
<rect fill="#ECF1E0" height="24" width="24" x="354" y="54" />
<rect fill="none" height="24" stroke="#405C86" stroke-width="2" width="24" x="354" y="54" />
<text class="smaller-label intrinsic-color" x="366" y="67">b[20]</text>
<rect fill="#DEE6F1" height="24" width="24" x="330" y="54" />
<rect fill="none" height="24" stroke="#405C86" stroke-width="2" width="24" x="330" y="54" />
<text class="smaller-label intrinsic-color" x="342" y="67">b[21]</text>
<rect fill="#EEDDDB" height="24" width="24" x="306" y="54" />
<rect fill="none" height="24" stroke="#405C86" stroke-width="2" width="24" x="306" y="54" />
<text class="smaller-label intrinsic-color" x="318" y="67">b[22]</text>
<rect fill="#ECF1E0" height="24" width="24" x="282" y="54" />
<rect fill="none" height="24" stroke="#405C86" stroke-width="2" width="24" x="282" y="54" />
<text class="smaller-label intrinsic-color" x="294" y="67">b[23]</text>
<rect fill="#DEE6F1" height="24" width="24" x="258" y="54" />
<rect fill="none" height="24" stroke="#405C86" stroke-width="2" width="24" x="258" y="54" />
<text class="smaller-label intrinsic-color" x="270" y="67">b[24]</text>
<rect fill="#EEDDDB" height="24" width="24" x="234" y="54" />
<rect fill="none" height="24" stroke="#405C86" stroke-width="2" width="24" x="234" y="54" />
<text class="smaller-label intrinsic-color" x="246" y="67">b[25]</text>
<rect fill="#ECF1E0" height="24" width="24" x="210" y="54" />
<rect fill="none" height="24" stroke="#405C86" stroke-width="2" width="24" x="210" y="54" />
<text class="smaller-label intrinsic-color" x="222" y="67">b[26]</text>
<rect fill="#DEE6F1" height="24" width="24" x="186" y="54" />
<rect fill="none" height="24" stroke="#405C86" stroke-width="2" width="24" x="186" y="54" />
<text class="smaller-label intrinsic-color" x="198" y="67">b[27]</text>
<rect fill="#EEDDDB" height="24" width="24" x="162" y="54" />
<rect fill="none" height="24" stroke="#405C86" stroke-width="2" width="24" x="162" y="54" />
<text class="smaller-label intrinsic-color" x="174" y="67">b[28]</text>
<rect fill="#ECF1E0" height="24" width="24" x="138" y="54" />
<rect fill="none" height="24" stroke="#405C86" stroke-width="2" width="24" x="138" y="54" />
<text class="smaller-label intrinsic-color" x="150" y="67">b[29]</text>
<rect fill="#DEE6F1" height="24" width="24" x="114" y="54" />
<rect fill="none" height="24" stroke="#405C86" stroke-width="2" width="24" x="114" y="54" />
<text class="smaller-label intrinsic-color" x="126" y="67">b[30]</text>
<rect fill="#EEDDDB" height="24" width="24" x="90" y="54" />
<rect fill="none" height="24" stroke="#405C86" stroke-width="2" width="24" x="90" y="54" />
<text class="smaller-label intrinsic-color" x="102" y="67">b[31]</text>
<rect fill="#ECF1E0" height="24" width="24" x="450" y="90" />
<rect fill="none" height="24" stroke="#405C86" stroke-width="2" width="24" x="450" y="90" />
<text class="smaller-label intrinsic-color" x="462" y="103">b[32]</text>
<rect fill="#DEE6F1" height="24" width="24" x="426" y="90" />
<rect fill="none" height="24" stroke="#405C86" stroke-width="2" width="24" x="426" y="90" />
<text class="smaller-label intrinsic-color" x="438" y="103">b[33]</text>
<rect fill="#EEDDDB" height="24" width="24" x="402" y="90" />
<rect fill="none" height="24" stroke="#405C86" stroke-width="2" width="24" x="402" y="90" />
<text class="smaller-label intrinsic-color" x="414" y="103">b[34]</text>
<rect fill="#ECF1E0" height="24" width="24" x="378" y="90" />
<rect fill="none" height="24" stroke="#405C86" stroke-width="2" width="24" x="378" y="90" />
<text class="smaller-label intrinsic-color" x="390" y="103">b[35]</text>
<rect fill="#DEE6F1" height="24" width="24" x="354" y="90" />
<rect fill="none" height="24" stroke="#405C86" stroke-width="2" width="24" x="354" y="90" />
<text class="smaller-label intrinsic-color" x="366" y="103">b[36]</text>
<rect fill="#EEDDDB" height="24" width="24" x="330" y="90" />
<rect fill="none" height="24" stroke="#405C86" stroke-width="2" width="24" x="330" y="90" />
<text class="smaller-label intrinsic-color" x="342" y="103">b[37]</text>
<rect fill="#ECF1E0" height="24" width="24" x="306" y="90" />
<rect fill="none" height="24" stroke="#405C86" stroke-width="2" width="24" x="306" y="90" />
<text class="smaller-label intrinsic-color" x="318" y="103">b[38]</text>
<rect fill="#DEE6F1" height="24" width="24" x="282" y="90" />
<rect fill="none" height="24" stroke="#405C86" stroke-width="2" width="24" x="282" y="90" />
<text class="smaller-label intrinsic-color" x="294" y="103">b[39]</text>
<rect fill="#EEDDDB" height="24" width="24" x="258" y="90" />
<rect fill="none" height="24" stroke="#405C86" stroke-width="2" width="24" x="258" y="90" />
<text class="smaller-label intrinsic-color" x="270" y="103">b[40]</text>
<rect fill="#ECF1E0" height="24" width="24" x="234" y="90" />
<rect fill="none" height="24" stroke="#405C86" stroke-width="2" width="24" x="234" y="90" />
<text class="smaller-label intrinsic-color" x="246" y="103">b[41]</text>
<rect fill="#DEE6F1" height="24" width="24" x="210" y="90" />
<rect fill="none" height="24" stroke="#405C86" stroke-width="2" width="24" x="210" y="90" />
<text class="smaller-label intrinsic-color" x="222" y="103">b[42]</text>
<rect fill="#EEDDDB" height="24" width="24" x="186" y="90" />
<rect fill="none" height="24" stroke="#405C86" stroke-width="2" width="24" x="186" y="90" />
<text class="smaller-label intrinsic-color" x="198" y="103">b[43]</text>
<rect fill="#ECF1E0" height="24" width="24" x="162" y="90" />
<rect fill="none" height="24" stroke="#405C86" stroke-width="2" width="24" x="162" y="90" />
<text class="smaller-label intrinsic-color" x="174" y="103">b[44]</text>
<rect fill="#DEE6F1" height="24" width="24" x="138" y="90" />
<rect fill="none" height="24" stroke="#405C86" stroke-width="2" width="24" x="138" y="90" />
<text class="smaller-label intrinsic-color" x="150" y="103">b[45]</text>
<rect fill="#EEDDDB" height="24" width="24" x="114" y="90" />
<rect fill="none" height="24" stroke="#405C86" stroke-width="2" width="24" x="114" y="90" />
<text class="smaller-label intrinsic-color" x="126" y="103">b[46]</text>
<rect fill="#ECF1E0" height="24" width="24" x="90" y="90" />
<rect fill="none" height="24" stroke="#405C86" stroke-width="2" width="24" x="90" y="90" />
<text class="smaller-label intrinsic-color" x="102" y="103">b[47]</text>
<rect fill="#DEE6F1" height="24" width="24" x="450" y="162" />
<rect fill="none" height="24" stroke="#405C86" stroke-width="2" width="24" x="450" y="162" />
<text class="smaller-label intrinsic-color" x="462" y="175">b[0]</text>
<rect fill="#DEE6F1" height="24" width="24" x="426" y="162" />
<rect fill="none" height="24" stroke="#405C86" stroke-width="2" width="24" x="426" y="162" />
<text class="smaller-label intrinsic-color" x="438" y="175">b[3]</text>
<rect fill="#DEE6F1" height="24" width="24" x="402" y="162" />
<rect fill="none" height="24" stroke="#405C86" stroke-width="2" width="24" x="402" y="162" />
<text class="smaller-label intrinsic-color" x="414" y="175">b[6]</text>
<rect fill="#DEE6F1" height="24" width="24" x="378" y="162" />
<rect fill="none" height="24" stroke="#405C86" stroke-width="2" width="24" x="378" y="162" />
<text class="smaller-label intrinsic-color" x="390" y="175">b[9]</text>
<rect fill="#DEE6F1" height="24" width="24" x="354" y="162" />
<rect fill="none" height="24" stroke="#405C86" stroke-width="2" width="24" x="354" y="162" />
<text class="smaller-label intrinsic-color" x="366" y="175">b[12]</text>
<rect fill="#DEE6F1" height="24" width="24" x="330" y="162" />
<rect fill="none" height="24" stroke="#405C86" stroke-width="2" width="24" x="330" y="162" />
<text class="smaller-label intrinsic-color" x="342" y="175">b[15]</text>
<rect fill="#DEE6F1" height="24" width="24" x="306" y="162" />
<rect fill="none" height="24" stroke="#405C86" stroke-width="2" width="24" x="306" y="162" />
<text class="smaller-label intrinsic-color" x="318" y="175">b[18]</text>
<rect fill="#DEE6F1" height="24" width="24" x="282" y="162" />
<rect fill="none" height="24" stroke="#405C86" stroke-width="2" width="24" x="282" y="162" />
<text class="smaller-label intrinsic-color" x="294" y="175">b[21]</text>
<rect fill="#DEE6F1" height="24" width="24" x="258" y="162" />
<rect fill="none" height="24" stroke="#405C86" stroke-width="2" width="24" x="258" y="162" />
<text class="smaller-label intrinsic-color" x="270" y="175">b[24]</text>
<rect fill="#DEE6F1" height="24" width="24" x="234" y="162" />
<rect fill="none" height="24" stroke="#405C86" stroke-width="2" width="24" x="234" y="162" />
<text class="smaller-label intrinsic-color" x="246" y="175">b[27]</text>
<rect fill="#DEE6F1" height="24" width="24" x="210" y="162" />
<rect fill="none" height="24" stroke="#405C86" stroke-width="2" width="24" x="210" y="162" />
<text class="smaller-label intrinsic-color" x="222" y="175">b[30]</text>
<rect fill="#DEE6F1" height="24" width="24" x="186" y="162" />
<rect fill="none" height="24" stroke="#405C86" stroke-width="2" width="24" x="186" y="162" />
<text class="smaller-label intrinsic-color" x="198" y="175">b[33]</text>
<rect fill="#DEE6F1" height="24" width="24" x="162" y="162" />
<rect fill="none" height="24" stroke="#405C86" stroke-width="2" width="24" x="162" y="162" />
<text class="smaller-label intrinsic-color" x="174" y="175">b[36]</text>
<rect fill="#DEE6F1" height="24" width="24" x="138" y="162" />
<rect fill="none" height="24" stroke="#405C86" stroke-width="2" width="24" x="138" y="162" />
<text class="smaller-label intrinsic-color" x="150" y="175">b[39]</text>
<rect fill="#DEE6F1" height="24" width="24" x="114" y="162" />
<rect fill="none" height="24" stroke="#405C86" stroke-width="2" width="24" x="114" y="162" />
<text class="smaller-label intrinsic-color" x="126" y="175">b[42]</text>
<rect fill="#DEE6F1" height="24" width="24" x="90" y="162" />
<rect fill="none" height="24" stroke="#405C86" stroke-width="2" width="24" x="90" y="162" />
<text class="smaller-label intrinsic-color" x="102" y="175">b[45]</text>
<text class="register-name" x="80" y="174">Zt1</text>
<text class="intrinsic-name" x="80" y="186">ret[0]</text>
<text class="register-number" x="10" y="174">(2)</text>
<rect fill="#EEDDDB" height="24" width="24" x="450" y="210" />
<rect fill="none" height="24" stroke="#405C86" stroke-width="2" width="24" x="450" y="210" />
<text class="smaller-label intrinsic-color" x="462" y="223">b[1]</text>
<rect fill="#EEDDDB" height="24" width="24" x="426" y="210" />
<rect fill="none" height="24" stroke="#405C86" stroke-width="2" width="24" x="426" y="210" />
<text class="smaller-label intrinsic-color" x="438" y="223">b[4]</text>
<rect fill="#EEDDDB" height="24" width="24" x="402" y="210" />
<rect fill="none" height="24" stroke="#405C86" stroke-width="2" width="24" x="402" y="210" />
<text class="smaller-label intrinsic-color" x="414" y="223">b[7]</text>
<rect fill="#EEDDDB" height="24" width="24" x="378" y="210" />
<rect fill="none" height="24" stroke="#405C86" stroke-width="2" width="24" x="378" y="210" />
<text class="smaller-label intrinsic-color" x="390" y="223">b[10]</text>
<rect fill="#EEDDDB" height="24" width="24" x="354" y="210" />
<rect fill="none" height="24" stroke="#405C86" stroke-width="2" width="24" x="354" y="210" />
<text class="smaller-label intrinsic-color" x="366" y="223">b[13]</text>
<rect fill="#EEDDDB" height="24" width="24" x="330" y="210" />
<rect fill="none" height="24" stroke="#405C86" stroke-width="2" width="24" x="330" y="210" />
<text class="smaller-label intrinsic-color" x="342" y="223">b[16]</text>
<rect fill="#EEDDDB" height="24" width="24" x="306" y="210" />
<rect fill="none" height="24" stroke="#405C86" stroke-width="2" width="24" x="306" y="210" />
<text class="smaller-label intrinsic-color" x="318" y="223">b[19]</text>
<rect fill="#EEDDDB" height="24" width="24" x="282" y="210" />
<rect fill="none" height="24" stroke="#405C86" stroke-width="2" width="24" x="282" y="210" />
<text class="smaller-label intrinsic-color" x="294" y="223">b[22]</text>
<rect fill="#EEDDDB" height="24" width="24" x="258" y="210" />
<rect fill="none" height="24" stroke="#405C86" stroke-width="2" width="24" x="258" y="210" />
<text class="smaller-label intrinsic-color" x="270" y="223">b[25]</text>
<rect fill="#EEDDDB" height="24" width="24" x="234" y="210" />
<rect fill="none" height="24" stroke="#405C86" stroke-width="2" width="24" x="234" y="210" />
<text class="smaller-label intrinsic-color" x="246" y="223">b[28]</text>
<rect fill="#EEDDDB" height="24" width="24" x="210" y="210" />
<rect fill="none" height="24" stroke="#405C86" stroke-width="2" width="24" x="210" y="210" />
<text class="smaller-label intrinsic-color" x="222" y="223">b[31]</text>
<rect fill="#EEDDDB" height="24" width="24" x="186" y="210" />
<rect fill="none" height="24" stroke="#405C86" stroke-width="2" width="24" x="186" y="210" />
<text class="smaller-label intrinsic-color" x="198" y="223">b[34]</text>
<rect fill="#EEDDDB" height="24" width="24" x="162" y="210" />
<rect fill="none" height="24" stroke="#405C86" stroke-width="2" width="24" x="162" y="210" />
<text class="smaller-label intrinsic-color" x="174" y="223">b[37]</text>
<rect fill="#EEDDDB" height="24" width="24" x="138" y="210" />
<rect fill="none" height="24" stroke="#405C86" stroke-width="2" width="24" x="138" y="210" />
<text class="smaller-label intrinsic-color" x="150" y="223">b[40]</text>
<rect fill="#EEDDDB" height="24" width="24" x="114" y="210" />
<rect fill="none" height="24" stroke="#405C86" stroke-width="2" width="24" x="114" y="210" />
<text class="smaller-label intrinsic-color" x="126" y="223">b[43]</text>
<rect fill="#EEDDDB" height="24" width="24" x="90" y="210" />
<rect fill="none" height="24" stroke="#405C86" stroke-width="2" width="24" x="90" y="210" />
<text class="smaller-label intrinsic-color" x="102" y="223">b[46]</text>
<text class="register-name" x="80" y="222">Zt2</text>
<text class="intrinsic-name" x="80" y="234">ret[1]</text>
<text class="register-number" x="10" y="222">(3)</text>
<rect fill="#ECF1E0" height="24" width="24" x="450" y="258" />
<rect fill="none" height="24" stroke="#405C86" stroke-width="2" width="24" x="450" y="258" />
<text class="smaller-label intrinsic-color" x="462" y="271">b[2]</text>
<rect fill="#ECF1E0" height="24" width="24" x="426" y="258" />
<rect fill="none" height="24" stroke="#405C86" stroke-width="2" width="24" x="426" y="258" />
<text class="smaller-label intrinsic-color" x="438" y="271">b[5]</text>
<rect fill="#ECF1E0" height="24" width="24" x="402" y="258" />
<rect fill="none" height="24" stroke="#405C86" stroke-width="2" width="24" x="402" y="258" />
<text class="smaller-label intrinsic-color" x="414" y="271">b[8]</text>
<rect fill="#ECF1E0" height="24" width="24" x="378" y="258" />
<rect fill="none" height="24" stroke="#405C86" stroke-width="2" width="24" x="378" y="258" />
<text class="smaller-label intrinsic-color" x="390" y="271">b[11]</text>
<rect fill="#ECF1E0" height="24" width="24" x="354" y="258" />
<rect fill="none" height="24" stroke="#405C86" stroke-width="2" width="24" x="354" y="258" />
<text class="smaller-label intrinsic-color" x="366" y="271">b[14]</text>
<rect fill="#ECF1E0" height="24" width="24" x="330" y="258" />
<rect fill="none" height="24" stroke="#405C86" stroke-width="2" width="24" x="330" y="258" />
<text class="smaller-label intrinsic-color" x="342" y="271">b[17]</text>
<rect fill="#ECF1E0" height="24" width="24" x="306" y="258" />
<rect fill="none" height="24" stroke="#405C86" stroke-width="2" width="24" x="306" y="258" />
<text class="smaller-label intrinsic-color" x="318" y="271">b[20]</text>
<rect fill="#ECF1E0" height="24" width="24" x="282" y="258" />
<rect fill="none" height="24" stroke="#405C86" stroke-width="2" width="24" x="282" y="258" />
<text class="smaller-label intrinsic-color" x="294" y="271">b[23]</text>
<rect fill="#ECF1E0" height="24" width="24" x="258" y="258" />
<rect fill="none" height="24" stroke="#405C86" stroke-width="2" width="24" x="258" y="258" />
<text class="smaller-label intrinsic-color" x="270" y="271">b[26]</text>
<rect fill="#ECF1E0" height="24" width="24" x="234" y="258" />
<rect fill="none" height="24" stroke="#405C86" stroke-width="2" width="24" x="234" y="258" />
<text class="smaller-label intrinsic-color" x="246" y="271">b[29]</text>
<rect fill="#ECF1E0" height="24" width="24" x="210" y="258" />
<rect fill="none" height="24" stroke="#405C86" stroke-width="2" width="24" x="210" y="258" />
<text class="smaller-label intrinsic-color" x="222" y="271">b[32]</text>
<rect fill="#ECF1E0" height="24" width="24" x="186" y="258" />
<rect fill="none" height="24" stroke="#405C86" stroke-width="2" width="24" x="186" y="258" />
<text class="smaller-label intrinsic-color" x="198" y="271">b[35]</text>
<rect fill="#ECF1E0" height="24" width="24" x="162" y="258" />
<rect fill="none" height="24" stroke="#405C86" stroke-width="2" width="24" x="162" y="258" />
<text class="smaller-label intrinsic-color" x="174" y="271">b[38]</text>
<rect fill="#ECF1E0" height="24" width="24" x="138" y="258" />
<rect fill="none" height="24" stroke="#405C86" stroke-width="2" width="24" x="138" y="258" />
<text class="smaller-label intrinsic-color" x="150" y="271">b[41]</text>
<rect fill="#ECF1E0" height="24" width="24" x="114" y="258" />
<rect fill="none" height="24" stroke="#405C86" stroke-width="2" width="24" x="114" y="258" />
<text class="smaller-label intrinsic-color" x="126" y="271">b[44]</text>
<rect fill="#ECF1E0" height="24" width="24" x="90" y="258" />
<rect fill="none" height="24" stroke="#405C86" stroke-width="2" width="24" x="90" y="258" />
<text class="smaller-label intrinsic-color" x="102" y="271">b[47]</text>
<text class="register-name" x="80" y="270">Zt3</text>
<text class="intrinsic-name" x="80" y="282">ret[2]</text>
<text class="register-number" x="10" y="270">(4)</text>
<line stroke="#567DB6" stroke-width="1" x1="462" x2="462" y1="42.5" y2="161" />
<line stroke="#567DB6" stroke-width="1" x1="438" x2="462" y1="42.5" y2="209" />
<line stroke="#567DB6" stroke-width="1" x1="414" x2="462" y1="42.5" y2="257" />
<line stroke="#567DB6" stroke-dasharray="3 1" stroke-width="1" x1="390" x2="438" y1="42.5" y2="161" />
<line stroke="#567DB6" stroke-dasharray="3 1" stroke-width="1" x1="366" x2="438" y1="42.5" y2="209" />
<line stroke="#567DB6" stroke-dasharray="3 1" stroke-width="1" x1="342" x2="438" y1="42.5" y2="257" />
<line stroke="#567DB6" stroke-width="1" x1="150" x2="102" y1="114.5" y2="161" />
<line stroke="#567DB6" stroke-width="1" x1="126" x2="102" y1="114.5" y2="209" />
<line stroke="#567DB6" stroke-width="1" x1="97" x2="97" y1="114.5" y2="257" />
<line marker-end="url(#arrowhead)" stroke="none" x1="462" x2="462" y1="42.5" y2="161" />
<line marker-end="url(#arrowhead)" stroke="none" x1="438" x2="462" y1="42.5" y2="209" />
<line marker-end="url(#arrowhead)" stroke="none" x1="414" x2="462" y1="42.5" y2="257" />
<line marker-end="url(#arrowhead)" stroke="none" stroke-dasharray="3 1" x1="390" x2="438" y1="42.5" y2="161" />
<line marker-end="url(#arrowhead)" stroke="none" stroke-dasharray="3 1" x1="366" x2="438" y1="42.5" y2="209" />
<line marker-end="url(#arrowhead)" stroke="none" stroke-dasharray="3 1" x1="342" x2="438" y1="42.5" y2="257" />
<line marker-end="url(#arrowhead)" stroke="none" x1="150" x2="102" y1="114.5" y2="161" />
<line marker-end="url(#arrowhead)" stroke="none" x1="126" x2="102" y1="114.5" y2="209" />
<line marker-end="url(#arrowhead)" stroke="none" x1="97" x2="97" y1="114.5" y2="257" />
</svg>