<svg xmlns="http://www.w3.org/2000/svg" viewBox="0 0 1638 291">
<style>
.label { font: 14px Helvetica; dominant-baseline: middle; text-anchor: middle; }
.title-left { font: 12px Helvetica; dominant-baseline: middle; }
.title-right { font: 12px Helvetica; dominant-baseline: middle; text-anchor: end; }
.title-intrinsic { font: 12px Helvetica; dominant-baseline: middle; text-anchor: middle; fill: #6778ED; }
.title { font: 12px Helvetica; dominant-baseline: middle; text-anchor: middle; }
.title-unused { font: 12px Helvetica; dominant-baseline: middle; text-anchor: middle; fill: #AAA; }
.register-name { font: 14px Helvetica; dominant-baseline: middle; text-anchor: end; font-style: italic; }
.memory-name { font: 14px Helvetica; dominant-baseline: middle; text-anchor: end; }
.register-number { font: 14px Helvetica; dominant-baseline: middle; text-anchor: start; }
.intrinsic-name { font: 14px Helvetica; dominant-baseline: middle; text-anchor: end; fill: #6778ED; }
.intrinsic-color { fill: #6778ED; }
.small-label { font: 12px Helvetica; dominant-baseline: middle; text-anchor: middle; }
.label-10px { font: 10px Helvetica; dominant-baseline: middle; text-anchor: middle; }
.smaller-label { font: 9px Helvetica; dominant-baseline: middle; text-anchor: middle; }
.label-6px { font: 6px Helvetica; dominant-baseline: middle; text-anchor: middle; }
.label-7px { font: 7px Helvetica; dominant-baseline: middle; text-anchor: middle; }
.unused { fill: #AAA; }
.dim { fill: #888; }
</style>
<defs>
<marker id="arrowhead" markerWidth="10.75" markerHeight="24.5" refX="9.0" refY="6.125" orient="auto">
<polyline points="0.5 0.5, 8.75 6.125, 0.5 11.75" stroke="#567DB6" stroke-width="1" fill="none"/>
</marker>
</defs>
<text class="title-left" x="90" y="9">upper</text>
<text class="title-right" x="1626" y="9">lower</text>
<rect fill="#DEE6F1" height="24" width="96" x="1530" y="18" />
<rect fill="none" height="24" stroke="#405C86" stroke-width="2" width="96" x="1530" y="18" />
<text class="small-label intrinsic-color" x="1578" y="31">base[0]</text>
<rect fill="#EEDDDB" height="24" width="96" x="1434" y="18" />
<rect fill="none" height="24" stroke="#405C86" stroke-width="2" width="96" x="1434" y="18" />
<text class="small-label intrinsic-color" x="1482" y="31">base[1]</text>
<rect fill="#ECF1E0" height="24" width="96" x="1338" y="18" />
<rect fill="none" height="24" stroke="#405C86" stroke-width="2" width="96" x="1338" y="18" />
<text class="small-label intrinsic-color" x="1386" y="31">base[2]</text>
<rect fill="#DEE6F1" height="24" width="96" x="1242" y="18" />
<rect fill="none" height="24" stroke="#405C86" stroke-width="2" width="96" x="1242" y="18" />
<text class="small-label intrinsic-color" x="1290" y="31">base[3]</text>
<rect fill="#EEDDDB" height="24" width="96" x="1146" y="18" />
<rect fill="none" height="24" stroke="#405C86" stroke-width="2" width="96" x="1146" y="18" />
<text class="small-label intrinsic-color" x="1194" y="31">base[4]</text>
<rect fill="#ECF1E0" height="24" width="96" x="1050" y="18" />
<rect fill="none" height="24" stroke="#405C86" stroke-width="2" width="96" x="1050" y="18" />
<text class="small-label intrinsic-color" x="1098" y="31">base[5]</text>
<rect fill="#DEE6F1" height="24" width="96" x="954" y="18" />
<rect fill="none" height="24" stroke="#405C86" stroke-width="2" width="96" x="954" y="18" />
<text class="small-label intrinsic-color" x="1002" y="31">base[6]</text>
<rect fill="#EEDDDB" height="24" width="96" x="858" y="18" />
<rect fill="none" height="24" stroke="#405C86" stroke-width="2" width="96" x="858" y="18" />
<text class="small-label intrinsic-color" x="906" y="31">base[7]</text>
<rect fill="#ECF1E0" height="24" width="96" x="762" y="18" />
<rect fill="none" height="24" stroke="#405C86" stroke-width="2" width="96" x="762" y="18" />
<text class="small-label intrinsic-color" x="810" y="31">base[8]</text>
<rect fill="#DEE6F1" height="24" width="96" x="666" y="18" />
<rect fill="none" height="24" stroke="#405C86" stroke-width="2" width="96" x="666" y="18" />
<text class="small-label intrinsic-color" x="714" y="31">base[9]</text>
<rect fill="#EEDDDB" height="24" width="96" x="570" y="18" />
<rect fill="none" height="24" stroke="#405C86" stroke-width="2" width="96" x="570" y="18" />
<text class="small-label intrinsic-color" x="618" y="31">base[10]</text>
<rect fill="#ECF1E0" height="24" width="96" x="474" y="18" />
<rect fill="none" height="24" stroke="#405C86" stroke-width="2" width="96" x="474" y="18" />
<text class="small-label intrinsic-color" x="522" y="31">base[11]</text>
<rect fill="#DEE6F1" height="24" width="96" x="378" y="18" />
<rect fill="none" height="24" stroke="#405C86" stroke-width="2" width="96" x="378" y="18" />
<text class="small-label intrinsic-color" x="426" y="31">base[12]</text>
<rect fill="#EEDDDB" height="24" width="96" x="282" y="18" />
<rect fill="none" height="24" stroke="#405C86" stroke-width="2" width="96" x="282" y="18" />
<text class="small-label intrinsic-color" x="330" y="31">base[13]</text>
<rect fill="#ECF1E0" height="24" width="96" x="186" y="18" />
<rect fill="none" height="24" stroke="#405C86" stroke-width="2" width="96" x="186" y="18" />
<text class="small-label intrinsic-color" x="234" y="31">base[14]</text>
<rect fill="#DEE6F1" height="24" width="96" x="90" y="18" />
<rect fill="none" height="24" stroke="#405C86" stroke-width="2" width="96" x="90" y="18" />
<text class="small-label intrinsic-color" x="138" y="31">base[15]</text>
<text class="register-name" x="80" y="30">[mem]</text>
<text class="intrinsic-name" x="80" y="42">*base</text>
<text class="register-number" x="10" y="30">(1)</text>
<rect fill="#EEDDDB" height="24" width="96" x="1530" y="54" />
<rect fill="none" height="24" stroke="#405C86" stroke-width="2" width="96" x="1530" y="54" />
<text class="small-label intrinsic-color" x="1578" y="67">base[16]</text>
<rect fill="#ECF1E0" height="24" width="96" x="1434" y="54" />
<rect fill="none" height="24" stroke="#405C86" stroke-width="2" width="96" x="1434" y="54" />
<text class="small-label intrinsic-color" x="1482" y="67">base[17]</text>
<rect fill="#DEE6F1" height="24" width="96" x="1338" y="54" />
<rect fill="none" height="24" stroke="#405C86" stroke-width="2" width="96" x="1338" y="54" />
<text class="small-label intrinsic-color" x="1386" y="67">base[18]</text>
<rect fill="#EEDDDB" height="24" width="96" x="1242" y="54" />
<rect fill="none" height="24" stroke="#405C86" stroke-width="2" width="96" x="1242" y="54" />
<text class="small-label intrinsic-color" x="1290" y="67">base[19]</text>
<rect fill="#ECF1E0" height="24" width="96" x="1146" y="54" />
<rect fill="none" height="24" stroke="#405C86" stroke-width="2" width="96" x="1146" y="54" />
<text class="small-label intrinsic-color" x="1194" y="67">base[20]</text>
<rect fill="#DEE6F1" height="24" width="96" x="1050" y="54" />
<rect fill="none" height="24" stroke="#405C86" stroke-width="2" width="96" x="1050" y="54" />
<text class="small-label intrinsic-color" x="1098" y="67">base[21]</text>
<rect fill="#EEDDDB" height="24" width="96" x="954" y="54" />
<rect fill="none" height="24" stroke="#405C86" stroke-width="2" width="96" x="954" y="54" />
<text class="small-label intrinsic-color" x="1002" y="67">base[22]</text>
<rect fill="#ECF1E0" height="24" width="96" x="858" y="54" />
<rect fill="none" height="24" stroke="#405C86" stroke-width="2" width="96" x="858" y="54" />
<text class="small-label intrinsic-color" x="906" y="67">base[23]</text>
<rect fill="#DEE6F1" height="24" width="96" x="762" y="54" />
<rect fill="none" height="24" stroke="#405C86" stroke-width="2" width="96" x="762" y="54" />
<text class="small-label intrinsic-color" x="810" y="67">base[24]</text>
<rect fill="#EEDDDB" height="24" width="96" x="666" y="54" />
<rect fill="none" height="24" stroke="#405C86" stroke-width="2" width="96" x="666" y="54" />
<text class="small-label intrinsic-color" x="714" y="67">base[25]</text>
<rect fill="#ECF1E0" height="24" width="96" x="570" y="54" />
<rect fill="none" height="24" stroke="#405C86" stroke-width="2" width="96" x="570" y="54" />
<text class="small-label intrinsic-color" x="618" y="67">base[26]</text>
<rect fill="#DEE6F1" height="24" width="96" x="474" y="54" />
<rect fill="none" height="24" stroke="#405C86" stroke-width="2" width="96" x="474" y="54" />
<text class="small-label intrinsic-color" x="522" y="67">base[27]</text>
<rect fill="#EEDDDB" height="24" width="96" x="378" y="54" />
<rect fill="none" height="24" stroke="#405C86" stroke-width="2" width="96" x="378" y="54" />
<text class="small-label intrinsic-color" x="426" y="67">base[28]</text>
<rect fill="#ECF1E0" height="24" width="96" x="282" y="54" />
<rect fill="none" height="24" stroke="#405C86" stroke-width="2" width="96" x="282" y="54" />
<text class="small-label intrinsic-color" x="330" y="67">base[29]</text>
<rect fill="#DEE6F1" height="24" width="96" x="186" y="54" />
<rect fill="none" height="24" stroke="#405C86" stroke-width="2" width="96" x="186" y="54" />
<text class="small-label intrinsic-color" x="234" y="67">base[30]</text>
<rect fill="#EEDDDB" height="24" width="96" x="90" y="54" />
<rect fill="none" height="24" stroke="#405C86" stroke-width="2" width="96" x="90" y="54" />
<text class="small-label intrinsic-color" x="138" y="67">base[31]</text>
<rect fill="#ECF1E0" height="24" width="96" x="1530" y="90" />
<rect fill="none" height="24" stroke="#405C86" stroke-width="2" width="96" x="1530" y="90" />
<text class="small-label intrinsic-color" x="1578" y="103">base[32]</text>
<rect fill="#DEE6F1" height="24" width="96" x="1434" y="90" />
<rect fill="none" height="24" stroke="#405C86" stroke-width="2" width="96" x="1434" y="90" />
<text class="small-label intrinsic-color" x="1482" y="103">base[33]</text>
<rect fill="#EEDDDB" height="24" width="96" x="1338" y="90" />
<rect fill="none" height="24" stroke="#405C86" stroke-width="2" width="96" x="1338" y="90" />
<text class="small-label intrinsic-color" x="1386" y="103">base[34]</text>
<rect fill="#ECF1E0" height="24" width="96" x="1242" y="90" />
<rect fill="none" height="24" stroke="#405C86" stroke-width="2" width="96" x="1242" y="90" />
<text class="small-label intrinsic-color" x="1290" y="103">base[35]</text>
<rect fill="#DEE6F1" height="24" width="96" x="1146" y="90" />
<rect fill="none" height="24" stroke="#405C86" stroke-width="2" width="96" x="1146" y="90" />
<text class="small-label intrinsic-color" x="1194" y="103">base[36]</text>
<rect fill="#EEDDDB" height="24" width="96" x="1050" y="90" />
<rect fill="none" height="24" stroke="#405C86" stroke-width="2" width="96" x="1050" y="90" />
<text class="small-label intrinsic-color" x="1098" y="103">base[37]</text>
<rect fill="#ECF1E0" height="24" width="96" x="954" y="90" />
<rect fill="none" height="24" stroke="#405C86" stroke-width="2" width="96" x="954" y="90" />
<text class="small-label intrinsic-color" x="1002" y="103">base[38]</text>
<rect fill="#DEE6F1" height="24" width="96" x="858" y="90" />
<rect fill="none" height="24" stroke="#405C86" stroke-width="2" width="96" x="858" y="90" />
<text class="small-label intrinsic-color" x="906" y="103">base[39]</text>
<rect fill="#EEDDDB" height="24" width="96" x="762" y="90" />
<rect fill="none" height="24" stroke="#405C86" stroke-width="2" width="96" x="762" y="90" />
<text class="small-label intrinsic-color" x="810" y="103">base[40]</text>
<rect fill="#ECF1E0" height="24" width="96" x="666" y="90" />
<rect fill="none" height="24" stroke="#405C86" stroke-width="2" width="96" x="666" y="90" />
<text class="small-label intrinsic-color" x="714" y="103">base[41]</text>
<rect fill="#DEE6F1" height="24" width="96" x="570" y="90" />
<rect fill="none" height="24" stroke="#405C86" stroke-width="2" width="96" x="570" y="90" />
<text class="small-label intrinsic-color" x="618" y="103">base[42]</text>
<rect fill="#EEDDDB" height="24" width="96" x="474" y="90" />
<rect fill="none" height="24" stroke="#405C86" stroke-width="2" width="96" x="474" y="90" />
<text class="small-label intrinsic-color" x="522" y="103">base[43]</text>
<rect fill="#ECF1E0" height="24" width="96" x="378" y="90" />
<rect fill="none" height="24" stroke="#405C86" stroke-width="2" width="96" x="378" y="90" />
<text class="small-label intrinsic-color" x="426" y="103">base[44]</text>
<rect fill="#DEE6F1" height="24" width="96" x="282" y="90" />
<rect fill="none" height="24" stroke="#405C86" stroke-width="2" width="96" x="282" y="90" />
<text class="small-label intrinsic-color" x="330" y="103">base[45]</text>
<rect fill="#EEDDDB" height="24" width="96" x="186" y="90" />
<rect fill="none" height="24" stroke="#405C86" stroke-width="2" width="96" x="186" y="90" />
<text class="small-label intrinsic-color" x="234" y="103">base[46]</text>
<rect fill="#ECF1E0" height="24" width="96" x="90" y="90" />
<rect fill="none" height="24" stroke="#405C86" stroke-width="2" width="96" x="90" y="90" />
<text class="small-label intrinsic-color" x="138" y="103">base[47]</text>
<rect fill="#DEE6F1" height="24" width="96" x="1530" y="162" />
<rect fill="none" height="24" stroke="#405C86" stroke-width="2" width="96" x="1530" y="162" />
<text class="small-label intrinsic-color" x="1578" y="175">base[0]</text>
<rect fill="#DEE6F1" height="24" width="96" x="1434" y="162" />
<rect fill="none" height="24" stroke="#405C86" stroke-width="2" width="96" x="1434" y="162" />
<text class="small-label intrinsic-color" x="1482" y="175">base[3]</text>
<rect fill="#DEE6F1" height="24" width="96" x="1338" y="162" />
<rect fill="none" height="24" stroke="#405C86" stroke-width="2" width="96" x="1338" y="162" />
<text class="small-label intrinsic-color" x="1386" y="175">base[6]</text>
<rect fill="#DEE6F1" height="24" width="96" x="1242" y="162" />
<rect fill="none" height="24" stroke="#405C86" stroke-width="2" width="96" x="1242" y="162" />
<text class="small-label intrinsic-color" x="1290" y="175">base[9]</text>
<rect fill="#DEE6F1" height="24" width="96" x="1146" y="162" />
<rect fill="none" height="24" stroke="#405C86" stroke-width="2" width="96" x="1146" y="162" />
<text class="small-label intrinsic-color" x="1194" y="175">base[12]</text>
<rect fill="#DEE6F1" height="24" width="96" x="1050" y="162" />
<rect fill="none" height="24" stroke="#405C86" stroke-width="2" width="96" x="1050" y="162" />
<text class="small-label intrinsic-color" x="1098" y="175">base[15]</text>
<rect fill="#DEE6F1" height="24" width="96" x="954" y="162" />
<rect fill="none" height="24" stroke="#405C86" stroke-width="2" width="96" x="954" y="162" />
<text class="small-label intrinsic-color" x="1002" y="175">base[18]</text>
<rect fill="#DEE6F1" height="24" width="96" x="858" y="162" />
<rect fill="none" height="24" stroke="#405C86" stroke-width="2" width="96" x="858" y="162" />
<text class="small-label intrinsic-color" x="906" y="175">base[21]</text>
<rect fill="#DEE6F1" height="24" width="96" x="762" y="162" />
<rect fill="none" height="24" stroke="#405C86" stroke-width="2" width="96" x="762" y="162" />
<text class="small-label intrinsic-color" x="810" y="175">base[24]</text>
<rect fill="#DEE6F1" height="24" width="96" x="666" y="162" />
<rect fill="none" height="24" stroke="#405C86" stroke-width="2" width="96" x="666" y="162" />
<text class="small-label intrinsic-color" x="714" y="175">base[27]</text>
<rect fill="#DEE6F1" height="24" width="96" x="570" y="162" />
<rect fill="none" height="24" stroke="#405C86" stroke-width="2" width="96" x="570" y="162" />
<text class="small-label intrinsic-color" x="618" y="175">base[30]</text>
<rect fill="#DEE6F1" height="24" width="96" x="474" y="162" />
<rect fill="none" height="24" stroke="#405C86" stroke-width="2" width="96" x="474" y="162" />
<text class="small-label intrinsic-color" x="522" y="175">base[33]</text>
<rect fill="#DEE6F1" height="24" width="96" x="378" y="162" />
<rect fill="none" height="24" stroke="#405C86" stroke-width="2" width="96" x="378" y="162" />
<text class="small-label intrinsic-color" x="426" y="175">base[36]</text>
<rect fill="#DEE6F1" height="24" width="96" x="282" y="162" />
<rect fill="none" height="24" stroke="#405C86" stroke-width="2" width="96" x="282" y="162" />
<text class="small-label intrinsic-color" x="330" y="175">base[39]</text>
<rect fill="#DEE6F1" height="24" width="96" x="186" y="162" />
<rect fill="none" height="24" stroke="#405C86" stroke-width="2" width="96" x="186" y="162" />
<text class="small-label intrinsic-color" x="234" y="175">base[42]</text>
<rect fill="#DEE6F1" height="24" width="96" x="90" y="162" />
<rect fill="none" height="24" stroke="#405C86" stroke-width="2" width="96" x="90" y="162" />
<text class="small-label intrinsic-color" x="138" y="175">base[45]</text>
<text class="register-name" x="80" y="174">Zt1</text>
<text class="intrinsic-name" x="80" y="186">ret[0]</text>
<text class="register-number" x="10" y="174">(2)</text>
<rect fill="#EEDDDB" height="24" width="96" x="1530" y="210" />
<rect fill="none" height="24" stroke="#405C86" stroke-width="2" width="96" x="1530" y="210" />
<text class="small-label intrinsic-color" x="1578" y="223">base[1]</text>
<rect fill="#EEDDDB" height="24" width="96" x="1434" y="210" />
<rect fill="none" height="24" stroke="#405C86" stroke-width="2" width="96" x="1434" y="210" />
<text class="small-label intrinsic-color" x="1482" y="223">base[4]</text>
<rect fill="#EEDDDB" height="24" width="96" x="1338" y="210" />
<rect fill="none" height="24" stroke="#405C86" stroke-width="2" width="96" x="1338" y="210" />
<text class="small-label intrinsic-color" x="1386" y="223">base[7]</text>
<rect fill="#EEDDDB" height="24" width="96" x="1242" y="210" />
<rect fill="none" height="24" stroke="#405C86" stroke-width="2" width="96" x="1242" y="210" />
<text class="small-label intrinsic-color" x="1290" y="223">base[10]</text>
<rect fill="#EEDDDB" height="24" width="96" x="1146" y="210" />
<rect fill="none" height="24" stroke="#405C86" stroke-width="2" width="96" x="1146" y="210" />
<text class="small-label intrinsic-color" x="1194" y="223">base[13]</text>
<rect fill="#EEDDDB" height="24" width="96" x="1050" y="210" />
<rect fill="none" height="24" stroke="#405C86" stroke-width="2" width="96" x="1050" y="210" />
<text class="small-label intrinsic-color" x="1098" y="223">base[16]</text>
<rect fill="#EEDDDB" height="24" width="96" x="954" y="210" />
<rect fill="none" height="24" stroke="#405C86" stroke-width="2" width="96" x="954" y="210" />
<text class="small-label intrinsic-color" x="1002" y="223">base[19]</text>
<rect fill="#EEDDDB" height="24" width="96" x="858" y="210" />
<rect fill="none" height="24" stroke="#405C86" stroke-width="2" width="96" x="858" y="210" />
<text class="small-label intrinsic-color" x="906" y="223">base[22]</text>
<rect fill="#EEDDDB" height="24" width="96" x="762" y="210" />
<rect fill="none" height="24" stroke="#405C86" stroke-width="2" width="96" x="762" y="210" />
<text class="small-label intrinsic-color" x="810" y="223">base[25]</text>
<rect fill="#EEDDDB" height="24" width="96" x="666" y="210" />
<rect fill="none" height="24" stroke="#405C86" stroke-width="2" width="96" x="666" y="210" />
<text class="small-label intrinsic-color" x="714" y="223">base[28]</text>
<rect fill="#EEDDDB" height="24" width="96" x="570" y="210" />
<rect fill="none" height="24" stroke="#405C86" stroke-width="2" width="96" x="570" y="210" />
<text class="small-label intrinsic-color" x="618" y="223">base[31]</text>
<rect fill="#EEDDDB" height="24" width="96" x="474" y="210" />
<rect fill="none" height="24" stroke="#405C86" stroke-width="2" width="96" x="474" y="210" />
<text class="small-label intrinsic-color" x="522" y="223">base[34]</text>
<rect fill="#EEDDDB" height="24" width="96" x="378" y="210" />
<rect fill="none" height="24" stroke="#405C86" stroke-width="2" width="96" x="378" y="210" />
<text class="small-label intrinsic-color" x="426" y="223">base[37]</text>
<rect fill="#EEDDDB" height="24" width="96" x="282" y="210" />
<rect fill="none" height="24" stroke="#405C86" stroke-width="2" width="96" x="282" y="210" />
<text class="small-label intrinsic-color" x="330" y="223">base[40]</text>
<rect fill="#EEDDDB" height="24" width="96" x="186" y="210" />
<rect fill="none" height="24" stroke="#405C86" stroke-width="2" width="96" x="186" y="210" />
<text class="small-label intrinsic-color" x="234" y="223">base[43]</text>
<rect fill="#EEDDDB" height="24" width="96" x="90" y="210" />
<rect fill="none" height="24" stroke="#405C86" stroke-width="2" width="96" x="90" y="210" />
<text class="small-label intrinsic-color" x="138" y="223">base[46]</text>
<text class="register-name" x="80" y="222">Zt2</text>
<text class="intrinsic-name" x="80" y="234">ret[1]</text>
<text class="register-number" x="10" y="222">(3)</text>
<rect fill="#ECF1E0" height="24" width="96" x="1530" y="258" />
<rect fill="none" height="24" stroke="#405C86" stroke-width="2" width="96" x="1530" y="258" />
<text class="small-label intrinsic-color" x="1578" y="271">base[2]</text>
<rect fill="#ECF1E0" height="24" width="96" x="1434" y="258" />
<rect fill="none" height="24" stroke="#405C86" stroke-width="2" width="96" x="1434" y="258" />
<text class="small-label intrinsic-color" x="1482" y="271">base[5]</text>
<rect fill="#ECF1E0" height="24" width="96" x="1338" y="258" />
<rect fill="none" height="24" stroke="#405C86" stroke-width="2" width="96" x="1338" y="258" />
<text class="small-label intrinsic-color" x="1386" y="271">base[8]</text>
<rect fill="#ECF1E0" height="24" width="96" x="1242" y="258" />
<rect fill="none" height="24" stroke="#405C86" stroke-width="2" width="96" x="1242" y="258" />
<text class="small-label intrinsic-color" x="1290" y="271">base[11]</text>
<rect fill="#ECF1E0" height="24" width="96" x="1146" y="258" />
<rect fill="none" height="24" stroke="#405C86" stroke-width="2" width="96" x="1146" y="258" />
<text class="small-label intrinsic-color" x="1194" y="271">base[14]</text>
<rect fill="#ECF1E0" height="24" width="96" x="1050" y="258" />
<rect fill="none" height="24" stroke="#405C86" stroke-width="2" width="96" x="1050" y="258" />
<text class="small-label intrinsic-color" x="1098" y="271">base[17]</text>
<rect fill="#ECF1E0" height="24" width="96" x="954" y="258" />
<rect fill="none" height="24" stroke="#405C86" stroke-width="2" width="96" x="954" y="258" />
<text class="small-label intrinsic-color" x="1002" y="271">base[20]</text>
<rect fill="#ECF1E0" height="24" width="96" x="858" y="258" />
<rect fill="none" height="24" stroke="#405C86" stroke-width="2" width="96" x="858" y="258" />
<text class="small-label intrinsic-color" x="906" y="271">base[23]</text>
<rect fill="#ECF1E0" height="24" width="96" x="762" y="258" />
<rect fill="none" height="24" stroke="#405C86" stroke-width="2" width="96" x="762" y="258" />
<text class="small-label intrinsic-color" x="810" y="271">base[26]</text>
<rect fill="#ECF1E0" height="24" width="96" x="666" y="258" />
<rect fill="none" height="24" stroke="#405C86" stroke-width="2" width="96" x="666" y="258" />
<text class="small-label intrinsic-color" x="714" y="271">base[29]</text>
<rect fill="#ECF1E0" height="24" width="96" x="570" y="258" />
<rect fill="none" height="24" stroke="#405C86" stroke-width="2" width="96" x="570" y="258" />
<text class="small-label intrinsic-color" x="618" y="271">base[32]</text>
<rect fill="#ECF1E0" height="24" width="96" x="474" y="258" />
<rect fill="none" height="24" stroke="#405C86" stroke-width="2" width="96" x="474" y="258" />
<text class="small-label intrinsic-color" x="522" y="271">base[35]</text>
<rect fill="#ECF1E0" height="24" width="96" x="378" y="258" />
<rect fill="none" height="24" stroke="#405C86" stroke-width="2" width="96" x="378" y="258" />
<text class="small-label intrinsic-color" x="426" y="271">base[38]</text>
<rect fill="#ECF1E0" height="24" width="96" x="282" y="258" />
<rect fill="none" height="24" stroke="#405C86" stroke-width="2" width="96" x="282" y="258" />
<text class="small-label intrinsic-color" x="330" y="271">base[41]</text>
<rect fill="#ECF1E0" height="24" width="96" x="186" y="258" />
<rect fill="none" height="24" stroke="#405C86" stroke-width="2" width="96" x="186" y="258" />
<text class="small-label intrinsic-color" x="234" y="271">base[44]</text>
<rect fill="#ECF1E0" height="24" width="96" x="90" y="258" />
<rect fill="none" height="24" stroke="#405C86" stroke-width="2" width="96" x="90" y="258" />
<text class="small-label intrinsic-color" x="138" y="271">base[47]</text>
<text class="register-name" x="80" y="270">Zt3</text>
<text class="intrinsic-name" x="80" y="282">ret[2]</text>
<text class="register-number" x="10" y="270">(4)</text>
<line stroke="#567DB6" stroke-width="1" x1="1578" x2="1578" y1="42.5" y2="161" />
<line stroke="#567DB6" stroke-width="1" x1="1482" x2="1578" y1="42.5" y2="209" />
<line stroke="#567DB6" stroke-width="1" x1="1386" x2="1578" y1="42.5" y2="257" />
<line stroke="#567DB6" stroke-dasharray="3 1" stroke-width="1" x1="1290" x2="1482" y1="42.5" y2="161" />
<line stroke="#567DB6" stroke-dasharray="3 1" stroke-width="1" x1="1194" x2="1482" y1="42.5" y2="209" />
<line stroke="#567DB6" stroke-dasharray="3 1" stroke-width="1" x1="1098" x2="1482" y1="42.5" y2="257" />
<line stroke="#567DB6" stroke-width="1" x1="330" x2="138" y1="114.5" y2="161" />
<line stroke="#567DB6" stroke-width="1" x1="234" x2="138" y1="114.5" y2="209" />
<line stroke="#567DB6" stroke-width="1" x1="133" x2="133" y1="114.5" y2="257" />
<line marker-end="url(#arrowhead)" stroke="none" x1="1578" x2="1578" y1="42.5" y2="161" />
<line marker-end="url(#arrowhead)" stroke="none" x1="1482" x2="1578" y1="42.5" y2="209" />
<line marker-end="url(#arrowhead)" stroke="none" x1="1386" x2="1578" y1="42.5" y2="257" />
<line marker-end="url(#arrowhead)" stroke="none" stroke-dasharray="3 1" x1="1290" x2="1482" y1="42.5" y2="161" />
<line marker-end="url(#arrowhead)" stroke="none" stroke-dasharray="3 1" x1="1194" x2="1482" y1="42.5" y2="209" />
<line marker-end="url(#arrowhead)" stroke="none" stroke-dasharray="3 1" x1="1098" x2="1482" y1="42.5" y2="257" />
<line marker-end="url(#arrowhead)" stroke="none" x1="330" x2="138" y1="114.5" y2="161" />
<line marker-end="url(#arrowhead)" stroke="none" x1="234" x2="138" y1="114.5" y2="209" />
<line marker-end="url(#arrowhead)" stroke="none" x1="133" x2="133" y1="114.5" y2="257" />
</svg>