<svg xmlns="http://www.w3.org/2000/svg" viewBox="0 0 1638 375">
<style>
.label { font: 14px Helvetica; dominant-baseline: middle; text-anchor: middle; }
.title-left { font: 12px Helvetica; dominant-baseline: middle; }
.title-right { font: 12px Helvetica; dominant-baseline: middle; text-anchor: end; }
.title-intrinsic { font: 12px Helvetica; dominant-baseline: middle; text-anchor: middle; fill: #6778ED; }
.title { font: 12px Helvetica; dominant-baseline: middle; text-anchor: middle; }
.title-unused { font: 12px Helvetica; dominant-baseline: middle; text-anchor: middle; fill: #AAA; }
.register-name { font: 14px Helvetica; dominant-baseline: middle; text-anchor: end; font-style: italic; }
.memory-name { font: 14px Helvetica; dominant-baseline: middle; text-anchor: end; }
.register-number { font: 14px Helvetica; dominant-baseline: middle; text-anchor: start; }
.intrinsic-name { font: 14px Helvetica; dominant-baseline: middle; text-anchor: end; fill: #6778ED; }
.intrinsic-color { fill: #6778ED; }
.small-label { font: 12px Helvetica; dominant-baseline: middle; text-anchor: middle; }
.label-10px { font: 10px Helvetica; dominant-baseline: middle; text-anchor: middle; }
.smaller-label { font: 9px Helvetica; dominant-baseline: middle; text-anchor: middle; }
.label-6px { font: 6px Helvetica; dominant-baseline: middle; text-anchor: middle; }
.label-7px { font: 7px Helvetica; dominant-baseline: middle; text-anchor: middle; }
.unused { fill: #AAA; }
.dim { fill: #888; }
</style>
<defs>
<marker id="arrowhead" markerWidth="10.75" markerHeight="24.5" refX="9.0" refY="6.125" orient="auto">
<polyline points="0.5 0.5, 8.75 6.125, 0.5 11.75" stroke="#567DB6" stroke-width="1" fill="none"/>
</marker>
</defs>
<text class="title-left" x="90" y="9">upper</text>
<text class="title-right" x="1626" y="9">lower</text>
<rect fill="#DEE6F1" height="24" width="96" x="1530" y="18" />
<rect fill="none" height="24" stroke="#405C86" stroke-width="2" width="96" x="1530" y="18" />
<text class="small-label intrinsic-color" x="1578" y="31">base[0]</text>
<rect fill="#EEDDDB" height="24" width="96" x="1434" y="18" />
<rect fill="none" height="24" stroke="#405C86" stroke-width="2" width="96" x="1434" y="18" />
<text class="small-label intrinsic-color" x="1482" y="31">base[1]</text>
<rect fill="#ECF1E0" height="24" width="96" x="1338" y="18" />
<rect fill="none" height="24" stroke="#405C86" stroke-width="2" width="96" x="1338" y="18" />
<text class="small-label intrinsic-color" x="1386" y="31">base[2]</text>
<rect fill="#E5E0EB" height="24" width="96" x="1242" y="18" />
<rect fill="none" height="24" stroke="#405C86" stroke-width="2" width="96" x="1242" y="18" />
<text class="small-label intrinsic-color" x="1290" y="31">base[3]</text>
<rect fill="#DEE6F1" height="24" width="96" x="1146" y="18" />
<rect fill="none" height="24" stroke="#405C86" stroke-width="2" width="96" x="1146" y="18" />
<text class="small-label intrinsic-color" x="1194" y="31">base[4]</text>
<rect fill="#EEDDDB" height="24" width="96" x="1050" y="18" />
<rect fill="none" height="24" stroke="#405C86" stroke-width="2" width="96" x="1050" y="18" />
<text class="small-label intrinsic-color" x="1098" y="31">base[5]</text>
<rect fill="#ECF1E0" height="24" width="96" x="954" y="18" />
<rect fill="none" height="24" stroke="#405C86" stroke-width="2" width="96" x="954" y="18" />
<text class="small-label intrinsic-color" x="1002" y="31">base[6]</text>
<rect fill="#E5E0EB" height="24" width="96" x="858" y="18" />
<rect fill="none" height="24" stroke="#405C86" stroke-width="2" width="96" x="858" y="18" />
<text class="small-label intrinsic-color" x="906" y="31">base[7]</text>
<rect fill="#DEE6F1" height="24" width="96" x="762" y="18" />
<rect fill="none" height="24" stroke="#405C86" stroke-width="2" width="96" x="762" y="18" />
<text class="small-label intrinsic-color" x="810" y="31">base[8]</text>
<rect fill="#EEDDDB" height="24" width="96" x="666" y="18" />
<rect fill="none" height="24" stroke="#405C86" stroke-width="2" width="96" x="666" y="18" />
<text class="small-label intrinsic-color" x="714" y="31">base[9]</text>
<rect fill="#ECF1E0" height="24" width="96" x="570" y="18" />
<rect fill="none" height="24" stroke="#405C86" stroke-width="2" width="96" x="570" y="18" />
<text class="small-label intrinsic-color" x="618" y="31">base[10]</text>
<rect fill="#E5E0EB" height="24" width="96" x="474" y="18" />
<rect fill="none" height="24" stroke="#405C86" stroke-width="2" width="96" x="474" y="18" />
<text class="small-label intrinsic-color" x="522" y="31">base[11]</text>
<rect fill="#DEE6F1" height="24" width="96" x="378" y="18" />
<rect fill="none" height="24" stroke="#405C86" stroke-width="2" width="96" x="378" y="18" />
<text class="small-label intrinsic-color" x="426" y="31">base[12]</text>
<rect fill="#EEDDDB" height="24" width="96" x="282" y="18" />
<rect fill="none" height="24" stroke="#405C86" stroke-width="2" width="96" x="282" y="18" />
<text class="small-label intrinsic-color" x="330" y="31">base[13]</text>
<rect fill="#ECF1E0" height="24" width="96" x="186" y="18" />
<rect fill="none" height="24" stroke="#405C86" stroke-width="2" width="96" x="186" y="18" />
<text class="small-label intrinsic-color" x="234" y="31">base[14]</text>
<rect fill="#E5E0EB" height="24" width="96" x="90" y="18" />
<rect fill="none" height="24" stroke="#405C86" stroke-width="2" width="96" x="90" y="18" />
<text class="small-label intrinsic-color" x="138" y="31">base[15]</text>
<text class="register-name" x="80" y="30">[mem]</text>
<text class="intrinsic-name" x="80" y="42">*base</text>
<text class="register-number" x="10" y="30">(1)</text>
<rect fill="#DEE6F1" height="24" width="96" x="1530" y="54" />
<rect fill="none" height="24" stroke="#405C86" stroke-width="2" width="96" x="1530" y="54" />
<text class="small-label intrinsic-color" x="1578" y="67">base[16]</text>
<rect fill="#EEDDDB" height="24" width="96" x="1434" y="54" />
<rect fill="none" height="24" stroke="#405C86" stroke-width="2" width="96" x="1434" y="54" />
<text class="small-label intrinsic-color" x="1482" y="67">base[17]</text>
<rect fill="#ECF1E0" height="24" width="96" x="1338" y="54" />
<rect fill="none" height="24" stroke="#405C86" stroke-width="2" width="96" x="1338" y="54" />
<text class="small-label intrinsic-color" x="1386" y="67">base[18]</text>
<rect fill="#E5E0EB" height="24" width="96" x="1242" y="54" />
<rect fill="none" height="24" stroke="#405C86" stroke-width="2" width="96" x="1242" y="54" />
<text class="small-label intrinsic-color" x="1290" y="67">base[19]</text>
<rect fill="#DEE6F1" height="24" width="96" x="1146" y="54" />
<rect fill="none" height="24" stroke="#405C86" stroke-width="2" width="96" x="1146" y="54" />
<text class="small-label intrinsic-color" x="1194" y="67">base[20]</text>
<rect fill="#EEDDDB" height="24" width="96" x="1050" y="54" />
<rect fill="none" height="24" stroke="#405C86" stroke-width="2" width="96" x="1050" y="54" />
<text class="small-label intrinsic-color" x="1098" y="67">base[21]</text>
<rect fill="#ECF1E0" height="24" width="96" x="954" y="54" />
<rect fill="none" height="24" stroke="#405C86" stroke-width="2" width="96" x="954" y="54" />
<text class="small-label intrinsic-color" x="1002" y="67">base[22]</text>
<rect fill="#E5E0EB" height="24" width="96" x="858" y="54" />
<rect fill="none" height="24" stroke="#405C86" stroke-width="2" width="96" x="858" y="54" />
<text class="small-label intrinsic-color" x="906" y="67">base[23]</text>
<rect fill="#DEE6F1" height="24" width="96" x="762" y="54" />
<rect fill="none" height="24" stroke="#405C86" stroke-width="2" width="96" x="762" y="54" />
<text class="small-label intrinsic-color" x="810" y="67">base[24]</text>
<rect fill="#EEDDDB" height="24" width="96" x="666" y="54" />
<rect fill="none" height="24" stroke="#405C86" stroke-width="2" width="96" x="666" y="54" />
<text class="small-label intrinsic-color" x="714" y="67">base[25]</text>
<rect fill="#ECF1E0" height="24" width="96" x="570" y="54" />
<rect fill="none" height="24" stroke="#405C86" stroke-width="2" width="96" x="570" y="54" />
<text class="small-label intrinsic-color" x="618" y="67">base[26]</text>
<rect fill="#E5E0EB" height="24" width="96" x="474" y="54" />
<rect fill="none" height="24" stroke="#405C86" stroke-width="2" width="96" x="474" y="54" />
<text class="small-label intrinsic-color" x="522" y="67">base[27]</text>
<rect fill="#DEE6F1" height="24" width="96" x="378" y="54" />
<rect fill="none" height="24" stroke="#405C86" stroke-width="2" width="96" x="378" y="54" />
<text class="small-label intrinsic-color" x="426" y="67">base[28]</text>
<rect fill="#EEDDDB" height="24" width="96" x="282" y="54" />
<rect fill="none" height="24" stroke="#405C86" stroke-width="2" width="96" x="282" y="54" />
<text class="small-label intrinsic-color" x="330" y="67">base[29]</text>
<rect fill="#ECF1E0" height="24" width="96" x="186" y="54" />
<rect fill="none" height="24" stroke="#405C86" stroke-width="2" width="96" x="186" y="54" />
<text class="small-label intrinsic-color" x="234" y="67">base[30]</text>
<rect fill="#E5E0EB" height="24" width="96" x="90" y="54" />
<rect fill="none" height="24" stroke="#405C86" stroke-width="2" width="96" x="90" y="54" />
<text class="small-label intrinsic-color" x="138" y="67">base[31]</text>
<rect fill="#DEE6F1" height="24" width="96" x="1530" y="90" />
<rect fill="none" height="24" stroke="#405C86" stroke-width="2" width="96" x="1530" y="90" />
<text class="small-label intrinsic-color" x="1578" y="103">base[32]</text>
<rect fill="#EEDDDB" height="24" width="96" x="1434" y="90" />
<rect fill="none" height="24" stroke="#405C86" stroke-width="2" width="96" x="1434" y="90" />
<text class="small-label intrinsic-color" x="1482" y="103">base[33]</text>
<rect fill="#ECF1E0" height="24" width="96" x="1338" y="90" />
<rect fill="none" height="24" stroke="#405C86" stroke-width="2" width="96" x="1338" y="90" />
<text class="small-label intrinsic-color" x="1386" y="103">base[34]</text>
<rect fill="#E5E0EB" height="24" width="96" x="1242" y="90" />
<rect fill="none" height="24" stroke="#405C86" stroke-width="2" width="96" x="1242" y="90" />
<text class="small-label intrinsic-color" x="1290" y="103">base[35]</text>
<rect fill="#DEE6F1" height="24" width="96" x="1146" y="90" />
<rect fill="none" height="24" stroke="#405C86" stroke-width="2" width="96" x="1146" y="90" />
<text class="small-label intrinsic-color" x="1194" y="103">base[36]</text>
<rect fill="#EEDDDB" height="24" width="96" x="1050" y="90" />
<rect fill="none" height="24" stroke="#405C86" stroke-width="2" width="96" x="1050" y="90" />
<text class="small-label intrinsic-color" x="1098" y="103">base[37]</text>
<rect fill="#ECF1E0" height="24" width="96" x="954" y="90" />
<rect fill="none" height="24" stroke="#405C86" stroke-width="2" width="96" x="954" y="90" />
<text class="small-label intrinsic-color" x="1002" y="103">base[38]</text>
<rect fill="#E5E0EB" height="24" width="96" x="858" y="90" />
<rect fill="none" height="24" stroke="#405C86" stroke-width="2" width="96" x="858" y="90" />
<text class="small-label intrinsic-color" x="906" y="103">base[39]</text>
<rect fill="#DEE6F1" height="24" width="96" x="762" y="90" />
<rect fill="none" height="24" stroke="#405C86" stroke-width="2" width="96" x="762" y="90" />
<text class="small-label intrinsic-color" x="810" y="103">base[40]</text>
<rect fill="#EEDDDB" height="24" width="96" x="666" y="90" />
<rect fill="none" height="24" stroke="#405C86" stroke-width="2" width="96" x="666" y="90" />
<text class="small-label intrinsic-color" x="714" y="103">base[41]</text>
<rect fill="#ECF1E0" height="24" width="96" x="570" y="90" />
<rect fill="none" height="24" stroke="#405C86" stroke-width="2" width="96" x="570" y="90" />
<text class="small-label intrinsic-color" x="618" y="103">base[42]</text>
<rect fill="#E5E0EB" height="24" width="96" x="474" y="90" />
<rect fill="none" height="24" stroke="#405C86" stroke-width="2" width="96" x="474" y="90" />
<text class="small-label intrinsic-color" x="522" y="103">base[43]</text>
<rect fill="#DEE6F1" height="24" width="96" x="378" y="90" />
<rect fill="none" height="24" stroke="#405C86" stroke-width="2" width="96" x="378" y="90" />
<text class="small-label intrinsic-color" x="426" y="103">base[44]</text>
<rect fill="#EEDDDB" height="24" width="96" x="282" y="90" />
<rect fill="none" height="24" stroke="#405C86" stroke-width="2" width="96" x="282" y="90" />
<text class="small-label intrinsic-color" x="330" y="103">base[45]</text>
<rect fill="#ECF1E0" height="24" width="96" x="186" y="90" />
<rect fill="none" height="24" stroke="#405C86" stroke-width="2" width="96" x="186" y="90" />
<text class="small-label intrinsic-color" x="234" y="103">base[46]</text>
<rect fill="#E5E0EB" height="24" width="96" x="90" y="90" />
<rect fill="none" height="24" stroke="#405C86" stroke-width="2" width="96" x="90" y="90" />
<text class="small-label intrinsic-color" x="138" y="103">base[47]</text>
<rect fill="#DEE6F1" height="24" width="96" x="1530" y="126" />
<rect fill="none" height="24" stroke="#405C86" stroke-width="2" width="96" x="1530" y="126" />
<text class="small-label intrinsic-color" x="1578" y="139">base[48]</text>
<rect fill="#EEDDDB" height="24" width="96" x="1434" y="126" />
<rect fill="none" height="24" stroke="#405C86" stroke-width="2" width="96" x="1434" y="126" />
<text class="small-label intrinsic-color" x="1482" y="139">base[49]</text>
<rect fill="#ECF1E0" height="24" width="96" x="1338" y="126" />
<rect fill="none" height="24" stroke="#405C86" stroke-width="2" width="96" x="1338" y="126" />
<text class="small-label intrinsic-color" x="1386" y="139">base[50]</text>
<rect fill="#E5E0EB" height="24" width="96" x="1242" y="126" />
<rect fill="none" height="24" stroke="#405C86" stroke-width="2" width="96" x="1242" y="126" />
<text class="small-label intrinsic-color" x="1290" y="139">base[51]</text>
<rect fill="#DEE6F1" height="24" width="96" x="1146" y="126" />
<rect fill="none" height="24" stroke="#405C86" stroke-width="2" width="96" x="1146" y="126" />
<text class="small-label intrinsic-color" x="1194" y="139">base[52]</text>
<rect fill="#EEDDDB" height="24" width="96" x="1050" y="126" />
<rect fill="none" height="24" stroke="#405C86" stroke-width="2" width="96" x="1050" y="126" />
<text class="small-label intrinsic-color" x="1098" y="139">base[53]</text>
<rect fill="#ECF1E0" height="24" width="96" x="954" y="126" />
<rect fill="none" height="24" stroke="#405C86" stroke-width="2" width="96" x="954" y="126" />
<text class="small-label intrinsic-color" x="1002" y="139">base[54]</text>
<rect fill="#E5E0EB" height="24" width="96" x="858" y="126" />
<rect fill="none" height="24" stroke="#405C86" stroke-width="2" width="96" x="858" y="126" />
<text class="small-label intrinsic-color" x="906" y="139">base[55]</text>
<rect fill="#DEE6F1" height="24" width="96" x="762" y="126" />
<rect fill="none" height="24" stroke="#405C86" stroke-width="2" width="96" x="762" y="126" />
<text class="small-label intrinsic-color" x="810" y="139">base[56]</text>
<rect fill="#EEDDDB" height="24" width="96" x="666" y="126" />
<rect fill="none" height="24" stroke="#405C86" stroke-width="2" width="96" x="666" y="126" />
<text class="small-label intrinsic-color" x="714" y="139">base[57]</text>
<rect fill="#ECF1E0" height="24" width="96" x="570" y="126" />
<rect fill="none" height="24" stroke="#405C86" stroke-width="2" width="96" x="570" y="126" />
<text class="small-label intrinsic-color" x="618" y="139">base[58]</text>
<rect fill="#E5E0EB" height="24" width="96" x="474" y="126" />
<rect fill="none" height="24" stroke="#405C86" stroke-width="2" width="96" x="474" y="126" />
<text class="small-label intrinsic-color" x="522" y="139">base[59]</text>
<rect fill="#DEE6F1" height="24" width="96" x="378" y="126" />
<rect fill="none" height="24" stroke="#405C86" stroke-width="2" width="96" x="378" y="126" />
<text class="small-label intrinsic-color" x="426" y="139">base[60]</text>
<rect fill="#EEDDDB" height="24" width="96" x="282" y="126" />
<rect fill="none" height="24" stroke="#405C86" stroke-width="2" width="96" x="282" y="126" />
<text class="small-label intrinsic-color" x="330" y="139">base[61]</text>
<rect fill="#ECF1E0" height="24" width="96" x="186" y="126" />
<rect fill="none" height="24" stroke="#405C86" stroke-width="2" width="96" x="186" y="126" />
<text class="small-label intrinsic-color" x="234" y="139">base[62]</text>
<rect fill="#E5E0EB" height="24" width="96" x="90" y="126" />
<rect fill="none" height="24" stroke="#405C86" stroke-width="2" width="96" x="90" y="126" />
<text class="small-label intrinsic-color" x="138" y="139">base[63]</text>
<rect fill="#DEE6F1" height="24" width="96" x="1530" y="198" />
<rect fill="none" height="24" stroke="#405C86" stroke-width="2" width="96" x="1530" y="198" />
<text class="small-label intrinsic-color" x="1578" y="211">base[0]</text>
<rect fill="#DEE6F1" height="24" width="96" x="1434" y="198" />
<rect fill="none" height="24" stroke="#405C86" stroke-width="2" width="96" x="1434" y="198" />
<text class="small-label intrinsic-color" x="1482" y="211">base[4]</text>
<rect fill="#DEE6F1" height="24" width="96" x="1338" y="198" />
<rect fill="none" height="24" stroke="#405C86" stroke-width="2" width="96" x="1338" y="198" />
<text class="small-label intrinsic-color" x="1386" y="211">base[8]</text>
<rect fill="#DEE6F1" height="24" width="96" x="1242" y="198" />
<rect fill="none" height="24" stroke="#405C86" stroke-width="2" width="96" x="1242" y="198" />
<text class="small-label intrinsic-color" x="1290" y="211">base[12]</text>
<rect fill="#DEE6F1" height="24" width="96" x="1146" y="198" />
<rect fill="none" height="24" stroke="#405C86" stroke-width="2" width="96" x="1146" y="198" />
<text class="small-label intrinsic-color" x="1194" y="211">base[16]</text>
<rect fill="#DEE6F1" height="24" width="96" x="1050" y="198" />
<rect fill="none" height="24" stroke="#405C86" stroke-width="2" width="96" x="1050" y="198" />
<text class="small-label intrinsic-color" x="1098" y="211">base[20]</text>
<rect fill="#DEE6F1" height="24" width="96" x="954" y="198" />
<rect fill="none" height="24" stroke="#405C86" stroke-width="2" width="96" x="954" y="198" />
<text class="small-label intrinsic-color" x="1002" y="211">base[24]</text>
<rect fill="#DEE6F1" height="24" width="96" x="858" y="198" />
<rect fill="none" height="24" stroke="#405C86" stroke-width="2" width="96" x="858" y="198" />
<text class="small-label intrinsic-color" x="906" y="211">base[28]</text>
<rect fill="#DEE6F1" height="24" width="96" x="762" y="198" />
<rect fill="none" height="24" stroke="#405C86" stroke-width="2" width="96" x="762" y="198" />
<text class="small-label intrinsic-color" x="810" y="211">base[32]</text>
<rect fill="#DEE6F1" height="24" width="96" x="666" y="198" />
<rect fill="none" height="24" stroke="#405C86" stroke-width="2" width="96" x="666" y="198" />
<text class="small-label intrinsic-color" x="714" y="211">base[36]</text>
<rect fill="#DEE6F1" height="24" width="96" x="570" y="198" />
<rect fill="none" height="24" stroke="#405C86" stroke-width="2" width="96" x="570" y="198" />
<text class="small-label intrinsic-color" x="618" y="211">base[40]</text>
<rect fill="#DEE6F1" height="24" width="96" x="474" y="198" />
<rect fill="none" height="24" stroke="#405C86" stroke-width="2" width="96" x="474" y="198" />
<text class="small-label intrinsic-color" x="522" y="211">base[44]</text>
<rect fill="#DEE6F1" height="24" width="96" x="378" y="198" />
<rect fill="none" height="24" stroke="#405C86" stroke-width="2" width="96" x="378" y="198" />
<text class="small-label intrinsic-color" x="426" y="211">base[48]</text>
<rect fill="#DEE6F1" height="24" width="96" x="282" y="198" />
<rect fill="none" height="24" stroke="#405C86" stroke-width="2" width="96" x="282" y="198" />
<text class="small-label intrinsic-color" x="330" y="211">base[52]</text>
<rect fill="#DEE6F1" height="24" width="96" x="186" y="198" />
<rect fill="none" height="24" stroke="#405C86" stroke-width="2" width="96" x="186" y="198" />
<text class="small-label intrinsic-color" x="234" y="211">base[56]</text>
<rect fill="#DEE6F1" height="24" width="96" x="90" y="198" />
<rect fill="none" height="24" stroke="#405C86" stroke-width="2" width="96" x="90" y="198" />
<text class="small-label intrinsic-color" x="138" y="211">base[60]</text>
<text class="register-name" x="80" y="210">Zt1</text>
<text class="intrinsic-name" x="80" y="222">ret[0]</text>
<text class="register-number" x="10" y="210">(2)</text>
<rect fill="#EEDDDB" height="24" width="96" x="1530" y="246" />
<rect fill="none" height="24" stroke="#405C86" stroke-width="2" width="96" x="1530" y="246" />
<text class="small-label intrinsic-color" x="1578" y="259">base[1]</text>
<rect fill="#EEDDDB" height="24" width="96" x="1434" y="246" />
<rect fill="none" height="24" stroke="#405C86" stroke-width="2" width="96" x="1434" y="246" />
<text class="small-label intrinsic-color" x="1482" y="259">base[5]</text>
<rect fill="#EEDDDB" height="24" width="96" x="1338" y="246" />
<rect fill="none" height="24" stroke="#405C86" stroke-width="2" width="96" x="1338" y="246" />
<text class="small-label intrinsic-color" x="1386" y="259">base[9]</text>
<rect fill="#EEDDDB" height="24" width="96" x="1242" y="246" />
<rect fill="none" height="24" stroke="#405C86" stroke-width="2" width="96" x="1242" y="246" />
<text class="small-label intrinsic-color" x="1290" y="259">base[13]</text>
<rect fill="#EEDDDB" height="24" width="96" x="1146" y="246" />
<rect fill="none" height="24" stroke="#405C86" stroke-width="2" width="96" x="1146" y="246" />
<text class="small-label intrinsic-color" x="1194" y="259">base[17]</text>
<rect fill="#EEDDDB" height="24" width="96" x="1050" y="246" />
<rect fill="none" height="24" stroke="#405C86" stroke-width="2" width="96" x="1050" y="246" />
<text class="small-label intrinsic-color" x="1098" y="259">base[21]</text>
<rect fill="#EEDDDB" height="24" width="96" x="954" y="246" />
<rect fill="none" height="24" stroke="#405C86" stroke-width="2" width="96" x="954" y="246" />
<text class="small-label intrinsic-color" x="1002" y="259">base[25]</text>
<rect fill="#EEDDDB" height="24" width="96" x="858" y="246" />
<rect fill="none" height="24" stroke="#405C86" stroke-width="2" width="96" x="858" y="246" />
<text class="small-label intrinsic-color" x="906" y="259">base[29]</text>
<rect fill="#EEDDDB" height="24" width="96" x="762" y="246" />
<rect fill="none" height="24" stroke="#405C86" stroke-width="2" width="96" x="762" y="246" />
<text class="small-label intrinsic-color" x="810" y="259">base[33]</text>
<rect fill="#EEDDDB" height="24" width="96" x="666" y="246" />
<rect fill="none" height="24" stroke="#405C86" stroke-width="2" width="96" x="666" y="246" />
<text class="small-label intrinsic-color" x="714" y="259">base[37]</text>
<rect fill="#EEDDDB" height="24" width="96" x="570" y="246" />
<rect fill="none" height="24" stroke="#405C86" stroke-width="2" width="96" x="570" y="246" />
<text class="small-label intrinsic-color" x="618" y="259">base[41]</text>
<rect fill="#EEDDDB" height="24" width="96" x="474" y="246" />
<rect fill="none" height="24" stroke="#405C86" stroke-width="2" width="96" x="474" y="246" />
<text class="small-label intrinsic-color" x="522" y="259">base[45]</text>
<rect fill="#EEDDDB" height="24" width="96" x="378" y="246" />
<rect fill="none" height="24" stroke="#405C86" stroke-width="2" width="96" x="378" y="246" />
<text class="small-label intrinsic-color" x="426" y="259">base[49]</text>
<rect fill="#EEDDDB" height="24" width="96" x="282" y="246" />
<rect fill="none" height="24" stroke="#405C86" stroke-width="2" width="96" x="282" y="246" />
<text class="small-label intrinsic-color" x="330" y="259">base[53]</text>
<rect fill="#EEDDDB" height="24" width="96" x="186" y="246" />
<rect fill="none" height="24" stroke="#405C86" stroke-width="2" width="96" x="186" y="246" />
<text class="small-label intrinsic-color" x="234" y="259">base[57]</text>
<rect fill="#EEDDDB" height="24" width="96" x="90" y="246" />
<rect fill="none" height="24" stroke="#405C86" stroke-width="2" width="96" x="90" y="246" />
<text class="small-label intrinsic-color" x="138" y="259">base[61]</text>
<text class="register-name" x="80" y="258">Zt2</text>
<text class="intrinsic-name" x="80" y="270">ret[1]</text>
<text class="register-number" x="10" y="258">(3)</text>
<rect fill="#ECF1E0" height="24" width="96" x="1530" y="294" />
<rect fill="none" height="24" stroke="#405C86" stroke-width="2" width="96" x="1530" y="294" />
<text class="small-label intrinsic-color" x="1578" y="307">base[2]</text>
<rect fill="#ECF1E0" height="24" width="96" x="1434" y="294" />
<rect fill="none" height="24" stroke="#405C86" stroke-width="2" width="96" x="1434" y="294" />
<text class="small-label intrinsic-color" x="1482" y="307">base[6]</text>
<rect fill="#ECF1E0" height="24" width="96" x="1338" y="294" />
<rect fill="none" height="24" stroke="#405C86" stroke-width="2" width="96" x="1338" y="294" />
<text class="small-label intrinsic-color" x="1386" y="307">base[10]</text>
<rect fill="#ECF1E0" height="24" width="96" x="1242" y="294" />
<rect fill="none" height="24" stroke="#405C86" stroke-width="2" width="96" x="1242" y="294" />
<text class="small-label intrinsic-color" x="1290" y="307">base[14]</text>
<rect fill="#ECF1E0" height="24" width="96" x="1146" y="294" />
<rect fill="none" height="24" stroke="#405C86" stroke-width="2" width="96" x="1146" y="294" />
<text class="small-label intrinsic-color" x="1194" y="307">base[18]</text>
<rect fill="#ECF1E0" height="24" width="96" x="1050" y="294" />
<rect fill="none" height="24" stroke="#405C86" stroke-width="2" width="96" x="1050" y="294" />
<text class="small-label intrinsic-color" x="1098" y="307">base[22]</text>
<rect fill="#ECF1E0" height="24" width="96" x="954" y="294" />
<rect fill="none" height="24" stroke="#405C86" stroke-width="2" width="96" x="954" y="294" />
<text class="small-label intrinsic-color" x="1002" y="307">base[26]</text>
<rect fill="#ECF1E0" height="24" width="96" x="858" y="294" />
<rect fill="none" height="24" stroke="#405C86" stroke-width="2" width="96" x="858" y="294" />
<text class="small-label intrinsic-color" x="906" y="307">base[30]</text>
<rect fill="#ECF1E0" height="24" width="96" x="762" y="294" />
<rect fill="none" height="24" stroke="#405C86" stroke-width="2" width="96" x="762" y="294" />
<text class="small-label intrinsic-color" x="810" y="307">base[34]</text>
<rect fill="#ECF1E0" height="24" width="96" x="666" y="294" />
<rect fill="none" height="24" stroke="#405C86" stroke-width="2" width="96" x="666" y="294" />
<text class="small-label intrinsic-color" x="714" y="307">base[38]</text>
<rect fill="#ECF1E0" height="24" width="96" x="570" y="294" />
<rect fill="none" height="24" stroke="#405C86" stroke-width="2" width="96" x="570" y="294" />
<text class="small-label intrinsic-color" x="618" y="307">base[42]</text>
<rect fill="#ECF1E0" height="24" width="96" x="474" y="294" />
<rect fill="none" height="24" stroke="#405C86" stroke-width="2" width="96" x="474" y="294" />
<text class="small-label intrinsic-color" x="522" y="307">base[46]</text>
<rect fill="#ECF1E0" height="24" width="96" x="378" y="294" />
<rect fill="none" height="24" stroke="#405C86" stroke-width="2" width="96" x="378" y="294" />
<text class="small-label intrinsic-color" x="426" y="307">base[50]</text>
<rect fill="#ECF1E0" height="24" width="96" x="282" y="294" />
<rect fill="none" height="24" stroke="#405C86" stroke-width="2" width="96" x="282" y="294" />
<text class="small-label intrinsic-color" x="330" y="307">base[54]</text>
<rect fill="#ECF1E0" height="24" width="96" x="186" y="294" />
<rect fill="none" height="24" stroke="#405C86" stroke-width="2" width="96" x="186" y="294" />
<text class="small-label intrinsic-color" x="234" y="307">base[58]</text>
<rect fill="#ECF1E0" height="24" width="96" x="90" y="294" />
<rect fill="none" height="24" stroke="#405C86" stroke-width="2" width="96" x="90" y="294" />
<text class="small-label intrinsic-color" x="138" y="307">base[62]</text>
<text class="register-name" x="80" y="306">Zt3</text>
<text class="intrinsic-name" x="80" y="318">ret[2]</text>
<text class="register-number" x="10" y="306">(4)</text>
<rect fill="#E5E0EB" height="24" width="96" x="1530" y="342" />
<rect fill="none" height="24" stroke="#405C86" stroke-width="2" width="96" x="1530" y="342" />
<text class="small-label intrinsic-color" x="1578" y="355">base[3]</text>
<rect fill="#E5E0EB" height="24" width="96" x="1434" y="342" />
<rect fill="none" height="24" stroke="#405C86" stroke-width="2" width="96" x="1434" y="342" />
<text class="small-label intrinsic-color" x="1482" y="355">base[7]</text>
<rect fill="#E5E0EB" height="24" width="96" x="1338" y="342" />
<rect fill="none" height="24" stroke="#405C86" stroke-width="2" width="96" x="1338" y="342" />
<text class="small-label intrinsic-color" x="1386" y="355">base[11]</text>
<rect fill="#E5E0EB" height="24" width="96" x="1242" y="342" />
<rect fill="none" height="24" stroke="#405C86" stroke-width="2" width="96" x="1242" y="342" />
<text class="small-label intrinsic-color" x="1290" y="355">base[15]</text>
<rect fill="#E5E0EB" height="24" width="96" x="1146" y="342" />
<rect fill="none" height="24" stroke="#405C86" stroke-width="2" width="96" x="1146" y="342" />
<text class="small-label intrinsic-color" x="1194" y="355">base[19]</text>
<rect fill="#E5E0EB" height="24" width="96" x="1050" y="342" />
<rect fill="none" height="24" stroke="#405C86" stroke-width="2" width="96" x="1050" y="342" />
<text class="small-label intrinsic-color" x="1098" y="355">base[23]</text>
<rect fill="#E5E0EB" height="24" width="96" x="954" y="342" />
<rect fill="none" height="24" stroke="#405C86" stroke-width="2" width="96" x="954" y="342" />
<text class="small-label intrinsic-color" x="1002" y="355">base[27]</text>
<rect fill="#E5E0EB" height="24" width="96" x="858" y="342" />
<rect fill="none" height="24" stroke="#405C86" stroke-width="2" width="96" x="858" y="342" />
<text class="small-label intrinsic-color" x="906" y="355">base[31]</text>
<rect fill="#E5E0EB" height="24" width="96" x="762" y="342" />
<rect fill="none" height="24" stroke="#405C86" stroke-width="2" width="96" x="762" y="342" />
<text class="small-label intrinsic-color" x="810" y="355">base[35]</text>
<rect fill="#E5E0EB" height="24" width="96" x="666" y="342" />
<rect fill="none" height="24" stroke="#405C86" stroke-width="2" width="96" x="666" y="342" />
<text class="small-label intrinsic-color" x="714" y="355">base[39]</text>
<rect fill="#E5E0EB" height="24" width="96" x="570" y="342" />
<rect fill="none" height="24" stroke="#405C86" stroke-width="2" width="96" x="570" y="342" />
<text class="small-label intrinsic-color" x="618" y="355">base[43]</text>
<rect fill="#E5E0EB" height="24" width="96" x="474" y="342" />
<rect fill="none" height="24" stroke="#405C86" stroke-width="2" width="96" x="474" y="342" />
<text class="small-label intrinsic-color" x="522" y="355">base[47]</text>
<rect fill="#E5E0EB" height="24" width="96" x="378" y="342" />
<rect fill="none" height="24" stroke="#405C86" stroke-width="2" width="96" x="378" y="342" />
<text class="small-label intrinsic-color" x="426" y="355">base[51]</text>
<rect fill="#E5E0EB" height="24" width="96" x="282" y="342" />
<rect fill="none" height="24" stroke="#405C86" stroke-width="2" width="96" x="282" y="342" />
<text class="small-label intrinsic-color" x="330" y="355">base[55]</text>
<rect fill="#E5E0EB" height="24" width="96" x="186" y="342" />
<rect fill="none" height="24" stroke="#405C86" stroke-width="2" width="96" x="186" y="342" />
<text class="small-label intrinsic-color" x="234" y="355">base[59]</text>
<rect fill="#E5E0EB" height="24" width="96" x="90" y="342" />
<rect fill="none" height="24" stroke="#405C86" stroke-width="2" width="96" x="90" y="342" />
<text class="small-label intrinsic-color" x="138" y="355">base[63]</text>
<text class="register-name" x="80" y="354">Zt4</text>
<text class="intrinsic-name" x="80" y="366">ret[3]</text>
<text class="register-number" x="10" y="354">(5)</text>
<line stroke="#567DB6" stroke-width="1" x1="1578" x2="1578" y1="42.5" y2="197" />
<line stroke="#567DB6" stroke-width="1" x1="1482" x2="1578" y1="42.5" y2="245" />
<line stroke="#567DB6" stroke-width="1" x1="1386" x2="1578" y1="42.5" y2="293" />
<line stroke="#567DB6" stroke-width="1" x1="1290" x2="1578" y1="42.5" y2="341" />
<line stroke="#567DB6" stroke-dasharray="3 1" stroke-width="1" x1="1194" x2="1482" y1="42.5" y2="197" />
<line stroke="#567DB6" stroke-dasharray="3 1" stroke-width="1" x1="1098" x2="1482" y1="42.5" y2="245" />
<line stroke="#567DB6" stroke-dasharray="3 1" stroke-width="1" x1="1002" x2="1482" y1="42.5" y2="293" />
<line stroke="#567DB6" stroke-dasharray="3 1" stroke-width="1" x1="906" x2="1482" y1="42.5" y2="341" />
<line stroke="#567DB6" stroke-width="1" x1="426" x2="138" y1="150.5" y2="197" />
<line stroke="#567DB6" stroke-width="1" x1="330" x2="138" y1="150.5" y2="245" />
<line stroke="#567DB6" stroke-width="1" x1="234" x2="138" y1="150.5" y2="293" />
<line stroke="#567DB6" stroke-width="1" x1="133" x2="133" y1="150.5" y2="341" />
<line marker-end="url(#arrowhead)" stroke="none" x1="1578" x2="1578" y1="42.5" y2="197" />
<line marker-end="url(#arrowhead)" stroke="none" x1="1482" x2="1578" y1="42.5" y2="245" />
<line marker-end="url(#arrowhead)" stroke="none" x1="1386" x2="1578" y1="42.5" y2="293" />
<line marker-end="url(#arrowhead)" stroke="none" x1="1290" x2="1578" y1="42.5" y2="341" />
<line marker-end="url(#arrowhead)" stroke="none" stroke-dasharray="3 1" x1="1194" x2="1482" y1="42.5" y2="197" />
<line marker-end="url(#arrowhead)" stroke="none" stroke-dasharray="3 1" x1="1098" x2="1482" y1="42.5" y2="245" />
<line marker-end="url(#arrowhead)" stroke="none" stroke-dasharray="3 1" x1="1002" x2="1482" y1="42.5" y2="293" />
<line marker-end="url(#arrowhead)" stroke="none" stroke-dasharray="3 1" x1="906" x2="1482" y1="42.5" y2="341" />
<line marker-end="url(#arrowhead)" stroke="none" x1="426" x2="138" y1="150.5" y2="197" />
<line marker-end="url(#arrowhead)" stroke="none" x1="330" x2="138" y1="150.5" y2="245" />
<line marker-end="url(#arrowhead)" stroke="none" x1="234" x2="138" y1="150.5" y2="293" />
<line marker-end="url(#arrowhead)" stroke="none" x1="133" x2="133" y1="150.5" y2="341" />
</svg>