<svg xmlns="http://www.w3.org/2000/svg" viewBox="0 0 1638 123">
<style>
.label { font: 14px Helvetica; dominant-baseline: middle; text-anchor: middle; }
.title-left { font: 12px Helvetica; dominant-baseline: middle; }
.title-right { font: 12px Helvetica; dominant-baseline: middle; text-anchor: end; }
.title-intrinsic { font: 12px Helvetica; dominant-baseline: middle; text-anchor: middle; fill: #6778ED; }
.title { font: 12px Helvetica; dominant-baseline: middle; text-anchor: middle; }
.title-unused { font: 12px Helvetica; dominant-baseline: middle; text-anchor: middle; fill: #AAA; }
.register-name { font: 14px Helvetica; dominant-baseline: middle; text-anchor: end; font-style: italic; }
.memory-name { font: 14px Helvetica; dominant-baseline: middle; text-anchor: end; }
.register-number { font: 14px Helvetica; dominant-baseline: middle; text-anchor: start; }
.intrinsic-name { font: 14px Helvetica; dominant-baseline: middle; text-anchor: end; fill: #6778ED; }
.intrinsic-color { fill: #6778ED; }
.small-label { font: 12px Helvetica; dominant-baseline: middle; text-anchor: middle; }
.label-10px { font: 10px Helvetica; dominant-baseline: middle; text-anchor: middle; }
.smaller-label { font: 9px Helvetica; dominant-baseline: middle; text-anchor: middle; }
.label-6px { font: 6px Helvetica; dominant-baseline: middle; text-anchor: middle; }
.label-7px { font: 7px Helvetica; dominant-baseline: middle; text-anchor: middle; }
.unused { fill: #AAA; }
.dim { fill: #888; }
</style>
<defs>
<marker id="arrowhead" markerWidth="10.75" markerHeight="24.5" refX="9.0" refY="6.125" orient="auto">
<polyline points="0.5 0.5, 8.75 6.125, 0.5 11.75" stroke="#567DB6" stroke-width="1" fill="none"/>
</marker>
</defs>
<line stroke="#567DB6" stroke-width="1" x1="1609.375" x2="1618.625" y1="42.5" y2="89" />
<line stroke="#567DB6" stroke-width="1" x1="1585.375" x2="1594.625" y1="42.5" y2="89" />
<line stroke="#567DB6" stroke-width="1" x1="1561.375" x2="1570.625" y1="42.5" y2="89" />
<line stroke="#567DB6" stroke-width="1" x1="1537.375" x2="1546.625" y1="42.5" y2="89" />
<line stroke="#567DB6" stroke-width="1" x1="1513.375" x2="1522.625" y1="42.5" y2="89" />
<line stroke="#567DB6" stroke-width="1" x1="1489.375" x2="1498.625" y1="42.5" y2="89" />
<line stroke="#567DB6" stroke-width="1" x1="1465.375" x2="1474.625" y1="42.5" y2="89" />
<line stroke="#567DB6" stroke-width="1" x1="1441.375" x2="1450.625" y1="42.5" y2="89" />
<line stroke="#567DB6" stroke-width="1" x1="1417.375" x2="1426.625" y1="42.5" y2="89" />
<line stroke="#567DB6" stroke-width="1" x1="1393.375" x2="1402.625" y1="42.5" y2="89" />
<line stroke="#567DB6" stroke-width="1" x1="1369.375" x2="1378.625" y1="42.5" y2="89" />
<line stroke="#567DB6" stroke-width="1" x1="1345.375" x2="1354.625" y1="42.5" y2="89" />
<line stroke="#567DB6" stroke-width="1" x1="1321.375" x2="1330.625" y1="42.5" y2="89" />
<line stroke="#567DB6" stroke-width="1" x1="1297.375" x2="1306.625" y1="42.5" y2="89" />
<line stroke="#567DB6" stroke-width="1" x1="1273.375" x2="1282.625" y1="42.5" y2="89" />
<line stroke="#567DB6" stroke-width="1" x1="1249.375" x2="1258.625" y1="42.5" y2="89" />
<line stroke="#567DB6" stroke-width="1" x1="1225.375" x2="1234.625" y1="42.5" y2="89" />
<line stroke="#567DB6" stroke-width="1" x1="1201.375" x2="1210.625" y1="42.5" y2="89" />
<line stroke="#567DB6" stroke-width="1" x1="1177.375" x2="1186.625" y1="42.5" y2="89" />
<line stroke="#567DB6" stroke-width="1" x1="1153.375" x2="1162.625" y1="42.5" y2="89" />
<line stroke="#567DB6" stroke-width="1" x1="1129.375" x2="1138.625" y1="42.5" y2="89" />
<line stroke="#567DB6" stroke-width="1" x1="1105.375" x2="1114.625" y1="42.5" y2="89" />
<line stroke="#567DB6" stroke-width="1" x1="1081.375" x2="1090.625" y1="42.5" y2="89" />
<line stroke="#567DB6" stroke-width="1" x1="1057.375" x2="1066.625" y1="42.5" y2="89" />
<line stroke="#567DB6" stroke-width="1" x1="1033.375" x2="1042.625" y1="42.5" y2="89" />
<line stroke="#567DB6" stroke-width="1" x1="1009.375" x2="1018.625" y1="42.5" y2="89" />
<line stroke="#567DB6" stroke-width="1" x1="985.375" x2="994.625" y1="42.5" y2="89" />
<line stroke="#567DB6" stroke-width="1" x1="961.375" x2="970.625" y1="42.5" y2="89" />
<line stroke="#567DB6" stroke-width="1" x1="937.375" x2="946.625" y1="42.5" y2="89" />
<line stroke="#567DB6" stroke-width="1" x1="913.375" x2="922.625" y1="42.5" y2="89" />
<line stroke="#567DB6" stroke-width="1" x1="889.375" x2="898.625" y1="42.5" y2="89" />
<line stroke="#567DB6" stroke-width="1" x1="865.375" x2="874.625" y1="42.5" y2="89" />
<line stroke="#567DB6" stroke-width="1" x1="841.375" x2="850.625" y1="42.5" y2="89" />
<line stroke="#567DB6" stroke-width="1" x1="817.375" x2="826.625" y1="42.5" y2="89" />
<line stroke="#567DB6" stroke-width="1" x1="793.375" x2="802.625" y1="42.5" y2="89" />
<line stroke="#567DB6" stroke-width="1" x1="769.375" x2="778.625" y1="42.5" y2="89" />
<line stroke="#567DB6" stroke-width="1" x1="745.375" x2="754.625" y1="42.5" y2="89" />
<line stroke="#567DB6" stroke-width="1" x1="721.375" x2="730.625" y1="42.5" y2="89" />
<line stroke="#567DB6" stroke-width="1" x1="697.375" x2="706.625" y1="42.5" y2="89" />
<line stroke="#567DB6" stroke-width="1" x1="673.375" x2="682.625" y1="42.5" y2="89" />
<line stroke="#567DB6" stroke-width="1" x1="649.375" x2="658.625" y1="42.5" y2="89" />
<line stroke="#567DB6" stroke-width="1" x1="625.375" x2="634.625" y1="42.5" y2="89" />
<line stroke="#567DB6" stroke-width="1" x1="601.375" x2="610.625" y1="42.5" y2="89" />
<line stroke="#567DB6" stroke-width="1" x1="577.375" x2="586.625" y1="42.5" y2="89" />
<line stroke="#567DB6" stroke-width="1" x1="553.375" x2="562.625" y1="42.5" y2="89" />
<line stroke="#567DB6" stroke-width="1" x1="529.375" x2="538.625" y1="42.5" y2="89" />
<line stroke="#567DB6" stroke-width="1" x1="505.375" x2="514.625" y1="42.5" y2="89" />
<line stroke="#567DB6" stroke-width="1" x1="481.375" x2="490.625" y1="42.5" y2="89" />
<line stroke="#567DB6" stroke-width="1" x1="457.375" x2="466.625" y1="42.5" y2="89" />
<line stroke="#567DB6" stroke-width="1" x1="433.375" x2="442.625" y1="42.5" y2="89" />
<line stroke="#567DB6" stroke-width="1" x1="409.375" x2="418.625" y1="42.5" y2="89" />
<line stroke="#567DB6" stroke-width="1" x1="385.375" x2="394.625" y1="42.5" y2="89" />
<line stroke="#567DB6" stroke-width="1" x1="361.375" x2="370.625" y1="42.5" y2="89" />
<line stroke="#567DB6" stroke-width="1" x1="337.375" x2="346.625" y1="42.5" y2="89" />
<line stroke="#567DB6" stroke-width="1" x1="313.375" x2="322.625" y1="42.5" y2="89" />
<line stroke="#567DB6" stroke-width="1" x1="289.375" x2="298.625" y1="42.5" y2="89" />
<line stroke="#567DB6" stroke-width="1" x1="265.375" x2="274.625" y1="42.5" y2="89" />
<line stroke="#567DB6" stroke-width="1" x1="241.375" x2="250.625" y1="42.5" y2="89" />
<line stroke="#567DB6" stroke-width="1" x1="217.375" x2="226.625" y1="42.5" y2="89" />
<line stroke="#567DB6" stroke-width="1" x1="193.375" x2="202.625" y1="42.5" y2="89" />
<line stroke="#567DB6" stroke-width="1" x1="169.375" x2="178.625" y1="42.5" y2="89" />
<line stroke="#567DB6" stroke-width="1" x1="145.375" x2="154.625" y1="42.5" y2="89" />
<line stroke="#567DB6" stroke-width="1" x1="121.375" x2="130.625" y1="42.5" y2="89" />
<line stroke="#567DB6" stroke-width="1" x1="97.375" x2="106.625" y1="42.5" y2="89" />
<text class="title-left" x="90" y="9">upper</text>
<text class="title-right" x="1626" y="9">lower</text>
<rect fill="#DEE6F1" height="24" width="14.75" x="1602" y="18" />
<rect fill="none" height="24" stroke="#405C86" stroke-width="2" width="24" x="1602" y="18" />
<rect fill="#DEE6F1" height="24" width="14.75" x="1578" y="18" />
<rect fill="none" height="24" stroke="#405C86" stroke-width="2" width="24" x="1578" y="18" />
<rect fill="#DEE6F1" height="24" width="14.75" x="1554" y="18" />
<rect fill="none" height="24" stroke="#405C86" stroke-width="2" width="24" x="1554" y="18" />
<rect fill="#DEE6F1" height="24" width="14.75" x="1530" y="18" />
<rect fill="none" height="24" stroke="#405C86" stroke-width="2" width="24" x="1530" y="18" />
<rect fill="#DEE6F1" height="24" width="14.75" x="1506" y="18" />
<rect fill="none" height="24" stroke="#405C86" stroke-width="2" width="24" x="1506" y="18" />
<rect fill="#DEE6F1" height="24" width="14.75" x="1482" y="18" />
<rect fill="none" height="24" stroke="#405C86" stroke-width="2" width="24" x="1482" y="18" />
<rect fill="#DEE6F1" height="24" width="14.75" x="1458" y="18" />
<rect fill="none" height="24" stroke="#405C86" stroke-width="2" width="24" x="1458" y="18" />
<rect fill="#DEE6F1" height="24" width="14.75" x="1434" y="18" />
<rect fill="none" height="24" stroke="#405C86" stroke-width="2" width="24" x="1434" y="18" />
<rect fill="#DEE6F1" height="24" width="14.75" x="1410" y="18" />
<rect fill="none" height="24" stroke="#405C86" stroke-width="2" width="24" x="1410" y="18" />
<rect fill="#DEE6F1" height="24" width="14.75" x="1386" y="18" />
<rect fill="none" height="24" stroke="#405C86" stroke-width="2" width="24" x="1386" y="18" />
<rect fill="#DEE6F1" height="24" width="14.75" x="1362" y="18" />
<rect fill="none" height="24" stroke="#405C86" stroke-width="2" width="24" x="1362" y="18" />
<rect fill="#DEE6F1" height="24" width="14.75" x="1338" y="18" />
<rect fill="none" height="24" stroke="#405C86" stroke-width="2" width="24" x="1338" y="18" />
<rect fill="#DEE6F1" height="24" width="14.75" x="1314" y="18" />
<rect fill="none" height="24" stroke="#405C86" stroke-width="2" width="24" x="1314" y="18" />
<rect fill="#DEE6F1" height="24" width="14.75" x="1290" y="18" />
<rect fill="none" height="24" stroke="#405C86" stroke-width="2" width="24" x="1290" y="18" />
<rect fill="#DEE6F1" height="24" width="14.75" x="1266" y="18" />
<rect fill="none" height="24" stroke="#405C86" stroke-width="2" width="24" x="1266" y="18" />
<rect fill="#DEE6F1" height="24" width="14.75" x="1242" y="18" />
<rect fill="none" height="24" stroke="#405C86" stroke-width="2" width="24" x="1242" y="18" />
<rect fill="#DEE6F1" height="24" width="14.75" x="1218" y="18" />
<rect fill="none" height="24" stroke="#405C86" stroke-width="2" width="24" x="1218" y="18" />
<rect fill="#DEE6F1" height="24" width="14.75" x="1194" y="18" />
<rect fill="none" height="24" stroke="#405C86" stroke-width="2" width="24" x="1194" y="18" />
<rect fill="#DEE6F1" height="24" width="14.75" x="1170" y="18" />
<rect fill="none" height="24" stroke="#405C86" stroke-width="2" width="24" x="1170" y="18" />
<rect fill="#DEE6F1" height="24" width="14.75" x="1146" y="18" />
<rect fill="none" height="24" stroke="#405C86" stroke-width="2" width="24" x="1146" y="18" />
<rect fill="#DEE6F1" height="24" width="14.75" x="1122" y="18" />
<rect fill="none" height="24" stroke="#405C86" stroke-width="2" width="24" x="1122" y="18" />
<rect fill="#DEE6F1" height="24" width="14.75" x="1098" y="18" />
<rect fill="none" height="24" stroke="#405C86" stroke-width="2" width="24" x="1098" y="18" />
<rect fill="#DEE6F1" height="24" width="14.75" x="1074" y="18" />
<rect fill="none" height="24" stroke="#405C86" stroke-width="2" width="24" x="1074" y="18" />
<rect fill="#DEE6F1" height="24" width="14.75" x="1050" y="18" />
<rect fill="none" height="24" stroke="#405C86" stroke-width="2" width="24" x="1050" y="18" />
<rect fill="#DEE6F1" height="24" width="14.75" x="1026" y="18" />
<rect fill="none" height="24" stroke="#405C86" stroke-width="2" width="24" x="1026" y="18" />
<rect fill="#DEE6F1" height="24" width="14.75" x="1002" y="18" />
<rect fill="none" height="24" stroke="#405C86" stroke-width="2" width="24" x="1002" y="18" />
<rect fill="#DEE6F1" height="24" width="14.75" x="978" y="18" />
<rect fill="none" height="24" stroke="#405C86" stroke-width="2" width="24" x="978" y="18" />
<rect fill="#DEE6F1" height="24" width="14.75" x="954" y="18" />
<rect fill="none" height="24" stroke="#405C86" stroke-width="2" width="24" x="954" y="18" />
<rect fill="#DEE6F1" height="24" width="14.75" x="930" y="18" />
<rect fill="none" height="24" stroke="#405C86" stroke-width="2" width="24" x="930" y="18" />
<rect fill="#DEE6F1" height="24" width="14.75" x="906" y="18" />
<rect fill="none" height="24" stroke="#405C86" stroke-width="2" width="24" x="906" y="18" />
<rect fill="#DEE6F1" height="24" width="14.75" x="882" y="18" />
<rect fill="none" height="24" stroke="#405C86" stroke-width="2" width="24" x="882" y="18" />
<rect fill="#DEE6F1" height="24" width="14.75" x="858" y="18" />
<rect fill="none" height="24" stroke="#405C86" stroke-width="2" width="24" x="858" y="18" />
<rect fill="#DEE6F1" height="24" width="14.75" x="834" y="18" />
<rect fill="none" height="24" stroke="#405C86" stroke-width="2" width="24" x="834" y="18" />
<rect fill="#DEE6F1" height="24" width="14.75" x="810" y="18" />
<rect fill="none" height="24" stroke="#405C86" stroke-width="2" width="24" x="810" y="18" />
<rect fill="#DEE6F1" height="24" width="14.75" x="786" y="18" />
<rect fill="none" height="24" stroke="#405C86" stroke-width="2" width="24" x="786" y="18" />
<rect fill="#DEE6F1" height="24" width="14.75" x="762" y="18" />
<rect fill="none" height="24" stroke="#405C86" stroke-width="2" width="24" x="762" y="18" />
<rect fill="#DEE6F1" height="24" width="14.75" x="738" y="18" />
<rect fill="none" height="24" stroke="#405C86" stroke-width="2" width="24" x="738" y="18" />
<rect fill="#DEE6F1" height="24" width="14.75" x="714" y="18" />
<rect fill="none" height="24" stroke="#405C86" stroke-width="2" width="24" x="714" y="18" />
<rect fill="#DEE6F1" height="24" width="14.75" x="690" y="18" />
<rect fill="none" height="24" stroke="#405C86" stroke-width="2" width="24" x="690" y="18" />
<rect fill="#DEE6F1" height="24" width="14.75" x="666" y="18" />
<rect fill="none" height="24" stroke="#405C86" stroke-width="2" width="24" x="666" y="18" />
<rect fill="#DEE6F1" height="24" width="14.75" x="642" y="18" />
<rect fill="none" height="24" stroke="#405C86" stroke-width="2" width="24" x="642" y="18" />
<rect fill="#DEE6F1" height="24" width="14.75" x="618" y="18" />
<rect fill="none" height="24" stroke="#405C86" stroke-width="2" width="24" x="618" y="18" />
<rect fill="#DEE6F1" height="24" width="14.75" x="594" y="18" />
<rect fill="none" height="24" stroke="#405C86" stroke-width="2" width="24" x="594" y="18" />
<rect fill="#DEE6F1" height="24" width="14.75" x="570" y="18" />
<rect fill="none" height="24" stroke="#405C86" stroke-width="2" width="24" x="570" y="18" />
<rect fill="#DEE6F1" height="24" width="14.75" x="546" y="18" />
<rect fill="none" height="24" stroke="#405C86" stroke-width="2" width="24" x="546" y="18" />
<rect fill="#DEE6F1" height="24" width="14.75" x="522" y="18" />
<rect fill="none" height="24" stroke="#405C86" stroke-width="2" width="24" x="522" y="18" />
<rect fill="#DEE6F1" height="24" width="14.75" x="498" y="18" />
<rect fill="none" height="24" stroke="#405C86" stroke-width="2" width="24" x="498" y="18" />
<rect fill="#DEE6F1" height="24" width="14.75" x="474" y="18" />
<rect fill="none" height="24" stroke="#405C86" stroke-width="2" width="24" x="474" y="18" />
<rect fill="#DEE6F1" height="24" width="14.75" x="450" y="18" />
<rect fill="none" height="24" stroke="#405C86" stroke-width="2" width="24" x="450" y="18" />
<rect fill="#DEE6F1" height="24" width="14.75" x="426" y="18" />
<rect fill="none" height="24" stroke="#405C86" stroke-width="2" width="24" x="426" y="18" />
<rect fill="#DEE6F1" height="24" width="14.75" x="402" y="18" />
<rect fill="none" height="24" stroke="#405C86" stroke-width="2" width="24" x="402" y="18" />
<rect fill="#DEE6F1" height="24" width="14.75" x="378" y="18" />
<rect fill="none" height="24" stroke="#405C86" stroke-width="2" width="24" x="378" y="18" />
<rect fill="#DEE6F1" height="24" width="14.75" x="354" y="18" />
<rect fill="none" height="24" stroke="#405C86" stroke-width="2" width="24" x="354" y="18" />
<rect fill="#DEE6F1" height="24" width="14.75" x="330" y="18" />
<rect fill="none" height="24" stroke="#405C86" stroke-width="2" width="24" x="330" y="18" />
<rect fill="#DEE6F1" height="24" width="14.75" x="306" y="18" />
<rect fill="none" height="24" stroke="#405C86" stroke-width="2" width="24" x="306" y="18" />
<rect fill="#DEE6F1" height="24" width="14.75" x="282" y="18" />
<rect fill="none" height="24" stroke="#405C86" stroke-width="2" width="24" x="282" y="18" />
<rect fill="#DEE6F1" height="24" width="14.75" x="258" y="18" />
<rect fill="none" height="24" stroke="#405C86" stroke-width="2" width="24" x="258" y="18" />
<rect fill="#DEE6F1" height="24" width="14.75" x="234" y="18" />
<rect fill="none" height="24" stroke="#405C86" stroke-width="2" width="24" x="234" y="18" />
<rect fill="#DEE6F1" height="24" width="14.75" x="210" y="18" />
<rect fill="none" height="24" stroke="#405C86" stroke-width="2" width="24" x="210" y="18" />
<rect fill="#DEE6F1" height="24" width="14.75" x="186" y="18" />
<rect fill="none" height="24" stroke="#405C86" stroke-width="2" width="24" x="186" y="18" />
<rect fill="#DEE6F1" height="24" width="14.75" x="162" y="18" />
<rect fill="none" height="24" stroke="#405C86" stroke-width="2" width="24" x="162" y="18" />
<rect fill="#DEE6F1" height="24" width="14.75" x="138" y="18" />
<rect fill="none" height="24" stroke="#405C86" stroke-width="2" width="24" x="138" y="18" />
<rect fill="#DEE6F1" height="24" width="14.75" x="114" y="18" />
<rect fill="none" height="24" stroke="#405C86" stroke-width="2" width="24" x="114" y="18" />
<rect fill="#DEE6F1" height="24" width="14.75" x="90" y="18" />
<rect fill="none" height="24" stroke="#405C86" stroke-width="2" width="24" x="90" y="18" />
<text class="register-name" x="80" y="30">Zdn</text>
<text class="intrinsic-name" x="80" y="42">op1</text>
<text class="register-number" x="10" y="30">(1)</text>
<rect fill="#DEE6F1" height="24" width="14.75" x="1611.25" y="90" />
<rect fill="none" height="24" stroke="#405C86" stroke-width="2" width="24" x="1602" y="90" />
<rect fill="#DEE6F1" height="24" width="14.75" x="1587.25" y="90" />
<rect fill="none" height="24" stroke="#405C86" stroke-width="2" width="24" x="1578" y="90" />
<rect fill="#DEE6F1" height="24" width="14.75" x="1563.25" y="90" />
<rect fill="none" height="24" stroke="#405C86" stroke-width="2" width="24" x="1554" y="90" />
<rect fill="#DEE6F1" height="24" width="14.75" x="1539.25" y="90" />
<rect fill="none" height="24" stroke="#405C86" stroke-width="2" width="24" x="1530" y="90" />
<rect fill="#DEE6F1" height="24" width="14.75" x="1515.25" y="90" />
<rect fill="none" height="24" stroke="#405C86" stroke-width="2" width="24" x="1506" y="90" />
<rect fill="#DEE6F1" height="24" width="14.75" x="1491.25" y="90" />
<rect fill="none" height="24" stroke="#405C86" stroke-width="2" width="24" x="1482" y="90" />
<rect fill="#DEE6F1" height="24" width="14.75" x="1467.25" y="90" />
<rect fill="none" height="24" stroke="#405C86" stroke-width="2" width="24" x="1458" y="90" />
<rect fill="#DEE6F1" height="24" width="14.75" x="1443.25" y="90" />
<rect fill="none" height="24" stroke="#405C86" stroke-width="2" width="24" x="1434" y="90" />
<rect fill="#DEE6F1" height="24" width="14.75" x="1419.25" y="90" />
<rect fill="none" height="24" stroke="#405C86" stroke-width="2" width="24" x="1410" y="90" />
<rect fill="#DEE6F1" height="24" width="14.75" x="1395.25" y="90" />
<rect fill="none" height="24" stroke="#405C86" stroke-width="2" width="24" x="1386" y="90" />
<rect fill="#DEE6F1" height="24" width="14.75" x="1371.25" y="90" />
<rect fill="none" height="24" stroke="#405C86" stroke-width="2" width="24" x="1362" y="90" />
<rect fill="#DEE6F1" height="24" width="14.75" x="1347.25" y="90" />
<rect fill="none" height="24" stroke="#405C86" stroke-width="2" width="24" x="1338" y="90" />
<rect fill="#DEE6F1" height="24" width="14.75" x="1323.25" y="90" />
<rect fill="none" height="24" stroke="#405C86" stroke-width="2" width="24" x="1314" y="90" />
<rect fill="#DEE6F1" height="24" width="14.75" x="1299.25" y="90" />
<rect fill="none" height="24" stroke="#405C86" stroke-width="2" width="24" x="1290" y="90" />
<rect fill="#DEE6F1" height="24" width="14.75" x="1275.25" y="90" />
<rect fill="none" height="24" stroke="#405C86" stroke-width="2" width="24" x="1266" y="90" />
<rect fill="#DEE6F1" height="24" width="14.75" x="1251.25" y="90" />
<rect fill="none" height="24" stroke="#405C86" stroke-width="2" width="24" x="1242" y="90" />
<rect fill="#DEE6F1" height="24" width="14.75" x="1227.25" y="90" />
<rect fill="none" height="24" stroke="#405C86" stroke-width="2" width="24" x="1218" y="90" />
<rect fill="#DEE6F1" height="24" width="14.75" x="1203.25" y="90" />
<rect fill="none" height="24" stroke="#405C86" stroke-width="2" width="24" x="1194" y="90" />
<rect fill="#DEE6F1" height="24" width="14.75" x="1179.25" y="90" />
<rect fill="none" height="24" stroke="#405C86" stroke-width="2" width="24" x="1170" y="90" />
<rect fill="#DEE6F1" height="24" width="14.75" x="1155.25" y="90" />
<rect fill="none" height="24" stroke="#405C86" stroke-width="2" width="24" x="1146" y="90" />
<rect fill="#DEE6F1" height="24" width="14.75" x="1131.25" y="90" />
<rect fill="none" height="24" stroke="#405C86" stroke-width="2" width="24" x="1122" y="90" />
<rect fill="#DEE6F1" height="24" width="14.75" x="1107.25" y="90" />
<rect fill="none" height="24" stroke="#405C86" stroke-width="2" width="24" x="1098" y="90" />
<rect fill="#DEE6F1" height="24" width="14.75" x="1083.25" y="90" />
<rect fill="none" height="24" stroke="#405C86" stroke-width="2" width="24" x="1074" y="90" />
<rect fill="#DEE6F1" height="24" width="14.75" x="1059.25" y="90" />
<rect fill="none" height="24" stroke="#405C86" stroke-width="2" width="24" x="1050" y="90" />
<rect fill="#DEE6F1" height="24" width="14.75" x="1035.25" y="90" />
<rect fill="none" height="24" stroke="#405C86" stroke-width="2" width="24" x="1026" y="90" />
<rect fill="#DEE6F1" height="24" width="14.75" x="1011.25" y="90" />
<rect fill="none" height="24" stroke="#405C86" stroke-width="2" width="24" x="1002" y="90" />
<rect fill="#DEE6F1" height="24" width="14.75" x="987.25" y="90" />
<rect fill="none" height="24" stroke="#405C86" stroke-width="2" width="24" x="978" y="90" />
<rect fill="#DEE6F1" height="24" width="14.75" x="963.25" y="90" />
<rect fill="none" height="24" stroke="#405C86" stroke-width="2" width="24" x="954" y="90" />
<rect fill="#DEE6F1" height="24" width="14.75" x="939.25" y="90" />
<rect fill="none" height="24" stroke="#405C86" stroke-width="2" width="24" x="930" y="90" />
<rect fill="#DEE6F1" height="24" width="14.75" x="915.25" y="90" />
<rect fill="none" height="24" stroke="#405C86" stroke-width="2" width="24" x="906" y="90" />
<rect fill="#DEE6F1" height="24" width="14.75" x="891.25" y="90" />
<rect fill="none" height="24" stroke="#405C86" stroke-width="2" width="24" x="882" y="90" />
<rect fill="#DEE6F1" height="24" width="14.75" x="867.25" y="90" />
<rect fill="none" height="24" stroke="#405C86" stroke-width="2" width="24" x="858" y="90" />
<rect fill="#DEE6F1" height="24" width="14.75" x="843.25" y="90" />
<rect fill="none" height="24" stroke="#405C86" stroke-width="2" width="24" x="834" y="90" />
<rect fill="#DEE6F1" height="24" width="14.75" x="819.25" y="90" />
<rect fill="none" height="24" stroke="#405C86" stroke-width="2" width="24" x="810" y="90" />
<rect fill="#DEE6F1" height="24" width="14.75" x="795.25" y="90" />
<rect fill="none" height="24" stroke="#405C86" stroke-width="2" width="24" x="786" y="90" />
<rect fill="#DEE6F1" height="24" width="14.75" x="771.25" y="90" />
<rect fill="none" height="24" stroke="#405C86" stroke-width="2" width="24" x="762" y="90" />
<rect fill="#DEE6F1" height="24" width="14.75" x="747.25" y="90" />
<rect fill="none" height="24" stroke="#405C86" stroke-width="2" width="24" x="738" y="90" />
<rect fill="#DEE6F1" height="24" width="14.75" x="723.25" y="90" />
<rect fill="none" height="24" stroke="#405C86" stroke-width="2" width="24" x="714" y="90" />
<rect fill="#DEE6F1" height="24" width="14.75" x="699.25" y="90" />
<rect fill="none" height="24" stroke="#405C86" stroke-width="2" width="24" x="690" y="90" />
<rect fill="#DEE6F1" height="24" width="14.75" x="675.25" y="90" />
<rect fill="none" height="24" stroke="#405C86" stroke-width="2" width="24" x="666" y="90" />
<rect fill="#DEE6F1" height="24" width="14.75" x="651.25" y="90" />
<rect fill="none" height="24" stroke="#405C86" stroke-width="2" width="24" x="642" y="90" />
<rect fill="#DEE6F1" height="24" width="14.75" x="627.25" y="90" />
<rect fill="none" height="24" stroke="#405C86" stroke-width="2" width="24" x="618" y="90" />
<rect fill="#DEE6F1" height="24" width="14.75" x="603.25" y="90" />
<rect fill="none" height="24" stroke="#405C86" stroke-width="2" width="24" x="594" y="90" />
<rect fill="#DEE6F1" height="24" width="14.75" x="579.25" y="90" />
<rect fill="none" height="24" stroke="#405C86" stroke-width="2" width="24" x="570" y="90" />
<rect fill="#DEE6F1" height="24" width="14.75" x="555.25" y="90" />
<rect fill="none" height="24" stroke="#405C86" stroke-width="2" width="24" x="546" y="90" />
<rect fill="#DEE6F1" height="24" width="14.75" x="531.25" y="90" />
<rect fill="none" height="24" stroke="#405C86" stroke-width="2" width="24" x="522" y="90" />
<rect fill="#DEE6F1" height="24" width="14.75" x="507.25" y="90" />
<rect fill="none" height="24" stroke="#405C86" stroke-width="2" width="24" x="498" y="90" />
<rect fill="#DEE6F1" height="24" width="14.75" x="483.25" y="90" />
<rect fill="none" height="24" stroke="#405C86" stroke-width="2" width="24" x="474" y="90" />
<rect fill="#DEE6F1" height="24" width="14.75" x="459.25" y="90" />
<rect fill="none" height="24" stroke="#405C86" stroke-width="2" width="24" x="450" y="90" />
<rect fill="#DEE6F1" height="24" width="14.75" x="435.25" y="90" />
<rect fill="none" height="24" stroke="#405C86" stroke-width="2" width="24" x="426" y="90" />
<rect fill="#DEE6F1" height="24" width="14.75" x="411.25" y="90" />
<rect fill="none" height="24" stroke="#405C86" stroke-width="2" width="24" x="402" y="90" />
<rect fill="#DEE6F1" height="24" width="14.75" x="387.25" y="90" />
<rect fill="none" height="24" stroke="#405C86" stroke-width="2" width="24" x="378" y="90" />
<rect fill="#DEE6F1" height="24" width="14.75" x="363.25" y="90" />
<rect fill="none" height="24" stroke="#405C86" stroke-width="2" width="24" x="354" y="90" />
<rect fill="#DEE6F1" height="24" width="14.75" x="339.25" y="90" />
<rect fill="none" height="24" stroke="#405C86" stroke-width="2" width="24" x="330" y="90" />
<rect fill="#DEE6F1" height="24" width="14.75" x="315.25" y="90" />
<rect fill="none" height="24" stroke="#405C86" stroke-width="2" width="24" x="306" y="90" />
<rect fill="#DEE6F1" height="24" width="14.75" x="291.25" y="90" />
<rect fill="none" height="24" stroke="#405C86" stroke-width="2" width="24" x="282" y="90" />
<rect fill="#DEE6F1" height="24" width="14.75" x="267.25" y="90" />
<rect fill="none" height="24" stroke="#405C86" stroke-width="2" width="24" x="258" y="90" />
<rect fill="#DEE6F1" height="24" width="14.75" x="243.25" y="90" />
<rect fill="none" height="24" stroke="#405C86" stroke-width="2" width="24" x="234" y="90" />
<rect fill="#DEE6F1" height="24" width="14.75" x="219.25" y="90" />
<rect fill="none" height="24" stroke="#405C86" stroke-width="2" width="24" x="210" y="90" />
<rect fill="#DEE6F1" height="24" width="14.75" x="195.25" y="90" />
<rect fill="none" height="24" stroke="#405C86" stroke-width="2" width="24" x="186" y="90" />
<rect fill="#DEE6F1" height="24" width="14.75" x="171.25" y="90" />
<rect fill="none" height="24" stroke="#405C86" stroke-width="2" width="24" x="162" y="90" />
<rect fill="#DEE6F1" height="24" width="14.75" x="147.25" y="90" />
<rect fill="none" height="24" stroke="#405C86" stroke-width="2" width="24" x="138" y="90" />
<rect fill="#DEE6F1" height="24" width="14.75" x="123.25" y="90" />
<rect fill="none" height="24" stroke="#405C86" stroke-width="2" width="24" x="114" y="90" />
<rect fill="#DEE6F1" height="24" width="14.75" x="99.25" y="90" />
<rect fill="none" height="24" stroke="#405C86" stroke-width="2" width="24" x="90" y="90" />
<text class="register-name" x="80" y="102">Zdn</text>
<text class="intrinsic-name" x="80" y="114">returns</text>
<text class="register-number" x="10" y="102">(2)</text>
<line marker-end="url(#arrowhead)" stroke="none" x1="1609.375" x2="1618.625" y1="42.5" y2="89" />
<line marker-end="url(#arrowhead)" stroke="none" x1="1585.375" x2="1594.625" y1="42.5" y2="89" />
<line marker-end="url(#arrowhead)" stroke="none" x1="1561.375" x2="1570.625" y1="42.5" y2="89" />
<line marker-end="url(#arrowhead)" stroke="none" x1="1537.375" x2="1546.625" y1="42.5" y2="89" />
<line marker-end="url(#arrowhead)" stroke="none" x1="1513.375" x2="1522.625" y1="42.5" y2="89" />
<line marker-end="url(#arrowhead)" stroke="none" x1="1489.375" x2="1498.625" y1="42.5" y2="89" />
<line marker-end="url(#arrowhead)" stroke="none" x1="1465.375" x2="1474.625" y1="42.5" y2="89" />
<line marker-end="url(#arrowhead)" stroke="none" x1="1441.375" x2="1450.625" y1="42.5" y2="89" />
<line marker-end="url(#arrowhead)" stroke="none" x1="1417.375" x2="1426.625" y1="42.5" y2="89" />
<line marker-end="url(#arrowhead)" stroke="none" x1="1393.375" x2="1402.625" y1="42.5" y2="89" />
<line marker-end="url(#arrowhead)" stroke="none" x1="1369.375" x2="1378.625" y1="42.5" y2="89" />
<line marker-end="url(#arrowhead)" stroke="none" x1="1345.375" x2="1354.625" y1="42.5" y2="89" />
<line marker-end="url(#arrowhead)" stroke="none" x1="1321.375" x2="1330.625" y1="42.5" y2="89" />
<line marker-end="url(#arrowhead)" stroke="none" x1="1297.375" x2="1306.625" y1="42.5" y2="89" />
<line marker-end="url(#arrowhead)" stroke="none" x1="1273.375" x2="1282.625" y1="42.5" y2="89" />
<line marker-end="url(#arrowhead)" stroke="none" x1="1249.375" x2="1258.625" y1="42.5" y2="89" />
<line marker-end="url(#arrowhead)" stroke="none" x1="1225.375" x2="1234.625" y1="42.5" y2="89" />
<line marker-end="url(#arrowhead)" stroke="none" x1="1201.375" x2="1210.625" y1="42.5" y2="89" />
<line marker-end="url(#arrowhead)" stroke="none" x1="1177.375" x2="1186.625" y1="42.5" y2="89" />
<line marker-end="url(#arrowhead)" stroke="none" x1="1153.375" x2="1162.625" y1="42.5" y2="89" />
<line marker-end="url(#arrowhead)" stroke="none" x1="1129.375" x2="1138.625" y1="42.5" y2="89" />
<line marker-end="url(#arrowhead)" stroke="none" x1="1105.375" x2="1114.625" y1="42.5" y2="89" />
<line marker-end="url(#arrowhead)" stroke="none" x1="1081.375" x2="1090.625" y1="42.5" y2="89" />
<line marker-end="url(#arrowhead)" stroke="none" x1="1057.375" x2="1066.625" y1="42.5" y2="89" />
<line marker-end="url(#arrowhead)" stroke="none" x1="1033.375" x2="1042.625" y1="42.5" y2="89" />
<line marker-end="url(#arrowhead)" stroke="none" x1="1009.375" x2="1018.625" y1="42.5" y2="89" />
<line marker-end="url(#arrowhead)" stroke="none" x1="985.375" x2="994.625" y1="42.5" y2="89" />
<line marker-end="url(#arrowhead)" stroke="none" x1="961.375" x2="970.625" y1="42.5" y2="89" />
<line marker-end="url(#arrowhead)" stroke="none" x1="937.375" x2="946.625" y1="42.5" y2="89" />
<line marker-end="url(#arrowhead)" stroke="none" x1="913.375" x2="922.625" y1="42.5" y2="89" />
<line marker-end="url(#arrowhead)" stroke="none" x1="889.375" x2="898.625" y1="42.5" y2="89" />
<line marker-end="url(#arrowhead)" stroke="none" x1="865.375" x2="874.625" y1="42.5" y2="89" />
<line marker-end="url(#arrowhead)" stroke="none" x1="841.375" x2="850.625" y1="42.5" y2="89" />
<line marker-end="url(#arrowhead)" stroke="none" x1="817.375" x2="826.625" y1="42.5" y2="89" />
<line marker-end="url(#arrowhead)" stroke="none" x1="793.375" x2="802.625" y1="42.5" y2="89" />
<line marker-end="url(#arrowhead)" stroke="none" x1="769.375" x2="778.625" y1="42.5" y2="89" />
<line marker-end="url(#arrowhead)" stroke="none" x1="745.375" x2="754.625" y1="42.5" y2="89" />
<line marker-end="url(#arrowhead)" stroke="none" x1="721.375" x2="730.625" y1="42.5" y2="89" />
<line marker-end="url(#arrowhead)" stroke="none" x1="697.375" x2="706.625" y1="42.5" y2="89" />
<line marker-end="url(#arrowhead)" stroke="none" x1="673.375" x2="682.625" y1="42.5" y2="89" />
<line marker-end="url(#arrowhead)" stroke="none" x1="649.375" x2="658.625" y1="42.5" y2="89" />
<line marker-end="url(#arrowhead)" stroke="none" x1="625.375" x2="634.625" y1="42.5" y2="89" />
<line marker-end="url(#arrowhead)" stroke="none" x1="601.375" x2="610.625" y1="42.5" y2="89" />
<line marker-end="url(#arrowhead)" stroke="none" x1="577.375" x2="586.625" y1="42.5" y2="89" />
<line marker-end="url(#arrowhead)" stroke="none" x1="553.375" x2="562.625" y1="42.5" y2="89" />
<line marker-end="url(#arrowhead)" stroke="none" x1="529.375" x2="538.625" y1="42.5" y2="89" />
<line marker-end="url(#arrowhead)" stroke="none" x1="505.375" x2="514.625" y1="42.5" y2="89" />
<line marker-end="url(#arrowhead)" stroke="none" x1="481.375" x2="490.625" y1="42.5" y2="89" />
<line marker-end="url(#arrowhead)" stroke="none" x1="457.375" x2="466.625" y1="42.5" y2="89" />
<line marker-end="url(#arrowhead)" stroke="none" x1="433.375" x2="442.625" y1="42.5" y2="89" />
<line marker-end="url(#arrowhead)" stroke="none" x1="409.375" x2="418.625" y1="42.5" y2="89" />
<line marker-end="url(#arrowhead)" stroke="none" x1="385.375" x2="394.625" y1="42.5" y2="89" />
<line marker-end="url(#arrowhead)" stroke="none" x1="361.375" x2="370.625" y1="42.5" y2="89" />
<line marker-end="url(#arrowhead)" stroke="none" x1="337.375" x2="346.625" y1="42.5" y2="89" />
<line marker-end="url(#arrowhead)" stroke="none" x1="313.375" x2="322.625" y1="42.5" y2="89" />
<line marker-end="url(#arrowhead)" stroke="none" x1="289.375" x2="298.625" y1="42.5" y2="89" />
<line marker-end="url(#arrowhead)" stroke="none" x1="265.375" x2="274.625" y1="42.5" y2="89" />
<line marker-end="url(#arrowhead)" stroke="none" x1="241.375" x2="250.625" y1="42.5" y2="89" />
<line marker-end="url(#arrowhead)" stroke="none" x1="217.375" x2="226.625" y1="42.5" y2="89" />
<line marker-end="url(#arrowhead)" stroke="none" x1="193.375" x2="202.625" y1="42.5" y2="89" />
<line marker-end="url(#arrowhead)" stroke="none" x1="169.375" x2="178.625" y1="42.5" y2="89" />
<line marker-end="url(#arrowhead)" stroke="none" x1="145.375" x2="154.625" y1="42.5" y2="89" />
<line marker-end="url(#arrowhead)" stroke="none" x1="121.375" x2="130.625" y1="42.5" y2="89" />
<line marker-end="url(#arrowhead)" stroke="none" x1="97.375" x2="106.625" y1="42.5" y2="89" />
</svg>