<svg xmlns="http://www.w3.org/2000/svg" viewBox="0 0 486 195">
<style>
.label { font: 14px Helvetica; dominant-baseline: middle; text-anchor: middle; }
.title-left { font: 12px Helvetica; dominant-baseline: middle; }
.title-right { font: 12px Helvetica; dominant-baseline: middle; text-anchor: end; }
.title-intrinsic { font: 12px Helvetica; dominant-baseline: middle; text-anchor: middle; fill: #6778ED; }
.title { font: 12px Helvetica; dominant-baseline: middle; text-anchor: middle; }
.title-unused { font: 12px Helvetica; dominant-baseline: middle; text-anchor: middle; fill: #AAA; }
.register-name { font: 14px Helvetica; dominant-baseline: middle; text-anchor: end; font-style: italic; }
.memory-name { font: 14px Helvetica; dominant-baseline: middle; text-anchor: end; }
.register-number { font: 14px Helvetica; dominant-baseline: middle; text-anchor: start; }
.intrinsic-name { font: 14px Helvetica; dominant-baseline: middle; text-anchor: end; fill: #6778ED; }
.intrinsic-color { fill: #6778ED; }
.small-label { font: 12px Helvetica; dominant-baseline: middle; text-anchor: middle; }
.label-10px { font: 10px Helvetica; dominant-baseline: middle; text-anchor: middle; }
.smaller-label { font: 9px Helvetica; dominant-baseline: middle; text-anchor: middle; }
.label-6px { font: 6px Helvetica; dominant-baseline: middle; text-anchor: middle; }
.label-7px { font: 7px Helvetica; dominant-baseline: middle; text-anchor: middle; }
.unused { fill: #AAA; }
.dim { fill: #888; }
</style>
<defs>
<marker id="arrowhead" markerWidth="9.5" markerHeight="21.0" refX="7.75" refY="5.25" orient="auto">
<polyline points="0.5 0.5, 7.5 5.25, 0.5 10.0" stroke="#567DB6" stroke-width="1" fill="none"/>
</marker>
</defs>
<line stroke="#567DB6" stroke-width="1" x1="300" x2="372" y1="114.5" y2="161" />
<line stroke="#567DB6" stroke-width="1" x1="288" x2="276" y1="114.5" y2="161" />
<line stroke="#567DB6" stroke-dasharray="3 3" stroke-width="0.75" x1="426" x2="186" y1="42.5" y2="89.5" />
<line stroke="#567DB6" stroke-dasharray="3 3" stroke-width="0.75" x1="474" x2="378" y1="42.5" y2="89.5" />
<text class="title-left" x="90" y="9">upper</text>
<text class="title-right" x="474" y="9">lower</text>
<text class="title-unused" x="366" y="80.5">0</text>
<text class="title-unused" x="342" y="80.5">1</text>
<text class="title-unused" x="318" y="80.5">2</text>
<text class="title-intrinsic" x="294" y="80.5">imm=3</text>
<text class="title-unused" x="270" y="80.5">4</text>
<text class="title-unused" x="246" y="80.5">5</text>
<text class="title-unused" x="222" y="80.5">6</text>
<text class="title-unused" x="198" y="80.5">7</text>
<rect fill="none" height="24" stroke="#405C86" stroke-width="2" width="6" x="468" y="18" />
<rect fill="none" height="24" stroke="#405C86" stroke-width="2" width="6" x="462" y="18" />
<rect fill="none" height="24" stroke="#405C86" stroke-width="2" width="6" x="456" y="18" />
<rect fill="#DEE6F1" height="24" width="6" x="450" y="18" />
<rect fill="none" height="24" stroke="#405C86" stroke-width="2" width="6" x="450" y="18" />
<rect fill="none" height="24" stroke="#405C86" stroke-width="2" width="6" x="444" y="18" />
<rect fill="none" height="24" stroke="#405C86" stroke-width="2" width="6" x="438" y="18" />
<rect fill="none" height="24" stroke="#405C86" stroke-width="2" width="6" x="432" y="18" />
<rect fill="none" height="24" stroke="#405C86" stroke-width="2" width="6" x="426" y="18" />
<rect fill="none" height="24" stroke="#405C86" stroke-dasharray="3 1" stroke-dashoffset="1.5" stroke-width="1" width="336" x="90" y="18" />
<text class="label unused" x="258" y="31"></text>
<text class="register-name" x="80" y="30">Zn</text>
<text class="register-number" x="10" y="30">(1)</text>
<rect fill="#DEE6F1" height="24" width="12" x="366" y="162" />
<rect fill="none" height="24" stroke="#405C86" stroke-width="2" width="12" x="366" y="162" />
<rect fill="none" height="24" stroke="#405C86" stroke-dasharray="3 1" stroke-dashoffset="1.5" stroke-width="1" width="12" x="354" y="162" />
<text class="label unused" x="360" y="175">0</text>
<rect fill="none" height="24" stroke="#405C86" stroke-dasharray="3 1" stroke-dashoffset="1.5" stroke-width="1" width="12" x="342" y="162" />
<text class="label unused" x="348" y="175">0</text>
<rect fill="none" height="24" stroke="#405C86" stroke-dasharray="3 1" stroke-dashoffset="1.5" stroke-width="1" width="12" x="330" y="162" />
<text class="label unused" x="336" y="175">0</text>
<rect fill="none" height="24" stroke="#405C86" stroke-dasharray="3 1" stroke-dashoffset="1.5" stroke-width="1" width="12" x="318" y="162" />
<text class="label unused" x="324" y="175">0</text>
<rect fill="none" height="24" stroke="#405C86" stroke-dasharray="3 1" stroke-dashoffset="1.5" stroke-width="1" width="12" x="306" y="162" />
<text class="label unused" x="312" y="175">0</text>
<rect fill="none" height="24" stroke="#405C86" stroke-dasharray="3 1" stroke-dashoffset="1.5" stroke-width="1" width="12" x="294" y="162" />
<text class="label unused" x="300" y="175">0</text>
<rect fill="none" height="24" stroke="#405C86" stroke-dasharray="3 1" stroke-dashoffset="1.5" stroke-width="1" width="12" x="282" y="162" />
<text class="label unused" x="288" y="175">0</text>
<rect fill="#DEE6F1" height="24" width="12" x="270" y="162" />
<rect fill="none" height="24" stroke="#405C86" stroke-width="2" width="12" x="270" y="162" />
<rect fill="none" height="24" stroke="#405C86" stroke-dasharray="3 1" stroke-dashoffset="1.5" stroke-width="1" width="12" x="258" y="162" />
<text class="label unused" x="264" y="175">0</text>
<rect fill="none" height="24" stroke="#405C86" stroke-dasharray="3 1" stroke-dashoffset="1.5" stroke-width="1" width="12" x="246" y="162" />
<text class="label unused" x="252" y="175">0</text>
<rect fill="none" height="24" stroke="#405C86" stroke-dasharray="3 1" stroke-dashoffset="1.5" stroke-width="1" width="12" x="234" y="162" />
<text class="label unused" x="240" y="175">0</text>
<rect fill="none" height="24" stroke="#405C86" stroke-dasharray="3 1" stroke-dashoffset="1.5" stroke-width="1" width="12" x="222" y="162" />
<text class="label unused" x="228" y="175">0</text>
<rect fill="none" height="24" stroke="#405C86" stroke-dasharray="3 1" stroke-dashoffset="1.5" stroke-width="1" width="12" x="210" y="162" />
<text class="label unused" x="216" y="175">0</text>
<rect fill="none" height="24" stroke="#405C86" stroke-dasharray="3 1" stroke-dashoffset="1.5" stroke-width="1" width="12" x="198" y="162" />
<text class="label unused" x="204" y="175">0</text>
<rect fill="none" height="24" stroke="#405C86" stroke-dasharray="3 1" stroke-dashoffset="1.5" stroke-width="1" width="12" x="186" y="162" />
<text class="label unused" x="192" y="175">0</text>
<text class="register-name" x="80" y="174">Pd</text>
<text class="register-number" x="10" y="174">(2)</text>
<line stroke="#405C86" stroke-dasharray="3 1" stroke-width="0.75" x1="366" x2="366" y1="90" y2="114" />
<rect fill="none" height="24" stroke="#405C86" stroke-width="2" width="24" x="354" y="90" />
<line stroke="#405C86" stroke-dasharray="3 1" stroke-width="0.75" x1="342" x2="342" y1="90" y2="114" />
<rect fill="none" height="24" stroke="#405C86" stroke-width="2" width="24" x="330" y="90" />
<line stroke="#405C86" stroke-dasharray="3 1" stroke-width="0.75" x1="318" x2="318" y1="90" y2="114" />
<rect fill="none" height="24" stroke="#405C86" stroke-width="2" width="24" x="306" y="90" />
<rect fill="#DEE6F1" height="24" width="24" x="282" y="90" />
<line stroke="#405C86" stroke-dasharray="3 1" stroke-width="0.75" x1="294" x2="294" y1="90" y2="114" />
<rect fill="none" height="24" stroke="#405C86" stroke-width="2" width="24" x="282" y="90" />
<line stroke="#405C86" stroke-dasharray="3 1" stroke-width="0.75" x1="270" x2="270" y1="90" y2="114" />
<rect fill="none" height="24" stroke="#405C86" stroke-width="2" width="24" x="258" y="90" />
<line stroke="#405C86" stroke-dasharray="3 1" stroke-width="0.75" x1="246" x2="246" y1="90" y2="114" />
<rect fill="none" height="24" stroke="#405C86" stroke-width="2" width="24" x="234" y="90" />
<line stroke="#405C86" stroke-dasharray="3 1" stroke-width="0.75" x1="222" x2="222" y1="90" y2="114" />
<rect fill="none" height="24" stroke="#405C86" stroke-width="2" width="24" x="210" y="90" />
<line stroke="#405C86" stroke-dasharray="3 1" stroke-width="0.75" x1="198" x2="198" y1="90" y2="114" />
<rect fill="none" height="24" stroke="#405C86" stroke-width="2" width="24" x="186" y="90" />
<line marker-end="url(#arrowhead)" stroke="none" x1="300" x2="372" y1="114.5" y2="161" />
<line marker-end="url(#arrowhead)" stroke="none" x1="288" x2="276" y1="114.5" y2="161" />
</svg>