<svg xmlns="http://www.w3.org/2000/svg" viewBox="0 0 870 267">
<style>
.label { font: 14px Helvetica; dominant-baseline: middle; text-anchor: middle; }
.title-left { font: 12px Helvetica; dominant-baseline: middle; }
.title-right { font: 12px Helvetica; dominant-baseline: middle; text-anchor: end; }
.title-intrinsic { font: 12px Helvetica; dominant-baseline: middle; text-anchor: middle; fill: #6778ED; }
.title { font: 12px Helvetica; dominant-baseline: middle; text-anchor: middle; }
.title-unused { font: 12px Helvetica; dominant-baseline: middle; text-anchor: middle; fill: #AAA; }
.register-name { font: 14px Helvetica; dominant-baseline: middle; text-anchor: end; font-style: italic; }
.memory-name { font: 14px Helvetica; dominant-baseline: middle; text-anchor: end; }
.register-number { font: 14px Helvetica; dominant-baseline: middle; text-anchor: start; }
.intrinsic-name { font: 14px Helvetica; dominant-baseline: middle; text-anchor: end; fill: #6778ED; }
.intrinsic-color { fill: #6778ED; }
.small-label { font: 12px Helvetica; dominant-baseline: middle; text-anchor: middle; }
.label-10px { font: 10px Helvetica; dominant-baseline: middle; text-anchor: middle; }
.smaller-label { font: 9px Helvetica; dominant-baseline: middle; text-anchor: middle; }
.label-6px { font: 6px Helvetica; dominant-baseline: middle; text-anchor: middle; }
.label-7px { font: 7px Helvetica; dominant-baseline: middle; text-anchor: middle; }
.unused { fill: #AAA; }
.dim { fill: #888; }
</style>
<defs>
<marker id="arrowhead" markerWidth="9.5" markerHeight="21.0" refX="7.75" refY="5.25" orient="auto">
<polyline points="0.5 0.5, 7.5 5.25, 0.5 10.0" stroke="#567DB6" stroke-width="1" fill="none"/>
</marker>
</defs>
<line stroke="#567DB6" stroke-width="1" x1="660" x2="611.75" y1="114.5" y2="161" />
<line stroke="#567DB6" stroke-width="1" x1="564" x2="599.75" y1="114.5" y2="161" />
<line stroke="#567DB6" stroke-width="1" x1="468" x2="588.25" y1="114.5" y2="161" />
<line stroke="#567DB6" stroke-width="1" x1="372" x2="576.25" y1="114.5" y2="161" />
<line stroke="#567DB6" stroke-dasharray="3 3" stroke-width="0.75" x1="282" x2="762" y1="186.5" y2="233.5" />
<line stroke="#567DB6" stroke-dasharray="3 3" stroke-width="0.75" x1="666" x2="858" y1="186.5" y2="233.5" />
<line stroke="#567DB6" stroke-dasharray="3 3" stroke-width="0.75" x1="762" x2="282" y1="42.5" y2="161.5" />
<line stroke="#567DB6" stroke-dasharray="3 3" stroke-width="0.75" x1="858" x2="666" y1="42.5" y2="161.5" />
<text class="title-left" x="90" y="9">upper</text>
<text class="title-right" x="858" y="9">lower</text>
<text class="title-left" x="90" y="51.5">if imm ≠ 0, preserve all other bits from Zd</text>
<text class="title-left" x="90" y="64.5">if imm = 0, fill with zero</text>
<text class="title-unused" x="642" y="152.5">0</text>
<text class="title-intrinsic" x="594" y="195.5">imm=1</text>
<text class="title-unused" x="546" y="152.5">2</text>
<text class="title-unused" x="498" y="152.5">3</text>
<text class="title-unused" x="450" y="152.5">4</text>
<text class="title-unused" x="402" y="152.5">5</text>
<text class="title-unused" x="354" y="152.5">6</text>
<text class="title-unused" x="306" y="152.5">7</text>
<rect fill="#ECF1E0" height="24" width="12" x="846" y="18" />
<rect fill="none" height="24" stroke="#405C86" stroke-width="2" width="12" x="846" y="18" />
<rect fill="#ECF1E0" height="24" width="12" x="834" y="18" />
<rect fill="none" height="24" stroke="#405C86" stroke-width="2" width="12" x="834" y="18" />
<rect fill="#ECF1E0" height="24" width="12" x="822" y="18" />
<rect fill="none" height="24" stroke="#405C86" stroke-width="2" width="12" x="822" y="18" />
<rect fill="#ECF1E0" height="24" width="12" x="810" y="18" />
<rect fill="none" height="24" stroke="#405C86" stroke-width="2" width="12" x="810" y="18" />
<rect fill="#ECF1E0" height="24" width="12" x="798" y="18" />
<rect fill="none" height="24" stroke="#405C86" stroke-width="2" width="12" x="798" y="18" />
<rect fill="#ECF1E0" height="24" width="12" x="786" y="18" />
<rect fill="none" height="24" stroke="#405C86" stroke-width="2" width="12" x="786" y="18" />
<rect fill="#ECF1E0" height="24" width="12" x="774" y="18" />
<rect fill="none" height="24" stroke="#405C86" stroke-width="2" width="12" x="774" y="18" />
<rect fill="#ECF1E0" height="24" width="12" x="762" y="18" />
<rect fill="none" height="24" stroke="#405C86" stroke-width="2" width="12" x="762" y="18" />
<rect fill="#ECF1E0" height="24" width="672" x="90" y="18" />
<rect fill="none" height="24" stroke="#405C86" stroke-width="2" width="672" x="90" y="18" />
<text class="register-name" x="80" y="30">Zd or 0</text>
<text class="register-number" x="10" y="30">(1)</text>
<rect fill="#DEE6F1" height="24" width="12" x="654" y="90" />
<rect fill="none" height="24" stroke="#405C86" stroke-width="2" width="12" x="654" y="90" />
<rect fill="none" height="24" stroke="#405C86" stroke-dasharray="3 1" stroke-dashoffset="1.5" stroke-width="1" width="12" x="642" y="90" />
<text class="label unused" x="648" y="103"></text>
<rect fill="none" height="24" stroke="#405C86" stroke-dasharray="3 1" stroke-dashoffset="1.5" stroke-width="1" width="12" x="630" y="90" />
<text class="label unused" x="636" y="103"></text>
<rect fill="none" height="24" stroke="#405C86" stroke-dasharray="3 1" stroke-dashoffset="1.5" stroke-width="1" width="12" x="618" y="90" />
<text class="label unused" x="624" y="103"></text>
<rect fill="none" height="24" stroke="#405C86" stroke-dasharray="3 1" stroke-dashoffset="1.5" stroke-width="1" width="12" x="606" y="90" />
<text class="label unused" x="612" y="103"></text>
<rect fill="none" height="24" stroke="#405C86" stroke-dasharray="3 1" stroke-dashoffset="1.5" stroke-width="1" width="12" x="594" y="90" />
<text class="label unused" x="600" y="103"></text>
<rect fill="none" height="24" stroke="#405C86" stroke-dasharray="3 1" stroke-dashoffset="1.5" stroke-width="1" width="12" x="582" y="90" />
<text class="label unused" x="588" y="103"></text>
<rect fill="none" height="24" stroke="#405C86" stroke-dasharray="3 1" stroke-dashoffset="1.5" stroke-width="1" width="12" x="570" y="90" />
<text class="label unused" x="576" y="103"></text>
<rect fill="#DEE6F1" height="24" width="12" x="558" y="90" />
<rect fill="none" height="24" stroke="#405C86" stroke-width="2" width="12" x="558" y="90" />
<rect fill="none" height="24" stroke="#405C86" stroke-dasharray="3 1" stroke-dashoffset="1.5" stroke-width="1" width="12" x="546" y="90" />
<text class="label unused" x="552" y="103"></text>
<rect fill="none" height="24" stroke="#405C86" stroke-dasharray="3 1" stroke-dashoffset="1.5" stroke-width="1" width="12" x="534" y="90" />
<text class="label unused" x="540" y="103"></text>
<rect fill="none" height="24" stroke="#405C86" stroke-dasharray="3 1" stroke-dashoffset="1.5" stroke-width="1" width="12" x="522" y="90" />
<text class="label unused" x="528" y="103"></text>
<rect fill="none" height="24" stroke="#405C86" stroke-dasharray="3 1" stroke-dashoffset="1.5" stroke-width="1" width="12" x="510" y="90" />
<text class="label unused" x="516" y="103"></text>
<rect fill="none" height="24" stroke="#405C86" stroke-dasharray="3 1" stroke-dashoffset="1.5" stroke-width="1" width="12" x="498" y="90" />
<text class="label unused" x="504" y="103"></text>
<rect fill="none" height="24" stroke="#405C86" stroke-dasharray="3 1" stroke-dashoffset="1.5" stroke-width="1" width="12" x="486" y="90" />
<text class="label unused" x="492" y="103"></text>
<rect fill="none" height="24" stroke="#405C86" stroke-dasharray="3 1" stroke-dashoffset="1.5" stroke-width="1" width="12" x="474" y="90" />
<text class="label unused" x="480" y="103"></text>
<rect fill="#DEE6F1" height="24" width="12" x="462" y="90" />
<rect fill="none" height="24" stroke="#405C86" stroke-width="2" width="12" x="462" y="90" />
<rect fill="none" height="24" stroke="#405C86" stroke-dasharray="3 1" stroke-dashoffset="1.5" stroke-width="1" width="12" x="450" y="90" />
<text class="label unused" x="456" y="103"></text>
<rect fill="none" height="24" stroke="#405C86" stroke-dasharray="3 1" stroke-dashoffset="1.5" stroke-width="1" width="12" x="438" y="90" />
<text class="label unused" x="444" y="103"></text>
<rect fill="none" height="24" stroke="#405C86" stroke-dasharray="3 1" stroke-dashoffset="1.5" stroke-width="1" width="12" x="426" y="90" />
<text class="label unused" x="432" y="103"></text>
<rect fill="none" height="24" stroke="#405C86" stroke-dasharray="3 1" stroke-dashoffset="1.5" stroke-width="1" width="12" x="414" y="90" />
<text class="label unused" x="420" y="103"></text>
<rect fill="none" height="24" stroke="#405C86" stroke-dasharray="3 1" stroke-dashoffset="1.5" stroke-width="1" width="12" x="402" y="90" />
<text class="label unused" x="408" y="103"></text>
<rect fill="none" height="24" stroke="#405C86" stroke-dasharray="3 1" stroke-dashoffset="1.5" stroke-width="1" width="12" x="390" y="90" />
<text class="label unused" x="396" y="103"></text>
<rect fill="none" height="24" stroke="#405C86" stroke-dasharray="3 1" stroke-dashoffset="1.5" stroke-width="1" width="12" x="378" y="90" />
<text class="label unused" x="384" y="103"></text>
<rect fill="#DEE6F1" height="24" width="12" x="366" y="90" />
<rect fill="none" height="24" stroke="#405C86" stroke-width="2" width="12" x="366" y="90" />
<rect fill="none" height="24" stroke="#405C86" stroke-dasharray="3 1" stroke-dashoffset="1.5" stroke-width="1" width="12" x="354" y="90" />
<text class="label unused" x="360" y="103"></text>
<rect fill="none" height="24" stroke="#405C86" stroke-dasharray="3 1" stroke-dashoffset="1.5" stroke-width="1" width="12" x="342" y="90" />
<text class="label unused" x="348" y="103"></text>
<rect fill="none" height="24" stroke="#405C86" stroke-dasharray="3 1" stroke-dashoffset="1.5" stroke-width="1" width="12" x="330" y="90" />
<text class="label unused" x="336" y="103"></text>
<rect fill="none" height="24" stroke="#405C86" stroke-dasharray="3 1" stroke-dashoffset="1.5" stroke-width="1" width="12" x="318" y="90" />
<text class="label unused" x="324" y="103"></text>
<rect fill="none" height="24" stroke="#405C86" stroke-dasharray="3 1" stroke-dashoffset="1.5" stroke-width="1" width="12" x="306" y="90" />
<text class="label unused" x="312" y="103"></text>
<rect fill="none" height="24" stroke="#405C86" stroke-dasharray="3 1" stroke-dashoffset="1.5" stroke-width="1" width="12" x="294" y="90" />
<text class="label unused" x="300" y="103"></text>
<rect fill="none" height="24" stroke="#405C86" stroke-dasharray="3 1" stroke-dashoffset="1.5" stroke-width="1" width="12" x="282" y="90" />
<text class="label unused" x="288" y="103"></text>
<text class="register-name" x="80" y="102">Pn</text>
<text class="register-number" x="10" y="102">(2)</text>
<rect fill="#ECF1E0" height="24" width="48" x="618" y="162" />
<line stroke="#405C86" stroke-dasharray="3 1" stroke-width="0.75" x1="653.5" x2="653.5" y1="162" y2="186" />
<line stroke="#405C86" stroke-dasharray="3 1" stroke-width="0.75" x1="642" x2="642" y1="162" y2="186" />
<line stroke="#405C86" stroke-dasharray="3 1" stroke-width="0.75" x1="630.5" x2="630.5" y1="162" y2="186" />
<rect fill="none" height="24" stroke="#405C86" stroke-width="2" width="48" x="618" y="162" />
<rect fill="#DEE6F1" height="24" width="48" x="570" y="162" />
<line stroke="#405C86" stroke-dasharray="3 1" stroke-width="0.75" x1="605.5" x2="605.5" y1="162" y2="186" />
<line stroke="#405C86" stroke-dasharray="3 1" stroke-width="0.75" x1="594" x2="594" y1="162" y2="186" />
<line stroke="#405C86" stroke-dasharray="3 1" stroke-width="0.75" x1="582.5" x2="582.5" y1="162" y2="186" />
<rect fill="none" height="24" stroke="#405C86" stroke-width="2" width="48" x="570" y="162" />
<rect fill="#ECF1E0" height="24" width="48" x="522" y="162" />
<line stroke="#405C86" stroke-dasharray="3 1" stroke-width="0.75" x1="557.5" x2="557.5" y1="162" y2="186" />
<line stroke="#405C86" stroke-dasharray="3 1" stroke-width="0.75" x1="546" x2="546" y1="162" y2="186" />
<line stroke="#405C86" stroke-dasharray="3 1" stroke-width="0.75" x1="534.5" x2="534.5" y1="162" y2="186" />
<rect fill="none" height="24" stroke="#405C86" stroke-width="2" width="48" x="522" y="162" />
<rect fill="#ECF1E0" height="24" width="48" x="474" y="162" />
<line stroke="#405C86" stroke-dasharray="3 1" stroke-width="0.75" x1="509.5" x2="509.5" y1="162" y2="186" />
<line stroke="#405C86" stroke-dasharray="3 1" stroke-width="0.75" x1="498" x2="498" y1="162" y2="186" />
<line stroke="#405C86" stroke-dasharray="3 1" stroke-width="0.75" x1="486.5" x2="486.5" y1="162" y2="186" />
<rect fill="none" height="24" stroke="#405C86" stroke-width="2" width="48" x="474" y="162" />
<rect fill="#ECF1E0" height="24" width="48" x="426" y="162" />
<line stroke="#405C86" stroke-dasharray="3 1" stroke-width="0.75" x1="461.5" x2="461.5" y1="162" y2="186" />
<line stroke="#405C86" stroke-dasharray="3 1" stroke-width="0.75" x1="450" x2="450" y1="162" y2="186" />
<line stroke="#405C86" stroke-dasharray="3 1" stroke-width="0.75" x1="438.5" x2="438.5" y1="162" y2="186" />
<rect fill="none" height="24" stroke="#405C86" stroke-width="2" width="48" x="426" y="162" />
<rect fill="#ECF1E0" height="24" width="48" x="378" y="162" />
<line stroke="#405C86" stroke-dasharray="3 1" stroke-width="0.75" x1="413.5" x2="413.5" y1="162" y2="186" />
<line stroke="#405C86" stroke-dasharray="3 1" stroke-width="0.75" x1="402" x2="402" y1="162" y2="186" />
<line stroke="#405C86" stroke-dasharray="3 1" stroke-width="0.75" x1="390.5" x2="390.5" y1="162" y2="186" />
<rect fill="none" height="24" stroke="#405C86" stroke-width="2" width="48" x="378" y="162" />
<rect fill="#ECF1E0" height="24" width="48" x="330" y="162" />
<line stroke="#405C86" stroke-dasharray="3 1" stroke-width="0.75" x1="365.5" x2="365.5" y1="162" y2="186" />
<line stroke="#405C86" stroke-dasharray="3 1" stroke-width="0.75" x1="354" x2="354" y1="162" y2="186" />
<line stroke="#405C86" stroke-dasharray="3 1" stroke-width="0.75" x1="342.5" x2="342.5" y1="162" y2="186" />
<rect fill="none" height="24" stroke="#405C86" stroke-width="2" width="48" x="330" y="162" />
<rect fill="#ECF1E0" height="24" width="48" x="282" y="162" />
<line stroke="#405C86" stroke-dasharray="3 1" stroke-width="0.75" x1="317.5" x2="317.5" y1="162" y2="186" />
<line stroke="#405C86" stroke-dasharray="3 1" stroke-width="0.75" x1="306" x2="306" y1="162" y2="186" />
<line stroke="#405C86" stroke-dasharray="3 1" stroke-width="0.75" x1="294.5" x2="294.5" y1="162" y2="186" />
<rect fill="none" height="24" stroke="#405C86" stroke-width="2" width="48" x="282" y="162" />
<rect fill="#ECF1E0" height="24" width="12" x="846" y="234" />
<rect fill="none" height="24" stroke="#405C86" stroke-width="2" width="12" x="846" y="234" />
<rect fill="#DEE6F1" height="24" width="12" x="834" y="234" />
<rect fill="none" height="24" stroke="#405C86" stroke-width="2" width="12" x="834" y="234" />
<rect fill="#ECF1E0" height="24" width="12" x="822" y="234" />
<rect fill="none" height="24" stroke="#405C86" stroke-width="2" width="12" x="822" y="234" />
<rect fill="#ECF1E0" height="24" width="12" x="810" y="234" />
<rect fill="none" height="24" stroke="#405C86" stroke-width="2" width="12" x="810" y="234" />
<rect fill="#ECF1E0" height="24" width="12" x="798" y="234" />
<rect fill="none" height="24" stroke="#405C86" stroke-width="2" width="12" x="798" y="234" />
<rect fill="#ECF1E0" height="24" width="12" x="786" y="234" />
<rect fill="none" height="24" stroke="#405C86" stroke-width="2" width="12" x="786" y="234" />
<rect fill="#ECF1E0" height="24" width="12" x="774" y="234" />
<rect fill="none" height="24" stroke="#405C86" stroke-width="2" width="12" x="774" y="234" />
<rect fill="#ECF1E0" height="24" width="12" x="762" y="234" />
<rect fill="none" height="24" stroke="#405C86" stroke-width="2" width="12" x="762" y="234" />
<rect fill="#ECF1E0" height="24" width="672" x="90" y="234" />
<rect fill="none" height="24" stroke="#405C86" stroke-width="2" width="672" x="90" y="234" />
<text class="register-name" x="80" y="246">Zd</text>
<text class="register-number" x="10" y="246">(3)</text>
<line marker-end="url(#arrowhead)" stroke="none" x1="660" x2="611.75" y1="114.5" y2="161" />
<line marker-end="url(#arrowhead)" stroke="none" x1="564" x2="599.75" y1="114.5" y2="161" />
<line marker-end="url(#arrowhead)" stroke="none" x1="468" x2="588.25" y1="114.5" y2="161" />
<line marker-end="url(#arrowhead)" stroke="none" x1="372" x2="576.25" y1="114.5" y2="161" />
</svg>