<svg xmlns="http://www.w3.org/2000/svg" viewBox="0 0 870 195">
<style>
.label { font: 14px Helvetica; dominant-baseline: middle; text-anchor: middle; }
.title-left { font: 12px Helvetica; dominant-baseline: middle; }
.title-right { font: 12px Helvetica; dominant-baseline: middle; text-anchor: end; }
.title-intrinsic { font: 12px Helvetica; dominant-baseline: middle; text-anchor: middle; fill: #6778ED; }
.title { font: 12px Helvetica; dominant-baseline: middle; text-anchor: middle; }
.title-unused { font: 12px Helvetica; dominant-baseline: middle; text-anchor: middle; fill: #AAA; }
.register-name { font: 14px Helvetica; dominant-baseline: middle; text-anchor: end; font-style: italic; }
.memory-name { font: 14px Helvetica; dominant-baseline: middle; text-anchor: end; }
.register-number { font: 14px Helvetica; dominant-baseline: middle; text-anchor: start; }
.intrinsic-name { font: 14px Helvetica; dominant-baseline: middle; text-anchor: end; fill: #6778ED; }
.intrinsic-color { fill: #6778ED; }
.small-label { font: 12px Helvetica; dominant-baseline: middle; text-anchor: middle; }
.label-10px { font: 10px Helvetica; dominant-baseline: middle; text-anchor: middle; }
.smaller-label { font: 9px Helvetica; dominant-baseline: middle; text-anchor: middle; }
.label-6px { font: 6px Helvetica; dominant-baseline: middle; text-anchor: middle; }
.label-7px { font: 7px Helvetica; dominant-baseline: middle; text-anchor: middle; }
.unused { fill: #AAA; }
.dim { fill: #888; }
</style>
<defs>
<marker id="arrowhead" markerWidth="9.5" markerHeight="21.0" refX="7.75" refY="5.25" orient="auto">
<polyline points="0.5 0.5, 7.5 5.25, 0.5 10.0" stroke="#567DB6" stroke-width="1" fill="none"/>
</marker>
</defs>
<line stroke="#567DB6" stroke-width="1" x1="660" x2="659.53125" y1="42.5" y2="89" />
<line stroke="#567DB6" stroke-width="1" x1="648" x2="647.09375" y1="42.5" y2="89" />
<line stroke="#567DB6" stroke-width="1" x1="636" x2="635.15625" y1="42.5" y2="89" />
<line stroke="#567DB6" stroke-width="1" x1="624" x2="623.21875" y1="42.5" y2="89" />
<line stroke="#567DB6" stroke-width="1" x1="612" x2="611.28125" y1="42.5" y2="89" />
<line stroke="#567DB6" stroke-width="1" x1="600" x2="599.34375" y1="42.5" y2="89" />
<line stroke="#567DB6" stroke-width="1" x1="588" x2="587.40625" y1="42.5" y2="89" />
<line stroke="#567DB6" stroke-width="1" x1="576" x2="575.46875" y1="42.5" y2="89" />
<line stroke="#567DB6" stroke-width="1" x1="564" x2="563.53125" y1="42.5" y2="89" />
<line stroke="#567DB6" stroke-width="1" x1="552" x2="551.59375" y1="42.5" y2="89" />
<line stroke="#567DB6" stroke-width="1" x1="540" x2="539.65625" y1="42.5" y2="89" />
<line stroke="#567DB6" stroke-width="1" x1="528" x2="527.71875" y1="42.5" y2="89" />
<line stroke="#567DB6" stroke-width="1" x1="516" x2="515.78125" y1="42.5" y2="89" />
<line stroke="#567DB6" stroke-width="1" x1="504" x2="503.84375" y1="42.5" y2="89" />
<line stroke="#567DB6" stroke-width="1" x1="492" x2="491.90625" y1="42.5" y2="89" />
<line stroke="#567DB6" stroke-width="1" x1="480" x2="479.96875" y1="42.5" y2="89" />
<line stroke="#567DB6" stroke-width="1" x1="468" x2="468.03125" y1="42.5" y2="89" />
<line stroke="#567DB6" stroke-width="1" x1="456" x2="456.09375" y1="42.5" y2="89" />
<line stroke="#567DB6" stroke-width="1" x1="444" x2="444.15625" y1="42.5" y2="89" />
<line stroke="#567DB6" stroke-width="1" x1="432" x2="432.21875" y1="42.5" y2="89" />
<line stroke="#567DB6" stroke-width="1" x1="420" x2="420.28125" y1="42.5" y2="89" />
<line stroke="#567DB6" stroke-width="1" x1="408" x2="408.34375" y1="42.5" y2="89" />
<line stroke="#567DB6" stroke-width="1" x1="396" x2="396.40625" y1="42.5" y2="89" />
<line stroke="#567DB6" stroke-width="1" x1="384" x2="384.46875" y1="42.5" y2="89" />
<line stroke="#567DB6" stroke-width="1" x1="372" x2="372.53125" y1="42.5" y2="89" />
<line stroke="#567DB6" stroke-width="1" x1="360" x2="360.59375" y1="42.5" y2="89" />
<line stroke="#567DB6" stroke-width="1" x1="348" x2="348.65625" y1="42.5" y2="89" />
<line stroke="#567DB6" stroke-width="1" x1="336" x2="336.71875" y1="42.5" y2="89" />
<line stroke="#567DB6" stroke-width="1" x1="324" x2="324.78125" y1="42.5" y2="89" />
<line stroke="#567DB6" stroke-width="1" x1="312" x2="312.84375" y1="42.5" y2="89" />
<line stroke="#567DB6" stroke-width="1" x1="300" x2="300.90625" y1="42.5" y2="89" />
<line stroke="#567DB6" stroke-width="1" x1="288" x2="288.46875" y1="42.5" y2="89" />
<line stroke="#567DB6" stroke-dasharray="3 3" stroke-width="0.75" x1="282" x2="762" y1="114.5" y2="161.5" />
<line stroke="#567DB6" stroke-dasharray="3 3" stroke-width="0.75" x1="666" x2="858" y1="114.5" y2="161.5" />
<text class="title-left" x="90" y="9">upper</text>
<text class="title-right" x="858" y="9">lower</text>
<rect fill="#DEE6F1" height="24" width="12" x="654" y="18" />
<rect fill="none" height="24" stroke="#405C86" stroke-width="2" width="12" x="654" y="18" />
<rect fill="#DEE6F1" height="24" width="12" x="642" y="18" />
<rect fill="none" height="24" stroke="#405C86" stroke-width="2" width="12" x="642" y="18" />
<rect fill="#DEE6F1" height="24" width="12" x="630" y="18" />
<rect fill="none" height="24" stroke="#405C86" stroke-width="2" width="12" x="630" y="18" />
<rect fill="#DEE6F1" height="24" width="12" x="618" y="18" />
<rect fill="none" height="24" stroke="#405C86" stroke-width="2" width="12" x="618" y="18" />
<rect fill="#DEE6F1" height="24" width="12" x="606" y="18" />
<rect fill="none" height="24" stroke="#405C86" stroke-width="2" width="12" x="606" y="18" />
<rect fill="#DEE6F1" height="24" width="12" x="594" y="18" />
<rect fill="none" height="24" stroke="#405C86" stroke-width="2" width="12" x="594" y="18" />
<rect fill="#DEE6F1" height="24" width="12" x="582" y="18" />
<rect fill="none" height="24" stroke="#405C86" stroke-width="2" width="12" x="582" y="18" />
<rect fill="#DEE6F1" height="24" width="12" x="570" y="18" />
<rect fill="none" height="24" stroke="#405C86" stroke-width="2" width="12" x="570" y="18" />
<rect fill="#DEE6F1" height="24" width="12" x="558" y="18" />
<rect fill="none" height="24" stroke="#405C86" stroke-width="2" width="12" x="558" y="18" />
<rect fill="#DEE6F1" height="24" width="12" x="546" y="18" />
<rect fill="none" height="24" stroke="#405C86" stroke-width="2" width="12" x="546" y="18" />
<rect fill="#DEE6F1" height="24" width="12" x="534" y="18" />
<rect fill="none" height="24" stroke="#405C86" stroke-width="2" width="12" x="534" y="18" />
<rect fill="#DEE6F1" height="24" width="12" x="522" y="18" />
<rect fill="none" height="24" stroke="#405C86" stroke-width="2" width="12" x="522" y="18" />
<rect fill="#DEE6F1" height="24" width="12" x="510" y="18" />
<rect fill="none" height="24" stroke="#405C86" stroke-width="2" width="12" x="510" y="18" />
<rect fill="#DEE6F1" height="24" width="12" x="498" y="18" />
<rect fill="none" height="24" stroke="#405C86" stroke-width="2" width="12" x="498" y="18" />
<rect fill="#DEE6F1" height="24" width="12" x="486" y="18" />
<rect fill="none" height="24" stroke="#405C86" stroke-width="2" width="12" x="486" y="18" />
<rect fill="#DEE6F1" height="24" width="12" x="474" y="18" />
<rect fill="none" height="24" stroke="#405C86" stroke-width="2" width="12" x="474" y="18" />
<rect fill="#DEE6F1" height="24" width="12" x="462" y="18" />
<rect fill="none" height="24" stroke="#405C86" stroke-width="2" width="12" x="462" y="18" />
<rect fill="#DEE6F1" height="24" width="12" x="450" y="18" />
<rect fill="none" height="24" stroke="#405C86" stroke-width="2" width="12" x="450" y="18" />
<rect fill="#DEE6F1" height="24" width="12" x="438" y="18" />
<rect fill="none" height="24" stroke="#405C86" stroke-width="2" width="12" x="438" y="18" />
<rect fill="#DEE6F1" height="24" width="12" x="426" y="18" />
<rect fill="none" height="24" stroke="#405C86" stroke-width="2" width="12" x="426" y="18" />
<rect fill="#DEE6F1" height="24" width="12" x="414" y="18" />
<rect fill="none" height="24" stroke="#405C86" stroke-width="2" width="12" x="414" y="18" />
<rect fill="#DEE6F1" height="24" width="12" x="402" y="18" />
<rect fill="none" height="24" stroke="#405C86" stroke-width="2" width="12" x="402" y="18" />
<rect fill="#DEE6F1" height="24" width="12" x="390" y="18" />
<rect fill="none" height="24" stroke="#405C86" stroke-width="2" width="12" x="390" y="18" />
<rect fill="#DEE6F1" height="24" width="12" x="378" y="18" />
<rect fill="none" height="24" stroke="#405C86" stroke-width="2" width="12" x="378" y="18" />
<rect fill="#DEE6F1" height="24" width="12" x="366" y="18" />
<rect fill="none" height="24" stroke="#405C86" stroke-width="2" width="12" x="366" y="18" />
<rect fill="#DEE6F1" height="24" width="12" x="354" y="18" />
<rect fill="none" height="24" stroke="#405C86" stroke-width="2" width="12" x="354" y="18" />
<rect fill="#DEE6F1" height="24" width="12" x="342" y="18" />
<rect fill="none" height="24" stroke="#405C86" stroke-width="2" width="12" x="342" y="18" />
<rect fill="#DEE6F1" height="24" width="12" x="330" y="18" />
<rect fill="none" height="24" stroke="#405C86" stroke-width="2" width="12" x="330" y="18" />
<rect fill="#DEE6F1" height="24" width="12" x="318" y="18" />
<rect fill="none" height="24" stroke="#405C86" stroke-width="2" width="12" x="318" y="18" />
<rect fill="#DEE6F1" height="24" width="12" x="306" y="18" />
<rect fill="none" height="24" stroke="#405C86" stroke-width="2" width="12" x="306" y="18" />
<rect fill="#DEE6F1" height="24" width="12" x="294" y="18" />
<rect fill="none" height="24" stroke="#405C86" stroke-width="2" width="12" x="294" y="18" />
<rect fill="#DEE6F1" height="24" width="12" x="282" y="18" />
<rect fill="none" height="24" stroke="#405C86" stroke-width="2" width="12" x="282" y="18" />
<text class="register-name" x="80" y="30">Pn</text>
<text class="register-number" x="10" y="30">(1)</text>
<rect fill="#DEE6F1" height="24" width="384" x="282" y="90" />
<line stroke="#405C86" stroke-dasharray="3 1" stroke-width="0.75" x1="653.0625" x2="653.0625" y1="90" y2="114" />
<line stroke="#405C86" stroke-dasharray="3 1" stroke-width="0.75" x1="641.125" x2="641.125" y1="90" y2="114" />
<line stroke="#405C86" stroke-dasharray="3 1" stroke-width="0.75" x1="629.1875" x2="629.1875" y1="90" y2="114" />
<line stroke="#405C86" stroke-dasharray="3 1" stroke-width="0.75" x1="617.25" x2="617.25" y1="90" y2="114" />
<line stroke="#405C86" stroke-dasharray="3 1" stroke-width="0.75" x1="605.3125" x2="605.3125" y1="90" y2="114" />
<line stroke="#405C86" stroke-dasharray="3 1" stroke-width="0.75" x1="593.375" x2="593.375" y1="90" y2="114" />
<line stroke="#405C86" stroke-dasharray="3 1" stroke-width="0.75" x1="581.4375" x2="581.4375" y1="90" y2="114" />
<line stroke="#405C86" stroke-dasharray="3 1" stroke-width="0.75" x1="569.5" x2="569.5" y1="90" y2="114" />
<line stroke="#405C86" stroke-dasharray="3 1" stroke-width="0.75" x1="557.5625" x2="557.5625" y1="90" y2="114" />
<line stroke="#405C86" stroke-dasharray="3 1" stroke-width="0.75" x1="545.625" x2="545.625" y1="90" y2="114" />
<line stroke="#405C86" stroke-dasharray="3 1" stroke-width="0.75" x1="533.6875" x2="533.6875" y1="90" y2="114" />
<line stroke="#405C86" stroke-dasharray="3 1" stroke-width="0.75" x1="521.75" x2="521.75" y1="90" y2="114" />
<line stroke="#405C86" stroke-dasharray="3 1" stroke-width="0.75" x1="509.8125" x2="509.8125" y1="90" y2="114" />
<line stroke="#405C86" stroke-dasharray="3 1" stroke-width="0.75" x1="497.875" x2="497.875" y1="90" y2="114" />
<line stroke="#405C86" stroke-dasharray="3 1" stroke-width="0.75" x1="485.9375" x2="485.9375" y1="90" y2="114" />
<line stroke="#405C86" stroke-dasharray="3 1" stroke-width="0.75" x1="474" x2="474" y1="90" y2="114" />
<line stroke="#405C86" stroke-dasharray="3 1" stroke-width="0.75" x1="462.0625" x2="462.0625" y1="90" y2="114" />
<line stroke="#405C86" stroke-dasharray="3 1" stroke-width="0.75" x1="450.125" x2="450.125" y1="90" y2="114" />
<line stroke="#405C86" stroke-dasharray="3 1" stroke-width="0.75" x1="438.1875" x2="438.1875" y1="90" y2="114" />
<line stroke="#405C86" stroke-dasharray="3 1" stroke-width="0.75" x1="426.25" x2="426.25" y1="90" y2="114" />
<line stroke="#405C86" stroke-dasharray="3 1" stroke-width="0.75" x1="414.3125" x2="414.3125" y1="90" y2="114" />
<line stroke="#405C86" stroke-dasharray="3 1" stroke-width="0.75" x1="402.375" x2="402.375" y1="90" y2="114" />
<line stroke="#405C86" stroke-dasharray="3 1" stroke-width="0.75" x1="390.4375" x2="390.4375" y1="90" y2="114" />
<line stroke="#405C86" stroke-dasharray="3 1" stroke-width="0.75" x1="378.5" x2="378.5" y1="90" y2="114" />
<line stroke="#405C86" stroke-dasharray="3 1" stroke-width="0.75" x1="366.5625" x2="366.5625" y1="90" y2="114" />
<line stroke="#405C86" stroke-dasharray="3 1" stroke-width="0.75" x1="354.625" x2="354.625" y1="90" y2="114" />
<line stroke="#405C86" stroke-dasharray="3 1" stroke-width="0.75" x1="342.6875" x2="342.6875" y1="90" y2="114" />
<line stroke="#405C86" stroke-dasharray="3 1" stroke-width="0.75" x1="330.75" x2="330.75" y1="90" y2="114" />
<line stroke="#405C86" stroke-dasharray="3 1" stroke-width="0.75" x1="318.8125" x2="318.8125" y1="90" y2="114" />
<line stroke="#405C86" stroke-dasharray="3 1" stroke-width="0.75" x1="306.875" x2="306.875" y1="90" y2="114" />
<line stroke="#405C86" stroke-dasharray="3 1" stroke-width="0.75" x1="294.9375" x2="294.9375" y1="90" y2="114" />
<rect fill="none" height="24" stroke="#405C86" stroke-width="2" width="384" x="282" y="90" />
<rect fill="#DEE6F1" height="24" width="96" x="762" y="162" />
<rect fill="none" height="24" stroke="#405C86" stroke-width="2" width="96" x="762" y="162" />
<rect fill="none" height="24" stroke="#405C86" stroke-dasharray="3 1" stroke-dashoffset="1.5" stroke-width="1" width="672" x="90" y="162" />
<text class="label unused" x="426" y="175">0</text>
<text class="register-name" x="80" y="174">Zd</text>
<text class="register-number" x="10" y="174">(2)</text>
<line marker-end="url(#arrowhead)" stroke="none" x1="660" x2="659.53125" y1="42.5" y2="89" />
<line marker-end="url(#arrowhead)" stroke="none" x1="648" x2="647.09375" y1="42.5" y2="89" />
<line marker-end="url(#arrowhead)" stroke="none" x1="636" x2="635.15625" y1="42.5" y2="89" />
<line marker-end="url(#arrowhead)" stroke="none" x1="624" x2="623.21875" y1="42.5" y2="89" />
<line marker-end="url(#arrowhead)" stroke="none" x1="612" x2="611.28125" y1="42.5" y2="89" />
<line marker-end="url(#arrowhead)" stroke="none" x1="600" x2="599.34375" y1="42.5" y2="89" />
<line marker-end="url(#arrowhead)" stroke="none" x1="588" x2="587.40625" y1="42.5" y2="89" />
<line marker-end="url(#arrowhead)" stroke="none" x1="576" x2="575.46875" y1="42.5" y2="89" />
<line marker-end="url(#arrowhead)" stroke="none" x1="564" x2="563.53125" y1="42.5" y2="89" />
<line marker-end="url(#arrowhead)" stroke="none" x1="552" x2="551.59375" y1="42.5" y2="89" />
<line marker-end="url(#arrowhead)" stroke="none" x1="540" x2="539.65625" y1="42.5" y2="89" />
<line marker-end="url(#arrowhead)" stroke="none" x1="528" x2="527.71875" y1="42.5" y2="89" />
<line marker-end="url(#arrowhead)" stroke="none" x1="516" x2="515.78125" y1="42.5" y2="89" />
<line marker-end="url(#arrowhead)" stroke="none" x1="504" x2="503.84375" y1="42.5" y2="89" />
<line marker-end="url(#arrowhead)" stroke="none" x1="492" x2="491.90625" y1="42.5" y2="89" />
<line marker-end="url(#arrowhead)" stroke="none" x1="480" x2="479.96875" y1="42.5" y2="89" />
<line marker-end="url(#arrowhead)" stroke="none" x1="468" x2="468.03125" y1="42.5" y2="89" />
<line marker-end="url(#arrowhead)" stroke="none" x1="456" x2="456.09375" y1="42.5" y2="89" />
<line marker-end="url(#arrowhead)" stroke="none" x1="444" x2="444.15625" y1="42.5" y2="89" />
<line marker-end="url(#arrowhead)" stroke="none" x1="432" x2="432.21875" y1="42.5" y2="89" />
<line marker-end="url(#arrowhead)" stroke="none" x1="420" x2="420.28125" y1="42.5" y2="89" />
<line marker-end="url(#arrowhead)" stroke="none" x1="408" x2="408.34375" y1="42.5" y2="89" />
<line marker-end="url(#arrowhead)" stroke="none" x1="396" x2="396.40625" y1="42.5" y2="89" />
<line marker-end="url(#arrowhead)" stroke="none" x1="384" x2="384.46875" y1="42.5" y2="89" />
<line marker-end="url(#arrowhead)" stroke="none" x1="372" x2="372.53125" y1="42.5" y2="89" />
<line marker-end="url(#arrowhead)" stroke="none" x1="360" x2="360.59375" y1="42.5" y2="89" />
<line marker-end="url(#arrowhead)" stroke="none" x1="348" x2="348.65625" y1="42.5" y2="89" />
<line marker-end="url(#arrowhead)" stroke="none" x1="336" x2="336.71875" y1="42.5" y2="89" />
<line marker-end="url(#arrowhead)" stroke="none" x1="324" x2="324.78125" y1="42.5" y2="89" />
<line marker-end="url(#arrowhead)" stroke="none" x1="312" x2="312.84375" y1="42.5" y2="89" />
<line marker-end="url(#arrowhead)" stroke="none" x1="300" x2="300.90625" y1="42.5" y2="89" />
<line marker-end="url(#arrowhead)" stroke="none" x1="288" x2="288.46875" y1="42.5" y2="89" />
</svg>