<svg xmlns="http://www.w3.org/2000/svg" viewBox="0 0 3174 195">
<style>
.label { font: 14px Helvetica; dominant-baseline: middle; text-anchor: middle; }
.title-left { font: 12px Helvetica; dominant-baseline: middle; }
.title-right { font: 12px Helvetica; dominant-baseline: middle; text-anchor: end; }
.title-intrinsic { font: 12px Helvetica; dominant-baseline: middle; text-anchor: middle; fill: #6778ED; }
.title { font: 12px Helvetica; dominant-baseline: middle; text-anchor: middle; }
.title-unused { font: 12px Helvetica; dominant-baseline: middle; text-anchor: middle; fill: #AAA; }
.register-name { font: 14px Helvetica; dominant-baseline: middle; text-anchor: end; font-style: italic; }
.memory-name { font: 14px Helvetica; dominant-baseline: middle; text-anchor: end; }
.register-number { font: 14px Helvetica; dominant-baseline: middle; text-anchor: start; }
.intrinsic-name { font: 14px Helvetica; dominant-baseline: middle; text-anchor: end; fill: #6778ED; }
.intrinsic-color { fill: #6778ED; }
.small-label { font: 12px Helvetica; dominant-baseline: middle; text-anchor: middle; }
.label-10px { font: 10px Helvetica; dominant-baseline: middle; text-anchor: middle; }
.smaller-label { font: 9px Helvetica; dominant-baseline: middle; text-anchor: middle; }
.label-6px { font: 6px Helvetica; dominant-baseline: middle; text-anchor: middle; }
.label-7px { font: 7px Helvetica; dominant-baseline: middle; text-anchor: middle; }
.unused { fill: #AAA; }
.dim { fill: #888; }
</style>
<defs>
<marker id="arrowhead" markerWidth="9.5" markerHeight="21.0" refX="7.75" refY="5.25" orient="auto">
<polyline points="0.5 0.5, 7.5 5.25, 0.5 10.0" stroke="#567DB6" stroke-width="1" fill="none"/>
</marker>
</defs>
<line stroke="#567DB6" stroke-width="1" x1="2003.53125" x2="2388" y1="114.5" y2="161" />
<line stroke="#567DB6" stroke-width="1" x1="1991.09375" x2="2340" y1="114.5" y2="161" />
<line stroke="#567DB6" stroke-width="1" x1="1979.15625" x2="2292" y1="114.5" y2="161" />
<line stroke="#567DB6" stroke-width="1" x1="1967.21875" x2="2244" y1="114.5" y2="161" />
<line stroke="#567DB6" stroke-width="1" x1="1955.28125" x2="2196" y1="114.5" y2="161" />
<line stroke="#567DB6" stroke-width="1" x1="1943.34375" x2="2148" y1="114.5" y2="161" />
<line stroke="#567DB6" stroke-width="1" x1="1931.40625" x2="2100" y1="114.5" y2="161" />
<line stroke="#567DB6" stroke-width="1" x1="1919.46875" x2="2052" y1="114.5" y2="161" />
<line stroke="#567DB6" stroke-width="1" x1="1907.53125" x2="2004" y1="114.5" y2="161" />
<line stroke="#567DB6" stroke-width="1" x1="1895.59375" x2="1956" y1="114.5" y2="161" />
<line stroke="#567DB6" stroke-width="1" x1="1883.65625" x2="1908" y1="114.5" y2="161" />
<line stroke="#567DB6" stroke-width="1" x1="1871.71875" x2="1860" y1="114.5" y2="161" />
<line stroke="#567DB6" stroke-width="1" x1="1859.78125" x2="1812" y1="114.5" y2="161" />
<line stroke="#567DB6" stroke-width="1" x1="1847.84375" x2="1764" y1="114.5" y2="161" />
<line stroke="#567DB6" stroke-width="1" x1="1835.90625" x2="1716" y1="114.5" y2="161" />
<line stroke="#567DB6" stroke-width="1" x1="1823.96875" x2="1668" y1="114.5" y2="161" />
<line stroke="#567DB6" stroke-width="1" x1="1812.03125" x2="1620" y1="114.5" y2="161" />
<line stroke="#567DB6" stroke-width="1" x1="1800.09375" x2="1572" y1="114.5" y2="161" />
<line stroke="#567DB6" stroke-width="1" x1="1788.15625" x2="1524" y1="114.5" y2="161" />
<line stroke="#567DB6" stroke-width="1" x1="1776.21875" x2="1476" y1="114.5" y2="161" />
<line stroke="#567DB6" stroke-width="1" x1="1764.28125" x2="1428" y1="114.5" y2="161" />
<line stroke="#567DB6" stroke-width="1" x1="1752.34375" x2="1380" y1="114.5" y2="161" />
<line stroke="#567DB6" stroke-width="1" x1="1740.40625" x2="1332" y1="114.5" y2="161" />
<line stroke="#567DB6" stroke-width="1" x1="1728.46875" x2="1284" y1="114.5" y2="161" />
<line stroke="#567DB6" stroke-width="1" x1="1716.53125" x2="1236" y1="114.5" y2="161" />
<line stroke="#567DB6" stroke-width="1" x1="1704.59375" x2="1188" y1="114.5" y2="161" />
<line stroke="#567DB6" stroke-width="1" x1="1692.65625" x2="1140" y1="114.5" y2="161" />
<line stroke="#567DB6" stroke-width="1" x1="1680.71875" x2="1092" y1="114.5" y2="161" />
<line stroke="#567DB6" stroke-width="1" x1="1668.78125" x2="1044" y1="114.5" y2="161" />
<line stroke="#567DB6" stroke-width="1" x1="1656.84375" x2="996" y1="114.5" y2="161" />
<line stroke="#567DB6" stroke-width="1" x1="1644.90625" x2="948" y1="114.5" y2="161" />
<line stroke="#567DB6" stroke-width="1" x1="1632.46875" x2="900" y1="114.5" y2="161" />
<line stroke="#567DB6" stroke-dasharray="3 3" stroke-width="0.75" x1="2778" x2="858" y1="42.5" y2="89.5" />
<line stroke="#567DB6" stroke-dasharray="3 3" stroke-width="0.75" x1="3162" x2="2394" y1="42.5" y2="89.5" />
<text class="title-left" x="90" y="9">upper</text>
<text class="title-right" x="3162" y="9">lower</text>
<text class="title-unused" x="2202" y="80.5">0</text>
<text class="title-intrinsic" x="1818" y="80.5">imm=1</text>
<text class="title-unused" x="1434" y="80.5">2</text>
<text class="title-unused" x="1050" y="80.5">3</text>
<rect fill="none" height="24" stroke="#405C86" stroke-width="2" width="96" x="3066" y="18" />
<rect fill="#DEE6F1" height="24" width="96" x="2970" y="18" />
<rect fill="none" height="24" stroke="#405C86" stroke-width="2" width="96" x="2970" y="18" />
<rect fill="none" height="24" stroke="#405C86" stroke-width="2" width="96" x="2874" y="18" />
<rect fill="none" height="24" stroke="#405C86" stroke-width="2" width="96" x="2778" y="18" />
<rect fill="none" height="24" stroke="#405C86" stroke-dasharray="3 1" stroke-dashoffset="1.5" stroke-width="1" width="2688" x="90" y="18" />
<text class="label unused" x="1434" y="31"></text>
<text class="register-name" x="80" y="30">Zn</text>
<text class="register-number" x="10" y="30">(1)</text>
<rect fill="#DEE6F1" height="24" width="12" x="2382" y="162" />
<rect fill="none" height="24" stroke="#405C86" stroke-width="2" width="12" x="2382" y="162" />
<rect fill="none" height="24" stroke="#405C86" stroke-dasharray="3 1" stroke-dashoffset="1.5" stroke-width="1" width="12" x="2370" y="162" />
<text class="label unused" x="2376" y="175">0</text>
<rect fill="none" height="24" stroke="#405C86" stroke-dasharray="3 1" stroke-dashoffset="1.5" stroke-width="1" width="12" x="2358" y="162" />
<text class="label unused" x="2364" y="175">0</text>
<rect fill="none" height="24" stroke="#405C86" stroke-dasharray="3 1" stroke-dashoffset="1.5" stroke-width="1" width="12" x="2346" y="162" />
<text class="label unused" x="2352" y="175">0</text>
<rect fill="#DEE6F1" height="24" width="12" x="2334" y="162" />
<rect fill="none" height="24" stroke="#405C86" stroke-width="2" width="12" x="2334" y="162" />
<rect fill="none" height="24" stroke="#405C86" stroke-dasharray="3 1" stroke-dashoffset="1.5" stroke-width="1" width="12" x="2322" y="162" />
<text class="label unused" x="2328" y="175">0</text>
<rect fill="none" height="24" stroke="#405C86" stroke-dasharray="3 1" stroke-dashoffset="1.5" stroke-width="1" width="12" x="2310" y="162" />
<text class="label unused" x="2316" y="175">0</text>
<rect fill="none" height="24" stroke="#405C86" stroke-dasharray="3 1" stroke-dashoffset="1.5" stroke-width="1" width="12" x="2298" y="162" />
<text class="label unused" x="2304" y="175">0</text>
<rect fill="#DEE6F1" height="24" width="12" x="2286" y="162" />
<rect fill="none" height="24" stroke="#405C86" stroke-width="2" width="12" x="2286" y="162" />
<rect fill="none" height="24" stroke="#405C86" stroke-dasharray="3 1" stroke-dashoffset="1.5" stroke-width="1" width="12" x="2274" y="162" />
<text class="label unused" x="2280" y="175">0</text>
<rect fill="none" height="24" stroke="#405C86" stroke-dasharray="3 1" stroke-dashoffset="1.5" stroke-width="1" width="12" x="2262" y="162" />
<text class="label unused" x="2268" y="175">0</text>
<rect fill="none" height="24" stroke="#405C86" stroke-dasharray="3 1" stroke-dashoffset="1.5" stroke-width="1" width="12" x="2250" y="162" />
<text class="label unused" x="2256" y="175">0</text>
<rect fill="#DEE6F1" height="24" width="12" x="2238" y="162" />
<rect fill="none" height="24" stroke="#405C86" stroke-width="2" width="12" x="2238" y="162" />
<rect fill="none" height="24" stroke="#405C86" stroke-dasharray="3 1" stroke-dashoffset="1.5" stroke-width="1" width="12" x="2226" y="162" />
<text class="label unused" x="2232" y="175">0</text>
<rect fill="none" height="24" stroke="#405C86" stroke-dasharray="3 1" stroke-dashoffset="1.5" stroke-width="1" width="12" x="2214" y="162" />
<text class="label unused" x="2220" y="175">0</text>
<rect fill="none" height="24" stroke="#405C86" stroke-dasharray="3 1" stroke-dashoffset="1.5" stroke-width="1" width="12" x="2202" y="162" />
<text class="label unused" x="2208" y="175">0</text>
<rect fill="#DEE6F1" height="24" width="12" x="2190" y="162" />
<rect fill="none" height="24" stroke="#405C86" stroke-width="2" width="12" x="2190" y="162" />
<rect fill="none" height="24" stroke="#405C86" stroke-dasharray="3 1" stroke-dashoffset="1.5" stroke-width="1" width="12" x="2178" y="162" />
<text class="label unused" x="2184" y="175">0</text>
<rect fill="none" height="24" stroke="#405C86" stroke-dasharray="3 1" stroke-dashoffset="1.5" stroke-width="1" width="12" x="2166" y="162" />
<text class="label unused" x="2172" y="175">0</text>
<rect fill="none" height="24" stroke="#405C86" stroke-dasharray="3 1" stroke-dashoffset="1.5" stroke-width="1" width="12" x="2154" y="162" />
<text class="label unused" x="2160" y="175">0</text>
<rect fill="#DEE6F1" height="24" width="12" x="2142" y="162" />
<rect fill="none" height="24" stroke="#405C86" stroke-width="2" width="12" x="2142" y="162" />
<rect fill="none" height="24" stroke="#405C86" stroke-dasharray="3 1" stroke-dashoffset="1.5" stroke-width="1" width="12" x="2130" y="162" />
<text class="label unused" x="2136" y="175">0</text>
<rect fill="none" height="24" stroke="#405C86" stroke-dasharray="3 1" stroke-dashoffset="1.5" stroke-width="1" width="12" x="2118" y="162" />
<text class="label unused" x="2124" y="175">0</text>
<rect fill="none" height="24" stroke="#405C86" stroke-dasharray="3 1" stroke-dashoffset="1.5" stroke-width="1" width="12" x="2106" y="162" />
<text class="label unused" x="2112" y="175">0</text>
<rect fill="#DEE6F1" height="24" width="12" x="2094" y="162" />
<rect fill="none" height="24" stroke="#405C86" stroke-width="2" width="12" x="2094" y="162" />
<rect fill="none" height="24" stroke="#405C86" stroke-dasharray="3 1" stroke-dashoffset="1.5" stroke-width="1" width="12" x="2082" y="162" />
<text class="label unused" x="2088" y="175">0</text>
<rect fill="none" height="24" stroke="#405C86" stroke-dasharray="3 1" stroke-dashoffset="1.5" stroke-width="1" width="12" x="2070" y="162" />
<text class="label unused" x="2076" y="175">0</text>
<rect fill="none" height="24" stroke="#405C86" stroke-dasharray="3 1" stroke-dashoffset="1.5" stroke-width="1" width="12" x="2058" y="162" />
<text class="label unused" x="2064" y="175">0</text>
<rect fill="#DEE6F1" height="24" width="12" x="2046" y="162" />
<rect fill="none" height="24" stroke="#405C86" stroke-width="2" width="12" x="2046" y="162" />
<rect fill="none" height="24" stroke="#405C86" stroke-dasharray="3 1" stroke-dashoffset="1.5" stroke-width="1" width="12" x="2034" y="162" />
<text class="label unused" x="2040" y="175">0</text>
<rect fill="none" height="24" stroke="#405C86" stroke-dasharray="3 1" stroke-dashoffset="1.5" stroke-width="1" width="12" x="2022" y="162" />
<text class="label unused" x="2028" y="175">0</text>
<rect fill="none" height="24" stroke="#405C86" stroke-dasharray="3 1" stroke-dashoffset="1.5" stroke-width="1" width="12" x="2010" y="162" />
<text class="label unused" x="2016" y="175">0</text>
<rect fill="#DEE6F1" height="24" width="12" x="1998" y="162" />
<rect fill="none" height="24" stroke="#405C86" stroke-width="2" width="12" x="1998" y="162" />
<rect fill="none" height="24" stroke="#405C86" stroke-dasharray="3 1" stroke-dashoffset="1.5" stroke-width="1" width="12" x="1986" y="162" />
<text class="label unused" x="1992" y="175">0</text>
<rect fill="none" height="24" stroke="#405C86" stroke-dasharray="3 1" stroke-dashoffset="1.5" stroke-width="1" width="12" x="1974" y="162" />
<text class="label unused" x="1980" y="175">0</text>
<rect fill="none" height="24" stroke="#405C86" stroke-dasharray="3 1" stroke-dashoffset="1.5" stroke-width="1" width="12" x="1962" y="162" />
<text class="label unused" x="1968" y="175">0</text>
<rect fill="#DEE6F1" height="24" width="12" x="1950" y="162" />
<rect fill="none" height="24" stroke="#405C86" stroke-width="2" width="12" x="1950" y="162" />
<rect fill="none" height="24" stroke="#405C86" stroke-dasharray="3 1" stroke-dashoffset="1.5" stroke-width="1" width="12" x="1938" y="162" />
<text class="label unused" x="1944" y="175">0</text>
<rect fill="none" height="24" stroke="#405C86" stroke-dasharray="3 1" stroke-dashoffset="1.5" stroke-width="1" width="12" x="1926" y="162" />
<text class="label unused" x="1932" y="175">0</text>
<rect fill="none" height="24" stroke="#405C86" stroke-dasharray="3 1" stroke-dashoffset="1.5" stroke-width="1" width="12" x="1914" y="162" />
<text class="label unused" x="1920" y="175">0</text>
<rect fill="#DEE6F1" height="24" width="12" x="1902" y="162" />
<rect fill="none" height="24" stroke="#405C86" stroke-width="2" width="12" x="1902" y="162" />
<rect fill="none" height="24" stroke="#405C86" stroke-dasharray="3 1" stroke-dashoffset="1.5" stroke-width="1" width="12" x="1890" y="162" />
<text class="label unused" x="1896" y="175">0</text>
<rect fill="none" height="24" stroke="#405C86" stroke-dasharray="3 1" stroke-dashoffset="1.5" stroke-width="1" width="12" x="1878" y="162" />
<text class="label unused" x="1884" y="175">0</text>
<rect fill="none" height="24" stroke="#405C86" stroke-dasharray="3 1" stroke-dashoffset="1.5" stroke-width="1" width="12" x="1866" y="162" />
<text class="label unused" x="1872" y="175">0</text>
<rect fill="#DEE6F1" height="24" width="12" x="1854" y="162" />
<rect fill="none" height="24" stroke="#405C86" stroke-width="2" width="12" x="1854" y="162" />
<rect fill="none" height="24" stroke="#405C86" stroke-dasharray="3 1" stroke-dashoffset="1.5" stroke-width="1" width="12" x="1842" y="162" />
<text class="label unused" x="1848" y="175">0</text>
<rect fill="none" height="24" stroke="#405C86" stroke-dasharray="3 1" stroke-dashoffset="1.5" stroke-width="1" width="12" x="1830" y="162" />
<text class="label unused" x="1836" y="175">0</text>
<rect fill="none" height="24" stroke="#405C86" stroke-dasharray="3 1" stroke-dashoffset="1.5" stroke-width="1" width="12" x="1818" y="162" />
<text class="label unused" x="1824" y="175">0</text>
<rect fill="#DEE6F1" height="24" width="12" x="1806" y="162" />
<rect fill="none" height="24" stroke="#405C86" stroke-width="2" width="12" x="1806" y="162" />
<rect fill="none" height="24" stroke="#405C86" stroke-dasharray="3 1" stroke-dashoffset="1.5" stroke-width="1" width="12" x="1794" y="162" />
<text class="label unused" x="1800" y="175">0</text>
<rect fill="none" height="24" stroke="#405C86" stroke-dasharray="3 1" stroke-dashoffset="1.5" stroke-width="1" width="12" x="1782" y="162" />
<text class="label unused" x="1788" y="175">0</text>
<rect fill="none" height="24" stroke="#405C86" stroke-dasharray="3 1" stroke-dashoffset="1.5" stroke-width="1" width="12" x="1770" y="162" />
<text class="label unused" x="1776" y="175">0</text>
<rect fill="#DEE6F1" height="24" width="12" x="1758" y="162" />
<rect fill="none" height="24" stroke="#405C86" stroke-width="2" width="12" x="1758" y="162" />
<rect fill="none" height="24" stroke="#405C86" stroke-dasharray="3 1" stroke-dashoffset="1.5" stroke-width="1" width="12" x="1746" y="162" />
<text class="label unused" x="1752" y="175">0</text>
<rect fill="none" height="24" stroke="#405C86" stroke-dasharray="3 1" stroke-dashoffset="1.5" stroke-width="1" width="12" x="1734" y="162" />
<text class="label unused" x="1740" y="175">0</text>
<rect fill="none" height="24" stroke="#405C86" stroke-dasharray="3 1" stroke-dashoffset="1.5" stroke-width="1" width="12" x="1722" y="162" />
<text class="label unused" x="1728" y="175">0</text>
<rect fill="#DEE6F1" height="24" width="12" x="1710" y="162" />
<rect fill="none" height="24" stroke="#405C86" stroke-width="2" width="12" x="1710" y="162" />
<rect fill="none" height="24" stroke="#405C86" stroke-dasharray="3 1" stroke-dashoffset="1.5" stroke-width="1" width="12" x="1698" y="162" />
<text class="label unused" x="1704" y="175">0</text>
<rect fill="none" height="24" stroke="#405C86" stroke-dasharray="3 1" stroke-dashoffset="1.5" stroke-width="1" width="12" x="1686" y="162" />
<text class="label unused" x="1692" y="175">0</text>
<rect fill="none" height="24" stroke="#405C86" stroke-dasharray="3 1" stroke-dashoffset="1.5" stroke-width="1" width="12" x="1674" y="162" />
<text class="label unused" x="1680" y="175">0</text>
<rect fill="#DEE6F1" height="24" width="12" x="1662" y="162" />
<rect fill="none" height="24" stroke="#405C86" stroke-width="2" width="12" x="1662" y="162" />
<rect fill="none" height="24" stroke="#405C86" stroke-dasharray="3 1" stroke-dashoffset="1.5" stroke-width="1" width="12" x="1650" y="162" />
<text class="label unused" x="1656" y="175">0</text>
<rect fill="none" height="24" stroke="#405C86" stroke-dasharray="3 1" stroke-dashoffset="1.5" stroke-width="1" width="12" x="1638" y="162" />
<text class="label unused" x="1644" y="175">0</text>
<rect fill="none" height="24" stroke="#405C86" stroke-dasharray="3 1" stroke-dashoffset="1.5" stroke-width="1" width="12" x="1626" y="162" />
<text class="label unused" x="1632" y="175">0</text>
<rect fill="#DEE6F1" height="24" width="12" x="1614" y="162" />
<rect fill="none" height="24" stroke="#405C86" stroke-width="2" width="12" x="1614" y="162" />
<rect fill="none" height="24" stroke="#405C86" stroke-dasharray="3 1" stroke-dashoffset="1.5" stroke-width="1" width="12" x="1602" y="162" />
<text class="label unused" x="1608" y="175">0</text>
<rect fill="none" height="24" stroke="#405C86" stroke-dasharray="3 1" stroke-dashoffset="1.5" stroke-width="1" width="12" x="1590" y="162" />
<text class="label unused" x="1596" y="175">0</text>
<rect fill="none" height="24" stroke="#405C86" stroke-dasharray="3 1" stroke-dashoffset="1.5" stroke-width="1" width="12" x="1578" y="162" />
<text class="label unused" x="1584" y="175">0</text>
<rect fill="#DEE6F1" height="24" width="12" x="1566" y="162" />
<rect fill="none" height="24" stroke="#405C86" stroke-width="2" width="12" x="1566" y="162" />
<rect fill="none" height="24" stroke="#405C86" stroke-dasharray="3 1" stroke-dashoffset="1.5" stroke-width="1" width="12" x="1554" y="162" />
<text class="label unused" x="1560" y="175">0</text>
<rect fill="none" height="24" stroke="#405C86" stroke-dasharray="3 1" stroke-dashoffset="1.5" stroke-width="1" width="12" x="1542" y="162" />
<text class="label unused" x="1548" y="175">0</text>
<rect fill="none" height="24" stroke="#405C86" stroke-dasharray="3 1" stroke-dashoffset="1.5" stroke-width="1" width="12" x="1530" y="162" />
<text class="label unused" x="1536" y="175">0</text>
<rect fill="#DEE6F1" height="24" width="12" x="1518" y="162" />
<rect fill="none" height="24" stroke="#405C86" stroke-width="2" width="12" x="1518" y="162" />
<rect fill="none" height="24" stroke="#405C86" stroke-dasharray="3 1" stroke-dashoffset="1.5" stroke-width="1" width="12" x="1506" y="162" />
<text class="label unused" x="1512" y="175">0</text>
<rect fill="none" height="24" stroke="#405C86" stroke-dasharray="3 1" stroke-dashoffset="1.5" stroke-width="1" width="12" x="1494" y="162" />
<text class="label unused" x="1500" y="175">0</text>
<rect fill="none" height="24" stroke="#405C86" stroke-dasharray="3 1" stroke-dashoffset="1.5" stroke-width="1" width="12" x="1482" y="162" />
<text class="label unused" x="1488" y="175">0</text>
<rect fill="#DEE6F1" height="24" width="12" x="1470" y="162" />
<rect fill="none" height="24" stroke="#405C86" stroke-width="2" width="12" x="1470" y="162" />
<rect fill="none" height="24" stroke="#405C86" stroke-dasharray="3 1" stroke-dashoffset="1.5" stroke-width="1" width="12" x="1458" y="162" />
<text class="label unused" x="1464" y="175">0</text>
<rect fill="none" height="24" stroke="#405C86" stroke-dasharray="3 1" stroke-dashoffset="1.5" stroke-width="1" width="12" x="1446" y="162" />
<text class="label unused" x="1452" y="175">0</text>
<rect fill="none" height="24" stroke="#405C86" stroke-dasharray="3 1" stroke-dashoffset="1.5" stroke-width="1" width="12" x="1434" y="162" />
<text class="label unused" x="1440" y="175">0</text>
<rect fill="#DEE6F1" height="24" width="12" x="1422" y="162" />
<rect fill="none" height="24" stroke="#405C86" stroke-width="2" width="12" x="1422" y="162" />
<rect fill="none" height="24" stroke="#405C86" stroke-dasharray="3 1" stroke-dashoffset="1.5" stroke-width="1" width="12" x="1410" y="162" />
<text class="label unused" x="1416" y="175">0</text>
<rect fill="none" height="24" stroke="#405C86" stroke-dasharray="3 1" stroke-dashoffset="1.5" stroke-width="1" width="12" x="1398" y="162" />
<text class="label unused" x="1404" y="175">0</text>
<rect fill="none" height="24" stroke="#405C86" stroke-dasharray="3 1" stroke-dashoffset="1.5" stroke-width="1" width="12" x="1386" y="162" />
<text class="label unused" x="1392" y="175">0</text>
<rect fill="#DEE6F1" height="24" width="12" x="1374" y="162" />
<rect fill="none" height="24" stroke="#405C86" stroke-width="2" width="12" x="1374" y="162" />
<rect fill="none" height="24" stroke="#405C86" stroke-dasharray="3 1" stroke-dashoffset="1.5" stroke-width="1" width="12" x="1362" y="162" />
<text class="label unused" x="1368" y="175">0</text>
<rect fill="none" height="24" stroke="#405C86" stroke-dasharray="3 1" stroke-dashoffset="1.5" stroke-width="1" width="12" x="1350" y="162" />
<text class="label unused" x="1356" y="175">0</text>
<rect fill="none" height="24" stroke="#405C86" stroke-dasharray="3 1" stroke-dashoffset="1.5" stroke-width="1" width="12" x="1338" y="162" />
<text class="label unused" x="1344" y="175">0</text>
<rect fill="#DEE6F1" height="24" width="12" x="1326" y="162" />
<rect fill="none" height="24" stroke="#405C86" stroke-width="2" width="12" x="1326" y="162" />
<rect fill="none" height="24" stroke="#405C86" stroke-dasharray="3 1" stroke-dashoffset="1.5" stroke-width="1" width="12" x="1314" y="162" />
<text class="label unused" x="1320" y="175">0</text>
<rect fill="none" height="24" stroke="#405C86" stroke-dasharray="3 1" stroke-dashoffset="1.5" stroke-width="1" width="12" x="1302" y="162" />
<text class="label unused" x="1308" y="175">0</text>
<rect fill="none" height="24" stroke="#405C86" stroke-dasharray="3 1" stroke-dashoffset="1.5" stroke-width="1" width="12" x="1290" y="162" />
<text class="label unused" x="1296" y="175">0</text>
<rect fill="#DEE6F1" height="24" width="12" x="1278" y="162" />
<rect fill="none" height="24" stroke="#405C86" stroke-width="2" width="12" x="1278" y="162" />
<rect fill="none" height="24" stroke="#405C86" stroke-dasharray="3 1" stroke-dashoffset="1.5" stroke-width="1" width="12" x="1266" y="162" />
<text class="label unused" x="1272" y="175">0</text>
<rect fill="none" height="24" stroke="#405C86" stroke-dasharray="3 1" stroke-dashoffset="1.5" stroke-width="1" width="12" x="1254" y="162" />
<text class="label unused" x="1260" y="175">0</text>
<rect fill="none" height="24" stroke="#405C86" stroke-dasharray="3 1" stroke-dashoffset="1.5" stroke-width="1" width="12" x="1242" y="162" />
<text class="label unused" x="1248" y="175">0</text>
<rect fill="#DEE6F1" height="24" width="12" x="1230" y="162" />
<rect fill="none" height="24" stroke="#405C86" stroke-width="2" width="12" x="1230" y="162" />
<rect fill="none" height="24" stroke="#405C86" stroke-dasharray="3 1" stroke-dashoffset="1.5" stroke-width="1" width="12" x="1218" y="162" />
<text class="label unused" x="1224" y="175">0</text>
<rect fill="none" height="24" stroke="#405C86" stroke-dasharray="3 1" stroke-dashoffset="1.5" stroke-width="1" width="12" x="1206" y="162" />
<text class="label unused" x="1212" y="175">0</text>
<rect fill="none" height="24" stroke="#405C86" stroke-dasharray="3 1" stroke-dashoffset="1.5" stroke-width="1" width="12" x="1194" y="162" />
<text class="label unused" x="1200" y="175">0</text>
<rect fill="#DEE6F1" height="24" width="12" x="1182" y="162" />
<rect fill="none" height="24" stroke="#405C86" stroke-width="2" width="12" x="1182" y="162" />
<rect fill="none" height="24" stroke="#405C86" stroke-dasharray="3 1" stroke-dashoffset="1.5" stroke-width="1" width="12" x="1170" y="162" />
<text class="label unused" x="1176" y="175">0</text>
<rect fill="none" height="24" stroke="#405C86" stroke-dasharray="3 1" stroke-dashoffset="1.5" stroke-width="1" width="12" x="1158" y="162" />
<text class="label unused" x="1164" y="175">0</text>
<rect fill="none" height="24" stroke="#405C86" stroke-dasharray="3 1" stroke-dashoffset="1.5" stroke-width="1" width="12" x="1146" y="162" />
<text class="label unused" x="1152" y="175">0</text>
<rect fill="#DEE6F1" height="24" width="12" x="1134" y="162" />
<rect fill="none" height="24" stroke="#405C86" stroke-width="2" width="12" x="1134" y="162" />
<rect fill="none" height="24" stroke="#405C86" stroke-dasharray="3 1" stroke-dashoffset="1.5" stroke-width="1" width="12" x="1122" y="162" />
<text class="label unused" x="1128" y="175">0</text>
<rect fill="none" height="24" stroke="#405C86" stroke-dasharray="3 1" stroke-dashoffset="1.5" stroke-width="1" width="12" x="1110" y="162" />
<text class="label unused" x="1116" y="175">0</text>
<rect fill="none" height="24" stroke="#405C86" stroke-dasharray="3 1" stroke-dashoffset="1.5" stroke-width="1" width="12" x="1098" y="162" />
<text class="label unused" x="1104" y="175">0</text>
<rect fill="#DEE6F1" height="24" width="12" x="1086" y="162" />
<rect fill="none" height="24" stroke="#405C86" stroke-width="2" width="12" x="1086" y="162" />
<rect fill="none" height="24" stroke="#405C86" stroke-dasharray="3 1" stroke-dashoffset="1.5" stroke-width="1" width="12" x="1074" y="162" />
<text class="label unused" x="1080" y="175">0</text>
<rect fill="none" height="24" stroke="#405C86" stroke-dasharray="3 1" stroke-dashoffset="1.5" stroke-width="1" width="12" x="1062" y="162" />
<text class="label unused" x="1068" y="175">0</text>
<rect fill="none" height="24" stroke="#405C86" stroke-dasharray="3 1" stroke-dashoffset="1.5" stroke-width="1" width="12" x="1050" y="162" />
<text class="label unused" x="1056" y="175">0</text>
<rect fill="#DEE6F1" height="24" width="12" x="1038" y="162" />
<rect fill="none" height="24" stroke="#405C86" stroke-width="2" width="12" x="1038" y="162" />
<rect fill="none" height="24" stroke="#405C86" stroke-dasharray="3 1" stroke-dashoffset="1.5" stroke-width="1" width="12" x="1026" y="162" />
<text class="label unused" x="1032" y="175">0</text>
<rect fill="none" height="24" stroke="#405C86" stroke-dasharray="3 1" stroke-dashoffset="1.5" stroke-width="1" width="12" x="1014" y="162" />
<text class="label unused" x="1020" y="175">0</text>
<rect fill="none" height="24" stroke="#405C86" stroke-dasharray="3 1" stroke-dashoffset="1.5" stroke-width="1" width="12" x="1002" y="162" />
<text class="label unused" x="1008" y="175">0</text>
<rect fill="#DEE6F1" height="24" width="12" x="990" y="162" />
<rect fill="none" height="24" stroke="#405C86" stroke-width="2" width="12" x="990" y="162" />
<rect fill="none" height="24" stroke="#405C86" stroke-dasharray="3 1" stroke-dashoffset="1.5" stroke-width="1" width="12" x="978" y="162" />
<text class="label unused" x="984" y="175">0</text>
<rect fill="none" height="24" stroke="#405C86" stroke-dasharray="3 1" stroke-dashoffset="1.5" stroke-width="1" width="12" x="966" y="162" />
<text class="label unused" x="972" y="175">0</text>
<rect fill="none" height="24" stroke="#405C86" stroke-dasharray="3 1" stroke-dashoffset="1.5" stroke-width="1" width="12" x="954" y="162" />
<text class="label unused" x="960" y="175">0</text>
<rect fill="#DEE6F1" height="24" width="12" x="942" y="162" />
<rect fill="none" height="24" stroke="#405C86" stroke-width="2" width="12" x="942" y="162" />
<rect fill="none" height="24" stroke="#405C86" stroke-dasharray="3 1" stroke-dashoffset="1.5" stroke-width="1" width="12" x="930" y="162" />
<text class="label unused" x="936" y="175">0</text>
<rect fill="none" height="24" stroke="#405C86" stroke-dasharray="3 1" stroke-dashoffset="1.5" stroke-width="1" width="12" x="918" y="162" />
<text class="label unused" x="924" y="175">0</text>
<rect fill="none" height="24" stroke="#405C86" stroke-dasharray="3 1" stroke-dashoffset="1.5" stroke-width="1" width="12" x="906" y="162" />
<text class="label unused" x="912" y="175">0</text>
<rect fill="#DEE6F1" height="24" width="12" x="894" y="162" />
<rect fill="none" height="24" stroke="#405C86" stroke-width="2" width="12" x="894" y="162" />
<rect fill="none" height="24" stroke="#405C86" stroke-dasharray="3 1" stroke-dashoffset="1.5" stroke-width="1" width="12" x="882" y="162" />
<text class="label unused" x="888" y="175">0</text>
<rect fill="none" height="24" stroke="#405C86" stroke-dasharray="3 1" stroke-dashoffset="1.5" stroke-width="1" width="12" x="870" y="162" />
<text class="label unused" x="876" y="175">0</text>
<rect fill="none" height="24" stroke="#405C86" stroke-dasharray="3 1" stroke-dashoffset="1.5" stroke-width="1" width="12" x="858" y="162" />
<text class="label unused" x="864" y="175">0</text>
<text class="register-name" x="80" y="174">Pd</text>
<text class="register-number" x="10" y="174">(2)</text>
<line stroke="#405C86" stroke-dasharray="3 1" stroke-width="0.75" x1="2381.0625" x2="2381.0625" y1="90" y2="114" />
<line stroke="#405C86" stroke-dasharray="3 1" stroke-width="0.75" x1="2369.125" x2="2369.125" y1="90" y2="114" />
<line stroke="#405C86" stroke-dasharray="3 1" stroke-width="0.75" x1="2357.1875" x2="2357.1875" y1="90" y2="114" />
<line stroke="#405C86" stroke-dasharray="3 1" stroke-width="0.75" x1="2345.25" x2="2345.25" y1="90" y2="114" />
<line stroke="#405C86" stroke-dasharray="3 1" stroke-width="0.75" x1="2333.3125" x2="2333.3125" y1="90" y2="114" />
<line stroke="#405C86" stroke-dasharray="3 1" stroke-width="0.75" x1="2321.375" x2="2321.375" y1="90" y2="114" />
<line stroke="#405C86" stroke-dasharray="3 1" stroke-width="0.75" x1="2309.4375" x2="2309.4375" y1="90" y2="114" />
<line stroke="#405C86" stroke-dasharray="3 1" stroke-width="0.75" x1="2297.5" x2="2297.5" y1="90" y2="114" />
<line stroke="#405C86" stroke-dasharray="3 1" stroke-width="0.75" x1="2285.5625" x2="2285.5625" y1="90" y2="114" />
<line stroke="#405C86" stroke-dasharray="3 1" stroke-width="0.75" x1="2273.625" x2="2273.625" y1="90" y2="114" />
<line stroke="#405C86" stroke-dasharray="3 1" stroke-width="0.75" x1="2261.6875" x2="2261.6875" y1="90" y2="114" />
<line stroke="#405C86" stroke-dasharray="3 1" stroke-width="0.75" x1="2249.75" x2="2249.75" y1="90" y2="114" />
<line stroke="#405C86" stroke-dasharray="3 1" stroke-width="0.75" x1="2237.8125" x2="2237.8125" y1="90" y2="114" />
<line stroke="#405C86" stroke-dasharray="3 1" stroke-width="0.75" x1="2225.875" x2="2225.875" y1="90" y2="114" />
<line stroke="#405C86" stroke-dasharray="3 1" stroke-width="0.75" x1="2213.9375" x2="2213.9375" y1="90" y2="114" />
<line stroke="#405C86" stroke-dasharray="3 1" stroke-width="0.75" x1="2202" x2="2202" y1="90" y2="114" />
<line stroke="#405C86" stroke-dasharray="3 1" stroke-width="0.75" x1="2190.0625" x2="2190.0625" y1="90" y2="114" />
<line stroke="#405C86" stroke-dasharray="3 1" stroke-width="0.75" x1="2178.125" x2="2178.125" y1="90" y2="114" />
<line stroke="#405C86" stroke-dasharray="3 1" stroke-width="0.75" x1="2166.1875" x2="2166.1875" y1="90" y2="114" />
<line stroke="#405C86" stroke-dasharray="3 1" stroke-width="0.75" x1="2154.25" x2="2154.25" y1="90" y2="114" />
<line stroke="#405C86" stroke-dasharray="3 1" stroke-width="0.75" x1="2142.3125" x2="2142.3125" y1="90" y2="114" />
<line stroke="#405C86" stroke-dasharray="3 1" stroke-width="0.75" x1="2130.375" x2="2130.375" y1="90" y2="114" />
<line stroke="#405C86" stroke-dasharray="3 1" stroke-width="0.75" x1="2118.4375" x2="2118.4375" y1="90" y2="114" />
<line stroke="#405C86" stroke-dasharray="3 1" stroke-width="0.75" x1="2106.5" x2="2106.5" y1="90" y2="114" />
<line stroke="#405C86" stroke-dasharray="3 1" stroke-width="0.75" x1="2094.5625" x2="2094.5625" y1="90" y2="114" />
<line stroke="#405C86" stroke-dasharray="3 1" stroke-width="0.75" x1="2082.625" x2="2082.625" y1="90" y2="114" />
<line stroke="#405C86" stroke-dasharray="3 1" stroke-width="0.75" x1="2070.6875" x2="2070.6875" y1="90" y2="114" />
<line stroke="#405C86" stroke-dasharray="3 1" stroke-width="0.75" x1="2058.75" x2="2058.75" y1="90" y2="114" />
<line stroke="#405C86" stroke-dasharray="3 1" stroke-width="0.75" x1="2046.8125" x2="2046.8125" y1="90" y2="114" />
<line stroke="#405C86" stroke-dasharray="3 1" stroke-width="0.75" x1="2034.875" x2="2034.875" y1="90" y2="114" />
<line stroke="#405C86" stroke-dasharray="3 1" stroke-width="0.75" x1="2022.9375" x2="2022.9375" y1="90" y2="114" />
<rect fill="none" height="24" stroke="#405C86" stroke-width="2" width="384" x="2010" y="90" />
<rect fill="#DEE6F1" height="24" width="384" x="1626" y="90" />
<line stroke="#405C86" stroke-dasharray="3 1" stroke-width="0.75" x1="1997.0625" x2="1997.0625" y1="90" y2="114" />
<line stroke="#405C86" stroke-dasharray="3 1" stroke-width="0.75" x1="1985.125" x2="1985.125" y1="90" y2="114" />
<line stroke="#405C86" stroke-dasharray="3 1" stroke-width="0.75" x1="1973.1875" x2="1973.1875" y1="90" y2="114" />
<line stroke="#405C86" stroke-dasharray="3 1" stroke-width="0.75" x1="1961.25" x2="1961.25" y1="90" y2="114" />
<line stroke="#405C86" stroke-dasharray="3 1" stroke-width="0.75" x1="1949.3125" x2="1949.3125" y1="90" y2="114" />
<line stroke="#405C86" stroke-dasharray="3 1" stroke-width="0.75" x1="1937.375" x2="1937.375" y1="90" y2="114" />
<line stroke="#405C86" stroke-dasharray="3 1" stroke-width="0.75" x1="1925.4375" x2="1925.4375" y1="90" y2="114" />
<line stroke="#405C86" stroke-dasharray="3 1" stroke-width="0.75" x1="1913.5" x2="1913.5" y1="90" y2="114" />
<line stroke="#405C86" stroke-dasharray="3 1" stroke-width="0.75" x1="1901.5625" x2="1901.5625" y1="90" y2="114" />
<line stroke="#405C86" stroke-dasharray="3 1" stroke-width="0.75" x1="1889.625" x2="1889.625" y1="90" y2="114" />
<line stroke="#405C86" stroke-dasharray="3 1" stroke-width="0.75" x1="1877.6875" x2="1877.6875" y1="90" y2="114" />
<line stroke="#405C86" stroke-dasharray="3 1" stroke-width="0.75" x1="1865.75" x2="1865.75" y1="90" y2="114" />
<line stroke="#405C86" stroke-dasharray="3 1" stroke-width="0.75" x1="1853.8125" x2="1853.8125" y1="90" y2="114" />
<line stroke="#405C86" stroke-dasharray="3 1" stroke-width="0.75" x1="1841.875" x2="1841.875" y1="90" y2="114" />
<line stroke="#405C86" stroke-dasharray="3 1" stroke-width="0.75" x1="1829.9375" x2="1829.9375" y1="90" y2="114" />
<line stroke="#405C86" stroke-dasharray="3 1" stroke-width="0.75" x1="1818" x2="1818" y1="90" y2="114" />
<line stroke="#405C86" stroke-dasharray="3 1" stroke-width="0.75" x1="1806.0625" x2="1806.0625" y1="90" y2="114" />
<line stroke="#405C86" stroke-dasharray="3 1" stroke-width="0.75" x1="1794.125" x2="1794.125" y1="90" y2="114" />
<line stroke="#405C86" stroke-dasharray="3 1" stroke-width="0.75" x1="1782.1875" x2="1782.1875" y1="90" y2="114" />
<line stroke="#405C86" stroke-dasharray="3 1" stroke-width="0.75" x1="1770.25" x2="1770.25" y1="90" y2="114" />
<line stroke="#405C86" stroke-dasharray="3 1" stroke-width="0.75" x1="1758.3125" x2="1758.3125" y1="90" y2="114" />
<line stroke="#405C86" stroke-dasharray="3 1" stroke-width="0.75" x1="1746.375" x2="1746.375" y1="90" y2="114" />
<line stroke="#405C86" stroke-dasharray="3 1" stroke-width="0.75" x1="1734.4375" x2="1734.4375" y1="90" y2="114" />
<line stroke="#405C86" stroke-dasharray="3 1" stroke-width="0.75" x1="1722.5" x2="1722.5" y1="90" y2="114" />
<line stroke="#405C86" stroke-dasharray="3 1" stroke-width="0.75" x1="1710.5625" x2="1710.5625" y1="90" y2="114" />
<line stroke="#405C86" stroke-dasharray="3 1" stroke-width="0.75" x1="1698.625" x2="1698.625" y1="90" y2="114" />
<line stroke="#405C86" stroke-dasharray="3 1" stroke-width="0.75" x1="1686.6875" x2="1686.6875" y1="90" y2="114" />
<line stroke="#405C86" stroke-dasharray="3 1" stroke-width="0.75" x1="1674.75" x2="1674.75" y1="90" y2="114" />
<line stroke="#405C86" stroke-dasharray="3 1" stroke-width="0.75" x1="1662.8125" x2="1662.8125" y1="90" y2="114" />
<line stroke="#405C86" stroke-dasharray="3 1" stroke-width="0.75" x1="1650.875" x2="1650.875" y1="90" y2="114" />
<line stroke="#405C86" stroke-dasharray="3 1" stroke-width="0.75" x1="1638.9375" x2="1638.9375" y1="90" y2="114" />
<rect fill="none" height="24" stroke="#405C86" stroke-width="2" width="384" x="1626" y="90" />
<line stroke="#405C86" stroke-dasharray="3 1" stroke-width="0.75" x1="1613.0625" x2="1613.0625" y1="90" y2="114" />
<line stroke="#405C86" stroke-dasharray="3 1" stroke-width="0.75" x1="1601.125" x2="1601.125" y1="90" y2="114" />
<line stroke="#405C86" stroke-dasharray="3 1" stroke-width="0.75" x1="1589.1875" x2="1589.1875" y1="90" y2="114" />
<line stroke="#405C86" stroke-dasharray="3 1" stroke-width="0.75" x1="1577.25" x2="1577.25" y1="90" y2="114" />
<line stroke="#405C86" stroke-dasharray="3 1" stroke-width="0.75" x1="1565.3125" x2="1565.3125" y1="90" y2="114" />
<line stroke="#405C86" stroke-dasharray="3 1" stroke-width="0.75" x1="1553.375" x2="1553.375" y1="90" y2="114" />
<line stroke="#405C86" stroke-dasharray="3 1" stroke-width="0.75" x1="1541.4375" x2="1541.4375" y1="90" y2="114" />
<line stroke="#405C86" stroke-dasharray="3 1" stroke-width="0.75" x1="1529.5" x2="1529.5" y1="90" y2="114" />
<line stroke="#405C86" stroke-dasharray="3 1" stroke-width="0.75" x1="1517.5625" x2="1517.5625" y1="90" y2="114" />
<line stroke="#405C86" stroke-dasharray="3 1" stroke-width="0.75" x1="1505.625" x2="1505.625" y1="90" y2="114" />
<line stroke="#405C86" stroke-dasharray="3 1" stroke-width="0.75" x1="1493.6875" x2="1493.6875" y1="90" y2="114" />
<line stroke="#405C86" stroke-dasharray="3 1" stroke-width="0.75" x1="1481.75" x2="1481.75" y1="90" y2="114" />
<line stroke="#405C86" stroke-dasharray="3 1" stroke-width="0.75" x1="1469.8125" x2="1469.8125" y1="90" y2="114" />
<line stroke="#405C86" stroke-dasharray="3 1" stroke-width="0.75" x1="1457.875" x2="1457.875" y1="90" y2="114" />
<line stroke="#405C86" stroke-dasharray="3 1" stroke-width="0.75" x1="1445.9375" x2="1445.9375" y1="90" y2="114" />
<line stroke="#405C86" stroke-dasharray="3 1" stroke-width="0.75" x1="1434" x2="1434" y1="90" y2="114" />
<line stroke="#405C86" stroke-dasharray="3 1" stroke-width="0.75" x1="1422.0625" x2="1422.0625" y1="90" y2="114" />
<line stroke="#405C86" stroke-dasharray="3 1" stroke-width="0.75" x1="1410.125" x2="1410.125" y1="90" y2="114" />
<line stroke="#405C86" stroke-dasharray="3 1" stroke-width="0.75" x1="1398.1875" x2="1398.1875" y1="90" y2="114" />
<line stroke="#405C86" stroke-dasharray="3 1" stroke-width="0.75" x1="1386.25" x2="1386.25" y1="90" y2="114" />
<line stroke="#405C86" stroke-dasharray="3 1" stroke-width="0.75" x1="1374.3125" x2="1374.3125" y1="90" y2="114" />
<line stroke="#405C86" stroke-dasharray="3 1" stroke-width="0.75" x1="1362.375" x2="1362.375" y1="90" y2="114" />
<line stroke="#405C86" stroke-dasharray="3 1" stroke-width="0.75" x1="1350.4375" x2="1350.4375" y1="90" y2="114" />
<line stroke="#405C86" stroke-dasharray="3 1" stroke-width="0.75" x1="1338.5" x2="1338.5" y1="90" y2="114" />
<line stroke="#405C86" stroke-dasharray="3 1" stroke-width="0.75" x1="1326.5625" x2="1326.5625" y1="90" y2="114" />
<line stroke="#405C86" stroke-dasharray="3 1" stroke-width="0.75" x1="1314.625" x2="1314.625" y1="90" y2="114" />
<line stroke="#405C86" stroke-dasharray="3 1" stroke-width="0.75" x1="1302.6875" x2="1302.6875" y1="90" y2="114" />
<line stroke="#405C86" stroke-dasharray="3 1" stroke-width="0.75" x1="1290.75" x2="1290.75" y1="90" y2="114" />
<line stroke="#405C86" stroke-dasharray="3 1" stroke-width="0.75" x1="1278.8125" x2="1278.8125" y1="90" y2="114" />
<line stroke="#405C86" stroke-dasharray="3 1" stroke-width="0.75" x1="1266.875" x2="1266.875" y1="90" y2="114" />
<line stroke="#405C86" stroke-dasharray="3 1" stroke-width="0.75" x1="1254.9375" x2="1254.9375" y1="90" y2="114" />
<rect fill="none" height="24" stroke="#405C86" stroke-width="2" width="384" x="1242" y="90" />
<line stroke="#405C86" stroke-dasharray="3 1" stroke-width="0.75" x1="1229.0625" x2="1229.0625" y1="90" y2="114" />
<line stroke="#405C86" stroke-dasharray="3 1" stroke-width="0.75" x1="1217.125" x2="1217.125" y1="90" y2="114" />
<line stroke="#405C86" stroke-dasharray="3 1" stroke-width="0.75" x1="1205.1875" x2="1205.1875" y1="90" y2="114" />
<line stroke="#405C86" stroke-dasharray="3 1" stroke-width="0.75" x1="1193.25" x2="1193.25" y1="90" y2="114" />
<line stroke="#405C86" stroke-dasharray="3 1" stroke-width="0.75" x1="1181.3125" x2="1181.3125" y1="90" y2="114" />
<line stroke="#405C86" stroke-dasharray="3 1" stroke-width="0.75" x1="1169.375" x2="1169.375" y1="90" y2="114" />
<line stroke="#405C86" stroke-dasharray="3 1" stroke-width="0.75" x1="1157.4375" x2="1157.4375" y1="90" y2="114" />
<line stroke="#405C86" stroke-dasharray="3 1" stroke-width="0.75" x1="1145.5" x2="1145.5" y1="90" y2="114" />
<line stroke="#405C86" stroke-dasharray="3 1" stroke-width="0.75" x1="1133.5625" x2="1133.5625" y1="90" y2="114" />
<line stroke="#405C86" stroke-dasharray="3 1" stroke-width="0.75" x1="1121.625" x2="1121.625" y1="90" y2="114" />
<line stroke="#405C86" stroke-dasharray="3 1" stroke-width="0.75" x1="1109.6875" x2="1109.6875" y1="90" y2="114" />
<line stroke="#405C86" stroke-dasharray="3 1" stroke-width="0.75" x1="1097.75" x2="1097.75" y1="90" y2="114" />
<line stroke="#405C86" stroke-dasharray="3 1" stroke-width="0.75" x1="1085.8125" x2="1085.8125" y1="90" y2="114" />
<line stroke="#405C86" stroke-dasharray="3 1" stroke-width="0.75" x1="1073.875" x2="1073.875" y1="90" y2="114" />
<line stroke="#405C86" stroke-dasharray="3 1" stroke-width="0.75" x1="1061.9375" x2="1061.9375" y1="90" y2="114" />
<line stroke="#405C86" stroke-dasharray="3 1" stroke-width="0.75" x1="1050" x2="1050" y1="90" y2="114" />
<line stroke="#405C86" stroke-dasharray="3 1" stroke-width="0.75" x1="1038.0625" x2="1038.0625" y1="90" y2="114" />
<line stroke="#405C86" stroke-dasharray="3 1" stroke-width="0.75" x1="1026.125" x2="1026.125" y1="90" y2="114" />
<line stroke="#405C86" stroke-dasharray="3 1" stroke-width="0.75" x1="1014.1875" x2="1014.1875" y1="90" y2="114" />
<line stroke="#405C86" stroke-dasharray="3 1" stroke-width="0.75" x1="1002.25" x2="1002.25" y1="90" y2="114" />
<line stroke="#405C86" stroke-dasharray="3 1" stroke-width="0.75" x1="990.3125" x2="990.3125" y1="90" y2="114" />
<line stroke="#405C86" stroke-dasharray="3 1" stroke-width="0.75" x1="978.375" x2="978.375" y1="90" y2="114" />
<line stroke="#405C86" stroke-dasharray="3 1" stroke-width="0.75" x1="966.4375" x2="966.4375" y1="90" y2="114" />
<line stroke="#405C86" stroke-dasharray="3 1" stroke-width="0.75" x1="954.5" x2="954.5" y1="90" y2="114" />
<line stroke="#405C86" stroke-dasharray="3 1" stroke-width="0.75" x1="942.5625" x2="942.5625" y1="90" y2="114" />
<line stroke="#405C86" stroke-dasharray="3 1" stroke-width="0.75" x1="930.625" x2="930.625" y1="90" y2="114" />
<line stroke="#405C86" stroke-dasharray="3 1" stroke-width="0.75" x1="918.6875" x2="918.6875" y1="90" y2="114" />
<line stroke="#405C86" stroke-dasharray="3 1" stroke-width="0.75" x1="906.75" x2="906.75" y1="90" y2="114" />
<line stroke="#405C86" stroke-dasharray="3 1" stroke-width="0.75" x1="894.8125" x2="894.8125" y1="90" y2="114" />
<line stroke="#405C86" stroke-dasharray="3 1" stroke-width="0.75" x1="882.875" x2="882.875" y1="90" y2="114" />
<line stroke="#405C86" stroke-dasharray="3 1" stroke-width="0.75" x1="870.9375" x2="870.9375" y1="90" y2="114" />
<rect fill="none" height="24" stroke="#405C86" stroke-width="2" width="384" x="858" y="90" />
<line marker-end="url(#arrowhead)" stroke="none" x1="2003.53125" x2="2388" y1="114.5" y2="161" />
<line marker-end="url(#arrowhead)" stroke="none" x1="1991.09375" x2="2340" y1="114.5" y2="161" />
<line marker-end="url(#arrowhead)" stroke="none" x1="1979.15625" x2="2292" y1="114.5" y2="161" />
<line marker-end="url(#arrowhead)" stroke="none" x1="1967.21875" x2="2244" y1="114.5" y2="161" />
<line marker-end="url(#arrowhead)" stroke="none" x1="1955.28125" x2="2196" y1="114.5" y2="161" />
<line marker-end="url(#arrowhead)" stroke="none" x1="1943.34375" x2="2148" y1="114.5" y2="161" />
<line marker-end="url(#arrowhead)" stroke="none" x1="1931.40625" x2="2100" y1="114.5" y2="161" />
<line marker-end="url(#arrowhead)" stroke="none" x1="1919.46875" x2="2052" y1="114.5" y2="161" />
<line marker-end="url(#arrowhead)" stroke="none" x1="1907.53125" x2="2004" y1="114.5" y2="161" />
<line marker-end="url(#arrowhead)" stroke="none" x1="1895.59375" x2="1956" y1="114.5" y2="161" />
<line marker-end="url(#arrowhead)" stroke="none" x1="1883.65625" x2="1908" y1="114.5" y2="161" />
<line marker-end="url(#arrowhead)" stroke="none" x1="1871.71875" x2="1860" y1="114.5" y2="161" />
<line marker-end="url(#arrowhead)" stroke="none" x1="1859.78125" x2="1812" y1="114.5" y2="161" />
<line marker-end="url(#arrowhead)" stroke="none" x1="1847.84375" x2="1764" y1="114.5" y2="161" />
<line marker-end="url(#arrowhead)" stroke="none" x1="1835.90625" x2="1716" y1="114.5" y2="161" />
<line marker-end="url(#arrowhead)" stroke="none" x1="1823.96875" x2="1668" y1="114.5" y2="161" />
<line marker-end="url(#arrowhead)" stroke="none" x1="1812.03125" x2="1620" y1="114.5" y2="161" />
<line marker-end="url(#arrowhead)" stroke="none" x1="1800.09375" x2="1572" y1="114.5" y2="161" />
<line marker-end="url(#arrowhead)" stroke="none" x1="1788.15625" x2="1524" y1="114.5" y2="161" />
<line marker-end="url(#arrowhead)" stroke="none" x1="1776.21875" x2="1476" y1="114.5" y2="161" />
<line marker-end="url(#arrowhead)" stroke="none" x1="1764.28125" x2="1428" y1="114.5" y2="161" />
<line marker-end="url(#arrowhead)" stroke="none" x1="1752.34375" x2="1380" y1="114.5" y2="161" />
<line marker-end="url(#arrowhead)" stroke="none" x1="1740.40625" x2="1332" y1="114.5" y2="161" />
<line marker-end="url(#arrowhead)" stroke="none" x1="1728.46875" x2="1284" y1="114.5" y2="161" />
<line marker-end="url(#arrowhead)" stroke="none" x1="1716.53125" x2="1236" y1="114.5" y2="161" />
<line marker-end="url(#arrowhead)" stroke="none" x1="1704.59375" x2="1188" y1="114.5" y2="161" />
<line marker-end="url(#arrowhead)" stroke="none" x1="1692.65625" x2="1140" y1="114.5" y2="161" />
<line marker-end="url(#arrowhead)" stroke="none" x1="1680.71875" x2="1092" y1="114.5" y2="161" />
<line marker-end="url(#arrowhead)" stroke="none" x1="1668.78125" x2="1044" y1="114.5" y2="161" />
<line marker-end="url(#arrowhead)" stroke="none" x1="1656.84375" x2="996" y1="114.5" y2="161" />
<line marker-end="url(#arrowhead)" stroke="none" x1="1644.90625" x2="948" y1="114.5" y2="161" />
<line marker-end="url(#arrowhead)" stroke="none" x1="1632.46875" x2="900" y1="114.5" y2="161" />
</svg>