<svg xmlns="http://www.w3.org/2000/svg" viewBox="0 0 1638 195">
<style>
.label { font: 14px Helvetica; dominant-baseline: middle; text-anchor: middle; }
.title-left { font: 12px Helvetica; dominant-baseline: middle; }
.title-right { font: 12px Helvetica; dominant-baseline: middle; text-anchor: end; }
.title-intrinsic { font: 12px Helvetica; dominant-baseline: middle; text-anchor: middle; fill: #6778ED; }
.title { font: 12px Helvetica; dominant-baseline: middle; text-anchor: middle; }
.title-unused { font: 12px Helvetica; dominant-baseline: middle; text-anchor: middle; fill: #AAA; }
.register-name { font: 14px Helvetica; dominant-baseline: middle; text-anchor: end; font-style: italic; }
.memory-name { font: 14px Helvetica; dominant-baseline: middle; text-anchor: end; }
.register-number { font: 14px Helvetica; dominant-baseline: middle; text-anchor: start; }
.intrinsic-name { font: 14px Helvetica; dominant-baseline: middle; text-anchor: end; fill: #6778ED; }
.intrinsic-color { fill: #6778ED; }
.small-label { font: 12px Helvetica; dominant-baseline: middle; text-anchor: middle; }
.label-10px { font: 10px Helvetica; dominant-baseline: middle; text-anchor: middle; }
.smaller-label { font: 9px Helvetica; dominant-baseline: middle; text-anchor: middle; }
.label-6px { font: 6px Helvetica; dominant-baseline: middle; text-anchor: middle; }
.label-7px { font: 7px Helvetica; dominant-baseline: middle; text-anchor: middle; }
.unused { fill: #AAA; }
.dim { fill: #888; }
</style>
<defs>
<marker id="arrowhead" markerWidth="9.5" markerHeight="21.0" refX="7.75" refY="5.25" orient="auto">
<polyline points="0.5 0.5, 7.5 5.25, 0.5 10.0" stroke="#567DB6" stroke-width="1" fill="none"/>
</marker>
</defs>
<line stroke="#567DB6" stroke-width="1" x1="1235.515625" x2="1236" y1="114.5" y2="161" />
<line stroke="#567DB6" stroke-width="1" x1="1223.046875" x2="1224" y1="114.5" y2="161" />
<line stroke="#567DB6" stroke-width="1" x1="1211.078125" x2="1212" y1="114.5" y2="161" />
<line stroke="#567DB6" stroke-width="1" x1="1199.109375" x2="1200" y1="114.5" y2="161" />
<line stroke="#567DB6" stroke-width="1" x1="1187.140625" x2="1188" y1="114.5" y2="161" />
<line stroke="#567DB6" stroke-width="1" x1="1175.171875" x2="1176" y1="114.5" y2="161" />
<line stroke="#567DB6" stroke-width="1" x1="1163.203125" x2="1164" y1="114.5" y2="161" />
<line stroke="#567DB6" stroke-width="1" x1="1151.234375" x2="1152" y1="114.5" y2="161" />
<line stroke="#567DB6" stroke-width="1" x1="1139.265625" x2="1140" y1="114.5" y2="161" />
<line stroke="#567DB6" stroke-width="1" x1="1127.296875" x2="1128" y1="114.5" y2="161" />
<line stroke="#567DB6" stroke-width="1" x1="1115.328125" x2="1116" y1="114.5" y2="161" />
<line stroke="#567DB6" stroke-width="1" x1="1103.359375" x2="1104" y1="114.5" y2="161" />
<line stroke="#567DB6" stroke-width="1" x1="1091.390625" x2="1092" y1="114.5" y2="161" />
<line stroke="#567DB6" stroke-width="1" x1="1079.421875" x2="1080" y1="114.5" y2="161" />
<line stroke="#567DB6" stroke-width="1" x1="1067.453125" x2="1068" y1="114.5" y2="161" />
<line stroke="#567DB6" stroke-width="1" x1="1055.484375" x2="1056" y1="114.5" y2="161" />
<line stroke="#567DB6" stroke-width="1" x1="1043.515625" x2="1044" y1="114.5" y2="161" />
<line stroke="#567DB6" stroke-width="1" x1="1031.546875" x2="1032" y1="114.5" y2="161" />
<line stroke="#567DB6" stroke-width="1" x1="1019.578125" x2="1020" y1="114.5" y2="161" />
<line stroke="#567DB6" stroke-width="1" x1="1007.609375" x2="1008" y1="114.5" y2="161" />
<line stroke="#567DB6" stroke-width="1" x1="995.640625" x2="996" y1="114.5" y2="161" />
<line stroke="#567DB6" stroke-width="1" x1="983.671875" x2="984" y1="114.5" y2="161" />
<line stroke="#567DB6" stroke-width="1" x1="971.703125" x2="972" y1="114.5" y2="161" />
<line stroke="#567DB6" stroke-width="1" x1="959.734375" x2="960" y1="114.5" y2="161" />
<line stroke="#567DB6" stroke-width="1" x1="947.765625" x2="948" y1="114.5" y2="161" />
<line stroke="#567DB6" stroke-width="1" x1="935.796875" x2="936" y1="114.5" y2="161" />
<line stroke="#567DB6" stroke-width="1" x1="923.828125" x2="924" y1="114.5" y2="161" />
<line stroke="#567DB6" stroke-width="1" x1="911.859375" x2="912" y1="114.5" y2="161" />
<line stroke="#567DB6" stroke-width="1" x1="899.890625" x2="900" y1="114.5" y2="161" />
<line stroke="#567DB6" stroke-width="1" x1="887.921875" x2="888" y1="114.5" y2="161" />
<line stroke="#567DB6" stroke-width="1" x1="875.953125" x2="876" y1="114.5" y2="161" />
<line stroke="#567DB6" stroke-width="1" x1="863.984375" x2="864" y1="114.5" y2="161" />
<line stroke="#567DB6" stroke-width="1" x1="852.015625" x2="852" y1="114.5" y2="161" />
<line stroke="#567DB6" stroke-width="1" x1="840.046875" x2="840" y1="114.5" y2="161" />
<line stroke="#567DB6" stroke-width="1" x1="828.078125" x2="828" y1="114.5" y2="161" />
<line stroke="#567DB6" stroke-width="1" x1="816.109375" x2="816" y1="114.5" y2="161" />
<line stroke="#567DB6" stroke-width="1" x1="804.140625" x2="804" y1="114.5" y2="161" />
<line stroke="#567DB6" stroke-width="1" x1="792.171875" x2="792" y1="114.5" y2="161" />
<line stroke="#567DB6" stroke-width="1" x1="780.203125" x2="780" y1="114.5" y2="161" />
<line stroke="#567DB6" stroke-width="1" x1="768.234375" x2="768" y1="114.5" y2="161" />
<line stroke="#567DB6" stroke-width="1" x1="756.265625" x2="756" y1="114.5" y2="161" />
<line stroke="#567DB6" stroke-width="1" x1="744.296875" x2="744" y1="114.5" y2="161" />
<line stroke="#567DB6" stroke-width="1" x1="732.328125" x2="732" y1="114.5" y2="161" />
<line stroke="#567DB6" stroke-width="1" x1="720.359375" x2="720" y1="114.5" y2="161" />
<line stroke="#567DB6" stroke-width="1" x1="708.390625" x2="708" y1="114.5" y2="161" />
<line stroke="#567DB6" stroke-width="1" x1="696.421875" x2="696" y1="114.5" y2="161" />
<line stroke="#567DB6" stroke-width="1" x1="684.453125" x2="684" y1="114.5" y2="161" />
<line stroke="#567DB6" stroke-width="1" x1="672.484375" x2="672" y1="114.5" y2="161" />
<line stroke="#567DB6" stroke-width="1" x1="660.515625" x2="660" y1="114.5" y2="161" />
<line stroke="#567DB6" stroke-width="1" x1="648.546875" x2="648" y1="114.5" y2="161" />
<line stroke="#567DB6" stroke-width="1" x1="636.578125" x2="636" y1="114.5" y2="161" />
<line stroke="#567DB6" stroke-width="1" x1="624.609375" x2="624" y1="114.5" y2="161" />
<line stroke="#567DB6" stroke-width="1" x1="612.640625" x2="612" y1="114.5" y2="161" />
<line stroke="#567DB6" stroke-width="1" x1="600.671875" x2="600" y1="114.5" y2="161" />
<line stroke="#567DB6" stroke-width="1" x1="588.703125" x2="588" y1="114.5" y2="161" />
<line stroke="#567DB6" stroke-width="1" x1="576.734375" x2="576" y1="114.5" y2="161" />
<line stroke="#567DB6" stroke-width="1" x1="564.765625" x2="564" y1="114.5" y2="161" />
<line stroke="#567DB6" stroke-width="1" x1="552.796875" x2="552" y1="114.5" y2="161" />
<line stroke="#567DB6" stroke-width="1" x1="540.828125" x2="540" y1="114.5" y2="161" />
<line stroke="#567DB6" stroke-width="1" x1="528.859375" x2="528" y1="114.5" y2="161" />
<line stroke="#567DB6" stroke-width="1" x1="516.890625" x2="516" y1="114.5" y2="161" />
<line stroke="#567DB6" stroke-width="1" x1="504.921875" x2="504" y1="114.5" y2="161" />
<line stroke="#567DB6" stroke-width="1" x1="492.953125" x2="492" y1="114.5" y2="161" />
<line stroke="#567DB6" stroke-width="1" x1="480.484375" x2="480" y1="114.5" y2="161" />
<line stroke="#567DB6" stroke-dasharray="3 3" stroke-width="0.75" x1="1434" x2="474" y1="42.5" y2="89.5" />
<line stroke="#567DB6" stroke-dasharray="3 3" stroke-width="0.75" x1="1626" x2="1242" y1="42.5" y2="89.5" />
<text class="title-left" x="90" y="9">upper</text>
<text class="title-right" x="1626" y="9">lower</text>
<rect fill="#DEE6F1" height="24" width="192" x="1434" y="18" />
<rect fill="none" height="24" stroke="#405C86" stroke-width="2" width="192" x="1434" y="18" />
<rect fill="none" height="24" stroke="#405C86" stroke-dasharray="3 1" stroke-dashoffset="1.5" stroke-width="1" width="1344" x="90" y="18" />
<text class="label unused" x="762" y="31"></text>
<text class="register-name" x="80" y="30">Zn</text>
<text class="register-number" x="10" y="30">(1)</text>
<rect fill="#DEE6F1" height="24" width="12" x="1230" y="162" />
<rect fill="none" height="24" stroke="#405C86" stroke-width="2" width="12" x="1230" y="162" />
<rect fill="#DEE6F1" height="24" width="12" x="1218" y="162" />
<rect fill="none" height="24" stroke="#405C86" stroke-width="2" width="12" x="1218" y="162" />
<rect fill="#DEE6F1" height="24" width="12" x="1206" y="162" />
<rect fill="none" height="24" stroke="#405C86" stroke-width="2" width="12" x="1206" y="162" />
<rect fill="#DEE6F1" height="24" width="12" x="1194" y="162" />
<rect fill="none" height="24" stroke="#405C86" stroke-width="2" width="12" x="1194" y="162" />
<rect fill="#DEE6F1" height="24" width="12" x="1182" y="162" />
<rect fill="none" height="24" stroke="#405C86" stroke-width="2" width="12" x="1182" y="162" />
<rect fill="#DEE6F1" height="24" width="12" x="1170" y="162" />
<rect fill="none" height="24" stroke="#405C86" stroke-width="2" width="12" x="1170" y="162" />
<rect fill="#DEE6F1" height="24" width="12" x="1158" y="162" />
<rect fill="none" height="24" stroke="#405C86" stroke-width="2" width="12" x="1158" y="162" />
<rect fill="#DEE6F1" height="24" width="12" x="1146" y="162" />
<rect fill="none" height="24" stroke="#405C86" stroke-width="2" width="12" x="1146" y="162" />
<rect fill="#DEE6F1" height="24" width="12" x="1134" y="162" />
<rect fill="none" height="24" stroke="#405C86" stroke-width="2" width="12" x="1134" y="162" />
<rect fill="#DEE6F1" height="24" width="12" x="1122" y="162" />
<rect fill="none" height="24" stroke="#405C86" stroke-width="2" width="12" x="1122" y="162" />
<rect fill="#DEE6F1" height="24" width="12" x="1110" y="162" />
<rect fill="none" height="24" stroke="#405C86" stroke-width="2" width="12" x="1110" y="162" />
<rect fill="#DEE6F1" height="24" width="12" x="1098" y="162" />
<rect fill="none" height="24" stroke="#405C86" stroke-width="2" width="12" x="1098" y="162" />
<rect fill="#DEE6F1" height="24" width="12" x="1086" y="162" />
<rect fill="none" height="24" stroke="#405C86" stroke-width="2" width="12" x="1086" y="162" />
<rect fill="#DEE6F1" height="24" width="12" x="1074" y="162" />
<rect fill="none" height="24" stroke="#405C86" stroke-width="2" width="12" x="1074" y="162" />
<rect fill="#DEE6F1" height="24" width="12" x="1062" y="162" />
<rect fill="none" height="24" stroke="#405C86" stroke-width="2" width="12" x="1062" y="162" />
<rect fill="#DEE6F1" height="24" width="12" x="1050" y="162" />
<rect fill="none" height="24" stroke="#405C86" stroke-width="2" width="12" x="1050" y="162" />
<rect fill="#DEE6F1" height="24" width="12" x="1038" y="162" />
<rect fill="none" height="24" stroke="#405C86" stroke-width="2" width="12" x="1038" y="162" />
<rect fill="#DEE6F1" height="24" width="12" x="1026" y="162" />
<rect fill="none" height="24" stroke="#405C86" stroke-width="2" width="12" x="1026" y="162" />
<rect fill="#DEE6F1" height="24" width="12" x="1014" y="162" />
<rect fill="none" height="24" stroke="#405C86" stroke-width="2" width="12" x="1014" y="162" />
<rect fill="#DEE6F1" height="24" width="12" x="1002" y="162" />
<rect fill="none" height="24" stroke="#405C86" stroke-width="2" width="12" x="1002" y="162" />
<rect fill="#DEE6F1" height="24" width="12" x="990" y="162" />
<rect fill="none" height="24" stroke="#405C86" stroke-width="2" width="12" x="990" y="162" />
<rect fill="#DEE6F1" height="24" width="12" x="978" y="162" />
<rect fill="none" height="24" stroke="#405C86" stroke-width="2" width="12" x="978" y="162" />
<rect fill="#DEE6F1" height="24" width="12" x="966" y="162" />
<rect fill="none" height="24" stroke="#405C86" stroke-width="2" width="12" x="966" y="162" />
<rect fill="#DEE6F1" height="24" width="12" x="954" y="162" />
<rect fill="none" height="24" stroke="#405C86" stroke-width="2" width="12" x="954" y="162" />
<rect fill="#DEE6F1" height="24" width="12" x="942" y="162" />
<rect fill="none" height="24" stroke="#405C86" stroke-width="2" width="12" x="942" y="162" />
<rect fill="#DEE6F1" height="24" width="12" x="930" y="162" />
<rect fill="none" height="24" stroke="#405C86" stroke-width="2" width="12" x="930" y="162" />
<rect fill="#DEE6F1" height="24" width="12" x="918" y="162" />
<rect fill="none" height="24" stroke="#405C86" stroke-width="2" width="12" x="918" y="162" />
<rect fill="#DEE6F1" height="24" width="12" x="906" y="162" />
<rect fill="none" height="24" stroke="#405C86" stroke-width="2" width="12" x="906" y="162" />
<rect fill="#DEE6F1" height="24" width="12" x="894" y="162" />
<rect fill="none" height="24" stroke="#405C86" stroke-width="2" width="12" x="894" y="162" />
<rect fill="#DEE6F1" height="24" width="12" x="882" y="162" />
<rect fill="none" height="24" stroke="#405C86" stroke-width="2" width="12" x="882" y="162" />
<rect fill="#DEE6F1" height="24" width="12" x="870" y="162" />
<rect fill="none" height="24" stroke="#405C86" stroke-width="2" width="12" x="870" y="162" />
<rect fill="#DEE6F1" height="24" width="12" x="858" y="162" />
<rect fill="none" height="24" stroke="#405C86" stroke-width="2" width="12" x="858" y="162" />
<rect fill="#DEE6F1" height="24" width="12" x="846" y="162" />
<rect fill="none" height="24" stroke="#405C86" stroke-width="2" width="12" x="846" y="162" />
<rect fill="#DEE6F1" height="24" width="12" x="834" y="162" />
<rect fill="none" height="24" stroke="#405C86" stroke-width="2" width="12" x="834" y="162" />
<rect fill="#DEE6F1" height="24" width="12" x="822" y="162" />
<rect fill="none" height="24" stroke="#405C86" stroke-width="2" width="12" x="822" y="162" />
<rect fill="#DEE6F1" height="24" width="12" x="810" y="162" />
<rect fill="none" height="24" stroke="#405C86" stroke-width="2" width="12" x="810" y="162" />
<rect fill="#DEE6F1" height="24" width="12" x="798" y="162" />
<rect fill="none" height="24" stroke="#405C86" stroke-width="2" width="12" x="798" y="162" />
<rect fill="#DEE6F1" height="24" width="12" x="786" y="162" />
<rect fill="none" height="24" stroke="#405C86" stroke-width="2" width="12" x="786" y="162" />
<rect fill="#DEE6F1" height="24" width="12" x="774" y="162" />
<rect fill="none" height="24" stroke="#405C86" stroke-width="2" width="12" x="774" y="162" />
<rect fill="#DEE6F1" height="24" width="12" x="762" y="162" />
<rect fill="none" height="24" stroke="#405C86" stroke-width="2" width="12" x="762" y="162" />
<rect fill="#DEE6F1" height="24" width="12" x="750" y="162" />
<rect fill="none" height="24" stroke="#405C86" stroke-width="2" width="12" x="750" y="162" />
<rect fill="#DEE6F1" height="24" width="12" x="738" y="162" />
<rect fill="none" height="24" stroke="#405C86" stroke-width="2" width="12" x="738" y="162" />
<rect fill="#DEE6F1" height="24" width="12" x="726" y="162" />
<rect fill="none" height="24" stroke="#405C86" stroke-width="2" width="12" x="726" y="162" />
<rect fill="#DEE6F1" height="24" width="12" x="714" y="162" />
<rect fill="none" height="24" stroke="#405C86" stroke-width="2" width="12" x="714" y="162" />
<rect fill="#DEE6F1" height="24" width="12" x="702" y="162" />
<rect fill="none" height="24" stroke="#405C86" stroke-width="2" width="12" x="702" y="162" />
<rect fill="#DEE6F1" height="24" width="12" x="690" y="162" />
<rect fill="none" height="24" stroke="#405C86" stroke-width="2" width="12" x="690" y="162" />
<rect fill="#DEE6F1" height="24" width="12" x="678" y="162" />
<rect fill="none" height="24" stroke="#405C86" stroke-width="2" width="12" x="678" y="162" />
<rect fill="#DEE6F1" height="24" width="12" x="666" y="162" />
<rect fill="none" height="24" stroke="#405C86" stroke-width="2" width="12" x="666" y="162" />
<rect fill="#DEE6F1" height="24" width="12" x="654" y="162" />
<rect fill="none" height="24" stroke="#405C86" stroke-width="2" width="12" x="654" y="162" />
<rect fill="#DEE6F1" height="24" width="12" x="642" y="162" />
<rect fill="none" height="24" stroke="#405C86" stroke-width="2" width="12" x="642" y="162" />
<rect fill="#DEE6F1" height="24" width="12" x="630" y="162" />
<rect fill="none" height="24" stroke="#405C86" stroke-width="2" width="12" x="630" y="162" />
<rect fill="#DEE6F1" height="24" width="12" x="618" y="162" />
<rect fill="none" height="24" stroke="#405C86" stroke-width="2" width="12" x="618" y="162" />
<rect fill="#DEE6F1" height="24" width="12" x="606" y="162" />
<rect fill="none" height="24" stroke="#405C86" stroke-width="2" width="12" x="606" y="162" />
<rect fill="#DEE6F1" height="24" width="12" x="594" y="162" />
<rect fill="none" height="24" stroke="#405C86" stroke-width="2" width="12" x="594" y="162" />
<rect fill="#DEE6F1" height="24" width="12" x="582" y="162" />
<rect fill="none" height="24" stroke="#405C86" stroke-width="2" width="12" x="582" y="162" />
<rect fill="#DEE6F1" height="24" width="12" x="570" y="162" />
<rect fill="none" height="24" stroke="#405C86" stroke-width="2" width="12" x="570" y="162" />
<rect fill="#DEE6F1" height="24" width="12" x="558" y="162" />
<rect fill="none" height="24" stroke="#405C86" stroke-width="2" width="12" x="558" y="162" />
<rect fill="#DEE6F1" height="24" width="12" x="546" y="162" />
<rect fill="none" height="24" stroke="#405C86" stroke-width="2" width="12" x="546" y="162" />
<rect fill="#DEE6F1" height="24" width="12" x="534" y="162" />
<rect fill="none" height="24" stroke="#405C86" stroke-width="2" width="12" x="534" y="162" />
<rect fill="#DEE6F1" height="24" width="12" x="522" y="162" />
<rect fill="none" height="24" stroke="#405C86" stroke-width="2" width="12" x="522" y="162" />
<rect fill="#DEE6F1" height="24" width="12" x="510" y="162" />
<rect fill="none" height="24" stroke="#405C86" stroke-width="2" width="12" x="510" y="162" />
<rect fill="#DEE6F1" height="24" width="12" x="498" y="162" />
<rect fill="none" height="24" stroke="#405C86" stroke-width="2" width="12" x="498" y="162" />
<rect fill="#DEE6F1" height="24" width="12" x="486" y="162" />
<rect fill="none" height="24" stroke="#405C86" stroke-width="2" width="12" x="486" y="162" />
<rect fill="#DEE6F1" height="24" width="12" x="474" y="162" />
<rect fill="none" height="24" stroke="#405C86" stroke-width="2" width="12" x="474" y="162" />
<text class="register-name" x="80" y="174">Pd</text>
<text class="register-number" x="10" y="174">(2)</text>
<rect fill="#DEE6F1" height="24" width="768" x="474" y="90" />
<line stroke="#405C86" stroke-dasharray="3 1" stroke-width="0.75" x1="1229.03125" x2="1229.03125" y1="90" y2="114" />
<line stroke="#405C86" stroke-dasharray="3 1" stroke-width="0.75" x1="1217.0625" x2="1217.0625" y1="90" y2="114" />
<line stroke="#405C86" stroke-dasharray="3 1" stroke-width="0.75" x1="1205.09375" x2="1205.09375" y1="90" y2="114" />
<line stroke="#405C86" stroke-dasharray="3 1" stroke-width="0.75" x1="1193.125" x2="1193.125" y1="90" y2="114" />
<line stroke="#405C86" stroke-dasharray="3 1" stroke-width="0.75" x1="1181.15625" x2="1181.15625" y1="90" y2="114" />
<line stroke="#405C86" stroke-dasharray="3 1" stroke-width="0.75" x1="1169.1875" x2="1169.1875" y1="90" y2="114" />
<line stroke="#405C86" stroke-dasharray="3 1" stroke-width="0.75" x1="1157.21875" x2="1157.21875" y1="90" y2="114" />
<line stroke="#405C86" stroke-dasharray="3 1" stroke-width="0.75" x1="1145.25" x2="1145.25" y1="90" y2="114" />
<line stroke="#405C86" stroke-dasharray="3 1" stroke-width="0.75" x1="1133.28125" x2="1133.28125" y1="90" y2="114" />
<line stroke="#405C86" stroke-dasharray="3 1" stroke-width="0.75" x1="1121.3125" x2="1121.3125" y1="90" y2="114" />
<line stroke="#405C86" stroke-dasharray="3 1" stroke-width="0.75" x1="1109.34375" x2="1109.34375" y1="90" y2="114" />
<line stroke="#405C86" stroke-dasharray="3 1" stroke-width="0.75" x1="1097.375" x2="1097.375" y1="90" y2="114" />
<line stroke="#405C86" stroke-dasharray="3 1" stroke-width="0.75" x1="1085.40625" x2="1085.40625" y1="90" y2="114" />
<line stroke="#405C86" stroke-dasharray="3 1" stroke-width="0.75" x1="1073.4375" x2="1073.4375" y1="90" y2="114" />
<line stroke="#405C86" stroke-dasharray="3 1" stroke-width="0.75" x1="1061.46875" x2="1061.46875" y1="90" y2="114" />
<line stroke="#405C86" stroke-dasharray="3 1" stroke-width="0.75" x1="1049.5" x2="1049.5" y1="90" y2="114" />
<line stroke="#405C86" stroke-dasharray="3 1" stroke-width="0.75" x1="1037.53125" x2="1037.53125" y1="90" y2="114" />
<line stroke="#405C86" stroke-dasharray="3 1" stroke-width="0.75" x1="1025.5625" x2="1025.5625" y1="90" y2="114" />
<line stroke="#405C86" stroke-dasharray="3 1" stroke-width="0.75" x1="1013.59375" x2="1013.59375" y1="90" y2="114" />
<line stroke="#405C86" stroke-dasharray="3 1" stroke-width="0.75" x1="1001.625" x2="1001.625" y1="90" y2="114" />
<line stroke="#405C86" stroke-dasharray="3 1" stroke-width="0.75" x1="989.65625" x2="989.65625" y1="90" y2="114" />
<line stroke="#405C86" stroke-dasharray="3 1" stroke-width="0.75" x1="977.6875" x2="977.6875" y1="90" y2="114" />
<line stroke="#405C86" stroke-dasharray="3 1" stroke-width="0.75" x1="965.71875" x2="965.71875" y1="90" y2="114" />
<line stroke="#405C86" stroke-dasharray="3 1" stroke-width="0.75" x1="953.75" x2="953.75" y1="90" y2="114" />
<line stroke="#405C86" stroke-dasharray="3 1" stroke-width="0.75" x1="941.78125" x2="941.78125" y1="90" y2="114" />
<line stroke="#405C86" stroke-dasharray="3 1" stroke-width="0.75" x1="929.8125" x2="929.8125" y1="90" y2="114" />
<line stroke="#405C86" stroke-dasharray="3 1" stroke-width="0.75" x1="917.84375" x2="917.84375" y1="90" y2="114" />
<line stroke="#405C86" stroke-dasharray="3 1" stroke-width="0.75" x1="905.875" x2="905.875" y1="90" y2="114" />
<line stroke="#405C86" stroke-dasharray="3 1" stroke-width="0.75" x1="893.90625" x2="893.90625" y1="90" y2="114" />
<line stroke="#405C86" stroke-dasharray="3 1" stroke-width="0.75" x1="881.9375" x2="881.9375" y1="90" y2="114" />
<line stroke="#405C86" stroke-dasharray="3 1" stroke-width="0.75" x1="869.96875" x2="869.96875" y1="90" y2="114" />
<line stroke="#405C86" stroke-dasharray="3 1" stroke-width="0.75" x1="858" x2="858" y1="90" y2="114" />
<line stroke="#405C86" stroke-dasharray="3 1" stroke-width="0.75" x1="846.03125" x2="846.03125" y1="90" y2="114" />
<line stroke="#405C86" stroke-dasharray="3 1" stroke-width="0.75" x1="834.0625" x2="834.0625" y1="90" y2="114" />
<line stroke="#405C86" stroke-dasharray="3 1" stroke-width="0.75" x1="822.09375" x2="822.09375" y1="90" y2="114" />
<line stroke="#405C86" stroke-dasharray="3 1" stroke-width="0.75" x1="810.125" x2="810.125" y1="90" y2="114" />
<line stroke="#405C86" stroke-dasharray="3 1" stroke-width="0.75" x1="798.15625" x2="798.15625" y1="90" y2="114" />
<line stroke="#405C86" stroke-dasharray="3 1" stroke-width="0.75" x1="786.1875" x2="786.1875" y1="90" y2="114" />
<line stroke="#405C86" stroke-dasharray="3 1" stroke-width="0.75" x1="774.21875" x2="774.21875" y1="90" y2="114" />
<line stroke="#405C86" stroke-dasharray="3 1" stroke-width="0.75" x1="762.25" x2="762.25" y1="90" y2="114" />
<line stroke="#405C86" stroke-dasharray="3 1" stroke-width="0.75" x1="750.28125" x2="750.28125" y1="90" y2="114" />
<line stroke="#405C86" stroke-dasharray="3 1" stroke-width="0.75" x1="738.3125" x2="738.3125" y1="90" y2="114" />
<line stroke="#405C86" stroke-dasharray="3 1" stroke-width="0.75" x1="726.34375" x2="726.34375" y1="90" y2="114" />
<line stroke="#405C86" stroke-dasharray="3 1" stroke-width="0.75" x1="714.375" x2="714.375" y1="90" y2="114" />
<line stroke="#405C86" stroke-dasharray="3 1" stroke-width="0.75" x1="702.40625" x2="702.40625" y1="90" y2="114" />
<line stroke="#405C86" stroke-dasharray="3 1" stroke-width="0.75" x1="690.4375" x2="690.4375" y1="90" y2="114" />
<line stroke="#405C86" stroke-dasharray="3 1" stroke-width="0.75" x1="678.46875" x2="678.46875" y1="90" y2="114" />
<line stroke="#405C86" stroke-dasharray="3 1" stroke-width="0.75" x1="666.5" x2="666.5" y1="90" y2="114" />
<line stroke="#405C86" stroke-dasharray="3 1" stroke-width="0.75" x1="654.53125" x2="654.53125" y1="90" y2="114" />
<line stroke="#405C86" stroke-dasharray="3 1" stroke-width="0.75" x1="642.5625" x2="642.5625" y1="90" y2="114" />
<line stroke="#405C86" stroke-dasharray="3 1" stroke-width="0.75" x1="630.59375" x2="630.59375" y1="90" y2="114" />
<line stroke="#405C86" stroke-dasharray="3 1" stroke-width="0.75" x1="618.625" x2="618.625" y1="90" y2="114" />
<line stroke="#405C86" stroke-dasharray="3 1" stroke-width="0.75" x1="606.65625" x2="606.65625" y1="90" y2="114" />
<line stroke="#405C86" stroke-dasharray="3 1" stroke-width="0.75" x1="594.6875" x2="594.6875" y1="90" y2="114" />
<line stroke="#405C86" stroke-dasharray="3 1" stroke-width="0.75" x1="582.71875" x2="582.71875" y1="90" y2="114" />
<line stroke="#405C86" stroke-dasharray="3 1" stroke-width="0.75" x1="570.75" x2="570.75" y1="90" y2="114" />
<line stroke="#405C86" stroke-dasharray="3 1" stroke-width="0.75" x1="558.78125" x2="558.78125" y1="90" y2="114" />
<line stroke="#405C86" stroke-dasharray="3 1" stroke-width="0.75" x1="546.8125" x2="546.8125" y1="90" y2="114" />
<line stroke="#405C86" stroke-dasharray="3 1" stroke-width="0.75" x1="534.84375" x2="534.84375" y1="90" y2="114" />
<line stroke="#405C86" stroke-dasharray="3 1" stroke-width="0.75" x1="522.875" x2="522.875" y1="90" y2="114" />
<line stroke="#405C86" stroke-dasharray="3 1" stroke-width="0.75" x1="510.90625" x2="510.90625" y1="90" y2="114" />
<line stroke="#405C86" stroke-dasharray="3 1" stroke-width="0.75" x1="498.9375" x2="498.9375" y1="90" y2="114" />
<line stroke="#405C86" stroke-dasharray="3 1" stroke-width="0.75" x1="486.96875" x2="486.96875" y1="90" y2="114" />
<rect fill="none" height="24" stroke="#405C86" stroke-width="2" width="768" x="474" y="90" />
<line marker-end="url(#arrowhead)" stroke="none" x1="1235.515625" x2="1236" y1="114.5" y2="161" />
<line marker-end="url(#arrowhead)" stroke="none" x1="1223.046875" x2="1224" y1="114.5" y2="161" />
<line marker-end="url(#arrowhead)" stroke="none" x1="1211.078125" x2="1212" y1="114.5" y2="161" />
<line marker-end="url(#arrowhead)" stroke="none" x1="1199.109375" x2="1200" y1="114.5" y2="161" />
<line marker-end="url(#arrowhead)" stroke="none" x1="1187.140625" x2="1188" y1="114.5" y2="161" />
<line marker-end="url(#arrowhead)" stroke="none" x1="1175.171875" x2="1176" y1="114.5" y2="161" />
<line marker-end="url(#arrowhead)" stroke="none" x1="1163.203125" x2="1164" y1="114.5" y2="161" />
<line marker-end="url(#arrowhead)" stroke="none" x1="1151.234375" x2="1152" y1="114.5" y2="161" />
<line marker-end="url(#arrowhead)" stroke="none" x1="1139.265625" x2="1140" y1="114.5" y2="161" />
<line marker-end="url(#arrowhead)" stroke="none" x1="1127.296875" x2="1128" y1="114.5" y2="161" />
<line marker-end="url(#arrowhead)" stroke="none" x1="1115.328125" x2="1116" y1="114.5" y2="161" />
<line marker-end="url(#arrowhead)" stroke="none" x1="1103.359375" x2="1104" y1="114.5" y2="161" />
<line marker-end="url(#arrowhead)" stroke="none" x1="1091.390625" x2="1092" y1="114.5" y2="161" />
<line marker-end="url(#arrowhead)" stroke="none" x1="1079.421875" x2="1080" y1="114.5" y2="161" />
<line marker-end="url(#arrowhead)" stroke="none" x1="1067.453125" x2="1068" y1="114.5" y2="161" />
<line marker-end="url(#arrowhead)" stroke="none" x1="1055.484375" x2="1056" y1="114.5" y2="161" />
<line marker-end="url(#arrowhead)" stroke="none" x1="1043.515625" x2="1044" y1="114.5" y2="161" />
<line marker-end="url(#arrowhead)" stroke="none" x1="1031.546875" x2="1032" y1="114.5" y2="161" />
<line marker-end="url(#arrowhead)" stroke="none" x1="1019.578125" x2="1020" y1="114.5" y2="161" />
<line marker-end="url(#arrowhead)" stroke="none" x1="1007.609375" x2="1008" y1="114.5" y2="161" />
<line marker-end="url(#arrowhead)" stroke="none" x1="995.640625" x2="996" y1="114.5" y2="161" />
<line marker-end="url(#arrowhead)" stroke="none" x1="983.671875" x2="984" y1="114.5" y2="161" />
<line marker-end="url(#arrowhead)" stroke="none" x1="971.703125" x2="972" y1="114.5" y2="161" />
<line marker-end="url(#arrowhead)" stroke="none" x1="959.734375" x2="960" y1="114.5" y2="161" />
<line marker-end="url(#arrowhead)" stroke="none" x1="947.765625" x2="948" y1="114.5" y2="161" />
<line marker-end="url(#arrowhead)" stroke="none" x1="935.796875" x2="936" y1="114.5" y2="161" />
<line marker-end="url(#arrowhead)" stroke="none" x1="923.828125" x2="924" y1="114.5" y2="161" />
<line marker-end="url(#arrowhead)" stroke="none" x1="911.859375" x2="912" y1="114.5" y2="161" />
<line marker-end="url(#arrowhead)" stroke="none" x1="899.890625" x2="900" y1="114.5" y2="161" />
<line marker-end="url(#arrowhead)" stroke="none" x1="887.921875" x2="888" y1="114.5" y2="161" />
<line marker-end="url(#arrowhead)" stroke="none" x1="875.953125" x2="876" y1="114.5" y2="161" />
<line marker-end="url(#arrowhead)" stroke="none" x1="863.984375" x2="864" y1="114.5" y2="161" />
<line marker-end="url(#arrowhead)" stroke="none" x1="852.015625" x2="852" y1="114.5" y2="161" />
<line marker-end="url(#arrowhead)" stroke="none" x1="840.046875" x2="840" y1="114.5" y2="161" />
<line marker-end="url(#arrowhead)" stroke="none" x1="828.078125" x2="828" y1="114.5" y2="161" />
<line marker-end="url(#arrowhead)" stroke="none" x1="816.109375" x2="816" y1="114.5" y2="161" />
<line marker-end="url(#arrowhead)" stroke="none" x1="804.140625" x2="804" y1="114.5" y2="161" />
<line marker-end="url(#arrowhead)" stroke="none" x1="792.171875" x2="792" y1="114.5" y2="161" />
<line marker-end="url(#arrowhead)" stroke="none" x1="780.203125" x2="780" y1="114.5" y2="161" />
<line marker-end="url(#arrowhead)" stroke="none" x1="768.234375" x2="768" y1="114.5" y2="161" />
<line marker-end="url(#arrowhead)" stroke="none" x1="756.265625" x2="756" y1="114.5" y2="161" />
<line marker-end="url(#arrowhead)" stroke="none" x1="744.296875" x2="744" y1="114.5" y2="161" />
<line marker-end="url(#arrowhead)" stroke="none" x1="732.328125" x2="732" y1="114.5" y2="161" />
<line marker-end="url(#arrowhead)" stroke="none" x1="720.359375" x2="720" y1="114.5" y2="161" />
<line marker-end="url(#arrowhead)" stroke="none" x1="708.390625" x2="708" y1="114.5" y2="161" />
<line marker-end="url(#arrowhead)" stroke="none" x1="696.421875" x2="696" y1="114.5" y2="161" />
<line marker-end="url(#arrowhead)" stroke="none" x1="684.453125" x2="684" y1="114.5" y2="161" />
<line marker-end="url(#arrowhead)" stroke="none" x1="672.484375" x2="672" y1="114.5" y2="161" />
<line marker-end="url(#arrowhead)" stroke="none" x1="660.515625" x2="660" y1="114.5" y2="161" />
<line marker-end="url(#arrowhead)" stroke="none" x1="648.546875" x2="648" y1="114.5" y2="161" />
<line marker-end="url(#arrowhead)" stroke="none" x1="636.578125" x2="636" y1="114.5" y2="161" />
<line marker-end="url(#arrowhead)" stroke="none" x1="624.609375" x2="624" y1="114.5" y2="161" />
<line marker-end="url(#arrowhead)" stroke="none" x1="612.640625" x2="612" y1="114.5" y2="161" />
<line marker-end="url(#arrowhead)" stroke="none" x1="600.671875" x2="600" y1="114.5" y2="161" />
<line marker-end="url(#arrowhead)" stroke="none" x1="588.703125" x2="588" y1="114.5" y2="161" />
<line marker-end="url(#arrowhead)" stroke="none" x1="576.734375" x2="576" y1="114.5" y2="161" />
<line marker-end="url(#arrowhead)" stroke="none" x1="564.765625" x2="564" y1="114.5" y2="161" />
<line marker-end="url(#arrowhead)" stroke="none" x1="552.796875" x2="552" y1="114.5" y2="161" />
<line marker-end="url(#arrowhead)" stroke="none" x1="540.828125" x2="540" y1="114.5" y2="161" />
<line marker-end="url(#arrowhead)" stroke="none" x1="528.859375" x2="528" y1="114.5" y2="161" />
<line marker-end="url(#arrowhead)" stroke="none" x1="516.890625" x2="516" y1="114.5" y2="161" />
<line marker-end="url(#arrowhead)" stroke="none" x1="504.921875" x2="504" y1="114.5" y2="161" />
<line marker-end="url(#arrowhead)" stroke="none" x1="492.953125" x2="492" y1="114.5" y2="161" />
<line marker-end="url(#arrowhead)" stroke="none" x1="480.484375" x2="480" y1="114.5" y2="161" />
</svg>