<svg xmlns="http://www.w3.org/2000/svg" viewBox="0 0 486 60">
<style>
.label { font: 14px Helvetica; dominant-baseline: middle; text-anchor: middle; }
.title-left { font: 12px Helvetica; dominant-baseline: middle; }
.title-right { font: 12px Helvetica; dominant-baseline: middle; text-anchor: end; }
.title-intrinsic { font: 12px Helvetica; dominant-baseline: middle; text-anchor: middle; fill: #6778ED; }
.title { font: 12px Helvetica; dominant-baseline: middle; text-anchor: middle; }
.title-unused { font: 12px Helvetica; dominant-baseline: middle; text-anchor: middle; fill: #AAA; }
.register-name { font: 14px Helvetica; dominant-baseline: middle; text-anchor: end; font-style: italic; }
.memory-name { font: 14px Helvetica; dominant-baseline: middle; text-anchor: end; }
.register-number { font: 14px Helvetica; dominant-baseline: middle; text-anchor: start; }
.intrinsic-name { font: 14px Helvetica; dominant-baseline: middle; text-anchor: end; fill: #6778ED; }
.intrinsic-color { fill: #6778ED; }
.small-label { font: 12px Helvetica; dominant-baseline: middle; text-anchor: middle; }
.label-10px { font: 10px Helvetica; dominant-baseline: middle; text-anchor: middle; }
.smaller-label { font: 9px Helvetica; dominant-baseline: middle; text-anchor: middle; }
.label-6px { font: 6px Helvetica; dominant-baseline: middle; text-anchor: middle; }
.label-7px { font: 7px Helvetica; dominant-baseline: middle; text-anchor: middle; }
.unused { fill: #AAA; }
.dim { fill: #888; }
</style>
<defs>
<marker id="arrowhead" markerWidth="9.5" markerHeight="21.0" refX="7.75" refY="5.25" orient="auto">
<polyline points="0.5 0.5, 7.5 5.25, 0.5 10.0" stroke="#567DB6" stroke-width="1" fill="none"/>
</marker>
</defs>
<text class="title-left" x="90" y="9">upper</text>
<text class="title-right" x="474" y="9">lower</text>
<text class="title" x="288" y="51.5">invert=1</text>
<text class="title" x="366" y="51.5">count=0</text>
<text class="title-right" x="474" y="51.5">stride=4</text>
<rect fill="#ECF1E0" height="24" width="12" x="462" y="18" />
<rect fill="none" height="24" stroke="#405C86" stroke-width="2" width="12" x="462" y="18" />
<text class="label" x="468" y="31">0</text>
<rect fill="#ECF1E0" height="24" width="12" x="450" y="18" />
<rect fill="none" height="24" stroke="#405C86" stroke-width="2" width="12" x="450" y="18" />
<text class="label" x="456" y="31">0</text>
<rect fill="#ECF1E0" height="24" width="12" x="438" y="18" />
<rect fill="none" height="24" stroke="#405C86" stroke-width="2" width="12" x="438" y="18" />
<text class="label" x="444" y="31">1</text>
<rect fill="#DEE6F1" height="24" width="12" x="426" y="18" />
<rect fill="none" height="24" stroke="#405C86" stroke-width="2" width="12" x="426" y="18" />
<text class="label" x="432" y="31">0</text>
<rect fill="#DEE6F1" height="24" width="12" x="414" y="18" />
<rect fill="none" height="24" stroke="#405C86" stroke-width="2" width="12" x="414" y="18" />
<text class="label" x="420" y="31">0</text>
<rect fill="#DEE6F1" height="24" width="12" x="402" y="18" />
<rect fill="none" height="24" stroke="#405C86" stroke-width="2" width="12" x="402" y="18" />
<text class="label" x="408" y="31">0</text>
<rect fill="#DEE6F1" height="24" width="12" x="390" y="18" />
<rect fill="none" height="24" stroke="#405C86" stroke-width="2" width="12" x="390" y="18" />
<text class="label" x="396" y="31">0</text>
<rect fill="#DEE6F1" height="24" width="12" x="378" y="18" />
<rect fill="none" height="24" stroke="#405C86" stroke-width="2" width="12" x="378" y="18" />
<text class="label" x="384" y="31">0</text>
<rect fill="#DEE6F1" height="24" width="12" x="366" y="18" />
<rect fill="none" height="24" stroke="#405C86" stroke-width="2" width="12" x="366" y="18" />
<text class="label" x="372" y="31">0</text>
<rect fill="#DEE6F1" height="24" width="12" x="354" y="18" />
<rect fill="none" height="24" stroke="#405C86" stroke-width="2" width="12" x="354" y="18" />
<text class="label" x="360" y="31">0</text>
<rect fill="#DEE6F1" height="24" width="12" x="342" y="18" />
<rect fill="none" height="24" stroke="#405C86" stroke-width="2" width="12" x="342" y="18" />
<text class="label" x="348" y="31">0</text>
<rect fill="#DEE6F1" height="24" width="12" x="330" y="18" />
<rect fill="none" height="24" stroke="#405C86" stroke-width="2" width="12" x="330" y="18" />
<text class="label" x="336" y="31">0</text>
<rect fill="#DEE6F1" height="24" width="12" x="318" y="18" />
<rect fill="none" height="24" stroke="#405C86" stroke-width="2" width="12" x="318" y="18" />
<text class="label" x="324" y="31">0</text>
<rect fill="#DEE6F1" height="24" width="12" x="306" y="18" />
<rect fill="none" height="24" stroke="#405C86" stroke-width="2" width="12" x="306" y="18" />
<text class="label" x="312" y="31">0</text>
<rect fill="#DEE6F1" height="24" width="12" x="294" y="18" />
<rect fill="none" height="24" stroke="#405C86" stroke-width="2" width="12" x="294" y="18" />
<text class="label" x="300" y="31">0</text>
<rect fill="#EEDDDB" height="24" width="12" x="282" y="18" />
<rect fill="none" height="24" stroke="#405C86" stroke-width="2" width="12" x="282" y="18" />
<text class="label" x="288" y="31">1</text>
<rect fill="none" height="24" stroke="#405C86" stroke-dasharray="3 1" stroke-dashoffset="1.5" stroke-width="1" width="192" x="90" y="18" />
<text class="label unused" x="186" y="31">zero clear</text>
<text class="register-name" x="80" y="30">PNd</text>
<text class="intrinsic-name" x="80" y="42">returns</text>
<text class="register-number" x="10" y="30">(1)</text>
</svg>