<svg xmlns="http://www.w3.org/2000/svg" viewBox="0 0 294 136">
<style>
.label { font: 14px Helvetica; dominant-baseline: middle; text-anchor: middle; }
.title-left { font: 12px Helvetica; dominant-baseline: middle; }
.title-right { font: 12px Helvetica; dominant-baseline: middle; text-anchor: end; }
.title-intrinsic { font: 12px Helvetica; dominant-baseline: middle; text-anchor: middle; fill: #6778ED; }
.title { font: 12px Helvetica; dominant-baseline: middle; text-anchor: middle; }
.title-unused { font: 12px Helvetica; dominant-baseline: middle; text-anchor: middle; fill: #AAA; }
.register-name { font: 14px Helvetica; dominant-baseline: middle; text-anchor: end; font-style: italic; }
.memory-name { font: 14px Helvetica; dominant-baseline: middle; text-anchor: end; }
.register-number { font: 14px Helvetica; dominant-baseline: middle; text-anchor: start; }
.intrinsic-name { font: 14px Helvetica; dominant-baseline: middle; text-anchor: end; fill: #6778ED; }
.intrinsic-color { fill: #6778ED; }
.small-label { font: 12px Helvetica; dominant-baseline: middle; text-anchor: middle; }
.label-10px { font: 10px Helvetica; dominant-baseline: middle; text-anchor: middle; }
.smaller-label { font: 9px Helvetica; dominant-baseline: middle; text-anchor: middle; }
.label-6px { font: 6px Helvetica; dominant-baseline: middle; text-anchor: middle; }
.label-7px { font: 7px Helvetica; dominant-baseline: middle; text-anchor: middle; }
.unused { fill: #AAA; }
.dim { fill: #888; }
</style>
<defs>
<marker id="arrowhead" markerWidth="9.5" markerHeight="21.0" refX="7.75" refY="5.25" orient="auto">
<polyline points="0.5 0.5, 7.5 5.25, 0.5 10.0" stroke="#567DB6" stroke-width="1" fill="none"/>
</marker>
</defs>
<line stroke="#567DB6" stroke-width="1" x1="276" x2="276" y1="55.5" y2="102" />
<line stroke="#567DB6" stroke-width="1" x1="264" x2="264" y1="55.5" y2="102" />
<line stroke="#567DB6" stroke-width="1" x1="252" x2="252" y1="55.5" y2="102" />
<line stroke="#567DB6" stroke-width="1" x1="240" x2="240" y1="55.5" y2="102" />
<line stroke="#567DB6" stroke-width="1" x1="228" x2="228" y1="55.5" y2="102" />
<line stroke="#567DB6" stroke-width="1" x1="216" x2="216" y1="55.5" y2="102" />
<line stroke="#567DB6" stroke-width="1" x1="204" x2="204" y1="55.5" y2="102" />
<line stroke="#567DB6" stroke-width="1" x1="192" x2="192" y1="55.5" y2="102" />
<line stroke="#567DB6" stroke-width="1" x1="180" x2="180" y1="55.5" y2="102" />
<line stroke="#567DB6" stroke-width="1" x1="168" x2="168" y1="55.5" y2="102" />
<line stroke="#567DB6" stroke-width="1" x1="156" x2="156" y1="55.5" y2="102" />
<line stroke="#567DB6" stroke-width="1" x1="144" x2="144" y1="55.5" y2="102" />
<line stroke="#567DB6" stroke-width="1" x1="132" x2="132" y1="55.5" y2="102" />
<line stroke="#567DB6" stroke-width="1" x1="120" x2="120" y1="55.5" y2="102" />
<line stroke="#567DB6" stroke-width="1" x1="108" x2="108" y1="55.5" y2="102" />
<line stroke="#567DB6" stroke-width="1" x1="96" x2="96" y1="55.5" y2="102" />
<text class="title-left" x="90" y="9">upper</text>
<text class="title-right" x="282" y="9">lower</text>
<text class="title" x="186" y="21.5">constraint(pattern, count=16)</text>
<rect fill="#DEE6F1" height="24" width="12" x="270" y="31" />
<rect fill="none" height="24" stroke="#405C86" stroke-width="2" width="12" x="270" y="31" />
<rect fill="#DEE6F1" height="24" width="12" x="258" y="31" />
<rect fill="none" height="24" stroke="#405C86" stroke-width="2" width="12" x="258" y="31" />
<rect fill="#DEE6F1" height="24" width="12" x="246" y="31" />
<rect fill="none" height="24" stroke="#405C86" stroke-width="2" width="12" x="246" y="31" />
<rect fill="#DEE6F1" height="24" width="12" x="234" y="31" />
<rect fill="none" height="24" stroke="#405C86" stroke-width="2" width="12" x="234" y="31" />
<rect fill="#DEE6F1" height="24" width="12" x="222" y="31" />
<rect fill="none" height="24" stroke="#405C86" stroke-width="2" width="12" x="222" y="31" />
<rect fill="#DEE6F1" height="24" width="12" x="210" y="31" />
<rect fill="none" height="24" stroke="#405C86" stroke-width="2" width="12" x="210" y="31" />
<rect fill="#DEE6F1" height="24" width="12" x="198" y="31" />
<rect fill="none" height="24" stroke="#405C86" stroke-width="2" width="12" x="198" y="31" />
<rect fill="#DEE6F1" height="24" width="12" x="186" y="31" />
<rect fill="none" height="24" stroke="#405C86" stroke-width="2" width="12" x="186" y="31" />
<rect fill="#DEE6F1" height="24" width="12" x="174" y="31" />
<rect fill="none" height="24" stroke="#405C86" stroke-width="2" width="12" x="174" y="31" />
<rect fill="#DEE6F1" height="24" width="12" x="162" y="31" />
<rect fill="none" height="24" stroke="#405C86" stroke-width="2" width="12" x="162" y="31" />
<rect fill="#DEE6F1" height="24" width="12" x="150" y="31" />
<rect fill="none" height="24" stroke="#405C86" stroke-width="2" width="12" x="150" y="31" />
<rect fill="#DEE6F1" height="24" width="12" x="138" y="31" />
<rect fill="none" height="24" stroke="#405C86" stroke-width="2" width="12" x="138" y="31" />
<rect fill="#DEE6F1" height="24" width="12" x="126" y="31" />
<rect fill="none" height="24" stroke="#405C86" stroke-width="2" width="12" x="126" y="31" />
<rect fill="#DEE6F1" height="24" width="12" x="114" y="31" />
<rect fill="none" height="24" stroke="#405C86" stroke-width="2" width="12" x="114" y="31" />
<rect fill="#DEE6F1" height="24" width="12" x="102" y="31" />
<rect fill="none" height="24" stroke="#405C86" stroke-width="2" width="12" x="102" y="31" />
<rect fill="#DEE6F1" height="24" width="12" x="90" y="31" />
<rect fill="none" height="24" stroke="#405C86" stroke-width="2" width="12" x="90" y="31" />
<rect fill="#DEE6F1" height="24" width="12" x="270" y="103" />
<rect fill="none" height="24" stroke="#405C86" stroke-width="2" width="12" x="270" y="103" />
<rect fill="#DEE6F1" height="24" width="12" x="258" y="103" />
<rect fill="none" height="24" stroke="#405C86" stroke-width="2" width="12" x="258" y="103" />
<rect fill="#DEE6F1" height="24" width="12" x="246" y="103" />
<rect fill="none" height="24" stroke="#405C86" stroke-width="2" width="12" x="246" y="103" />
<rect fill="#DEE6F1" height="24" width="12" x="234" y="103" />
<rect fill="none" height="24" stroke="#405C86" stroke-width="2" width="12" x="234" y="103" />
<rect fill="#DEE6F1" height="24" width="12" x="222" y="103" />
<rect fill="none" height="24" stroke="#405C86" stroke-width="2" width="12" x="222" y="103" />
<rect fill="#DEE6F1" height="24" width="12" x="210" y="103" />
<rect fill="none" height="24" stroke="#405C86" stroke-width="2" width="12" x="210" y="103" />
<rect fill="#DEE6F1" height="24" width="12" x="198" y="103" />
<rect fill="none" height="24" stroke="#405C86" stroke-width="2" width="12" x="198" y="103" />
<rect fill="#DEE6F1" height="24" width="12" x="186" y="103" />
<rect fill="none" height="24" stroke="#405C86" stroke-width="2" width="12" x="186" y="103" />
<rect fill="#DEE6F1" height="24" width="12" x="174" y="103" />
<rect fill="none" height="24" stroke="#405C86" stroke-width="2" width="12" x="174" y="103" />
<rect fill="#DEE6F1" height="24" width="12" x="162" y="103" />
<rect fill="none" height="24" stroke="#405C86" stroke-width="2" width="12" x="162" y="103" />
<rect fill="#DEE6F1" height="24" width="12" x="150" y="103" />
<rect fill="none" height="24" stroke="#405C86" stroke-width="2" width="12" x="150" y="103" />
<rect fill="#DEE6F1" height="24" width="12" x="138" y="103" />
<rect fill="none" height="24" stroke="#405C86" stroke-width="2" width="12" x="138" y="103" />
<rect fill="#DEE6F1" height="24" width="12" x="126" y="103" />
<rect fill="none" height="24" stroke="#405C86" stroke-width="2" width="12" x="126" y="103" />
<rect fill="#DEE6F1" height="24" width="12" x="114" y="103" />
<rect fill="none" height="24" stroke="#405C86" stroke-width="2" width="12" x="114" y="103" />
<rect fill="#DEE6F1" height="24" width="12" x="102" y="103" />
<rect fill="none" height="24" stroke="#405C86" stroke-width="2" width="12" x="102" y="103" />
<rect fill="#DEE6F1" height="24" width="12" x="90" y="103" />
<rect fill="none" height="24" stroke="#405C86" stroke-width="2" width="12" x="90" y="103" />
<text class="register-name" x="80" y="115">Pd</text>
<text class="intrinsic-name" x="80" y="127">returns</text>
<text class="register-number" x="10" y="115">(1)</text>
<line marker-end="url(#arrowhead)" stroke="none" x1="276" x2="276" y1="55.5" y2="102" />
<line marker-end="url(#arrowhead)" stroke="none" x1="264" x2="264" y1="55.5" y2="102" />
<line marker-end="url(#arrowhead)" stroke="none" x1="252" x2="252" y1="55.5" y2="102" />
<line marker-end="url(#arrowhead)" stroke="none" x1="240" x2="240" y1="55.5" y2="102" />
<line marker-end="url(#arrowhead)" stroke="none" x1="228" x2="228" y1="55.5" y2="102" />
<line marker-end="url(#arrowhead)" stroke="none" x1="216" x2="216" y1="55.5" y2="102" />
<line marker-end="url(#arrowhead)" stroke="none" x1="204" x2="204" y1="55.5" y2="102" />
<line marker-end="url(#arrowhead)" stroke="none" x1="192" x2="192" y1="55.5" y2="102" />
<line marker-end="url(#arrowhead)" stroke="none" x1="180" x2="180" y1="55.5" y2="102" />
<line marker-end="url(#arrowhead)" stroke="none" x1="168" x2="168" y1="55.5" y2="102" />
<line marker-end="url(#arrowhead)" stroke="none" x1="156" x2="156" y1="55.5" y2="102" />
<line marker-end="url(#arrowhead)" stroke="none" x1="144" x2="144" y1="55.5" y2="102" />
<line marker-end="url(#arrowhead)" stroke="none" x1="132" x2="132" y1="55.5" y2="102" />
<line marker-end="url(#arrowhead)" stroke="none" x1="120" x2="120" y1="55.5" y2="102" />
<line marker-end="url(#arrowhead)" stroke="none" x1="108" x2="108" y1="55.5" y2="102" />
<line marker-end="url(#arrowhead)" stroke="none" x1="96" x2="96" y1="55.5" y2="102" />
</svg>