<svg xmlns="http://www.w3.org/2000/svg" viewBox="0 0 3174 60">
<style>
.label { font: 14px Helvetica; dominant-baseline: middle; text-anchor: middle; }
.title-left { font: 12px Helvetica; dominant-baseline: middle; }
.title-right { font: 12px Helvetica; dominant-baseline: middle; text-anchor: end; }
.title-intrinsic { font: 12px Helvetica; dominant-baseline: middle; text-anchor: middle; fill: #6778ED; }
.title { font: 12px Helvetica; dominant-baseline: middle; text-anchor: middle; }
.title-unused { font: 12px Helvetica; dominant-baseline: middle; text-anchor: middle; fill: #AAA; }
.register-name { font: 14px Helvetica; dominant-baseline: middle; text-anchor: end; font-style: italic; }
.memory-name { font: 14px Helvetica; dominant-baseline: middle; text-anchor: end; }
.register-number { font: 14px Helvetica; dominant-baseline: middle; text-anchor: start; }
.intrinsic-name { font: 14px Helvetica; dominant-baseline: middle; text-anchor: end; fill: #6778ED; }
.intrinsic-color { fill: #6778ED; }
.small-label { font: 12px Helvetica; dominant-baseline: middle; text-anchor: middle; }
.label-10px { font: 10px Helvetica; dominant-baseline: middle; text-anchor: middle; }
.smaller-label { font: 9px Helvetica; dominant-baseline: middle; text-anchor: middle; }
.label-6px { font: 6px Helvetica; dominant-baseline: middle; text-anchor: middle; }
.label-7px { font: 7px Helvetica; dominant-baseline: middle; text-anchor: middle; }
.unused { fill: #AAA; }
.dim { fill: #888; }
</style>
<defs>
<marker id="arrowhead" markerWidth="9.5" markerHeight="21.0" refX="7.75" refY="5.25" orient="auto">
<polyline points="0.5 0.5, 7.5 5.25, 0.5 10.0" stroke="#567DB6" stroke-width="1" fill="none"/>
</marker>
</defs>
<text class="title-left" x="90" y="9">upper</text>
<text class="title-right" x="3162" y="9">lower</text>
<text class="title" x="2976" y="51.5">invert=1</text>
<text class="title" x="3060" y="51.5">count=0</text>
<text class="title-right" x="3162" y="51.5">stride=2</text>
<rect fill="#ECF1E0" height="24" width="12" x="3150" y="18" />
<rect fill="none" height="24" stroke="#405C86" stroke-width="2" width="12" x="3150" y="18" />
<text class="label" x="3156" y="31">0</text>
<rect fill="#ECF1E0" height="24" width="12" x="3138" y="18" />
<rect fill="none" height="24" stroke="#405C86" stroke-width="2" width="12" x="3138" y="18" />
<text class="label" x="3144" y="31">1</text>
<rect fill="#DEE6F1" height="24" width="12" x="3126" y="18" />
<rect fill="none" height="24" stroke="#405C86" stroke-width="2" width="12" x="3126" y="18" />
<text class="label" x="3132" y="31">0</text>
<rect fill="#DEE6F1" height="24" width="12" x="3114" y="18" />
<rect fill="none" height="24" stroke="#405C86" stroke-width="2" width="12" x="3114" y="18" />
<text class="label" x="3120" y="31">0</text>
<rect fill="#DEE6F1" height="24" width="12" x="3102" y="18" />
<rect fill="none" height="24" stroke="#405C86" stroke-width="2" width="12" x="3102" y="18" />
<text class="label" x="3108" y="31">0</text>
<rect fill="#DEE6F1" height="24" width="12" x="3090" y="18" />
<rect fill="none" height="24" stroke="#405C86" stroke-width="2" width="12" x="3090" y="18" />
<text class="label" x="3096" y="31">0</text>
<rect fill="#DEE6F1" height="24" width="12" x="3078" y="18" />
<rect fill="none" height="24" stroke="#405C86" stroke-width="2" width="12" x="3078" y="18" />
<text class="label" x="3084" y="31">0</text>
<rect fill="#DEE6F1" height="24" width="12" x="3066" y="18" />
<rect fill="none" height="24" stroke="#405C86" stroke-width="2" width="12" x="3066" y="18" />
<text class="label" x="3072" y="31">0</text>
<rect fill="#DEE6F1" height="24" width="12" x="3054" y="18" />
<rect fill="none" height="24" stroke="#405C86" stroke-width="2" width="12" x="3054" y="18" />
<text class="label" x="3060" y="31">0</text>
<rect fill="#DEE6F1" height="24" width="12" x="3042" y="18" />
<rect fill="none" height="24" stroke="#405C86" stroke-width="2" width="12" x="3042" y="18" />
<text class="label" x="3048" y="31">0</text>
<rect fill="#DEE6F1" height="24" width="12" x="3030" y="18" />
<rect fill="none" height="24" stroke="#405C86" stroke-width="2" width="12" x="3030" y="18" />
<text class="label" x="3036" y="31">0</text>
<rect fill="#DEE6F1" height="24" width="12" x="3018" y="18" />
<rect fill="none" height="24" stroke="#405C86" stroke-width="2" width="12" x="3018" y="18" />
<text class="label" x="3024" y="31">0</text>
<rect fill="#DEE6F1" height="24" width="12" x="3006" y="18" />
<rect fill="none" height="24" stroke="#405C86" stroke-width="2" width="12" x="3006" y="18" />
<text class="label" x="3012" y="31">0</text>
<rect fill="#DEE6F1" height="24" width="12" x="2994" y="18" />
<rect fill="none" height="24" stroke="#405C86" stroke-width="2" width="12" x="2994" y="18" />
<text class="label" x="3000" y="31">0</text>
<rect fill="#DEE6F1" height="24" width="12" x="2982" y="18" />
<rect fill="none" height="24" stroke="#405C86" stroke-width="2" width="12" x="2982" y="18" />
<text class="label" x="2988" y="31">0</text>
<rect fill="#EEDDDB" height="24" width="12" x="2970" y="18" />
<rect fill="none" height="24" stroke="#405C86" stroke-width="2" width="12" x="2970" y="18" />
<text class="label" x="2976" y="31">1</text>
<rect fill="none" height="24" stroke="#405C86" stroke-dasharray="3 1" stroke-dashoffset="1.5" stroke-width="1" width="2880" x="90" y="18" />
<text class="label unused" x="1530" y="31">zero clear</text>
<text class="register-name" x="80" y="30">PNd</text>
<text class="intrinsic-name" x="80" y="42">returns</text>
<text class="register-number" x="10" y="30">(1)</text>
</svg>