<svg xmlns="http://www.w3.org/2000/svg" viewBox="0 0 294 123">
<style>
.label { font: 14px Helvetica; dominant-baseline: middle; text-anchor: middle; }
.title-left { font: 12px Helvetica; dominant-baseline: middle; }
.title-right { font: 12px Helvetica; dominant-baseline: middle; text-anchor: end; }
.title-intrinsic { font: 12px Helvetica; dominant-baseline: middle; text-anchor: middle; fill: #6778ED; }
.title { font: 12px Helvetica; dominant-baseline: middle; text-anchor: middle; }
.title-unused { font: 12px Helvetica; dominant-baseline: middle; text-anchor: middle; fill: #AAA; }
.register-name { font: 14px Helvetica; dominant-baseline: middle; text-anchor: end; font-style: italic; }
.memory-name { font: 14px Helvetica; dominant-baseline: middle; text-anchor: end; }
.register-number { font: 14px Helvetica; dominant-baseline: middle; text-anchor: start; }
.intrinsic-name { font: 14px Helvetica; dominant-baseline: middle; text-anchor: end; fill: #6778ED; }
.intrinsic-color { fill: #6778ED; }
.small-label { font: 12px Helvetica; dominant-baseline: middle; text-anchor: middle; }
.label-10px { font: 10px Helvetica; dominant-baseline: middle; text-anchor: middle; }
.smaller-label { font: 9px Helvetica; dominant-baseline: middle; text-anchor: middle; }
.label-6px { font: 6px Helvetica; dominant-baseline: middle; text-anchor: middle; }
.label-7px { font: 7px Helvetica; dominant-baseline: middle; text-anchor: middle; }
.unused { fill: #AAA; }
.dim { fill: #888; }
</style>
<defs>
<marker id="arrowhead" markerWidth="10.75" markerHeight="24.5" refX="9.0" refY="6.125" orient="auto">
<polyline points="0.5 0.5, 8.75 6.125, 0.5 11.75" stroke="#567DB6" stroke-width="1" fill="none"/>
</marker>
</defs>
<text class="title-left" x="90" y="9">upper</text>
<text class="title-right" x="282" y="9">lower</text>
<rect fill="none" height="24" stroke="#405C86" stroke-dasharray="3 1" stroke-dashoffset="1.5" stroke-width="1" width="96" x="186" y="18" />
<text class="label unused" x="234" y="31"></text>
<rect fill="#DEE6F1" height="24" width="12" x="174" y="18" />
<rect fill="none" height="24" stroke="#405C86" stroke-width="2" width="12" x="174" y="18" />
<rect fill="#DEE6F1" height="24" width="12" x="162" y="18" />
<rect fill="none" height="24" stroke="#405C86" stroke-width="2" width="12" x="162" y="18" />
<rect fill="#DEE6F1" height="24" width="12" x="150" y="18" />
<rect fill="none" height="24" stroke="#405C86" stroke-width="2" width="12" x="150" y="18" />
<rect fill="#DEE6F1" height="24" width="12" x="138" y="18" />
<rect fill="none" height="24" stroke="#405C86" stroke-width="2" width="12" x="138" y="18" />
<rect fill="#DEE6F1" height="24" width="12" x="126" y="18" />
<rect fill="none" height="24" stroke="#405C86" stroke-width="2" width="12" x="126" y="18" />
<rect fill="#DEE6F1" height="24" width="12" x="114" y="18" />
<rect fill="none" height="24" stroke="#405C86" stroke-width="2" width="12" x="114" y="18" />
<rect fill="#DEE6F1" height="24" width="12" x="102" y="18" />
<rect fill="none" height="24" stroke="#405C86" stroke-width="2" width="12" x="102" y="18" />
<rect fill="#DEE6F1" height="24" width="12" x="90" y="18" />
<rect fill="none" height="24" stroke="#405C86" stroke-width="2" width="12" x="90" y="18" />
<text class="register-name" x="80" y="30">Pn</text>
<text class="intrinsic-name" x="80" y="42">op</text>
<text class="register-number" x="10" y="30">(1)</text>
<rect fill="#DEE6F1" height="24" width="12" x="270" y="90" />
<rect fill="none" height="24" stroke="#405C86" stroke-width="2" width="12" x="270" y="90" />
<rect fill="none" height="24" stroke="#405C86" stroke-width="2" width="12" x="258" y="90" />
<text class="label" x="264" y="103">0</text>
<rect fill="#DEE6F1" height="24" width="12" x="246" y="90" />
<rect fill="none" height="24" stroke="#405C86" stroke-width="2" width="12" x="246" y="90" />
<rect fill="none" height="24" stroke="#405C86" stroke-width="2" width="12" x="234" y="90" />
<text class="label" x="240" y="103">0</text>
<rect fill="#DEE6F1" height="24" width="12" x="222" y="90" />
<rect fill="none" height="24" stroke="#405C86" stroke-width="2" width="12" x="222" y="90" />
<rect fill="none" height="24" stroke="#405C86" stroke-width="2" width="12" x="210" y="90" />
<text class="label" x="216" y="103">0</text>
<rect fill="#DEE6F1" height="24" width="12" x="198" y="90" />
<rect fill="none" height="24" stroke="#405C86" stroke-width="2" width="12" x="198" y="90" />
<rect fill="none" height="24" stroke="#405C86" stroke-width="2" width="12" x="186" y="90" />
<text class="label" x="192" y="103">0</text>
<rect fill="#DEE6F1" height="24" width="12" x="174" y="90" />
<rect fill="none" height="24" stroke="#405C86" stroke-width="2" width="12" x="174" y="90" />
<rect fill="none" height="24" stroke="#405C86" stroke-width="2" width="12" x="162" y="90" />
<text class="label" x="168" y="103">0</text>
<rect fill="#DEE6F1" height="24" width="12" x="150" y="90" />
<rect fill="none" height="24" stroke="#405C86" stroke-width="2" width="12" x="150" y="90" />
<rect fill="none" height="24" stroke="#405C86" stroke-width="2" width="12" x="138" y="90" />
<text class="label" x="144" y="103">0</text>
<rect fill="#DEE6F1" height="24" width="12" x="126" y="90" />
<rect fill="none" height="24" stroke="#405C86" stroke-width="2" width="12" x="126" y="90" />
<rect fill="none" height="24" stroke="#405C86" stroke-width="2" width="12" x="114" y="90" />
<text class="label" x="120" y="103">0</text>
<rect fill="#DEE6F1" height="24" width="12" x="102" y="90" />
<rect fill="none" height="24" stroke="#405C86" stroke-width="2" width="12" x="102" y="90" />
<rect fill="none" height="24" stroke="#405C86" stroke-width="2" width="12" x="90" y="90" />
<text class="label" x="96" y="103">0</text>
<text class="register-name" x="80" y="102">Pd</text>
<text class="intrinsic-name" x="80" y="114">returns</text>
<text class="register-number" x="10" y="102">(2)</text>
<line stroke="#567DB6" stroke-width="1" x1="180" x2="276" y1="42.5" y2="89" />
<line stroke="#567DB6" stroke-width="1" x1="168" x2="252" y1="42.5" y2="89" />
<line stroke="#567DB6" stroke-width="1" x1="156" x2="228" y1="42.5" y2="89" />
<line stroke="#567DB6" stroke-width="1" x1="144" x2="204" y1="42.5" y2="89" />
<line stroke="#567DB6" stroke-width="1" x1="132" x2="180" y1="42.5" y2="89" />
<line stroke="#567DB6" stroke-width="1" x1="120" x2="156" y1="42.5" y2="89" />
<line stroke="#567DB6" stroke-width="1" x1="108" x2="132" y1="42.5" y2="89" />
<line stroke="#567DB6" stroke-width="1" x1="96" x2="108" y1="42.5" y2="89" />
<line marker-end="url(#arrowhead)" stroke="none" x1="180" x2="276" y1="42.5" y2="89" />
<line marker-end="url(#arrowhead)" stroke="none" x1="168" x2="252" y1="42.5" y2="89" />
<line marker-end="url(#arrowhead)" stroke="none" x1="156" x2="228" y1="42.5" y2="89" />
<line marker-end="url(#arrowhead)" stroke="none" x1="144" x2="204" y1="42.5" y2="89" />
<line marker-end="url(#arrowhead)" stroke="none" x1="132" x2="180" y1="42.5" y2="89" />
<line marker-end="url(#arrowhead)" stroke="none" x1="120" x2="156" y1="42.5" y2="89" />
<line marker-end="url(#arrowhead)" stroke="none" x1="108" x2="132" y1="42.5" y2="89" />
<line marker-end="url(#arrowhead)" stroke="none" x1="96" x2="108" y1="42.5" y2="89" />
</svg>