<svg xmlns="http://www.w3.org/2000/svg" viewBox="0 0 1638 123">
<style>
.label { font: 14px Helvetica; dominant-baseline: middle; text-anchor: middle; }
.title-left { font: 12px Helvetica; dominant-baseline: middle; }
.title-right { font: 12px Helvetica; dominant-baseline: middle; text-anchor: end; }
.title-intrinsic { font: 12px Helvetica; dominant-baseline: middle; text-anchor: middle; fill: #6778ED; }
.title { font: 12px Helvetica; dominant-baseline: middle; text-anchor: middle; }
.title-unused { font: 12px Helvetica; dominant-baseline: middle; text-anchor: middle; fill: #AAA; }
.register-name { font: 14px Helvetica; dominant-baseline: middle; text-anchor: end; font-style: italic; }
.memory-name { font: 14px Helvetica; dominant-baseline: middle; text-anchor: end; }
.register-number { font: 14px Helvetica; dominant-baseline: middle; text-anchor: start; }
.intrinsic-name { font: 14px Helvetica; dominant-baseline: middle; text-anchor: end; fill: #6778ED; }
.intrinsic-color { fill: #6778ED; }
.small-label { font: 12px Helvetica; dominant-baseline: middle; text-anchor: middle; }
.label-10px { font: 10px Helvetica; dominant-baseline: middle; text-anchor: middle; }
.smaller-label { font: 9px Helvetica; dominant-baseline: middle; text-anchor: middle; }
.label-6px { font: 6px Helvetica; dominant-baseline: middle; text-anchor: middle; }
.label-7px { font: 7px Helvetica; dominant-baseline: middle; text-anchor: middle; }
.unused { fill: #AAA; }
.dim { fill: #888; }
</style>
<defs>
<marker id="arrowhead" markerWidth="10.75" markerHeight="24.5" refX="9.0" refY="6.125" orient="auto">
<polyline points="0.5 0.5, 8.75 6.125, 0.5 11.75" stroke="#567DB6" stroke-width="1" fill="none"/>
</marker>
</defs>
<text class="title-left" x="90" y="9">upper</text>
<text class="title-right" x="1626" y="9">lower</text>
<rect fill="none" height="24" stroke="#405C86" stroke-dasharray="3 1" stroke-dashoffset="1.5" stroke-width="1" width="768" x="858" y="18" />
<text class="label unused" x="1242" y="31"></text>
<rect fill="#DEE6F1" height="24" width="12" x="846" y="18" />
<rect fill="none" height="24" stroke="#405C86" stroke-width="2" width="12" x="846" y="18" />
<rect fill="#DEE6F1" height="24" width="12" x="834" y="18" />
<rect fill="none" height="24" stroke="#405C86" stroke-width="2" width="12" x="834" y="18" />
<rect fill="#DEE6F1" height="24" width="12" x="822" y="18" />
<rect fill="none" height="24" stroke="#405C86" stroke-width="2" width="12" x="822" y="18" />
<rect fill="#DEE6F1" height="24" width="12" x="810" y="18" />
<rect fill="none" height="24" stroke="#405C86" stroke-width="2" width="12" x="810" y="18" />
<rect fill="#DEE6F1" height="24" width="12" x="798" y="18" />
<rect fill="none" height="24" stroke="#405C86" stroke-width="2" width="12" x="798" y="18" />
<rect fill="#DEE6F1" height="24" width="12" x="786" y="18" />
<rect fill="none" height="24" stroke="#405C86" stroke-width="2" width="12" x="786" y="18" />
<rect fill="#DEE6F1" height="24" width="12" x="774" y="18" />
<rect fill="none" height="24" stroke="#405C86" stroke-width="2" width="12" x="774" y="18" />
<rect fill="#DEE6F1" height="24" width="12" x="762" y="18" />
<rect fill="none" height="24" stroke="#405C86" stroke-width="2" width="12" x="762" y="18" />
<rect fill="#DEE6F1" height="24" width="12" x="750" y="18" />
<rect fill="none" height="24" stroke="#405C86" stroke-width="2" width="12" x="750" y="18" />
<rect fill="#DEE6F1" height="24" width="12" x="738" y="18" />
<rect fill="none" height="24" stroke="#405C86" stroke-width="2" width="12" x="738" y="18" />
<rect fill="#DEE6F1" height="24" width="12" x="726" y="18" />
<rect fill="none" height="24" stroke="#405C86" stroke-width="2" width="12" x="726" y="18" />
<rect fill="#DEE6F1" height="24" width="12" x="714" y="18" />
<rect fill="none" height="24" stroke="#405C86" stroke-width="2" width="12" x="714" y="18" />
<rect fill="#DEE6F1" height="24" width="12" x="702" y="18" />
<rect fill="none" height="24" stroke="#405C86" stroke-width="2" width="12" x="702" y="18" />
<rect fill="#DEE6F1" height="24" width="12" x="690" y="18" />
<rect fill="none" height="24" stroke="#405C86" stroke-width="2" width="12" x="690" y="18" />
<rect fill="#DEE6F1" height="24" width="12" x="678" y="18" />
<rect fill="none" height="24" stroke="#405C86" stroke-width="2" width="12" x="678" y="18" />
<rect fill="#DEE6F1" height="24" width="12" x="666" y="18" />
<rect fill="none" height="24" stroke="#405C86" stroke-width="2" width="12" x="666" y="18" />
<rect fill="#DEE6F1" height="24" width="12" x="654" y="18" />
<rect fill="none" height="24" stroke="#405C86" stroke-width="2" width="12" x="654" y="18" />
<rect fill="#DEE6F1" height="24" width="12" x="642" y="18" />
<rect fill="none" height="24" stroke="#405C86" stroke-width="2" width="12" x="642" y="18" />
<rect fill="#DEE6F1" height="24" width="12" x="630" y="18" />
<rect fill="none" height="24" stroke="#405C86" stroke-width="2" width="12" x="630" y="18" />
<rect fill="#DEE6F1" height="24" width="12" x="618" y="18" />
<rect fill="none" height="24" stroke="#405C86" stroke-width="2" width="12" x="618" y="18" />
<rect fill="#DEE6F1" height="24" width="12" x="606" y="18" />
<rect fill="none" height="24" stroke="#405C86" stroke-width="2" width="12" x="606" y="18" />
<rect fill="#DEE6F1" height="24" width="12" x="594" y="18" />
<rect fill="none" height="24" stroke="#405C86" stroke-width="2" width="12" x="594" y="18" />
<rect fill="#DEE6F1" height="24" width="12" x="582" y="18" />
<rect fill="none" height="24" stroke="#405C86" stroke-width="2" width="12" x="582" y="18" />
<rect fill="#DEE6F1" height="24" width="12" x="570" y="18" />
<rect fill="none" height="24" stroke="#405C86" stroke-width="2" width="12" x="570" y="18" />
<rect fill="#DEE6F1" height="24" width="12" x="558" y="18" />
<rect fill="none" height="24" stroke="#405C86" stroke-width="2" width="12" x="558" y="18" />
<rect fill="#DEE6F1" height="24" width="12" x="546" y="18" />
<rect fill="none" height="24" stroke="#405C86" stroke-width="2" width="12" x="546" y="18" />
<rect fill="#DEE6F1" height="24" width="12" x="534" y="18" />
<rect fill="none" height="24" stroke="#405C86" stroke-width="2" width="12" x="534" y="18" />
<rect fill="#DEE6F1" height="24" width="12" x="522" y="18" />
<rect fill="none" height="24" stroke="#405C86" stroke-width="2" width="12" x="522" y="18" />
<rect fill="#DEE6F1" height="24" width="12" x="510" y="18" />
<rect fill="none" height="24" stroke="#405C86" stroke-width="2" width="12" x="510" y="18" />
<rect fill="#DEE6F1" height="24" width="12" x="498" y="18" />
<rect fill="none" height="24" stroke="#405C86" stroke-width="2" width="12" x="498" y="18" />
<rect fill="#DEE6F1" height="24" width="12" x="486" y="18" />
<rect fill="none" height="24" stroke="#405C86" stroke-width="2" width="12" x="486" y="18" />
<rect fill="#DEE6F1" height="24" width="12" x="474" y="18" />
<rect fill="none" height="24" stroke="#405C86" stroke-width="2" width="12" x="474" y="18" />
<rect fill="#DEE6F1" height="24" width="12" x="462" y="18" />
<rect fill="none" height="24" stroke="#405C86" stroke-width="2" width="12" x="462" y="18" />
<rect fill="#DEE6F1" height="24" width="12" x="450" y="18" />
<rect fill="none" height="24" stroke="#405C86" stroke-width="2" width="12" x="450" y="18" />
<rect fill="#DEE6F1" height="24" width="12" x="438" y="18" />
<rect fill="none" height="24" stroke="#405C86" stroke-width="2" width="12" x="438" y="18" />
<rect fill="#DEE6F1" height="24" width="12" x="426" y="18" />
<rect fill="none" height="24" stroke="#405C86" stroke-width="2" width="12" x="426" y="18" />
<rect fill="#DEE6F1" height="24" width="12" x="414" y="18" />
<rect fill="none" height="24" stroke="#405C86" stroke-width="2" width="12" x="414" y="18" />
<rect fill="#DEE6F1" height="24" width="12" x="402" y="18" />
<rect fill="none" height="24" stroke="#405C86" stroke-width="2" width="12" x="402" y="18" />
<rect fill="#DEE6F1" height="24" width="12" x="390" y="18" />
<rect fill="none" height="24" stroke="#405C86" stroke-width="2" width="12" x="390" y="18" />
<rect fill="#DEE6F1" height="24" width="12" x="378" y="18" />
<rect fill="none" height="24" stroke="#405C86" stroke-width="2" width="12" x="378" y="18" />
<rect fill="#DEE6F1" height="24" width="12" x="366" y="18" />
<rect fill="none" height="24" stroke="#405C86" stroke-width="2" width="12" x="366" y="18" />
<rect fill="#DEE6F1" height="24" width="12" x="354" y="18" />
<rect fill="none" height="24" stroke="#405C86" stroke-width="2" width="12" x="354" y="18" />
<rect fill="#DEE6F1" height="24" width="12" x="342" y="18" />
<rect fill="none" height="24" stroke="#405C86" stroke-width="2" width="12" x="342" y="18" />
<rect fill="#DEE6F1" height="24" width="12" x="330" y="18" />
<rect fill="none" height="24" stroke="#405C86" stroke-width="2" width="12" x="330" y="18" />
<rect fill="#DEE6F1" height="24" width="12" x="318" y="18" />
<rect fill="none" height="24" stroke="#405C86" stroke-width="2" width="12" x="318" y="18" />
<rect fill="#DEE6F1" height="24" width="12" x="306" y="18" />
<rect fill="none" height="24" stroke="#405C86" stroke-width="2" width="12" x="306" y="18" />
<rect fill="#DEE6F1" height="24" width="12" x="294" y="18" />
<rect fill="none" height="24" stroke="#405C86" stroke-width="2" width="12" x="294" y="18" />
<rect fill="#DEE6F1" height="24" width="12" x="282" y="18" />
<rect fill="none" height="24" stroke="#405C86" stroke-width="2" width="12" x="282" y="18" />
<rect fill="#DEE6F1" height="24" width="12" x="270" y="18" />
<rect fill="none" height="24" stroke="#405C86" stroke-width="2" width="12" x="270" y="18" />
<rect fill="#DEE6F1" height="24" width="12" x="258" y="18" />
<rect fill="none" height="24" stroke="#405C86" stroke-width="2" width="12" x="258" y="18" />
<rect fill="#DEE6F1" height="24" width="12" x="246" y="18" />
<rect fill="none" height="24" stroke="#405C86" stroke-width="2" width="12" x="246" y="18" />
<rect fill="#DEE6F1" height="24" width="12" x="234" y="18" />
<rect fill="none" height="24" stroke="#405C86" stroke-width="2" width="12" x="234" y="18" />
<rect fill="#DEE6F1" height="24" width="12" x="222" y="18" />
<rect fill="none" height="24" stroke="#405C86" stroke-width="2" width="12" x="222" y="18" />
<rect fill="#DEE6F1" height="24" width="12" x="210" y="18" />
<rect fill="none" height="24" stroke="#405C86" stroke-width="2" width="12" x="210" y="18" />
<rect fill="#DEE6F1" height="24" width="12" x="198" y="18" />
<rect fill="none" height="24" stroke="#405C86" stroke-width="2" width="12" x="198" y="18" />
<rect fill="#DEE6F1" height="24" width="12" x="186" y="18" />
<rect fill="none" height="24" stroke="#405C86" stroke-width="2" width="12" x="186" y="18" />
<rect fill="#DEE6F1" height="24" width="12" x="174" y="18" />
<rect fill="none" height="24" stroke="#405C86" stroke-width="2" width="12" x="174" y="18" />
<rect fill="#DEE6F1" height="24" width="12" x="162" y="18" />
<rect fill="none" height="24" stroke="#405C86" stroke-width="2" width="12" x="162" y="18" />
<rect fill="#DEE6F1" height="24" width="12" x="150" y="18" />
<rect fill="none" height="24" stroke="#405C86" stroke-width="2" width="12" x="150" y="18" />
<rect fill="#DEE6F1" height="24" width="12" x="138" y="18" />
<rect fill="none" height="24" stroke="#405C86" stroke-width="2" width="12" x="138" y="18" />
<rect fill="#DEE6F1" height="24" width="12" x="126" y="18" />
<rect fill="none" height="24" stroke="#405C86" stroke-width="2" width="12" x="126" y="18" />
<rect fill="#DEE6F1" height="24" width="12" x="114" y="18" />
<rect fill="none" height="24" stroke="#405C86" stroke-width="2" width="12" x="114" y="18" />
<rect fill="#DEE6F1" height="24" width="12" x="102" y="18" />
<rect fill="none" height="24" stroke="#405C86" stroke-width="2" width="12" x="102" y="18" />
<rect fill="#DEE6F1" height="24" width="12" x="90" y="18" />
<rect fill="none" height="24" stroke="#405C86" stroke-width="2" width="12" x="90" y="18" />
<text class="register-name" x="80" y="30">Pn</text>
<text class="intrinsic-name" x="80" y="42">op</text>
<text class="register-number" x="10" y="30">(1)</text>
<rect fill="#DEE6F1" height="24" width="12" x="1614" y="90" />
<rect fill="none" height="24" stroke="#405C86" stroke-width="2" width="12" x="1614" y="90" />
<rect fill="none" height="24" stroke="#405C86" stroke-width="2" width="12" x="1602" y="90" />
<text class="label" x="1608" y="103">0</text>
<rect fill="#DEE6F1" height="24" width="12" x="1590" y="90" />
<rect fill="none" height="24" stroke="#405C86" stroke-width="2" width="12" x="1590" y="90" />
<rect fill="none" height="24" stroke="#405C86" stroke-width="2" width="12" x="1578" y="90" />
<text class="label" x="1584" y="103">0</text>
<rect fill="#DEE6F1" height="24" width="12" x="1566" y="90" />
<rect fill="none" height="24" stroke="#405C86" stroke-width="2" width="12" x="1566" y="90" />
<rect fill="none" height="24" stroke="#405C86" stroke-width="2" width="12" x="1554" y="90" />
<text class="label" x="1560" y="103">0</text>
<rect fill="#DEE6F1" height="24" width="12" x="1542" y="90" />
<rect fill="none" height="24" stroke="#405C86" stroke-width="2" width="12" x="1542" y="90" />
<rect fill="none" height="24" stroke="#405C86" stroke-width="2" width="12" x="1530" y="90" />
<text class="label" x="1536" y="103">0</text>
<rect fill="#DEE6F1" height="24" width="12" x="1518" y="90" />
<rect fill="none" height="24" stroke="#405C86" stroke-width="2" width="12" x="1518" y="90" />
<rect fill="none" height="24" stroke="#405C86" stroke-width="2" width="12" x="1506" y="90" />
<text class="label" x="1512" y="103">0</text>
<rect fill="#DEE6F1" height="24" width="12" x="1494" y="90" />
<rect fill="none" height="24" stroke="#405C86" stroke-width="2" width="12" x="1494" y="90" />
<rect fill="none" height="24" stroke="#405C86" stroke-width="2" width="12" x="1482" y="90" />
<text class="label" x="1488" y="103">0</text>
<rect fill="#DEE6F1" height="24" width="12" x="1470" y="90" />
<rect fill="none" height="24" stroke="#405C86" stroke-width="2" width="12" x="1470" y="90" />
<rect fill="none" height="24" stroke="#405C86" stroke-width="2" width="12" x="1458" y="90" />
<text class="label" x="1464" y="103">0</text>
<rect fill="#DEE6F1" height="24" width="12" x="1446" y="90" />
<rect fill="none" height="24" stroke="#405C86" stroke-width="2" width="12" x="1446" y="90" />
<rect fill="none" height="24" stroke="#405C86" stroke-width="2" width="12" x="1434" y="90" />
<text class="label" x="1440" y="103">0</text>
<rect fill="#DEE6F1" height="24" width="12" x="1422" y="90" />
<rect fill="none" height="24" stroke="#405C86" stroke-width="2" width="12" x="1422" y="90" />
<rect fill="none" height="24" stroke="#405C86" stroke-width="2" width="12" x="1410" y="90" />
<text class="label" x="1416" y="103">0</text>
<rect fill="#DEE6F1" height="24" width="12" x="1398" y="90" />
<rect fill="none" height="24" stroke="#405C86" stroke-width="2" width="12" x="1398" y="90" />
<rect fill="none" height="24" stroke="#405C86" stroke-width="2" width="12" x="1386" y="90" />
<text class="label" x="1392" y="103">0</text>
<rect fill="#DEE6F1" height="24" width="12" x="1374" y="90" />
<rect fill="none" height="24" stroke="#405C86" stroke-width="2" width="12" x="1374" y="90" />
<rect fill="none" height="24" stroke="#405C86" stroke-width="2" width="12" x="1362" y="90" />
<text class="label" x="1368" y="103">0</text>
<rect fill="#DEE6F1" height="24" width="12" x="1350" y="90" />
<rect fill="none" height="24" stroke="#405C86" stroke-width="2" width="12" x="1350" y="90" />
<rect fill="none" height="24" stroke="#405C86" stroke-width="2" width="12" x="1338" y="90" />
<text class="label" x="1344" y="103">0</text>
<rect fill="#DEE6F1" height="24" width="12" x="1326" y="90" />
<rect fill="none" height="24" stroke="#405C86" stroke-width="2" width="12" x="1326" y="90" />
<rect fill="none" height="24" stroke="#405C86" stroke-width="2" width="12" x="1314" y="90" />
<text class="label" x="1320" y="103">0</text>
<rect fill="#DEE6F1" height="24" width="12" x="1302" y="90" />
<rect fill="none" height="24" stroke="#405C86" stroke-width="2" width="12" x="1302" y="90" />
<rect fill="none" height="24" stroke="#405C86" stroke-width="2" width="12" x="1290" y="90" />
<text class="label" x="1296" y="103">0</text>
<rect fill="#DEE6F1" height="24" width="12" x="1278" y="90" />
<rect fill="none" height="24" stroke="#405C86" stroke-width="2" width="12" x="1278" y="90" />
<rect fill="none" height="24" stroke="#405C86" stroke-width="2" width="12" x="1266" y="90" />
<text class="label" x="1272" y="103">0</text>
<rect fill="#DEE6F1" height="24" width="12" x="1254" y="90" />
<rect fill="none" height="24" stroke="#405C86" stroke-width="2" width="12" x="1254" y="90" />
<rect fill="none" height="24" stroke="#405C86" stroke-width="2" width="12" x="1242" y="90" />
<text class="label" x="1248" y="103">0</text>
<rect fill="#DEE6F1" height="24" width="12" x="1230" y="90" />
<rect fill="none" height="24" stroke="#405C86" stroke-width="2" width="12" x="1230" y="90" />
<rect fill="none" height="24" stroke="#405C86" stroke-width="2" width="12" x="1218" y="90" />
<text class="label" x="1224" y="103">0</text>
<rect fill="#DEE6F1" height="24" width="12" x="1206" y="90" />
<rect fill="none" height="24" stroke="#405C86" stroke-width="2" width="12" x="1206" y="90" />
<rect fill="none" height="24" stroke="#405C86" stroke-width="2" width="12" x="1194" y="90" />
<text class="label" x="1200" y="103">0</text>
<rect fill="#DEE6F1" height="24" width="12" x="1182" y="90" />
<rect fill="none" height="24" stroke="#405C86" stroke-width="2" width="12" x="1182" y="90" />
<rect fill="none" height="24" stroke="#405C86" stroke-width="2" width="12" x="1170" y="90" />
<text class="label" x="1176" y="103">0</text>
<rect fill="#DEE6F1" height="24" width="12" x="1158" y="90" />
<rect fill="none" height="24" stroke="#405C86" stroke-width="2" width="12" x="1158" y="90" />
<rect fill="none" height="24" stroke="#405C86" stroke-width="2" width="12" x="1146" y="90" />
<text class="label" x="1152" y="103">0</text>
<rect fill="#DEE6F1" height="24" width="12" x="1134" y="90" />
<rect fill="none" height="24" stroke="#405C86" stroke-width="2" width="12" x="1134" y="90" />
<rect fill="none" height="24" stroke="#405C86" stroke-width="2" width="12" x="1122" y="90" />
<text class="label" x="1128" y="103">0</text>
<rect fill="#DEE6F1" height="24" width="12" x="1110" y="90" />
<rect fill="none" height="24" stroke="#405C86" stroke-width="2" width="12" x="1110" y="90" />
<rect fill="none" height="24" stroke="#405C86" stroke-width="2" width="12" x="1098" y="90" />
<text class="label" x="1104" y="103">0</text>
<rect fill="#DEE6F1" height="24" width="12" x="1086" y="90" />
<rect fill="none" height="24" stroke="#405C86" stroke-width="2" width="12" x="1086" y="90" />
<rect fill="none" height="24" stroke="#405C86" stroke-width="2" width="12" x="1074" y="90" />
<text class="label" x="1080" y="103">0</text>
<rect fill="#DEE6F1" height="24" width="12" x="1062" y="90" />
<rect fill="none" height="24" stroke="#405C86" stroke-width="2" width="12" x="1062" y="90" />
<rect fill="none" height="24" stroke="#405C86" stroke-width="2" width="12" x="1050" y="90" />
<text class="label" x="1056" y="103">0</text>
<rect fill="#DEE6F1" height="24" width="12" x="1038" y="90" />
<rect fill="none" height="24" stroke="#405C86" stroke-width="2" width="12" x="1038" y="90" />
<rect fill="none" height="24" stroke="#405C86" stroke-width="2" width="12" x="1026" y="90" />
<text class="label" x="1032" y="103">0</text>
<rect fill="#DEE6F1" height="24" width="12" x="1014" y="90" />
<rect fill="none" height="24" stroke="#405C86" stroke-width="2" width="12" x="1014" y="90" />
<rect fill="none" height="24" stroke="#405C86" stroke-width="2" width="12" x="1002" y="90" />
<text class="label" x="1008" y="103">0</text>
<rect fill="#DEE6F1" height="24" width="12" x="990" y="90" />
<rect fill="none" height="24" stroke="#405C86" stroke-width="2" width="12" x="990" y="90" />
<rect fill="none" height="24" stroke="#405C86" stroke-width="2" width="12" x="978" y="90" />
<text class="label" x="984" y="103">0</text>
<rect fill="#DEE6F1" height="24" width="12" x="966" y="90" />
<rect fill="none" height="24" stroke="#405C86" stroke-width="2" width="12" x="966" y="90" />
<rect fill="none" height="24" stroke="#405C86" stroke-width="2" width="12" x="954" y="90" />
<text class="label" x="960" y="103">0</text>
<rect fill="#DEE6F1" height="24" width="12" x="942" y="90" />
<rect fill="none" height="24" stroke="#405C86" stroke-width="2" width="12" x="942" y="90" />
<rect fill="none" height="24" stroke="#405C86" stroke-width="2" width="12" x="930" y="90" />
<text class="label" x="936" y="103">0</text>
<rect fill="#DEE6F1" height="24" width="12" x="918" y="90" />
<rect fill="none" height="24" stroke="#405C86" stroke-width="2" width="12" x="918" y="90" />
<rect fill="none" height="24" stroke="#405C86" stroke-width="2" width="12" x="906" y="90" />
<text class="label" x="912" y="103">0</text>
<rect fill="#DEE6F1" height="24" width="12" x="894" y="90" />
<rect fill="none" height="24" stroke="#405C86" stroke-width="2" width="12" x="894" y="90" />
<rect fill="none" height="24" stroke="#405C86" stroke-width="2" width="12" x="882" y="90" />
<text class="label" x="888" y="103">0</text>
<rect fill="#DEE6F1" height="24" width="12" x="870" y="90" />
<rect fill="none" height="24" stroke="#405C86" stroke-width="2" width="12" x="870" y="90" />
<rect fill="none" height="24" stroke="#405C86" stroke-width="2" width="12" x="858" y="90" />
<text class="label" x="864" y="103">0</text>
<rect fill="#DEE6F1" height="24" width="12" x="846" y="90" />
<rect fill="none" height="24" stroke="#405C86" stroke-width="2" width="12" x="846" y="90" />
<rect fill="none" height="24" stroke="#405C86" stroke-width="2" width="12" x="834" y="90" />
<text class="label" x="840" y="103">0</text>
<rect fill="#DEE6F1" height="24" width="12" x="822" y="90" />
<rect fill="none" height="24" stroke="#405C86" stroke-width="2" width="12" x="822" y="90" />
<rect fill="none" height="24" stroke="#405C86" stroke-width="2" width="12" x="810" y="90" />
<text class="label" x="816" y="103">0</text>
<rect fill="#DEE6F1" height="24" width="12" x="798" y="90" />
<rect fill="none" height="24" stroke="#405C86" stroke-width="2" width="12" x="798" y="90" />
<rect fill="none" height="24" stroke="#405C86" stroke-width="2" width="12" x="786" y="90" />
<text class="label" x="792" y="103">0</text>
<rect fill="#DEE6F1" height="24" width="12" x="774" y="90" />
<rect fill="none" height="24" stroke="#405C86" stroke-width="2" width="12" x="774" y="90" />
<rect fill="none" height="24" stroke="#405C86" stroke-width="2" width="12" x="762" y="90" />
<text class="label" x="768" y="103">0</text>
<rect fill="#DEE6F1" height="24" width="12" x="750" y="90" />
<rect fill="none" height="24" stroke="#405C86" stroke-width="2" width="12" x="750" y="90" />
<rect fill="none" height="24" stroke="#405C86" stroke-width="2" width="12" x="738" y="90" />
<text class="label" x="744" y="103">0</text>
<rect fill="#DEE6F1" height="24" width="12" x="726" y="90" />
<rect fill="none" height="24" stroke="#405C86" stroke-width="2" width="12" x="726" y="90" />
<rect fill="none" height="24" stroke="#405C86" stroke-width="2" width="12" x="714" y="90" />
<text class="label" x="720" y="103">0</text>
<rect fill="#DEE6F1" height="24" width="12" x="702" y="90" />
<rect fill="none" height="24" stroke="#405C86" stroke-width="2" width="12" x="702" y="90" />
<rect fill="none" height="24" stroke="#405C86" stroke-width="2" width="12" x="690" y="90" />
<text class="label" x="696" y="103">0</text>
<rect fill="#DEE6F1" height="24" width="12" x="678" y="90" />
<rect fill="none" height="24" stroke="#405C86" stroke-width="2" width="12" x="678" y="90" />
<rect fill="none" height="24" stroke="#405C86" stroke-width="2" width="12" x="666" y="90" />
<text class="label" x="672" y="103">0</text>
<rect fill="#DEE6F1" height="24" width="12" x="654" y="90" />
<rect fill="none" height="24" stroke="#405C86" stroke-width="2" width="12" x="654" y="90" />
<rect fill="none" height="24" stroke="#405C86" stroke-width="2" width="12" x="642" y="90" />
<text class="label" x="648" y="103">0</text>
<rect fill="#DEE6F1" height="24" width="12" x="630" y="90" />
<rect fill="none" height="24" stroke="#405C86" stroke-width="2" width="12" x="630" y="90" />
<rect fill="none" height="24" stroke="#405C86" stroke-width="2" width="12" x="618" y="90" />
<text class="label" x="624" y="103">0</text>
<rect fill="#DEE6F1" height="24" width="12" x="606" y="90" />
<rect fill="none" height="24" stroke="#405C86" stroke-width="2" width="12" x="606" y="90" />
<rect fill="none" height="24" stroke="#405C86" stroke-width="2" width="12" x="594" y="90" />
<text class="label" x="600" y="103">0</text>
<rect fill="#DEE6F1" height="24" width="12" x="582" y="90" />
<rect fill="none" height="24" stroke="#405C86" stroke-width="2" width="12" x="582" y="90" />
<rect fill="none" height="24" stroke="#405C86" stroke-width="2" width="12" x="570" y="90" />
<text class="label" x="576" y="103">0</text>
<rect fill="#DEE6F1" height="24" width="12" x="558" y="90" />
<rect fill="none" height="24" stroke="#405C86" stroke-width="2" width="12" x="558" y="90" />
<rect fill="none" height="24" stroke="#405C86" stroke-width="2" width="12" x="546" y="90" />
<text class="label" x="552" y="103">0</text>
<rect fill="#DEE6F1" height="24" width="12" x="534" y="90" />
<rect fill="none" height="24" stroke="#405C86" stroke-width="2" width="12" x="534" y="90" />
<rect fill="none" height="24" stroke="#405C86" stroke-width="2" width="12" x="522" y="90" />
<text class="label" x="528" y="103">0</text>
<rect fill="#DEE6F1" height="24" width="12" x="510" y="90" />
<rect fill="none" height="24" stroke="#405C86" stroke-width="2" width="12" x="510" y="90" />
<rect fill="none" height="24" stroke="#405C86" stroke-width="2" width="12" x="498" y="90" />
<text class="label" x="504" y="103">0</text>
<rect fill="#DEE6F1" height="24" width="12" x="486" y="90" />
<rect fill="none" height="24" stroke="#405C86" stroke-width="2" width="12" x="486" y="90" />
<rect fill="none" height="24" stroke="#405C86" stroke-width="2" width="12" x="474" y="90" />
<text class="label" x="480" y="103">0</text>
<rect fill="#DEE6F1" height="24" width="12" x="462" y="90" />
<rect fill="none" height="24" stroke="#405C86" stroke-width="2" width="12" x="462" y="90" />
<rect fill="none" height="24" stroke="#405C86" stroke-width="2" width="12" x="450" y="90" />
<text class="label" x="456" y="103">0</text>
<rect fill="#DEE6F1" height="24" width="12" x="438" y="90" />
<rect fill="none" height="24" stroke="#405C86" stroke-width="2" width="12" x="438" y="90" />
<rect fill="none" height="24" stroke="#405C86" stroke-width="2" width="12" x="426" y="90" />
<text class="label" x="432" y="103">0</text>
<rect fill="#DEE6F1" height="24" width="12" x="414" y="90" />
<rect fill="none" height="24" stroke="#405C86" stroke-width="2" width="12" x="414" y="90" />
<rect fill="none" height="24" stroke="#405C86" stroke-width="2" width="12" x="402" y="90" />
<text class="label" x="408" y="103">0</text>
<rect fill="#DEE6F1" height="24" width="12" x="390" y="90" />
<rect fill="none" height="24" stroke="#405C86" stroke-width="2" width="12" x="390" y="90" />
<rect fill="none" height="24" stroke="#405C86" stroke-width="2" width="12" x="378" y="90" />
<text class="label" x="384" y="103">0</text>
<rect fill="#DEE6F1" height="24" width="12" x="366" y="90" />
<rect fill="none" height="24" stroke="#405C86" stroke-width="2" width="12" x="366" y="90" />
<rect fill="none" height="24" stroke="#405C86" stroke-width="2" width="12" x="354" y="90" />
<text class="label" x="360" y="103">0</text>
<rect fill="#DEE6F1" height="24" width="12" x="342" y="90" />
<rect fill="none" height="24" stroke="#405C86" stroke-width="2" width="12" x="342" y="90" />
<rect fill="none" height="24" stroke="#405C86" stroke-width="2" width="12" x="330" y="90" />
<text class="label" x="336" y="103">0</text>
<rect fill="#DEE6F1" height="24" width="12" x="318" y="90" />
<rect fill="none" height="24" stroke="#405C86" stroke-width="2" width="12" x="318" y="90" />
<rect fill="none" height="24" stroke="#405C86" stroke-width="2" width="12" x="306" y="90" />
<text class="label" x="312" y="103">0</text>
<rect fill="#DEE6F1" height="24" width="12" x="294" y="90" />
<rect fill="none" height="24" stroke="#405C86" stroke-width="2" width="12" x="294" y="90" />
<rect fill="none" height="24" stroke="#405C86" stroke-width="2" width="12" x="282" y="90" />
<text class="label" x="288" y="103">0</text>
<rect fill="#DEE6F1" height="24" width="12" x="270" y="90" />
<rect fill="none" height="24" stroke="#405C86" stroke-width="2" width="12" x="270" y="90" />
<rect fill="none" height="24" stroke="#405C86" stroke-width="2" width="12" x="258" y="90" />
<text class="label" x="264" y="103">0</text>
<rect fill="#DEE6F1" height="24" width="12" x="246" y="90" />
<rect fill="none" height="24" stroke="#405C86" stroke-width="2" width="12" x="246" y="90" />
<rect fill="none" height="24" stroke="#405C86" stroke-width="2" width="12" x="234" y="90" />
<text class="label" x="240" y="103">0</text>
<rect fill="#DEE6F1" height="24" width="12" x="222" y="90" />
<rect fill="none" height="24" stroke="#405C86" stroke-width="2" width="12" x="222" y="90" />
<rect fill="none" height="24" stroke="#405C86" stroke-width="2" width="12" x="210" y="90" />
<text class="label" x="216" y="103">0</text>
<rect fill="#DEE6F1" height="24" width="12" x="198" y="90" />
<rect fill="none" height="24" stroke="#405C86" stroke-width="2" width="12" x="198" y="90" />
<rect fill="none" height="24" stroke="#405C86" stroke-width="2" width="12" x="186" y="90" />
<text class="label" x="192" y="103">0</text>
<rect fill="#DEE6F1" height="24" width="12" x="174" y="90" />
<rect fill="none" height="24" stroke="#405C86" stroke-width="2" width="12" x="174" y="90" />
<rect fill="none" height="24" stroke="#405C86" stroke-width="2" width="12" x="162" y="90" />
<text class="label" x="168" y="103">0</text>
<rect fill="#DEE6F1" height="24" width="12" x="150" y="90" />
<rect fill="none" height="24" stroke="#405C86" stroke-width="2" width="12" x="150" y="90" />
<rect fill="none" height="24" stroke="#405C86" stroke-width="2" width="12" x="138" y="90" />
<text class="label" x="144" y="103">0</text>
<rect fill="#DEE6F1" height="24" width="12" x="126" y="90" />
<rect fill="none" height="24" stroke="#405C86" stroke-width="2" width="12" x="126" y="90" />
<rect fill="none" height="24" stroke="#405C86" stroke-width="2" width="12" x="114" y="90" />
<text class="label" x="120" y="103">0</text>
<rect fill="#DEE6F1" height="24" width="12" x="102" y="90" />
<rect fill="none" height="24" stroke="#405C86" stroke-width="2" width="12" x="102" y="90" />
<rect fill="none" height="24" stroke="#405C86" stroke-width="2" width="12" x="90" y="90" />
<text class="label" x="96" y="103">0</text>
<text class="register-name" x="80" y="102">Pd</text>
<text class="intrinsic-name" x="80" y="114">returns</text>
<text class="register-number" x="10" y="102">(2)</text>
<line stroke="#567DB6" stroke-width="1" x1="852" x2="1620" y1="42.5" y2="89" />
<line stroke="#567DB6" stroke-width="1" x1="840" x2="1596" y1="42.5" y2="89" />
<line stroke="#567DB6" stroke-width="1" x1="828" x2="1572" y1="42.5" y2="89" />
<line stroke="#567DB6" stroke-width="1" x1="816" x2="1548" y1="42.5" y2="89" />
<line stroke="#567DB6" stroke-width="1" x1="804" x2="1524" y1="42.5" y2="89" />
<line stroke="#567DB6" stroke-width="1" x1="792" x2="1500" y1="42.5" y2="89" />
<line stroke="#567DB6" stroke-width="1" x1="780" x2="1476" y1="42.5" y2="89" />
<line stroke="#567DB6" stroke-width="1" x1="768" x2="1452" y1="42.5" y2="89" />
<line stroke="#567DB6" stroke-width="1" x1="756" x2="1428" y1="42.5" y2="89" />
<line stroke="#567DB6" stroke-width="1" x1="744" x2="1404" y1="42.5" y2="89" />
<line stroke="#567DB6" stroke-width="1" x1="732" x2="1380" y1="42.5" y2="89" />
<line stroke="#567DB6" stroke-width="1" x1="720" x2="1356" y1="42.5" y2="89" />
<line stroke="#567DB6" stroke-width="1" x1="708" x2="1332" y1="42.5" y2="89" />
<line stroke="#567DB6" stroke-width="1" x1="696" x2="1308" y1="42.5" y2="89" />
<line stroke="#567DB6" stroke-width="1" x1="684" x2="1284" y1="42.5" y2="89" />
<line stroke="#567DB6" stroke-width="1" x1="672" x2="1260" y1="42.5" y2="89" />
<line stroke="#567DB6" stroke-width="1" x1="660" x2="1236" y1="42.5" y2="89" />
<line stroke="#567DB6" stroke-width="1" x1="648" x2="1212" y1="42.5" y2="89" />
<line stroke="#567DB6" stroke-width="1" x1="636" x2="1188" y1="42.5" y2="89" />
<line stroke="#567DB6" stroke-width="1" x1="624" x2="1164" y1="42.5" y2="89" />
<line stroke="#567DB6" stroke-width="1" x1="612" x2="1140" y1="42.5" y2="89" />
<line stroke="#567DB6" stroke-width="1" x1="600" x2="1116" y1="42.5" y2="89" />
<line stroke="#567DB6" stroke-width="1" x1="588" x2="1092" y1="42.5" y2="89" />
<line stroke="#567DB6" stroke-width="1" x1="576" x2="1068" y1="42.5" y2="89" />
<line stroke="#567DB6" stroke-width="1" x1="564" x2="1044" y1="42.5" y2="89" />
<line stroke="#567DB6" stroke-width="1" x1="552" x2="1020" y1="42.5" y2="89" />
<line stroke="#567DB6" stroke-width="1" x1="540" x2="996" y1="42.5" y2="89" />
<line stroke="#567DB6" stroke-width="1" x1="528" x2="972" y1="42.5" y2="89" />
<line stroke="#567DB6" stroke-width="1" x1="516" x2="948" y1="42.5" y2="89" />
<line stroke="#567DB6" stroke-width="1" x1="504" x2="924" y1="42.5" y2="89" />
<line stroke="#567DB6" stroke-width="1" x1="492" x2="900" y1="42.5" y2="89" />
<line stroke="#567DB6" stroke-width="1" x1="480" x2="876" y1="42.5" y2="89" />
<line stroke="#567DB6" stroke-width="1" x1="468" x2="852" y1="42.5" y2="89" />
<line stroke="#567DB6" stroke-width="1" x1="456" x2="828" y1="42.5" y2="89" />
<line stroke="#567DB6" stroke-width="1" x1="444" x2="804" y1="42.5" y2="89" />
<line stroke="#567DB6" stroke-width="1" x1="432" x2="780" y1="42.5" y2="89" />
<line stroke="#567DB6" stroke-width="1" x1="420" x2="756" y1="42.5" y2="89" />
<line stroke="#567DB6" stroke-width="1" x1="408" x2="732" y1="42.5" y2="89" />
<line stroke="#567DB6" stroke-width="1" x1="396" x2="708" y1="42.5" y2="89" />
<line stroke="#567DB6" stroke-width="1" x1="384" x2="684" y1="42.5" y2="89" />
<line stroke="#567DB6" stroke-width="1" x1="372" x2="660" y1="42.5" y2="89" />
<line stroke="#567DB6" stroke-width="1" x1="360" x2="636" y1="42.5" y2="89" />
<line stroke="#567DB6" stroke-width="1" x1="348" x2="612" y1="42.5" y2="89" />
<line stroke="#567DB6" stroke-width="1" x1="336" x2="588" y1="42.5" y2="89" />
<line stroke="#567DB6" stroke-width="1" x1="324" x2="564" y1="42.5" y2="89" />
<line stroke="#567DB6" stroke-width="1" x1="312" x2="540" y1="42.5" y2="89" />
<line stroke="#567DB6" stroke-width="1" x1="300" x2="516" y1="42.5" y2="89" />
<line stroke="#567DB6" stroke-width="1" x1="288" x2="492" y1="42.5" y2="89" />
<line stroke="#567DB6" stroke-width="1" x1="276" x2="468" y1="42.5" y2="89" />
<line stroke="#567DB6" stroke-width="1" x1="264" x2="444" y1="42.5" y2="89" />
<line stroke="#567DB6" stroke-width="1" x1="252" x2="420" y1="42.5" y2="89" />
<line stroke="#567DB6" stroke-width="1" x1="240" x2="396" y1="42.5" y2="89" />
<line stroke="#567DB6" stroke-width="1" x1="228" x2="372" y1="42.5" y2="89" />
<line stroke="#567DB6" stroke-width="1" x1="216" x2="348" y1="42.5" y2="89" />
<line stroke="#567DB6" stroke-width="1" x1="204" x2="324" y1="42.5" y2="89" />
<line stroke="#567DB6" stroke-width="1" x1="192" x2="300" y1="42.5" y2="89" />
<line stroke="#567DB6" stroke-width="1" x1="180" x2="276" y1="42.5" y2="89" />
<line stroke="#567DB6" stroke-width="1" x1="168" x2="252" y1="42.5" y2="89" />
<line stroke="#567DB6" stroke-width="1" x1="156" x2="228" y1="42.5" y2="89" />
<line stroke="#567DB6" stroke-width="1" x1="144" x2="204" y1="42.5" y2="89" />
<line stroke="#567DB6" stroke-width="1" x1="132" x2="180" y1="42.5" y2="89" />
<line stroke="#567DB6" stroke-width="1" x1="120" x2="156" y1="42.5" y2="89" />
<line stroke="#567DB6" stroke-width="1" x1="108" x2="132" y1="42.5" y2="89" />
<line stroke="#567DB6" stroke-width="1" x1="96" x2="108" y1="42.5" y2="89" />
<line marker-end="url(#arrowhead)" stroke="none" x1="852" x2="1620" y1="42.5" y2="89" />
<line marker-end="url(#arrowhead)" stroke="none" x1="840" x2="1596" y1="42.5" y2="89" />
<line marker-end="url(#arrowhead)" stroke="none" x1="828" x2="1572" y1="42.5" y2="89" />
<line marker-end="url(#arrowhead)" stroke="none" x1="816" x2="1548" y1="42.5" y2="89" />
<line marker-end="url(#arrowhead)" stroke="none" x1="804" x2="1524" y1="42.5" y2="89" />
<line marker-end="url(#arrowhead)" stroke="none" x1="792" x2="1500" y1="42.5" y2="89" />
<line marker-end="url(#arrowhead)" stroke="none" x1="780" x2="1476" y1="42.5" y2="89" />
<line marker-end="url(#arrowhead)" stroke="none" x1="768" x2="1452" y1="42.5" y2="89" />
<line marker-end="url(#arrowhead)" stroke="none" x1="756" x2="1428" y1="42.5" y2="89" />
<line marker-end="url(#arrowhead)" stroke="none" x1="744" x2="1404" y1="42.5" y2="89" />
<line marker-end="url(#arrowhead)" stroke="none" x1="732" x2="1380" y1="42.5" y2="89" />
<line marker-end="url(#arrowhead)" stroke="none" x1="720" x2="1356" y1="42.5" y2="89" />
<line marker-end="url(#arrowhead)" stroke="none" x1="708" x2="1332" y1="42.5" y2="89" />
<line marker-end="url(#arrowhead)" stroke="none" x1="696" x2="1308" y1="42.5" y2="89" />
<line marker-end="url(#arrowhead)" stroke="none" x1="684" x2="1284" y1="42.5" y2="89" />
<line marker-end="url(#arrowhead)" stroke="none" x1="672" x2="1260" y1="42.5" y2="89" />
<line marker-end="url(#arrowhead)" stroke="none" x1="660" x2="1236" y1="42.5" y2="89" />
<line marker-end="url(#arrowhead)" stroke="none" x1="648" x2="1212" y1="42.5" y2="89" />
<line marker-end="url(#arrowhead)" stroke="none" x1="636" x2="1188" y1="42.5" y2="89" />
<line marker-end="url(#arrowhead)" stroke="none" x1="624" x2="1164" y1="42.5" y2="89" />
<line marker-end="url(#arrowhead)" stroke="none" x1="612" x2="1140" y1="42.5" y2="89" />
<line marker-end="url(#arrowhead)" stroke="none" x1="600" x2="1116" y1="42.5" y2="89" />
<line marker-end="url(#arrowhead)" stroke="none" x1="588" x2="1092" y1="42.5" y2="89" />
<line marker-end="url(#arrowhead)" stroke="none" x1="576" x2="1068" y1="42.5" y2="89" />
<line marker-end="url(#arrowhead)" stroke="none" x1="564" x2="1044" y1="42.5" y2="89" />
<line marker-end="url(#arrowhead)" stroke="none" x1="552" x2="1020" y1="42.5" y2="89" />
<line marker-end="url(#arrowhead)" stroke="none" x1="540" x2="996" y1="42.5" y2="89" />
<line marker-end="url(#arrowhead)" stroke="none" x1="528" x2="972" y1="42.5" y2="89" />
<line marker-end="url(#arrowhead)" stroke="none" x1="516" x2="948" y1="42.5" y2="89" />
<line marker-end="url(#arrowhead)" stroke="none" x1="504" x2="924" y1="42.5" y2="89" />
<line marker-end="url(#arrowhead)" stroke="none" x1="492" x2="900" y1="42.5" y2="89" />
<line marker-end="url(#arrowhead)" stroke="none" x1="480" x2="876" y1="42.5" y2="89" />
<line marker-end="url(#arrowhead)" stroke="none" x1="468" x2="852" y1="42.5" y2="89" />
<line marker-end="url(#arrowhead)" stroke="none" x1="456" x2="828" y1="42.5" y2="89" />
<line marker-end="url(#arrowhead)" stroke="none" x1="444" x2="804" y1="42.5" y2="89" />
<line marker-end="url(#arrowhead)" stroke="none" x1="432" x2="780" y1="42.5" y2="89" />
<line marker-end="url(#arrowhead)" stroke="none" x1="420" x2="756" y1="42.5" y2="89" />
<line marker-end="url(#arrowhead)" stroke="none" x1="408" x2="732" y1="42.5" y2="89" />
<line marker-end="url(#arrowhead)" stroke="none" x1="396" x2="708" y1="42.5" y2="89" />
<line marker-end="url(#arrowhead)" stroke="none" x1="384" x2="684" y1="42.5" y2="89" />
<line marker-end="url(#arrowhead)" stroke="none" x1="372" x2="660" y1="42.5" y2="89" />
<line marker-end="url(#arrowhead)" stroke="none" x1="360" x2="636" y1="42.5" y2="89" />
<line marker-end="url(#arrowhead)" stroke="none" x1="348" x2="612" y1="42.5" y2="89" />
<line marker-end="url(#arrowhead)" stroke="none" x1="336" x2="588" y1="42.5" y2="89" />
<line marker-end="url(#arrowhead)" stroke="none" x1="324" x2="564" y1="42.5" y2="89" />
<line marker-end="url(#arrowhead)" stroke="none" x1="312" x2="540" y1="42.5" y2="89" />
<line marker-end="url(#arrowhead)" stroke="none" x1="300" x2="516" y1="42.5" y2="89" />
<line marker-end="url(#arrowhead)" stroke="none" x1="288" x2="492" y1="42.5" y2="89" />
<line marker-end="url(#arrowhead)" stroke="none" x1="276" x2="468" y1="42.5" y2="89" />
<line marker-end="url(#arrowhead)" stroke="none" x1="264" x2="444" y1="42.5" y2="89" />
<line marker-end="url(#arrowhead)" stroke="none" x1="252" x2="420" y1="42.5" y2="89" />
<line marker-end="url(#arrowhead)" stroke="none" x1="240" x2="396" y1="42.5" y2="89" />
<line marker-end="url(#arrowhead)" stroke="none" x1="228" x2="372" y1="42.5" y2="89" />
<line marker-end="url(#arrowhead)" stroke="none" x1="216" x2="348" y1="42.5" y2="89" />
<line marker-end="url(#arrowhead)" stroke="none" x1="204" x2="324" y1="42.5" y2="89" />
<line marker-end="url(#arrowhead)" stroke="none" x1="192" x2="300" y1="42.5" y2="89" />
<line marker-end="url(#arrowhead)" stroke="none" x1="180" x2="276" y1="42.5" y2="89" />
<line marker-end="url(#arrowhead)" stroke="none" x1="168" x2="252" y1="42.5" y2="89" />
<line marker-end="url(#arrowhead)" stroke="none" x1="156" x2="228" y1="42.5" y2="89" />
<line marker-end="url(#arrowhead)" stroke="none" x1="144" x2="204" y1="42.5" y2="89" />
<line marker-end="url(#arrowhead)" stroke="none" x1="132" x2="180" y1="42.5" y2="89" />
<line marker-end="url(#arrowhead)" stroke="none" x1="120" x2="156" y1="42.5" y2="89" />
<line marker-end="url(#arrowhead)" stroke="none" x1="108" x2="132" y1="42.5" y2="89" />
<line marker-end="url(#arrowhead)" stroke="none" x1="96" x2="108" y1="42.5" y2="89" />
</svg>