<svg xmlns="http://www.w3.org/2000/svg" viewBox="0 0 1638 195">
<style>
.label { font: 14px Helvetica; dominant-baseline: middle; text-anchor: middle; }
.title-left { font: 12px Helvetica; dominant-baseline: middle; }
.title-right { font: 12px Helvetica; dominant-baseline: middle; text-anchor: end; }
.title-intrinsic { font: 12px Helvetica; dominant-baseline: middle; text-anchor: middle; fill: #6778ED; }
.title { font: 12px Helvetica; dominant-baseline: middle; text-anchor: middle; }
.title-unused { font: 12px Helvetica; dominant-baseline: middle; text-anchor: middle; fill: #AAA; }
.register-name { font: 14px Helvetica; dominant-baseline: middle; text-anchor: end; font-style: italic; }
.memory-name { font: 14px Helvetica; dominant-baseline: middle; text-anchor: end; }
.register-number { font: 14px Helvetica; dominant-baseline: middle; text-anchor: start; }
.intrinsic-name { font: 14px Helvetica; dominant-baseline: middle; text-anchor: end; fill: #6778ED; }
.intrinsic-color { fill: #6778ED; }
.small-label { font: 12px Helvetica; dominant-baseline: middle; text-anchor: middle; }
.label-10px { font: 10px Helvetica; dominant-baseline: middle; text-anchor: middle; }
.smaller-label { font: 9px Helvetica; dominant-baseline: middle; text-anchor: middle; }
.label-6px { font: 6px Helvetica; dominant-baseline: middle; text-anchor: middle; }
.label-7px { font: 7px Helvetica; dominant-baseline: middle; text-anchor: middle; }
.unused { fill: #AAA; }
.dim { fill: #888; }
</style>
<defs>
<marker id="arrowhead" markerWidth="9.5" markerHeight="21.0" refX="7.75" refY="5.25" orient="auto">
<polyline points="0.5 0.5, 7.5 5.25, 0.5 10.0" stroke="#567DB6" stroke-width="1" fill="none"/>
</marker>
</defs>
<line stroke="#567DB6" stroke-width="1" x1="1578" x2="1578" y1="65.5" y2="89.5" />
<line stroke="#567DB6" stroke-width="1" x1="1608" x2="1608" y1="42.5" y2="65.5" />
<line stroke="#567DB6" stroke-width="1" x1="1596" x2="1596" y1="42.5" y2="65.5" />
<line stroke="#567DB6" stroke-width="1" x1="1584" x2="1584" y1="42.5" y2="65.5" />
<line stroke="#567DB6" stroke-width="1" x1="1572" x2="1572" y1="42.5" y2="65.5" />
<line stroke="#567DB6" stroke-width="1" x1="1560" x2="1560" y1="42.5" y2="65.5" />
<line stroke="#567DB6" stroke-width="1" x1="1548" x2="1548" y1="42.5" y2="65.5" />
<line stroke="#567DB6" stroke-width="1" x1="1536" x2="1536" y1="42.5" y2="65.5" />
<line stroke="#567DB6" stroke-width="1" x1="1524" x2="1524" y1="42.5" y2="65.5" />
<line stroke="#567DB6" stroke-width="1" x1="1512" x2="1512" y1="42.5" y2="65.5" />
<line stroke="#567DB6" stroke-width="1" x1="1500" x2="1500" y1="42.5" y2="65.5" />
<line stroke="#567DB6" stroke-width="1" x1="1488" x2="1488" y1="42.5" y2="65.5" />
<line stroke="#567DB6" stroke-width="1" x1="1476" x2="1476" y1="42.5" y2="65.5" />
<line stroke="#567DB6" stroke-width="1" x1="1464" x2="1464" y1="42.5" y2="65.5" />
<line stroke="#567DB6" stroke-width="1" x1="1452" x2="1452" y1="42.5" y2="65.5" />
<line stroke="#567DB6" stroke-width="1" x1="1440" x2="1440" y1="42.5" y2="65.5" />
<line stroke="#567DB6" stroke-width="1" x1="1428" x2="1428" y1="42.5" y2="65.5" />
<line stroke="#567DB6" stroke-width="1" x1="1416" x2="1416" y1="42.5" y2="65.5" />
<line stroke="#567DB6" stroke-width="1" x1="1404" x2="1404" y1="42.5" y2="65.5" />
<line stroke="#567DB6" stroke-width="1" x1="1392" x2="1392" y1="42.5" y2="65.5" />
<line stroke="#567DB6" stroke-width="1" x1="1380" x2="1380" y1="42.5" y2="65.5" />
<line stroke="#567DB6" stroke-width="1" x1="1368" x2="1368" y1="42.5" y2="65.5" />
<line stroke="#567DB6" stroke-width="1" x1="1356" x2="1356" y1="42.5" y2="65.5" />
<line stroke="#567DB6" stroke-width="1" x1="1344" x2="1344" y1="42.5" y2="65.5" />
<line stroke="#567DB6" stroke-width="1" x1="1332" x2="1332" y1="42.5" y2="65.5" />
<line stroke="#567DB6" stroke-width="1" x1="1320" x2="1320" y1="42.5" y2="65.5" />
<line stroke="#567DB6" stroke-width="1" x1="1308" x2="1308" y1="42.5" y2="65.5" />
<line stroke="#567DB6" stroke-width="1" x1="1296" x2="1296" y1="42.5" y2="65.5" />
<line stroke="#567DB6" stroke-width="1" x1="1284" x2="1284" y1="42.5" y2="65.5" />
<line stroke="#567DB6" stroke-width="1" x1="1272" x2="1272" y1="42.5" y2="65.5" />
<line stroke="#567DB6" stroke-width="1" x1="1260" x2="1260" y1="42.5" y2="65.5" />
<line stroke="#567DB6" stroke-width="1" x1="1248" x2="1248" y1="42.5" y2="65.5" />
<line stroke="#567DB6" stroke-width="1" x1="1236" x2="1236" y1="42.5" y2="65.5" />
<line stroke="#567DB6" stroke-width="1" x1="1224" x2="1224" y1="42.5" y2="65.5" />
<line stroke="#567DB6" stroke-width="1" x1="1212" x2="1212" y1="42.5" y2="65.5" />
<line stroke="#567DB6" stroke-width="1" x1="1200" x2="1200" y1="42.5" y2="65.5" />
<line stroke="#567DB6" stroke-width="1" x1="1188" x2="1188" y1="42.5" y2="65.5" />
<line stroke="#567DB6" stroke-width="1" x1="1176" x2="1176" y1="42.5" y2="65.5" />
<line stroke="#567DB6" stroke-width="1" x1="1164" x2="1164" y1="42.5" y2="65.5" />
<line stroke="#567DB6" stroke-width="1" x1="1152" x2="1152" y1="42.5" y2="65.5" />
<line stroke="#567DB6" stroke-width="1" x1="1140" x2="1140" y1="42.5" y2="65.5" />
<line stroke="#567DB6" stroke-width="1" x1="1128" x2="1128" y1="42.5" y2="65.5" />
<line stroke="#567DB6" stroke-width="1" x1="1116" x2="1116" y1="42.5" y2="65.5" />
<line stroke="#567DB6" stroke-width="1" x1="1104" x2="1104" y1="42.5" y2="65.5" />
<line stroke="#567DB6" stroke-width="1" x1="1092" x2="1092" y1="42.5" y2="65.5" />
<line stroke="#567DB6" stroke-width="1" x1="1080" x2="1080" y1="42.5" y2="65.5" />
<line stroke="#567DB6" stroke-width="1" x1="1068" x2="1068" y1="42.5" y2="65.5" />
<line stroke="#567DB6" stroke-width="1" x1="1056" x2="1056" y1="42.5" y2="65.5" />
<line stroke="#567DB6" stroke-width="1" x1="1044" x2="1044" y1="42.5" y2="65.5" />
<line stroke="#567DB6" stroke-width="1" x1="1032" x2="1032" y1="42.5" y2="65.5" />
<line stroke="#567DB6" stroke-width="1" x1="1020" x2="1020" y1="42.5" y2="65.5" />
<line stroke="#567DB6" stroke-width="1" x1="1008" x2="1008" y1="42.5" y2="65.5" />
<line stroke="#567DB6" stroke-width="1" x1="996" x2="996" y1="42.5" y2="65.5" />
<line stroke="#567DB6" stroke-width="1" x1="984" x2="984" y1="42.5" y2="65.5" />
<line stroke="#567DB6" stroke-width="1" x1="972" x2="972" y1="42.5" y2="65.5" />
<line stroke="#567DB6" stroke-width="1" x1="960" x2="960" y1="42.5" y2="65.5" />
<line stroke="#567DB6" stroke-width="1" x1="948" x2="948" y1="42.5" y2="65.5" />
<line stroke="#567DB6" stroke-width="1" x1="936" x2="936" y1="42.5" y2="65.5" />
<line stroke="#567DB6" stroke-width="1" x1="924" x2="924" y1="42.5" y2="65.5" />
<line stroke="#567DB6" stroke-width="1" x1="912" x2="912" y1="42.5" y2="65.5" />
<line stroke="#567DB6" stroke-width="1" x1="900" x2="900" y1="42.5" y2="65.5" />
<line stroke="#567DB6" stroke-width="1" x1="888" x2="888" y1="42.5" y2="65.5" />
<line stroke="#567DB6" stroke-width="1" x1="876" x2="876" y1="42.5" y2="65.5" />
<line stroke="#567DB6" stroke-width="1" x1="864" x2="864" y1="42.5" y2="65.5" />
<line stroke="#567DB6" stroke-width="1" x1="852" x2="852" y1="42.5" y2="65.5" />
<line stroke="#567DB6" stroke-width="1" x1="840" x2="840" y1="42.5" y2="65.5" />
<line stroke="#567DB6" stroke-width="1" x1="828" x2="828" y1="42.5" y2="65.5" />
<line stroke="#567DB6" stroke-width="1" x1="816" x2="816" y1="42.5" y2="65.5" />
<line stroke="#567DB6" stroke-width="1" x1="804" x2="804" y1="42.5" y2="65.5" />
<line stroke="#567DB6" stroke-width="1" x1="792" x2="792" y1="42.5" y2="65.5" />
<line stroke="#567DB6" stroke-width="1" x1="780" x2="780" y1="42.5" y2="65.5" />
<line stroke="#567DB6" stroke-width="1" x1="768" x2="768" y1="42.5" y2="65.5" />
<line stroke="#567DB6" stroke-width="1" x1="756" x2="756" y1="42.5" y2="65.5" />
<line stroke="#567DB6" stroke-width="1" x1="744" x2="744" y1="42.5" y2="65.5" />
<line stroke="#567DB6" stroke-width="1" x1="732" x2="732" y1="42.5" y2="65.5" />
<line stroke="#567DB6" stroke-width="1" x1="720" x2="720" y1="42.5" y2="65.5" />
<line stroke="#567DB6" stroke-width="1" x1="708" x2="708" y1="42.5" y2="65.5" />
<line stroke="#567DB6" stroke-width="1" x1="696" x2="696" y1="42.5" y2="65.5" />
<line stroke="#567DB6" stroke-width="1" x1="684" x2="684" y1="42.5" y2="65.5" />
<line stroke="#567DB6" stroke-width="1" x1="672" x2="672" y1="42.5" y2="65.5" />
<line stroke="#567DB6" stroke-width="1" x1="660" x2="660" y1="42.5" y2="65.5" />
<line stroke="#567DB6" stroke-width="1" x1="648" x2="648" y1="42.5" y2="65.5" />
<line stroke="#567DB6" stroke-width="1" x1="636" x2="636" y1="42.5" y2="65.5" />
<line stroke="#567DB6" stroke-width="1" x1="624" x2="624" y1="42.5" y2="65.5" />
<line stroke="#567DB6" stroke-width="1" x1="612" x2="612" y1="42.5" y2="65.5" />
<line stroke="#567DB6" stroke-width="1" x1="600" x2="600" y1="42.5" y2="65.5" />
<line stroke="#567DB6" stroke-width="1" x1="588" x2="588" y1="42.5" y2="65.5" />
<line stroke="#567DB6" stroke-width="1" x1="576" x2="576" y1="42.5" y2="65.5" />
<line stroke="#567DB6" stroke-width="1" x1="564" x2="564" y1="42.5" y2="65.5" />
<line stroke="#567DB6" stroke-width="1" x1="552" x2="552" y1="42.5" y2="65.5" />
<line stroke="#567DB6" stroke-width="1" x1="540" x2="540" y1="42.5" y2="65.5" />
<line stroke="#567DB6" stroke-width="1" x1="528" x2="528" y1="42.5" y2="65.5" />
<line stroke="#567DB6" stroke-width="1" x1="516" x2="516" y1="42.5" y2="65.5" />
<line stroke="#567DB6" stroke-width="1" x1="504" x2="504" y1="42.5" y2="65.5" />
<line stroke="#567DB6" stroke-width="1" x1="492" x2="492" y1="42.5" y2="65.5" />
<line stroke="#567DB6" stroke-width="1" x1="480" x2="480" y1="42.5" y2="65.5" />
<line stroke="#567DB6" stroke-width="1" x1="468" x2="468" y1="42.5" y2="65.5" />
<line stroke="#567DB6" stroke-width="1" x1="456" x2="456" y1="42.5" y2="65.5" />
<line stroke="#567DB6" stroke-width="1" x1="444" x2="444" y1="42.5" y2="65.5" />
<line stroke="#567DB6" stroke-width="1" x1="432" x2="432" y1="42.5" y2="65.5" />
<line stroke="#567DB6" stroke-width="1" x1="420" x2="420" y1="42.5" y2="65.5" />
<line stroke="#567DB6" stroke-width="1" x1="408" x2="408" y1="42.5" y2="65.5" />
<line stroke="#567DB6" stroke-width="1" x1="396" x2="396" y1="42.5" y2="65.5" />
<line stroke="#567DB6" stroke-width="1" x1="384" x2="384" y1="42.5" y2="65.5" />
<line stroke="#567DB6" stroke-width="1" x1="372" x2="372" y1="42.5" y2="65.5" />
<line stroke="#567DB6" stroke-width="1" x1="360" x2="360" y1="42.5" y2="65.5" />
<line stroke="#567DB6" stroke-width="1" x1="348" x2="348" y1="42.5" y2="65.5" />
<line stroke="#567DB6" stroke-width="1" x1="336" x2="336" y1="42.5" y2="65.5" />
<line stroke="#567DB6" stroke-width="1" x1="324" x2="324" y1="42.5" y2="65.5" />
<line stroke="#567DB6" stroke-width="1" x1="312" x2="312" y1="42.5" y2="65.5" />
<line stroke="#567DB6" stroke-width="1" x1="300" x2="300" y1="42.5" y2="65.5" />
<line stroke="#567DB6" stroke-width="1" x1="288" x2="288" y1="42.5" y2="65.5" />
<line stroke="#567DB6" stroke-width="1" x1="276" x2="276" y1="42.5" y2="65.5" />
<line stroke="#567DB6" stroke-width="1" x1="264" x2="264" y1="42.5" y2="65.5" />
<line stroke="#567DB6" stroke-width="1" x1="252" x2="252" y1="42.5" y2="65.5" />
<line stroke="#567DB6" stroke-width="1" x1="240" x2="240" y1="42.5" y2="65.5" />
<line stroke="#567DB6" stroke-width="1" x1="228" x2="228" y1="42.5" y2="65.5" />
<line stroke="#567DB6" stroke-width="1" x1="216" x2="216" y1="42.5" y2="65.5" />
<line stroke="#567DB6" stroke-width="1" x1="204" x2="204" y1="42.5" y2="65.5" />
<line stroke="#567DB6" stroke-width="1" x1="192" x2="192" y1="42.5" y2="65.5" />
<line stroke="#567DB6" stroke-width="1" x1="180" x2="180" y1="42.5" y2="65.5" />
<line stroke="#567DB6" stroke-width="1" x1="168" x2="168" y1="42.5" y2="65.5" />
<line stroke="#567DB6" stroke-width="1" x1="156" x2="156" y1="42.5" y2="65.5" />
<line stroke="#567DB6" stroke-width="1" x1="144" x2="144" y1="42.5" y2="65.5" />
<line stroke="#567DB6" stroke-width="1" x1="132" x2="132" y1="42.5" y2="65.5" />
<line stroke="#567DB6" stroke-width="1" x1="120" x2="120" y1="42.5" y2="65.5" />
<line stroke="#567DB6" stroke-width="1" x1="108" x2="108" y1="42.5" y2="65.5" />
<polyline fill="none" points="1620.0 42.5,1620.0 65.5,96.0 65.5,96.0 42.5" stroke="#567DB6" stroke-width="1" />
<line stroke="#567DB6" stroke-width="1" x1="1578" x2="1578" y1="114.5" y2="161" />
<text class="title-left" x="90" y="9">upper</text>
<text class="title-right" x="1626" y="9">lower</text>
<rect fill="#DEE6F1" height="24" width="12" x="1614" y="18" />
<rect fill="none" height="24" stroke="#405C86" stroke-width="2" width="12" x="1614" y="18" />
<rect fill="#DEE6F1" height="24" width="12" x="1602" y="18" />
<rect fill="none" height="24" stroke="#405C86" stroke-width="2" width="12" x="1602" y="18" />
<rect fill="#DEE6F1" height="24" width="12" x="1590" y="18" />
<rect fill="none" height="24" stroke="#405C86" stroke-width="2" width="12" x="1590" y="18" />
<rect fill="#DEE6F1" height="24" width="12" x="1578" y="18" />
<rect fill="none" height="24" stroke="#405C86" stroke-width="2" width="12" x="1578" y="18" />
<rect fill="#DEE6F1" height="24" width="12" x="1566" y="18" />
<rect fill="none" height="24" stroke="#405C86" stroke-width="2" width="12" x="1566" y="18" />
<rect fill="#DEE6F1" height="24" width="12" x="1554" y="18" />
<rect fill="none" height="24" stroke="#405C86" stroke-width="2" width="12" x="1554" y="18" />
<rect fill="#DEE6F1" height="24" width="12" x="1542" y="18" />
<rect fill="none" height="24" stroke="#405C86" stroke-width="2" width="12" x="1542" y="18" />
<rect fill="#DEE6F1" height="24" width="12" x="1530" y="18" />
<rect fill="none" height="24" stroke="#405C86" stroke-width="2" width="12" x="1530" y="18" />
<rect fill="#DEE6F1" height="24" width="12" x="1518" y="18" />
<rect fill="none" height="24" stroke="#405C86" stroke-width="2" width="12" x="1518" y="18" />
<rect fill="#DEE6F1" height="24" width="12" x="1506" y="18" />
<rect fill="none" height="24" stroke="#405C86" stroke-width="2" width="12" x="1506" y="18" />
<rect fill="#DEE6F1" height="24" width="12" x="1494" y="18" />
<rect fill="none" height="24" stroke="#405C86" stroke-width="2" width="12" x="1494" y="18" />
<rect fill="#DEE6F1" height="24" width="12" x="1482" y="18" />
<rect fill="none" height="24" stroke="#405C86" stroke-width="2" width="12" x="1482" y="18" />
<rect fill="#DEE6F1" height="24" width="12" x="1470" y="18" />
<rect fill="none" height="24" stroke="#405C86" stroke-width="2" width="12" x="1470" y="18" />
<rect fill="#DEE6F1" height="24" width="12" x="1458" y="18" />
<rect fill="none" height="24" stroke="#405C86" stroke-width="2" width="12" x="1458" y="18" />
<rect fill="#DEE6F1" height="24" width="12" x="1446" y="18" />
<rect fill="none" height="24" stroke="#405C86" stroke-width="2" width="12" x="1446" y="18" />
<rect fill="#DEE6F1" height="24" width="12" x="1434" y="18" />
<rect fill="none" height="24" stroke="#405C86" stroke-width="2" width="12" x="1434" y="18" />
<rect fill="#DEE6F1" height="24" width="12" x="1422" y="18" />
<rect fill="none" height="24" stroke="#405C86" stroke-width="2" width="12" x="1422" y="18" />
<rect fill="#DEE6F1" height="24" width="12" x="1410" y="18" />
<rect fill="none" height="24" stroke="#405C86" stroke-width="2" width="12" x="1410" y="18" />
<rect fill="#DEE6F1" height="24" width="12" x="1398" y="18" />
<rect fill="none" height="24" stroke="#405C86" stroke-width="2" width="12" x="1398" y="18" />
<rect fill="#DEE6F1" height="24" width="12" x="1386" y="18" />
<rect fill="none" height="24" stroke="#405C86" stroke-width="2" width="12" x="1386" y="18" />
<rect fill="#DEE6F1" height="24" width="12" x="1374" y="18" />
<rect fill="none" height="24" stroke="#405C86" stroke-width="2" width="12" x="1374" y="18" />
<rect fill="#DEE6F1" height="24" width="12" x="1362" y="18" />
<rect fill="none" height="24" stroke="#405C86" stroke-width="2" width="12" x="1362" y="18" />
<rect fill="#DEE6F1" height="24" width="12" x="1350" y="18" />
<rect fill="none" height="24" stroke="#405C86" stroke-width="2" width="12" x="1350" y="18" />
<rect fill="#DEE6F1" height="24" width="12" x="1338" y="18" />
<rect fill="none" height="24" stroke="#405C86" stroke-width="2" width="12" x="1338" y="18" />
<rect fill="#DEE6F1" height="24" width="12" x="1326" y="18" />
<rect fill="none" height="24" stroke="#405C86" stroke-width="2" width="12" x="1326" y="18" />
<rect fill="#DEE6F1" height="24" width="12" x="1314" y="18" />
<rect fill="none" height="24" stroke="#405C86" stroke-width="2" width="12" x="1314" y="18" />
<rect fill="#DEE6F1" height="24" width="12" x="1302" y="18" />
<rect fill="none" height="24" stroke="#405C86" stroke-width="2" width="12" x="1302" y="18" />
<rect fill="#DEE6F1" height="24" width="12" x="1290" y="18" />
<rect fill="none" height="24" stroke="#405C86" stroke-width="2" width="12" x="1290" y="18" />
<rect fill="#DEE6F1" height="24" width="12" x="1278" y="18" />
<rect fill="none" height="24" stroke="#405C86" stroke-width="2" width="12" x="1278" y="18" />
<rect fill="#DEE6F1" height="24" width="12" x="1266" y="18" />
<rect fill="none" height="24" stroke="#405C86" stroke-width="2" width="12" x="1266" y="18" />
<rect fill="#DEE6F1" height="24" width="12" x="1254" y="18" />
<rect fill="none" height="24" stroke="#405C86" stroke-width="2" width="12" x="1254" y="18" />
<rect fill="#DEE6F1" height="24" width="12" x="1242" y="18" />
<rect fill="none" height="24" stroke="#405C86" stroke-width="2" width="12" x="1242" y="18" />
<rect fill="#DEE6F1" height="24" width="12" x="1230" y="18" />
<rect fill="none" height="24" stroke="#405C86" stroke-width="2" width="12" x="1230" y="18" />
<rect fill="#DEE6F1" height="24" width="12" x="1218" y="18" />
<rect fill="none" height="24" stroke="#405C86" stroke-width="2" width="12" x="1218" y="18" />
<rect fill="#DEE6F1" height="24" width="12" x="1206" y="18" />
<rect fill="none" height="24" stroke="#405C86" stroke-width="2" width="12" x="1206" y="18" />
<rect fill="#DEE6F1" height="24" width="12" x="1194" y="18" />
<rect fill="none" height="24" stroke="#405C86" stroke-width="2" width="12" x="1194" y="18" />
<rect fill="#DEE6F1" height="24" width="12" x="1182" y="18" />
<rect fill="none" height="24" stroke="#405C86" stroke-width="2" width="12" x="1182" y="18" />
<rect fill="#DEE6F1" height="24" width="12" x="1170" y="18" />
<rect fill="none" height="24" stroke="#405C86" stroke-width="2" width="12" x="1170" y="18" />
<rect fill="#DEE6F1" height="24" width="12" x="1158" y="18" />
<rect fill="none" height="24" stroke="#405C86" stroke-width="2" width="12" x="1158" y="18" />
<rect fill="#DEE6F1" height="24" width="12" x="1146" y="18" />
<rect fill="none" height="24" stroke="#405C86" stroke-width="2" width="12" x="1146" y="18" />
<rect fill="#DEE6F1" height="24" width="12" x="1134" y="18" />
<rect fill="none" height="24" stroke="#405C86" stroke-width="2" width="12" x="1134" y="18" />
<rect fill="#DEE6F1" height="24" width="12" x="1122" y="18" />
<rect fill="none" height="24" stroke="#405C86" stroke-width="2" width="12" x="1122" y="18" />
<rect fill="#DEE6F1" height="24" width="12" x="1110" y="18" />
<rect fill="none" height="24" stroke="#405C86" stroke-width="2" width="12" x="1110" y="18" />
<rect fill="#DEE6F1" height="24" width="12" x="1098" y="18" />
<rect fill="none" height="24" stroke="#405C86" stroke-width="2" width="12" x="1098" y="18" />
<rect fill="#DEE6F1" height="24" width="12" x="1086" y="18" />
<rect fill="none" height="24" stroke="#405C86" stroke-width="2" width="12" x="1086" y="18" />
<rect fill="#DEE6F1" height="24" width="12" x="1074" y="18" />
<rect fill="none" height="24" stroke="#405C86" stroke-width="2" width="12" x="1074" y="18" />
<rect fill="#DEE6F1" height="24" width="12" x="1062" y="18" />
<rect fill="none" height="24" stroke="#405C86" stroke-width="2" width="12" x="1062" y="18" />
<rect fill="#DEE6F1" height="24" width="12" x="1050" y="18" />
<rect fill="none" height="24" stroke="#405C86" stroke-width="2" width="12" x="1050" y="18" />
<rect fill="#DEE6F1" height="24" width="12" x="1038" y="18" />
<rect fill="none" height="24" stroke="#405C86" stroke-width="2" width="12" x="1038" y="18" />
<rect fill="#DEE6F1" height="24" width="12" x="1026" y="18" />
<rect fill="none" height="24" stroke="#405C86" stroke-width="2" width="12" x="1026" y="18" />
<rect fill="#DEE6F1" height="24" width="12" x="1014" y="18" />
<rect fill="none" height="24" stroke="#405C86" stroke-width="2" width="12" x="1014" y="18" />
<rect fill="#DEE6F1" height="24" width="12" x="1002" y="18" />
<rect fill="none" height="24" stroke="#405C86" stroke-width="2" width="12" x="1002" y="18" />
<rect fill="#DEE6F1" height="24" width="12" x="990" y="18" />
<rect fill="none" height="24" stroke="#405C86" stroke-width="2" width="12" x="990" y="18" />
<rect fill="#DEE6F1" height="24" width="12" x="978" y="18" />
<rect fill="none" height="24" stroke="#405C86" stroke-width="2" width="12" x="978" y="18" />
<rect fill="#DEE6F1" height="24" width="12" x="966" y="18" />
<rect fill="none" height="24" stroke="#405C86" stroke-width="2" width="12" x="966" y="18" />
<rect fill="#DEE6F1" height="24" width="12" x="954" y="18" />
<rect fill="none" height="24" stroke="#405C86" stroke-width="2" width="12" x="954" y="18" />
<rect fill="#DEE6F1" height="24" width="12" x="942" y="18" />
<rect fill="none" height="24" stroke="#405C86" stroke-width="2" width="12" x="942" y="18" />
<rect fill="#DEE6F1" height="24" width="12" x="930" y="18" />
<rect fill="none" height="24" stroke="#405C86" stroke-width="2" width="12" x="930" y="18" />
<rect fill="#DEE6F1" height="24" width="12" x="918" y="18" />
<rect fill="none" height="24" stroke="#405C86" stroke-width="2" width="12" x="918" y="18" />
<rect fill="#DEE6F1" height="24" width="12" x="906" y="18" />
<rect fill="none" height="24" stroke="#405C86" stroke-width="2" width="12" x="906" y="18" />
<rect fill="#DEE6F1" height="24" width="12" x="894" y="18" />
<rect fill="none" height="24" stroke="#405C86" stroke-width="2" width="12" x="894" y="18" />
<rect fill="#DEE6F1" height="24" width="12" x="882" y="18" />
<rect fill="none" height="24" stroke="#405C86" stroke-width="2" width="12" x="882" y="18" />
<rect fill="#DEE6F1" height="24" width="12" x="870" y="18" />
<rect fill="none" height="24" stroke="#405C86" stroke-width="2" width="12" x="870" y="18" />
<rect fill="#DEE6F1" height="24" width="12" x="858" y="18" />
<rect fill="none" height="24" stroke="#405C86" stroke-width="2" width="12" x="858" y="18" />
<rect fill="#DEE6F1" height="24" width="12" x="846" y="18" />
<rect fill="none" height="24" stroke="#405C86" stroke-width="2" width="12" x="846" y="18" />
<rect fill="#DEE6F1" height="24" width="12" x="834" y="18" />
<rect fill="none" height="24" stroke="#405C86" stroke-width="2" width="12" x="834" y="18" />
<rect fill="#DEE6F1" height="24" width="12" x="822" y="18" />
<rect fill="none" height="24" stroke="#405C86" stroke-width="2" width="12" x="822" y="18" />
<rect fill="#DEE6F1" height="24" width="12" x="810" y="18" />
<rect fill="none" height="24" stroke="#405C86" stroke-width="2" width="12" x="810" y="18" />
<rect fill="#DEE6F1" height="24" width="12" x="798" y="18" />
<rect fill="none" height="24" stroke="#405C86" stroke-width="2" width="12" x="798" y="18" />
<rect fill="#DEE6F1" height="24" width="12" x="786" y="18" />
<rect fill="none" height="24" stroke="#405C86" stroke-width="2" width="12" x="786" y="18" />
<rect fill="#DEE6F1" height="24" width="12" x="774" y="18" />
<rect fill="none" height="24" stroke="#405C86" stroke-width="2" width="12" x="774" y="18" />
<rect fill="#DEE6F1" height="24" width="12" x="762" y="18" />
<rect fill="none" height="24" stroke="#405C86" stroke-width="2" width="12" x="762" y="18" />
<rect fill="#DEE6F1" height="24" width="12" x="750" y="18" />
<rect fill="none" height="24" stroke="#405C86" stroke-width="2" width="12" x="750" y="18" />
<rect fill="#DEE6F1" height="24" width="12" x="738" y="18" />
<rect fill="none" height="24" stroke="#405C86" stroke-width="2" width="12" x="738" y="18" />
<rect fill="#DEE6F1" height="24" width="12" x="726" y="18" />
<rect fill="none" height="24" stroke="#405C86" stroke-width="2" width="12" x="726" y="18" />
<rect fill="#DEE6F1" height="24" width="12" x="714" y="18" />
<rect fill="none" height="24" stroke="#405C86" stroke-width="2" width="12" x="714" y="18" />
<rect fill="#DEE6F1" height="24" width="12" x="702" y="18" />
<rect fill="none" height="24" stroke="#405C86" stroke-width="2" width="12" x="702" y="18" />
<rect fill="#DEE6F1" height="24" width="12" x="690" y="18" />
<rect fill="none" height="24" stroke="#405C86" stroke-width="2" width="12" x="690" y="18" />
<rect fill="#DEE6F1" height="24" width="12" x="678" y="18" />
<rect fill="none" height="24" stroke="#405C86" stroke-width="2" width="12" x="678" y="18" />
<rect fill="#DEE6F1" height="24" width="12" x="666" y="18" />
<rect fill="none" height="24" stroke="#405C86" stroke-width="2" width="12" x="666" y="18" />
<rect fill="#DEE6F1" height="24" width="12" x="654" y="18" />
<rect fill="none" height="24" stroke="#405C86" stroke-width="2" width="12" x="654" y="18" />
<rect fill="#DEE6F1" height="24" width="12" x="642" y="18" />
<rect fill="none" height="24" stroke="#405C86" stroke-width="2" width="12" x="642" y="18" />
<rect fill="#DEE6F1" height="24" width="12" x="630" y="18" />
<rect fill="none" height="24" stroke="#405C86" stroke-width="2" width="12" x="630" y="18" />
<rect fill="#DEE6F1" height="24" width="12" x="618" y="18" />
<rect fill="none" height="24" stroke="#405C86" stroke-width="2" width="12" x="618" y="18" />
<rect fill="#DEE6F1" height="24" width="12" x="606" y="18" />
<rect fill="none" height="24" stroke="#405C86" stroke-width="2" width="12" x="606" y="18" />
<rect fill="#DEE6F1" height="24" width="12" x="594" y="18" />
<rect fill="none" height="24" stroke="#405C86" stroke-width="2" width="12" x="594" y="18" />
<rect fill="#DEE6F1" height="24" width="12" x="582" y="18" />
<rect fill="none" height="24" stroke="#405C86" stroke-width="2" width="12" x="582" y="18" />
<rect fill="#DEE6F1" height="24" width="12" x="570" y="18" />
<rect fill="none" height="24" stroke="#405C86" stroke-width="2" width="12" x="570" y="18" />
<rect fill="#DEE6F1" height="24" width="12" x="558" y="18" />
<rect fill="none" height="24" stroke="#405C86" stroke-width="2" width="12" x="558" y="18" />
<rect fill="#DEE6F1" height="24" width="12" x="546" y="18" />
<rect fill="none" height="24" stroke="#405C86" stroke-width="2" width="12" x="546" y="18" />
<rect fill="#DEE6F1" height="24" width="12" x="534" y="18" />
<rect fill="none" height="24" stroke="#405C86" stroke-width="2" width="12" x="534" y="18" />
<rect fill="#DEE6F1" height="24" width="12" x="522" y="18" />
<rect fill="none" height="24" stroke="#405C86" stroke-width="2" width="12" x="522" y="18" />
<rect fill="#DEE6F1" height="24" width="12" x="510" y="18" />
<rect fill="none" height="24" stroke="#405C86" stroke-width="2" width="12" x="510" y="18" />
<rect fill="#DEE6F1" height="24" width="12" x="498" y="18" />
<rect fill="none" height="24" stroke="#405C86" stroke-width="2" width="12" x="498" y="18" />
<rect fill="#DEE6F1" height="24" width="12" x="486" y="18" />
<rect fill="none" height="24" stroke="#405C86" stroke-width="2" width="12" x="486" y="18" />
<rect fill="#DEE6F1" height="24" width="12" x="474" y="18" />
<rect fill="none" height="24" stroke="#405C86" stroke-width="2" width="12" x="474" y="18" />
<rect fill="#DEE6F1" height="24" width="12" x="462" y="18" />
<rect fill="none" height="24" stroke="#405C86" stroke-width="2" width="12" x="462" y="18" />
<rect fill="#DEE6F1" height="24" width="12" x="450" y="18" />
<rect fill="none" height="24" stroke="#405C86" stroke-width="2" width="12" x="450" y="18" />
<rect fill="#DEE6F1" height="24" width="12" x="438" y="18" />
<rect fill="none" height="24" stroke="#405C86" stroke-width="2" width="12" x="438" y="18" />
<rect fill="#DEE6F1" height="24" width="12" x="426" y="18" />
<rect fill="none" height="24" stroke="#405C86" stroke-width="2" width="12" x="426" y="18" />
<rect fill="#DEE6F1" height="24" width="12" x="414" y="18" />
<rect fill="none" height="24" stroke="#405C86" stroke-width="2" width="12" x="414" y="18" />
<rect fill="#DEE6F1" height="24" width="12" x="402" y="18" />
<rect fill="none" height="24" stroke="#405C86" stroke-width="2" width="12" x="402" y="18" />
<rect fill="#DEE6F1" height="24" width="12" x="390" y="18" />
<rect fill="none" height="24" stroke="#405C86" stroke-width="2" width="12" x="390" y="18" />
<rect fill="#DEE6F1" height="24" width="12" x="378" y="18" />
<rect fill="none" height="24" stroke="#405C86" stroke-width="2" width="12" x="378" y="18" />
<rect fill="#DEE6F1" height="24" width="12" x="366" y="18" />
<rect fill="none" height="24" stroke="#405C86" stroke-width="2" width="12" x="366" y="18" />
<rect fill="#DEE6F1" height="24" width="12" x="354" y="18" />
<rect fill="none" height="24" stroke="#405C86" stroke-width="2" width="12" x="354" y="18" />
<rect fill="#DEE6F1" height="24" width="12" x="342" y="18" />
<rect fill="none" height="24" stroke="#405C86" stroke-width="2" width="12" x="342" y="18" />
<rect fill="#DEE6F1" height="24" width="12" x="330" y="18" />
<rect fill="none" height="24" stroke="#405C86" stroke-width="2" width="12" x="330" y="18" />
<rect fill="#DEE6F1" height="24" width="12" x="318" y="18" />
<rect fill="none" height="24" stroke="#405C86" stroke-width="2" width="12" x="318" y="18" />
<rect fill="#DEE6F1" height="24" width="12" x="306" y="18" />
<rect fill="none" height="24" stroke="#405C86" stroke-width="2" width="12" x="306" y="18" />
<rect fill="#DEE6F1" height="24" width="12" x="294" y="18" />
<rect fill="none" height="24" stroke="#405C86" stroke-width="2" width="12" x="294" y="18" />
<rect fill="#DEE6F1" height="24" width="12" x="282" y="18" />
<rect fill="none" height="24" stroke="#405C86" stroke-width="2" width="12" x="282" y="18" />
<rect fill="#DEE6F1" height="24" width="12" x="270" y="18" />
<rect fill="none" height="24" stroke="#405C86" stroke-width="2" width="12" x="270" y="18" />
<rect fill="#DEE6F1" height="24" width="12" x="258" y="18" />
<rect fill="none" height="24" stroke="#405C86" stroke-width="2" width="12" x="258" y="18" />
<rect fill="#DEE6F1" height="24" width="12" x="246" y="18" />
<rect fill="none" height="24" stroke="#405C86" stroke-width="2" width="12" x="246" y="18" />
<rect fill="#DEE6F1" height="24" width="12" x="234" y="18" />
<rect fill="none" height="24" stroke="#405C86" stroke-width="2" width="12" x="234" y="18" />
<rect fill="#DEE6F1" height="24" width="12" x="222" y="18" />
<rect fill="none" height="24" stroke="#405C86" stroke-width="2" width="12" x="222" y="18" />
<rect fill="#DEE6F1" height="24" width="12" x="210" y="18" />
<rect fill="none" height="24" stroke="#405C86" stroke-width="2" width="12" x="210" y="18" />
<rect fill="#DEE6F1" height="24" width="12" x="198" y="18" />
<rect fill="none" height="24" stroke="#405C86" stroke-width="2" width="12" x="198" y="18" />
<rect fill="#DEE6F1" height="24" width="12" x="186" y="18" />
<rect fill="none" height="24" stroke="#405C86" stroke-width="2" width="12" x="186" y="18" />
<rect fill="#DEE6F1" height="24" width="12" x="174" y="18" />
<rect fill="none" height="24" stroke="#405C86" stroke-width="2" width="12" x="174" y="18" />
<rect fill="#DEE6F1" height="24" width="12" x="162" y="18" />
<rect fill="none" height="24" stroke="#405C86" stroke-width="2" width="12" x="162" y="18" />
<rect fill="#DEE6F1" height="24" width="12" x="150" y="18" />
<rect fill="none" height="24" stroke="#405C86" stroke-width="2" width="12" x="150" y="18" />
<rect fill="#DEE6F1" height="24" width="12" x="138" y="18" />
<rect fill="none" height="24" stroke="#405C86" stroke-width="2" width="12" x="138" y="18" />
<rect fill="#DEE6F1" height="24" width="12" x="126" y="18" />
<rect fill="none" height="24" stroke="#405C86" stroke-width="2" width="12" x="126" y="18" />
<rect fill="#DEE6F1" height="24" width="12" x="114" y="18" />
<rect fill="none" height="24" stroke="#405C86" stroke-width="2" width="12" x="114" y="18" />
<rect fill="#DEE6F1" height="24" width="12" x="102" y="18" />
<rect fill="none" height="24" stroke="#405C86" stroke-width="2" width="12" x="102" y="18" />
<rect fill="#DEE6F1" height="24" width="12" x="90" y="18" />
<rect fill="none" height="24" stroke="#405C86" stroke-width="2" width="12" x="90" y="18" />
<text class="register-name" x="80" y="30">Pm</text>
<text class="intrinsic-name" x="80" y="42">pg</text>
<text class="register-number" x="10" y="30">(1)</text>
<rect fill="#DEE6F1" height="24" width="96" x="1530" y="90" />
<rect fill="none" height="24" stroke="#405C86" stroke-width="2" width="96" x="1530" y="90" />
<rect fill="none" height="24" stroke="#405C86" stroke-dasharray="3 1" stroke-dashoffset="1.5" stroke-width="1" width="96" x="1434" y="90" />
<text class="label unused" x="1482" y="103"></text>
<text class="register-name" x="80" y="102">Wdn</text>
<text class="intrinsic-name" x="80" y="114">op</text>
<text class="register-number" x="10" y="102">(2)</text>
<rect fill="#DEE6F1" height="24" width="96" x="1530" y="162" />
<rect fill="none" height="24" stroke="#405C86" stroke-width="2" width="96" x="1530" y="162" />
<rect fill="none" height="24" stroke="#405C86" stroke-dasharray="3 1" stroke-dashoffset="1.5" stroke-width="1" width="96" x="1434" y="162" />
<text class="label unused" x="1482" y="175">zero fill</text>
<text class="register-name" x="80" y="174">Wdn</text>
<text class="intrinsic-name" x="80" y="186">returns</text>
<text class="register-number" x="10" y="174">(3)</text>
<line marker-end="url(#arrowhead)" stroke="none" x1="1578" x2="1578" y1="114.5" y2="161" />
</svg>