<svg xmlns="http://www.w3.org/2000/svg" viewBox="0 0 486 123">
<style>
.label { font: 14px Helvetica; dominant-baseline: middle; text-anchor: middle; }
.title-left { font: 12px Helvetica; dominant-baseline: middle; }
.title-right { font: 12px Helvetica; dominant-baseline: middle; text-anchor: end; }
.title-intrinsic { font: 12px Helvetica; dominant-baseline: middle; text-anchor: middle; fill: #6778ED; }
.title { font: 12px Helvetica; dominant-baseline: middle; text-anchor: middle; }
.title-unused { font: 12px Helvetica; dominant-baseline: middle; text-anchor: middle; fill: #AAA; }
.register-name { font: 14px Helvetica; dominant-baseline: middle; text-anchor: end; font-style: italic; }
.memory-name { font: 14px Helvetica; dominant-baseline: middle; text-anchor: end; }
.register-number { font: 14px Helvetica; dominant-baseline: middle; text-anchor: start; }
.intrinsic-name { font: 14px Helvetica; dominant-baseline: middle; text-anchor: end; fill: #6778ED; }
.intrinsic-color { fill: #6778ED; }
.small-label { font: 12px Helvetica; dominant-baseline: middle; text-anchor: middle; }
.label-10px { font: 10px Helvetica; dominant-baseline: middle; text-anchor: middle; }
.smaller-label { font: 9px Helvetica; dominant-baseline: middle; text-anchor: middle; }
.label-6px { font: 6px Helvetica; dominant-baseline: middle; text-anchor: middle; }
.label-7px { font: 7px Helvetica; dominant-baseline: middle; text-anchor: middle; }
.unused { fill: #AAA; }
.dim { fill: #888; }
</style>
<defs>
<marker id="arrowhead" markerWidth="10.75" markerHeight="24.5" refX="9.0" refY="6.125" orient="auto">
<polyline points="0.5 0.5, 8.75 6.125, 0.5 11.75" stroke="#567DB6" stroke-width="1" fill="none"/>
</marker>
</defs>
<line stroke="#567DB6" stroke-width="1" x1="441.375" x2="426" y1="42.5" y2="89" />
<line stroke="#567DB6" stroke-width="1" x1="474" x2="458.625" y1="42.5" y2="89" />
<line stroke="#567DB6" stroke-width="1" x1="393.375" x2="378" y1="42.5" y2="89" />
<line stroke="#567DB6" stroke-width="1" x1="426" x2="410.625" y1="42.5" y2="89" />
<line stroke="#567DB6" stroke-width="1" x1="345.375" x2="330" y1="42.5" y2="89" />
<line stroke="#567DB6" stroke-width="1" x1="378" x2="362.625" y1="42.5" y2="89" />
<line stroke="#567DB6" stroke-width="1" x1="297.375" x2="282" y1="42.5" y2="89" />
<line stroke="#567DB6" stroke-width="1" x1="330" x2="314.625" y1="42.5" y2="89" />
<line stroke="#567DB6" stroke-width="1" x1="249.375" x2="234" y1="42.5" y2="89" />
<line stroke="#567DB6" stroke-width="1" x1="282" x2="266.625" y1="42.5" y2="89" />
<line stroke="#567DB6" stroke-width="1" x1="201.375" x2="186" y1="42.5" y2="89" />
<line stroke="#567DB6" stroke-width="1" x1="234" x2="218.625" y1="42.5" y2="89" />
<line stroke="#567DB6" stroke-width="1" x1="153.375" x2="138" y1="42.5" y2="89" />
<line stroke="#567DB6" stroke-width="1" x1="186" x2="170.625" y1="42.5" y2="89" />
<line stroke="#567DB6" stroke-width="1" x1="105.375" x2="90" y1="42.5" y2="89" />
<line stroke="#567DB6" stroke-width="1" x1="138" x2="122.625" y1="42.5" y2="89" />
<text class="title-left" x="90" y="9">upper</text>
<text class="title-right" x="474" y="9">lower</text>
<rect fill="#DEE6F1" height="24" width="48" x="426" y="18" />
<rect fill="#DEE6F1" height="24" width="32.625" x="441.375" y="18" />
<rect fill="none" height="24" stroke="#405C86" stroke-width="2" width="48" x="426" y="18" />
<rect fill="#DEE6F1" height="24" width="48" x="378" y="18" />
<rect fill="#DEE6F1" height="24" width="32.625" x="393.375" y="18" />
<rect fill="none" height="24" stroke="#405C86" stroke-width="2" width="48" x="378" y="18" />
<rect fill="#DEE6F1" height="24" width="48" x="330" y="18" />
<rect fill="#DEE6F1" height="24" width="32.625" x="345.375" y="18" />
<rect fill="none" height="24" stroke="#405C86" stroke-width="2" width="48" x="330" y="18" />
<rect fill="#DEE6F1" height="24" width="48" x="282" y="18" />
<rect fill="#DEE6F1" height="24" width="32.625" x="297.375" y="18" />
<rect fill="none" height="24" stroke="#405C86" stroke-width="2" width="48" x="282" y="18" />
<rect fill="#DEE6F1" height="24" width="48" x="234" y="18" />
<rect fill="#DEE6F1" height="24" width="32.625" x="249.375" y="18" />
<rect fill="none" height="24" stroke="#405C86" stroke-width="2" width="48" x="234" y="18" />
<rect fill="#DEE6F1" height="24" width="48" x="186" y="18" />
<rect fill="#DEE6F1" height="24" width="32.625" x="201.375" y="18" />
<rect fill="none" height="24" stroke="#405C86" stroke-width="2" width="48" x="186" y="18" />
<rect fill="#DEE6F1" height="24" width="48" x="138" y="18" />
<rect fill="#DEE6F1" height="24" width="32.625" x="153.375" y="18" />
<rect fill="none" height="24" stroke="#405C86" stroke-width="2" width="48" x="138" y="18" />
<rect fill="#DEE6F1" height="24" width="48" x="90" y="18" />
<rect fill="#DEE6F1" height="24" width="32.625" x="105.375" y="18" />
<rect fill="none" height="24" stroke="#405C86" stroke-width="2" width="48" x="90" y="18" />
<text class="register-name" x="80" y="30">Zdn</text>
<text class="intrinsic-name" x="80" y="42">op1</text>
<text class="register-number" x="10" y="30">(1)</text>
<rect fill="#DEE6F1" height="24" width="48" x="426" y="90" />
<rect fill="#DEE6F1" height="24" width="32.625" x="426" y="90" />
<rect fill="none" height="24" stroke="#405C86" stroke-width="2" width="48" x="426" y="90" />
<rect fill="#DEE6F1" height="24" width="48" x="378" y="90" />
<rect fill="#DEE6F1" height="24" width="32.625" x="378" y="90" />
<rect fill="none" height="24" stroke="#405C86" stroke-width="2" width="48" x="378" y="90" />
<rect fill="#DEE6F1" height="24" width="48" x="330" y="90" />
<rect fill="#DEE6F1" height="24" width="32.625" x="330" y="90" />
<rect fill="none" height="24" stroke="#405C86" stroke-width="2" width="48" x="330" y="90" />
<rect fill="#DEE6F1" height="24" width="48" x="282" y="90" />
<rect fill="#DEE6F1" height="24" width="32.625" x="282" y="90" />
<rect fill="none" height="24" stroke="#405C86" stroke-width="2" width="48" x="282" y="90" />
<rect fill="#DEE6F1" height="24" width="48" x="234" y="90" />
<rect fill="#DEE6F1" height="24" width="32.625" x="234" y="90" />
<rect fill="none" height="24" stroke="#405C86" stroke-width="2" width="48" x="234" y="90" />
<rect fill="#DEE6F1" height="24" width="48" x="186" y="90" />
<rect fill="#DEE6F1" height="24" width="32.625" x="186" y="90" />
<rect fill="none" height="24" stroke="#405C86" stroke-width="2" width="48" x="186" y="90" />
<rect fill="#DEE6F1" height="24" width="48" x="138" y="90" />
<rect fill="#DEE6F1" height="24" width="32.625" x="138" y="90" />
<rect fill="none" height="24" stroke="#405C86" stroke-width="2" width="48" x="138" y="90" />
<rect fill="#DEE6F1" height="24" width="48" x="90" y="90" />
<rect fill="#DEE6F1" height="24" width="32.625" x="90" y="90" />
<rect fill="none" height="24" stroke="#405C86" stroke-width="2" width="48" x="90" y="90" />
<text class="register-name" x="80" y="102">Zdn</text>
<text class="intrinsic-name" x="80" y="114">returns</text>
<text class="register-number" x="10" y="102">(2)</text>
<line marker-end="url(#arrowhead)" stroke="none" x1="441.375" x2="426" y1="42.5" y2="89" />
<line marker-end="url(#arrowhead)" stroke="none" x1="474" x2="458.625" y1="42.5" y2="89" />
<line marker-end="url(#arrowhead)" stroke="none" x1="393.375" x2="378" y1="42.5" y2="89" />
<line marker-end="url(#arrowhead)" stroke="none" x1="426" x2="410.625" y1="42.5" y2="89" />
<line marker-end="url(#arrowhead)" stroke="none" x1="345.375" x2="330" y1="42.5" y2="89" />
<line marker-end="url(#arrowhead)" stroke="none" x1="378" x2="362.625" y1="42.5" y2="89" />
<line marker-end="url(#arrowhead)" stroke="none" x1="297.375" x2="282" y1="42.5" y2="89" />
<line marker-end="url(#arrowhead)" stroke="none" x1="330" x2="314.625" y1="42.5" y2="89" />
<line marker-end="url(#arrowhead)" stroke="none" x1="249.375" x2="234" y1="42.5" y2="89" />
<line marker-end="url(#arrowhead)" stroke="none" x1="282" x2="266.625" y1="42.5" y2="89" />
<line marker-end="url(#arrowhead)" stroke="none" x1="201.375" x2="186" y1="42.5" y2="89" />
<line marker-end="url(#arrowhead)" stroke="none" x1="234" x2="218.625" y1="42.5" y2="89" />
<line marker-end="url(#arrowhead)" stroke="none" x1="153.375" x2="138" y1="42.5" y2="89" />
<line marker-end="url(#arrowhead)" stroke="none" x1="186" x2="170.625" y1="42.5" y2="89" />
<line marker-end="url(#arrowhead)" stroke="none" x1="105.375" x2="90" y1="42.5" y2="89" />
<line marker-end="url(#arrowhead)" stroke="none" x1="138" x2="122.625" y1="42.5" y2="89" />
</svg>