<svg xmlns="http://www.w3.org/2000/svg" viewBox="0 0 3174 171">
<style>
.label { font: 14px Helvetica; dominant-baseline: middle; text-anchor: middle; }
.title-left { font: 12px Helvetica; dominant-baseline: middle; }
.title-right { font: 12px Helvetica; dominant-baseline: middle; text-anchor: end; }
.title-intrinsic { font: 12px Helvetica; dominant-baseline: middle; text-anchor: middle; fill: #6778ED; }
.title { font: 12px Helvetica; dominant-baseline: middle; text-anchor: middle; }
.title-unused { font: 12px Helvetica; dominant-baseline: middle; text-anchor: middle; fill: #AAA; }
.register-name { font: 14px Helvetica; dominant-baseline: middle; text-anchor: end; font-style: italic; }
.memory-name { font: 14px Helvetica; dominant-baseline: middle; text-anchor: end; }
.register-number { font: 14px Helvetica; dominant-baseline: middle; text-anchor: start; }
.intrinsic-name { font: 14px Helvetica; dominant-baseline: middle; text-anchor: end; fill: #6778ED; }
.intrinsic-color { fill: #6778ED; }
.small-label { font: 12px Helvetica; dominant-baseline: middle; text-anchor: middle; }
.label-10px { font: 10px Helvetica; dominant-baseline: middle; text-anchor: middle; }
.smaller-label { font: 9px Helvetica; dominant-baseline: middle; text-anchor: middle; }
.label-6px { font: 6px Helvetica; dominant-baseline: middle; text-anchor: middle; }
.label-7px { font: 7px Helvetica; dominant-baseline: middle; text-anchor: middle; }
.unused { fill: #AAA; }
.dim { fill: #888; }
</style>
<defs>
<marker id="arrowhead" markerWidth="10.75" markerHeight="24.5" refX="9.0" refY="6.125" orient="auto">
<polyline points="0.5 0.5, 8.75 6.125, 0.5 11.75" stroke="#567DB6" stroke-width="1" fill="none"/>
</marker>
</defs>
<text class="title-left" x="90" y="9">upper</text>
<text class="title-right" x="3162" y="9">lower</text>
<rect fill="#DEE6F1" height="24" width="71.5" x="3066" y="18" />
<rect fill="none" height="24" stroke="#405C86" stroke-width="2" width="96" x="3066" y="18" />
<rect fill="#DEE6F1" height="24" width="71.5" x="2970" y="18" />
<rect fill="none" height="24" stroke="#405C86" stroke-width="2" width="96" x="2970" y="18" />
<rect fill="#DEE6F1" height="24" width="71.5" x="2874" y="18" />
<rect fill="none" height="24" stroke="#405C86" stroke-width="2" width="96" x="2874" y="18" />
<rect fill="#DEE6F1" height="24" width="71.5" x="2778" y="18" />
<rect fill="none" height="24" stroke="#405C86" stroke-width="2" width="96" x="2778" y="18" />
<rect fill="#DEE6F1" height="24" width="71.5" x="2682" y="18" />
<rect fill="none" height="24" stroke="#405C86" stroke-width="2" width="96" x="2682" y="18" />
<rect fill="#DEE6F1" height="24" width="71.5" x="2586" y="18" />
<rect fill="none" height="24" stroke="#405C86" stroke-width="2" width="96" x="2586" y="18" />
<rect fill="#DEE6F1" height="24" width="71.5" x="2490" y="18" />
<rect fill="none" height="24" stroke="#405C86" stroke-width="2" width="96" x="2490" y="18" />
<rect fill="#DEE6F1" height="24" width="71.5" x="2394" y="18" />
<rect fill="none" height="24" stroke="#405C86" stroke-width="2" width="96" x="2394" y="18" />
<rect fill="#DEE6F1" height="24" width="71.5" x="2298" y="18" />
<rect fill="none" height="24" stroke="#405C86" stroke-width="2" width="96" x="2298" y="18" />
<rect fill="#DEE6F1" height="24" width="71.5" x="2202" y="18" />
<rect fill="none" height="24" stroke="#405C86" stroke-width="2" width="96" x="2202" y="18" />
<rect fill="#DEE6F1" height="24" width="71.5" x="2106" y="18" />
<rect fill="none" height="24" stroke="#405C86" stroke-width="2" width="96" x="2106" y="18" />
<rect fill="#DEE6F1" height="24" width="71.5" x="2010" y="18" />
<rect fill="none" height="24" stroke="#405C86" stroke-width="2" width="96" x="2010" y="18" />
<rect fill="#DEE6F1" height="24" width="71.5" x="1914" y="18" />
<rect fill="none" height="24" stroke="#405C86" stroke-width="2" width="96" x="1914" y="18" />
<rect fill="#DEE6F1" height="24" width="71.5" x="1818" y="18" />
<rect fill="none" height="24" stroke="#405C86" stroke-width="2" width="96" x="1818" y="18" />
<rect fill="#DEE6F1" height="24" width="71.5" x="1722" y="18" />
<rect fill="none" height="24" stroke="#405C86" stroke-width="2" width="96" x="1722" y="18" />
<rect fill="#DEE6F1" height="24" width="71.5" x="1626" y="18" />
<rect fill="none" height="24" stroke="#405C86" stroke-width="2" width="96" x="1626" y="18" />
<rect fill="#DEE6F1" height="24" width="71.5" x="1530" y="18" />
<rect fill="none" height="24" stroke="#405C86" stroke-width="2" width="96" x="1530" y="18" />
<rect fill="#DEE6F1" height="24" width="71.5" x="1434" y="18" />
<rect fill="none" height="24" stroke="#405C86" stroke-width="2" width="96" x="1434" y="18" />
<rect fill="#DEE6F1" height="24" width="71.5" x="1338" y="18" />
<rect fill="none" height="24" stroke="#405C86" stroke-width="2" width="96" x="1338" y="18" />
<rect fill="#DEE6F1" height="24" width="71.5" x="1242" y="18" />
<rect fill="none" height="24" stroke="#405C86" stroke-width="2" width="96" x="1242" y="18" />
<rect fill="#DEE6F1" height="24" width="71.5" x="1146" y="18" />
<rect fill="none" height="24" stroke="#405C86" stroke-width="2" width="96" x="1146" y="18" />
<rect fill="#DEE6F1" height="24" width="71.5" x="1050" y="18" />
<rect fill="none" height="24" stroke="#405C86" stroke-width="2" width="96" x="1050" y="18" />
<rect fill="#DEE6F1" height="24" width="71.5" x="954" y="18" />
<rect fill="none" height="24" stroke="#405C86" stroke-width="2" width="96" x="954" y="18" />
<rect fill="#DEE6F1" height="24" width="71.5" x="858" y="18" />
<rect fill="none" height="24" stroke="#405C86" stroke-width="2" width="96" x="858" y="18" />
<rect fill="#DEE6F1" height="24" width="71.5" x="762" y="18" />
<rect fill="none" height="24" stroke="#405C86" stroke-width="2" width="96" x="762" y="18" />
<rect fill="#DEE6F1" height="24" width="71.5" x="666" y="18" />
<rect fill="none" height="24" stroke="#405C86" stroke-width="2" width="96" x="666" y="18" />
<rect fill="#DEE6F1" height="24" width="71.5" x="570" y="18" />
<rect fill="none" height="24" stroke="#405C86" stroke-width="2" width="96" x="570" y="18" />
<rect fill="#DEE6F1" height="24" width="71.5" x="474" y="18" />
<rect fill="none" height="24" stroke="#405C86" stroke-width="2" width="96" x="474" y="18" />
<rect fill="#DEE6F1" height="24" width="71.5" x="378" y="18" />
<rect fill="none" height="24" stroke="#405C86" stroke-width="2" width="96" x="378" y="18" />
<rect fill="#DEE6F1" height="24" width="71.5" x="282" y="18" />
<rect fill="none" height="24" stroke="#405C86" stroke-width="2" width="96" x="282" y="18" />
<rect fill="#DEE6F1" height="24" width="71.5" x="186" y="18" />
<rect fill="none" height="24" stroke="#405C86" stroke-width="2" width="96" x="186" y="18" />
<rect fill="#DEE6F1" height="24" width="71.5" x="90" y="18" />
<rect fill="none" height="24" stroke="#405C86" stroke-width="2" width="96" x="90" y="18" />
<text class="register-name" x="80" y="30">Zn</text>
<text class="intrinsic-name" x="80" y="42">op1</text>
<text class="register-number" x="10" y="30">(1)</text>
<rect fill="#DEE6F1" height="24" width="48" x="3114" y="66" />
<rect fill="none" height="24" stroke="#405C86" stroke-width="2" width="48" x="3114" y="66" />
<rect fill="none" height="24" stroke="#405C86" stroke-dasharray="3 1" stroke-dashoffset="1.5" stroke-width="1" width="48" x="3066" y="66" />
<text class="label unused" x="3090" y="79"></text>
<rect fill="#DEE6F1" height="24" width="48" x="3018" y="66" />
<rect fill="none" height="24" stroke="#405C86" stroke-width="2" width="48" x="3018" y="66" />
<rect fill="none" height="24" stroke="#405C86" stroke-dasharray="3 1" stroke-dashoffset="1.5" stroke-width="1" width="48" x="2970" y="66" />
<text class="label unused" x="2994" y="79"></text>
<rect fill="#DEE6F1" height="24" width="48" x="2922" y="66" />
<rect fill="none" height="24" stroke="#405C86" stroke-width="2" width="48" x="2922" y="66" />
<rect fill="none" height="24" stroke="#405C86" stroke-dasharray="3 1" stroke-dashoffset="1.5" stroke-width="1" width="48" x="2874" y="66" />
<text class="label unused" x="2898" y="79"></text>
<rect fill="#DEE6F1" height="24" width="48" x="2826" y="66" />
<rect fill="none" height="24" stroke="#405C86" stroke-width="2" width="48" x="2826" y="66" />
<rect fill="none" height="24" stroke="#405C86" stroke-dasharray="3 1" stroke-dashoffset="1.5" stroke-width="1" width="48" x="2778" y="66" />
<text class="label unused" x="2802" y="79"></text>
<rect fill="#DEE6F1" height="24" width="48" x="2730" y="66" />
<rect fill="none" height="24" stroke="#405C86" stroke-width="2" width="48" x="2730" y="66" />
<rect fill="none" height="24" stroke="#405C86" stroke-dasharray="3 1" stroke-dashoffset="1.5" stroke-width="1" width="48" x="2682" y="66" />
<text class="label unused" x="2706" y="79"></text>
<rect fill="#DEE6F1" height="24" width="48" x="2634" y="66" />
<rect fill="none" height="24" stroke="#405C86" stroke-width="2" width="48" x="2634" y="66" />
<rect fill="none" height="24" stroke="#405C86" stroke-dasharray="3 1" stroke-dashoffset="1.5" stroke-width="1" width="48" x="2586" y="66" />
<text class="label unused" x="2610" y="79"></text>
<rect fill="#DEE6F1" height="24" width="48" x="2538" y="66" />
<rect fill="none" height="24" stroke="#405C86" stroke-width="2" width="48" x="2538" y="66" />
<rect fill="none" height="24" stroke="#405C86" stroke-dasharray="3 1" stroke-dashoffset="1.5" stroke-width="1" width="48" x="2490" y="66" />
<text class="label unused" x="2514" y="79"></text>
<rect fill="#DEE6F1" height="24" width="48" x="2442" y="66" />
<rect fill="none" height="24" stroke="#405C86" stroke-width="2" width="48" x="2442" y="66" />
<rect fill="none" height="24" stroke="#405C86" stroke-dasharray="3 1" stroke-dashoffset="1.5" stroke-width="1" width="48" x="2394" y="66" />
<text class="label unused" x="2418" y="79"></text>
<rect fill="#DEE6F1" height="24" width="48" x="2346" y="66" />
<rect fill="none" height="24" stroke="#405C86" stroke-width="2" width="48" x="2346" y="66" />
<rect fill="none" height="24" stroke="#405C86" stroke-dasharray="3 1" stroke-dashoffset="1.5" stroke-width="1" width="48" x="2298" y="66" />
<text class="label unused" x="2322" y="79"></text>
<rect fill="#DEE6F1" height="24" width="48" x="2250" y="66" />
<rect fill="none" height="24" stroke="#405C86" stroke-width="2" width="48" x="2250" y="66" />
<rect fill="none" height="24" stroke="#405C86" stroke-dasharray="3 1" stroke-dashoffset="1.5" stroke-width="1" width="48" x="2202" y="66" />
<text class="label unused" x="2226" y="79"></text>
<rect fill="#DEE6F1" height="24" width="48" x="2154" y="66" />
<rect fill="none" height="24" stroke="#405C86" stroke-width="2" width="48" x="2154" y="66" />
<rect fill="none" height="24" stroke="#405C86" stroke-dasharray="3 1" stroke-dashoffset="1.5" stroke-width="1" width="48" x="2106" y="66" />
<text class="label unused" x="2130" y="79"></text>
<rect fill="#DEE6F1" height="24" width="48" x="2058" y="66" />
<rect fill="none" height="24" stroke="#405C86" stroke-width="2" width="48" x="2058" y="66" />
<rect fill="none" height="24" stroke="#405C86" stroke-dasharray="3 1" stroke-dashoffset="1.5" stroke-width="1" width="48" x="2010" y="66" />
<text class="label unused" x="2034" y="79"></text>
<rect fill="#DEE6F1" height="24" width="48" x="1962" y="66" />
<rect fill="none" height="24" stroke="#405C86" stroke-width="2" width="48" x="1962" y="66" />
<rect fill="none" height="24" stroke="#405C86" stroke-dasharray="3 1" stroke-dashoffset="1.5" stroke-width="1" width="48" x="1914" y="66" />
<text class="label unused" x="1938" y="79"></text>
<rect fill="#DEE6F1" height="24" width="48" x="1866" y="66" />
<rect fill="none" height="24" stroke="#405C86" stroke-width="2" width="48" x="1866" y="66" />
<rect fill="none" height="24" stroke="#405C86" stroke-dasharray="3 1" stroke-dashoffset="1.5" stroke-width="1" width="48" x="1818" y="66" />
<text class="label unused" x="1842" y="79"></text>
<rect fill="#DEE6F1" height="24" width="48" x="1770" y="66" />
<rect fill="none" height="24" stroke="#405C86" stroke-width="2" width="48" x="1770" y="66" />
<rect fill="none" height="24" stroke="#405C86" stroke-dasharray="3 1" stroke-dashoffset="1.5" stroke-width="1" width="48" x="1722" y="66" />
<text class="label unused" x="1746" y="79"></text>
<rect fill="#DEE6F1" height="24" width="48" x="1674" y="66" />
<rect fill="none" height="24" stroke="#405C86" stroke-width="2" width="48" x="1674" y="66" />
<rect fill="none" height="24" stroke="#405C86" stroke-dasharray="3 1" stroke-dashoffset="1.5" stroke-width="1" width="48" x="1626" y="66" />
<text class="label unused" x="1650" y="79"></text>
<rect fill="#DEE6F1" height="24" width="48" x="1578" y="66" />
<rect fill="none" height="24" stroke="#405C86" stroke-width="2" width="48" x="1578" y="66" />
<rect fill="none" height="24" stroke="#405C86" stroke-dasharray="3 1" stroke-dashoffset="1.5" stroke-width="1" width="48" x="1530" y="66" />
<text class="label unused" x="1554" y="79"></text>
<rect fill="#DEE6F1" height="24" width="48" x="1482" y="66" />
<rect fill="none" height="24" stroke="#405C86" stroke-width="2" width="48" x="1482" y="66" />
<rect fill="none" height="24" stroke="#405C86" stroke-dasharray="3 1" stroke-dashoffset="1.5" stroke-width="1" width="48" x="1434" y="66" />
<text class="label unused" x="1458" y="79"></text>
<rect fill="#DEE6F1" height="24" width="48" x="1386" y="66" />
<rect fill="none" height="24" stroke="#405C86" stroke-width="2" width="48" x="1386" y="66" />
<rect fill="none" height="24" stroke="#405C86" stroke-dasharray="3 1" stroke-dashoffset="1.5" stroke-width="1" width="48" x="1338" y="66" />
<text class="label unused" x="1362" y="79"></text>
<rect fill="#DEE6F1" height="24" width="48" x="1290" y="66" />
<rect fill="none" height="24" stroke="#405C86" stroke-width="2" width="48" x="1290" y="66" />
<rect fill="none" height="24" stroke="#405C86" stroke-dasharray="3 1" stroke-dashoffset="1.5" stroke-width="1" width="48" x="1242" y="66" />
<text class="label unused" x="1266" y="79"></text>
<rect fill="#DEE6F1" height="24" width="48" x="1194" y="66" />
<rect fill="none" height="24" stroke="#405C86" stroke-width="2" width="48" x="1194" y="66" />
<rect fill="none" height="24" stroke="#405C86" stroke-dasharray="3 1" stroke-dashoffset="1.5" stroke-width="1" width="48" x="1146" y="66" />
<text class="label unused" x="1170" y="79"></text>
<rect fill="#DEE6F1" height="24" width="48" x="1098" y="66" />
<rect fill="none" height="24" stroke="#405C86" stroke-width="2" width="48" x="1098" y="66" />
<rect fill="none" height="24" stroke="#405C86" stroke-dasharray="3 1" stroke-dashoffset="1.5" stroke-width="1" width="48" x="1050" y="66" />
<text class="label unused" x="1074" y="79"></text>
<rect fill="#DEE6F1" height="24" width="48" x="1002" y="66" />
<rect fill="none" height="24" stroke="#405C86" stroke-width="2" width="48" x="1002" y="66" />
<rect fill="none" height="24" stroke="#405C86" stroke-dasharray="3 1" stroke-dashoffset="1.5" stroke-width="1" width="48" x="954" y="66" />
<text class="label unused" x="978" y="79"></text>
<rect fill="#DEE6F1" height="24" width="48" x="906" y="66" />
<rect fill="none" height="24" stroke="#405C86" stroke-width="2" width="48" x="906" y="66" />
<rect fill="none" height="24" stroke="#405C86" stroke-dasharray="3 1" stroke-dashoffset="1.5" stroke-width="1" width="48" x="858" y="66" />
<text class="label unused" x="882" y="79"></text>
<rect fill="#DEE6F1" height="24" width="48" x="810" y="66" />
<rect fill="none" height="24" stroke="#405C86" stroke-width="2" width="48" x="810" y="66" />
<rect fill="none" height="24" stroke="#405C86" stroke-dasharray="3 1" stroke-dashoffset="1.5" stroke-width="1" width="48" x="762" y="66" />
<text class="label unused" x="786" y="79"></text>
<rect fill="#DEE6F1" height="24" width="48" x="714" y="66" />
<rect fill="none" height="24" stroke="#405C86" stroke-width="2" width="48" x="714" y="66" />
<rect fill="none" height="24" stroke="#405C86" stroke-dasharray="3 1" stroke-dashoffset="1.5" stroke-width="1" width="48" x="666" y="66" />
<text class="label unused" x="690" y="79"></text>
<rect fill="#DEE6F1" height="24" width="48" x="618" y="66" />
<rect fill="none" height="24" stroke="#405C86" stroke-width="2" width="48" x="618" y="66" />
<rect fill="none" height="24" stroke="#405C86" stroke-dasharray="3 1" stroke-dashoffset="1.5" stroke-width="1" width="48" x="570" y="66" />
<text class="label unused" x="594" y="79"></text>
<rect fill="#DEE6F1" height="24" width="48" x="522" y="66" />
<rect fill="none" height="24" stroke="#405C86" stroke-width="2" width="48" x="522" y="66" />
<rect fill="none" height="24" stroke="#405C86" stroke-dasharray="3 1" stroke-dashoffset="1.5" stroke-width="1" width="48" x="474" y="66" />
<text class="label unused" x="498" y="79"></text>
<rect fill="#DEE6F1" height="24" width="48" x="426" y="66" />
<rect fill="none" height="24" stroke="#405C86" stroke-width="2" width="48" x="426" y="66" />
<rect fill="none" height="24" stroke="#405C86" stroke-dasharray="3 1" stroke-dashoffset="1.5" stroke-width="1" width="48" x="378" y="66" />
<text class="label unused" x="402" y="79"></text>
<rect fill="#DEE6F1" height="24" width="48" x="330" y="66" />
<rect fill="none" height="24" stroke="#405C86" stroke-width="2" width="48" x="330" y="66" />
<rect fill="none" height="24" stroke="#405C86" stroke-dasharray="3 1" stroke-dashoffset="1.5" stroke-width="1" width="48" x="282" y="66" />
<text class="label unused" x="306" y="79"></text>
<rect fill="#DEE6F1" height="24" width="48" x="234" y="66" />
<rect fill="none" height="24" stroke="#405C86" stroke-width="2" width="48" x="234" y="66" />
<rect fill="none" height="24" stroke="#405C86" stroke-dasharray="3 1" stroke-dashoffset="1.5" stroke-width="1" width="48" x="186" y="66" />
<text class="label unused" x="210" y="79"></text>
<rect fill="#DEE6F1" height="24" width="48" x="138" y="66" />
<rect fill="none" height="24" stroke="#405C86" stroke-width="2" width="48" x="138" y="66" />
<rect fill="none" height="24" stroke="#405C86" stroke-dasharray="3 1" stroke-dashoffset="1.5" stroke-width="1" width="48" x="90" y="66" />
<text class="label unused" x="114" y="79"></text>
<text class="register-name" x="80" y="78">Zd</text>
<text class="intrinsic-name" x="80" y="90">even</text>
<text class="register-number" x="10" y="78">(2)</text>
<rect fill="#DEE6F1" height="24" width="48" x="3114" y="138" />
<rect fill="none" height="24" stroke="#405C86" stroke-width="2" width="48" x="3114" y="138" />
<rect fill="#DEE6F1" height="24" width="48" x="3066" y="138" />
<rect fill="none" height="24" stroke="#405C86" stroke-width="2" width="48" x="3066" y="138" />
<rect fill="#DEE6F1" height="24" width="48" x="3018" y="138" />
<rect fill="none" height="24" stroke="#405C86" stroke-width="2" width="48" x="3018" y="138" />
<rect fill="#DEE6F1" height="24" width="48" x="2970" y="138" />
<rect fill="none" height="24" stroke="#405C86" stroke-width="2" width="48" x="2970" y="138" />
<rect fill="#DEE6F1" height="24" width="48" x="2922" y="138" />
<rect fill="none" height="24" stroke="#405C86" stroke-width="2" width="48" x="2922" y="138" />
<rect fill="#DEE6F1" height="24" width="48" x="2874" y="138" />
<rect fill="none" height="24" stroke="#405C86" stroke-width="2" width="48" x="2874" y="138" />
<rect fill="#DEE6F1" height="24" width="48" x="2826" y="138" />
<rect fill="none" height="24" stroke="#405C86" stroke-width="2" width="48" x="2826" y="138" />
<rect fill="#DEE6F1" height="24" width="48" x="2778" y="138" />
<rect fill="none" height="24" stroke="#405C86" stroke-width="2" width="48" x="2778" y="138" />
<rect fill="#DEE6F1" height="24" width="48" x="2730" y="138" />
<rect fill="none" height="24" stroke="#405C86" stroke-width="2" width="48" x="2730" y="138" />
<rect fill="#DEE6F1" height="24" width="48" x="2682" y="138" />
<rect fill="none" height="24" stroke="#405C86" stroke-width="2" width="48" x="2682" y="138" />
<rect fill="#DEE6F1" height="24" width="48" x="2634" y="138" />
<rect fill="none" height="24" stroke="#405C86" stroke-width="2" width="48" x="2634" y="138" />
<rect fill="#DEE6F1" height="24" width="48" x="2586" y="138" />
<rect fill="none" height="24" stroke="#405C86" stroke-width="2" width="48" x="2586" y="138" />
<rect fill="#DEE6F1" height="24" width="48" x="2538" y="138" />
<rect fill="none" height="24" stroke="#405C86" stroke-width="2" width="48" x="2538" y="138" />
<rect fill="#DEE6F1" height="24" width="48" x="2490" y="138" />
<rect fill="none" height="24" stroke="#405C86" stroke-width="2" width="48" x="2490" y="138" />
<rect fill="#DEE6F1" height="24" width="48" x="2442" y="138" />
<rect fill="none" height="24" stroke="#405C86" stroke-width="2" width="48" x="2442" y="138" />
<rect fill="#DEE6F1" height="24" width="48" x="2394" y="138" />
<rect fill="none" height="24" stroke="#405C86" stroke-width="2" width="48" x="2394" y="138" />
<rect fill="#DEE6F1" height="24" width="48" x="2346" y="138" />
<rect fill="none" height="24" stroke="#405C86" stroke-width="2" width="48" x="2346" y="138" />
<rect fill="#DEE6F1" height="24" width="48" x="2298" y="138" />
<rect fill="none" height="24" stroke="#405C86" stroke-width="2" width="48" x="2298" y="138" />
<rect fill="#DEE6F1" height="24" width="48" x="2250" y="138" />
<rect fill="none" height="24" stroke="#405C86" stroke-width="2" width="48" x="2250" y="138" />
<rect fill="#DEE6F1" height="24" width="48" x="2202" y="138" />
<rect fill="none" height="24" stroke="#405C86" stroke-width="2" width="48" x="2202" y="138" />
<rect fill="#DEE6F1" height="24" width="48" x="2154" y="138" />
<rect fill="none" height="24" stroke="#405C86" stroke-width="2" width="48" x="2154" y="138" />
<rect fill="#DEE6F1" height="24" width="48" x="2106" y="138" />
<rect fill="none" height="24" stroke="#405C86" stroke-width="2" width="48" x="2106" y="138" />
<rect fill="#DEE6F1" height="24" width="48" x="2058" y="138" />
<rect fill="none" height="24" stroke="#405C86" stroke-width="2" width="48" x="2058" y="138" />
<rect fill="#DEE6F1" height="24" width="48" x="2010" y="138" />
<rect fill="none" height="24" stroke="#405C86" stroke-width="2" width="48" x="2010" y="138" />
<rect fill="#DEE6F1" height="24" width="48" x="1962" y="138" />
<rect fill="none" height="24" stroke="#405C86" stroke-width="2" width="48" x="1962" y="138" />
<rect fill="#DEE6F1" height="24" width="48" x="1914" y="138" />
<rect fill="none" height="24" stroke="#405C86" stroke-width="2" width="48" x="1914" y="138" />
<rect fill="#DEE6F1" height="24" width="48" x="1866" y="138" />
<rect fill="none" height="24" stroke="#405C86" stroke-width="2" width="48" x="1866" y="138" />
<rect fill="#DEE6F1" height="24" width="48" x="1818" y="138" />
<rect fill="none" height="24" stroke="#405C86" stroke-width="2" width="48" x="1818" y="138" />
<rect fill="#DEE6F1" height="24" width="48" x="1770" y="138" />
<rect fill="none" height="24" stroke="#405C86" stroke-width="2" width="48" x="1770" y="138" />
<rect fill="#DEE6F1" height="24" width="48" x="1722" y="138" />
<rect fill="none" height="24" stroke="#405C86" stroke-width="2" width="48" x="1722" y="138" />
<rect fill="#DEE6F1" height="24" width="48" x="1674" y="138" />
<rect fill="none" height="24" stroke="#405C86" stroke-width="2" width="48" x="1674" y="138" />
<rect fill="#DEE6F1" height="24" width="48" x="1626" y="138" />
<rect fill="none" height="24" stroke="#405C86" stroke-width="2" width="48" x="1626" y="138" />
<rect fill="#DEE6F1" height="24" width="48" x="1578" y="138" />
<rect fill="none" height="24" stroke="#405C86" stroke-width="2" width="48" x="1578" y="138" />
<rect fill="#DEE6F1" height="24" width="48" x="1530" y="138" />
<rect fill="none" height="24" stroke="#405C86" stroke-width="2" width="48" x="1530" y="138" />
<rect fill="#DEE6F1" height="24" width="48" x="1482" y="138" />
<rect fill="none" height="24" stroke="#405C86" stroke-width="2" width="48" x="1482" y="138" />
<rect fill="#DEE6F1" height="24" width="48" x="1434" y="138" />
<rect fill="none" height="24" stroke="#405C86" stroke-width="2" width="48" x="1434" y="138" />
<rect fill="#DEE6F1" height="24" width="48" x="1386" y="138" />
<rect fill="none" height="24" stroke="#405C86" stroke-width="2" width="48" x="1386" y="138" />
<rect fill="#DEE6F1" height="24" width="48" x="1338" y="138" />
<rect fill="none" height="24" stroke="#405C86" stroke-width="2" width="48" x="1338" y="138" />
<rect fill="#DEE6F1" height="24" width="48" x="1290" y="138" />
<rect fill="none" height="24" stroke="#405C86" stroke-width="2" width="48" x="1290" y="138" />
<rect fill="#DEE6F1" height="24" width="48" x="1242" y="138" />
<rect fill="none" height="24" stroke="#405C86" stroke-width="2" width="48" x="1242" y="138" />
<rect fill="#DEE6F1" height="24" width="48" x="1194" y="138" />
<rect fill="none" height="24" stroke="#405C86" stroke-width="2" width="48" x="1194" y="138" />
<rect fill="#DEE6F1" height="24" width="48" x="1146" y="138" />
<rect fill="none" height="24" stroke="#405C86" stroke-width="2" width="48" x="1146" y="138" />
<rect fill="#DEE6F1" height="24" width="48" x="1098" y="138" />
<rect fill="none" height="24" stroke="#405C86" stroke-width="2" width="48" x="1098" y="138" />
<rect fill="#DEE6F1" height="24" width="48" x="1050" y="138" />
<rect fill="none" height="24" stroke="#405C86" stroke-width="2" width="48" x="1050" y="138" />
<rect fill="#DEE6F1" height="24" width="48" x="1002" y="138" />
<rect fill="none" height="24" stroke="#405C86" stroke-width="2" width="48" x="1002" y="138" />
<rect fill="#DEE6F1" height="24" width="48" x="954" y="138" />
<rect fill="none" height="24" stroke="#405C86" stroke-width="2" width="48" x="954" y="138" />
<rect fill="#DEE6F1" height="24" width="48" x="906" y="138" />
<rect fill="none" height="24" stroke="#405C86" stroke-width="2" width="48" x="906" y="138" />
<rect fill="#DEE6F1" height="24" width="48" x="858" y="138" />
<rect fill="none" height="24" stroke="#405C86" stroke-width="2" width="48" x="858" y="138" />
<rect fill="#DEE6F1" height="24" width="48" x="810" y="138" />
<rect fill="none" height="24" stroke="#405C86" stroke-width="2" width="48" x="810" y="138" />
<rect fill="#DEE6F1" height="24" width="48" x="762" y="138" />
<rect fill="none" height="24" stroke="#405C86" stroke-width="2" width="48" x="762" y="138" />
<rect fill="#DEE6F1" height="24" width="48" x="714" y="138" />
<rect fill="none" height="24" stroke="#405C86" stroke-width="2" width="48" x="714" y="138" />
<rect fill="#DEE6F1" height="24" width="48" x="666" y="138" />
<rect fill="none" height="24" stroke="#405C86" stroke-width="2" width="48" x="666" y="138" />
<rect fill="#DEE6F1" height="24" width="48" x="618" y="138" />
<rect fill="none" height="24" stroke="#405C86" stroke-width="2" width="48" x="618" y="138" />
<rect fill="#DEE6F1" height="24" width="48" x="570" y="138" />
<rect fill="none" height="24" stroke="#405C86" stroke-width="2" width="48" x="570" y="138" />
<rect fill="#DEE6F1" height="24" width="48" x="522" y="138" />
<rect fill="none" height="24" stroke="#405C86" stroke-width="2" width="48" x="522" y="138" />
<rect fill="#DEE6F1" height="24" width="48" x="474" y="138" />
<rect fill="none" height="24" stroke="#405C86" stroke-width="2" width="48" x="474" y="138" />
<rect fill="#DEE6F1" height="24" width="48" x="426" y="138" />
<rect fill="none" height="24" stroke="#405C86" stroke-width="2" width="48" x="426" y="138" />
<rect fill="#DEE6F1" height="24" width="48" x="378" y="138" />
<rect fill="none" height="24" stroke="#405C86" stroke-width="2" width="48" x="378" y="138" />
<rect fill="#DEE6F1" height="24" width="48" x="330" y="138" />
<rect fill="none" height="24" stroke="#405C86" stroke-width="2" width="48" x="330" y="138" />
<rect fill="#DEE6F1" height="24" width="48" x="282" y="138" />
<rect fill="none" height="24" stroke="#405C86" stroke-width="2" width="48" x="282" y="138" />
<rect fill="#DEE6F1" height="24" width="48" x="234" y="138" />
<rect fill="none" height="24" stroke="#405C86" stroke-width="2" width="48" x="234" y="138" />
<rect fill="#DEE6F1" height="24" width="48" x="186" y="138" />
<rect fill="none" height="24" stroke="#405C86" stroke-width="2" width="48" x="186" y="138" />
<rect fill="#DEE6F1" height="24" width="48" x="138" y="138" />
<rect fill="none" height="24" stroke="#405C86" stroke-width="2" width="48" x="138" y="138" />
<rect fill="#DEE6F1" height="24" width="48" x="90" y="138" />
<rect fill="none" height="24" stroke="#405C86" stroke-width="2" width="48" x="90" y="138" />
<text class="register-name" x="80" y="150">Zd</text>
<text class="intrinsic-name" x="80" y="162">returns</text>
<text class="register-number" x="10" y="150">(2)</text>
<polyline fill="none" points="3093.0 42.5,3095.0 46.5,3113.0 46.5,3114.0 48.5,3114.0 52.5,3114.0 48.5,3115.0 46.5,3133.0 46.5,3135.0 42.5" stroke="#567DB6" stroke-width="1" />
<line stroke="#567DB6" stroke-width="1" x1="3114" x2="3090" y1="52.5" y2="137" />
<polyline fill="none" points="2997.0 42.5,2999.0 46.5,3017.0 46.5,3018.0 48.5,3018.0 52.5,3018.0 48.5,3019.0 46.5,3037.0 46.5,3039.0 42.5" stroke="#567DB6" stroke-width="1" />
<line stroke="#567DB6" stroke-width="1" x1="3018" x2="2994" y1="52.5" y2="137" />
<polyline fill="none" points="2901.0 42.5,2903.0 46.5,2921.0 46.5,2922.0 48.5,2922.0 52.5,2922.0 48.5,2923.0 46.5,2941.0 46.5,2943.0 42.5" stroke="#567DB6" stroke-width="1" />
<line stroke="#567DB6" stroke-width="1" x1="2922" x2="2898" y1="52.5" y2="137" />
<polyline fill="none" points="2805.0 42.5,2807.0 46.5,2825.0 46.5,2826.0 48.5,2826.0 52.5,2826.0 48.5,2827.0 46.5,2845.0 46.5,2847.0 42.5" stroke="#567DB6" stroke-width="1" />
<line stroke="#567DB6" stroke-width="1" x1="2826" x2="2802" y1="52.5" y2="137" />
<polyline fill="none" points="2709.0 42.5,2711.0 46.5,2729.0 46.5,2730.0 48.5,2730.0 52.5,2730.0 48.5,2731.0 46.5,2749.0 46.5,2751.0 42.5" stroke="#567DB6" stroke-width="1" />
<line stroke="#567DB6" stroke-width="1" x1="2730" x2="2706" y1="52.5" y2="137" />
<polyline fill="none" points="2613.0 42.5,2615.0 46.5,2633.0 46.5,2634.0 48.5,2634.0 52.5,2634.0 48.5,2635.0 46.5,2653.0 46.5,2655.0 42.5" stroke="#567DB6" stroke-width="1" />
<line stroke="#567DB6" stroke-width="1" x1="2634" x2="2610" y1="52.5" y2="137" />
<polyline fill="none" points="2517.0 42.5,2519.0 46.5,2537.0 46.5,2538.0 48.5,2538.0 52.5,2538.0 48.5,2539.0 46.5,2557.0 46.5,2559.0 42.5" stroke="#567DB6" stroke-width="1" />
<line stroke="#567DB6" stroke-width="1" x1="2538" x2="2514" y1="52.5" y2="137" />
<polyline fill="none" points="2421.0 42.5,2423.0 46.5,2441.0 46.5,2442.0 48.5,2442.0 52.5,2442.0 48.5,2443.0 46.5,2461.0 46.5,2463.0 42.5" stroke="#567DB6" stroke-width="1" />
<line stroke="#567DB6" stroke-width="1" x1="2442" x2="2418" y1="52.5" y2="137" />
<polyline fill="none" points="2325.0 42.5,2327.0 46.5,2345.0 46.5,2346.0 48.5,2346.0 52.5,2346.0 48.5,2347.0 46.5,2365.0 46.5,2367.0 42.5" stroke="#567DB6" stroke-width="1" />
<line stroke="#567DB6" stroke-width="1" x1="2346" x2="2322" y1="52.5" y2="137" />
<polyline fill="none" points="2229.0 42.5,2231.0 46.5,2249.0 46.5,2250.0 48.5,2250.0 52.5,2250.0 48.5,2251.0 46.5,2269.0 46.5,2271.0 42.5" stroke="#567DB6" stroke-width="1" />
<line stroke="#567DB6" stroke-width="1" x1="2250" x2="2226" y1="52.5" y2="137" />
<polyline fill="none" points="2133.0 42.5,2135.0 46.5,2153.0 46.5,2154.0 48.5,2154.0 52.5,2154.0 48.5,2155.0 46.5,2173.0 46.5,2175.0 42.5" stroke="#567DB6" stroke-width="1" />
<line stroke="#567DB6" stroke-width="1" x1="2154" x2="2130" y1="52.5" y2="137" />
<polyline fill="none" points="2037.0 42.5,2039.0 46.5,2057.0 46.5,2058.0 48.5,2058.0 52.5,2058.0 48.5,2059.0 46.5,2077.0 46.5,2079.0 42.5" stroke="#567DB6" stroke-width="1" />
<line stroke="#567DB6" stroke-width="1" x1="2058" x2="2034" y1="52.5" y2="137" />
<polyline fill="none" points="1941.0 42.5,1943.0 46.5,1961.0 46.5,1962.0 48.5,1962.0 52.5,1962.0 48.5,1963.0 46.5,1981.0 46.5,1983.0 42.5" stroke="#567DB6" stroke-width="1" />
<line stroke="#567DB6" stroke-width="1" x1="1962" x2="1938" y1="52.5" y2="137" />
<polyline fill="none" points="1845.0 42.5,1847.0 46.5,1865.0 46.5,1866.0 48.5,1866.0 52.5,1866.0 48.5,1867.0 46.5,1885.0 46.5,1887.0 42.5" stroke="#567DB6" stroke-width="1" />
<line stroke="#567DB6" stroke-width="1" x1="1866" x2="1842" y1="52.5" y2="137" />
<polyline fill="none" points="1749.0 42.5,1751.0 46.5,1769.0 46.5,1770.0 48.5,1770.0 52.5,1770.0 48.5,1771.0 46.5,1789.0 46.5,1791.0 42.5" stroke="#567DB6" stroke-width="1" />
<line stroke="#567DB6" stroke-width="1" x1="1770" x2="1746" y1="52.5" y2="137" />
<polyline fill="none" points="1653.0 42.5,1655.0 46.5,1673.0 46.5,1674.0 48.5,1674.0 52.5,1674.0 48.5,1675.0 46.5,1693.0 46.5,1695.0 42.5" stroke="#567DB6" stroke-width="1" />
<line stroke="#567DB6" stroke-width="1" x1="1674" x2="1650" y1="52.5" y2="137" />
<polyline fill="none" points="1557.0 42.5,1559.0 46.5,1577.0 46.5,1578.0 48.5,1578.0 52.5,1578.0 48.5,1579.0 46.5,1597.0 46.5,1599.0 42.5" stroke="#567DB6" stroke-width="1" />
<line stroke="#567DB6" stroke-width="1" x1="1578" x2="1554" y1="52.5" y2="137" />
<polyline fill="none" points="1461.0 42.5,1463.0 46.5,1481.0 46.5,1482.0 48.5,1482.0 52.5,1482.0 48.5,1483.0 46.5,1501.0 46.5,1503.0 42.5" stroke="#567DB6" stroke-width="1" />
<line stroke="#567DB6" stroke-width="1" x1="1482" x2="1458" y1="52.5" y2="137" />
<polyline fill="none" points="1365.0 42.5,1367.0 46.5,1385.0 46.5,1386.0 48.5,1386.0 52.5,1386.0 48.5,1387.0 46.5,1405.0 46.5,1407.0 42.5" stroke="#567DB6" stroke-width="1" />
<line stroke="#567DB6" stroke-width="1" x1="1386" x2="1362" y1="52.5" y2="137" />
<polyline fill="none" points="1269.0 42.5,1271.0 46.5,1289.0 46.5,1290.0 48.5,1290.0 52.5,1290.0 48.5,1291.0 46.5,1309.0 46.5,1311.0 42.5" stroke="#567DB6" stroke-width="1" />
<line stroke="#567DB6" stroke-width="1" x1="1290" x2="1266" y1="52.5" y2="137" />
<polyline fill="none" points="1173.0 42.5,1175.0 46.5,1193.0 46.5,1194.0 48.5,1194.0 52.5,1194.0 48.5,1195.0 46.5,1213.0 46.5,1215.0 42.5" stroke="#567DB6" stroke-width="1" />
<line stroke="#567DB6" stroke-width="1" x1="1194" x2="1170" y1="52.5" y2="137" />
<polyline fill="none" points="1077.0 42.5,1079.0 46.5,1097.0 46.5,1098.0 48.5,1098.0 52.5,1098.0 48.5,1099.0 46.5,1117.0 46.5,1119.0 42.5" stroke="#567DB6" stroke-width="1" />
<line stroke="#567DB6" stroke-width="1" x1="1098" x2="1074" y1="52.5" y2="137" />
<polyline fill="none" points="981.0 42.5,983.0 46.5,1001.0 46.5,1002.0 48.5,1002.0 52.5,1002.0 48.5,1003.0 46.5,1021.0 46.5,1023.0 42.5" stroke="#567DB6" stroke-width="1" />
<line stroke="#567DB6" stroke-width="1" x1="1002" x2="978" y1="52.5" y2="137" />
<polyline fill="none" points="885.0 42.5,887.0 46.5,905.0 46.5,906.0 48.5,906.0 52.5,906.0 48.5,907.0 46.5,925.0 46.5,927.0 42.5" stroke="#567DB6" stroke-width="1" />
<line stroke="#567DB6" stroke-width="1" x1="906" x2="882" y1="52.5" y2="137" />
<polyline fill="none" points="789.0 42.5,791.0 46.5,809.0 46.5,810.0 48.5,810.0 52.5,810.0 48.5,811.0 46.5,829.0 46.5,831.0 42.5" stroke="#567DB6" stroke-width="1" />
<line stroke="#567DB6" stroke-width="1" x1="810" x2="786" y1="52.5" y2="137" />
<polyline fill="none" points="693.0 42.5,695.0 46.5,713.0 46.5,714.0 48.5,714.0 52.5,714.0 48.5,715.0 46.5,733.0 46.5,735.0 42.5" stroke="#567DB6" stroke-width="1" />
<line stroke="#567DB6" stroke-width="1" x1="714" x2="690" y1="52.5" y2="137" />
<polyline fill="none" points="597.0 42.5,599.0 46.5,617.0 46.5,618.0 48.5,618.0 52.5,618.0 48.5,619.0 46.5,637.0 46.5,639.0 42.5" stroke="#567DB6" stroke-width="1" />
<line stroke="#567DB6" stroke-width="1" x1="618" x2="594" y1="52.5" y2="137" />
<polyline fill="none" points="501.0 42.5,503.0 46.5,521.0 46.5,522.0 48.5,522.0 52.5,522.0 48.5,523.0 46.5,541.0 46.5,543.0 42.5" stroke="#567DB6" stroke-width="1" />
<line stroke="#567DB6" stroke-width="1" x1="522" x2="498" y1="52.5" y2="137" />
<polyline fill="none" points="405.0 42.5,407.0 46.5,425.0 46.5,426.0 48.5,426.0 52.5,426.0 48.5,427.0 46.5,445.0 46.5,447.0 42.5" stroke="#567DB6" stroke-width="1" />
<line stroke="#567DB6" stroke-width="1" x1="426" x2="402" y1="52.5" y2="137" />
<polyline fill="none" points="309.0 42.5,311.0 46.5,329.0 46.5,330.0 48.5,330.0 52.5,330.0 48.5,331.0 46.5,349.0 46.5,351.0 42.5" stroke="#567DB6" stroke-width="1" />
<line stroke="#567DB6" stroke-width="1" x1="330" x2="306" y1="52.5" y2="137" />
<polyline fill="none" points="213.0 42.5,215.0 46.5,233.0 46.5,234.0 48.5,234.0 52.5,234.0 48.5,235.0 46.5,253.0 46.5,255.0 42.5" stroke="#567DB6" stroke-width="1" />
<line stroke="#567DB6" stroke-width="1" x1="234" x2="210" y1="52.5" y2="137" />
<polyline fill="none" points="117.0 42.5,119.0 46.5,137.0 46.5,138.0 48.5,138.0 52.5,138.0 48.5,139.0 46.5,157.0 46.5,159.0 42.5" stroke="#567DB6" stroke-width="1" />
<line stroke="#567DB6" stroke-width="1" x1="138" x2="114" y1="52.5" y2="137" />
<line stroke="#567DB6" stroke-width="1" x1="3138" x2="3138" y1="90.5" y2="137" />
<line stroke="#567DB6" stroke-width="1" x1="3042" x2="3042" y1="90.5" y2="137" />
<line stroke="#567DB6" stroke-width="1" x1="2946" x2="2946" y1="90.5" y2="137" />
<line stroke="#567DB6" stroke-width="1" x1="2850" x2="2850" y1="90.5" y2="137" />
<line stroke="#567DB6" stroke-width="1" x1="2754" x2="2754" y1="90.5" y2="137" />
<line stroke="#567DB6" stroke-width="1" x1="2658" x2="2658" y1="90.5" y2="137" />
<line stroke="#567DB6" stroke-width="1" x1="2562" x2="2562" y1="90.5" y2="137" />
<line stroke="#567DB6" stroke-width="1" x1="2466" x2="2466" y1="90.5" y2="137" />
<line stroke="#567DB6" stroke-width="1" x1="2370" x2="2370" y1="90.5" y2="137" />
<line stroke="#567DB6" stroke-width="1" x1="2274" x2="2274" y1="90.5" y2="137" />
<line stroke="#567DB6" stroke-width="1" x1="2178" x2="2178" y1="90.5" y2="137" />
<line stroke="#567DB6" stroke-width="1" x1="2082" x2="2082" y1="90.5" y2="137" />
<line stroke="#567DB6" stroke-width="1" x1="1986" x2="1986" y1="90.5" y2="137" />
<line stroke="#567DB6" stroke-width="1" x1="1890" x2="1890" y1="90.5" y2="137" />
<line stroke="#567DB6" stroke-width="1" x1="1794" x2="1794" y1="90.5" y2="137" />
<line stroke="#567DB6" stroke-width="1" x1="1698" x2="1698" y1="90.5" y2="137" />
<line stroke="#567DB6" stroke-width="1" x1="1602" x2="1602" y1="90.5" y2="137" />
<line stroke="#567DB6" stroke-width="1" x1="1506" x2="1506" y1="90.5" y2="137" />
<line stroke="#567DB6" stroke-width="1" x1="1410" x2="1410" y1="90.5" y2="137" />
<line stroke="#567DB6" stroke-width="1" x1="1314" x2="1314" y1="90.5" y2="137" />
<line stroke="#567DB6" stroke-width="1" x1="1218" x2="1218" y1="90.5" y2="137" />
<line stroke="#567DB6" stroke-width="1" x1="1122" x2="1122" y1="90.5" y2="137" />
<line stroke="#567DB6" stroke-width="1" x1="1026" x2="1026" y1="90.5" y2="137" />
<line stroke="#567DB6" stroke-width="1" x1="930" x2="930" y1="90.5" y2="137" />
<line stroke="#567DB6" stroke-width="1" x1="834" x2="834" y1="90.5" y2="137" />
<line stroke="#567DB6" stroke-width="1" x1="738" x2="738" y1="90.5" y2="137" />
<line stroke="#567DB6" stroke-width="1" x1="642" x2="642" y1="90.5" y2="137" />
<line stroke="#567DB6" stroke-width="1" x1="546" x2="546" y1="90.5" y2="137" />
<line stroke="#567DB6" stroke-width="1" x1="450" x2="450" y1="90.5" y2="137" />
<line stroke="#567DB6" stroke-width="1" x1="354" x2="354" y1="90.5" y2="137" />
<line stroke="#567DB6" stroke-width="1" x1="258" x2="258" y1="90.5" y2="137" />
<line stroke="#567DB6" stroke-width="1" x1="162" x2="162" y1="90.5" y2="137" />
<line marker-end="url(#arrowhead)" stroke="none" x1="3114" x2="3090" y1="52.5" y2="137" />
<line marker-end="url(#arrowhead)" stroke="none" x1="3018" x2="2994" y1="52.5" y2="137" />
<line marker-end="url(#arrowhead)" stroke="none" x1="2922" x2="2898" y1="52.5" y2="137" />
<line marker-end="url(#arrowhead)" stroke="none" x1="2826" x2="2802" y1="52.5" y2="137" />
<line marker-end="url(#arrowhead)" stroke="none" x1="2730" x2="2706" y1="52.5" y2="137" />
<line marker-end="url(#arrowhead)" stroke="none" x1="2634" x2="2610" y1="52.5" y2="137" />
<line marker-end="url(#arrowhead)" stroke="none" x1="2538" x2="2514" y1="52.5" y2="137" />
<line marker-end="url(#arrowhead)" stroke="none" x1="2442" x2="2418" y1="52.5" y2="137" />
<line marker-end="url(#arrowhead)" stroke="none" x1="2346" x2="2322" y1="52.5" y2="137" />
<line marker-end="url(#arrowhead)" stroke="none" x1="2250" x2="2226" y1="52.5" y2="137" />
<line marker-end="url(#arrowhead)" stroke="none" x1="2154" x2="2130" y1="52.5" y2="137" />
<line marker-end="url(#arrowhead)" stroke="none" x1="2058" x2="2034" y1="52.5" y2="137" />
<line marker-end="url(#arrowhead)" stroke="none" x1="1962" x2="1938" y1="52.5" y2="137" />
<line marker-end="url(#arrowhead)" stroke="none" x1="1866" x2="1842" y1="52.5" y2="137" />
<line marker-end="url(#arrowhead)" stroke="none" x1="1770" x2="1746" y1="52.5" y2="137" />
<line marker-end="url(#arrowhead)" stroke="none" x1="1674" x2="1650" y1="52.5" y2="137" />
<line marker-end="url(#arrowhead)" stroke="none" x1="1578" x2="1554" y1="52.5" y2="137" />
<line marker-end="url(#arrowhead)" stroke="none" x1="1482" x2="1458" y1="52.5" y2="137" />
<line marker-end="url(#arrowhead)" stroke="none" x1="1386" x2="1362" y1="52.5" y2="137" />
<line marker-end="url(#arrowhead)" stroke="none" x1="1290" x2="1266" y1="52.5" y2="137" />
<line marker-end="url(#arrowhead)" stroke="none" x1="1194" x2="1170" y1="52.5" y2="137" />
<line marker-end="url(#arrowhead)" stroke="none" x1="1098" x2="1074" y1="52.5" y2="137" />
<line marker-end="url(#arrowhead)" stroke="none" x1="1002" x2="978" y1="52.5" y2="137" />
<line marker-end="url(#arrowhead)" stroke="none" x1="906" x2="882" y1="52.5" y2="137" />
<line marker-end="url(#arrowhead)" stroke="none" x1="810" x2="786" y1="52.5" y2="137" />
<line marker-end="url(#arrowhead)" stroke="none" x1="714" x2="690" y1="52.5" y2="137" />
<line marker-end="url(#arrowhead)" stroke="none" x1="618" x2="594" y1="52.5" y2="137" />
<line marker-end="url(#arrowhead)" stroke="none" x1="522" x2="498" y1="52.5" y2="137" />
<line marker-end="url(#arrowhead)" stroke="none" x1="426" x2="402" y1="52.5" y2="137" />
<line marker-end="url(#arrowhead)" stroke="none" x1="330" x2="306" y1="52.5" y2="137" />
<line marker-end="url(#arrowhead)" stroke="none" x1="234" x2="210" y1="52.5" y2="137" />
<line marker-end="url(#arrowhead)" stroke="none" x1="138" x2="114" y1="52.5" y2="137" />
<line marker-end="url(#arrowhead)" stroke="none" x1="3138" x2="3138" y1="90.5" y2="137" />
<line marker-end="url(#arrowhead)" stroke="none" x1="3042" x2="3042" y1="90.5" y2="137" />
<line marker-end="url(#arrowhead)" stroke="none" x1="2946" x2="2946" y1="90.5" y2="137" />
<line marker-end="url(#arrowhead)" stroke="none" x1="2850" x2="2850" y1="90.5" y2="137" />
<line marker-end="url(#arrowhead)" stroke="none" x1="2754" x2="2754" y1="90.5" y2="137" />
<line marker-end="url(#arrowhead)" stroke="none" x1="2658" x2="2658" y1="90.5" y2="137" />
<line marker-end="url(#arrowhead)" stroke="none" x1="2562" x2="2562" y1="90.5" y2="137" />
<line marker-end="url(#arrowhead)" stroke="none" x1="2466" x2="2466" y1="90.5" y2="137" />
<line marker-end="url(#arrowhead)" stroke="none" x1="2370" x2="2370" y1="90.5" y2="137" />
<line marker-end="url(#arrowhead)" stroke="none" x1="2274" x2="2274" y1="90.5" y2="137" />
<line marker-end="url(#arrowhead)" stroke="none" x1="2178" x2="2178" y1="90.5" y2="137" />
<line marker-end="url(#arrowhead)" stroke="none" x1="2082" x2="2082" y1="90.5" y2="137" />
<line marker-end="url(#arrowhead)" stroke="none" x1="1986" x2="1986" y1="90.5" y2="137" />
<line marker-end="url(#arrowhead)" stroke="none" x1="1890" x2="1890" y1="90.5" y2="137" />
<line marker-end="url(#arrowhead)" stroke="none" x1="1794" x2="1794" y1="90.5" y2="137" />
<line marker-end="url(#arrowhead)" stroke="none" x1="1698" x2="1698" y1="90.5" y2="137" />
<line marker-end="url(#arrowhead)" stroke="none" x1="1602" x2="1602" y1="90.5" y2="137" />
<line marker-end="url(#arrowhead)" stroke="none" x1="1506" x2="1506" y1="90.5" y2="137" />
<line marker-end="url(#arrowhead)" stroke="none" x1="1410" x2="1410" y1="90.5" y2="137" />
<line marker-end="url(#arrowhead)" stroke="none" x1="1314" x2="1314" y1="90.5" y2="137" />
<line marker-end="url(#arrowhead)" stroke="none" x1="1218" x2="1218" y1="90.5" y2="137" />
<line marker-end="url(#arrowhead)" stroke="none" x1="1122" x2="1122" y1="90.5" y2="137" />
<line marker-end="url(#arrowhead)" stroke="none" x1="1026" x2="1026" y1="90.5" y2="137" />
<line marker-end="url(#arrowhead)" stroke="none" x1="930" x2="930" y1="90.5" y2="137" />
<line marker-end="url(#arrowhead)" stroke="none" x1="834" x2="834" y1="90.5" y2="137" />
<line marker-end="url(#arrowhead)" stroke="none" x1="738" x2="738" y1="90.5" y2="137" />
<line marker-end="url(#arrowhead)" stroke="none" x1="642" x2="642" y1="90.5" y2="137" />
<line marker-end="url(#arrowhead)" stroke="none" x1="546" x2="546" y1="90.5" y2="137" />
<line marker-end="url(#arrowhead)" stroke="none" x1="450" x2="450" y1="90.5" y2="137" />
<line marker-end="url(#arrowhead)" stroke="none" x1="354" x2="354" y1="90.5" y2="137" />
<line marker-end="url(#arrowhead)" stroke="none" x1="258" x2="258" y1="90.5" y2="137" />
<line marker-end="url(#arrowhead)" stroke="none" x1="162" x2="162" y1="90.5" y2="137" />
</svg>