<svg xmlns="http://www.w3.org/2000/svg" viewBox="0 0 870 171">
<style>
.label { font: 14px Helvetica; dominant-baseline: middle; text-anchor: middle; }
.title-left { font: 12px Helvetica; dominant-baseline: middle; }
.title-right { font: 12px Helvetica; dominant-baseline: middle; text-anchor: end; }
.title-intrinsic { font: 12px Helvetica; dominant-baseline: middle; text-anchor: middle; fill: #6778ED; }
.title { font: 12px Helvetica; dominant-baseline: middle; text-anchor: middle; }
.title-unused { font: 12px Helvetica; dominant-baseline: middle; text-anchor: middle; fill: #AAA; }
.register-name { font: 14px Helvetica; dominant-baseline: middle; text-anchor: end; font-style: italic; }
.memory-name { font: 14px Helvetica; dominant-baseline: middle; text-anchor: end; }
.register-number { font: 14px Helvetica; dominant-baseline: middle; text-anchor: start; }
.intrinsic-name { font: 14px Helvetica; dominant-baseline: middle; text-anchor: end; fill: #6778ED; }
.intrinsic-color { fill: #6778ED; }
.small-label { font: 12px Helvetica; dominant-baseline: middle; text-anchor: middle; }
.label-10px { font: 10px Helvetica; dominant-baseline: middle; text-anchor: middle; }
.smaller-label { font: 9px Helvetica; dominant-baseline: middle; text-anchor: middle; }
.label-6px { font: 6px Helvetica; dominant-baseline: middle; text-anchor: middle; }
.label-7px { font: 7px Helvetica; dominant-baseline: middle; text-anchor: middle; }
.unused { fill: #AAA; }
.dim { fill: #888; }
</style>
<defs>
<marker id="arrowhead" markerWidth="10.75" markerHeight="24.5" refX="9.0" refY="6.125" orient="auto">
<polyline points="0.5 0.5, 8.75 6.125, 0.5 11.75" stroke="#567DB6" stroke-width="1" fill="none"/>
</marker>
</defs>
<text class="title-left" x="90" y="9">upper</text>
<text class="title-right" x="858" y="9">lower</text>
<rect fill="#DEE6F1" height="24" width="71.5" x="762" y="18" />
<rect fill="none" height="24" stroke="#405C86" stroke-width="2" width="96" x="762" y="18" />
<rect fill="#DEE6F1" height="24" width="71.5" x="666" y="18" />
<rect fill="none" height="24" stroke="#405C86" stroke-width="2" width="96" x="666" y="18" />
<rect fill="#DEE6F1" height="24" width="71.5" x="570" y="18" />
<rect fill="none" height="24" stroke="#405C86" stroke-width="2" width="96" x="570" y="18" />
<rect fill="#DEE6F1" height="24" width="71.5" x="474" y="18" />
<rect fill="none" height="24" stroke="#405C86" stroke-width="2" width="96" x="474" y="18" />
<rect fill="#DEE6F1" height="24" width="71.5" x="378" y="18" />
<rect fill="none" height="24" stroke="#405C86" stroke-width="2" width="96" x="378" y="18" />
<rect fill="#DEE6F1" height="24" width="71.5" x="282" y="18" />
<rect fill="none" height="24" stroke="#405C86" stroke-width="2" width="96" x="282" y="18" />
<rect fill="#DEE6F1" height="24" width="71.5" x="186" y="18" />
<rect fill="none" height="24" stroke="#405C86" stroke-width="2" width="96" x="186" y="18" />
<rect fill="#DEE6F1" height="24" width="71.5" x="90" y="18" />
<rect fill="none" height="24" stroke="#405C86" stroke-width="2" width="96" x="90" y="18" />
<text class="register-name" x="80" y="30">Zn</text>
<text class="intrinsic-name" x="80" y="42">op1</text>
<text class="register-number" x="10" y="30">(1)</text>
<rect fill="#DEE6F1" height="24" width="48" x="810" y="66" />
<rect fill="none" height="24" stroke="#405C86" stroke-width="2" width="48" x="810" y="66" />
<rect fill="none" height="24" stroke="#405C86" stroke-dasharray="3 1" stroke-dashoffset="1.5" stroke-width="1" width="48" x="762" y="66" />
<text class="label unused" x="786" y="79"></text>
<rect fill="#DEE6F1" height="24" width="48" x="714" y="66" />
<rect fill="none" height="24" stroke="#405C86" stroke-width="2" width="48" x="714" y="66" />
<rect fill="none" height="24" stroke="#405C86" stroke-dasharray="3 1" stroke-dashoffset="1.5" stroke-width="1" width="48" x="666" y="66" />
<text class="label unused" x="690" y="79"></text>
<rect fill="#DEE6F1" height="24" width="48" x="618" y="66" />
<rect fill="none" height="24" stroke="#405C86" stroke-width="2" width="48" x="618" y="66" />
<rect fill="none" height="24" stroke="#405C86" stroke-dasharray="3 1" stroke-dashoffset="1.5" stroke-width="1" width="48" x="570" y="66" />
<text class="label unused" x="594" y="79"></text>
<rect fill="#DEE6F1" height="24" width="48" x="522" y="66" />
<rect fill="none" height="24" stroke="#405C86" stroke-width="2" width="48" x="522" y="66" />
<rect fill="none" height="24" stroke="#405C86" stroke-dasharray="3 1" stroke-dashoffset="1.5" stroke-width="1" width="48" x="474" y="66" />
<text class="label unused" x="498" y="79"></text>
<rect fill="#DEE6F1" height="24" width="48" x="426" y="66" />
<rect fill="none" height="24" stroke="#405C86" stroke-width="2" width="48" x="426" y="66" />
<rect fill="none" height="24" stroke="#405C86" stroke-dasharray="3 1" stroke-dashoffset="1.5" stroke-width="1" width="48" x="378" y="66" />
<text class="label unused" x="402" y="79"></text>
<rect fill="#DEE6F1" height="24" width="48" x="330" y="66" />
<rect fill="none" height="24" stroke="#405C86" stroke-width="2" width="48" x="330" y="66" />
<rect fill="none" height="24" stroke="#405C86" stroke-dasharray="3 1" stroke-dashoffset="1.5" stroke-width="1" width="48" x="282" y="66" />
<text class="label unused" x="306" y="79"></text>
<rect fill="#DEE6F1" height="24" width="48" x="234" y="66" />
<rect fill="none" height="24" stroke="#405C86" stroke-width="2" width="48" x="234" y="66" />
<rect fill="none" height="24" stroke="#405C86" stroke-dasharray="3 1" stroke-dashoffset="1.5" stroke-width="1" width="48" x="186" y="66" />
<text class="label unused" x="210" y="79"></text>
<rect fill="#DEE6F1" height="24" width="48" x="138" y="66" />
<rect fill="none" height="24" stroke="#405C86" stroke-width="2" width="48" x="138" y="66" />
<rect fill="none" height="24" stroke="#405C86" stroke-dasharray="3 1" stroke-dashoffset="1.5" stroke-width="1" width="48" x="90" y="66" />
<text class="label unused" x="114" y="79"></text>
<text class="register-name" x="80" y="78">Zd</text>
<text class="intrinsic-name" x="80" y="90">even</text>
<text class="register-number" x="10" y="78">(2)</text>
<rect fill="#DEE6F1" height="24" width="48" x="810" y="138" />
<rect fill="none" height="24" stroke="#405C86" stroke-width="2" width="48" x="810" y="138" />
<rect fill="#DEE6F1" height="24" width="48" x="762" y="138" />
<rect fill="none" height="24" stroke="#405C86" stroke-width="2" width="48" x="762" y="138" />
<rect fill="#DEE6F1" height="24" width="48" x="714" y="138" />
<rect fill="none" height="24" stroke="#405C86" stroke-width="2" width="48" x="714" y="138" />
<rect fill="#DEE6F1" height="24" width="48" x="666" y="138" />
<rect fill="none" height="24" stroke="#405C86" stroke-width="2" width="48" x="666" y="138" />
<rect fill="#DEE6F1" height="24" width="48" x="618" y="138" />
<rect fill="none" height="24" stroke="#405C86" stroke-width="2" width="48" x="618" y="138" />
<rect fill="#DEE6F1" height="24" width="48" x="570" y="138" />
<rect fill="none" height="24" stroke="#405C86" stroke-width="2" width="48" x="570" y="138" />
<rect fill="#DEE6F1" height="24" width="48" x="522" y="138" />
<rect fill="none" height="24" stroke="#405C86" stroke-width="2" width="48" x="522" y="138" />
<rect fill="#DEE6F1" height="24" width="48" x="474" y="138" />
<rect fill="none" height="24" stroke="#405C86" stroke-width="2" width="48" x="474" y="138" />
<rect fill="#DEE6F1" height="24" width="48" x="426" y="138" />
<rect fill="none" height="24" stroke="#405C86" stroke-width="2" width="48" x="426" y="138" />
<rect fill="#DEE6F1" height="24" width="48" x="378" y="138" />
<rect fill="none" height="24" stroke="#405C86" stroke-width="2" width="48" x="378" y="138" />
<rect fill="#DEE6F1" height="24" width="48" x="330" y="138" />
<rect fill="none" height="24" stroke="#405C86" stroke-width="2" width="48" x="330" y="138" />
<rect fill="#DEE6F1" height="24" width="48" x="282" y="138" />
<rect fill="none" height="24" stroke="#405C86" stroke-width="2" width="48" x="282" y="138" />
<rect fill="#DEE6F1" height="24" width="48" x="234" y="138" />
<rect fill="none" height="24" stroke="#405C86" stroke-width="2" width="48" x="234" y="138" />
<rect fill="#DEE6F1" height="24" width="48" x="186" y="138" />
<rect fill="none" height="24" stroke="#405C86" stroke-width="2" width="48" x="186" y="138" />
<rect fill="#DEE6F1" height="24" width="48" x="138" y="138" />
<rect fill="none" height="24" stroke="#405C86" stroke-width="2" width="48" x="138" y="138" />
<rect fill="#DEE6F1" height="24" width="48" x="90" y="138" />
<rect fill="none" height="24" stroke="#405C86" stroke-width="2" width="48" x="90" y="138" />
<text class="register-name" x="80" y="150">Zd</text>
<text class="intrinsic-name" x="80" y="162">returns</text>
<text class="register-number" x="10" y="150">(2)</text>
<polyline fill="none" points="789.0 42.5,791.0 46.5,809.0 46.5,810.0 48.5,810.0 52.5,810.0 48.5,811.0 46.5,829.0 46.5,831.0 42.5" stroke="#567DB6" stroke-width="1" />
<line stroke="#567DB6" stroke-width="1" x1="810" x2="786" y1="52.5" y2="137" />
<polyline fill="none" points="693.0 42.5,695.0 46.5,713.0 46.5,714.0 48.5,714.0 52.5,714.0 48.5,715.0 46.5,733.0 46.5,735.0 42.5" stroke="#567DB6" stroke-width="1" />
<line stroke="#567DB6" stroke-width="1" x1="714" x2="690" y1="52.5" y2="137" />
<polyline fill="none" points="597.0 42.5,599.0 46.5,617.0 46.5,618.0 48.5,618.0 52.5,618.0 48.5,619.0 46.5,637.0 46.5,639.0 42.5" stroke="#567DB6" stroke-width="1" />
<line stroke="#567DB6" stroke-width="1" x1="618" x2="594" y1="52.5" y2="137" />
<polyline fill="none" points="501.0 42.5,503.0 46.5,521.0 46.5,522.0 48.5,522.0 52.5,522.0 48.5,523.0 46.5,541.0 46.5,543.0 42.5" stroke="#567DB6" stroke-width="1" />
<line stroke="#567DB6" stroke-width="1" x1="522" x2="498" y1="52.5" y2="137" />
<polyline fill="none" points="405.0 42.5,407.0 46.5,425.0 46.5,426.0 48.5,426.0 52.5,426.0 48.5,427.0 46.5,445.0 46.5,447.0 42.5" stroke="#567DB6" stroke-width="1" />
<line stroke="#567DB6" stroke-width="1" x1="426" x2="402" y1="52.5" y2="137" />
<polyline fill="none" points="309.0 42.5,311.0 46.5,329.0 46.5,330.0 48.5,330.0 52.5,330.0 48.5,331.0 46.5,349.0 46.5,351.0 42.5" stroke="#567DB6" stroke-width="1" />
<line stroke="#567DB6" stroke-width="1" x1="330" x2="306" y1="52.5" y2="137" />
<polyline fill="none" points="213.0 42.5,215.0 46.5,233.0 46.5,234.0 48.5,234.0 52.5,234.0 48.5,235.0 46.5,253.0 46.5,255.0 42.5" stroke="#567DB6" stroke-width="1" />
<line stroke="#567DB6" stroke-width="1" x1="234" x2="210" y1="52.5" y2="137" />
<polyline fill="none" points="117.0 42.5,119.0 46.5,137.0 46.5,138.0 48.5,138.0 52.5,138.0 48.5,139.0 46.5,157.0 46.5,159.0 42.5" stroke="#567DB6" stroke-width="1" />
<line stroke="#567DB6" stroke-width="1" x1="138" x2="114" y1="52.5" y2="137" />
<line stroke="#567DB6" stroke-width="1" x1="834" x2="834" y1="90.5" y2="137" />
<line stroke="#567DB6" stroke-width="1" x1="738" x2="738" y1="90.5" y2="137" />
<line stroke="#567DB6" stroke-width="1" x1="642" x2="642" y1="90.5" y2="137" />
<line stroke="#567DB6" stroke-width="1" x1="546" x2="546" y1="90.5" y2="137" />
<line stroke="#567DB6" stroke-width="1" x1="450" x2="450" y1="90.5" y2="137" />
<line stroke="#567DB6" stroke-width="1" x1="354" x2="354" y1="90.5" y2="137" />
<line stroke="#567DB6" stroke-width="1" x1="258" x2="258" y1="90.5" y2="137" />
<line stroke="#567DB6" stroke-width="1" x1="162" x2="162" y1="90.5" y2="137" />
<line marker-end="url(#arrowhead)" stroke="none" x1="810" x2="786" y1="52.5" y2="137" />
<line marker-end="url(#arrowhead)" stroke="none" x1="714" x2="690" y1="52.5" y2="137" />
<line marker-end="url(#arrowhead)" stroke="none" x1="618" x2="594" y1="52.5" y2="137" />
<line marker-end="url(#arrowhead)" stroke="none" x1="522" x2="498" y1="52.5" y2="137" />
<line marker-end="url(#arrowhead)" stroke="none" x1="426" x2="402" y1="52.5" y2="137" />
<line marker-end="url(#arrowhead)" stroke="none" x1="330" x2="306" y1="52.5" y2="137" />
<line marker-end="url(#arrowhead)" stroke="none" x1="234" x2="210" y1="52.5" y2="137" />
<line marker-end="url(#arrowhead)" stroke="none" x1="138" x2="114" y1="52.5" y2="137" />
<line marker-end="url(#arrowhead)" stroke="none" x1="834" x2="834" y1="90.5" y2="137" />
<line marker-end="url(#arrowhead)" stroke="none" x1="738" x2="738" y1="90.5" y2="137" />
<line marker-end="url(#arrowhead)" stroke="none" x1="642" x2="642" y1="90.5" y2="137" />
<line marker-end="url(#arrowhead)" stroke="none" x1="546" x2="546" y1="90.5" y2="137" />
<line marker-end="url(#arrowhead)" stroke="none" x1="450" x2="450" y1="90.5" y2="137" />
<line marker-end="url(#arrowhead)" stroke="none" x1="354" x2="354" y1="90.5" y2="137" />
<line marker-end="url(#arrowhead)" stroke="none" x1="258" x2="258" y1="90.5" y2="137" />
<line marker-end="url(#arrowhead)" stroke="none" x1="162" x2="162" y1="90.5" y2="137" />
</svg>