<svg xmlns="http://www.w3.org/2000/svg" viewBox="0 0 486 123">
<style>
.label { font: 14px Helvetica; dominant-baseline: middle; text-anchor: middle; }
.title-left { font: 12px Helvetica; dominant-baseline: middle; }
.title-right { font: 12px Helvetica; dominant-baseline: middle; text-anchor: end; }
.title-intrinsic { font: 12px Helvetica; dominant-baseline: middle; text-anchor: middle; fill: #6778ED; }
.title { font: 12px Helvetica; dominant-baseline: middle; text-anchor: middle; }
.title-unused { font: 12px Helvetica; dominant-baseline: middle; text-anchor: middle; fill: #AAA; }
.register-name { font: 14px Helvetica; dominant-baseline: middle; text-anchor: end; font-style: italic; }
.memory-name { font: 14px Helvetica; dominant-baseline: middle; text-anchor: end; }
.register-number { font: 14px Helvetica; dominant-baseline: middle; text-anchor: start; }
.intrinsic-name { font: 14px Helvetica; dominant-baseline: middle; text-anchor: end; fill: #6778ED; }
.intrinsic-color { fill: #6778ED; }
.small-label { font: 12px Helvetica; dominant-baseline: middle; text-anchor: middle; }
.label-10px { font: 10px Helvetica; dominant-baseline: middle; text-anchor: middle; }
.smaller-label { font: 9px Helvetica; dominant-baseline: middle; text-anchor: middle; }
.label-6px { font: 6px Helvetica; dominant-baseline: middle; text-anchor: middle; }
.label-7px { font: 7px Helvetica; dominant-baseline: middle; text-anchor: middle; }
.unused { fill: #AAA; }
.dim { fill: #888; }
</style>
<defs>
<marker id="arrowhead" markerWidth="10.75" markerHeight="24.5" refX="9.0" refY="6.125" orient="auto">
<polyline points="0.5 0.5, 8.75 6.125, 0.5 11.75" stroke="#567DB6" stroke-width="1" fill="none"/>
</marker>
</defs>
<line stroke="#567DB6" stroke-width="1" x1="462" x2="462" y1="42.5" y2="89" />
<line stroke="#567DB6" stroke-width="1" x1="438" x2="438" y1="42.5" y2="89" />
<line stroke="#567DB6" stroke-width="1" x1="414" x2="414" y1="42.5" y2="89" />
<line stroke="#567DB6" stroke-width="1" x1="390" x2="390" y1="42.5" y2="89" />
<line stroke="#567DB6" stroke-width="1" x1="366" x2="366" y1="42.5" y2="89" />
<line stroke="#567DB6" stroke-width="1" x1="342" x2="342" y1="42.5" y2="89" />
<line stroke="#567DB6" stroke-width="1" x1="318" x2="318" y1="42.5" y2="89" />
<line stroke="#567DB6" stroke-width="1" x1="294" x2="294" y1="42.5" y2="89" />
<line stroke="#567DB6" stroke-width="1" x1="270" x2="270" y1="42.5" y2="89" />
<line stroke="#567DB6" stroke-width="1" x1="246" x2="246" y1="42.5" y2="89" />
<line stroke="#567DB6" stroke-width="1" x1="222" x2="222" y1="42.5" y2="89" />
<line stroke="#567DB6" stroke-width="1" x1="198" x2="198" y1="42.5" y2="89" />
<line stroke="#567DB6" stroke-width="1" x1="174" x2="174" y1="42.5" y2="89" />
<line stroke="#567DB6" stroke-width="1" x1="150" x2="150" y1="42.5" y2="89" />
<line stroke="#567DB6" stroke-width="1" x1="126" x2="126" y1="42.5" y2="89" />
<line stroke="#567DB6" stroke-width="1" x1="102" x2="102" y1="42.5" y2="89" />
<text class="title-left" x="90" y="9">upper</text>
<text class="title-right" x="474" y="9">lower</text>
<rect fill="#DEE6F1" height="24" width="3.75" x="470.25" y="18" />
<rect fill="#E0E4ED" height="24" width="2.75" x="467.5" y="18" />
<rect fill="#E2E3EA" height="24" width="2.75" x="464.75" y="18" />
<rect fill="#E4E2E7" height="24" width="2.75" x="462" y="18" />
<rect fill="#E7E0E4" height="24" width="2.75" x="459.25" y="18" />
<rect fill="#E9DFE1" height="24" width="2.75" x="456.5" y="18" />
<rect fill="#EBDEDE" height="24" width="2.75" x="453.75" y="18" />
<rect fill="#EEDDDB" height="24" width="3.75" x="450" y="18" />
<rect fill="none" height="24" stroke="#405C86" stroke-width="2" width="24" x="450" y="18" />
<rect fill="#DEE6F1" height="24" width="3.75" x="446.25" y="18" />
<rect fill="#E0E4ED" height="24" width="2.75" x="443.5" y="18" />
<rect fill="#E2E3EA" height="24" width="2.75" x="440.75" y="18" />
<rect fill="#E4E2E7" height="24" width="2.75" x="438" y="18" />
<rect fill="#E7E0E4" height="24" width="2.75" x="435.25" y="18" />
<rect fill="#E9DFE1" height="24" width="2.75" x="432.5" y="18" />
<rect fill="#EBDEDE" height="24" width="2.75" x="429.75" y="18" />
<rect fill="#EEDDDB" height="24" width="3.75" x="426" y="18" />
<rect fill="none" height="24" stroke="#405C86" stroke-width="2" width="24" x="426" y="18" />
<rect fill="#DEE6F1" height="24" width="3.75" x="422.25" y="18" />
<rect fill="#E0E4ED" height="24" width="2.75" x="419.5" y="18" />
<rect fill="#E2E3EA" height="24" width="2.75" x="416.75" y="18" />
<rect fill="#E4E2E7" height="24" width="2.75" x="414" y="18" />
<rect fill="#E7E0E4" height="24" width="2.75" x="411.25" y="18" />
<rect fill="#E9DFE1" height="24" width="2.75" x="408.5" y="18" />
<rect fill="#EBDEDE" height="24" width="2.75" x="405.75" y="18" />
<rect fill="#EEDDDB" height="24" width="3.75" x="402" y="18" />
<rect fill="none" height="24" stroke="#405C86" stroke-width="2" width="24" x="402" y="18" />
<rect fill="#DEE6F1" height="24" width="3.75" x="398.25" y="18" />
<rect fill="#E0E4ED" height="24" width="2.75" x="395.5" y="18" />
<rect fill="#E2E3EA" height="24" width="2.75" x="392.75" y="18" />
<rect fill="#E4E2E7" height="24" width="2.75" x="390" y="18" />
<rect fill="#E7E0E4" height="24" width="2.75" x="387.25" y="18" />
<rect fill="#E9DFE1" height="24" width="2.75" x="384.5" y="18" />
<rect fill="#EBDEDE" height="24" width="2.75" x="381.75" y="18" />
<rect fill="#EEDDDB" height="24" width="3.75" x="378" y="18" />
<rect fill="none" height="24" stroke="#405C86" stroke-width="2" width="24" x="378" y="18" />
<rect fill="#DEE6F1" height="24" width="3.75" x="374.25" y="18" />
<rect fill="#E0E4ED" height="24" width="2.75" x="371.5" y="18" />
<rect fill="#E2E3EA" height="24" width="2.75" x="368.75" y="18" />
<rect fill="#E4E2E7" height="24" width="2.75" x="366" y="18" />
<rect fill="#E7E0E4" height="24" width="2.75" x="363.25" y="18" />
<rect fill="#E9DFE1" height="24" width="2.75" x="360.5" y="18" />
<rect fill="#EBDEDE" height="24" width="2.75" x="357.75" y="18" />
<rect fill="#EEDDDB" height="24" width="3.75" x="354" y="18" />
<rect fill="none" height="24" stroke="#405C86" stroke-width="2" width="24" x="354" y="18" />
<rect fill="#DEE6F1" height="24" width="3.75" x="350.25" y="18" />
<rect fill="#E0E4ED" height="24" width="2.75" x="347.5" y="18" />
<rect fill="#E2E3EA" height="24" width="2.75" x="344.75" y="18" />
<rect fill="#E4E2E7" height="24" width="2.75" x="342" y="18" />
<rect fill="#E7E0E4" height="24" width="2.75" x="339.25" y="18" />
<rect fill="#E9DFE1" height="24" width="2.75" x="336.5" y="18" />
<rect fill="#EBDEDE" height="24" width="2.75" x="333.75" y="18" />
<rect fill="#EEDDDB" height="24" width="3.75" x="330" y="18" />
<rect fill="none" height="24" stroke="#405C86" stroke-width="2" width="24" x="330" y="18" />
<rect fill="#DEE6F1" height="24" width="3.75" x="326.25" y="18" />
<rect fill="#E0E4ED" height="24" width="2.75" x="323.5" y="18" />
<rect fill="#E2E3EA" height="24" width="2.75" x="320.75" y="18" />
<rect fill="#E4E2E7" height="24" width="2.75" x="318" y="18" />
<rect fill="#E7E0E4" height="24" width="2.75" x="315.25" y="18" />
<rect fill="#E9DFE1" height="24" width="2.75" x="312.5" y="18" />
<rect fill="#EBDEDE" height="24" width="2.75" x="309.75" y="18" />
<rect fill="#EEDDDB" height="24" width="3.75" x="306" y="18" />
<rect fill="none" height="24" stroke="#405C86" stroke-width="2" width="24" x="306" y="18" />
<rect fill="#DEE6F1" height="24" width="3.75" x="302.25" y="18" />
<rect fill="#E0E4ED" height="24" width="2.75" x="299.5" y="18" />
<rect fill="#E2E3EA" height="24" width="2.75" x="296.75" y="18" />
<rect fill="#E4E2E7" height="24" width="2.75" x="294" y="18" />
<rect fill="#E7E0E4" height="24" width="2.75" x="291.25" y="18" />
<rect fill="#E9DFE1" height="24" width="2.75" x="288.5" y="18" />
<rect fill="#EBDEDE" height="24" width="2.75" x="285.75" y="18" />
<rect fill="#EEDDDB" height="24" width="3.75" x="282" y="18" />
<rect fill="none" height="24" stroke="#405C86" stroke-width="2" width="24" x="282" y="18" />
<rect fill="#DEE6F1" height="24" width="3.75" x="278.25" y="18" />
<rect fill="#E0E4ED" height="24" width="2.75" x="275.5" y="18" />
<rect fill="#E2E3EA" height="24" width="2.75" x="272.75" y="18" />
<rect fill="#E4E2E7" height="24" width="2.75" x="270" y="18" />
<rect fill="#E7E0E4" height="24" width="2.75" x="267.25" y="18" />
<rect fill="#E9DFE1" height="24" width="2.75" x="264.5" y="18" />
<rect fill="#EBDEDE" height="24" width="2.75" x="261.75" y="18" />
<rect fill="#EEDDDB" height="24" width="3.75" x="258" y="18" />
<rect fill="none" height="24" stroke="#405C86" stroke-width="2" width="24" x="258" y="18" />
<rect fill="#DEE6F1" height="24" width="3.75" x="254.25" y="18" />
<rect fill="#E0E4ED" height="24" width="2.75" x="251.5" y="18" />
<rect fill="#E2E3EA" height="24" width="2.75" x="248.75" y="18" />
<rect fill="#E4E2E7" height="24" width="2.75" x="246" y="18" />
<rect fill="#E7E0E4" height="24" width="2.75" x="243.25" y="18" />
<rect fill="#E9DFE1" height="24" width="2.75" x="240.5" y="18" />
<rect fill="#EBDEDE" height="24" width="2.75" x="237.75" y="18" />
<rect fill="#EEDDDB" height="24" width="3.75" x="234" y="18" />
<rect fill="none" height="24" stroke="#405C86" stroke-width="2" width="24" x="234" y="18" />
<rect fill="#DEE6F1" height="24" width="3.75" x="230.25" y="18" />
<rect fill="#E0E4ED" height="24" width="2.75" x="227.5" y="18" />
<rect fill="#E2E3EA" height="24" width="2.75" x="224.75" y="18" />
<rect fill="#E4E2E7" height="24" width="2.75" x="222" y="18" />
<rect fill="#E7E0E4" height="24" width="2.75" x="219.25" y="18" />
<rect fill="#E9DFE1" height="24" width="2.75" x="216.5" y="18" />
<rect fill="#EBDEDE" height="24" width="2.75" x="213.75" y="18" />
<rect fill="#EEDDDB" height="24" width="3.75" x="210" y="18" />
<rect fill="none" height="24" stroke="#405C86" stroke-width="2" width="24" x="210" y="18" />
<rect fill="#DEE6F1" height="24" width="3.75" x="206.25" y="18" />
<rect fill="#E0E4ED" height="24" width="2.75" x="203.5" y="18" />
<rect fill="#E2E3EA" height="24" width="2.75" x="200.75" y="18" />
<rect fill="#E4E2E7" height="24" width="2.75" x="198" y="18" />
<rect fill="#E7E0E4" height="24" width="2.75" x="195.25" y="18" />
<rect fill="#E9DFE1" height="24" width="2.75" x="192.5" y="18" />
<rect fill="#EBDEDE" height="24" width="2.75" x="189.75" y="18" />
<rect fill="#EEDDDB" height="24" width="3.75" x="186" y="18" />
<rect fill="none" height="24" stroke="#405C86" stroke-width="2" width="24" x="186" y="18" />
<rect fill="#DEE6F1" height="24" width="3.75" x="182.25" y="18" />
<rect fill="#E0E4ED" height="24" width="2.75" x="179.5" y="18" />
<rect fill="#E2E3EA" height="24" width="2.75" x="176.75" y="18" />
<rect fill="#E4E2E7" height="24" width="2.75" x="174" y="18" />
<rect fill="#E7E0E4" height="24" width="2.75" x="171.25" y="18" />
<rect fill="#E9DFE1" height="24" width="2.75" x="168.5" y="18" />
<rect fill="#EBDEDE" height="24" width="2.75" x="165.75" y="18" />
<rect fill="#EEDDDB" height="24" width="3.75" x="162" y="18" />
<rect fill="none" height="24" stroke="#405C86" stroke-width="2" width="24" x="162" y="18" />
<rect fill="#DEE6F1" height="24" width="3.75" x="158.25" y="18" />
<rect fill="#E0E4ED" height="24" width="2.75" x="155.5" y="18" />
<rect fill="#E2E3EA" height="24" width="2.75" x="152.75" y="18" />
<rect fill="#E4E2E7" height="24" width="2.75" x="150" y="18" />
<rect fill="#E7E0E4" height="24" width="2.75" x="147.25" y="18" />
<rect fill="#E9DFE1" height="24" width="2.75" x="144.5" y="18" />
<rect fill="#EBDEDE" height="24" width="2.75" x="141.75" y="18" />
<rect fill="#EEDDDB" height="24" width="3.75" x="138" y="18" />
<rect fill="none" height="24" stroke="#405C86" stroke-width="2" width="24" x="138" y="18" />
<rect fill="#DEE6F1" height="24" width="3.75" x="134.25" y="18" />
<rect fill="#E0E4ED" height="24" width="2.75" x="131.5" y="18" />
<rect fill="#E2E3EA" height="24" width="2.75" x="128.75" y="18" />
<rect fill="#E4E2E7" height="24" width="2.75" x="126" y="18" />
<rect fill="#E7E0E4" height="24" width="2.75" x="123.25" y="18" />
<rect fill="#E9DFE1" height="24" width="2.75" x="120.5" y="18" />
<rect fill="#EBDEDE" height="24" width="2.75" x="117.75" y="18" />
<rect fill="#EEDDDB" height="24" width="3.75" x="114" y="18" />
<rect fill="none" height="24" stroke="#405C86" stroke-width="2" width="24" x="114" y="18" />
<rect fill="#DEE6F1" height="24" width="3.75" x="110.25" y="18" />
<rect fill="#E0E4ED" height="24" width="2.75" x="107.5" y="18" />
<rect fill="#E2E3EA" height="24" width="2.75" x="104.75" y="18" />
<rect fill="#E4E2E7" height="24" width="2.75" x="102" y="18" />
<rect fill="#E7E0E4" height="24" width="2.75" x="99.25" y="18" />
<rect fill="#E9DFE1" height="24" width="2.75" x="96.5" y="18" />
<rect fill="#EBDEDE" height="24" width="2.75" x="93.75" y="18" />
<rect fill="#EEDDDB" height="24" width="3.75" x="90" y="18" />
<rect fill="none" height="24" stroke="#405C86" stroke-width="2" width="24" x="90" y="18" />
<text class="register-name" x="80" y="30">Zn</text>
<text class="intrinsic-name" x="80" y="42">op</text>
<text class="register-number" x="10" y="30">(1)</text>
<rect fill="#EEDDDB" height="24" width="3.75" x="470.25" y="90" />
<rect fill="#EBDEDE" height="24" width="2.75" x="467.5" y="90" />
<rect fill="#E9DFE1" height="24" width="2.75" x="464.75" y="90" />
<rect fill="#E7E0E4" height="24" width="2.75" x="462" y="90" />
<rect fill="#E4E2E7" height="24" width="2.75" x="459.25" y="90" />
<rect fill="#E2E3EA" height="24" width="2.75" x="456.5" y="90" />
<rect fill="#E0E4ED" height="24" width="2.75" x="453.75" y="90" />
<rect fill="#DEE6F1" height="24" width="3.75" x="450" y="90" />
<rect fill="none" height="24" stroke="#405C86" stroke-width="2" width="24" x="450" y="90" />
<rect fill="#EEDDDB" height="24" width="3.75" x="446.25" y="90" />
<rect fill="#EBDEDE" height="24" width="2.75" x="443.5" y="90" />
<rect fill="#E9DFE1" height="24" width="2.75" x="440.75" y="90" />
<rect fill="#E7E0E4" height="24" width="2.75" x="438" y="90" />
<rect fill="#E4E2E7" height="24" width="2.75" x="435.25" y="90" />
<rect fill="#E2E3EA" height="24" width="2.75" x="432.5" y="90" />
<rect fill="#E0E4ED" height="24" width="2.75" x="429.75" y="90" />
<rect fill="#DEE6F1" height="24" width="3.75" x="426" y="90" />
<rect fill="none" height="24" stroke="#405C86" stroke-width="2" width="24" x="426" y="90" />
<rect fill="#EEDDDB" height="24" width="3.75" x="422.25" y="90" />
<rect fill="#EBDEDE" height="24" width="2.75" x="419.5" y="90" />
<rect fill="#E9DFE1" height="24" width="2.75" x="416.75" y="90" />
<rect fill="#E7E0E4" height="24" width="2.75" x="414" y="90" />
<rect fill="#E4E2E7" height="24" width="2.75" x="411.25" y="90" />
<rect fill="#E2E3EA" height="24" width="2.75" x="408.5" y="90" />
<rect fill="#E0E4ED" height="24" width="2.75" x="405.75" y="90" />
<rect fill="#DEE6F1" height="24" width="3.75" x="402" y="90" />
<rect fill="none" height="24" stroke="#405C86" stroke-width="2" width="24" x="402" y="90" />
<rect fill="#EEDDDB" height="24" width="3.75" x="398.25" y="90" />
<rect fill="#EBDEDE" height="24" width="2.75" x="395.5" y="90" />
<rect fill="#E9DFE1" height="24" width="2.75" x="392.75" y="90" />
<rect fill="#E7E0E4" height="24" width="2.75" x="390" y="90" />
<rect fill="#E4E2E7" height="24" width="2.75" x="387.25" y="90" />
<rect fill="#E2E3EA" height="24" width="2.75" x="384.5" y="90" />
<rect fill="#E0E4ED" height="24" width="2.75" x="381.75" y="90" />
<rect fill="#DEE6F1" height="24" width="3.75" x="378" y="90" />
<rect fill="none" height="24" stroke="#405C86" stroke-width="2" width="24" x="378" y="90" />
<rect fill="#EEDDDB" height="24" width="3.75" x="374.25" y="90" />
<rect fill="#EBDEDE" height="24" width="2.75" x="371.5" y="90" />
<rect fill="#E9DFE1" height="24" width="2.75" x="368.75" y="90" />
<rect fill="#E7E0E4" height="24" width="2.75" x="366" y="90" />
<rect fill="#E4E2E7" height="24" width="2.75" x="363.25" y="90" />
<rect fill="#E2E3EA" height="24" width="2.75" x="360.5" y="90" />
<rect fill="#E0E4ED" height="24" width="2.75" x="357.75" y="90" />
<rect fill="#DEE6F1" height="24" width="3.75" x="354" y="90" />
<rect fill="none" height="24" stroke="#405C86" stroke-width="2" width="24" x="354" y="90" />
<rect fill="#EEDDDB" height="24" width="3.75" x="350.25" y="90" />
<rect fill="#EBDEDE" height="24" width="2.75" x="347.5" y="90" />
<rect fill="#E9DFE1" height="24" width="2.75" x="344.75" y="90" />
<rect fill="#E7E0E4" height="24" width="2.75" x="342" y="90" />
<rect fill="#E4E2E7" height="24" width="2.75" x="339.25" y="90" />
<rect fill="#E2E3EA" height="24" width="2.75" x="336.5" y="90" />
<rect fill="#E0E4ED" height="24" width="2.75" x="333.75" y="90" />
<rect fill="#DEE6F1" height="24" width="3.75" x="330" y="90" />
<rect fill="none" height="24" stroke="#405C86" stroke-width="2" width="24" x="330" y="90" />
<rect fill="#EEDDDB" height="24" width="3.75" x="326.25" y="90" />
<rect fill="#EBDEDE" height="24" width="2.75" x="323.5" y="90" />
<rect fill="#E9DFE1" height="24" width="2.75" x="320.75" y="90" />
<rect fill="#E7E0E4" height="24" width="2.75" x="318" y="90" />
<rect fill="#E4E2E7" height="24" width="2.75" x="315.25" y="90" />
<rect fill="#E2E3EA" height="24" width="2.75" x="312.5" y="90" />
<rect fill="#E0E4ED" height="24" width="2.75" x="309.75" y="90" />
<rect fill="#DEE6F1" height="24" width="3.75" x="306" y="90" />
<rect fill="none" height="24" stroke="#405C86" stroke-width="2" width="24" x="306" y="90" />
<rect fill="#EEDDDB" height="24" width="3.75" x="302.25" y="90" />
<rect fill="#EBDEDE" height="24" width="2.75" x="299.5" y="90" />
<rect fill="#E9DFE1" height="24" width="2.75" x="296.75" y="90" />
<rect fill="#E7E0E4" height="24" width="2.75" x="294" y="90" />
<rect fill="#E4E2E7" height="24" width="2.75" x="291.25" y="90" />
<rect fill="#E2E3EA" height="24" width="2.75" x="288.5" y="90" />
<rect fill="#E0E4ED" height="24" width="2.75" x="285.75" y="90" />
<rect fill="#DEE6F1" height="24" width="3.75" x="282" y="90" />
<rect fill="none" height="24" stroke="#405C86" stroke-width="2" width="24" x="282" y="90" />
<rect fill="#EEDDDB" height="24" width="3.75" x="278.25" y="90" />
<rect fill="#EBDEDE" height="24" width="2.75" x="275.5" y="90" />
<rect fill="#E9DFE1" height="24" width="2.75" x="272.75" y="90" />
<rect fill="#E7E0E4" height="24" width="2.75" x="270" y="90" />
<rect fill="#E4E2E7" height="24" width="2.75" x="267.25" y="90" />
<rect fill="#E2E3EA" height="24" width="2.75" x="264.5" y="90" />
<rect fill="#E0E4ED" height="24" width="2.75" x="261.75" y="90" />
<rect fill="#DEE6F1" height="24" width="3.75" x="258" y="90" />
<rect fill="none" height="24" stroke="#405C86" stroke-width="2" width="24" x="258" y="90" />
<rect fill="#EEDDDB" height="24" width="3.75" x="254.25" y="90" />
<rect fill="#EBDEDE" height="24" width="2.75" x="251.5" y="90" />
<rect fill="#E9DFE1" height="24" width="2.75" x="248.75" y="90" />
<rect fill="#E7E0E4" height="24" width="2.75" x="246" y="90" />
<rect fill="#E4E2E7" height="24" width="2.75" x="243.25" y="90" />
<rect fill="#E2E3EA" height="24" width="2.75" x="240.5" y="90" />
<rect fill="#E0E4ED" height="24" width="2.75" x="237.75" y="90" />
<rect fill="#DEE6F1" height="24" width="3.75" x="234" y="90" />
<rect fill="none" height="24" stroke="#405C86" stroke-width="2" width="24" x="234" y="90" />
<rect fill="#EEDDDB" height="24" width="3.75" x="230.25" y="90" />
<rect fill="#EBDEDE" height="24" width="2.75" x="227.5" y="90" />
<rect fill="#E9DFE1" height="24" width="2.75" x="224.75" y="90" />
<rect fill="#E7E0E4" height="24" width="2.75" x="222" y="90" />
<rect fill="#E4E2E7" height="24" width="2.75" x="219.25" y="90" />
<rect fill="#E2E3EA" height="24" width="2.75" x="216.5" y="90" />
<rect fill="#E0E4ED" height="24" width="2.75" x="213.75" y="90" />
<rect fill="#DEE6F1" height="24" width="3.75" x="210" y="90" />
<rect fill="none" height="24" stroke="#405C86" stroke-width="2" width="24" x="210" y="90" />
<rect fill="#EEDDDB" height="24" width="3.75" x="206.25" y="90" />
<rect fill="#EBDEDE" height="24" width="2.75" x="203.5" y="90" />
<rect fill="#E9DFE1" height="24" width="2.75" x="200.75" y="90" />
<rect fill="#E7E0E4" height="24" width="2.75" x="198" y="90" />
<rect fill="#E4E2E7" height="24" width="2.75" x="195.25" y="90" />
<rect fill="#E2E3EA" height="24" width="2.75" x="192.5" y="90" />
<rect fill="#E0E4ED" height="24" width="2.75" x="189.75" y="90" />
<rect fill="#DEE6F1" height="24" width="3.75" x="186" y="90" />
<rect fill="none" height="24" stroke="#405C86" stroke-width="2" width="24" x="186" y="90" />
<rect fill="#EEDDDB" height="24" width="3.75" x="182.25" y="90" />
<rect fill="#EBDEDE" height="24" width="2.75" x="179.5" y="90" />
<rect fill="#E9DFE1" height="24" width="2.75" x="176.75" y="90" />
<rect fill="#E7E0E4" height="24" width="2.75" x="174" y="90" />
<rect fill="#E4E2E7" height="24" width="2.75" x="171.25" y="90" />
<rect fill="#E2E3EA" height="24" width="2.75" x="168.5" y="90" />
<rect fill="#E0E4ED" height="24" width="2.75" x="165.75" y="90" />
<rect fill="#DEE6F1" height="24" width="3.75" x="162" y="90" />
<rect fill="none" height="24" stroke="#405C86" stroke-width="2" width="24" x="162" y="90" />
<rect fill="#EEDDDB" height="24" width="3.75" x="158.25" y="90" />
<rect fill="#EBDEDE" height="24" width="2.75" x="155.5" y="90" />
<rect fill="#E9DFE1" height="24" width="2.75" x="152.75" y="90" />
<rect fill="#E7E0E4" height="24" width="2.75" x="150" y="90" />
<rect fill="#E4E2E7" height="24" width="2.75" x="147.25" y="90" />
<rect fill="#E2E3EA" height="24" width="2.75" x="144.5" y="90" />
<rect fill="#E0E4ED" height="24" width="2.75" x="141.75" y="90" />
<rect fill="#DEE6F1" height="24" width="3.75" x="138" y="90" />
<rect fill="none" height="24" stroke="#405C86" stroke-width="2" width="24" x="138" y="90" />
<rect fill="#EEDDDB" height="24" width="3.75" x="134.25" y="90" />
<rect fill="#EBDEDE" height="24" width="2.75" x="131.5" y="90" />
<rect fill="#E9DFE1" height="24" width="2.75" x="128.75" y="90" />
<rect fill="#E7E0E4" height="24" width="2.75" x="126" y="90" />
<rect fill="#E4E2E7" height="24" width="2.75" x="123.25" y="90" />
<rect fill="#E2E3EA" height="24" width="2.75" x="120.5" y="90" />
<rect fill="#E0E4ED" height="24" width="2.75" x="117.75" y="90" />
<rect fill="#DEE6F1" height="24" width="3.75" x="114" y="90" />
<rect fill="none" height="24" stroke="#405C86" stroke-width="2" width="24" x="114" y="90" />
<rect fill="#EEDDDB" height="24" width="3.75" x="110.25" y="90" />
<rect fill="#EBDEDE" height="24" width="2.75" x="107.5" y="90" />
<rect fill="#E9DFE1" height="24" width="2.75" x="104.75" y="90" />
<rect fill="#E7E0E4" height="24" width="2.75" x="102" y="90" />
<rect fill="#E4E2E7" height="24" width="2.75" x="99.25" y="90" />
<rect fill="#E2E3EA" height="24" width="2.75" x="96.5" y="90" />
<rect fill="#E0E4ED" height="24" width="2.75" x="93.75" y="90" />
<rect fill="#DEE6F1" height="24" width="3.75" x="90" y="90" />
<rect fill="none" height="24" stroke="#405C86" stroke-width="2" width="24" x="90" y="90" />
<text class="register-name" x="80" y="102">Zd</text>
<text class="intrinsic-name" x="80" y="114">returns</text>
<text class="register-number" x="10" y="102">(2)</text>
<line marker-end="url(#arrowhead)" stroke="none" x1="462" x2="462" y1="42.5" y2="89" />
<line marker-end="url(#arrowhead)" stroke="none" x1="438" x2="438" y1="42.5" y2="89" />
<line marker-end="url(#arrowhead)" stroke="none" x1="414" x2="414" y1="42.5" y2="89" />
<line marker-end="url(#arrowhead)" stroke="none" x1="390" x2="390" y1="42.5" y2="89" />
<line marker-end="url(#arrowhead)" stroke="none" x1="366" x2="366" y1="42.5" y2="89" />
<line marker-end="url(#arrowhead)" stroke="none" x1="342" x2="342" y1="42.5" y2="89" />
<line marker-end="url(#arrowhead)" stroke="none" x1="318" x2="318" y1="42.5" y2="89" />
<line marker-end="url(#arrowhead)" stroke="none" x1="294" x2="294" y1="42.5" y2="89" />
<line marker-end="url(#arrowhead)" stroke="none" x1="270" x2="270" y1="42.5" y2="89" />
<line marker-end="url(#arrowhead)" stroke="none" x1="246" x2="246" y1="42.5" y2="89" />
<line marker-end="url(#arrowhead)" stroke="none" x1="222" x2="222" y1="42.5" y2="89" />
<line marker-end="url(#arrowhead)" stroke="none" x1="198" x2="198" y1="42.5" y2="89" />
<line marker-end="url(#arrowhead)" stroke="none" x1="174" x2="174" y1="42.5" y2="89" />
<line marker-end="url(#arrowhead)" stroke="none" x1="150" x2="150" y1="42.5" y2="89" />
<line marker-end="url(#arrowhead)" stroke="none" x1="126" x2="126" y1="42.5" y2="89" />
<line marker-end="url(#arrowhead)" stroke="none" x1="102" x2="102" y1="42.5" y2="89" />
</svg>