<svg xmlns="http://www.w3.org/2000/svg" viewBox="0 0 1638 123">
<style>
.label { font: 14px Helvetica; dominant-baseline: middle; text-anchor: middle; }
.title-left { font: 12px Helvetica; dominant-baseline: middle; }
.title-right { font: 12px Helvetica; dominant-baseline: middle; text-anchor: end; }
.title-intrinsic { font: 12px Helvetica; dominant-baseline: middle; text-anchor: middle; fill: #6778ED; }
.title { font: 12px Helvetica; dominant-baseline: middle; text-anchor: middle; }
.title-unused { font: 12px Helvetica; dominant-baseline: middle; text-anchor: middle; fill: #AAA; }
.register-name { font: 14px Helvetica; dominant-baseline: middle; text-anchor: end; font-style: italic; }
.memory-name { font: 14px Helvetica; dominant-baseline: middle; text-anchor: end; }
.register-number { font: 14px Helvetica; dominant-baseline: middle; text-anchor: start; }
.intrinsic-name { font: 14px Helvetica; dominant-baseline: middle; text-anchor: end; fill: #6778ED; }
.intrinsic-color { fill: #6778ED; }
.small-label { font: 12px Helvetica; dominant-baseline: middle; text-anchor: middle; }
.label-10px { font: 10px Helvetica; dominant-baseline: middle; text-anchor: middle; }
.smaller-label { font: 9px Helvetica; dominant-baseline: middle; text-anchor: middle; }
.label-6px { font: 6px Helvetica; dominant-baseline: middle; text-anchor: middle; }
.label-7px { font: 7px Helvetica; dominant-baseline: middle; text-anchor: middle; }
.unused { fill: #AAA; }
.dim { fill: #888; }
</style>
<defs>
<marker id="arrowhead" markerWidth="10.75" markerHeight="24.5" refX="9.0" refY="6.125" orient="auto">
<polyline points="0.5 0.5, 8.75 6.125, 0.5 11.75" stroke="#567DB6" stroke-width="1" fill="none"/>
</marker>
</defs>
<line stroke="#567DB6" stroke-width="1" x1="1614" x2="102" y1="42.5" y2="89" />
<line stroke="#567DB6" stroke-width="1" x1="102" x2="1614" y1="42.5" y2="89" />
<text class="title-left" x="90" y="9">upper</text>
<text class="title-right" x="1626" y="9">lower</text>
<rect fill="#DEE6F1" height="24" width="24" x="1602" y="18" />
<rect fill="none" height="24" stroke="#405C86" stroke-width="2" width="24" x="1602" y="18" />
<text class="label" x="1614" y="31">0</text>
<rect fill="#DEE5F0" height="24" width="24" x="1578" y="18" />
<rect fill="none" height="24" stroke="#405C86" stroke-width="2" width="24" x="1578" y="18" />
<text class="label" x="1590" y="31">1</text>
<rect fill="#DEE5F0" height="24" width="24" x="1554" y="18" />
<rect fill="none" height="24" stroke="#405C86" stroke-width="2" width="24" x="1554" y="18" />
<text class="label" x="1566" y="31">2</text>
<rect fill="#DEE5EF" height="24" width="24" x="1530" y="18" />
<rect fill="none" height="24" stroke="#405C86" stroke-width="2" width="24" x="1530" y="18" />
<text class="label" x="1542" y="31">3</text>
<rect fill="#DFE5EF" height="24" width="24" x="1506" y="18" />
<rect fill="none" height="24" stroke="#405C86" stroke-width="2" width="24" x="1506" y="18" />
<text class="label" x="1518" y="31">4</text>
<rect fill="#DFE5EF" height="24" width="24" x="1482" y="18" />
<rect fill="none" height="24" stroke="#405C86" stroke-width="2" width="24" x="1482" y="18" />
<text class="label" x="1494" y="31">5</text>
<rect fill="#DFE5EE" height="24" width="24" x="1458" y="18" />
<rect fill="none" height="24" stroke="#405C86" stroke-width="2" width="24" x="1458" y="18" />
<text class="label" x="1470" y="31">6</text>
<rect fill="#DFE4EE" height="24" width="24" x="1434" y="18" />
<rect fill="none" height="24" stroke="#405C86" stroke-width="2" width="24" x="1434" y="18" />
<text class="label" x="1446" y="31">7</text>
<rect fill="#E0E4EE" height="24" width="24" x="1410" y="18" />
<rect fill="none" height="24" stroke="#405C86" stroke-width="2" width="24" x="1410" y="18" />
<text class="label" x="1422" y="31">8</text>
<rect fill="#E0E4ED" height="24" width="24" x="1386" y="18" />
<rect fill="none" height="24" stroke="#405C86" stroke-width="2" width="24" x="1386" y="18" />
<text class="label" x="1398" y="31">9</text>
<rect fill="#E0E4ED" height="24" width="24" x="1362" y="18" />
<rect fill="none" height="24" stroke="#405C86" stroke-width="2" width="24" x="1362" y="18" />
<text class="label" x="1374" y="31">10</text>
<rect fill="#E0E4ED" height="24" width="24" x="1338" y="18" />
<rect fill="none" height="24" stroke="#405C86" stroke-width="2" width="24" x="1338" y="18" />
<text class="label" x="1350" y="31">11</text>
<rect fill="#E1E4EC" height="24" width="24" x="1314" y="18" />
<rect fill="none" height="24" stroke="#405C86" stroke-width="2" width="24" x="1314" y="18" />
<text class="label" x="1326" y="31">12</text>
<rect fill="#E1E4EC" height="24" width="24" x="1290" y="18" />
<rect fill="none" height="24" stroke="#405C86" stroke-width="2" width="24" x="1290" y="18" />
<text class="label" x="1302" y="31">13</text>
<rect fill="#E1E4EC" height="24" width="24" x="1266" y="18" />
<rect fill="none" height="24" stroke="#405C86" stroke-width="2" width="24" x="1266" y="18" />
<text class="label" x="1278" y="31">14</text>
<rect fill="#E1E3EB" height="24" width="24" x="1242" y="18" />
<rect fill="none" height="24" stroke="#405C86" stroke-width="2" width="24" x="1242" y="18" />
<text class="label" x="1254" y="31">15</text>
<rect fill="#E2E3EB" height="24" width="24" x="1218" y="18" />
<rect fill="none" height="24" stroke="#405C86" stroke-width="2" width="24" x="1218" y="18" />
<text class="label" x="1230" y="31">16</text>
<rect fill="#E2E3EB" height="24" width="24" x="1194" y="18" />
<rect fill="none" height="24" stroke="#405C86" stroke-width="2" width="24" x="1194" y="18" />
<text class="label" x="1206" y="31">17</text>
<rect fill="#E2E3EA" height="24" width="24" x="1170" y="18" />
<rect fill="none" height="24" stroke="#405C86" stroke-width="2" width="24" x="1170" y="18" />
<text class="label" x="1182" y="31">18</text>
<rect fill="#E2E3EA" height="24" width="24" x="1146" y="18" />
<rect fill="none" height="24" stroke="#405C86" stroke-width="2" width="24" x="1146" y="18" />
<text class="label" x="1158" y="31">19</text>
<rect fill="#E3E3EA" height="24" width="24" x="1122" y="18" />
<rect fill="none" height="24" stroke="#405C86" stroke-width="2" width="24" x="1122" y="18" />
<text class="label" x="1134" y="31">20</text>
<rect fill="#E3E3E9" height="24" width="24" x="1098" y="18" />
<rect fill="none" height="24" stroke="#405C86" stroke-width="2" width="24" x="1098" y="18" />
<text class="label" x="1110" y="31">21</text>
<rect fill="#E3E2E9" height="24" width="24" x="1074" y="18" />
<rect fill="none" height="24" stroke="#405C86" stroke-width="2" width="24" x="1074" y="18" />
<text class="label" x="1086" y="31">22</text>
<rect fill="#E3E2E8" height="24" width="24" x="1050" y="18" />
<rect fill="none" height="24" stroke="#405C86" stroke-width="2" width="24" x="1050" y="18" />
<text class="label" x="1062" y="31">23</text>
<rect fill="#E4E2E8" height="24" width="24" x="1026" y="18" />
<rect fill="none" height="24" stroke="#405C86" stroke-width="2" width="24" x="1026" y="18" />
<text class="label" x="1038" y="31">24</text>
<rect fill="#E4E2E8" height="24" width="24" x="1002" y="18" />
<rect fill="none" height="24" stroke="#405C86" stroke-width="2" width="24" x="1002" y="18" />
<text class="label" x="1014" y="31">25</text>
<rect fill="#E4E2E7" height="24" width="24" x="978" y="18" />
<rect fill="none" height="24" stroke="#405C86" stroke-width="2" width="24" x="978" y="18" />
<text class="label" x="990" y="31">26</text>
<rect fill="#E4E2E7" height="24" width="24" x="954" y="18" />
<rect fill="none" height="24" stroke="#405C86" stroke-width="2" width="24" x="954" y="18" />
<text class="label" x="966" y="31">27</text>
<rect fill="#E5E2E7" height="24" width="24" x="930" y="18" />
<rect fill="none" height="24" stroke="#405C86" stroke-width="2" width="24" x="930" y="18" />
<text class="label" x="942" y="31">28</text>
<rect fill="#E5E1E6" height="24" width="24" x="906" y="18" />
<rect fill="none" height="24" stroke="#405C86" stroke-width="2" width="24" x="906" y="18" />
<text class="label" x="918" y="31">29</text>
<rect fill="#E5E1E6" height="24" width="24" x="882" y="18" />
<rect fill="none" height="24" stroke="#405C86" stroke-width="2" width="24" x="882" y="18" />
<text class="label" x="894" y="31">30</text>
<rect fill="#E5E1E6" height="24" width="24" x="858" y="18" />
<rect fill="none" height="24" stroke="#405C86" stroke-width="2" width="24" x="858" y="18" />
<text class="label" x="870" y="31">31</text>
<rect fill="#E6E1E5" height="24" width="24" x="834" y="18" />
<rect fill="none" height="24" stroke="#405C86" stroke-width="2" width="24" x="834" y="18" />
<text class="label" x="846" y="31">32</text>
<rect fill="#E6E1E5" height="24" width="24" x="810" y="18" />
<rect fill="none" height="24" stroke="#405C86" stroke-width="2" width="24" x="810" y="18" />
<text class="label" x="822" y="31">33</text>
<rect fill="#E6E1E5" height="24" width="24" x="786" y="18" />
<rect fill="none" height="24" stroke="#405C86" stroke-width="2" width="24" x="786" y="18" />
<text class="label" x="798" y="31">34</text>
<rect fill="#E6E1E4" height="24" width="24" x="762" y="18" />
<rect fill="none" height="24" stroke="#405C86" stroke-width="2" width="24" x="762" y="18" />
<text class="label" x="774" y="31">35</text>
<rect fill="#E7E0E4" height="24" width="24" x="738" y="18" />
<rect fill="none" height="24" stroke="#405C86" stroke-width="2" width="24" x="738" y="18" />
<text class="label" x="750" y="31">36</text>
<rect fill="#E7E0E4" height="24" width="24" x="714" y="18" />
<rect fill="none" height="24" stroke="#405C86" stroke-width="2" width="24" x="714" y="18" />
<text class="label" x="726" y="31">37</text>
<rect fill="#E7E0E3" height="24" width="24" x="690" y="18" />
<rect fill="none" height="24" stroke="#405C86" stroke-width="2" width="24" x="690" y="18" />
<text class="label" x="702" y="31">38</text>
<rect fill="#E7E0E3" height="24" width="24" x="666" y="18" />
<rect fill="none" height="24" stroke="#405C86" stroke-width="2" width="24" x="666" y="18" />
<text class="label" x="678" y="31">39</text>
<rect fill="#E8E0E3" height="24" width="24" x="642" y="18" />
<rect fill="none" height="24" stroke="#405C86" stroke-width="2" width="24" x="642" y="18" />
<text class="label" x="654" y="31">40</text>
<rect fill="#E8E0E2" height="24" width="24" x="618" y="18" />
<rect fill="none" height="24" stroke="#405C86" stroke-width="2" width="24" x="618" y="18" />
<text class="label" x="630" y="31">41</text>
<rect fill="#E8E0E2" height="24" width="24" x="594" y="18" />
<rect fill="none" height="24" stroke="#405C86" stroke-width="2" width="24" x="594" y="18" />
<text class="label" x="606" y="31">42</text>
<rect fill="#E8DFE1" height="24" width="24" x="570" y="18" />
<rect fill="none" height="24" stroke="#405C86" stroke-width="2" width="24" x="570" y="18" />
<text class="label" x="582" y="31">43</text>
<rect fill="#E9DFE1" height="24" width="24" x="546" y="18" />
<rect fill="none" height="24" stroke="#405C86" stroke-width="2" width="24" x="546" y="18" />
<text class="label" x="558" y="31">44</text>
<rect fill="#E9DFE1" height="24" width="24" x="522" y="18" />
<rect fill="none" height="24" stroke="#405C86" stroke-width="2" width="24" x="522" y="18" />
<text class="label" x="534" y="31">45</text>
<rect fill="#E9DFE0" height="24" width="24" x="498" y="18" />
<rect fill="none" height="24" stroke="#405C86" stroke-width="2" width="24" x="498" y="18" />
<text class="label" x="510" y="31">46</text>
<rect fill="#E9DFE0" height="24" width="24" x="474" y="18" />
<rect fill="none" height="24" stroke="#405C86" stroke-width="2" width="24" x="474" y="18" />
<text class="label" x="486" y="31">47</text>
<rect fill="#EADFE0" height="24" width="24" x="450" y="18" />
<rect fill="none" height="24" stroke="#405C86" stroke-width="2" width="24" x="450" y="18" />
<text class="label" x="462" y="31">48</text>
<rect fill="#EADFDF" height="24" width="24" x="426" y="18" />
<rect fill="none" height="24" stroke="#405C86" stroke-width="2" width="24" x="426" y="18" />
<text class="label" x="438" y="31">49</text>
<rect fill="#EADEDF" height="24" width="24" x="402" y="18" />
<rect fill="none" height="24" stroke="#405C86" stroke-width="2" width="24" x="402" y="18" />
<text class="label" x="414" y="31">50</text>
<rect fill="#EADEDF" height="24" width="24" x="378" y="18" />
<rect fill="none" height="24" stroke="#405C86" stroke-width="2" width="24" x="378" y="18" />
<text class="label" x="390" y="31">51</text>
<rect fill="#EBDEDE" height="24" width="24" x="354" y="18" />
<rect fill="none" height="24" stroke="#405C86" stroke-width="2" width="24" x="354" y="18" />
<text class="label" x="366" y="31">52</text>
<rect fill="#EBDEDE" height="24" width="24" x="330" y="18" />
<rect fill="none" height="24" stroke="#405C86" stroke-width="2" width="24" x="330" y="18" />
<text class="label" x="342" y="31">53</text>
<rect fill="#EBDEDE" height="24" width="24" x="306" y="18" />
<rect fill="none" height="24" stroke="#405C86" stroke-width="2" width="24" x="306" y="18" />
<text class="label" x="318" y="31">54</text>
<rect fill="#EBDEDD" height="24" width="24" x="282" y="18" />
<rect fill="none" height="24" stroke="#405C86" stroke-width="2" width="24" x="282" y="18" />
<text class="label" x="294" y="31">55</text>
<rect fill="#ECDEDD" height="24" width="24" x="258" y="18" />
<rect fill="none" height="24" stroke="#405C86" stroke-width="2" width="24" x="258" y="18" />
<text class="label" x="270" y="31">56</text>
<rect fill="#ECDDDD" height="24" width="24" x="234" y="18" />
<rect fill="none" height="24" stroke="#405C86" stroke-width="2" width="24" x="234" y="18" />
<text class="label" x="246" y="31">57</text>
<rect fill="#ECDDDC" height="24" width="24" x="210" y="18" />
<rect fill="none" height="24" stroke="#405C86" stroke-width="2" width="24" x="210" y="18" />
<text class="label" x="222" y="31">58</text>
<rect fill="#ECDDDC" height="24" width="24" x="186" y="18" />
<rect fill="none" height="24" stroke="#405C86" stroke-width="2" width="24" x="186" y="18" />
<text class="label" x="198" y="31">59</text>
<rect fill="#EDDDDC" height="24" width="24" x="162" y="18" />
<rect fill="none" height="24" stroke="#405C86" stroke-width="2" width="24" x="162" y="18" />
<text class="label" x="174" y="31">60</text>
<rect fill="#EDDDDB" height="24" width="24" x="138" y="18" />
<rect fill="none" height="24" stroke="#405C86" stroke-width="2" width="24" x="138" y="18" />
<text class="label" x="150" y="31">61</text>
<rect fill="#EDDDDB" height="24" width="24" x="114" y="18" />
<rect fill="none" height="24" stroke="#405C86" stroke-width="2" width="24" x="114" y="18" />
<text class="label" x="126" y="31">62</text>
<rect fill="#EEDDDB" height="24" width="24" x="90" y="18" />
<rect fill="none" height="24" stroke="#405C86" stroke-width="2" width="24" x="90" y="18" />
<text class="label" x="102" y="31">63</text>
<text class="register-name" x="80" y="30">Zn</text>
<text class="intrinsic-name" x="80" y="42">op</text>
<text class="register-number" x="10" y="30">(1)</text>
<rect fill="#EEDDDB" height="24" width="24" x="1602" y="90" />
<rect fill="none" height="24" stroke="#405C86" stroke-width="2" width="24" x="1602" y="90" />
<text class="label" x="1614" y="103">63</text>
<rect fill="#EDDDDB" height="24" width="24" x="1578" y="90" />
<rect fill="none" height="24" stroke="#405C86" stroke-width="2" width="24" x="1578" y="90" />
<text class="label" x="1590" y="103">62</text>
<rect fill="#EDDDDB" height="24" width="24" x="1554" y="90" />
<rect fill="none" height="24" stroke="#405C86" stroke-width="2" width="24" x="1554" y="90" />
<text class="label" x="1566" y="103">61</text>
<rect fill="#EDDDDC" height="24" width="24" x="1530" y="90" />
<rect fill="none" height="24" stroke="#405C86" stroke-width="2" width="24" x="1530" y="90" />
<text class="label" x="1542" y="103">60</text>
<rect fill="#ECDDDC" height="24" width="24" x="1506" y="90" />
<rect fill="none" height="24" stroke="#405C86" stroke-width="2" width="24" x="1506" y="90" />
<text class="label" x="1518" y="103">59</text>
<rect fill="#ECDDDC" height="24" width="24" x="1482" y="90" />
<rect fill="none" height="24" stroke="#405C86" stroke-width="2" width="24" x="1482" y="90" />
<text class="label" x="1494" y="103">58</text>
<rect fill="#ECDDDD" height="24" width="24" x="1458" y="90" />
<rect fill="none" height="24" stroke="#405C86" stroke-width="2" width="24" x="1458" y="90" />
<text class="label" x="1470" y="103">57</text>
<rect fill="#ECDEDD" height="24" width="24" x="1434" y="90" />
<rect fill="none" height="24" stroke="#405C86" stroke-width="2" width="24" x="1434" y="90" />
<text class="label" x="1446" y="103">56</text>
<rect fill="#EBDEDD" height="24" width="24" x="1410" y="90" />
<rect fill="none" height="24" stroke="#405C86" stroke-width="2" width="24" x="1410" y="90" />
<text class="label" x="1422" y="103">55</text>
<rect fill="#EBDEDE" height="24" width="24" x="1386" y="90" />
<rect fill="none" height="24" stroke="#405C86" stroke-width="2" width="24" x="1386" y="90" />
<text class="label" x="1398" y="103">54</text>
<rect fill="#EBDEDE" height="24" width="24" x="1362" y="90" />
<rect fill="none" height="24" stroke="#405C86" stroke-width="2" width="24" x="1362" y="90" />
<text class="label" x="1374" y="103">53</text>
<rect fill="#EBDEDE" height="24" width="24" x="1338" y="90" />
<rect fill="none" height="24" stroke="#405C86" stroke-width="2" width="24" x="1338" y="90" />
<text class="label" x="1350" y="103">52</text>
<rect fill="#EADEDF" height="24" width="24" x="1314" y="90" />
<rect fill="none" height="24" stroke="#405C86" stroke-width="2" width="24" x="1314" y="90" />
<text class="label" x="1326" y="103">51</text>
<rect fill="#EADEDF" height="24" width="24" x="1290" y="90" />
<rect fill="none" height="24" stroke="#405C86" stroke-width="2" width="24" x="1290" y="90" />
<text class="label" x="1302" y="103">50</text>
<rect fill="#EADFDF" height="24" width="24" x="1266" y="90" />
<rect fill="none" height="24" stroke="#405C86" stroke-width="2" width="24" x="1266" y="90" />
<text class="label" x="1278" y="103">49</text>
<rect fill="#EADFE0" height="24" width="24" x="1242" y="90" />
<rect fill="none" height="24" stroke="#405C86" stroke-width="2" width="24" x="1242" y="90" />
<text class="label" x="1254" y="103">48</text>
<rect fill="#E9DFE0" height="24" width="24" x="1218" y="90" />
<rect fill="none" height="24" stroke="#405C86" stroke-width="2" width="24" x="1218" y="90" />
<text class="label" x="1230" y="103">47</text>
<rect fill="#E9DFE0" height="24" width="24" x="1194" y="90" />
<rect fill="none" height="24" stroke="#405C86" stroke-width="2" width="24" x="1194" y="90" />
<text class="label" x="1206" y="103">46</text>
<rect fill="#E9DFE1" height="24" width="24" x="1170" y="90" />
<rect fill="none" height="24" stroke="#405C86" stroke-width="2" width="24" x="1170" y="90" />
<text class="label" x="1182" y="103">45</text>
<rect fill="#E9DFE1" height="24" width="24" x="1146" y="90" />
<rect fill="none" height="24" stroke="#405C86" stroke-width="2" width="24" x="1146" y="90" />
<text class="label" x="1158" y="103">44</text>
<rect fill="#E8DFE1" height="24" width="24" x="1122" y="90" />
<rect fill="none" height="24" stroke="#405C86" stroke-width="2" width="24" x="1122" y="90" />
<text class="label" x="1134" y="103">43</text>
<rect fill="#E8E0E2" height="24" width="24" x="1098" y="90" />
<rect fill="none" height="24" stroke="#405C86" stroke-width="2" width="24" x="1098" y="90" />
<text class="label" x="1110" y="103">42</text>
<rect fill="#E8E0E2" height="24" width="24" x="1074" y="90" />
<rect fill="none" height="24" stroke="#405C86" stroke-width="2" width="24" x="1074" y="90" />
<text class="label" x="1086" y="103">41</text>
<rect fill="#E8E0E3" height="24" width="24" x="1050" y="90" />
<rect fill="none" height="24" stroke="#405C86" stroke-width="2" width="24" x="1050" y="90" />
<text class="label" x="1062" y="103">40</text>
<rect fill="#E7E0E3" height="24" width="24" x="1026" y="90" />
<rect fill="none" height="24" stroke="#405C86" stroke-width="2" width="24" x="1026" y="90" />
<text class="label" x="1038" y="103">39</text>
<rect fill="#E7E0E3" height="24" width="24" x="1002" y="90" />
<rect fill="none" height="24" stroke="#405C86" stroke-width="2" width="24" x="1002" y="90" />
<text class="label" x="1014" y="103">38</text>
<rect fill="#E7E0E4" height="24" width="24" x="978" y="90" />
<rect fill="none" height="24" stroke="#405C86" stroke-width="2" width="24" x="978" y="90" />
<text class="label" x="990" y="103">37</text>
<rect fill="#E7E0E4" height="24" width="24" x="954" y="90" />
<rect fill="none" height="24" stroke="#405C86" stroke-width="2" width="24" x="954" y="90" />
<text class="label" x="966" y="103">36</text>
<rect fill="#E6E1E4" height="24" width="24" x="930" y="90" />
<rect fill="none" height="24" stroke="#405C86" stroke-width="2" width="24" x="930" y="90" />
<text class="label" x="942" y="103">35</text>
<rect fill="#E6E1E5" height="24" width="24" x="906" y="90" />
<rect fill="none" height="24" stroke="#405C86" stroke-width="2" width="24" x="906" y="90" />
<text class="label" x="918" y="103">34</text>
<rect fill="#E6E1E5" height="24" width="24" x="882" y="90" />
<rect fill="none" height="24" stroke="#405C86" stroke-width="2" width="24" x="882" y="90" />
<text class="label" x="894" y="103">33</text>
<rect fill="#E6E1E5" height="24" width="24" x="858" y="90" />
<rect fill="none" height="24" stroke="#405C86" stroke-width="2" width="24" x="858" y="90" />
<text class="label" x="870" y="103">32</text>
<rect fill="#E5E1E6" height="24" width="24" x="834" y="90" />
<rect fill="none" height="24" stroke="#405C86" stroke-width="2" width="24" x="834" y="90" />
<text class="label" x="846" y="103">31</text>
<rect fill="#E5E1E6" height="24" width="24" x="810" y="90" />
<rect fill="none" height="24" stroke="#405C86" stroke-width="2" width="24" x="810" y="90" />
<text class="label" x="822" y="103">30</text>
<rect fill="#E5E1E6" height="24" width="24" x="786" y="90" />
<rect fill="none" height="24" stroke="#405C86" stroke-width="2" width="24" x="786" y="90" />
<text class="label" x="798" y="103">29</text>
<rect fill="#E5E2E7" height="24" width="24" x="762" y="90" />
<rect fill="none" height="24" stroke="#405C86" stroke-width="2" width="24" x="762" y="90" />
<text class="label" x="774" y="103">28</text>
<rect fill="#E4E2E7" height="24" width="24" x="738" y="90" />
<rect fill="none" height="24" stroke="#405C86" stroke-width="2" width="24" x="738" y="90" />
<text class="label" x="750" y="103">27</text>
<rect fill="#E4E2E7" height="24" width="24" x="714" y="90" />
<rect fill="none" height="24" stroke="#405C86" stroke-width="2" width="24" x="714" y="90" />
<text class="label" x="726" y="103">26</text>
<rect fill="#E4E2E8" height="24" width="24" x="690" y="90" />
<rect fill="none" height="24" stroke="#405C86" stroke-width="2" width="24" x="690" y="90" />
<text class="label" x="702" y="103">25</text>
<rect fill="#E4E2E8" height="24" width="24" x="666" y="90" />
<rect fill="none" height="24" stroke="#405C86" stroke-width="2" width="24" x="666" y="90" />
<text class="label" x="678" y="103">24</text>
<rect fill="#E3E2E8" height="24" width="24" x="642" y="90" />
<rect fill="none" height="24" stroke="#405C86" stroke-width="2" width="24" x="642" y="90" />
<text class="label" x="654" y="103">23</text>
<rect fill="#E3E2E9" height="24" width="24" x="618" y="90" />
<rect fill="none" height="24" stroke="#405C86" stroke-width="2" width="24" x="618" y="90" />
<text class="label" x="630" y="103">22</text>
<rect fill="#E3E3E9" height="24" width="24" x="594" y="90" />
<rect fill="none" height="24" stroke="#405C86" stroke-width="2" width="24" x="594" y="90" />
<text class="label" x="606" y="103">21</text>
<rect fill="#E3E3EA" height="24" width="24" x="570" y="90" />
<rect fill="none" height="24" stroke="#405C86" stroke-width="2" width="24" x="570" y="90" />
<text class="label" x="582" y="103">20</text>
<rect fill="#E2E3EA" height="24" width="24" x="546" y="90" />
<rect fill="none" height="24" stroke="#405C86" stroke-width="2" width="24" x="546" y="90" />
<text class="label" x="558" y="103">19</text>
<rect fill="#E2E3EA" height="24" width="24" x="522" y="90" />
<rect fill="none" height="24" stroke="#405C86" stroke-width="2" width="24" x="522" y="90" />
<text class="label" x="534" y="103">18</text>
<rect fill="#E2E3EB" height="24" width="24" x="498" y="90" />
<rect fill="none" height="24" stroke="#405C86" stroke-width="2" width="24" x="498" y="90" />
<text class="label" x="510" y="103">17</text>
<rect fill="#E2E3EB" height="24" width="24" x="474" y="90" />
<rect fill="none" height="24" stroke="#405C86" stroke-width="2" width="24" x="474" y="90" />
<text class="label" x="486" y="103">16</text>
<rect fill="#E1E3EB" height="24" width="24" x="450" y="90" />
<rect fill="none" height="24" stroke="#405C86" stroke-width="2" width="24" x="450" y="90" />
<text class="label" x="462" y="103">15</text>
<rect fill="#E1E4EC" height="24" width="24" x="426" y="90" />
<rect fill="none" height="24" stroke="#405C86" stroke-width="2" width="24" x="426" y="90" />
<text class="label" x="438" y="103">14</text>
<rect fill="#E1E4EC" height="24" width="24" x="402" y="90" />
<rect fill="none" height="24" stroke="#405C86" stroke-width="2" width="24" x="402" y="90" />
<text class="label" x="414" y="103">13</text>
<rect fill="#E1E4EC" height="24" width="24" x="378" y="90" />
<rect fill="none" height="24" stroke="#405C86" stroke-width="2" width="24" x="378" y="90" />
<text class="label" x="390" y="103">12</text>
<rect fill="#E0E4ED" height="24" width="24" x="354" y="90" />
<rect fill="none" height="24" stroke="#405C86" stroke-width="2" width="24" x="354" y="90" />
<text class="label" x="366" y="103">11</text>
<rect fill="#E0E4ED" height="24" width="24" x="330" y="90" />
<rect fill="none" height="24" stroke="#405C86" stroke-width="2" width="24" x="330" y="90" />
<text class="label" x="342" y="103">10</text>
<rect fill="#E0E4ED" height="24" width="24" x="306" y="90" />
<rect fill="none" height="24" stroke="#405C86" stroke-width="2" width="24" x="306" y="90" />
<text class="label" x="318" y="103">9</text>
<rect fill="#E0E4EE" height="24" width="24" x="282" y="90" />
<rect fill="none" height="24" stroke="#405C86" stroke-width="2" width="24" x="282" y="90" />
<text class="label" x="294" y="103">8</text>
<rect fill="#DFE4EE" height="24" width="24" x="258" y="90" />
<rect fill="none" height="24" stroke="#405C86" stroke-width="2" width="24" x="258" y="90" />
<text class="label" x="270" y="103">7</text>
<rect fill="#DFE5EE" height="24" width="24" x="234" y="90" />
<rect fill="none" height="24" stroke="#405C86" stroke-width="2" width="24" x="234" y="90" />
<text class="label" x="246" y="103">6</text>
<rect fill="#DFE5EF" height="24" width="24" x="210" y="90" />
<rect fill="none" height="24" stroke="#405C86" stroke-width="2" width="24" x="210" y="90" />
<text class="label" x="222" y="103">5</text>
<rect fill="#DFE5EF" height="24" width="24" x="186" y="90" />
<rect fill="none" height="24" stroke="#405C86" stroke-width="2" width="24" x="186" y="90" />
<text class="label" x="198" y="103">4</text>
<rect fill="#DEE5EF" height="24" width="24" x="162" y="90" />
<rect fill="none" height="24" stroke="#405C86" stroke-width="2" width="24" x="162" y="90" />
<text class="label" x="174" y="103">3</text>
<rect fill="#DEE5F0" height="24" width="24" x="138" y="90" />
<rect fill="none" height="24" stroke="#405C86" stroke-width="2" width="24" x="138" y="90" />
<text class="label" x="150" y="103">2</text>
<rect fill="#DEE5F0" height="24" width="24" x="114" y="90" />
<rect fill="none" height="24" stroke="#405C86" stroke-width="2" width="24" x="114" y="90" />
<text class="label" x="126" y="103">1</text>
<rect fill="#DEE6F1" height="24" width="24" x="90" y="90" />
<rect fill="none" height="24" stroke="#405C86" stroke-width="2" width="24" x="90" y="90" />
<text class="label" x="102" y="103">0</text>
<text class="register-name" x="80" y="102">Zd</text>
<text class="intrinsic-name" x="80" y="114">returns</text>
<text class="register-number" x="10" y="102">(2)</text>
<line marker-end="url(#arrowhead)" stroke="none" x1="1614" x2="102" y1="42.5" y2="89" />
<line marker-end="url(#arrowhead)" stroke="none" x1="102" x2="1614" y1="42.5" y2="89" />
</svg>