<svg xmlns="http://www.w3.org/2000/svg" viewBox="0 0 870 123">
<style>
.label { font: 14px Helvetica; dominant-baseline: middle; text-anchor: middle; }
.title-left { font: 12px Helvetica; dominant-baseline: middle; }
.title-right { font: 12px Helvetica; dominant-baseline: middle; text-anchor: end; }
.title-intrinsic { font: 12px Helvetica; dominant-baseline: middle; text-anchor: middle; fill: #6778ED; }
.title { font: 12px Helvetica; dominant-baseline: middle; text-anchor: middle; }
.title-unused { font: 12px Helvetica; dominant-baseline: middle; text-anchor: middle; fill: #AAA; }
.register-name { font: 14px Helvetica; dominant-baseline: middle; text-anchor: end; font-style: italic; }
.memory-name { font: 14px Helvetica; dominant-baseline: middle; text-anchor: end; }
.register-number { font: 14px Helvetica; dominant-baseline: middle; text-anchor: start; }
.intrinsic-name { font: 14px Helvetica; dominant-baseline: middle; text-anchor: end; fill: #6778ED; }
.intrinsic-color { fill: #6778ED; }
.small-label { font: 12px Helvetica; dominant-baseline: middle; text-anchor: middle; }
.label-10px { font: 10px Helvetica; dominant-baseline: middle; text-anchor: middle; }
.smaller-label { font: 9px Helvetica; dominant-baseline: middle; text-anchor: middle; }
.label-6px { font: 6px Helvetica; dominant-baseline: middle; text-anchor: middle; }
.label-7px { font: 7px Helvetica; dominant-baseline: middle; text-anchor: middle; }
.unused { fill: #AAA; }
.dim { fill: #888; }
</style>
<defs>
<marker id="arrowhead" markerWidth="10.75" markerHeight="24.5" refX="9.0" refY="6.125" orient="auto">
<polyline points="0.5 0.5, 8.75 6.125, 0.5 11.75" stroke="#567DB6" stroke-width="1" fill="none"/>
</marker>
</defs>
<text class="title-left" x="90" y="9">upper</text>
<text class="title-right" x="858" y="9">lower</text>
<rect fill="#DEE6F1" height="24" width="48" x="810" y="18" />
<line stroke="#405C86" stroke-dasharray="3 1" stroke-width="0.75" x1="845.5" x2="845.5" y1="18" y2="42" />
<line stroke="#405C86" stroke-dasharray="3 1" stroke-width="0.75" x1="834" x2="834" y1="18" y2="42" />
<line stroke="#405C86" stroke-dasharray="3 1" stroke-width="0.75" x1="822.5" x2="822.5" y1="18" y2="42" />
<rect fill="none" height="24" stroke="#405C86" stroke-width="2" width="48" x="810" y="18" />
<rect fill="#DFE5EF" height="24" width="48" x="762" y="18" />
<line stroke="#405C86" stroke-dasharray="3 1" stroke-width="0.75" x1="797.5" x2="797.5" y1="18" y2="42" />
<line stroke="#405C86" stroke-dasharray="3 1" stroke-width="0.75" x1="786" x2="786" y1="18" y2="42" />
<line stroke="#405C86" stroke-dasharray="3 1" stroke-width="0.75" x1="774.5" x2="774.5" y1="18" y2="42" />
<rect fill="none" height="24" stroke="#405C86" stroke-width="2" width="48" x="762" y="18" />
<rect fill="#E0E4EE" height="24" width="48" x="714" y="18" />
<line stroke="#405C86" stroke-dasharray="3 1" stroke-width="0.75" x1="749.5" x2="749.5" y1="18" y2="42" />
<line stroke="#405C86" stroke-dasharray="3 1" stroke-width="0.75" x1="738" x2="738" y1="18" y2="42" />
<line stroke="#405C86" stroke-dasharray="3 1" stroke-width="0.75" x1="726.5" x2="726.5" y1="18" y2="42" />
<rect fill="none" height="24" stroke="#405C86" stroke-width="2" width="48" x="714" y="18" />
<rect fill="#E1E4EC" height="24" width="48" x="666" y="18" />
<line stroke="#405C86" stroke-dasharray="3 1" stroke-width="0.75" x1="701.5" x2="701.5" y1="18" y2="42" />
<line stroke="#405C86" stroke-dasharray="3 1" stroke-width="0.75" x1="690" x2="690" y1="18" y2="42" />
<line stroke="#405C86" stroke-dasharray="3 1" stroke-width="0.75" x1="678.5" x2="678.5" y1="18" y2="42" />
<rect fill="none" height="24" stroke="#405C86" stroke-width="2" width="48" x="666" y="18" />
<rect fill="#E2E3EB" height="24" width="48" x="618" y="18" />
<line stroke="#405C86" stroke-dasharray="3 1" stroke-width="0.75" x1="653.5" x2="653.5" y1="18" y2="42" />
<line stroke="#405C86" stroke-dasharray="3 1" stroke-width="0.75" x1="642" x2="642" y1="18" y2="42" />
<line stroke="#405C86" stroke-dasharray="3 1" stroke-width="0.75" x1="630.5" x2="630.5" y1="18" y2="42" />
<rect fill="none" height="24" stroke="#405C86" stroke-width="2" width="48" x="618" y="18" />
<rect fill="#E3E3E9" height="24" width="48" x="570" y="18" />
<line stroke="#405C86" stroke-dasharray="3 1" stroke-width="0.75" x1="605.5" x2="605.5" y1="18" y2="42" />
<line stroke="#405C86" stroke-dasharray="3 1" stroke-width="0.75" x1="594" x2="594" y1="18" y2="42" />
<line stroke="#405C86" stroke-dasharray="3 1" stroke-width="0.75" x1="582.5" x2="582.5" y1="18" y2="42" />
<rect fill="none" height="24" stroke="#405C86" stroke-width="2" width="48" x="570" y="18" />
<rect fill="#E4E2E8" height="24" width="48" x="522" y="18" />
<line stroke="#405C86" stroke-dasharray="3 1" stroke-width="0.75" x1="557.5" x2="557.5" y1="18" y2="42" />
<line stroke="#405C86" stroke-dasharray="3 1" stroke-width="0.75" x1="546" x2="546" y1="18" y2="42" />
<line stroke="#405C86" stroke-dasharray="3 1" stroke-width="0.75" x1="534.5" x2="534.5" y1="18" y2="42" />
<rect fill="none" height="24" stroke="#405C86" stroke-width="2" width="48" x="522" y="18" />
<rect fill="#E5E1E6" height="24" width="48" x="474" y="18" />
<line stroke="#405C86" stroke-dasharray="3 1" stroke-width="0.75" x1="509.5" x2="509.5" y1="18" y2="42" />
<line stroke="#405C86" stroke-dasharray="3 1" stroke-width="0.75" x1="498" x2="498" y1="18" y2="42" />
<line stroke="#405C86" stroke-dasharray="3 1" stroke-width="0.75" x1="486.5" x2="486.5" y1="18" y2="42" />
<rect fill="none" height="24" stroke="#405C86" stroke-width="2" width="48" x="474" y="18" />
<rect fill="#E6E1E5" height="24" width="48" x="426" y="18" />
<line stroke="#405C86" stroke-dasharray="3 1" stroke-width="0.75" x1="461.5" x2="461.5" y1="18" y2="42" />
<line stroke="#405C86" stroke-dasharray="3 1" stroke-width="0.75" x1="450" x2="450" y1="18" y2="42" />
<line stroke="#405C86" stroke-dasharray="3 1" stroke-width="0.75" x1="438.5" x2="438.5" y1="18" y2="42" />
<rect fill="none" height="24" stroke="#405C86" stroke-width="2" width="48" x="426" y="18" />
<rect fill="#E7E0E3" height="24" width="48" x="378" y="18" />
<line stroke="#405C86" stroke-dasharray="3 1" stroke-width="0.75" x1="413.5" x2="413.5" y1="18" y2="42" />
<line stroke="#405C86" stroke-dasharray="3 1" stroke-width="0.75" x1="402" x2="402" y1="18" y2="42" />
<line stroke="#405C86" stroke-dasharray="3 1" stroke-width="0.75" x1="390.5" x2="390.5" y1="18" y2="42" />
<rect fill="none" height="24" stroke="#405C86" stroke-width="2" width="48" x="378" y="18" />
<rect fill="#E8E0E2" height="24" width="48" x="330" y="18" />
<line stroke="#405C86" stroke-dasharray="3 1" stroke-width="0.75" x1="365.5" x2="365.5" y1="18" y2="42" />
<line stroke="#405C86" stroke-dasharray="3 1" stroke-width="0.75" x1="354" x2="354" y1="18" y2="42" />
<line stroke="#405C86" stroke-dasharray="3 1" stroke-width="0.75" x1="342.5" x2="342.5" y1="18" y2="42" />
<rect fill="none" height="24" stroke="#405C86" stroke-width="2" width="48" x="330" y="18" />
<rect fill="#E9DFE0" height="24" width="48" x="282" y="18" />
<line stroke="#405C86" stroke-dasharray="3 1" stroke-width="0.75" x1="317.5" x2="317.5" y1="18" y2="42" />
<line stroke="#405C86" stroke-dasharray="3 1" stroke-width="0.75" x1="306" x2="306" y1="18" y2="42" />
<line stroke="#405C86" stroke-dasharray="3 1" stroke-width="0.75" x1="294.5" x2="294.5" y1="18" y2="42" />
<rect fill="none" height="24" stroke="#405C86" stroke-width="2" width="48" x="282" y="18" />
<rect fill="#EADEDF" height="24" width="48" x="234" y="18" />
<line stroke="#405C86" stroke-dasharray="3 1" stroke-width="0.75" x1="269.5" x2="269.5" y1="18" y2="42" />
<line stroke="#405C86" stroke-dasharray="3 1" stroke-width="0.75" x1="258" x2="258" y1="18" y2="42" />
<line stroke="#405C86" stroke-dasharray="3 1" stroke-width="0.75" x1="246.5" x2="246.5" y1="18" y2="42" />
<rect fill="none" height="24" stroke="#405C86" stroke-width="2" width="48" x="234" y="18" />
<rect fill="#EBDEDD" height="24" width="48" x="186" y="18" />
<line stroke="#405C86" stroke-dasharray="3 1" stroke-width="0.75" x1="221.5" x2="221.5" y1="18" y2="42" />
<line stroke="#405C86" stroke-dasharray="3 1" stroke-width="0.75" x1="210" x2="210" y1="18" y2="42" />
<line stroke="#405C86" stroke-dasharray="3 1" stroke-width="0.75" x1="198.5" x2="198.5" y1="18" y2="42" />
<rect fill="none" height="24" stroke="#405C86" stroke-width="2" width="48" x="186" y="18" />
<rect fill="#ECDDDC" height="24" width="48" x="138" y="18" />
<line stroke="#405C86" stroke-dasharray="3 1" stroke-width="0.75" x1="173.5" x2="173.5" y1="18" y2="42" />
<line stroke="#405C86" stroke-dasharray="3 1" stroke-width="0.75" x1="162" x2="162" y1="18" y2="42" />
<line stroke="#405C86" stroke-dasharray="3 1" stroke-width="0.75" x1="150.5" x2="150.5" y1="18" y2="42" />
<rect fill="none" height="24" stroke="#405C86" stroke-width="2" width="48" x="138" y="18" />
<rect fill="#EEDDDB" height="24" width="48" x="90" y="18" />
<line stroke="#405C86" stroke-dasharray="3 1" stroke-width="0.75" x1="125.5" x2="125.5" y1="18" y2="42" />
<line stroke="#405C86" stroke-dasharray="3 1" stroke-width="0.75" x1="114" x2="114" y1="18" y2="42" />
<line stroke="#405C86" stroke-dasharray="3 1" stroke-width="0.75" x1="102.5" x2="102.5" y1="18" y2="42" />
<rect fill="none" height="24" stroke="#405C86" stroke-width="2" width="48" x="90" y="18" />
<text class="register-name" x="80" y="30">Pn</text>
<text class="intrinsic-name" x="80" y="42">op</text>
<text class="register-number" x="10" y="30">(1)</text>
<rect fill="#EEDDDB" height="24" width="48" x="810" y="90" />
<line stroke="#405C86" stroke-dasharray="3 1" stroke-width="0.75" x1="845.5" x2="845.5" y1="90" y2="114" />
<line stroke="#405C86" stroke-dasharray="3 1" stroke-width="0.75" x1="834" x2="834" y1="90" y2="114" />
<line stroke="#405C86" stroke-dasharray="3 1" stroke-width="0.75" x1="822.5" x2="822.5" y1="90" y2="114" />
<rect fill="none" height="24" stroke="#405C86" stroke-width="2" width="48" x="810" y="90" />
<rect fill="#ECDDDC" height="24" width="48" x="762" y="90" />
<line stroke="#405C86" stroke-dasharray="3 1" stroke-width="0.75" x1="797.5" x2="797.5" y1="90" y2="114" />
<line stroke="#405C86" stroke-dasharray="3 1" stroke-width="0.75" x1="786" x2="786" y1="90" y2="114" />
<line stroke="#405C86" stroke-dasharray="3 1" stroke-width="0.75" x1="774.5" x2="774.5" y1="90" y2="114" />
<rect fill="none" height="24" stroke="#405C86" stroke-width="2" width="48" x="762" y="90" />
<rect fill="#EBDEDD" height="24" width="48" x="714" y="90" />
<line stroke="#405C86" stroke-dasharray="3 1" stroke-width="0.75" x1="749.5" x2="749.5" y1="90" y2="114" />
<line stroke="#405C86" stroke-dasharray="3 1" stroke-width="0.75" x1="738" x2="738" y1="90" y2="114" />
<line stroke="#405C86" stroke-dasharray="3 1" stroke-width="0.75" x1="726.5" x2="726.5" y1="90" y2="114" />
<rect fill="none" height="24" stroke="#405C86" stroke-width="2" width="48" x="714" y="90" />
<rect fill="#EADEDF" height="24" width="48" x="666" y="90" />
<line stroke="#405C86" stroke-dasharray="3 1" stroke-width="0.75" x1="701.5" x2="701.5" y1="90" y2="114" />
<line stroke="#405C86" stroke-dasharray="3 1" stroke-width="0.75" x1="690" x2="690" y1="90" y2="114" />
<line stroke="#405C86" stroke-dasharray="3 1" stroke-width="0.75" x1="678.5" x2="678.5" y1="90" y2="114" />
<rect fill="none" height="24" stroke="#405C86" stroke-width="2" width="48" x="666" y="90" />
<rect fill="#E9DFE0" height="24" width="48" x="618" y="90" />
<line stroke="#405C86" stroke-dasharray="3 1" stroke-width="0.75" x1="653.5" x2="653.5" y1="90" y2="114" />
<line stroke="#405C86" stroke-dasharray="3 1" stroke-width="0.75" x1="642" x2="642" y1="90" y2="114" />
<line stroke="#405C86" stroke-dasharray="3 1" stroke-width="0.75" x1="630.5" x2="630.5" y1="90" y2="114" />
<rect fill="none" height="24" stroke="#405C86" stroke-width="2" width="48" x="618" y="90" />
<rect fill="#E8E0E2" height="24" width="48" x="570" y="90" />
<line stroke="#405C86" stroke-dasharray="3 1" stroke-width="0.75" x1="605.5" x2="605.5" y1="90" y2="114" />
<line stroke="#405C86" stroke-dasharray="3 1" stroke-width="0.75" x1="594" x2="594" y1="90" y2="114" />
<line stroke="#405C86" stroke-dasharray="3 1" stroke-width="0.75" x1="582.5" x2="582.5" y1="90" y2="114" />
<rect fill="none" height="24" stroke="#405C86" stroke-width="2" width="48" x="570" y="90" />
<rect fill="#E7E0E3" height="24" width="48" x="522" y="90" />
<line stroke="#405C86" stroke-dasharray="3 1" stroke-width="0.75" x1="557.5" x2="557.5" y1="90" y2="114" />
<line stroke="#405C86" stroke-dasharray="3 1" stroke-width="0.75" x1="546" x2="546" y1="90" y2="114" />
<line stroke="#405C86" stroke-dasharray="3 1" stroke-width="0.75" x1="534.5" x2="534.5" y1="90" y2="114" />
<rect fill="none" height="24" stroke="#405C86" stroke-width="2" width="48" x="522" y="90" />
<rect fill="#E6E1E5" height="24" width="48" x="474" y="90" />
<line stroke="#405C86" stroke-dasharray="3 1" stroke-width="0.75" x1="509.5" x2="509.5" y1="90" y2="114" />
<line stroke="#405C86" stroke-dasharray="3 1" stroke-width="0.75" x1="498" x2="498" y1="90" y2="114" />
<line stroke="#405C86" stroke-dasharray="3 1" stroke-width="0.75" x1="486.5" x2="486.5" y1="90" y2="114" />
<rect fill="none" height="24" stroke="#405C86" stroke-width="2" width="48" x="474" y="90" />
<rect fill="#E5E1E6" height="24" width="48" x="426" y="90" />
<line stroke="#405C86" stroke-dasharray="3 1" stroke-width="0.75" x1="461.5" x2="461.5" y1="90" y2="114" />
<line stroke="#405C86" stroke-dasharray="3 1" stroke-width="0.75" x1="450" x2="450" y1="90" y2="114" />
<line stroke="#405C86" stroke-dasharray="3 1" stroke-width="0.75" x1="438.5" x2="438.5" y1="90" y2="114" />
<rect fill="none" height="24" stroke="#405C86" stroke-width="2" width="48" x="426" y="90" />
<rect fill="#E4E2E8" height="24" width="48" x="378" y="90" />
<line stroke="#405C86" stroke-dasharray="3 1" stroke-width="0.75" x1="413.5" x2="413.5" y1="90" y2="114" />
<line stroke="#405C86" stroke-dasharray="3 1" stroke-width="0.75" x1="402" x2="402" y1="90" y2="114" />
<line stroke="#405C86" stroke-dasharray="3 1" stroke-width="0.75" x1="390.5" x2="390.5" y1="90" y2="114" />
<rect fill="none" height="24" stroke="#405C86" stroke-width="2" width="48" x="378" y="90" />
<rect fill="#E3E3E9" height="24" width="48" x="330" y="90" />
<line stroke="#405C86" stroke-dasharray="3 1" stroke-width="0.75" x1="365.5" x2="365.5" y1="90" y2="114" />
<line stroke="#405C86" stroke-dasharray="3 1" stroke-width="0.75" x1="354" x2="354" y1="90" y2="114" />
<line stroke="#405C86" stroke-dasharray="3 1" stroke-width="0.75" x1="342.5" x2="342.5" y1="90" y2="114" />
<rect fill="none" height="24" stroke="#405C86" stroke-width="2" width="48" x="330" y="90" />
<rect fill="#E2E3EB" height="24" width="48" x="282" y="90" />
<line stroke="#405C86" stroke-dasharray="3 1" stroke-width="0.75" x1="317.5" x2="317.5" y1="90" y2="114" />
<line stroke="#405C86" stroke-dasharray="3 1" stroke-width="0.75" x1="306" x2="306" y1="90" y2="114" />
<line stroke="#405C86" stroke-dasharray="3 1" stroke-width="0.75" x1="294.5" x2="294.5" y1="90" y2="114" />
<rect fill="none" height="24" stroke="#405C86" stroke-width="2" width="48" x="282" y="90" />
<rect fill="#E1E4EC" height="24" width="48" x="234" y="90" />
<line stroke="#405C86" stroke-dasharray="3 1" stroke-width="0.75" x1="269.5" x2="269.5" y1="90" y2="114" />
<line stroke="#405C86" stroke-dasharray="3 1" stroke-width="0.75" x1="258" x2="258" y1="90" y2="114" />
<line stroke="#405C86" stroke-dasharray="3 1" stroke-width="0.75" x1="246.5" x2="246.5" y1="90" y2="114" />
<rect fill="none" height="24" stroke="#405C86" stroke-width="2" width="48" x="234" y="90" />
<rect fill="#E0E4EE" height="24" width="48" x="186" y="90" />
<line stroke="#405C86" stroke-dasharray="3 1" stroke-width="0.75" x1="221.5" x2="221.5" y1="90" y2="114" />
<line stroke="#405C86" stroke-dasharray="3 1" stroke-width="0.75" x1="210" x2="210" y1="90" y2="114" />
<line stroke="#405C86" stroke-dasharray="3 1" stroke-width="0.75" x1="198.5" x2="198.5" y1="90" y2="114" />
<rect fill="none" height="24" stroke="#405C86" stroke-width="2" width="48" x="186" y="90" />
<rect fill="#DFE5EF" height="24" width="48" x="138" y="90" />
<line stroke="#405C86" stroke-dasharray="3 1" stroke-width="0.75" x1="173.5" x2="173.5" y1="90" y2="114" />
<line stroke="#405C86" stroke-dasharray="3 1" stroke-width="0.75" x1="162" x2="162" y1="90" y2="114" />
<line stroke="#405C86" stroke-dasharray="3 1" stroke-width="0.75" x1="150.5" x2="150.5" y1="90" y2="114" />
<rect fill="none" height="24" stroke="#405C86" stroke-width="2" width="48" x="138" y="90" />
<rect fill="#DEE6F1" height="24" width="48" x="90" y="90" />
<line stroke="#405C86" stroke-dasharray="3 1" stroke-width="0.75" x1="125.5" x2="125.5" y1="90" y2="114" />
<line stroke="#405C86" stroke-dasharray="3 1" stroke-width="0.75" x1="114" x2="114" y1="90" y2="114" />
<line stroke="#405C86" stroke-dasharray="3 1" stroke-width="0.75" x1="102.5" x2="102.5" y1="90" y2="114" />
<rect fill="none" height="24" stroke="#405C86" stroke-width="2" width="48" x="90" y="90" />
<text class="register-name" x="80" y="102">Pd</text>
<text class="intrinsic-name" x="80" y="114">returns</text>
<text class="register-number" x="10" y="102">(2)</text>
<line stroke="#567DB6" stroke-width="1" x1="834" x2="114" y1="42.5" y2="89" />
<line stroke="#567DB6" stroke-width="1" x1="114" x2="834" y1="42.5" y2="89" />
<line marker-end="url(#arrowhead)" stroke="none" x1="834" x2="114" y1="42.5" y2="89" />
<line marker-end="url(#arrowhead)" stroke="none" x1="114" x2="834" y1="42.5" y2="89" />
</svg>