<svg xmlns="http://www.w3.org/2000/svg" viewBox="0 0 486 123">
<style>
.label { font: 14px Helvetica; dominant-baseline: middle; text-anchor: middle; }
.title-left { font: 12px Helvetica; dominant-baseline: middle; }
.title-right { font: 12px Helvetica; dominant-baseline: middle; text-anchor: end; }
.title-intrinsic { font: 12px Helvetica; dominant-baseline: middle; text-anchor: middle; fill: #6778ED; }
.title { font: 12px Helvetica; dominant-baseline: middle; text-anchor: middle; }
.title-unused { font: 12px Helvetica; dominant-baseline: middle; text-anchor: middle; fill: #AAA; }
.register-name { font: 14px Helvetica; dominant-baseline: middle; text-anchor: end; font-style: italic; }
.memory-name { font: 14px Helvetica; dominant-baseline: middle; text-anchor: end; }
.register-number { font: 14px Helvetica; dominant-baseline: middle; text-anchor: start; }
.intrinsic-name { font: 14px Helvetica; dominant-baseline: middle; text-anchor: end; fill: #6778ED; }
.intrinsic-color { fill: #6778ED; }
.small-label { font: 12px Helvetica; dominant-baseline: middle; text-anchor: middle; }
.label-10px { font: 10px Helvetica; dominant-baseline: middle; text-anchor: middle; }
.smaller-label { font: 9px Helvetica; dominant-baseline: middle; text-anchor: middle; }
.label-6px { font: 6px Helvetica; dominant-baseline: middle; text-anchor: middle; }
.label-7px { font: 7px Helvetica; dominant-baseline: middle; text-anchor: middle; }
.unused { fill: #AAA; }
.dim { fill: #888; }
</style>
<defs>
<marker id="arrowhead" markerWidth="10.75" markerHeight="24.5" refX="9.0" refY="6.125" orient="auto">
<polyline points="0.5 0.5, 8.75 6.125, 0.5 11.75" stroke="#567DB6" stroke-width="1" fill="none"/>
</marker>
</defs>
<polyline fill="none" points="405.0 42.5,407.0 46.5,425.0 46.5,426.0 48.5,426.0 52.5,426.0 48.5,427.0 46.5,445.0 46.5,447.0 42.5" stroke="#567DB6" stroke-width="1" />
<line stroke="#567DB6" stroke-width="1" x1="426" x2="450" y1="52.5" y2="89" />
<polyline fill="none" points="309.0 42.5,311.0 46.5,329.0 46.5,330.0 48.5,330.0 52.5,330.0 48.5,331.0 46.5,349.0 46.5,351.0 42.5" stroke="#567DB6" stroke-width="1" />
<line stroke="#567DB6" stroke-width="1" x1="330" x2="354" y1="52.5" y2="89" />
<polyline fill="none" points="213.0 42.5,215.0 46.5,233.0 46.5,234.0 48.5,234.0 52.5,234.0 48.5,235.0 46.5,253.0 46.5,255.0 42.5" stroke="#567DB6" stroke-width="1" />
<line stroke="#567DB6" stroke-width="1" x1="234" x2="258" y1="52.5" y2="89" />
<polyline fill="none" points="117.0 42.5,119.0 46.5,137.0 46.5,138.0 48.5,138.0 52.5,138.0 48.5,139.0 46.5,157.0 46.5,159.0 42.5" stroke="#567DB6" stroke-width="1" />
<line stroke="#567DB6" stroke-width="1" x1="138" x2="162" y1="52.5" y2="89" />
<text class="title-left" x="90" y="9">upper</text>
<text class="title-right" x="474" y="9">lower</text>
<rect fill="#DEE6F1" height="24" width="47" x="402.5" y="18" />
<rect fill="#ECF1E0" height="24" width="2.9375" x="449.5" y="18" />
<rect fill="none" height="24" stroke="#405C86" stroke-width="2" width="96" x="378" y="18" />
<rect fill="#DEE6F1" height="24" width="47" x="306.5" y="18" />
<rect fill="#ECF1E0" height="24" width="2.9375" x="353.5" y="18" />
<rect fill="none" height="24" stroke="#405C86" stroke-width="2" width="96" x="282" y="18" />
<rect fill="#DEE6F1" height="24" width="47" x="210.5" y="18" />
<rect fill="#ECF1E0" height="24" width="2.9375" x="257.5" y="18" />
<rect fill="none" height="24" stroke="#405C86" stroke-width="2" width="96" x="186" y="18" />
<rect fill="#DEE6F1" height="24" width="47" x="114.5" y="18" />
<rect fill="#ECF1E0" height="24" width="2.9375" x="161.5" y="18" />
<rect fill="none" height="24" stroke="#405C86" stroke-width="2" width="96" x="90" y="18" />
<text class="register-name" x="80" y="30">Zn</text>
<text class="intrinsic-name" x="80" y="42">op1</text>
<text class="register-number" x="10" y="30">(1)</text>
<rect fill="#DEE6F1" height="24" width="48" x="426" y="90" />
<rect fill="none" height="24" stroke="#405C86" stroke-width="2" width="48" x="426" y="90" />
<rect fill="none" height="24" stroke="#405C86" stroke-width="2" width="48" x="378" y="90" />
<text class="label" x="402" y="103">0</text>
<rect fill="#DEE6F1" height="24" width="48" x="330" y="90" />
<rect fill="none" height="24" stroke="#405C86" stroke-width="2" width="48" x="330" y="90" />
<rect fill="none" height="24" stroke="#405C86" stroke-width="2" width="48" x="282" y="90" />
<text class="label" x="306" y="103">0</text>
<rect fill="#DEE6F1" height="24" width="48" x="234" y="90" />
<rect fill="none" height="24" stroke="#405C86" stroke-width="2" width="48" x="234" y="90" />
<rect fill="none" height="24" stroke="#405C86" stroke-width="2" width="48" x="186" y="90" />
<text class="label" x="210" y="103">0</text>
<rect fill="#DEE6F1" height="24" width="48" x="138" y="90" />
<rect fill="none" height="24" stroke="#405C86" stroke-width="2" width="48" x="138" y="90" />
<rect fill="none" height="24" stroke="#405C86" stroke-width="2" width="48" x="90" y="90" />
<text class="label" x="114" y="103">0</text>
<text class="register-name" x="80" y="102">Zd</text>
<text class="intrinsic-name" x="80" y="114">returns</text>
<text class="register-number" x="10" y="102">(2)</text>
<line marker-end="url(#arrowhead)" stroke="none" x1="426" x2="450" y1="52.5" y2="89" />
<line marker-end="url(#arrowhead)" stroke="none" x1="330" x2="354" y1="52.5" y2="89" />
<line marker-end="url(#arrowhead)" stroke="none" x1="234" x2="258" y1="52.5" y2="89" />
<line marker-end="url(#arrowhead)" stroke="none" x1="138" x2="162" y1="52.5" y2="89" />
</svg>