<svg xmlns="http://www.w3.org/2000/svg" viewBox="0 0 486 171">
<style>
.label { font: 14px Helvetica; dominant-baseline: middle; text-anchor: middle; }
.title-left { font: 12px Helvetica; dominant-baseline: middle; }
.title-right { font: 12px Helvetica; dominant-baseline: middle; text-anchor: end; }
.title-intrinsic { font: 12px Helvetica; dominant-baseline: middle; text-anchor: middle; fill: #6778ED; }
.title { font: 12px Helvetica; dominant-baseline: middle; text-anchor: middle; }
.title-unused { font: 12px Helvetica; dominant-baseline: middle; text-anchor: middle; fill: #AAA; }
.register-name { font: 14px Helvetica; dominant-baseline: middle; text-anchor: end; font-style: italic; }
.memory-name { font: 14px Helvetica; dominant-baseline: middle; text-anchor: end; }
.register-number { font: 14px Helvetica; dominant-baseline: middle; text-anchor: start; }
.intrinsic-name { font: 14px Helvetica; dominant-baseline: middle; text-anchor: end; fill: #6778ED; }
.intrinsic-color { fill: #6778ED; }
.small-label { font: 12px Helvetica; dominant-baseline: middle; text-anchor: middle; }
.label-10px { font: 10px Helvetica; dominant-baseline: middle; text-anchor: middle; }
.smaller-label { font: 9px Helvetica; dominant-baseline: middle; text-anchor: middle; }
.label-6px { font: 6px Helvetica; dominant-baseline: middle; text-anchor: middle; }
.label-7px { font: 7px Helvetica; dominant-baseline: middle; text-anchor: middle; }
.unused { fill: #AAA; }
.dim { fill: #888; }
</style>
<defs>
<marker id="arrowhead" markerWidth="10.75" markerHeight="24.5" refX="9.0" refY="6.125" orient="auto">
<polyline points="0.5 0.5, 8.75 6.125, 0.5 11.75" stroke="#567DB6" stroke-width="1" fill="none"/>
</marker>
</defs>
<line stroke="#567DB6" stroke-width="1" x1="457.6875" x2="442.3125" y1="90.5" y2="137" />
<line stroke="#567DB6" stroke-width="1" x1="409.6875" x2="394.3125" y1="90.5" y2="137" />
<line stroke="#567DB6" stroke-width="1" x1="361.6875" x2="346.3125" y1="90.5" y2="137" />
<line stroke="#567DB6" stroke-width="1" x1="313.6875" x2="298.3125" y1="90.5" y2="137" />
<line stroke="#567DB6" stroke-width="1" x1="265.6875" x2="250.3125" y1="90.5" y2="137" />
<line stroke="#567DB6" stroke-width="1" x1="217.6875" x2="202.3125" y1="90.5" y2="137" />
<line stroke="#567DB6" stroke-width="1" x1="169.6875" x2="154.3125" y1="90.5" y2="137" />
<line stroke="#567DB6" stroke-width="1" x1="121.6875" x2="106.3125" y1="90.5" y2="137" />
<text class="title-left" x="90" y="9">upper</text>
<text class="title-right" x="474" y="9">lower</text>
<rect fill="#DEE6F1" height="24" width="32.625" x="441.375" y="66" />
<rect fill="none" height="24" stroke="#405C86" stroke-width="2" width="48" x="426" y="66" />
<rect fill="#DEE6F1" height="24" width="32.625" x="393.375" y="66" />
<rect fill="none" height="24" stroke="#405C86" stroke-width="2" width="48" x="378" y="66" />
<rect fill="#DEE6F1" height="24" width="32.625" x="345.375" y="66" />
<rect fill="none" height="24" stroke="#405C86" stroke-width="2" width="48" x="330" y="66" />
<rect fill="#DEE6F1" height="24" width="32.625" x="297.375" y="66" />
<rect fill="none" height="24" stroke="#405C86" stroke-width="2" width="48" x="282" y="66" />
<rect fill="#DEE6F1" height="24" width="32.625" x="249.375" y="66" />
<rect fill="none" height="24" stroke="#405C86" stroke-width="2" width="48" x="234" y="66" />
<rect fill="#DEE6F1" height="24" width="32.625" x="201.375" y="66" />
<rect fill="none" height="24" stroke="#405C86" stroke-width="2" width="48" x="186" y="66" />
<rect fill="#DEE6F1" height="24" width="32.625" x="153.375" y="66" />
<rect fill="none" height="24" stroke="#405C86" stroke-width="2" width="48" x="138" y="66" />
<rect fill="#DEE6F1" height="24" width="32.625" x="105.375" y="66" />
<rect fill="none" height="24" stroke="#405C86" stroke-width="2" width="48" x="90" y="66" />
<text class="register-name" x="80" y="78">Zn</text>
<text class="intrinsic-name" x="80" y="90">op2</text>
<text class="register-number" x="10" y="78">(2)</text>
<rect fill="#EEDDDB" height="24" width="15.375" x="458.625" y="18" />
<rect fill="none" height="24" stroke="#405C86" stroke-width="2" width="48" x="426" y="18" />
<rect fill="#EEDDDB" height="24" width="15.375" x="410.625" y="18" />
<rect fill="none" height="24" stroke="#405C86" stroke-width="2" width="48" x="378" y="18" />
<rect fill="#EEDDDB" height="24" width="15.375" x="362.625" y="18" />
<rect fill="none" height="24" stroke="#405C86" stroke-width="2" width="48" x="330" y="18" />
<rect fill="#EEDDDB" height="24" width="15.375" x="314.625" y="18" />
<rect fill="none" height="24" stroke="#405C86" stroke-width="2" width="48" x="282" y="18" />
<rect fill="#EEDDDB" height="24" width="15.375" x="266.625" y="18" />
<rect fill="none" height="24" stroke="#405C86" stroke-width="2" width="48" x="234" y="18" />
<rect fill="#EEDDDB" height="24" width="15.375" x="218.625" y="18" />
<rect fill="none" height="24" stroke="#405C86" stroke-width="2" width="48" x="186" y="18" />
<rect fill="#EEDDDB" height="24" width="15.375" x="170.625" y="18" />
<rect fill="none" height="24" stroke="#405C86" stroke-width="2" width="48" x="138" y="18" />
<rect fill="#EEDDDB" height="24" width="15.375" x="122.625" y="18" />
<rect fill="none" height="24" stroke="#405C86" stroke-width="2" width="48" x="90" y="18" />
<text class="register-name" x="80" y="30">Zd</text>
<text class="intrinsic-name" x="80" y="42">op1</text>
<text class="register-number" x="10" y="30">(1)</text>
<rect fill="#DEE6F1" height="24" width="32.625" x="426" y="138" />
<rect fill="#EEDDDB" height="24" width="15.375" x="458.625" y="138" />
<rect fill="none" height="24" stroke="#405C86" stroke-width="2" width="48" x="426" y="138" />
<rect fill="#DEE6F1" height="24" width="32.625" x="378" y="138" />
<rect fill="#EEDDDB" height="24" width="15.375" x="410.625" y="138" />
<rect fill="none" height="24" stroke="#405C86" stroke-width="2" width="48" x="378" y="138" />
<rect fill="#DEE6F1" height="24" width="32.625" x="330" y="138" />
<rect fill="#EEDDDB" height="24" width="15.375" x="362.625" y="138" />
<rect fill="none" height="24" stroke="#405C86" stroke-width="2" width="48" x="330" y="138" />
<rect fill="#DEE6F1" height="24" width="32.625" x="282" y="138" />
<rect fill="#EEDDDB" height="24" width="15.375" x="314.625" y="138" />
<rect fill="none" height="24" stroke="#405C86" stroke-width="2" width="48" x="282" y="138" />
<rect fill="#DEE6F1" height="24" width="32.625" x="234" y="138" />
<rect fill="#EEDDDB" height="24" width="15.375" x="266.625" y="138" />
<rect fill="none" height="24" stroke="#405C86" stroke-width="2" width="48" x="234" y="138" />
<rect fill="#DEE6F1" height="24" width="32.625" x="186" y="138" />
<rect fill="#EEDDDB" height="24" width="15.375" x="218.625" y="138" />
<rect fill="none" height="24" stroke="#405C86" stroke-width="2" width="48" x="186" y="138" />
<rect fill="#DEE6F1" height="24" width="32.625" x="138" y="138" />
<rect fill="#EEDDDB" height="24" width="15.375" x="170.625" y="138" />
<rect fill="none" height="24" stroke="#405C86" stroke-width="2" width="48" x="138" y="138" />
<rect fill="#DEE6F1" height="24" width="32.625" x="90" y="138" />
<rect fill="#EEDDDB" height="24" width="15.375" x="122.625" y="138" />
<rect fill="none" height="24" stroke="#405C86" stroke-width="2" width="48" x="90" y="138" />
<text class="register-name" x="80" y="150">Zd</text>
<text class="intrinsic-name" x="80" y="162">returns</text>
<text class="register-number" x="10" y="150">(3)</text>
<line stroke="#567DB6" stroke-dasharray="3 1" stroke-width="1" x1="466.3125" x2="466.3125" y1="42.5" y2="137" />
<line marker-end="url(#arrowhead)" stroke="none" stroke-dasharray="3 1" x1="466.3125" x2="466.3125" y1="42.5" y2="137" />
<line stroke="#567DB6" stroke-dasharray="3 1" stroke-width="1" x1="418.3125" x2="418.3125" y1="42.5" y2="137" />
<line marker-end="url(#arrowhead)" stroke="none" stroke-dasharray="3 1" x1="418.3125" x2="418.3125" y1="42.5" y2="137" />
<line stroke="#567DB6" stroke-dasharray="3 1" stroke-width="1" x1="370.3125" x2="370.3125" y1="42.5" y2="137" />
<line marker-end="url(#arrowhead)" stroke="none" stroke-dasharray="3 1" x1="370.3125" x2="370.3125" y1="42.5" y2="137" />
<line stroke="#567DB6" stroke-dasharray="3 1" stroke-width="1" x1="322.3125" x2="322.3125" y1="42.5" y2="137" />
<line marker-end="url(#arrowhead)" stroke="none" stroke-dasharray="3 1" x1="322.3125" x2="322.3125" y1="42.5" y2="137" />
<line stroke="#567DB6" stroke-dasharray="3 1" stroke-width="1" x1="274.3125" x2="274.3125" y1="42.5" y2="137" />
<line marker-end="url(#arrowhead)" stroke="none" stroke-dasharray="3 1" x1="274.3125" x2="274.3125" y1="42.5" y2="137" />
<line stroke="#567DB6" stroke-dasharray="3 1" stroke-width="1" x1="226.3125" x2="226.3125" y1="42.5" y2="137" />
<line marker-end="url(#arrowhead)" stroke="none" stroke-dasharray="3 1" x1="226.3125" x2="226.3125" y1="42.5" y2="137" />
<line stroke="#567DB6" stroke-dasharray="3 1" stroke-width="1" x1="178.3125" x2="178.3125" y1="42.5" y2="137" />
<line marker-end="url(#arrowhead)" stroke="none" stroke-dasharray="3 1" x1="178.3125" x2="178.3125" y1="42.5" y2="137" />
<line stroke="#567DB6" stroke-dasharray="3 1" stroke-width="1" x1="130.3125" x2="130.3125" y1="42.5" y2="137" />
<line marker-end="url(#arrowhead)" stroke="none" stroke-dasharray="3 1" x1="130.3125" x2="130.3125" y1="42.5" y2="137" />
<line marker-end="url(#arrowhead)" stroke="none" x1="457.6875" x2="442.3125" y1="90.5" y2="137" />
<line marker-end="url(#arrowhead)" stroke="none" x1="409.6875" x2="394.3125" y1="90.5" y2="137" />
<line marker-end="url(#arrowhead)" stroke="none" x1="361.6875" x2="346.3125" y1="90.5" y2="137" />
<line marker-end="url(#arrowhead)" stroke="none" x1="313.6875" x2="298.3125" y1="90.5" y2="137" />
<line marker-end="url(#arrowhead)" stroke="none" x1="265.6875" x2="250.3125" y1="90.5" y2="137" />
<line marker-end="url(#arrowhead)" stroke="none" x1="217.6875" x2="202.3125" y1="90.5" y2="137" />
<line marker-end="url(#arrowhead)" stroke="none" x1="169.6875" x2="154.3125" y1="90.5" y2="137" />
<line marker-end="url(#arrowhead)" stroke="none" x1="121.6875" x2="106.3125" y1="90.5" y2="137" />
</svg>