<svg xmlns="http://www.w3.org/2000/svg" viewBox="0 0 870 219">
<style>
.label { font: 14px Helvetica; dominant-baseline: middle; text-anchor: middle; }
.title-left { font: 12px Helvetica; dominant-baseline: middle; }
.title-right { font: 12px Helvetica; dominant-baseline: middle; text-anchor: end; }
.title-intrinsic { font: 12px Helvetica; dominant-baseline: middle; text-anchor: middle; fill: #6778ED; }
.title { font: 12px Helvetica; dominant-baseline: middle; text-anchor: middle; }
.title-unused { font: 12px Helvetica; dominant-baseline: middle; text-anchor: middle; fill: #AAA; }
.register-name { font: 14px Helvetica; dominant-baseline: middle; text-anchor: end; font-style: italic; }
.memory-name { font: 14px Helvetica; dominant-baseline: middle; text-anchor: end; }
.register-number { font: 14px Helvetica; dominant-baseline: middle; text-anchor: start; }
.intrinsic-name { font: 14px Helvetica; dominant-baseline: middle; text-anchor: end; fill: #6778ED; }
.intrinsic-color { fill: #6778ED; }
.small-label { font: 12px Helvetica; dominant-baseline: middle; text-anchor: middle; }
.label-10px { font: 10px Helvetica; dominant-baseline: middle; text-anchor: middle; }
.smaller-label { font: 9px Helvetica; dominant-baseline: middle; text-anchor: middle; }
.label-6px { font: 6px Helvetica; dominant-baseline: middle; text-anchor: middle; }
.label-7px { font: 7px Helvetica; dominant-baseline: middle; text-anchor: middle; }
.unused { fill: #AAA; }
.dim { fill: #888; }
</style>
<defs>
<marker id="arrowhead" markerWidth="10.75" markerHeight="24.5" refX="9.0" refY="6.125" orient="auto">
<polyline points="0.5 0.5, 8.75 6.125, 0.5 11.75" stroke="#567DB6" stroke-width="1" fill="none"/>
</marker>
</defs>
<text class="title-left" x="90" y="9">upper</text>
<text class="title-right" x="858" y="9">lower</text>
<rect fill="none" height="24" stroke="#405C86" stroke-width="2" width="12" x="756" y="18" />
<text class="label" x="762" y="31">0</text>
<rect fill="none" height="24" stroke="#405C86" stroke-dasharray="3 1" stroke-dashoffset="1.5" stroke-width="1" width="12" x="744" y="18" />
<text class="label unused" x="750" y="31"></text>
<rect fill="none" height="24" stroke="#405C86" stroke-dasharray="3 1" stroke-dashoffset="1.5" stroke-width="1" width="12" x="732" y="18" />
<text class="label unused" x="738" y="31"></text>
<rect fill="none" height="24" stroke="#405C86" stroke-dasharray="3 1" stroke-dashoffset="1.5" stroke-width="1" width="12" x="720" y="18" />
<text class="label unused" x="726" y="31"></text>
<rect fill="none" height="24" stroke="#405C86" stroke-dasharray="3 1" stroke-dashoffset="1.5" stroke-width="1" width="12" x="708" y="18" />
<text class="label unused" x="714" y="31"></text>
<rect fill="none" height="24" stroke="#405C86" stroke-dasharray="3 1" stroke-dashoffset="1.5" stroke-width="1" width="12" x="696" y="18" />
<text class="label unused" x="702" y="31"></text>
<rect fill="none" height="24" stroke="#405C86" stroke-dasharray="3 1" stroke-dashoffset="1.5" stroke-width="1" width="12" x="684" y="18" />
<text class="label unused" x="690" y="31"></text>
<rect fill="none" height="24" stroke="#405C86" stroke-dasharray="3 1" stroke-dashoffset="1.5" stroke-width="1" width="12" x="672" y="18" />
<text class="label unused" x="678" y="31"></text>
<rect fill="#DEE6F1" height="24" width="12" x="564" y="18" />
<rect fill="none" height="24" stroke="#405C86" stroke-width="2" width="12" x="564" y="18" />
<text class="label" x="570" y="31">1</text>
<rect fill="none" height="24" stroke="#405C86" stroke-dasharray="3 1" stroke-dashoffset="1.5" stroke-width="1" width="12" x="552" y="18" />
<text class="label unused" x="558" y="31"></text>
<rect fill="none" height="24" stroke="#405C86" stroke-dasharray="3 1" stroke-dashoffset="1.5" stroke-width="1" width="12" x="540" y="18" />
<text class="label unused" x="546" y="31"></text>
<rect fill="none" height="24" stroke="#405C86" stroke-dasharray="3 1" stroke-dashoffset="1.5" stroke-width="1" width="12" x="528" y="18" />
<text class="label unused" x="534" y="31"></text>
<rect fill="none" height="24" stroke="#405C86" stroke-dasharray="3 1" stroke-dashoffset="1.5" stroke-width="1" width="12" x="516" y="18" />
<text class="label unused" x="522" y="31"></text>
<rect fill="none" height="24" stroke="#405C86" stroke-dasharray="3 1" stroke-dashoffset="1.5" stroke-width="1" width="12" x="504" y="18" />
<text class="label unused" x="510" y="31"></text>
<rect fill="none" height="24" stroke="#405C86" stroke-dasharray="3 1" stroke-dashoffset="1.5" stroke-width="1" width="12" x="492" y="18" />
<text class="label unused" x="498" y="31"></text>
<rect fill="none" height="24" stroke="#405C86" stroke-dasharray="3 1" stroke-dashoffset="1.5" stroke-width="1" width="12" x="480" y="18" />
<text class="label unused" x="486" y="31"></text>
<rect fill="none" height="24" stroke="#405C86" stroke-width="2" width="12" x="372" y="18" />
<text class="label" x="378" y="31">0</text>
<rect fill="none" height="24" stroke="#405C86" stroke-dasharray="3 1" stroke-dashoffset="1.5" stroke-width="1" width="12" x="360" y="18" />
<text class="label unused" x="366" y="31"></text>
<rect fill="none" height="24" stroke="#405C86" stroke-dasharray="3 1" stroke-dashoffset="1.5" stroke-width="1" width="12" x="348" y="18" />
<text class="label unused" x="354" y="31"></text>
<rect fill="none" height="24" stroke="#405C86" stroke-dasharray="3 1" stroke-dashoffset="1.5" stroke-width="1" width="12" x="336" y="18" />
<text class="label unused" x="342" y="31"></text>
<rect fill="none" height="24" stroke="#405C86" stroke-dasharray="3 1" stroke-dashoffset="1.5" stroke-width="1" width="12" x="324" y="18" />
<text class="label unused" x="330" y="31"></text>
<rect fill="none" height="24" stroke="#405C86" stroke-dasharray="3 1" stroke-dashoffset="1.5" stroke-width="1" width="12" x="312" y="18" />
<text class="label unused" x="318" y="31"></text>
<rect fill="none" height="24" stroke="#405C86" stroke-dasharray="3 1" stroke-dashoffset="1.5" stroke-width="1" width="12" x="300" y="18" />
<text class="label unused" x="306" y="31"></text>
<rect fill="none" height="24" stroke="#405C86" stroke-dasharray="3 1" stroke-dashoffset="1.5" stroke-width="1" width="12" x="288" y="18" />
<text class="label unused" x="294" y="31"></text>
<rect fill="#DEE6F1" height="24" width="12" x="180" y="18" />
<rect fill="none" height="24" stroke="#405C86" stroke-width="2" width="12" x="180" y="18" />
<text class="label" x="186" y="31">1</text>
<rect fill="none" height="24" stroke="#405C86" stroke-dasharray="3 1" stroke-dashoffset="1.5" stroke-width="1" width="12" x="168" y="18" />
<text class="label unused" x="174" y="31"></text>
<rect fill="none" height="24" stroke="#405C86" stroke-dasharray="3 1" stroke-dashoffset="1.5" stroke-width="1" width="12" x="156" y="18" />
<text class="label unused" x="162" y="31"></text>
<rect fill="none" height="24" stroke="#405C86" stroke-dasharray="3 1" stroke-dashoffset="1.5" stroke-width="1" width="12" x="144" y="18" />
<text class="label unused" x="150" y="31"></text>
<rect fill="none" height="24" stroke="#405C86" stroke-dasharray="3 1" stroke-dashoffset="1.5" stroke-width="1" width="12" x="132" y="18" />
<text class="label unused" x="138" y="31"></text>
<rect fill="none" height="24" stroke="#405C86" stroke-dasharray="3 1" stroke-dashoffset="1.5" stroke-width="1" width="12" x="120" y="18" />
<text class="label unused" x="126" y="31"></text>
<rect fill="none" height="24" stroke="#405C86" stroke-dasharray="3 1" stroke-dashoffset="1.5" stroke-width="1" width="12" x="108" y="18" />
<text class="label unused" x="114" y="31"></text>
<rect fill="none" height="24" stroke="#405C86" stroke-dasharray="3 1" stroke-dashoffset="1.5" stroke-width="1" width="12" x="96" y="18" />
<text class="label unused" x="102" y="31"></text>
<text class="register-name" x="80" y="30">Pv</text>
<text class="intrinsic-name" x="80" y="42">pg</text>
<text class="register-number" x="10" y="30">(1)</text>
<rect fill="#EEDDDB" height="24" width="192" x="666" y="66" />
<rect fill="none" height="24" stroke="#405C86" stroke-width="2" width="192" x="666" y="66" />
<rect fill="#EEDDDB" height="24" width="192" x="474" y="66" />
<rect fill="none" height="24" stroke="#405C86" stroke-width="2" width="192" x="474" y="66" />
<rect fill="#EEDDDB" height="24" width="192" x="282" y="66" />
<rect fill="none" height="24" stroke="#405C86" stroke-width="2" width="192" x="282" y="66" />
<rect fill="#EEDDDB" height="24" width="192" x="90" y="66" />
<rect fill="none" height="24" stroke="#405C86" stroke-width="2" width="192" x="90" y="66" />
<text class="register-name" x="80" y="78">Zn1</text>
<text class="intrinsic-name" x="80" y="90">op1</text>
<text class="register-number" x="10" y="78">(2)</text>
<rect fill="#ECF1E0" height="24" width="192" x="666" y="114" />
<rect fill="none" height="24" stroke="#405C86" stroke-width="2" width="192" x="666" y="114" />
<rect fill="#ECF1E0" height="24" width="192" x="474" y="114" />
<rect fill="none" height="24" stroke="#405C86" stroke-width="2" width="192" x="474" y="114" />
<rect fill="#ECF1E0" height="24" width="192" x="282" y="114" />
<rect fill="none" height="24" stroke="#405C86" stroke-width="2" width="192" x="282" y="114" />
<rect fill="#ECF1E0" height="24" width="192" x="90" y="114" />
<rect fill="none" height="24" stroke="#405C86" stroke-width="2" width="192" x="90" y="114" />
<text class="register-name" x="80" y="126">Zn2</text>
<text class="intrinsic-name" x="80" y="138">op2</text>
<text class="register-number" x="10" y="126">(3)</text>
<rect fill="#EEDDDB" height="24" width="192" x="666" y="186" />
<rect fill="none" height="24" stroke="#405C86" stroke-width="2" width="192" x="666" y="186" />
<rect fill="#EEDDDB" height="24" width="192" x="474" y="186" />
<rect fill="none" height="24" stroke="#405C86" stroke-width="2" width="192" x="474" y="186" />
<rect fill="#EEDDDB" height="24" width="192" x="282" y="186" />
<rect fill="none" height="24" stroke="#405C86" stroke-width="2" width="192" x="282" y="186" />
<rect fill="#ECF1E0" height="24" width="192" x="90" y="186" />
<rect fill="none" height="24" stroke="#405C86" stroke-width="2" width="192" x="90" y="186" />
<text class="register-name" x="80" y="198">Zd</text>
<text class="intrinsic-name" x="80" y="210">returns</text>
<text class="register-number" x="10" y="198">(4)</text>
<line stroke="#567DB6" stroke-width="1" x1="570" x2="762" y1="90.5" y2="185" />
<line stroke="#567DB6" stroke-width="1" x1="378" x2="570" y1="90.5" y2="185" />
<line stroke="#567DB6" stroke-width="1" x1="186" x2="378" y1="90.5" y2="185" />
<line stroke="#567DB6" stroke-dasharray="3 1" stroke-width="1" x1="762" x2="186" y1="138.5" y2="185" />
<polyline fill="none" points="183.0 42.5,185.0 46.5,377.0 46.5,378.0 48.5,378.0 52.5,378.0 48.5,379.0 46.5,571.0 46.5,573.0 42.5" stroke="#567DB6" stroke-width="1" />
<polyline fill="none" points="93.0 65.5,95.0 61.5,377.0 61.5,378.0 59.5,378.0 55.5,378.0 59.5,379.0 61.5,661.0 61.5,663.0 65.5" stroke="#567DB6" stroke-width="1" />
<line stroke="#567DB6" stroke-width="1" x1="378" x2="378" y1="52.5" y2="55.5" />
<line marker-end="url(#arrowhead)" stroke="none" x1="570" x2="762" y1="90.5" y2="185" />
<line marker-end="url(#arrowhead)" stroke="none" x1="378" x2="570" y1="90.5" y2="185" />
<line marker-end="url(#arrowhead)" stroke="none" x1="186" x2="378" y1="90.5" y2="185" />
<line marker-end="url(#arrowhead)" stroke="none" stroke-dasharray="3 1" x1="762" x2="186" y1="138.5" y2="185" />
</svg>