<svg xmlns="http://www.w3.org/2000/svg" viewBox="0 0 6246 171">
<style>
.label { font: 14px Helvetica; dominant-baseline: middle; text-anchor: middle; }
.title-left { font: 12px Helvetica; dominant-baseline: middle; }
.title-right { font: 12px Helvetica; dominant-baseline: middle; text-anchor: end; }
.title-intrinsic { font: 12px Helvetica; dominant-baseline: middle; text-anchor: middle; fill: #6778ED; }
.title { font: 12px Helvetica; dominant-baseline: middle; text-anchor: middle; }
.title-unused { font: 12px Helvetica; dominant-baseline: middle; text-anchor: middle; fill: #AAA; }
.register-name { font: 14px Helvetica; dominant-baseline: middle; text-anchor: end; font-style: italic; }
.memory-name { font: 14px Helvetica; dominant-baseline: middle; text-anchor: end; }
.register-number { font: 14px Helvetica; dominant-baseline: middle; text-anchor: start; }
.intrinsic-name { font: 14px Helvetica; dominant-baseline: middle; text-anchor: end; fill: #6778ED; }
.intrinsic-color { fill: #6778ED; }
.small-label { font: 12px Helvetica; dominant-baseline: middle; text-anchor: middle; }
.label-10px { font: 10px Helvetica; dominant-baseline: middle; text-anchor: middle; }
.smaller-label { font: 9px Helvetica; dominant-baseline: middle; text-anchor: middle; }
.label-6px { font: 6px Helvetica; dominant-baseline: middle; text-anchor: middle; }
.label-7px { font: 7px Helvetica; dominant-baseline: middle; text-anchor: middle; }
.unused { fill: #AAA; }
.dim { fill: #888; }
</style>
<defs>
<marker id="arrowhead" markerWidth="10.75" markerHeight="24.5" refX="9.0" refY="6.125" orient="auto">
<polyline points="0.5 0.5, 8.75 6.125, 0.5 11.75" stroke="#567DB6" stroke-width="1" fill="none"/>
</marker>
</defs>
<line stroke="#567DB6" stroke-width="1" x1="6130.078125" x2="6145.921875" y1="90.5" y2="137" />
<line stroke="#567DB6" stroke-width="1" x1="5938.078125" x2="5953.921875" y1="90.5" y2="137" />
<line stroke="#567DB6" stroke-width="1" x1="5746.078125" x2="5761.921875" y1="90.5" y2="137" />
<line stroke="#567DB6" stroke-width="1" x1="5554.078125" x2="5569.921875" y1="90.5" y2="137" />
<line stroke="#567DB6" stroke-width="1" x1="5362.078125" x2="5377.921875" y1="90.5" y2="137" />
<line stroke="#567DB6" stroke-width="1" x1="5170.078125" x2="5185.921875" y1="90.5" y2="137" />
<line stroke="#567DB6" stroke-width="1" x1="4978.078125" x2="4993.921875" y1="90.5" y2="137" />
<line stroke="#567DB6" stroke-width="1" x1="4786.078125" x2="4801.921875" y1="90.5" y2="137" />
<line stroke="#567DB6" stroke-width="1" x1="4594.078125" x2="4609.921875" y1="90.5" y2="137" />
<line stroke="#567DB6" stroke-width="1" x1="4402.078125" x2="4417.921875" y1="90.5" y2="137" />
<line stroke="#567DB6" stroke-width="1" x1="4210.078125" x2="4225.921875" y1="90.5" y2="137" />
<line stroke="#567DB6" stroke-width="1" x1="4018.078125" x2="4033.921875" y1="90.5" y2="137" />
<line stroke="#567DB6" stroke-width="1" x1="3826.078125" x2="3841.921875" y1="90.5" y2="137" />
<line stroke="#567DB6" stroke-width="1" x1="3634.078125" x2="3649.921875" y1="90.5" y2="137" />
<line stroke="#567DB6" stroke-width="1" x1="3442.078125" x2="3457.921875" y1="90.5" y2="137" />
<line stroke="#567DB6" stroke-width="1" x1="3250.078125" x2="3265.921875" y1="90.5" y2="137" />
<line stroke="#567DB6" stroke-width="1" x1="3058.078125" x2="3073.921875" y1="90.5" y2="137" />
<line stroke="#567DB6" stroke-width="1" x1="2866.078125" x2="2881.921875" y1="90.5" y2="137" />
<line stroke="#567DB6" stroke-width="1" x1="2674.078125" x2="2689.921875" y1="90.5" y2="137" />
<line stroke="#567DB6" stroke-width="1" x1="2482.078125" x2="2497.921875" y1="90.5" y2="137" />
<line stroke="#567DB6" stroke-width="1" x1="2290.078125" x2="2305.921875" y1="90.5" y2="137" />
<line stroke="#567DB6" stroke-width="1" x1="2098.078125" x2="2113.921875" y1="90.5" y2="137" />
<line stroke="#567DB6" stroke-width="1" x1="1906.078125" x2="1921.921875" y1="90.5" y2="137" />
<line stroke="#567DB6" stroke-width="1" x1="1714.078125" x2="1729.921875" y1="90.5" y2="137" />
<line stroke="#567DB6" stroke-width="1" x1="1522.078125" x2="1537.921875" y1="90.5" y2="137" />
<line stroke="#567DB6" stroke-width="1" x1="1330.078125" x2="1345.921875" y1="90.5" y2="137" />
<line stroke="#567DB6" stroke-width="1" x1="1138.078125" x2="1153.921875" y1="90.5" y2="137" />
<line stroke="#567DB6" stroke-width="1" x1="946.078125" x2="961.921875" y1="90.5" y2="137" />
<line stroke="#567DB6" stroke-width="1" x1="754.078125" x2="769.921875" y1="90.5" y2="137" />
<line stroke="#567DB6" stroke-width="1" x1="562.078125" x2="577.921875" y1="90.5" y2="137" />
<line stroke="#567DB6" stroke-width="1" x1="370.078125" x2="385.921875" y1="90.5" y2="137" />
<line stroke="#567DB6" stroke-width="1" x1="178.078125" x2="193.921875" y1="90.5" y2="137" />
<text class="title-left" x="90" y="9">upper</text>
<text class="title-right" x="6234" y="9">lower</text>
<rect fill="#DEE6F1" height="24" width="176.15625" x="6042" y="66" />
<rect fill="none" height="24" stroke="#405C86" stroke-width="2" width="192" x="6042" y="66" />
<rect fill="#DEE6F1" height="24" width="176.15625" x="5850" y="66" />
<rect fill="none" height="24" stroke="#405C86" stroke-width="2" width="192" x="5850" y="66" />
<rect fill="#DEE6F1" height="24" width="176.15625" x="5658" y="66" />
<rect fill="none" height="24" stroke="#405C86" stroke-width="2" width="192" x="5658" y="66" />
<rect fill="#DEE6F1" height="24" width="176.15625" x="5466" y="66" />
<rect fill="none" height="24" stroke="#405C86" stroke-width="2" width="192" x="5466" y="66" />
<rect fill="#DEE6F1" height="24" width="176.15625" x="5274" y="66" />
<rect fill="none" height="24" stroke="#405C86" stroke-width="2" width="192" x="5274" y="66" />
<rect fill="#DEE6F1" height="24" width="176.15625" x="5082" y="66" />
<rect fill="none" height="24" stroke="#405C86" stroke-width="2" width="192" x="5082" y="66" />
<rect fill="#DEE6F1" height="24" width="176.15625" x="4890" y="66" />
<rect fill="none" height="24" stroke="#405C86" stroke-width="2" width="192" x="4890" y="66" />
<rect fill="#DEE6F1" height="24" width="176.15625" x="4698" y="66" />
<rect fill="none" height="24" stroke="#405C86" stroke-width="2" width="192" x="4698" y="66" />
<rect fill="#DEE6F1" height="24" width="176.15625" x="4506" y="66" />
<rect fill="none" height="24" stroke="#405C86" stroke-width="2" width="192" x="4506" y="66" />
<rect fill="#DEE6F1" height="24" width="176.15625" x="4314" y="66" />
<rect fill="none" height="24" stroke="#405C86" stroke-width="2" width="192" x="4314" y="66" />
<rect fill="#DEE6F1" height="24" width="176.15625" x="4122" y="66" />
<rect fill="none" height="24" stroke="#405C86" stroke-width="2" width="192" x="4122" y="66" />
<rect fill="#DEE6F1" height="24" width="176.15625" x="3930" y="66" />
<rect fill="none" height="24" stroke="#405C86" stroke-width="2" width="192" x="3930" y="66" />
<rect fill="#DEE6F1" height="24" width="176.15625" x="3738" y="66" />
<rect fill="none" height="24" stroke="#405C86" stroke-width="2" width="192" x="3738" y="66" />
<rect fill="#DEE6F1" height="24" width="176.15625" x="3546" y="66" />
<rect fill="none" height="24" stroke="#405C86" stroke-width="2" width="192" x="3546" y="66" />
<rect fill="#DEE6F1" height="24" width="176.15625" x="3354" y="66" />
<rect fill="none" height="24" stroke="#405C86" stroke-width="2" width="192" x="3354" y="66" />
<rect fill="#DEE6F1" height="24" width="176.15625" x="3162" y="66" />
<rect fill="none" height="24" stroke="#405C86" stroke-width="2" width="192" x="3162" y="66" />
<rect fill="#DEE6F1" height="24" width="176.15625" x="2970" y="66" />
<rect fill="none" height="24" stroke="#405C86" stroke-width="2" width="192" x="2970" y="66" />
<rect fill="#DEE6F1" height="24" width="176.15625" x="2778" y="66" />
<rect fill="none" height="24" stroke="#405C86" stroke-width="2" width="192" x="2778" y="66" />
<rect fill="#DEE6F1" height="24" width="176.15625" x="2586" y="66" />
<rect fill="none" height="24" stroke="#405C86" stroke-width="2" width="192" x="2586" y="66" />
<rect fill="#DEE6F1" height="24" width="176.15625" x="2394" y="66" />
<rect fill="none" height="24" stroke="#405C86" stroke-width="2" width="192" x="2394" y="66" />
<rect fill="#DEE6F1" height="24" width="176.15625" x="2202" y="66" />
<rect fill="none" height="24" stroke="#405C86" stroke-width="2" width="192" x="2202" y="66" />
<rect fill="#DEE6F1" height="24" width="176.15625" x="2010" y="66" />
<rect fill="none" height="24" stroke="#405C86" stroke-width="2" width="192" x="2010" y="66" />
<rect fill="#DEE6F1" height="24" width="176.15625" x="1818" y="66" />
<rect fill="none" height="24" stroke="#405C86" stroke-width="2" width="192" x="1818" y="66" />
<rect fill="#DEE6F1" height="24" width="176.15625" x="1626" y="66" />
<rect fill="none" height="24" stroke="#405C86" stroke-width="2" width="192" x="1626" y="66" />
<rect fill="#DEE6F1" height="24" width="176.15625" x="1434" y="66" />
<rect fill="none" height="24" stroke="#405C86" stroke-width="2" width="192" x="1434" y="66" />
<rect fill="#DEE6F1" height="24" width="176.15625" x="1242" y="66" />
<rect fill="none" height="24" stroke="#405C86" stroke-width="2" width="192" x="1242" y="66" />
<rect fill="#DEE6F1" height="24" width="176.15625" x="1050" y="66" />
<rect fill="none" height="24" stroke="#405C86" stroke-width="2" width="192" x="1050" y="66" />
<rect fill="#DEE6F1" height="24" width="176.15625" x="858" y="66" />
<rect fill="none" height="24" stroke="#405C86" stroke-width="2" width="192" x="858" y="66" />
<rect fill="#DEE6F1" height="24" width="176.15625" x="666" y="66" />
<rect fill="none" height="24" stroke="#405C86" stroke-width="2" width="192" x="666" y="66" />
<rect fill="#DEE6F1" height="24" width="176.15625" x="474" y="66" />
<rect fill="none" height="24" stroke="#405C86" stroke-width="2" width="192" x="474" y="66" />
<rect fill="#DEE6F1" height="24" width="176.15625" x="282" y="66" />
<rect fill="none" height="24" stroke="#405C86" stroke-width="2" width="192" x="282" y="66" />
<rect fill="#DEE6F1" height="24" width="176.15625" x="90" y="66" />
<rect fill="none" height="24" stroke="#405C86" stroke-width="2" width="192" x="90" y="66" />
<text class="register-name" x="80" y="78">Zn</text>
<text class="intrinsic-name" x="80" y="90">op2</text>
<text class="register-number" x="10" y="78">(2)</text>
<rect fill="#EEDDDB" height="24" width="15.84375" x="6042" y="18" />
<rect fill="none" height="24" stroke="#405C86" stroke-width="2" width="192" x="6042" y="18" />
<rect fill="#EEDDDB" height="24" width="15.84375" x="5850" y="18" />
<rect fill="none" height="24" stroke="#405C86" stroke-width="2" width="192" x="5850" y="18" />
<rect fill="#EEDDDB" height="24" width="15.84375" x="5658" y="18" />
<rect fill="none" height="24" stroke="#405C86" stroke-width="2" width="192" x="5658" y="18" />
<rect fill="#EEDDDB" height="24" width="15.84375" x="5466" y="18" />
<rect fill="none" height="24" stroke="#405C86" stroke-width="2" width="192" x="5466" y="18" />
<rect fill="#EEDDDB" height="24" width="15.84375" x="5274" y="18" />
<rect fill="none" height="24" stroke="#405C86" stroke-width="2" width="192" x="5274" y="18" />
<rect fill="#EEDDDB" height="24" width="15.84375" x="5082" y="18" />
<rect fill="none" height="24" stroke="#405C86" stroke-width="2" width="192" x="5082" y="18" />
<rect fill="#EEDDDB" height="24" width="15.84375" x="4890" y="18" />
<rect fill="none" height="24" stroke="#405C86" stroke-width="2" width="192" x="4890" y="18" />
<rect fill="#EEDDDB" height="24" width="15.84375" x="4698" y="18" />
<rect fill="none" height="24" stroke="#405C86" stroke-width="2" width="192" x="4698" y="18" />
<rect fill="#EEDDDB" height="24" width="15.84375" x="4506" y="18" />
<rect fill="none" height="24" stroke="#405C86" stroke-width="2" width="192" x="4506" y="18" />
<rect fill="#EEDDDB" height="24" width="15.84375" x="4314" y="18" />
<rect fill="none" height="24" stroke="#405C86" stroke-width="2" width="192" x="4314" y="18" />
<rect fill="#EEDDDB" height="24" width="15.84375" x="4122" y="18" />
<rect fill="none" height="24" stroke="#405C86" stroke-width="2" width="192" x="4122" y="18" />
<rect fill="#EEDDDB" height="24" width="15.84375" x="3930" y="18" />
<rect fill="none" height="24" stroke="#405C86" stroke-width="2" width="192" x="3930" y="18" />
<rect fill="#EEDDDB" height="24" width="15.84375" x="3738" y="18" />
<rect fill="none" height="24" stroke="#405C86" stroke-width="2" width="192" x="3738" y="18" />
<rect fill="#EEDDDB" height="24" width="15.84375" x="3546" y="18" />
<rect fill="none" height="24" stroke="#405C86" stroke-width="2" width="192" x="3546" y="18" />
<rect fill="#EEDDDB" height="24" width="15.84375" x="3354" y="18" />
<rect fill="none" height="24" stroke="#405C86" stroke-width="2" width="192" x="3354" y="18" />
<rect fill="#EEDDDB" height="24" width="15.84375" x="3162" y="18" />
<rect fill="none" height="24" stroke="#405C86" stroke-width="2" width="192" x="3162" y="18" />
<rect fill="#EEDDDB" height="24" width="15.84375" x="2970" y="18" />
<rect fill="none" height="24" stroke="#405C86" stroke-width="2" width="192" x="2970" y="18" />
<rect fill="#EEDDDB" height="24" width="15.84375" x="2778" y="18" />
<rect fill="none" height="24" stroke="#405C86" stroke-width="2" width="192" x="2778" y="18" />
<rect fill="#EEDDDB" height="24" width="15.84375" x="2586" y="18" />
<rect fill="none" height="24" stroke="#405C86" stroke-width="2" width="192" x="2586" y="18" />
<rect fill="#EEDDDB" height="24" width="15.84375" x="2394" y="18" />
<rect fill="none" height="24" stroke="#405C86" stroke-width="2" width="192" x="2394" y="18" />
<rect fill="#EEDDDB" height="24" width="15.84375" x="2202" y="18" />
<rect fill="none" height="24" stroke="#405C86" stroke-width="2" width="192" x="2202" y="18" />
<rect fill="#EEDDDB" height="24" width="15.84375" x="2010" y="18" />
<rect fill="none" height="24" stroke="#405C86" stroke-width="2" width="192" x="2010" y="18" />
<rect fill="#EEDDDB" height="24" width="15.84375" x="1818" y="18" />
<rect fill="none" height="24" stroke="#405C86" stroke-width="2" width="192" x="1818" y="18" />
<rect fill="#EEDDDB" height="24" width="15.84375" x="1626" y="18" />
<rect fill="none" height="24" stroke="#405C86" stroke-width="2" width="192" x="1626" y="18" />
<rect fill="#EEDDDB" height="24" width="15.84375" x="1434" y="18" />
<rect fill="none" height="24" stroke="#405C86" stroke-width="2" width="192" x="1434" y="18" />
<rect fill="#EEDDDB" height="24" width="15.84375" x="1242" y="18" />
<rect fill="none" height="24" stroke="#405C86" stroke-width="2" width="192" x="1242" y="18" />
<rect fill="#EEDDDB" height="24" width="15.84375" x="1050" y="18" />
<rect fill="none" height="24" stroke="#405C86" stroke-width="2" width="192" x="1050" y="18" />
<rect fill="#EEDDDB" height="24" width="15.84375" x="858" y="18" />
<rect fill="none" height="24" stroke="#405C86" stroke-width="2" width="192" x="858" y="18" />
<rect fill="#EEDDDB" height="24" width="15.84375" x="666" y="18" />
<rect fill="none" height="24" stroke="#405C86" stroke-width="2" width="192" x="666" y="18" />
<rect fill="#EEDDDB" height="24" width="15.84375" x="474" y="18" />
<rect fill="none" height="24" stroke="#405C86" stroke-width="2" width="192" x="474" y="18" />
<rect fill="#EEDDDB" height="24" width="15.84375" x="282" y="18" />
<rect fill="none" height="24" stroke="#405C86" stroke-width="2" width="192" x="282" y="18" />
<rect fill="#EEDDDB" height="24" width="15.84375" x="90" y="18" />
<rect fill="none" height="24" stroke="#405C86" stroke-width="2" width="192" x="90" y="18" />
<text class="register-name" x="80" y="30">Zd</text>
<text class="intrinsic-name" x="80" y="42">op1</text>
<text class="register-number" x="10" y="30">(1)</text>
<rect fill="#DEE6F1" height="24" width="176.15625" x="6057.84375" y="138" />
<rect fill="#EEDDDB" height="24" width="15.84375" x="6042" y="138" />
<rect fill="none" height="24" stroke="#405C86" stroke-width="2" width="192" x="6042" y="138" />
<rect fill="#DEE6F1" height="24" width="176.15625" x="5865.84375" y="138" />
<rect fill="#EEDDDB" height="24" width="15.84375" x="5850" y="138" />
<rect fill="none" height="24" stroke="#405C86" stroke-width="2" width="192" x="5850" y="138" />
<rect fill="#DEE6F1" height="24" width="176.15625" x="5673.84375" y="138" />
<rect fill="#EEDDDB" height="24" width="15.84375" x="5658" y="138" />
<rect fill="none" height="24" stroke="#405C86" stroke-width="2" width="192" x="5658" y="138" />
<rect fill="#DEE6F1" height="24" width="176.15625" x="5481.84375" y="138" />
<rect fill="#EEDDDB" height="24" width="15.84375" x="5466" y="138" />
<rect fill="none" height="24" stroke="#405C86" stroke-width="2" width="192" x="5466" y="138" />
<rect fill="#DEE6F1" height="24" width="176.15625" x="5289.84375" y="138" />
<rect fill="#EEDDDB" height="24" width="15.84375" x="5274" y="138" />
<rect fill="none" height="24" stroke="#405C86" stroke-width="2" width="192" x="5274" y="138" />
<rect fill="#DEE6F1" height="24" width="176.15625" x="5097.84375" y="138" />
<rect fill="#EEDDDB" height="24" width="15.84375" x="5082" y="138" />
<rect fill="none" height="24" stroke="#405C86" stroke-width="2" width="192" x="5082" y="138" />
<rect fill="#DEE6F1" height="24" width="176.15625" x="4905.84375" y="138" />
<rect fill="#EEDDDB" height="24" width="15.84375" x="4890" y="138" />
<rect fill="none" height="24" stroke="#405C86" stroke-width="2" width="192" x="4890" y="138" />
<rect fill="#DEE6F1" height="24" width="176.15625" x="4713.84375" y="138" />
<rect fill="#EEDDDB" height="24" width="15.84375" x="4698" y="138" />
<rect fill="none" height="24" stroke="#405C86" stroke-width="2" width="192" x="4698" y="138" />
<rect fill="#DEE6F1" height="24" width="176.15625" x="4521.84375" y="138" />
<rect fill="#EEDDDB" height="24" width="15.84375" x="4506" y="138" />
<rect fill="none" height="24" stroke="#405C86" stroke-width="2" width="192" x="4506" y="138" />
<rect fill="#DEE6F1" height="24" width="176.15625" x="4329.84375" y="138" />
<rect fill="#EEDDDB" height="24" width="15.84375" x="4314" y="138" />
<rect fill="none" height="24" stroke="#405C86" stroke-width="2" width="192" x="4314" y="138" />
<rect fill="#DEE6F1" height="24" width="176.15625" x="4137.84375" y="138" />
<rect fill="#EEDDDB" height="24" width="15.84375" x="4122" y="138" />
<rect fill="none" height="24" stroke="#405C86" stroke-width="2" width="192" x="4122" y="138" />
<rect fill="#DEE6F1" height="24" width="176.15625" x="3945.84375" y="138" />
<rect fill="#EEDDDB" height="24" width="15.84375" x="3930" y="138" />
<rect fill="none" height="24" stroke="#405C86" stroke-width="2" width="192" x="3930" y="138" />
<rect fill="#DEE6F1" height="24" width="176.15625" x="3753.84375" y="138" />
<rect fill="#EEDDDB" height="24" width="15.84375" x="3738" y="138" />
<rect fill="none" height="24" stroke="#405C86" stroke-width="2" width="192" x="3738" y="138" />
<rect fill="#DEE6F1" height="24" width="176.15625" x="3561.84375" y="138" />
<rect fill="#EEDDDB" height="24" width="15.84375" x="3546" y="138" />
<rect fill="none" height="24" stroke="#405C86" stroke-width="2" width="192" x="3546" y="138" />
<rect fill="#DEE6F1" height="24" width="176.15625" x="3369.84375" y="138" />
<rect fill="#EEDDDB" height="24" width="15.84375" x="3354" y="138" />
<rect fill="none" height="24" stroke="#405C86" stroke-width="2" width="192" x="3354" y="138" />
<rect fill="#DEE6F1" height="24" width="176.15625" x="3177.84375" y="138" />
<rect fill="#EEDDDB" height="24" width="15.84375" x="3162" y="138" />
<rect fill="none" height="24" stroke="#405C86" stroke-width="2" width="192" x="3162" y="138" />
<rect fill="#DEE6F1" height="24" width="176.15625" x="2985.84375" y="138" />
<rect fill="#EEDDDB" height="24" width="15.84375" x="2970" y="138" />
<rect fill="none" height="24" stroke="#405C86" stroke-width="2" width="192" x="2970" y="138" />
<rect fill="#DEE6F1" height="24" width="176.15625" x="2793.84375" y="138" />
<rect fill="#EEDDDB" height="24" width="15.84375" x="2778" y="138" />
<rect fill="none" height="24" stroke="#405C86" stroke-width="2" width="192" x="2778" y="138" />
<rect fill="#DEE6F1" height="24" width="176.15625" x="2601.84375" y="138" />
<rect fill="#EEDDDB" height="24" width="15.84375" x="2586" y="138" />
<rect fill="none" height="24" stroke="#405C86" stroke-width="2" width="192" x="2586" y="138" />
<rect fill="#DEE6F1" height="24" width="176.15625" x="2409.84375" y="138" />
<rect fill="#EEDDDB" height="24" width="15.84375" x="2394" y="138" />
<rect fill="none" height="24" stroke="#405C86" stroke-width="2" width="192" x="2394" y="138" />
<rect fill="#DEE6F1" height="24" width="176.15625" x="2217.84375" y="138" />
<rect fill="#EEDDDB" height="24" width="15.84375" x="2202" y="138" />
<rect fill="none" height="24" stroke="#405C86" stroke-width="2" width="192" x="2202" y="138" />
<rect fill="#DEE6F1" height="24" width="176.15625" x="2025.84375" y="138" />
<rect fill="#EEDDDB" height="24" width="15.84375" x="2010" y="138" />
<rect fill="none" height="24" stroke="#405C86" stroke-width="2" width="192" x="2010" y="138" />
<rect fill="#DEE6F1" height="24" width="176.15625" x="1833.84375" y="138" />
<rect fill="#EEDDDB" height="24" width="15.84375" x="1818" y="138" />
<rect fill="none" height="24" stroke="#405C86" stroke-width="2" width="192" x="1818" y="138" />
<rect fill="#DEE6F1" height="24" width="176.15625" x="1641.84375" y="138" />
<rect fill="#EEDDDB" height="24" width="15.84375" x="1626" y="138" />
<rect fill="none" height="24" stroke="#405C86" stroke-width="2" width="192" x="1626" y="138" />
<rect fill="#DEE6F1" height="24" width="176.15625" x="1449.84375" y="138" />
<rect fill="#EEDDDB" height="24" width="15.84375" x="1434" y="138" />
<rect fill="none" height="24" stroke="#405C86" stroke-width="2" width="192" x="1434" y="138" />
<rect fill="#DEE6F1" height="24" width="176.15625" x="1257.84375" y="138" />
<rect fill="#EEDDDB" height="24" width="15.84375" x="1242" y="138" />
<rect fill="none" height="24" stroke="#405C86" stroke-width="2" width="192" x="1242" y="138" />
<rect fill="#DEE6F1" height="24" width="176.15625" x="1065.84375" y="138" />
<rect fill="#EEDDDB" height="24" width="15.84375" x="1050" y="138" />
<rect fill="none" height="24" stroke="#405C86" stroke-width="2" width="192" x="1050" y="138" />
<rect fill="#DEE6F1" height="24" width="176.15625" x="873.84375" y="138" />
<rect fill="#EEDDDB" height="24" width="15.84375" x="858" y="138" />
<rect fill="none" height="24" stroke="#405C86" stroke-width="2" width="192" x="858" y="138" />
<rect fill="#DEE6F1" height="24" width="176.15625" x="681.84375" y="138" />
<rect fill="#EEDDDB" height="24" width="15.84375" x="666" y="138" />
<rect fill="none" height="24" stroke="#405C86" stroke-width="2" width="192" x="666" y="138" />
<rect fill="#DEE6F1" height="24" width="176.15625" x="489.84375" y="138" />
<rect fill="#EEDDDB" height="24" width="15.84375" x="474" y="138" />
<rect fill="none" height="24" stroke="#405C86" stroke-width="2" width="192" x="474" y="138" />
<rect fill="#DEE6F1" height="24" width="176.15625" x="297.84375" y="138" />
<rect fill="#EEDDDB" height="24" width="15.84375" x="282" y="138" />
<rect fill="none" height="24" stroke="#405C86" stroke-width="2" width="192" x="282" y="138" />
<rect fill="#DEE6F1" height="24" width="176.15625" x="105.84375" y="138" />
<rect fill="#EEDDDB" height="24" width="15.84375" x="90" y="138" />
<rect fill="none" height="24" stroke="#405C86" stroke-width="2" width="192" x="90" y="138" />
<text class="register-name" x="80" y="150">Zd</text>
<text class="intrinsic-name" x="80" y="162">returns</text>
<text class="register-number" x="10" y="150">(3)</text>
<line stroke="#567DB6" stroke-dasharray="3 1" stroke-width="1" x1="6049.921875" x2="6049.921875" y1="42.5" y2="137" />
<line marker-end="url(#arrowhead)" stroke="none" stroke-dasharray="3 1" x1="6049.921875" x2="6049.921875" y1="42.5" y2="137" />
<line stroke="#567DB6" stroke-dasharray="3 1" stroke-width="1" x1="5857.921875" x2="5857.921875" y1="42.5" y2="137" />
<line marker-end="url(#arrowhead)" stroke="none" stroke-dasharray="3 1" x1="5857.921875" x2="5857.921875" y1="42.5" y2="137" />
<line stroke="#567DB6" stroke-dasharray="3 1" stroke-width="1" x1="5665.921875" x2="5665.921875" y1="42.5" y2="137" />
<line marker-end="url(#arrowhead)" stroke="none" stroke-dasharray="3 1" x1="5665.921875" x2="5665.921875" y1="42.5" y2="137" />
<line stroke="#567DB6" stroke-dasharray="3 1" stroke-width="1" x1="5473.921875" x2="5473.921875" y1="42.5" y2="137" />
<line marker-end="url(#arrowhead)" stroke="none" stroke-dasharray="3 1" x1="5473.921875" x2="5473.921875" y1="42.5" y2="137" />
<line stroke="#567DB6" stroke-dasharray="3 1" stroke-width="1" x1="5281.921875" x2="5281.921875" y1="42.5" y2="137" />
<line marker-end="url(#arrowhead)" stroke="none" stroke-dasharray="3 1" x1="5281.921875" x2="5281.921875" y1="42.5" y2="137" />
<line stroke="#567DB6" stroke-dasharray="3 1" stroke-width="1" x1="5089.921875" x2="5089.921875" y1="42.5" y2="137" />
<line marker-end="url(#arrowhead)" stroke="none" stroke-dasharray="3 1" x1="5089.921875" x2="5089.921875" y1="42.5" y2="137" />
<line stroke="#567DB6" stroke-dasharray="3 1" stroke-width="1" x1="4897.921875" x2="4897.921875" y1="42.5" y2="137" />
<line marker-end="url(#arrowhead)" stroke="none" stroke-dasharray="3 1" x1="4897.921875" x2="4897.921875" y1="42.5" y2="137" />
<line stroke="#567DB6" stroke-dasharray="3 1" stroke-width="1" x1="4705.921875" x2="4705.921875" y1="42.5" y2="137" />
<line marker-end="url(#arrowhead)" stroke="none" stroke-dasharray="3 1" x1="4705.921875" x2="4705.921875" y1="42.5" y2="137" />
<line stroke="#567DB6" stroke-dasharray="3 1" stroke-width="1" x1="4513.921875" x2="4513.921875" y1="42.5" y2="137" />
<line marker-end="url(#arrowhead)" stroke="none" stroke-dasharray="3 1" x1="4513.921875" x2="4513.921875" y1="42.5" y2="137" />
<line stroke="#567DB6" stroke-dasharray="3 1" stroke-width="1" x1="4321.921875" x2="4321.921875" y1="42.5" y2="137" />
<line marker-end="url(#arrowhead)" stroke="none" stroke-dasharray="3 1" x1="4321.921875" x2="4321.921875" y1="42.5" y2="137" />
<line stroke="#567DB6" stroke-dasharray="3 1" stroke-width="1" x1="4129.921875" x2="4129.921875" y1="42.5" y2="137" />
<line marker-end="url(#arrowhead)" stroke="none" stroke-dasharray="3 1" x1="4129.921875" x2="4129.921875" y1="42.5" y2="137" />
<line stroke="#567DB6" stroke-dasharray="3 1" stroke-width="1" x1="3937.921875" x2="3937.921875" y1="42.5" y2="137" />
<line marker-end="url(#arrowhead)" stroke="none" stroke-dasharray="3 1" x1="3937.921875" x2="3937.921875" y1="42.5" y2="137" />
<line stroke="#567DB6" stroke-dasharray="3 1" stroke-width="1" x1="3745.921875" x2="3745.921875" y1="42.5" y2="137" />
<line marker-end="url(#arrowhead)" stroke="none" stroke-dasharray="3 1" x1="3745.921875" x2="3745.921875" y1="42.5" y2="137" />
<line stroke="#567DB6" stroke-dasharray="3 1" stroke-width="1" x1="3553.921875" x2="3553.921875" y1="42.5" y2="137" />
<line marker-end="url(#arrowhead)" stroke="none" stroke-dasharray="3 1" x1="3553.921875" x2="3553.921875" y1="42.5" y2="137" />
<line stroke="#567DB6" stroke-dasharray="3 1" stroke-width="1" x1="3361.921875" x2="3361.921875" y1="42.5" y2="137" />
<line marker-end="url(#arrowhead)" stroke="none" stroke-dasharray="3 1" x1="3361.921875" x2="3361.921875" y1="42.5" y2="137" />
<line stroke="#567DB6" stroke-dasharray="3 1" stroke-width="1" x1="3169.921875" x2="3169.921875" y1="42.5" y2="137" />
<line marker-end="url(#arrowhead)" stroke="none" stroke-dasharray="3 1" x1="3169.921875" x2="3169.921875" y1="42.5" y2="137" />
<line stroke="#567DB6" stroke-dasharray="3 1" stroke-width="1" x1="2977.921875" x2="2977.921875" y1="42.5" y2="137" />
<line marker-end="url(#arrowhead)" stroke="none" stroke-dasharray="3 1" x1="2977.921875" x2="2977.921875" y1="42.5" y2="137" />
<line stroke="#567DB6" stroke-dasharray="3 1" stroke-width="1" x1="2785.921875" x2="2785.921875" y1="42.5" y2="137" />
<line marker-end="url(#arrowhead)" stroke="none" stroke-dasharray="3 1" x1="2785.921875" x2="2785.921875" y1="42.5" y2="137" />
<line stroke="#567DB6" stroke-dasharray="3 1" stroke-width="1" x1="2593.921875" x2="2593.921875" y1="42.5" y2="137" />
<line marker-end="url(#arrowhead)" stroke="none" stroke-dasharray="3 1" x1="2593.921875" x2="2593.921875" y1="42.5" y2="137" />
<line stroke="#567DB6" stroke-dasharray="3 1" stroke-width="1" x1="2401.921875" x2="2401.921875" y1="42.5" y2="137" />
<line marker-end="url(#arrowhead)" stroke="none" stroke-dasharray="3 1" x1="2401.921875" x2="2401.921875" y1="42.5" y2="137" />
<line stroke="#567DB6" stroke-dasharray="3 1" stroke-width="1" x1="2209.921875" x2="2209.921875" y1="42.5" y2="137" />
<line marker-end="url(#arrowhead)" stroke="none" stroke-dasharray="3 1" x1="2209.921875" x2="2209.921875" y1="42.5" y2="137" />
<line stroke="#567DB6" stroke-dasharray="3 1" stroke-width="1" x1="2017.921875" x2="2017.921875" y1="42.5" y2="137" />
<line marker-end="url(#arrowhead)" stroke="none" stroke-dasharray="3 1" x1="2017.921875" x2="2017.921875" y1="42.5" y2="137" />
<line stroke="#567DB6" stroke-dasharray="3 1" stroke-width="1" x1="1825.921875" x2="1825.921875" y1="42.5" y2="137" />
<line marker-end="url(#arrowhead)" stroke="none" stroke-dasharray="3 1" x1="1825.921875" x2="1825.921875" y1="42.5" y2="137" />
<line stroke="#567DB6" stroke-dasharray="3 1" stroke-width="1" x1="1633.921875" x2="1633.921875" y1="42.5" y2="137" />
<line marker-end="url(#arrowhead)" stroke="none" stroke-dasharray="3 1" x1="1633.921875" x2="1633.921875" y1="42.5" y2="137" />
<line stroke="#567DB6" stroke-dasharray="3 1" stroke-width="1" x1="1441.921875" x2="1441.921875" y1="42.5" y2="137" />
<line marker-end="url(#arrowhead)" stroke="none" stroke-dasharray="3 1" x1="1441.921875" x2="1441.921875" y1="42.5" y2="137" />
<line stroke="#567DB6" stroke-dasharray="3 1" stroke-width="1" x1="1249.921875" x2="1249.921875" y1="42.5" y2="137" />
<line marker-end="url(#arrowhead)" stroke="none" stroke-dasharray="3 1" x1="1249.921875" x2="1249.921875" y1="42.5" y2="137" />
<line stroke="#567DB6" stroke-dasharray="3 1" stroke-width="1" x1="1057.921875" x2="1057.921875" y1="42.5" y2="137" />
<line marker-end="url(#arrowhead)" stroke="none" stroke-dasharray="3 1" x1="1057.921875" x2="1057.921875" y1="42.5" y2="137" />
<line stroke="#567DB6" stroke-dasharray="3 1" stroke-width="1" x1="865.921875" x2="865.921875" y1="42.5" y2="137" />
<line marker-end="url(#arrowhead)" stroke="none" stroke-dasharray="3 1" x1="865.921875" x2="865.921875" y1="42.5" y2="137" />
<line stroke="#567DB6" stroke-dasharray="3 1" stroke-width="1" x1="673.921875" x2="673.921875" y1="42.5" y2="137" />
<line marker-end="url(#arrowhead)" stroke="none" stroke-dasharray="3 1" x1="673.921875" x2="673.921875" y1="42.5" y2="137" />
<line stroke="#567DB6" stroke-dasharray="3 1" stroke-width="1" x1="481.921875" x2="481.921875" y1="42.5" y2="137" />
<line marker-end="url(#arrowhead)" stroke="none" stroke-dasharray="3 1" x1="481.921875" x2="481.921875" y1="42.5" y2="137" />
<line stroke="#567DB6" stroke-dasharray="3 1" stroke-width="1" x1="289.921875" x2="289.921875" y1="42.5" y2="137" />
<line marker-end="url(#arrowhead)" stroke="none" stroke-dasharray="3 1" x1="289.921875" x2="289.921875" y1="42.5" y2="137" />
<line stroke="#567DB6" stroke-dasharray="3 1" stroke-width="1" x1="97.921875" x2="97.921875" y1="42.5" y2="137" />
<line marker-end="url(#arrowhead)" stroke="none" stroke-dasharray="3 1" x1="97.921875" x2="97.921875" y1="42.5" y2="137" />
<line marker-end="url(#arrowhead)" stroke="none" x1="6130.078125" x2="6145.921875" y1="90.5" y2="137" />
<line marker-end="url(#arrowhead)" stroke="none" x1="5938.078125" x2="5953.921875" y1="90.5" y2="137" />
<line marker-end="url(#arrowhead)" stroke="none" x1="5746.078125" x2="5761.921875" y1="90.5" y2="137" />
<line marker-end="url(#arrowhead)" stroke="none" x1="5554.078125" x2="5569.921875" y1="90.5" y2="137" />
<line marker-end="url(#arrowhead)" stroke="none" x1="5362.078125" x2="5377.921875" y1="90.5" y2="137" />
<line marker-end="url(#arrowhead)" stroke="none" x1="5170.078125" x2="5185.921875" y1="90.5" y2="137" />
<line marker-end="url(#arrowhead)" stroke="none" x1="4978.078125" x2="4993.921875" y1="90.5" y2="137" />
<line marker-end="url(#arrowhead)" stroke="none" x1="4786.078125" x2="4801.921875" y1="90.5" y2="137" />
<line marker-end="url(#arrowhead)" stroke="none" x1="4594.078125" x2="4609.921875" y1="90.5" y2="137" />
<line marker-end="url(#arrowhead)" stroke="none" x1="4402.078125" x2="4417.921875" y1="90.5" y2="137" />
<line marker-end="url(#arrowhead)" stroke="none" x1="4210.078125" x2="4225.921875" y1="90.5" y2="137" />
<line marker-end="url(#arrowhead)" stroke="none" x1="4018.078125" x2="4033.921875" y1="90.5" y2="137" />
<line marker-end="url(#arrowhead)" stroke="none" x1="3826.078125" x2="3841.921875" y1="90.5" y2="137" />
<line marker-end="url(#arrowhead)" stroke="none" x1="3634.078125" x2="3649.921875" y1="90.5" y2="137" />
<line marker-end="url(#arrowhead)" stroke="none" x1="3442.078125" x2="3457.921875" y1="90.5" y2="137" />
<line marker-end="url(#arrowhead)" stroke="none" x1="3250.078125" x2="3265.921875" y1="90.5" y2="137" />
<line marker-end="url(#arrowhead)" stroke="none" x1="3058.078125" x2="3073.921875" y1="90.5" y2="137" />
<line marker-end="url(#arrowhead)" stroke="none" x1="2866.078125" x2="2881.921875" y1="90.5" y2="137" />
<line marker-end="url(#arrowhead)" stroke="none" x1="2674.078125" x2="2689.921875" y1="90.5" y2="137" />
<line marker-end="url(#arrowhead)" stroke="none" x1="2482.078125" x2="2497.921875" y1="90.5" y2="137" />
<line marker-end="url(#arrowhead)" stroke="none" x1="2290.078125" x2="2305.921875" y1="90.5" y2="137" />
<line marker-end="url(#arrowhead)" stroke="none" x1="2098.078125" x2="2113.921875" y1="90.5" y2="137" />
<line marker-end="url(#arrowhead)" stroke="none" x1="1906.078125" x2="1921.921875" y1="90.5" y2="137" />
<line marker-end="url(#arrowhead)" stroke="none" x1="1714.078125" x2="1729.921875" y1="90.5" y2="137" />
<line marker-end="url(#arrowhead)" stroke="none" x1="1522.078125" x2="1537.921875" y1="90.5" y2="137" />
<line marker-end="url(#arrowhead)" stroke="none" x1="1330.078125" x2="1345.921875" y1="90.5" y2="137" />
<line marker-end="url(#arrowhead)" stroke="none" x1="1138.078125" x2="1153.921875" y1="90.5" y2="137" />
<line marker-end="url(#arrowhead)" stroke="none" x1="946.078125" x2="961.921875" y1="90.5" y2="137" />
<line marker-end="url(#arrowhead)" stroke="none" x1="754.078125" x2="769.921875" y1="90.5" y2="137" />
<line marker-end="url(#arrowhead)" stroke="none" x1="562.078125" x2="577.921875" y1="90.5" y2="137" />
<line marker-end="url(#arrowhead)" stroke="none" x1="370.078125" x2="385.921875" y1="90.5" y2="137" />
<line marker-end="url(#arrowhead)" stroke="none" x1="178.078125" x2="193.921875" y1="90.5" y2="137" />
</svg>