<svg xmlns="http://www.w3.org/2000/svg" viewBox="0 0 1638 171">
<style>
.label { font: 14px Helvetica; dominant-baseline: middle; text-anchor: middle; }
.title-left { font: 12px Helvetica; dominant-baseline: middle; }
.title-right { font: 12px Helvetica; dominant-baseline: middle; text-anchor: end; }
.title-intrinsic { font: 12px Helvetica; dominant-baseline: middle; text-anchor: middle; fill: #6778ED; }
.title { font: 12px Helvetica; dominant-baseline: middle; text-anchor: middle; }
.title-unused { font: 12px Helvetica; dominant-baseline: middle; text-anchor: middle; fill: #AAA; }
.register-name { font: 14px Helvetica; dominant-baseline: middle; text-anchor: end; font-style: italic; }
.memory-name { font: 14px Helvetica; dominant-baseline: middle; text-anchor: end; }
.register-number { font: 14px Helvetica; dominant-baseline: middle; text-anchor: start; }
.intrinsic-name { font: 14px Helvetica; dominant-baseline: middle; text-anchor: end; fill: #6778ED; }
.intrinsic-color { fill: #6778ED; }
.small-label { font: 12px Helvetica; dominant-baseline: middle; text-anchor: middle; }
.label-10px { font: 10px Helvetica; dominant-baseline: middle; text-anchor: middle; }
.smaller-label { font: 9px Helvetica; dominant-baseline: middle; text-anchor: middle; }
.label-6px { font: 6px Helvetica; dominant-baseline: middle; text-anchor: middle; }
.label-7px { font: 7px Helvetica; dominant-baseline: middle; text-anchor: middle; }
.unused { fill: #AAA; }
.dim { fill: #888; }
</style>
<defs>
<marker id="arrowhead" markerWidth="10.75" markerHeight="24.5" refX="9.0" refY="6.125" orient="auto">
<polyline points="0.5 0.5, 8.75 6.125, 0.5 11.75" stroke="#567DB6" stroke-width="1" fill="none"/>
</marker>
</defs>
<line stroke="#567DB6" stroke-width="1" x1="1594.3125" x2="1609.6875" y1="90.5" y2="137" />
<line stroke="#567DB6" stroke-width="1" x1="1546.3125" x2="1561.6875" y1="90.5" y2="137" />
<line stroke="#567DB6" stroke-width="1" x1="1498.3125" x2="1513.6875" y1="90.5" y2="137" />
<line stroke="#567DB6" stroke-width="1" x1="1450.3125" x2="1465.6875" y1="90.5" y2="137" />
<line stroke="#567DB6" stroke-width="1" x1="1402.3125" x2="1417.6875" y1="90.5" y2="137" />
<line stroke="#567DB6" stroke-width="1" x1="1354.3125" x2="1369.6875" y1="90.5" y2="137" />
<line stroke="#567DB6" stroke-width="1" x1="1306.3125" x2="1321.6875" y1="90.5" y2="137" />
<line stroke="#567DB6" stroke-width="1" x1="1258.3125" x2="1273.6875" y1="90.5" y2="137" />
<line stroke="#567DB6" stroke-width="1" x1="1210.3125" x2="1225.6875" y1="90.5" y2="137" />
<line stroke="#567DB6" stroke-width="1" x1="1162.3125" x2="1177.6875" y1="90.5" y2="137" />
<line stroke="#567DB6" stroke-width="1" x1="1114.3125" x2="1129.6875" y1="90.5" y2="137" />
<line stroke="#567DB6" stroke-width="1" x1="1066.3125" x2="1081.6875" y1="90.5" y2="137" />
<line stroke="#567DB6" stroke-width="1" x1="1018.3125" x2="1033.6875" y1="90.5" y2="137" />
<line stroke="#567DB6" stroke-width="1" x1="970.3125" x2="985.6875" y1="90.5" y2="137" />
<line stroke="#567DB6" stroke-width="1" x1="922.3125" x2="937.6875" y1="90.5" y2="137" />
<line stroke="#567DB6" stroke-width="1" x1="874.3125" x2="889.6875" y1="90.5" y2="137" />
<line stroke="#567DB6" stroke-width="1" x1="826.3125" x2="841.6875" y1="90.5" y2="137" />
<line stroke="#567DB6" stroke-width="1" x1="778.3125" x2="793.6875" y1="90.5" y2="137" />
<line stroke="#567DB6" stroke-width="1" x1="730.3125" x2="745.6875" y1="90.5" y2="137" />
<line stroke="#567DB6" stroke-width="1" x1="682.3125" x2="697.6875" y1="90.5" y2="137" />
<line stroke="#567DB6" stroke-width="1" x1="634.3125" x2="649.6875" y1="90.5" y2="137" />
<line stroke="#567DB6" stroke-width="1" x1="586.3125" x2="601.6875" y1="90.5" y2="137" />
<line stroke="#567DB6" stroke-width="1" x1="538.3125" x2="553.6875" y1="90.5" y2="137" />
<line stroke="#567DB6" stroke-width="1" x1="490.3125" x2="505.6875" y1="90.5" y2="137" />
<line stroke="#567DB6" stroke-width="1" x1="442.3125" x2="457.6875" y1="90.5" y2="137" />
<line stroke="#567DB6" stroke-width="1" x1="394.3125" x2="409.6875" y1="90.5" y2="137" />
<line stroke="#567DB6" stroke-width="1" x1="346.3125" x2="361.6875" y1="90.5" y2="137" />
<line stroke="#567DB6" stroke-width="1" x1="298.3125" x2="313.6875" y1="90.5" y2="137" />
<line stroke="#567DB6" stroke-width="1" x1="250.3125" x2="265.6875" y1="90.5" y2="137" />
<line stroke="#567DB6" stroke-width="1" x1="202.3125" x2="217.6875" y1="90.5" y2="137" />
<line stroke="#567DB6" stroke-width="1" x1="154.3125" x2="169.6875" y1="90.5" y2="137" />
<line stroke="#567DB6" stroke-width="1" x1="106.3125" x2="121.6875" y1="90.5" y2="137" />
<text class="title-left" x="90" y="9">upper</text>
<text class="title-right" x="1626" y="9">lower</text>
<rect fill="#DEE6F1" height="24" width="32.625" x="1578" y="66" />
<rect fill="none" height="24" stroke="#405C86" stroke-width="2" width="48" x="1578" y="66" />
<rect fill="#DEE6F1" height="24" width="32.625" x="1530" y="66" />
<rect fill="none" height="24" stroke="#405C86" stroke-width="2" width="48" x="1530" y="66" />
<rect fill="#DEE6F1" height="24" width="32.625" x="1482" y="66" />
<rect fill="none" height="24" stroke="#405C86" stroke-width="2" width="48" x="1482" y="66" />
<rect fill="#DEE6F1" height="24" width="32.625" x="1434" y="66" />
<rect fill="none" height="24" stroke="#405C86" stroke-width="2" width="48" x="1434" y="66" />
<rect fill="#DEE6F1" height="24" width="32.625" x="1386" y="66" />
<rect fill="none" height="24" stroke="#405C86" stroke-width="2" width="48" x="1386" y="66" />
<rect fill="#DEE6F1" height="24" width="32.625" x="1338" y="66" />
<rect fill="none" height="24" stroke="#405C86" stroke-width="2" width="48" x="1338" y="66" />
<rect fill="#DEE6F1" height="24" width="32.625" x="1290" y="66" />
<rect fill="none" height="24" stroke="#405C86" stroke-width="2" width="48" x="1290" y="66" />
<rect fill="#DEE6F1" height="24" width="32.625" x="1242" y="66" />
<rect fill="none" height="24" stroke="#405C86" stroke-width="2" width="48" x="1242" y="66" />
<rect fill="#DEE6F1" height="24" width="32.625" x="1194" y="66" />
<rect fill="none" height="24" stroke="#405C86" stroke-width="2" width="48" x="1194" y="66" />
<rect fill="#DEE6F1" height="24" width="32.625" x="1146" y="66" />
<rect fill="none" height="24" stroke="#405C86" stroke-width="2" width="48" x="1146" y="66" />
<rect fill="#DEE6F1" height="24" width="32.625" x="1098" y="66" />
<rect fill="none" height="24" stroke="#405C86" stroke-width="2" width="48" x="1098" y="66" />
<rect fill="#DEE6F1" height="24" width="32.625" x="1050" y="66" />
<rect fill="none" height="24" stroke="#405C86" stroke-width="2" width="48" x="1050" y="66" />
<rect fill="#DEE6F1" height="24" width="32.625" x="1002" y="66" />
<rect fill="none" height="24" stroke="#405C86" stroke-width="2" width="48" x="1002" y="66" />
<rect fill="#DEE6F1" height="24" width="32.625" x="954" y="66" />
<rect fill="none" height="24" stroke="#405C86" stroke-width="2" width="48" x="954" y="66" />
<rect fill="#DEE6F1" height="24" width="32.625" x="906" y="66" />
<rect fill="none" height="24" stroke="#405C86" stroke-width="2" width="48" x="906" y="66" />
<rect fill="#DEE6F1" height="24" width="32.625" x="858" y="66" />
<rect fill="none" height="24" stroke="#405C86" stroke-width="2" width="48" x="858" y="66" />
<rect fill="#DEE6F1" height="24" width="32.625" x="810" y="66" />
<rect fill="none" height="24" stroke="#405C86" stroke-width="2" width="48" x="810" y="66" />
<rect fill="#DEE6F1" height="24" width="32.625" x="762" y="66" />
<rect fill="none" height="24" stroke="#405C86" stroke-width="2" width="48" x="762" y="66" />
<rect fill="#DEE6F1" height="24" width="32.625" x="714" y="66" />
<rect fill="none" height="24" stroke="#405C86" stroke-width="2" width="48" x="714" y="66" />
<rect fill="#DEE6F1" height="24" width="32.625" x="666" y="66" />
<rect fill="none" height="24" stroke="#405C86" stroke-width="2" width="48" x="666" y="66" />
<rect fill="#DEE6F1" height="24" width="32.625" x="618" y="66" />
<rect fill="none" height="24" stroke="#405C86" stroke-width="2" width="48" x="618" y="66" />
<rect fill="#DEE6F1" height="24" width="32.625" x="570" y="66" />
<rect fill="none" height="24" stroke="#405C86" stroke-width="2" width="48" x="570" y="66" />
<rect fill="#DEE6F1" height="24" width="32.625" x="522" y="66" />
<rect fill="none" height="24" stroke="#405C86" stroke-width="2" width="48" x="522" y="66" />
<rect fill="#DEE6F1" height="24" width="32.625" x="474" y="66" />
<rect fill="none" height="24" stroke="#405C86" stroke-width="2" width="48" x="474" y="66" />
<rect fill="#DEE6F1" height="24" width="32.625" x="426" y="66" />
<rect fill="none" height="24" stroke="#405C86" stroke-width="2" width="48" x="426" y="66" />
<rect fill="#DEE6F1" height="24" width="32.625" x="378" y="66" />
<rect fill="none" height="24" stroke="#405C86" stroke-width="2" width="48" x="378" y="66" />
<rect fill="#DEE6F1" height="24" width="32.625" x="330" y="66" />
<rect fill="none" height="24" stroke="#405C86" stroke-width="2" width="48" x="330" y="66" />
<rect fill="#DEE6F1" height="24" width="32.625" x="282" y="66" />
<rect fill="none" height="24" stroke="#405C86" stroke-width="2" width="48" x="282" y="66" />
<rect fill="#DEE6F1" height="24" width="32.625" x="234" y="66" />
<rect fill="none" height="24" stroke="#405C86" stroke-width="2" width="48" x="234" y="66" />
<rect fill="#DEE6F1" height="24" width="32.625" x="186" y="66" />
<rect fill="none" height="24" stroke="#405C86" stroke-width="2" width="48" x="186" y="66" />
<rect fill="#DEE6F1" height="24" width="32.625" x="138" y="66" />
<rect fill="none" height="24" stroke="#405C86" stroke-width="2" width="48" x="138" y="66" />
<rect fill="#DEE6F1" height="24" width="32.625" x="90" y="66" />
<rect fill="none" height="24" stroke="#405C86" stroke-width="2" width="48" x="90" y="66" />
<text class="register-name" x="80" y="78">Zn</text>
<text class="intrinsic-name" x="80" y="90">op2</text>
<text class="register-number" x="10" y="78">(2)</text>
<rect fill="#EEDDDB" height="24" width="15.375" x="1578" y="18" />
<rect fill="none" height="24" stroke="#405C86" stroke-width="2" width="48" x="1578" y="18" />
<rect fill="#EEDDDB" height="24" width="15.375" x="1530" y="18" />
<rect fill="none" height="24" stroke="#405C86" stroke-width="2" width="48" x="1530" y="18" />
<rect fill="#EEDDDB" height="24" width="15.375" x="1482" y="18" />
<rect fill="none" height="24" stroke="#405C86" stroke-width="2" width="48" x="1482" y="18" />
<rect fill="#EEDDDB" height="24" width="15.375" x="1434" y="18" />
<rect fill="none" height="24" stroke="#405C86" stroke-width="2" width="48" x="1434" y="18" />
<rect fill="#EEDDDB" height="24" width="15.375" x="1386" y="18" />
<rect fill="none" height="24" stroke="#405C86" stroke-width="2" width="48" x="1386" y="18" />
<rect fill="#EEDDDB" height="24" width="15.375" x="1338" y="18" />
<rect fill="none" height="24" stroke="#405C86" stroke-width="2" width="48" x="1338" y="18" />
<rect fill="#EEDDDB" height="24" width="15.375" x="1290" y="18" />
<rect fill="none" height="24" stroke="#405C86" stroke-width="2" width="48" x="1290" y="18" />
<rect fill="#EEDDDB" height="24" width="15.375" x="1242" y="18" />
<rect fill="none" height="24" stroke="#405C86" stroke-width="2" width="48" x="1242" y="18" />
<rect fill="#EEDDDB" height="24" width="15.375" x="1194" y="18" />
<rect fill="none" height="24" stroke="#405C86" stroke-width="2" width="48" x="1194" y="18" />
<rect fill="#EEDDDB" height="24" width="15.375" x="1146" y="18" />
<rect fill="none" height="24" stroke="#405C86" stroke-width="2" width="48" x="1146" y="18" />
<rect fill="#EEDDDB" height="24" width="15.375" x="1098" y="18" />
<rect fill="none" height="24" stroke="#405C86" stroke-width="2" width="48" x="1098" y="18" />
<rect fill="#EEDDDB" height="24" width="15.375" x="1050" y="18" />
<rect fill="none" height="24" stroke="#405C86" stroke-width="2" width="48" x="1050" y="18" />
<rect fill="#EEDDDB" height="24" width="15.375" x="1002" y="18" />
<rect fill="none" height="24" stroke="#405C86" stroke-width="2" width="48" x="1002" y="18" />
<rect fill="#EEDDDB" height="24" width="15.375" x="954" y="18" />
<rect fill="none" height="24" stroke="#405C86" stroke-width="2" width="48" x="954" y="18" />
<rect fill="#EEDDDB" height="24" width="15.375" x="906" y="18" />
<rect fill="none" height="24" stroke="#405C86" stroke-width="2" width="48" x="906" y="18" />
<rect fill="#EEDDDB" height="24" width="15.375" x="858" y="18" />
<rect fill="none" height="24" stroke="#405C86" stroke-width="2" width="48" x="858" y="18" />
<rect fill="#EEDDDB" height="24" width="15.375" x="810" y="18" />
<rect fill="none" height="24" stroke="#405C86" stroke-width="2" width="48" x="810" y="18" />
<rect fill="#EEDDDB" height="24" width="15.375" x="762" y="18" />
<rect fill="none" height="24" stroke="#405C86" stroke-width="2" width="48" x="762" y="18" />
<rect fill="#EEDDDB" height="24" width="15.375" x="714" y="18" />
<rect fill="none" height="24" stroke="#405C86" stroke-width="2" width="48" x="714" y="18" />
<rect fill="#EEDDDB" height="24" width="15.375" x="666" y="18" />
<rect fill="none" height="24" stroke="#405C86" stroke-width="2" width="48" x="666" y="18" />
<rect fill="#EEDDDB" height="24" width="15.375" x="618" y="18" />
<rect fill="none" height="24" stroke="#405C86" stroke-width="2" width="48" x="618" y="18" />
<rect fill="#EEDDDB" height="24" width="15.375" x="570" y="18" />
<rect fill="none" height="24" stroke="#405C86" stroke-width="2" width="48" x="570" y="18" />
<rect fill="#EEDDDB" height="24" width="15.375" x="522" y="18" />
<rect fill="none" height="24" stroke="#405C86" stroke-width="2" width="48" x="522" y="18" />
<rect fill="#EEDDDB" height="24" width="15.375" x="474" y="18" />
<rect fill="none" height="24" stroke="#405C86" stroke-width="2" width="48" x="474" y="18" />
<rect fill="#EEDDDB" height="24" width="15.375" x="426" y="18" />
<rect fill="none" height="24" stroke="#405C86" stroke-width="2" width="48" x="426" y="18" />
<rect fill="#EEDDDB" height="24" width="15.375" x="378" y="18" />
<rect fill="none" height="24" stroke="#405C86" stroke-width="2" width="48" x="378" y="18" />
<rect fill="#EEDDDB" height="24" width="15.375" x="330" y="18" />
<rect fill="none" height="24" stroke="#405C86" stroke-width="2" width="48" x="330" y="18" />
<rect fill="#EEDDDB" height="24" width="15.375" x="282" y="18" />
<rect fill="none" height="24" stroke="#405C86" stroke-width="2" width="48" x="282" y="18" />
<rect fill="#EEDDDB" height="24" width="15.375" x="234" y="18" />
<rect fill="none" height="24" stroke="#405C86" stroke-width="2" width="48" x="234" y="18" />
<rect fill="#EEDDDB" height="24" width="15.375" x="186" y="18" />
<rect fill="none" height="24" stroke="#405C86" stroke-width="2" width="48" x="186" y="18" />
<rect fill="#EEDDDB" height="24" width="15.375" x="138" y="18" />
<rect fill="none" height="24" stroke="#405C86" stroke-width="2" width="48" x="138" y="18" />
<rect fill="#EEDDDB" height="24" width="15.375" x="90" y="18" />
<rect fill="none" height="24" stroke="#405C86" stroke-width="2" width="48" x="90" y="18" />
<text class="register-name" x="80" y="30">Zd</text>
<text class="intrinsic-name" x="80" y="42">op1</text>
<text class="register-number" x="10" y="30">(1)</text>
<rect fill="#DEE6F1" height="24" width="32.625" x="1593.375" y="138" />
<rect fill="#EEDDDB" height="24" width="15.375" x="1578" y="138" />
<rect fill="none" height="24" stroke="#405C86" stroke-width="2" width="48" x="1578" y="138" />
<rect fill="#DEE6F1" height="24" width="32.625" x="1545.375" y="138" />
<rect fill="#EEDDDB" height="24" width="15.375" x="1530" y="138" />
<rect fill="none" height="24" stroke="#405C86" stroke-width="2" width="48" x="1530" y="138" />
<rect fill="#DEE6F1" height="24" width="32.625" x="1497.375" y="138" />
<rect fill="#EEDDDB" height="24" width="15.375" x="1482" y="138" />
<rect fill="none" height="24" stroke="#405C86" stroke-width="2" width="48" x="1482" y="138" />
<rect fill="#DEE6F1" height="24" width="32.625" x="1449.375" y="138" />
<rect fill="#EEDDDB" height="24" width="15.375" x="1434" y="138" />
<rect fill="none" height="24" stroke="#405C86" stroke-width="2" width="48" x="1434" y="138" />
<rect fill="#DEE6F1" height="24" width="32.625" x="1401.375" y="138" />
<rect fill="#EEDDDB" height="24" width="15.375" x="1386" y="138" />
<rect fill="none" height="24" stroke="#405C86" stroke-width="2" width="48" x="1386" y="138" />
<rect fill="#DEE6F1" height="24" width="32.625" x="1353.375" y="138" />
<rect fill="#EEDDDB" height="24" width="15.375" x="1338" y="138" />
<rect fill="none" height="24" stroke="#405C86" stroke-width="2" width="48" x="1338" y="138" />
<rect fill="#DEE6F1" height="24" width="32.625" x="1305.375" y="138" />
<rect fill="#EEDDDB" height="24" width="15.375" x="1290" y="138" />
<rect fill="none" height="24" stroke="#405C86" stroke-width="2" width="48" x="1290" y="138" />
<rect fill="#DEE6F1" height="24" width="32.625" x="1257.375" y="138" />
<rect fill="#EEDDDB" height="24" width="15.375" x="1242" y="138" />
<rect fill="none" height="24" stroke="#405C86" stroke-width="2" width="48" x="1242" y="138" />
<rect fill="#DEE6F1" height="24" width="32.625" x="1209.375" y="138" />
<rect fill="#EEDDDB" height="24" width="15.375" x="1194" y="138" />
<rect fill="none" height="24" stroke="#405C86" stroke-width="2" width="48" x="1194" y="138" />
<rect fill="#DEE6F1" height="24" width="32.625" x="1161.375" y="138" />
<rect fill="#EEDDDB" height="24" width="15.375" x="1146" y="138" />
<rect fill="none" height="24" stroke="#405C86" stroke-width="2" width="48" x="1146" y="138" />
<rect fill="#DEE6F1" height="24" width="32.625" x="1113.375" y="138" />
<rect fill="#EEDDDB" height="24" width="15.375" x="1098" y="138" />
<rect fill="none" height="24" stroke="#405C86" stroke-width="2" width="48" x="1098" y="138" />
<rect fill="#DEE6F1" height="24" width="32.625" x="1065.375" y="138" />
<rect fill="#EEDDDB" height="24" width="15.375" x="1050" y="138" />
<rect fill="none" height="24" stroke="#405C86" stroke-width="2" width="48" x="1050" y="138" />
<rect fill="#DEE6F1" height="24" width="32.625" x="1017.375" y="138" />
<rect fill="#EEDDDB" height="24" width="15.375" x="1002" y="138" />
<rect fill="none" height="24" stroke="#405C86" stroke-width="2" width="48" x="1002" y="138" />
<rect fill="#DEE6F1" height="24" width="32.625" x="969.375" y="138" />
<rect fill="#EEDDDB" height="24" width="15.375" x="954" y="138" />
<rect fill="none" height="24" stroke="#405C86" stroke-width="2" width="48" x="954" y="138" />
<rect fill="#DEE6F1" height="24" width="32.625" x="921.375" y="138" />
<rect fill="#EEDDDB" height="24" width="15.375" x="906" y="138" />
<rect fill="none" height="24" stroke="#405C86" stroke-width="2" width="48" x="906" y="138" />
<rect fill="#DEE6F1" height="24" width="32.625" x="873.375" y="138" />
<rect fill="#EEDDDB" height="24" width="15.375" x="858" y="138" />
<rect fill="none" height="24" stroke="#405C86" stroke-width="2" width="48" x="858" y="138" />
<rect fill="#DEE6F1" height="24" width="32.625" x="825.375" y="138" />
<rect fill="#EEDDDB" height="24" width="15.375" x="810" y="138" />
<rect fill="none" height="24" stroke="#405C86" stroke-width="2" width="48" x="810" y="138" />
<rect fill="#DEE6F1" height="24" width="32.625" x="777.375" y="138" />
<rect fill="#EEDDDB" height="24" width="15.375" x="762" y="138" />
<rect fill="none" height="24" stroke="#405C86" stroke-width="2" width="48" x="762" y="138" />
<rect fill="#DEE6F1" height="24" width="32.625" x="729.375" y="138" />
<rect fill="#EEDDDB" height="24" width="15.375" x="714" y="138" />
<rect fill="none" height="24" stroke="#405C86" stroke-width="2" width="48" x="714" y="138" />
<rect fill="#DEE6F1" height="24" width="32.625" x="681.375" y="138" />
<rect fill="#EEDDDB" height="24" width="15.375" x="666" y="138" />
<rect fill="none" height="24" stroke="#405C86" stroke-width="2" width="48" x="666" y="138" />
<rect fill="#DEE6F1" height="24" width="32.625" x="633.375" y="138" />
<rect fill="#EEDDDB" height="24" width="15.375" x="618" y="138" />
<rect fill="none" height="24" stroke="#405C86" stroke-width="2" width="48" x="618" y="138" />
<rect fill="#DEE6F1" height="24" width="32.625" x="585.375" y="138" />
<rect fill="#EEDDDB" height="24" width="15.375" x="570" y="138" />
<rect fill="none" height="24" stroke="#405C86" stroke-width="2" width="48" x="570" y="138" />
<rect fill="#DEE6F1" height="24" width="32.625" x="537.375" y="138" />
<rect fill="#EEDDDB" height="24" width="15.375" x="522" y="138" />
<rect fill="none" height="24" stroke="#405C86" stroke-width="2" width="48" x="522" y="138" />
<rect fill="#DEE6F1" height="24" width="32.625" x="489.375" y="138" />
<rect fill="#EEDDDB" height="24" width="15.375" x="474" y="138" />
<rect fill="none" height="24" stroke="#405C86" stroke-width="2" width="48" x="474" y="138" />
<rect fill="#DEE6F1" height="24" width="32.625" x="441.375" y="138" />
<rect fill="#EEDDDB" height="24" width="15.375" x="426" y="138" />
<rect fill="none" height="24" stroke="#405C86" stroke-width="2" width="48" x="426" y="138" />
<rect fill="#DEE6F1" height="24" width="32.625" x="393.375" y="138" />
<rect fill="#EEDDDB" height="24" width="15.375" x="378" y="138" />
<rect fill="none" height="24" stroke="#405C86" stroke-width="2" width="48" x="378" y="138" />
<rect fill="#DEE6F1" height="24" width="32.625" x="345.375" y="138" />
<rect fill="#EEDDDB" height="24" width="15.375" x="330" y="138" />
<rect fill="none" height="24" stroke="#405C86" stroke-width="2" width="48" x="330" y="138" />
<rect fill="#DEE6F1" height="24" width="32.625" x="297.375" y="138" />
<rect fill="#EEDDDB" height="24" width="15.375" x="282" y="138" />
<rect fill="none" height="24" stroke="#405C86" stroke-width="2" width="48" x="282" y="138" />
<rect fill="#DEE6F1" height="24" width="32.625" x="249.375" y="138" />
<rect fill="#EEDDDB" height="24" width="15.375" x="234" y="138" />
<rect fill="none" height="24" stroke="#405C86" stroke-width="2" width="48" x="234" y="138" />
<rect fill="#DEE6F1" height="24" width="32.625" x="201.375" y="138" />
<rect fill="#EEDDDB" height="24" width="15.375" x="186" y="138" />
<rect fill="none" height="24" stroke="#405C86" stroke-width="2" width="48" x="186" y="138" />
<rect fill="#DEE6F1" height="24" width="32.625" x="153.375" y="138" />
<rect fill="#EEDDDB" height="24" width="15.375" x="138" y="138" />
<rect fill="none" height="24" stroke="#405C86" stroke-width="2" width="48" x="138" y="138" />
<rect fill="#DEE6F1" height="24" width="32.625" x="105.375" y="138" />
<rect fill="#EEDDDB" height="24" width="15.375" x="90" y="138" />
<rect fill="none" height="24" stroke="#405C86" stroke-width="2" width="48" x="90" y="138" />
<text class="register-name" x="80" y="150">Zd</text>
<text class="intrinsic-name" x="80" y="162">returns</text>
<text class="register-number" x="10" y="150">(3)</text>
<line stroke="#567DB6" stroke-dasharray="3 1" stroke-width="1" x1="1585.6875" x2="1585.6875" y1="42.5" y2="137" />
<line marker-end="url(#arrowhead)" stroke="none" stroke-dasharray="3 1" x1="1585.6875" x2="1585.6875" y1="42.5" y2="137" />
<line stroke="#567DB6" stroke-dasharray="3 1" stroke-width="1" x1="1537.6875" x2="1537.6875" y1="42.5" y2="137" />
<line marker-end="url(#arrowhead)" stroke="none" stroke-dasharray="3 1" x1="1537.6875" x2="1537.6875" y1="42.5" y2="137" />
<line stroke="#567DB6" stroke-dasharray="3 1" stroke-width="1" x1="1489.6875" x2="1489.6875" y1="42.5" y2="137" />
<line marker-end="url(#arrowhead)" stroke="none" stroke-dasharray="3 1" x1="1489.6875" x2="1489.6875" y1="42.5" y2="137" />
<line stroke="#567DB6" stroke-dasharray="3 1" stroke-width="1" x1="1441.6875" x2="1441.6875" y1="42.5" y2="137" />
<line marker-end="url(#arrowhead)" stroke="none" stroke-dasharray="3 1" x1="1441.6875" x2="1441.6875" y1="42.5" y2="137" />
<line stroke="#567DB6" stroke-dasharray="3 1" stroke-width="1" x1="1393.6875" x2="1393.6875" y1="42.5" y2="137" />
<line marker-end="url(#arrowhead)" stroke="none" stroke-dasharray="3 1" x1="1393.6875" x2="1393.6875" y1="42.5" y2="137" />
<line stroke="#567DB6" stroke-dasharray="3 1" stroke-width="1" x1="1345.6875" x2="1345.6875" y1="42.5" y2="137" />
<line marker-end="url(#arrowhead)" stroke="none" stroke-dasharray="3 1" x1="1345.6875" x2="1345.6875" y1="42.5" y2="137" />
<line stroke="#567DB6" stroke-dasharray="3 1" stroke-width="1" x1="1297.6875" x2="1297.6875" y1="42.5" y2="137" />
<line marker-end="url(#arrowhead)" stroke="none" stroke-dasharray="3 1" x1="1297.6875" x2="1297.6875" y1="42.5" y2="137" />
<line stroke="#567DB6" stroke-dasharray="3 1" stroke-width="1" x1="1249.6875" x2="1249.6875" y1="42.5" y2="137" />
<line marker-end="url(#arrowhead)" stroke="none" stroke-dasharray="3 1" x1="1249.6875" x2="1249.6875" y1="42.5" y2="137" />
<line stroke="#567DB6" stroke-dasharray="3 1" stroke-width="1" x1="1201.6875" x2="1201.6875" y1="42.5" y2="137" />
<line marker-end="url(#arrowhead)" stroke="none" stroke-dasharray="3 1" x1="1201.6875" x2="1201.6875" y1="42.5" y2="137" />
<line stroke="#567DB6" stroke-dasharray="3 1" stroke-width="1" x1="1153.6875" x2="1153.6875" y1="42.5" y2="137" />
<line marker-end="url(#arrowhead)" stroke="none" stroke-dasharray="3 1" x1="1153.6875" x2="1153.6875" y1="42.5" y2="137" />
<line stroke="#567DB6" stroke-dasharray="3 1" stroke-width="1" x1="1105.6875" x2="1105.6875" y1="42.5" y2="137" />
<line marker-end="url(#arrowhead)" stroke="none" stroke-dasharray="3 1" x1="1105.6875" x2="1105.6875" y1="42.5" y2="137" />
<line stroke="#567DB6" stroke-dasharray="3 1" stroke-width="1" x1="1057.6875" x2="1057.6875" y1="42.5" y2="137" />
<line marker-end="url(#arrowhead)" stroke="none" stroke-dasharray="3 1" x1="1057.6875" x2="1057.6875" y1="42.5" y2="137" />
<line stroke="#567DB6" stroke-dasharray="3 1" stroke-width="1" x1="1009.6875" x2="1009.6875" y1="42.5" y2="137" />
<line marker-end="url(#arrowhead)" stroke="none" stroke-dasharray="3 1" x1="1009.6875" x2="1009.6875" y1="42.5" y2="137" />
<line stroke="#567DB6" stroke-dasharray="3 1" stroke-width="1" x1="961.6875" x2="961.6875" y1="42.5" y2="137" />
<line marker-end="url(#arrowhead)" stroke="none" stroke-dasharray="3 1" x1="961.6875" x2="961.6875" y1="42.5" y2="137" />
<line stroke="#567DB6" stroke-dasharray="3 1" stroke-width="1" x1="913.6875" x2="913.6875" y1="42.5" y2="137" />
<line marker-end="url(#arrowhead)" stroke="none" stroke-dasharray="3 1" x1="913.6875" x2="913.6875" y1="42.5" y2="137" />
<line stroke="#567DB6" stroke-dasharray="3 1" stroke-width="1" x1="865.6875" x2="865.6875" y1="42.5" y2="137" />
<line marker-end="url(#arrowhead)" stroke="none" stroke-dasharray="3 1" x1="865.6875" x2="865.6875" y1="42.5" y2="137" />
<line stroke="#567DB6" stroke-dasharray="3 1" stroke-width="1" x1="817.6875" x2="817.6875" y1="42.5" y2="137" />
<line marker-end="url(#arrowhead)" stroke="none" stroke-dasharray="3 1" x1="817.6875" x2="817.6875" y1="42.5" y2="137" />
<line stroke="#567DB6" stroke-dasharray="3 1" stroke-width="1" x1="769.6875" x2="769.6875" y1="42.5" y2="137" />
<line marker-end="url(#arrowhead)" stroke="none" stroke-dasharray="3 1" x1="769.6875" x2="769.6875" y1="42.5" y2="137" />
<line stroke="#567DB6" stroke-dasharray="3 1" stroke-width="1" x1="721.6875" x2="721.6875" y1="42.5" y2="137" />
<line marker-end="url(#arrowhead)" stroke="none" stroke-dasharray="3 1" x1="721.6875" x2="721.6875" y1="42.5" y2="137" />
<line stroke="#567DB6" stroke-dasharray="3 1" stroke-width="1" x1="673.6875" x2="673.6875" y1="42.5" y2="137" />
<line marker-end="url(#arrowhead)" stroke="none" stroke-dasharray="3 1" x1="673.6875" x2="673.6875" y1="42.5" y2="137" />
<line stroke="#567DB6" stroke-dasharray="3 1" stroke-width="1" x1="625.6875" x2="625.6875" y1="42.5" y2="137" />
<line marker-end="url(#arrowhead)" stroke="none" stroke-dasharray="3 1" x1="625.6875" x2="625.6875" y1="42.5" y2="137" />
<line stroke="#567DB6" stroke-dasharray="3 1" stroke-width="1" x1="577.6875" x2="577.6875" y1="42.5" y2="137" />
<line marker-end="url(#arrowhead)" stroke="none" stroke-dasharray="3 1" x1="577.6875" x2="577.6875" y1="42.5" y2="137" />
<line stroke="#567DB6" stroke-dasharray="3 1" stroke-width="1" x1="529.6875" x2="529.6875" y1="42.5" y2="137" />
<line marker-end="url(#arrowhead)" stroke="none" stroke-dasharray="3 1" x1="529.6875" x2="529.6875" y1="42.5" y2="137" />
<line stroke="#567DB6" stroke-dasharray="3 1" stroke-width="1" x1="481.6875" x2="481.6875" y1="42.5" y2="137" />
<line marker-end="url(#arrowhead)" stroke="none" stroke-dasharray="3 1" x1="481.6875" x2="481.6875" y1="42.5" y2="137" />
<line stroke="#567DB6" stroke-dasharray="3 1" stroke-width="1" x1="433.6875" x2="433.6875" y1="42.5" y2="137" />
<line marker-end="url(#arrowhead)" stroke="none" stroke-dasharray="3 1" x1="433.6875" x2="433.6875" y1="42.5" y2="137" />
<line stroke="#567DB6" stroke-dasharray="3 1" stroke-width="1" x1="385.6875" x2="385.6875" y1="42.5" y2="137" />
<line marker-end="url(#arrowhead)" stroke="none" stroke-dasharray="3 1" x1="385.6875" x2="385.6875" y1="42.5" y2="137" />
<line stroke="#567DB6" stroke-dasharray="3 1" stroke-width="1" x1="337.6875" x2="337.6875" y1="42.5" y2="137" />
<line marker-end="url(#arrowhead)" stroke="none" stroke-dasharray="3 1" x1="337.6875" x2="337.6875" y1="42.5" y2="137" />
<line stroke="#567DB6" stroke-dasharray="3 1" stroke-width="1" x1="289.6875" x2="289.6875" y1="42.5" y2="137" />
<line marker-end="url(#arrowhead)" stroke="none" stroke-dasharray="3 1" x1="289.6875" x2="289.6875" y1="42.5" y2="137" />
<line stroke="#567DB6" stroke-dasharray="3 1" stroke-width="1" x1="241.6875" x2="241.6875" y1="42.5" y2="137" />
<line marker-end="url(#arrowhead)" stroke="none" stroke-dasharray="3 1" x1="241.6875" x2="241.6875" y1="42.5" y2="137" />
<line stroke="#567DB6" stroke-dasharray="3 1" stroke-width="1" x1="193.6875" x2="193.6875" y1="42.5" y2="137" />
<line marker-end="url(#arrowhead)" stroke="none" stroke-dasharray="3 1" x1="193.6875" x2="193.6875" y1="42.5" y2="137" />
<line stroke="#567DB6" stroke-dasharray="3 1" stroke-width="1" x1="145.6875" x2="145.6875" y1="42.5" y2="137" />
<line marker-end="url(#arrowhead)" stroke="none" stroke-dasharray="3 1" x1="145.6875" x2="145.6875" y1="42.5" y2="137" />
<line stroke="#567DB6" stroke-dasharray="3 1" stroke-width="1" x1="97.6875" x2="97.6875" y1="42.5" y2="137" />
<line marker-end="url(#arrowhead)" stroke="none" stroke-dasharray="3 1" x1="97.6875" x2="97.6875" y1="42.5" y2="137" />
<line marker-end="url(#arrowhead)" stroke="none" x1="1594.3125" x2="1609.6875" y1="90.5" y2="137" />
<line marker-end="url(#arrowhead)" stroke="none" x1="1546.3125" x2="1561.6875" y1="90.5" y2="137" />
<line marker-end="url(#arrowhead)" stroke="none" x1="1498.3125" x2="1513.6875" y1="90.5" y2="137" />
<line marker-end="url(#arrowhead)" stroke="none" x1="1450.3125" x2="1465.6875" y1="90.5" y2="137" />
<line marker-end="url(#arrowhead)" stroke="none" x1="1402.3125" x2="1417.6875" y1="90.5" y2="137" />
<line marker-end="url(#arrowhead)" stroke="none" x1="1354.3125" x2="1369.6875" y1="90.5" y2="137" />
<line marker-end="url(#arrowhead)" stroke="none" x1="1306.3125" x2="1321.6875" y1="90.5" y2="137" />
<line marker-end="url(#arrowhead)" stroke="none" x1="1258.3125" x2="1273.6875" y1="90.5" y2="137" />
<line marker-end="url(#arrowhead)" stroke="none" x1="1210.3125" x2="1225.6875" y1="90.5" y2="137" />
<line marker-end="url(#arrowhead)" stroke="none" x1="1162.3125" x2="1177.6875" y1="90.5" y2="137" />
<line marker-end="url(#arrowhead)" stroke="none" x1="1114.3125" x2="1129.6875" y1="90.5" y2="137" />
<line marker-end="url(#arrowhead)" stroke="none" x1="1066.3125" x2="1081.6875" y1="90.5" y2="137" />
<line marker-end="url(#arrowhead)" stroke="none" x1="1018.3125" x2="1033.6875" y1="90.5" y2="137" />
<line marker-end="url(#arrowhead)" stroke="none" x1="970.3125" x2="985.6875" y1="90.5" y2="137" />
<line marker-end="url(#arrowhead)" stroke="none" x1="922.3125" x2="937.6875" y1="90.5" y2="137" />
<line marker-end="url(#arrowhead)" stroke="none" x1="874.3125" x2="889.6875" y1="90.5" y2="137" />
<line marker-end="url(#arrowhead)" stroke="none" x1="826.3125" x2="841.6875" y1="90.5" y2="137" />
<line marker-end="url(#arrowhead)" stroke="none" x1="778.3125" x2="793.6875" y1="90.5" y2="137" />
<line marker-end="url(#arrowhead)" stroke="none" x1="730.3125" x2="745.6875" y1="90.5" y2="137" />
<line marker-end="url(#arrowhead)" stroke="none" x1="682.3125" x2="697.6875" y1="90.5" y2="137" />
<line marker-end="url(#arrowhead)" stroke="none" x1="634.3125" x2="649.6875" y1="90.5" y2="137" />
<line marker-end="url(#arrowhead)" stroke="none" x1="586.3125" x2="601.6875" y1="90.5" y2="137" />
<line marker-end="url(#arrowhead)" stroke="none" x1="538.3125" x2="553.6875" y1="90.5" y2="137" />
<line marker-end="url(#arrowhead)" stroke="none" x1="490.3125" x2="505.6875" y1="90.5" y2="137" />
<line marker-end="url(#arrowhead)" stroke="none" x1="442.3125" x2="457.6875" y1="90.5" y2="137" />
<line marker-end="url(#arrowhead)" stroke="none" x1="394.3125" x2="409.6875" y1="90.5" y2="137" />
<line marker-end="url(#arrowhead)" stroke="none" x1="346.3125" x2="361.6875" y1="90.5" y2="137" />
<line marker-end="url(#arrowhead)" stroke="none" x1="298.3125" x2="313.6875" y1="90.5" y2="137" />
<line marker-end="url(#arrowhead)" stroke="none" x1="250.3125" x2="265.6875" y1="90.5" y2="137" />
<line marker-end="url(#arrowhead)" stroke="none" x1="202.3125" x2="217.6875" y1="90.5" y2="137" />
<line marker-end="url(#arrowhead)" stroke="none" x1="154.3125" x2="169.6875" y1="90.5" y2="137" />
<line marker-end="url(#arrowhead)" stroke="none" x1="106.3125" x2="121.6875" y1="90.5" y2="137" />
</svg>