<svg xmlns="http://www.w3.org/2000/svg" viewBox="0 0 870 123">
<style>
.label { font: 14px Helvetica; dominant-baseline: middle; text-anchor: middle; }
.title-left { font: 12px Helvetica; dominant-baseline: middle; }
.title-right { font: 12px Helvetica; dominant-baseline: middle; text-anchor: end; }
.title-intrinsic { font: 12px Helvetica; dominant-baseline: middle; text-anchor: middle; fill: #6778ED; }
.title { font: 12px Helvetica; dominant-baseline: middle; text-anchor: middle; }
.title-unused { font: 12px Helvetica; dominant-baseline: middle; text-anchor: middle; fill: #AAA; }
.register-name { font: 14px Helvetica; dominant-baseline: middle; text-anchor: end; font-style: italic; }
.memory-name { font: 14px Helvetica; dominant-baseline: middle; text-anchor: end; }
.register-number { font: 14px Helvetica; dominant-baseline: middle; text-anchor: start; }
.intrinsic-name { font: 14px Helvetica; dominant-baseline: middle; text-anchor: end; fill: #6778ED; }
.intrinsic-color { fill: #6778ED; }
.small-label { font: 12px Helvetica; dominant-baseline: middle; text-anchor: middle; }
.label-10px { font: 10px Helvetica; dominant-baseline: middle; text-anchor: middle; }
.smaller-label { font: 9px Helvetica; dominant-baseline: middle; text-anchor: middle; }
.label-6px { font: 6px Helvetica; dominant-baseline: middle; text-anchor: middle; }
.label-7px { font: 7px Helvetica; dominant-baseline: middle; text-anchor: middle; }
.unused { fill: #AAA; }
.dim { fill: #888; }
</style>
<defs>
<marker id="arrowhead" markerWidth="10.75" markerHeight="24.5" refX="9.0" refY="6.125" orient="auto">
<polyline points="0.5 0.5, 8.75 6.125, 0.5 11.75" stroke="#567DB6" stroke-width="1" fill="none"/>
</marker>
</defs>
<line stroke="#567DB6" stroke-width="1" x1="765.9375" x2="780.625" y1="42.5" y2="89" />
<line stroke="#567DB6" stroke-width="1" x1="842.3125" x2="858" y1="42.5" y2="89" />
<line stroke="#567DB6" stroke-width="1" x1="669.9375" x2="684.625" y1="42.5" y2="89" />
<line stroke="#567DB6" stroke-width="1" x1="746.3125" x2="762" y1="42.5" y2="89" />
<line stroke="#567DB6" stroke-width="1" x1="573.9375" x2="588.625" y1="42.5" y2="89" />
<line stroke="#567DB6" stroke-width="1" x1="650.3125" x2="666" y1="42.5" y2="89" />
<line stroke="#567DB6" stroke-width="1" x1="477.9375" x2="492.625" y1="42.5" y2="89" />
<line stroke="#567DB6" stroke-width="1" x1="554.3125" x2="570" y1="42.5" y2="89" />
<line stroke="#567DB6" stroke-width="1" x1="381.9375" x2="396.625" y1="42.5" y2="89" />
<line stroke="#567DB6" stroke-width="1" x1="458.3125" x2="474" y1="42.5" y2="89" />
<line stroke="#567DB6" stroke-width="1" x1="285.9375" x2="300.625" y1="42.5" y2="89" />
<line stroke="#567DB6" stroke-width="1" x1="362.3125" x2="378" y1="42.5" y2="89" />
<line stroke="#567DB6" stroke-width="1" x1="189.9375" x2="204.625" y1="42.5" y2="89" />
<line stroke="#567DB6" stroke-width="1" x1="266.3125" x2="282" y1="42.5" y2="89" />
<line stroke="#567DB6" stroke-width="1" x1="93.9375" x2="108.625" y1="42.5" y2="89" />
<line stroke="#567DB6" stroke-width="1" x1="170.3125" x2="186" y1="42.5" y2="89" />
<text class="title-left" x="90" y="9">upper</text>
<text class="title-right" x="858" y="9">lower</text>
<rect fill="#DEE6F1" height="24" width="76.375" x="765.9375" y="18" />
<rect fill="#EEDDDB" height="24" width="3.9375" x="762" y="18" />
<rect fill="#ECF1E0" height="24" width="2.9375" x="842.3125" y="18" />
<rect fill="none" height="24" stroke="#405C86" stroke-width="2" width="96" x="762" y="18" />
<rect fill="#DEE6F1" height="24" width="76.375" x="669.9375" y="18" />
<rect fill="#EEDDDB" height="24" width="3.9375" x="666" y="18" />
<rect fill="#ECF1E0" height="24" width="2.9375" x="746.3125" y="18" />
<rect fill="none" height="24" stroke="#405C86" stroke-width="2" width="96" x="666" y="18" />
<rect fill="#DEE6F1" height="24" width="76.375" x="573.9375" y="18" />
<rect fill="#EEDDDB" height="24" width="3.9375" x="570" y="18" />
<rect fill="#ECF1E0" height="24" width="2.9375" x="650.3125" y="18" />
<rect fill="none" height="24" stroke="#405C86" stroke-width="2" width="96" x="570" y="18" />
<rect fill="#DEE6F1" height="24" width="76.375" x="477.9375" y="18" />
<rect fill="#EEDDDB" height="24" width="3.9375" x="474" y="18" />
<rect fill="#ECF1E0" height="24" width="2.9375" x="554.3125" y="18" />
<rect fill="none" height="24" stroke="#405C86" stroke-width="2" width="96" x="474" y="18" />
<rect fill="#DEE6F1" height="24" width="76.375" x="381.9375" y="18" />
<rect fill="#EEDDDB" height="24" width="3.9375" x="378" y="18" />
<rect fill="#ECF1E0" height="24" width="2.9375" x="458.3125" y="18" />
<rect fill="none" height="24" stroke="#405C86" stroke-width="2" width="96" x="378" y="18" />
<rect fill="#DEE6F1" height="24" width="76.375" x="285.9375" y="18" />
<rect fill="#EEDDDB" height="24" width="3.9375" x="282" y="18" />
<rect fill="#ECF1E0" height="24" width="2.9375" x="362.3125" y="18" />
<rect fill="none" height="24" stroke="#405C86" stroke-width="2" width="96" x="282" y="18" />
<rect fill="#DEE6F1" height="24" width="76.375" x="189.9375" y="18" />
<rect fill="#EEDDDB" height="24" width="3.9375" x="186" y="18" />
<rect fill="#ECF1E0" height="24" width="2.9375" x="266.3125" y="18" />
<rect fill="none" height="24" stroke="#405C86" stroke-width="2" width="96" x="186" y="18" />
<rect fill="#DEE6F1" height="24" width="76.375" x="93.9375" y="18" />
<rect fill="#EEDDDB" height="24" width="3.9375" x="90" y="18" />
<rect fill="#ECF1E0" height="24" width="2.9375" x="170.3125" y="18" />
<rect fill="none" height="24" stroke="#405C86" stroke-width="2" width="96" x="90" y="18" />
<text class="register-name" x="80" y="30">Zdn</text>
<text class="intrinsic-name" x="80" y="42">op1</text>
<text class="register-number" x="10" y="30">(1)</text>
<rect fill="#DEE6F1" height="24" width="96" x="762" y="90" />
<rect fill="#DEE6F1" height="24" width="77.375" x="780.625" y="90" />
<rect fill="none" height="24" stroke="#405C86" stroke-width="2" width="96" x="762" y="90" />
<rect fill="#DEE6F1" height="24" width="96" x="666" y="90" />
<rect fill="#DEE6F1" height="24" width="77.375" x="684.625" y="90" />
<rect fill="none" height="24" stroke="#405C86" stroke-width="2" width="96" x="666" y="90" />
<rect fill="#DEE6F1" height="24" width="96" x="570" y="90" />
<rect fill="#DEE6F1" height="24" width="77.375" x="588.625" y="90" />
<rect fill="none" height="24" stroke="#405C86" stroke-width="2" width="96" x="570" y="90" />
<rect fill="#DEE6F1" height="24" width="96" x="474" y="90" />
<rect fill="#DEE6F1" height="24" width="77.375" x="492.625" y="90" />
<rect fill="none" height="24" stroke="#405C86" stroke-width="2" width="96" x="474" y="90" />
<rect fill="#DEE6F1" height="24" width="96" x="378" y="90" />
<rect fill="#DEE6F1" height="24" width="77.375" x="396.625" y="90" />
<rect fill="none" height="24" stroke="#405C86" stroke-width="2" width="96" x="378" y="90" />
<rect fill="#DEE6F1" height="24" width="96" x="282" y="90" />
<rect fill="#DEE6F1" height="24" width="77.375" x="300.625" y="90" />
<rect fill="none" height="24" stroke="#405C86" stroke-width="2" width="96" x="282" y="90" />
<rect fill="#DEE6F1" height="24" width="96" x="186" y="90" />
<rect fill="#DEE6F1" height="24" width="77.375" x="204.625" y="90" />
<rect fill="none" height="24" stroke="#405C86" stroke-width="2" width="96" x="186" y="90" />
<rect fill="#DEE6F1" height="24" width="96" x="90" y="90" />
<rect fill="#DEE6F1" height="24" width="77.375" x="108.625" y="90" />
<rect fill="none" height="24" stroke="#405C86" stroke-width="2" width="96" x="90" y="90" />
<text class="register-name" x="80" y="102">Zdn</text>
<text class="intrinsic-name" x="80" y="114">returns</text>
<text class="register-number" x="10" y="102">(2)</text>
<line marker-end="url(#arrowhead)" stroke="none" x1="765.9375" x2="780.625" y1="42.5" y2="89" />
<line marker-end="url(#arrowhead)" stroke="none" x1="842.3125" x2="858" y1="42.5" y2="89" />
<line marker-end="url(#arrowhead)" stroke="none" x1="669.9375" x2="684.625" y1="42.5" y2="89" />
<line marker-end="url(#arrowhead)" stroke="none" x1="746.3125" x2="762" y1="42.5" y2="89" />
<line marker-end="url(#arrowhead)" stroke="none" x1="573.9375" x2="588.625" y1="42.5" y2="89" />
<line marker-end="url(#arrowhead)" stroke="none" x1="650.3125" x2="666" y1="42.5" y2="89" />
<line marker-end="url(#arrowhead)" stroke="none" x1="477.9375" x2="492.625" y1="42.5" y2="89" />
<line marker-end="url(#arrowhead)" stroke="none" x1="554.3125" x2="570" y1="42.5" y2="89" />
<line marker-end="url(#arrowhead)" stroke="none" x1="381.9375" x2="396.625" y1="42.5" y2="89" />
<line marker-end="url(#arrowhead)" stroke="none" x1="458.3125" x2="474" y1="42.5" y2="89" />
<line marker-end="url(#arrowhead)" stroke="none" x1="285.9375" x2="300.625" y1="42.5" y2="89" />
<line marker-end="url(#arrowhead)" stroke="none" x1="362.3125" x2="378" y1="42.5" y2="89" />
<line marker-end="url(#arrowhead)" stroke="none" x1="189.9375" x2="204.625" y1="42.5" y2="89" />
<line marker-end="url(#arrowhead)" stroke="none" x1="266.3125" x2="282" y1="42.5" y2="89" />
<line marker-end="url(#arrowhead)" stroke="none" x1="93.9375" x2="108.625" y1="42.5" y2="89" />
<line marker-end="url(#arrowhead)" stroke="none" x1="170.3125" x2="186" y1="42.5" y2="89" />
</svg>