<svg xmlns="http://www.w3.org/2000/svg" viewBox="0 0 6246 123">
<style>
.label { font: 14px Helvetica; dominant-baseline: middle; text-anchor: middle; }
.title-left { font: 12px Helvetica; dominant-baseline: middle; }
.title-right { font: 12px Helvetica; dominant-baseline: middle; text-anchor: end; }
.title-intrinsic { font: 12px Helvetica; dominant-baseline: middle; text-anchor: middle; fill: #6778ED; }
.title { font: 12px Helvetica; dominant-baseline: middle; text-anchor: middle; }
.title-unused { font: 12px Helvetica; dominant-baseline: middle; text-anchor: middle; fill: #AAA; }
.register-name { font: 14px Helvetica; dominant-baseline: middle; text-anchor: end; font-style: italic; }
.memory-name { font: 14px Helvetica; dominant-baseline: middle; text-anchor: end; }
.register-number { font: 14px Helvetica; dominant-baseline: middle; text-anchor: start; }
.intrinsic-name { font: 14px Helvetica; dominant-baseline: middle; text-anchor: end; fill: #6778ED; }
.intrinsic-color { fill: #6778ED; }
.small-label { font: 12px Helvetica; dominant-baseline: middle; text-anchor: middle; }
.label-10px { font: 10px Helvetica; dominant-baseline: middle; text-anchor: middle; }
.smaller-label { font: 9px Helvetica; dominant-baseline: middle; text-anchor: middle; }
.label-6px { font: 6px Helvetica; dominant-baseline: middle; text-anchor: middle; }
.label-7px { font: 7px Helvetica; dominant-baseline: middle; text-anchor: middle; }
.unused { fill: #AAA; }
.dim { fill: #888; }
</style>
<defs>
<marker id="arrowhead" markerWidth="10.75" markerHeight="24.5" refX="9.0" refY="6.125" orient="auto">
<polyline points="0.5 0.5, 8.75 6.125, 0.5 11.75" stroke="#567DB6" stroke-width="1" fill="none"/>
</marker>
</defs>
<line stroke="#567DB6" stroke-width="1" x1="6090" x2="6138" y1="42.5" y2="89" />
<line stroke="#567DB6" stroke-width="1" x1="5898" x2="5946" y1="42.5" y2="89" />
<line stroke="#567DB6" stroke-width="1" x1="5706" x2="5754" y1="42.5" y2="89" />
<line stroke="#567DB6" stroke-width="1" x1="5514" x2="5562" y1="42.5" y2="89" />
<line stroke="#567DB6" stroke-width="1" x1="5322" x2="5370" y1="42.5" y2="89" />
<line stroke="#567DB6" stroke-width="1" x1="5130" x2="5178" y1="42.5" y2="89" />
<line stroke="#567DB6" stroke-width="1" x1="4938" x2="4986" y1="42.5" y2="89" />
<line stroke="#567DB6" stroke-width="1" x1="4746" x2="4794" y1="42.5" y2="89" />
<line stroke="#567DB6" stroke-width="1" x1="4554" x2="4602" y1="42.5" y2="89" />
<line stroke="#567DB6" stroke-width="1" x1="4362" x2="4410" y1="42.5" y2="89" />
<line stroke="#567DB6" stroke-width="1" x1="4170" x2="4218" y1="42.5" y2="89" />
<line stroke="#567DB6" stroke-width="1" x1="3978" x2="4026" y1="42.5" y2="89" />
<line stroke="#567DB6" stroke-width="1" x1="3786" x2="3834" y1="42.5" y2="89" />
<line stroke="#567DB6" stroke-width="1" x1="3594" x2="3642" y1="42.5" y2="89" />
<line stroke="#567DB6" stroke-width="1" x1="3402" x2="3450" y1="42.5" y2="89" />
<line stroke="#567DB6" stroke-width="1" x1="3210" x2="3258" y1="42.5" y2="89" />
<line stroke="#567DB6" stroke-width="1" x1="3018" x2="3066" y1="42.5" y2="89" />
<line stroke="#567DB6" stroke-width="1" x1="2826" x2="2874" y1="42.5" y2="89" />
<line stroke="#567DB6" stroke-width="1" x1="2634" x2="2682" y1="42.5" y2="89" />
<line stroke="#567DB6" stroke-width="1" x1="2442" x2="2490" y1="42.5" y2="89" />
<line stroke="#567DB6" stroke-width="1" x1="2250" x2="2298" y1="42.5" y2="89" />
<line stroke="#567DB6" stroke-width="1" x1="2058" x2="2106" y1="42.5" y2="89" />
<line stroke="#567DB6" stroke-width="1" x1="1866" x2="1914" y1="42.5" y2="89" />
<line stroke="#567DB6" stroke-width="1" x1="1674" x2="1722" y1="42.5" y2="89" />
<line stroke="#567DB6" stroke-width="1" x1="1482" x2="1530" y1="42.5" y2="89" />
<line stroke="#567DB6" stroke-width="1" x1="1290" x2="1338" y1="42.5" y2="89" />
<line stroke="#567DB6" stroke-width="1" x1="1098" x2="1146" y1="42.5" y2="89" />
<line stroke="#567DB6" stroke-width="1" x1="906" x2="954" y1="42.5" y2="89" />
<line stroke="#567DB6" stroke-width="1" x1="714" x2="762" y1="42.5" y2="89" />
<line stroke="#567DB6" stroke-width="1" x1="522" x2="570" y1="42.5" y2="89" />
<line stroke="#567DB6" stroke-width="1" x1="330" x2="378" y1="42.5" y2="89" />
<line stroke="#567DB6" stroke-width="1" x1="138" x2="186" y1="42.5" y2="89" />
<text class="title-left" x="90" y="9">upper</text>
<text class="title-right" x="6234" y="9">lower</text>
<rect fill="none" height="24" stroke="#405C86" stroke-dasharray="3 1" stroke-dashoffset="1.5" stroke-width="1" width="96" x="6138" y="18" />
<text class="label unused" x="6186" y="31"></text>
<rect fill="#DEE6F1" height="24" width="96" x="6042" y="18" />
<rect fill="#EEDDDB" height="24" width="3.9375" x="6042" y="18" />
<rect fill="none" height="24" stroke="#405C86" stroke-width="2" width="96" x="6042" y="18" />
<rect fill="none" height="24" stroke="#405C86" stroke-dasharray="3 1" stroke-dashoffset="1.5" stroke-width="1" width="96" x="5946" y="18" />
<text class="label unused" x="5994" y="31"></text>
<rect fill="#DEE6F1" height="24" width="96" x="5850" y="18" />
<rect fill="#EEDDDB" height="24" width="3.9375" x="5850" y="18" />
<rect fill="none" height="24" stroke="#405C86" stroke-width="2" width="96" x="5850" y="18" />
<rect fill="none" height="24" stroke="#405C86" stroke-dasharray="3 1" stroke-dashoffset="1.5" stroke-width="1" width="96" x="5754" y="18" />
<text class="label unused" x="5802" y="31"></text>
<rect fill="#DEE6F1" height="24" width="96" x="5658" y="18" />
<rect fill="#EEDDDB" height="24" width="3.9375" x="5658" y="18" />
<rect fill="none" height="24" stroke="#405C86" stroke-width="2" width="96" x="5658" y="18" />
<rect fill="none" height="24" stroke="#405C86" stroke-dasharray="3 1" stroke-dashoffset="1.5" stroke-width="1" width="96" x="5562" y="18" />
<text class="label unused" x="5610" y="31"></text>
<rect fill="#DEE6F1" height="24" width="96" x="5466" y="18" />
<rect fill="#EEDDDB" height="24" width="3.9375" x="5466" y="18" />
<rect fill="none" height="24" stroke="#405C86" stroke-width="2" width="96" x="5466" y="18" />
<rect fill="none" height="24" stroke="#405C86" stroke-dasharray="3 1" stroke-dashoffset="1.5" stroke-width="1" width="96" x="5370" y="18" />
<text class="label unused" x="5418" y="31"></text>
<rect fill="#DEE6F1" height="24" width="96" x="5274" y="18" />
<rect fill="#EEDDDB" height="24" width="3.9375" x="5274" y="18" />
<rect fill="none" height="24" stroke="#405C86" stroke-width="2" width="96" x="5274" y="18" />
<rect fill="none" height="24" stroke="#405C86" stroke-dasharray="3 1" stroke-dashoffset="1.5" stroke-width="1" width="96" x="5178" y="18" />
<text class="label unused" x="5226" y="31"></text>
<rect fill="#DEE6F1" height="24" width="96" x="5082" y="18" />
<rect fill="#EEDDDB" height="24" width="3.9375" x="5082" y="18" />
<rect fill="none" height="24" stroke="#405C86" stroke-width="2" width="96" x="5082" y="18" />
<rect fill="none" height="24" stroke="#405C86" stroke-dasharray="3 1" stroke-dashoffset="1.5" stroke-width="1" width="96" x="4986" y="18" />
<text class="label unused" x="5034" y="31"></text>
<rect fill="#DEE6F1" height="24" width="96" x="4890" y="18" />
<rect fill="#EEDDDB" height="24" width="3.9375" x="4890" y="18" />
<rect fill="none" height="24" stroke="#405C86" stroke-width="2" width="96" x="4890" y="18" />
<rect fill="none" height="24" stroke="#405C86" stroke-dasharray="3 1" stroke-dashoffset="1.5" stroke-width="1" width="96" x="4794" y="18" />
<text class="label unused" x="4842" y="31"></text>
<rect fill="#DEE6F1" height="24" width="96" x="4698" y="18" />
<rect fill="#EEDDDB" height="24" width="3.9375" x="4698" y="18" />
<rect fill="none" height="24" stroke="#405C86" stroke-width="2" width="96" x="4698" y="18" />
<rect fill="none" height="24" stroke="#405C86" stroke-dasharray="3 1" stroke-dashoffset="1.5" stroke-width="1" width="96" x="4602" y="18" />
<text class="label unused" x="4650" y="31"></text>
<rect fill="#DEE6F1" height="24" width="96" x="4506" y="18" />
<rect fill="#EEDDDB" height="24" width="3.9375" x="4506" y="18" />
<rect fill="none" height="24" stroke="#405C86" stroke-width="2" width="96" x="4506" y="18" />
<rect fill="none" height="24" stroke="#405C86" stroke-dasharray="3 1" stroke-dashoffset="1.5" stroke-width="1" width="96" x="4410" y="18" />
<text class="label unused" x="4458" y="31"></text>
<rect fill="#DEE6F1" height="24" width="96" x="4314" y="18" />
<rect fill="#EEDDDB" height="24" width="3.9375" x="4314" y="18" />
<rect fill="none" height="24" stroke="#405C86" stroke-width="2" width="96" x="4314" y="18" />
<rect fill="none" height="24" stroke="#405C86" stroke-dasharray="3 1" stroke-dashoffset="1.5" stroke-width="1" width="96" x="4218" y="18" />
<text class="label unused" x="4266" y="31"></text>
<rect fill="#DEE6F1" height="24" width="96" x="4122" y="18" />
<rect fill="#EEDDDB" height="24" width="3.9375" x="4122" y="18" />
<rect fill="none" height="24" stroke="#405C86" stroke-width="2" width="96" x="4122" y="18" />
<rect fill="none" height="24" stroke="#405C86" stroke-dasharray="3 1" stroke-dashoffset="1.5" stroke-width="1" width="96" x="4026" y="18" />
<text class="label unused" x="4074" y="31"></text>
<rect fill="#DEE6F1" height="24" width="96" x="3930" y="18" />
<rect fill="#EEDDDB" height="24" width="3.9375" x="3930" y="18" />
<rect fill="none" height="24" stroke="#405C86" stroke-width="2" width="96" x="3930" y="18" />
<rect fill="none" height="24" stroke="#405C86" stroke-dasharray="3 1" stroke-dashoffset="1.5" stroke-width="1" width="96" x="3834" y="18" />
<text class="label unused" x="3882" y="31"></text>
<rect fill="#DEE6F1" height="24" width="96" x="3738" y="18" />
<rect fill="#EEDDDB" height="24" width="3.9375" x="3738" y="18" />
<rect fill="none" height="24" stroke="#405C86" stroke-width="2" width="96" x="3738" y="18" />
<rect fill="none" height="24" stroke="#405C86" stroke-dasharray="3 1" stroke-dashoffset="1.5" stroke-width="1" width="96" x="3642" y="18" />
<text class="label unused" x="3690" y="31"></text>
<rect fill="#DEE6F1" height="24" width="96" x="3546" y="18" />
<rect fill="#EEDDDB" height="24" width="3.9375" x="3546" y="18" />
<rect fill="none" height="24" stroke="#405C86" stroke-width="2" width="96" x="3546" y="18" />
<rect fill="none" height="24" stroke="#405C86" stroke-dasharray="3 1" stroke-dashoffset="1.5" stroke-width="1" width="96" x="3450" y="18" />
<text class="label unused" x="3498" y="31"></text>
<rect fill="#DEE6F1" height="24" width="96" x="3354" y="18" />
<rect fill="#EEDDDB" height="24" width="3.9375" x="3354" y="18" />
<rect fill="none" height="24" stroke="#405C86" stroke-width="2" width="96" x="3354" y="18" />
<rect fill="none" height="24" stroke="#405C86" stroke-dasharray="3 1" stroke-dashoffset="1.5" stroke-width="1" width="96" x="3258" y="18" />
<text class="label unused" x="3306" y="31"></text>
<rect fill="#DEE6F1" height="24" width="96" x="3162" y="18" />
<rect fill="#EEDDDB" height="24" width="3.9375" x="3162" y="18" />
<rect fill="none" height="24" stroke="#405C86" stroke-width="2" width="96" x="3162" y="18" />
<rect fill="none" height="24" stroke="#405C86" stroke-dasharray="3 1" stroke-dashoffset="1.5" stroke-width="1" width="96" x="3066" y="18" />
<text class="label unused" x="3114" y="31"></text>
<rect fill="#DEE6F1" height="24" width="96" x="2970" y="18" />
<rect fill="#EEDDDB" height="24" width="3.9375" x="2970" y="18" />
<rect fill="none" height="24" stroke="#405C86" stroke-width="2" width="96" x="2970" y="18" />
<rect fill="none" height="24" stroke="#405C86" stroke-dasharray="3 1" stroke-dashoffset="1.5" stroke-width="1" width="96" x="2874" y="18" />
<text class="label unused" x="2922" y="31"></text>
<rect fill="#DEE6F1" height="24" width="96" x="2778" y="18" />
<rect fill="#EEDDDB" height="24" width="3.9375" x="2778" y="18" />
<rect fill="none" height="24" stroke="#405C86" stroke-width="2" width="96" x="2778" y="18" />
<rect fill="none" height="24" stroke="#405C86" stroke-dasharray="3 1" stroke-dashoffset="1.5" stroke-width="1" width="96" x="2682" y="18" />
<text class="label unused" x="2730" y="31"></text>
<rect fill="#DEE6F1" height="24" width="96" x="2586" y="18" />
<rect fill="#EEDDDB" height="24" width="3.9375" x="2586" y="18" />
<rect fill="none" height="24" stroke="#405C86" stroke-width="2" width="96" x="2586" y="18" />
<rect fill="none" height="24" stroke="#405C86" stroke-dasharray="3 1" stroke-dashoffset="1.5" stroke-width="1" width="96" x="2490" y="18" />
<text class="label unused" x="2538" y="31"></text>
<rect fill="#DEE6F1" height="24" width="96" x="2394" y="18" />
<rect fill="#EEDDDB" height="24" width="3.9375" x="2394" y="18" />
<rect fill="none" height="24" stroke="#405C86" stroke-width="2" width="96" x="2394" y="18" />
<rect fill="none" height="24" stroke="#405C86" stroke-dasharray="3 1" stroke-dashoffset="1.5" stroke-width="1" width="96" x="2298" y="18" />
<text class="label unused" x="2346" y="31"></text>
<rect fill="#DEE6F1" height="24" width="96" x="2202" y="18" />
<rect fill="#EEDDDB" height="24" width="3.9375" x="2202" y="18" />
<rect fill="none" height="24" stroke="#405C86" stroke-width="2" width="96" x="2202" y="18" />
<rect fill="none" height="24" stroke="#405C86" stroke-dasharray="3 1" stroke-dashoffset="1.5" stroke-width="1" width="96" x="2106" y="18" />
<text class="label unused" x="2154" y="31"></text>
<rect fill="#DEE6F1" height="24" width="96" x="2010" y="18" />
<rect fill="#EEDDDB" height="24" width="3.9375" x="2010" y="18" />
<rect fill="none" height="24" stroke="#405C86" stroke-width="2" width="96" x="2010" y="18" />
<rect fill="none" height="24" stroke="#405C86" stroke-dasharray="3 1" stroke-dashoffset="1.5" stroke-width="1" width="96" x="1914" y="18" />
<text class="label unused" x="1962" y="31"></text>
<rect fill="#DEE6F1" height="24" width="96" x="1818" y="18" />
<rect fill="#EEDDDB" height="24" width="3.9375" x="1818" y="18" />
<rect fill="none" height="24" stroke="#405C86" stroke-width="2" width="96" x="1818" y="18" />
<rect fill="none" height="24" stroke="#405C86" stroke-dasharray="3 1" stroke-dashoffset="1.5" stroke-width="1" width="96" x="1722" y="18" />
<text class="label unused" x="1770" y="31"></text>
<rect fill="#DEE6F1" height="24" width="96" x="1626" y="18" />
<rect fill="#EEDDDB" height="24" width="3.9375" x="1626" y="18" />
<rect fill="none" height="24" stroke="#405C86" stroke-width="2" width="96" x="1626" y="18" />
<rect fill="none" height="24" stroke="#405C86" stroke-dasharray="3 1" stroke-dashoffset="1.5" stroke-width="1" width="96" x="1530" y="18" />
<text class="label unused" x="1578" y="31"></text>
<rect fill="#DEE6F1" height="24" width="96" x="1434" y="18" />
<rect fill="#EEDDDB" height="24" width="3.9375" x="1434" y="18" />
<rect fill="none" height="24" stroke="#405C86" stroke-width="2" width="96" x="1434" y="18" />
<rect fill="none" height="24" stroke="#405C86" stroke-dasharray="3 1" stroke-dashoffset="1.5" stroke-width="1" width="96" x="1338" y="18" />
<text class="label unused" x="1386" y="31"></text>
<rect fill="#DEE6F1" height="24" width="96" x="1242" y="18" />
<rect fill="#EEDDDB" height="24" width="3.9375" x="1242" y="18" />
<rect fill="none" height="24" stroke="#405C86" stroke-width="2" width="96" x="1242" y="18" />
<rect fill="none" height="24" stroke="#405C86" stroke-dasharray="3 1" stroke-dashoffset="1.5" stroke-width="1" width="96" x="1146" y="18" />
<text class="label unused" x="1194" y="31"></text>
<rect fill="#DEE6F1" height="24" width="96" x="1050" y="18" />
<rect fill="#EEDDDB" height="24" width="3.9375" x="1050" y="18" />
<rect fill="none" height="24" stroke="#405C86" stroke-width="2" width="96" x="1050" y="18" />
<rect fill="none" height="24" stroke="#405C86" stroke-dasharray="3 1" stroke-dashoffset="1.5" stroke-width="1" width="96" x="954" y="18" />
<text class="label unused" x="1002" y="31"></text>
<rect fill="#DEE6F1" height="24" width="96" x="858" y="18" />
<rect fill="#EEDDDB" height="24" width="3.9375" x="858" y="18" />
<rect fill="none" height="24" stroke="#405C86" stroke-width="2" width="96" x="858" y="18" />
<rect fill="none" height="24" stroke="#405C86" stroke-dasharray="3 1" stroke-dashoffset="1.5" stroke-width="1" width="96" x="762" y="18" />
<text class="label unused" x="810" y="31"></text>
<rect fill="#DEE6F1" height="24" width="96" x="666" y="18" />
<rect fill="#EEDDDB" height="24" width="3.9375" x="666" y="18" />
<rect fill="none" height="24" stroke="#405C86" stroke-width="2" width="96" x="666" y="18" />
<rect fill="none" height="24" stroke="#405C86" stroke-dasharray="3 1" stroke-dashoffset="1.5" stroke-width="1" width="96" x="570" y="18" />
<text class="label unused" x="618" y="31"></text>
<rect fill="#DEE6F1" height="24" width="96" x="474" y="18" />
<rect fill="#EEDDDB" height="24" width="3.9375" x="474" y="18" />
<rect fill="none" height="24" stroke="#405C86" stroke-width="2" width="96" x="474" y="18" />
<rect fill="none" height="24" stroke="#405C86" stroke-dasharray="3 1" stroke-dashoffset="1.5" stroke-width="1" width="96" x="378" y="18" />
<text class="label unused" x="426" y="31"></text>
<rect fill="#DEE6F1" height="24" width="96" x="282" y="18" />
<rect fill="#EEDDDB" height="24" width="3.9375" x="282" y="18" />
<rect fill="none" height="24" stroke="#405C86" stroke-width="2" width="96" x="282" y="18" />
<rect fill="none" height="24" stroke="#405C86" stroke-dasharray="3 1" stroke-dashoffset="1.5" stroke-width="1" width="96" x="186" y="18" />
<text class="label unused" x="234" y="31"></text>
<rect fill="#DEE6F1" height="24" width="96" x="90" y="18" />
<rect fill="#EEDDDB" height="24" width="3.9375" x="90" y="18" />
<rect fill="none" height="24" stroke="#405C86" stroke-width="2" width="96" x="90" y="18" />
<text class="register-name" x="80" y="30">Zn</text>
<text class="intrinsic-name" x="80" y="42">op1</text>
<text class="register-number" x="10" y="30">(1)</text>
<rect fill="#DEE6F1" height="24" width="92.03125" x="6093.46875" y="90" />
<rect fill="#EEDDDB" height="24" width="51.46875" x="6042" y="90" />
<rect fill="none" height="24" stroke="#405C86" stroke-width="2" width="192" x="6042" y="90" />
<rect fill="#DEE6F1" height="24" width="92.03125" x="5901.46875" y="90" />
<rect fill="#EEDDDB" height="24" width="51.46875" x="5850" y="90" />
<rect fill="none" height="24" stroke="#405C86" stroke-width="2" width="192" x="5850" y="90" />
<rect fill="#DEE6F1" height="24" width="92.03125" x="5709.46875" y="90" />
<rect fill="#EEDDDB" height="24" width="51.46875" x="5658" y="90" />
<rect fill="none" height="24" stroke="#405C86" stroke-width="2" width="192" x="5658" y="90" />
<rect fill="#DEE6F1" height="24" width="92.03125" x="5517.46875" y="90" />
<rect fill="#EEDDDB" height="24" width="51.46875" x="5466" y="90" />
<rect fill="none" height="24" stroke="#405C86" stroke-width="2" width="192" x="5466" y="90" />
<rect fill="#DEE6F1" height="24" width="92.03125" x="5325.46875" y="90" />
<rect fill="#EEDDDB" height="24" width="51.46875" x="5274" y="90" />
<rect fill="none" height="24" stroke="#405C86" stroke-width="2" width="192" x="5274" y="90" />
<rect fill="#DEE6F1" height="24" width="92.03125" x="5133.46875" y="90" />
<rect fill="#EEDDDB" height="24" width="51.46875" x="5082" y="90" />
<rect fill="none" height="24" stroke="#405C86" stroke-width="2" width="192" x="5082" y="90" />
<rect fill="#DEE6F1" height="24" width="92.03125" x="4941.46875" y="90" />
<rect fill="#EEDDDB" height="24" width="51.46875" x="4890" y="90" />
<rect fill="none" height="24" stroke="#405C86" stroke-width="2" width="192" x="4890" y="90" />
<rect fill="#DEE6F1" height="24" width="92.03125" x="4749.46875" y="90" />
<rect fill="#EEDDDB" height="24" width="51.46875" x="4698" y="90" />
<rect fill="none" height="24" stroke="#405C86" stroke-width="2" width="192" x="4698" y="90" />
<rect fill="#DEE6F1" height="24" width="92.03125" x="4557.46875" y="90" />
<rect fill="#EEDDDB" height="24" width="51.46875" x="4506" y="90" />
<rect fill="none" height="24" stroke="#405C86" stroke-width="2" width="192" x="4506" y="90" />
<rect fill="#DEE6F1" height="24" width="92.03125" x="4365.46875" y="90" />
<rect fill="#EEDDDB" height="24" width="51.46875" x="4314" y="90" />
<rect fill="none" height="24" stroke="#405C86" stroke-width="2" width="192" x="4314" y="90" />
<rect fill="#DEE6F1" height="24" width="92.03125" x="4173.46875" y="90" />
<rect fill="#EEDDDB" height="24" width="51.46875" x="4122" y="90" />
<rect fill="none" height="24" stroke="#405C86" stroke-width="2" width="192" x="4122" y="90" />
<rect fill="#DEE6F1" height="24" width="92.03125" x="3981.46875" y="90" />
<rect fill="#EEDDDB" height="24" width="51.46875" x="3930" y="90" />
<rect fill="none" height="24" stroke="#405C86" stroke-width="2" width="192" x="3930" y="90" />
<rect fill="#DEE6F1" height="24" width="92.03125" x="3789.46875" y="90" />
<rect fill="#EEDDDB" height="24" width="51.46875" x="3738" y="90" />
<rect fill="none" height="24" stroke="#405C86" stroke-width="2" width="192" x="3738" y="90" />
<rect fill="#DEE6F1" height="24" width="92.03125" x="3597.46875" y="90" />
<rect fill="#EEDDDB" height="24" width="51.46875" x="3546" y="90" />
<rect fill="none" height="24" stroke="#405C86" stroke-width="2" width="192" x="3546" y="90" />
<rect fill="#DEE6F1" height="24" width="92.03125" x="3405.46875" y="90" />
<rect fill="#EEDDDB" height="24" width="51.46875" x="3354" y="90" />
<rect fill="none" height="24" stroke="#405C86" stroke-width="2" width="192" x="3354" y="90" />
<rect fill="#DEE6F1" height="24" width="92.03125" x="3213.46875" y="90" />
<rect fill="#EEDDDB" height="24" width="51.46875" x="3162" y="90" />
<rect fill="none" height="24" stroke="#405C86" stroke-width="2" width="192" x="3162" y="90" />
<rect fill="#DEE6F1" height="24" width="92.03125" x="3021.46875" y="90" />
<rect fill="#EEDDDB" height="24" width="51.46875" x="2970" y="90" />
<rect fill="none" height="24" stroke="#405C86" stroke-width="2" width="192" x="2970" y="90" />
<rect fill="#DEE6F1" height="24" width="92.03125" x="2829.46875" y="90" />
<rect fill="#EEDDDB" height="24" width="51.46875" x="2778" y="90" />
<rect fill="none" height="24" stroke="#405C86" stroke-width="2" width="192" x="2778" y="90" />
<rect fill="#DEE6F1" height="24" width="92.03125" x="2637.46875" y="90" />
<rect fill="#EEDDDB" height="24" width="51.46875" x="2586" y="90" />
<rect fill="none" height="24" stroke="#405C86" stroke-width="2" width="192" x="2586" y="90" />
<rect fill="#DEE6F1" height="24" width="92.03125" x="2445.46875" y="90" />
<rect fill="#EEDDDB" height="24" width="51.46875" x="2394" y="90" />
<rect fill="none" height="24" stroke="#405C86" stroke-width="2" width="192" x="2394" y="90" />
<rect fill="#DEE6F1" height="24" width="92.03125" x="2253.46875" y="90" />
<rect fill="#EEDDDB" height="24" width="51.46875" x="2202" y="90" />
<rect fill="none" height="24" stroke="#405C86" stroke-width="2" width="192" x="2202" y="90" />
<rect fill="#DEE6F1" height="24" width="92.03125" x="2061.46875" y="90" />
<rect fill="#EEDDDB" height="24" width="51.46875" x="2010" y="90" />
<rect fill="none" height="24" stroke="#405C86" stroke-width="2" width="192" x="2010" y="90" />
<rect fill="#DEE6F1" height="24" width="92.03125" x="1869.46875" y="90" />
<rect fill="#EEDDDB" height="24" width="51.46875" x="1818" y="90" />
<rect fill="none" height="24" stroke="#405C86" stroke-width="2" width="192" x="1818" y="90" />
<rect fill="#DEE6F1" height="24" width="92.03125" x="1677.46875" y="90" />
<rect fill="#EEDDDB" height="24" width="51.46875" x="1626" y="90" />
<rect fill="none" height="24" stroke="#405C86" stroke-width="2" width="192" x="1626" y="90" />
<rect fill="#DEE6F1" height="24" width="92.03125" x="1485.46875" y="90" />
<rect fill="#EEDDDB" height="24" width="51.46875" x="1434" y="90" />
<rect fill="none" height="24" stroke="#405C86" stroke-width="2" width="192" x="1434" y="90" />
<rect fill="#DEE6F1" height="24" width="92.03125" x="1293.46875" y="90" />
<rect fill="#EEDDDB" height="24" width="51.46875" x="1242" y="90" />
<rect fill="none" height="24" stroke="#405C86" stroke-width="2" width="192" x="1242" y="90" />
<rect fill="#DEE6F1" height="24" width="92.03125" x="1101.46875" y="90" />
<rect fill="#EEDDDB" height="24" width="51.46875" x="1050" y="90" />
<rect fill="none" height="24" stroke="#405C86" stroke-width="2" width="192" x="1050" y="90" />
<rect fill="#DEE6F1" height="24" width="92.03125" x="909.46875" y="90" />
<rect fill="#EEDDDB" height="24" width="51.46875" x="858" y="90" />
<rect fill="none" height="24" stroke="#405C86" stroke-width="2" width="192" x="858" y="90" />
<rect fill="#DEE6F1" height="24" width="92.03125" x="717.46875" y="90" />
<rect fill="#EEDDDB" height="24" width="51.46875" x="666" y="90" />
<rect fill="none" height="24" stroke="#405C86" stroke-width="2" width="192" x="666" y="90" />
<rect fill="#DEE6F1" height="24" width="92.03125" x="525.46875" y="90" />
<rect fill="#EEDDDB" height="24" width="51.46875" x="474" y="90" />
<rect fill="none" height="24" stroke="#405C86" stroke-width="2" width="192" x="474" y="90" />
<rect fill="#DEE6F1" height="24" width="92.03125" x="333.46875" y="90" />
<rect fill="#EEDDDB" height="24" width="51.46875" x="282" y="90" />
<rect fill="none" height="24" stroke="#405C86" stroke-width="2" width="192" x="282" y="90" />
<rect fill="#DEE6F1" height="24" width="92.03125" x="141.46875" y="90" />
<rect fill="#EEDDDB" height="24" width="51.46875" x="90" y="90" />
<rect fill="none" height="24" stroke="#405C86" stroke-width="2" width="192" x="90" y="90" />
<text class="register-name" x="80" y="102">Zd</text>
<text class="intrinsic-name" x="80" y="114">returns</text>
<text class="register-number" x="10" y="102">(2)</text>
<line marker-end="url(#arrowhead)" stroke="none" x1="6090" x2="6138" y1="42.5" y2="89" />
<line marker-end="url(#arrowhead)" stroke="none" x1="5898" x2="5946" y1="42.5" y2="89" />
<line marker-end="url(#arrowhead)" stroke="none" x1="5706" x2="5754" y1="42.5" y2="89" />
<line marker-end="url(#arrowhead)" stroke="none" x1="5514" x2="5562" y1="42.5" y2="89" />
<line marker-end="url(#arrowhead)" stroke="none" x1="5322" x2="5370" y1="42.5" y2="89" />
<line marker-end="url(#arrowhead)" stroke="none" x1="5130" x2="5178" y1="42.5" y2="89" />
<line marker-end="url(#arrowhead)" stroke="none" x1="4938" x2="4986" y1="42.5" y2="89" />
<line marker-end="url(#arrowhead)" stroke="none" x1="4746" x2="4794" y1="42.5" y2="89" />
<line marker-end="url(#arrowhead)" stroke="none" x1="4554" x2="4602" y1="42.5" y2="89" />
<line marker-end="url(#arrowhead)" stroke="none" x1="4362" x2="4410" y1="42.5" y2="89" />
<line marker-end="url(#arrowhead)" stroke="none" x1="4170" x2="4218" y1="42.5" y2="89" />
<line marker-end="url(#arrowhead)" stroke="none" x1="3978" x2="4026" y1="42.5" y2="89" />
<line marker-end="url(#arrowhead)" stroke="none" x1="3786" x2="3834" y1="42.5" y2="89" />
<line marker-end="url(#arrowhead)" stroke="none" x1="3594" x2="3642" y1="42.5" y2="89" />
<line marker-end="url(#arrowhead)" stroke="none" x1="3402" x2="3450" y1="42.5" y2="89" />
<line marker-end="url(#arrowhead)" stroke="none" x1="3210" x2="3258" y1="42.5" y2="89" />
<line marker-end="url(#arrowhead)" stroke="none" x1="3018" x2="3066" y1="42.5" y2="89" />
<line marker-end="url(#arrowhead)" stroke="none" x1="2826" x2="2874" y1="42.5" y2="89" />
<line marker-end="url(#arrowhead)" stroke="none" x1="2634" x2="2682" y1="42.5" y2="89" />
<line marker-end="url(#arrowhead)" stroke="none" x1="2442" x2="2490" y1="42.5" y2="89" />
<line marker-end="url(#arrowhead)" stroke="none" x1="2250" x2="2298" y1="42.5" y2="89" />
<line marker-end="url(#arrowhead)" stroke="none" x1="2058" x2="2106" y1="42.5" y2="89" />
<line marker-end="url(#arrowhead)" stroke="none" x1="1866" x2="1914" y1="42.5" y2="89" />
<line marker-end="url(#arrowhead)" stroke="none" x1="1674" x2="1722" y1="42.5" y2="89" />
<line marker-end="url(#arrowhead)" stroke="none" x1="1482" x2="1530" y1="42.5" y2="89" />
<line marker-end="url(#arrowhead)" stroke="none" x1="1290" x2="1338" y1="42.5" y2="89" />
<line marker-end="url(#arrowhead)" stroke="none" x1="1098" x2="1146" y1="42.5" y2="89" />
<line marker-end="url(#arrowhead)" stroke="none" x1="906" x2="954" y1="42.5" y2="89" />
<line marker-end="url(#arrowhead)" stroke="none" x1="714" x2="762" y1="42.5" y2="89" />
<line marker-end="url(#arrowhead)" stroke="none" x1="522" x2="570" y1="42.5" y2="89" />
<line marker-end="url(#arrowhead)" stroke="none" x1="330" x2="378" y1="42.5" y2="89" />
<line marker-end="url(#arrowhead)" stroke="none" x1="138" x2="186" y1="42.5" y2="89" />
</svg>