<svg xmlns="http://www.w3.org/2000/svg" viewBox="0 0 1638 171">
<style>
.label { font: 14px Helvetica; dominant-baseline: middle; text-anchor: middle; }
.title-left { font: 12px Helvetica; dominant-baseline: middle; }
.title-right { font: 12px Helvetica; dominant-baseline: middle; text-anchor: end; }
.title-intrinsic { font: 12px Helvetica; dominant-baseline: middle; text-anchor: middle; fill: #6778ED; }
.title { font: 12px Helvetica; dominant-baseline: middle; text-anchor: middle; }
.title-unused { font: 12px Helvetica; dominant-baseline: middle; text-anchor: middle; fill: #AAA; }
.register-name { font: 14px Helvetica; dominant-baseline: middle; text-anchor: end; font-style: italic; }
.memory-name { font: 14px Helvetica; dominant-baseline: middle; text-anchor: end; }
.register-number { font: 14px Helvetica; dominant-baseline: middle; text-anchor: start; }
.intrinsic-name { font: 14px Helvetica; dominant-baseline: middle; text-anchor: end; fill: #6778ED; }
.intrinsic-color { fill: #6778ED; }
.small-label { font: 12px Helvetica; dominant-baseline: middle; text-anchor: middle; }
.label-10px { font: 10px Helvetica; dominant-baseline: middle; text-anchor: middle; }
.smaller-label { font: 9px Helvetica; dominant-baseline: middle; text-anchor: middle; }
.label-6px { font: 6px Helvetica; dominant-baseline: middle; text-anchor: middle; }
.label-7px { font: 7px Helvetica; dominant-baseline: middle; text-anchor: middle; }
.unused { fill: #AAA; }
.dim { fill: #888; }
</style>
<defs>
<marker id="arrowhead" markerWidth="10.75" markerHeight="24.5" refX="9.0" refY="6.125" orient="auto">
<polyline points="0.5 0.5, 8.75 6.125, 0.5 11.75" stroke="#567DB6" stroke-width="1" fill="none"/>
</marker>
</defs>
<line stroke="#567DB6" stroke-width="1" x1="1613.5625" x2="1613.5625" y1="42.5" y2="65.5" />
<line stroke="#567DB6" stroke-width="1" x1="1229.5625" x2="1229.5625" y1="42.5" y2="65.5" />
<line stroke="#567DB6" stroke-width="1" x1="1229.5625" x2="870" y1="90.5" y2="137" />
<line stroke="#567DB6" stroke-width="1" x1="845.5625" x2="845.5625" y1="42.5" y2="65.5" />
<line stroke="#567DB6" stroke-width="1" x1="845.5625" x2="846" y1="90.5" y2="137" />
<line stroke="#567DB6" stroke-width="1" x1="461.5625" x2="461.5625" y1="42.5" y2="65.5" />
<text class="title-left" x="90" y="9">upper</text>
<text class="title-right" x="1626" y="9">lower</text>
<rect fill="#DEE6F1" height="24" width="24.875" x="1601.125" y="18" />
<rect fill="none" height="24" stroke="#405C86" stroke-width="2" width="384" x="1242" y="18" />
<rect fill="#DEE6F1" height="24" width="24.875" x="1217.125" y="18" />
<rect fill="none" height="24" stroke="#405C86" stroke-width="2" width="384" x="858" y="18" />
<rect fill="#DEE6F1" height="24" width="24.875" x="833.125" y="18" />
<rect fill="none" height="24" stroke="#405C86" stroke-width="2" width="384" x="474" y="18" />
<rect fill="#DEE6F1" height="24" width="24.875" x="449.125" y="18" />
<rect fill="none" height="24" stroke="#405C86" stroke-width="2" width="384" x="90" y="18" />
<text class="register-name" x="80" y="30">Zt</text>
<text class="intrinsic-name" x="80" y="42">value</text>
<text class="register-number" x="10" y="30">(1)</text>
<rect fill="none" height="24" stroke="#405C86" stroke-width="2" width="12" x="1607.5625" y="66" />
<text class="label" x="1613.5625" y="79">0</text>
<rect fill="none" height="24" stroke="#405C86" stroke-dasharray="3 1" stroke-dashoffset="1.5" stroke-width="1" width="12" x="1595.5625" y="66" />
<text class="label unused" x="1601.5625" y="79"></text>
<rect fill="none" height="24" stroke="#405C86" stroke-dasharray="3 1" stroke-dashoffset="1.5" stroke-width="1" width="12" x="1583.5625" y="66" />
<text class="label unused" x="1589.5625" y="79"></text>
<rect fill="none" height="24" stroke="#405C86" stroke-dasharray="3 1" stroke-dashoffset="1.5" stroke-width="1" width="12" x="1571.5625" y="66" />
<text class="label unused" x="1577.5625" y="79"></text>
<rect fill="none" height="24" stroke="#405C86" stroke-dasharray="3 1" stroke-dashoffset="1.5" stroke-width="1" width="12" x="1559.5625" y="66" />
<text class="label unused" x="1565.5625" y="79"></text>
<rect fill="none" height="24" stroke="#405C86" stroke-dasharray="3 1" stroke-dashoffset="1.5" stroke-width="1" width="12" x="1547.5625" y="66" />
<text class="label unused" x="1553.5625" y="79"></text>
<rect fill="none" height="24" stroke="#405C86" stroke-dasharray="3 1" stroke-dashoffset="1.5" stroke-width="1" width="12" x="1535.5625" y="66" />
<text class="label unused" x="1541.5625" y="79"></text>
<rect fill="none" height="24" stroke="#405C86" stroke-dasharray="3 1" stroke-dashoffset="1.5" stroke-width="1" width="12" x="1523.5625" y="66" />
<text class="label unused" x="1529.5625" y="79"></text>
<rect fill="none" height="24" stroke="#405C86" stroke-dasharray="3 1" stroke-dashoffset="1.5" stroke-width="1" width="12" x="1511.5625" y="66" />
<text class="label unused" x="1517.5625" y="79"></text>
<rect fill="none" height="24" stroke="#405C86" stroke-dasharray="3 1" stroke-dashoffset="1.5" stroke-width="1" width="12" x="1499.5625" y="66" />
<text class="label unused" x="1505.5625" y="79"></text>
<rect fill="none" height="24" stroke="#405C86" stroke-dasharray="3 1" stroke-dashoffset="1.5" stroke-width="1" width="12" x="1487.5625" y="66" />
<text class="label unused" x="1493.5625" y="79"></text>
<rect fill="none" height="24" stroke="#405C86" stroke-dasharray="3 1" stroke-dashoffset="1.5" stroke-width="1" width="12" x="1475.5625" y="66" />
<text class="label unused" x="1481.5625" y="79"></text>
<rect fill="none" height="24" stroke="#405C86" stroke-dasharray="3 1" stroke-dashoffset="1.5" stroke-width="1" width="12" x="1463.5625" y="66" />
<text class="label unused" x="1469.5625" y="79"></text>
<rect fill="none" height="24" stroke="#405C86" stroke-dasharray="3 1" stroke-dashoffset="1.5" stroke-width="1" width="12" x="1451.5625" y="66" />
<text class="label unused" x="1457.5625" y="79"></text>
<rect fill="none" height="24" stroke="#405C86" stroke-dasharray="3 1" stroke-dashoffset="1.5" stroke-width="1" width="12" x="1439.5625" y="66" />
<text class="label unused" x="1445.5625" y="79"></text>
<rect fill="none" height="24" stroke="#405C86" stroke-dasharray="3 1" stroke-dashoffset="1.5" stroke-width="1" width="12" x="1427.5625" y="66" />
<text class="label unused" x="1433.5625" y="79"></text>
<rect fill="#DEE6F1" height="24" width="12" x="1223.5625" y="66" />
<rect fill="none" height="24" stroke="#405C86" stroke-width="2" width="12" x="1223.5625" y="66" />
<text class="label" x="1229.5625" y="79">1</text>
<rect fill="none" height="24" stroke="#405C86" stroke-dasharray="3 1" stroke-dashoffset="1.5" stroke-width="1" width="12" x="1211.5625" y="66" />
<text class="label unused" x="1217.5625" y="79"></text>
<rect fill="none" height="24" stroke="#405C86" stroke-dasharray="3 1" stroke-dashoffset="1.5" stroke-width="1" width="12" x="1199.5625" y="66" />
<text class="label unused" x="1205.5625" y="79"></text>
<rect fill="none" height="24" stroke="#405C86" stroke-dasharray="3 1" stroke-dashoffset="1.5" stroke-width="1" width="12" x="1187.5625" y="66" />
<text class="label unused" x="1193.5625" y="79"></text>
<rect fill="none" height="24" stroke="#405C86" stroke-dasharray="3 1" stroke-dashoffset="1.5" stroke-width="1" width="12" x="1175.5625" y="66" />
<text class="label unused" x="1181.5625" y="79"></text>
<rect fill="none" height="24" stroke="#405C86" stroke-dasharray="3 1" stroke-dashoffset="1.5" stroke-width="1" width="12" x="1163.5625" y="66" />
<text class="label unused" x="1169.5625" y="79"></text>
<rect fill="none" height="24" stroke="#405C86" stroke-dasharray="3 1" stroke-dashoffset="1.5" stroke-width="1" width="12" x="1151.5625" y="66" />
<text class="label unused" x="1157.5625" y="79"></text>
<rect fill="none" height="24" stroke="#405C86" stroke-dasharray="3 1" stroke-dashoffset="1.5" stroke-width="1" width="12" x="1139.5625" y="66" />
<text class="label unused" x="1145.5625" y="79"></text>
<rect fill="none" height="24" stroke="#405C86" stroke-dasharray="3 1" stroke-dashoffset="1.5" stroke-width="1" width="12" x="1127.5625" y="66" />
<text class="label unused" x="1133.5625" y="79"></text>
<rect fill="none" height="24" stroke="#405C86" stroke-dasharray="3 1" stroke-dashoffset="1.5" stroke-width="1" width="12" x="1115.5625" y="66" />
<text class="label unused" x="1121.5625" y="79"></text>
<rect fill="none" height="24" stroke="#405C86" stroke-dasharray="3 1" stroke-dashoffset="1.5" stroke-width="1" width="12" x="1103.5625" y="66" />
<text class="label unused" x="1109.5625" y="79"></text>
<rect fill="none" height="24" stroke="#405C86" stroke-dasharray="3 1" stroke-dashoffset="1.5" stroke-width="1" width="12" x="1091.5625" y="66" />
<text class="label unused" x="1097.5625" y="79"></text>
<rect fill="none" height="24" stroke="#405C86" stroke-dasharray="3 1" stroke-dashoffset="1.5" stroke-width="1" width="12" x="1079.5625" y="66" />
<text class="label unused" x="1085.5625" y="79"></text>
<rect fill="none" height="24" stroke="#405C86" stroke-dasharray="3 1" stroke-dashoffset="1.5" stroke-width="1" width="12" x="1067.5625" y="66" />
<text class="label unused" x="1073.5625" y="79"></text>
<rect fill="none" height="24" stroke="#405C86" stroke-dasharray="3 1" stroke-dashoffset="1.5" stroke-width="1" width="12" x="1055.5625" y="66" />
<text class="label unused" x="1061.5625" y="79"></text>
<rect fill="none" height="24" stroke="#405C86" stroke-dasharray="3 1" stroke-dashoffset="1.5" stroke-width="1" width="12" x="1043.5625" y="66" />
<text class="label unused" x="1049.5625" y="79"></text>
<rect fill="#DEE6F1" height="24" width="12" x="839.5625" y="66" />
<rect fill="none" height="24" stroke="#405C86" stroke-width="2" width="12" x="839.5625" y="66" />
<text class="label" x="845.5625" y="79">1</text>
<rect fill="none" height="24" stroke="#405C86" stroke-dasharray="3 1" stroke-dashoffset="1.5" stroke-width="1" width="12" x="827.5625" y="66" />
<text class="label unused" x="833.5625" y="79"></text>
<rect fill="none" height="24" stroke="#405C86" stroke-dasharray="3 1" stroke-dashoffset="1.5" stroke-width="1" width="12" x="815.5625" y="66" />
<text class="label unused" x="821.5625" y="79"></text>
<rect fill="none" height="24" stroke="#405C86" stroke-dasharray="3 1" stroke-dashoffset="1.5" stroke-width="1" width="12" x="803.5625" y="66" />
<text class="label unused" x="809.5625" y="79"></text>
<rect fill="none" height="24" stroke="#405C86" stroke-dasharray="3 1" stroke-dashoffset="1.5" stroke-width="1" width="12" x="791.5625" y="66" />
<text class="label unused" x="797.5625" y="79"></text>
<rect fill="none" height="24" stroke="#405C86" stroke-dasharray="3 1" stroke-dashoffset="1.5" stroke-width="1" width="12" x="779.5625" y="66" />
<text class="label unused" x="785.5625" y="79"></text>
<rect fill="none" height="24" stroke="#405C86" stroke-dasharray="3 1" stroke-dashoffset="1.5" stroke-width="1" width="12" x="767.5625" y="66" />
<text class="label unused" x="773.5625" y="79"></text>
<rect fill="none" height="24" stroke="#405C86" stroke-dasharray="3 1" stroke-dashoffset="1.5" stroke-width="1" width="12" x="755.5625" y="66" />
<text class="label unused" x="761.5625" y="79"></text>
<rect fill="none" height="24" stroke="#405C86" stroke-dasharray="3 1" stroke-dashoffset="1.5" stroke-width="1" width="12" x="743.5625" y="66" />
<text class="label unused" x="749.5625" y="79"></text>
<rect fill="none" height="24" stroke="#405C86" stroke-dasharray="3 1" stroke-dashoffset="1.5" stroke-width="1" width="12" x="731.5625" y="66" />
<text class="label unused" x="737.5625" y="79"></text>
<rect fill="none" height="24" stroke="#405C86" stroke-dasharray="3 1" stroke-dashoffset="1.5" stroke-width="1" width="12" x="719.5625" y="66" />
<text class="label unused" x="725.5625" y="79"></text>
<rect fill="none" height="24" stroke="#405C86" stroke-dasharray="3 1" stroke-dashoffset="1.5" stroke-width="1" width="12" x="707.5625" y="66" />
<text class="label unused" x="713.5625" y="79"></text>
<rect fill="none" height="24" stroke="#405C86" stroke-dasharray="3 1" stroke-dashoffset="1.5" stroke-width="1" width="12" x="695.5625" y="66" />
<text class="label unused" x="701.5625" y="79"></text>
<rect fill="none" height="24" stroke="#405C86" stroke-dasharray="3 1" stroke-dashoffset="1.5" stroke-width="1" width="12" x="683.5625" y="66" />
<text class="label unused" x="689.5625" y="79"></text>
<rect fill="none" height="24" stroke="#405C86" stroke-dasharray="3 1" stroke-dashoffset="1.5" stroke-width="1" width="12" x="671.5625" y="66" />
<text class="label unused" x="677.5625" y="79"></text>
<rect fill="none" height="24" stroke="#405C86" stroke-dasharray="3 1" stroke-dashoffset="1.5" stroke-width="1" width="12" x="659.5625" y="66" />
<text class="label unused" x="665.5625" y="79"></text>
<rect fill="none" height="24" stroke="#405C86" stroke-width="2" width="12" x="455.5625" y="66" />
<text class="label" x="461.5625" y="79">0</text>
<rect fill="none" height="24" stroke="#405C86" stroke-dasharray="3 1" stroke-dashoffset="1.5" stroke-width="1" width="12" x="443.5625" y="66" />
<text class="label unused" x="449.5625" y="79"></text>
<rect fill="none" height="24" stroke="#405C86" stroke-dasharray="3 1" stroke-dashoffset="1.5" stroke-width="1" width="12" x="431.5625" y="66" />
<text class="label unused" x="437.5625" y="79"></text>
<rect fill="none" height="24" stroke="#405C86" stroke-dasharray="3 1" stroke-dashoffset="1.5" stroke-width="1" width="12" x="419.5625" y="66" />
<text class="label unused" x="425.5625" y="79"></text>
<rect fill="none" height="24" stroke="#405C86" stroke-dasharray="3 1" stroke-dashoffset="1.5" stroke-width="1" width="12" x="407.5625" y="66" />
<text class="label unused" x="413.5625" y="79"></text>
<rect fill="none" height="24" stroke="#405C86" stroke-dasharray="3 1" stroke-dashoffset="1.5" stroke-width="1" width="12" x="395.5625" y="66" />
<text class="label unused" x="401.5625" y="79"></text>
<rect fill="none" height="24" stroke="#405C86" stroke-dasharray="3 1" stroke-dashoffset="1.5" stroke-width="1" width="12" x="383.5625" y="66" />
<text class="label unused" x="389.5625" y="79"></text>
<rect fill="none" height="24" stroke="#405C86" stroke-dasharray="3 1" stroke-dashoffset="1.5" stroke-width="1" width="12" x="371.5625" y="66" />
<text class="label unused" x="377.5625" y="79"></text>
<rect fill="none" height="24" stroke="#405C86" stroke-dasharray="3 1" stroke-dashoffset="1.5" stroke-width="1" width="12" x="359.5625" y="66" />
<text class="label unused" x="365.5625" y="79"></text>
<rect fill="none" height="24" stroke="#405C86" stroke-dasharray="3 1" stroke-dashoffset="1.5" stroke-width="1" width="12" x="347.5625" y="66" />
<text class="label unused" x="353.5625" y="79"></text>
<rect fill="none" height="24" stroke="#405C86" stroke-dasharray="3 1" stroke-dashoffset="1.5" stroke-width="1" width="12" x="335.5625" y="66" />
<text class="label unused" x="341.5625" y="79"></text>
<rect fill="none" height="24" stroke="#405C86" stroke-dasharray="3 1" stroke-dashoffset="1.5" stroke-width="1" width="12" x="323.5625" y="66" />
<text class="label unused" x="329.5625" y="79"></text>
<rect fill="none" height="24" stroke="#405C86" stroke-dasharray="3 1" stroke-dashoffset="1.5" stroke-width="1" width="12" x="311.5625" y="66" />
<text class="label unused" x="317.5625" y="79"></text>
<rect fill="none" height="24" stroke="#405C86" stroke-dasharray="3 1" stroke-dashoffset="1.5" stroke-width="1" width="12" x="299.5625" y="66" />
<text class="label unused" x="305.5625" y="79"></text>
<rect fill="none" height="24" stroke="#405C86" stroke-dasharray="3 1" stroke-dashoffset="1.5" stroke-width="1" width="12" x="287.5625" y="66" />
<text class="label unused" x="293.5625" y="79"></text>
<rect fill="none" height="24" stroke="#405C86" stroke-dasharray="3 1" stroke-dashoffset="1.5" stroke-width="1" width="12" x="275.5625" y="66" />
<text class="label unused" x="281.5625" y="79"></text>
<text class="register-name" x="80" y="78">Pg</text>
<text class="intrinsic-name" x="80" y="90">pg</text>
<text class="register-number" x="10" y="78">(2)</text>
<rect fill="none" height="24" stroke="#405C86" stroke-dasharray="3 1" stroke-dashoffset="1.5" stroke-width="1" width="24" x="882" y="138" />
<text class="smaller-label intrinsic-color" x="894" y="151">b[0]</text>
<rect fill="#DEE6F1" height="24" width="24" x="858" y="138" />
<rect fill="none" height="24" stroke="#405C86" stroke-width="2" width="24" x="858" y="138" />
<text class="smaller-label intrinsic-color" x="870" y="151">b[1]</text>
<rect fill="#DEE6F1" height="24" width="24" x="834" y="138" />
<rect fill="none" height="24" stroke="#405C86" stroke-width="2" width="24" x="834" y="138" />
<text class="smaller-label intrinsic-color" x="846" y="151">b[2]</text>
<rect fill="none" height="24" stroke="#405C86" stroke-dasharray="3 1" stroke-dashoffset="1.5" stroke-width="1" width="24" x="810" y="138" />
<text class="smaller-label intrinsic-color" x="822" y="151">b[3]</text>
<text class="register-name" x="80" y="150">Zt</text>
<text class="intrinsic-name" x="80" y="162">value</text>
<text class="register-number" x="10" y="150">(3)</text>
<line marker-end="url(#arrowhead)" stroke="none" x1="1229.5625" x2="870" y1="90.5" y2="137" />
<line marker-end="url(#arrowhead)" stroke="none" x1="845.5625" x2="846" y1="90.5" y2="137" />
</svg>