<svg xmlns="http://www.w3.org/2000/svg" viewBox="0 0 3174 171">
<style>
.label { font: 14px Helvetica; dominant-baseline: middle; text-anchor: middle; }
.title-left { font: 12px Helvetica; dominant-baseline: middle; }
.title-right { font: 12px Helvetica; dominant-baseline: middle; text-anchor: end; }
.title-intrinsic { font: 12px Helvetica; dominant-baseline: middle; text-anchor: middle; fill: #6778ED; }
.title { font: 12px Helvetica; dominant-baseline: middle; text-anchor: middle; }
.title-unused { font: 12px Helvetica; dominant-baseline: middle; text-anchor: middle; fill: #AAA; }
.register-name { font: 14px Helvetica; dominant-baseline: middle; text-anchor: end; font-style: italic; }
.memory-name { font: 14px Helvetica; dominant-baseline: middle; text-anchor: end; }
.register-number { font: 14px Helvetica; dominant-baseline: middle; text-anchor: start; }
.intrinsic-name { font: 14px Helvetica; dominant-baseline: middle; text-anchor: end; fill: #6778ED; }
.intrinsic-color { fill: #6778ED; }
.small-label { font: 12px Helvetica; dominant-baseline: middle; text-anchor: middle; }
.label-10px { font: 10px Helvetica; dominant-baseline: middle; text-anchor: middle; }
.smaller-label { font: 9px Helvetica; dominant-baseline: middle; text-anchor: middle; }
.label-6px { font: 6px Helvetica; dominant-baseline: middle; text-anchor: middle; }
.label-7px { font: 7px Helvetica; dominant-baseline: middle; text-anchor: middle; }
.unused { fill: #AAA; }
.dim { fill: #888; }
</style>
<defs>
<marker id="arrowhead" markerWidth="10.75" markerHeight="24.5" refX="9.0" refY="6.125" orient="auto">
<polyline points="0.5 0.5, 8.75 6.125, 0.5 11.75" stroke="#567DB6" stroke-width="1" fill="none"/>
</marker>
</defs>
<line stroke="#567DB6" stroke-width="1" x1="3138" x2="3138" y1="42.5" y2="65.5" />
<line stroke="#567DB6" stroke-width="1" x1="3042" x2="3042" y1="42.5" y2="65.5" />
<line stroke="#567DB6" stroke-width="1" x1="3042" x2="2322" y1="90.5" y2="137" />
<line stroke="#567DB6" stroke-width="1" x1="2946" x2="2946" y1="42.5" y2="65.5" />
<line stroke="#567DB6" stroke-width="1" x1="2946" x2="2274" y1="90.5" y2="137" />
<line stroke="#567DB6" stroke-width="1" x1="2850" x2="2850" y1="42.5" y2="65.5" />
<line stroke="#567DB6" stroke-width="1" x1="2754" x2="2754" y1="42.5" y2="65.5" />
<line stroke="#567DB6" stroke-width="1" x1="2754" x2="2178" y1="90.5" y2="137" />
<line stroke="#567DB6" stroke-width="1" x1="2658" x2="2658" y1="42.5" y2="65.5" />
<line stroke="#567DB6" stroke-width="1" x1="2658" x2="2130" y1="90.5" y2="137" />
<line stroke="#567DB6" stroke-width="1" x1="2562" x2="2562" y1="42.5" y2="65.5" />
<line stroke="#567DB6" stroke-width="1" x1="2466" x2="2466" y1="42.5" y2="65.5" />
<line stroke="#567DB6" stroke-width="1" x1="2466" x2="2034" y1="90.5" y2="137" />
<line stroke="#567DB6" stroke-width="1" x1="2370" x2="2370" y1="42.5" y2="65.5" />
<line stroke="#567DB6" stroke-width="1" x1="2370" x2="1986" y1="90.5" y2="137" />
<line stroke="#567DB6" stroke-width="1" x1="2274" x2="2274" y1="42.5" y2="65.5" />
<line stroke="#567DB6" stroke-width="1" x1="2274" x2="1938" y1="90.5" y2="137" />
<line stroke="#567DB6" stroke-width="1" x1="2178" x2="2178" y1="42.5" y2="65.5" />
<line stroke="#567DB6" stroke-width="1" x1="2178" x2="1890" y1="90.5" y2="137" />
<line stroke="#567DB6" stroke-width="1" x1="2082" x2="2082" y1="42.5" y2="65.5" />
<line stroke="#567DB6" stroke-width="1" x1="2082" x2="1842" y1="90.5" y2="137" />
<line stroke="#567DB6" stroke-width="1" x1="1986" x2="1986" y1="42.5" y2="65.5" />
<line stroke="#567DB6" stroke-width="1" x1="1986" x2="1794" y1="90.5" y2="137" />
<line stroke="#567DB6" stroke-width="1" x1="1890" x2="1890" y1="42.5" y2="65.5" />
<line stroke="#567DB6" stroke-width="1" x1="1890" x2="1746" y1="90.5" y2="137" />
<line stroke="#567DB6" stroke-width="1" x1="1794" x2="1794" y1="42.5" y2="65.5" />
<line stroke="#567DB6" stroke-width="1" x1="1698" x2="1698" y1="42.5" y2="65.5" />
<line stroke="#567DB6" stroke-width="1" x1="1698" x2="1650" y1="90.5" y2="137" />
<line stroke="#567DB6" stroke-width="1" x1="1602" x2="1602" y1="42.5" y2="65.5" />
<line stroke="#567DB6" stroke-width="1" x1="1602" x2="1602" y1="90.5" y2="137" />
<line stroke="#567DB6" stroke-width="1" x1="1506" x2="1506" y1="42.5" y2="65.5" />
<line stroke="#567DB6" stroke-width="1" x1="1410" x2="1410" y1="42.5" y2="65.5" />
<line stroke="#567DB6" stroke-width="1" x1="1410" x2="1506" y1="90.5" y2="137" />
<line stroke="#567DB6" stroke-width="1" x1="1314" x2="1314" y1="42.5" y2="65.5" />
<line stroke="#567DB6" stroke-width="1" x1="1314" x2="1458" y1="90.5" y2="137" />
<line stroke="#567DB6" stroke-width="1" x1="1218" x2="1218" y1="42.5" y2="65.5" />
<line stroke="#567DB6" stroke-width="1" x1="1218" x2="1410" y1="90.5" y2="137" />
<line stroke="#567DB6" stroke-width="1" x1="1122" x2="1122" y1="42.5" y2="65.5" />
<line stroke="#567DB6" stroke-width="1" x1="1122" x2="1362" y1="90.5" y2="137" />
<line stroke="#567DB6" stroke-width="1" x1="1026" x2="1026" y1="42.5" y2="65.5" />
<line stroke="#567DB6" stroke-width="1" x1="1026" x2="1314" y1="90.5" y2="137" />
<line stroke="#567DB6" stroke-width="1" x1="930" x2="930" y1="42.5" y2="65.5" />
<line stroke="#567DB6" stroke-width="1" x1="930" x2="1266" y1="90.5" y2="137" />
<line stroke="#567DB6" stroke-width="1" x1="834" x2="834" y1="42.5" y2="65.5" />
<line stroke="#567DB6" stroke-width="1" x1="834" x2="1218" y1="90.5" y2="137" />
<line stroke="#567DB6" stroke-width="1" x1="738" x2="738" y1="42.5" y2="65.5" />
<line stroke="#567DB6" stroke-width="1" x1="738" x2="1170" y1="90.5" y2="137" />
<line stroke="#567DB6" stroke-width="1" x1="642" x2="642" y1="42.5" y2="65.5" />
<line stroke="#567DB6" stroke-width="1" x1="642" x2="1122" y1="90.5" y2="137" />
<line stroke="#567DB6" stroke-width="1" x1="546" x2="546" y1="42.5" y2="65.5" />
<line stroke="#567DB6" stroke-width="1" x1="546" x2="1074" y1="90.5" y2="137" />
<line stroke="#567DB6" stroke-width="1" x1="450" x2="450" y1="42.5" y2="65.5" />
<line stroke="#567DB6" stroke-width="1" x1="354" x2="354" y1="42.5" y2="65.5" />
<line stroke="#567DB6" stroke-width="1" x1="354" x2="978" y1="90.5" y2="137" />
<line stroke="#567DB6" stroke-width="1" x1="258" x2="258" y1="42.5" y2="65.5" />
<line stroke="#567DB6" stroke-width="1" x1="162" x2="162" y1="42.5" y2="65.5" />
<line stroke="#567DB6" stroke-width="1" x1="162" x2="882" y1="90.5" y2="137" />
<text class="title-left" x="90" y="9">upper</text>
<text class="title-right" x="3162" y="9">lower</text>
<rect fill="#DEE6F1" height="24" width="48" x="3114" y="18" />
<rect fill="none" height="24" stroke="#405C86" stroke-width="2" width="96" x="3066" y="18" />
<rect fill="#DEE6F1" height="24" width="48" x="3018" y="18" />
<rect fill="none" height="24" stroke="#405C86" stroke-width="2" width="96" x="2970" y="18" />
<rect fill="#DEE6F1" height="24" width="48" x="2922" y="18" />
<rect fill="none" height="24" stroke="#405C86" stroke-width="2" width="96" x="2874" y="18" />
<rect fill="#DEE6F1" height="24" width="48" x="2826" y="18" />
<rect fill="none" height="24" stroke="#405C86" stroke-width="2" width="96" x="2778" y="18" />
<rect fill="#DEE6F1" height="24" width="48" x="2730" y="18" />
<rect fill="none" height="24" stroke="#405C86" stroke-width="2" width="96" x="2682" y="18" />
<rect fill="#DEE6F1" height="24" width="48" x="2634" y="18" />
<rect fill="none" height="24" stroke="#405C86" stroke-width="2" width="96" x="2586" y="18" />
<rect fill="#DEE6F1" height="24" width="48" x="2538" y="18" />
<rect fill="none" height="24" stroke="#405C86" stroke-width="2" width="96" x="2490" y="18" />
<rect fill="#DEE6F1" height="24" width="48" x="2442" y="18" />
<rect fill="none" height="24" stroke="#405C86" stroke-width="2" width="96" x="2394" y="18" />
<rect fill="#DEE6F1" height="24" width="48" x="2346" y="18" />
<rect fill="none" height="24" stroke="#405C86" stroke-width="2" width="96" x="2298" y="18" />
<rect fill="#DEE6F1" height="24" width="48" x="2250" y="18" />
<rect fill="none" height="24" stroke="#405C86" stroke-width="2" width="96" x="2202" y="18" />
<rect fill="#DEE6F1" height="24" width="48" x="2154" y="18" />
<rect fill="none" height="24" stroke="#405C86" stroke-width="2" width="96" x="2106" y="18" />
<rect fill="#DEE6F1" height="24" width="48" x="2058" y="18" />
<rect fill="none" height="24" stroke="#405C86" stroke-width="2" width="96" x="2010" y="18" />
<rect fill="#DEE6F1" height="24" width="48" x="1962" y="18" />
<rect fill="none" height="24" stroke="#405C86" stroke-width="2" width="96" x="1914" y="18" />
<rect fill="#DEE6F1" height="24" width="48" x="1866" y="18" />
<rect fill="none" height="24" stroke="#405C86" stroke-width="2" width="96" x="1818" y="18" />
<rect fill="#DEE6F1" height="24" width="48" x="1770" y="18" />
<rect fill="none" height="24" stroke="#405C86" stroke-width="2" width="96" x="1722" y="18" />
<rect fill="#DEE6F1" height="24" width="48" x="1674" y="18" />
<rect fill="none" height="24" stroke="#405C86" stroke-width="2" width="96" x="1626" y="18" />
<rect fill="#DEE6F1" height="24" width="48" x="1578" y="18" />
<rect fill="none" height="24" stroke="#405C86" stroke-width="2" width="96" x="1530" y="18" />
<rect fill="#DEE6F1" height="24" width="48" x="1482" y="18" />
<rect fill="none" height="24" stroke="#405C86" stroke-width="2" width="96" x="1434" y="18" />
<rect fill="#DEE6F1" height="24" width="48" x="1386" y="18" />
<rect fill="none" height="24" stroke="#405C86" stroke-width="2" width="96" x="1338" y="18" />
<rect fill="#DEE6F1" height="24" width="48" x="1290" y="18" />
<rect fill="none" height="24" stroke="#405C86" stroke-width="2" width="96" x="1242" y="18" />
<rect fill="#DEE6F1" height="24" width="48" x="1194" y="18" />
<rect fill="none" height="24" stroke="#405C86" stroke-width="2" width="96" x="1146" y="18" />
<rect fill="#DEE6F1" height="24" width="48" x="1098" y="18" />
<rect fill="none" height="24" stroke="#405C86" stroke-width="2" width="96" x="1050" y="18" />
<rect fill="#DEE6F1" height="24" width="48" x="1002" y="18" />
<rect fill="none" height="24" stroke="#405C86" stroke-width="2" width="96" x="954" y="18" />
<rect fill="#DEE6F1" height="24" width="48" x="906" y="18" />
<rect fill="none" height="24" stroke="#405C86" stroke-width="2" width="96" x="858" y="18" />
<rect fill="#DEE6F1" height="24" width="48" x="810" y="18" />
<rect fill="none" height="24" stroke="#405C86" stroke-width="2" width="96" x="762" y="18" />
<rect fill="#DEE6F1" height="24" width="48" x="714" y="18" />
<rect fill="none" height="24" stroke="#405C86" stroke-width="2" width="96" x="666" y="18" />
<rect fill="#DEE6F1" height="24" width="48" x="618" y="18" />
<rect fill="none" height="24" stroke="#405C86" stroke-width="2" width="96" x="570" y="18" />
<rect fill="#DEE6F1" height="24" width="48" x="522" y="18" />
<rect fill="none" height="24" stroke="#405C86" stroke-width="2" width="96" x="474" y="18" />
<rect fill="#DEE6F1" height="24" width="48" x="426" y="18" />
<rect fill="none" height="24" stroke="#405C86" stroke-width="2" width="96" x="378" y="18" />
<rect fill="#DEE6F1" height="24" width="48" x="330" y="18" />
<rect fill="none" height="24" stroke="#405C86" stroke-width="2" width="96" x="282" y="18" />
<rect fill="#DEE6F1" height="24" width="48" x="234" y="18" />
<rect fill="none" height="24" stroke="#405C86" stroke-width="2" width="96" x="186" y="18" />
<rect fill="#DEE6F1" height="24" width="48" x="138" y="18" />
<rect fill="none" height="24" stroke="#405C86" stroke-width="2" width="96" x="90" y="18" />
<text class="register-name" x="80" y="30">Zt</text>
<text class="intrinsic-name" x="80" y="42">value</text>
<text class="register-number" x="10" y="30">(1)</text>
<rect fill="none" height="24" stroke="#405C86" stroke-width="2" width="12" x="3132" y="66" />
<text class="label" x="3138" y="79">0</text>
<rect fill="none" height="24" stroke="#405C86" stroke-dasharray="3 1" stroke-dashoffset="1.5" stroke-width="1" width="12" x="3120" y="66" />
<text class="label unused" x="3126" y="79"></text>
<rect fill="none" height="24" stroke="#405C86" stroke-dasharray="3 1" stroke-dashoffset="1.5" stroke-width="1" width="12" x="3108" y="66" />
<text class="label unused" x="3114" y="79"></text>
<rect fill="none" height="24" stroke="#405C86" stroke-dasharray="3 1" stroke-dashoffset="1.5" stroke-width="1" width="12" x="3096" y="66" />
<text class="label unused" x="3102" y="79"></text>
<rect fill="#DEE6F1" height="24" width="12" x="3036" y="66" />
<rect fill="none" height="24" stroke="#405C86" stroke-width="2" width="12" x="3036" y="66" />
<text class="label" x="3042" y="79">1</text>
<rect fill="none" height="24" stroke="#405C86" stroke-dasharray="3 1" stroke-dashoffset="1.5" stroke-width="1" width="12" x="3024" y="66" />
<text class="label unused" x="3030" y="79"></text>
<rect fill="none" height="24" stroke="#405C86" stroke-dasharray="3 1" stroke-dashoffset="1.5" stroke-width="1" width="12" x="3012" y="66" />
<text class="label unused" x="3018" y="79"></text>
<rect fill="none" height="24" stroke="#405C86" stroke-dasharray="3 1" stroke-dashoffset="1.5" stroke-width="1" width="12" x="3000" y="66" />
<text class="label unused" x="3006" y="79"></text>
<rect fill="#DEE6F1" height="24" width="12" x="2940" y="66" />
<rect fill="none" height="24" stroke="#405C86" stroke-width="2" width="12" x="2940" y="66" />
<text class="label" x="2946" y="79">1</text>
<rect fill="none" height="24" stroke="#405C86" stroke-dasharray="3 1" stroke-dashoffset="1.5" stroke-width="1" width="12" x="2928" y="66" />
<text class="label unused" x="2934" y="79"></text>
<rect fill="none" height="24" stroke="#405C86" stroke-dasharray="3 1" stroke-dashoffset="1.5" stroke-width="1" width="12" x="2916" y="66" />
<text class="label unused" x="2922" y="79"></text>
<rect fill="none" height="24" stroke="#405C86" stroke-dasharray="3 1" stroke-dashoffset="1.5" stroke-width="1" width="12" x="2904" y="66" />
<text class="label unused" x="2910" y="79"></text>
<rect fill="none" height="24" stroke="#405C86" stroke-width="2" width="12" x="2844" y="66" />
<text class="label" x="2850" y="79">0</text>
<rect fill="none" height="24" stroke="#405C86" stroke-dasharray="3 1" stroke-dashoffset="1.5" stroke-width="1" width="12" x="2832" y="66" />
<text class="label unused" x="2838" y="79"></text>
<rect fill="none" height="24" stroke="#405C86" stroke-dasharray="3 1" stroke-dashoffset="1.5" stroke-width="1" width="12" x="2820" y="66" />
<text class="label unused" x="2826" y="79"></text>
<rect fill="none" height="24" stroke="#405C86" stroke-dasharray="3 1" stroke-dashoffset="1.5" stroke-width="1" width="12" x="2808" y="66" />
<text class="label unused" x="2814" y="79"></text>
<rect fill="#DEE6F1" height="24" width="12" x="2748" y="66" />
<rect fill="none" height="24" stroke="#405C86" stroke-width="2" width="12" x="2748" y="66" />
<text class="label" x="2754" y="79">1</text>
<rect fill="none" height="24" stroke="#405C86" stroke-dasharray="3 1" stroke-dashoffset="1.5" stroke-width="1" width="12" x="2736" y="66" />
<text class="label unused" x="2742" y="79"></text>
<rect fill="none" height="24" stroke="#405C86" stroke-dasharray="3 1" stroke-dashoffset="1.5" stroke-width="1" width="12" x="2724" y="66" />
<text class="label unused" x="2730" y="79"></text>
<rect fill="none" height="24" stroke="#405C86" stroke-dasharray="3 1" stroke-dashoffset="1.5" stroke-width="1" width="12" x="2712" y="66" />
<text class="label unused" x="2718" y="79"></text>
<rect fill="#DEE6F1" height="24" width="12" x="2652" y="66" />
<rect fill="none" height="24" stroke="#405C86" stroke-width="2" width="12" x="2652" y="66" />
<text class="label" x="2658" y="79">1</text>
<rect fill="none" height="24" stroke="#405C86" stroke-dasharray="3 1" stroke-dashoffset="1.5" stroke-width="1" width="12" x="2640" y="66" />
<text class="label unused" x="2646" y="79"></text>
<rect fill="none" height="24" stroke="#405C86" stroke-dasharray="3 1" stroke-dashoffset="1.5" stroke-width="1" width="12" x="2628" y="66" />
<text class="label unused" x="2634" y="79"></text>
<rect fill="none" height="24" stroke="#405C86" stroke-dasharray="3 1" stroke-dashoffset="1.5" stroke-width="1" width="12" x="2616" y="66" />
<text class="label unused" x="2622" y="79"></text>
<rect fill="none" height="24" stroke="#405C86" stroke-width="2" width="12" x="2556" y="66" />
<text class="label" x="2562" y="79">0</text>
<rect fill="none" height="24" stroke="#405C86" stroke-dasharray="3 1" stroke-dashoffset="1.5" stroke-width="1" width="12" x="2544" y="66" />
<text class="label unused" x="2550" y="79"></text>
<rect fill="none" height="24" stroke="#405C86" stroke-dasharray="3 1" stroke-dashoffset="1.5" stroke-width="1" width="12" x="2532" y="66" />
<text class="label unused" x="2538" y="79"></text>
<rect fill="none" height="24" stroke="#405C86" stroke-dasharray="3 1" stroke-dashoffset="1.5" stroke-width="1" width="12" x="2520" y="66" />
<text class="label unused" x="2526" y="79"></text>
<rect fill="#DEE6F1" height="24" width="12" x="2460" y="66" />
<rect fill="none" height="24" stroke="#405C86" stroke-width="2" width="12" x="2460" y="66" />
<text class="label" x="2466" y="79">1</text>
<rect fill="none" height="24" stroke="#405C86" stroke-dasharray="3 1" stroke-dashoffset="1.5" stroke-width="1" width="12" x="2448" y="66" />
<text class="label unused" x="2454" y="79"></text>
<rect fill="none" height="24" stroke="#405C86" stroke-dasharray="3 1" stroke-dashoffset="1.5" stroke-width="1" width="12" x="2436" y="66" />
<text class="label unused" x="2442" y="79"></text>
<rect fill="none" height="24" stroke="#405C86" stroke-dasharray="3 1" stroke-dashoffset="1.5" stroke-width="1" width="12" x="2424" y="66" />
<text class="label unused" x="2430" y="79"></text>
<rect fill="#DEE6F1" height="24" width="12" x="2364" y="66" />
<rect fill="none" height="24" stroke="#405C86" stroke-width="2" width="12" x="2364" y="66" />
<text class="label" x="2370" y="79">1</text>
<rect fill="none" height="24" stroke="#405C86" stroke-dasharray="3 1" stroke-dashoffset="1.5" stroke-width="1" width="12" x="2352" y="66" />
<text class="label unused" x="2358" y="79"></text>
<rect fill="none" height="24" stroke="#405C86" stroke-dasharray="3 1" stroke-dashoffset="1.5" stroke-width="1" width="12" x="2340" y="66" />
<text class="label unused" x="2346" y="79"></text>
<rect fill="none" height="24" stroke="#405C86" stroke-dasharray="3 1" stroke-dashoffset="1.5" stroke-width="1" width="12" x="2328" y="66" />
<text class="label unused" x="2334" y="79"></text>
<rect fill="#DEE6F1" height="24" width="12" x="2268" y="66" />
<rect fill="none" height="24" stroke="#405C86" stroke-width="2" width="12" x="2268" y="66" />
<text class="label" x="2274" y="79">1</text>
<rect fill="none" height="24" stroke="#405C86" stroke-dasharray="3 1" stroke-dashoffset="1.5" stroke-width="1" width="12" x="2256" y="66" />
<text class="label unused" x="2262" y="79"></text>
<rect fill="none" height="24" stroke="#405C86" stroke-dasharray="3 1" stroke-dashoffset="1.5" stroke-width="1" width="12" x="2244" y="66" />
<text class="label unused" x="2250" y="79"></text>
<rect fill="none" height="24" stroke="#405C86" stroke-dasharray="3 1" stroke-dashoffset="1.5" stroke-width="1" width="12" x="2232" y="66" />
<text class="label unused" x="2238" y="79"></text>
<rect fill="#DEE6F1" height="24" width="12" x="2172" y="66" />
<rect fill="none" height="24" stroke="#405C86" stroke-width="2" width="12" x="2172" y="66" />
<text class="label" x="2178" y="79">1</text>
<rect fill="none" height="24" stroke="#405C86" stroke-dasharray="3 1" stroke-dashoffset="1.5" stroke-width="1" width="12" x="2160" y="66" />
<text class="label unused" x="2166" y="79"></text>
<rect fill="none" height="24" stroke="#405C86" stroke-dasharray="3 1" stroke-dashoffset="1.5" stroke-width="1" width="12" x="2148" y="66" />
<text class="label unused" x="2154" y="79"></text>
<rect fill="none" height="24" stroke="#405C86" stroke-dasharray="3 1" stroke-dashoffset="1.5" stroke-width="1" width="12" x="2136" y="66" />
<text class="label unused" x="2142" y="79"></text>
<rect fill="#DEE6F1" height="24" width="12" x="2076" y="66" />
<rect fill="none" height="24" stroke="#405C86" stroke-width="2" width="12" x="2076" y="66" />
<text class="label" x="2082" y="79">1</text>
<rect fill="none" height="24" stroke="#405C86" stroke-dasharray="3 1" stroke-dashoffset="1.5" stroke-width="1" width="12" x="2064" y="66" />
<text class="label unused" x="2070" y="79"></text>
<rect fill="none" height="24" stroke="#405C86" stroke-dasharray="3 1" stroke-dashoffset="1.5" stroke-width="1" width="12" x="2052" y="66" />
<text class="label unused" x="2058" y="79"></text>
<rect fill="none" height="24" stroke="#405C86" stroke-dasharray="3 1" stroke-dashoffset="1.5" stroke-width="1" width="12" x="2040" y="66" />
<text class="label unused" x="2046" y="79"></text>
<rect fill="#DEE6F1" height="24" width="12" x="1980" y="66" />
<rect fill="none" height="24" stroke="#405C86" stroke-width="2" width="12" x="1980" y="66" />
<text class="label" x="1986" y="79">1</text>
<rect fill="none" height="24" stroke="#405C86" stroke-dasharray="3 1" stroke-dashoffset="1.5" stroke-width="1" width="12" x="1968" y="66" />
<text class="label unused" x="1974" y="79"></text>
<rect fill="none" height="24" stroke="#405C86" stroke-dasharray="3 1" stroke-dashoffset="1.5" stroke-width="1" width="12" x="1956" y="66" />
<text class="label unused" x="1962" y="79"></text>
<rect fill="none" height="24" stroke="#405C86" stroke-dasharray="3 1" stroke-dashoffset="1.5" stroke-width="1" width="12" x="1944" y="66" />
<text class="label unused" x="1950" y="79"></text>
<rect fill="#DEE6F1" height="24" width="12" x="1884" y="66" />
<rect fill="none" height="24" stroke="#405C86" stroke-width="2" width="12" x="1884" y="66" />
<text class="label" x="1890" y="79">1</text>
<rect fill="none" height="24" stroke="#405C86" stroke-dasharray="3 1" stroke-dashoffset="1.5" stroke-width="1" width="12" x="1872" y="66" />
<text class="label unused" x="1878" y="79"></text>
<rect fill="none" height="24" stroke="#405C86" stroke-dasharray="3 1" stroke-dashoffset="1.5" stroke-width="1" width="12" x="1860" y="66" />
<text class="label unused" x="1866" y="79"></text>
<rect fill="none" height="24" stroke="#405C86" stroke-dasharray="3 1" stroke-dashoffset="1.5" stroke-width="1" width="12" x="1848" y="66" />
<text class="label unused" x="1854" y="79"></text>
<rect fill="none" height="24" stroke="#405C86" stroke-width="2" width="12" x="1788" y="66" />
<text class="label" x="1794" y="79">0</text>
<rect fill="none" height="24" stroke="#405C86" stroke-dasharray="3 1" stroke-dashoffset="1.5" stroke-width="1" width="12" x="1776" y="66" />
<text class="label unused" x="1782" y="79"></text>
<rect fill="none" height="24" stroke="#405C86" stroke-dasharray="3 1" stroke-dashoffset="1.5" stroke-width="1" width="12" x="1764" y="66" />
<text class="label unused" x="1770" y="79"></text>
<rect fill="none" height="24" stroke="#405C86" stroke-dasharray="3 1" stroke-dashoffset="1.5" stroke-width="1" width="12" x="1752" y="66" />
<text class="label unused" x="1758" y="79"></text>
<rect fill="#DEE6F1" height="24" width="12" x="1692" y="66" />
<rect fill="none" height="24" stroke="#405C86" stroke-width="2" width="12" x="1692" y="66" />
<text class="label" x="1698" y="79">1</text>
<rect fill="none" height="24" stroke="#405C86" stroke-dasharray="3 1" stroke-dashoffset="1.5" stroke-width="1" width="12" x="1680" y="66" />
<text class="label unused" x="1686" y="79"></text>
<rect fill="none" height="24" stroke="#405C86" stroke-dasharray="3 1" stroke-dashoffset="1.5" stroke-width="1" width="12" x="1668" y="66" />
<text class="label unused" x="1674" y="79"></text>
<rect fill="none" height="24" stroke="#405C86" stroke-dasharray="3 1" stroke-dashoffset="1.5" stroke-width="1" width="12" x="1656" y="66" />
<text class="label unused" x="1662" y="79"></text>
<rect fill="#DEE6F1" height="24" width="12" x="1596" y="66" />
<rect fill="none" height="24" stroke="#405C86" stroke-width="2" width="12" x="1596" y="66" />
<text class="label" x="1602" y="79">1</text>
<rect fill="none" height="24" stroke="#405C86" stroke-dasharray="3 1" stroke-dashoffset="1.5" stroke-width="1" width="12" x="1584" y="66" />
<text class="label unused" x="1590" y="79"></text>
<rect fill="none" height="24" stroke="#405C86" stroke-dasharray="3 1" stroke-dashoffset="1.5" stroke-width="1" width="12" x="1572" y="66" />
<text class="label unused" x="1578" y="79"></text>
<rect fill="none" height="24" stroke="#405C86" stroke-dasharray="3 1" stroke-dashoffset="1.5" stroke-width="1" width="12" x="1560" y="66" />
<text class="label unused" x="1566" y="79"></text>
<rect fill="none" height="24" stroke="#405C86" stroke-width="2" width="12" x="1500" y="66" />
<text class="label" x="1506" y="79">0</text>
<rect fill="none" height="24" stroke="#405C86" stroke-dasharray="3 1" stroke-dashoffset="1.5" stroke-width="1" width="12" x="1488" y="66" />
<text class="label unused" x="1494" y="79"></text>
<rect fill="none" height="24" stroke="#405C86" stroke-dasharray="3 1" stroke-dashoffset="1.5" stroke-width="1" width="12" x="1476" y="66" />
<text class="label unused" x="1482" y="79"></text>
<rect fill="none" height="24" stroke="#405C86" stroke-dasharray="3 1" stroke-dashoffset="1.5" stroke-width="1" width="12" x="1464" y="66" />
<text class="label unused" x="1470" y="79"></text>
<rect fill="#DEE6F1" height="24" width="12" x="1404" y="66" />
<rect fill="none" height="24" stroke="#405C86" stroke-width="2" width="12" x="1404" y="66" />
<text class="label" x="1410" y="79">1</text>
<rect fill="none" height="24" stroke="#405C86" stroke-dasharray="3 1" stroke-dashoffset="1.5" stroke-width="1" width="12" x="1392" y="66" />
<text class="label unused" x="1398" y="79"></text>
<rect fill="none" height="24" stroke="#405C86" stroke-dasharray="3 1" stroke-dashoffset="1.5" stroke-width="1" width="12" x="1380" y="66" />
<text class="label unused" x="1386" y="79"></text>
<rect fill="none" height="24" stroke="#405C86" stroke-dasharray="3 1" stroke-dashoffset="1.5" stroke-width="1" width="12" x="1368" y="66" />
<text class="label unused" x="1374" y="79"></text>
<rect fill="#DEE6F1" height="24" width="12" x="1308" y="66" />
<rect fill="none" height="24" stroke="#405C86" stroke-width="2" width="12" x="1308" y="66" />
<text class="label" x="1314" y="79">1</text>
<rect fill="none" height="24" stroke="#405C86" stroke-dasharray="3 1" stroke-dashoffset="1.5" stroke-width="1" width="12" x="1296" y="66" />
<text class="label unused" x="1302" y="79"></text>
<rect fill="none" height="24" stroke="#405C86" stroke-dasharray="3 1" stroke-dashoffset="1.5" stroke-width="1" width="12" x="1284" y="66" />
<text class="label unused" x="1290" y="79"></text>
<rect fill="none" height="24" stroke="#405C86" stroke-dasharray="3 1" stroke-dashoffset="1.5" stroke-width="1" width="12" x="1272" y="66" />
<text class="label unused" x="1278" y="79"></text>
<rect fill="#DEE6F1" height="24" width="12" x="1212" y="66" />
<rect fill="none" height="24" stroke="#405C86" stroke-width="2" width="12" x="1212" y="66" />
<text class="label" x="1218" y="79">1</text>
<rect fill="none" height="24" stroke="#405C86" stroke-dasharray="3 1" stroke-dashoffset="1.5" stroke-width="1" width="12" x="1200" y="66" />
<text class="label unused" x="1206" y="79"></text>
<rect fill="none" height="24" stroke="#405C86" stroke-dasharray="3 1" stroke-dashoffset="1.5" stroke-width="1" width="12" x="1188" y="66" />
<text class="label unused" x="1194" y="79"></text>
<rect fill="none" height="24" stroke="#405C86" stroke-dasharray="3 1" stroke-dashoffset="1.5" stroke-width="1" width="12" x="1176" y="66" />
<text class="label unused" x="1182" y="79"></text>
<rect fill="#DEE6F1" height="24" width="12" x="1116" y="66" />
<rect fill="none" height="24" stroke="#405C86" stroke-width="2" width="12" x="1116" y="66" />
<text class="label" x="1122" y="79">1</text>
<rect fill="none" height="24" stroke="#405C86" stroke-dasharray="3 1" stroke-dashoffset="1.5" stroke-width="1" width="12" x="1104" y="66" />
<text class="label unused" x="1110" y="79"></text>
<rect fill="none" height="24" stroke="#405C86" stroke-dasharray="3 1" stroke-dashoffset="1.5" stroke-width="1" width="12" x="1092" y="66" />
<text class="label unused" x="1098" y="79"></text>
<rect fill="none" height="24" stroke="#405C86" stroke-dasharray="3 1" stroke-dashoffset="1.5" stroke-width="1" width="12" x="1080" y="66" />
<text class="label unused" x="1086" y="79"></text>
<rect fill="#DEE6F1" height="24" width="12" x="1020" y="66" />
<rect fill="none" height="24" stroke="#405C86" stroke-width="2" width="12" x="1020" y="66" />
<text class="label" x="1026" y="79">1</text>
<rect fill="none" height="24" stroke="#405C86" stroke-dasharray="3 1" stroke-dashoffset="1.5" stroke-width="1" width="12" x="1008" y="66" />
<text class="label unused" x="1014" y="79"></text>
<rect fill="none" height="24" stroke="#405C86" stroke-dasharray="3 1" stroke-dashoffset="1.5" stroke-width="1" width="12" x="996" y="66" />
<text class="label unused" x="1002" y="79"></text>
<rect fill="none" height="24" stroke="#405C86" stroke-dasharray="3 1" stroke-dashoffset="1.5" stroke-width="1" width="12" x="984" y="66" />
<text class="label unused" x="990" y="79"></text>
<rect fill="#DEE6F1" height="24" width="12" x="924" y="66" />
<rect fill="none" height="24" stroke="#405C86" stroke-width="2" width="12" x="924" y="66" />
<text class="label" x="930" y="79">1</text>
<rect fill="none" height="24" stroke="#405C86" stroke-dasharray="3 1" stroke-dashoffset="1.5" stroke-width="1" width="12" x="912" y="66" />
<text class="label unused" x="918" y="79"></text>
<rect fill="none" height="24" stroke="#405C86" stroke-dasharray="3 1" stroke-dashoffset="1.5" stroke-width="1" width="12" x="900" y="66" />
<text class="label unused" x="906" y="79"></text>
<rect fill="none" height="24" stroke="#405C86" stroke-dasharray="3 1" stroke-dashoffset="1.5" stroke-width="1" width="12" x="888" y="66" />
<text class="label unused" x="894" y="79"></text>
<rect fill="#DEE6F1" height="24" width="12" x="828" y="66" />
<rect fill="none" height="24" stroke="#405C86" stroke-width="2" width="12" x="828" y="66" />
<text class="label" x="834" y="79">1</text>
<rect fill="none" height="24" stroke="#405C86" stroke-dasharray="3 1" stroke-dashoffset="1.5" stroke-width="1" width="12" x="816" y="66" />
<text class="label unused" x="822" y="79"></text>
<rect fill="none" height="24" stroke="#405C86" stroke-dasharray="3 1" stroke-dashoffset="1.5" stroke-width="1" width="12" x="804" y="66" />
<text class="label unused" x="810" y="79"></text>
<rect fill="none" height="24" stroke="#405C86" stroke-dasharray="3 1" stroke-dashoffset="1.5" stroke-width="1" width="12" x="792" y="66" />
<text class="label unused" x="798" y="79"></text>
<rect fill="#DEE6F1" height="24" width="12" x="732" y="66" />
<rect fill="none" height="24" stroke="#405C86" stroke-width="2" width="12" x="732" y="66" />
<text class="label" x="738" y="79">1</text>
<rect fill="none" height="24" stroke="#405C86" stroke-dasharray="3 1" stroke-dashoffset="1.5" stroke-width="1" width="12" x="720" y="66" />
<text class="label unused" x="726" y="79"></text>
<rect fill="none" height="24" stroke="#405C86" stroke-dasharray="3 1" stroke-dashoffset="1.5" stroke-width="1" width="12" x="708" y="66" />
<text class="label unused" x="714" y="79"></text>
<rect fill="none" height="24" stroke="#405C86" stroke-dasharray="3 1" stroke-dashoffset="1.5" stroke-width="1" width="12" x="696" y="66" />
<text class="label unused" x="702" y="79"></text>
<rect fill="#DEE6F1" height="24" width="12" x="636" y="66" />
<rect fill="none" height="24" stroke="#405C86" stroke-width="2" width="12" x="636" y="66" />
<text class="label" x="642" y="79">1</text>
<rect fill="none" height="24" stroke="#405C86" stroke-dasharray="3 1" stroke-dashoffset="1.5" stroke-width="1" width="12" x="624" y="66" />
<text class="label unused" x="630" y="79"></text>
<rect fill="none" height="24" stroke="#405C86" stroke-dasharray="3 1" stroke-dashoffset="1.5" stroke-width="1" width="12" x="612" y="66" />
<text class="label unused" x="618" y="79"></text>
<rect fill="none" height="24" stroke="#405C86" stroke-dasharray="3 1" stroke-dashoffset="1.5" stroke-width="1" width="12" x="600" y="66" />
<text class="label unused" x="606" y="79"></text>
<rect fill="#DEE6F1" height="24" width="12" x="540" y="66" />
<rect fill="none" height="24" stroke="#405C86" stroke-width="2" width="12" x="540" y="66" />
<text class="label" x="546" y="79">1</text>
<rect fill="none" height="24" stroke="#405C86" stroke-dasharray="3 1" stroke-dashoffset="1.5" stroke-width="1" width="12" x="528" y="66" />
<text class="label unused" x="534" y="79"></text>
<rect fill="none" height="24" stroke="#405C86" stroke-dasharray="3 1" stroke-dashoffset="1.5" stroke-width="1" width="12" x="516" y="66" />
<text class="label unused" x="522" y="79"></text>
<rect fill="none" height="24" stroke="#405C86" stroke-dasharray="3 1" stroke-dashoffset="1.5" stroke-width="1" width="12" x="504" y="66" />
<text class="label unused" x="510" y="79"></text>
<rect fill="none" height="24" stroke="#405C86" stroke-width="2" width="12" x="444" y="66" />
<text class="label" x="450" y="79">0</text>
<rect fill="none" height="24" stroke="#405C86" stroke-dasharray="3 1" stroke-dashoffset="1.5" stroke-width="1" width="12" x="432" y="66" />
<text class="label unused" x="438" y="79"></text>
<rect fill="none" height="24" stroke="#405C86" stroke-dasharray="3 1" stroke-dashoffset="1.5" stroke-width="1" width="12" x="420" y="66" />
<text class="label unused" x="426" y="79"></text>
<rect fill="none" height="24" stroke="#405C86" stroke-dasharray="3 1" stroke-dashoffset="1.5" stroke-width="1" width="12" x="408" y="66" />
<text class="label unused" x="414" y="79"></text>
<rect fill="#DEE6F1" height="24" width="12" x="348" y="66" />
<rect fill="none" height="24" stroke="#405C86" stroke-width="2" width="12" x="348" y="66" />
<text class="label" x="354" y="79">1</text>
<rect fill="none" height="24" stroke="#405C86" stroke-dasharray="3 1" stroke-dashoffset="1.5" stroke-width="1" width="12" x="336" y="66" />
<text class="label unused" x="342" y="79"></text>
<rect fill="none" height="24" stroke="#405C86" stroke-dasharray="3 1" stroke-dashoffset="1.5" stroke-width="1" width="12" x="324" y="66" />
<text class="label unused" x="330" y="79"></text>
<rect fill="none" height="24" stroke="#405C86" stroke-dasharray="3 1" stroke-dashoffset="1.5" stroke-width="1" width="12" x="312" y="66" />
<text class="label unused" x="318" y="79"></text>
<rect fill="none" height="24" stroke="#405C86" stroke-width="2" width="12" x="252" y="66" />
<text class="label" x="258" y="79">0</text>
<rect fill="none" height="24" stroke="#405C86" stroke-dasharray="3 1" stroke-dashoffset="1.5" stroke-width="1" width="12" x="240" y="66" />
<text class="label unused" x="246" y="79"></text>
<rect fill="none" height="24" stroke="#405C86" stroke-dasharray="3 1" stroke-dashoffset="1.5" stroke-width="1" width="12" x="228" y="66" />
<text class="label unused" x="234" y="79"></text>
<rect fill="none" height="24" stroke="#405C86" stroke-dasharray="3 1" stroke-dashoffset="1.5" stroke-width="1" width="12" x="216" y="66" />
<text class="label unused" x="222" y="79"></text>
<rect fill="#DEE6F1" height="24" width="12" x="156" y="66" />
<rect fill="none" height="24" stroke="#405C86" stroke-width="2" width="12" x="156" y="66" />
<text class="label" x="162" y="79">1</text>
<rect fill="none" height="24" stroke="#405C86" stroke-dasharray="3 1" stroke-dashoffset="1.5" stroke-width="1" width="12" x="144" y="66" />
<text class="label unused" x="150" y="79"></text>
<rect fill="none" height="24" stroke="#405C86" stroke-dasharray="3 1" stroke-dashoffset="1.5" stroke-width="1" width="12" x="132" y="66" />
<text class="label unused" x="138" y="79"></text>
<rect fill="none" height="24" stroke="#405C86" stroke-dasharray="3 1" stroke-dashoffset="1.5" stroke-width="1" width="12" x="120" y="66" />
<text class="label unused" x="126" y="79"></text>
<text class="register-name" x="80" y="78">Pg</text>
<text class="intrinsic-name" x="80" y="90">pg</text>
<text class="register-number" x="10" y="78">(2)</text>
<rect fill="none" height="24" stroke="#405C86" stroke-dasharray="3 1" stroke-dashoffset="1.5" stroke-width="1" width="48" x="2346" y="138" />
<text class="smaller-label intrinsic-color" x="2370" y="151">base[0]</text>
<rect fill="#DEE6F1" height="24" width="48" x="2298" y="138" />
<rect fill="none" height="24" stroke="#405C86" stroke-width="2" width="48" x="2298" y="138" />
<text class="smaller-label intrinsic-color" x="2322" y="151">base[1]</text>
<rect fill="#DEE6F1" height="24" width="48" x="2250" y="138" />
<rect fill="none" height="24" stroke="#405C86" stroke-width="2" width="48" x="2250" y="138" />
<text class="smaller-label intrinsic-color" x="2274" y="151">base[2]</text>
<rect fill="none" height="24" stroke="#405C86" stroke-dasharray="3 1" stroke-dashoffset="1.5" stroke-width="1" width="48" x="2202" y="138" />
<text class="smaller-label intrinsic-color" x="2226" y="151">base[3]</text>
<rect fill="#DEE6F1" height="24" width="48" x="2154" y="138" />
<rect fill="none" height="24" stroke="#405C86" stroke-width="2" width="48" x="2154" y="138" />
<text class="smaller-label intrinsic-color" x="2178" y="151">base[4]</text>
<rect fill="#DEE6F1" height="24" width="48" x="2106" y="138" />
<rect fill="none" height="24" stroke="#405C86" stroke-width="2" width="48" x="2106" y="138" />
<text class="smaller-label intrinsic-color" x="2130" y="151">base[5]</text>
<rect fill="none" height="24" stroke="#405C86" stroke-dasharray="3 1" stroke-dashoffset="1.5" stroke-width="1" width="48" x="2058" y="138" />
<text class="smaller-label intrinsic-color" x="2082" y="151">base[6]</text>
<rect fill="#DEE6F1" height="24" width="48" x="2010" y="138" />
<rect fill="none" height="24" stroke="#405C86" stroke-width="2" width="48" x="2010" y="138" />
<text class="smaller-label intrinsic-color" x="2034" y="151">base[7]</text>
<rect fill="#DEE6F1" height="24" width="48" x="1962" y="138" />
<rect fill="none" height="24" stroke="#405C86" stroke-width="2" width="48" x="1962" y="138" />
<text class="smaller-label intrinsic-color" x="1986" y="151">base[8]</text>
<rect fill="#DEE6F1" height="24" width="48" x="1914" y="138" />
<rect fill="none" height="24" stroke="#405C86" stroke-width="2" width="48" x="1914" y="138" />
<text class="smaller-label intrinsic-color" x="1938" y="151">base[9]</text>
<rect fill="#DEE6F1" height="24" width="48" x="1866" y="138" />
<rect fill="none" height="24" stroke="#405C86" stroke-width="2" width="48" x="1866" y="138" />
<text class="smaller-label intrinsic-color" x="1890" y="151">base[10]</text>
<rect fill="#DEE6F1" height="24" width="48" x="1818" y="138" />
<rect fill="none" height="24" stroke="#405C86" stroke-width="2" width="48" x="1818" y="138" />
<text class="smaller-label intrinsic-color" x="1842" y="151">base[11]</text>
<rect fill="#DEE6F1" height="24" width="48" x="1770" y="138" />
<rect fill="none" height="24" stroke="#405C86" stroke-width="2" width="48" x="1770" y="138" />
<text class="smaller-label intrinsic-color" x="1794" y="151">base[12]</text>
<rect fill="#DEE6F1" height="24" width="48" x="1722" y="138" />
<rect fill="none" height="24" stroke="#405C86" stroke-width="2" width="48" x="1722" y="138" />
<text class="smaller-label intrinsic-color" x="1746" y="151">base[13]</text>
<rect fill="none" height="24" stroke="#405C86" stroke-dasharray="3 1" stroke-dashoffset="1.5" stroke-width="1" width="48" x="1674" y="138" />
<text class="smaller-label intrinsic-color" x="1698" y="151">base[14]</text>
<rect fill="#DEE6F1" height="24" width="48" x="1626" y="138" />
<rect fill="none" height="24" stroke="#405C86" stroke-width="2" width="48" x="1626" y="138" />
<text class="smaller-label intrinsic-color" x="1650" y="151">base[15]</text>
<rect fill="#DEE6F1" height="24" width="48" x="1578" y="138" />
<rect fill="none" height="24" stroke="#405C86" stroke-width="2" width="48" x="1578" y="138" />
<text class="smaller-label intrinsic-color" x="1602" y="151">base[16]</text>
<rect fill="none" height="24" stroke="#405C86" stroke-dasharray="3 1" stroke-dashoffset="1.5" stroke-width="1" width="48" x="1530" y="138" />
<text class="smaller-label intrinsic-color" x="1554" y="151">base[17]</text>
<rect fill="#DEE6F1" height="24" width="48" x="1482" y="138" />
<rect fill="none" height="24" stroke="#405C86" stroke-width="2" width="48" x="1482" y="138" />
<text class="smaller-label intrinsic-color" x="1506" y="151">base[18]</text>
<rect fill="#DEE6F1" height="24" width="48" x="1434" y="138" />
<rect fill="none" height="24" stroke="#405C86" stroke-width="2" width="48" x="1434" y="138" />
<text class="smaller-label intrinsic-color" x="1458" y="151">base[19]</text>
<rect fill="#DEE6F1" height="24" width="48" x="1386" y="138" />
<rect fill="none" height="24" stroke="#405C86" stroke-width="2" width="48" x="1386" y="138" />
<text class="smaller-label intrinsic-color" x="1410" y="151">base[20]</text>
<rect fill="#DEE6F1" height="24" width="48" x="1338" y="138" />
<rect fill="none" height="24" stroke="#405C86" stroke-width="2" width="48" x="1338" y="138" />
<text class="smaller-label intrinsic-color" x="1362" y="151">base[21]</text>
<rect fill="#DEE6F1" height="24" width="48" x="1290" y="138" />
<rect fill="none" height="24" stroke="#405C86" stroke-width="2" width="48" x="1290" y="138" />
<text class="smaller-label intrinsic-color" x="1314" y="151">base[22]</text>
<rect fill="#DEE6F1" height="24" width="48" x="1242" y="138" />
<rect fill="none" height="24" stroke="#405C86" stroke-width="2" width="48" x="1242" y="138" />
<text class="smaller-label intrinsic-color" x="1266" y="151">base[23]</text>
<rect fill="#DEE6F1" height="24" width="48" x="1194" y="138" />
<rect fill="none" height="24" stroke="#405C86" stroke-width="2" width="48" x="1194" y="138" />
<text class="smaller-label intrinsic-color" x="1218" y="151">base[24]</text>
<rect fill="#DEE6F1" height="24" width="48" x="1146" y="138" />
<rect fill="none" height="24" stroke="#405C86" stroke-width="2" width="48" x="1146" y="138" />
<text class="smaller-label intrinsic-color" x="1170" y="151">base[25]</text>
<rect fill="#DEE6F1" height="24" width="48" x="1098" y="138" />
<rect fill="none" height="24" stroke="#405C86" stroke-width="2" width="48" x="1098" y="138" />
<text class="smaller-label intrinsic-color" x="1122" y="151">base[26]</text>
<rect fill="#DEE6F1" height="24" width="48" x="1050" y="138" />
<rect fill="none" height="24" stroke="#405C86" stroke-width="2" width="48" x="1050" y="138" />
<text class="smaller-label intrinsic-color" x="1074" y="151">base[27]</text>
<rect fill="none" height="24" stroke="#405C86" stroke-dasharray="3 1" stroke-dashoffset="1.5" stroke-width="1" width="48" x="1002" y="138" />
<text class="smaller-label intrinsic-color" x="1026" y="151">base[28]</text>
<rect fill="#DEE6F1" height="24" width="48" x="954" y="138" />
<rect fill="none" height="24" stroke="#405C86" stroke-width="2" width="48" x="954" y="138" />
<text class="smaller-label intrinsic-color" x="978" y="151">base[29]</text>
<rect fill="none" height="24" stroke="#405C86" stroke-dasharray="3 1" stroke-dashoffset="1.5" stroke-width="1" width="48" x="906" y="138" />
<text class="smaller-label intrinsic-color" x="930" y="151">base[30]</text>
<rect fill="#DEE6F1" height="24" width="48" x="858" y="138" />
<rect fill="none" height="24" stroke="#405C86" stroke-width="2" width="48" x="858" y="138" />
<text class="smaller-label intrinsic-color" x="882" y="151">base[31]</text>
<text class="register-name" x="80" y="150">Zt</text>
<text class="intrinsic-name" x="80" y="162">value</text>
<text class="register-number" x="10" y="150">(3)</text>
<line marker-end="url(#arrowhead)" stroke="none" x1="3042" x2="2322" y1="90.5" y2="137" />
<line marker-end="url(#arrowhead)" stroke="none" x1="2946" x2="2274" y1="90.5" y2="137" />
<line marker-end="url(#arrowhead)" stroke="none" x1="2754" x2="2178" y1="90.5" y2="137" />
<line marker-end="url(#arrowhead)" stroke="none" x1="2658" x2="2130" y1="90.5" y2="137" />
<line marker-end="url(#arrowhead)" stroke="none" x1="2466" x2="2034" y1="90.5" y2="137" />
<line marker-end="url(#arrowhead)" stroke="none" x1="2370" x2="1986" y1="90.5" y2="137" />
<line marker-end="url(#arrowhead)" stroke="none" x1="2274" x2="1938" y1="90.5" y2="137" />
<line marker-end="url(#arrowhead)" stroke="none" x1="2178" x2="1890" y1="90.5" y2="137" />
<line marker-end="url(#arrowhead)" stroke="none" x1="2082" x2="1842" y1="90.5" y2="137" />
<line marker-end="url(#arrowhead)" stroke="none" x1="1986" x2="1794" y1="90.5" y2="137" />
<line marker-end="url(#arrowhead)" stroke="none" x1="1890" x2="1746" y1="90.5" y2="137" />
<line marker-end="url(#arrowhead)" stroke="none" x1="1698" x2="1650" y1="90.5" y2="137" />
<line marker-end="url(#arrowhead)" stroke="none" x1="1602" x2="1602" y1="90.5" y2="137" />
<line marker-end="url(#arrowhead)" stroke="none" x1="1410" x2="1506" y1="90.5" y2="137" />
<line marker-end="url(#arrowhead)" stroke="none" x1="1314" x2="1458" y1="90.5" y2="137" />
<line marker-end="url(#arrowhead)" stroke="none" x1="1218" x2="1410" y1="90.5" y2="137" />
<line marker-end="url(#arrowhead)" stroke="none" x1="1122" x2="1362" y1="90.5" y2="137" />
<line marker-end="url(#arrowhead)" stroke="none" x1="1026" x2="1314" y1="90.5" y2="137" />
<line marker-end="url(#arrowhead)" stroke="none" x1="930" x2="1266" y1="90.5" y2="137" />
<line marker-end="url(#arrowhead)" stroke="none" x1="834" x2="1218" y1="90.5" y2="137" />
<line marker-end="url(#arrowhead)" stroke="none" x1="738" x2="1170" y1="90.5" y2="137" />
<line marker-end="url(#arrowhead)" stroke="none" x1="642" x2="1122" y1="90.5" y2="137" />
<line marker-end="url(#arrowhead)" stroke="none" x1="546" x2="1074" y1="90.5" y2="137" />
<line marker-end="url(#arrowhead)" stroke="none" x1="354" x2="978" y1="90.5" y2="137" />
<line marker-end="url(#arrowhead)" stroke="none" x1="162" x2="882" y1="90.5" y2="137" />
</svg>