<svg xmlns="http://www.w3.org/2000/svg" viewBox="0 0 870 171">
<style>
.label { font: 14px Helvetica; dominant-baseline: middle; text-anchor: middle; }
.title-left { font: 12px Helvetica; dominant-baseline: middle; }
.title-right { font: 12px Helvetica; dominant-baseline: middle; text-anchor: end; }
.title-intrinsic { font: 12px Helvetica; dominant-baseline: middle; text-anchor: middle; fill: #6778ED; }
.title { font: 12px Helvetica; dominant-baseline: middle; text-anchor: middle; }
.title-unused { font: 12px Helvetica; dominant-baseline: middle; text-anchor: middle; fill: #AAA; }
.register-name { font: 14px Helvetica; dominant-baseline: middle; text-anchor: end; font-style: italic; }
.memory-name { font: 14px Helvetica; dominant-baseline: middle; text-anchor: end; }
.register-number { font: 14px Helvetica; dominant-baseline: middle; text-anchor: start; }
.intrinsic-name { font: 14px Helvetica; dominant-baseline: middle; text-anchor: end; fill: #6778ED; }
.intrinsic-color { fill: #6778ED; }
.small-label { font: 12px Helvetica; dominant-baseline: middle; text-anchor: middle; }
.label-10px { font: 10px Helvetica; dominant-baseline: middle; text-anchor: middle; }
.smaller-label { font: 9px Helvetica; dominant-baseline: middle; text-anchor: middle; }
.label-6px { font: 6px Helvetica; dominant-baseline: middle; text-anchor: middle; }
.label-7px { font: 7px Helvetica; dominant-baseline: middle; text-anchor: middle; }
.unused { fill: #AAA; }
.dim { fill: #888; }
</style>
<defs>
<marker id="arrowhead" markerWidth="10.75" markerHeight="24.5" refX="9.0" refY="6.125" orient="auto">
<polyline points="0.5 0.5, 8.75 6.125, 0.5 11.75" stroke="#567DB6" stroke-width="1" fill="none"/>
</marker>
</defs>
<line stroke="#567DB6" stroke-width="1" x1="834" x2="834" y1="42.5" y2="65.5" />
<line stroke="#567DB6" stroke-width="1" x1="738" x2="738" y1="42.5" y2="65.5" />
<line stroke="#567DB6" stroke-width="1" x1="738" x2="594" y1="90.5" y2="137" />
<line stroke="#567DB6" stroke-width="1" x1="642" x2="642" y1="42.5" y2="65.5" />
<line stroke="#567DB6" stroke-width="1" x1="642" x2="546" y1="90.5" y2="137" />
<line stroke="#567DB6" stroke-width="1" x1="546" x2="546" y1="42.5" y2="65.5" />
<line stroke="#567DB6" stroke-width="1" x1="450" x2="450" y1="42.5" y2="65.5" />
<line stroke="#567DB6" stroke-width="1" x1="450" x2="450" y1="90.5" y2="137" />
<line stroke="#567DB6" stroke-width="1" x1="354" x2="354" y1="42.5" y2="65.5" />
<line stroke="#567DB6" stroke-width="1" x1="354" x2="402" y1="90.5" y2="137" />
<line stroke="#567DB6" stroke-width="1" x1="258" x2="258" y1="42.5" y2="65.5" />
<line stroke="#567DB6" stroke-width="1" x1="162" x2="162" y1="42.5" y2="65.5" />
<line stroke="#567DB6" stroke-width="1" x1="162" x2="306" y1="90.5" y2="137" />
<text class="title-left" x="90" y="9">upper</text>
<text class="title-right" x="858" y="9">lower</text>
<rect fill="#DEE6F1" height="24" width="48" x="810" y="18" />
<rect fill="none" height="24" stroke="#405C86" stroke-width="2" width="96" x="762" y="18" />
<rect fill="#DEE6F1" height="24" width="48" x="714" y="18" />
<rect fill="none" height="24" stroke="#405C86" stroke-width="2" width="96" x="666" y="18" />
<rect fill="#DEE6F1" height="24" width="48" x="618" y="18" />
<rect fill="none" height="24" stroke="#405C86" stroke-width="2" width="96" x="570" y="18" />
<rect fill="#DEE6F1" height="24" width="48" x="522" y="18" />
<rect fill="none" height="24" stroke="#405C86" stroke-width="2" width="96" x="474" y="18" />
<rect fill="#DEE6F1" height="24" width="48" x="426" y="18" />
<rect fill="none" height="24" stroke="#405C86" stroke-width="2" width="96" x="378" y="18" />
<rect fill="#DEE6F1" height="24" width="48" x="330" y="18" />
<rect fill="none" height="24" stroke="#405C86" stroke-width="2" width="96" x="282" y="18" />
<rect fill="#DEE6F1" height="24" width="48" x="234" y="18" />
<rect fill="none" height="24" stroke="#405C86" stroke-width="2" width="96" x="186" y="18" />
<rect fill="#DEE6F1" height="24" width="48" x="138" y="18" />
<rect fill="none" height="24" stroke="#405C86" stroke-width="2" width="96" x="90" y="18" />
<text class="register-name" x="80" y="30">Zt</text>
<text class="intrinsic-name" x="80" y="42">value</text>
<text class="register-number" x="10" y="30">(1)</text>
<rect fill="none" height="24" stroke="#405C86" stroke-width="2" width="12" x="828" y="66" />
<text class="label" x="834" y="79">0</text>
<rect fill="none" height="24" stroke="#405C86" stroke-dasharray="3 1" stroke-dashoffset="1.5" stroke-width="1" width="12" x="816" y="66" />
<text class="label unused" x="822" y="79"></text>
<rect fill="none" height="24" stroke="#405C86" stroke-dasharray="3 1" stroke-dashoffset="1.5" stroke-width="1" width="12" x="804" y="66" />
<text class="label unused" x="810" y="79"></text>
<rect fill="none" height="24" stroke="#405C86" stroke-dasharray="3 1" stroke-dashoffset="1.5" stroke-width="1" width="12" x="792" y="66" />
<text class="label unused" x="798" y="79"></text>
<rect fill="#DEE6F1" height="24" width="12" x="732" y="66" />
<rect fill="none" height="24" stroke="#405C86" stroke-width="2" width="12" x="732" y="66" />
<text class="label" x="738" y="79">1</text>
<rect fill="none" height="24" stroke="#405C86" stroke-dasharray="3 1" stroke-dashoffset="1.5" stroke-width="1" width="12" x="720" y="66" />
<text class="label unused" x="726" y="79"></text>
<rect fill="none" height="24" stroke="#405C86" stroke-dasharray="3 1" stroke-dashoffset="1.5" stroke-width="1" width="12" x="708" y="66" />
<text class="label unused" x="714" y="79"></text>
<rect fill="none" height="24" stroke="#405C86" stroke-dasharray="3 1" stroke-dashoffset="1.5" stroke-width="1" width="12" x="696" y="66" />
<text class="label unused" x="702" y="79"></text>
<rect fill="#DEE6F1" height="24" width="12" x="636" y="66" />
<rect fill="none" height="24" stroke="#405C86" stroke-width="2" width="12" x="636" y="66" />
<text class="label" x="642" y="79">1</text>
<rect fill="none" height="24" stroke="#405C86" stroke-dasharray="3 1" stroke-dashoffset="1.5" stroke-width="1" width="12" x="624" y="66" />
<text class="label unused" x="630" y="79"></text>
<rect fill="none" height="24" stroke="#405C86" stroke-dasharray="3 1" stroke-dashoffset="1.5" stroke-width="1" width="12" x="612" y="66" />
<text class="label unused" x="618" y="79"></text>
<rect fill="none" height="24" stroke="#405C86" stroke-dasharray="3 1" stroke-dashoffset="1.5" stroke-width="1" width="12" x="600" y="66" />
<text class="label unused" x="606" y="79"></text>
<rect fill="none" height="24" stroke="#405C86" stroke-width="2" width="12" x="540" y="66" />
<text class="label" x="546" y="79">0</text>
<rect fill="none" height="24" stroke="#405C86" stroke-dasharray="3 1" stroke-dashoffset="1.5" stroke-width="1" width="12" x="528" y="66" />
<text class="label unused" x="534" y="79"></text>
<rect fill="none" height="24" stroke="#405C86" stroke-dasharray="3 1" stroke-dashoffset="1.5" stroke-width="1" width="12" x="516" y="66" />
<text class="label unused" x="522" y="79"></text>
<rect fill="none" height="24" stroke="#405C86" stroke-dasharray="3 1" stroke-dashoffset="1.5" stroke-width="1" width="12" x="504" y="66" />
<text class="label unused" x="510" y="79"></text>
<rect fill="#DEE6F1" height="24" width="12" x="444" y="66" />
<rect fill="none" height="24" stroke="#405C86" stroke-width="2" width="12" x="444" y="66" />
<text class="label" x="450" y="79">1</text>
<rect fill="none" height="24" stroke="#405C86" stroke-dasharray="3 1" stroke-dashoffset="1.5" stroke-width="1" width="12" x="432" y="66" />
<text class="label unused" x="438" y="79"></text>
<rect fill="none" height="24" stroke="#405C86" stroke-dasharray="3 1" stroke-dashoffset="1.5" stroke-width="1" width="12" x="420" y="66" />
<text class="label unused" x="426" y="79"></text>
<rect fill="none" height="24" stroke="#405C86" stroke-dasharray="3 1" stroke-dashoffset="1.5" stroke-width="1" width="12" x="408" y="66" />
<text class="label unused" x="414" y="79"></text>
<rect fill="#DEE6F1" height="24" width="12" x="348" y="66" />
<rect fill="none" height="24" stroke="#405C86" stroke-width="2" width="12" x="348" y="66" />
<text class="label" x="354" y="79">1</text>
<rect fill="none" height="24" stroke="#405C86" stroke-dasharray="3 1" stroke-dashoffset="1.5" stroke-width="1" width="12" x="336" y="66" />
<text class="label unused" x="342" y="79"></text>
<rect fill="none" height="24" stroke="#405C86" stroke-dasharray="3 1" stroke-dashoffset="1.5" stroke-width="1" width="12" x="324" y="66" />
<text class="label unused" x="330" y="79"></text>
<rect fill="none" height="24" stroke="#405C86" stroke-dasharray="3 1" stroke-dashoffset="1.5" stroke-width="1" width="12" x="312" y="66" />
<text class="label unused" x="318" y="79"></text>
<rect fill="none" height="24" stroke="#405C86" stroke-width="2" width="12" x="252" y="66" />
<text class="label" x="258" y="79">0</text>
<rect fill="none" height="24" stroke="#405C86" stroke-dasharray="3 1" stroke-dashoffset="1.5" stroke-width="1" width="12" x="240" y="66" />
<text class="label unused" x="246" y="79"></text>
<rect fill="none" height="24" stroke="#405C86" stroke-dasharray="3 1" stroke-dashoffset="1.5" stroke-width="1" width="12" x="228" y="66" />
<text class="label unused" x="234" y="79"></text>
<rect fill="none" height="24" stroke="#405C86" stroke-dasharray="3 1" stroke-dashoffset="1.5" stroke-width="1" width="12" x="216" y="66" />
<text class="label unused" x="222" y="79"></text>
<rect fill="#DEE6F1" height="24" width="12" x="156" y="66" />
<rect fill="none" height="24" stroke="#405C86" stroke-width="2" width="12" x="156" y="66" />
<text class="label" x="162" y="79">1</text>
<rect fill="none" height="24" stroke="#405C86" stroke-dasharray="3 1" stroke-dashoffset="1.5" stroke-width="1" width="12" x="144" y="66" />
<text class="label unused" x="150" y="79"></text>
<rect fill="none" height="24" stroke="#405C86" stroke-dasharray="3 1" stroke-dashoffset="1.5" stroke-width="1" width="12" x="132" y="66" />
<text class="label unused" x="138" y="79"></text>
<rect fill="none" height="24" stroke="#405C86" stroke-dasharray="3 1" stroke-dashoffset="1.5" stroke-width="1" width="12" x="120" y="66" />
<text class="label unused" x="126" y="79"></text>
<text class="register-name" x="80" y="78">Pg</text>
<text class="intrinsic-name" x="80" y="90">pg</text>
<text class="register-number" x="10" y="78">(2)</text>
<rect fill="none" height="24" stroke="#405C86" stroke-dasharray="3 1" stroke-dashoffset="1.5" stroke-width="1" width="48" x="618" y="138" />
<text class="smaller-label intrinsic-color" x="642" y="151">base[0]</text>
<rect fill="#DEE6F1" height="24" width="48" x="570" y="138" />
<rect fill="none" height="24" stroke="#405C86" stroke-width="2" width="48" x="570" y="138" />
<text class="smaller-label intrinsic-color" x="594" y="151">base[1]</text>
<rect fill="#DEE6F1" height="24" width="48" x="522" y="138" />
<rect fill="none" height="24" stroke="#405C86" stroke-width="2" width="48" x="522" y="138" />
<text class="smaller-label intrinsic-color" x="546" y="151">base[2]</text>
<rect fill="none" height="24" stroke="#405C86" stroke-dasharray="3 1" stroke-dashoffset="1.5" stroke-width="1" width="48" x="474" y="138" />
<text class="smaller-label intrinsic-color" x="498" y="151">base[3]</text>
<rect fill="#DEE6F1" height="24" width="48" x="426" y="138" />
<rect fill="none" height="24" stroke="#405C86" stroke-width="2" width="48" x="426" y="138" />
<text class="smaller-label intrinsic-color" x="450" y="151">base[4]</text>
<rect fill="#DEE6F1" height="24" width="48" x="378" y="138" />
<rect fill="none" height="24" stroke="#405C86" stroke-width="2" width="48" x="378" y="138" />
<text class="smaller-label intrinsic-color" x="402" y="151">base[5]</text>
<rect fill="none" height="24" stroke="#405C86" stroke-dasharray="3 1" stroke-dashoffset="1.5" stroke-width="1" width="48" x="330" y="138" />
<text class="smaller-label intrinsic-color" x="354" y="151">base[6]</text>
<rect fill="#DEE6F1" height="24" width="48" x="282" y="138" />
<rect fill="none" height="24" stroke="#405C86" stroke-width="2" width="48" x="282" y="138" />
<text class="smaller-label intrinsic-color" x="306" y="151">base[7]</text>
<text class="register-name" x="80" y="150">Zt</text>
<text class="intrinsic-name" x="80" y="162">value</text>
<text class="register-number" x="10" y="150">(3)</text>
<line marker-end="url(#arrowhead)" stroke="none" x1="738" x2="594" y1="90.5" y2="137" />
<line marker-end="url(#arrowhead)" stroke="none" x1="642" x2="546" y1="90.5" y2="137" />
<line marker-end="url(#arrowhead)" stroke="none" x1="450" x2="450" y1="90.5" y2="137" />
<line marker-end="url(#arrowhead)" stroke="none" x1="354" x2="402" y1="90.5" y2="137" />
<line marker-end="url(#arrowhead)" stroke="none" x1="162" x2="306" y1="90.5" y2="137" />
</svg>