<svg xmlns="http://www.w3.org/2000/svg" viewBox="0 0 3174 171">
<style>
.label { font: 14px Helvetica; dominant-baseline: middle; text-anchor: middle; }
.title-left { font: 12px Helvetica; dominant-baseline: middle; }
.title-right { font: 12px Helvetica; dominant-baseline: middle; text-anchor: end; }
.title-intrinsic { font: 12px Helvetica; dominant-baseline: middle; text-anchor: middle; fill: #6778ED; }
.title { font: 12px Helvetica; dominant-baseline: middle; text-anchor: middle; }
.title-unused { font: 12px Helvetica; dominant-baseline: middle; text-anchor: middle; fill: #AAA; }
.register-name { font: 14px Helvetica; dominant-baseline: middle; text-anchor: end; font-style: italic; }
.memory-name { font: 14px Helvetica; dominant-baseline: middle; text-anchor: end; }
.register-number { font: 14px Helvetica; dominant-baseline: middle; text-anchor: start; }
.intrinsic-name { font: 14px Helvetica; dominant-baseline: middle; text-anchor: end; fill: #6778ED; }
.intrinsic-color { fill: #6778ED; }
.small-label { font: 12px Helvetica; dominant-baseline: middle; text-anchor: middle; }
.label-10px { font: 10px Helvetica; dominant-baseline: middle; text-anchor: middle; }
.smaller-label { font: 9px Helvetica; dominant-baseline: middle; text-anchor: middle; }
.label-6px { font: 6px Helvetica; dominant-baseline: middle; text-anchor: middle; }
.label-7px { font: 7px Helvetica; dominant-baseline: middle; text-anchor: middle; }
.unused { fill: #AAA; }
.dim { fill: #888; }
</style>
<defs>
<marker id="arrowhead" markerWidth="10.75" markerHeight="24.5" refX="9.0" refY="6.125" orient="auto">
<polyline points="0.5 0.5, 8.75 6.125, 0.5 11.75" stroke="#567DB6" stroke-width="1" fill="none"/>
</marker>
</defs>
<line stroke="#567DB6" stroke-width="1" x1="3114" x2="3114" y1="42.5" y2="65.5" />
<line stroke="#567DB6" stroke-width="1" x1="2922" x2="2922" y1="42.5" y2="65.5" />
<line stroke="#567DB6" stroke-width="1" x1="2922" x2="2250" y1="90.5" y2="137" />
<line stroke="#567DB6" stroke-width="1" x1="2730" x2="2730" y1="42.5" y2="65.5" />
<line stroke="#567DB6" stroke-width="1" x1="2730" x2="2154" y1="90.5" y2="137" />
<line stroke="#567DB6" stroke-width="1" x1="2538" x2="2538" y1="42.5" y2="65.5" />
<line stroke="#567DB6" stroke-width="1" x1="2346" x2="2346" y1="42.5" y2="65.5" />
<line stroke="#567DB6" stroke-width="1" x1="2346" x2="1962" y1="90.5" y2="137" />
<line stroke="#567DB6" stroke-width="1" x1="2154" x2="2154" y1="42.5" y2="65.5" />
<line stroke="#567DB6" stroke-width="1" x1="2154" x2="1866" y1="90.5" y2="137" />
<line stroke="#567DB6" stroke-width="1" x1="1962" x2="1962" y1="42.5" y2="65.5" />
<line stroke="#567DB6" stroke-width="1" x1="1770" x2="1770" y1="42.5" y2="65.5" />
<line stroke="#567DB6" stroke-width="1" x1="1770" x2="1674" y1="90.5" y2="137" />
<line stroke="#567DB6" stroke-width="1" x1="1578" x2="1578" y1="42.5" y2="65.5" />
<line stroke="#567DB6" stroke-width="1" x1="1578" x2="1578" y1="90.5" y2="137" />
<line stroke="#567DB6" stroke-width="1" x1="1386" x2="1386" y1="42.5" y2="65.5" />
<line stroke="#567DB6" stroke-width="1" x1="1386" x2="1482" y1="90.5" y2="137" />
<line stroke="#567DB6" stroke-width="1" x1="1194" x2="1194" y1="42.5" y2="65.5" />
<line stroke="#567DB6" stroke-width="1" x1="1194" x2="1386" y1="90.5" y2="137" />
<line stroke="#567DB6" stroke-width="1" x1="1002" x2="1002" y1="42.5" y2="65.5" />
<line stroke="#567DB6" stroke-width="1" x1="1002" x2="1290" y1="90.5" y2="137" />
<line stroke="#567DB6" stroke-width="1" x1="810" x2="810" y1="42.5" y2="65.5" />
<line stroke="#567DB6" stroke-width="1" x1="810" x2="1194" y1="90.5" y2="137" />
<line stroke="#567DB6" stroke-width="1" x1="618" x2="618" y1="42.5" y2="65.5" />
<line stroke="#567DB6" stroke-width="1" x1="618" x2="1098" y1="90.5" y2="137" />
<line stroke="#567DB6" stroke-width="1" x1="426" x2="426" y1="42.5" y2="65.5" />
<line stroke="#567DB6" stroke-width="1" x1="234" x2="234" y1="42.5" y2="65.5" />
<line stroke="#567DB6" stroke-width="1" x1="234" x2="906" y1="90.5" y2="137" />
<text class="title-left" x="90" y="9">upper</text>
<text class="title-right" x="3162" y="9">lower</text>
<rect fill="#DEE6F1" height="24" width="96" x="3066" y="18" />
<rect fill="none" height="24" stroke="#405C86" stroke-width="2" width="192" x="2970" y="18" />
<rect fill="#DEE6F1" height="24" width="96" x="2874" y="18" />
<rect fill="none" height="24" stroke="#405C86" stroke-width="2" width="192" x="2778" y="18" />
<rect fill="#DEE6F1" height="24" width="96" x="2682" y="18" />
<rect fill="none" height="24" stroke="#405C86" stroke-width="2" width="192" x="2586" y="18" />
<rect fill="#DEE6F1" height="24" width="96" x="2490" y="18" />
<rect fill="none" height="24" stroke="#405C86" stroke-width="2" width="192" x="2394" y="18" />
<rect fill="#DEE6F1" height="24" width="96" x="2298" y="18" />
<rect fill="none" height="24" stroke="#405C86" stroke-width="2" width="192" x="2202" y="18" />
<rect fill="#DEE6F1" height="24" width="96" x="2106" y="18" />
<rect fill="none" height="24" stroke="#405C86" stroke-width="2" width="192" x="2010" y="18" />
<rect fill="#DEE6F1" height="24" width="96" x="1914" y="18" />
<rect fill="none" height="24" stroke="#405C86" stroke-width="2" width="192" x="1818" y="18" />
<rect fill="#DEE6F1" height="24" width="96" x="1722" y="18" />
<rect fill="none" height="24" stroke="#405C86" stroke-width="2" width="192" x="1626" y="18" />
<rect fill="#DEE6F1" height="24" width="96" x="1530" y="18" />
<rect fill="none" height="24" stroke="#405C86" stroke-width="2" width="192" x="1434" y="18" />
<rect fill="#DEE6F1" height="24" width="96" x="1338" y="18" />
<rect fill="none" height="24" stroke="#405C86" stroke-width="2" width="192" x="1242" y="18" />
<rect fill="#DEE6F1" height="24" width="96" x="1146" y="18" />
<rect fill="none" height="24" stroke="#405C86" stroke-width="2" width="192" x="1050" y="18" />
<rect fill="#DEE6F1" height="24" width="96" x="954" y="18" />
<rect fill="none" height="24" stroke="#405C86" stroke-width="2" width="192" x="858" y="18" />
<rect fill="#DEE6F1" height="24" width="96" x="762" y="18" />
<rect fill="none" height="24" stroke="#405C86" stroke-width="2" width="192" x="666" y="18" />
<rect fill="#DEE6F1" height="24" width="96" x="570" y="18" />
<rect fill="none" height="24" stroke="#405C86" stroke-width="2" width="192" x="474" y="18" />
<rect fill="#DEE6F1" height="24" width="96" x="378" y="18" />
<rect fill="none" height="24" stroke="#405C86" stroke-width="2" width="192" x="282" y="18" />
<rect fill="#DEE6F1" height="24" width="96" x="186" y="18" />
<rect fill="none" height="24" stroke="#405C86" stroke-width="2" width="192" x="90" y="18" />
<text class="register-name" x="80" y="30">Zt</text>
<text class="intrinsic-name" x="80" y="42">value</text>
<text class="register-number" x="10" y="30">(1)</text>
<rect fill="none" height="24" stroke="#405C86" stroke-width="2" width="12" x="3108" y="66" />
<text class="label" x="3114" y="79">0</text>
<rect fill="none" height="24" stroke="#405C86" stroke-dasharray="3 1" stroke-dashoffset="1.5" stroke-width="1" width="12" x="3096" y="66" />
<text class="label unused" x="3102" y="79"></text>
<rect fill="none" height="24" stroke="#405C86" stroke-dasharray="3 1" stroke-dashoffset="1.5" stroke-width="1" width="12" x="3084" y="66" />
<text class="label unused" x="3090" y="79"></text>
<rect fill="none" height="24" stroke="#405C86" stroke-dasharray="3 1" stroke-dashoffset="1.5" stroke-width="1" width="12" x="3072" y="66" />
<text class="label unused" x="3078" y="79"></text>
<rect fill="none" height="24" stroke="#405C86" stroke-dasharray="3 1" stroke-dashoffset="1.5" stroke-width="1" width="12" x="3060" y="66" />
<text class="label unused" x="3066" y="79"></text>
<rect fill="none" height="24" stroke="#405C86" stroke-dasharray="3 1" stroke-dashoffset="1.5" stroke-width="1" width="12" x="3048" y="66" />
<text class="label unused" x="3054" y="79"></text>
<rect fill="none" height="24" stroke="#405C86" stroke-dasharray="3 1" stroke-dashoffset="1.5" stroke-width="1" width="12" x="3036" y="66" />
<text class="label unused" x="3042" y="79"></text>
<rect fill="none" height="24" stroke="#405C86" stroke-dasharray="3 1" stroke-dashoffset="1.5" stroke-width="1" width="12" x="3024" y="66" />
<text class="label unused" x="3030" y="79"></text>
<rect fill="#DEE6F1" height="24" width="12" x="2916" y="66" />
<rect fill="none" height="24" stroke="#405C86" stroke-width="2" width="12" x="2916" y="66" />
<text class="label" x="2922" y="79">1</text>
<rect fill="none" height="24" stroke="#405C86" stroke-dasharray="3 1" stroke-dashoffset="1.5" stroke-width="1" width="12" x="2904" y="66" />
<text class="label unused" x="2910" y="79"></text>
<rect fill="none" height="24" stroke="#405C86" stroke-dasharray="3 1" stroke-dashoffset="1.5" stroke-width="1" width="12" x="2892" y="66" />
<text class="label unused" x="2898" y="79"></text>
<rect fill="none" height="24" stroke="#405C86" stroke-dasharray="3 1" stroke-dashoffset="1.5" stroke-width="1" width="12" x="2880" y="66" />
<text class="label unused" x="2886" y="79"></text>
<rect fill="none" height="24" stroke="#405C86" stroke-dasharray="3 1" stroke-dashoffset="1.5" stroke-width="1" width="12" x="2868" y="66" />
<text class="label unused" x="2874" y="79"></text>
<rect fill="none" height="24" stroke="#405C86" stroke-dasharray="3 1" stroke-dashoffset="1.5" stroke-width="1" width="12" x="2856" y="66" />
<text class="label unused" x="2862" y="79"></text>
<rect fill="none" height="24" stroke="#405C86" stroke-dasharray="3 1" stroke-dashoffset="1.5" stroke-width="1" width="12" x="2844" y="66" />
<text class="label unused" x="2850" y="79"></text>
<rect fill="none" height="24" stroke="#405C86" stroke-dasharray="3 1" stroke-dashoffset="1.5" stroke-width="1" width="12" x="2832" y="66" />
<text class="label unused" x="2838" y="79"></text>
<rect fill="#DEE6F1" height="24" width="12" x="2724" y="66" />
<rect fill="none" height="24" stroke="#405C86" stroke-width="2" width="12" x="2724" y="66" />
<text class="label" x="2730" y="79">1</text>
<rect fill="none" height="24" stroke="#405C86" stroke-dasharray="3 1" stroke-dashoffset="1.5" stroke-width="1" width="12" x="2712" y="66" />
<text class="label unused" x="2718" y="79"></text>
<rect fill="none" height="24" stroke="#405C86" stroke-dasharray="3 1" stroke-dashoffset="1.5" stroke-width="1" width="12" x="2700" y="66" />
<text class="label unused" x="2706" y="79"></text>
<rect fill="none" height="24" stroke="#405C86" stroke-dasharray="3 1" stroke-dashoffset="1.5" stroke-width="1" width="12" x="2688" y="66" />
<text class="label unused" x="2694" y="79"></text>
<rect fill="none" height="24" stroke="#405C86" stroke-dasharray="3 1" stroke-dashoffset="1.5" stroke-width="1" width="12" x="2676" y="66" />
<text class="label unused" x="2682" y="79"></text>
<rect fill="none" height="24" stroke="#405C86" stroke-dasharray="3 1" stroke-dashoffset="1.5" stroke-width="1" width="12" x="2664" y="66" />
<text class="label unused" x="2670" y="79"></text>
<rect fill="none" height="24" stroke="#405C86" stroke-dasharray="3 1" stroke-dashoffset="1.5" stroke-width="1" width="12" x="2652" y="66" />
<text class="label unused" x="2658" y="79"></text>
<rect fill="none" height="24" stroke="#405C86" stroke-dasharray="3 1" stroke-dashoffset="1.5" stroke-width="1" width="12" x="2640" y="66" />
<text class="label unused" x="2646" y="79"></text>
<rect fill="none" height="24" stroke="#405C86" stroke-width="2" width="12" x="2532" y="66" />
<text class="label" x="2538" y="79">0</text>
<rect fill="none" height="24" stroke="#405C86" stroke-dasharray="3 1" stroke-dashoffset="1.5" stroke-width="1" width="12" x="2520" y="66" />
<text class="label unused" x="2526" y="79"></text>
<rect fill="none" height="24" stroke="#405C86" stroke-dasharray="3 1" stroke-dashoffset="1.5" stroke-width="1" width="12" x="2508" y="66" />
<text class="label unused" x="2514" y="79"></text>
<rect fill="none" height="24" stroke="#405C86" stroke-dasharray="3 1" stroke-dashoffset="1.5" stroke-width="1" width="12" x="2496" y="66" />
<text class="label unused" x="2502" y="79"></text>
<rect fill="none" height="24" stroke="#405C86" stroke-dasharray="3 1" stroke-dashoffset="1.5" stroke-width="1" width="12" x="2484" y="66" />
<text class="label unused" x="2490" y="79"></text>
<rect fill="none" height="24" stroke="#405C86" stroke-dasharray="3 1" stroke-dashoffset="1.5" stroke-width="1" width="12" x="2472" y="66" />
<text class="label unused" x="2478" y="79"></text>
<rect fill="none" height="24" stroke="#405C86" stroke-dasharray="3 1" stroke-dashoffset="1.5" stroke-width="1" width="12" x="2460" y="66" />
<text class="label unused" x="2466" y="79"></text>
<rect fill="none" height="24" stroke="#405C86" stroke-dasharray="3 1" stroke-dashoffset="1.5" stroke-width="1" width="12" x="2448" y="66" />
<text class="label unused" x="2454" y="79"></text>
<rect fill="#DEE6F1" height="24" width="12" x="2340" y="66" />
<rect fill="none" height="24" stroke="#405C86" stroke-width="2" width="12" x="2340" y="66" />
<text class="label" x="2346" y="79">1</text>
<rect fill="none" height="24" stroke="#405C86" stroke-dasharray="3 1" stroke-dashoffset="1.5" stroke-width="1" width="12" x="2328" y="66" />
<text class="label unused" x="2334" y="79"></text>
<rect fill="none" height="24" stroke="#405C86" stroke-dasharray="3 1" stroke-dashoffset="1.5" stroke-width="1" width="12" x="2316" y="66" />
<text class="label unused" x="2322" y="79"></text>
<rect fill="none" height="24" stroke="#405C86" stroke-dasharray="3 1" stroke-dashoffset="1.5" stroke-width="1" width="12" x="2304" y="66" />
<text class="label unused" x="2310" y="79"></text>
<rect fill="none" height="24" stroke="#405C86" stroke-dasharray="3 1" stroke-dashoffset="1.5" stroke-width="1" width="12" x="2292" y="66" />
<text class="label unused" x="2298" y="79"></text>
<rect fill="none" height="24" stroke="#405C86" stroke-dasharray="3 1" stroke-dashoffset="1.5" stroke-width="1" width="12" x="2280" y="66" />
<text class="label unused" x="2286" y="79"></text>
<rect fill="none" height="24" stroke="#405C86" stroke-dasharray="3 1" stroke-dashoffset="1.5" stroke-width="1" width="12" x="2268" y="66" />
<text class="label unused" x="2274" y="79"></text>
<rect fill="none" height="24" stroke="#405C86" stroke-dasharray="3 1" stroke-dashoffset="1.5" stroke-width="1" width="12" x="2256" y="66" />
<text class="label unused" x="2262" y="79"></text>
<rect fill="#DEE6F1" height="24" width="12" x="2148" y="66" />
<rect fill="none" height="24" stroke="#405C86" stroke-width="2" width="12" x="2148" y="66" />
<text class="label" x="2154" y="79">1</text>
<rect fill="none" height="24" stroke="#405C86" stroke-dasharray="3 1" stroke-dashoffset="1.5" stroke-width="1" width="12" x="2136" y="66" />
<text class="label unused" x="2142" y="79"></text>
<rect fill="none" height="24" stroke="#405C86" stroke-dasharray="3 1" stroke-dashoffset="1.5" stroke-width="1" width="12" x="2124" y="66" />
<text class="label unused" x="2130" y="79"></text>
<rect fill="none" height="24" stroke="#405C86" stroke-dasharray="3 1" stroke-dashoffset="1.5" stroke-width="1" width="12" x="2112" y="66" />
<text class="label unused" x="2118" y="79"></text>
<rect fill="none" height="24" stroke="#405C86" stroke-dasharray="3 1" stroke-dashoffset="1.5" stroke-width="1" width="12" x="2100" y="66" />
<text class="label unused" x="2106" y="79"></text>
<rect fill="none" height="24" stroke="#405C86" stroke-dasharray="3 1" stroke-dashoffset="1.5" stroke-width="1" width="12" x="2088" y="66" />
<text class="label unused" x="2094" y="79"></text>
<rect fill="none" height="24" stroke="#405C86" stroke-dasharray="3 1" stroke-dashoffset="1.5" stroke-width="1" width="12" x="2076" y="66" />
<text class="label unused" x="2082" y="79"></text>
<rect fill="none" height="24" stroke="#405C86" stroke-dasharray="3 1" stroke-dashoffset="1.5" stroke-width="1" width="12" x="2064" y="66" />
<text class="label unused" x="2070" y="79"></text>
<rect fill="none" height="24" stroke="#405C86" stroke-width="2" width="12" x="1956" y="66" />
<text class="label" x="1962" y="79">0</text>
<rect fill="none" height="24" stroke="#405C86" stroke-dasharray="3 1" stroke-dashoffset="1.5" stroke-width="1" width="12" x="1944" y="66" />
<text class="label unused" x="1950" y="79"></text>
<rect fill="none" height="24" stroke="#405C86" stroke-dasharray="3 1" stroke-dashoffset="1.5" stroke-width="1" width="12" x="1932" y="66" />
<text class="label unused" x="1938" y="79"></text>
<rect fill="none" height="24" stroke="#405C86" stroke-dasharray="3 1" stroke-dashoffset="1.5" stroke-width="1" width="12" x="1920" y="66" />
<text class="label unused" x="1926" y="79"></text>
<rect fill="none" height="24" stroke="#405C86" stroke-dasharray="3 1" stroke-dashoffset="1.5" stroke-width="1" width="12" x="1908" y="66" />
<text class="label unused" x="1914" y="79"></text>
<rect fill="none" height="24" stroke="#405C86" stroke-dasharray="3 1" stroke-dashoffset="1.5" stroke-width="1" width="12" x="1896" y="66" />
<text class="label unused" x="1902" y="79"></text>
<rect fill="none" height="24" stroke="#405C86" stroke-dasharray="3 1" stroke-dashoffset="1.5" stroke-width="1" width="12" x="1884" y="66" />
<text class="label unused" x="1890" y="79"></text>
<rect fill="none" height="24" stroke="#405C86" stroke-dasharray="3 1" stroke-dashoffset="1.5" stroke-width="1" width="12" x="1872" y="66" />
<text class="label unused" x="1878" y="79"></text>
<rect fill="#DEE6F1" height="24" width="12" x="1764" y="66" />
<rect fill="none" height="24" stroke="#405C86" stroke-width="2" width="12" x="1764" y="66" />
<text class="label" x="1770" y="79">1</text>
<rect fill="none" height="24" stroke="#405C86" stroke-dasharray="3 1" stroke-dashoffset="1.5" stroke-width="1" width="12" x="1752" y="66" />
<text class="label unused" x="1758" y="79"></text>
<rect fill="none" height="24" stroke="#405C86" stroke-dasharray="3 1" stroke-dashoffset="1.5" stroke-width="1" width="12" x="1740" y="66" />
<text class="label unused" x="1746" y="79"></text>
<rect fill="none" height="24" stroke="#405C86" stroke-dasharray="3 1" stroke-dashoffset="1.5" stroke-width="1" width="12" x="1728" y="66" />
<text class="label unused" x="1734" y="79"></text>
<rect fill="none" height="24" stroke="#405C86" stroke-dasharray="3 1" stroke-dashoffset="1.5" stroke-width="1" width="12" x="1716" y="66" />
<text class="label unused" x="1722" y="79"></text>
<rect fill="none" height="24" stroke="#405C86" stroke-dasharray="3 1" stroke-dashoffset="1.5" stroke-width="1" width="12" x="1704" y="66" />
<text class="label unused" x="1710" y="79"></text>
<rect fill="none" height="24" stroke="#405C86" stroke-dasharray="3 1" stroke-dashoffset="1.5" stroke-width="1" width="12" x="1692" y="66" />
<text class="label unused" x="1698" y="79"></text>
<rect fill="none" height="24" stroke="#405C86" stroke-dasharray="3 1" stroke-dashoffset="1.5" stroke-width="1" width="12" x="1680" y="66" />
<text class="label unused" x="1686" y="79"></text>
<rect fill="#DEE6F1" height="24" width="12" x="1572" y="66" />
<rect fill="none" height="24" stroke="#405C86" stroke-width="2" width="12" x="1572" y="66" />
<text class="label" x="1578" y="79">1</text>
<rect fill="none" height="24" stroke="#405C86" stroke-dasharray="3 1" stroke-dashoffset="1.5" stroke-width="1" width="12" x="1560" y="66" />
<text class="label unused" x="1566" y="79"></text>
<rect fill="none" height="24" stroke="#405C86" stroke-dasharray="3 1" stroke-dashoffset="1.5" stroke-width="1" width="12" x="1548" y="66" />
<text class="label unused" x="1554" y="79"></text>
<rect fill="none" height="24" stroke="#405C86" stroke-dasharray="3 1" stroke-dashoffset="1.5" stroke-width="1" width="12" x="1536" y="66" />
<text class="label unused" x="1542" y="79"></text>
<rect fill="none" height="24" stroke="#405C86" stroke-dasharray="3 1" stroke-dashoffset="1.5" stroke-width="1" width="12" x="1524" y="66" />
<text class="label unused" x="1530" y="79"></text>
<rect fill="none" height="24" stroke="#405C86" stroke-dasharray="3 1" stroke-dashoffset="1.5" stroke-width="1" width="12" x="1512" y="66" />
<text class="label unused" x="1518" y="79"></text>
<rect fill="none" height="24" stroke="#405C86" stroke-dasharray="3 1" stroke-dashoffset="1.5" stroke-width="1" width="12" x="1500" y="66" />
<text class="label unused" x="1506" y="79"></text>
<rect fill="none" height="24" stroke="#405C86" stroke-dasharray="3 1" stroke-dashoffset="1.5" stroke-width="1" width="12" x="1488" y="66" />
<text class="label unused" x="1494" y="79"></text>
<rect fill="#DEE6F1" height="24" width="12" x="1380" y="66" />
<rect fill="none" height="24" stroke="#405C86" stroke-width="2" width="12" x="1380" y="66" />
<text class="label" x="1386" y="79">1</text>
<rect fill="none" height="24" stroke="#405C86" stroke-dasharray="3 1" stroke-dashoffset="1.5" stroke-width="1" width="12" x="1368" y="66" />
<text class="label unused" x="1374" y="79"></text>
<rect fill="none" height="24" stroke="#405C86" stroke-dasharray="3 1" stroke-dashoffset="1.5" stroke-width="1" width="12" x="1356" y="66" />
<text class="label unused" x="1362" y="79"></text>
<rect fill="none" height="24" stroke="#405C86" stroke-dasharray="3 1" stroke-dashoffset="1.5" stroke-width="1" width="12" x="1344" y="66" />
<text class="label unused" x="1350" y="79"></text>
<rect fill="none" height="24" stroke="#405C86" stroke-dasharray="3 1" stroke-dashoffset="1.5" stroke-width="1" width="12" x="1332" y="66" />
<text class="label unused" x="1338" y="79"></text>
<rect fill="none" height="24" stroke="#405C86" stroke-dasharray="3 1" stroke-dashoffset="1.5" stroke-width="1" width="12" x="1320" y="66" />
<text class="label unused" x="1326" y="79"></text>
<rect fill="none" height="24" stroke="#405C86" stroke-dasharray="3 1" stroke-dashoffset="1.5" stroke-width="1" width="12" x="1308" y="66" />
<text class="label unused" x="1314" y="79"></text>
<rect fill="none" height="24" stroke="#405C86" stroke-dasharray="3 1" stroke-dashoffset="1.5" stroke-width="1" width="12" x="1296" y="66" />
<text class="label unused" x="1302" y="79"></text>
<rect fill="#DEE6F1" height="24" width="12" x="1188" y="66" />
<rect fill="none" height="24" stroke="#405C86" stroke-width="2" width="12" x="1188" y="66" />
<text class="label" x="1194" y="79">1</text>
<rect fill="none" height="24" stroke="#405C86" stroke-dasharray="3 1" stroke-dashoffset="1.5" stroke-width="1" width="12" x="1176" y="66" />
<text class="label unused" x="1182" y="79"></text>
<rect fill="none" height="24" stroke="#405C86" stroke-dasharray="3 1" stroke-dashoffset="1.5" stroke-width="1" width="12" x="1164" y="66" />
<text class="label unused" x="1170" y="79"></text>
<rect fill="none" height="24" stroke="#405C86" stroke-dasharray="3 1" stroke-dashoffset="1.5" stroke-width="1" width="12" x="1152" y="66" />
<text class="label unused" x="1158" y="79"></text>
<rect fill="none" height="24" stroke="#405C86" stroke-dasharray="3 1" stroke-dashoffset="1.5" stroke-width="1" width="12" x="1140" y="66" />
<text class="label unused" x="1146" y="79"></text>
<rect fill="none" height="24" stroke="#405C86" stroke-dasharray="3 1" stroke-dashoffset="1.5" stroke-width="1" width="12" x="1128" y="66" />
<text class="label unused" x="1134" y="79"></text>
<rect fill="none" height="24" stroke="#405C86" stroke-dasharray="3 1" stroke-dashoffset="1.5" stroke-width="1" width="12" x="1116" y="66" />
<text class="label unused" x="1122" y="79"></text>
<rect fill="none" height="24" stroke="#405C86" stroke-dasharray="3 1" stroke-dashoffset="1.5" stroke-width="1" width="12" x="1104" y="66" />
<text class="label unused" x="1110" y="79"></text>
<rect fill="#DEE6F1" height="24" width="12" x="996" y="66" />
<rect fill="none" height="24" stroke="#405C86" stroke-width="2" width="12" x="996" y="66" />
<text class="label" x="1002" y="79">1</text>
<rect fill="none" height="24" stroke="#405C86" stroke-dasharray="3 1" stroke-dashoffset="1.5" stroke-width="1" width="12" x="984" y="66" />
<text class="label unused" x="990" y="79"></text>
<rect fill="none" height="24" stroke="#405C86" stroke-dasharray="3 1" stroke-dashoffset="1.5" stroke-width="1" width="12" x="972" y="66" />
<text class="label unused" x="978" y="79"></text>
<rect fill="none" height="24" stroke="#405C86" stroke-dasharray="3 1" stroke-dashoffset="1.5" stroke-width="1" width="12" x="960" y="66" />
<text class="label unused" x="966" y="79"></text>
<rect fill="none" height="24" stroke="#405C86" stroke-dasharray="3 1" stroke-dashoffset="1.5" stroke-width="1" width="12" x="948" y="66" />
<text class="label unused" x="954" y="79"></text>
<rect fill="none" height="24" stroke="#405C86" stroke-dasharray="3 1" stroke-dashoffset="1.5" stroke-width="1" width="12" x="936" y="66" />
<text class="label unused" x="942" y="79"></text>
<rect fill="none" height="24" stroke="#405C86" stroke-dasharray="3 1" stroke-dashoffset="1.5" stroke-width="1" width="12" x="924" y="66" />
<text class="label unused" x="930" y="79"></text>
<rect fill="none" height="24" stroke="#405C86" stroke-dasharray="3 1" stroke-dashoffset="1.5" stroke-width="1" width="12" x="912" y="66" />
<text class="label unused" x="918" y="79"></text>
<rect fill="#DEE6F1" height="24" width="12" x="804" y="66" />
<rect fill="none" height="24" stroke="#405C86" stroke-width="2" width="12" x="804" y="66" />
<text class="label" x="810" y="79">1</text>
<rect fill="none" height="24" stroke="#405C86" stroke-dasharray="3 1" stroke-dashoffset="1.5" stroke-width="1" width="12" x="792" y="66" />
<text class="label unused" x="798" y="79"></text>
<rect fill="none" height="24" stroke="#405C86" stroke-dasharray="3 1" stroke-dashoffset="1.5" stroke-width="1" width="12" x="780" y="66" />
<text class="label unused" x="786" y="79"></text>
<rect fill="none" height="24" stroke="#405C86" stroke-dasharray="3 1" stroke-dashoffset="1.5" stroke-width="1" width="12" x="768" y="66" />
<text class="label unused" x="774" y="79"></text>
<rect fill="none" height="24" stroke="#405C86" stroke-dasharray="3 1" stroke-dashoffset="1.5" stroke-width="1" width="12" x="756" y="66" />
<text class="label unused" x="762" y="79"></text>
<rect fill="none" height="24" stroke="#405C86" stroke-dasharray="3 1" stroke-dashoffset="1.5" stroke-width="1" width="12" x="744" y="66" />
<text class="label unused" x="750" y="79"></text>
<rect fill="none" height="24" stroke="#405C86" stroke-dasharray="3 1" stroke-dashoffset="1.5" stroke-width="1" width="12" x="732" y="66" />
<text class="label unused" x="738" y="79"></text>
<rect fill="none" height="24" stroke="#405C86" stroke-dasharray="3 1" stroke-dashoffset="1.5" stroke-width="1" width="12" x="720" y="66" />
<text class="label unused" x="726" y="79"></text>
<rect fill="#DEE6F1" height="24" width="12" x="612" y="66" />
<rect fill="none" height="24" stroke="#405C86" stroke-width="2" width="12" x="612" y="66" />
<text class="label" x="618" y="79">1</text>
<rect fill="none" height="24" stroke="#405C86" stroke-dasharray="3 1" stroke-dashoffset="1.5" stroke-width="1" width="12" x="600" y="66" />
<text class="label unused" x="606" y="79"></text>
<rect fill="none" height="24" stroke="#405C86" stroke-dasharray="3 1" stroke-dashoffset="1.5" stroke-width="1" width="12" x="588" y="66" />
<text class="label unused" x="594" y="79"></text>
<rect fill="none" height="24" stroke="#405C86" stroke-dasharray="3 1" stroke-dashoffset="1.5" stroke-width="1" width="12" x="576" y="66" />
<text class="label unused" x="582" y="79"></text>
<rect fill="none" height="24" stroke="#405C86" stroke-dasharray="3 1" stroke-dashoffset="1.5" stroke-width="1" width="12" x="564" y="66" />
<text class="label unused" x="570" y="79"></text>
<rect fill="none" height="24" stroke="#405C86" stroke-dasharray="3 1" stroke-dashoffset="1.5" stroke-width="1" width="12" x="552" y="66" />
<text class="label unused" x="558" y="79"></text>
<rect fill="none" height="24" stroke="#405C86" stroke-dasharray="3 1" stroke-dashoffset="1.5" stroke-width="1" width="12" x="540" y="66" />
<text class="label unused" x="546" y="79"></text>
<rect fill="none" height="24" stroke="#405C86" stroke-dasharray="3 1" stroke-dashoffset="1.5" stroke-width="1" width="12" x="528" y="66" />
<text class="label unused" x="534" y="79"></text>
<rect fill="none" height="24" stroke="#405C86" stroke-width="2" width="12" x="420" y="66" />
<text class="label" x="426" y="79">0</text>
<rect fill="none" height="24" stroke="#405C86" stroke-dasharray="3 1" stroke-dashoffset="1.5" stroke-width="1" width="12" x="408" y="66" />
<text class="label unused" x="414" y="79"></text>
<rect fill="none" height="24" stroke="#405C86" stroke-dasharray="3 1" stroke-dashoffset="1.5" stroke-width="1" width="12" x="396" y="66" />
<text class="label unused" x="402" y="79"></text>
<rect fill="none" height="24" stroke="#405C86" stroke-dasharray="3 1" stroke-dashoffset="1.5" stroke-width="1" width="12" x="384" y="66" />
<text class="label unused" x="390" y="79"></text>
<rect fill="none" height="24" stroke="#405C86" stroke-dasharray="3 1" stroke-dashoffset="1.5" stroke-width="1" width="12" x="372" y="66" />
<text class="label unused" x="378" y="79"></text>
<rect fill="none" height="24" stroke="#405C86" stroke-dasharray="3 1" stroke-dashoffset="1.5" stroke-width="1" width="12" x="360" y="66" />
<text class="label unused" x="366" y="79"></text>
<rect fill="none" height="24" stroke="#405C86" stroke-dasharray="3 1" stroke-dashoffset="1.5" stroke-width="1" width="12" x="348" y="66" />
<text class="label unused" x="354" y="79"></text>
<rect fill="none" height="24" stroke="#405C86" stroke-dasharray="3 1" stroke-dashoffset="1.5" stroke-width="1" width="12" x="336" y="66" />
<text class="label unused" x="342" y="79"></text>
<rect fill="#DEE6F1" height="24" width="12" x="228" y="66" />
<rect fill="none" height="24" stroke="#405C86" stroke-width="2" width="12" x="228" y="66" />
<text class="label" x="234" y="79">1</text>
<rect fill="none" height="24" stroke="#405C86" stroke-dasharray="3 1" stroke-dashoffset="1.5" stroke-width="1" width="12" x="216" y="66" />
<text class="label unused" x="222" y="79"></text>
<rect fill="none" height="24" stroke="#405C86" stroke-dasharray="3 1" stroke-dashoffset="1.5" stroke-width="1" width="12" x="204" y="66" />
<text class="label unused" x="210" y="79"></text>
<rect fill="none" height="24" stroke="#405C86" stroke-dasharray="3 1" stroke-dashoffset="1.5" stroke-width="1" width="12" x="192" y="66" />
<text class="label unused" x="198" y="79"></text>
<rect fill="none" height="24" stroke="#405C86" stroke-dasharray="3 1" stroke-dashoffset="1.5" stroke-width="1" width="12" x="180" y="66" />
<text class="label unused" x="186" y="79"></text>
<rect fill="none" height="24" stroke="#405C86" stroke-dasharray="3 1" stroke-dashoffset="1.5" stroke-width="1" width="12" x="168" y="66" />
<text class="label unused" x="174" y="79"></text>
<rect fill="none" height="24" stroke="#405C86" stroke-dasharray="3 1" stroke-dashoffset="1.5" stroke-width="1" width="12" x="156" y="66" />
<text class="label unused" x="162" y="79"></text>
<rect fill="none" height="24" stroke="#405C86" stroke-dasharray="3 1" stroke-dashoffset="1.5" stroke-width="1" width="12" x="144" y="66" />
<text class="label unused" x="150" y="79"></text>
<text class="register-name" x="80" y="78">Pg</text>
<text class="intrinsic-name" x="80" y="90">pg</text>
<text class="register-number" x="10" y="78">(2)</text>
<rect fill="none" height="24" stroke="#405C86" stroke-dasharray="3 1" stroke-dashoffset="1.5" stroke-width="1" width="96" x="2298" y="138" />
<text class="small-label intrinsic-color" x="2346" y="151">base[0]</text>
<rect fill="#DEE6F1" height="24" width="96" x="2202" y="138" />
<rect fill="none" height="24" stroke="#405C86" stroke-width="2" width="96" x="2202" y="138" />
<text class="small-label intrinsic-color" x="2250" y="151">base[1]</text>
<rect fill="#DEE6F1" height="24" width="96" x="2106" y="138" />
<rect fill="none" height="24" stroke="#405C86" stroke-width="2" width="96" x="2106" y="138" />
<text class="small-label intrinsic-color" x="2154" y="151">base[2]</text>
<rect fill="none" height="24" stroke="#405C86" stroke-dasharray="3 1" stroke-dashoffset="1.5" stroke-width="1" width="96" x="2010" y="138" />
<text class="small-label intrinsic-color" x="2058" y="151">base[3]</text>
<rect fill="#DEE6F1" height="24" width="96" x="1914" y="138" />
<rect fill="none" height="24" stroke="#405C86" stroke-width="2" width="96" x="1914" y="138" />
<text class="small-label intrinsic-color" x="1962" y="151">base[4]</text>
<rect fill="#DEE6F1" height="24" width="96" x="1818" y="138" />
<rect fill="none" height="24" stroke="#405C86" stroke-width="2" width="96" x="1818" y="138" />
<text class="small-label intrinsic-color" x="1866" y="151">base[5]</text>
<rect fill="none" height="24" stroke="#405C86" stroke-dasharray="3 1" stroke-dashoffset="1.5" stroke-width="1" width="96" x="1722" y="138" />
<text class="small-label intrinsic-color" x="1770" y="151">base[6]</text>
<rect fill="#DEE6F1" height="24" width="96" x="1626" y="138" />
<rect fill="none" height="24" stroke="#405C86" stroke-width="2" width="96" x="1626" y="138" />
<text class="small-label intrinsic-color" x="1674" y="151">base[7]</text>
<rect fill="#DEE6F1" height="24" width="96" x="1530" y="138" />
<rect fill="none" height="24" stroke="#405C86" stroke-width="2" width="96" x="1530" y="138" />
<text class="small-label intrinsic-color" x="1578" y="151">base[8]</text>
<rect fill="#DEE6F1" height="24" width="96" x="1434" y="138" />
<rect fill="none" height="24" stroke="#405C86" stroke-width="2" width="96" x="1434" y="138" />
<text class="small-label intrinsic-color" x="1482" y="151">base[9]</text>
<rect fill="#DEE6F1" height="24" width="96" x="1338" y="138" />
<rect fill="none" height="24" stroke="#405C86" stroke-width="2" width="96" x="1338" y="138" />
<text class="small-label intrinsic-color" x="1386" y="151">base[10]</text>
<rect fill="#DEE6F1" height="24" width="96" x="1242" y="138" />
<rect fill="none" height="24" stroke="#405C86" stroke-width="2" width="96" x="1242" y="138" />
<text class="small-label intrinsic-color" x="1290" y="151">base[11]</text>
<rect fill="#DEE6F1" height="24" width="96" x="1146" y="138" />
<rect fill="none" height="24" stroke="#405C86" stroke-width="2" width="96" x="1146" y="138" />
<text class="small-label intrinsic-color" x="1194" y="151">base[12]</text>
<rect fill="#DEE6F1" height="24" width="96" x="1050" y="138" />
<rect fill="none" height="24" stroke="#405C86" stroke-width="2" width="96" x="1050" y="138" />
<text class="small-label intrinsic-color" x="1098" y="151">base[13]</text>
<rect fill="none" height="24" stroke="#405C86" stroke-dasharray="3 1" stroke-dashoffset="1.5" stroke-width="1" width="96" x="954" y="138" />
<text class="small-label intrinsic-color" x="1002" y="151">base[14]</text>
<rect fill="#DEE6F1" height="24" width="96" x="858" y="138" />
<rect fill="none" height="24" stroke="#405C86" stroke-width="2" width="96" x="858" y="138" />
<text class="small-label intrinsic-color" x="906" y="151">base[15]</text>
<text class="register-name" x="80" y="150">Zt</text>
<text class="intrinsic-name" x="80" y="162">value</text>
<text class="register-number" x="10" y="150">(3)</text>
<line marker-end="url(#arrowhead)" stroke="none" x1="2922" x2="2250" y1="90.5" y2="137" />
<line marker-end="url(#arrowhead)" stroke="none" x1="2730" x2="2154" y1="90.5" y2="137" />
<line marker-end="url(#arrowhead)" stroke="none" x1="2346" x2="1962" y1="90.5" y2="137" />
<line marker-end="url(#arrowhead)" stroke="none" x1="2154" x2="1866" y1="90.5" y2="137" />
<line marker-end="url(#arrowhead)" stroke="none" x1="1770" x2="1674" y1="90.5" y2="137" />
<line marker-end="url(#arrowhead)" stroke="none" x1="1578" x2="1578" y1="90.5" y2="137" />
<line marker-end="url(#arrowhead)" stroke="none" x1="1386" x2="1482" y1="90.5" y2="137" />
<line marker-end="url(#arrowhead)" stroke="none" x1="1194" x2="1386" y1="90.5" y2="137" />
<line marker-end="url(#arrowhead)" stroke="none" x1="1002" x2="1290" y1="90.5" y2="137" />
<line marker-end="url(#arrowhead)" stroke="none" x1="810" x2="1194" y1="90.5" y2="137" />
<line marker-end="url(#arrowhead)" stroke="none" x1="618" x2="1098" y1="90.5" y2="137" />
<line marker-end="url(#arrowhead)" stroke="none" x1="234" x2="906" y1="90.5" y2="137" />
</svg>