<svg xmlns="http://www.w3.org/2000/svg" viewBox="0 0 3186 783">
<style>
.label { font: 14px Helvetica; dominant-baseline: middle; text-anchor: middle; }
.title-left { font: 12px Helvetica; dominant-baseline: middle; }
.title-right { font: 12px Helvetica; dominant-baseline: middle; text-anchor: end; }
.title-intrinsic { font: 12px Helvetica; dominant-baseline: middle; text-anchor: middle; fill: #6778ED; }
.title { font: 12px Helvetica; dominant-baseline: middle; text-anchor: middle; }
.title-unused { font: 12px Helvetica; dominant-baseline: middle; text-anchor: middle; fill: #AAA; }
.register-name { font: 14px Helvetica; dominant-baseline: middle; text-anchor: end; font-style: italic; }
.memory-name { font: 14px Helvetica; dominant-baseline: middle; text-anchor: end; }
.register-number { font: 14px Helvetica; dominant-baseline: middle; text-anchor: start; }
.intrinsic-name { font: 14px Helvetica; dominant-baseline: middle; text-anchor: end; fill: #6778ED; }
.intrinsic-color { fill: #6778ED; }
.small-label { font: 12px Helvetica; dominant-baseline: middle; text-anchor: middle; }
.label-10px { font: 10px Helvetica; dominant-baseline: middle; text-anchor: middle; }
.smaller-label { font: 9px Helvetica; dominant-baseline: middle; text-anchor: middle; }
.label-6px { font: 6px Helvetica; dominant-baseline: middle; text-anchor: middle; }
.label-7px { font: 7px Helvetica; dominant-baseline: middle; text-anchor: middle; }
.unused { fill: #AAA; }
.dim { fill: #888; }
</style>
<defs>
<marker id="arrowhead" markerWidth="10.75" markerHeight="24.5" refX="9.0" refY="6.125" orient="auto">
<polyline points="0.5 0.5, 8.75 6.125, 0.5 11.75" stroke="#567DB6" stroke-width="1" fill="none"/>
</marker>
</defs>
<text class="title-left" x="90" y="9">upper</text>
<text class="title-right" x="3162" y="9">lower</text>
<rect fill="#FAEBDC" height="606" width="3101" x="73" y="168" />
<rect fill="#DEE6F1" height="24" width="12" x="3060" y="18" />
<rect fill="none" height="24" stroke="#405C86" stroke-width="2" width="12" x="3060" y="18" />
<rect fill="none" height="24" stroke="#405C86" stroke-dasharray="3 1" stroke-dashoffset="1.5" stroke-width="1" width="12" x="3048" y="18" />
<text class="label unused" x="3054" y="31"></text>
<rect fill="none" height="24" stroke="#405C86" stroke-dasharray="3 1" stroke-dashoffset="1.5" stroke-width="1" width="12" x="3036" y="18" />
<text class="label unused" x="3042" y="31"></text>
<rect fill="none" height="24" stroke="#405C86" stroke-dasharray="3 1" stroke-dashoffset="1.5" stroke-width="1" width="12" x="3024" y="18" />
<text class="label unused" x="3030" y="31"></text>
<rect fill="none" height="24" stroke="#405C86" stroke-dasharray="3 1" stroke-dashoffset="1.5" stroke-width="1" width="12" x="3012" y="18" />
<text class="label unused" x="3018" y="31"></text>
<rect fill="none" height="24" stroke="#405C86" stroke-dasharray="3 1" stroke-dashoffset="1.5" stroke-width="1" width="12" x="3000" y="18" />
<text class="label unused" x="3006" y="31"></text>
<rect fill="none" height="24" stroke="#405C86" stroke-dasharray="3 1" stroke-dashoffset="1.5" stroke-width="1" width="12" x="2988" y="18" />
<text class="label unused" x="2994" y="31"></text>
<rect fill="none" height="24" stroke="#405C86" stroke-dasharray="3 1" stroke-dashoffset="1.5" stroke-width="1" width="12" x="2976" y="18" />
<text class="label unused" x="2982" y="31"></text>
<rect fill="#DEE6F1" height="24" width="12" x="2868" y="18" />
<rect fill="none" height="24" stroke="#405C86" stroke-width="2" width="12" x="2868" y="18" />
<rect fill="none" height="24" stroke="#405C86" stroke-dasharray="3 1" stroke-dashoffset="1.5" stroke-width="1" width="12" x="2856" y="18" />
<text class="label unused" x="2862" y="31"></text>
<rect fill="none" height="24" stroke="#405C86" stroke-dasharray="3 1" stroke-dashoffset="1.5" stroke-width="1" width="12" x="2844" y="18" />
<text class="label unused" x="2850" y="31"></text>
<rect fill="none" height="24" stroke="#405C86" stroke-dasharray="3 1" stroke-dashoffset="1.5" stroke-width="1" width="12" x="2832" y="18" />
<text class="label unused" x="2838" y="31"></text>
<rect fill="none" height="24" stroke="#405C86" stroke-dasharray="3 1" stroke-dashoffset="1.5" stroke-width="1" width="12" x="2820" y="18" />
<text class="label unused" x="2826" y="31"></text>
<rect fill="none" height="24" stroke="#405C86" stroke-dasharray="3 1" stroke-dashoffset="1.5" stroke-width="1" width="12" x="2808" y="18" />
<text class="label unused" x="2814" y="31"></text>
<rect fill="none" height="24" stroke="#405C86" stroke-dasharray="3 1" stroke-dashoffset="1.5" stroke-width="1" width="12" x="2796" y="18" />
<text class="label unused" x="2802" y="31"></text>
<rect fill="none" height="24" stroke="#405C86" stroke-dasharray="3 1" stroke-dashoffset="1.5" stroke-width="1" width="12" x="2784" y="18" />
<text class="label unused" x="2790" y="31"></text>
<rect fill="#DEE6F1" height="24" width="12" x="2676" y="18" />
<rect fill="none" height="24" stroke="#405C86" stroke-width="2" width="12" x="2676" y="18" />
<rect fill="none" height="24" stroke="#405C86" stroke-dasharray="3 1" stroke-dashoffset="1.5" stroke-width="1" width="12" x="2664" y="18" />
<text class="label unused" x="2670" y="31"></text>
<rect fill="none" height="24" stroke="#405C86" stroke-dasharray="3 1" stroke-dashoffset="1.5" stroke-width="1" width="12" x="2652" y="18" />
<text class="label unused" x="2658" y="31"></text>
<rect fill="none" height="24" stroke="#405C86" stroke-dasharray="3 1" stroke-dashoffset="1.5" stroke-width="1" width="12" x="2640" y="18" />
<text class="label unused" x="2646" y="31"></text>
<rect fill="none" height="24" stroke="#405C86" stroke-dasharray="3 1" stroke-dashoffset="1.5" stroke-width="1" width="12" x="2628" y="18" />
<text class="label unused" x="2634" y="31"></text>
<rect fill="none" height="24" stroke="#405C86" stroke-dasharray="3 1" stroke-dashoffset="1.5" stroke-width="1" width="12" x="2616" y="18" />
<text class="label unused" x="2622" y="31"></text>
<rect fill="none" height="24" stroke="#405C86" stroke-dasharray="3 1" stroke-dashoffset="1.5" stroke-width="1" width="12" x="2604" y="18" />
<text class="label unused" x="2610" y="31"></text>
<rect fill="none" height="24" stroke="#405C86" stroke-dasharray="3 1" stroke-dashoffset="1.5" stroke-width="1" width="12" x="2592" y="18" />
<text class="label unused" x="2598" y="31"></text>
<rect fill="#DEE6F1" height="24" width="12" x="2484" y="18" />
<rect fill="none" height="24" stroke="#405C86" stroke-width="2" width="12" x="2484" y="18" />
<rect fill="none" height="24" stroke="#405C86" stroke-dasharray="3 1" stroke-dashoffset="1.5" stroke-width="1" width="12" x="2472" y="18" />
<text class="label unused" x="2478" y="31"></text>
<rect fill="none" height="24" stroke="#405C86" stroke-dasharray="3 1" stroke-dashoffset="1.5" stroke-width="1" width="12" x="2460" y="18" />
<text class="label unused" x="2466" y="31"></text>
<rect fill="none" height="24" stroke="#405C86" stroke-dasharray="3 1" stroke-dashoffset="1.5" stroke-width="1" width="12" x="2448" y="18" />
<text class="label unused" x="2454" y="31"></text>
<rect fill="none" height="24" stroke="#405C86" stroke-dasharray="3 1" stroke-dashoffset="1.5" stroke-width="1" width="12" x="2436" y="18" />
<text class="label unused" x="2442" y="31"></text>
<rect fill="none" height="24" stroke="#405C86" stroke-dasharray="3 1" stroke-dashoffset="1.5" stroke-width="1" width="12" x="2424" y="18" />
<text class="label unused" x="2430" y="31"></text>
<rect fill="none" height="24" stroke="#405C86" stroke-dasharray="3 1" stroke-dashoffset="1.5" stroke-width="1" width="12" x="2412" y="18" />
<text class="label unused" x="2418" y="31"></text>
<rect fill="none" height="24" stroke="#405C86" stroke-dasharray="3 1" stroke-dashoffset="1.5" stroke-width="1" width="12" x="2400" y="18" />
<text class="label unused" x="2406" y="31"></text>
<rect fill="#DEE6F1" height="24" width="12" x="2292" y="18" />
<rect fill="none" height="24" stroke="#405C86" stroke-width="2" width="12" x="2292" y="18" />
<rect fill="none" height="24" stroke="#405C86" stroke-dasharray="3 1" stroke-dashoffset="1.5" stroke-width="1" width="12" x="2280" y="18" />
<text class="label unused" x="2286" y="31"></text>
<rect fill="none" height="24" stroke="#405C86" stroke-dasharray="3 1" stroke-dashoffset="1.5" stroke-width="1" width="12" x="2268" y="18" />
<text class="label unused" x="2274" y="31"></text>
<rect fill="none" height="24" stroke="#405C86" stroke-dasharray="3 1" stroke-dashoffset="1.5" stroke-width="1" width="12" x="2256" y="18" />
<text class="label unused" x="2262" y="31"></text>
<rect fill="none" height="24" stroke="#405C86" stroke-dasharray="3 1" stroke-dashoffset="1.5" stroke-width="1" width="12" x="2244" y="18" />
<text class="label unused" x="2250" y="31"></text>
<rect fill="none" height="24" stroke="#405C86" stroke-dasharray="3 1" stroke-dashoffset="1.5" stroke-width="1" width="12" x="2232" y="18" />
<text class="label unused" x="2238" y="31"></text>
<rect fill="none" height="24" stroke="#405C86" stroke-dasharray="3 1" stroke-dashoffset="1.5" stroke-width="1" width="12" x="2220" y="18" />
<text class="label unused" x="2226" y="31"></text>
<rect fill="none" height="24" stroke="#405C86" stroke-dasharray="3 1" stroke-dashoffset="1.5" stroke-width="1" width="12" x="2208" y="18" />
<text class="label unused" x="2214" y="31"></text>
<rect fill="#DEE6F1" height="24" width="12" x="2100" y="18" />
<rect fill="none" height="24" stroke="#405C86" stroke-width="2" width="12" x="2100" y="18" />
<rect fill="none" height="24" stroke="#405C86" stroke-dasharray="3 1" stroke-dashoffset="1.5" stroke-width="1" width="12" x="2088" y="18" />
<text class="label unused" x="2094" y="31"></text>
<rect fill="none" height="24" stroke="#405C86" stroke-dasharray="3 1" stroke-dashoffset="1.5" stroke-width="1" width="12" x="2076" y="18" />
<text class="label unused" x="2082" y="31"></text>
<rect fill="none" height="24" stroke="#405C86" stroke-dasharray="3 1" stroke-dashoffset="1.5" stroke-width="1" width="12" x="2064" y="18" />
<text class="label unused" x="2070" y="31"></text>
<rect fill="none" height="24" stroke="#405C86" stroke-dasharray="3 1" stroke-dashoffset="1.5" stroke-width="1" width="12" x="2052" y="18" />
<text class="label unused" x="2058" y="31"></text>
<rect fill="none" height="24" stroke="#405C86" stroke-dasharray="3 1" stroke-dashoffset="1.5" stroke-width="1" width="12" x="2040" y="18" />
<text class="label unused" x="2046" y="31"></text>
<rect fill="none" height="24" stroke="#405C86" stroke-dasharray="3 1" stroke-dashoffset="1.5" stroke-width="1" width="12" x="2028" y="18" />
<text class="label unused" x="2034" y="31"></text>
<rect fill="none" height="24" stroke="#405C86" stroke-dasharray="3 1" stroke-dashoffset="1.5" stroke-width="1" width="12" x="2016" y="18" />
<text class="label unused" x="2022" y="31"></text>
<rect fill="#DEE6F1" height="24" width="12" x="1908" y="18" />
<rect fill="none" height="24" stroke="#405C86" stroke-width="2" width="12" x="1908" y="18" />
<rect fill="none" height="24" stroke="#405C86" stroke-dasharray="3 1" stroke-dashoffset="1.5" stroke-width="1" width="12" x="1896" y="18" />
<text class="label unused" x="1902" y="31"></text>
<rect fill="none" height="24" stroke="#405C86" stroke-dasharray="3 1" stroke-dashoffset="1.5" stroke-width="1" width="12" x="1884" y="18" />
<text class="label unused" x="1890" y="31"></text>
<rect fill="none" height="24" stroke="#405C86" stroke-dasharray="3 1" stroke-dashoffset="1.5" stroke-width="1" width="12" x="1872" y="18" />
<text class="label unused" x="1878" y="31"></text>
<rect fill="none" height="24" stroke="#405C86" stroke-dasharray="3 1" stroke-dashoffset="1.5" stroke-width="1" width="12" x="1860" y="18" />
<text class="label unused" x="1866" y="31"></text>
<rect fill="none" height="24" stroke="#405C86" stroke-dasharray="3 1" stroke-dashoffset="1.5" stroke-width="1" width="12" x="1848" y="18" />
<text class="label unused" x="1854" y="31"></text>
<rect fill="none" height="24" stroke="#405C86" stroke-dasharray="3 1" stroke-dashoffset="1.5" stroke-width="1" width="12" x="1836" y="18" />
<text class="label unused" x="1842" y="31"></text>
<rect fill="none" height="24" stroke="#405C86" stroke-dasharray="3 1" stroke-dashoffset="1.5" stroke-width="1" width="12" x="1824" y="18" />
<text class="label unused" x="1830" y="31"></text>
<rect fill="#DEE6F1" height="24" width="12" x="1716" y="18" />
<rect fill="none" height="24" stroke="#405C86" stroke-width="2" width="12" x="1716" y="18" />
<rect fill="none" height="24" stroke="#405C86" stroke-dasharray="3 1" stroke-dashoffset="1.5" stroke-width="1" width="12" x="1704" y="18" />
<text class="label unused" x="1710" y="31"></text>
<rect fill="none" height="24" stroke="#405C86" stroke-dasharray="3 1" stroke-dashoffset="1.5" stroke-width="1" width="12" x="1692" y="18" />
<text class="label unused" x="1698" y="31"></text>
<rect fill="none" height="24" stroke="#405C86" stroke-dasharray="3 1" stroke-dashoffset="1.5" stroke-width="1" width="12" x="1680" y="18" />
<text class="label unused" x="1686" y="31"></text>
<rect fill="none" height="24" stroke="#405C86" stroke-dasharray="3 1" stroke-dashoffset="1.5" stroke-width="1" width="12" x="1668" y="18" />
<text class="label unused" x="1674" y="31"></text>
<rect fill="none" height="24" stroke="#405C86" stroke-dasharray="3 1" stroke-dashoffset="1.5" stroke-width="1" width="12" x="1656" y="18" />
<text class="label unused" x="1662" y="31"></text>
<rect fill="none" height="24" stroke="#405C86" stroke-dasharray="3 1" stroke-dashoffset="1.5" stroke-width="1" width="12" x="1644" y="18" />
<text class="label unused" x="1650" y="31"></text>
<rect fill="none" height="24" stroke="#405C86" stroke-dasharray="3 1" stroke-dashoffset="1.5" stroke-width="1" width="12" x="1632" y="18" />
<text class="label unused" x="1638" y="31"></text>
<rect fill="#DEE6F1" height="24" width="12" x="1524" y="18" />
<rect fill="none" height="24" stroke="#405C86" stroke-width="2" width="12" x="1524" y="18" />
<rect fill="none" height="24" stroke="#405C86" stroke-dasharray="3 1" stroke-dashoffset="1.5" stroke-width="1" width="12" x="1512" y="18" />
<text class="label unused" x="1518" y="31"></text>
<rect fill="none" height="24" stroke="#405C86" stroke-dasharray="3 1" stroke-dashoffset="1.5" stroke-width="1" width="12" x="1500" y="18" />
<text class="label unused" x="1506" y="31"></text>
<rect fill="none" height="24" stroke="#405C86" stroke-dasharray="3 1" stroke-dashoffset="1.5" stroke-width="1" width="12" x="1488" y="18" />
<text class="label unused" x="1494" y="31"></text>
<rect fill="none" height="24" stroke="#405C86" stroke-dasharray="3 1" stroke-dashoffset="1.5" stroke-width="1" width="12" x="1476" y="18" />
<text class="label unused" x="1482" y="31"></text>
<rect fill="none" height="24" stroke="#405C86" stroke-dasharray="3 1" stroke-dashoffset="1.5" stroke-width="1" width="12" x="1464" y="18" />
<text class="label unused" x="1470" y="31"></text>
<rect fill="none" height="24" stroke="#405C86" stroke-dasharray="3 1" stroke-dashoffset="1.5" stroke-width="1" width="12" x="1452" y="18" />
<text class="label unused" x="1458" y="31"></text>
<rect fill="none" height="24" stroke="#405C86" stroke-dasharray="3 1" stroke-dashoffset="1.5" stroke-width="1" width="12" x="1440" y="18" />
<text class="label unused" x="1446" y="31"></text>
<rect fill="#DEE6F1" height="24" width="12" x="1332" y="18" />
<rect fill="none" height="24" stroke="#405C86" stroke-width="2" width="12" x="1332" y="18" />
<rect fill="none" height="24" stroke="#405C86" stroke-dasharray="3 1" stroke-dashoffset="1.5" stroke-width="1" width="12" x="1320" y="18" />
<text class="label unused" x="1326" y="31"></text>
<rect fill="none" height="24" stroke="#405C86" stroke-dasharray="3 1" stroke-dashoffset="1.5" stroke-width="1" width="12" x="1308" y="18" />
<text class="label unused" x="1314" y="31"></text>
<rect fill="none" height="24" stroke="#405C86" stroke-dasharray="3 1" stroke-dashoffset="1.5" stroke-width="1" width="12" x="1296" y="18" />
<text class="label unused" x="1302" y="31"></text>
<rect fill="none" height="24" stroke="#405C86" stroke-dasharray="3 1" stroke-dashoffset="1.5" stroke-width="1" width="12" x="1284" y="18" />
<text class="label unused" x="1290" y="31"></text>
<rect fill="none" height="24" stroke="#405C86" stroke-dasharray="3 1" stroke-dashoffset="1.5" stroke-width="1" width="12" x="1272" y="18" />
<text class="label unused" x="1278" y="31"></text>
<rect fill="none" height="24" stroke="#405C86" stroke-dasharray="3 1" stroke-dashoffset="1.5" stroke-width="1" width="12" x="1260" y="18" />
<text class="label unused" x="1266" y="31"></text>
<rect fill="none" height="24" stroke="#405C86" stroke-dasharray="3 1" stroke-dashoffset="1.5" stroke-width="1" width="12" x="1248" y="18" />
<text class="label unused" x="1254" y="31"></text>
<rect fill="#DEE6F1" height="24" width="12" x="1140" y="18" />
<rect fill="none" height="24" stroke="#405C86" stroke-width="2" width="12" x="1140" y="18" />
<rect fill="none" height="24" stroke="#405C86" stroke-dasharray="3 1" stroke-dashoffset="1.5" stroke-width="1" width="12" x="1128" y="18" />
<text class="label unused" x="1134" y="31"></text>
<rect fill="none" height="24" stroke="#405C86" stroke-dasharray="3 1" stroke-dashoffset="1.5" stroke-width="1" width="12" x="1116" y="18" />
<text class="label unused" x="1122" y="31"></text>
<rect fill="none" height="24" stroke="#405C86" stroke-dasharray="3 1" stroke-dashoffset="1.5" stroke-width="1" width="12" x="1104" y="18" />
<text class="label unused" x="1110" y="31"></text>
<rect fill="none" height="24" stroke="#405C86" stroke-dasharray="3 1" stroke-dashoffset="1.5" stroke-width="1" width="12" x="1092" y="18" />
<text class="label unused" x="1098" y="31"></text>
<rect fill="none" height="24" stroke="#405C86" stroke-dasharray="3 1" stroke-dashoffset="1.5" stroke-width="1" width="12" x="1080" y="18" />
<text class="label unused" x="1086" y="31"></text>
<rect fill="none" height="24" stroke="#405C86" stroke-dasharray="3 1" stroke-dashoffset="1.5" stroke-width="1" width="12" x="1068" y="18" />
<text class="label unused" x="1074" y="31"></text>
<rect fill="none" height="24" stroke="#405C86" stroke-dasharray="3 1" stroke-dashoffset="1.5" stroke-width="1" width="12" x="1056" y="18" />
<text class="label unused" x="1062" y="31"></text>
<rect fill="#DEE6F1" height="24" width="12" x="948" y="18" />
<rect fill="none" height="24" stroke="#405C86" stroke-width="2" width="12" x="948" y="18" />
<rect fill="none" height="24" stroke="#405C86" stroke-dasharray="3 1" stroke-dashoffset="1.5" stroke-width="1" width="12" x="936" y="18" />
<text class="label unused" x="942" y="31"></text>
<rect fill="none" height="24" stroke="#405C86" stroke-dasharray="3 1" stroke-dashoffset="1.5" stroke-width="1" width="12" x="924" y="18" />
<text class="label unused" x="930" y="31"></text>
<rect fill="none" height="24" stroke="#405C86" stroke-dasharray="3 1" stroke-dashoffset="1.5" stroke-width="1" width="12" x="912" y="18" />
<text class="label unused" x="918" y="31"></text>
<rect fill="none" height="24" stroke="#405C86" stroke-dasharray="3 1" stroke-dashoffset="1.5" stroke-width="1" width="12" x="900" y="18" />
<text class="label unused" x="906" y="31"></text>
<rect fill="none" height="24" stroke="#405C86" stroke-dasharray="3 1" stroke-dashoffset="1.5" stroke-width="1" width="12" x="888" y="18" />
<text class="label unused" x="894" y="31"></text>
<rect fill="none" height="24" stroke="#405C86" stroke-dasharray="3 1" stroke-dashoffset="1.5" stroke-width="1" width="12" x="876" y="18" />
<text class="label unused" x="882" y="31"></text>
<rect fill="none" height="24" stroke="#405C86" stroke-dasharray="3 1" stroke-dashoffset="1.5" stroke-width="1" width="12" x="864" y="18" />
<text class="label unused" x="870" y="31"></text>
<rect fill="#DEE6F1" height="24" width="12" x="756" y="18" />
<rect fill="none" height="24" stroke="#405C86" stroke-width="2" width="12" x="756" y="18" />
<rect fill="none" height="24" stroke="#405C86" stroke-dasharray="3 1" stroke-dashoffset="1.5" stroke-width="1" width="12" x="744" y="18" />
<text class="label unused" x="750" y="31"></text>
<rect fill="none" height="24" stroke="#405C86" stroke-dasharray="3 1" stroke-dashoffset="1.5" stroke-width="1" width="12" x="732" y="18" />
<text class="label unused" x="738" y="31"></text>
<rect fill="none" height="24" stroke="#405C86" stroke-dasharray="3 1" stroke-dashoffset="1.5" stroke-width="1" width="12" x="720" y="18" />
<text class="label unused" x="726" y="31"></text>
<rect fill="none" height="24" stroke="#405C86" stroke-dasharray="3 1" stroke-dashoffset="1.5" stroke-width="1" width="12" x="708" y="18" />
<text class="label unused" x="714" y="31"></text>
<rect fill="none" height="24" stroke="#405C86" stroke-dasharray="3 1" stroke-dashoffset="1.5" stroke-width="1" width="12" x="696" y="18" />
<text class="label unused" x="702" y="31"></text>
<rect fill="none" height="24" stroke="#405C86" stroke-dasharray="3 1" stroke-dashoffset="1.5" stroke-width="1" width="12" x="684" y="18" />
<text class="label unused" x="690" y="31"></text>
<rect fill="none" height="24" stroke="#405C86" stroke-dasharray="3 1" stroke-dashoffset="1.5" stroke-width="1" width="12" x="672" y="18" />
<text class="label unused" x="678" y="31"></text>
<rect fill="#DEE6F1" height="24" width="12" x="564" y="18" />
<rect fill="none" height="24" stroke="#405C86" stroke-width="2" width="12" x="564" y="18" />
<rect fill="none" height="24" stroke="#405C86" stroke-dasharray="3 1" stroke-dashoffset="1.5" stroke-width="1" width="12" x="552" y="18" />
<text class="label unused" x="558" y="31"></text>
<rect fill="none" height="24" stroke="#405C86" stroke-dasharray="3 1" stroke-dashoffset="1.5" stroke-width="1" width="12" x="540" y="18" />
<text class="label unused" x="546" y="31"></text>
<rect fill="none" height="24" stroke="#405C86" stroke-dasharray="3 1" stroke-dashoffset="1.5" stroke-width="1" width="12" x="528" y="18" />
<text class="label unused" x="534" y="31"></text>
<rect fill="none" height="24" stroke="#405C86" stroke-dasharray="3 1" stroke-dashoffset="1.5" stroke-width="1" width="12" x="516" y="18" />
<text class="label unused" x="522" y="31"></text>
<rect fill="none" height="24" stroke="#405C86" stroke-dasharray="3 1" stroke-dashoffset="1.5" stroke-width="1" width="12" x="504" y="18" />
<text class="label unused" x="510" y="31"></text>
<rect fill="none" height="24" stroke="#405C86" stroke-dasharray="3 1" stroke-dashoffset="1.5" stroke-width="1" width="12" x="492" y="18" />
<text class="label unused" x="498" y="31"></text>
<rect fill="none" height="24" stroke="#405C86" stroke-dasharray="3 1" stroke-dashoffset="1.5" stroke-width="1" width="12" x="480" y="18" />
<text class="label unused" x="486" y="31"></text>
<rect fill="#DEE6F1" height="24" width="12" x="372" y="18" />
<rect fill="none" height="24" stroke="#405C86" stroke-width="2" width="12" x="372" y="18" />
<rect fill="none" height="24" stroke="#405C86" stroke-dasharray="3 1" stroke-dashoffset="1.5" stroke-width="1" width="12" x="360" y="18" />
<text class="label unused" x="366" y="31"></text>
<rect fill="none" height="24" stroke="#405C86" stroke-dasharray="3 1" stroke-dashoffset="1.5" stroke-width="1" width="12" x="348" y="18" />
<text class="label unused" x="354" y="31"></text>
<rect fill="none" height="24" stroke="#405C86" stroke-dasharray="3 1" stroke-dashoffset="1.5" stroke-width="1" width="12" x="336" y="18" />
<text class="label unused" x="342" y="31"></text>
<rect fill="none" height="24" stroke="#405C86" stroke-dasharray="3 1" stroke-dashoffset="1.5" stroke-width="1" width="12" x="324" y="18" />
<text class="label unused" x="330" y="31"></text>
<rect fill="none" height="24" stroke="#405C86" stroke-dasharray="3 1" stroke-dashoffset="1.5" stroke-width="1" width="12" x="312" y="18" />
<text class="label unused" x="318" y="31"></text>
<rect fill="none" height="24" stroke="#405C86" stroke-dasharray="3 1" stroke-dashoffset="1.5" stroke-width="1" width="12" x="300" y="18" />
<text class="label unused" x="306" y="31"></text>
<rect fill="none" height="24" stroke="#405C86" stroke-dasharray="3 1" stroke-dashoffset="1.5" stroke-width="1" width="12" x="288" y="18" />
<text class="label unused" x="294" y="31"></text>
<rect fill="#DEE6F1" height="24" width="12" x="180" y="18" />
<rect fill="none" height="24" stroke="#405C86" stroke-width="2" width="12" x="180" y="18" />
<rect fill="none" height="24" stroke="#405C86" stroke-dasharray="3 1" stroke-dashoffset="1.5" stroke-width="1" width="12" x="168" y="18" />
<text class="label unused" x="174" y="31"></text>
<rect fill="none" height="24" stroke="#405C86" stroke-dasharray="3 1" stroke-dashoffset="1.5" stroke-width="1" width="12" x="156" y="18" />
<text class="label unused" x="162" y="31"></text>
<rect fill="none" height="24" stroke="#405C86" stroke-dasharray="3 1" stroke-dashoffset="1.5" stroke-width="1" width="12" x="144" y="18" />
<text class="label unused" x="150" y="31"></text>
<rect fill="none" height="24" stroke="#405C86" stroke-dasharray="3 1" stroke-dashoffset="1.5" stroke-width="1" width="12" x="132" y="18" />
<text class="label unused" x="138" y="31"></text>
<rect fill="none" height="24" stroke="#405C86" stroke-dasharray="3 1" stroke-dashoffset="1.5" stroke-width="1" width="12" x="120" y="18" />
<text class="label unused" x="126" y="31"></text>
<rect fill="none" height="24" stroke="#405C86" stroke-dasharray="3 1" stroke-dashoffset="1.5" stroke-width="1" width="12" x="108" y="18" />
<text class="label unused" x="114" y="31"></text>
<rect fill="none" height="24" stroke="#405C86" stroke-dasharray="3 1" stroke-dashoffset="1.5" stroke-width="1" width="12" x="96" y="18" />
<text class="label unused" x="102" y="31"></text>
<text class="register-name" x="80" y="30">Pg</text>
<text class="intrinsic-name" x="80" y="42">pg</text>
<text class="register-number" x="10" y="30">(1)</text>
<rect fill="#DEE6F1" height="24" width="192" x="2970" y="66" />
<text class="label" x="3066" y="79">off0</text>
<rect fill="none" height="24" stroke="#405C86" stroke-width="2" width="192" x="2970" y="66" />
<rect fill="#DEE6F1" height="24" width="192" x="2778" y="66" />
<text class="label" x="2874" y="79">off1</text>
<rect fill="none" height="24" stroke="#405C86" stroke-width="2" width="192" x="2778" y="66" />
<rect fill="#DEE6F1" height="24" width="192" x="2586" y="66" />
<text class="label" x="2682" y="79">off2</text>
<rect fill="none" height="24" stroke="#405C86" stroke-width="2" width="192" x="2586" y="66" />
<rect fill="#DEE6F1" height="24" width="192" x="2394" y="66" />
<text class="label" x="2490" y="79">off3</text>
<rect fill="none" height="24" stroke="#405C86" stroke-width="2" width="192" x="2394" y="66" />
<rect fill="#DEE6F1" height="24" width="192" x="2202" y="66" />
<text class="label" x="2298" y="79">off4</text>
<rect fill="none" height="24" stroke="#405C86" stroke-width="2" width="192" x="2202" y="66" />
<rect fill="#DEE6F1" height="24" width="192" x="2010" y="66" />
<text class="label" x="2106" y="79">off5</text>
<rect fill="none" height="24" stroke="#405C86" stroke-width="2" width="192" x="2010" y="66" />
<rect fill="#DEE6F1" height="24" width="192" x="1818" y="66" />
<text class="label" x="1914" y="79">off6</text>
<rect fill="none" height="24" stroke="#405C86" stroke-width="2" width="192" x="1818" y="66" />
<rect fill="#DEE6F1" height="24" width="192" x="1626" y="66" />
<text class="label" x="1722" y="79">off7</text>
<rect fill="none" height="24" stroke="#405C86" stroke-width="2" width="192" x="1626" y="66" />
<rect fill="#DEE6F1" height="24" width="192" x="1434" y="66" />
<text class="label" x="1530" y="79">off8</text>
<rect fill="none" height="24" stroke="#405C86" stroke-width="2" width="192" x="1434" y="66" />
<rect fill="#DEE6F1" height="24" width="192" x="1242" y="66" />
<text class="label" x="1338" y="79">off9</text>
<rect fill="none" height="24" stroke="#405C86" stroke-width="2" width="192" x="1242" y="66" />
<rect fill="#DEE6F1" height="24" width="192" x="1050" y="66" />
<text class="label" x="1146" y="79">off10</text>
<rect fill="none" height="24" stroke="#405C86" stroke-width="2" width="192" x="1050" y="66" />
<rect fill="#DEE6F1" height="24" width="192" x="858" y="66" />
<text class="label" x="954" y="79">off11</text>
<rect fill="none" height="24" stroke="#405C86" stroke-width="2" width="192" x="858" y="66" />
<rect fill="#DEE6F1" height="24" width="192" x="666" y="66" />
<text class="label" x="762" y="79">off12</text>
<rect fill="none" height="24" stroke="#405C86" stroke-width="2" width="192" x="666" y="66" />
<rect fill="#DEE6F1" height="24" width="192" x="474" y="66" />
<text class="label" x="570" y="79">off13</text>
<rect fill="none" height="24" stroke="#405C86" stroke-width="2" width="192" x="474" y="66" />
<rect fill="#DEE6F1" height="24" width="192" x="282" y="66" />
<text class="label" x="378" y="79">off14</text>
<rect fill="none" height="24" stroke="#405C86" stroke-width="2" width="192" x="282" y="66" />
<rect fill="#DEE6F1" height="24" width="192" x="90" y="66" />
<text class="label" x="186" y="79">off15</text>
<rect fill="none" height="24" stroke="#405C86" stroke-width="2" width="192" x="90" y="66" />
<text class="register-name" x="80" y="78">Zm</text>
<text class="intrinsic-name" x="80" y="90">offsets</text>
<text class="register-number" x="10" y="78">(2)</text>
<rect fill="#DEE6F1" height="24" width="96" x="3066" y="114" />
<rect fill="none" height="24" stroke="#405C86" stroke-width="2" width="192" x="2970" y="114" />
<rect fill="#DEE6F1" height="24" width="96" x="2874" y="114" />
<rect fill="none" height="24" stroke="#405C86" stroke-width="2" width="192" x="2778" y="114" />
<rect fill="#DEE6F1" height="24" width="96" x="2682" y="114" />
<rect fill="none" height="24" stroke="#405C86" stroke-width="2" width="192" x="2586" y="114" />
<rect fill="#DEE6F1" height="24" width="96" x="2490" y="114" />
<rect fill="none" height="24" stroke="#405C86" stroke-width="2" width="192" x="2394" y="114" />
<rect fill="#DEE6F1" height="24" width="96" x="2298" y="114" />
<rect fill="none" height="24" stroke="#405C86" stroke-width="2" width="192" x="2202" y="114" />
<rect fill="#DEE6F1" height="24" width="96" x="2106" y="114" />
<rect fill="none" height="24" stroke="#405C86" stroke-width="2" width="192" x="2010" y="114" />
<rect fill="#DEE6F1" height="24" width="96" x="1914" y="114" />
<rect fill="none" height="24" stroke="#405C86" stroke-width="2" width="192" x="1818" y="114" />
<rect fill="#DEE6F1" height="24" width="96" x="1722" y="114" />
<rect fill="none" height="24" stroke="#405C86" stroke-width="2" width="192" x="1626" y="114" />
<rect fill="#DEE6F1" height="24" width="96" x="1530" y="114" />
<rect fill="none" height="24" stroke="#405C86" stroke-width="2" width="192" x="1434" y="114" />
<rect fill="#DEE6F1" height="24" width="96" x="1338" y="114" />
<rect fill="none" height="24" stroke="#405C86" stroke-width="2" width="192" x="1242" y="114" />
<rect fill="#DEE6F1" height="24" width="96" x="1146" y="114" />
<rect fill="none" height="24" stroke="#405C86" stroke-width="2" width="192" x="1050" y="114" />
<rect fill="#DEE6F1" height="24" width="96" x="954" y="114" />
<rect fill="none" height="24" stroke="#405C86" stroke-width="2" width="192" x="858" y="114" />
<rect fill="#DEE6F1" height="24" width="96" x="762" y="114" />
<rect fill="none" height="24" stroke="#405C86" stroke-width="2" width="192" x="666" y="114" />
<rect fill="#DEE6F1" height="24" width="96" x="570" y="114" />
<rect fill="none" height="24" stroke="#405C86" stroke-width="2" width="192" x="474" y="114" />
<rect fill="#DEE6F1" height="24" width="96" x="378" y="114" />
<rect fill="none" height="24" stroke="#405C86" stroke-width="2" width="192" x="282" y="114" />
<rect fill="#DEE6F1" height="24" width="96" x="186" y="114" />
<rect fill="none" height="24" stroke="#405C86" stroke-width="2" width="192" x="90" y="114" />
<text class="register-name" x="80" y="126">Zt</text>
<text class="intrinsic-name" x="80" y="138">data</text>
<text class="register-number" x="10" y="126">(3)</text>
<rect fill="#DEE6F1" height="24" width="96" x="3018" y="198" />
<rect fill="none" height="24" stroke="#405C86" stroke-width="2" width="96" x="3018" y="198" />
<text class="memory-name" x="3015" y="210">Xn+off0</text>
<rect fill="#DEE6F1" height="24" width="96" x="2826" y="234" />
<rect fill="none" height="24" stroke="#405C86" stroke-width="2" width="96" x="2826" y="234" />
<text class="memory-name" x="2823" y="246">Xn+off1</text>
<rect fill="#DEE6F1" height="24" width="96" x="2634" y="270" />
<rect fill="none" height="24" stroke="#405C86" stroke-width="2" width="96" x="2634" y="270" />
<text class="memory-name" x="2631" y="282">Xn+off2</text>
<rect fill="#DEE6F1" height="24" width="96" x="2442" y="306" />
<rect fill="none" height="24" stroke="#405C86" stroke-width="2" width="96" x="2442" y="306" />
<text class="memory-name" x="2439" y="318">Xn+off3</text>
<rect fill="#DEE6F1" height="24" width="96" x="2250" y="342" />
<rect fill="none" height="24" stroke="#405C86" stroke-width="2" width="96" x="2250" y="342" />
<text class="memory-name" x="2247" y="354">Xn+off4</text>
<rect fill="#DEE6F1" height="24" width="96" x="2058" y="378" />
<rect fill="none" height="24" stroke="#405C86" stroke-width="2" width="96" x="2058" y="378" />
<text class="memory-name" x="2055" y="390">Xn+off5</text>
<rect fill="#DEE6F1" height="24" width="96" x="1866" y="414" />
<rect fill="none" height="24" stroke="#405C86" stroke-width="2" width="96" x="1866" y="414" />
<text class="memory-name" x="1863" y="426">Xn+off6</text>
<rect fill="#DEE6F1" height="24" width="96" x="1674" y="450" />
<rect fill="none" height="24" stroke="#405C86" stroke-width="2" width="96" x="1674" y="450" />
<text class="memory-name" x="1671" y="462">Xn+off7</text>
<rect fill="#DEE6F1" height="24" width="96" x="1482" y="486" />
<rect fill="none" height="24" stroke="#405C86" stroke-width="2" width="96" x="1482" y="486" />
<text class="memory-name" x="1479" y="498">Xn+off8</text>
<rect fill="#DEE6F1" height="24" width="96" x="1290" y="522" />
<rect fill="none" height="24" stroke="#405C86" stroke-width="2" width="96" x="1290" y="522" />
<text class="memory-name" x="1287" y="534">Xn+off9</text>
<rect fill="#DEE6F1" height="24" width="96" x="1098" y="558" />
<rect fill="none" height="24" stroke="#405C86" stroke-width="2" width="96" x="1098" y="558" />
<text class="memory-name" x="1095" y="570">Xn+off10</text>
<rect fill="#DEE6F1" height="24" width="96" x="906" y="594" />
<rect fill="none" height="24" stroke="#405C86" stroke-width="2" width="96" x="906" y="594" />
<text class="memory-name" x="903" y="606">Xn+off11</text>
<rect fill="#DEE6F1" height="24" width="96" x="714" y="630" />
<rect fill="none" height="24" stroke="#405C86" stroke-width="2" width="96" x="714" y="630" />
<text class="memory-name" x="711" y="642">Xn+off12</text>
<rect fill="#DEE6F1" height="24" width="96" x="522" y="666" />
<rect fill="none" height="24" stroke="#405C86" stroke-width="2" width="96" x="522" y="666" />
<text class="memory-name" x="519" y="678">Xn+off13</text>
<rect fill="#DEE6F1" height="24" width="96" x="330" y="702" />
<rect fill="none" height="24" stroke="#405C86" stroke-width="2" width="96" x="330" y="702" />
<text class="memory-name" x="327" y="714">Xn+off14</text>
<rect fill="#DEE6F1" height="24" width="96" x="138" y="738" />
<rect fill="none" height="24" stroke="#405C86" stroke-width="2" width="96" x="138" y="738" />
<text class="memory-name" x="135" y="750">Xn+off15</text>
<polyline fill="none" points="2973.0 65.5,2975.0 61.5,3065.0 61.5,3066.0 59.5,3066.0 55.5,3066.0 59.5,3067.0 61.5,3157.0 61.5,3159.0 65.5" stroke="#567DB6" stroke-width="1" />
<line stroke="#567DB6" stroke-width="1" x1="3066" x2="3066" y1="42.5" y2="55.5" />
<polyline fill="none" points="2781.0 65.5,2783.0 61.5,2873.0 61.5,2874.0 59.5,2874.0 55.5,2874.0 59.5,2875.0 61.5,2965.0 61.5,2967.0 65.5" stroke="#567DB6" stroke-width="1" />
<line stroke="#567DB6" stroke-width="1" x1="2874" x2="2874" y1="42.5" y2="55.5" />
<polyline fill="none" points="2589.0 65.5,2591.0 61.5,2681.0 61.5,2682.0 59.5,2682.0 55.5,2682.0 59.5,2683.0 61.5,2773.0 61.5,2775.0 65.5" stroke="#567DB6" stroke-width="1" />
<line stroke="#567DB6" stroke-width="1" x1="2682" x2="2682" y1="42.5" y2="55.5" />
<polyline fill="none" points="2397.0 65.5,2399.0 61.5,2489.0 61.5,2490.0 59.5,2490.0 55.5,2490.0 59.5,2491.0 61.5,2581.0 61.5,2583.0 65.5" stroke="#567DB6" stroke-width="1" />
<line stroke="#567DB6" stroke-width="1" x1="2490" x2="2490" y1="42.5" y2="55.5" />
<polyline fill="none" points="2205.0 65.5,2207.0 61.5,2297.0 61.5,2298.0 59.5,2298.0 55.5,2298.0 59.5,2299.0 61.5,2389.0 61.5,2391.0 65.5" stroke="#567DB6" stroke-width="1" />
<line stroke="#567DB6" stroke-width="1" x1="2298" x2="2298" y1="42.5" y2="55.5" />
<polyline fill="none" points="2013.0 65.5,2015.0 61.5,2105.0 61.5,2106.0 59.5,2106.0 55.5,2106.0 59.5,2107.0 61.5,2197.0 61.5,2199.0 65.5" stroke="#567DB6" stroke-width="1" />
<line stroke="#567DB6" stroke-width="1" x1="2106" x2="2106" y1="42.5" y2="55.5" />
<polyline fill="none" points="1821.0 65.5,1823.0 61.5,1913.0 61.5,1914.0 59.5,1914.0 55.5,1914.0 59.5,1915.0 61.5,2005.0 61.5,2007.0 65.5" stroke="#567DB6" stroke-width="1" />
<line stroke="#567DB6" stroke-width="1" x1="1914" x2="1914" y1="42.5" y2="55.5" />
<polyline fill="none" points="1629.0 65.5,1631.0 61.5,1721.0 61.5,1722.0 59.5,1722.0 55.5,1722.0 59.5,1723.0 61.5,1813.0 61.5,1815.0 65.5" stroke="#567DB6" stroke-width="1" />
<line stroke="#567DB6" stroke-width="1" x1="1722" x2="1722" y1="42.5" y2="55.5" />
<polyline fill="none" points="1437.0 65.5,1439.0 61.5,1529.0 61.5,1530.0 59.5,1530.0 55.5,1530.0 59.5,1531.0 61.5,1621.0 61.5,1623.0 65.5" stroke="#567DB6" stroke-width="1" />
<line stroke="#567DB6" stroke-width="1" x1="1530" x2="1530" y1="42.5" y2="55.5" />
<polyline fill="none" points="1245.0 65.5,1247.0 61.5,1337.0 61.5,1338.0 59.5,1338.0 55.5,1338.0 59.5,1339.0 61.5,1429.0 61.5,1431.0 65.5" stroke="#567DB6" stroke-width="1" />
<line stroke="#567DB6" stroke-width="1" x1="1338" x2="1338" y1="42.5" y2="55.5" />
<polyline fill="none" points="1053.0 65.5,1055.0 61.5,1145.0 61.5,1146.0 59.5,1146.0 55.5,1146.0 59.5,1147.0 61.5,1237.0 61.5,1239.0 65.5" stroke="#567DB6" stroke-width="1" />
<line stroke="#567DB6" stroke-width="1" x1="1146" x2="1146" y1="42.5" y2="55.5" />
<polyline fill="none" points="861.0 65.5,863.0 61.5,953.0 61.5,954.0 59.5,954.0 55.5,954.0 59.5,955.0 61.5,1045.0 61.5,1047.0 65.5" stroke="#567DB6" stroke-width="1" />
<line stroke="#567DB6" stroke-width="1" x1="954" x2="954" y1="42.5" y2="55.5" />
<polyline fill="none" points="669.0 65.5,671.0 61.5,761.0 61.5,762.0 59.5,762.0 55.5,762.0 59.5,763.0 61.5,853.0 61.5,855.0 65.5" stroke="#567DB6" stroke-width="1" />
<line stroke="#567DB6" stroke-width="1" x1="762" x2="762" y1="42.5" y2="55.5" />
<polyline fill="none" points="477.0 65.5,479.0 61.5,569.0 61.5,570.0 59.5,570.0 55.5,570.0 59.5,571.0 61.5,661.0 61.5,663.0 65.5" stroke="#567DB6" stroke-width="1" />
<line stroke="#567DB6" stroke-width="1" x1="570" x2="570" y1="42.5" y2="55.5" />
<polyline fill="none" points="285.0 65.5,287.0 61.5,377.0 61.5,378.0 59.5,378.0 55.5,378.0 59.5,379.0 61.5,469.0 61.5,471.0 65.5" stroke="#567DB6" stroke-width="1" />
<line stroke="#567DB6" stroke-width="1" x1="378" x2="378" y1="42.5" y2="55.5" />
<polyline fill="none" points="93.0 65.5,95.0 61.5,185.0 61.5,186.0 59.5,186.0 55.5,186.0 59.5,187.0 61.5,277.0 61.5,279.0 65.5" stroke="#567DB6" stroke-width="1" />
<line stroke="#567DB6" stroke-width="1" x1="186" x2="186" y1="42.5" y2="55.5" />
<line stroke="#567DB6" stroke-dasharray="3 1" stroke-width="1" x1="3018" x2="3003" y1="90.5" y2="200.5" />
<line stroke="#567DB6" stroke-width="1" x1="3114" x2="3066" y1="138.5" y2="197" />
<line stroke="#567DB6" stroke-dasharray="3 1" stroke-width="1" x1="2826" x2="2811" y1="90.5" y2="236.5" />
<line stroke="#567DB6" stroke-width="1" x1="2922" x2="2874" y1="138.5" y2="233" />
<line stroke="#567DB6" stroke-dasharray="3 1" stroke-width="1" x1="2634" x2="2619" y1="90.5" y2="272.5" />
<line stroke="#567DB6" stroke-width="1" x1="2730" x2="2682" y1="138.5" y2="269" />
<line stroke="#567DB6" stroke-dasharray="3 1" stroke-width="1" x1="2442" x2="2427" y1="90.5" y2="308.5" />
<line stroke="#567DB6" stroke-width="1" x1="2538" x2="2490" y1="138.5" y2="305" />
<line stroke="#567DB6" stroke-dasharray="3 1" stroke-width="1" x1="2250" x2="2235" y1="90.5" y2="344.5" />
<line stroke="#567DB6" stroke-width="1" x1="2346" x2="2298" y1="138.5" y2="341" />
<line stroke="#567DB6" stroke-dasharray="3 1" stroke-width="1" x1="2058" x2="2043" y1="90.5" y2="380.5" />
<line stroke="#567DB6" stroke-width="1" x1="2154" x2="2106" y1="138.5" y2="377" />
<line stroke="#567DB6" stroke-dasharray="3 1" stroke-width="1" x1="1866" x2="1851" y1="90.5" y2="416.5" />
<line stroke="#567DB6" stroke-width="1" x1="1962" x2="1914" y1="138.5" y2="413" />
<line stroke="#567DB6" stroke-dasharray="3 1" stroke-width="1" x1="1674" x2="1659" y1="90.5" y2="452.5" />
<line stroke="#567DB6" stroke-width="1" x1="1770" x2="1722" y1="138.5" y2="449" />
<line stroke="#567DB6" stroke-dasharray="3 1" stroke-width="1" x1="1482" x2="1467" y1="90.5" y2="488.5" />
<line stroke="#567DB6" stroke-width="1" x1="1578" x2="1530" y1="138.5" y2="485" />
<line stroke="#567DB6" stroke-dasharray="3 1" stroke-width="1" x1="1290" x2="1275" y1="90.5" y2="524.5" />
<line stroke="#567DB6" stroke-width="1" x1="1386" x2="1338" y1="138.5" y2="521" />
<line stroke="#567DB6" stroke-dasharray="3 1" stroke-width="1" x1="1098" x2="1083" y1="90.5" y2="560.5" />
<line stroke="#567DB6" stroke-width="1" x1="1194" x2="1146" y1="138.5" y2="557" />
<line stroke="#567DB6" stroke-dasharray="3 1" stroke-width="1" x1="906" x2="891" y1="90.5" y2="596.5" />
<line stroke="#567DB6" stroke-width="1" x1="1002" x2="954" y1="138.5" y2="593" />
<line stroke="#567DB6" stroke-dasharray="3 1" stroke-width="1" x1="714" x2="699" y1="90.5" y2="632.5" />
<line stroke="#567DB6" stroke-width="1" x1="810" x2="762" y1="138.5" y2="629" />
<line stroke="#567DB6" stroke-dasharray="3 1" stroke-width="1" x1="522" x2="507" y1="90.5" y2="668.5" />
<line stroke="#567DB6" stroke-width="1" x1="618" x2="570" y1="138.5" y2="665" />
<line stroke="#567DB6" stroke-dasharray="3 1" stroke-width="1" x1="330" x2="315" y1="90.5" y2="704.5" />
<line stroke="#567DB6" stroke-width="1" x1="426" x2="378" y1="138.5" y2="701" />
<line stroke="#567DB6" stroke-dasharray="3 1" stroke-width="1" x1="138" x2="123" y1="90.5" y2="740.5" />
<line stroke="#567DB6" stroke-width="1" x1="234" x2="186" y1="138.5" y2="737" />
<text class="title-left" x="85" y="184">specify memory locations of 32-bit values</text>
<text class="title-left" x="85" y="196">off is offset in bytes</text>
<line marker-end="url(#arrowhead)" stroke="none" stroke-dasharray="3 1" x1="3018" x2="3003" y1="90.5" y2="200.5" />
<line marker-end="url(#arrowhead)" stroke="none" x1="3114" x2="3066" y1="138.5" y2="197" />
<line marker-end="url(#arrowhead)" stroke="none" stroke-dasharray="3 1" x1="2826" x2="2811" y1="90.5" y2="236.5" />
<line marker-end="url(#arrowhead)" stroke="none" x1="2922" x2="2874" y1="138.5" y2="233" />
<line marker-end="url(#arrowhead)" stroke="none" stroke-dasharray="3 1" x1="2634" x2="2619" y1="90.5" y2="272.5" />
<line marker-end="url(#arrowhead)" stroke="none" x1="2730" x2="2682" y1="138.5" y2="269" />
<line marker-end="url(#arrowhead)" stroke="none" stroke-dasharray="3 1" x1="2442" x2="2427" y1="90.5" y2="308.5" />
<line marker-end="url(#arrowhead)" stroke="none" x1="2538" x2="2490" y1="138.5" y2="305" />
<line marker-end="url(#arrowhead)" stroke="none" stroke-dasharray="3 1" x1="2250" x2="2235" y1="90.5" y2="344.5" />
<line marker-end="url(#arrowhead)" stroke="none" x1="2346" x2="2298" y1="138.5" y2="341" />
<line marker-end="url(#arrowhead)" stroke="none" stroke-dasharray="3 1" x1="2058" x2="2043" y1="90.5" y2="380.5" />
<line marker-end="url(#arrowhead)" stroke="none" x1="2154" x2="2106" y1="138.5" y2="377" />
<line marker-end="url(#arrowhead)" stroke="none" stroke-dasharray="3 1" x1="1866" x2="1851" y1="90.5" y2="416.5" />
<line marker-end="url(#arrowhead)" stroke="none" x1="1962" x2="1914" y1="138.5" y2="413" />
<line marker-end="url(#arrowhead)" stroke="none" stroke-dasharray="3 1" x1="1674" x2="1659" y1="90.5" y2="452.5" />
<line marker-end="url(#arrowhead)" stroke="none" x1="1770" x2="1722" y1="138.5" y2="449" />
<line marker-end="url(#arrowhead)" stroke="none" stroke-dasharray="3 1" x1="1482" x2="1467" y1="90.5" y2="488.5" />
<line marker-end="url(#arrowhead)" stroke="none" x1="1578" x2="1530" y1="138.5" y2="485" />
<line marker-end="url(#arrowhead)" stroke="none" stroke-dasharray="3 1" x1="1290" x2="1275" y1="90.5" y2="524.5" />
<line marker-end="url(#arrowhead)" stroke="none" x1="1386" x2="1338" y1="138.5" y2="521" />
<line marker-end="url(#arrowhead)" stroke="none" stroke-dasharray="3 1" x1="1098" x2="1083" y1="90.5" y2="560.5" />
<line marker-end="url(#arrowhead)" stroke="none" x1="1194" x2="1146" y1="138.5" y2="557" />
<line marker-end="url(#arrowhead)" stroke="none" stroke-dasharray="3 1" x1="906" x2="891" y1="90.5" y2="596.5" />
<line marker-end="url(#arrowhead)" stroke="none" x1="1002" x2="954" y1="138.5" y2="593" />
<line marker-end="url(#arrowhead)" stroke="none" stroke-dasharray="3 1" x1="714" x2="699" y1="90.5" y2="632.5" />
<line marker-end="url(#arrowhead)" stroke="none" x1="810" x2="762" y1="138.5" y2="629" />
<line marker-end="url(#arrowhead)" stroke="none" stroke-dasharray="3 1" x1="522" x2="507" y1="90.5" y2="668.5" />
<line marker-end="url(#arrowhead)" stroke="none" x1="618" x2="570" y1="138.5" y2="665" />
<line marker-end="url(#arrowhead)" stroke="none" stroke-dasharray="3 1" x1="330" x2="315" y1="90.5" y2="704.5" />
<line marker-end="url(#arrowhead)" stroke="none" x1="426" x2="378" y1="138.5" y2="701" />
<line marker-end="url(#arrowhead)" stroke="none" stroke-dasharray="3 1" x1="138" x2="123" y1="90.5" y2="740.5" />
<line marker-end="url(#arrowhead)" stroke="none" x1="234" x2="186" y1="138.5" y2="737" />
</svg>