<svg xmlns="http://www.w3.org/2000/svg" viewBox="0 0 870 339">
<style>
.label { font: 14px Helvetica; dominant-baseline: middle; text-anchor: middle; }
.title-left { font: 12px Helvetica; dominant-baseline: middle; }
.title-right { font: 12px Helvetica; dominant-baseline: middle; text-anchor: end; }
.title-intrinsic { font: 12px Helvetica; dominant-baseline: middle; text-anchor: middle; fill: #6778ED; }
.title { font: 12px Helvetica; dominant-baseline: middle; text-anchor: middle; }
.title-unused { font: 12px Helvetica; dominant-baseline: middle; text-anchor: middle; fill: #AAA; }
.register-name { font: 14px Helvetica; dominant-baseline: middle; text-anchor: end; font-style: italic; }
.memory-name { font: 14px Helvetica; dominant-baseline: middle; text-anchor: end; }
.register-number { font: 14px Helvetica; dominant-baseline: middle; text-anchor: start; }
.intrinsic-name { font: 14px Helvetica; dominant-baseline: middle; text-anchor: end; fill: #6778ED; }
.intrinsic-color { fill: #6778ED; }
.small-label { font: 12px Helvetica; dominant-baseline: middle; text-anchor: middle; }
.label-10px { font: 10px Helvetica; dominant-baseline: middle; text-anchor: middle; }
.smaller-label { font: 9px Helvetica; dominant-baseline: middle; text-anchor: middle; }
.label-6px { font: 6px Helvetica; dominant-baseline: middle; text-anchor: middle; }
.label-7px { font: 7px Helvetica; dominant-baseline: middle; text-anchor: middle; }
.unused { fill: #AAA; }
.dim { fill: #888; }
</style>
<defs>
<marker id="arrowhead" markerWidth="10.75" markerHeight="24.5" refX="9.0" refY="6.125" orient="auto">
<polyline points="0.5 0.5, 8.75 6.125, 0.5 11.75" stroke="#567DB6" stroke-width="1" fill="none"/>
</marker>
</defs>
<line stroke="#567DB6" stroke-width="1" x1="810" x2="810" y1="114.5" y2="119.5" />
<line stroke="#567DB6" stroke-width="1" x1="714" x2="714" y1="114.5" y2="119.5" />
<line stroke="#567DB6" stroke-width="1" x1="618" x2="618" y1="114.5" y2="119.5" />
<line stroke="#567DB6" stroke-width="1" x1="522" x2="522" y1="114.5" y2="119.5" />
<line stroke="#567DB6" stroke-width="1" x1="426" x2="426" y1="114.5" y2="119.5" />
<line stroke="#567DB6" stroke-width="1" x1="330" x2="330" y1="114.5" y2="119.5" />
<line stroke="#567DB6" stroke-width="1" x1="234" x2="234" y1="114.5" y2="119.5" />
<line stroke="#567DB6" stroke-width="1" x1="138" x2="138" y1="114.5" y2="119.5" />
<line stroke="#567DB6" stroke-width="1" x1="810" x2="810" y1="180.5" y2="185.5" />
<line stroke="#567DB6" stroke-width="1" x1="714" x2="714" y1="180.5" y2="185.5" />
<line stroke="#567DB6" stroke-width="1" x1="618" x2="618" y1="180.5" y2="185.5" />
<line stroke="#567DB6" stroke-width="1" x1="522" x2="522" y1="180.5" y2="185.5" />
<line stroke="#567DB6" stroke-width="1" x1="426" x2="426" y1="180.5" y2="185.5" />
<line stroke="#567DB6" stroke-width="1" x1="330" x2="330" y1="180.5" y2="185.5" />
<line stroke="#567DB6" stroke-width="1" x1="234" x2="234" y1="180.5" y2="185.5" />
<line stroke="#567DB6" stroke-width="1" x1="138" x2="138" y1="180.5" y2="185.5" />
<polyline fill="none" points="99.0 90.0,101.0 86.0,455.0 86.0,456.0 84.0,456.0 80.0,456.0 84.0,457.0 86.0,811.0 86.0,813.0 90.0" stroke="#567DB6" stroke-width="1" />
<polyline fill="none" points="363.0 42.5,365.0 46.5,455.0 46.5,456.0 48.5,456.0 52.5,456.0 48.5,457.0 46.5,547.0 46.5,549.0 42.5" stroke="#567DB6" stroke-width="1" />
<line stroke="#567DB6" stroke-width="1" x1="456" x2="456" y1="52.5" y2="80" />
<line stroke="#567DB6" stroke-width="1" x1="800" x2="800" y1="144.5" y2="257" />
<line stroke="#567DB6" stroke-width="1" x1="704" x2="704" y1="144.5" y2="257" />
<line stroke="#567DB6" stroke-width="1" x1="608" x2="608" y1="144.5" y2="257" />
<line stroke="#567DB6" stroke-width="1" x1="512" x2="512" y1="144.5" y2="257" />
<line stroke="#567DB6" stroke-width="1" x1="416" x2="416" y1="144.5" y2="257" />
<line stroke="#567DB6" stroke-width="1" x1="320" x2="320" y1="144.5" y2="257" />
<line stroke="#567DB6" stroke-width="1" x1="224" x2="224" y1="144.5" y2="257" />
<line stroke="#567DB6" stroke-width="1" x1="128" x2="128" y1="144.5" y2="257" />
<line stroke="#567DB6" stroke-dasharray="3 1" stroke-width="1" x1="820" x2="820" y1="210.5" y2="305" />
<line stroke="#567DB6" stroke-dasharray="3 1" stroke-width="1" x1="724" x2="724" y1="210.5" y2="305" />
<line stroke="#567DB6" stroke-dasharray="3 1" stroke-width="1" x1="628" x2="628" y1="210.5" y2="305" />
<line stroke="#567DB6" stroke-dasharray="3 1" stroke-width="1" x1="532" x2="532" y1="210.5" y2="305" />
<line stroke="#567DB6" stroke-dasharray="3 1" stroke-width="1" x1="436" x2="436" y1="210.5" y2="305" />
<line stroke="#567DB6" stroke-dasharray="3 1" stroke-width="1" x1="340" x2="340" y1="210.5" y2="305" />
<line stroke="#567DB6" stroke-dasharray="3 1" stroke-width="1" x1="244" x2="244" y1="210.5" y2="305" />
<line stroke="#567DB6" stroke-dasharray="3 1" stroke-width="1" x1="148" x2="148" y1="210.5" y2="305" />
<text class="title-left" x="90" y="9">upper</text>
<text class="title-right" x="858" y="9">lower</text>
<text class="label" x="457.5" y="62.5">decode predicate-as-counter</text>
<rect fill="#DEE6F1" height="24" width="96" x="762" y="120" />
<rect fill="none" height="24" stroke="#405C86" stroke-width="2" width="96" x="762" y="120" />
<rect fill="#DEE6F1" height="24" width="96" x="666" y="120" />
<rect fill="none" height="24" stroke="#405C86" stroke-width="2" width="96" x="666" y="120" />
<rect fill="#DEE6F1" height="24" width="96" x="570" y="120" />
<rect fill="none" height="24" stroke="#405C86" stroke-width="2" width="96" x="570" y="120" />
<rect fill="#DEE6F1" height="24" width="96" x="474" y="120" />
<rect fill="none" height="24" stroke="#405C86" stroke-width="2" width="96" x="474" y="120" />
<rect fill="#DEE6F1" height="24" width="96" x="378" y="120" />
<rect fill="none" height="24" stroke="#405C86" stroke-width="2" width="96" x="378" y="120" />
<rect fill="#DEE6F1" height="24" width="96" x="282" y="120" />
<rect fill="none" height="24" stroke="#405C86" stroke-width="2" width="96" x="282" y="120" />
<rect fill="#DEE6F1" height="24" width="96" x="186" y="120" />
<rect fill="none" height="24" stroke="#405C86" stroke-width="2" width="96" x="186" y="120" />
<rect fill="#DEE6F1" height="24" width="96" x="90" y="120" />
<rect fill="none" height="24" stroke="#405C86" stroke-width="2" width="96" x="90" y="120" />
<text class="register-name" x="80" y="132">Zt1</text>
<text class="register-number" x="10" y="132">(2)</text>
<rect fill="#EEDDDB" height="24" width="96" x="762" y="186" />
<rect fill="none" height="24" stroke="#405C86" stroke-width="2" width="96" x="762" y="186" />
<rect fill="#EEDDDB" height="24" width="96" x="666" y="186" />
<rect fill="none" height="24" stroke="#405C86" stroke-width="2" width="96" x="666" y="186" />
<rect fill="#EEDDDB" height="24" width="96" x="570" y="186" />
<rect fill="none" height="24" stroke="#405C86" stroke-width="2" width="96" x="570" y="186" />
<rect fill="#EEDDDB" height="24" width="96" x="474" y="186" />
<rect fill="none" height="24" stroke="#405C86" stroke-width="2" width="96" x="474" y="186" />
<rect fill="#EEDDDB" height="24" width="96" x="378" y="186" />
<rect fill="none" height="24" stroke="#405C86" stroke-width="2" width="96" x="378" y="186" />
<rect fill="#EEDDDB" height="24" width="96" x="282" y="186" />
<rect fill="none" height="24" stroke="#405C86" stroke-width="2" width="96" x="282" y="186" />
<rect fill="#EEDDDB" height="24" width="96" x="186" y="186" />
<rect fill="none" height="24" stroke="#405C86" stroke-width="2" width="96" x="186" y="186" />
<rect fill="#EEDDDB" height="24" width="96" x="90" y="186" />
<rect fill="none" height="24" stroke="#405C86" stroke-width="2" width="96" x="90" y="186" />
<text class="register-name" x="80" y="198">Zt2</text>
<text class="register-number" x="10" y="198">(3)</text>
<rect fill="#CAD8EF" height="24" width="12" x="540" y="18" />
<rect fill="none" height="24" stroke="#405C86" stroke-width="2" width="12" x="540" y="18" />
<rect fill="#CAD8EF" height="24" width="12" x="528" y="18" />
<rect fill="none" height="24" stroke="#405C86" stroke-width="2" width="12" x="528" y="18" />
<rect fill="#CAD8EF" height="24" width="12" x="516" y="18" />
<rect fill="none" height="24" stroke="#405C86" stroke-width="2" width="12" x="516" y="18" />
<rect fill="#CAD8EF" height="24" width="12" x="504" y="18" />
<rect fill="none" height="24" stroke="#405C86" stroke-width="2" width="12" x="504" y="18" />
<rect fill="#CAD8EF" height="24" width="12" x="492" y="18" />
<rect fill="none" height="24" stroke="#405C86" stroke-width="2" width="12" x="492" y="18" />
<rect fill="#CAD8EF" height="24" width="12" x="480" y="18" />
<rect fill="none" height="24" stroke="#405C86" stroke-width="2" width="12" x="480" y="18" />
<rect fill="#CAD8EF" height="24" width="12" x="468" y="18" />
<rect fill="none" height="24" stroke="#405C86" stroke-width="2" width="12" x="468" y="18" />
<rect fill="#CAD8EF" height="24" width="12" x="456" y="18" />
<rect fill="none" height="24" stroke="#405C86" stroke-width="2" width="12" x="456" y="18" />
<rect fill="#CAD8EF" height="24" width="12" x="444" y="18" />
<rect fill="none" height="24" stroke="#405C86" stroke-width="2" width="12" x="444" y="18" />
<rect fill="#CAD8EF" height="24" width="12" x="432" y="18" />
<rect fill="none" height="24" stroke="#405C86" stroke-width="2" width="12" x="432" y="18" />
<rect fill="#CAD8EF" height="24" width="12" x="420" y="18" />
<rect fill="none" height="24" stroke="#405C86" stroke-width="2" width="12" x="420" y="18" />
<rect fill="#CAD8EF" height="24" width="12" x="408" y="18" />
<rect fill="none" height="24" stroke="#405C86" stroke-width="2" width="12" x="408" y="18" />
<rect fill="#CAD8EF" height="24" width="12" x="396" y="18" />
<rect fill="none" height="24" stroke="#405C86" stroke-width="2" width="12" x="396" y="18" />
<rect fill="#CAD8EF" height="24" width="12" x="384" y="18" />
<rect fill="none" height="24" stroke="#405C86" stroke-width="2" width="12" x="384" y="18" />
<rect fill="#CAD8EF" height="24" width="12" x="372" y="18" />
<rect fill="none" height="24" stroke="#405C86" stroke-width="2" width="12" x="372" y="18" />
<rect fill="#CAD8EF" height="24" width="12" x="360" y="18" />
<rect fill="none" height="24" stroke="#405C86" stroke-width="2" width="12" x="360" y="18" />
<rect fill="none" height="24" stroke="#405C86" stroke-dasharray="3 1" stroke-dashoffset="1.5" stroke-width="1" width="192" x="168" y="18" />
<text class="label unused" x="264" y="31"></text>
<text class="register-name" x="80" y="30">PNg</text>
<text class="register-number" x="10" y="30">(1)</text>
<rect fill="#DEE6F1" height="24" width="96" x="762" y="258" />
<rect fill="none" height="24" stroke="#405C86" stroke-width="2" width="96" x="762" y="258" />
<text class="small-label intrinsic-color" x="810" y="271">base[0]</text>
<rect fill="#DEE6F1" height="24" width="96" x="666" y="258" />
<rect fill="none" height="24" stroke="#405C86" stroke-width="2" width="96" x="666" y="258" />
<text class="small-label intrinsic-color" x="714" y="271">base[1]</text>
<rect fill="#DEE6F1" height="24" width="96" x="570" y="258" />
<rect fill="none" height="24" stroke="#405C86" stroke-width="2" width="96" x="570" y="258" />
<text class="small-label intrinsic-color" x="618" y="271">base[2]</text>
<rect fill="#DEE6F1" height="24" width="96" x="474" y="258" />
<rect fill="none" height="24" stroke="#405C86" stroke-width="2" width="96" x="474" y="258" />
<text class="small-label intrinsic-color" x="522" y="271">base[3]</text>
<rect fill="#DEE6F1" height="24" width="96" x="378" y="258" />
<rect fill="none" height="24" stroke="#405C86" stroke-width="2" width="96" x="378" y="258" />
<text class="small-label intrinsic-color" x="426" y="271">base[4]</text>
<rect fill="#DEE6F1" height="24" width="96" x="282" y="258" />
<rect fill="none" height="24" stroke="#405C86" stroke-width="2" width="96" x="282" y="258" />
<text class="small-label intrinsic-color" x="330" y="271">base[5]</text>
<rect fill="#DEE6F1" height="24" width="96" x="186" y="258" />
<rect fill="none" height="24" stroke="#405C86" stroke-width="2" width="96" x="186" y="258" />
<text class="small-label intrinsic-color" x="234" y="271">base[6]</text>
<rect fill="#DEE6F1" height="24" width="96" x="90" y="258" />
<rect fill="none" height="24" stroke="#405C86" stroke-width="2" width="96" x="90" y="258" />
<text class="small-label intrinsic-color" x="138" y="271">base[7]</text>
<text class="register-name" x="80" y="270">[mem]</text>
<text class="register-number" x="10" y="270">(4)</text>
<rect fill="#EEDDDB" height="24" width="96" x="762" y="306" />
<rect fill="none" height="24" stroke="#405C86" stroke-width="2" width="96" x="762" y="306" />
<text class="small-label intrinsic-color" x="810" y="319">base[8]</text>
<rect fill="#EEDDDB" height="24" width="96" x="666" y="306" />
<rect fill="none" height="24" stroke="#405C86" stroke-width="2" width="96" x="666" y="306" />
<text class="small-label intrinsic-color" x="714" y="319">base[9]</text>
<rect fill="#EEDDDB" height="24" width="96" x="570" y="306" />
<rect fill="none" height="24" stroke="#405C86" stroke-width="2" width="96" x="570" y="306" />
<text class="small-label intrinsic-color" x="618" y="319">base[10]</text>
<rect fill="#EEDDDB" height="24" width="96" x="474" y="306" />
<rect fill="none" height="24" stroke="#405C86" stroke-width="2" width="96" x="474" y="306" />
<text class="small-label intrinsic-color" x="522" y="319">base[11]</text>
<rect fill="#EEDDDB" height="24" width="96" x="378" y="306" />
<rect fill="none" height="24" stroke="#405C86" stroke-width="2" width="96" x="378" y="306" />
<text class="small-label intrinsic-color" x="426" y="319">base[12]</text>
<rect fill="#EEDDDB" height="24" width="96" x="282" y="306" />
<rect fill="none" height="24" stroke="#405C86" stroke-width="2" width="96" x="282" y="306" />
<text class="small-label intrinsic-color" x="330" y="319">base[13]</text>
<rect fill="#EEDDDB" height="24" width="96" x="186" y="306" />
<rect fill="none" height="24" stroke="#405C86" stroke-width="2" width="96" x="186" y="306" />
<text class="small-label intrinsic-color" x="234" y="319">base[14]</text>
<rect fill="#EEDDDB" height="24" width="96" x="90" y="306" />
<rect fill="none" height="24" stroke="#405C86" stroke-width="2" width="96" x="90" y="306" />
<text class="small-label intrinsic-color" x="138" y="319">base[15]</text>
<rect fill="#DCD9C5" height="24" width="12" x="804" y="90" />
<rect fill="none" height="24" stroke="#405C86" stroke-width="2" width="12" x="804" y="90" />
<rect fill="none" height="24" stroke="#405C86" stroke-dasharray="3 1" stroke-dashoffset="1.5" stroke-width="1" width="12" x="792" y="90" />
<text class="label unused" x="798" y="103"></text>
<rect fill="none" height="24" stroke="#405C86" stroke-dasharray="3 1" stroke-dashoffset="1.5" stroke-width="1" width="12" x="780" y="90" />
<text class="label unused" x="786" y="103"></text>
<rect fill="none" height="24" stroke="#405C86" stroke-dasharray="3 1" stroke-dashoffset="1.5" stroke-width="1" width="12" x="768" y="90" />
<text class="label unused" x="774" y="103"></text>
<rect fill="#DCD9C5" height="24" width="12" x="708" y="90" />
<rect fill="none" height="24" stroke="#405C86" stroke-width="2" width="12" x="708" y="90" />
<rect fill="none" height="24" stroke="#405C86" stroke-dasharray="3 1" stroke-dashoffset="1.5" stroke-width="1" width="12" x="696" y="90" />
<text class="label unused" x="702" y="103"></text>
<rect fill="none" height="24" stroke="#405C86" stroke-dasharray="3 1" stroke-dashoffset="1.5" stroke-width="1" width="12" x="684" y="90" />
<text class="label unused" x="690" y="103"></text>
<rect fill="none" height="24" stroke="#405C86" stroke-dasharray="3 1" stroke-dashoffset="1.5" stroke-width="1" width="12" x="672" y="90" />
<text class="label unused" x="678" y="103"></text>
<rect fill="#DCD9C5" height="24" width="12" x="612" y="90" />
<rect fill="none" height="24" stroke="#405C86" stroke-width="2" width="12" x="612" y="90" />
<rect fill="none" height="24" stroke="#405C86" stroke-dasharray="3 1" stroke-dashoffset="1.5" stroke-width="1" width="12" x="600" y="90" />
<text class="label unused" x="606" y="103"></text>
<rect fill="none" height="24" stroke="#405C86" stroke-dasharray="3 1" stroke-dashoffset="1.5" stroke-width="1" width="12" x="588" y="90" />
<text class="label unused" x="594" y="103"></text>
<rect fill="none" height="24" stroke="#405C86" stroke-dasharray="3 1" stroke-dashoffset="1.5" stroke-width="1" width="12" x="576" y="90" />
<text class="label unused" x="582" y="103"></text>
<rect fill="#DCD9C5" height="24" width="12" x="516" y="90" />
<rect fill="none" height="24" stroke="#405C86" stroke-width="2" width="12" x="516" y="90" />
<rect fill="none" height="24" stroke="#405C86" stroke-dasharray="3 1" stroke-dashoffset="1.5" stroke-width="1" width="12" x="504" y="90" />
<text class="label unused" x="510" y="103"></text>
<rect fill="none" height="24" stroke="#405C86" stroke-dasharray="3 1" stroke-dashoffset="1.5" stroke-width="1" width="12" x="492" y="90" />
<text class="label unused" x="498" y="103"></text>
<rect fill="none" height="24" stroke="#405C86" stroke-dasharray="3 1" stroke-dashoffset="1.5" stroke-width="1" width="12" x="480" y="90" />
<text class="label unused" x="486" y="103"></text>
<rect fill="#DCD9C5" height="24" width="12" x="420" y="90" />
<rect fill="none" height="24" stroke="#405C86" stroke-width="2" width="12" x="420" y="90" />
<rect fill="none" height="24" stroke="#405C86" stroke-dasharray="3 1" stroke-dashoffset="1.5" stroke-width="1" width="12" x="408" y="90" />
<text class="label unused" x="414" y="103"></text>
<rect fill="none" height="24" stroke="#405C86" stroke-dasharray="3 1" stroke-dashoffset="1.5" stroke-width="1" width="12" x="396" y="90" />
<text class="label unused" x="402" y="103"></text>
<rect fill="none" height="24" stroke="#405C86" stroke-dasharray="3 1" stroke-dashoffset="1.5" stroke-width="1" width="12" x="384" y="90" />
<text class="label unused" x="390" y="103"></text>
<rect fill="#DCD9C5" height="24" width="12" x="324" y="90" />
<rect fill="none" height="24" stroke="#405C86" stroke-width="2" width="12" x="324" y="90" />
<rect fill="none" height="24" stroke="#405C86" stroke-dasharray="3 1" stroke-dashoffset="1.5" stroke-width="1" width="12" x="312" y="90" />
<text class="label unused" x="318" y="103"></text>
<rect fill="none" height="24" stroke="#405C86" stroke-dasharray="3 1" stroke-dashoffset="1.5" stroke-width="1" width="12" x="300" y="90" />
<text class="label unused" x="306" y="103"></text>
<rect fill="none" height="24" stroke="#405C86" stroke-dasharray="3 1" stroke-dashoffset="1.5" stroke-width="1" width="12" x="288" y="90" />
<text class="label unused" x="294" y="103"></text>
<rect fill="#DCD9C5" height="24" width="12" x="228" y="90" />
<rect fill="none" height="24" stroke="#405C86" stroke-width="2" width="12" x="228" y="90" />
<rect fill="none" height="24" stroke="#405C86" stroke-dasharray="3 1" stroke-dashoffset="1.5" stroke-width="1" width="12" x="216" y="90" />
<text class="label unused" x="222" y="103"></text>
<rect fill="none" height="24" stroke="#405C86" stroke-dasharray="3 1" stroke-dashoffset="1.5" stroke-width="1" width="12" x="204" y="90" />
<text class="label unused" x="210" y="103"></text>
<rect fill="none" height="24" stroke="#405C86" stroke-dasharray="3 1" stroke-dashoffset="1.5" stroke-width="1" width="12" x="192" y="90" />
<text class="label unused" x="198" y="103"></text>
<rect fill="#DCD9C5" height="24" width="12" x="132" y="90" />
<rect fill="none" height="24" stroke="#405C86" stroke-width="2" width="12" x="132" y="90" />
<rect fill="none" height="24" stroke="#405C86" stroke-dasharray="3 1" stroke-dashoffset="1.5" stroke-width="1" width="12" x="120" y="90" />
<text class="label unused" x="126" y="103"></text>
<rect fill="none" height="24" stroke="#405C86" stroke-dasharray="3 1" stroke-dashoffset="1.5" stroke-width="1" width="12" x="108" y="90" />
<text class="label unused" x="114" y="103"></text>
<rect fill="none" height="24" stroke="#405C86" stroke-dasharray="3 1" stroke-dashoffset="1.5" stroke-width="1" width="12" x="96" y="90" />
<text class="label unused" x="102" y="103"></text>
<rect fill="#DCD9C5" height="24" width="12" x="804" y="156" />
<rect fill="none" height="24" stroke="#405C86" stroke-width="2" width="12" x="804" y="156" />
<rect fill="none" height="24" stroke="#405C86" stroke-dasharray="3 1" stroke-dashoffset="1.5" stroke-width="1" width="12" x="792" y="156" />
<text class="label unused" x="798" y="169"></text>
<rect fill="none" height="24" stroke="#405C86" stroke-dasharray="3 1" stroke-dashoffset="1.5" stroke-width="1" width="12" x="780" y="156" />
<text class="label unused" x="786" y="169"></text>
<rect fill="none" height="24" stroke="#405C86" stroke-dasharray="3 1" stroke-dashoffset="1.5" stroke-width="1" width="12" x="768" y="156" />
<text class="label unused" x="774" y="169"></text>
<rect fill="#DCD9C5" height="24" width="12" x="708" y="156" />
<rect fill="none" height="24" stroke="#405C86" stroke-width="2" width="12" x="708" y="156" />
<rect fill="none" height="24" stroke="#405C86" stroke-dasharray="3 1" stroke-dashoffset="1.5" stroke-width="1" width="12" x="696" y="156" />
<text class="label unused" x="702" y="169"></text>
<rect fill="none" height="24" stroke="#405C86" stroke-dasharray="3 1" stroke-dashoffset="1.5" stroke-width="1" width="12" x="684" y="156" />
<text class="label unused" x="690" y="169"></text>
<rect fill="none" height="24" stroke="#405C86" stroke-dasharray="3 1" stroke-dashoffset="1.5" stroke-width="1" width="12" x="672" y="156" />
<text class="label unused" x="678" y="169"></text>
<rect fill="#DCD9C5" height="24" width="12" x="612" y="156" />
<rect fill="none" height="24" stroke="#405C86" stroke-width="2" width="12" x="612" y="156" />
<rect fill="none" height="24" stroke="#405C86" stroke-dasharray="3 1" stroke-dashoffset="1.5" stroke-width="1" width="12" x="600" y="156" />
<text class="label unused" x="606" y="169"></text>
<rect fill="none" height="24" stroke="#405C86" stroke-dasharray="3 1" stroke-dashoffset="1.5" stroke-width="1" width="12" x="588" y="156" />
<text class="label unused" x="594" y="169"></text>
<rect fill="none" height="24" stroke="#405C86" stroke-dasharray="3 1" stroke-dashoffset="1.5" stroke-width="1" width="12" x="576" y="156" />
<text class="label unused" x="582" y="169"></text>
<rect fill="#DCD9C5" height="24" width="12" x="516" y="156" />
<rect fill="none" height="24" stroke="#405C86" stroke-width="2" width="12" x="516" y="156" />
<rect fill="none" height="24" stroke="#405C86" stroke-dasharray="3 1" stroke-dashoffset="1.5" stroke-width="1" width="12" x="504" y="156" />
<text class="label unused" x="510" y="169"></text>
<rect fill="none" height="24" stroke="#405C86" stroke-dasharray="3 1" stroke-dashoffset="1.5" stroke-width="1" width="12" x="492" y="156" />
<text class="label unused" x="498" y="169"></text>
<rect fill="none" height="24" stroke="#405C86" stroke-dasharray="3 1" stroke-dashoffset="1.5" stroke-width="1" width="12" x="480" y="156" />
<text class="label unused" x="486" y="169"></text>
<rect fill="#DCD9C5" height="24" width="12" x="420" y="156" />
<rect fill="none" height="24" stroke="#405C86" stroke-width="2" width="12" x="420" y="156" />
<rect fill="none" height="24" stroke="#405C86" stroke-dasharray="3 1" stroke-dashoffset="1.5" stroke-width="1" width="12" x="408" y="156" />
<text class="label unused" x="414" y="169"></text>
<rect fill="none" height="24" stroke="#405C86" stroke-dasharray="3 1" stroke-dashoffset="1.5" stroke-width="1" width="12" x="396" y="156" />
<text class="label unused" x="402" y="169"></text>
<rect fill="none" height="24" stroke="#405C86" stroke-dasharray="3 1" stroke-dashoffset="1.5" stroke-width="1" width="12" x="384" y="156" />
<text class="label unused" x="390" y="169"></text>
<rect fill="#DCD9C5" height="24" width="12" x="324" y="156" />
<rect fill="none" height="24" stroke="#405C86" stroke-width="2" width="12" x="324" y="156" />
<rect fill="none" height="24" stroke="#405C86" stroke-dasharray="3 1" stroke-dashoffset="1.5" stroke-width="1" width="12" x="312" y="156" />
<text class="label unused" x="318" y="169"></text>
<rect fill="none" height="24" stroke="#405C86" stroke-dasharray="3 1" stroke-dashoffset="1.5" stroke-width="1" width="12" x="300" y="156" />
<text class="label unused" x="306" y="169"></text>
<rect fill="none" height="24" stroke="#405C86" stroke-dasharray="3 1" stroke-dashoffset="1.5" stroke-width="1" width="12" x="288" y="156" />
<text class="label unused" x="294" y="169"></text>
<rect fill="#DCD9C5" height="24" width="12" x="228" y="156" />
<rect fill="none" height="24" stroke="#405C86" stroke-width="2" width="12" x="228" y="156" />
<rect fill="none" height="24" stroke="#405C86" stroke-dasharray="3 1" stroke-dashoffset="1.5" stroke-width="1" width="12" x="216" y="156" />
<text class="label unused" x="222" y="169"></text>
<rect fill="none" height="24" stroke="#405C86" stroke-dasharray="3 1" stroke-dashoffset="1.5" stroke-width="1" width="12" x="204" y="156" />
<text class="label unused" x="210" y="169"></text>
<rect fill="none" height="24" stroke="#405C86" stroke-dasharray="3 1" stroke-dashoffset="1.5" stroke-width="1" width="12" x="192" y="156" />
<text class="label unused" x="198" y="169"></text>
<rect fill="#DCD9C5" height="24" width="12" x="132" y="156" />
<rect fill="none" height="24" stroke="#405C86" stroke-width="2" width="12" x="132" y="156" />
<rect fill="none" height="24" stroke="#405C86" stroke-dasharray="3 1" stroke-dashoffset="1.5" stroke-width="1" width="12" x="120" y="156" />
<text class="label unused" x="126" y="169"></text>
<rect fill="none" height="24" stroke="#405C86" stroke-dasharray="3 1" stroke-dashoffset="1.5" stroke-width="1" width="12" x="108" y="156" />
<text class="label unused" x="114" y="169"></text>
<rect fill="none" height="24" stroke="#405C86" stroke-dasharray="3 1" stroke-dashoffset="1.5" stroke-width="1" width="12" x="96" y="156" />
<text class="label unused" x="102" y="169"></text>
<line marker-end="url(#arrowhead)" stroke="none" x1="800" x2="800" y1="144.5" y2="257" />
<line marker-end="url(#arrowhead)" stroke="none" x1="704" x2="704" y1="144.5" y2="257" />
<line marker-end="url(#arrowhead)" stroke="none" x1="608" x2="608" y1="144.5" y2="257" />
<line marker-end="url(#arrowhead)" stroke="none" x1="512" x2="512" y1="144.5" y2="257" />
<line marker-end="url(#arrowhead)" stroke="none" x1="416" x2="416" y1="144.5" y2="257" />
<line marker-end="url(#arrowhead)" stroke="none" x1="320" x2="320" y1="144.5" y2="257" />
<line marker-end="url(#arrowhead)" stroke="none" x1="224" x2="224" y1="144.5" y2="257" />
<line marker-end="url(#arrowhead)" stroke="none" x1="128" x2="128" y1="144.5" y2="257" />
<line marker-end="url(#arrowhead)" stroke="none" stroke-dasharray="3 1" x1="820" x2="820" y1="210.5" y2="305" />
<line marker-end="url(#arrowhead)" stroke="none" stroke-dasharray="3 1" x1="724" x2="724" y1="210.5" y2="305" />
<line marker-end="url(#arrowhead)" stroke="none" stroke-dasharray="3 1" x1="628" x2="628" y1="210.5" y2="305" />
<line marker-end="url(#arrowhead)" stroke="none" stroke-dasharray="3 1" x1="532" x2="532" y1="210.5" y2="305" />
<line marker-end="url(#arrowhead)" stroke="none" stroke-dasharray="3 1" x1="436" x2="436" y1="210.5" y2="305" />
<line marker-end="url(#arrowhead)" stroke="none" stroke-dasharray="3 1" x1="340" x2="340" y1="210.5" y2="305" />
<line marker-end="url(#arrowhead)" stroke="none" stroke-dasharray="3 1" x1="244" x2="244" y1="210.5" y2="305" />
<line marker-end="url(#arrowhead)" stroke="none" stroke-dasharray="3 1" x1="148" x2="148" y1="210.5" y2="305" />
</svg>