<svg xmlns="http://www.w3.org/2000/svg" viewBox="0 0 882 495">
<style>
.label { font: 14px Helvetica; dominant-baseline: middle; text-anchor: middle; }
.title-left { font: 12px Helvetica; dominant-baseline: middle; }
.title-right { font: 12px Helvetica; dominant-baseline: middle; text-anchor: end; }
.title-intrinsic { font: 12px Helvetica; dominant-baseline: middle; text-anchor: middle; fill: #6778ED; }
.title { font: 12px Helvetica; dominant-baseline: middle; text-anchor: middle; }
.title-unused { font: 12px Helvetica; dominant-baseline: middle; text-anchor: middle; fill: #AAA; }
.register-name { font: 14px Helvetica; dominant-baseline: middle; text-anchor: end; font-style: italic; }
.memory-name { font: 14px Helvetica; dominant-baseline: middle; text-anchor: end; }
.register-number { font: 14px Helvetica; dominant-baseline: middle; text-anchor: start; }
.intrinsic-name { font: 14px Helvetica; dominant-baseline: middle; text-anchor: end; fill: #6778ED; }
.intrinsic-color { fill: #6778ED; }
.small-label { font: 12px Helvetica; dominant-baseline: middle; text-anchor: middle; }
.label-10px { font: 10px Helvetica; dominant-baseline: middle; text-anchor: middle; }
.smaller-label { font: 9px Helvetica; dominant-baseline: middle; text-anchor: middle; }
.label-6px { font: 6px Helvetica; dominant-baseline: middle; text-anchor: middle; }
.label-7px { font: 7px Helvetica; dominant-baseline: middle; text-anchor: middle; }
.unused { fill: #AAA; }
.dim { fill: #888; }
</style>
<defs>
<marker id="arrowhead" markerWidth="10.75" markerHeight="24.5" refX="9.0" refY="6.125" orient="auto">
<polyline points="0.5 0.5, 8.75 6.125, 0.5 11.75" stroke="#567DB6" stroke-width="1" fill="none"/>
</marker>
</defs>
<text class="title-left" x="90" y="9">upper</text>
<text class="title-right" x="858" y="9">lower</text>
<rect fill="#FAEBDC" height="318" width="865" x="5" y="168" />
<rect fill="#DEE6F1" height="24" width="12" x="804" y="18" />
<rect fill="none" height="24" stroke="#405C86" stroke-width="2" width="12" x="804" y="18" />
<rect fill="none" height="24" stroke="#405C86" stroke-dasharray="3 1" stroke-dashoffset="1.5" stroke-width="1" width="12" x="792" y="18" />
<text class="label unused" x="798" y="31"></text>
<rect fill="none" height="24" stroke="#405C86" stroke-dasharray="3 1" stroke-dashoffset="1.5" stroke-width="1" width="12" x="780" y="18" />
<text class="label unused" x="786" y="31"></text>
<rect fill="none" height="24" stroke="#405C86" stroke-dasharray="3 1" stroke-dashoffset="1.5" stroke-width="1" width="12" x="768" y="18" />
<text class="label unused" x="774" y="31"></text>
<rect fill="#DEE6F1" height="24" width="12" x="708" y="18" />
<rect fill="none" height="24" stroke="#405C86" stroke-width="2" width="12" x="708" y="18" />
<rect fill="none" height="24" stroke="#405C86" stroke-dasharray="3 1" stroke-dashoffset="1.5" stroke-width="1" width="12" x="696" y="18" />
<text class="label unused" x="702" y="31"></text>
<rect fill="none" height="24" stroke="#405C86" stroke-dasharray="3 1" stroke-dashoffset="1.5" stroke-width="1" width="12" x="684" y="18" />
<text class="label unused" x="690" y="31"></text>
<rect fill="none" height="24" stroke="#405C86" stroke-dasharray="3 1" stroke-dashoffset="1.5" stroke-width="1" width="12" x="672" y="18" />
<text class="label unused" x="678" y="31"></text>
<rect fill="#DEE6F1" height="24" width="12" x="612" y="18" />
<rect fill="none" height="24" stroke="#405C86" stroke-width="2" width="12" x="612" y="18" />
<rect fill="none" height="24" stroke="#405C86" stroke-dasharray="3 1" stroke-dashoffset="1.5" stroke-width="1" width="12" x="600" y="18" />
<text class="label unused" x="606" y="31"></text>
<rect fill="none" height="24" stroke="#405C86" stroke-dasharray="3 1" stroke-dashoffset="1.5" stroke-width="1" width="12" x="588" y="18" />
<text class="label unused" x="594" y="31"></text>
<rect fill="none" height="24" stroke="#405C86" stroke-dasharray="3 1" stroke-dashoffset="1.5" stroke-width="1" width="12" x="576" y="18" />
<text class="label unused" x="582" y="31"></text>
<rect fill="#DEE6F1" height="24" width="12" x="516" y="18" />
<rect fill="none" height="24" stroke="#405C86" stroke-width="2" width="12" x="516" y="18" />
<rect fill="none" height="24" stroke="#405C86" stroke-dasharray="3 1" stroke-dashoffset="1.5" stroke-width="1" width="12" x="504" y="18" />
<text class="label unused" x="510" y="31"></text>
<rect fill="none" height="24" stroke="#405C86" stroke-dasharray="3 1" stroke-dashoffset="1.5" stroke-width="1" width="12" x="492" y="18" />
<text class="label unused" x="498" y="31"></text>
<rect fill="none" height="24" stroke="#405C86" stroke-dasharray="3 1" stroke-dashoffset="1.5" stroke-width="1" width="12" x="480" y="18" />
<text class="label unused" x="486" y="31"></text>
<rect fill="#DEE6F1" height="24" width="12" x="420" y="18" />
<rect fill="none" height="24" stroke="#405C86" stroke-width="2" width="12" x="420" y="18" />
<rect fill="none" height="24" stroke="#405C86" stroke-dasharray="3 1" stroke-dashoffset="1.5" stroke-width="1" width="12" x="408" y="18" />
<text class="label unused" x="414" y="31"></text>
<rect fill="none" height="24" stroke="#405C86" stroke-dasharray="3 1" stroke-dashoffset="1.5" stroke-width="1" width="12" x="396" y="18" />
<text class="label unused" x="402" y="31"></text>
<rect fill="none" height="24" stroke="#405C86" stroke-dasharray="3 1" stroke-dashoffset="1.5" stroke-width="1" width="12" x="384" y="18" />
<text class="label unused" x="390" y="31"></text>
<rect fill="#DEE6F1" height="24" width="12" x="324" y="18" />
<rect fill="none" height="24" stroke="#405C86" stroke-width="2" width="12" x="324" y="18" />
<rect fill="none" height="24" stroke="#405C86" stroke-dasharray="3 1" stroke-dashoffset="1.5" stroke-width="1" width="12" x="312" y="18" />
<text class="label unused" x="318" y="31"></text>
<rect fill="none" height="24" stroke="#405C86" stroke-dasharray="3 1" stroke-dashoffset="1.5" stroke-width="1" width="12" x="300" y="18" />
<text class="label unused" x="306" y="31"></text>
<rect fill="none" height="24" stroke="#405C86" stroke-dasharray="3 1" stroke-dashoffset="1.5" stroke-width="1" width="12" x="288" y="18" />
<text class="label unused" x="294" y="31"></text>
<rect fill="#DEE6F1" height="24" width="12" x="228" y="18" />
<rect fill="none" height="24" stroke="#405C86" stroke-width="2" width="12" x="228" y="18" />
<rect fill="none" height="24" stroke="#405C86" stroke-dasharray="3 1" stroke-dashoffset="1.5" stroke-width="1" width="12" x="216" y="18" />
<text class="label unused" x="222" y="31"></text>
<rect fill="none" height="24" stroke="#405C86" stroke-dasharray="3 1" stroke-dashoffset="1.5" stroke-width="1" width="12" x="204" y="18" />
<text class="label unused" x="210" y="31"></text>
<rect fill="none" height="24" stroke="#405C86" stroke-dasharray="3 1" stroke-dashoffset="1.5" stroke-width="1" width="12" x="192" y="18" />
<text class="label unused" x="198" y="31"></text>
<rect fill="#DEE6F1" height="24" width="12" x="132" y="18" />
<rect fill="none" height="24" stroke="#405C86" stroke-width="2" width="12" x="132" y="18" />
<rect fill="none" height="24" stroke="#405C86" stroke-dasharray="3 1" stroke-dashoffset="1.5" stroke-width="1" width="12" x="120" y="18" />
<text class="label unused" x="126" y="31"></text>
<rect fill="none" height="24" stroke="#405C86" stroke-dasharray="3 1" stroke-dashoffset="1.5" stroke-width="1" width="12" x="108" y="18" />
<text class="label unused" x="114" y="31"></text>
<rect fill="none" height="24" stroke="#405C86" stroke-dasharray="3 1" stroke-dashoffset="1.5" stroke-width="1" width="12" x="96" y="18" />
<text class="label unused" x="102" y="31"></text>
<text class="register-name" x="80" y="30">Pg</text>
<text class="intrinsic-name" x="80" y="42">pg</text>
<text class="register-number" x="10" y="30">(1)</text>
<rect fill="#DEE6F1" height="24" width="96" x="762" y="66" />
<text class="label" x="810" y="79">addr0</text>
<rect fill="none" height="24" stroke="#405C86" stroke-width="2" width="96" x="762" y="66" />
<rect fill="#DEE6F1" height="24" width="96" x="666" y="66" />
<text class="label" x="714" y="79">addr1</text>
<rect fill="none" height="24" stroke="#405C86" stroke-width="2" width="96" x="666" y="66" />
<rect fill="#DEE6F1" height="24" width="96" x="570" y="66" />
<text class="label" x="618" y="79">addr2</text>
<rect fill="none" height="24" stroke="#405C86" stroke-width="2" width="96" x="570" y="66" />
<rect fill="#DEE6F1" height="24" width="96" x="474" y="66" />
<text class="label" x="522" y="79">addr3</text>
<rect fill="none" height="24" stroke="#405C86" stroke-width="2" width="96" x="474" y="66" />
<rect fill="#DEE6F1" height="24" width="96" x="378" y="66" />
<text class="label" x="426" y="79">addr4</text>
<rect fill="none" height="24" stroke="#405C86" stroke-width="2" width="96" x="378" y="66" />
<rect fill="#DEE6F1" height="24" width="96" x="282" y="66" />
<text class="label" x="330" y="79">addr5</text>
<rect fill="none" height="24" stroke="#405C86" stroke-width="2" width="96" x="282" y="66" />
<rect fill="#DEE6F1" height="24" width="96" x="186" y="66" />
<text class="label" x="234" y="79">addr6</text>
<rect fill="none" height="24" stroke="#405C86" stroke-width="2" width="96" x="186" y="66" />
<rect fill="#DEE6F1" height="24" width="96" x="90" y="66" />
<text class="label" x="138" y="79">addr7</text>
<rect fill="none" height="24" stroke="#405C86" stroke-width="2" width="96" x="90" y="66" />
<text class="register-name" x="80" y="78">Zn</text>
<text class="intrinsic-name" x="80" y="90">bases</text>
<text class="register-number" x="10" y="78">(2)</text>
<rect fill="#DEE6F1" height="24" width="96" x="762" y="114" />
<rect fill="none" height="24" stroke="#405C86" stroke-width="2" width="96" x="762" y="114" />
<rect fill="#DEE6F1" height="24" width="96" x="666" y="114" />
<rect fill="none" height="24" stroke="#405C86" stroke-width="2" width="96" x="666" y="114" />
<rect fill="#DEE6F1" height="24" width="96" x="570" y="114" />
<rect fill="none" height="24" stroke="#405C86" stroke-width="2" width="96" x="570" y="114" />
<rect fill="#DEE6F1" height="24" width="96" x="474" y="114" />
<rect fill="none" height="24" stroke="#405C86" stroke-width="2" width="96" x="474" y="114" />
<rect fill="#DEE6F1" height="24" width="96" x="378" y="114" />
<rect fill="none" height="24" stroke="#405C86" stroke-width="2" width="96" x="378" y="114" />
<rect fill="#DEE6F1" height="24" width="96" x="282" y="114" />
<rect fill="none" height="24" stroke="#405C86" stroke-width="2" width="96" x="282" y="114" />
<rect fill="#DEE6F1" height="24" width="96" x="186" y="114" />
<rect fill="none" height="24" stroke="#405C86" stroke-width="2" width="96" x="186" y="114" />
<rect fill="#DEE6F1" height="24" width="96" x="90" y="114" />
<rect fill="none" height="24" stroke="#405C86" stroke-width="2" width="96" x="90" y="114" />
<text class="register-name" x="80" y="126">Zt</text>
<text class="intrinsic-name" x="80" y="138">data</text>
<text class="register-number" x="10" y="126">(3)</text>
<rect fill="#DEE6F1" height="24" width="96" x="762" y="198" />
<rect fill="none" height="24" stroke="#405C86" stroke-width="2" width="96" x="762" y="198" />
<text class="memory-name" x="759" y="210">addr0+imm</text>
<rect fill="#DEE6F1" height="24" width="96" x="666" y="234" />
<rect fill="none" height="24" stroke="#405C86" stroke-width="2" width="96" x="666" y="234" />
<text class="memory-name" x="663" y="246">addr1+imm</text>
<rect fill="#DEE6F1" height="24" width="96" x="570" y="270" />
<rect fill="none" height="24" stroke="#405C86" stroke-width="2" width="96" x="570" y="270" />
<text class="memory-name" x="567" y="282">addr2+imm</text>
<rect fill="#DEE6F1" height="24" width="96" x="474" y="306" />
<rect fill="none" height="24" stroke="#405C86" stroke-width="2" width="96" x="474" y="306" />
<text class="memory-name" x="471" y="318">addr3+imm</text>
<rect fill="#DEE6F1" height="24" width="96" x="378" y="342" />
<rect fill="none" height="24" stroke="#405C86" stroke-width="2" width="96" x="378" y="342" />
<text class="memory-name" x="375" y="354">addr4+imm</text>
<rect fill="#DEE6F1" height="24" width="96" x="282" y="378" />
<rect fill="none" height="24" stroke="#405C86" stroke-width="2" width="96" x="282" y="378" />
<text class="memory-name" x="279" y="390">addr5+imm</text>
<rect fill="#DEE6F1" height="24" width="96" x="186" y="414" />
<rect fill="none" height="24" stroke="#405C86" stroke-width="2" width="96" x="186" y="414" />
<text class="memory-name" x="183" y="426">addr6+imm</text>
<rect fill="#DEE6F1" height="24" width="96" x="90" y="450" />
<rect fill="none" height="24" stroke="#405C86" stroke-width="2" width="96" x="90" y="450" />
<text class="memory-name" x="87" y="462">addr7+imm</text>
<polyline fill="none" points="765.0 65.5,767.0 61.5,809.0 61.5,810.0 59.5,810.0 55.5,810.0 59.5,811.0 61.5,853.0 61.5,855.0 65.5" stroke="#567DB6" stroke-width="1" />
<line stroke="#567DB6" stroke-width="1" x1="810" x2="810" y1="42.5" y2="55.5" />
<polyline fill="none" points="669.0 65.5,671.0 61.5,713.0 61.5,714.0 59.5,714.0 55.5,714.0 59.5,715.0 61.5,757.0 61.5,759.0 65.5" stroke="#567DB6" stroke-width="1" />
<line stroke="#567DB6" stroke-width="1" x1="714" x2="714" y1="42.5" y2="55.5" />
<polyline fill="none" points="573.0 65.5,575.0 61.5,617.0 61.5,618.0 59.5,618.0 55.5,618.0 59.5,619.0 61.5,661.0 61.5,663.0 65.5" stroke="#567DB6" stroke-width="1" />
<line stroke="#567DB6" stroke-width="1" x1="618" x2="618" y1="42.5" y2="55.5" />
<polyline fill="none" points="477.0 65.5,479.0 61.5,521.0 61.5,522.0 59.5,522.0 55.5,522.0 59.5,523.0 61.5,565.0 61.5,567.0 65.5" stroke="#567DB6" stroke-width="1" />
<line stroke="#567DB6" stroke-width="1" x1="522" x2="522" y1="42.5" y2="55.5" />
<polyline fill="none" points="381.0 65.5,383.0 61.5,425.0 61.5,426.0 59.5,426.0 55.5,426.0 59.5,427.0 61.5,469.0 61.5,471.0 65.5" stroke="#567DB6" stroke-width="1" />
<line stroke="#567DB6" stroke-width="1" x1="426" x2="426" y1="42.5" y2="55.5" />
<polyline fill="none" points="285.0 65.5,287.0 61.5,329.0 61.5,330.0 59.5,330.0 55.5,330.0 59.5,331.0 61.5,373.0 61.5,375.0 65.5" stroke="#567DB6" stroke-width="1" />
<line stroke="#567DB6" stroke-width="1" x1="330" x2="330" y1="42.5" y2="55.5" />
<polyline fill="none" points="189.0 65.5,191.0 61.5,233.0 61.5,234.0 59.5,234.0 55.5,234.0 59.5,235.0 61.5,277.0 61.5,279.0 65.5" stroke="#567DB6" stroke-width="1" />
<line stroke="#567DB6" stroke-width="1" x1="234" x2="234" y1="42.5" y2="55.5" />
<polyline fill="none" points="93.0 65.5,95.0 61.5,137.0 61.5,138.0 59.5,138.0 55.5,138.0 59.5,139.0 61.5,181.0 61.5,183.0 65.5" stroke="#567DB6" stroke-width="1" />
<line stroke="#567DB6" stroke-width="1" x1="138" x2="138" y1="42.5" y2="55.5" />
<line stroke="#567DB6" stroke-dasharray="3 1" stroke-width="1" x1="786" x2="706" y1="90.5" y2="200.5" />
<line stroke="#567DB6" stroke-width="1" x1="790" x2="790" y1="138.5" y2="197" />
<line stroke="#567DB6" stroke-dasharray="3 1" stroke-width="1" x1="690" x2="610" y1="90.5" y2="236.5" />
<line stroke="#567DB6" stroke-width="1" x1="694" x2="694" y1="138.5" y2="233" />
<line stroke="#567DB6" stroke-dasharray="3 1" stroke-width="1" x1="594" x2="514" y1="90.5" y2="272.5" />
<line stroke="#567DB6" stroke-width="1" x1="598" x2="598" y1="138.5" y2="269" />
<line stroke="#567DB6" stroke-dasharray="3 1" stroke-width="1" x1="498" x2="418" y1="90.5" y2="308.5" />
<line stroke="#567DB6" stroke-width="1" x1="502" x2="502" y1="138.5" y2="305" />
<line stroke="#567DB6" stroke-dasharray="3 1" stroke-width="1" x1="402" x2="322" y1="90.5" y2="344.5" />
<line stroke="#567DB6" stroke-width="1" x1="406" x2="406" y1="138.5" y2="341" />
<line stroke="#567DB6" stroke-dasharray="3 1" stroke-width="1" x1="306" x2="226" y1="90.5" y2="380.5" />
<line stroke="#567DB6" stroke-width="1" x1="310" x2="310" y1="138.5" y2="377" />
<line stroke="#567DB6" stroke-dasharray="3 1" stroke-width="1" x1="210" x2="130" y1="90.5" y2="416.5" />
<line stroke="#567DB6" stroke-width="1" x1="214" x2="214" y1="138.5" y2="413" />
<line stroke="#567DB6" stroke-dasharray="3 1" stroke-width="1" x1="114" x2="34" y1="90.5" y2="452.5" />
<line stroke="#567DB6" stroke-width="1" x1="118" x2="118" y1="138.5" y2="449" />
<text class="title-left" x="17" y="184">specify memory locations of 32-bit values</text>
<line marker-end="url(#arrowhead)" stroke="none" stroke-dasharray="3 1" x1="786" x2="706" y1="90.5" y2="200.5" />
<line marker-end="url(#arrowhead)" stroke="none" x1="790" x2="790" y1="138.5" y2="197" />
<line marker-end="url(#arrowhead)" stroke="none" stroke-dasharray="3 1" x1="690" x2="610" y1="90.5" y2="236.5" />
<line marker-end="url(#arrowhead)" stroke="none" x1="694" x2="694" y1="138.5" y2="233" />
<line marker-end="url(#arrowhead)" stroke="none" stroke-dasharray="3 1" x1="594" x2="514" y1="90.5" y2="272.5" />
<line marker-end="url(#arrowhead)" stroke="none" x1="598" x2="598" y1="138.5" y2="269" />
<line marker-end="url(#arrowhead)" stroke="none" stroke-dasharray="3 1" x1="498" x2="418" y1="90.5" y2="308.5" />
<line marker-end="url(#arrowhead)" stroke="none" x1="502" x2="502" y1="138.5" y2="305" />
<line marker-end="url(#arrowhead)" stroke="none" stroke-dasharray="3 1" x1="402" x2="322" y1="90.5" y2="344.5" />
<line marker-end="url(#arrowhead)" stroke="none" x1="406" x2="406" y1="138.5" y2="341" />
<line marker-end="url(#arrowhead)" stroke="none" stroke-dasharray="3 1" x1="306" x2="226" y1="90.5" y2="380.5" />
<line marker-end="url(#arrowhead)" stroke="none" x1="310" x2="310" y1="138.5" y2="377" />
<line marker-end="url(#arrowhead)" stroke="none" stroke-dasharray="3 1" x1="210" x2="130" y1="90.5" y2="416.5" />
<line marker-end="url(#arrowhead)" stroke="none" x1="214" x2="214" y1="138.5" y2="413" />
<line marker-end="url(#arrowhead)" stroke="none" stroke-dasharray="3 1" x1="114" x2="34" y1="90.5" y2="452.5" />
<line marker-end="url(#arrowhead)" stroke="none" x1="118" x2="118" y1="138.5" y2="449" />
</svg>