<svg xmlns="http://www.w3.org/2000/svg" viewBox="0 0 3174 255">
<style>
.label { font: 14px Helvetica; dominant-baseline: middle; text-anchor: middle; }
.title-left { font: 12px Helvetica; dominant-baseline: middle; }
.title-right { font: 12px Helvetica; dominant-baseline: middle; text-anchor: end; }
.title-intrinsic { font: 12px Helvetica; dominant-baseline: middle; text-anchor: middle; fill: #6778ED; }
.title { font: 12px Helvetica; dominant-baseline: middle; text-anchor: middle; }
.title-unused { font: 12px Helvetica; dominant-baseline: middle; text-anchor: middle; fill: #AAA; }
.register-name { font: 14px Helvetica; dominant-baseline: middle; text-anchor: end; font-style: italic; }
.memory-name { font: 14px Helvetica; dominant-baseline: middle; text-anchor: end; }
.register-number { font: 14px Helvetica; dominant-baseline: middle; text-anchor: start; }
.intrinsic-name { font: 14px Helvetica; dominant-baseline: middle; text-anchor: end; fill: #6778ED; }
.intrinsic-color { fill: #6778ED; }
.small-label { font: 12px Helvetica; dominant-baseline: middle; text-anchor: middle; }
.label-10px { font: 10px Helvetica; dominant-baseline: middle; text-anchor: middle; }
.smaller-label { font: 9px Helvetica; dominant-baseline: middle; text-anchor: middle; }
.label-6px { font: 6px Helvetica; dominant-baseline: middle; text-anchor: middle; }
.label-7px { font: 7px Helvetica; dominant-baseline: middle; text-anchor: middle; }
.unused { fill: #AAA; }
.dim { fill: #888; }
</style>
<defs>
<marker id="arrowhead" markerWidth="10.75" markerHeight="24.5" refX="9.0" refY="6.125" orient="auto">
<polyline points="0.5 0.5, 8.75 6.125, 0.5 11.75" stroke="#567DB6" stroke-width="1" fill="none"/>
</marker>
</defs>
<text class="title-left" x="90" y="9">upper</text>
<text class="title-right" x="3162" y="9">lower</text>
<rect fill="#DEE6F1" height="24" width="384" x="2778" y="186" />
<rect fill="none" height="24" stroke="#405C86" stroke-width="2" width="384" x="2778" y="186" />
<text class="small-label intrinsic-color" x="2970" y="199">base[0]</text>
<rect fill="#EEDDDB" height="24" width="384" x="2394" y="186" />
<rect fill="none" height="24" stroke="#405C86" stroke-width="2" width="384" x="2394" y="186" />
<text class="small-label intrinsic-color" x="2586" y="199">base[1]</text>
<rect fill="#DEE6F1" height="24" width="384" x="2010" y="186" />
<rect fill="none" height="24" stroke="#405C86" stroke-width="2" width="384" x="2010" y="186" />
<text class="small-label intrinsic-color" x="2202" y="199">base[2]</text>
<rect fill="#EEDDDB" height="24" width="384" x="1626" y="186" />
<rect fill="none" height="24" stroke="#405C86" stroke-width="2" width="384" x="1626" y="186" />
<text class="small-label intrinsic-color" x="1818" y="199">base[3]</text>
<rect fill="#DEE6F1" height="24" width="384" x="1242" y="186" />
<rect fill="none" height="24" stroke="#405C86" stroke-width="2" width="384" x="1242" y="186" />
<text class="small-label intrinsic-color" x="1434" y="199">base[4]</text>
<rect fill="#EEDDDB" height="24" width="384" x="858" y="186" />
<rect fill="none" height="24" stroke="#405C86" stroke-width="2" width="384" x="858" y="186" />
<text class="small-label intrinsic-color" x="1050" y="199">base[5]</text>
<rect fill="#DEE6F1" height="24" width="384" x="474" y="186" />
<rect fill="none" height="24" stroke="#405C86" stroke-width="2" width="384" x="474" y="186" />
<text class="small-label intrinsic-color" x="666" y="199">base[6]</text>
<rect fill="#EEDDDB" height="24" width="384" x="90" y="186" />
<rect fill="none" height="24" stroke="#405C86" stroke-width="2" width="384" x="90" y="186" />
<text class="small-label intrinsic-color" x="282" y="199">base[7]</text>
<text class="register-name" x="80" y="198">[mem]</text>
<text class="intrinsic-name" x="80" y="210">*base</text>
<text class="register-number" x="10" y="198">(4)</text>
<rect fill="#DEE6F1" height="24" width="384" x="2778" y="222" />
<rect fill="none" height="24" stroke="#405C86" stroke-width="2" width="384" x="2778" y="222" />
<text class="small-label intrinsic-color" x="2970" y="235">base[8]</text>
<rect fill="#EEDDDB" height="24" width="384" x="2394" y="222" />
<rect fill="none" height="24" stroke="#405C86" stroke-width="2" width="384" x="2394" y="222" />
<text class="small-label intrinsic-color" x="2586" y="235">base[9]</text>
<rect fill="#DEE6F1" height="24" width="384" x="2010" y="222" />
<rect fill="none" height="24" stroke="#405C86" stroke-width="2" width="384" x="2010" y="222" />
<text class="small-label intrinsic-color" x="2202" y="235">base[10]</text>
<rect fill="#EEDDDB" height="24" width="384" x="1626" y="222" />
<rect fill="none" height="24" stroke="#405C86" stroke-width="2" width="384" x="1626" y="222" />
<text class="small-label intrinsic-color" x="1818" y="235">base[11]</text>
<rect fill="#DEE6F1" height="24" width="384" x="1242" y="222" />
<rect fill="none" height="24" stroke="#405C86" stroke-width="2" width="384" x="1242" y="222" />
<text class="small-label intrinsic-color" x="1434" y="235">base[12]</text>
<rect fill="#EEDDDB" height="24" width="384" x="858" y="222" />
<rect fill="none" height="24" stroke="#405C86" stroke-width="2" width="384" x="858" y="222" />
<text class="small-label intrinsic-color" x="1050" y="235">base[13]</text>
<rect fill="#DEE6F1" height="24" width="384" x="474" y="222" />
<rect fill="none" height="24" stroke="#405C86" stroke-width="2" width="384" x="474" y="222" />
<text class="small-label intrinsic-color" x="666" y="235">base[14]</text>
<rect fill="#EEDDDB" height="24" width="384" x="90" y="222" />
<rect fill="none" height="24" stroke="#405C86" stroke-width="2" width="384" x="90" y="222" />
<text class="small-label intrinsic-color" x="282" y="235">base[15]</text>
<rect fill="#DEE6F1" height="24" width="12" x="2964" y="18" />
<rect fill="none" height="24" stroke="#405C86" stroke-width="2" width="12" x="2964" y="18" />
<rect fill="none" height="24" stroke="#405C86" stroke-dasharray="3 1" stroke-dashoffset="1.5" stroke-width="1" width="12" x="2952" y="18" />
<text class="label unused" x="2958" y="31"></text>
<rect fill="none" height="24" stroke="#405C86" stroke-dasharray="3 1" stroke-dashoffset="1.5" stroke-width="1" width="12" x="2940" y="18" />
<text class="label unused" x="2946" y="31"></text>
<rect fill="none" height="24" stroke="#405C86" stroke-dasharray="3 1" stroke-dashoffset="1.5" stroke-width="1" width="12" x="2928" y="18" />
<text class="label unused" x="2934" y="31"></text>
<rect fill="none" height="24" stroke="#405C86" stroke-dasharray="3 1" stroke-dashoffset="1.5" stroke-width="1" width="12" x="2916" y="18" />
<text class="label unused" x="2922" y="31"></text>
<rect fill="none" height="24" stroke="#405C86" stroke-dasharray="3 1" stroke-dashoffset="1.5" stroke-width="1" width="12" x="2904" y="18" />
<text class="label unused" x="2910" y="31"></text>
<rect fill="none" height="24" stroke="#405C86" stroke-dasharray="3 1" stroke-dashoffset="1.5" stroke-width="1" width="12" x="2892" y="18" />
<text class="label unused" x="2898" y="31"></text>
<rect fill="none" height="24" stroke="#405C86" stroke-dasharray="3 1" stroke-dashoffset="1.5" stroke-width="1" width="12" x="2880" y="18" />
<text class="label unused" x="2886" y="31"></text>
<rect fill="none" height="24" stroke="#405C86" stroke-dasharray="3 1" stroke-dashoffset="1.5" stroke-width="1" width="12" x="2868" y="18" />
<text class="label unused" x="2874" y="31"></text>
<rect fill="none" height="24" stroke="#405C86" stroke-dasharray="3 1" stroke-dashoffset="1.5" stroke-width="1" width="12" x="2856" y="18" />
<text class="label unused" x="2862" y="31"></text>
<rect fill="none" height="24" stroke="#405C86" stroke-dasharray="3 1" stroke-dashoffset="1.5" stroke-width="1" width="12" x="2844" y="18" />
<text class="label unused" x="2850" y="31"></text>
<rect fill="none" height="24" stroke="#405C86" stroke-dasharray="3 1" stroke-dashoffset="1.5" stroke-width="1" width="12" x="2832" y="18" />
<text class="label unused" x="2838" y="31"></text>
<rect fill="none" height="24" stroke="#405C86" stroke-dasharray="3 1" stroke-dashoffset="1.5" stroke-width="1" width="12" x="2820" y="18" />
<text class="label unused" x="2826" y="31"></text>
<rect fill="none" height="24" stroke="#405C86" stroke-dasharray="3 1" stroke-dashoffset="1.5" stroke-width="1" width="12" x="2808" y="18" />
<text class="label unused" x="2814" y="31"></text>
<rect fill="none" height="24" stroke="#405C86" stroke-dasharray="3 1" stroke-dashoffset="1.5" stroke-width="1" width="12" x="2796" y="18" />
<text class="label unused" x="2802" y="31"></text>
<rect fill="none" height="24" stroke="#405C86" stroke-dasharray="3 1" stroke-dashoffset="1.5" stroke-width="1" width="12" x="2784" y="18" />
<text class="label unused" x="2790" y="31"></text>
<rect fill="#DEE6F1" height="24" width="12" x="2580" y="18" />
<rect fill="none" height="24" stroke="#405C86" stroke-width="2" width="12" x="2580" y="18" />
<rect fill="none" height="24" stroke="#405C86" stroke-dasharray="3 1" stroke-dashoffset="1.5" stroke-width="1" width="12" x="2568" y="18" />
<text class="label unused" x="2574" y="31"></text>
<rect fill="none" height="24" stroke="#405C86" stroke-dasharray="3 1" stroke-dashoffset="1.5" stroke-width="1" width="12" x="2556" y="18" />
<text class="label unused" x="2562" y="31"></text>
<rect fill="none" height="24" stroke="#405C86" stroke-dasharray="3 1" stroke-dashoffset="1.5" stroke-width="1" width="12" x="2544" y="18" />
<text class="label unused" x="2550" y="31"></text>
<rect fill="none" height="24" stroke="#405C86" stroke-dasharray="3 1" stroke-dashoffset="1.5" stroke-width="1" width="12" x="2532" y="18" />
<text class="label unused" x="2538" y="31"></text>
<rect fill="none" height="24" stroke="#405C86" stroke-dasharray="3 1" stroke-dashoffset="1.5" stroke-width="1" width="12" x="2520" y="18" />
<text class="label unused" x="2526" y="31"></text>
<rect fill="none" height="24" stroke="#405C86" stroke-dasharray="3 1" stroke-dashoffset="1.5" stroke-width="1" width="12" x="2508" y="18" />
<text class="label unused" x="2514" y="31"></text>
<rect fill="none" height="24" stroke="#405C86" stroke-dasharray="3 1" stroke-dashoffset="1.5" stroke-width="1" width="12" x="2496" y="18" />
<text class="label unused" x="2502" y="31"></text>
<rect fill="none" height="24" stroke="#405C86" stroke-dasharray="3 1" stroke-dashoffset="1.5" stroke-width="1" width="12" x="2484" y="18" />
<text class="label unused" x="2490" y="31"></text>
<rect fill="none" height="24" stroke="#405C86" stroke-dasharray="3 1" stroke-dashoffset="1.5" stroke-width="1" width="12" x="2472" y="18" />
<text class="label unused" x="2478" y="31"></text>
<rect fill="none" height="24" stroke="#405C86" stroke-dasharray="3 1" stroke-dashoffset="1.5" stroke-width="1" width="12" x="2460" y="18" />
<text class="label unused" x="2466" y="31"></text>
<rect fill="none" height="24" stroke="#405C86" stroke-dasharray="3 1" stroke-dashoffset="1.5" stroke-width="1" width="12" x="2448" y="18" />
<text class="label unused" x="2454" y="31"></text>
<rect fill="none" height="24" stroke="#405C86" stroke-dasharray="3 1" stroke-dashoffset="1.5" stroke-width="1" width="12" x="2436" y="18" />
<text class="label unused" x="2442" y="31"></text>
<rect fill="none" height="24" stroke="#405C86" stroke-dasharray="3 1" stroke-dashoffset="1.5" stroke-width="1" width="12" x="2424" y="18" />
<text class="label unused" x="2430" y="31"></text>
<rect fill="none" height="24" stroke="#405C86" stroke-dasharray="3 1" stroke-dashoffset="1.5" stroke-width="1" width="12" x="2412" y="18" />
<text class="label unused" x="2418" y="31"></text>
<rect fill="none" height="24" stroke="#405C86" stroke-dasharray="3 1" stroke-dashoffset="1.5" stroke-width="1" width="12" x="2400" y="18" />
<text class="label unused" x="2406" y="31"></text>
<rect fill="#DEE6F1" height="24" width="12" x="2196" y="18" />
<rect fill="none" height="24" stroke="#405C86" stroke-width="2" width="12" x="2196" y="18" />
<rect fill="none" height="24" stroke="#405C86" stroke-dasharray="3 1" stroke-dashoffset="1.5" stroke-width="1" width="12" x="2184" y="18" />
<text class="label unused" x="2190" y="31"></text>
<rect fill="none" height="24" stroke="#405C86" stroke-dasharray="3 1" stroke-dashoffset="1.5" stroke-width="1" width="12" x="2172" y="18" />
<text class="label unused" x="2178" y="31"></text>
<rect fill="none" height="24" stroke="#405C86" stroke-dasharray="3 1" stroke-dashoffset="1.5" stroke-width="1" width="12" x="2160" y="18" />
<text class="label unused" x="2166" y="31"></text>
<rect fill="none" height="24" stroke="#405C86" stroke-dasharray="3 1" stroke-dashoffset="1.5" stroke-width="1" width="12" x="2148" y="18" />
<text class="label unused" x="2154" y="31"></text>
<rect fill="none" height="24" stroke="#405C86" stroke-dasharray="3 1" stroke-dashoffset="1.5" stroke-width="1" width="12" x="2136" y="18" />
<text class="label unused" x="2142" y="31"></text>
<rect fill="none" height="24" stroke="#405C86" stroke-dasharray="3 1" stroke-dashoffset="1.5" stroke-width="1" width="12" x="2124" y="18" />
<text class="label unused" x="2130" y="31"></text>
<rect fill="none" height="24" stroke="#405C86" stroke-dasharray="3 1" stroke-dashoffset="1.5" stroke-width="1" width="12" x="2112" y="18" />
<text class="label unused" x="2118" y="31"></text>
<rect fill="none" height="24" stroke="#405C86" stroke-dasharray="3 1" stroke-dashoffset="1.5" stroke-width="1" width="12" x="2100" y="18" />
<text class="label unused" x="2106" y="31"></text>
<rect fill="none" height="24" stroke="#405C86" stroke-dasharray="3 1" stroke-dashoffset="1.5" stroke-width="1" width="12" x="2088" y="18" />
<text class="label unused" x="2094" y="31"></text>
<rect fill="none" height="24" stroke="#405C86" stroke-dasharray="3 1" stroke-dashoffset="1.5" stroke-width="1" width="12" x="2076" y="18" />
<text class="label unused" x="2082" y="31"></text>
<rect fill="none" height="24" stroke="#405C86" stroke-dasharray="3 1" stroke-dashoffset="1.5" stroke-width="1" width="12" x="2064" y="18" />
<text class="label unused" x="2070" y="31"></text>
<rect fill="none" height="24" stroke="#405C86" stroke-dasharray="3 1" stroke-dashoffset="1.5" stroke-width="1" width="12" x="2052" y="18" />
<text class="label unused" x="2058" y="31"></text>
<rect fill="none" height="24" stroke="#405C86" stroke-dasharray="3 1" stroke-dashoffset="1.5" stroke-width="1" width="12" x="2040" y="18" />
<text class="label unused" x="2046" y="31"></text>
<rect fill="none" height="24" stroke="#405C86" stroke-dasharray="3 1" stroke-dashoffset="1.5" stroke-width="1" width="12" x="2028" y="18" />
<text class="label unused" x="2034" y="31"></text>
<rect fill="none" height="24" stroke="#405C86" stroke-dasharray="3 1" stroke-dashoffset="1.5" stroke-width="1" width="12" x="2016" y="18" />
<text class="label unused" x="2022" y="31"></text>
<rect fill="#DEE6F1" height="24" width="12" x="1812" y="18" />
<rect fill="none" height="24" stroke="#405C86" stroke-width="2" width="12" x="1812" y="18" />
<rect fill="none" height="24" stroke="#405C86" stroke-dasharray="3 1" stroke-dashoffset="1.5" stroke-width="1" width="12" x="1800" y="18" />
<text class="label unused" x="1806" y="31"></text>
<rect fill="none" height="24" stroke="#405C86" stroke-dasharray="3 1" stroke-dashoffset="1.5" stroke-width="1" width="12" x="1788" y="18" />
<text class="label unused" x="1794" y="31"></text>
<rect fill="none" height="24" stroke="#405C86" stroke-dasharray="3 1" stroke-dashoffset="1.5" stroke-width="1" width="12" x="1776" y="18" />
<text class="label unused" x="1782" y="31"></text>
<rect fill="none" height="24" stroke="#405C86" stroke-dasharray="3 1" stroke-dashoffset="1.5" stroke-width="1" width="12" x="1764" y="18" />
<text class="label unused" x="1770" y="31"></text>
<rect fill="none" height="24" stroke="#405C86" stroke-dasharray="3 1" stroke-dashoffset="1.5" stroke-width="1" width="12" x="1752" y="18" />
<text class="label unused" x="1758" y="31"></text>
<rect fill="none" height="24" stroke="#405C86" stroke-dasharray="3 1" stroke-dashoffset="1.5" stroke-width="1" width="12" x="1740" y="18" />
<text class="label unused" x="1746" y="31"></text>
<rect fill="none" height="24" stroke="#405C86" stroke-dasharray="3 1" stroke-dashoffset="1.5" stroke-width="1" width="12" x="1728" y="18" />
<text class="label unused" x="1734" y="31"></text>
<rect fill="none" height="24" stroke="#405C86" stroke-dasharray="3 1" stroke-dashoffset="1.5" stroke-width="1" width="12" x="1716" y="18" />
<text class="label unused" x="1722" y="31"></text>
<rect fill="none" height="24" stroke="#405C86" stroke-dasharray="3 1" stroke-dashoffset="1.5" stroke-width="1" width="12" x="1704" y="18" />
<text class="label unused" x="1710" y="31"></text>
<rect fill="none" height="24" stroke="#405C86" stroke-dasharray="3 1" stroke-dashoffset="1.5" stroke-width="1" width="12" x="1692" y="18" />
<text class="label unused" x="1698" y="31"></text>
<rect fill="none" height="24" stroke="#405C86" stroke-dasharray="3 1" stroke-dashoffset="1.5" stroke-width="1" width="12" x="1680" y="18" />
<text class="label unused" x="1686" y="31"></text>
<rect fill="none" height="24" stroke="#405C86" stroke-dasharray="3 1" stroke-dashoffset="1.5" stroke-width="1" width="12" x="1668" y="18" />
<text class="label unused" x="1674" y="31"></text>
<rect fill="none" height="24" stroke="#405C86" stroke-dasharray="3 1" stroke-dashoffset="1.5" stroke-width="1" width="12" x="1656" y="18" />
<text class="label unused" x="1662" y="31"></text>
<rect fill="none" height="24" stroke="#405C86" stroke-dasharray="3 1" stroke-dashoffset="1.5" stroke-width="1" width="12" x="1644" y="18" />
<text class="label unused" x="1650" y="31"></text>
<rect fill="none" height="24" stroke="#405C86" stroke-dasharray="3 1" stroke-dashoffset="1.5" stroke-width="1" width="12" x="1632" y="18" />
<text class="label unused" x="1638" y="31"></text>
<rect fill="#DEE6F1" height="24" width="12" x="1428" y="18" />
<rect fill="none" height="24" stroke="#405C86" stroke-width="2" width="12" x="1428" y="18" />
<rect fill="none" height="24" stroke="#405C86" stroke-dasharray="3 1" stroke-dashoffset="1.5" stroke-width="1" width="12" x="1416" y="18" />
<text class="label unused" x="1422" y="31"></text>
<rect fill="none" height="24" stroke="#405C86" stroke-dasharray="3 1" stroke-dashoffset="1.5" stroke-width="1" width="12" x="1404" y="18" />
<text class="label unused" x="1410" y="31"></text>
<rect fill="none" height="24" stroke="#405C86" stroke-dasharray="3 1" stroke-dashoffset="1.5" stroke-width="1" width="12" x="1392" y="18" />
<text class="label unused" x="1398" y="31"></text>
<rect fill="none" height="24" stroke="#405C86" stroke-dasharray="3 1" stroke-dashoffset="1.5" stroke-width="1" width="12" x="1380" y="18" />
<text class="label unused" x="1386" y="31"></text>
<rect fill="none" height="24" stroke="#405C86" stroke-dasharray="3 1" stroke-dashoffset="1.5" stroke-width="1" width="12" x="1368" y="18" />
<text class="label unused" x="1374" y="31"></text>
<rect fill="none" height="24" stroke="#405C86" stroke-dasharray="3 1" stroke-dashoffset="1.5" stroke-width="1" width="12" x="1356" y="18" />
<text class="label unused" x="1362" y="31"></text>
<rect fill="none" height="24" stroke="#405C86" stroke-dasharray="3 1" stroke-dashoffset="1.5" stroke-width="1" width="12" x="1344" y="18" />
<text class="label unused" x="1350" y="31"></text>
<rect fill="none" height="24" stroke="#405C86" stroke-dasharray="3 1" stroke-dashoffset="1.5" stroke-width="1" width="12" x="1332" y="18" />
<text class="label unused" x="1338" y="31"></text>
<rect fill="none" height="24" stroke="#405C86" stroke-dasharray="3 1" stroke-dashoffset="1.5" stroke-width="1" width="12" x="1320" y="18" />
<text class="label unused" x="1326" y="31"></text>
<rect fill="none" height="24" stroke="#405C86" stroke-dasharray="3 1" stroke-dashoffset="1.5" stroke-width="1" width="12" x="1308" y="18" />
<text class="label unused" x="1314" y="31"></text>
<rect fill="none" height="24" stroke="#405C86" stroke-dasharray="3 1" stroke-dashoffset="1.5" stroke-width="1" width="12" x="1296" y="18" />
<text class="label unused" x="1302" y="31"></text>
<rect fill="none" height="24" stroke="#405C86" stroke-dasharray="3 1" stroke-dashoffset="1.5" stroke-width="1" width="12" x="1284" y="18" />
<text class="label unused" x="1290" y="31"></text>
<rect fill="none" height="24" stroke="#405C86" stroke-dasharray="3 1" stroke-dashoffset="1.5" stroke-width="1" width="12" x="1272" y="18" />
<text class="label unused" x="1278" y="31"></text>
<rect fill="none" height="24" stroke="#405C86" stroke-dasharray="3 1" stroke-dashoffset="1.5" stroke-width="1" width="12" x="1260" y="18" />
<text class="label unused" x="1266" y="31"></text>
<rect fill="none" height="24" stroke="#405C86" stroke-dasharray="3 1" stroke-dashoffset="1.5" stroke-width="1" width="12" x="1248" y="18" />
<text class="label unused" x="1254" y="31"></text>
<rect fill="#DEE6F1" height="24" width="12" x="1044" y="18" />
<rect fill="none" height="24" stroke="#405C86" stroke-width="2" width="12" x="1044" y="18" />
<rect fill="none" height="24" stroke="#405C86" stroke-dasharray="3 1" stroke-dashoffset="1.5" stroke-width="1" width="12" x="1032" y="18" />
<text class="label unused" x="1038" y="31"></text>
<rect fill="none" height="24" stroke="#405C86" stroke-dasharray="3 1" stroke-dashoffset="1.5" stroke-width="1" width="12" x="1020" y="18" />
<text class="label unused" x="1026" y="31"></text>
<rect fill="none" height="24" stroke="#405C86" stroke-dasharray="3 1" stroke-dashoffset="1.5" stroke-width="1" width="12" x="1008" y="18" />
<text class="label unused" x="1014" y="31"></text>
<rect fill="none" height="24" stroke="#405C86" stroke-dasharray="3 1" stroke-dashoffset="1.5" stroke-width="1" width="12" x="996" y="18" />
<text class="label unused" x="1002" y="31"></text>
<rect fill="none" height="24" stroke="#405C86" stroke-dasharray="3 1" stroke-dashoffset="1.5" stroke-width="1" width="12" x="984" y="18" />
<text class="label unused" x="990" y="31"></text>
<rect fill="none" height="24" stroke="#405C86" stroke-dasharray="3 1" stroke-dashoffset="1.5" stroke-width="1" width="12" x="972" y="18" />
<text class="label unused" x="978" y="31"></text>
<rect fill="none" height="24" stroke="#405C86" stroke-dasharray="3 1" stroke-dashoffset="1.5" stroke-width="1" width="12" x="960" y="18" />
<text class="label unused" x="966" y="31"></text>
<rect fill="none" height="24" stroke="#405C86" stroke-dasharray="3 1" stroke-dashoffset="1.5" stroke-width="1" width="12" x="948" y="18" />
<text class="label unused" x="954" y="31"></text>
<rect fill="none" height="24" stroke="#405C86" stroke-dasharray="3 1" stroke-dashoffset="1.5" stroke-width="1" width="12" x="936" y="18" />
<text class="label unused" x="942" y="31"></text>
<rect fill="none" height="24" stroke="#405C86" stroke-dasharray="3 1" stroke-dashoffset="1.5" stroke-width="1" width="12" x="924" y="18" />
<text class="label unused" x="930" y="31"></text>
<rect fill="none" height="24" stroke="#405C86" stroke-dasharray="3 1" stroke-dashoffset="1.5" stroke-width="1" width="12" x="912" y="18" />
<text class="label unused" x="918" y="31"></text>
<rect fill="none" height="24" stroke="#405C86" stroke-dasharray="3 1" stroke-dashoffset="1.5" stroke-width="1" width="12" x="900" y="18" />
<text class="label unused" x="906" y="31"></text>
<rect fill="none" height="24" stroke="#405C86" stroke-dasharray="3 1" stroke-dashoffset="1.5" stroke-width="1" width="12" x="888" y="18" />
<text class="label unused" x="894" y="31"></text>
<rect fill="none" height="24" stroke="#405C86" stroke-dasharray="3 1" stroke-dashoffset="1.5" stroke-width="1" width="12" x="876" y="18" />
<text class="label unused" x="882" y="31"></text>
<rect fill="none" height="24" stroke="#405C86" stroke-dasharray="3 1" stroke-dashoffset="1.5" stroke-width="1" width="12" x="864" y="18" />
<text class="label unused" x="870" y="31"></text>
<rect fill="#DEE6F1" height="24" width="12" x="660" y="18" />
<rect fill="none" height="24" stroke="#405C86" stroke-width="2" width="12" x="660" y="18" />
<rect fill="none" height="24" stroke="#405C86" stroke-dasharray="3 1" stroke-dashoffset="1.5" stroke-width="1" width="12" x="648" y="18" />
<text class="label unused" x="654" y="31"></text>
<rect fill="none" height="24" stroke="#405C86" stroke-dasharray="3 1" stroke-dashoffset="1.5" stroke-width="1" width="12" x="636" y="18" />
<text class="label unused" x="642" y="31"></text>
<rect fill="none" height="24" stroke="#405C86" stroke-dasharray="3 1" stroke-dashoffset="1.5" stroke-width="1" width="12" x="624" y="18" />
<text class="label unused" x="630" y="31"></text>
<rect fill="none" height="24" stroke="#405C86" stroke-dasharray="3 1" stroke-dashoffset="1.5" stroke-width="1" width="12" x="612" y="18" />
<text class="label unused" x="618" y="31"></text>
<rect fill="none" height="24" stroke="#405C86" stroke-dasharray="3 1" stroke-dashoffset="1.5" stroke-width="1" width="12" x="600" y="18" />
<text class="label unused" x="606" y="31"></text>
<rect fill="none" height="24" stroke="#405C86" stroke-dasharray="3 1" stroke-dashoffset="1.5" stroke-width="1" width="12" x="588" y="18" />
<text class="label unused" x="594" y="31"></text>
<rect fill="none" height="24" stroke="#405C86" stroke-dasharray="3 1" stroke-dashoffset="1.5" stroke-width="1" width="12" x="576" y="18" />
<text class="label unused" x="582" y="31"></text>
<rect fill="none" height="24" stroke="#405C86" stroke-dasharray="3 1" stroke-dashoffset="1.5" stroke-width="1" width="12" x="564" y="18" />
<text class="label unused" x="570" y="31"></text>
<rect fill="none" height="24" stroke="#405C86" stroke-dasharray="3 1" stroke-dashoffset="1.5" stroke-width="1" width="12" x="552" y="18" />
<text class="label unused" x="558" y="31"></text>
<rect fill="none" height="24" stroke="#405C86" stroke-dasharray="3 1" stroke-dashoffset="1.5" stroke-width="1" width="12" x="540" y="18" />
<text class="label unused" x="546" y="31"></text>
<rect fill="none" height="24" stroke="#405C86" stroke-dasharray="3 1" stroke-dashoffset="1.5" stroke-width="1" width="12" x="528" y="18" />
<text class="label unused" x="534" y="31"></text>
<rect fill="none" height="24" stroke="#405C86" stroke-dasharray="3 1" stroke-dashoffset="1.5" stroke-width="1" width="12" x="516" y="18" />
<text class="label unused" x="522" y="31"></text>
<rect fill="none" height="24" stroke="#405C86" stroke-dasharray="3 1" stroke-dashoffset="1.5" stroke-width="1" width="12" x="504" y="18" />
<text class="label unused" x="510" y="31"></text>
<rect fill="none" height="24" stroke="#405C86" stroke-dasharray="3 1" stroke-dashoffset="1.5" stroke-width="1" width="12" x="492" y="18" />
<text class="label unused" x="498" y="31"></text>
<rect fill="none" height="24" stroke="#405C86" stroke-dasharray="3 1" stroke-dashoffset="1.5" stroke-width="1" width="12" x="480" y="18" />
<text class="label unused" x="486" y="31"></text>
<rect fill="#DEE6F1" height="24" width="12" x="276" y="18" />
<rect fill="none" height="24" stroke="#405C86" stroke-width="2" width="12" x="276" y="18" />
<rect fill="none" height="24" stroke="#405C86" stroke-dasharray="3 1" stroke-dashoffset="1.5" stroke-width="1" width="12" x="264" y="18" />
<text class="label unused" x="270" y="31"></text>
<rect fill="none" height="24" stroke="#405C86" stroke-dasharray="3 1" stroke-dashoffset="1.5" stroke-width="1" width="12" x="252" y="18" />
<text class="label unused" x="258" y="31"></text>
<rect fill="none" height="24" stroke="#405C86" stroke-dasharray="3 1" stroke-dashoffset="1.5" stroke-width="1" width="12" x="240" y="18" />
<text class="label unused" x="246" y="31"></text>
<rect fill="none" height="24" stroke="#405C86" stroke-dasharray="3 1" stroke-dashoffset="1.5" stroke-width="1" width="12" x="228" y="18" />
<text class="label unused" x="234" y="31"></text>
<rect fill="none" height="24" stroke="#405C86" stroke-dasharray="3 1" stroke-dashoffset="1.5" stroke-width="1" width="12" x="216" y="18" />
<text class="label unused" x="222" y="31"></text>
<rect fill="none" height="24" stroke="#405C86" stroke-dasharray="3 1" stroke-dashoffset="1.5" stroke-width="1" width="12" x="204" y="18" />
<text class="label unused" x="210" y="31"></text>
<rect fill="none" height="24" stroke="#405C86" stroke-dasharray="3 1" stroke-dashoffset="1.5" stroke-width="1" width="12" x="192" y="18" />
<text class="label unused" x="198" y="31"></text>
<rect fill="none" height="24" stroke="#405C86" stroke-dasharray="3 1" stroke-dashoffset="1.5" stroke-width="1" width="12" x="180" y="18" />
<text class="label unused" x="186" y="31"></text>
<rect fill="none" height="24" stroke="#405C86" stroke-dasharray="3 1" stroke-dashoffset="1.5" stroke-width="1" width="12" x="168" y="18" />
<text class="label unused" x="174" y="31"></text>
<rect fill="none" height="24" stroke="#405C86" stroke-dasharray="3 1" stroke-dashoffset="1.5" stroke-width="1" width="12" x="156" y="18" />
<text class="label unused" x="162" y="31"></text>
<rect fill="none" height="24" stroke="#405C86" stroke-dasharray="3 1" stroke-dashoffset="1.5" stroke-width="1" width="12" x="144" y="18" />
<text class="label unused" x="150" y="31"></text>
<rect fill="none" height="24" stroke="#405C86" stroke-dasharray="3 1" stroke-dashoffset="1.5" stroke-width="1" width="12" x="132" y="18" />
<text class="label unused" x="138" y="31"></text>
<rect fill="none" height="24" stroke="#405C86" stroke-dasharray="3 1" stroke-dashoffset="1.5" stroke-width="1" width="12" x="120" y="18" />
<text class="label unused" x="126" y="31"></text>
<rect fill="none" height="24" stroke="#405C86" stroke-dasharray="3 1" stroke-dashoffset="1.5" stroke-width="1" width="12" x="108" y="18" />
<text class="label unused" x="114" y="31"></text>
<rect fill="none" height="24" stroke="#405C86" stroke-dasharray="3 1" stroke-dashoffset="1.5" stroke-width="1" width="12" x="96" y="18" />
<text class="label unused" x="102" y="31"></text>
<text class="register-name" x="80" y="30">Pg</text>
<text class="intrinsic-name" x="80" y="42">pg</text>
<text class="register-number" x="10" y="30">(1)</text>
<rect fill="#DEE6F1" height="24" width="384" x="2778" y="66" />
<rect fill="none" height="24" stroke="#405C86" stroke-width="2" width="384" x="2778" y="66" />
<text class="small-label intrinsic-color" x="2970" y="79">base[0]</text>
<rect fill="#DEE6F1" height="24" width="384" x="2394" y="66" />
<rect fill="none" height="24" stroke="#405C86" stroke-width="2" width="384" x="2394" y="66" />
<text class="small-label intrinsic-color" x="2586" y="79">base[2]</text>
<rect fill="#DEE6F1" height="24" width="384" x="2010" y="66" />
<rect fill="none" height="24" stroke="#405C86" stroke-width="2" width="384" x="2010" y="66" />
<text class="small-label intrinsic-color" x="2202" y="79">base[4]</text>
<rect fill="#DEE6F1" height="24" width="384" x="1626" y="66" />
<rect fill="none" height="24" stroke="#405C86" stroke-width="2" width="384" x="1626" y="66" />
<text class="small-label intrinsic-color" x="1818" y="79">base[6]</text>
<rect fill="#DEE6F1" height="24" width="384" x="1242" y="66" />
<rect fill="none" height="24" stroke="#405C86" stroke-width="2" width="384" x="1242" y="66" />
<text class="small-label intrinsic-color" x="1434" y="79">base[8]</text>
<rect fill="#DEE6F1" height="24" width="384" x="858" y="66" />
<rect fill="none" height="24" stroke="#405C86" stroke-width="2" width="384" x="858" y="66" />
<text class="small-label intrinsic-color" x="1050" y="79">base[10]</text>
<rect fill="#DEE6F1" height="24" width="384" x="474" y="66" />
<rect fill="none" height="24" stroke="#405C86" stroke-width="2" width="384" x="474" y="66" />
<text class="small-label intrinsic-color" x="666" y="79">base[12]</text>
<rect fill="#DEE6F1" height="24" width="384" x="90" y="66" />
<rect fill="none" height="24" stroke="#405C86" stroke-width="2" width="384" x="90" y="66" />
<text class="small-label intrinsic-color" x="282" y="79">base[14]</text>
<text class="register-name" x="80" y="78">Zt1</text>
<text class="intrinsic-name" x="80" y="90">data[0]</text>
<text class="register-number" x="10" y="78">(2)</text>
<rect fill="#EEDDDB" height="24" width="384" x="2778" y="114" />
<rect fill="none" height="24" stroke="#405C86" stroke-width="2" width="384" x="2778" y="114" />
<text class="small-label intrinsic-color" x="2970" y="127">base[1]</text>
<rect fill="#EEDDDB" height="24" width="384" x="2394" y="114" />
<rect fill="none" height="24" stroke="#405C86" stroke-width="2" width="384" x="2394" y="114" />
<text class="small-label intrinsic-color" x="2586" y="127">base[3]</text>
<rect fill="#EEDDDB" height="24" width="384" x="2010" y="114" />
<rect fill="none" height="24" stroke="#405C86" stroke-width="2" width="384" x="2010" y="114" />
<text class="small-label intrinsic-color" x="2202" y="127">base[5]</text>
<rect fill="#EEDDDB" height="24" width="384" x="1626" y="114" />
<rect fill="none" height="24" stroke="#405C86" stroke-width="2" width="384" x="1626" y="114" />
<text class="small-label intrinsic-color" x="1818" y="127">base[7]</text>
<rect fill="#EEDDDB" height="24" width="384" x="1242" y="114" />
<rect fill="none" height="24" stroke="#405C86" stroke-width="2" width="384" x="1242" y="114" />
<text class="small-label intrinsic-color" x="1434" y="127">base[9]</text>
<rect fill="#EEDDDB" height="24" width="384" x="858" y="114" />
<rect fill="none" height="24" stroke="#405C86" stroke-width="2" width="384" x="858" y="114" />
<text class="small-label intrinsic-color" x="1050" y="127">base[11]</text>
<rect fill="#EEDDDB" height="24" width="384" x="474" y="114" />
<rect fill="none" height="24" stroke="#405C86" stroke-width="2" width="384" x="474" y="114" />
<text class="small-label intrinsic-color" x="666" y="127">base[13]</text>
<rect fill="#EEDDDB" height="24" width="384" x="90" y="114" />
<rect fill="none" height="24" stroke="#405C86" stroke-width="2" width="384" x="90" y="114" />
<text class="small-label intrinsic-color" x="282" y="127">base[15]</text>
<text class="register-name" x="80" y="126">Zt2</text>
<text class="intrinsic-name" x="80" y="138">data[1]</text>
<text class="register-number" x="10" y="126">(3)</text>
<line stroke="#567DB6" stroke-width="1" x1="2975" x2="2975" y1="90.5" y2="185" />
<line stroke="#567DB6" stroke-width="1" x1="2970" x2="2586" y1="138.5" y2="185" />
<line stroke="#567DB6" stroke-dasharray="3 1" stroke-width="1" x1="666" x2="1434" y1="90.5" y2="221" />
<line stroke="#567DB6" stroke-dasharray="3 1" stroke-width="1" x1="666" x2="1050" y1="138.5" y2="221" />
<line stroke="#567DB6" stroke-width="1" x1="282" x2="666" y1="90.5" y2="221" />
<line stroke="#567DB6" stroke-width="1" x1="282" x2="282" y1="138.5" y2="221" />
<polyline fill="none" points="2781.0 65.5,2783.0 61.5,2969.0 61.5,2970.0 59.5,2970.0 55.5,2970.0 59.5,2971.0 61.5,3157.0 61.5,3159.0 65.5" stroke="#567DB6" stroke-width="1" />
<line stroke="#567DB6" stroke-width="1" x1="2970" x2="2970" y1="42.5" y2="55.5" />
<polyline fill="none" points="2397.0 65.5,2399.0 61.5,2585.0 61.5,2586.0 59.5,2586.0 55.5,2586.0 59.5,2587.0 61.5,2773.0 61.5,2775.0 65.5" stroke="#567DB6" stroke-width="1" />
<line stroke="#567DB6" stroke-width="1" x1="2586" x2="2586" y1="42.5" y2="55.5" />
<polyline fill="none" points="2013.0 65.5,2015.0 61.5,2201.0 61.5,2202.0 59.5,2202.0 55.5,2202.0 59.5,2203.0 61.5,2389.0 61.5,2391.0 65.5" stroke="#567DB6" stroke-width="1" />
<line stroke="#567DB6" stroke-width="1" x1="2202" x2="2202" y1="42.5" y2="55.5" />
<polyline fill="none" points="1629.0 65.5,1631.0 61.5,1817.0 61.5,1818.0 59.5,1818.0 55.5,1818.0 59.5,1819.0 61.5,2005.0 61.5,2007.0 65.5" stroke="#567DB6" stroke-width="1" />
<line stroke="#567DB6" stroke-width="1" x1="1818" x2="1818" y1="42.5" y2="55.5" />
<polyline fill="none" points="1245.0 65.5,1247.0 61.5,1433.0 61.5,1434.0 59.5,1434.0 55.5,1434.0 59.5,1435.0 61.5,1621.0 61.5,1623.0 65.5" stroke="#567DB6" stroke-width="1" />
<line stroke="#567DB6" stroke-width="1" x1="1434" x2="1434" y1="42.5" y2="55.5" />
<polyline fill="none" points="861.0 65.5,863.0 61.5,1049.0 61.5,1050.0 59.5,1050.0 55.5,1050.0 59.5,1051.0 61.5,1237.0 61.5,1239.0 65.5" stroke="#567DB6" stroke-width="1" />
<line stroke="#567DB6" stroke-width="1" x1="1050" x2="1050" y1="42.5" y2="55.5" />
<polyline fill="none" points="477.0 65.5,479.0 61.5,665.0 61.5,666.0 59.5,666.0 55.5,666.0 59.5,667.0 61.5,853.0 61.5,855.0 65.5" stroke="#567DB6" stroke-width="1" />
<line stroke="#567DB6" stroke-width="1" x1="666" x2="666" y1="42.5" y2="55.5" />
<polyline fill="none" points="93.0 65.5,95.0 61.5,281.0 61.5,282.0 59.5,282.0 55.5,282.0 59.5,283.0 61.5,469.0 61.5,471.0 65.5" stroke="#567DB6" stroke-width="1" />
<line stroke="#567DB6" stroke-width="1" x1="282" x2="282" y1="42.5" y2="55.5" />
<line marker-end="url(#arrowhead)" stroke="none" x1="2975" x2="2975" y1="90.5" y2="185" />
<line marker-end="url(#arrowhead)" stroke="none" x1="2970" x2="2586" y1="138.5" y2="185" />
<line marker-end="url(#arrowhead)" stroke="none" stroke-dasharray="3 1" x1="666" x2="1434" y1="90.5" y2="221" />
<line marker-end="url(#arrowhead)" stroke="none" stroke-dasharray="3 1" x1="666" x2="1050" y1="138.5" y2="221" />
<line marker-end="url(#arrowhead)" stroke="none" x1="282" x2="666" y1="90.5" y2="221" />
<line marker-end="url(#arrowhead)" stroke="none" x1="282" x2="282" y1="138.5" y2="221" />
</svg>