<svg xmlns="http://www.w3.org/2000/svg" viewBox="0 0 3174 123">
<style>
.label { font: 14px Helvetica; dominant-baseline: middle; text-anchor: middle; }
.title-left { font: 12px Helvetica; dominant-baseline: middle; }
.title-right { font: 12px Helvetica; dominant-baseline: middle; text-anchor: end; }
.title-intrinsic { font: 12px Helvetica; dominant-baseline: middle; text-anchor: middle; fill: #6778ED; }
.title { font: 12px Helvetica; dominant-baseline: middle; text-anchor: middle; }
.title-unused { font: 12px Helvetica; dominant-baseline: middle; text-anchor: middle; fill: #AAA; }
.register-name { font: 14px Helvetica; dominant-baseline: middle; text-anchor: end; font-style: italic; }
.memory-name { font: 14px Helvetica; dominant-baseline: middle; text-anchor: end; }
.register-number { font: 14px Helvetica; dominant-baseline: middle; text-anchor: start; }
.intrinsic-name { font: 14px Helvetica; dominant-baseline: middle; text-anchor: end; fill: #6778ED; }
.intrinsic-color { fill: #6778ED; }
.small-label { font: 12px Helvetica; dominant-baseline: middle; text-anchor: middle; }
.label-10px { font: 10px Helvetica; dominant-baseline: middle; text-anchor: middle; }
.smaller-label { font: 9px Helvetica; dominant-baseline: middle; text-anchor: middle; }
.label-6px { font: 6px Helvetica; dominant-baseline: middle; text-anchor: middle; }
.label-7px { font: 7px Helvetica; dominant-baseline: middle; text-anchor: middle; }
.unused { fill: #AAA; }
.dim { fill: #888; }
</style>
<defs>
<marker id="arrowhead" markerWidth="10.75" markerHeight="24.5" refX="9.0" refY="6.125" orient="auto">
<polyline points="0.5 0.5, 8.75 6.125, 0.5 11.75" stroke="#567DB6" stroke-width="1" fill="none"/>
</marker>
</defs>
<line stroke="#567DB6" stroke-width="1" x1="1615.875" x2="3151.4375" y1="42.5" y2="89" />
<line stroke="#567DB6" stroke-width="1" x1="1591.875" x2="3103.4375" y1="42.5" y2="89" />
<line stroke="#567DB6" stroke-width="1" x1="1567.875" x2="3055.4375" y1="42.5" y2="89" />
<line stroke="#567DB6" stroke-width="1" x1="1543.875" x2="3007.4375" y1="42.5" y2="89" />
<line stroke="#567DB6" stroke-width="1" x1="1519.875" x2="2959.4375" y1="42.5" y2="89" />
<line stroke="#567DB6" stroke-width="1" x1="1495.875" x2="2911.4375" y1="42.5" y2="89" />
<line stroke="#567DB6" stroke-width="1" x1="1471.875" x2="2863.4375" y1="42.5" y2="89" />
<line stroke="#567DB6" stroke-width="1" x1="1447.875" x2="2815.4375" y1="42.5" y2="89" />
<line stroke="#567DB6" stroke-width="1" x1="1423.875" x2="2767.4375" y1="42.5" y2="89" />
<line stroke="#567DB6" stroke-width="1" x1="1399.875" x2="2719.4375" y1="42.5" y2="89" />
<line stroke="#567DB6" stroke-width="1" x1="1375.875" x2="2671.4375" y1="42.5" y2="89" />
<line stroke="#567DB6" stroke-width="1" x1="1351.875" x2="2623.4375" y1="42.5" y2="89" />
<line stroke="#567DB6" stroke-width="1" x1="1327.875" x2="2575.4375" y1="42.5" y2="89" />
<line stroke="#567DB6" stroke-width="1" x1="1303.875" x2="2527.4375" y1="42.5" y2="89" />
<line stroke="#567DB6" stroke-width="1" x1="1279.875" x2="2479.4375" y1="42.5" y2="89" />
<line stroke="#567DB6" stroke-width="1" x1="1255.875" x2="2431.4375" y1="42.5" y2="89" />
<line stroke="#567DB6" stroke-width="1" x1="1231.875" x2="2383.4375" y1="42.5" y2="89" />
<line stroke="#567DB6" stroke-width="1" x1="1207.875" x2="2335.4375" y1="42.5" y2="89" />
<line stroke="#567DB6" stroke-width="1" x1="1183.875" x2="2287.4375" y1="42.5" y2="89" />
<line stroke="#567DB6" stroke-width="1" x1="1159.875" x2="2239.4375" y1="42.5" y2="89" />
<line stroke="#567DB6" stroke-width="1" x1="1135.875" x2="2191.4375" y1="42.5" y2="89" />
<line stroke="#567DB6" stroke-width="1" x1="1111.875" x2="2143.4375" y1="42.5" y2="89" />
<line stroke="#567DB6" stroke-width="1" x1="1087.875" x2="2095.4375" y1="42.5" y2="89" />
<line stroke="#567DB6" stroke-width="1" x1="1063.875" x2="2047.4375" y1="42.5" y2="89" />
<line stroke="#567DB6" stroke-width="1" x1="1039.875" x2="1999.4375" y1="42.5" y2="89" />
<line stroke="#567DB6" stroke-width="1" x1="1015.875" x2="1951.4375" y1="42.5" y2="89" />
<line stroke="#567DB6" stroke-width="1" x1="991.875" x2="1903.4375" y1="42.5" y2="89" />
<line stroke="#567DB6" stroke-width="1" x1="967.875" x2="1855.4375" y1="42.5" y2="89" />
<line stroke="#567DB6" stroke-width="1" x1="943.875" x2="1807.4375" y1="42.5" y2="89" />
<line stroke="#567DB6" stroke-width="1" x1="919.875" x2="1759.4375" y1="42.5" y2="89" />
<line stroke="#567DB6" stroke-width="1" x1="895.875" x2="1711.4375" y1="42.5" y2="89" />
<line stroke="#567DB6" stroke-width="1" x1="871.875" x2="1663.4375" y1="42.5" y2="89" />
<line stroke="#567DB6" stroke-width="1" x1="847.875" x2="1615.4375" y1="42.5" y2="89" />
<line stroke="#567DB6" stroke-width="1" x1="823.875" x2="1567.4375" y1="42.5" y2="89" />
<line stroke="#567DB6" stroke-width="1" x1="799.875" x2="1519.4375" y1="42.5" y2="89" />
<line stroke="#567DB6" stroke-width="1" x1="775.875" x2="1471.4375" y1="42.5" y2="89" />
<line stroke="#567DB6" stroke-width="1" x1="751.875" x2="1423.4375" y1="42.5" y2="89" />
<line stroke="#567DB6" stroke-width="1" x1="727.875" x2="1375.4375" y1="42.5" y2="89" />
<line stroke="#567DB6" stroke-width="1" x1="703.875" x2="1327.4375" y1="42.5" y2="89" />
<line stroke="#567DB6" stroke-width="1" x1="679.875" x2="1279.4375" y1="42.5" y2="89" />
<line stroke="#567DB6" stroke-width="1" x1="655.875" x2="1231.4375" y1="42.5" y2="89" />
<line stroke="#567DB6" stroke-width="1" x1="631.875" x2="1183.4375" y1="42.5" y2="89" />
<line stroke="#567DB6" stroke-width="1" x1="607.875" x2="1135.4375" y1="42.5" y2="89" />
<line stroke="#567DB6" stroke-width="1" x1="583.875" x2="1087.4375" y1="42.5" y2="89" />
<line stroke="#567DB6" stroke-width="1" x1="559.875" x2="1039.4375" y1="42.5" y2="89" />
<line stroke="#567DB6" stroke-width="1" x1="535.875" x2="991.4375" y1="42.5" y2="89" />
<line stroke="#567DB6" stroke-width="1" x1="511.875" x2="943.4375" y1="42.5" y2="89" />
<line stroke="#567DB6" stroke-width="1" x1="487.875" x2="895.4375" y1="42.5" y2="89" />
<line stroke="#567DB6" stroke-width="1" x1="463.875" x2="847.4375" y1="42.5" y2="89" />
<line stroke="#567DB6" stroke-width="1" x1="439.875" x2="799.4375" y1="42.5" y2="89" />
<line stroke="#567DB6" stroke-width="1" x1="415.875" x2="751.4375" y1="42.5" y2="89" />
<line stroke="#567DB6" stroke-width="1" x1="391.875" x2="703.4375" y1="42.5" y2="89" />
<line stroke="#567DB6" stroke-width="1" x1="367.875" x2="655.4375" y1="42.5" y2="89" />
<line stroke="#567DB6" stroke-width="1" x1="343.875" x2="607.4375" y1="42.5" y2="89" />
<line stroke="#567DB6" stroke-width="1" x1="319.875" x2="559.4375" y1="42.5" y2="89" />
<line stroke="#567DB6" stroke-width="1" x1="295.875" x2="511.4375" y1="42.5" y2="89" />
<line stroke="#567DB6" stroke-width="1" x1="271.875" x2="463.4375" y1="42.5" y2="89" />
<line stroke="#567DB6" stroke-width="1" x1="247.875" x2="415.4375" y1="42.5" y2="89" />
<line stroke="#567DB6" stroke-width="1" x1="223.875" x2="367.4375" y1="42.5" y2="89" />
<line stroke="#567DB6" stroke-width="1" x1="199.875" x2="319.4375" y1="42.5" y2="89" />
<line stroke="#567DB6" stroke-width="1" x1="175.875" x2="271.4375" y1="42.5" y2="89" />
<line stroke="#567DB6" stroke-width="1" x1="151.875" x2="223.4375" y1="42.5" y2="89" />
<line stroke="#567DB6" stroke-width="1" x1="127.875" x2="175.4375" y1="42.5" y2="89" />
<line stroke="#567DB6" stroke-width="1" x1="103.875" x2="127.4375" y1="42.5" y2="89" />
<text class="title-left" x="90" y="9">upper</text>
<text class="title-right" x="3162" y="9">lower</text>
<rect fill="none" height="24" stroke="#405C86" stroke-dasharray="3 1" stroke-dashoffset="1.5" stroke-width="1" width="1536" x="1626" y="18" />
<text class="label unused" x="2394" y="31"></text>
<rect fill="#DEE6F1" height="24" width="20.25" x="1605.75" y="18" />
<rect fill="#EEDDDB" height="24" width="3.75" x="1602" y="18" />
<rect fill="none" height="24" stroke="#405C86" stroke-width="2" width="24" x="1602" y="18" />
<rect fill="#DEE6F1" height="24" width="20.25" x="1581.75" y="18" />
<rect fill="#EEDDDB" height="24" width="3.75" x="1578" y="18" />
<rect fill="none" height="24" stroke="#405C86" stroke-width="2" width="24" x="1578" y="18" />
<rect fill="#DEE6F1" height="24" width="20.25" x="1557.75" y="18" />
<rect fill="#EEDDDB" height="24" width="3.75" x="1554" y="18" />
<rect fill="none" height="24" stroke="#405C86" stroke-width="2" width="24" x="1554" y="18" />
<rect fill="#DEE6F1" height="24" width="20.25" x="1533.75" y="18" />
<rect fill="#EEDDDB" height="24" width="3.75" x="1530" y="18" />
<rect fill="none" height="24" stroke="#405C86" stroke-width="2" width="24" x="1530" y="18" />
<rect fill="#DEE6F1" height="24" width="20.25" x="1509.75" y="18" />
<rect fill="#EEDDDB" height="24" width="3.75" x="1506" y="18" />
<rect fill="none" height="24" stroke="#405C86" stroke-width="2" width="24" x="1506" y="18" />
<rect fill="#DEE6F1" height="24" width="20.25" x="1485.75" y="18" />
<rect fill="#EEDDDB" height="24" width="3.75" x="1482" y="18" />
<rect fill="none" height="24" stroke="#405C86" stroke-width="2" width="24" x="1482" y="18" />
<rect fill="#DEE6F1" height="24" width="20.25" x="1461.75" y="18" />
<rect fill="#EEDDDB" height="24" width="3.75" x="1458" y="18" />
<rect fill="none" height="24" stroke="#405C86" stroke-width="2" width="24" x="1458" y="18" />
<rect fill="#DEE6F1" height="24" width="20.25" x="1437.75" y="18" />
<rect fill="#EEDDDB" height="24" width="3.75" x="1434" y="18" />
<rect fill="none" height="24" stroke="#405C86" stroke-width="2" width="24" x="1434" y="18" />
<rect fill="#DEE6F1" height="24" width="20.25" x="1413.75" y="18" />
<rect fill="#EEDDDB" height="24" width="3.75" x="1410" y="18" />
<rect fill="none" height="24" stroke="#405C86" stroke-width="2" width="24" x="1410" y="18" />
<rect fill="#DEE6F1" height="24" width="20.25" x="1389.75" y="18" />
<rect fill="#EEDDDB" height="24" width="3.75" x="1386" y="18" />
<rect fill="none" height="24" stroke="#405C86" stroke-width="2" width="24" x="1386" y="18" />
<rect fill="#DEE6F1" height="24" width="20.25" x="1365.75" y="18" />
<rect fill="#EEDDDB" height="24" width="3.75" x="1362" y="18" />
<rect fill="none" height="24" stroke="#405C86" stroke-width="2" width="24" x="1362" y="18" />
<rect fill="#DEE6F1" height="24" width="20.25" x="1341.75" y="18" />
<rect fill="#EEDDDB" height="24" width="3.75" x="1338" y="18" />
<rect fill="none" height="24" stroke="#405C86" stroke-width="2" width="24" x="1338" y="18" />
<rect fill="#DEE6F1" height="24" width="20.25" x="1317.75" y="18" />
<rect fill="#EEDDDB" height="24" width="3.75" x="1314" y="18" />
<rect fill="none" height="24" stroke="#405C86" stroke-width="2" width="24" x="1314" y="18" />
<rect fill="#DEE6F1" height="24" width="20.25" x="1293.75" y="18" />
<rect fill="#EEDDDB" height="24" width="3.75" x="1290" y="18" />
<rect fill="none" height="24" stroke="#405C86" stroke-width="2" width="24" x="1290" y="18" />
<rect fill="#DEE6F1" height="24" width="20.25" x="1269.75" y="18" />
<rect fill="#EEDDDB" height="24" width="3.75" x="1266" y="18" />
<rect fill="none" height="24" stroke="#405C86" stroke-width="2" width="24" x="1266" y="18" />
<rect fill="#DEE6F1" height="24" width="20.25" x="1245.75" y="18" />
<rect fill="#EEDDDB" height="24" width="3.75" x="1242" y="18" />
<rect fill="none" height="24" stroke="#405C86" stroke-width="2" width="24" x="1242" y="18" />
<rect fill="#DEE6F1" height="24" width="20.25" x="1221.75" y="18" />
<rect fill="#EEDDDB" height="24" width="3.75" x="1218" y="18" />
<rect fill="none" height="24" stroke="#405C86" stroke-width="2" width="24" x="1218" y="18" />
<rect fill="#DEE6F1" height="24" width="20.25" x="1197.75" y="18" />
<rect fill="#EEDDDB" height="24" width="3.75" x="1194" y="18" />
<rect fill="none" height="24" stroke="#405C86" stroke-width="2" width="24" x="1194" y="18" />
<rect fill="#DEE6F1" height="24" width="20.25" x="1173.75" y="18" />
<rect fill="#EEDDDB" height="24" width="3.75" x="1170" y="18" />
<rect fill="none" height="24" stroke="#405C86" stroke-width="2" width="24" x="1170" y="18" />
<rect fill="#DEE6F1" height="24" width="20.25" x="1149.75" y="18" />
<rect fill="#EEDDDB" height="24" width="3.75" x="1146" y="18" />
<rect fill="none" height="24" stroke="#405C86" stroke-width="2" width="24" x="1146" y="18" />
<rect fill="#DEE6F1" height="24" width="20.25" x="1125.75" y="18" />
<rect fill="#EEDDDB" height="24" width="3.75" x="1122" y="18" />
<rect fill="none" height="24" stroke="#405C86" stroke-width="2" width="24" x="1122" y="18" />
<rect fill="#DEE6F1" height="24" width="20.25" x="1101.75" y="18" />
<rect fill="#EEDDDB" height="24" width="3.75" x="1098" y="18" />
<rect fill="none" height="24" stroke="#405C86" stroke-width="2" width="24" x="1098" y="18" />
<rect fill="#DEE6F1" height="24" width="20.25" x="1077.75" y="18" />
<rect fill="#EEDDDB" height="24" width="3.75" x="1074" y="18" />
<rect fill="none" height="24" stroke="#405C86" stroke-width="2" width="24" x="1074" y="18" />
<rect fill="#DEE6F1" height="24" width="20.25" x="1053.75" y="18" />
<rect fill="#EEDDDB" height="24" width="3.75" x="1050" y="18" />
<rect fill="none" height="24" stroke="#405C86" stroke-width="2" width="24" x="1050" y="18" />
<rect fill="#DEE6F1" height="24" width="20.25" x="1029.75" y="18" />
<rect fill="#EEDDDB" height="24" width="3.75" x="1026" y="18" />
<rect fill="none" height="24" stroke="#405C86" stroke-width="2" width="24" x="1026" y="18" />
<rect fill="#DEE6F1" height="24" width="20.25" x="1005.75" y="18" />
<rect fill="#EEDDDB" height="24" width="3.75" x="1002" y="18" />
<rect fill="none" height="24" stroke="#405C86" stroke-width="2" width="24" x="1002" y="18" />
<rect fill="#DEE6F1" height="24" width="20.25" x="981.75" y="18" />
<rect fill="#EEDDDB" height="24" width="3.75" x="978" y="18" />
<rect fill="none" height="24" stroke="#405C86" stroke-width="2" width="24" x="978" y="18" />
<rect fill="#DEE6F1" height="24" width="20.25" x="957.75" y="18" />
<rect fill="#EEDDDB" height="24" width="3.75" x="954" y="18" />
<rect fill="none" height="24" stroke="#405C86" stroke-width="2" width="24" x="954" y="18" />
<rect fill="#DEE6F1" height="24" width="20.25" x="933.75" y="18" />
<rect fill="#EEDDDB" height="24" width="3.75" x="930" y="18" />
<rect fill="none" height="24" stroke="#405C86" stroke-width="2" width="24" x="930" y="18" />
<rect fill="#DEE6F1" height="24" width="20.25" x="909.75" y="18" />
<rect fill="#EEDDDB" height="24" width="3.75" x="906" y="18" />
<rect fill="none" height="24" stroke="#405C86" stroke-width="2" width="24" x="906" y="18" />
<rect fill="#DEE6F1" height="24" width="20.25" x="885.75" y="18" />
<rect fill="#EEDDDB" height="24" width="3.75" x="882" y="18" />
<rect fill="none" height="24" stroke="#405C86" stroke-width="2" width="24" x="882" y="18" />
<rect fill="#DEE6F1" height="24" width="20.25" x="861.75" y="18" />
<rect fill="#EEDDDB" height="24" width="3.75" x="858" y="18" />
<rect fill="none" height="24" stroke="#405C86" stroke-width="2" width="24" x="858" y="18" />
<rect fill="#DEE6F1" height="24" width="20.25" x="837.75" y="18" />
<rect fill="#EEDDDB" height="24" width="3.75" x="834" y="18" />
<rect fill="none" height="24" stroke="#405C86" stroke-width="2" width="24" x="834" y="18" />
<rect fill="#DEE6F1" height="24" width="20.25" x="813.75" y="18" />
<rect fill="#EEDDDB" height="24" width="3.75" x="810" y="18" />
<rect fill="none" height="24" stroke="#405C86" stroke-width="2" width="24" x="810" y="18" />
<rect fill="#DEE6F1" height="24" width="20.25" x="789.75" y="18" />
<rect fill="#EEDDDB" height="24" width="3.75" x="786" y="18" />
<rect fill="none" height="24" stroke="#405C86" stroke-width="2" width="24" x="786" y="18" />
<rect fill="#DEE6F1" height="24" width="20.25" x="765.75" y="18" />
<rect fill="#EEDDDB" height="24" width="3.75" x="762" y="18" />
<rect fill="none" height="24" stroke="#405C86" stroke-width="2" width="24" x="762" y="18" />
<rect fill="#DEE6F1" height="24" width="20.25" x="741.75" y="18" />
<rect fill="#EEDDDB" height="24" width="3.75" x="738" y="18" />
<rect fill="none" height="24" stroke="#405C86" stroke-width="2" width="24" x="738" y="18" />
<rect fill="#DEE6F1" height="24" width="20.25" x="717.75" y="18" />
<rect fill="#EEDDDB" height="24" width="3.75" x="714" y="18" />
<rect fill="none" height="24" stroke="#405C86" stroke-width="2" width="24" x="714" y="18" />
<rect fill="#DEE6F1" height="24" width="20.25" x="693.75" y="18" />
<rect fill="#EEDDDB" height="24" width="3.75" x="690" y="18" />
<rect fill="none" height="24" stroke="#405C86" stroke-width="2" width="24" x="690" y="18" />
<rect fill="#DEE6F1" height="24" width="20.25" x="669.75" y="18" />
<rect fill="#EEDDDB" height="24" width="3.75" x="666" y="18" />
<rect fill="none" height="24" stroke="#405C86" stroke-width="2" width="24" x="666" y="18" />
<rect fill="#DEE6F1" height="24" width="20.25" x="645.75" y="18" />
<rect fill="#EEDDDB" height="24" width="3.75" x="642" y="18" />
<rect fill="none" height="24" stroke="#405C86" stroke-width="2" width="24" x="642" y="18" />
<rect fill="#DEE6F1" height="24" width="20.25" x="621.75" y="18" />
<rect fill="#EEDDDB" height="24" width="3.75" x="618" y="18" />
<rect fill="none" height="24" stroke="#405C86" stroke-width="2" width="24" x="618" y="18" />
<rect fill="#DEE6F1" height="24" width="20.25" x="597.75" y="18" />
<rect fill="#EEDDDB" height="24" width="3.75" x="594" y="18" />
<rect fill="none" height="24" stroke="#405C86" stroke-width="2" width="24" x="594" y="18" />
<rect fill="#DEE6F1" height="24" width="20.25" x="573.75" y="18" />
<rect fill="#EEDDDB" height="24" width="3.75" x="570" y="18" />
<rect fill="none" height="24" stroke="#405C86" stroke-width="2" width="24" x="570" y="18" />
<rect fill="#DEE6F1" height="24" width="20.25" x="549.75" y="18" />
<rect fill="#EEDDDB" height="24" width="3.75" x="546" y="18" />
<rect fill="none" height="24" stroke="#405C86" stroke-width="2" width="24" x="546" y="18" />
<rect fill="#DEE6F1" height="24" width="20.25" x="525.75" y="18" />
<rect fill="#EEDDDB" height="24" width="3.75" x="522" y="18" />
<rect fill="none" height="24" stroke="#405C86" stroke-width="2" width="24" x="522" y="18" />
<rect fill="#DEE6F1" height="24" width="20.25" x="501.75" y="18" />
<rect fill="#EEDDDB" height="24" width="3.75" x="498" y="18" />
<rect fill="none" height="24" stroke="#405C86" stroke-width="2" width="24" x="498" y="18" />
<rect fill="#DEE6F1" height="24" width="20.25" x="477.75" y="18" />
<rect fill="#EEDDDB" height="24" width="3.75" x="474" y="18" />
<rect fill="none" height="24" stroke="#405C86" stroke-width="2" width="24" x="474" y="18" />
<rect fill="#DEE6F1" height="24" width="20.25" x="453.75" y="18" />
<rect fill="#EEDDDB" height="24" width="3.75" x="450" y="18" />
<rect fill="none" height="24" stroke="#405C86" stroke-width="2" width="24" x="450" y="18" />
<rect fill="#DEE6F1" height="24" width="20.25" x="429.75" y="18" />
<rect fill="#EEDDDB" height="24" width="3.75" x="426" y="18" />
<rect fill="none" height="24" stroke="#405C86" stroke-width="2" width="24" x="426" y="18" />
<rect fill="#DEE6F1" height="24" width="20.25" x="405.75" y="18" />
<rect fill="#EEDDDB" height="24" width="3.75" x="402" y="18" />
<rect fill="none" height="24" stroke="#405C86" stroke-width="2" width="24" x="402" y="18" />
<rect fill="#DEE6F1" height="24" width="20.25" x="381.75" y="18" />
<rect fill="#EEDDDB" height="24" width="3.75" x="378" y="18" />
<rect fill="none" height="24" stroke="#405C86" stroke-width="2" width="24" x="378" y="18" />
<rect fill="#DEE6F1" height="24" width="20.25" x="357.75" y="18" />
<rect fill="#EEDDDB" height="24" width="3.75" x="354" y="18" />
<rect fill="none" height="24" stroke="#405C86" stroke-width="2" width="24" x="354" y="18" />
<rect fill="#DEE6F1" height="24" width="20.25" x="333.75" y="18" />
<rect fill="#EEDDDB" height="24" width="3.75" x="330" y="18" />
<rect fill="none" height="24" stroke="#405C86" stroke-width="2" width="24" x="330" y="18" />
<rect fill="#DEE6F1" height="24" width="20.25" x="309.75" y="18" />
<rect fill="#EEDDDB" height="24" width="3.75" x="306" y="18" />
<rect fill="none" height="24" stroke="#405C86" stroke-width="2" width="24" x="306" y="18" />
<rect fill="#DEE6F1" height="24" width="20.25" x="285.75" y="18" />
<rect fill="#EEDDDB" height="24" width="3.75" x="282" y="18" />
<rect fill="none" height="24" stroke="#405C86" stroke-width="2" width="24" x="282" y="18" />
<rect fill="#DEE6F1" height="24" width="20.25" x="261.75" y="18" />
<rect fill="#EEDDDB" height="24" width="3.75" x="258" y="18" />
<rect fill="none" height="24" stroke="#405C86" stroke-width="2" width="24" x="258" y="18" />
<rect fill="#DEE6F1" height="24" width="20.25" x="237.75" y="18" />
<rect fill="#EEDDDB" height="24" width="3.75" x="234" y="18" />
<rect fill="none" height="24" stroke="#405C86" stroke-width="2" width="24" x="234" y="18" />
<rect fill="#DEE6F1" height="24" width="20.25" x="213.75" y="18" />
<rect fill="#EEDDDB" height="24" width="3.75" x="210" y="18" />
<rect fill="none" height="24" stroke="#405C86" stroke-width="2" width="24" x="210" y="18" />
<rect fill="#DEE6F1" height="24" width="20.25" x="189.75" y="18" />
<rect fill="#EEDDDB" height="24" width="3.75" x="186" y="18" />
<rect fill="none" height="24" stroke="#405C86" stroke-width="2" width="24" x="186" y="18" />
<rect fill="#DEE6F1" height="24" width="20.25" x="165.75" y="18" />
<rect fill="#EEDDDB" height="24" width="3.75" x="162" y="18" />
<rect fill="none" height="24" stroke="#405C86" stroke-width="2" width="24" x="162" y="18" />
<rect fill="#DEE6F1" height="24" width="20.25" x="141.75" y="18" />
<rect fill="#EEDDDB" height="24" width="3.75" x="138" y="18" />
<rect fill="none" height="24" stroke="#405C86" stroke-width="2" width="24" x="138" y="18" />
<rect fill="#DEE6F1" height="24" width="20.25" x="117.75" y="18" />
<rect fill="#EEDDDB" height="24" width="3.75" x="114" y="18" />
<rect fill="none" height="24" stroke="#405C86" stroke-width="2" width="24" x="114" y="18" />
<rect fill="#DEE6F1" height="24" width="20.25" x="93.75" y="18" />
<rect fill="#EEDDDB" height="24" width="3.75" x="90" y="18" />
<rect fill="none" height="24" stroke="#405C86" stroke-width="2" width="24" x="90" y="18" />
<text class="register-name" x="80" y="30">Zn</text>
<text class="intrinsic-name" x="80" y="42">op</text>
<text class="register-number" x="10" y="30">(1)</text>
<rect fill="#DEE6F1" height="24" width="21.125" x="3140.875" y="90" />
<rect fill="#EEDDDB" height="24" width="26.875" x="3114" y="90" />
<rect fill="none" height="24" stroke="#405C86" stroke-width="2" width="48" x="3114" y="90" />
<rect fill="#DEE6F1" height="24" width="21.125" x="3092.875" y="90" />
<rect fill="#EEDDDB" height="24" width="26.875" x="3066" y="90" />
<rect fill="none" height="24" stroke="#405C86" stroke-width="2" width="48" x="3066" y="90" />
<rect fill="#DEE6F1" height="24" width="21.125" x="3044.875" y="90" />
<rect fill="#EEDDDB" height="24" width="26.875" x="3018" y="90" />
<rect fill="none" height="24" stroke="#405C86" stroke-width="2" width="48" x="3018" y="90" />
<rect fill="#DEE6F1" height="24" width="21.125" x="2996.875" y="90" />
<rect fill="#EEDDDB" height="24" width="26.875" x="2970" y="90" />
<rect fill="none" height="24" stroke="#405C86" stroke-width="2" width="48" x="2970" y="90" />
<rect fill="#DEE6F1" height="24" width="21.125" x="2948.875" y="90" />
<rect fill="#EEDDDB" height="24" width="26.875" x="2922" y="90" />
<rect fill="none" height="24" stroke="#405C86" stroke-width="2" width="48" x="2922" y="90" />
<rect fill="#DEE6F1" height="24" width="21.125" x="2900.875" y="90" />
<rect fill="#EEDDDB" height="24" width="26.875" x="2874" y="90" />
<rect fill="none" height="24" stroke="#405C86" stroke-width="2" width="48" x="2874" y="90" />
<rect fill="#DEE6F1" height="24" width="21.125" x="2852.875" y="90" />
<rect fill="#EEDDDB" height="24" width="26.875" x="2826" y="90" />
<rect fill="none" height="24" stroke="#405C86" stroke-width="2" width="48" x="2826" y="90" />
<rect fill="#DEE6F1" height="24" width="21.125" x="2804.875" y="90" />
<rect fill="#EEDDDB" height="24" width="26.875" x="2778" y="90" />
<rect fill="none" height="24" stroke="#405C86" stroke-width="2" width="48" x="2778" y="90" />
<rect fill="#DEE6F1" height="24" width="21.125" x="2756.875" y="90" />
<rect fill="#EEDDDB" height="24" width="26.875" x="2730" y="90" />
<rect fill="none" height="24" stroke="#405C86" stroke-width="2" width="48" x="2730" y="90" />
<rect fill="#DEE6F1" height="24" width="21.125" x="2708.875" y="90" />
<rect fill="#EEDDDB" height="24" width="26.875" x="2682" y="90" />
<rect fill="none" height="24" stroke="#405C86" stroke-width="2" width="48" x="2682" y="90" />
<rect fill="#DEE6F1" height="24" width="21.125" x="2660.875" y="90" />
<rect fill="#EEDDDB" height="24" width="26.875" x="2634" y="90" />
<rect fill="none" height="24" stroke="#405C86" stroke-width="2" width="48" x="2634" y="90" />
<rect fill="#DEE6F1" height="24" width="21.125" x="2612.875" y="90" />
<rect fill="#EEDDDB" height="24" width="26.875" x="2586" y="90" />
<rect fill="none" height="24" stroke="#405C86" stroke-width="2" width="48" x="2586" y="90" />
<rect fill="#DEE6F1" height="24" width="21.125" x="2564.875" y="90" />
<rect fill="#EEDDDB" height="24" width="26.875" x="2538" y="90" />
<rect fill="none" height="24" stroke="#405C86" stroke-width="2" width="48" x="2538" y="90" />
<rect fill="#DEE6F1" height="24" width="21.125" x="2516.875" y="90" />
<rect fill="#EEDDDB" height="24" width="26.875" x="2490" y="90" />
<rect fill="none" height="24" stroke="#405C86" stroke-width="2" width="48" x="2490" y="90" />
<rect fill="#DEE6F1" height="24" width="21.125" x="2468.875" y="90" />
<rect fill="#EEDDDB" height="24" width="26.875" x="2442" y="90" />
<rect fill="none" height="24" stroke="#405C86" stroke-width="2" width="48" x="2442" y="90" />
<rect fill="#DEE6F1" height="24" width="21.125" x="2420.875" y="90" />
<rect fill="#EEDDDB" height="24" width="26.875" x="2394" y="90" />
<rect fill="none" height="24" stroke="#405C86" stroke-width="2" width="48" x="2394" y="90" />
<rect fill="#DEE6F1" height="24" width="21.125" x="2372.875" y="90" />
<rect fill="#EEDDDB" height="24" width="26.875" x="2346" y="90" />
<rect fill="none" height="24" stroke="#405C86" stroke-width="2" width="48" x="2346" y="90" />
<rect fill="#DEE6F1" height="24" width="21.125" x="2324.875" y="90" />
<rect fill="#EEDDDB" height="24" width="26.875" x="2298" y="90" />
<rect fill="none" height="24" stroke="#405C86" stroke-width="2" width="48" x="2298" y="90" />
<rect fill="#DEE6F1" height="24" width="21.125" x="2276.875" y="90" />
<rect fill="#EEDDDB" height="24" width="26.875" x="2250" y="90" />
<rect fill="none" height="24" stroke="#405C86" stroke-width="2" width="48" x="2250" y="90" />
<rect fill="#DEE6F1" height="24" width="21.125" x="2228.875" y="90" />
<rect fill="#EEDDDB" height="24" width="26.875" x="2202" y="90" />
<rect fill="none" height="24" stroke="#405C86" stroke-width="2" width="48" x="2202" y="90" />
<rect fill="#DEE6F1" height="24" width="21.125" x="2180.875" y="90" />
<rect fill="#EEDDDB" height="24" width="26.875" x="2154" y="90" />
<rect fill="none" height="24" stroke="#405C86" stroke-width="2" width="48" x="2154" y="90" />
<rect fill="#DEE6F1" height="24" width="21.125" x="2132.875" y="90" />
<rect fill="#EEDDDB" height="24" width="26.875" x="2106" y="90" />
<rect fill="none" height="24" stroke="#405C86" stroke-width="2" width="48" x="2106" y="90" />
<rect fill="#DEE6F1" height="24" width="21.125" x="2084.875" y="90" />
<rect fill="#EEDDDB" height="24" width="26.875" x="2058" y="90" />
<rect fill="none" height="24" stroke="#405C86" stroke-width="2" width="48" x="2058" y="90" />
<rect fill="#DEE6F1" height="24" width="21.125" x="2036.875" y="90" />
<rect fill="#EEDDDB" height="24" width="26.875" x="2010" y="90" />
<rect fill="none" height="24" stroke="#405C86" stroke-width="2" width="48" x="2010" y="90" />
<rect fill="#DEE6F1" height="24" width="21.125" x="1988.875" y="90" />
<rect fill="#EEDDDB" height="24" width="26.875" x="1962" y="90" />
<rect fill="none" height="24" stroke="#405C86" stroke-width="2" width="48" x="1962" y="90" />
<rect fill="#DEE6F1" height="24" width="21.125" x="1940.875" y="90" />
<rect fill="#EEDDDB" height="24" width="26.875" x="1914" y="90" />
<rect fill="none" height="24" stroke="#405C86" stroke-width="2" width="48" x="1914" y="90" />
<rect fill="#DEE6F1" height="24" width="21.125" x="1892.875" y="90" />
<rect fill="#EEDDDB" height="24" width="26.875" x="1866" y="90" />
<rect fill="none" height="24" stroke="#405C86" stroke-width="2" width="48" x="1866" y="90" />
<rect fill="#DEE6F1" height="24" width="21.125" x="1844.875" y="90" />
<rect fill="#EEDDDB" height="24" width="26.875" x="1818" y="90" />
<rect fill="none" height="24" stroke="#405C86" stroke-width="2" width="48" x="1818" y="90" />
<rect fill="#DEE6F1" height="24" width="21.125" x="1796.875" y="90" />
<rect fill="#EEDDDB" height="24" width="26.875" x="1770" y="90" />
<rect fill="none" height="24" stroke="#405C86" stroke-width="2" width="48" x="1770" y="90" />
<rect fill="#DEE6F1" height="24" width="21.125" x="1748.875" y="90" />
<rect fill="#EEDDDB" height="24" width="26.875" x="1722" y="90" />
<rect fill="none" height="24" stroke="#405C86" stroke-width="2" width="48" x="1722" y="90" />
<rect fill="#DEE6F1" height="24" width="21.125" x="1700.875" y="90" />
<rect fill="#EEDDDB" height="24" width="26.875" x="1674" y="90" />
<rect fill="none" height="24" stroke="#405C86" stroke-width="2" width="48" x="1674" y="90" />
<rect fill="#DEE6F1" height="24" width="21.125" x="1652.875" y="90" />
<rect fill="#EEDDDB" height="24" width="26.875" x="1626" y="90" />
<rect fill="none" height="24" stroke="#405C86" stroke-width="2" width="48" x="1626" y="90" />
<rect fill="#DEE6F1" height="24" width="21.125" x="1604.875" y="90" />
<rect fill="#EEDDDB" height="24" width="26.875" x="1578" y="90" />
<rect fill="none" height="24" stroke="#405C86" stroke-width="2" width="48" x="1578" y="90" />
<rect fill="#DEE6F1" height="24" width="21.125" x="1556.875" y="90" />
<rect fill="#EEDDDB" height="24" width="26.875" x="1530" y="90" />
<rect fill="none" height="24" stroke="#405C86" stroke-width="2" width="48" x="1530" y="90" />
<rect fill="#DEE6F1" height="24" width="21.125" x="1508.875" y="90" />
<rect fill="#EEDDDB" height="24" width="26.875" x="1482" y="90" />
<rect fill="none" height="24" stroke="#405C86" stroke-width="2" width="48" x="1482" y="90" />
<rect fill="#DEE6F1" height="24" width="21.125" x="1460.875" y="90" />
<rect fill="#EEDDDB" height="24" width="26.875" x="1434" y="90" />
<rect fill="none" height="24" stroke="#405C86" stroke-width="2" width="48" x="1434" y="90" />
<rect fill="#DEE6F1" height="24" width="21.125" x="1412.875" y="90" />
<rect fill="#EEDDDB" height="24" width="26.875" x="1386" y="90" />
<rect fill="none" height="24" stroke="#405C86" stroke-width="2" width="48" x="1386" y="90" />
<rect fill="#DEE6F1" height="24" width="21.125" x="1364.875" y="90" />
<rect fill="#EEDDDB" height="24" width="26.875" x="1338" y="90" />
<rect fill="none" height="24" stroke="#405C86" stroke-width="2" width="48" x="1338" y="90" />
<rect fill="#DEE6F1" height="24" width="21.125" x="1316.875" y="90" />
<rect fill="#EEDDDB" height="24" width="26.875" x="1290" y="90" />
<rect fill="none" height="24" stroke="#405C86" stroke-width="2" width="48" x="1290" y="90" />
<rect fill="#DEE6F1" height="24" width="21.125" x="1268.875" y="90" />
<rect fill="#EEDDDB" height="24" width="26.875" x="1242" y="90" />
<rect fill="none" height="24" stroke="#405C86" stroke-width="2" width="48" x="1242" y="90" />
<rect fill="#DEE6F1" height="24" width="21.125" x="1220.875" y="90" />
<rect fill="#EEDDDB" height="24" width="26.875" x="1194" y="90" />
<rect fill="none" height="24" stroke="#405C86" stroke-width="2" width="48" x="1194" y="90" />
<rect fill="#DEE6F1" height="24" width="21.125" x="1172.875" y="90" />
<rect fill="#EEDDDB" height="24" width="26.875" x="1146" y="90" />
<rect fill="none" height="24" stroke="#405C86" stroke-width="2" width="48" x="1146" y="90" />
<rect fill="#DEE6F1" height="24" width="21.125" x="1124.875" y="90" />
<rect fill="#EEDDDB" height="24" width="26.875" x="1098" y="90" />
<rect fill="none" height="24" stroke="#405C86" stroke-width="2" width="48" x="1098" y="90" />
<rect fill="#DEE6F1" height="24" width="21.125" x="1076.875" y="90" />
<rect fill="#EEDDDB" height="24" width="26.875" x="1050" y="90" />
<rect fill="none" height="24" stroke="#405C86" stroke-width="2" width="48" x="1050" y="90" />
<rect fill="#DEE6F1" height="24" width="21.125" x="1028.875" y="90" />
<rect fill="#EEDDDB" height="24" width="26.875" x="1002" y="90" />
<rect fill="none" height="24" stroke="#405C86" stroke-width="2" width="48" x="1002" y="90" />
<rect fill="#DEE6F1" height="24" width="21.125" x="980.875" y="90" />
<rect fill="#EEDDDB" height="24" width="26.875" x="954" y="90" />
<rect fill="none" height="24" stroke="#405C86" stroke-width="2" width="48" x="954" y="90" />
<rect fill="#DEE6F1" height="24" width="21.125" x="932.875" y="90" />
<rect fill="#EEDDDB" height="24" width="26.875" x="906" y="90" />
<rect fill="none" height="24" stroke="#405C86" stroke-width="2" width="48" x="906" y="90" />
<rect fill="#DEE6F1" height="24" width="21.125" x="884.875" y="90" />
<rect fill="#EEDDDB" height="24" width="26.875" x="858" y="90" />
<rect fill="none" height="24" stroke="#405C86" stroke-width="2" width="48" x="858" y="90" />
<rect fill="#DEE6F1" height="24" width="21.125" x="836.875" y="90" />
<rect fill="#EEDDDB" height="24" width="26.875" x="810" y="90" />
<rect fill="none" height="24" stroke="#405C86" stroke-width="2" width="48" x="810" y="90" />
<rect fill="#DEE6F1" height="24" width="21.125" x="788.875" y="90" />
<rect fill="#EEDDDB" height="24" width="26.875" x="762" y="90" />
<rect fill="none" height="24" stroke="#405C86" stroke-width="2" width="48" x="762" y="90" />
<rect fill="#DEE6F1" height="24" width="21.125" x="740.875" y="90" />
<rect fill="#EEDDDB" height="24" width="26.875" x="714" y="90" />
<rect fill="none" height="24" stroke="#405C86" stroke-width="2" width="48" x="714" y="90" />
<rect fill="#DEE6F1" height="24" width="21.125" x="692.875" y="90" />
<rect fill="#EEDDDB" height="24" width="26.875" x="666" y="90" />
<rect fill="none" height="24" stroke="#405C86" stroke-width="2" width="48" x="666" y="90" />
<rect fill="#DEE6F1" height="24" width="21.125" x="644.875" y="90" />
<rect fill="#EEDDDB" height="24" width="26.875" x="618" y="90" />
<rect fill="none" height="24" stroke="#405C86" stroke-width="2" width="48" x="618" y="90" />
<rect fill="#DEE6F1" height="24" width="21.125" x="596.875" y="90" />
<rect fill="#EEDDDB" height="24" width="26.875" x="570" y="90" />
<rect fill="none" height="24" stroke="#405C86" stroke-width="2" width="48" x="570" y="90" />
<rect fill="#DEE6F1" height="24" width="21.125" x="548.875" y="90" />
<rect fill="#EEDDDB" height="24" width="26.875" x="522" y="90" />
<rect fill="none" height="24" stroke="#405C86" stroke-width="2" width="48" x="522" y="90" />
<rect fill="#DEE6F1" height="24" width="21.125" x="500.875" y="90" />
<rect fill="#EEDDDB" height="24" width="26.875" x="474" y="90" />
<rect fill="none" height="24" stroke="#405C86" stroke-width="2" width="48" x="474" y="90" />
<rect fill="#DEE6F1" height="24" width="21.125" x="452.875" y="90" />
<rect fill="#EEDDDB" height="24" width="26.875" x="426" y="90" />
<rect fill="none" height="24" stroke="#405C86" stroke-width="2" width="48" x="426" y="90" />
<rect fill="#DEE6F1" height="24" width="21.125" x="404.875" y="90" />
<rect fill="#EEDDDB" height="24" width="26.875" x="378" y="90" />
<rect fill="none" height="24" stroke="#405C86" stroke-width="2" width="48" x="378" y="90" />
<rect fill="#DEE6F1" height="24" width="21.125" x="356.875" y="90" />
<rect fill="#EEDDDB" height="24" width="26.875" x="330" y="90" />
<rect fill="none" height="24" stroke="#405C86" stroke-width="2" width="48" x="330" y="90" />
<rect fill="#DEE6F1" height="24" width="21.125" x="308.875" y="90" />
<rect fill="#EEDDDB" height="24" width="26.875" x="282" y="90" />
<rect fill="none" height="24" stroke="#405C86" stroke-width="2" width="48" x="282" y="90" />
<rect fill="#DEE6F1" height="24" width="21.125" x="260.875" y="90" />
<rect fill="#EEDDDB" height="24" width="26.875" x="234" y="90" />
<rect fill="none" height="24" stroke="#405C86" stroke-width="2" width="48" x="234" y="90" />
<rect fill="#DEE6F1" height="24" width="21.125" x="212.875" y="90" />
<rect fill="#EEDDDB" height="24" width="26.875" x="186" y="90" />
<rect fill="none" height="24" stroke="#405C86" stroke-width="2" width="48" x="186" y="90" />
<rect fill="#DEE6F1" height="24" width="21.125" x="164.875" y="90" />
<rect fill="#EEDDDB" height="24" width="26.875" x="138" y="90" />
<rect fill="none" height="24" stroke="#405C86" stroke-width="2" width="48" x="138" y="90" />
<rect fill="#DEE6F1" height="24" width="21.125" x="116.875" y="90" />
<rect fill="#EEDDDB" height="24" width="26.875" x="90" y="90" />
<rect fill="none" height="24" stroke="#405C86" stroke-width="2" width="48" x="90" y="90" />
<text class="register-name" x="80" y="102">Zd</text>
<text class="intrinsic-name" x="80" y="114">returns</text>
<text class="register-number" x="10" y="102">(2)</text>
<line marker-end="url(#arrowhead)" stroke="none" x1="1615.875" x2="3151.4375" y1="42.5" y2="89" />
<line marker-end="url(#arrowhead)" stroke="none" x1="1591.875" x2="3103.4375" y1="42.5" y2="89" />
<line marker-end="url(#arrowhead)" stroke="none" x1="1567.875" x2="3055.4375" y1="42.5" y2="89" />
<line marker-end="url(#arrowhead)" stroke="none" x1="1543.875" x2="3007.4375" y1="42.5" y2="89" />
<line marker-end="url(#arrowhead)" stroke="none" x1="1519.875" x2="2959.4375" y1="42.5" y2="89" />
<line marker-end="url(#arrowhead)" stroke="none" x1="1495.875" x2="2911.4375" y1="42.5" y2="89" />
<line marker-end="url(#arrowhead)" stroke="none" x1="1471.875" x2="2863.4375" y1="42.5" y2="89" />
<line marker-end="url(#arrowhead)" stroke="none" x1="1447.875" x2="2815.4375" y1="42.5" y2="89" />
<line marker-end="url(#arrowhead)" stroke="none" x1="1423.875" x2="2767.4375" y1="42.5" y2="89" />
<line marker-end="url(#arrowhead)" stroke="none" x1="1399.875" x2="2719.4375" y1="42.5" y2="89" />
<line marker-end="url(#arrowhead)" stroke="none" x1="1375.875" x2="2671.4375" y1="42.5" y2="89" />
<line marker-end="url(#arrowhead)" stroke="none" x1="1351.875" x2="2623.4375" y1="42.5" y2="89" />
<line marker-end="url(#arrowhead)" stroke="none" x1="1327.875" x2="2575.4375" y1="42.5" y2="89" />
<line marker-end="url(#arrowhead)" stroke="none" x1="1303.875" x2="2527.4375" y1="42.5" y2="89" />
<line marker-end="url(#arrowhead)" stroke="none" x1="1279.875" x2="2479.4375" y1="42.5" y2="89" />
<line marker-end="url(#arrowhead)" stroke="none" x1="1255.875" x2="2431.4375" y1="42.5" y2="89" />
<line marker-end="url(#arrowhead)" stroke="none" x1="1231.875" x2="2383.4375" y1="42.5" y2="89" />
<line marker-end="url(#arrowhead)" stroke="none" x1="1207.875" x2="2335.4375" y1="42.5" y2="89" />
<line marker-end="url(#arrowhead)" stroke="none" x1="1183.875" x2="2287.4375" y1="42.5" y2="89" />
<line marker-end="url(#arrowhead)" stroke="none" x1="1159.875" x2="2239.4375" y1="42.5" y2="89" />
<line marker-end="url(#arrowhead)" stroke="none" x1="1135.875" x2="2191.4375" y1="42.5" y2="89" />
<line marker-end="url(#arrowhead)" stroke="none" x1="1111.875" x2="2143.4375" y1="42.5" y2="89" />
<line marker-end="url(#arrowhead)" stroke="none" x1="1087.875" x2="2095.4375" y1="42.5" y2="89" />
<line marker-end="url(#arrowhead)" stroke="none" x1="1063.875" x2="2047.4375" y1="42.5" y2="89" />
<line marker-end="url(#arrowhead)" stroke="none" x1="1039.875" x2="1999.4375" y1="42.5" y2="89" />
<line marker-end="url(#arrowhead)" stroke="none" x1="1015.875" x2="1951.4375" y1="42.5" y2="89" />
<line marker-end="url(#arrowhead)" stroke="none" x1="991.875" x2="1903.4375" y1="42.5" y2="89" />
<line marker-end="url(#arrowhead)" stroke="none" x1="967.875" x2="1855.4375" y1="42.5" y2="89" />
<line marker-end="url(#arrowhead)" stroke="none" x1="943.875" x2="1807.4375" y1="42.5" y2="89" />
<line marker-end="url(#arrowhead)" stroke="none" x1="919.875" x2="1759.4375" y1="42.5" y2="89" />
<line marker-end="url(#arrowhead)" stroke="none" x1="895.875" x2="1711.4375" y1="42.5" y2="89" />
<line marker-end="url(#arrowhead)" stroke="none" x1="871.875" x2="1663.4375" y1="42.5" y2="89" />
<line marker-end="url(#arrowhead)" stroke="none" x1="847.875" x2="1615.4375" y1="42.5" y2="89" />
<line marker-end="url(#arrowhead)" stroke="none" x1="823.875" x2="1567.4375" y1="42.5" y2="89" />
<line marker-end="url(#arrowhead)" stroke="none" x1="799.875" x2="1519.4375" y1="42.5" y2="89" />
<line marker-end="url(#arrowhead)" stroke="none" x1="775.875" x2="1471.4375" y1="42.5" y2="89" />
<line marker-end="url(#arrowhead)" stroke="none" x1="751.875" x2="1423.4375" y1="42.5" y2="89" />
<line marker-end="url(#arrowhead)" stroke="none" x1="727.875" x2="1375.4375" y1="42.5" y2="89" />
<line marker-end="url(#arrowhead)" stroke="none" x1="703.875" x2="1327.4375" y1="42.5" y2="89" />
<line marker-end="url(#arrowhead)" stroke="none" x1="679.875" x2="1279.4375" y1="42.5" y2="89" />
<line marker-end="url(#arrowhead)" stroke="none" x1="655.875" x2="1231.4375" y1="42.5" y2="89" />
<line marker-end="url(#arrowhead)" stroke="none" x1="631.875" x2="1183.4375" y1="42.5" y2="89" />
<line marker-end="url(#arrowhead)" stroke="none" x1="607.875" x2="1135.4375" y1="42.5" y2="89" />
<line marker-end="url(#arrowhead)" stroke="none" x1="583.875" x2="1087.4375" y1="42.5" y2="89" />
<line marker-end="url(#arrowhead)" stroke="none" x1="559.875" x2="1039.4375" y1="42.5" y2="89" />
<line marker-end="url(#arrowhead)" stroke="none" x1="535.875" x2="991.4375" y1="42.5" y2="89" />
<line marker-end="url(#arrowhead)" stroke="none" x1="511.875" x2="943.4375" y1="42.5" y2="89" />
<line marker-end="url(#arrowhead)" stroke="none" x1="487.875" x2="895.4375" y1="42.5" y2="89" />
<line marker-end="url(#arrowhead)" stroke="none" x1="463.875" x2="847.4375" y1="42.5" y2="89" />
<line marker-end="url(#arrowhead)" stroke="none" x1="439.875" x2="799.4375" y1="42.5" y2="89" />
<line marker-end="url(#arrowhead)" stroke="none" x1="415.875" x2="751.4375" y1="42.5" y2="89" />
<line marker-end="url(#arrowhead)" stroke="none" x1="391.875" x2="703.4375" y1="42.5" y2="89" />
<line marker-end="url(#arrowhead)" stroke="none" x1="367.875" x2="655.4375" y1="42.5" y2="89" />
<line marker-end="url(#arrowhead)" stroke="none" x1="343.875" x2="607.4375" y1="42.5" y2="89" />
<line marker-end="url(#arrowhead)" stroke="none" x1="319.875" x2="559.4375" y1="42.5" y2="89" />
<line marker-end="url(#arrowhead)" stroke="none" x1="295.875" x2="511.4375" y1="42.5" y2="89" />
<line marker-end="url(#arrowhead)" stroke="none" x1="271.875" x2="463.4375" y1="42.5" y2="89" />
<line marker-end="url(#arrowhead)" stroke="none" x1="247.875" x2="415.4375" y1="42.5" y2="89" />
<line marker-end="url(#arrowhead)" stroke="none" x1="223.875" x2="367.4375" y1="42.5" y2="89" />
<line marker-end="url(#arrowhead)" stroke="none" x1="199.875" x2="319.4375" y1="42.5" y2="89" />
<line marker-end="url(#arrowhead)" stroke="none" x1="175.875" x2="271.4375" y1="42.5" y2="89" />
<line marker-end="url(#arrowhead)" stroke="none" x1="151.875" x2="223.4375" y1="42.5" y2="89" />
<line marker-end="url(#arrowhead)" stroke="none" x1="127.875" x2="175.4375" y1="42.5" y2="89" />
<line marker-end="url(#arrowhead)" stroke="none" x1="103.875" x2="127.4375" y1="42.5" y2="89" />
</svg>