<svg xmlns="http://www.w3.org/2000/svg" viewBox="0 0 3174 123">
<style>
.label { font: 14px Helvetica; dominant-baseline: middle; text-anchor: middle; }
.title-left { font: 12px Helvetica; dominant-baseline: middle; }
.title-right { font: 12px Helvetica; dominant-baseline: middle; text-anchor: end; }
.title-intrinsic { font: 12px Helvetica; dominant-baseline: middle; text-anchor: middle; fill: #6778ED; }
.title { font: 12px Helvetica; dominant-baseline: middle; text-anchor: middle; }
.title-unused { font: 12px Helvetica; dominant-baseline: middle; text-anchor: middle; fill: #AAA; }
.register-name { font: 14px Helvetica; dominant-baseline: middle; text-anchor: end; font-style: italic; }
.memory-name { font: 14px Helvetica; dominant-baseline: middle; text-anchor: end; }
.register-number { font: 14px Helvetica; dominant-baseline: middle; text-anchor: start; }
.intrinsic-name { font: 14px Helvetica; dominant-baseline: middle; text-anchor: end; fill: #6778ED; }
.intrinsic-color { fill: #6778ED; }
.small-label { font: 12px Helvetica; dominant-baseline: middle; text-anchor: middle; }
.label-10px { font: 10px Helvetica; dominant-baseline: middle; text-anchor: middle; }
.smaller-label { font: 9px Helvetica; dominant-baseline: middle; text-anchor: middle; }
.label-6px { font: 6px Helvetica; dominant-baseline: middle; text-anchor: middle; }
.label-7px { font: 7px Helvetica; dominant-baseline: middle; text-anchor: middle; }
.unused { fill: #AAA; }
.dim { fill: #888; }
</style>
<defs>
<marker id="arrowhead" markerWidth="10.75" markerHeight="24.5" refX="9.0" refY="6.125" orient="auto">
<polyline points="0.5 0.5, 8.75 6.125, 0.5 11.75" stroke="#567DB6" stroke-width="1" fill="none"/>
</marker>
</defs>
<line stroke="#567DB6" stroke-width="1" x1="1579.96875" x2="3115.484375" y1="42.5" y2="89" />
<line stroke="#567DB6" stroke-width="1" x1="1483.96875" x2="2923.484375" y1="42.5" y2="89" />
<line stroke="#567DB6" stroke-width="1" x1="1387.96875" x2="2731.484375" y1="42.5" y2="89" />
<line stroke="#567DB6" stroke-width="1" x1="1291.96875" x2="2539.484375" y1="42.5" y2="89" />
<line stroke="#567DB6" stroke-width="1" x1="1195.96875" x2="2347.484375" y1="42.5" y2="89" />
<line stroke="#567DB6" stroke-width="1" x1="1099.96875" x2="2155.484375" y1="42.5" y2="89" />
<line stroke="#567DB6" stroke-width="1" x1="1003.96875" x2="1963.484375" y1="42.5" y2="89" />
<line stroke="#567DB6" stroke-width="1" x1="907.96875" x2="1771.484375" y1="42.5" y2="89" />
<line stroke="#567DB6" stroke-width="1" x1="811.96875" x2="1579.484375" y1="42.5" y2="89" />
<line stroke="#567DB6" stroke-width="1" x1="715.96875" x2="1387.484375" y1="42.5" y2="89" />
<line stroke="#567DB6" stroke-width="1" x1="619.96875" x2="1195.484375" y1="42.5" y2="89" />
<line stroke="#567DB6" stroke-width="1" x1="523.96875" x2="1003.484375" y1="42.5" y2="89" />
<line stroke="#567DB6" stroke-width="1" x1="427.96875" x2="811.484375" y1="42.5" y2="89" />
<line stroke="#567DB6" stroke-width="1" x1="331.96875" x2="619.484375" y1="42.5" y2="89" />
<line stroke="#567DB6" stroke-width="1" x1="235.96875" x2="427.484375" y1="42.5" y2="89" />
<line stroke="#567DB6" stroke-width="1" x1="139.96875" x2="235.484375" y1="42.5" y2="89" />
<text class="title-left" x="90" y="9">upper</text>
<text class="title-right" x="3162" y="9">lower</text>
<rect fill="none" height="24" stroke="#405C86" stroke-dasharray="3 1" stroke-dashoffset="1.5" stroke-width="1" width="1536" x="1626" y="18" />
<text class="label unused" x="2394" y="31"></text>
<rect fill="#DEE6F1" height="24" width="92.0625" x="1533.9375" y="18" />
<rect fill="#EEDDDB" height="24" width="3.9375" x="1530" y="18" />
<rect fill="none" height="24" stroke="#405C86" stroke-width="2" width="96" x="1530" y="18" />
<rect fill="#DEE6F1" height="24" width="92.0625" x="1437.9375" y="18" />
<rect fill="#EEDDDB" height="24" width="3.9375" x="1434" y="18" />
<rect fill="none" height="24" stroke="#405C86" stroke-width="2" width="96" x="1434" y="18" />
<rect fill="#DEE6F1" height="24" width="92.0625" x="1341.9375" y="18" />
<rect fill="#EEDDDB" height="24" width="3.9375" x="1338" y="18" />
<rect fill="none" height="24" stroke="#405C86" stroke-width="2" width="96" x="1338" y="18" />
<rect fill="#DEE6F1" height="24" width="92.0625" x="1245.9375" y="18" />
<rect fill="#EEDDDB" height="24" width="3.9375" x="1242" y="18" />
<rect fill="none" height="24" stroke="#405C86" stroke-width="2" width="96" x="1242" y="18" />
<rect fill="#DEE6F1" height="24" width="92.0625" x="1149.9375" y="18" />
<rect fill="#EEDDDB" height="24" width="3.9375" x="1146" y="18" />
<rect fill="none" height="24" stroke="#405C86" stroke-width="2" width="96" x="1146" y="18" />
<rect fill="#DEE6F1" height="24" width="92.0625" x="1053.9375" y="18" />
<rect fill="#EEDDDB" height="24" width="3.9375" x="1050" y="18" />
<rect fill="none" height="24" stroke="#405C86" stroke-width="2" width="96" x="1050" y="18" />
<rect fill="#DEE6F1" height="24" width="92.0625" x="957.9375" y="18" />
<rect fill="#EEDDDB" height="24" width="3.9375" x="954" y="18" />
<rect fill="none" height="24" stroke="#405C86" stroke-width="2" width="96" x="954" y="18" />
<rect fill="#DEE6F1" height="24" width="92.0625" x="861.9375" y="18" />
<rect fill="#EEDDDB" height="24" width="3.9375" x="858" y="18" />
<rect fill="none" height="24" stroke="#405C86" stroke-width="2" width="96" x="858" y="18" />
<rect fill="#DEE6F1" height="24" width="92.0625" x="765.9375" y="18" />
<rect fill="#EEDDDB" height="24" width="3.9375" x="762" y="18" />
<rect fill="none" height="24" stroke="#405C86" stroke-width="2" width="96" x="762" y="18" />
<rect fill="#DEE6F1" height="24" width="92.0625" x="669.9375" y="18" />
<rect fill="#EEDDDB" height="24" width="3.9375" x="666" y="18" />
<rect fill="none" height="24" stroke="#405C86" stroke-width="2" width="96" x="666" y="18" />
<rect fill="#DEE6F1" height="24" width="92.0625" x="573.9375" y="18" />
<rect fill="#EEDDDB" height="24" width="3.9375" x="570" y="18" />
<rect fill="none" height="24" stroke="#405C86" stroke-width="2" width="96" x="570" y="18" />
<rect fill="#DEE6F1" height="24" width="92.0625" x="477.9375" y="18" />
<rect fill="#EEDDDB" height="24" width="3.9375" x="474" y="18" />
<rect fill="none" height="24" stroke="#405C86" stroke-width="2" width="96" x="474" y="18" />
<rect fill="#DEE6F1" height="24" width="92.0625" x="381.9375" y="18" />
<rect fill="#EEDDDB" height="24" width="3.9375" x="378" y="18" />
<rect fill="none" height="24" stroke="#405C86" stroke-width="2" width="96" x="378" y="18" />
<rect fill="#DEE6F1" height="24" width="92.0625" x="285.9375" y="18" />
<rect fill="#EEDDDB" height="24" width="3.9375" x="282" y="18" />
<rect fill="none" height="24" stroke="#405C86" stroke-width="2" width="96" x="282" y="18" />
<rect fill="#DEE6F1" height="24" width="92.0625" x="189.9375" y="18" />
<rect fill="#EEDDDB" height="24" width="3.9375" x="186" y="18" />
<rect fill="none" height="24" stroke="#405C86" stroke-width="2" width="96" x="186" y="18" />
<rect fill="#DEE6F1" height="24" width="92.0625" x="93.9375" y="18" />
<rect fill="#EEDDDB" height="24" width="3.9375" x="90" y="18" />
<rect fill="none" height="24" stroke="#405C86" stroke-width="2" width="96" x="90" y="18" />
<text class="register-name" x="80" y="30">Zn</text>
<text class="intrinsic-name" x="80" y="42">op</text>
<text class="register-number" x="10" y="30">(1)</text>
<rect fill="#DEE6F1" height="24" width="93.03125" x="3068.96875" y="90" />
<rect fill="#EEDDDB" height="24" width="98.96875" x="2970" y="90" />
<rect fill="none" height="24" stroke="#405C86" stroke-width="2" width="192" x="2970" y="90" />
<rect fill="#DEE6F1" height="24" width="93.03125" x="2876.96875" y="90" />
<rect fill="#EEDDDB" height="24" width="98.96875" x="2778" y="90" />
<rect fill="none" height="24" stroke="#405C86" stroke-width="2" width="192" x="2778" y="90" />
<rect fill="#DEE6F1" height="24" width="93.03125" x="2684.96875" y="90" />
<rect fill="#EEDDDB" height="24" width="98.96875" x="2586" y="90" />
<rect fill="none" height="24" stroke="#405C86" stroke-width="2" width="192" x="2586" y="90" />
<rect fill="#DEE6F1" height="24" width="93.03125" x="2492.96875" y="90" />
<rect fill="#EEDDDB" height="24" width="98.96875" x="2394" y="90" />
<rect fill="none" height="24" stroke="#405C86" stroke-width="2" width="192" x="2394" y="90" />
<rect fill="#DEE6F1" height="24" width="93.03125" x="2300.96875" y="90" />
<rect fill="#EEDDDB" height="24" width="98.96875" x="2202" y="90" />
<rect fill="none" height="24" stroke="#405C86" stroke-width="2" width="192" x="2202" y="90" />
<rect fill="#DEE6F1" height="24" width="93.03125" x="2108.96875" y="90" />
<rect fill="#EEDDDB" height="24" width="98.96875" x="2010" y="90" />
<rect fill="none" height="24" stroke="#405C86" stroke-width="2" width="192" x="2010" y="90" />
<rect fill="#DEE6F1" height="24" width="93.03125" x="1916.96875" y="90" />
<rect fill="#EEDDDB" height="24" width="98.96875" x="1818" y="90" />
<rect fill="none" height="24" stroke="#405C86" stroke-width="2" width="192" x="1818" y="90" />
<rect fill="#DEE6F1" height="24" width="93.03125" x="1724.96875" y="90" />
<rect fill="#EEDDDB" height="24" width="98.96875" x="1626" y="90" />
<rect fill="none" height="24" stroke="#405C86" stroke-width="2" width="192" x="1626" y="90" />
<rect fill="#DEE6F1" height="24" width="93.03125" x="1532.96875" y="90" />
<rect fill="#EEDDDB" height="24" width="98.96875" x="1434" y="90" />
<rect fill="none" height="24" stroke="#405C86" stroke-width="2" width="192" x="1434" y="90" />
<rect fill="#DEE6F1" height="24" width="93.03125" x="1340.96875" y="90" />
<rect fill="#EEDDDB" height="24" width="98.96875" x="1242" y="90" />
<rect fill="none" height="24" stroke="#405C86" stroke-width="2" width="192" x="1242" y="90" />
<rect fill="#DEE6F1" height="24" width="93.03125" x="1148.96875" y="90" />
<rect fill="#EEDDDB" height="24" width="98.96875" x="1050" y="90" />
<rect fill="none" height="24" stroke="#405C86" stroke-width="2" width="192" x="1050" y="90" />
<rect fill="#DEE6F1" height="24" width="93.03125" x="956.96875" y="90" />
<rect fill="#EEDDDB" height="24" width="98.96875" x="858" y="90" />
<rect fill="none" height="24" stroke="#405C86" stroke-width="2" width="192" x="858" y="90" />
<rect fill="#DEE6F1" height="24" width="93.03125" x="764.96875" y="90" />
<rect fill="#EEDDDB" height="24" width="98.96875" x="666" y="90" />
<rect fill="none" height="24" stroke="#405C86" stroke-width="2" width="192" x="666" y="90" />
<rect fill="#DEE6F1" height="24" width="93.03125" x="572.96875" y="90" />
<rect fill="#EEDDDB" height="24" width="98.96875" x="474" y="90" />
<rect fill="none" height="24" stroke="#405C86" stroke-width="2" width="192" x="474" y="90" />
<rect fill="#DEE6F1" height="24" width="93.03125" x="380.96875" y="90" />
<rect fill="#EEDDDB" height="24" width="98.96875" x="282" y="90" />
<rect fill="none" height="24" stroke="#405C86" stroke-width="2" width="192" x="282" y="90" />
<rect fill="#DEE6F1" height="24" width="93.03125" x="188.96875" y="90" />
<rect fill="#EEDDDB" height="24" width="98.96875" x="90" y="90" />
<rect fill="none" height="24" stroke="#405C86" stroke-width="2" width="192" x="90" y="90" />
<text class="register-name" x="80" y="102">Zd</text>
<text class="intrinsic-name" x="80" y="114">returns</text>
<text class="register-number" x="10" y="102">(2)</text>
<line marker-end="url(#arrowhead)" stroke="none" x1="1579.96875" x2="3115.484375" y1="42.5" y2="89" />
<line marker-end="url(#arrowhead)" stroke="none" x1="1483.96875" x2="2923.484375" y1="42.5" y2="89" />
<line marker-end="url(#arrowhead)" stroke="none" x1="1387.96875" x2="2731.484375" y1="42.5" y2="89" />
<line marker-end="url(#arrowhead)" stroke="none" x1="1291.96875" x2="2539.484375" y1="42.5" y2="89" />
<line marker-end="url(#arrowhead)" stroke="none" x1="1195.96875" x2="2347.484375" y1="42.5" y2="89" />
<line marker-end="url(#arrowhead)" stroke="none" x1="1099.96875" x2="2155.484375" y1="42.5" y2="89" />
<line marker-end="url(#arrowhead)" stroke="none" x1="1003.96875" x2="1963.484375" y1="42.5" y2="89" />
<line marker-end="url(#arrowhead)" stroke="none" x1="907.96875" x2="1771.484375" y1="42.5" y2="89" />
<line marker-end="url(#arrowhead)" stroke="none" x1="811.96875" x2="1579.484375" y1="42.5" y2="89" />
<line marker-end="url(#arrowhead)" stroke="none" x1="715.96875" x2="1387.484375" y1="42.5" y2="89" />
<line marker-end="url(#arrowhead)" stroke="none" x1="619.96875" x2="1195.484375" y1="42.5" y2="89" />
<line marker-end="url(#arrowhead)" stroke="none" x1="523.96875" x2="1003.484375" y1="42.5" y2="89" />
<line marker-end="url(#arrowhead)" stroke="none" x1="427.96875" x2="811.484375" y1="42.5" y2="89" />
<line marker-end="url(#arrowhead)" stroke="none" x1="331.96875" x2="619.484375" y1="42.5" y2="89" />
<line marker-end="url(#arrowhead)" stroke="none" x1="235.96875" x2="427.484375" y1="42.5" y2="89" />
<line marker-end="url(#arrowhead)" stroke="none" x1="139.96875" x2="235.484375" y1="42.5" y2="89" />
</svg>