<svg xmlns="http://www.w3.org/2000/svg" viewBox="0 0 1708 195">
<style>
.label { font: 14px Helvetica; dominant-baseline: middle; text-anchor: middle; }
.title-left { font: 12px Helvetica; dominant-baseline: middle; }
.title-right { font: 12px Helvetica; dominant-baseline: middle; text-anchor: end; }
.title-intrinsic { font: 12px Helvetica; dominant-baseline: middle; text-anchor: middle; fill: #6778ED; }
.title { font: 12px Helvetica; dominant-baseline: middle; text-anchor: middle; }
.title-unused { font: 12px Helvetica; dominant-baseline: middle; text-anchor: middle; fill: #AAA; }
.register-name { font: 14px Helvetica; dominant-baseline: middle; text-anchor: end; font-style: italic; }
.memory-name { font: 14px Helvetica; dominant-baseline: middle; text-anchor: end; }
.register-number { font: 14px Helvetica; dominant-baseline: middle; text-anchor: start; }
.intrinsic-name { font: 14px Helvetica; dominant-baseline: middle; text-anchor: end; fill: #6778ED; }
.intrinsic-color { fill: #6778ED; }
.small-label { font: 12px Helvetica; dominant-baseline: middle; text-anchor: middle; }
.label-10px { font: 10px Helvetica; dominant-baseline: middle; text-anchor: middle; }
.smaller-label { font: 9px Helvetica; dominant-baseline: middle; text-anchor: middle; }
.label-6px { font: 6px Helvetica; dominant-baseline: middle; text-anchor: middle; }
.label-7px { font: 7px Helvetica; dominant-baseline: middle; text-anchor: middle; }
.unused { fill: #AAA; }
.dim { fill: #888; }
</style>
<defs>
<marker id="arrowhead" markerWidth="10.75" markerHeight="24.5" refX="9.0" refY="6.125" orient="auto">
<polyline points="0.5 0.5, 8.75 6.125, 0.5 11.75" stroke="#567DB6" stroke-width="1" fill="none"/>
</marker>
</defs>
<polyline fill="none" points="931.0 42.5,933.0 46.5,1311.0 46.5,1312.0 48.5,1312.0 52.5,1312.0 48.5,1313.0 46.5,1691.0 46.5,1693.0 42.5" stroke="#567DB6" stroke-width="1" />
<polyline fill="none" points="93.0 42.5,95.0 46.5,473.0 46.5,474.0 48.5,474.0 52.5,474.0 48.5,475.0 46.5,853.0 46.5,855.0 42.5" stroke="#567DB6" stroke-width="1" />
<line stroke="#567DB6" stroke-width="1" top="True" x1="1312" x2="474" y1="52.5" y2="52.5" />
<line stroke="#567DB6" stroke-width="1" x1="474" x2="810" y1="52.5" y2="89.5" />
<line stroke="#567DB6" stroke-width="1" x1="474" x2="714" y1="52.5" y2="89.5" />
<line stroke="#567DB6" stroke-width="1" x1="474" x2="618" y1="52.5" y2="89.5" />
<line stroke="#567DB6" stroke-width="1" x1="474" x2="522" y1="52.5" y2="89.5" />
<line stroke="#567DB6" stroke-width="1" x1="474" x2="426" y1="52.5" y2="89.5" />
<line stroke="#567DB6" stroke-width="1" x1="474" x2="330" y1="52.5" y2="89.5" />
<line stroke="#567DB6" stroke-width="1" x1="474" x2="234" y1="52.5" y2="89.5" />
<line stroke="#567DB6" stroke-width="1" x1="474" x2="138" y1="52.5" y2="89.5" />
<line stroke="#567DB6" stroke-width="1" x1="810" x2="810" y1="114.5" y2="161" />
<line stroke="#567DB6" stroke-width="1" x1="714" x2="714" y1="114.5" y2="161" />
<line stroke="#567DB6" stroke-width="1" x1="618" x2="618" y1="114.5" y2="161" />
<line stroke="#567DB6" stroke-width="1" x1="522" x2="522" y1="114.5" y2="161" />
<line stroke="#567DB6" stroke-width="1" x1="426" x2="426" y1="114.5" y2="161" />
<line stroke="#567DB6" stroke-width="1" x1="330" x2="330" y1="114.5" y2="161" />
<line stroke="#567DB6" stroke-width="1" x1="234" x2="234" y1="114.5" y2="161" />
<line stroke="#567DB6" stroke-width="1" x1="138" x2="138" y1="114.5" y2="161" />
<text class="title-left" x="90" y="9">upper</text>
<text class="title-right" x="858" y="9">lower</text>
<rect fill="#DEE6F1" height="24" width="96" x="1600" y="18" />
<rect fill="none" height="24" stroke="#405C86" stroke-width="2" width="96" x="1600" y="18" />
<text class="label" x="1648" y="31">0</text>
<rect fill="#DEE6F1" height="24" width="96" x="1504" y="18" />
<rect fill="none" height="24" stroke="#405C86" stroke-width="2" width="96" x="1504" y="18" />
<text class="label" x="1552" y="31">1</text>
<rect fill="#DEE6F1" height="24" width="96" x="1408" y="18" />
<rect fill="none" height="24" stroke="#405C86" stroke-width="2" width="96" x="1408" y="18" />
<text class="label" x="1456" y="31">2</text>
<rect fill="#DEE6F1" height="24" width="96" x="1312" y="18" />
<rect fill="none" height="24" stroke="#405C86" stroke-width="2" width="96" x="1312" y="18" />
<text class="label" x="1360" y="31">3</text>
<rect fill="#DEE6F1" height="24" width="96" x="1216" y="18" />
<rect fill="none" height="24" stroke="#405C86" stroke-width="2" width="96" x="1216" y="18" />
<text class="label" x="1264" y="31">4</text>
<rect fill="#DEE6F1" height="24" width="96" x="1120" y="18" />
<rect fill="none" height="24" stroke="#405C86" stroke-width="2" width="96" x="1120" y="18" />
<text class="label" x="1168" y="31">5</text>
<rect fill="#DEE6F1" height="24" width="96" x="1024" y="18" />
<rect fill="none" height="24" stroke="#405C86" stroke-width="2" width="96" x="1024" y="18" />
<text class="label" x="1072" y="31">6</text>
<rect fill="#DEE6F1" height="24" width="96" x="928" y="18" />
<rect fill="none" height="24" stroke="#405C86" stroke-width="2" width="96" x="928" y="18" />
<text class="label" x="976" y="31">7</text>
<text class="register-name" x="918" y="30">Zn1</text>
<text class="intrinsic-name" x="918" y="42">data[0]</text>
<rect fill="#DEE6F1" height="24" width="96" x="762" y="18" />
<rect fill="none" height="24" stroke="#405C86" stroke-width="2" width="96" x="762" y="18" />
<text class="label" x="810" y="31">8</text>
<rect fill="#DEE6F1" height="24" width="96" x="666" y="18" />
<rect fill="none" height="24" stroke="#405C86" stroke-width="2" width="96" x="666" y="18" />
<text class="label" x="714" y="31">9</text>
<rect fill="#DEE6F1" height="24" width="96" x="570" y="18" />
<rect fill="none" height="24" stroke="#405C86" stroke-width="2" width="96" x="570" y="18" />
<text class="label" x="618" y="31">10</text>
<rect fill="#DEE6F1" height="24" width="96" x="474" y="18" />
<rect fill="none" height="24" stroke="#405C86" stroke-width="2" width="96" x="474" y="18" />
<text class="label" x="522" y="31">11</text>
<rect fill="#DEE6F1" height="24" width="96" x="378" y="18" />
<rect fill="none" height="24" stroke="#405C86" stroke-width="2" width="96" x="378" y="18" />
<text class="label" x="426" y="31">12</text>
<rect fill="#DEE6F1" height="24" width="96" x="282" y="18" />
<rect fill="none" height="24" stroke="#405C86" stroke-width="2" width="96" x="282" y="18" />
<text class="label" x="330" y="31">13</text>
<rect fill="#DEE6F1" height="24" width="96" x="186" y="18" />
<rect fill="none" height="24" stroke="#405C86" stroke-width="2" width="96" x="186" y="18" />
<text class="label" x="234" y="31">14</text>
<rect fill="#DEE6F1" height="24" width="96" x="90" y="18" />
<rect fill="none" height="24" stroke="#405C86" stroke-width="2" width="96" x="90" y="18" />
<text class="label" x="138" y="31">15</text>
<text class="register-name" x="80" y="30">Zn2</text>
<text class="intrinsic-name" x="80" y="42">data[1]</text>
<text class="register-number" x="10" y="30">(1)</text>
<rect fill="#DEE6F1" height="24" width="96" x="762" y="90" />
<rect fill="none" height="24" stroke="#405C86" stroke-width="2" width="96" x="762" y="90" />
<rect fill="#DEE6F1" height="24" width="96" x="666" y="90" />
<rect fill="none" height="24" stroke="#405C86" stroke-width="2" width="96" x="666" y="90" />
<rect fill="#DEE6F1" height="24" width="96" x="570" y="90" />
<rect fill="none" height="24" stroke="#405C86" stroke-width="2" width="96" x="570" y="90" />
<rect fill="#DEE6F1" height="24" width="96" x="474" y="90" />
<rect fill="none" height="24" stroke="#405C86" stroke-width="2" width="96" x="474" y="90" />
<rect fill="#DEE6F1" height="24" width="96" x="378" y="90" />
<rect fill="none" height="24" stroke="#405C86" stroke-width="2" width="96" x="378" y="90" />
<rect fill="#DEE6F1" height="24" width="96" x="282" y="90" />
<rect fill="none" height="24" stroke="#405C86" stroke-width="2" width="96" x="282" y="90" />
<rect fill="#DEE6F1" height="24" width="96" x="186" y="90" />
<rect fill="none" height="24" stroke="#405C86" stroke-width="2" width="96" x="186" y="90" />
<rect fill="#DEE6F1" height="24" width="96" x="90" y="90" />
<rect fill="none" height="24" stroke="#405C86" stroke-width="2" width="96" x="90" y="90" />
<text class="register-name" x="80" y="102">Zm</text>
<text class="intrinsic-name" x="80" y="114">indices</text>
<text class="register-number" x="10" y="102">(2)</text>
<rect fill="#DEE6F1" height="24" width="96" x="762" y="162" />
<rect fill="none" height="24" stroke="#405C86" stroke-width="2" width="96" x="762" y="162" />
<rect fill="#DEE6F1" height="24" width="96" x="666" y="162" />
<rect fill="none" height="24" stroke="#405C86" stroke-width="2" width="96" x="666" y="162" />
<rect fill="#DEE6F1" height="24" width="96" x="570" y="162" />
<rect fill="none" height="24" stroke="#405C86" stroke-width="2" width="96" x="570" y="162" />
<rect fill="#DEE6F1" height="24" width="96" x="474" y="162" />
<rect fill="none" height="24" stroke="#405C86" stroke-width="2" width="96" x="474" y="162" />
<rect fill="#DEE6F1" height="24" width="96" x="378" y="162" />
<rect fill="none" height="24" stroke="#405C86" stroke-width="2" width="96" x="378" y="162" />
<rect fill="#DEE6F1" height="24" width="96" x="282" y="162" />
<rect fill="none" height="24" stroke="#405C86" stroke-width="2" width="96" x="282" y="162" />
<rect fill="#DEE6F1" height="24" width="96" x="186" y="162" />
<rect fill="none" height="24" stroke="#405C86" stroke-width="2" width="96" x="186" y="162" />
<rect fill="#DEE6F1" height="24" width="96" x="90" y="162" />
<rect fill="none" height="24" stroke="#405C86" stroke-width="2" width="96" x="90" y="162" />
<text class="register-name" x="80" y="174">Zd</text>
<text class="intrinsic-name" x="80" y="186">returns</text>
<text class="register-number" x="10" y="174">(3)</text>
<line marker-end="url(#arrowhead)" stroke="none" x1="810" x2="810" y1="114.5" y2="161" />
<line marker-end="url(#arrowhead)" stroke="none" x1="714" x2="714" y1="114.5" y2="161" />
<line marker-end="url(#arrowhead)" stroke="none" x1="618" x2="618" y1="114.5" y2="161" />
<line marker-end="url(#arrowhead)" stroke="none" x1="522" x2="522" y1="114.5" y2="161" />
<line marker-end="url(#arrowhead)" stroke="none" x1="426" x2="426" y1="114.5" y2="161" />
<line marker-end="url(#arrowhead)" stroke="none" x1="330" x2="330" y1="114.5" y2="161" />
<line marker-end="url(#arrowhead)" stroke="none" x1="234" x2="234" y1="114.5" y2="161" />
<line marker-end="url(#arrowhead)" stroke="none" x1="138" x2="138" y1="114.5" y2="161" />
</svg>