<svg xmlns="http://www.w3.org/2000/svg" viewBox="0 0 1708 195">
<style>
.label { font: 14px Helvetica; dominant-baseline: middle; text-anchor: middle; }
.title-left { font: 12px Helvetica; dominant-baseline: middle; }
.title-right { font: 12px Helvetica; dominant-baseline: middle; text-anchor: end; }
.title-intrinsic { font: 12px Helvetica; dominant-baseline: middle; text-anchor: middle; fill: #6778ED; }
.title { font: 12px Helvetica; dominant-baseline: middle; text-anchor: middle; }
.title-unused { font: 12px Helvetica; dominant-baseline: middle; text-anchor: middle; fill: #AAA; }
.register-name { font: 14px Helvetica; dominant-baseline: middle; text-anchor: end; font-style: italic; }
.memory-name { font: 14px Helvetica; dominant-baseline: middle; text-anchor: end; }
.register-number { font: 14px Helvetica; dominant-baseline: middle; text-anchor: start; }
.intrinsic-name { font: 14px Helvetica; dominant-baseline: middle; text-anchor: end; fill: #6778ED; }
.intrinsic-color { fill: #6778ED; }
.small-label { font: 12px Helvetica; dominant-baseline: middle; text-anchor: middle; }
.label-10px { font: 10px Helvetica; dominant-baseline: middle; text-anchor: middle; }
.smaller-label { font: 9px Helvetica; dominant-baseline: middle; text-anchor: middle; }
.label-6px { font: 6px Helvetica; dominant-baseline: middle; text-anchor: middle; }
.label-7px { font: 7px Helvetica; dominant-baseline: middle; text-anchor: middle; }
.unused { fill: #AAA; }
.dim { fill: #888; }
</style>
<defs>
<marker id="arrowhead" markerWidth="10.75" markerHeight="24.5" refX="9.0" refY="6.125" orient="auto">
<polyline points="0.5 0.5, 8.75 6.125, 0.5 11.75" stroke="#567DB6" stroke-width="1" fill="none"/>
</marker>
</defs>
<polyline fill="none" points="931.0 42.5,933.0 46.5,1311.0 46.5,1312.0 48.5,1312.0 52.5,1312.0 48.5,1313.0 46.5,1691.0 46.5,1693.0 42.5" stroke="#567DB6" stroke-width="1" />
<polyline fill="none" points="93.0 42.5,95.0 46.5,473.0 46.5,474.0 48.5,474.0 52.5,474.0 48.5,475.0 46.5,853.0 46.5,855.0 42.5" stroke="#567DB6" stroke-width="1" />
<line stroke="#567DB6" stroke-width="1" top="True" x1="1312" x2="474" y1="52.5" y2="52.5" />
<line stroke="#567DB6" stroke-width="1" x1="474" x2="846" y1="52.5" y2="89.5" />
<line stroke="#567DB6" stroke-width="1" x1="474" x2="822" y1="52.5" y2="89.5" />
<line stroke="#567DB6" stroke-width="1" x1="474" x2="798" y1="52.5" y2="89.5" />
<line stroke="#567DB6" stroke-width="1" x1="474" x2="774" y1="52.5" y2="89.5" />
<line stroke="#567DB6" stroke-width="1" x1="474" x2="750" y1="52.5" y2="89.5" />
<line stroke="#567DB6" stroke-width="1" x1="474" x2="726" y1="52.5" y2="89.5" />
<line stroke="#567DB6" stroke-width="1" x1="474" x2="702" y1="52.5" y2="89.5" />
<line stroke="#567DB6" stroke-width="1" x1="474" x2="678" y1="52.5" y2="89.5" />
<line stroke="#567DB6" stroke-width="1" x1="474" x2="654" y1="52.5" y2="89.5" />
<line stroke="#567DB6" stroke-width="1" x1="474" x2="630" y1="52.5" y2="89.5" />
<line stroke="#567DB6" stroke-width="1" x1="474" x2="606" y1="52.5" y2="89.5" />
<line stroke="#567DB6" stroke-width="1" x1="474" x2="582" y1="52.5" y2="89.5" />
<line stroke="#567DB6" stroke-width="1" x1="474" x2="558" y1="52.5" y2="89.5" />
<line stroke="#567DB6" stroke-width="1" x1="474" x2="534" y1="52.5" y2="89.5" />
<line stroke="#567DB6" stroke-width="1" x1="474" x2="510" y1="52.5" y2="89.5" />
<line stroke="#567DB6" stroke-width="1" x1="474" x2="486" y1="52.5" y2="89.5" />
<line stroke="#567DB6" stroke-width="1" x1="474" x2="462" y1="52.5" y2="89.5" />
<line stroke="#567DB6" stroke-width="1" x1="474" x2="438" y1="52.5" y2="89.5" />
<line stroke="#567DB6" stroke-width="1" x1="474" x2="414" y1="52.5" y2="89.5" />
<line stroke="#567DB6" stroke-width="1" x1="474" x2="390" y1="52.5" y2="89.5" />
<line stroke="#567DB6" stroke-width="1" x1="474" x2="366" y1="52.5" y2="89.5" />
<line stroke="#567DB6" stroke-width="1" x1="474" x2="342" y1="52.5" y2="89.5" />
<line stroke="#567DB6" stroke-width="1" x1="474" x2="318" y1="52.5" y2="89.5" />
<line stroke="#567DB6" stroke-width="1" x1="474" x2="294" y1="52.5" y2="89.5" />
<line stroke="#567DB6" stroke-width="1" x1="474" x2="270" y1="52.5" y2="89.5" />
<line stroke="#567DB6" stroke-width="1" x1="474" x2="246" y1="52.5" y2="89.5" />
<line stroke="#567DB6" stroke-width="1" x1="474" x2="222" y1="52.5" y2="89.5" />
<line stroke="#567DB6" stroke-width="1" x1="474" x2="198" y1="52.5" y2="89.5" />
<line stroke="#567DB6" stroke-width="1" x1="474" x2="174" y1="52.5" y2="89.5" />
<line stroke="#567DB6" stroke-width="1" x1="474" x2="150" y1="52.5" y2="89.5" />
<line stroke="#567DB6" stroke-width="1" x1="474" x2="126" y1="52.5" y2="89.5" />
<line stroke="#567DB6" stroke-width="1" x1="474" x2="102" y1="52.5" y2="89.5" />
<line stroke="#567DB6" stroke-width="1" x1="846" x2="846" y1="114.5" y2="161" />
<line stroke="#567DB6" stroke-width="1" x1="822" x2="822" y1="114.5" y2="161" />
<line stroke="#567DB6" stroke-width="1" x1="798" x2="798" y1="114.5" y2="161" />
<line stroke="#567DB6" stroke-width="1" x1="774" x2="774" y1="114.5" y2="161" />
<line stroke="#567DB6" stroke-width="1" x1="750" x2="750" y1="114.5" y2="161" />
<line stroke="#567DB6" stroke-width="1" x1="726" x2="726" y1="114.5" y2="161" />
<line stroke="#567DB6" stroke-width="1" x1="702" x2="702" y1="114.5" y2="161" />
<line stroke="#567DB6" stroke-width="1" x1="678" x2="678" y1="114.5" y2="161" />
<line stroke="#567DB6" stroke-width="1" x1="654" x2="654" y1="114.5" y2="161" />
<line stroke="#567DB6" stroke-width="1" x1="630" x2="630" y1="114.5" y2="161" />
<line stroke="#567DB6" stroke-width="1" x1="606" x2="606" y1="114.5" y2="161" />
<line stroke="#567DB6" stroke-width="1" x1="582" x2="582" y1="114.5" y2="161" />
<line stroke="#567DB6" stroke-width="1" x1="558" x2="558" y1="114.5" y2="161" />
<line stroke="#567DB6" stroke-width="1" x1="534" x2="534" y1="114.5" y2="161" />
<line stroke="#567DB6" stroke-width="1" x1="510" x2="510" y1="114.5" y2="161" />
<line stroke="#567DB6" stroke-width="1" x1="486" x2="486" y1="114.5" y2="161" />
<line stroke="#567DB6" stroke-width="1" x1="462" x2="462" y1="114.5" y2="161" />
<line stroke="#567DB6" stroke-width="1" x1="438" x2="438" y1="114.5" y2="161" />
<line stroke="#567DB6" stroke-width="1" x1="414" x2="414" y1="114.5" y2="161" />
<line stroke="#567DB6" stroke-width="1" x1="390" x2="390" y1="114.5" y2="161" />
<line stroke="#567DB6" stroke-width="1" x1="366" x2="366" y1="114.5" y2="161" />
<line stroke="#567DB6" stroke-width="1" x1="342" x2="342" y1="114.5" y2="161" />
<line stroke="#567DB6" stroke-width="1" x1="318" x2="318" y1="114.5" y2="161" />
<line stroke="#567DB6" stroke-width="1" x1="294" x2="294" y1="114.5" y2="161" />
<line stroke="#567DB6" stroke-width="1" x1="270" x2="270" y1="114.5" y2="161" />
<line stroke="#567DB6" stroke-width="1" x1="246" x2="246" y1="114.5" y2="161" />
<line stroke="#567DB6" stroke-width="1" x1="222" x2="222" y1="114.5" y2="161" />
<line stroke="#567DB6" stroke-width="1" x1="198" x2="198" y1="114.5" y2="161" />
<line stroke="#567DB6" stroke-width="1" x1="174" x2="174" y1="114.5" y2="161" />
<line stroke="#567DB6" stroke-width="1" x1="150" x2="150" y1="114.5" y2="161" />
<line stroke="#567DB6" stroke-width="1" x1="126" x2="126" y1="114.5" y2="161" />
<line stroke="#567DB6" stroke-width="1" x1="102" x2="102" y1="114.5" y2="161" />
<text class="title-left" x="90" y="9">upper</text>
<text class="title-right" x="858" y="9">lower</text>
<rect fill="#DEE6F1" height="24" width="24" x="1672" y="18" />
<rect fill="none" height="24" stroke="#405C86" stroke-width="2" width="24" x="1672" y="18" />
<text class="label" x="1684" y="31">0</text>
<rect fill="#DEE6F1" height="24" width="24" x="1648" y="18" />
<rect fill="none" height="24" stroke="#405C86" stroke-width="2" width="24" x="1648" y="18" />
<text class="label" x="1660" y="31">1</text>
<rect fill="#DEE6F1" height="24" width="24" x="1624" y="18" />
<rect fill="none" height="24" stroke="#405C86" stroke-width="2" width="24" x="1624" y="18" />
<text class="label" x="1636" y="31">2</text>
<rect fill="#DEE6F1" height="24" width="24" x="1600" y="18" />
<rect fill="none" height="24" stroke="#405C86" stroke-width="2" width="24" x="1600" y="18" />
<text class="label" x="1612" y="31">3</text>
<rect fill="#DEE6F1" height="24" width="24" x="1576" y="18" />
<rect fill="none" height="24" stroke="#405C86" stroke-width="2" width="24" x="1576" y="18" />
<text class="label" x="1588" y="31">4</text>
<rect fill="#DEE6F1" height="24" width="24" x="1552" y="18" />
<rect fill="none" height="24" stroke="#405C86" stroke-width="2" width="24" x="1552" y="18" />
<text class="label" x="1564" y="31">5</text>
<rect fill="#DEE6F1" height="24" width="24" x="1528" y="18" />
<rect fill="none" height="24" stroke="#405C86" stroke-width="2" width="24" x="1528" y="18" />
<text class="label" x="1540" y="31">6</text>
<rect fill="#DEE6F1" height="24" width="24" x="1504" y="18" />
<rect fill="none" height="24" stroke="#405C86" stroke-width="2" width="24" x="1504" y="18" />
<text class="label" x="1516" y="31">7</text>
<rect fill="#DEE6F1" height="24" width="24" x="1480" y="18" />
<rect fill="none" height="24" stroke="#405C86" stroke-width="2" width="24" x="1480" y="18" />
<text class="label" x="1492" y="31">8</text>
<rect fill="#DEE6F1" height="24" width="24" x="1456" y="18" />
<rect fill="none" height="24" stroke="#405C86" stroke-width="2" width="24" x="1456" y="18" />
<text class="label" x="1468" y="31">9</text>
<rect fill="#DEE6F1" height="24" width="24" x="1432" y="18" />
<rect fill="none" height="24" stroke="#405C86" stroke-width="2" width="24" x="1432" y="18" />
<text class="label" x="1444" y="31">10</text>
<rect fill="#DEE6F1" height="24" width="24" x="1408" y="18" />
<rect fill="none" height="24" stroke="#405C86" stroke-width="2" width="24" x="1408" y="18" />
<text class="label" x="1420" y="31">11</text>
<rect fill="#DEE6F1" height="24" width="24" x="1384" y="18" />
<rect fill="none" height="24" stroke="#405C86" stroke-width="2" width="24" x="1384" y="18" />
<text class="label" x="1396" y="31">12</text>
<rect fill="#DEE6F1" height="24" width="24" x="1360" y="18" />
<rect fill="none" height="24" stroke="#405C86" stroke-width="2" width="24" x="1360" y="18" />
<text class="label" x="1372" y="31">13</text>
<rect fill="#DEE6F1" height="24" width="24" x="1336" y="18" />
<rect fill="none" height="24" stroke="#405C86" stroke-width="2" width="24" x="1336" y="18" />
<text class="label" x="1348" y="31">14</text>
<rect fill="#DEE6F1" height="24" width="24" x="1312" y="18" />
<rect fill="none" height="24" stroke="#405C86" stroke-width="2" width="24" x="1312" y="18" />
<text class="label" x="1324" y="31">15</text>
<rect fill="#DEE6F1" height="24" width="24" x="1288" y="18" />
<rect fill="none" height="24" stroke="#405C86" stroke-width="2" width="24" x="1288" y="18" />
<text class="label" x="1300" y="31">16</text>
<rect fill="#DEE6F1" height="24" width="24" x="1264" y="18" />
<rect fill="none" height="24" stroke="#405C86" stroke-width="2" width="24" x="1264" y="18" />
<text class="label" x="1276" y="31">17</text>
<rect fill="#DEE6F1" height="24" width="24" x="1240" y="18" />
<rect fill="none" height="24" stroke="#405C86" stroke-width="2" width="24" x="1240" y="18" />
<text class="label" x="1252" y="31">18</text>
<rect fill="#DEE6F1" height="24" width="24" x="1216" y="18" />
<rect fill="none" height="24" stroke="#405C86" stroke-width="2" width="24" x="1216" y="18" />
<text class="label" x="1228" y="31">19</text>
<rect fill="#DEE6F1" height="24" width="24" x="1192" y="18" />
<rect fill="none" height="24" stroke="#405C86" stroke-width="2" width="24" x="1192" y="18" />
<text class="label" x="1204" y="31">20</text>
<rect fill="#DEE6F1" height="24" width="24" x="1168" y="18" />
<rect fill="none" height="24" stroke="#405C86" stroke-width="2" width="24" x="1168" y="18" />
<text class="label" x="1180" y="31">21</text>
<rect fill="#DEE6F1" height="24" width="24" x="1144" y="18" />
<rect fill="none" height="24" stroke="#405C86" stroke-width="2" width="24" x="1144" y="18" />
<text class="label" x="1156" y="31">22</text>
<rect fill="#DEE6F1" height="24" width="24" x="1120" y="18" />
<rect fill="none" height="24" stroke="#405C86" stroke-width="2" width="24" x="1120" y="18" />
<text class="label" x="1132" y="31">23</text>
<rect fill="#DEE6F1" height="24" width="24" x="1096" y="18" />
<rect fill="none" height="24" stroke="#405C86" stroke-width="2" width="24" x="1096" y="18" />
<text class="label" x="1108" y="31">24</text>
<rect fill="#DEE6F1" height="24" width="24" x="1072" y="18" />
<rect fill="none" height="24" stroke="#405C86" stroke-width="2" width="24" x="1072" y="18" />
<text class="label" x="1084" y="31">25</text>
<rect fill="#DEE6F1" height="24" width="24" x="1048" y="18" />
<rect fill="none" height="24" stroke="#405C86" stroke-width="2" width="24" x="1048" y="18" />
<text class="label" x="1060" y="31">26</text>
<rect fill="#DEE6F1" height="24" width="24" x="1024" y="18" />
<rect fill="none" height="24" stroke="#405C86" stroke-width="2" width="24" x="1024" y="18" />
<text class="label" x="1036" y="31">27</text>
<rect fill="#DEE6F1" height="24" width="24" x="1000" y="18" />
<rect fill="none" height="24" stroke="#405C86" stroke-width="2" width="24" x="1000" y="18" />
<text class="label" x="1012" y="31">28</text>
<rect fill="#DEE6F1" height="24" width="24" x="976" y="18" />
<rect fill="none" height="24" stroke="#405C86" stroke-width="2" width="24" x="976" y="18" />
<text class="label" x="988" y="31">29</text>
<rect fill="#DEE6F1" height="24" width="24" x="952" y="18" />
<rect fill="none" height="24" stroke="#405C86" stroke-width="2" width="24" x="952" y="18" />
<text class="label" x="964" y="31">30</text>
<rect fill="#DEE6F1" height="24" width="24" x="928" y="18" />
<rect fill="none" height="24" stroke="#405C86" stroke-width="2" width="24" x="928" y="18" />
<text class="label" x="940" y="31">31</text>
<text class="register-name" x="918" y="30">Zn1</text>
<text class="intrinsic-name" x="918" y="42">data[0]</text>
<rect fill="#DEE6F1" height="24" width="24" x="834" y="18" />
<rect fill="none" height="24" stroke="#405C86" stroke-width="2" width="24" x="834" y="18" />
<text class="label" x="846" y="31">32</text>
<rect fill="#DEE6F1" height="24" width="24" x="810" y="18" />
<rect fill="none" height="24" stroke="#405C86" stroke-width="2" width="24" x="810" y="18" />
<text class="label" x="822" y="31">33</text>
<rect fill="#DEE6F1" height="24" width="24" x="786" y="18" />
<rect fill="none" height="24" stroke="#405C86" stroke-width="2" width="24" x="786" y="18" />
<text class="label" x="798" y="31">34</text>
<rect fill="#DEE6F1" height="24" width="24" x="762" y="18" />
<rect fill="none" height="24" stroke="#405C86" stroke-width="2" width="24" x="762" y="18" />
<text class="label" x="774" y="31">35</text>
<rect fill="#DEE6F1" height="24" width="24" x="738" y="18" />
<rect fill="none" height="24" stroke="#405C86" stroke-width="2" width="24" x="738" y="18" />
<text class="label" x="750" y="31">36</text>
<rect fill="#DEE6F1" height="24" width="24" x="714" y="18" />
<rect fill="none" height="24" stroke="#405C86" stroke-width="2" width="24" x="714" y="18" />
<text class="label" x="726" y="31">37</text>
<rect fill="#DEE6F1" height="24" width="24" x="690" y="18" />
<rect fill="none" height="24" stroke="#405C86" stroke-width="2" width="24" x="690" y="18" />
<text class="label" x="702" y="31">38</text>
<rect fill="#DEE6F1" height="24" width="24" x="666" y="18" />
<rect fill="none" height="24" stroke="#405C86" stroke-width="2" width="24" x="666" y="18" />
<text class="label" x="678" y="31">39</text>
<rect fill="#DEE6F1" height="24" width="24" x="642" y="18" />
<rect fill="none" height="24" stroke="#405C86" stroke-width="2" width="24" x="642" y="18" />
<text class="label" x="654" y="31">40</text>
<rect fill="#DEE6F1" height="24" width="24" x="618" y="18" />
<rect fill="none" height="24" stroke="#405C86" stroke-width="2" width="24" x="618" y="18" />
<text class="label" x="630" y="31">41</text>
<rect fill="#DEE6F1" height="24" width="24" x="594" y="18" />
<rect fill="none" height="24" stroke="#405C86" stroke-width="2" width="24" x="594" y="18" />
<text class="label" x="606" y="31">42</text>
<rect fill="#DEE6F1" height="24" width="24" x="570" y="18" />
<rect fill="none" height="24" stroke="#405C86" stroke-width="2" width="24" x="570" y="18" />
<text class="label" x="582" y="31">43</text>
<rect fill="#DEE6F1" height="24" width="24" x="546" y="18" />
<rect fill="none" height="24" stroke="#405C86" stroke-width="2" width="24" x="546" y="18" />
<text class="label" x="558" y="31">44</text>
<rect fill="#DEE6F1" height="24" width="24" x="522" y="18" />
<rect fill="none" height="24" stroke="#405C86" stroke-width="2" width="24" x="522" y="18" />
<text class="label" x="534" y="31">45</text>
<rect fill="#DEE6F1" height="24" width="24" x="498" y="18" />
<rect fill="none" height="24" stroke="#405C86" stroke-width="2" width="24" x="498" y="18" />
<text class="label" x="510" y="31">46</text>
<rect fill="#DEE6F1" height="24" width="24" x="474" y="18" />
<rect fill="none" height="24" stroke="#405C86" stroke-width="2" width="24" x="474" y="18" />
<text class="label" x="486" y="31">47</text>
<rect fill="#DEE6F1" height="24" width="24" x="450" y="18" />
<rect fill="none" height="24" stroke="#405C86" stroke-width="2" width="24" x="450" y="18" />
<text class="label" x="462" y="31">48</text>
<rect fill="#DEE6F1" height="24" width="24" x="426" y="18" />
<rect fill="none" height="24" stroke="#405C86" stroke-width="2" width="24" x="426" y="18" />
<text class="label" x="438" y="31">49</text>
<rect fill="#DEE6F1" height="24" width="24" x="402" y="18" />
<rect fill="none" height="24" stroke="#405C86" stroke-width="2" width="24" x="402" y="18" />
<text class="label" x="414" y="31">50</text>
<rect fill="#DEE6F1" height="24" width="24" x="378" y="18" />
<rect fill="none" height="24" stroke="#405C86" stroke-width="2" width="24" x="378" y="18" />
<text class="label" x="390" y="31">51</text>
<rect fill="#DEE6F1" height="24" width="24" x="354" y="18" />
<rect fill="none" height="24" stroke="#405C86" stroke-width="2" width="24" x="354" y="18" />
<text class="label" x="366" y="31">52</text>
<rect fill="#DEE6F1" height="24" width="24" x="330" y="18" />
<rect fill="none" height="24" stroke="#405C86" stroke-width="2" width="24" x="330" y="18" />
<text class="label" x="342" y="31">53</text>
<rect fill="#DEE6F1" height="24" width="24" x="306" y="18" />
<rect fill="none" height="24" stroke="#405C86" stroke-width="2" width="24" x="306" y="18" />
<text class="label" x="318" y="31">54</text>
<rect fill="#DEE6F1" height="24" width="24" x="282" y="18" />
<rect fill="none" height="24" stroke="#405C86" stroke-width="2" width="24" x="282" y="18" />
<text class="label" x="294" y="31">55</text>
<rect fill="#DEE6F1" height="24" width="24" x="258" y="18" />
<rect fill="none" height="24" stroke="#405C86" stroke-width="2" width="24" x="258" y="18" />
<text class="label" x="270" y="31">56</text>
<rect fill="#DEE6F1" height="24" width="24" x="234" y="18" />
<rect fill="none" height="24" stroke="#405C86" stroke-width="2" width="24" x="234" y="18" />
<text class="label" x="246" y="31">57</text>
<rect fill="#DEE6F1" height="24" width="24" x="210" y="18" />
<rect fill="none" height="24" stroke="#405C86" stroke-width="2" width="24" x="210" y="18" />
<text class="label" x="222" y="31">58</text>
<rect fill="#DEE6F1" height="24" width="24" x="186" y="18" />
<rect fill="none" height="24" stroke="#405C86" stroke-width="2" width="24" x="186" y="18" />
<text class="label" x="198" y="31">59</text>
<rect fill="#DEE6F1" height="24" width="24" x="162" y="18" />
<rect fill="none" height="24" stroke="#405C86" stroke-width="2" width="24" x="162" y="18" />
<text class="label" x="174" y="31">60</text>
<rect fill="#DEE6F1" height="24" width="24" x="138" y="18" />
<rect fill="none" height="24" stroke="#405C86" stroke-width="2" width="24" x="138" y="18" />
<text class="label" x="150" y="31">61</text>
<rect fill="#DEE6F1" height="24" width="24" x="114" y="18" />
<rect fill="none" height="24" stroke="#405C86" stroke-width="2" width="24" x="114" y="18" />
<text class="label" x="126" y="31">62</text>
<rect fill="#DEE6F1" height="24" width="24" x="90" y="18" />
<rect fill="none" height="24" stroke="#405C86" stroke-width="2" width="24" x="90" y="18" />
<text class="label" x="102" y="31">63</text>
<text class="register-name" x="80" y="30">Zn2</text>
<text class="intrinsic-name" x="80" y="42">data[1]</text>
<text class="register-number" x="10" y="30">(1)</text>
<rect fill="#DEE6F1" height="24" width="24" x="834" y="90" />
<rect fill="none" height="24" stroke="#405C86" stroke-width="2" width="24" x="834" y="90" />
<rect fill="#DEE6F1" height="24" width="24" x="810" y="90" />
<rect fill="none" height="24" stroke="#405C86" stroke-width="2" width="24" x="810" y="90" />
<rect fill="#DEE6F1" height="24" width="24" x="786" y="90" />
<rect fill="none" height="24" stroke="#405C86" stroke-width="2" width="24" x="786" y="90" />
<rect fill="#DEE6F1" height="24" width="24" x="762" y="90" />
<rect fill="none" height="24" stroke="#405C86" stroke-width="2" width="24" x="762" y="90" />
<rect fill="#DEE6F1" height="24" width="24" x="738" y="90" />
<rect fill="none" height="24" stroke="#405C86" stroke-width="2" width="24" x="738" y="90" />
<rect fill="#DEE6F1" height="24" width="24" x="714" y="90" />
<rect fill="none" height="24" stroke="#405C86" stroke-width="2" width="24" x="714" y="90" />
<rect fill="#DEE6F1" height="24" width="24" x="690" y="90" />
<rect fill="none" height="24" stroke="#405C86" stroke-width="2" width="24" x="690" y="90" />
<rect fill="#DEE6F1" height="24" width="24" x="666" y="90" />
<rect fill="none" height="24" stroke="#405C86" stroke-width="2" width="24" x="666" y="90" />
<rect fill="#DEE6F1" height="24" width="24" x="642" y="90" />
<rect fill="none" height="24" stroke="#405C86" stroke-width="2" width="24" x="642" y="90" />
<rect fill="#DEE6F1" height="24" width="24" x="618" y="90" />
<rect fill="none" height="24" stroke="#405C86" stroke-width="2" width="24" x="618" y="90" />
<rect fill="#DEE6F1" height="24" width="24" x="594" y="90" />
<rect fill="none" height="24" stroke="#405C86" stroke-width="2" width="24" x="594" y="90" />
<rect fill="#DEE6F1" height="24" width="24" x="570" y="90" />
<rect fill="none" height="24" stroke="#405C86" stroke-width="2" width="24" x="570" y="90" />
<rect fill="#DEE6F1" height="24" width="24" x="546" y="90" />
<rect fill="none" height="24" stroke="#405C86" stroke-width="2" width="24" x="546" y="90" />
<rect fill="#DEE6F1" height="24" width="24" x="522" y="90" />
<rect fill="none" height="24" stroke="#405C86" stroke-width="2" width="24" x="522" y="90" />
<rect fill="#DEE6F1" height="24" width="24" x="498" y="90" />
<rect fill="none" height="24" stroke="#405C86" stroke-width="2" width="24" x="498" y="90" />
<rect fill="#DEE6F1" height="24" width="24" x="474" y="90" />
<rect fill="none" height="24" stroke="#405C86" stroke-width="2" width="24" x="474" y="90" />
<rect fill="#DEE6F1" height="24" width="24" x="450" y="90" />
<rect fill="none" height="24" stroke="#405C86" stroke-width="2" width="24" x="450" y="90" />
<rect fill="#DEE6F1" height="24" width="24" x="426" y="90" />
<rect fill="none" height="24" stroke="#405C86" stroke-width="2" width="24" x="426" y="90" />
<rect fill="#DEE6F1" height="24" width="24" x="402" y="90" />
<rect fill="none" height="24" stroke="#405C86" stroke-width="2" width="24" x="402" y="90" />
<rect fill="#DEE6F1" height="24" width="24" x="378" y="90" />
<rect fill="none" height="24" stroke="#405C86" stroke-width="2" width="24" x="378" y="90" />
<rect fill="#DEE6F1" height="24" width="24" x="354" y="90" />
<rect fill="none" height="24" stroke="#405C86" stroke-width="2" width="24" x="354" y="90" />
<rect fill="#DEE6F1" height="24" width="24" x="330" y="90" />
<rect fill="none" height="24" stroke="#405C86" stroke-width="2" width="24" x="330" y="90" />
<rect fill="#DEE6F1" height="24" width="24" x="306" y="90" />
<rect fill="none" height="24" stroke="#405C86" stroke-width="2" width="24" x="306" y="90" />
<rect fill="#DEE6F1" height="24" width="24" x="282" y="90" />
<rect fill="none" height="24" stroke="#405C86" stroke-width="2" width="24" x="282" y="90" />
<rect fill="#DEE6F1" height="24" width="24" x="258" y="90" />
<rect fill="none" height="24" stroke="#405C86" stroke-width="2" width="24" x="258" y="90" />
<rect fill="#DEE6F1" height="24" width="24" x="234" y="90" />
<rect fill="none" height="24" stroke="#405C86" stroke-width="2" width="24" x="234" y="90" />
<rect fill="#DEE6F1" height="24" width="24" x="210" y="90" />
<rect fill="none" height="24" stroke="#405C86" stroke-width="2" width="24" x="210" y="90" />
<rect fill="#DEE6F1" height="24" width="24" x="186" y="90" />
<rect fill="none" height="24" stroke="#405C86" stroke-width="2" width="24" x="186" y="90" />
<rect fill="#DEE6F1" height="24" width="24" x="162" y="90" />
<rect fill="none" height="24" stroke="#405C86" stroke-width="2" width="24" x="162" y="90" />
<rect fill="#DEE6F1" height="24" width="24" x="138" y="90" />
<rect fill="none" height="24" stroke="#405C86" stroke-width="2" width="24" x="138" y="90" />
<rect fill="#DEE6F1" height="24" width="24" x="114" y="90" />
<rect fill="none" height="24" stroke="#405C86" stroke-width="2" width="24" x="114" y="90" />
<rect fill="#DEE6F1" height="24" width="24" x="90" y="90" />
<rect fill="none" height="24" stroke="#405C86" stroke-width="2" width="24" x="90" y="90" />
<text class="register-name" x="80" y="102">Zm</text>
<text class="intrinsic-name" x="80" y="114">indices</text>
<text class="register-number" x="10" y="102">(2)</text>
<rect fill="#DEE6F1" height="24" width="24" x="834" y="162" />
<rect fill="none" height="24" stroke="#405C86" stroke-width="2" width="24" x="834" y="162" />
<rect fill="#DEE6F1" height="24" width="24" x="810" y="162" />
<rect fill="none" height="24" stroke="#405C86" stroke-width="2" width="24" x="810" y="162" />
<rect fill="#DEE6F1" height="24" width="24" x="786" y="162" />
<rect fill="none" height="24" stroke="#405C86" stroke-width="2" width="24" x="786" y="162" />
<rect fill="#DEE6F1" height="24" width="24" x="762" y="162" />
<rect fill="none" height="24" stroke="#405C86" stroke-width="2" width="24" x="762" y="162" />
<rect fill="#DEE6F1" height="24" width="24" x="738" y="162" />
<rect fill="none" height="24" stroke="#405C86" stroke-width="2" width="24" x="738" y="162" />
<rect fill="#DEE6F1" height="24" width="24" x="714" y="162" />
<rect fill="none" height="24" stroke="#405C86" stroke-width="2" width="24" x="714" y="162" />
<rect fill="#DEE6F1" height="24" width="24" x="690" y="162" />
<rect fill="none" height="24" stroke="#405C86" stroke-width="2" width="24" x="690" y="162" />
<rect fill="#DEE6F1" height="24" width="24" x="666" y="162" />
<rect fill="none" height="24" stroke="#405C86" stroke-width="2" width="24" x="666" y="162" />
<rect fill="#DEE6F1" height="24" width="24" x="642" y="162" />
<rect fill="none" height="24" stroke="#405C86" stroke-width="2" width="24" x="642" y="162" />
<rect fill="#DEE6F1" height="24" width="24" x="618" y="162" />
<rect fill="none" height="24" stroke="#405C86" stroke-width="2" width="24" x="618" y="162" />
<rect fill="#DEE6F1" height="24" width="24" x="594" y="162" />
<rect fill="none" height="24" stroke="#405C86" stroke-width="2" width="24" x="594" y="162" />
<rect fill="#DEE6F1" height="24" width="24" x="570" y="162" />
<rect fill="none" height="24" stroke="#405C86" stroke-width="2" width="24" x="570" y="162" />
<rect fill="#DEE6F1" height="24" width="24" x="546" y="162" />
<rect fill="none" height="24" stroke="#405C86" stroke-width="2" width="24" x="546" y="162" />
<rect fill="#DEE6F1" height="24" width="24" x="522" y="162" />
<rect fill="none" height="24" stroke="#405C86" stroke-width="2" width="24" x="522" y="162" />
<rect fill="#DEE6F1" height="24" width="24" x="498" y="162" />
<rect fill="none" height="24" stroke="#405C86" stroke-width="2" width="24" x="498" y="162" />
<rect fill="#DEE6F1" height="24" width="24" x="474" y="162" />
<rect fill="none" height="24" stroke="#405C86" stroke-width="2" width="24" x="474" y="162" />
<rect fill="#DEE6F1" height="24" width="24" x="450" y="162" />
<rect fill="none" height="24" stroke="#405C86" stroke-width="2" width="24" x="450" y="162" />
<rect fill="#DEE6F1" height="24" width="24" x="426" y="162" />
<rect fill="none" height="24" stroke="#405C86" stroke-width="2" width="24" x="426" y="162" />
<rect fill="#DEE6F1" height="24" width="24" x="402" y="162" />
<rect fill="none" height="24" stroke="#405C86" stroke-width="2" width="24" x="402" y="162" />
<rect fill="#DEE6F1" height="24" width="24" x="378" y="162" />
<rect fill="none" height="24" stroke="#405C86" stroke-width="2" width="24" x="378" y="162" />
<rect fill="#DEE6F1" height="24" width="24" x="354" y="162" />
<rect fill="none" height="24" stroke="#405C86" stroke-width="2" width="24" x="354" y="162" />
<rect fill="#DEE6F1" height="24" width="24" x="330" y="162" />
<rect fill="none" height="24" stroke="#405C86" stroke-width="2" width="24" x="330" y="162" />
<rect fill="#DEE6F1" height="24" width="24" x="306" y="162" />
<rect fill="none" height="24" stroke="#405C86" stroke-width="2" width="24" x="306" y="162" />
<rect fill="#DEE6F1" height="24" width="24" x="282" y="162" />
<rect fill="none" height="24" stroke="#405C86" stroke-width="2" width="24" x="282" y="162" />
<rect fill="#DEE6F1" height="24" width="24" x="258" y="162" />
<rect fill="none" height="24" stroke="#405C86" stroke-width="2" width="24" x="258" y="162" />
<rect fill="#DEE6F1" height="24" width="24" x="234" y="162" />
<rect fill="none" height="24" stroke="#405C86" stroke-width="2" width="24" x="234" y="162" />
<rect fill="#DEE6F1" height="24" width="24" x="210" y="162" />
<rect fill="none" height="24" stroke="#405C86" stroke-width="2" width="24" x="210" y="162" />
<rect fill="#DEE6F1" height="24" width="24" x="186" y="162" />
<rect fill="none" height="24" stroke="#405C86" stroke-width="2" width="24" x="186" y="162" />
<rect fill="#DEE6F1" height="24" width="24" x="162" y="162" />
<rect fill="none" height="24" stroke="#405C86" stroke-width="2" width="24" x="162" y="162" />
<rect fill="#DEE6F1" height="24" width="24" x="138" y="162" />
<rect fill="none" height="24" stroke="#405C86" stroke-width="2" width="24" x="138" y="162" />
<rect fill="#DEE6F1" height="24" width="24" x="114" y="162" />
<rect fill="none" height="24" stroke="#405C86" stroke-width="2" width="24" x="114" y="162" />
<rect fill="#DEE6F1" height="24" width="24" x="90" y="162" />
<rect fill="none" height="24" stroke="#405C86" stroke-width="2" width="24" x="90" y="162" />
<text class="register-name" x="80" y="174">Zd</text>
<text class="intrinsic-name" x="80" y="186">returns</text>
<text class="register-number" x="10" y="174">(3)</text>
<line marker-end="url(#arrowhead)" stroke="none" x1="846" x2="846" y1="114.5" y2="161" />
<line marker-end="url(#arrowhead)" stroke="none" x1="822" x2="822" y1="114.5" y2="161" />
<line marker-end="url(#arrowhead)" stroke="none" x1="798" x2="798" y1="114.5" y2="161" />
<line marker-end="url(#arrowhead)" stroke="none" x1="774" x2="774" y1="114.5" y2="161" />
<line marker-end="url(#arrowhead)" stroke="none" x1="750" x2="750" y1="114.5" y2="161" />
<line marker-end="url(#arrowhead)" stroke="none" x1="726" x2="726" y1="114.5" y2="161" />
<line marker-end="url(#arrowhead)" stroke="none" x1="702" x2="702" y1="114.5" y2="161" />
<line marker-end="url(#arrowhead)" stroke="none" x1="678" x2="678" y1="114.5" y2="161" />
<line marker-end="url(#arrowhead)" stroke="none" x1="654" x2="654" y1="114.5" y2="161" />
<line marker-end="url(#arrowhead)" stroke="none" x1="630" x2="630" y1="114.5" y2="161" />
<line marker-end="url(#arrowhead)" stroke="none" x1="606" x2="606" y1="114.5" y2="161" />
<line marker-end="url(#arrowhead)" stroke="none" x1="582" x2="582" y1="114.5" y2="161" />
<line marker-end="url(#arrowhead)" stroke="none" x1="558" x2="558" y1="114.5" y2="161" />
<line marker-end="url(#arrowhead)" stroke="none" x1="534" x2="534" y1="114.5" y2="161" />
<line marker-end="url(#arrowhead)" stroke="none" x1="510" x2="510" y1="114.5" y2="161" />
<line marker-end="url(#arrowhead)" stroke="none" x1="486" x2="486" y1="114.5" y2="161" />
<line marker-end="url(#arrowhead)" stroke="none" x1="462" x2="462" y1="114.5" y2="161" />
<line marker-end="url(#arrowhead)" stroke="none" x1="438" x2="438" y1="114.5" y2="161" />
<line marker-end="url(#arrowhead)" stroke="none" x1="414" x2="414" y1="114.5" y2="161" />
<line marker-end="url(#arrowhead)" stroke="none" x1="390" x2="390" y1="114.5" y2="161" />
<line marker-end="url(#arrowhead)" stroke="none" x1="366" x2="366" y1="114.5" y2="161" />
<line marker-end="url(#arrowhead)" stroke="none" x1="342" x2="342" y1="114.5" y2="161" />
<line marker-end="url(#arrowhead)" stroke="none" x1="318" x2="318" y1="114.5" y2="161" />
<line marker-end="url(#arrowhead)" stroke="none" x1="294" x2="294" y1="114.5" y2="161" />
<line marker-end="url(#arrowhead)" stroke="none" x1="270" x2="270" y1="114.5" y2="161" />
<line marker-end="url(#arrowhead)" stroke="none" x1="246" x2="246" y1="114.5" y2="161" />
<line marker-end="url(#arrowhead)" stroke="none" x1="222" x2="222" y1="114.5" y2="161" />
<line marker-end="url(#arrowhead)" stroke="none" x1="198" x2="198" y1="114.5" y2="161" />
<line marker-end="url(#arrowhead)" stroke="none" x1="174" x2="174" y1="114.5" y2="161" />
<line marker-end="url(#arrowhead)" stroke="none" x1="150" x2="150" y1="114.5" y2="161" />
<line marker-end="url(#arrowhead)" stroke="none" x1="126" x2="126" y1="114.5" y2="161" />
<line marker-end="url(#arrowhead)" stroke="none" x1="102" x2="102" y1="114.5" y2="161" />
</svg>