<svg xmlns="http://www.w3.org/2000/svg" viewBox="0 0 870 171">
<style>
.label { font: 14px Helvetica; dominant-baseline: middle; text-anchor: middle; }
.title-left { font: 12px Helvetica; dominant-baseline: middle; }
.title-right { font: 12px Helvetica; dominant-baseline: middle; text-anchor: end; }
.title-intrinsic { font: 12px Helvetica; dominant-baseline: middle; text-anchor: middle; fill: #6778ED; }
.title { font: 12px Helvetica; dominant-baseline: middle; text-anchor: middle; }
.title-unused { font: 12px Helvetica; dominant-baseline: middle; text-anchor: middle; fill: #AAA; }
.register-name { font: 14px Helvetica; dominant-baseline: middle; text-anchor: end; font-style: italic; }
.memory-name { font: 14px Helvetica; dominant-baseline: middle; text-anchor: end; }
.register-number { font: 14px Helvetica; dominant-baseline: middle; text-anchor: start; }
.intrinsic-name { font: 14px Helvetica; dominant-baseline: middle; text-anchor: end; fill: #6778ED; }
.intrinsic-color { fill: #6778ED; }
.small-label { font: 12px Helvetica; dominant-baseline: middle; text-anchor: middle; }
.label-10px { font: 10px Helvetica; dominant-baseline: middle; text-anchor: middle; }
.smaller-label { font: 9px Helvetica; dominant-baseline: middle; text-anchor: middle; }
.label-6px { font: 6px Helvetica; dominant-baseline: middle; text-anchor: middle; }
.label-7px { font: 7px Helvetica; dominant-baseline: middle; text-anchor: middle; }
.unused { fill: #AAA; }
.dim { fill: #888; }
</style>
<defs>
<marker id="arrowhead" markerWidth="10.75" markerHeight="24.5" refX="9.0" refY="6.125" orient="auto">
<polyline points="0.5 0.5, 8.75 6.125, 0.5 11.75" stroke="#567DB6" stroke-width="1" fill="none"/>
</marker>
</defs>
<text class="title-left" x="90" y="9">upper</text>
<text class="title-right" x="858" y="9">lower</text>
<rect fill="none" height="24" stroke="#405C86" stroke-dasharray="3 1" stroke-dashoffset="1.5" stroke-width="1" width="12" x="846" y="18" />
<text class="label unused" x="852" y="31"></text>
<rect fill="#DEE6F1" height="24" width="12" x="834" y="18" />
<rect fill="none" height="24" stroke="#405C86" stroke-width="2" width="12" x="834" y="18" />
<rect fill="none" height="24" stroke="#405C86" stroke-dasharray="3 1" stroke-dashoffset="1.5" stroke-width="1" width="12" x="822" y="18" />
<text class="label unused" x="828" y="31"></text>
<rect fill="#DEE6F1" height="24" width="12" x="810" y="18" />
<rect fill="none" height="24" stroke="#405C86" stroke-width="2" width="12" x="810" y="18" />
<rect fill="none" height="24" stroke="#405C86" stroke-dasharray="3 1" stroke-dashoffset="1.5" stroke-width="1" width="12" x="798" y="18" />
<text class="label unused" x="804" y="31"></text>
<rect fill="#DEE6F1" height="24" width="12" x="786" y="18" />
<rect fill="none" height="24" stroke="#405C86" stroke-width="2" width="12" x="786" y="18" />
<rect fill="none" height="24" stroke="#405C86" stroke-dasharray="3 1" stroke-dashoffset="1.5" stroke-width="1" width="12" x="774" y="18" />
<text class="label unused" x="780" y="31"></text>
<rect fill="#DEE6F1" height="24" width="12" x="762" y="18" />
<rect fill="none" height="24" stroke="#405C86" stroke-width="2" width="12" x="762" y="18" />
<rect fill="none" height="24" stroke="#405C86" stroke-dasharray="3 1" stroke-dashoffset="1.5" stroke-width="1" width="12" x="750" y="18" />
<text class="label unused" x="756" y="31"></text>
<rect fill="#DEE6F1" height="24" width="12" x="738" y="18" />
<rect fill="none" height="24" stroke="#405C86" stroke-width="2" width="12" x="738" y="18" />
<rect fill="none" height="24" stroke="#405C86" stroke-dasharray="3 1" stroke-dashoffset="1.5" stroke-width="1" width="12" x="726" y="18" />
<text class="label unused" x="732" y="31"></text>
<rect fill="#DEE6F1" height="24" width="12" x="714" y="18" />
<rect fill="none" height="24" stroke="#405C86" stroke-width="2" width="12" x="714" y="18" />
<rect fill="none" height="24" stroke="#405C86" stroke-dasharray="3 1" stroke-dashoffset="1.5" stroke-width="1" width="12" x="702" y="18" />
<text class="label unused" x="708" y="31"></text>
<rect fill="#DEE6F1" height="24" width="12" x="690" y="18" />
<rect fill="none" height="24" stroke="#405C86" stroke-width="2" width="12" x="690" y="18" />
<rect fill="none" height="24" stroke="#405C86" stroke-dasharray="3 1" stroke-dashoffset="1.5" stroke-width="1" width="12" x="678" y="18" />
<text class="label unused" x="684" y="31"></text>
<rect fill="#DEE6F1" height="24" width="12" x="666" y="18" />
<rect fill="none" height="24" stroke="#405C86" stroke-width="2" width="12" x="666" y="18" />
<rect fill="none" height="24" stroke="#405C86" stroke-dasharray="3 1" stroke-dashoffset="1.5" stroke-width="1" width="12" x="654" y="18" />
<text class="label unused" x="660" y="31"></text>
<rect fill="#DEE6F1" height="24" width="12" x="642" y="18" />
<rect fill="none" height="24" stroke="#405C86" stroke-width="2" width="12" x="642" y="18" />
<rect fill="none" height="24" stroke="#405C86" stroke-dasharray="3 1" stroke-dashoffset="1.5" stroke-width="1" width="12" x="630" y="18" />
<text class="label unused" x="636" y="31"></text>
<rect fill="#DEE6F1" height="24" width="12" x="618" y="18" />
<rect fill="none" height="24" stroke="#405C86" stroke-width="2" width="12" x="618" y="18" />
<rect fill="none" height="24" stroke="#405C86" stroke-dasharray="3 1" stroke-dashoffset="1.5" stroke-width="1" width="12" x="606" y="18" />
<text class="label unused" x="612" y="31"></text>
<rect fill="#DEE6F1" height="24" width="12" x="594" y="18" />
<rect fill="none" height="24" stroke="#405C86" stroke-width="2" width="12" x="594" y="18" />
<rect fill="none" height="24" stroke="#405C86" stroke-dasharray="3 1" stroke-dashoffset="1.5" stroke-width="1" width="12" x="582" y="18" />
<text class="label unused" x="588" y="31"></text>
<rect fill="#DEE6F1" height="24" width="12" x="570" y="18" />
<rect fill="none" height="24" stroke="#405C86" stroke-width="2" width="12" x="570" y="18" />
<rect fill="none" height="24" stroke="#405C86" stroke-dasharray="3 1" stroke-dashoffset="1.5" stroke-width="1" width="12" x="558" y="18" />
<text class="label unused" x="564" y="31"></text>
<rect fill="#DEE6F1" height="24" width="12" x="546" y="18" />
<rect fill="none" height="24" stroke="#405C86" stroke-width="2" width="12" x="546" y="18" />
<rect fill="none" height="24" stroke="#405C86" stroke-dasharray="3 1" stroke-dashoffset="1.5" stroke-width="1" width="12" x="534" y="18" />
<text class="label unused" x="540" y="31"></text>
<rect fill="#DEE6F1" height="24" width="12" x="522" y="18" />
<rect fill="none" height="24" stroke="#405C86" stroke-width="2" width="12" x="522" y="18" />
<rect fill="none" height="24" stroke="#405C86" stroke-dasharray="3 1" stroke-dashoffset="1.5" stroke-width="1" width="12" x="510" y="18" />
<text class="label unused" x="516" y="31"></text>
<rect fill="#DEE6F1" height="24" width="12" x="498" y="18" />
<rect fill="none" height="24" stroke="#405C86" stroke-width="2" width="12" x="498" y="18" />
<rect fill="none" height="24" stroke="#405C86" stroke-dasharray="3 1" stroke-dashoffset="1.5" stroke-width="1" width="12" x="486" y="18" />
<text class="label unused" x="492" y="31"></text>
<rect fill="#DEE6F1" height="24" width="12" x="474" y="18" />
<rect fill="none" height="24" stroke="#405C86" stroke-width="2" width="12" x="474" y="18" />
<rect fill="none" height="24" stroke="#405C86" stroke-dasharray="3 1" stroke-dashoffset="1.5" stroke-width="1" width="12" x="462" y="18" />
<text class="label unused" x="468" y="31"></text>
<rect fill="#DEE6F1" height="24" width="12" x="450" y="18" />
<rect fill="none" height="24" stroke="#405C86" stroke-width="2" width="12" x="450" y="18" />
<rect fill="none" height="24" stroke="#405C86" stroke-dasharray="3 1" stroke-dashoffset="1.5" stroke-width="1" width="12" x="438" y="18" />
<text class="label unused" x="444" y="31"></text>
<rect fill="#DEE6F1" height="24" width="12" x="426" y="18" />
<rect fill="none" height="24" stroke="#405C86" stroke-width="2" width="12" x="426" y="18" />
<rect fill="none" height="24" stroke="#405C86" stroke-dasharray="3 1" stroke-dashoffset="1.5" stroke-width="1" width="12" x="414" y="18" />
<text class="label unused" x="420" y="31"></text>
<rect fill="#DEE6F1" height="24" width="12" x="402" y="18" />
<rect fill="none" height="24" stroke="#405C86" stroke-width="2" width="12" x="402" y="18" />
<rect fill="none" height="24" stroke="#405C86" stroke-dasharray="3 1" stroke-dashoffset="1.5" stroke-width="1" width="12" x="390" y="18" />
<text class="label unused" x="396" y="31"></text>
<rect fill="#DEE6F1" height="24" width="12" x="378" y="18" />
<rect fill="none" height="24" stroke="#405C86" stroke-width="2" width="12" x="378" y="18" />
<rect fill="none" height="24" stroke="#405C86" stroke-dasharray="3 1" stroke-dashoffset="1.5" stroke-width="1" width="12" x="366" y="18" />
<text class="label unused" x="372" y="31"></text>
<rect fill="#DEE6F1" height="24" width="12" x="354" y="18" />
<rect fill="none" height="24" stroke="#405C86" stroke-width="2" width="12" x="354" y="18" />
<rect fill="none" height="24" stroke="#405C86" stroke-dasharray="3 1" stroke-dashoffset="1.5" stroke-width="1" width="12" x="342" y="18" />
<text class="label unused" x="348" y="31"></text>
<rect fill="#DEE6F1" height="24" width="12" x="330" y="18" />
<rect fill="none" height="24" stroke="#405C86" stroke-width="2" width="12" x="330" y="18" />
<rect fill="none" height="24" stroke="#405C86" stroke-dasharray="3 1" stroke-dashoffset="1.5" stroke-width="1" width="12" x="318" y="18" />
<text class="label unused" x="324" y="31"></text>
<rect fill="#DEE6F1" height="24" width="12" x="306" y="18" />
<rect fill="none" height="24" stroke="#405C86" stroke-width="2" width="12" x="306" y="18" />
<rect fill="none" height="24" stroke="#405C86" stroke-dasharray="3 1" stroke-dashoffset="1.5" stroke-width="1" width="12" x="294" y="18" />
<text class="label unused" x="300" y="31"></text>
<rect fill="#DEE6F1" height="24" width="12" x="282" y="18" />
<rect fill="none" height="24" stroke="#405C86" stroke-width="2" width="12" x="282" y="18" />
<rect fill="none" height="24" stroke="#405C86" stroke-dasharray="3 1" stroke-dashoffset="1.5" stroke-width="1" width="12" x="270" y="18" />
<text class="label unused" x="276" y="31"></text>
<rect fill="#DEE6F1" height="24" width="12" x="258" y="18" />
<rect fill="none" height="24" stroke="#405C86" stroke-width="2" width="12" x="258" y="18" />
<rect fill="none" height="24" stroke="#405C86" stroke-dasharray="3 1" stroke-dashoffset="1.5" stroke-width="1" width="12" x="246" y="18" />
<text class="label unused" x="252" y="31"></text>
<rect fill="#DEE6F1" height="24" width="12" x="234" y="18" />
<rect fill="none" height="24" stroke="#405C86" stroke-width="2" width="12" x="234" y="18" />
<rect fill="none" height="24" stroke="#405C86" stroke-dasharray="3 1" stroke-dashoffset="1.5" stroke-width="1" width="12" x="222" y="18" />
<text class="label unused" x="228" y="31"></text>
<rect fill="#DEE6F1" height="24" width="12" x="210" y="18" />
<rect fill="none" height="24" stroke="#405C86" stroke-width="2" width="12" x="210" y="18" />
<rect fill="none" height="24" stroke="#405C86" stroke-dasharray="3 1" stroke-dashoffset="1.5" stroke-width="1" width="12" x="198" y="18" />
<text class="label unused" x="204" y="31"></text>
<rect fill="#DEE6F1" height="24" width="12" x="186" y="18" />
<rect fill="none" height="24" stroke="#405C86" stroke-width="2" width="12" x="186" y="18" />
<rect fill="none" height="24" stroke="#405C86" stroke-dasharray="3 1" stroke-dashoffset="1.5" stroke-width="1" width="12" x="174" y="18" />
<text class="label unused" x="180" y="31"></text>
<rect fill="#DEE6F1" height="24" width="12" x="162" y="18" />
<rect fill="none" height="24" stroke="#405C86" stroke-width="2" width="12" x="162" y="18" />
<rect fill="none" height="24" stroke="#405C86" stroke-dasharray="3 1" stroke-dashoffset="1.5" stroke-width="1" width="12" x="150" y="18" />
<text class="label unused" x="156" y="31"></text>
<rect fill="#DEE6F1" height="24" width="12" x="138" y="18" />
<rect fill="none" height="24" stroke="#405C86" stroke-width="2" width="12" x="138" y="18" />
<rect fill="none" height="24" stroke="#405C86" stroke-dasharray="3 1" stroke-dashoffset="1.5" stroke-width="1" width="12" x="126" y="18" />
<text class="label unused" x="132" y="31"></text>
<rect fill="#DEE6F1" height="24" width="12" x="114" y="18" />
<rect fill="none" height="24" stroke="#405C86" stroke-width="2" width="12" x="114" y="18" />
<rect fill="none" height="24" stroke="#405C86" stroke-dasharray="3 1" stroke-dashoffset="1.5" stroke-width="1" width="12" x="102" y="18" />
<text class="label unused" x="108" y="31"></text>
<rect fill="#DEE6F1" height="24" width="12" x="90" y="18" />
<rect fill="none" height="24" stroke="#405C86" stroke-width="2" width="12" x="90" y="18" />
<text class="register-name" x="80" y="30">Pn</text>
<text class="intrinsic-name" x="80" y="42">op1</text>
<text class="register-number" x="10" y="30">(1)</text>
<rect fill="none" height="24" stroke="#405C86" stroke-dasharray="3 1" stroke-dashoffset="1.5" stroke-width="1" width="12" x="846" y="66" />
<text class="label unused" x="852" y="79"></text>
<rect fill="#EEDDDB" height="24" width="12" x="834" y="66" />
<rect fill="none" height="24" stroke="#405C86" stroke-width="2" width="12" x="834" y="66" />
<rect fill="none" height="24" stroke="#405C86" stroke-dasharray="3 1" stroke-dashoffset="1.5" stroke-width="1" width="12" x="822" y="66" />
<text class="label unused" x="828" y="79"></text>
<rect fill="#EEDDDB" height="24" width="12" x="810" y="66" />
<rect fill="none" height="24" stroke="#405C86" stroke-width="2" width="12" x="810" y="66" />
<rect fill="none" height="24" stroke="#405C86" stroke-dasharray="3 1" stroke-dashoffset="1.5" stroke-width="1" width="12" x="798" y="66" />
<text class="label unused" x="804" y="79"></text>
<rect fill="#EEDDDB" height="24" width="12" x="786" y="66" />
<rect fill="none" height="24" stroke="#405C86" stroke-width="2" width="12" x="786" y="66" />
<rect fill="none" height="24" stroke="#405C86" stroke-dasharray="3 1" stroke-dashoffset="1.5" stroke-width="1" width="12" x="774" y="66" />
<text class="label unused" x="780" y="79"></text>
<rect fill="#EEDDDB" height="24" width="12" x="762" y="66" />
<rect fill="none" height="24" stroke="#405C86" stroke-width="2" width="12" x="762" y="66" />
<rect fill="none" height="24" stroke="#405C86" stroke-dasharray="3 1" stroke-dashoffset="1.5" stroke-width="1" width="12" x="750" y="66" />
<text class="label unused" x="756" y="79"></text>
<rect fill="#EEDDDB" height="24" width="12" x="738" y="66" />
<rect fill="none" height="24" stroke="#405C86" stroke-width="2" width="12" x="738" y="66" />
<rect fill="none" height="24" stroke="#405C86" stroke-dasharray="3 1" stroke-dashoffset="1.5" stroke-width="1" width="12" x="726" y="66" />
<text class="label unused" x="732" y="79"></text>
<rect fill="#EEDDDB" height="24" width="12" x="714" y="66" />
<rect fill="none" height="24" stroke="#405C86" stroke-width="2" width="12" x="714" y="66" />
<rect fill="none" height="24" stroke="#405C86" stroke-dasharray="3 1" stroke-dashoffset="1.5" stroke-width="1" width="12" x="702" y="66" />
<text class="label unused" x="708" y="79"></text>
<rect fill="#EEDDDB" height="24" width="12" x="690" y="66" />
<rect fill="none" height="24" stroke="#405C86" stroke-width="2" width="12" x="690" y="66" />
<rect fill="none" height="24" stroke="#405C86" stroke-dasharray="3 1" stroke-dashoffset="1.5" stroke-width="1" width="12" x="678" y="66" />
<text class="label unused" x="684" y="79"></text>
<rect fill="#EEDDDB" height="24" width="12" x="666" y="66" />
<rect fill="none" height="24" stroke="#405C86" stroke-width="2" width="12" x="666" y="66" />
<rect fill="none" height="24" stroke="#405C86" stroke-dasharray="3 1" stroke-dashoffset="1.5" stroke-width="1" width="12" x="654" y="66" />
<text class="label unused" x="660" y="79"></text>
<rect fill="#EEDDDB" height="24" width="12" x="642" y="66" />
<rect fill="none" height="24" stroke="#405C86" stroke-width="2" width="12" x="642" y="66" />
<rect fill="none" height="24" stroke="#405C86" stroke-dasharray="3 1" stroke-dashoffset="1.5" stroke-width="1" width="12" x="630" y="66" />
<text class="label unused" x="636" y="79"></text>
<rect fill="#EEDDDB" height="24" width="12" x="618" y="66" />
<rect fill="none" height="24" stroke="#405C86" stroke-width="2" width="12" x="618" y="66" />
<rect fill="none" height="24" stroke="#405C86" stroke-dasharray="3 1" stroke-dashoffset="1.5" stroke-width="1" width="12" x="606" y="66" />
<text class="label unused" x="612" y="79"></text>
<rect fill="#EEDDDB" height="24" width="12" x="594" y="66" />
<rect fill="none" height="24" stroke="#405C86" stroke-width="2" width="12" x="594" y="66" />
<rect fill="none" height="24" stroke="#405C86" stroke-dasharray="3 1" stroke-dashoffset="1.5" stroke-width="1" width="12" x="582" y="66" />
<text class="label unused" x="588" y="79"></text>
<rect fill="#EEDDDB" height="24" width="12" x="570" y="66" />
<rect fill="none" height="24" stroke="#405C86" stroke-width="2" width="12" x="570" y="66" />
<rect fill="none" height="24" stroke="#405C86" stroke-dasharray="3 1" stroke-dashoffset="1.5" stroke-width="1" width="12" x="558" y="66" />
<text class="label unused" x="564" y="79"></text>
<rect fill="#EEDDDB" height="24" width="12" x="546" y="66" />
<rect fill="none" height="24" stroke="#405C86" stroke-width="2" width="12" x="546" y="66" />
<rect fill="none" height="24" stroke="#405C86" stroke-dasharray="3 1" stroke-dashoffset="1.5" stroke-width="1" width="12" x="534" y="66" />
<text class="label unused" x="540" y="79"></text>
<rect fill="#EEDDDB" height="24" width="12" x="522" y="66" />
<rect fill="none" height="24" stroke="#405C86" stroke-width="2" width="12" x="522" y="66" />
<rect fill="none" height="24" stroke="#405C86" stroke-dasharray="3 1" stroke-dashoffset="1.5" stroke-width="1" width="12" x="510" y="66" />
<text class="label unused" x="516" y="79"></text>
<rect fill="#EEDDDB" height="24" width="12" x="498" y="66" />
<rect fill="none" height="24" stroke="#405C86" stroke-width="2" width="12" x="498" y="66" />
<rect fill="none" height="24" stroke="#405C86" stroke-dasharray="3 1" stroke-dashoffset="1.5" stroke-width="1" width="12" x="486" y="66" />
<text class="label unused" x="492" y="79"></text>
<rect fill="#EEDDDB" height="24" width="12" x="474" y="66" />
<rect fill="none" height="24" stroke="#405C86" stroke-width="2" width="12" x="474" y="66" />
<rect fill="none" height="24" stroke="#405C86" stroke-dasharray="3 1" stroke-dashoffset="1.5" stroke-width="1" width="12" x="462" y="66" />
<text class="label unused" x="468" y="79"></text>
<rect fill="#EEDDDB" height="24" width="12" x="450" y="66" />
<rect fill="none" height="24" stroke="#405C86" stroke-width="2" width="12" x="450" y="66" />
<rect fill="none" height="24" stroke="#405C86" stroke-dasharray="3 1" stroke-dashoffset="1.5" stroke-width="1" width="12" x="438" y="66" />
<text class="label unused" x="444" y="79"></text>
<rect fill="#EEDDDB" height="24" width="12" x="426" y="66" />
<rect fill="none" height="24" stroke="#405C86" stroke-width="2" width="12" x="426" y="66" />
<rect fill="none" height="24" stroke="#405C86" stroke-dasharray="3 1" stroke-dashoffset="1.5" stroke-width="1" width="12" x="414" y="66" />
<text class="label unused" x="420" y="79"></text>
<rect fill="#EEDDDB" height="24" width="12" x="402" y="66" />
<rect fill="none" height="24" stroke="#405C86" stroke-width="2" width="12" x="402" y="66" />
<rect fill="none" height="24" stroke="#405C86" stroke-dasharray="3 1" stroke-dashoffset="1.5" stroke-width="1" width="12" x="390" y="66" />
<text class="label unused" x="396" y="79"></text>
<rect fill="#EEDDDB" height="24" width="12" x="378" y="66" />
<rect fill="none" height="24" stroke="#405C86" stroke-width="2" width="12" x="378" y="66" />
<rect fill="none" height="24" stroke="#405C86" stroke-dasharray="3 1" stroke-dashoffset="1.5" stroke-width="1" width="12" x="366" y="66" />
<text class="label unused" x="372" y="79"></text>
<rect fill="#EEDDDB" height="24" width="12" x="354" y="66" />
<rect fill="none" height="24" stroke="#405C86" stroke-width="2" width="12" x="354" y="66" />
<rect fill="none" height="24" stroke="#405C86" stroke-dasharray="3 1" stroke-dashoffset="1.5" stroke-width="1" width="12" x="342" y="66" />
<text class="label unused" x="348" y="79"></text>
<rect fill="#EEDDDB" height="24" width="12" x="330" y="66" />
<rect fill="none" height="24" stroke="#405C86" stroke-width="2" width="12" x="330" y="66" />
<rect fill="none" height="24" stroke="#405C86" stroke-dasharray="3 1" stroke-dashoffset="1.5" stroke-width="1" width="12" x="318" y="66" />
<text class="label unused" x="324" y="79"></text>
<rect fill="#EEDDDB" height="24" width="12" x="306" y="66" />
<rect fill="none" height="24" stroke="#405C86" stroke-width="2" width="12" x="306" y="66" />
<rect fill="none" height="24" stroke="#405C86" stroke-dasharray="3 1" stroke-dashoffset="1.5" stroke-width="1" width="12" x="294" y="66" />
<text class="label unused" x="300" y="79"></text>
<rect fill="#EEDDDB" height="24" width="12" x="282" y="66" />
<rect fill="none" height="24" stroke="#405C86" stroke-width="2" width="12" x="282" y="66" />
<rect fill="none" height="24" stroke="#405C86" stroke-dasharray="3 1" stroke-dashoffset="1.5" stroke-width="1" width="12" x="270" y="66" />
<text class="label unused" x="276" y="79"></text>
<rect fill="#EEDDDB" height="24" width="12" x="258" y="66" />
<rect fill="none" height="24" stroke="#405C86" stroke-width="2" width="12" x="258" y="66" />
<rect fill="none" height="24" stroke="#405C86" stroke-dasharray="3 1" stroke-dashoffset="1.5" stroke-width="1" width="12" x="246" y="66" />
<text class="label unused" x="252" y="79"></text>
<rect fill="#EEDDDB" height="24" width="12" x="234" y="66" />
<rect fill="none" height="24" stroke="#405C86" stroke-width="2" width="12" x="234" y="66" />
<rect fill="none" height="24" stroke="#405C86" stroke-dasharray="3 1" stroke-dashoffset="1.5" stroke-width="1" width="12" x="222" y="66" />
<text class="label unused" x="228" y="79"></text>
<rect fill="#EEDDDB" height="24" width="12" x="210" y="66" />
<rect fill="none" height="24" stroke="#405C86" stroke-width="2" width="12" x="210" y="66" />
<rect fill="none" height="24" stroke="#405C86" stroke-dasharray="3 1" stroke-dashoffset="1.5" stroke-width="1" width="12" x="198" y="66" />
<text class="label unused" x="204" y="79"></text>
<rect fill="#EEDDDB" height="24" width="12" x="186" y="66" />
<rect fill="none" height="24" stroke="#405C86" stroke-width="2" width="12" x="186" y="66" />
<rect fill="none" height="24" stroke="#405C86" stroke-dasharray="3 1" stroke-dashoffset="1.5" stroke-width="1" width="12" x="174" y="66" />
<text class="label unused" x="180" y="79"></text>
<rect fill="#EEDDDB" height="24" width="12" x="162" y="66" />
<rect fill="none" height="24" stroke="#405C86" stroke-width="2" width="12" x="162" y="66" />
<rect fill="none" height="24" stroke="#405C86" stroke-dasharray="3 1" stroke-dashoffset="1.5" stroke-width="1" width="12" x="150" y="66" />
<text class="label unused" x="156" y="79"></text>
<rect fill="#EEDDDB" height="24" width="12" x="138" y="66" />
<rect fill="none" height="24" stroke="#405C86" stroke-width="2" width="12" x="138" y="66" />
<rect fill="none" height="24" stroke="#405C86" stroke-dasharray="3 1" stroke-dashoffset="1.5" stroke-width="1" width="12" x="126" y="66" />
<text class="label unused" x="132" y="79"></text>
<rect fill="#EEDDDB" height="24" width="12" x="114" y="66" />
<rect fill="none" height="24" stroke="#405C86" stroke-width="2" width="12" x="114" y="66" />
<rect fill="none" height="24" stroke="#405C86" stroke-dasharray="3 1" stroke-dashoffset="1.5" stroke-width="1" width="12" x="102" y="66" />
<text class="label unused" x="108" y="79"></text>
<rect fill="#EEDDDB" height="24" width="12" x="90" y="66" />
<rect fill="none" height="24" stroke="#405C86" stroke-width="2" width="12" x="90" y="66" />
<text class="register-name" x="80" y="78">Pm</text>
<text class="intrinsic-name" x="80" y="90">op2</text>
<text class="register-number" x="10" y="78">(2)</text>
<rect fill="#DEE6F1" height="24" width="12" x="846" y="138" />
<rect fill="none" height="24" stroke="#405C86" stroke-width="2" width="12" x="846" y="138" />
<rect fill="#EEDDDB" height="24" width="12" x="834" y="138" />
<rect fill="none" height="24" stroke="#405C86" stroke-width="2" width="12" x="834" y="138" />
<rect fill="#DEE6F1" height="24" width="12" x="822" y="138" />
<rect fill="none" height="24" stroke="#405C86" stroke-width="2" width="12" x="822" y="138" />
<rect fill="#EEDDDB" height="24" width="12" x="810" y="138" />
<rect fill="none" height="24" stroke="#405C86" stroke-width="2" width="12" x="810" y="138" />
<rect fill="#DEE6F1" height="24" width="12" x="798" y="138" />
<rect fill="none" height="24" stroke="#405C86" stroke-width="2" width="12" x="798" y="138" />
<rect fill="#EEDDDB" height="24" width="12" x="786" y="138" />
<rect fill="none" height="24" stroke="#405C86" stroke-width="2" width="12" x="786" y="138" />
<rect fill="#DEE6F1" height="24" width="12" x="774" y="138" />
<rect fill="none" height="24" stroke="#405C86" stroke-width="2" width="12" x="774" y="138" />
<rect fill="#EEDDDB" height="24" width="12" x="762" y="138" />
<rect fill="none" height="24" stroke="#405C86" stroke-width="2" width="12" x="762" y="138" />
<rect fill="#DEE6F1" height="24" width="12" x="750" y="138" />
<rect fill="none" height="24" stroke="#405C86" stroke-width="2" width="12" x="750" y="138" />
<rect fill="#EEDDDB" height="24" width="12" x="738" y="138" />
<rect fill="none" height="24" stroke="#405C86" stroke-width="2" width="12" x="738" y="138" />
<rect fill="#DEE6F1" height="24" width="12" x="726" y="138" />
<rect fill="none" height="24" stroke="#405C86" stroke-width="2" width="12" x="726" y="138" />
<rect fill="#EEDDDB" height="24" width="12" x="714" y="138" />
<rect fill="none" height="24" stroke="#405C86" stroke-width="2" width="12" x="714" y="138" />
<rect fill="#DEE6F1" height="24" width="12" x="702" y="138" />
<rect fill="none" height="24" stroke="#405C86" stroke-width="2" width="12" x="702" y="138" />
<rect fill="#EEDDDB" height="24" width="12" x="690" y="138" />
<rect fill="none" height="24" stroke="#405C86" stroke-width="2" width="12" x="690" y="138" />
<rect fill="#DEE6F1" height="24" width="12" x="678" y="138" />
<rect fill="none" height="24" stroke="#405C86" stroke-width="2" width="12" x="678" y="138" />
<rect fill="#EEDDDB" height="24" width="12" x="666" y="138" />
<rect fill="none" height="24" stroke="#405C86" stroke-width="2" width="12" x="666" y="138" />
<rect fill="#DEE6F1" height="24" width="12" x="654" y="138" />
<rect fill="none" height="24" stroke="#405C86" stroke-width="2" width="12" x="654" y="138" />
<rect fill="#EEDDDB" height="24" width="12" x="642" y="138" />
<rect fill="none" height="24" stroke="#405C86" stroke-width="2" width="12" x="642" y="138" />
<rect fill="#DEE6F1" height="24" width="12" x="630" y="138" />
<rect fill="none" height="24" stroke="#405C86" stroke-width="2" width="12" x="630" y="138" />
<rect fill="#EEDDDB" height="24" width="12" x="618" y="138" />
<rect fill="none" height="24" stroke="#405C86" stroke-width="2" width="12" x="618" y="138" />
<rect fill="#DEE6F1" height="24" width="12" x="606" y="138" />
<rect fill="none" height="24" stroke="#405C86" stroke-width="2" width="12" x="606" y="138" />
<rect fill="#EEDDDB" height="24" width="12" x="594" y="138" />
<rect fill="none" height="24" stroke="#405C86" stroke-width="2" width="12" x="594" y="138" />
<rect fill="#DEE6F1" height="24" width="12" x="582" y="138" />
<rect fill="none" height="24" stroke="#405C86" stroke-width="2" width="12" x="582" y="138" />
<rect fill="#EEDDDB" height="24" width="12" x="570" y="138" />
<rect fill="none" height="24" stroke="#405C86" stroke-width="2" width="12" x="570" y="138" />
<rect fill="#DEE6F1" height="24" width="12" x="558" y="138" />
<rect fill="none" height="24" stroke="#405C86" stroke-width="2" width="12" x="558" y="138" />
<rect fill="#EEDDDB" height="24" width="12" x="546" y="138" />
<rect fill="none" height="24" stroke="#405C86" stroke-width="2" width="12" x="546" y="138" />
<rect fill="#DEE6F1" height="24" width="12" x="534" y="138" />
<rect fill="none" height="24" stroke="#405C86" stroke-width="2" width="12" x="534" y="138" />
<rect fill="#EEDDDB" height="24" width="12" x="522" y="138" />
<rect fill="none" height="24" stroke="#405C86" stroke-width="2" width="12" x="522" y="138" />
<rect fill="#DEE6F1" height="24" width="12" x="510" y="138" />
<rect fill="none" height="24" stroke="#405C86" stroke-width="2" width="12" x="510" y="138" />
<rect fill="#EEDDDB" height="24" width="12" x="498" y="138" />
<rect fill="none" height="24" stroke="#405C86" stroke-width="2" width="12" x="498" y="138" />
<rect fill="#DEE6F1" height="24" width="12" x="486" y="138" />
<rect fill="none" height="24" stroke="#405C86" stroke-width="2" width="12" x="486" y="138" />
<rect fill="#EEDDDB" height="24" width="12" x="474" y="138" />
<rect fill="none" height="24" stroke="#405C86" stroke-width="2" width="12" x="474" y="138" />
<rect fill="#DEE6F1" height="24" width="12" x="462" y="138" />
<rect fill="none" height="24" stroke="#405C86" stroke-width="2" width="12" x="462" y="138" />
<rect fill="#EEDDDB" height="24" width="12" x="450" y="138" />
<rect fill="none" height="24" stroke="#405C86" stroke-width="2" width="12" x="450" y="138" />
<rect fill="#DEE6F1" height="24" width="12" x="438" y="138" />
<rect fill="none" height="24" stroke="#405C86" stroke-width="2" width="12" x="438" y="138" />
<rect fill="#EEDDDB" height="24" width="12" x="426" y="138" />
<rect fill="none" height="24" stroke="#405C86" stroke-width="2" width="12" x="426" y="138" />
<rect fill="#DEE6F1" height="24" width="12" x="414" y="138" />
<rect fill="none" height="24" stroke="#405C86" stroke-width="2" width="12" x="414" y="138" />
<rect fill="#EEDDDB" height="24" width="12" x="402" y="138" />
<rect fill="none" height="24" stroke="#405C86" stroke-width="2" width="12" x="402" y="138" />
<rect fill="#DEE6F1" height="24" width="12" x="390" y="138" />
<rect fill="none" height="24" stroke="#405C86" stroke-width="2" width="12" x="390" y="138" />
<rect fill="#EEDDDB" height="24" width="12" x="378" y="138" />
<rect fill="none" height="24" stroke="#405C86" stroke-width="2" width="12" x="378" y="138" />
<rect fill="#DEE6F1" height="24" width="12" x="366" y="138" />
<rect fill="none" height="24" stroke="#405C86" stroke-width="2" width="12" x="366" y="138" />
<rect fill="#EEDDDB" height="24" width="12" x="354" y="138" />
<rect fill="none" height="24" stroke="#405C86" stroke-width="2" width="12" x="354" y="138" />
<rect fill="#DEE6F1" height="24" width="12" x="342" y="138" />
<rect fill="none" height="24" stroke="#405C86" stroke-width="2" width="12" x="342" y="138" />
<rect fill="#EEDDDB" height="24" width="12" x="330" y="138" />
<rect fill="none" height="24" stroke="#405C86" stroke-width="2" width="12" x="330" y="138" />
<rect fill="#DEE6F1" height="24" width="12" x="318" y="138" />
<rect fill="none" height="24" stroke="#405C86" stroke-width="2" width="12" x="318" y="138" />
<rect fill="#EEDDDB" height="24" width="12" x="306" y="138" />
<rect fill="none" height="24" stroke="#405C86" stroke-width="2" width="12" x="306" y="138" />
<rect fill="#DEE6F1" height="24" width="12" x="294" y="138" />
<rect fill="none" height="24" stroke="#405C86" stroke-width="2" width="12" x="294" y="138" />
<rect fill="#EEDDDB" height="24" width="12" x="282" y="138" />
<rect fill="none" height="24" stroke="#405C86" stroke-width="2" width="12" x="282" y="138" />
<rect fill="#DEE6F1" height="24" width="12" x="270" y="138" />
<rect fill="none" height="24" stroke="#405C86" stroke-width="2" width="12" x="270" y="138" />
<rect fill="#EEDDDB" height="24" width="12" x="258" y="138" />
<rect fill="none" height="24" stroke="#405C86" stroke-width="2" width="12" x="258" y="138" />
<rect fill="#DEE6F1" height="24" width="12" x="246" y="138" />
<rect fill="none" height="24" stroke="#405C86" stroke-width="2" width="12" x="246" y="138" />
<rect fill="#EEDDDB" height="24" width="12" x="234" y="138" />
<rect fill="none" height="24" stroke="#405C86" stroke-width="2" width="12" x="234" y="138" />
<rect fill="#DEE6F1" height="24" width="12" x="222" y="138" />
<rect fill="none" height="24" stroke="#405C86" stroke-width="2" width="12" x="222" y="138" />
<rect fill="#EEDDDB" height="24" width="12" x="210" y="138" />
<rect fill="none" height="24" stroke="#405C86" stroke-width="2" width="12" x="210" y="138" />
<rect fill="#DEE6F1" height="24" width="12" x="198" y="138" />
<rect fill="none" height="24" stroke="#405C86" stroke-width="2" width="12" x="198" y="138" />
<rect fill="#EEDDDB" height="24" width="12" x="186" y="138" />
<rect fill="none" height="24" stroke="#405C86" stroke-width="2" width="12" x="186" y="138" />
<rect fill="#DEE6F1" height="24" width="12" x="174" y="138" />
<rect fill="none" height="24" stroke="#405C86" stroke-width="2" width="12" x="174" y="138" />
<rect fill="#EEDDDB" height="24" width="12" x="162" y="138" />
<rect fill="none" height="24" stroke="#405C86" stroke-width="2" width="12" x="162" y="138" />
<rect fill="#DEE6F1" height="24" width="12" x="150" y="138" />
<rect fill="none" height="24" stroke="#405C86" stroke-width="2" width="12" x="150" y="138" />
<rect fill="#EEDDDB" height="24" width="12" x="138" y="138" />
<rect fill="none" height="24" stroke="#405C86" stroke-width="2" width="12" x="138" y="138" />
<rect fill="#DEE6F1" height="24" width="12" x="126" y="138" />
<rect fill="none" height="24" stroke="#405C86" stroke-width="2" width="12" x="126" y="138" />
<rect fill="#EEDDDB" height="24" width="12" x="114" y="138" />
<rect fill="none" height="24" stroke="#405C86" stroke-width="2" width="12" x="114" y="138" />
<rect fill="#DEE6F1" height="24" width="12" x="102" y="138" />
<rect fill="none" height="24" stroke="#405C86" stroke-width="2" width="12" x="102" y="138" />
<rect fill="#EEDDDB" height="24" width="12" x="90" y="138" />
<rect fill="none" height="24" stroke="#405C86" stroke-width="2" width="12" x="90" y="138" />
<text class="register-name" x="80" y="150">Pd</text>
<text class="intrinsic-name" x="80" y="162">returns</text>
<text class="register-number" x="10" y="150">(3)</text>
<line stroke="#567DB6" stroke-width="1" x1="844" x2="853" y1="42.5" y2="137" />
<line stroke="#567DB6" stroke-width="1" x1="840" x2="840" y1="90.5" y2="137" />
<line stroke="#567DB6" stroke-width="1" x1="820" x2="829" y1="42.5" y2="137" />
<line stroke="#567DB6" stroke-width="1" x1="816" x2="816" y1="90.5" y2="137" />
<line stroke="#567DB6" stroke-width="1" x1="796" x2="805" y1="42.5" y2="137" />
<line stroke="#567DB6" stroke-width="1" x1="792" x2="792" y1="90.5" y2="137" />
<line stroke="#567DB6" stroke-width="1" x1="772" x2="781" y1="42.5" y2="137" />
<line stroke="#567DB6" stroke-width="1" x1="768" x2="768" y1="90.5" y2="137" />
<line stroke="#567DB6" stroke-width="1" x1="748" x2="757" y1="42.5" y2="137" />
<line stroke="#567DB6" stroke-width="1" x1="744" x2="744" y1="90.5" y2="137" />
<line stroke="#567DB6" stroke-width="1" x1="724" x2="733" y1="42.5" y2="137" />
<line stroke="#567DB6" stroke-width="1" x1="720" x2="720" y1="90.5" y2="137" />
<line stroke="#567DB6" stroke-width="1" x1="700" x2="709" y1="42.5" y2="137" />
<line stroke="#567DB6" stroke-width="1" x1="696" x2="696" y1="90.5" y2="137" />
<line stroke="#567DB6" stroke-width="1" x1="676" x2="685" y1="42.5" y2="137" />
<line stroke="#567DB6" stroke-width="1" x1="672" x2="672" y1="90.5" y2="137" />
<line stroke="#567DB6" stroke-width="1" x1="652" x2="661" y1="42.5" y2="137" />
<line stroke="#567DB6" stroke-width="1" x1="648" x2="648" y1="90.5" y2="137" />
<line stroke="#567DB6" stroke-width="1" x1="628" x2="637" y1="42.5" y2="137" />
<line stroke="#567DB6" stroke-width="1" x1="624" x2="624" y1="90.5" y2="137" />
<line stroke="#567DB6" stroke-width="1" x1="604" x2="613" y1="42.5" y2="137" />
<line stroke="#567DB6" stroke-width="1" x1="600" x2="600" y1="90.5" y2="137" />
<line stroke="#567DB6" stroke-width="1" x1="580" x2="589" y1="42.5" y2="137" />
<line stroke="#567DB6" stroke-width="1" x1="576" x2="576" y1="90.5" y2="137" />
<line stroke="#567DB6" stroke-width="1" x1="556" x2="565" y1="42.5" y2="137" />
<line stroke="#567DB6" stroke-width="1" x1="552" x2="552" y1="90.5" y2="137" />
<line stroke="#567DB6" stroke-width="1" x1="532" x2="541" y1="42.5" y2="137" />
<line stroke="#567DB6" stroke-width="1" x1="528" x2="528" y1="90.5" y2="137" />
<line stroke="#567DB6" stroke-width="1" x1="508" x2="517" y1="42.5" y2="137" />
<line stroke="#567DB6" stroke-width="1" x1="504" x2="504" y1="90.5" y2="137" />
<line stroke="#567DB6" stroke-width="1" x1="484" x2="493" y1="42.5" y2="137" />
<line stroke="#567DB6" stroke-width="1" x1="480" x2="480" y1="90.5" y2="137" />
<line stroke="#567DB6" stroke-width="1" x1="460" x2="469" y1="42.5" y2="137" />
<line stroke="#567DB6" stroke-width="1" x1="456" x2="456" y1="90.5" y2="137" />
<line stroke="#567DB6" stroke-width="1" x1="436" x2="445" y1="42.5" y2="137" />
<line stroke="#567DB6" stroke-width="1" x1="432" x2="432" y1="90.5" y2="137" />
<line stroke="#567DB6" stroke-width="1" x1="412" x2="421" y1="42.5" y2="137" />
<line stroke="#567DB6" stroke-width="1" x1="408" x2="408" y1="90.5" y2="137" />
<line stroke="#567DB6" stroke-width="1" x1="388" x2="397" y1="42.5" y2="137" />
<line stroke="#567DB6" stroke-width="1" x1="384" x2="384" y1="90.5" y2="137" />
<line stroke="#567DB6" stroke-width="1" x1="364" x2="373" y1="42.5" y2="137" />
<line stroke="#567DB6" stroke-width="1" x1="360" x2="360" y1="90.5" y2="137" />
<line stroke="#567DB6" stroke-width="1" x1="340" x2="349" y1="42.5" y2="137" />
<line stroke="#567DB6" stroke-width="1" x1="336" x2="336" y1="90.5" y2="137" />
<line stroke="#567DB6" stroke-width="1" x1="316" x2="325" y1="42.5" y2="137" />
<line stroke="#567DB6" stroke-width="1" x1="312" x2="312" y1="90.5" y2="137" />
<line stroke="#567DB6" stroke-width="1" x1="292" x2="301" y1="42.5" y2="137" />
<line stroke="#567DB6" stroke-width="1" x1="288" x2="288" y1="90.5" y2="137" />
<line stroke="#567DB6" stroke-width="1" x1="268" x2="277" y1="42.5" y2="137" />
<line stroke="#567DB6" stroke-width="1" x1="264" x2="264" y1="90.5" y2="137" />
<line stroke="#567DB6" stroke-width="1" x1="244" x2="253" y1="42.5" y2="137" />
<line stroke="#567DB6" stroke-width="1" x1="240" x2="240" y1="90.5" y2="137" />
<line stroke="#567DB6" stroke-width="1" x1="220" x2="229" y1="42.5" y2="137" />
<line stroke="#567DB6" stroke-width="1" x1="216" x2="216" y1="90.5" y2="137" />
<line stroke="#567DB6" stroke-width="1" x1="196" x2="205" y1="42.5" y2="137" />
<line stroke="#567DB6" stroke-width="1" x1="192" x2="192" y1="90.5" y2="137" />
<line stroke="#567DB6" stroke-width="1" x1="172" x2="181" y1="42.5" y2="137" />
<line stroke="#567DB6" stroke-width="1" x1="168" x2="168" y1="90.5" y2="137" />
<line stroke="#567DB6" stroke-width="1" x1="148" x2="157" y1="42.5" y2="137" />
<line stroke="#567DB6" stroke-width="1" x1="144" x2="144" y1="90.5" y2="137" />
<line stroke="#567DB6" stroke-width="1" x1="124" x2="133" y1="42.5" y2="137" />
<line stroke="#567DB6" stroke-width="1" x1="120" x2="120" y1="90.5" y2="137" />
<line stroke="#567DB6" stroke-width="1" x1="100" x2="109" y1="42.5" y2="137" />
<line stroke="#567DB6" stroke-width="1" x1="96" x2="96" y1="90.5" y2="137" />
<line marker-end="url(#arrowhead)" stroke="none" x1="844" x2="853" y1="42.5" y2="137" />
<line marker-end="url(#arrowhead)" stroke="none" x1="840" x2="840" y1="90.5" y2="137" />
<line marker-end="url(#arrowhead)" stroke="none" x1="820" x2="829" y1="42.5" y2="137" />
<line marker-end="url(#arrowhead)" stroke="none" x1="816" x2="816" y1="90.5" y2="137" />
<line marker-end="url(#arrowhead)" stroke="none" x1="796" x2="805" y1="42.5" y2="137" />
<line marker-end="url(#arrowhead)" stroke="none" x1="792" x2="792" y1="90.5" y2="137" />
<line marker-end="url(#arrowhead)" stroke="none" x1="772" x2="781" y1="42.5" y2="137" />
<line marker-end="url(#arrowhead)" stroke="none" x1="768" x2="768" y1="90.5" y2="137" />
<line marker-end="url(#arrowhead)" stroke="none" x1="748" x2="757" y1="42.5" y2="137" />
<line marker-end="url(#arrowhead)" stroke="none" x1="744" x2="744" y1="90.5" y2="137" />
<line marker-end="url(#arrowhead)" stroke="none" x1="724" x2="733" y1="42.5" y2="137" />
<line marker-end="url(#arrowhead)" stroke="none" x1="720" x2="720" y1="90.5" y2="137" />
<line marker-end="url(#arrowhead)" stroke="none" x1="700" x2="709" y1="42.5" y2="137" />
<line marker-end="url(#arrowhead)" stroke="none" x1="696" x2="696" y1="90.5" y2="137" />
<line marker-end="url(#arrowhead)" stroke="none" x1="676" x2="685" y1="42.5" y2="137" />
<line marker-end="url(#arrowhead)" stroke="none" x1="672" x2="672" y1="90.5" y2="137" />
<line marker-end="url(#arrowhead)" stroke="none" x1="652" x2="661" y1="42.5" y2="137" />
<line marker-end="url(#arrowhead)" stroke="none" x1="648" x2="648" y1="90.5" y2="137" />
<line marker-end="url(#arrowhead)" stroke="none" x1="628" x2="637" y1="42.5" y2="137" />
<line marker-end="url(#arrowhead)" stroke="none" x1="624" x2="624" y1="90.5" y2="137" />
<line marker-end="url(#arrowhead)" stroke="none" x1="604" x2="613" y1="42.5" y2="137" />
<line marker-end="url(#arrowhead)" stroke="none" x1="600" x2="600" y1="90.5" y2="137" />
<line marker-end="url(#arrowhead)" stroke="none" x1="580" x2="589" y1="42.5" y2="137" />
<line marker-end="url(#arrowhead)" stroke="none" x1="576" x2="576" y1="90.5" y2="137" />
<line marker-end="url(#arrowhead)" stroke="none" x1="556" x2="565" y1="42.5" y2="137" />
<line marker-end="url(#arrowhead)" stroke="none" x1="552" x2="552" y1="90.5" y2="137" />
<line marker-end="url(#arrowhead)" stroke="none" x1="532" x2="541" y1="42.5" y2="137" />
<line marker-end="url(#arrowhead)" stroke="none" x1="528" x2="528" y1="90.5" y2="137" />
<line marker-end="url(#arrowhead)" stroke="none" x1="508" x2="517" y1="42.5" y2="137" />
<line marker-end="url(#arrowhead)" stroke="none" x1="504" x2="504" y1="90.5" y2="137" />
<line marker-end="url(#arrowhead)" stroke="none" x1="484" x2="493" y1="42.5" y2="137" />
<line marker-end="url(#arrowhead)" stroke="none" x1="480" x2="480" y1="90.5" y2="137" />
<line marker-end="url(#arrowhead)" stroke="none" x1="460" x2="469" y1="42.5" y2="137" />
<line marker-end="url(#arrowhead)" stroke="none" x1="456" x2="456" y1="90.5" y2="137" />
<line marker-end="url(#arrowhead)" stroke="none" x1="436" x2="445" y1="42.5" y2="137" />
<line marker-end="url(#arrowhead)" stroke="none" x1="432" x2="432" y1="90.5" y2="137" />
<line marker-end="url(#arrowhead)" stroke="none" x1="412" x2="421" y1="42.5" y2="137" />
<line marker-end="url(#arrowhead)" stroke="none" x1="408" x2="408" y1="90.5" y2="137" />
<line marker-end="url(#arrowhead)" stroke="none" x1="388" x2="397" y1="42.5" y2="137" />
<line marker-end="url(#arrowhead)" stroke="none" x1="384" x2="384" y1="90.5" y2="137" />
<line marker-end="url(#arrowhead)" stroke="none" x1="364" x2="373" y1="42.5" y2="137" />
<line marker-end="url(#arrowhead)" stroke="none" x1="360" x2="360" y1="90.5" y2="137" />
<line marker-end="url(#arrowhead)" stroke="none" x1="340" x2="349" y1="42.5" y2="137" />
<line marker-end="url(#arrowhead)" stroke="none" x1="336" x2="336" y1="90.5" y2="137" />
<line marker-end="url(#arrowhead)" stroke="none" x1="316" x2="325" y1="42.5" y2="137" />
<line marker-end="url(#arrowhead)" stroke="none" x1="312" x2="312" y1="90.5" y2="137" />
<line marker-end="url(#arrowhead)" stroke="none" x1="292" x2="301" y1="42.5" y2="137" />
<line marker-end="url(#arrowhead)" stroke="none" x1="288" x2="288" y1="90.5" y2="137" />
<line marker-end="url(#arrowhead)" stroke="none" x1="268" x2="277" y1="42.5" y2="137" />
<line marker-end="url(#arrowhead)" stroke="none" x1="264" x2="264" y1="90.5" y2="137" />
<line marker-end="url(#arrowhead)" stroke="none" x1="244" x2="253" y1="42.5" y2="137" />
<line marker-end="url(#arrowhead)" stroke="none" x1="240" x2="240" y1="90.5" y2="137" />
<line marker-end="url(#arrowhead)" stroke="none" x1="220" x2="229" y1="42.5" y2="137" />
<line marker-end="url(#arrowhead)" stroke="none" x1="216" x2="216" y1="90.5" y2="137" />
<line marker-end="url(#arrowhead)" stroke="none" x1="196" x2="205" y1="42.5" y2="137" />
<line marker-end="url(#arrowhead)" stroke="none" x1="192" x2="192" y1="90.5" y2="137" />
<line marker-end="url(#arrowhead)" stroke="none" x1="172" x2="181" y1="42.5" y2="137" />
<line marker-end="url(#arrowhead)" stroke="none" x1="168" x2="168" y1="90.5" y2="137" />
<line marker-end="url(#arrowhead)" stroke="none" x1="148" x2="157" y1="42.5" y2="137" />
<line marker-end="url(#arrowhead)" stroke="none" x1="144" x2="144" y1="90.5" y2="137" />
<line marker-end="url(#arrowhead)" stroke="none" x1="124" x2="133" y1="42.5" y2="137" />
<line marker-end="url(#arrowhead)" stroke="none" x1="120" x2="120" y1="90.5" y2="137" />
<line marker-end="url(#arrowhead)" stroke="none" x1="100" x2="109" y1="42.5" y2="137" />
<line marker-end="url(#arrowhead)" stroke="none" x1="96" x2="96" y1="90.5" y2="137" />
</svg>