<svg xmlns="http://www.w3.org/2000/svg" viewBox="0 0 3174 133">
<style>
.label { font: 14px Helvetica; dominant-baseline: middle; text-anchor: middle; }
.title-left { font: 12px Helvetica; dominant-baseline: middle; }
.title-right { font: 12px Helvetica; dominant-baseline: middle; text-anchor: end; }
.title-intrinsic { font: 12px Helvetica; dominant-baseline: middle; text-anchor: middle; fill: #6778ED; }
.title { font: 12px Helvetica; dominant-baseline: middle; text-anchor: middle; }
.title-unused { font: 12px Helvetica; dominant-baseline: middle; text-anchor: middle; fill: #AAA; }
.register-name { font: 14px Helvetica; dominant-baseline: middle; text-anchor: end; font-style: italic; }
.memory-name { font: 14px Helvetica; dominant-baseline: middle; text-anchor: end; }
.register-number { font: 14px Helvetica; dominant-baseline: middle; text-anchor: start; }
.intrinsic-name { font: 14px Helvetica; dominant-baseline: middle; text-anchor: end; fill: #6778ED; }
.intrinsic-color { fill: #6778ED; }
.small-label { font: 12px Helvetica; dominant-baseline: middle; text-anchor: middle; }
.label-10px { font: 10px Helvetica; dominant-baseline: middle; text-anchor: middle; }
.smaller-label { font: 9px Helvetica; dominant-baseline: middle; text-anchor: middle; }
.label-6px { font: 6px Helvetica; dominant-baseline: middle; text-anchor: middle; }
.label-7px { font: 7px Helvetica; dominant-baseline: middle; text-anchor: middle; }
.unused { fill: #AAA; }
.dim { fill: #888; }
</style>
<defs>
<marker id="arrowhead" markerWidth="10.75" markerHeight="24.5" refX="9.0" refY="6.125" orient="auto">
<polyline points="0.5 0.5, 8.75 6.125, 0.5 11.75" stroke="#567DB6" stroke-width="1" fill="none"/>
</marker>
</defs>
<line stroke="#567DB6" stroke-width="1" x1="3066" x2="3084" y1="42.5" y2="99" />
<line stroke="#567DB6" stroke-width="1" x1="2874" x2="2892" y1="42.5" y2="99" />
<line stroke="#567DB6" stroke-width="1" x1="2682" x2="2700" y1="42.5" y2="99" />
<line stroke="#567DB6" stroke-width="1" x1="2490" x2="2508" y1="42.5" y2="99" />
<line stroke="#567DB6" stroke-width="1" x1="2298" x2="2316" y1="42.5" y2="99" />
<line stroke="#567DB6" stroke-width="1" x1="2106" x2="2124" y1="42.5" y2="99" />
<line stroke="#567DB6" stroke-width="1" x1="1914" x2="1932" y1="42.5" y2="99" />
<line stroke="#567DB6" stroke-width="1" x1="1722" x2="1740" y1="42.5" y2="99" />
<line stroke="#567DB6" stroke-width="1" x1="1530" x2="1548" y1="42.5" y2="99" />
<line stroke="#567DB6" stroke-width="1" x1="1338" x2="1356" y1="42.5" y2="99" />
<line stroke="#567DB6" stroke-width="1" x1="1146" x2="1164" y1="42.5" y2="99" />
<line stroke="#567DB6" stroke-width="1" x1="954" x2="972" y1="42.5" y2="99" />
<line stroke="#567DB6" stroke-width="1" x1="762" x2="780" y1="42.5" y2="99" />
<line stroke="#567DB6" stroke-width="1" x1="570" x2="588" y1="42.5" y2="99" />
<line stroke="#567DB6" stroke-width="1" x1="378" x2="396" y1="42.5" y2="99" />
<line stroke="#567DB6" stroke-width="1" x1="186" x2="204" y1="42.5" y2="99" />
<text class="title-left" x="90" y="9">upper</text>
<text class="title-right" x="3162" y="9">lower</text>
<rect fill="#DEE6F1" height="24" width="192" x="2970" y="18" />
<rect fill="none" height="24" stroke="#405C86" stroke-width="2" width="192" x="2970" y="18" />
<rect fill="#DEE6F1" height="24" width="192" x="2778" y="18" />
<rect fill="none" height="24" stroke="#405C86" stroke-width="2" width="192" x="2778" y="18" />
<rect fill="#DEE6F1" height="24" width="192" x="2586" y="18" />
<rect fill="none" height="24" stroke="#405C86" stroke-width="2" width="192" x="2586" y="18" />
<rect fill="#DEE6F1" height="24" width="192" x="2394" y="18" />
<rect fill="none" height="24" stroke="#405C86" stroke-width="2" width="192" x="2394" y="18" />
<rect fill="#DEE6F1" height="24" width="192" x="2202" y="18" />
<rect fill="none" height="24" stroke="#405C86" stroke-width="2" width="192" x="2202" y="18" />
<rect fill="#DEE6F1" height="24" width="192" x="2010" y="18" />
<rect fill="none" height="24" stroke="#405C86" stroke-width="2" width="192" x="2010" y="18" />
<rect fill="#DEE6F1" height="24" width="192" x="1818" y="18" />
<rect fill="none" height="24" stroke="#405C86" stroke-width="2" width="192" x="1818" y="18" />
<rect fill="#DEE6F1" height="24" width="192" x="1626" y="18" />
<rect fill="none" height="24" stroke="#405C86" stroke-width="2" width="192" x="1626" y="18" />
<rect fill="#DEE6F1" height="24" width="192" x="1434" y="18" />
<rect fill="none" height="24" stroke="#405C86" stroke-width="2" width="192" x="1434" y="18" />
<rect fill="#DEE6F1" height="24" width="192" x="1242" y="18" />
<rect fill="none" height="24" stroke="#405C86" stroke-width="2" width="192" x="1242" y="18" />
<rect fill="#DEE6F1" height="24" width="192" x="1050" y="18" />
<rect fill="none" height="24" stroke="#405C86" stroke-width="2" width="192" x="1050" y="18" />
<rect fill="#DEE6F1" height="24" width="192" x="858" y="18" />
<rect fill="none" height="24" stroke="#405C86" stroke-width="2" width="192" x="858" y="18" />
<rect fill="#DEE6F1" height="24" width="192" x="666" y="18" />
<rect fill="none" height="24" stroke="#405C86" stroke-width="2" width="192" x="666" y="18" />
<rect fill="#DEE6F1" height="24" width="192" x="474" y="18" />
<rect fill="none" height="24" stroke="#405C86" stroke-width="2" width="192" x="474" y="18" />
<rect fill="#DEE6F1" height="24" width="192" x="282" y="18" />
<rect fill="none" height="24" stroke="#405C86" stroke-width="2" width="192" x="282" y="18" />
<rect fill="#DEE6F1" height="24" width="192" x="90" y="18" />
<rect fill="none" height="24" stroke="#405C86" stroke-width="2" width="192" x="90" y="18" />
<text class="register-name" x="80" y="30">Zn</text>
<text class="intrinsic-name" x="80" y="42">op</text>
<text class="register-number" x="10" y="30">(1)</text>
<rect fill="#DEE6F1" height="24" width="96" x="3066" y="100" />
<rect fill="none" height="24" stroke="#405C86" stroke-width="2" width="96" x="3066" y="100" />
<rect fill="none" height="24" stroke="#405C86" stroke-width="2" width="96" x="2970" y="100" />
<text class="label" x="3018" y="113">0</text>
<rect fill="#DEE6F1" height="24" width="96" x="2874" y="100" />
<rect fill="none" height="24" stroke="#405C86" stroke-width="2" width="96" x="2874" y="100" />
<rect fill="none" height="24" stroke="#405C86" stroke-width="2" width="96" x="2778" y="100" />
<text class="label" x="2826" y="113">0</text>
<rect fill="#DEE6F1" height="24" width="96" x="2682" y="100" />
<rect fill="none" height="24" stroke="#405C86" stroke-width="2" width="96" x="2682" y="100" />
<rect fill="none" height="24" stroke="#405C86" stroke-width="2" width="96" x="2586" y="100" />
<text class="label" x="2634" y="113">0</text>
<rect fill="#DEE6F1" height="24" width="96" x="2490" y="100" />
<rect fill="none" height="24" stroke="#405C86" stroke-width="2" width="96" x="2490" y="100" />
<rect fill="none" height="24" stroke="#405C86" stroke-width="2" width="96" x="2394" y="100" />
<text class="label" x="2442" y="113">0</text>
<rect fill="#DEE6F1" height="24" width="96" x="2298" y="100" />
<rect fill="none" height="24" stroke="#405C86" stroke-width="2" width="96" x="2298" y="100" />
<rect fill="none" height="24" stroke="#405C86" stroke-width="2" width="96" x="2202" y="100" />
<text class="label" x="2250" y="113">0</text>
<rect fill="#DEE6F1" height="24" width="96" x="2106" y="100" />
<rect fill="none" height="24" stroke="#405C86" stroke-width="2" width="96" x="2106" y="100" />
<rect fill="none" height="24" stroke="#405C86" stroke-width="2" width="96" x="2010" y="100" />
<text class="label" x="2058" y="113">0</text>
<rect fill="#DEE6F1" height="24" width="96" x="1914" y="100" />
<rect fill="none" height="24" stroke="#405C86" stroke-width="2" width="96" x="1914" y="100" />
<rect fill="none" height="24" stroke="#405C86" stroke-width="2" width="96" x="1818" y="100" />
<text class="label" x="1866" y="113">0</text>
<rect fill="#DEE6F1" height="24" width="96" x="1722" y="100" />
<rect fill="none" height="24" stroke="#405C86" stroke-width="2" width="96" x="1722" y="100" />
<rect fill="none" height="24" stroke="#405C86" stroke-width="2" width="96" x="1626" y="100" />
<text class="label" x="1674" y="113">0</text>
<rect fill="#DEE6F1" height="24" width="96" x="1530" y="100" />
<rect fill="none" height="24" stroke="#405C86" stroke-width="2" width="96" x="1530" y="100" />
<rect fill="none" height="24" stroke="#405C86" stroke-width="2" width="96" x="1434" y="100" />
<text class="label" x="1482" y="113">0</text>
<rect fill="#DEE6F1" height="24" width="96" x="1338" y="100" />
<rect fill="none" height="24" stroke="#405C86" stroke-width="2" width="96" x="1338" y="100" />
<rect fill="none" height="24" stroke="#405C86" stroke-width="2" width="96" x="1242" y="100" />
<text class="label" x="1290" y="113">0</text>
<rect fill="#DEE6F1" height="24" width="96" x="1146" y="100" />
<rect fill="none" height="24" stroke="#405C86" stroke-width="2" width="96" x="1146" y="100" />
<rect fill="none" height="24" stroke="#405C86" stroke-width="2" width="96" x="1050" y="100" />
<text class="label" x="1098" y="113">0</text>
<rect fill="#DEE6F1" height="24" width="96" x="954" y="100" />
<rect fill="none" height="24" stroke="#405C86" stroke-width="2" width="96" x="954" y="100" />
<rect fill="none" height="24" stroke="#405C86" stroke-width="2" width="96" x="858" y="100" />
<text class="label" x="906" y="113">0</text>
<rect fill="#DEE6F1" height="24" width="96" x="762" y="100" />
<rect fill="none" height="24" stroke="#405C86" stroke-width="2" width="96" x="762" y="100" />
<rect fill="none" height="24" stroke="#405C86" stroke-width="2" width="96" x="666" y="100" />
<text class="label" x="714" y="113">0</text>
<rect fill="#DEE6F1" height="24" width="96" x="570" y="100" />
<rect fill="none" height="24" stroke="#405C86" stroke-width="2" width="96" x="570" y="100" />
<rect fill="none" height="24" stroke="#405C86" stroke-width="2" width="96" x="474" y="100" />
<text class="label" x="522" y="113">0</text>
<rect fill="#DEE6F1" height="24" width="96" x="378" y="100" />
<rect fill="none" height="24" stroke="#405C86" stroke-width="2" width="96" x="378" y="100" />
<rect fill="none" height="24" stroke="#405C86" stroke-width="2" width="96" x="282" y="100" />
<text class="label" x="330" y="113">0</text>
<rect fill="#DEE6F1" height="24" width="96" x="186" y="100" />
<rect fill="none" height="24" stroke="#405C86" stroke-width="2" width="96" x="186" y="100" />
<rect fill="none" height="24" stroke="#405C86" stroke-width="2" width="96" x="90" y="100" />
<text class="label" x="138" y="113">0</text>
<text class="register-name" x="80" y="112">Zd</text>
<text class="intrinsic-name" x="80" y="124">returns</text>
<text class="register-number" x="10" y="112">(3)</text>
<line marker-end="url(#arrowhead)" stroke="none" x1="3066" x2="3084" y1="42.5" y2="99" />
<line marker-end="url(#arrowhead)" stroke="none" x1="2874" x2="2892" y1="42.5" y2="99" />
<line marker-end="url(#arrowhead)" stroke="none" x1="2682" x2="2700" y1="42.5" y2="99" />
<line marker-end="url(#arrowhead)" stroke="none" x1="2490" x2="2508" y1="42.5" y2="99" />
<line marker-end="url(#arrowhead)" stroke="none" x1="2298" x2="2316" y1="42.5" y2="99" />
<line marker-end="url(#arrowhead)" stroke="none" x1="2106" x2="2124" y1="42.5" y2="99" />
<line marker-end="url(#arrowhead)" stroke="none" x1="1914" x2="1932" y1="42.5" y2="99" />
<line marker-end="url(#arrowhead)" stroke="none" x1="1722" x2="1740" y1="42.5" y2="99" />
<line marker-end="url(#arrowhead)" stroke="none" x1="1530" x2="1548" y1="42.5" y2="99" />
<line marker-end="url(#arrowhead)" stroke="none" x1="1338" x2="1356" y1="42.5" y2="99" />
<line marker-end="url(#arrowhead)" stroke="none" x1="1146" x2="1164" y1="42.5" y2="99" />
<line marker-end="url(#arrowhead)" stroke="none" x1="954" x2="972" y1="42.5" y2="99" />
<line marker-end="url(#arrowhead)" stroke="none" x1="762" x2="780" y1="42.5" y2="99" />
<line marker-end="url(#arrowhead)" stroke="none" x1="570" x2="588" y1="42.5" y2="99" />
<line marker-end="url(#arrowhead)" stroke="none" x1="378" x2="396" y1="42.5" y2="99" />
<line marker-end="url(#arrowhead)" stroke="none" x1="186" x2="204" y1="42.5" y2="99" />
</svg>