<svg xmlns="http://www.w3.org/2000/svg" viewBox="0 0 870 123">
<style>
.label { font: 14px Helvetica; dominant-baseline: middle; text-anchor: middle; }
.title-left { font: 12px Helvetica; dominant-baseline: middle; }
.title-right { font: 12px Helvetica; dominant-baseline: middle; text-anchor: end; }
.title-intrinsic { font: 12px Helvetica; dominant-baseline: middle; text-anchor: middle; fill: #6778ED; }
.title { font: 12px Helvetica; dominant-baseline: middle; text-anchor: middle; }
.title-unused { font: 12px Helvetica; dominant-baseline: middle; text-anchor: middle; fill: #AAA; }
.register-name { font: 14px Helvetica; dominant-baseline: middle; text-anchor: end; font-style: italic; }
.memory-name { font: 14px Helvetica; dominant-baseline: middle; text-anchor: end; }
.register-number { font: 14px Helvetica; dominant-baseline: middle; text-anchor: start; }
.intrinsic-name { font: 14px Helvetica; dominant-baseline: middle; text-anchor: end; fill: #6778ED; }
.intrinsic-color { fill: #6778ED; }
.small-label { font: 12px Helvetica; dominant-baseline: middle; text-anchor: middle; }
.label-10px { font: 10px Helvetica; dominant-baseline: middle; text-anchor: middle; }
.smaller-label { font: 9px Helvetica; dominant-baseline: middle; text-anchor: middle; }
.label-6px { font: 6px Helvetica; dominant-baseline: middle; text-anchor: middle; }
.label-7px { font: 7px Helvetica; dominant-baseline: middle; text-anchor: middle; }
.unused { fill: #AAA; }
.dim { fill: #888; }
</style>
<defs>
<marker id="arrowhead" markerWidth="10.75" markerHeight="24.5" refX="9.0" refY="6.125" orient="auto">
<polyline points="0.5 0.5, 8.75 6.125, 0.5 11.75" stroke="#567DB6" stroke-width="1" fill="none"/>
</marker>
</defs>
<line stroke="#567DB6" stroke-width="1" x1="841.375" x2="850.625" y1="42.5" y2="89" />
<line stroke="#567DB6" stroke-width="1" x1="817.375" x2="826.625" y1="42.5" y2="89" />
<line stroke="#567DB6" stroke-width="1" x1="793.375" x2="802.625" y1="42.5" y2="89" />
<line stroke="#567DB6" stroke-width="1" x1="769.375" x2="778.625" y1="42.5" y2="89" />
<line stroke="#567DB6" stroke-width="1" x1="745.375" x2="754.625" y1="42.5" y2="89" />
<line stroke="#567DB6" stroke-width="1" x1="721.375" x2="730.625" y1="42.5" y2="89" />
<line stroke="#567DB6" stroke-width="1" x1="697.375" x2="706.625" y1="42.5" y2="89" />
<line stroke="#567DB6" stroke-width="1" x1="673.375" x2="682.625" y1="42.5" y2="89" />
<line stroke="#567DB6" stroke-width="1" x1="649.375" x2="658.625" y1="42.5" y2="89" />
<line stroke="#567DB6" stroke-width="1" x1="625.375" x2="634.625" y1="42.5" y2="89" />
<line stroke="#567DB6" stroke-width="1" x1="601.375" x2="610.625" y1="42.5" y2="89" />
<line stroke="#567DB6" stroke-width="1" x1="577.375" x2="586.625" y1="42.5" y2="89" />
<line stroke="#567DB6" stroke-width="1" x1="553.375" x2="562.625" y1="42.5" y2="89" />
<line stroke="#567DB6" stroke-width="1" x1="529.375" x2="538.625" y1="42.5" y2="89" />
<line stroke="#567DB6" stroke-width="1" x1="505.375" x2="514.625" y1="42.5" y2="89" />
<line stroke="#567DB6" stroke-width="1" x1="481.375" x2="490.625" y1="42.5" y2="89" />
<line stroke="#567DB6" stroke-width="1" x1="457.375" x2="466.625" y1="42.5" y2="89" />
<line stroke="#567DB6" stroke-width="1" x1="433.375" x2="442.625" y1="42.5" y2="89" />
<line stroke="#567DB6" stroke-width="1" x1="409.375" x2="418.625" y1="42.5" y2="89" />
<line stroke="#567DB6" stroke-width="1" x1="385.375" x2="394.625" y1="42.5" y2="89" />
<line stroke="#567DB6" stroke-width="1" x1="361.375" x2="370.625" y1="42.5" y2="89" />
<line stroke="#567DB6" stroke-width="1" x1="337.375" x2="346.625" y1="42.5" y2="89" />
<line stroke="#567DB6" stroke-width="1" x1="313.375" x2="322.625" y1="42.5" y2="89" />
<line stroke="#567DB6" stroke-width="1" x1="289.375" x2="298.625" y1="42.5" y2="89" />
<line stroke="#567DB6" stroke-width="1" x1="265.375" x2="274.625" y1="42.5" y2="89" />
<line stroke="#567DB6" stroke-width="1" x1="241.375" x2="250.625" y1="42.5" y2="89" />
<line stroke="#567DB6" stroke-width="1" x1="217.375" x2="226.625" y1="42.5" y2="89" />
<line stroke="#567DB6" stroke-width="1" x1="193.375" x2="202.625" y1="42.5" y2="89" />
<line stroke="#567DB6" stroke-width="1" x1="169.375" x2="178.625" y1="42.5" y2="89" />
<line stroke="#567DB6" stroke-width="1" x1="145.375" x2="154.625" y1="42.5" y2="89" />
<line stroke="#567DB6" stroke-width="1" x1="121.375" x2="130.625" y1="42.5" y2="89" />
<line stroke="#567DB6" stroke-width="1" x1="97.375" x2="106.625" y1="42.5" y2="89" />
<text class="title-left" x="90" y="9">upper</text>
<text class="title-right" x="858" y="9">lower</text>
<rect fill="#DEE6F1" height="24" width="14.75" x="834" y="18" />
<rect fill="#ECF1E0" height="24" width="2.75" x="848.75" y="18" />
<rect fill="none" height="24" stroke="#405C86" stroke-width="2" width="24" x="834" y="18" />
<rect fill="#DEE6F1" height="24" width="14.75" x="810" y="18" />
<rect fill="#ECF1E0" height="24" width="2.75" x="824.75" y="18" />
<rect fill="none" height="24" stroke="#405C86" stroke-width="2" width="24" x="810" y="18" />
<rect fill="#DEE6F1" height="24" width="14.75" x="786" y="18" />
<rect fill="#ECF1E0" height="24" width="2.75" x="800.75" y="18" />
<rect fill="none" height="24" stroke="#405C86" stroke-width="2" width="24" x="786" y="18" />
<rect fill="#DEE6F1" height="24" width="14.75" x="762" y="18" />
<rect fill="#ECF1E0" height="24" width="2.75" x="776.75" y="18" />
<rect fill="none" height="24" stroke="#405C86" stroke-width="2" width="24" x="762" y="18" />
<rect fill="#DEE6F1" height="24" width="14.75" x="738" y="18" />
<rect fill="#ECF1E0" height="24" width="2.75" x="752.75" y="18" />
<rect fill="none" height="24" stroke="#405C86" stroke-width="2" width="24" x="738" y="18" />
<rect fill="#DEE6F1" height="24" width="14.75" x="714" y="18" />
<rect fill="#ECF1E0" height="24" width="2.75" x="728.75" y="18" />
<rect fill="none" height="24" stroke="#405C86" stroke-width="2" width="24" x="714" y="18" />
<rect fill="#DEE6F1" height="24" width="14.75" x="690" y="18" />
<rect fill="#ECF1E0" height="24" width="2.75" x="704.75" y="18" />
<rect fill="none" height="24" stroke="#405C86" stroke-width="2" width="24" x="690" y="18" />
<rect fill="#DEE6F1" height="24" width="14.75" x="666" y="18" />
<rect fill="#ECF1E0" height="24" width="2.75" x="680.75" y="18" />
<rect fill="none" height="24" stroke="#405C86" stroke-width="2" width="24" x="666" y="18" />
<rect fill="#DEE6F1" height="24" width="14.75" x="642" y="18" />
<rect fill="#ECF1E0" height="24" width="2.75" x="656.75" y="18" />
<rect fill="none" height="24" stroke="#405C86" stroke-width="2" width="24" x="642" y="18" />
<rect fill="#DEE6F1" height="24" width="14.75" x="618" y="18" />
<rect fill="#ECF1E0" height="24" width="2.75" x="632.75" y="18" />
<rect fill="none" height="24" stroke="#405C86" stroke-width="2" width="24" x="618" y="18" />
<rect fill="#DEE6F1" height="24" width="14.75" x="594" y="18" />
<rect fill="#ECF1E0" height="24" width="2.75" x="608.75" y="18" />
<rect fill="none" height="24" stroke="#405C86" stroke-width="2" width="24" x="594" y="18" />
<rect fill="#DEE6F1" height="24" width="14.75" x="570" y="18" />
<rect fill="#ECF1E0" height="24" width="2.75" x="584.75" y="18" />
<rect fill="none" height="24" stroke="#405C86" stroke-width="2" width="24" x="570" y="18" />
<rect fill="#DEE6F1" height="24" width="14.75" x="546" y="18" />
<rect fill="#ECF1E0" height="24" width="2.75" x="560.75" y="18" />
<rect fill="none" height="24" stroke="#405C86" stroke-width="2" width="24" x="546" y="18" />
<rect fill="#DEE6F1" height="24" width="14.75" x="522" y="18" />
<rect fill="#ECF1E0" height="24" width="2.75" x="536.75" y="18" />
<rect fill="none" height="24" stroke="#405C86" stroke-width="2" width="24" x="522" y="18" />
<rect fill="#DEE6F1" height="24" width="14.75" x="498" y="18" />
<rect fill="#ECF1E0" height="24" width="2.75" x="512.75" y="18" />
<rect fill="none" height="24" stroke="#405C86" stroke-width="2" width="24" x="498" y="18" />
<rect fill="#DEE6F1" height="24" width="14.75" x="474" y="18" />
<rect fill="#ECF1E0" height="24" width="2.75" x="488.75" y="18" />
<rect fill="none" height="24" stroke="#405C86" stroke-width="2" width="24" x="474" y="18" />
<rect fill="#DEE6F1" height="24" width="14.75" x="450" y="18" />
<rect fill="#ECF1E0" height="24" width="2.75" x="464.75" y="18" />
<rect fill="none" height="24" stroke="#405C86" stroke-width="2" width="24" x="450" y="18" />
<rect fill="#DEE6F1" height="24" width="14.75" x="426" y="18" />
<rect fill="#ECF1E0" height="24" width="2.75" x="440.75" y="18" />
<rect fill="none" height="24" stroke="#405C86" stroke-width="2" width="24" x="426" y="18" />
<rect fill="#DEE6F1" height="24" width="14.75" x="402" y="18" />
<rect fill="#ECF1E0" height="24" width="2.75" x="416.75" y="18" />
<rect fill="none" height="24" stroke="#405C86" stroke-width="2" width="24" x="402" y="18" />
<rect fill="#DEE6F1" height="24" width="14.75" x="378" y="18" />
<rect fill="#ECF1E0" height="24" width="2.75" x="392.75" y="18" />
<rect fill="none" height="24" stroke="#405C86" stroke-width="2" width="24" x="378" y="18" />
<rect fill="#DEE6F1" height="24" width="14.75" x="354" y="18" />
<rect fill="#ECF1E0" height="24" width="2.75" x="368.75" y="18" />
<rect fill="none" height="24" stroke="#405C86" stroke-width="2" width="24" x="354" y="18" />
<rect fill="#DEE6F1" height="24" width="14.75" x="330" y="18" />
<rect fill="#ECF1E0" height="24" width="2.75" x="344.75" y="18" />
<rect fill="none" height="24" stroke="#405C86" stroke-width="2" width="24" x="330" y="18" />
<rect fill="#DEE6F1" height="24" width="14.75" x="306" y="18" />
<rect fill="#ECF1E0" height="24" width="2.75" x="320.75" y="18" />
<rect fill="none" height="24" stroke="#405C86" stroke-width="2" width="24" x="306" y="18" />
<rect fill="#DEE6F1" height="24" width="14.75" x="282" y="18" />
<rect fill="#ECF1E0" height="24" width="2.75" x="296.75" y="18" />
<rect fill="none" height="24" stroke="#405C86" stroke-width="2" width="24" x="282" y="18" />
<rect fill="#DEE6F1" height="24" width="14.75" x="258" y="18" />
<rect fill="#ECF1E0" height="24" width="2.75" x="272.75" y="18" />
<rect fill="none" height="24" stroke="#405C86" stroke-width="2" width="24" x="258" y="18" />
<rect fill="#DEE6F1" height="24" width="14.75" x="234" y="18" />
<rect fill="#ECF1E0" height="24" width="2.75" x="248.75" y="18" />
<rect fill="none" height="24" stroke="#405C86" stroke-width="2" width="24" x="234" y="18" />
<rect fill="#DEE6F1" height="24" width="14.75" x="210" y="18" />
<rect fill="#ECF1E0" height="24" width="2.75" x="224.75" y="18" />
<rect fill="none" height="24" stroke="#405C86" stroke-width="2" width="24" x="210" y="18" />
<rect fill="#DEE6F1" height="24" width="14.75" x="186" y="18" />
<rect fill="#ECF1E0" height="24" width="2.75" x="200.75" y="18" />
<rect fill="none" height="24" stroke="#405C86" stroke-width="2" width="24" x="186" y="18" />
<rect fill="#DEE6F1" height="24" width="14.75" x="162" y="18" />
<rect fill="#ECF1E0" height="24" width="2.75" x="176.75" y="18" />
<rect fill="none" height="24" stroke="#405C86" stroke-width="2" width="24" x="162" y="18" />
<rect fill="#DEE6F1" height="24" width="14.75" x="138" y="18" />
<rect fill="#ECF1E0" height="24" width="2.75" x="152.75" y="18" />
<rect fill="none" height="24" stroke="#405C86" stroke-width="2" width="24" x="138" y="18" />
<rect fill="#DEE6F1" height="24" width="14.75" x="114" y="18" />
<rect fill="#ECF1E0" height="24" width="2.75" x="128.75" y="18" />
<rect fill="none" height="24" stroke="#405C86" stroke-width="2" width="24" x="114" y="18" />
<rect fill="#DEE6F1" height="24" width="14.75" x="90" y="18" />
<rect fill="#ECF1E0" height="24" width="2.75" x="104.75" y="18" />
<rect fill="none" height="24" stroke="#405C86" stroke-width="2" width="24" x="90" y="18" />
<text class="register-name" x="80" y="30">Zdn</text>
<text class="intrinsic-name" x="80" y="42">op1</text>
<text class="register-number" x="10" y="30">(1)</text>
<rect fill="#DEE6F1" height="24" width="14.75" x="843.25" y="90" />
<rect fill="#DEE6F1" height="24" width="17.5" x="840.5" y="90" />
<rect fill="none" height="24" stroke="#405C86" stroke-width="2" width="24" x="834" y="90" />
<rect fill="#DEE6F1" height="24" width="14.75" x="819.25" y="90" />
<rect fill="#DEE6F1" height="24" width="17.5" x="816.5" y="90" />
<rect fill="none" height="24" stroke="#405C86" stroke-width="2" width="24" x="810" y="90" />
<rect fill="#DEE6F1" height="24" width="14.75" x="795.25" y="90" />
<rect fill="#DEE6F1" height="24" width="17.5" x="792.5" y="90" />
<rect fill="none" height="24" stroke="#405C86" stroke-width="2" width="24" x="786" y="90" />
<rect fill="#DEE6F1" height="24" width="14.75" x="771.25" y="90" />
<rect fill="#DEE6F1" height="24" width="17.5" x="768.5" y="90" />
<rect fill="none" height="24" stroke="#405C86" stroke-width="2" width="24" x="762" y="90" />
<rect fill="#DEE6F1" height="24" width="14.75" x="747.25" y="90" />
<rect fill="#DEE6F1" height="24" width="17.5" x="744.5" y="90" />
<rect fill="none" height="24" stroke="#405C86" stroke-width="2" width="24" x="738" y="90" />
<rect fill="#DEE6F1" height="24" width="14.75" x="723.25" y="90" />
<rect fill="#DEE6F1" height="24" width="17.5" x="720.5" y="90" />
<rect fill="none" height="24" stroke="#405C86" stroke-width="2" width="24" x="714" y="90" />
<rect fill="#DEE6F1" height="24" width="14.75" x="699.25" y="90" />
<rect fill="#DEE6F1" height="24" width="17.5" x="696.5" y="90" />
<rect fill="none" height="24" stroke="#405C86" stroke-width="2" width="24" x="690" y="90" />
<rect fill="#DEE6F1" height="24" width="14.75" x="675.25" y="90" />
<rect fill="#DEE6F1" height="24" width="17.5" x="672.5" y="90" />
<rect fill="none" height="24" stroke="#405C86" stroke-width="2" width="24" x="666" y="90" />
<rect fill="#DEE6F1" height="24" width="14.75" x="651.25" y="90" />
<rect fill="#DEE6F1" height="24" width="17.5" x="648.5" y="90" />
<rect fill="none" height="24" stroke="#405C86" stroke-width="2" width="24" x="642" y="90" />
<rect fill="#DEE6F1" height="24" width="14.75" x="627.25" y="90" />
<rect fill="#DEE6F1" height="24" width="17.5" x="624.5" y="90" />
<rect fill="none" height="24" stroke="#405C86" stroke-width="2" width="24" x="618" y="90" />
<rect fill="#DEE6F1" height="24" width="14.75" x="603.25" y="90" />
<rect fill="#DEE6F1" height="24" width="17.5" x="600.5" y="90" />
<rect fill="none" height="24" stroke="#405C86" stroke-width="2" width="24" x="594" y="90" />
<rect fill="#DEE6F1" height="24" width="14.75" x="579.25" y="90" />
<rect fill="#DEE6F1" height="24" width="17.5" x="576.5" y="90" />
<rect fill="none" height="24" stroke="#405C86" stroke-width="2" width="24" x="570" y="90" />
<rect fill="#DEE6F1" height="24" width="14.75" x="555.25" y="90" />
<rect fill="#DEE6F1" height="24" width="17.5" x="552.5" y="90" />
<rect fill="none" height="24" stroke="#405C86" stroke-width="2" width="24" x="546" y="90" />
<rect fill="#DEE6F1" height="24" width="14.75" x="531.25" y="90" />
<rect fill="#DEE6F1" height="24" width="17.5" x="528.5" y="90" />
<rect fill="none" height="24" stroke="#405C86" stroke-width="2" width="24" x="522" y="90" />
<rect fill="#DEE6F1" height="24" width="14.75" x="507.25" y="90" />
<rect fill="#DEE6F1" height="24" width="17.5" x="504.5" y="90" />
<rect fill="none" height="24" stroke="#405C86" stroke-width="2" width="24" x="498" y="90" />
<rect fill="#DEE6F1" height="24" width="14.75" x="483.25" y="90" />
<rect fill="#DEE6F1" height="24" width="17.5" x="480.5" y="90" />
<rect fill="none" height="24" stroke="#405C86" stroke-width="2" width="24" x="474" y="90" />
<rect fill="#DEE6F1" height="24" width="14.75" x="459.25" y="90" />
<rect fill="#DEE6F1" height="24" width="17.5" x="456.5" y="90" />
<rect fill="none" height="24" stroke="#405C86" stroke-width="2" width="24" x="450" y="90" />
<rect fill="#DEE6F1" height="24" width="14.75" x="435.25" y="90" />
<rect fill="#DEE6F1" height="24" width="17.5" x="432.5" y="90" />
<rect fill="none" height="24" stroke="#405C86" stroke-width="2" width="24" x="426" y="90" />
<rect fill="#DEE6F1" height="24" width="14.75" x="411.25" y="90" />
<rect fill="#DEE6F1" height="24" width="17.5" x="408.5" y="90" />
<rect fill="none" height="24" stroke="#405C86" stroke-width="2" width="24" x="402" y="90" />
<rect fill="#DEE6F1" height="24" width="14.75" x="387.25" y="90" />
<rect fill="#DEE6F1" height="24" width="17.5" x="384.5" y="90" />
<rect fill="none" height="24" stroke="#405C86" stroke-width="2" width="24" x="378" y="90" />
<rect fill="#DEE6F1" height="24" width="14.75" x="363.25" y="90" />
<rect fill="#DEE6F1" height="24" width="17.5" x="360.5" y="90" />
<rect fill="none" height="24" stroke="#405C86" stroke-width="2" width="24" x="354" y="90" />
<rect fill="#DEE6F1" height="24" width="14.75" x="339.25" y="90" />
<rect fill="#DEE6F1" height="24" width="17.5" x="336.5" y="90" />
<rect fill="none" height="24" stroke="#405C86" stroke-width="2" width="24" x="330" y="90" />
<rect fill="#DEE6F1" height="24" width="14.75" x="315.25" y="90" />
<rect fill="#DEE6F1" height="24" width="17.5" x="312.5" y="90" />
<rect fill="none" height="24" stroke="#405C86" stroke-width="2" width="24" x="306" y="90" />
<rect fill="#DEE6F1" height="24" width="14.75" x="291.25" y="90" />
<rect fill="#DEE6F1" height="24" width="17.5" x="288.5" y="90" />
<rect fill="none" height="24" stroke="#405C86" stroke-width="2" width="24" x="282" y="90" />
<rect fill="#DEE6F1" height="24" width="14.75" x="267.25" y="90" />
<rect fill="#DEE6F1" height="24" width="17.5" x="264.5" y="90" />
<rect fill="none" height="24" stroke="#405C86" stroke-width="2" width="24" x="258" y="90" />
<rect fill="#DEE6F1" height="24" width="14.75" x="243.25" y="90" />
<rect fill="#DEE6F1" height="24" width="17.5" x="240.5" y="90" />
<rect fill="none" height="24" stroke="#405C86" stroke-width="2" width="24" x="234" y="90" />
<rect fill="#DEE6F1" height="24" width="14.75" x="219.25" y="90" />
<rect fill="#DEE6F1" height="24" width="17.5" x="216.5" y="90" />
<rect fill="none" height="24" stroke="#405C86" stroke-width="2" width="24" x="210" y="90" />
<rect fill="#DEE6F1" height="24" width="14.75" x="195.25" y="90" />
<rect fill="#DEE6F1" height="24" width="17.5" x="192.5" y="90" />
<rect fill="none" height="24" stroke="#405C86" stroke-width="2" width="24" x="186" y="90" />
<rect fill="#DEE6F1" height="24" width="14.75" x="171.25" y="90" />
<rect fill="#DEE6F1" height="24" width="17.5" x="168.5" y="90" />
<rect fill="none" height="24" stroke="#405C86" stroke-width="2" width="24" x="162" y="90" />
<rect fill="#DEE6F1" height="24" width="14.75" x="147.25" y="90" />
<rect fill="#DEE6F1" height="24" width="17.5" x="144.5" y="90" />
<rect fill="none" height="24" stroke="#405C86" stroke-width="2" width="24" x="138" y="90" />
<rect fill="#DEE6F1" height="24" width="14.75" x="123.25" y="90" />
<rect fill="#DEE6F1" height="24" width="17.5" x="120.5" y="90" />
<rect fill="none" height="24" stroke="#405C86" stroke-width="2" width="24" x="114" y="90" />
<rect fill="#DEE6F1" height="24" width="14.75" x="99.25" y="90" />
<rect fill="#DEE6F1" height="24" width="17.5" x="96.5" y="90" />
<rect fill="none" height="24" stroke="#405C86" stroke-width="2" width="24" x="90" y="90" />
<text class="register-name" x="80" y="102">Zdn</text>
<text class="intrinsic-name" x="80" y="114">returns</text>
<text class="register-number" x="10" y="102">(2)</text>
<line marker-end="url(#arrowhead)" stroke="none" x1="841.375" x2="850.625" y1="42.5" y2="89" />
<line marker-end="url(#arrowhead)" stroke="none" x1="817.375" x2="826.625" y1="42.5" y2="89" />
<line marker-end="url(#arrowhead)" stroke="none" x1="793.375" x2="802.625" y1="42.5" y2="89" />
<line marker-end="url(#arrowhead)" stroke="none" x1="769.375" x2="778.625" y1="42.5" y2="89" />
<line marker-end="url(#arrowhead)" stroke="none" x1="745.375" x2="754.625" y1="42.5" y2="89" />
<line marker-end="url(#arrowhead)" stroke="none" x1="721.375" x2="730.625" y1="42.5" y2="89" />
<line marker-end="url(#arrowhead)" stroke="none" x1="697.375" x2="706.625" y1="42.5" y2="89" />
<line marker-end="url(#arrowhead)" stroke="none" x1="673.375" x2="682.625" y1="42.5" y2="89" />
<line marker-end="url(#arrowhead)" stroke="none" x1="649.375" x2="658.625" y1="42.5" y2="89" />
<line marker-end="url(#arrowhead)" stroke="none" x1="625.375" x2="634.625" y1="42.5" y2="89" />
<line marker-end="url(#arrowhead)" stroke="none" x1="601.375" x2="610.625" y1="42.5" y2="89" />
<line marker-end="url(#arrowhead)" stroke="none" x1="577.375" x2="586.625" y1="42.5" y2="89" />
<line marker-end="url(#arrowhead)" stroke="none" x1="553.375" x2="562.625" y1="42.5" y2="89" />
<line marker-end="url(#arrowhead)" stroke="none" x1="529.375" x2="538.625" y1="42.5" y2="89" />
<line marker-end="url(#arrowhead)" stroke="none" x1="505.375" x2="514.625" y1="42.5" y2="89" />
<line marker-end="url(#arrowhead)" stroke="none" x1="481.375" x2="490.625" y1="42.5" y2="89" />
<line marker-end="url(#arrowhead)" stroke="none" x1="457.375" x2="466.625" y1="42.5" y2="89" />
<line marker-end="url(#arrowhead)" stroke="none" x1="433.375" x2="442.625" y1="42.5" y2="89" />
<line marker-end="url(#arrowhead)" stroke="none" x1="409.375" x2="418.625" y1="42.5" y2="89" />
<line marker-end="url(#arrowhead)" stroke="none" x1="385.375" x2="394.625" y1="42.5" y2="89" />
<line marker-end="url(#arrowhead)" stroke="none" x1="361.375" x2="370.625" y1="42.5" y2="89" />
<line marker-end="url(#arrowhead)" stroke="none" x1="337.375" x2="346.625" y1="42.5" y2="89" />
<line marker-end="url(#arrowhead)" stroke="none" x1="313.375" x2="322.625" y1="42.5" y2="89" />
<line marker-end="url(#arrowhead)" stroke="none" x1="289.375" x2="298.625" y1="42.5" y2="89" />
<line marker-end="url(#arrowhead)" stroke="none" x1="265.375" x2="274.625" y1="42.5" y2="89" />
<line marker-end="url(#arrowhead)" stroke="none" x1="241.375" x2="250.625" y1="42.5" y2="89" />
<line marker-end="url(#arrowhead)" stroke="none" x1="217.375" x2="226.625" y1="42.5" y2="89" />
<line marker-end="url(#arrowhead)" stroke="none" x1="193.375" x2="202.625" y1="42.5" y2="89" />
<line marker-end="url(#arrowhead)" stroke="none" x1="169.375" x2="178.625" y1="42.5" y2="89" />
<line marker-end="url(#arrowhead)" stroke="none" x1="145.375" x2="154.625" y1="42.5" y2="89" />
<line marker-end="url(#arrowhead)" stroke="none" x1="121.375" x2="130.625" y1="42.5" y2="89" />
<line marker-end="url(#arrowhead)" stroke="none" x1="97.375" x2="106.625" y1="42.5" y2="89" />
</svg>