<svg xmlns="http://www.w3.org/2000/svg" viewBox="0 0 870 123">
<style>
.label { font: 14px Helvetica; dominant-baseline: middle; text-anchor: middle; }
.title-left { font: 12px Helvetica; dominant-baseline: middle; }
.title-right { font: 12px Helvetica; dominant-baseline: middle; text-anchor: end; }
.title-intrinsic { font: 12px Helvetica; dominant-baseline: middle; text-anchor: middle; fill: #6778ED; }
.title { font: 12px Helvetica; dominant-baseline: middle; text-anchor: middle; }
.title-unused { font: 12px Helvetica; dominant-baseline: middle; text-anchor: middle; fill: #AAA; }
.register-name { font: 14px Helvetica; dominant-baseline: middle; text-anchor: end; font-style: italic; }
.memory-name { font: 14px Helvetica; dominant-baseline: middle; text-anchor: end; }
.register-number { font: 14px Helvetica; dominant-baseline: middle; text-anchor: start; }
.intrinsic-name { font: 14px Helvetica; dominant-baseline: middle; text-anchor: end; fill: #6778ED; }
.intrinsic-color { fill: #6778ED; }
.small-label { font: 12px Helvetica; dominant-baseline: middle; text-anchor: middle; }
.label-10px { font: 10px Helvetica; dominant-baseline: middle; text-anchor: middle; }
.smaller-label { font: 9px Helvetica; dominant-baseline: middle; text-anchor: middle; }
.label-6px { font: 6px Helvetica; dominant-baseline: middle; text-anchor: middle; }
.label-7px { font: 7px Helvetica; dominant-baseline: middle; text-anchor: middle; }
.unused { fill: #AAA; }
.dim { fill: #888; }
</style>
<defs>
<marker id="arrowhead" markerWidth="10.75" markerHeight="24.5" refX="9.0" refY="6.125" orient="auto">
<polyline points="0.5 0.5, 8.75 6.125, 0.5 11.75" stroke="#567DB6" stroke-width="1" fill="none"/>
</marker>
</defs>
<line stroke="#567DB6" stroke-width="1" x1="786" x2="810" y1="42.5" y2="89" />
<line stroke="#567DB6" stroke-width="1" x1="690" x2="714" y1="42.5" y2="89" />
<line stroke="#567DB6" stroke-width="1" x1="594" x2="618" y1="42.5" y2="89" />
<line stroke="#567DB6" stroke-width="1" x1="498" x2="522" y1="42.5" y2="89" />
<line stroke="#567DB6" stroke-width="1" x1="402" x2="426" y1="42.5" y2="89" />
<line stroke="#567DB6" stroke-width="1" x1="306" x2="330" y1="42.5" y2="89" />
<line stroke="#567DB6" stroke-width="1" x1="210" x2="234" y1="42.5" y2="89" />
<line stroke="#567DB6" stroke-width="1" x1="114" x2="138" y1="42.5" y2="89" />
<text class="title-left" x="90" y="9">upper</text>
<text class="title-right" x="858" y="9">lower</text>
<rect fill="none" height="24" stroke="#405C86" stroke-dasharray="3 1" stroke-dashoffset="1.5" stroke-width="1" width="48" x="810" y="18" />
<text class="label unused" x="834" y="31"></text>
<rect fill="#DEE6F1" height="24" width="48" x="762" y="18" />
<rect fill="none" height="24" stroke="#405C86" stroke-width="2" width="48" x="762" y="18" />
<rect fill="none" height="24" stroke="#405C86" stroke-dasharray="3 1" stroke-dashoffset="1.5" stroke-width="1" width="48" x="714" y="18" />
<text class="label unused" x="738" y="31"></text>
<rect fill="#DEE6F1" height="24" width="48" x="666" y="18" />
<rect fill="none" height="24" stroke="#405C86" stroke-width="2" width="48" x="666" y="18" />
<rect fill="none" height="24" stroke="#405C86" stroke-dasharray="3 1" stroke-dashoffset="1.5" stroke-width="1" width="48" x="618" y="18" />
<text class="label unused" x="642" y="31"></text>
<rect fill="#DEE6F1" height="24" width="48" x="570" y="18" />
<rect fill="none" height="24" stroke="#405C86" stroke-width="2" width="48" x="570" y="18" />
<rect fill="none" height="24" stroke="#405C86" stroke-dasharray="3 1" stroke-dashoffset="1.5" stroke-width="1" width="48" x="522" y="18" />
<text class="label unused" x="546" y="31"></text>
<rect fill="#DEE6F1" height="24" width="48" x="474" y="18" />
<rect fill="none" height="24" stroke="#405C86" stroke-width="2" width="48" x="474" y="18" />
<rect fill="none" height="24" stroke="#405C86" stroke-dasharray="3 1" stroke-dashoffset="1.5" stroke-width="1" width="48" x="426" y="18" />
<text class="label unused" x="450" y="31"></text>
<rect fill="#DEE6F1" height="24" width="48" x="378" y="18" />
<rect fill="none" height="24" stroke="#405C86" stroke-width="2" width="48" x="378" y="18" />
<rect fill="none" height="24" stroke="#405C86" stroke-dasharray="3 1" stroke-dashoffset="1.5" stroke-width="1" width="48" x="330" y="18" />
<text class="label unused" x="354" y="31"></text>
<rect fill="#DEE6F1" height="24" width="48" x="282" y="18" />
<rect fill="none" height="24" stroke="#405C86" stroke-width="2" width="48" x="282" y="18" />
<rect fill="none" height="24" stroke="#405C86" stroke-dasharray="3 1" stroke-dashoffset="1.5" stroke-width="1" width="48" x="234" y="18" />
<text class="label unused" x="258" y="31"></text>
<rect fill="#DEE6F1" height="24" width="48" x="186" y="18" />
<rect fill="none" height="24" stroke="#405C86" stroke-width="2" width="48" x="186" y="18" />
<rect fill="none" height="24" stroke="#405C86" stroke-dasharray="3 1" stroke-dashoffset="1.5" stroke-width="1" width="48" x="138" y="18" />
<text class="label unused" x="162" y="31"></text>
<rect fill="#DEE6F1" height="24" width="48" x="90" y="18" />
<rect fill="none" height="24" stroke="#405C86" stroke-width="2" width="48" x="90" y="18" />
<text class="register-name" x="80" y="30">Zn</text>
<text class="intrinsic-name" x="80" y="42">op1</text>
<text class="register-number" x="10" y="30">(1)</text>
<rect fill="#DEE6F1" height="24" width="47" x="786.5" y="90" />
<rect fill="none" height="24" stroke="#405C86" stroke-width="2" width="96" x="762" y="90" />
<rect fill="#DEE6F1" height="24" width="47" x="690.5" y="90" />
<rect fill="none" height="24" stroke="#405C86" stroke-width="2" width="96" x="666" y="90" />
<rect fill="#DEE6F1" height="24" width="47" x="594.5" y="90" />
<rect fill="none" height="24" stroke="#405C86" stroke-width="2" width="96" x="570" y="90" />
<rect fill="#DEE6F1" height="24" width="47" x="498.5" y="90" />
<rect fill="none" height="24" stroke="#405C86" stroke-width="2" width="96" x="474" y="90" />
<rect fill="#DEE6F1" height="24" width="47" x="402.5" y="90" />
<rect fill="none" height="24" stroke="#405C86" stroke-width="2" width="96" x="378" y="90" />
<rect fill="#DEE6F1" height="24" width="47" x="306.5" y="90" />
<rect fill="none" height="24" stroke="#405C86" stroke-width="2" width="96" x="282" y="90" />
<rect fill="#DEE6F1" height="24" width="47" x="210.5" y="90" />
<rect fill="none" height="24" stroke="#405C86" stroke-width="2" width="96" x="186" y="90" />
<rect fill="#DEE6F1" height="24" width="47" x="114.5" y="90" />
<rect fill="none" height="24" stroke="#405C86" stroke-width="2" width="96" x="90" y="90" />
<text class="register-name" x="80" y="102">Zd</text>
<text class="intrinsic-name" x="80" y="114">returns</text>
<text class="register-number" x="10" y="102">(2)</text>
<line marker-end="url(#arrowhead)" stroke="none" x1="786" x2="810" y1="42.5" y2="89" />
<line marker-end="url(#arrowhead)" stroke="none" x1="690" x2="714" y1="42.5" y2="89" />
<line marker-end="url(#arrowhead)" stroke="none" x1="594" x2="618" y1="42.5" y2="89" />
<line marker-end="url(#arrowhead)" stroke="none" x1="498" x2="522" y1="42.5" y2="89" />
<line marker-end="url(#arrowhead)" stroke="none" x1="402" x2="426" y1="42.5" y2="89" />
<line marker-end="url(#arrowhead)" stroke="none" x1="306" x2="330" y1="42.5" y2="89" />
<line marker-end="url(#arrowhead)" stroke="none" x1="210" x2="234" y1="42.5" y2="89" />
<line marker-end="url(#arrowhead)" stroke="none" x1="114" x2="138" y1="42.5" y2="89" />
</svg>