<svg xmlns="http://www.w3.org/2000/svg" viewBox="0 0 3174 123">
<style>
.label { font: 14px Helvetica; dominant-baseline: middle; text-anchor: middle; }
.title-left { font: 12px Helvetica; dominant-baseline: middle; }
.title-right { font: 12px Helvetica; dominant-baseline: middle; text-anchor: end; }
.title-intrinsic { font: 12px Helvetica; dominant-baseline: middle; text-anchor: middle; fill: #6778ED; }
.title { font: 12px Helvetica; dominant-baseline: middle; text-anchor: middle; }
.title-unused { font: 12px Helvetica; dominant-baseline: middle; text-anchor: middle; fill: #AAA; }
.register-name { font: 14px Helvetica; dominant-baseline: middle; text-anchor: end; font-style: italic; }
.memory-name { font: 14px Helvetica; dominant-baseline: middle; text-anchor: end; }
.register-number { font: 14px Helvetica; dominant-baseline: middle; text-anchor: start; }
.intrinsic-name { font: 14px Helvetica; dominant-baseline: middle; text-anchor: end; fill: #6778ED; }
.intrinsic-color { fill: #6778ED; }
.small-label { font: 12px Helvetica; dominant-baseline: middle; text-anchor: middle; }
.label-10px { font: 10px Helvetica; dominant-baseline: middle; text-anchor: middle; }
.smaller-label { font: 9px Helvetica; dominant-baseline: middle; text-anchor: middle; }
.label-6px { font: 6px Helvetica; dominant-baseline: middle; text-anchor: middle; }
.label-7px { font: 7px Helvetica; dominant-baseline: middle; text-anchor: middle; }
.unused { fill: #AAA; }
.dim { fill: #888; }
</style>
<defs>
<marker id="arrowhead" markerWidth="10.75" markerHeight="24.5" refX="9.0" refY="6.125" orient="auto">
<polyline points="0.5 0.5, 8.75 6.125, 0.5 11.75" stroke="#567DB6" stroke-width="1" fill="none"/>
</marker>
</defs>
<line stroke="#567DB6" stroke-width="1" x1="3138" x2="3114" y1="42.5" y2="89" />
<line stroke="#567DB6" stroke-width="1" x1="3042" x2="3018" y1="42.5" y2="89" />
<line stroke="#567DB6" stroke-width="1" x1="2946" x2="2922" y1="42.5" y2="89" />
<line stroke="#567DB6" stroke-width="1" x1="2850" x2="2826" y1="42.5" y2="89" />
<line stroke="#567DB6" stroke-width="1" x1="2754" x2="2730" y1="42.5" y2="89" />
<line stroke="#567DB6" stroke-width="1" x1="2658" x2="2634" y1="42.5" y2="89" />
<line stroke="#567DB6" stroke-width="1" x1="2562" x2="2538" y1="42.5" y2="89" />
<line stroke="#567DB6" stroke-width="1" x1="2466" x2="2442" y1="42.5" y2="89" />
<line stroke="#567DB6" stroke-width="1" x1="2370" x2="2346" y1="42.5" y2="89" />
<line stroke="#567DB6" stroke-width="1" x1="2274" x2="2250" y1="42.5" y2="89" />
<line stroke="#567DB6" stroke-width="1" x1="2178" x2="2154" y1="42.5" y2="89" />
<line stroke="#567DB6" stroke-width="1" x1="2082" x2="2058" y1="42.5" y2="89" />
<line stroke="#567DB6" stroke-width="1" x1="1986" x2="1962" y1="42.5" y2="89" />
<line stroke="#567DB6" stroke-width="1" x1="1890" x2="1866" y1="42.5" y2="89" />
<line stroke="#567DB6" stroke-width="1" x1="1794" x2="1770" y1="42.5" y2="89" />
<line stroke="#567DB6" stroke-width="1" x1="1698" x2="1674" y1="42.5" y2="89" />
<line stroke="#567DB6" stroke-width="1" x1="1602" x2="1578" y1="42.5" y2="89" />
<line stroke="#567DB6" stroke-width="1" x1="1506" x2="1482" y1="42.5" y2="89" />
<line stroke="#567DB6" stroke-width="1" x1="1410" x2="1386" y1="42.5" y2="89" />
<line stroke="#567DB6" stroke-width="1" x1="1314" x2="1290" y1="42.5" y2="89" />
<line stroke="#567DB6" stroke-width="1" x1="1218" x2="1194" y1="42.5" y2="89" />
<line stroke="#567DB6" stroke-width="1" x1="1122" x2="1098" y1="42.5" y2="89" />
<line stroke="#567DB6" stroke-width="1" x1="1026" x2="1002" y1="42.5" y2="89" />
<line stroke="#567DB6" stroke-width="1" x1="930" x2="906" y1="42.5" y2="89" />
<line stroke="#567DB6" stroke-width="1" x1="834" x2="810" y1="42.5" y2="89" />
<line stroke="#567DB6" stroke-width="1" x1="738" x2="714" y1="42.5" y2="89" />
<line stroke="#567DB6" stroke-width="1" x1="642" x2="618" y1="42.5" y2="89" />
<line stroke="#567DB6" stroke-width="1" x1="546" x2="522" y1="42.5" y2="89" />
<line stroke="#567DB6" stroke-width="1" x1="450" x2="426" y1="42.5" y2="89" />
<line stroke="#567DB6" stroke-width="1" x1="354" x2="330" y1="42.5" y2="89" />
<line stroke="#567DB6" stroke-width="1" x1="258" x2="234" y1="42.5" y2="89" />
<line stroke="#567DB6" stroke-width="1" x1="162" x2="138" y1="42.5" y2="89" />
<text class="title-left" x="90" y="9">upper</text>
<text class="title-right" x="3162" y="9">lower</text>
<rect fill="#DEE6F1" height="24" width="48" x="3114" y="18" />
<rect fill="none" height="24" stroke="#405C86" stroke-width="2" width="48" x="3114" y="18" />
<rect fill="none" height="24" stroke="#405C86" stroke-dasharray="3 1" stroke-dashoffset="1.5" stroke-width="1" width="48" x="3066" y="18" />
<text class="label unused" x="3090" y="31"></text>
<rect fill="#DEE6F1" height="24" width="48" x="3018" y="18" />
<rect fill="none" height="24" stroke="#405C86" stroke-width="2" width="48" x="3018" y="18" />
<rect fill="none" height="24" stroke="#405C86" stroke-dasharray="3 1" stroke-dashoffset="1.5" stroke-width="1" width="48" x="2970" y="18" />
<text class="label unused" x="2994" y="31"></text>
<rect fill="#DEE6F1" height="24" width="48" x="2922" y="18" />
<rect fill="none" height="24" stroke="#405C86" stroke-width="2" width="48" x="2922" y="18" />
<rect fill="none" height="24" stroke="#405C86" stroke-dasharray="3 1" stroke-dashoffset="1.5" stroke-width="1" width="48" x="2874" y="18" />
<text class="label unused" x="2898" y="31"></text>
<rect fill="#DEE6F1" height="24" width="48" x="2826" y="18" />
<rect fill="none" height="24" stroke="#405C86" stroke-width="2" width="48" x="2826" y="18" />
<rect fill="none" height="24" stroke="#405C86" stroke-dasharray="3 1" stroke-dashoffset="1.5" stroke-width="1" width="48" x="2778" y="18" />
<text class="label unused" x="2802" y="31"></text>
<rect fill="#DEE6F1" height="24" width="48" x="2730" y="18" />
<rect fill="none" height="24" stroke="#405C86" stroke-width="2" width="48" x="2730" y="18" />
<rect fill="none" height="24" stroke="#405C86" stroke-dasharray="3 1" stroke-dashoffset="1.5" stroke-width="1" width="48" x="2682" y="18" />
<text class="label unused" x="2706" y="31"></text>
<rect fill="#DEE6F1" height="24" width="48" x="2634" y="18" />
<rect fill="none" height="24" stroke="#405C86" stroke-width="2" width="48" x="2634" y="18" />
<rect fill="none" height="24" stroke="#405C86" stroke-dasharray="3 1" stroke-dashoffset="1.5" stroke-width="1" width="48" x="2586" y="18" />
<text class="label unused" x="2610" y="31"></text>
<rect fill="#DEE6F1" height="24" width="48" x="2538" y="18" />
<rect fill="none" height="24" stroke="#405C86" stroke-width="2" width="48" x="2538" y="18" />
<rect fill="none" height="24" stroke="#405C86" stroke-dasharray="3 1" stroke-dashoffset="1.5" stroke-width="1" width="48" x="2490" y="18" />
<text class="label unused" x="2514" y="31"></text>
<rect fill="#DEE6F1" height="24" width="48" x="2442" y="18" />
<rect fill="none" height="24" stroke="#405C86" stroke-width="2" width="48" x="2442" y="18" />
<rect fill="none" height="24" stroke="#405C86" stroke-dasharray="3 1" stroke-dashoffset="1.5" stroke-width="1" width="48" x="2394" y="18" />
<text class="label unused" x="2418" y="31"></text>
<rect fill="#DEE6F1" height="24" width="48" x="2346" y="18" />
<rect fill="none" height="24" stroke="#405C86" stroke-width="2" width="48" x="2346" y="18" />
<rect fill="none" height="24" stroke="#405C86" stroke-dasharray="3 1" stroke-dashoffset="1.5" stroke-width="1" width="48" x="2298" y="18" />
<text class="label unused" x="2322" y="31"></text>
<rect fill="#DEE6F1" height="24" width="48" x="2250" y="18" />
<rect fill="none" height="24" stroke="#405C86" stroke-width="2" width="48" x="2250" y="18" />
<rect fill="none" height="24" stroke="#405C86" stroke-dasharray="3 1" stroke-dashoffset="1.5" stroke-width="1" width="48" x="2202" y="18" />
<text class="label unused" x="2226" y="31"></text>
<rect fill="#DEE6F1" height="24" width="48" x="2154" y="18" />
<rect fill="none" height="24" stroke="#405C86" stroke-width="2" width="48" x="2154" y="18" />
<rect fill="none" height="24" stroke="#405C86" stroke-dasharray="3 1" stroke-dashoffset="1.5" stroke-width="1" width="48" x="2106" y="18" />
<text class="label unused" x="2130" y="31"></text>
<rect fill="#DEE6F1" height="24" width="48" x="2058" y="18" />
<rect fill="none" height="24" stroke="#405C86" stroke-width="2" width="48" x="2058" y="18" />
<rect fill="none" height="24" stroke="#405C86" stroke-dasharray="3 1" stroke-dashoffset="1.5" stroke-width="1" width="48" x="2010" y="18" />
<text class="label unused" x="2034" y="31"></text>
<rect fill="#DEE6F1" height="24" width="48" x="1962" y="18" />
<rect fill="none" height="24" stroke="#405C86" stroke-width="2" width="48" x="1962" y="18" />
<rect fill="none" height="24" stroke="#405C86" stroke-dasharray="3 1" stroke-dashoffset="1.5" stroke-width="1" width="48" x="1914" y="18" />
<text class="label unused" x="1938" y="31"></text>
<rect fill="#DEE6F1" height="24" width="48" x="1866" y="18" />
<rect fill="none" height="24" stroke="#405C86" stroke-width="2" width="48" x="1866" y="18" />
<rect fill="none" height="24" stroke="#405C86" stroke-dasharray="3 1" stroke-dashoffset="1.5" stroke-width="1" width="48" x="1818" y="18" />
<text class="label unused" x="1842" y="31"></text>
<rect fill="#DEE6F1" height="24" width="48" x="1770" y="18" />
<rect fill="none" height="24" stroke="#405C86" stroke-width="2" width="48" x="1770" y="18" />
<rect fill="none" height="24" stroke="#405C86" stroke-dasharray="3 1" stroke-dashoffset="1.5" stroke-width="1" width="48" x="1722" y="18" />
<text class="label unused" x="1746" y="31"></text>
<rect fill="#DEE6F1" height="24" width="48" x="1674" y="18" />
<rect fill="none" height="24" stroke="#405C86" stroke-width="2" width="48" x="1674" y="18" />
<rect fill="none" height="24" stroke="#405C86" stroke-dasharray="3 1" stroke-dashoffset="1.5" stroke-width="1" width="48" x="1626" y="18" />
<text class="label unused" x="1650" y="31"></text>
<rect fill="#DEE6F1" height="24" width="48" x="1578" y="18" />
<rect fill="none" height="24" stroke="#405C86" stroke-width="2" width="48" x="1578" y="18" />
<rect fill="none" height="24" stroke="#405C86" stroke-dasharray="3 1" stroke-dashoffset="1.5" stroke-width="1" width="48" x="1530" y="18" />
<text class="label unused" x="1554" y="31"></text>
<rect fill="#DEE6F1" height="24" width="48" x="1482" y="18" />
<rect fill="none" height="24" stroke="#405C86" stroke-width="2" width="48" x="1482" y="18" />
<rect fill="none" height="24" stroke="#405C86" stroke-dasharray="3 1" stroke-dashoffset="1.5" stroke-width="1" width="48" x="1434" y="18" />
<text class="label unused" x="1458" y="31"></text>
<rect fill="#DEE6F1" height="24" width="48" x="1386" y="18" />
<rect fill="none" height="24" stroke="#405C86" stroke-width="2" width="48" x="1386" y="18" />
<rect fill="none" height="24" stroke="#405C86" stroke-dasharray="3 1" stroke-dashoffset="1.5" stroke-width="1" width="48" x="1338" y="18" />
<text class="label unused" x="1362" y="31"></text>
<rect fill="#DEE6F1" height="24" width="48" x="1290" y="18" />
<rect fill="none" height="24" stroke="#405C86" stroke-width="2" width="48" x="1290" y="18" />
<rect fill="none" height="24" stroke="#405C86" stroke-dasharray="3 1" stroke-dashoffset="1.5" stroke-width="1" width="48" x="1242" y="18" />
<text class="label unused" x="1266" y="31"></text>
<rect fill="#DEE6F1" height="24" width="48" x="1194" y="18" />
<rect fill="none" height="24" stroke="#405C86" stroke-width="2" width="48" x="1194" y="18" />
<rect fill="none" height="24" stroke="#405C86" stroke-dasharray="3 1" stroke-dashoffset="1.5" stroke-width="1" width="48" x="1146" y="18" />
<text class="label unused" x="1170" y="31"></text>
<rect fill="#DEE6F1" height="24" width="48" x="1098" y="18" />
<rect fill="none" height="24" stroke="#405C86" stroke-width="2" width="48" x="1098" y="18" />
<rect fill="none" height="24" stroke="#405C86" stroke-dasharray="3 1" stroke-dashoffset="1.5" stroke-width="1" width="48" x="1050" y="18" />
<text class="label unused" x="1074" y="31"></text>
<rect fill="#DEE6F1" height="24" width="48" x="1002" y="18" />
<rect fill="none" height="24" stroke="#405C86" stroke-width="2" width="48" x="1002" y="18" />
<rect fill="none" height="24" stroke="#405C86" stroke-dasharray="3 1" stroke-dashoffset="1.5" stroke-width="1" width="48" x="954" y="18" />
<text class="label unused" x="978" y="31"></text>
<rect fill="#DEE6F1" height="24" width="48" x="906" y="18" />
<rect fill="none" height="24" stroke="#405C86" stroke-width="2" width="48" x="906" y="18" />
<rect fill="none" height="24" stroke="#405C86" stroke-dasharray="3 1" stroke-dashoffset="1.5" stroke-width="1" width="48" x="858" y="18" />
<text class="label unused" x="882" y="31"></text>
<rect fill="#DEE6F1" height="24" width="48" x="810" y="18" />
<rect fill="none" height="24" stroke="#405C86" stroke-width="2" width="48" x="810" y="18" />
<rect fill="none" height="24" stroke="#405C86" stroke-dasharray="3 1" stroke-dashoffset="1.5" stroke-width="1" width="48" x="762" y="18" />
<text class="label unused" x="786" y="31"></text>
<rect fill="#DEE6F1" height="24" width="48" x="714" y="18" />
<rect fill="none" height="24" stroke="#405C86" stroke-width="2" width="48" x="714" y="18" />
<rect fill="none" height="24" stroke="#405C86" stroke-dasharray="3 1" stroke-dashoffset="1.5" stroke-width="1" width="48" x="666" y="18" />
<text class="label unused" x="690" y="31"></text>
<rect fill="#DEE6F1" height="24" width="48" x="618" y="18" />
<rect fill="none" height="24" stroke="#405C86" stroke-width="2" width="48" x="618" y="18" />
<rect fill="none" height="24" stroke="#405C86" stroke-dasharray="3 1" stroke-dashoffset="1.5" stroke-width="1" width="48" x="570" y="18" />
<text class="label unused" x="594" y="31"></text>
<rect fill="#DEE6F1" height="24" width="48" x="522" y="18" />
<rect fill="none" height="24" stroke="#405C86" stroke-width="2" width="48" x="522" y="18" />
<rect fill="none" height="24" stroke="#405C86" stroke-dasharray="3 1" stroke-dashoffset="1.5" stroke-width="1" width="48" x="474" y="18" />
<text class="label unused" x="498" y="31"></text>
<rect fill="#DEE6F1" height="24" width="48" x="426" y="18" />
<rect fill="none" height="24" stroke="#405C86" stroke-width="2" width="48" x="426" y="18" />
<rect fill="none" height="24" stroke="#405C86" stroke-dasharray="3 1" stroke-dashoffset="1.5" stroke-width="1" width="48" x="378" y="18" />
<text class="label unused" x="402" y="31"></text>
<rect fill="#DEE6F1" height="24" width="48" x="330" y="18" />
<rect fill="none" height="24" stroke="#405C86" stroke-width="2" width="48" x="330" y="18" />
<rect fill="none" height="24" stroke="#405C86" stroke-dasharray="3 1" stroke-dashoffset="1.5" stroke-width="1" width="48" x="282" y="18" />
<text class="label unused" x="306" y="31"></text>
<rect fill="#DEE6F1" height="24" width="48" x="234" y="18" />
<rect fill="none" height="24" stroke="#405C86" stroke-width="2" width="48" x="234" y="18" />
<rect fill="none" height="24" stroke="#405C86" stroke-dasharray="3 1" stroke-dashoffset="1.5" stroke-width="1" width="48" x="186" y="18" />
<text class="label unused" x="210" y="31"></text>
<rect fill="#DEE6F1" height="24" width="48" x="138" y="18" />
<rect fill="none" height="24" stroke="#405C86" stroke-width="2" width="48" x="138" y="18" />
<rect fill="none" height="24" stroke="#405C86" stroke-dasharray="3 1" stroke-dashoffset="1.5" stroke-width="1" width="48" x="90" y="18" />
<text class="label unused" x="114" y="31"></text>
<text class="register-name" x="80" y="30">Zn</text>
<text class="intrinsic-name" x="80" y="42">op1</text>
<text class="register-number" x="10" y="30">(1)</text>
<rect fill="#DEE6F1" height="24" width="47" x="3090.5" y="90" />
<rect fill="none" height="24" stroke="#405C86" stroke-width="2" width="96" x="3066" y="90" />
<rect fill="#DEE6F1" height="24" width="47" x="2994.5" y="90" />
<rect fill="none" height="24" stroke="#405C86" stroke-width="2" width="96" x="2970" y="90" />
<rect fill="#DEE6F1" height="24" width="47" x="2898.5" y="90" />
<rect fill="none" height="24" stroke="#405C86" stroke-width="2" width="96" x="2874" y="90" />
<rect fill="#DEE6F1" height="24" width="47" x="2802.5" y="90" />
<rect fill="none" height="24" stroke="#405C86" stroke-width="2" width="96" x="2778" y="90" />
<rect fill="#DEE6F1" height="24" width="47" x="2706.5" y="90" />
<rect fill="none" height="24" stroke="#405C86" stroke-width="2" width="96" x="2682" y="90" />
<rect fill="#DEE6F1" height="24" width="47" x="2610.5" y="90" />
<rect fill="none" height="24" stroke="#405C86" stroke-width="2" width="96" x="2586" y="90" />
<rect fill="#DEE6F1" height="24" width="47" x="2514.5" y="90" />
<rect fill="none" height="24" stroke="#405C86" stroke-width="2" width="96" x="2490" y="90" />
<rect fill="#DEE6F1" height="24" width="47" x="2418.5" y="90" />
<rect fill="none" height="24" stroke="#405C86" stroke-width="2" width="96" x="2394" y="90" />
<rect fill="#DEE6F1" height="24" width="47" x="2322.5" y="90" />
<rect fill="none" height="24" stroke="#405C86" stroke-width="2" width="96" x="2298" y="90" />
<rect fill="#DEE6F1" height="24" width="47" x="2226.5" y="90" />
<rect fill="none" height="24" stroke="#405C86" stroke-width="2" width="96" x="2202" y="90" />
<rect fill="#DEE6F1" height="24" width="47" x="2130.5" y="90" />
<rect fill="none" height="24" stroke="#405C86" stroke-width="2" width="96" x="2106" y="90" />
<rect fill="#DEE6F1" height="24" width="47" x="2034.5" y="90" />
<rect fill="none" height="24" stroke="#405C86" stroke-width="2" width="96" x="2010" y="90" />
<rect fill="#DEE6F1" height="24" width="47" x="1938.5" y="90" />
<rect fill="none" height="24" stroke="#405C86" stroke-width="2" width="96" x="1914" y="90" />
<rect fill="#DEE6F1" height="24" width="47" x="1842.5" y="90" />
<rect fill="none" height="24" stroke="#405C86" stroke-width="2" width="96" x="1818" y="90" />
<rect fill="#DEE6F1" height="24" width="47" x="1746.5" y="90" />
<rect fill="none" height="24" stroke="#405C86" stroke-width="2" width="96" x="1722" y="90" />
<rect fill="#DEE6F1" height="24" width="47" x="1650.5" y="90" />
<rect fill="none" height="24" stroke="#405C86" stroke-width="2" width="96" x="1626" y="90" />
<rect fill="#DEE6F1" height="24" width="47" x="1554.5" y="90" />
<rect fill="none" height="24" stroke="#405C86" stroke-width="2" width="96" x="1530" y="90" />
<rect fill="#DEE6F1" height="24" width="47" x="1458.5" y="90" />
<rect fill="none" height="24" stroke="#405C86" stroke-width="2" width="96" x="1434" y="90" />
<rect fill="#DEE6F1" height="24" width="47" x="1362.5" y="90" />
<rect fill="none" height="24" stroke="#405C86" stroke-width="2" width="96" x="1338" y="90" />
<rect fill="#DEE6F1" height="24" width="47" x="1266.5" y="90" />
<rect fill="none" height="24" stroke="#405C86" stroke-width="2" width="96" x="1242" y="90" />
<rect fill="#DEE6F1" height="24" width="47" x="1170.5" y="90" />
<rect fill="none" height="24" stroke="#405C86" stroke-width="2" width="96" x="1146" y="90" />
<rect fill="#DEE6F1" height="24" width="47" x="1074.5" y="90" />
<rect fill="none" height="24" stroke="#405C86" stroke-width="2" width="96" x="1050" y="90" />
<rect fill="#DEE6F1" height="24" width="47" x="978.5" y="90" />
<rect fill="none" height="24" stroke="#405C86" stroke-width="2" width="96" x="954" y="90" />
<rect fill="#DEE6F1" height="24" width="47" x="882.5" y="90" />
<rect fill="none" height="24" stroke="#405C86" stroke-width="2" width="96" x="858" y="90" />
<rect fill="#DEE6F1" height="24" width="47" x="786.5" y="90" />
<rect fill="none" height="24" stroke="#405C86" stroke-width="2" width="96" x="762" y="90" />
<rect fill="#DEE6F1" height="24" width="47" x="690.5" y="90" />
<rect fill="none" height="24" stroke="#405C86" stroke-width="2" width="96" x="666" y="90" />
<rect fill="#DEE6F1" height="24" width="47" x="594.5" y="90" />
<rect fill="none" height="24" stroke="#405C86" stroke-width="2" width="96" x="570" y="90" />
<rect fill="#DEE6F1" height="24" width="47" x="498.5" y="90" />
<rect fill="none" height="24" stroke="#405C86" stroke-width="2" width="96" x="474" y="90" />
<rect fill="#DEE6F1" height="24" width="47" x="402.5" y="90" />
<rect fill="none" height="24" stroke="#405C86" stroke-width="2" width="96" x="378" y="90" />
<rect fill="#DEE6F1" height="24" width="47" x="306.5" y="90" />
<rect fill="none" height="24" stroke="#405C86" stroke-width="2" width="96" x="282" y="90" />
<rect fill="#DEE6F1" height="24" width="47" x="210.5" y="90" />
<rect fill="none" height="24" stroke="#405C86" stroke-width="2" width="96" x="186" y="90" />
<rect fill="#DEE6F1" height="24" width="47" x="114.5" y="90" />
<rect fill="none" height="24" stroke="#405C86" stroke-width="2" width="96" x="90" y="90" />
<text class="register-name" x="80" y="102">Zd</text>
<text class="intrinsic-name" x="80" y="114">returns</text>
<text class="register-number" x="10" y="102">(2)</text>
<line marker-end="url(#arrowhead)" stroke="none" x1="3138" x2="3114" y1="42.5" y2="89" />
<line marker-end="url(#arrowhead)" stroke="none" x1="3042" x2="3018" y1="42.5" y2="89" />
<line marker-end="url(#arrowhead)" stroke="none" x1="2946" x2="2922" y1="42.5" y2="89" />
<line marker-end="url(#arrowhead)" stroke="none" x1="2850" x2="2826" y1="42.5" y2="89" />
<line marker-end="url(#arrowhead)" stroke="none" x1="2754" x2="2730" y1="42.5" y2="89" />
<line marker-end="url(#arrowhead)" stroke="none" x1="2658" x2="2634" y1="42.5" y2="89" />
<line marker-end="url(#arrowhead)" stroke="none" x1="2562" x2="2538" y1="42.5" y2="89" />
<line marker-end="url(#arrowhead)" stroke="none" x1="2466" x2="2442" y1="42.5" y2="89" />
<line marker-end="url(#arrowhead)" stroke="none" x1="2370" x2="2346" y1="42.5" y2="89" />
<line marker-end="url(#arrowhead)" stroke="none" x1="2274" x2="2250" y1="42.5" y2="89" />
<line marker-end="url(#arrowhead)" stroke="none" x1="2178" x2="2154" y1="42.5" y2="89" />
<line marker-end="url(#arrowhead)" stroke="none" x1="2082" x2="2058" y1="42.5" y2="89" />
<line marker-end="url(#arrowhead)" stroke="none" x1="1986" x2="1962" y1="42.5" y2="89" />
<line marker-end="url(#arrowhead)" stroke="none" x1="1890" x2="1866" y1="42.5" y2="89" />
<line marker-end="url(#arrowhead)" stroke="none" x1="1794" x2="1770" y1="42.5" y2="89" />
<line marker-end="url(#arrowhead)" stroke="none" x1="1698" x2="1674" y1="42.5" y2="89" />
<line marker-end="url(#arrowhead)" stroke="none" x1="1602" x2="1578" y1="42.5" y2="89" />
<line marker-end="url(#arrowhead)" stroke="none" x1="1506" x2="1482" y1="42.5" y2="89" />
<line marker-end="url(#arrowhead)" stroke="none" x1="1410" x2="1386" y1="42.5" y2="89" />
<line marker-end="url(#arrowhead)" stroke="none" x1="1314" x2="1290" y1="42.5" y2="89" />
<line marker-end="url(#arrowhead)" stroke="none" x1="1218" x2="1194" y1="42.5" y2="89" />
<line marker-end="url(#arrowhead)" stroke="none" x1="1122" x2="1098" y1="42.5" y2="89" />
<line marker-end="url(#arrowhead)" stroke="none" x1="1026" x2="1002" y1="42.5" y2="89" />
<line marker-end="url(#arrowhead)" stroke="none" x1="930" x2="906" y1="42.5" y2="89" />
<line marker-end="url(#arrowhead)" stroke="none" x1="834" x2="810" y1="42.5" y2="89" />
<line marker-end="url(#arrowhead)" stroke="none" x1="738" x2="714" y1="42.5" y2="89" />
<line marker-end="url(#arrowhead)" stroke="none" x1="642" x2="618" y1="42.5" y2="89" />
<line marker-end="url(#arrowhead)" stroke="none" x1="546" x2="522" y1="42.5" y2="89" />
<line marker-end="url(#arrowhead)" stroke="none" x1="450" x2="426" y1="42.5" y2="89" />
<line marker-end="url(#arrowhead)" stroke="none" x1="354" x2="330" y1="42.5" y2="89" />
<line marker-end="url(#arrowhead)" stroke="none" x1="258" x2="234" y1="42.5" y2="89" />
<line marker-end="url(#arrowhead)" stroke="none" x1="162" x2="138" y1="42.5" y2="89" />
</svg>