<svg xmlns="http://www.w3.org/2000/svg" viewBox="0 0 6246 123">
<style>
.label { font: 14px Helvetica; dominant-baseline: middle; text-anchor: middle; }
.title-left { font: 12px Helvetica; dominant-baseline: middle; }
.title-right { font: 12px Helvetica; dominant-baseline: middle; text-anchor: end; }
.title-intrinsic { font: 12px Helvetica; dominant-baseline: middle; text-anchor: middle; fill: #6778ED; }
.title { font: 12px Helvetica; dominant-baseline: middle; text-anchor: middle; }
.title-unused { font: 12px Helvetica; dominant-baseline: middle; text-anchor: middle; fill: #AAA; }
.register-name { font: 14px Helvetica; dominant-baseline: middle; text-anchor: end; font-style: italic; }
.memory-name { font: 14px Helvetica; dominant-baseline: middle; text-anchor: end; }
.register-number { font: 14px Helvetica; dominant-baseline: middle; text-anchor: start; }
.intrinsic-name { font: 14px Helvetica; dominant-baseline: middle; text-anchor: end; fill: #6778ED; }
.intrinsic-color { fill: #6778ED; }
.small-label { font: 12px Helvetica; dominant-baseline: middle; text-anchor: middle; }
.label-10px { font: 10px Helvetica; dominant-baseline: middle; text-anchor: middle; }
.smaller-label { font: 9px Helvetica; dominant-baseline: middle; text-anchor: middle; }
.label-6px { font: 6px Helvetica; dominant-baseline: middle; text-anchor: middle; }
.label-7px { font: 7px Helvetica; dominant-baseline: middle; text-anchor: middle; }
.unused { fill: #AAA; }
.dim { fill: #888; }
</style>
<defs>
<marker id="arrowhead" markerWidth="10.75" markerHeight="24.5" refX="9.0" refY="6.125" orient="auto">
<polyline points="0.5 0.5, 8.75 6.125, 0.5 11.75" stroke="#567DB6" stroke-width="1" fill="none"/>
</marker>
</defs>
<line stroke="#567DB6" stroke-width="1" x1="6221.625" x2="6221.625" y1="42.5" y2="89" />
<line stroke="#567DB6" stroke-width="1" x1="6029.625" x2="6029.625" y1="42.5" y2="89" />
<line stroke="#567DB6" stroke-width="1" x1="5837.625" x2="5837.625" y1="42.5" y2="89" />
<line stroke="#567DB6" stroke-width="1" x1="5645.625" x2="5645.625" y1="42.5" y2="89" />
<line stroke="#567DB6" stroke-width="1" x1="5453.625" x2="5453.625" y1="42.5" y2="89" />
<line stroke="#567DB6" stroke-width="1" x1="5261.625" x2="5261.625" y1="42.5" y2="89" />
<line stroke="#567DB6" stroke-width="1" x1="5069.625" x2="5069.625" y1="42.5" y2="89" />
<line stroke="#567DB6" stroke-width="1" x1="4877.625" x2="4877.625" y1="42.5" y2="89" />
<line stroke="#567DB6" stroke-width="1" x1="4685.625" x2="4685.625" y1="42.5" y2="89" />
<line stroke="#567DB6" stroke-width="1" x1="4493.625" x2="4493.625" y1="42.5" y2="89" />
<line stroke="#567DB6" stroke-width="1" x1="4301.625" x2="4301.625" y1="42.5" y2="89" />
<line stroke="#567DB6" stroke-width="1" x1="4109.625" x2="4109.625" y1="42.5" y2="89" />
<line stroke="#567DB6" stroke-width="1" x1="3917.625" x2="3917.625" y1="42.5" y2="89" />
<line stroke="#567DB6" stroke-width="1" x1="3725.625" x2="3725.625" y1="42.5" y2="89" />
<line stroke="#567DB6" stroke-width="1" x1="3533.625" x2="3533.625" y1="42.5" y2="89" />
<line stroke="#567DB6" stroke-width="1" x1="3341.625" x2="3341.625" y1="42.5" y2="89" />
<line stroke="#567DB6" stroke-width="1" x1="3149.625" x2="3149.625" y1="42.5" y2="89" />
<line stroke="#567DB6" stroke-width="1" x1="2957.625" x2="2957.625" y1="42.5" y2="89" />
<line stroke="#567DB6" stroke-width="1" x1="2765.625" x2="2765.625" y1="42.5" y2="89" />
<line stroke="#567DB6" stroke-width="1" x1="2573.625" x2="2573.625" y1="42.5" y2="89" />
<line stroke="#567DB6" stroke-width="1" x1="2381.625" x2="2381.625" y1="42.5" y2="89" />
<line stroke="#567DB6" stroke-width="1" x1="2189.625" x2="2189.625" y1="42.5" y2="89" />
<line stroke="#567DB6" stroke-width="1" x1="1997.625" x2="1997.625" y1="42.5" y2="89" />
<line stroke="#567DB6" stroke-width="1" x1="1805.625" x2="1805.625" y1="42.5" y2="89" />
<line stroke="#567DB6" stroke-width="1" x1="1613.625" x2="1613.625" y1="42.5" y2="89" />
<line stroke="#567DB6" stroke-width="1" x1="1421.625" x2="1421.625" y1="42.5" y2="89" />
<line stroke="#567DB6" stroke-width="1" x1="1229.625" x2="1229.625" y1="42.5" y2="89" />
<line stroke="#567DB6" stroke-width="1" x1="1037.625" x2="1037.625" y1="42.5" y2="89" />
<line stroke="#567DB6" stroke-width="1" x1="845.625" x2="845.625" y1="42.5" y2="89" />
<line stroke="#567DB6" stroke-width="1" x1="653.625" x2="653.625" y1="42.5" y2="89" />
<line stroke="#567DB6" stroke-width="1" x1="461.625" x2="461.625" y1="42.5" y2="89" />
<line stroke="#567DB6" stroke-width="1" x1="269.625" x2="269.625" y1="42.5" y2="89" />
<text class="title-left" x="90" y="9">upper</text>
<text class="title-right" x="6234" y="9">lower</text>
<rect fill="#DEE6F1" height="24" width="24.75" x="6209.25" y="18" />
<rect fill="none" height="24" stroke="#405C86" stroke-width="2" width="192" x="6042" y="18" />
<rect fill="#DEE6F1" height="24" width="24.75" x="6017.25" y="18" />
<rect fill="none" height="24" stroke="#405C86" stroke-width="2" width="192" x="5850" y="18" />
<rect fill="#DEE6F1" height="24" width="24.75" x="5825.25" y="18" />
<rect fill="none" height="24" stroke="#405C86" stroke-width="2" width="192" x="5658" y="18" />
<rect fill="#DEE6F1" height="24" width="24.75" x="5633.25" y="18" />
<rect fill="none" height="24" stroke="#405C86" stroke-width="2" width="192" x="5466" y="18" />
<rect fill="#DEE6F1" height="24" width="24.75" x="5441.25" y="18" />
<rect fill="none" height="24" stroke="#405C86" stroke-width="2" width="192" x="5274" y="18" />
<rect fill="#DEE6F1" height="24" width="24.75" x="5249.25" y="18" />
<rect fill="none" height="24" stroke="#405C86" stroke-width="2" width="192" x="5082" y="18" />
<rect fill="#DEE6F1" height="24" width="24.75" x="5057.25" y="18" />
<rect fill="none" height="24" stroke="#405C86" stroke-width="2" width="192" x="4890" y="18" />
<rect fill="#DEE6F1" height="24" width="24.75" x="4865.25" y="18" />
<rect fill="none" height="24" stroke="#405C86" stroke-width="2" width="192" x="4698" y="18" />
<rect fill="#DEE6F1" height="24" width="24.75" x="4673.25" y="18" />
<rect fill="none" height="24" stroke="#405C86" stroke-width="2" width="192" x="4506" y="18" />
<rect fill="#DEE6F1" height="24" width="24.75" x="4481.25" y="18" />
<rect fill="none" height="24" stroke="#405C86" stroke-width="2" width="192" x="4314" y="18" />
<rect fill="#DEE6F1" height="24" width="24.75" x="4289.25" y="18" />
<rect fill="none" height="24" stroke="#405C86" stroke-width="2" width="192" x="4122" y="18" />
<rect fill="#DEE6F1" height="24" width="24.75" x="4097.25" y="18" />
<rect fill="none" height="24" stroke="#405C86" stroke-width="2" width="192" x="3930" y="18" />
<rect fill="#DEE6F1" height="24" width="24.75" x="3905.25" y="18" />
<rect fill="none" height="24" stroke="#405C86" stroke-width="2" width="192" x="3738" y="18" />
<rect fill="#DEE6F1" height="24" width="24.75" x="3713.25" y="18" />
<rect fill="none" height="24" stroke="#405C86" stroke-width="2" width="192" x="3546" y="18" />
<rect fill="#DEE6F1" height="24" width="24.75" x="3521.25" y="18" />
<rect fill="none" height="24" stroke="#405C86" stroke-width="2" width="192" x="3354" y="18" />
<rect fill="#DEE6F1" height="24" width="24.75" x="3329.25" y="18" />
<rect fill="none" height="24" stroke="#405C86" stroke-width="2" width="192" x="3162" y="18" />
<rect fill="#DEE6F1" height="24" width="24.75" x="3137.25" y="18" />
<rect fill="none" height="24" stroke="#405C86" stroke-width="2" width="192" x="2970" y="18" />
<rect fill="#DEE6F1" height="24" width="24.75" x="2945.25" y="18" />
<rect fill="none" height="24" stroke="#405C86" stroke-width="2" width="192" x="2778" y="18" />
<rect fill="#DEE6F1" height="24" width="24.75" x="2753.25" y="18" />
<rect fill="none" height="24" stroke="#405C86" stroke-width="2" width="192" x="2586" y="18" />
<rect fill="#DEE6F1" height="24" width="24.75" x="2561.25" y="18" />
<rect fill="none" height="24" stroke="#405C86" stroke-width="2" width="192" x="2394" y="18" />
<rect fill="#DEE6F1" height="24" width="24.75" x="2369.25" y="18" />
<rect fill="none" height="24" stroke="#405C86" stroke-width="2" width="192" x="2202" y="18" />
<rect fill="#DEE6F1" height="24" width="24.75" x="2177.25" y="18" />
<rect fill="none" height="24" stroke="#405C86" stroke-width="2" width="192" x="2010" y="18" />
<rect fill="#DEE6F1" height="24" width="24.75" x="1985.25" y="18" />
<rect fill="none" height="24" stroke="#405C86" stroke-width="2" width="192" x="1818" y="18" />
<rect fill="#DEE6F1" height="24" width="24.75" x="1793.25" y="18" />
<rect fill="none" height="24" stroke="#405C86" stroke-width="2" width="192" x="1626" y="18" />
<rect fill="#DEE6F1" height="24" width="24.75" x="1601.25" y="18" />
<rect fill="none" height="24" stroke="#405C86" stroke-width="2" width="192" x="1434" y="18" />
<rect fill="#DEE6F1" height="24" width="24.75" x="1409.25" y="18" />
<rect fill="none" height="24" stroke="#405C86" stroke-width="2" width="192" x="1242" y="18" />
<rect fill="#DEE6F1" height="24" width="24.75" x="1217.25" y="18" />
<rect fill="none" height="24" stroke="#405C86" stroke-width="2" width="192" x="1050" y="18" />
<rect fill="#DEE6F1" height="24" width="24.75" x="1025.25" y="18" />
<rect fill="none" height="24" stroke="#405C86" stroke-width="2" width="192" x="858" y="18" />
<rect fill="#DEE6F1" height="24" width="24.75" x="833.25" y="18" />
<rect fill="none" height="24" stroke="#405C86" stroke-width="2" width="192" x="666" y="18" />
<rect fill="#DEE6F1" height="24" width="24.75" x="641.25" y="18" />
<rect fill="none" height="24" stroke="#405C86" stroke-width="2" width="192" x="474" y="18" />
<rect fill="#DEE6F1" height="24" width="24.75" x="449.25" y="18" />
<rect fill="none" height="24" stroke="#405C86" stroke-width="2" width="192" x="282" y="18" />
<rect fill="#DEE6F1" height="24" width="24.75" x="257.25" y="18" />
<rect fill="none" height="24" stroke="#405C86" stroke-width="2" width="192" x="90" y="18" />
<text class="register-name" x="80" y="30">Zn</text>
<text class="intrinsic-name" x="80" y="42">op1</text>
<text class="register-number" x="10" y="30">(1)</text>
<rect fill="#DEE6F1" height="24" width="24.75" x="6209.25" y="90" />
<text class="label" x="6125.625" y="103">0</text>
<rect fill="none" height="24" stroke="#405C86" stroke-width="2" width="192" x="6042" y="90" />
<rect fill="#DEE6F1" height="24" width="24.75" x="6017.25" y="90" />
<text class="label" x="5933.625" y="103">0</text>
<rect fill="none" height="24" stroke="#405C86" stroke-width="2" width="192" x="5850" y="90" />
<rect fill="#DEE6F1" height="24" width="24.75" x="5825.25" y="90" />
<text class="label" x="5741.625" y="103">0</text>
<rect fill="none" height="24" stroke="#405C86" stroke-width="2" width="192" x="5658" y="90" />
<rect fill="#DEE6F1" height="24" width="24.75" x="5633.25" y="90" />
<text class="label" x="5549.625" y="103">0</text>
<rect fill="none" height="24" stroke="#405C86" stroke-width="2" width="192" x="5466" y="90" />
<rect fill="#DEE6F1" height="24" width="24.75" x="5441.25" y="90" />
<text class="label" x="5357.625" y="103">0</text>
<rect fill="none" height="24" stroke="#405C86" stroke-width="2" width="192" x="5274" y="90" />
<rect fill="#DEE6F1" height="24" width="24.75" x="5249.25" y="90" />
<text class="label" x="5165.625" y="103">0</text>
<rect fill="none" height="24" stroke="#405C86" stroke-width="2" width="192" x="5082" y="90" />
<rect fill="#DEE6F1" height="24" width="24.75" x="5057.25" y="90" />
<text class="label" x="4973.625" y="103">0</text>
<rect fill="none" height="24" stroke="#405C86" stroke-width="2" width="192" x="4890" y="90" />
<rect fill="#DEE6F1" height="24" width="24.75" x="4865.25" y="90" />
<text class="label" x="4781.625" y="103">0</text>
<rect fill="none" height="24" stroke="#405C86" stroke-width="2" width="192" x="4698" y="90" />
<rect fill="#DEE6F1" height="24" width="24.75" x="4673.25" y="90" />
<text class="label" x="4589.625" y="103">0</text>
<rect fill="none" height="24" stroke="#405C86" stroke-width="2" width="192" x="4506" y="90" />
<rect fill="#DEE6F1" height="24" width="24.75" x="4481.25" y="90" />
<text class="label" x="4397.625" y="103">0</text>
<rect fill="none" height="24" stroke="#405C86" stroke-width="2" width="192" x="4314" y="90" />
<rect fill="#DEE6F1" height="24" width="24.75" x="4289.25" y="90" />
<text class="label" x="4205.625" y="103">0</text>
<rect fill="none" height="24" stroke="#405C86" stroke-width="2" width="192" x="4122" y="90" />
<rect fill="#DEE6F1" height="24" width="24.75" x="4097.25" y="90" />
<text class="label" x="4013.625" y="103">0</text>
<rect fill="none" height="24" stroke="#405C86" stroke-width="2" width="192" x="3930" y="90" />
<rect fill="#DEE6F1" height="24" width="24.75" x="3905.25" y="90" />
<text class="label" x="3821.625" y="103">0</text>
<rect fill="none" height="24" stroke="#405C86" stroke-width="2" width="192" x="3738" y="90" />
<rect fill="#DEE6F1" height="24" width="24.75" x="3713.25" y="90" />
<text class="label" x="3629.625" y="103">0</text>
<rect fill="none" height="24" stroke="#405C86" stroke-width="2" width="192" x="3546" y="90" />
<rect fill="#DEE6F1" height="24" width="24.75" x="3521.25" y="90" />
<text class="label" x="3437.625" y="103">0</text>
<rect fill="none" height="24" stroke="#405C86" stroke-width="2" width="192" x="3354" y="90" />
<rect fill="#DEE6F1" height="24" width="24.75" x="3329.25" y="90" />
<text class="label" x="3245.625" y="103">0</text>
<rect fill="none" height="24" stroke="#405C86" stroke-width="2" width="192" x="3162" y="90" />
<rect fill="#DEE6F1" height="24" width="24.75" x="3137.25" y="90" />
<text class="label" x="3053.625" y="103">0</text>
<rect fill="none" height="24" stroke="#405C86" stroke-width="2" width="192" x="2970" y="90" />
<rect fill="#DEE6F1" height="24" width="24.75" x="2945.25" y="90" />
<text class="label" x="2861.625" y="103">0</text>
<rect fill="none" height="24" stroke="#405C86" stroke-width="2" width="192" x="2778" y="90" />
<rect fill="#DEE6F1" height="24" width="24.75" x="2753.25" y="90" />
<text class="label" x="2669.625" y="103">0</text>
<rect fill="none" height="24" stroke="#405C86" stroke-width="2" width="192" x="2586" y="90" />
<rect fill="#DEE6F1" height="24" width="24.75" x="2561.25" y="90" />
<text class="label" x="2477.625" y="103">0</text>
<rect fill="none" height="24" stroke="#405C86" stroke-width="2" width="192" x="2394" y="90" />
<rect fill="#DEE6F1" height="24" width="24.75" x="2369.25" y="90" />
<text class="label" x="2285.625" y="103">0</text>
<rect fill="none" height="24" stroke="#405C86" stroke-width="2" width="192" x="2202" y="90" />
<rect fill="#DEE6F1" height="24" width="24.75" x="2177.25" y="90" />
<text class="label" x="2093.625" y="103">0</text>
<rect fill="none" height="24" stroke="#405C86" stroke-width="2" width="192" x="2010" y="90" />
<rect fill="#DEE6F1" height="24" width="24.75" x="1985.25" y="90" />
<text class="label" x="1901.625" y="103">0</text>
<rect fill="none" height="24" stroke="#405C86" stroke-width="2" width="192" x="1818" y="90" />
<rect fill="#DEE6F1" height="24" width="24.75" x="1793.25" y="90" />
<text class="label" x="1709.625" y="103">0</text>
<rect fill="none" height="24" stroke="#405C86" stroke-width="2" width="192" x="1626" y="90" />
<rect fill="#DEE6F1" height="24" width="24.75" x="1601.25" y="90" />
<text class="label" x="1517.625" y="103">0</text>
<rect fill="none" height="24" stroke="#405C86" stroke-width="2" width="192" x="1434" y="90" />
<rect fill="#DEE6F1" height="24" width="24.75" x="1409.25" y="90" />
<text class="label" x="1325.625" y="103">0</text>
<rect fill="none" height="24" stroke="#405C86" stroke-width="2" width="192" x="1242" y="90" />
<rect fill="#DEE6F1" height="24" width="24.75" x="1217.25" y="90" />
<text class="label" x="1133.625" y="103">0</text>
<rect fill="none" height="24" stroke="#405C86" stroke-width="2" width="192" x="1050" y="90" />
<rect fill="#DEE6F1" height="24" width="24.75" x="1025.25" y="90" />
<text class="label" x="941.625" y="103">0</text>
<rect fill="none" height="24" stroke="#405C86" stroke-width="2" width="192" x="858" y="90" />
<rect fill="#DEE6F1" height="24" width="24.75" x="833.25" y="90" />
<text class="label" x="749.625" y="103">0</text>
<rect fill="none" height="24" stroke="#405C86" stroke-width="2" width="192" x="666" y="90" />
<rect fill="#DEE6F1" height="24" width="24.75" x="641.25" y="90" />
<text class="label" x="557.625" y="103">0</text>
<rect fill="none" height="24" stroke="#405C86" stroke-width="2" width="192" x="474" y="90" />
<rect fill="#DEE6F1" height="24" width="24.75" x="449.25" y="90" />
<text class="label" x="365.625" y="103">0</text>
<rect fill="none" height="24" stroke="#405C86" stroke-width="2" width="192" x="282" y="90" />
<rect fill="#DEE6F1" height="24" width="24.75" x="257.25" y="90" />
<text class="label" x="173.625" y="103">0</text>
<rect fill="none" height="24" stroke="#405C86" stroke-width="2" width="192" x="90" y="90" />
<text class="register-name" x="80" y="102">Zd</text>
<text class="intrinsic-name" x="80" y="114">returns</text>
<text class="register-number" x="10" y="102">(2)</text>
<line marker-end="url(#arrowhead)" stroke="none" x1="6221.625" x2="6221.625" y1="42.5" y2="89" />
<line marker-end="url(#arrowhead)" stroke="none" x1="6029.625" x2="6029.625" y1="42.5" y2="89" />
<line marker-end="url(#arrowhead)" stroke="none" x1="5837.625" x2="5837.625" y1="42.5" y2="89" />
<line marker-end="url(#arrowhead)" stroke="none" x1="5645.625" x2="5645.625" y1="42.5" y2="89" />
<line marker-end="url(#arrowhead)" stroke="none" x1="5453.625" x2="5453.625" y1="42.5" y2="89" />
<line marker-end="url(#arrowhead)" stroke="none" x1="5261.625" x2="5261.625" y1="42.5" y2="89" />
<line marker-end="url(#arrowhead)" stroke="none" x1="5069.625" x2="5069.625" y1="42.5" y2="89" />
<line marker-end="url(#arrowhead)" stroke="none" x1="4877.625" x2="4877.625" y1="42.5" y2="89" />
<line marker-end="url(#arrowhead)" stroke="none" x1="4685.625" x2="4685.625" y1="42.5" y2="89" />
<line marker-end="url(#arrowhead)" stroke="none" x1="4493.625" x2="4493.625" y1="42.5" y2="89" />
<line marker-end="url(#arrowhead)" stroke="none" x1="4301.625" x2="4301.625" y1="42.5" y2="89" />
<line marker-end="url(#arrowhead)" stroke="none" x1="4109.625" x2="4109.625" y1="42.5" y2="89" />
<line marker-end="url(#arrowhead)" stroke="none" x1="3917.625" x2="3917.625" y1="42.5" y2="89" />
<line marker-end="url(#arrowhead)" stroke="none" x1="3725.625" x2="3725.625" y1="42.5" y2="89" />
<line marker-end="url(#arrowhead)" stroke="none" x1="3533.625" x2="3533.625" y1="42.5" y2="89" />
<line marker-end="url(#arrowhead)" stroke="none" x1="3341.625" x2="3341.625" y1="42.5" y2="89" />
<line marker-end="url(#arrowhead)" stroke="none" x1="3149.625" x2="3149.625" y1="42.5" y2="89" />
<line marker-end="url(#arrowhead)" stroke="none" x1="2957.625" x2="2957.625" y1="42.5" y2="89" />
<line marker-end="url(#arrowhead)" stroke="none" x1="2765.625" x2="2765.625" y1="42.5" y2="89" />
<line marker-end="url(#arrowhead)" stroke="none" x1="2573.625" x2="2573.625" y1="42.5" y2="89" />
<line marker-end="url(#arrowhead)" stroke="none" x1="2381.625" x2="2381.625" y1="42.5" y2="89" />
<line marker-end="url(#arrowhead)" stroke="none" x1="2189.625" x2="2189.625" y1="42.5" y2="89" />
<line marker-end="url(#arrowhead)" stroke="none" x1="1997.625" x2="1997.625" y1="42.5" y2="89" />
<line marker-end="url(#arrowhead)" stroke="none" x1="1805.625" x2="1805.625" y1="42.5" y2="89" />
<line marker-end="url(#arrowhead)" stroke="none" x1="1613.625" x2="1613.625" y1="42.5" y2="89" />
<line marker-end="url(#arrowhead)" stroke="none" x1="1421.625" x2="1421.625" y1="42.5" y2="89" />
<line marker-end="url(#arrowhead)" stroke="none" x1="1229.625" x2="1229.625" y1="42.5" y2="89" />
<line marker-end="url(#arrowhead)" stroke="none" x1="1037.625" x2="1037.625" y1="42.5" y2="89" />
<line marker-end="url(#arrowhead)" stroke="none" x1="845.625" x2="845.625" y1="42.5" y2="89" />
<line marker-end="url(#arrowhead)" stroke="none" x1="653.625" x2="653.625" y1="42.5" y2="89" />
<line marker-end="url(#arrowhead)" stroke="none" x1="461.625" x2="461.625" y1="42.5" y2="89" />
<line marker-end="url(#arrowhead)" stroke="none" x1="269.625" x2="269.625" y1="42.5" y2="89" />
</svg>