<svg xmlns="http://www.w3.org/2000/svg" viewBox="0 0 6246 171">
<style>
.label { font: 14px Helvetica; dominant-baseline: middle; text-anchor: middle; }
.title-left { font: 12px Helvetica; dominant-baseline: middle; }
.title-right { font: 12px Helvetica; dominant-baseline: middle; text-anchor: end; }
.title-intrinsic { font: 12px Helvetica; dominant-baseline: middle; text-anchor: middle; fill: #6778ED; }
.title { font: 12px Helvetica; dominant-baseline: middle; text-anchor: middle; }
.title-unused { font: 12px Helvetica; dominant-baseline: middle; text-anchor: middle; fill: #AAA; }
.register-name { font: 14px Helvetica; dominant-baseline: middle; text-anchor: end; font-style: italic; }
.memory-name { font: 14px Helvetica; dominant-baseline: middle; text-anchor: end; }
.register-number { font: 14px Helvetica; dominant-baseline: middle; text-anchor: start; }
.intrinsic-name { font: 14px Helvetica; dominant-baseline: middle; text-anchor: end; fill: #6778ED; }
.intrinsic-color { fill: #6778ED; }
.small-label { font: 12px Helvetica; dominant-baseline: middle; text-anchor: middle; }
.label-10px { font: 10px Helvetica; dominant-baseline: middle; text-anchor: middle; }
.smaller-label { font: 9px Helvetica; dominant-baseline: middle; text-anchor: middle; }
.label-6px { font: 6px Helvetica; dominant-baseline: middle; text-anchor: middle; }
.label-7px { font: 7px Helvetica; dominant-baseline: middle; text-anchor: middle; }
.unused { fill: #AAA; }
.dim { fill: #888; }
</style>
<defs>
<marker id="arrowhead" markerWidth="10.75" markerHeight="24.5" refX="9.0" refY="6.125" orient="auto">
<polyline points="0.5 0.5, 8.75 6.125, 0.5 11.75" stroke="#567DB6" stroke-width="1" fill="none"/>
</marker>
</defs>
<text class="title-left" x="90" y="9">upper</text>
<text class="title-right" x="6234" y="9">lower</text>
<rect fill="#DEE6F1" height="24" width="96" x="6138" y="18" />
<rect fill="none" height="24" stroke="#405C86" stroke-width="2" width="96" x="6138" y="18" />
<text class="label" x="6186" y="31">0</text>
<rect fill="none" height="24" stroke="#405C86" stroke-dasharray="3 1" stroke-dashoffset="1.5" stroke-width="1" width="96" x="6042" y="18" />
<text class="label unused" x="6090" y="31"></text>
<rect fill="#DEE6F1" height="24" width="96" x="5946" y="18" />
<rect fill="none" height="24" stroke="#405C86" stroke-width="2" width="96" x="5946" y="18" />
<text class="label" x="5994" y="31">2</text>
<rect fill="none" height="24" stroke="#405C86" stroke-dasharray="3 1" stroke-dashoffset="1.5" stroke-width="1" width="96" x="5850" y="18" />
<text class="label unused" x="5898" y="31"></text>
<rect fill="#DEE6F1" height="24" width="96" x="5754" y="18" />
<rect fill="none" height="24" stroke="#405C86" stroke-width="2" width="96" x="5754" y="18" />
<text class="label" x="5802" y="31">4</text>
<rect fill="none" height="24" stroke="#405C86" stroke-dasharray="3 1" stroke-dashoffset="1.5" stroke-width="1" width="96" x="5658" y="18" />
<text class="label unused" x="5706" y="31"></text>
<rect fill="#DEE6F1" height="24" width="96" x="5562" y="18" />
<rect fill="none" height="24" stroke="#405C86" stroke-width="2" width="96" x="5562" y="18" />
<text class="label" x="5610" y="31">6</text>
<rect fill="none" height="24" stroke="#405C86" stroke-dasharray="3 1" stroke-dashoffset="1.5" stroke-width="1" width="96" x="5466" y="18" />
<text class="label unused" x="5514" y="31"></text>
<rect fill="#DEE6F1" height="24" width="96" x="5370" y="18" />
<rect fill="none" height="24" stroke="#405C86" stroke-width="2" width="96" x="5370" y="18" />
<text class="label" x="5418" y="31">8</text>
<rect fill="none" height="24" stroke="#405C86" stroke-dasharray="3 1" stroke-dashoffset="1.5" stroke-width="1" width="96" x="5274" y="18" />
<text class="label unused" x="5322" y="31"></text>
<rect fill="#DEE6F1" height="24" width="96" x="5178" y="18" />
<rect fill="none" height="24" stroke="#405C86" stroke-width="2" width="96" x="5178" y="18" />
<text class="label" x="5226" y="31">10</text>
<rect fill="none" height="24" stroke="#405C86" stroke-dasharray="3 1" stroke-dashoffset="1.5" stroke-width="1" width="96" x="5082" y="18" />
<text class="label unused" x="5130" y="31"></text>
<rect fill="#DEE6F1" height="24" width="96" x="4986" y="18" />
<rect fill="none" height="24" stroke="#405C86" stroke-width="2" width="96" x="4986" y="18" />
<text class="label" x="5034" y="31">12</text>
<rect fill="none" height="24" stroke="#405C86" stroke-dasharray="3 1" stroke-dashoffset="1.5" stroke-width="1" width="96" x="4890" y="18" />
<text class="label unused" x="4938" y="31"></text>
<rect fill="#DEE6F1" height="24" width="96" x="4794" y="18" />
<rect fill="none" height="24" stroke="#405C86" stroke-width="2" width="96" x="4794" y="18" />
<text class="label" x="4842" y="31">14</text>
<rect fill="none" height="24" stroke="#405C86" stroke-dasharray="3 1" stroke-dashoffset="1.5" stroke-width="1" width="96" x="4698" y="18" />
<text class="label unused" x="4746" y="31"></text>
<rect fill="#DEE6F1" height="24" width="96" x="4602" y="18" />
<rect fill="none" height="24" stroke="#405C86" stroke-width="2" width="96" x="4602" y="18" />
<text class="label" x="4650" y="31">16</text>
<rect fill="none" height="24" stroke="#405C86" stroke-dasharray="3 1" stroke-dashoffset="1.5" stroke-width="1" width="96" x="4506" y="18" />
<text class="label unused" x="4554" y="31"></text>
<rect fill="#DEE6F1" height="24" width="96" x="4410" y="18" />
<rect fill="none" height="24" stroke="#405C86" stroke-width="2" width="96" x="4410" y="18" />
<text class="label" x="4458" y="31">18</text>
<rect fill="none" height="24" stroke="#405C86" stroke-dasharray="3 1" stroke-dashoffset="1.5" stroke-width="1" width="96" x="4314" y="18" />
<text class="label unused" x="4362" y="31"></text>
<rect fill="#DEE6F1" height="24" width="96" x="4218" y="18" />
<rect fill="none" height="24" stroke="#405C86" stroke-width="2" width="96" x="4218" y="18" />
<text class="label" x="4266" y="31">20</text>
<rect fill="none" height="24" stroke="#405C86" stroke-dasharray="3 1" stroke-dashoffset="1.5" stroke-width="1" width="96" x="4122" y="18" />
<text class="label unused" x="4170" y="31"></text>
<rect fill="#DEE6F1" height="24" width="96" x="4026" y="18" />
<rect fill="none" height="24" stroke="#405C86" stroke-width="2" width="96" x="4026" y="18" />
<text class="label" x="4074" y="31">22</text>
<rect fill="none" height="24" stroke="#405C86" stroke-dasharray="3 1" stroke-dashoffset="1.5" stroke-width="1" width="96" x="3930" y="18" />
<text class="label unused" x="3978" y="31"></text>
<rect fill="#DEE6F1" height="24" width="96" x="3834" y="18" />
<rect fill="none" height="24" stroke="#405C86" stroke-width="2" width="96" x="3834" y="18" />
<text class="label" x="3882" y="31">24</text>
<rect fill="none" height="24" stroke="#405C86" stroke-dasharray="3 1" stroke-dashoffset="1.5" stroke-width="1" width="96" x="3738" y="18" />
<text class="label unused" x="3786" y="31"></text>
<rect fill="#DEE6F1" height="24" width="96" x="3642" y="18" />
<rect fill="none" height="24" stroke="#405C86" stroke-width="2" width="96" x="3642" y="18" />
<text class="label" x="3690" y="31">26</text>
<rect fill="none" height="24" stroke="#405C86" stroke-dasharray="3 1" stroke-dashoffset="1.5" stroke-width="1" width="96" x="3546" y="18" />
<text class="label unused" x="3594" y="31"></text>
<rect fill="#DEE6F1" height="24" width="96" x="3450" y="18" />
<rect fill="none" height="24" stroke="#405C86" stroke-width="2" width="96" x="3450" y="18" />
<text class="label" x="3498" y="31">28</text>
<rect fill="none" height="24" stroke="#405C86" stroke-dasharray="3 1" stroke-dashoffset="1.5" stroke-width="1" width="96" x="3354" y="18" />
<text class="label unused" x="3402" y="31"></text>
<rect fill="#DEE6F1" height="24" width="96" x="3258" y="18" />
<rect fill="none" height="24" stroke="#405C86" stroke-width="2" width="96" x="3258" y="18" />
<text class="label" x="3306" y="31">30</text>
<rect fill="none" height="24" stroke="#405C86" stroke-dasharray="3 1" stroke-dashoffset="1.5" stroke-width="1" width="96" x="3162" y="18" />
<text class="label unused" x="3210" y="31"></text>
<rect fill="#DEE6F1" height="24" width="96" x="3066" y="18" />
<rect fill="none" height="24" stroke="#405C86" stroke-width="2" width="96" x="3066" y="18" />
<text class="label" x="3114" y="31">32</text>
<rect fill="none" height="24" stroke="#405C86" stroke-dasharray="3 1" stroke-dashoffset="1.5" stroke-width="1" width="96" x="2970" y="18" />
<text class="label unused" x="3018" y="31"></text>
<rect fill="#DEE6F1" height="24" width="96" x="2874" y="18" />
<rect fill="none" height="24" stroke="#405C86" stroke-width="2" width="96" x="2874" y="18" />
<text class="label" x="2922" y="31">34</text>
<rect fill="none" height="24" stroke="#405C86" stroke-dasharray="3 1" stroke-dashoffset="1.5" stroke-width="1" width="96" x="2778" y="18" />
<text class="label unused" x="2826" y="31"></text>
<rect fill="#DEE6F1" height="24" width="96" x="2682" y="18" />
<rect fill="none" height="24" stroke="#405C86" stroke-width="2" width="96" x="2682" y="18" />
<text class="label" x="2730" y="31">36</text>
<rect fill="none" height="24" stroke="#405C86" stroke-dasharray="3 1" stroke-dashoffset="1.5" stroke-width="1" width="96" x="2586" y="18" />
<text class="label unused" x="2634" y="31"></text>
<rect fill="#DEE6F1" height="24" width="96" x="2490" y="18" />
<rect fill="none" height="24" stroke="#405C86" stroke-width="2" width="96" x="2490" y="18" />
<text class="label" x="2538" y="31">38</text>
<rect fill="none" height="24" stroke="#405C86" stroke-dasharray="3 1" stroke-dashoffset="1.5" stroke-width="1" width="96" x="2394" y="18" />
<text class="label unused" x="2442" y="31"></text>
<rect fill="#DEE6F1" height="24" width="96" x="2298" y="18" />
<rect fill="none" height="24" stroke="#405C86" stroke-width="2" width="96" x="2298" y="18" />
<text class="label" x="2346" y="31">40</text>
<rect fill="none" height="24" stroke="#405C86" stroke-dasharray="3 1" stroke-dashoffset="1.5" stroke-width="1" width="96" x="2202" y="18" />
<text class="label unused" x="2250" y="31"></text>
<rect fill="#DEE6F1" height="24" width="96" x="2106" y="18" />
<rect fill="none" height="24" stroke="#405C86" stroke-width="2" width="96" x="2106" y="18" />
<text class="label" x="2154" y="31">42</text>
<rect fill="none" height="24" stroke="#405C86" stroke-dasharray="3 1" stroke-dashoffset="1.5" stroke-width="1" width="96" x="2010" y="18" />
<text class="label unused" x="2058" y="31"></text>
<rect fill="#DEE6F1" height="24" width="96" x="1914" y="18" />
<rect fill="none" height="24" stroke="#405C86" stroke-width="2" width="96" x="1914" y="18" />
<text class="label" x="1962" y="31">44</text>
<rect fill="none" height="24" stroke="#405C86" stroke-dasharray="3 1" stroke-dashoffset="1.5" stroke-width="1" width="96" x="1818" y="18" />
<text class="label unused" x="1866" y="31"></text>
<rect fill="#DEE6F1" height="24" width="96" x="1722" y="18" />
<rect fill="none" height="24" stroke="#405C86" stroke-width="2" width="96" x="1722" y="18" />
<text class="label" x="1770" y="31">46</text>
<rect fill="none" height="24" stroke="#405C86" stroke-dasharray="3 1" stroke-dashoffset="1.5" stroke-width="1" width="96" x="1626" y="18" />
<text class="label unused" x="1674" y="31"></text>
<rect fill="#DEE6F1" height="24" width="96" x="1530" y="18" />
<rect fill="none" height="24" stroke="#405C86" stroke-width="2" width="96" x="1530" y="18" />
<text class="label" x="1578" y="31">48</text>
<rect fill="none" height="24" stroke="#405C86" stroke-dasharray="3 1" stroke-dashoffset="1.5" stroke-width="1" width="96" x="1434" y="18" />
<text class="label unused" x="1482" y="31"></text>
<rect fill="#DEE6F1" height="24" width="96" x="1338" y="18" />
<rect fill="none" height="24" stroke="#405C86" stroke-width="2" width="96" x="1338" y="18" />
<text class="label" x="1386" y="31">50</text>
<rect fill="none" height="24" stroke="#405C86" stroke-dasharray="3 1" stroke-dashoffset="1.5" stroke-width="1" width="96" x="1242" y="18" />
<text class="label unused" x="1290" y="31"></text>
<rect fill="#DEE6F1" height="24" width="96" x="1146" y="18" />
<rect fill="none" height="24" stroke="#405C86" stroke-width="2" width="96" x="1146" y="18" />
<text class="label" x="1194" y="31">52</text>
<rect fill="none" height="24" stroke="#405C86" stroke-dasharray="3 1" stroke-dashoffset="1.5" stroke-width="1" width="96" x="1050" y="18" />
<text class="label unused" x="1098" y="31"></text>
<rect fill="#DEE6F1" height="24" width="96" x="954" y="18" />
<rect fill="none" height="24" stroke="#405C86" stroke-width="2" width="96" x="954" y="18" />
<text class="label" x="1002" y="31">54</text>
<rect fill="none" height="24" stroke="#405C86" stroke-dasharray="3 1" stroke-dashoffset="1.5" stroke-width="1" width="96" x="858" y="18" />
<text class="label unused" x="906" y="31"></text>
<rect fill="#DEE6F1" height="24" width="96" x="762" y="18" />
<rect fill="none" height="24" stroke="#405C86" stroke-width="2" width="96" x="762" y="18" />
<text class="label" x="810" y="31">56</text>
<rect fill="none" height="24" stroke="#405C86" stroke-dasharray="3 1" stroke-dashoffset="1.5" stroke-width="1" width="96" x="666" y="18" />
<text class="label unused" x="714" y="31"></text>
<rect fill="#DEE6F1" height="24" width="96" x="570" y="18" />
<rect fill="none" height="24" stroke="#405C86" stroke-width="2" width="96" x="570" y="18" />
<text class="label" x="618" y="31">58</text>
<rect fill="none" height="24" stroke="#405C86" stroke-dasharray="3 1" stroke-dashoffset="1.5" stroke-width="1" width="96" x="474" y="18" />
<text class="label unused" x="522" y="31"></text>
<rect fill="#DEE6F1" height="24" width="96" x="378" y="18" />
<rect fill="none" height="24" stroke="#405C86" stroke-width="2" width="96" x="378" y="18" />
<text class="label" x="426" y="31">60</text>
<rect fill="none" height="24" stroke="#405C86" stroke-dasharray="3 1" stroke-dashoffset="1.5" stroke-width="1" width="96" x="282" y="18" />
<text class="label unused" x="330" y="31"></text>
<rect fill="#DEE6F1" height="24" width="96" x="186" y="18" />
<rect fill="none" height="24" stroke="#405C86" stroke-width="2" width="96" x="186" y="18" />
<text class="label" x="234" y="31">62</text>
<rect fill="none" height="24" stroke="#405C86" stroke-dasharray="3 1" stroke-dashoffset="1.5" stroke-width="1" width="96" x="90" y="18" />
<text class="label unused" x="138" y="31"></text>
<text class="register-name" x="80" y="30">Zn</text>
<text class="intrinsic-name" x="80" y="42">op1</text>
<text class="register-number" x="10" y="30">(1)</text>
<rect fill="#EEDDDB" height="24" width="96" x="6138" y="66" />
<rect fill="none" height="24" stroke="#405C86" stroke-width="2" width="96" x="6138" y="66" />
<text class="label" x="6186" y="79">0</text>
<rect fill="none" height="24" stroke="#405C86" stroke-dasharray="3 1" stroke-dashoffset="1.5" stroke-width="1" width="96" x="6042" y="66" />
<text class="label unused" x="6090" y="79"></text>
<rect fill="#EEDDDB" height="24" width="96" x="5946" y="66" />
<rect fill="none" height="24" stroke="#405C86" stroke-width="2" width="96" x="5946" y="66" />
<text class="label" x="5994" y="79">2</text>
<rect fill="none" height="24" stroke="#405C86" stroke-dasharray="3 1" stroke-dashoffset="1.5" stroke-width="1" width="96" x="5850" y="66" />
<text class="label unused" x="5898" y="79"></text>
<rect fill="#EEDDDB" height="24" width="96" x="5754" y="66" />
<rect fill="none" height="24" stroke="#405C86" stroke-width="2" width="96" x="5754" y="66" />
<text class="label" x="5802" y="79">4</text>
<rect fill="none" height="24" stroke="#405C86" stroke-dasharray="3 1" stroke-dashoffset="1.5" stroke-width="1" width="96" x="5658" y="66" />
<text class="label unused" x="5706" y="79"></text>
<rect fill="#EEDDDB" height="24" width="96" x="5562" y="66" />
<rect fill="none" height="24" stroke="#405C86" stroke-width="2" width="96" x="5562" y="66" />
<text class="label" x="5610" y="79">6</text>
<rect fill="none" height="24" stroke="#405C86" stroke-dasharray="3 1" stroke-dashoffset="1.5" stroke-width="1" width="96" x="5466" y="66" />
<text class="label unused" x="5514" y="79"></text>
<rect fill="#EEDDDB" height="24" width="96" x="5370" y="66" />
<rect fill="none" height="24" stroke="#405C86" stroke-width="2" width="96" x="5370" y="66" />
<text class="label" x="5418" y="79">8</text>
<rect fill="none" height="24" stroke="#405C86" stroke-dasharray="3 1" stroke-dashoffset="1.5" stroke-width="1" width="96" x="5274" y="66" />
<text class="label unused" x="5322" y="79"></text>
<rect fill="#EEDDDB" height="24" width="96" x="5178" y="66" />
<rect fill="none" height="24" stroke="#405C86" stroke-width="2" width="96" x="5178" y="66" />
<text class="label" x="5226" y="79">10</text>
<rect fill="none" height="24" stroke="#405C86" stroke-dasharray="3 1" stroke-dashoffset="1.5" stroke-width="1" width="96" x="5082" y="66" />
<text class="label unused" x="5130" y="79"></text>
<rect fill="#EEDDDB" height="24" width="96" x="4986" y="66" />
<rect fill="none" height="24" stroke="#405C86" stroke-width="2" width="96" x="4986" y="66" />
<text class="label" x="5034" y="79">12</text>
<rect fill="none" height="24" stroke="#405C86" stroke-dasharray="3 1" stroke-dashoffset="1.5" stroke-width="1" width="96" x="4890" y="66" />
<text class="label unused" x="4938" y="79"></text>
<rect fill="#EEDDDB" height="24" width="96" x="4794" y="66" />
<rect fill="none" height="24" stroke="#405C86" stroke-width="2" width="96" x="4794" y="66" />
<text class="label" x="4842" y="79">14</text>
<rect fill="none" height="24" stroke="#405C86" stroke-dasharray="3 1" stroke-dashoffset="1.5" stroke-width="1" width="96" x="4698" y="66" />
<text class="label unused" x="4746" y="79"></text>
<rect fill="#EEDDDB" height="24" width="96" x="4602" y="66" />
<rect fill="none" height="24" stroke="#405C86" stroke-width="2" width="96" x="4602" y="66" />
<text class="label" x="4650" y="79">16</text>
<rect fill="none" height="24" stroke="#405C86" stroke-dasharray="3 1" stroke-dashoffset="1.5" stroke-width="1" width="96" x="4506" y="66" />
<text class="label unused" x="4554" y="79"></text>
<rect fill="#EEDDDB" height="24" width="96" x="4410" y="66" />
<rect fill="none" height="24" stroke="#405C86" stroke-width="2" width="96" x="4410" y="66" />
<text class="label" x="4458" y="79">18</text>
<rect fill="none" height="24" stroke="#405C86" stroke-dasharray="3 1" stroke-dashoffset="1.5" stroke-width="1" width="96" x="4314" y="66" />
<text class="label unused" x="4362" y="79"></text>
<rect fill="#EEDDDB" height="24" width="96" x="4218" y="66" />
<rect fill="none" height="24" stroke="#405C86" stroke-width="2" width="96" x="4218" y="66" />
<text class="label" x="4266" y="79">20</text>
<rect fill="none" height="24" stroke="#405C86" stroke-dasharray="3 1" stroke-dashoffset="1.5" stroke-width="1" width="96" x="4122" y="66" />
<text class="label unused" x="4170" y="79"></text>
<rect fill="#EEDDDB" height="24" width="96" x="4026" y="66" />
<rect fill="none" height="24" stroke="#405C86" stroke-width="2" width="96" x="4026" y="66" />
<text class="label" x="4074" y="79">22</text>
<rect fill="none" height="24" stroke="#405C86" stroke-dasharray="3 1" stroke-dashoffset="1.5" stroke-width="1" width="96" x="3930" y="66" />
<text class="label unused" x="3978" y="79"></text>
<rect fill="#EEDDDB" height="24" width="96" x="3834" y="66" />
<rect fill="none" height="24" stroke="#405C86" stroke-width="2" width="96" x="3834" y="66" />
<text class="label" x="3882" y="79">24</text>
<rect fill="none" height="24" stroke="#405C86" stroke-dasharray="3 1" stroke-dashoffset="1.5" stroke-width="1" width="96" x="3738" y="66" />
<text class="label unused" x="3786" y="79"></text>
<rect fill="#EEDDDB" height="24" width="96" x="3642" y="66" />
<rect fill="none" height="24" stroke="#405C86" stroke-width="2" width="96" x="3642" y="66" />
<text class="label" x="3690" y="79">26</text>
<rect fill="none" height="24" stroke="#405C86" stroke-dasharray="3 1" stroke-dashoffset="1.5" stroke-width="1" width="96" x="3546" y="66" />
<text class="label unused" x="3594" y="79"></text>
<rect fill="#EEDDDB" height="24" width="96" x="3450" y="66" />
<rect fill="none" height="24" stroke="#405C86" stroke-width="2" width="96" x="3450" y="66" />
<text class="label" x="3498" y="79">28</text>
<rect fill="none" height="24" stroke="#405C86" stroke-dasharray="3 1" stroke-dashoffset="1.5" stroke-width="1" width="96" x="3354" y="66" />
<text class="label unused" x="3402" y="79"></text>
<rect fill="#EEDDDB" height="24" width="96" x="3258" y="66" />
<rect fill="none" height="24" stroke="#405C86" stroke-width="2" width="96" x="3258" y="66" />
<text class="label" x="3306" y="79">30</text>
<rect fill="none" height="24" stroke="#405C86" stroke-dasharray="3 1" stroke-dashoffset="1.5" stroke-width="1" width="96" x="3162" y="66" />
<text class="label unused" x="3210" y="79"></text>
<rect fill="#EEDDDB" height="24" width="96" x="3066" y="66" />
<rect fill="none" height="24" stroke="#405C86" stroke-width="2" width="96" x="3066" y="66" />
<text class="label" x="3114" y="79">32</text>
<rect fill="none" height="24" stroke="#405C86" stroke-dasharray="3 1" stroke-dashoffset="1.5" stroke-width="1" width="96" x="2970" y="66" />
<text class="label unused" x="3018" y="79"></text>
<rect fill="#EEDDDB" height="24" width="96" x="2874" y="66" />
<rect fill="none" height="24" stroke="#405C86" stroke-width="2" width="96" x="2874" y="66" />
<text class="label" x="2922" y="79">34</text>
<rect fill="none" height="24" stroke="#405C86" stroke-dasharray="3 1" stroke-dashoffset="1.5" stroke-width="1" width="96" x="2778" y="66" />
<text class="label unused" x="2826" y="79"></text>
<rect fill="#EEDDDB" height="24" width="96" x="2682" y="66" />
<rect fill="none" height="24" stroke="#405C86" stroke-width="2" width="96" x="2682" y="66" />
<text class="label" x="2730" y="79">36</text>
<rect fill="none" height="24" stroke="#405C86" stroke-dasharray="3 1" stroke-dashoffset="1.5" stroke-width="1" width="96" x="2586" y="66" />
<text class="label unused" x="2634" y="79"></text>
<rect fill="#EEDDDB" height="24" width="96" x="2490" y="66" />
<rect fill="none" height="24" stroke="#405C86" stroke-width="2" width="96" x="2490" y="66" />
<text class="label" x="2538" y="79">38</text>
<rect fill="none" height="24" stroke="#405C86" stroke-dasharray="3 1" stroke-dashoffset="1.5" stroke-width="1" width="96" x="2394" y="66" />
<text class="label unused" x="2442" y="79"></text>
<rect fill="#EEDDDB" height="24" width="96" x="2298" y="66" />
<rect fill="none" height="24" stroke="#405C86" stroke-width="2" width="96" x="2298" y="66" />
<text class="label" x="2346" y="79">40</text>
<rect fill="none" height="24" stroke="#405C86" stroke-dasharray="3 1" stroke-dashoffset="1.5" stroke-width="1" width="96" x="2202" y="66" />
<text class="label unused" x="2250" y="79"></text>
<rect fill="#EEDDDB" height="24" width="96" x="2106" y="66" />
<rect fill="none" height="24" stroke="#405C86" stroke-width="2" width="96" x="2106" y="66" />
<text class="label" x="2154" y="79">42</text>
<rect fill="none" height="24" stroke="#405C86" stroke-dasharray="3 1" stroke-dashoffset="1.5" stroke-width="1" width="96" x="2010" y="66" />
<text class="label unused" x="2058" y="79"></text>
<rect fill="#EEDDDB" height="24" width="96" x="1914" y="66" />
<rect fill="none" height="24" stroke="#405C86" stroke-width="2" width="96" x="1914" y="66" />
<text class="label" x="1962" y="79">44</text>
<rect fill="none" height="24" stroke="#405C86" stroke-dasharray="3 1" stroke-dashoffset="1.5" stroke-width="1" width="96" x="1818" y="66" />
<text class="label unused" x="1866" y="79"></text>
<rect fill="#EEDDDB" height="24" width="96" x="1722" y="66" />
<rect fill="none" height="24" stroke="#405C86" stroke-width="2" width="96" x="1722" y="66" />
<text class="label" x="1770" y="79">46</text>
<rect fill="none" height="24" stroke="#405C86" stroke-dasharray="3 1" stroke-dashoffset="1.5" stroke-width="1" width="96" x="1626" y="66" />
<text class="label unused" x="1674" y="79"></text>
<rect fill="#EEDDDB" height="24" width="96" x="1530" y="66" />
<rect fill="none" height="24" stroke="#405C86" stroke-width="2" width="96" x="1530" y="66" />
<text class="label" x="1578" y="79">48</text>
<rect fill="none" height="24" stroke="#405C86" stroke-dasharray="3 1" stroke-dashoffset="1.5" stroke-width="1" width="96" x="1434" y="66" />
<text class="label unused" x="1482" y="79"></text>
<rect fill="#EEDDDB" height="24" width="96" x="1338" y="66" />
<rect fill="none" height="24" stroke="#405C86" stroke-width="2" width="96" x="1338" y="66" />
<text class="label" x="1386" y="79">50</text>
<rect fill="none" height="24" stroke="#405C86" stroke-dasharray="3 1" stroke-dashoffset="1.5" stroke-width="1" width="96" x="1242" y="66" />
<text class="label unused" x="1290" y="79"></text>
<rect fill="#EEDDDB" height="24" width="96" x="1146" y="66" />
<rect fill="none" height="24" stroke="#405C86" stroke-width="2" width="96" x="1146" y="66" />
<text class="label" x="1194" y="79">52</text>
<rect fill="none" height="24" stroke="#405C86" stroke-dasharray="3 1" stroke-dashoffset="1.5" stroke-width="1" width="96" x="1050" y="66" />
<text class="label unused" x="1098" y="79"></text>
<rect fill="#EEDDDB" height="24" width="96" x="954" y="66" />
<rect fill="none" height="24" stroke="#405C86" stroke-width="2" width="96" x="954" y="66" />
<text class="label" x="1002" y="79">54</text>
<rect fill="none" height="24" stroke="#405C86" stroke-dasharray="3 1" stroke-dashoffset="1.5" stroke-width="1" width="96" x="858" y="66" />
<text class="label unused" x="906" y="79"></text>
<rect fill="#EEDDDB" height="24" width="96" x="762" y="66" />
<rect fill="none" height="24" stroke="#405C86" stroke-width="2" width="96" x="762" y="66" />
<text class="label" x="810" y="79">56</text>
<rect fill="none" height="24" stroke="#405C86" stroke-dasharray="3 1" stroke-dashoffset="1.5" stroke-width="1" width="96" x="666" y="66" />
<text class="label unused" x="714" y="79"></text>
<rect fill="#EEDDDB" height="24" width="96" x="570" y="66" />
<rect fill="none" height="24" stroke="#405C86" stroke-width="2" width="96" x="570" y="66" />
<text class="label" x="618" y="79">58</text>
<rect fill="none" height="24" stroke="#405C86" stroke-dasharray="3 1" stroke-dashoffset="1.5" stroke-width="1" width="96" x="474" y="66" />
<text class="label unused" x="522" y="79"></text>
<rect fill="#EEDDDB" height="24" width="96" x="378" y="66" />
<rect fill="none" height="24" stroke="#405C86" stroke-width="2" width="96" x="378" y="66" />
<text class="label" x="426" y="79">60</text>
<rect fill="none" height="24" stroke="#405C86" stroke-dasharray="3 1" stroke-dashoffset="1.5" stroke-width="1" width="96" x="282" y="66" />
<text class="label unused" x="330" y="79"></text>
<rect fill="#EEDDDB" height="24" width="96" x="186" y="66" />
<rect fill="none" height="24" stroke="#405C86" stroke-width="2" width="96" x="186" y="66" />
<text class="label" x="234" y="79">62</text>
<rect fill="none" height="24" stroke="#405C86" stroke-dasharray="3 1" stroke-dashoffset="1.5" stroke-width="1" width="96" x="90" y="66" />
<text class="label unused" x="138" y="79"></text>
<text class="register-name" x="80" y="78">Zm</text>
<text class="intrinsic-name" x="80" y="90">op2</text>
<text class="register-number" x="10" y="78">(2)</text>
<rect fill="#DEE6F1" height="24" width="96" x="6138" y="138" />
<rect fill="none" height="24" stroke="#405C86" stroke-width="2" width="96" x="6138" y="138" />
<text class="label" x="6186" y="151">0</text>
<rect fill="#DEE6F1" height="24" width="96" x="6042" y="138" />
<rect fill="none" height="24" stroke="#405C86" stroke-width="2" width="96" x="6042" y="138" />
<text class="label" x="6090" y="151">2</text>
<rect fill="#DEE6F1" height="24" width="96" x="5946" y="138" />
<rect fill="none" height="24" stroke="#405C86" stroke-width="2" width="96" x="5946" y="138" />
<text class="label" x="5994" y="151">4</text>
<rect fill="#DEE6F1" height="24" width="96" x="5850" y="138" />
<rect fill="none" height="24" stroke="#405C86" stroke-width="2" width="96" x="5850" y="138" />
<text class="label" x="5898" y="151">6</text>
<rect fill="#DEE6F1" height="24" width="96" x="5754" y="138" />
<rect fill="none" height="24" stroke="#405C86" stroke-width="2" width="96" x="5754" y="138" />
<text class="label" x="5802" y="151">8</text>
<rect fill="#DEE6F1" height="24" width="96" x="5658" y="138" />
<rect fill="none" height="24" stroke="#405C86" stroke-width="2" width="96" x="5658" y="138" />
<text class="label" x="5706" y="151">10</text>
<rect fill="#DEE6F1" height="24" width="96" x="5562" y="138" />
<rect fill="none" height="24" stroke="#405C86" stroke-width="2" width="96" x="5562" y="138" />
<text class="label" x="5610" y="151">12</text>
<rect fill="#DEE6F1" height="24" width="96" x="5466" y="138" />
<rect fill="none" height="24" stroke="#405C86" stroke-width="2" width="96" x="5466" y="138" />
<text class="label" x="5514" y="151">14</text>
<rect fill="#DEE6F1" height="24" width="96" x="5370" y="138" />
<rect fill="none" height="24" stroke="#405C86" stroke-width="2" width="96" x="5370" y="138" />
<text class="label" x="5418" y="151">16</text>
<rect fill="#DEE6F1" height="24" width="96" x="5274" y="138" />
<rect fill="none" height="24" stroke="#405C86" stroke-width="2" width="96" x="5274" y="138" />
<text class="label" x="5322" y="151">18</text>
<rect fill="#DEE6F1" height="24" width="96" x="5178" y="138" />
<rect fill="none" height="24" stroke="#405C86" stroke-width="2" width="96" x="5178" y="138" />
<text class="label" x="5226" y="151">20</text>
<rect fill="#DEE6F1" height="24" width="96" x="5082" y="138" />
<rect fill="none" height="24" stroke="#405C86" stroke-width="2" width="96" x="5082" y="138" />
<text class="label" x="5130" y="151">22</text>
<rect fill="#DEE6F1" height="24" width="96" x="4986" y="138" />
<rect fill="none" height="24" stroke="#405C86" stroke-width="2" width="96" x="4986" y="138" />
<text class="label" x="5034" y="151">24</text>
<rect fill="#DEE6F1" height="24" width="96" x="4890" y="138" />
<rect fill="none" height="24" stroke="#405C86" stroke-width="2" width="96" x="4890" y="138" />
<text class="label" x="4938" y="151">26</text>
<rect fill="#DEE6F1" height="24" width="96" x="4794" y="138" />
<rect fill="none" height="24" stroke="#405C86" stroke-width="2" width="96" x="4794" y="138" />
<text class="label" x="4842" y="151">28</text>
<rect fill="#DEE6F1" height="24" width="96" x="4698" y="138" />
<rect fill="none" height="24" stroke="#405C86" stroke-width="2" width="96" x="4698" y="138" />
<text class="label" x="4746" y="151">30</text>
<rect fill="#DEE6F1" height="24" width="96" x="4602" y="138" />
<rect fill="none" height="24" stroke="#405C86" stroke-width="2" width="96" x="4602" y="138" />
<text class="label" x="4650" y="151">32</text>
<rect fill="#DEE6F1" height="24" width="96" x="4506" y="138" />
<rect fill="none" height="24" stroke="#405C86" stroke-width="2" width="96" x="4506" y="138" />
<text class="label" x="4554" y="151">34</text>
<rect fill="#DEE6F1" height="24" width="96" x="4410" y="138" />
<rect fill="none" height="24" stroke="#405C86" stroke-width="2" width="96" x="4410" y="138" />
<text class="label" x="4458" y="151">36</text>
<rect fill="#DEE6F1" height="24" width="96" x="4314" y="138" />
<rect fill="none" height="24" stroke="#405C86" stroke-width="2" width="96" x="4314" y="138" />
<text class="label" x="4362" y="151">38</text>
<rect fill="#DEE6F1" height="24" width="96" x="4218" y="138" />
<rect fill="none" height="24" stroke="#405C86" stroke-width="2" width="96" x="4218" y="138" />
<text class="label" x="4266" y="151">40</text>
<rect fill="#DEE6F1" height="24" width="96" x="4122" y="138" />
<rect fill="none" height="24" stroke="#405C86" stroke-width="2" width="96" x="4122" y="138" />
<text class="label" x="4170" y="151">42</text>
<rect fill="#DEE6F1" height="24" width="96" x="4026" y="138" />
<rect fill="none" height="24" stroke="#405C86" stroke-width="2" width="96" x="4026" y="138" />
<text class="label" x="4074" y="151">44</text>
<rect fill="#DEE6F1" height="24" width="96" x="3930" y="138" />
<rect fill="none" height="24" stroke="#405C86" stroke-width="2" width="96" x="3930" y="138" />
<text class="label" x="3978" y="151">46</text>
<rect fill="#DEE6F1" height="24" width="96" x="3834" y="138" />
<rect fill="none" height="24" stroke="#405C86" stroke-width="2" width="96" x="3834" y="138" />
<text class="label" x="3882" y="151">48</text>
<rect fill="#DEE6F1" height="24" width="96" x="3738" y="138" />
<rect fill="none" height="24" stroke="#405C86" stroke-width="2" width="96" x="3738" y="138" />
<text class="label" x="3786" y="151">50</text>
<rect fill="#DEE6F1" height="24" width="96" x="3642" y="138" />
<rect fill="none" height="24" stroke="#405C86" stroke-width="2" width="96" x="3642" y="138" />
<text class="label" x="3690" y="151">52</text>
<rect fill="#DEE6F1" height="24" width="96" x="3546" y="138" />
<rect fill="none" height="24" stroke="#405C86" stroke-width="2" width="96" x="3546" y="138" />
<text class="label" x="3594" y="151">54</text>
<rect fill="#DEE6F1" height="24" width="96" x="3450" y="138" />
<rect fill="none" height="24" stroke="#405C86" stroke-width="2" width="96" x="3450" y="138" />
<text class="label" x="3498" y="151">56</text>
<rect fill="#DEE6F1" height="24" width="96" x="3354" y="138" />
<rect fill="none" height="24" stroke="#405C86" stroke-width="2" width="96" x="3354" y="138" />
<text class="label" x="3402" y="151">58</text>
<rect fill="#DEE6F1" height="24" width="96" x="3258" y="138" />
<rect fill="none" height="24" stroke="#405C86" stroke-width="2" width="96" x="3258" y="138" />
<text class="label" x="3306" y="151">60</text>
<rect fill="#DEE6F1" height="24" width="96" x="3162" y="138" />
<rect fill="none" height="24" stroke="#405C86" stroke-width="2" width="96" x="3162" y="138" />
<text class="label" x="3210" y="151">62</text>
<rect fill="#EEDDDB" height="24" width="96" x="3066" y="138" />
<rect fill="none" height="24" stroke="#405C86" stroke-width="2" width="96" x="3066" y="138" />
<text class="label" x="3114" y="151">0</text>
<rect fill="#EEDDDB" height="24" width="96" x="2970" y="138" />
<rect fill="none" height="24" stroke="#405C86" stroke-width="2" width="96" x="2970" y="138" />
<text class="label" x="3018" y="151">2</text>
<rect fill="#EEDDDB" height="24" width="96" x="2874" y="138" />
<rect fill="none" height="24" stroke="#405C86" stroke-width="2" width="96" x="2874" y="138" />
<text class="label" x="2922" y="151">4</text>
<rect fill="#EEDDDB" height="24" width="96" x="2778" y="138" />
<rect fill="none" height="24" stroke="#405C86" stroke-width="2" width="96" x="2778" y="138" />
<text class="label" x="2826" y="151">6</text>
<rect fill="#EEDDDB" height="24" width="96" x="2682" y="138" />
<rect fill="none" height="24" stroke="#405C86" stroke-width="2" width="96" x="2682" y="138" />
<text class="label" x="2730" y="151">8</text>
<rect fill="#EEDDDB" height="24" width="96" x="2586" y="138" />
<rect fill="none" height="24" stroke="#405C86" stroke-width="2" width="96" x="2586" y="138" />
<text class="label" x="2634" y="151">10</text>
<rect fill="#EEDDDB" height="24" width="96" x="2490" y="138" />
<rect fill="none" height="24" stroke="#405C86" stroke-width="2" width="96" x="2490" y="138" />
<text class="label" x="2538" y="151">12</text>
<rect fill="#EEDDDB" height="24" width="96" x="2394" y="138" />
<rect fill="none" height="24" stroke="#405C86" stroke-width="2" width="96" x="2394" y="138" />
<text class="label" x="2442" y="151">14</text>
<rect fill="#EEDDDB" height="24" width="96" x="2298" y="138" />
<rect fill="none" height="24" stroke="#405C86" stroke-width="2" width="96" x="2298" y="138" />
<text class="label" x="2346" y="151">16</text>
<rect fill="#EEDDDB" height="24" width="96" x="2202" y="138" />
<rect fill="none" height="24" stroke="#405C86" stroke-width="2" width="96" x="2202" y="138" />
<text class="label" x="2250" y="151">18</text>
<rect fill="#EEDDDB" height="24" width="96" x="2106" y="138" />
<rect fill="none" height="24" stroke="#405C86" stroke-width="2" width="96" x="2106" y="138" />
<text class="label" x="2154" y="151">20</text>
<rect fill="#EEDDDB" height="24" width="96" x="2010" y="138" />
<rect fill="none" height="24" stroke="#405C86" stroke-width="2" width="96" x="2010" y="138" />
<text class="label" x="2058" y="151">22</text>
<rect fill="#EEDDDB" height="24" width="96" x="1914" y="138" />
<rect fill="none" height="24" stroke="#405C86" stroke-width="2" width="96" x="1914" y="138" />
<text class="label" x="1962" y="151">24</text>
<rect fill="#EEDDDB" height="24" width="96" x="1818" y="138" />
<rect fill="none" height="24" stroke="#405C86" stroke-width="2" width="96" x="1818" y="138" />
<text class="label" x="1866" y="151">26</text>
<rect fill="#EEDDDB" height="24" width="96" x="1722" y="138" />
<rect fill="none" height="24" stroke="#405C86" stroke-width="2" width="96" x="1722" y="138" />
<text class="label" x="1770" y="151">28</text>
<rect fill="#EEDDDB" height="24" width="96" x="1626" y="138" />
<rect fill="none" height="24" stroke="#405C86" stroke-width="2" width="96" x="1626" y="138" />
<text class="label" x="1674" y="151">30</text>
<rect fill="#EEDDDB" height="24" width="96" x="1530" y="138" />
<rect fill="none" height="24" stroke="#405C86" stroke-width="2" width="96" x="1530" y="138" />
<text class="label" x="1578" y="151">32</text>
<rect fill="#EEDDDB" height="24" width="96" x="1434" y="138" />
<rect fill="none" height="24" stroke="#405C86" stroke-width="2" width="96" x="1434" y="138" />
<text class="label" x="1482" y="151">34</text>
<rect fill="#EEDDDB" height="24" width="96" x="1338" y="138" />
<rect fill="none" height="24" stroke="#405C86" stroke-width="2" width="96" x="1338" y="138" />
<text class="label" x="1386" y="151">36</text>
<rect fill="#EEDDDB" height="24" width="96" x="1242" y="138" />
<rect fill="none" height="24" stroke="#405C86" stroke-width="2" width="96" x="1242" y="138" />
<text class="label" x="1290" y="151">38</text>
<rect fill="#EEDDDB" height="24" width="96" x="1146" y="138" />
<rect fill="none" height="24" stroke="#405C86" stroke-width="2" width="96" x="1146" y="138" />
<text class="label" x="1194" y="151">40</text>
<rect fill="#EEDDDB" height="24" width="96" x="1050" y="138" />
<rect fill="none" height="24" stroke="#405C86" stroke-width="2" width="96" x="1050" y="138" />
<text class="label" x="1098" y="151">42</text>
<rect fill="#EEDDDB" height="24" width="96" x="954" y="138" />
<rect fill="none" height="24" stroke="#405C86" stroke-width="2" width="96" x="954" y="138" />
<text class="label" x="1002" y="151">44</text>
<rect fill="#EEDDDB" height="24" width="96" x="858" y="138" />
<rect fill="none" height="24" stroke="#405C86" stroke-width="2" width="96" x="858" y="138" />
<text class="label" x="906" y="151">46</text>
<rect fill="#EEDDDB" height="24" width="96" x="762" y="138" />
<rect fill="none" height="24" stroke="#405C86" stroke-width="2" width="96" x="762" y="138" />
<text class="label" x="810" y="151">48</text>
<rect fill="#EEDDDB" height="24" width="96" x="666" y="138" />
<rect fill="none" height="24" stroke="#405C86" stroke-width="2" width="96" x="666" y="138" />
<text class="label" x="714" y="151">50</text>
<rect fill="#EEDDDB" height="24" width="96" x="570" y="138" />
<rect fill="none" height="24" stroke="#405C86" stroke-width="2" width="96" x="570" y="138" />
<text class="label" x="618" y="151">52</text>
<rect fill="#EEDDDB" height="24" width="96" x="474" y="138" />
<rect fill="none" height="24" stroke="#405C86" stroke-width="2" width="96" x="474" y="138" />
<text class="label" x="522" y="151">54</text>
<rect fill="#EEDDDB" height="24" width="96" x="378" y="138" />
<rect fill="none" height="24" stroke="#405C86" stroke-width="2" width="96" x="378" y="138" />
<text class="label" x="426" y="151">56</text>
<rect fill="#EEDDDB" height="24" width="96" x="282" y="138" />
<rect fill="none" height="24" stroke="#405C86" stroke-width="2" width="96" x="282" y="138" />
<text class="label" x="330" y="151">58</text>
<rect fill="#EEDDDB" height="24" width="96" x="186" y="138" />
<rect fill="none" height="24" stroke="#405C86" stroke-width="2" width="96" x="186" y="138" />
<text class="label" x="234" y="151">60</text>
<rect fill="#EEDDDB" height="24" width="96" x="90" y="138" />
<rect fill="none" height="24" stroke="#405C86" stroke-width="2" width="96" x="90" y="138" />
<text class="label" x="138" y="151">62</text>
<text class="register-name" x="80" y="150">Zd</text>
<text class="intrinsic-name" x="80" y="162">returns</text>
<text class="register-number" x="10" y="150">(3)</text>
<line stroke="#567DB6" stroke-width="1" x1="6186" x2="6186" y1="42.5" y2="137" />
<line stroke="#567DB6" stroke-width="1" x1="5994" x2="6090" y1="42.5" y2="137" />
<line stroke="#567DB6" stroke-width="1" x1="5802" x2="5994" y1="42.5" y2="137" />
<line stroke="#567DB6" stroke-width="1" x1="618" x2="330" y1="90.5" y2="137" />
<line stroke="#567DB6" stroke-width="1" x1="426" x2="234" y1="90.5" y2="137" />
<line stroke="#567DB6" stroke-width="1" x1="234" x2="138" y1="90.5" y2="137" />
<line marker-end="url(#arrowhead)" stroke="none" x1="6186" x2="6186" y1="42.5" y2="137" />
<line marker-end="url(#arrowhead)" stroke="none" x1="5994" x2="6090" y1="42.5" y2="137" />
<line marker-end="url(#arrowhead)" stroke="none" x1="5802" x2="5994" y1="42.5" y2="137" />
<line marker-end="url(#arrowhead)" stroke="none" x1="618" x2="330" y1="90.5" y2="137" />
<line marker-end="url(#arrowhead)" stroke="none" x1="426" x2="234" y1="90.5" y2="137" />
<line marker-end="url(#arrowhead)" stroke="none" x1="234" x2="138" y1="90.5" y2="137" />
</svg>