<svg xmlns="http://www.w3.org/2000/svg" viewBox="0 0 3174 171">
<style>
.label { font: 14px Helvetica; dominant-baseline: middle; text-anchor: middle; }
.title-left { font: 12px Helvetica; dominant-baseline: middle; }
.title-right { font: 12px Helvetica; dominant-baseline: middle; text-anchor: end; }
.title-intrinsic { font: 12px Helvetica; dominant-baseline: middle; text-anchor: middle; fill: #6778ED; }
.title { font: 12px Helvetica; dominant-baseline: middle; text-anchor: middle; }
.title-unused { font: 12px Helvetica; dominant-baseline: middle; text-anchor: middle; fill: #AAA; }
.register-name { font: 14px Helvetica; dominant-baseline: middle; text-anchor: end; font-style: italic; }
.memory-name { font: 14px Helvetica; dominant-baseline: middle; text-anchor: end; }
.register-number { font: 14px Helvetica; dominant-baseline: middle; text-anchor: start; }
.intrinsic-name { font: 14px Helvetica; dominant-baseline: middle; text-anchor: end; fill: #6778ED; }
.intrinsic-color { fill: #6778ED; }
.small-label { font: 12px Helvetica; dominant-baseline: middle; text-anchor: middle; }
.label-10px { font: 10px Helvetica; dominant-baseline: middle; text-anchor: middle; }
.smaller-label { font: 9px Helvetica; dominant-baseline: middle; text-anchor: middle; }
.label-6px { font: 6px Helvetica; dominant-baseline: middle; text-anchor: middle; }
.label-7px { font: 7px Helvetica; dominant-baseline: middle; text-anchor: middle; }
.unused { fill: #AAA; }
.dim { fill: #888; }
</style>
<defs>
<marker id="arrowhead" markerWidth="10.75" markerHeight="24.5" refX="9.0" refY="6.125" orient="auto">
<polyline points="0.5 0.5, 8.75 6.125, 0.5 11.75" stroke="#567DB6" stroke-width="1" fill="none"/>
</marker>
</defs>
<line stroke="#000" stroke-width="2" x1="474" x2="474" y1="10" y2="170" />
<line stroke="#000" stroke-width="2" x1="858" x2="858" y1="10" y2="170" />
<line stroke="#000" stroke-width="2" x1="1242" x2="1242" y1="10" y2="170" />
<line stroke="#000" stroke-width="2" x1="1626" x2="1626" y1="10" y2="170" />
<line stroke="#000" stroke-width="2" x1="2010" x2="2010" y1="10" y2="170" />
<line stroke="#000" stroke-width="2" x1="2394" x2="2394" y1="10" y2="170" />
<line stroke="#000" stroke-width="2" x1="2778" x2="2778" y1="10" y2="170" />
<text class="title-left" x="90" y="9">upper</text>
<text class="title-right" x="3162" y="9">lower</text>
<rect fill="none" height="24" stroke="#405C86" stroke-dasharray="3 1" stroke-dashoffset="1.5" stroke-width="1" width="96" x="3066" y="18" />
<text class="label unused" x="3114" y="31"></text>
<rect fill="#DEE6F1" height="24" width="96" x="2970" y="18" />
<rect fill="none" height="24" stroke="#405C86" stroke-width="2" width="96" x="2970" y="18" />
<text class="label" x="3018" y="31">1</text>
<rect fill="none" height="24" stroke="#405C86" stroke-dasharray="3 1" stroke-dashoffset="1.5" stroke-width="1" width="96" x="2874" y="18" />
<text class="label unused" x="2922" y="31"></text>
<rect fill="#DEE6F1" height="24" width="96" x="2778" y="18" />
<rect fill="none" height="24" stroke="#405C86" stroke-width="2" width="96" x="2778" y="18" />
<text class="label" x="2826" y="31">3</text>
<rect fill="none" height="24" stroke="#405C86" stroke-dasharray="3 1" stroke-dashoffset="1.5" stroke-width="1" width="96" x="2682" y="18" />
<text class="label unused" x="2730" y="31"></text>
<rect fill="#DEE6F1" height="24" width="96" x="2586" y="18" />
<rect fill="none" height="24" stroke="#405C86" stroke-width="2" width="96" x="2586" y="18" />
<text class="label" x="2634" y="31">5</text>
<rect fill="none" height="24" stroke="#405C86" stroke-dasharray="3 1" stroke-dashoffset="1.5" stroke-width="1" width="96" x="2490" y="18" />
<text class="label unused" x="2538" y="31"></text>
<rect fill="#DEE6F1" height="24" width="96" x="2394" y="18" />
<rect fill="none" height="24" stroke="#405C86" stroke-width="2" width="96" x="2394" y="18" />
<text class="label" x="2442" y="31">7</text>
<rect fill="none" height="24" stroke="#405C86" stroke-dasharray="3 1" stroke-dashoffset="1.5" stroke-width="1" width="96" x="2298" y="18" />
<text class="label unused" x="2346" y="31"></text>
<rect fill="#DEE6F1" height="24" width="96" x="2202" y="18" />
<rect fill="none" height="24" stroke="#405C86" stroke-width="2" width="96" x="2202" y="18" />
<text class="label" x="2250" y="31">9</text>
<rect fill="none" height="24" stroke="#405C86" stroke-dasharray="3 1" stroke-dashoffset="1.5" stroke-width="1" width="96" x="2106" y="18" />
<text class="label unused" x="2154" y="31"></text>
<rect fill="#DEE6F1" height="24" width="96" x="2010" y="18" />
<rect fill="none" height="24" stroke="#405C86" stroke-width="2" width="96" x="2010" y="18" />
<text class="label" x="2058" y="31">11</text>
<rect fill="none" height="24" stroke="#405C86" stroke-dasharray="3 1" stroke-dashoffset="1.5" stroke-width="1" width="96" x="1914" y="18" />
<text class="label unused" x="1962" y="31"></text>
<rect fill="#DEE6F1" height="24" width="96" x="1818" y="18" />
<rect fill="none" height="24" stroke="#405C86" stroke-width="2" width="96" x="1818" y="18" />
<text class="label" x="1866" y="31">13</text>
<rect fill="none" height="24" stroke="#405C86" stroke-dasharray="3 1" stroke-dashoffset="1.5" stroke-width="1" width="96" x="1722" y="18" />
<text class="label unused" x="1770" y="31"></text>
<rect fill="#DEE6F1" height="24" width="96" x="1626" y="18" />
<rect fill="none" height="24" stroke="#405C86" stroke-width="2" width="96" x="1626" y="18" />
<text class="label" x="1674" y="31">15</text>
<rect fill="none" height="24" stroke="#405C86" stroke-dasharray="3 1" stroke-dashoffset="1.5" stroke-width="1" width="96" x="1530" y="18" />
<text class="label unused" x="1578" y="31"></text>
<rect fill="#DEE6F1" height="24" width="96" x="1434" y="18" />
<rect fill="none" height="24" stroke="#405C86" stroke-width="2" width="96" x="1434" y="18" />
<text class="label" x="1482" y="31">17</text>
<rect fill="none" height="24" stroke="#405C86" stroke-dasharray="3 1" stroke-dashoffset="1.5" stroke-width="1" width="96" x="1338" y="18" />
<text class="label unused" x="1386" y="31"></text>
<rect fill="#DEE6F1" height="24" width="96" x="1242" y="18" />
<rect fill="none" height="24" stroke="#405C86" stroke-width="2" width="96" x="1242" y="18" />
<text class="label" x="1290" y="31">19</text>
<rect fill="none" height="24" stroke="#405C86" stroke-dasharray="3 1" stroke-dashoffset="1.5" stroke-width="1" width="96" x="1146" y="18" />
<text class="label unused" x="1194" y="31"></text>
<rect fill="#DEE6F1" height="24" width="96" x="1050" y="18" />
<rect fill="none" height="24" stroke="#405C86" stroke-width="2" width="96" x="1050" y="18" />
<text class="label" x="1098" y="31">21</text>
<rect fill="none" height="24" stroke="#405C86" stroke-dasharray="3 1" stroke-dashoffset="1.5" stroke-width="1" width="96" x="954" y="18" />
<text class="label unused" x="1002" y="31"></text>
<rect fill="#DEE6F1" height="24" width="96" x="858" y="18" />
<rect fill="none" height="24" stroke="#405C86" stroke-width="2" width="96" x="858" y="18" />
<text class="label" x="906" y="31">23</text>
<rect fill="none" height="24" stroke="#405C86" stroke-dasharray="3 1" stroke-dashoffset="1.5" stroke-width="1" width="96" x="762" y="18" />
<text class="label unused" x="810" y="31"></text>
<rect fill="#DEE6F1" height="24" width="96" x="666" y="18" />
<rect fill="none" height="24" stroke="#405C86" stroke-width="2" width="96" x="666" y="18" />
<text class="label" x="714" y="31">25</text>
<rect fill="none" height="24" stroke="#405C86" stroke-dasharray="3 1" stroke-dashoffset="1.5" stroke-width="1" width="96" x="570" y="18" />
<text class="label unused" x="618" y="31"></text>
<rect fill="#DEE6F1" height="24" width="96" x="474" y="18" />
<rect fill="none" height="24" stroke="#405C86" stroke-width="2" width="96" x="474" y="18" />
<text class="label" x="522" y="31">27</text>
<rect fill="none" height="24" stroke="#405C86" stroke-dasharray="3 1" stroke-dashoffset="1.5" stroke-width="1" width="96" x="378" y="18" />
<text class="label unused" x="426" y="31"></text>
<rect fill="#DEE6F1" height="24" width="96" x="282" y="18" />
<rect fill="none" height="24" stroke="#405C86" stroke-width="2" width="96" x="282" y="18" />
<text class="label" x="330" y="31">29</text>
<rect fill="none" height="24" stroke="#405C86" stroke-dasharray="3 1" stroke-dashoffset="1.5" stroke-width="1" width="96" x="186" y="18" />
<text class="label unused" x="234" y="31"></text>
<rect fill="#DEE6F1" height="24" width="96" x="90" y="18" />
<rect fill="none" height="24" stroke="#405C86" stroke-width="2" width="96" x="90" y="18" />
<text class="label" x="138" y="31">31</text>
<text class="register-name" x="80" y="30">Zn</text>
<text class="register-number" x="10" y="30">(1)</text>
<rect fill="none" height="24" stroke="#405C86" stroke-dasharray="3 1" stroke-dashoffset="1.5" stroke-width="1" width="96" x="3066" y="66" />
<text class="label unused" x="3114" y="79"></text>
<rect fill="#EEDDDB" height="24" width="96" x="2970" y="66" />
<rect fill="none" height="24" stroke="#405C86" stroke-width="2" width="96" x="2970" y="66" />
<text class="label" x="3018" y="79">1</text>
<rect fill="none" height="24" stroke="#405C86" stroke-dasharray="3 1" stroke-dashoffset="1.5" stroke-width="1" width="96" x="2874" y="66" />
<text class="label unused" x="2922" y="79"></text>
<rect fill="#EEDDDB" height="24" width="96" x="2778" y="66" />
<rect fill="none" height="24" stroke="#405C86" stroke-width="2" width="96" x="2778" y="66" />
<text class="label" x="2826" y="79">3</text>
<rect fill="none" height="24" stroke="#405C86" stroke-dasharray="3 1" stroke-dashoffset="1.5" stroke-width="1" width="96" x="2682" y="66" />
<text class="label unused" x="2730" y="79"></text>
<rect fill="#EEDDDB" height="24" width="96" x="2586" y="66" />
<rect fill="none" height="24" stroke="#405C86" stroke-width="2" width="96" x="2586" y="66" />
<text class="label" x="2634" y="79">5</text>
<rect fill="none" height="24" stroke="#405C86" stroke-dasharray="3 1" stroke-dashoffset="1.5" stroke-width="1" width="96" x="2490" y="66" />
<text class="label unused" x="2538" y="79"></text>
<rect fill="#EEDDDB" height="24" width="96" x="2394" y="66" />
<rect fill="none" height="24" stroke="#405C86" stroke-width="2" width="96" x="2394" y="66" />
<text class="label" x="2442" y="79">7</text>
<rect fill="none" height="24" stroke="#405C86" stroke-dasharray="3 1" stroke-dashoffset="1.5" stroke-width="1" width="96" x="2298" y="66" />
<text class="label unused" x="2346" y="79"></text>
<rect fill="#EEDDDB" height="24" width="96" x="2202" y="66" />
<rect fill="none" height="24" stroke="#405C86" stroke-width="2" width="96" x="2202" y="66" />
<text class="label" x="2250" y="79">9</text>
<rect fill="none" height="24" stroke="#405C86" stroke-dasharray="3 1" stroke-dashoffset="1.5" stroke-width="1" width="96" x="2106" y="66" />
<text class="label unused" x="2154" y="79"></text>
<rect fill="#EEDDDB" height="24" width="96" x="2010" y="66" />
<rect fill="none" height="24" stroke="#405C86" stroke-width="2" width="96" x="2010" y="66" />
<text class="label" x="2058" y="79">11</text>
<rect fill="none" height="24" stroke="#405C86" stroke-dasharray="3 1" stroke-dashoffset="1.5" stroke-width="1" width="96" x="1914" y="66" />
<text class="label unused" x="1962" y="79"></text>
<rect fill="#EEDDDB" height="24" width="96" x="1818" y="66" />
<rect fill="none" height="24" stroke="#405C86" stroke-width="2" width="96" x="1818" y="66" />
<text class="label" x="1866" y="79">13</text>
<rect fill="none" height="24" stroke="#405C86" stroke-dasharray="3 1" stroke-dashoffset="1.5" stroke-width="1" width="96" x="1722" y="66" />
<text class="label unused" x="1770" y="79"></text>
<rect fill="#EEDDDB" height="24" width="96" x="1626" y="66" />
<rect fill="none" height="24" stroke="#405C86" stroke-width="2" width="96" x="1626" y="66" />
<text class="label" x="1674" y="79">15</text>
<rect fill="none" height="24" stroke="#405C86" stroke-dasharray="3 1" stroke-dashoffset="1.5" stroke-width="1" width="96" x="1530" y="66" />
<text class="label unused" x="1578" y="79"></text>
<rect fill="#EEDDDB" height="24" width="96" x="1434" y="66" />
<rect fill="none" height="24" stroke="#405C86" stroke-width="2" width="96" x="1434" y="66" />
<text class="label" x="1482" y="79">17</text>
<rect fill="none" height="24" stroke="#405C86" stroke-dasharray="3 1" stroke-dashoffset="1.5" stroke-width="1" width="96" x="1338" y="66" />
<text class="label unused" x="1386" y="79"></text>
<rect fill="#EEDDDB" height="24" width="96" x="1242" y="66" />
<rect fill="none" height="24" stroke="#405C86" stroke-width="2" width="96" x="1242" y="66" />
<text class="label" x="1290" y="79">19</text>
<rect fill="none" height="24" stroke="#405C86" stroke-dasharray="3 1" stroke-dashoffset="1.5" stroke-width="1" width="96" x="1146" y="66" />
<text class="label unused" x="1194" y="79"></text>
<rect fill="#EEDDDB" height="24" width="96" x="1050" y="66" />
<rect fill="none" height="24" stroke="#405C86" stroke-width="2" width="96" x="1050" y="66" />
<text class="label" x="1098" y="79">21</text>
<rect fill="none" height="24" stroke="#405C86" stroke-dasharray="3 1" stroke-dashoffset="1.5" stroke-width="1" width="96" x="954" y="66" />
<text class="label unused" x="1002" y="79"></text>
<rect fill="#EEDDDB" height="24" width="96" x="858" y="66" />
<rect fill="none" height="24" stroke="#405C86" stroke-width="2" width="96" x="858" y="66" />
<text class="label" x="906" y="79">23</text>
<rect fill="none" height="24" stroke="#405C86" stroke-dasharray="3 1" stroke-dashoffset="1.5" stroke-width="1" width="96" x="762" y="66" />
<text class="label unused" x="810" y="79"></text>
<rect fill="#EEDDDB" height="24" width="96" x="666" y="66" />
<rect fill="none" height="24" stroke="#405C86" stroke-width="2" width="96" x="666" y="66" />
<text class="label" x="714" y="79">25</text>
<rect fill="none" height="24" stroke="#405C86" stroke-dasharray="3 1" stroke-dashoffset="1.5" stroke-width="1" width="96" x="570" y="66" />
<text class="label unused" x="618" y="79"></text>
<rect fill="#EEDDDB" height="24" width="96" x="474" y="66" />
<rect fill="none" height="24" stroke="#405C86" stroke-width="2" width="96" x="474" y="66" />
<text class="label" x="522" y="79">27</text>
<rect fill="none" height="24" stroke="#405C86" stroke-dasharray="3 1" stroke-dashoffset="1.5" stroke-width="1" width="96" x="378" y="66" />
<text class="label unused" x="426" y="79"></text>
<rect fill="#EEDDDB" height="24" width="96" x="282" y="66" />
<rect fill="none" height="24" stroke="#405C86" stroke-width="2" width="96" x="282" y="66" />
<text class="label" x="330" y="79">29</text>
<rect fill="none" height="24" stroke="#405C86" stroke-dasharray="3 1" stroke-dashoffset="1.5" stroke-width="1" width="96" x="186" y="66" />
<text class="label unused" x="234" y="79"></text>
<rect fill="#EEDDDB" height="24" width="96" x="90" y="66" />
<rect fill="none" height="24" stroke="#405C86" stroke-width="2" width="96" x="90" y="66" />
<text class="label" x="138" y="79">31</text>
<text class="register-name" x="80" y="78">Zm</text>
<text class="register-number" x="10" y="78">(2)</text>
<rect fill="#DEE6F1" height="24" width="96" x="3066" y="138" />
<rect fill="none" height="24" stroke="#405C86" stroke-width="2" width="96" x="3066" y="138" />
<text class="label" x="3114" y="151">1</text>
<rect fill="#DEE6F1" height="24" width="96" x="2970" y="138" />
<rect fill="none" height="24" stroke="#405C86" stroke-width="2" width="96" x="2970" y="138" />
<text class="label" x="3018" y="151">3</text>
<rect fill="#EEDDDB" height="24" width="96" x="2874" y="138" />
<rect fill="none" height="24" stroke="#405C86" stroke-width="2" width="96" x="2874" y="138" />
<text class="label" x="2922" y="151">1</text>
<rect fill="#EEDDDB" height="24" width="96" x="2778" y="138" />
<rect fill="none" height="24" stroke="#405C86" stroke-width="2" width="96" x="2778" y="138" />
<text class="label" x="2826" y="151">3</text>
<rect fill="#DEE6F1" height="24" width="96" x="2682" y="138" />
<rect fill="none" height="24" stroke="#405C86" stroke-width="2" width="96" x="2682" y="138" />
<text class="label" x="2730" y="151">5</text>
<rect fill="#DEE6F1" height="24" width="96" x="2586" y="138" />
<rect fill="none" height="24" stroke="#405C86" stroke-width="2" width="96" x="2586" y="138" />
<text class="label" x="2634" y="151">7</text>
<rect fill="#EEDDDB" height="24" width="96" x="2490" y="138" />
<rect fill="none" height="24" stroke="#405C86" stroke-width="2" width="96" x="2490" y="138" />
<text class="label" x="2538" y="151">5</text>
<rect fill="#EEDDDB" height="24" width="96" x="2394" y="138" />
<rect fill="none" height="24" stroke="#405C86" stroke-width="2" width="96" x="2394" y="138" />
<text class="label" x="2442" y="151">7</text>
<rect fill="#DEE6F1" height="24" width="96" x="2298" y="138" />
<rect fill="none" height="24" stroke="#405C86" stroke-width="2" width="96" x="2298" y="138" />
<text class="label" x="2346" y="151">9</text>
<rect fill="#DEE6F1" height="24" width="96" x="2202" y="138" />
<rect fill="none" height="24" stroke="#405C86" stroke-width="2" width="96" x="2202" y="138" />
<text class="label" x="2250" y="151">11</text>
<rect fill="#EEDDDB" height="24" width="96" x="2106" y="138" />
<rect fill="none" height="24" stroke="#405C86" stroke-width="2" width="96" x="2106" y="138" />
<text class="label" x="2154" y="151">9</text>
<rect fill="#EEDDDB" height="24" width="96" x="2010" y="138" />
<rect fill="none" height="24" stroke="#405C86" stroke-width="2" width="96" x="2010" y="138" />
<text class="label" x="2058" y="151">11</text>
<rect fill="#DEE6F1" height="24" width="96" x="1914" y="138" />
<rect fill="none" height="24" stroke="#405C86" stroke-width="2" width="96" x="1914" y="138" />
<text class="label" x="1962" y="151">13</text>
<rect fill="#DEE6F1" height="24" width="96" x="1818" y="138" />
<rect fill="none" height="24" stroke="#405C86" stroke-width="2" width="96" x="1818" y="138" />
<text class="label" x="1866" y="151">15</text>
<rect fill="#EEDDDB" height="24" width="96" x="1722" y="138" />
<rect fill="none" height="24" stroke="#405C86" stroke-width="2" width="96" x="1722" y="138" />
<text class="label" x="1770" y="151">13</text>
<rect fill="#EEDDDB" height="24" width="96" x="1626" y="138" />
<rect fill="none" height="24" stroke="#405C86" stroke-width="2" width="96" x="1626" y="138" />
<text class="label" x="1674" y="151">15</text>
<rect fill="#DEE6F1" height="24" width="96" x="1530" y="138" />
<rect fill="none" height="24" stroke="#405C86" stroke-width="2" width="96" x="1530" y="138" />
<text class="label" x="1578" y="151">17</text>
<rect fill="#DEE6F1" height="24" width="96" x="1434" y="138" />
<rect fill="none" height="24" stroke="#405C86" stroke-width="2" width="96" x="1434" y="138" />
<text class="label" x="1482" y="151">19</text>
<rect fill="#EEDDDB" height="24" width="96" x="1338" y="138" />
<rect fill="none" height="24" stroke="#405C86" stroke-width="2" width="96" x="1338" y="138" />
<text class="label" x="1386" y="151">17</text>
<rect fill="#EEDDDB" height="24" width="96" x="1242" y="138" />
<rect fill="none" height="24" stroke="#405C86" stroke-width="2" width="96" x="1242" y="138" />
<text class="label" x="1290" y="151">19</text>
<rect fill="#DEE6F1" height="24" width="96" x="1146" y="138" />
<rect fill="none" height="24" stroke="#405C86" stroke-width="2" width="96" x="1146" y="138" />
<text class="label" x="1194" y="151">21</text>
<rect fill="#DEE6F1" height="24" width="96" x="1050" y="138" />
<rect fill="none" height="24" stroke="#405C86" stroke-width="2" width="96" x="1050" y="138" />
<text class="label" x="1098" y="151">23</text>
<rect fill="#EEDDDB" height="24" width="96" x="954" y="138" />
<rect fill="none" height="24" stroke="#405C86" stroke-width="2" width="96" x="954" y="138" />
<text class="label" x="1002" y="151">21</text>
<rect fill="#EEDDDB" height="24" width="96" x="858" y="138" />
<rect fill="none" height="24" stroke="#405C86" stroke-width="2" width="96" x="858" y="138" />
<text class="label" x="906" y="151">23</text>
<rect fill="#DEE6F1" height="24" width="96" x="762" y="138" />
<rect fill="none" height="24" stroke="#405C86" stroke-width="2" width="96" x="762" y="138" />
<text class="label" x="810" y="151">25</text>
<rect fill="#DEE6F1" height="24" width="96" x="666" y="138" />
<rect fill="none" height="24" stroke="#405C86" stroke-width="2" width="96" x="666" y="138" />
<text class="label" x="714" y="151">27</text>
<rect fill="#EEDDDB" height="24" width="96" x="570" y="138" />
<rect fill="none" height="24" stroke="#405C86" stroke-width="2" width="96" x="570" y="138" />
<text class="label" x="618" y="151">25</text>
<rect fill="#EEDDDB" height="24" width="96" x="474" y="138" />
<rect fill="none" height="24" stroke="#405C86" stroke-width="2" width="96" x="474" y="138" />
<text class="label" x="522" y="151">27</text>
<rect fill="#DEE6F1" height="24" width="96" x="378" y="138" />
<rect fill="none" height="24" stroke="#405C86" stroke-width="2" width="96" x="378" y="138" />
<text class="label" x="426" y="151">29</text>
<rect fill="#DEE6F1" height="24" width="96" x="282" y="138" />
<rect fill="none" height="24" stroke="#405C86" stroke-width="2" width="96" x="282" y="138" />
<text class="label" x="330" y="151">31</text>
<rect fill="#EEDDDB" height="24" width="96" x="186" y="138" />
<rect fill="none" height="24" stroke="#405C86" stroke-width="2" width="96" x="186" y="138" />
<text class="label" x="234" y="151">29</text>
<rect fill="#EEDDDB" height="24" width="96" x="90" y="138" />
<rect fill="none" height="24" stroke="#405C86" stroke-width="2" width="96" x="90" y="138" />
<text class="label" x="138" y="151">31</text>
<text class="register-name" x="80" y="150">Zd</text>
<text class="register-number" x="10" y="150">(3)</text>
<line stroke="#567DB6" stroke-width="1" x1="3018" x2="3114" y1="42.5" y2="137" />
<line stroke="#567DB6" stroke-width="1" x1="3018" x2="2922" y1="90.5" y2="137" />
<line stroke="#567DB6" stroke-width="1" x1="2826" x2="3018" y1="42.5" y2="137" />
<line stroke="#567DB6" stroke-width="1" x1="2826" x2="2826" y1="90.5" y2="137" />
<line stroke="#567DB6" stroke-width="1" x1="2634" x2="2730" y1="42.5" y2="137" />
<line stroke="#567DB6" stroke-width="1" x1="2634" x2="2538" y1="90.5" y2="137" />
<line stroke="#567DB6" stroke-width="1" x1="2442" x2="2634" y1="42.5" y2="137" />
<line stroke="#567DB6" stroke-width="1" x1="2442" x2="2442" y1="90.5" y2="137" />
<line stroke="#567DB6" stroke-width="1" x1="2250" x2="2346" y1="42.5" y2="137" />
<line stroke="#567DB6" stroke-width="1" x1="2250" x2="2154" y1="90.5" y2="137" />
<line stroke="#567DB6" stroke-width="1" x1="2058" x2="2250" y1="42.5" y2="137" />
<line stroke="#567DB6" stroke-width="1" x1="2058" x2="2058" y1="90.5" y2="137" />
<line stroke="#567DB6" stroke-width="1" x1="1866" x2="1962" y1="42.5" y2="137" />
<line stroke="#567DB6" stroke-width="1" x1="1866" x2="1770" y1="90.5" y2="137" />
<line stroke="#567DB6" stroke-width="1" x1="1674" x2="1866" y1="42.5" y2="137" />
<line stroke="#567DB6" stroke-width="1" x1="1674" x2="1674" y1="90.5" y2="137" />
<line stroke="#567DB6" stroke-width="1" x1="1482" x2="1578" y1="42.5" y2="137" />
<line stroke="#567DB6" stroke-width="1" x1="1482" x2="1386" y1="90.5" y2="137" />
<line stroke="#567DB6" stroke-width="1" x1="1290" x2="1482" y1="42.5" y2="137" />
<line stroke="#567DB6" stroke-width="1" x1="1290" x2="1290" y1="90.5" y2="137" />
<line stroke="#567DB6" stroke-width="1" x1="1098" x2="1194" y1="42.5" y2="137" />
<line stroke="#567DB6" stroke-width="1" x1="1098" x2="1002" y1="90.5" y2="137" />
<line stroke="#567DB6" stroke-width="1" x1="906" x2="1098" y1="42.5" y2="137" />
<line stroke="#567DB6" stroke-width="1" x1="906" x2="906" y1="90.5" y2="137" />
<line stroke="#567DB6" stroke-width="1" x1="714" x2="810" y1="42.5" y2="137" />
<line stroke="#567DB6" stroke-width="1" x1="714" x2="618" y1="90.5" y2="137" />
<line stroke="#567DB6" stroke-width="1" x1="522" x2="714" y1="42.5" y2="137" />
<line stroke="#567DB6" stroke-width="1" x1="522" x2="522" y1="90.5" y2="137" />
<line stroke="#567DB6" stroke-width="1" x1="330" x2="426" y1="42.5" y2="137" />
<line stroke="#567DB6" stroke-width="1" x1="330" x2="234" y1="90.5" y2="137" />
<line stroke="#567DB6" stroke-width="1" x1="138" x2="330" y1="42.5" y2="137" />
<line stroke="#567DB6" stroke-width="1" x1="138" x2="138" y1="90.5" y2="137" />
<line marker-end="url(#arrowhead)" stroke="none" x1="3018" x2="3114" y1="42.5" y2="137" />
<line marker-end="url(#arrowhead)" stroke="none" x1="3018" x2="2922" y1="90.5" y2="137" />
<line marker-end="url(#arrowhead)" stroke="none" x1="2826" x2="3018" y1="42.5" y2="137" />
<line marker-end="url(#arrowhead)" stroke="none" x1="2826" x2="2826" y1="90.5" y2="137" />
<line marker-end="url(#arrowhead)" stroke="none" x1="2634" x2="2730" y1="42.5" y2="137" />
<line marker-end="url(#arrowhead)" stroke="none" x1="2634" x2="2538" y1="90.5" y2="137" />
<line marker-end="url(#arrowhead)" stroke="none" x1="2442" x2="2634" y1="42.5" y2="137" />
<line marker-end="url(#arrowhead)" stroke="none" x1="2442" x2="2442" y1="90.5" y2="137" />
<line marker-end="url(#arrowhead)" stroke="none" x1="2250" x2="2346" y1="42.5" y2="137" />
<line marker-end="url(#arrowhead)" stroke="none" x1="2250" x2="2154" y1="90.5" y2="137" />
<line marker-end="url(#arrowhead)" stroke="none" x1="2058" x2="2250" y1="42.5" y2="137" />
<line marker-end="url(#arrowhead)" stroke="none" x1="2058" x2="2058" y1="90.5" y2="137" />
<line marker-end="url(#arrowhead)" stroke="none" x1="1866" x2="1962" y1="42.5" y2="137" />
<line marker-end="url(#arrowhead)" stroke="none" x1="1866" x2="1770" y1="90.5" y2="137" />
<line marker-end="url(#arrowhead)" stroke="none" x1="1674" x2="1866" y1="42.5" y2="137" />
<line marker-end="url(#arrowhead)" stroke="none" x1="1674" x2="1674" y1="90.5" y2="137" />
<line marker-end="url(#arrowhead)" stroke="none" x1="1482" x2="1578" y1="42.5" y2="137" />
<line marker-end="url(#arrowhead)" stroke="none" x1="1482" x2="1386" y1="90.5" y2="137" />
<line marker-end="url(#arrowhead)" stroke="none" x1="1290" x2="1482" y1="42.5" y2="137" />
<line marker-end="url(#arrowhead)" stroke="none" x1="1290" x2="1290" y1="90.5" y2="137" />
<line marker-end="url(#arrowhead)" stroke="none" x1="1098" x2="1194" y1="42.5" y2="137" />
<line marker-end="url(#arrowhead)" stroke="none" x1="1098" x2="1002" y1="90.5" y2="137" />
<line marker-end="url(#arrowhead)" stroke="none" x1="906" x2="1098" y1="42.5" y2="137" />
<line marker-end="url(#arrowhead)" stroke="none" x1="906" x2="906" y1="90.5" y2="137" />
<line marker-end="url(#arrowhead)" stroke="none" x1="714" x2="810" y1="42.5" y2="137" />
<line marker-end="url(#arrowhead)" stroke="none" x1="714" x2="618" y1="90.5" y2="137" />
<line marker-end="url(#arrowhead)" stroke="none" x1="522" x2="714" y1="42.5" y2="137" />
<line marker-end="url(#arrowhead)" stroke="none" x1="522" x2="522" y1="90.5" y2="137" />
<line marker-end="url(#arrowhead)" stroke="none" x1="330" x2="426" y1="42.5" y2="137" />
<line marker-end="url(#arrowhead)" stroke="none" x1="330" x2="234" y1="90.5" y2="137" />
<line marker-end="url(#arrowhead)" stroke="none" x1="138" x2="330" y1="42.5" y2="137" />
<line marker-end="url(#arrowhead)" stroke="none" x1="138" x2="138" y1="90.5" y2="137" />
</svg>