<svg xmlns="http://www.w3.org/2000/svg" viewBox="0 0 868 315">
<style>
.label { font: 14px Helvetica; dominant-baseline: middle; text-anchor: middle; }
.title-left { font: 12px Helvetica; dominant-baseline: middle; }
.title-right { font: 12px Helvetica; dominant-baseline: middle; text-anchor: end; }
.title-intrinsic { font: 12px Helvetica; dominant-baseline: middle; text-anchor: middle; fill: #6778ED; }
.title { font: 12px Helvetica; dominant-baseline: middle; text-anchor: middle; }
.title-unused { font: 12px Helvetica; dominant-baseline: middle; text-anchor: middle; fill: #AAA; }
.register-name { font: 14px Helvetica; dominant-baseline: middle; text-anchor: end; font-style: italic; }
.memory-name { font: 14px Helvetica; dominant-baseline: middle; text-anchor: end; }
.register-number { font: 14px Helvetica; dominant-baseline: middle; text-anchor: start; }
.intrinsic-name { font: 14px Helvetica; dominant-baseline: middle; text-anchor: end; fill: #6778ED; }
.intrinsic-color { fill: #6778ED; }
.small-label { font: 12px Helvetica; dominant-baseline: middle; text-anchor: middle; }
.label-10px { font: 10px Helvetica; dominant-baseline: middle; text-anchor: middle; }
.smaller-label { font: 9px Helvetica; dominant-baseline: middle; text-anchor: middle; }
.label-6px { font: 6px Helvetica; dominant-baseline: middle; text-anchor: middle; }
.label-7px { font: 7px Helvetica; dominant-baseline: middle; text-anchor: middle; }
.unused { fill: #AAA; }
.dim { fill: #888; }
</style>
<defs>
<marker id="arrowhead" markerWidth="9.5" markerHeight="21.0" refX="7.75" refY="5.25" orient="auto">
<polyline points="0.5 0.5, 7.5 5.25, 0.5 10.0" stroke="#567DB6" stroke-width="1" fill="none"/>
</marker>
</defs>
<polyline fill="none" marker-end="url(#arrowhead)" points="846.0 162.5,824.5 162.5" stroke="#567DB6" stroke-width="1" />
<polyline fill="none" marker-end="url(#arrowhead)" points="822.0 162.5,800.5 162.5" stroke="#567DB6" stroke-width="1" />
<polyline fill="none" marker-end="url(#arrowhead)" points="798.0 162.5,776.5 162.5" stroke="#567DB6" stroke-width="1" />
<polyline fill="none" marker-end="url(#arrowhead)" points="774.0 162.5,752.5 162.5" stroke="#567DB6" stroke-width="1" />
<polyline fill="none" marker-end="url(#arrowhead)" points="750.0 162.5,728.5 162.5" stroke="#567DB6" stroke-width="1" />
<polyline fill="none" marker-end="url(#arrowhead)" points="726.0 162.5,704.5 162.5" stroke="#567DB6" stroke-width="1" />
<polyline fill="none" marker-end="url(#arrowhead)" points="702.0 162.5,680.5 162.5" stroke="#567DB6" stroke-width="1" />
<polyline fill="none" marker-end="url(#arrowhead)" points="678.0 162.5,656.5 162.5" stroke="#567DB6" stroke-width="1" />
<polyline fill="none" marker-end="url(#arrowhead)" points="654.0 162.5,632.5 162.5" stroke="#567DB6" stroke-width="1" />
<polyline fill="none" marker-end="url(#arrowhead)" points="630.0 162.5,608.5 162.5" stroke="#567DB6" stroke-width="1" />
<polyline fill="none" marker-end="url(#arrowhead)" points="606.0 162.5,584.5 162.5" stroke="#567DB6" stroke-width="1" />
<polyline fill="none" marker-end="url(#arrowhead)" points="582.0 162.5,560.5 162.5" stroke="#567DB6" stroke-width="1" />
<polyline fill="none" marker-end="url(#arrowhead)" points="558.0 162.5,536.5 162.5" stroke="#567DB6" stroke-width="1" />
<polyline fill="none" marker-end="url(#arrowhead)" points="534.0 162.5,512.5 162.5" stroke="#567DB6" stroke-width="1" />
<polyline fill="none" marker-end="url(#arrowhead)" points="510.0 162.5,488.5 162.5" stroke="#567DB6" stroke-width="1" />
<polyline fill="none" marker-end="url(#arrowhead)" points="486.0 162.5,464.5 162.5" stroke="#567DB6" stroke-width="1" />
<polyline fill="none" marker-end="url(#arrowhead)" points="462.0 162.5,440.5 162.5" stroke="#567DB6" stroke-width="1" />
<polyline fill="none" marker-end="url(#arrowhead)" points="438.0 162.5,416.5 162.5" stroke="#567DB6" stroke-width="1" />
<polyline fill="none" marker-end="url(#arrowhead)" points="414.0 162.5,392.5 162.5" stroke="#567DB6" stroke-width="1" />
<polyline fill="none" marker-end="url(#arrowhead)" points="390.0 162.5,368.5 162.5" stroke="#567DB6" stroke-width="1" />
<polyline fill="none" marker-end="url(#arrowhead)" points="366.0 162.5,344.5 162.5" stroke="#567DB6" stroke-width="1" />
<polyline fill="none" marker-end="url(#arrowhead)" points="342.0 162.5,320.5 162.5" stroke="#567DB6" stroke-width="1" />
<polyline fill="none" marker-end="url(#arrowhead)" points="318.0 162.5,296.5 162.5" stroke="#567DB6" stroke-width="1" />
<polyline fill="none" marker-end="url(#arrowhead)" points="294.0 162.5,272.5 162.5" stroke="#567DB6" stroke-width="1" />
<polyline fill="none" marker-end="url(#arrowhead)" points="270.0 162.5,248.5 162.5" stroke="#567DB6" stroke-width="1" />
<polyline fill="none" marker-end="url(#arrowhead)" points="246.0 162.5,224.5 162.5" stroke="#567DB6" stroke-width="1" />
<polyline fill="none" marker-end="url(#arrowhead)" points="222.0 162.5,200.5 162.5" stroke="#567DB6" stroke-width="1" />
<polyline fill="none" marker-end="url(#arrowhead)" points="198.0 162.5,176.5 162.5" stroke="#567DB6" stroke-width="1" />
<polyline fill="none" marker-end="url(#arrowhead)" points="174.0 162.5,152.5 162.5" stroke="#567DB6" stroke-width="1" />
<polyline fill="none" marker-end="url(#arrowhead)" points="150.0 162.5,128.5 162.5" stroke="#567DB6" stroke-width="1" />
<polyline fill="none" marker-end="url(#arrowhead)" points="126.0 162.5,104.5 162.5" stroke="#567DB6" stroke-width="1" />
<polyline fill="none" points="99.0 234.5,101.0 238.5,473.0 238.5,474.0 240.5,474.0 244.5,474.0 240.5,475.0 238.5,847.0 238.5,849.0 234.5" stroke="#567DB6" stroke-width="1" />
<polyline fill="none" marker-end="url(#arrowhead)" points="474.0 243.5,474.0 257.5,192.0 257.5,192.0 281.5" stroke="#567DB6" stroke-width="1" />
<line stroke="#567DB6" stroke-width="1" x1="846" x2="846" y1="42.5" y2="160" />
<polyline fill="none" marker-end="url(#arrowhead)" points="846.0 162.5,846.0 209.0" stroke="#567DB6" stroke-width="1" />
<polyline fill="none" marker-end="url(#arrowhead)" points="822.0 162.5,822.0 209.0" stroke="#567DB6" stroke-width="1" />
<polyline fill="none" marker-end="url(#arrowhead)" points="798.0 162.5,798.0 209.0" stroke="#567DB6" stroke-width="1" />
<polyline fill="none" marker-end="url(#arrowhead)" points="774.0 162.5,774.0 209.0" stroke="#567DB6" stroke-width="1" />
<polyline fill="none" marker-end="url(#arrowhead)" points="750.0 162.5,750.0 209.0" stroke="#567DB6" stroke-width="1" />
<polyline fill="none" marker-end="url(#arrowhead)" points="726.0 162.5,726.0 209.0" stroke="#567DB6" stroke-width="1" />
<polyline fill="none" marker-end="url(#arrowhead)" points="702.0 162.5,702.0 209.0" stroke="#567DB6" stroke-width="1" />
<polyline fill="none" marker-end="url(#arrowhead)" points="678.0 162.5,678.0 209.0" stroke="#567DB6" stroke-width="1" />
<polyline fill="none" marker-end="url(#arrowhead)" points="654.0 162.5,654.0 209.0" stroke="#567DB6" stroke-width="1" />
<polyline fill="none" marker-end="url(#arrowhead)" points="630.0 162.5,630.0 209.0" stroke="#567DB6" stroke-width="1" />
<polyline fill="none" marker-end="url(#arrowhead)" points="606.0 162.5,606.0 209.0" stroke="#567DB6" stroke-width="1" />
<polyline fill="none" marker-end="url(#arrowhead)" points="582.0 162.5,582.0 209.0" stroke="#567DB6" stroke-width="1" />
<polyline fill="none" marker-end="url(#arrowhead)" points="558.0 162.5,558.0 209.0" stroke="#567DB6" stroke-width="1" />
<polyline fill="none" marker-end="url(#arrowhead)" points="534.0 162.5,534.0 209.0" stroke="#567DB6" stroke-width="1" />
<polyline fill="none" marker-end="url(#arrowhead)" points="510.0 162.5,510.0 209.0" stroke="#567DB6" stroke-width="1" />
<polyline fill="none" marker-end="url(#arrowhead)" points="486.0 162.5,486.0 209.0" stroke="#567DB6" stroke-width="1" />
<polyline fill="none" marker-end="url(#arrowhead)" points="462.0 162.5,462.0 209.0" stroke="#567DB6" stroke-width="1" />
<polyline fill="none" marker-end="url(#arrowhead)" points="438.0 162.5,438.0 209.0" stroke="#567DB6" stroke-width="1" />
<polyline fill="none" marker-end="url(#arrowhead)" points="414.0 162.5,414.0 209.0" stroke="#567DB6" stroke-width="1" />
<polyline fill="none" marker-end="url(#arrowhead)" points="390.0 162.5,390.0 209.0" stroke="#567DB6" stroke-width="1" />
<polyline fill="none" marker-end="url(#arrowhead)" points="366.0 162.5,366.0 209.0" stroke="#567DB6" stroke-width="1" />
<polyline fill="none" marker-end="url(#arrowhead)" points="342.0 162.5,342.0 209.0" stroke="#567DB6" stroke-width="1" />
<polyline fill="none" marker-end="url(#arrowhead)" points="318.0 162.5,318.0 209.0" stroke="#567DB6" stroke-width="1" />
<polyline fill="none" marker-end="url(#arrowhead)" points="294.0 162.5,294.0 209.0" stroke="#567DB6" stroke-width="1" />
<polyline fill="none" marker-end="url(#arrowhead)" points="270.0 162.5,270.0 209.0" stroke="#567DB6" stroke-width="1" />
<polyline fill="none" marker-end="url(#arrowhead)" points="246.0 162.5,246.0 209.0" stroke="#567DB6" stroke-width="1" />
<polyline fill="none" marker-end="url(#arrowhead)" points="222.0 162.5,222.0 209.0" stroke="#567DB6" stroke-width="1" />
<polyline fill="none" marker-end="url(#arrowhead)" points="198.0 162.5,198.0 209.0" stroke="#567DB6" stroke-width="1" />
<polyline fill="none" marker-end="url(#arrowhead)" points="174.0 162.5,174.0 209.0" stroke="#567DB6" stroke-width="1" />
<polyline fill="none" marker-end="url(#arrowhead)" points="150.0 162.5,150.0 209.0" stroke="#567DB6" stroke-width="1" />
<polyline fill="none" marker-end="url(#arrowhead)" points="126.0 162.5,126.0 209.0" stroke="#567DB6" stroke-width="1" />
<polyline fill="none" marker-end="url(#arrowhead)" points="102.0 162.5,102.0 209.0" stroke="#567DB6" stroke-width="1" />
<text class="title-left" x="90" y="9">upper</text>
<text class="title-right" x="858" y="9">lower</text>
<text class="smaller-label" x="845" y="174.5">A≤B</text>
<text class="smaller-label" x="821" y="186.5">A+1≤B</text>
<text class="smaller-label" x="797" y="174.5">A+2≤B</text>
<text class="smaller-label" x="773" y="186.5">A+3≤B</text>
<text class="smaller-label" x="749" y="174.5">A+4≤B</text>
<text class="smaller-label" x="725" y="186.5">A+5≤B</text>
<text class="smaller-label" x="701" y="174.5">A+6≤B</text>
<text class="smaller-label" x="677" y="186.5">A+7≤B</text>
<text class="smaller-label" x="653" y="174.5">A+8≤B</text>
<text class="smaller-label" x="629" y="186.5">A+9≤B</text>
<text class="smaller-label" x="605" y="174.5">A+10≤B</text>
<text class="smaller-label" x="581" y="186.5">A+11≤B</text>
<text class="smaller-label" x="557" y="174.5">A+12≤B</text>
<text class="smaller-label" x="533" y="186.5">A+13≤B</text>
<text class="smaller-label" x="509" y="174.5">A+14≤B</text>
<text class="smaller-label" x="485" y="186.5">A+15≤B</text>
<text class="smaller-label" x="461" y="174.5">A+16≤B</text>
<text class="smaller-label" x="437" y="186.5">A+17≤B</text>
<text class="smaller-label" x="413" y="174.5">A+18≤B</text>
<text class="smaller-label" x="389" y="186.5">A+19≤B</text>
<text class="smaller-label" x="365" y="174.5">A+20≤B</text>
<text class="smaller-label" x="341" y="186.5">A+21≤B</text>
<text class="smaller-label" x="317" y="174.5">A+22≤B</text>
<text class="smaller-label" x="293" y="186.5">A+23≤B</text>
<text class="smaller-label" x="269" y="174.5">A+24≤B</text>
<text class="smaller-label" x="245" y="186.5">A+25≤B</text>
<text class="smaller-label" x="221" y="174.5">A+26≤B</text>
<text class="smaller-label" x="197" y="186.5">A+27≤B</text>
<text class="smaller-label" x="173" y="174.5">A+28≤B</text>
<text class="smaller-label" x="149" y="186.5">A+29≤B</text>
<text class="smaller-label" x="125" y="174.5">A+30≤B</text>
<text class="smaller-label" x="101" y="186.5">A+31≤B</text>
<circle cx="846" cy="162.5" fill="#567DB6" r="2.5" />
<circle cx="822" cy="162.5" fill="#567DB6" r="2.5" />
<circle cx="798" cy="162.5" fill="#567DB6" r="2.5" />
<circle cx="774" cy="162.5" fill="#567DB6" r="2.5" />
<circle cx="750" cy="162.5" fill="#567DB6" r="2.5" />
<circle cx="726" cy="162.5" fill="#567DB6" r="2.5" />
<circle cx="702" cy="162.5" fill="#567DB6" r="2.5" />
<circle cx="678" cy="162.5" fill="#567DB6" r="2.5" />
<circle cx="654" cy="162.5" fill="#567DB6" r="2.5" />
<circle cx="630" cy="162.5" fill="#567DB6" r="2.5" />
<circle cx="606" cy="162.5" fill="#567DB6" r="2.5" />
<circle cx="582" cy="162.5" fill="#567DB6" r="2.5" />
<circle cx="558" cy="162.5" fill="#567DB6" r="2.5" />
<circle cx="534" cy="162.5" fill="#567DB6" r="2.5" />
<circle cx="510" cy="162.5" fill="#567DB6" r="2.5" />
<circle cx="486" cy="162.5" fill="#567DB6" r="2.5" />
<circle cx="462" cy="162.5" fill="#567DB6" r="2.5" />
<circle cx="438" cy="162.5" fill="#567DB6" r="2.5" />
<circle cx="414" cy="162.5" fill="#567DB6" r="2.5" />
<circle cx="390" cy="162.5" fill="#567DB6" r="2.5" />
<circle cx="366" cy="162.5" fill="#567DB6" r="2.5" />
<circle cx="342" cy="162.5" fill="#567DB6" r="2.5" />
<circle cx="318" cy="162.5" fill="#567DB6" r="2.5" />
<circle cx="294" cy="162.5" fill="#567DB6" r="2.5" />
<circle cx="270" cy="162.5" fill="#567DB6" r="2.5" />
<circle cx="246" cy="162.5" fill="#567DB6" r="2.5" />
<circle cx="222" cy="162.5" fill="#567DB6" r="2.5" />
<circle cx="198" cy="162.5" fill="#567DB6" r="2.5" />
<circle cx="174" cy="162.5" fill="#567DB6" r="2.5" />
<circle cx="150" cy="162.5" fill="#567DB6" r="2.5" />
<circle cx="126" cy="162.5" fill="#567DB6" r="2.5" />
<circle cx="102" cy="162.5" fill="#567DB6" r="2.5" />
<text class="label" x="193" y="266.5">encode predicate-as-counter</text>
<rect fill="#DEE6F1" height="24" width="192" x="666" y="18" />
<text class="label" x="762" y="31">A</text>
<rect fill="none" height="24" stroke="#405C86" stroke-width="2" width="192" x="666" y="18" />
<text class="register-name" x="80" y="30">Xn</text>
<text class="intrinsic-name" x="80" y="42">op1</text>
<text class="register-number" x="10" y="30">(1)</text>
<rect fill="#DEE6F1" height="24" width="192" x="666" y="66" />
<text class="label" x="762" y="79">B</text>
<rect fill="none" height="24" stroke="#405C86" stroke-width="2" width="192" x="666" y="66" />
<text class="register-name" x="80" y="78">Xm</text>
<text class="intrinsic-name" x="80" y="90">op2</text>
<text class="register-number" x="10" y="78">(2)</text>
<rect fill="#DEE6F1" height="24" width="12" x="840" y="210" />
<rect fill="none" height="24" stroke="#405C86" stroke-width="2" width="12" x="840" y="210" />
<rect fill="#DEE6F1" height="24" width="12" x="816" y="210" />
<rect fill="none" height="24" stroke="#405C86" stroke-width="2" width="12" x="816" y="210" />
<rect fill="#DEE6F1" height="24" width="12" x="792" y="210" />
<rect fill="none" height="24" stroke="#405C86" stroke-width="2" width="12" x="792" y="210" />
<rect fill="#DEE6F1" height="24" width="12" x="768" y="210" />
<rect fill="none" height="24" stroke="#405C86" stroke-width="2" width="12" x="768" y="210" />
<rect fill="#DEE6F1" height="24" width="12" x="744" y="210" />
<rect fill="none" height="24" stroke="#405C86" stroke-width="2" width="12" x="744" y="210" />
<rect fill="#DEE6F1" height="24" width="12" x="720" y="210" />
<rect fill="none" height="24" stroke="#405C86" stroke-width="2" width="12" x="720" y="210" />
<rect fill="#DEE6F1" height="24" width="12" x="696" y="210" />
<rect fill="none" height="24" stroke="#405C86" stroke-width="2" width="12" x="696" y="210" />
<rect fill="#DEE6F1" height="24" width="12" x="672" y="210" />
<rect fill="none" height="24" stroke="#405C86" stroke-width="2" width="12" x="672" y="210" />
<rect fill="#DEE6F1" height="24" width="12" x="648" y="210" />
<rect fill="none" height="24" stroke="#405C86" stroke-width="2" width="12" x="648" y="210" />
<rect fill="#DEE6F1" height="24" width="12" x="624" y="210" />
<rect fill="none" height="24" stroke="#405C86" stroke-width="2" width="12" x="624" y="210" />
<rect fill="#DEE6F1" height="24" width="12" x="600" y="210" />
<rect fill="none" height="24" stroke="#405C86" stroke-width="2" width="12" x="600" y="210" />
<rect fill="#DEE6F1" height="24" width="12" x="576" y="210" />
<rect fill="none" height="24" stroke="#405C86" stroke-width="2" width="12" x="576" y="210" />
<rect fill="#DEE6F1" height="24" width="12" x="552" y="210" />
<rect fill="none" height="24" stroke="#405C86" stroke-width="2" width="12" x="552" y="210" />
<rect fill="#DEE6F1" height="24" width="12" x="528" y="210" />
<rect fill="none" height="24" stroke="#405C86" stroke-width="2" width="12" x="528" y="210" />
<rect fill="#DEE6F1" height="24" width="12" x="504" y="210" />
<rect fill="none" height="24" stroke="#405C86" stroke-width="2" width="12" x="504" y="210" />
<rect fill="#DEE6F1" height="24" width="12" x="480" y="210" />
<rect fill="none" height="24" stroke="#405C86" stroke-width="2" width="12" x="480" y="210" />
<rect fill="#DEE6F1" height="24" width="12" x="456" y="210" />
<rect fill="none" height="24" stroke="#405C86" stroke-width="2" width="12" x="456" y="210" />
<rect fill="#DEE6F1" height="24" width="12" x="432" y="210" />
<rect fill="none" height="24" stroke="#405C86" stroke-width="2" width="12" x="432" y="210" />
<rect fill="#DEE6F1" height="24" width="12" x="408" y="210" />
<rect fill="none" height="24" stroke="#405C86" stroke-width="2" width="12" x="408" y="210" />
<rect fill="#DEE6F1" height="24" width="12" x="384" y="210" />
<rect fill="none" height="24" stroke="#405C86" stroke-width="2" width="12" x="384" y="210" />
<rect fill="#DEE6F1" height="24" width="12" x="360" y="210" />
<rect fill="none" height="24" stroke="#405C86" stroke-width="2" width="12" x="360" y="210" />
<rect fill="#DEE6F1" height="24" width="12" x="336" y="210" />
<rect fill="none" height="24" stroke="#405C86" stroke-width="2" width="12" x="336" y="210" />
<rect fill="#DEE6F1" height="24" width="12" x="312" y="210" />
<rect fill="none" height="24" stroke="#405C86" stroke-width="2" width="12" x="312" y="210" />
<rect fill="#DEE6F1" height="24" width="12" x="288" y="210" />
<rect fill="none" height="24" stroke="#405C86" stroke-width="2" width="12" x="288" y="210" />
<rect fill="#DEE6F1" height="24" width="12" x="264" y="210" />
<rect fill="none" height="24" stroke="#405C86" stroke-width="2" width="12" x="264" y="210" />
<rect fill="#DEE6F1" height="24" width="12" x="240" y="210" />
<rect fill="none" height="24" stroke="#405C86" stroke-width="2" width="12" x="240" y="210" />
<rect fill="#DEE6F1" height="24" width="12" x="216" y="210" />
<rect fill="none" height="24" stroke="#405C86" stroke-width="2" width="12" x="216" y="210" />
<rect fill="#DEE6F1" height="24" width="12" x="192" y="210" />
<rect fill="none" height="24" stroke="#405C86" stroke-width="2" width="12" x="192" y="210" />
<rect fill="#DEE6F1" height="24" width="12" x="168" y="210" />
<rect fill="none" height="24" stroke="#405C86" stroke-width="2" width="12" x="168" y="210" />
<rect fill="#DEE6F1" height="24" width="12" x="144" y="210" />
<rect fill="none" height="24" stroke="#405C86" stroke-width="2" width="12" x="144" y="210" />
<rect fill="#DEE6F1" height="24" width="12" x="120" y="210" />
<rect fill="none" height="24" stroke="#405C86" stroke-width="2" width="12" x="120" y="210" />
<rect fill="#DEE6F1" height="24" width="12" x="96" y="210" />
<rect fill="none" height="24" stroke="#405C86" stroke-width="2" width="12" x="96" y="210" />
<rect fill="#ECF1E0" height="24" width="12" x="276" y="282" />
<rect fill="none" height="24" stroke="#405C86" stroke-width="2" width="12" x="276" y="282" />
<text class="label" x="282" y="295">1</text>
<rect fill="#DEE6F1" height="24" width="12" x="264" y="282" />
<rect fill="none" height="24" stroke="#405C86" stroke-width="2" width="12" x="264" y="282" />
<rect fill="#DEE6F1" height="24" width="12" x="252" y="282" />
<rect fill="none" height="24" stroke="#405C86" stroke-width="2" width="12" x="252" y="282" />
<rect fill="#DEE6F1" height="24" width="12" x="240" y="282" />
<rect fill="none" height="24" stroke="#405C86" stroke-width="2" width="12" x="240" y="282" />
<rect fill="#DEE6F1" height="24" width="12" x="228" y="282" />
<rect fill="none" height="24" stroke="#405C86" stroke-width="2" width="12" x="228" y="282" />
<rect fill="#DEE6F1" height="24" width="12" x="216" y="282" />
<rect fill="none" height="24" stroke="#405C86" stroke-width="2" width="12" x="216" y="282" />
<rect fill="#DEE6F1" height="24" width="12" x="204" y="282" />
<rect fill="none" height="24" stroke="#405C86" stroke-width="2" width="12" x="204" y="282" />
<rect fill="#DEE6F1" height="24" width="12" x="192" y="282" />
<rect fill="none" height="24" stroke="#405C86" stroke-width="2" width="12" x="192" y="282" />
<rect fill="#DEE6F1" height="24" width="12" x="180" y="282" />
<rect fill="none" height="24" stroke="#405C86" stroke-width="2" width="12" x="180" y="282" />
<rect fill="#DEE6F1" height="24" width="12" x="168" y="282" />
<rect fill="none" height="24" stroke="#405C86" stroke-width="2" width="12" x="168" y="282" />
<rect fill="#DEE6F1" height="24" width="12" x="156" y="282" />
<rect fill="none" height="24" stroke="#405C86" stroke-width="2" width="12" x="156" y="282" />
<rect fill="#DEE6F1" height="24" width="12" x="144" y="282" />
<rect fill="none" height="24" stroke="#405C86" stroke-width="2" width="12" x="144" y="282" />
<rect fill="#DEE6F1" height="24" width="12" x="132" y="282" />
<rect fill="none" height="24" stroke="#405C86" stroke-width="2" width="12" x="132" y="282" />
<rect fill="#DEE6F1" height="24" width="12" x="120" y="282" />
<rect fill="none" height="24" stroke="#405C86" stroke-width="2" width="12" x="120" y="282" />
<rect fill="#DEE6F1" height="24" width="12" x="108" y="282" />
<rect fill="none" height="24" stroke="#405C86" stroke-width="2" width="12" x="108" y="282" />
<rect fill="#EEDDDB" height="24" width="12" x="96" y="282" />
<rect fill="none" height="24" stroke="#405C86" stroke-width="2" width="12" x="96" y="282" />
<text class="register-name" x="80" y="294">PNd</text>
<text class="intrinsic-name" x="80" y="306">returns</text>
<text class="register-number" x="10" y="294">(3)</text>
<line marker-end="url(#arrowhead)" stroke="none" x1="846" x2="846" y1="42.5" y2="160" />
</svg>