<svg xmlns="http://www.w3.org/2000/svg" viewBox="0 0 870 363">
<style>
.label { font: 14px Helvetica; dominant-baseline: middle; text-anchor: middle; }
.title-left { font: 12px Helvetica; dominant-baseline: middle; }
.title-right { font: 12px Helvetica; dominant-baseline: middle; text-anchor: end; }
.title-intrinsic { font: 12px Helvetica; dominant-baseline: middle; text-anchor: middle; fill: #6778ED; }
.title { font: 12px Helvetica; dominant-baseline: middle; text-anchor: middle; }
.title-unused { font: 12px Helvetica; dominant-baseline: middle; text-anchor: middle; fill: #AAA; }
.register-name { font: 14px Helvetica; dominant-baseline: middle; text-anchor: end; font-style: italic; }
.memory-name { font: 14px Helvetica; dominant-baseline: middle; text-anchor: end; }
.register-number { font: 14px Helvetica; dominant-baseline: middle; text-anchor: start; }
.intrinsic-name { font: 14px Helvetica; dominant-baseline: middle; text-anchor: end; fill: #6778ED; }
.intrinsic-color { fill: #6778ED; }
.small-label { font: 12px Helvetica; dominant-baseline: middle; text-anchor: middle; }
.label-10px { font: 10px Helvetica; dominant-baseline: middle; text-anchor: middle; }
.smaller-label { font: 9px Helvetica; dominant-baseline: middle; text-anchor: middle; }
.label-6px { font: 6px Helvetica; dominant-baseline: middle; text-anchor: middle; }
.label-7px { font: 7px Helvetica; dominant-baseline: middle; text-anchor: middle; }
.unused { fill: #AAA; }
.dim { fill: #888; }
</style>
<defs>
<marker id="arrowhead" markerWidth="10.75" markerHeight="24.5" refX="9.0" refY="6.125" orient="auto">
<polyline points="0.5 0.5, 8.75 6.125, 0.5 11.75" stroke="#567DB6" stroke-width="1" fill="none"/>
</marker>
</defs>
<polyline fill="none" marker-end="url(#arrowhead)" points="834.0 162.5,788.5 162.5" stroke="#567DB6" stroke-width="1" />
<polyline fill="none" marker-end="url(#arrowhead)" points="786.0 162.5,740.5 162.5" stroke="#567DB6" stroke-width="1" />
<polyline fill="none" marker-end="url(#arrowhead)" points="738.0 162.5,692.5 162.5" stroke="#567DB6" stroke-width="1" />
<polyline fill="none" marker-end="url(#arrowhead)" points="690.0 162.5,644.5 162.5" stroke="#567DB6" stroke-width="1" />
<polyline fill="none" marker-end="url(#arrowhead)" points="642.0 162.5,596.5 162.5" stroke="#567DB6" stroke-width="1" />
<polyline fill="none" marker-end="url(#arrowhead)" points="594.0 162.5,548.5 162.5" stroke="#567DB6" stroke-width="1" />
<polyline fill="none" marker-end="url(#arrowhead)" points="546.0 162.5,500.5 162.5" stroke="#567DB6" stroke-width="1" />
<polyline fill="none" marker-end="url(#arrowhead)" points="498.0 162.5,452.5 162.5" stroke="#567DB6" stroke-width="1" />
<polyline fill="none" marker-end="url(#arrowhead)" points="450.0 162.5,404.5 162.5" stroke="#567DB6" stroke-width="1" />
<polyline fill="none" marker-end="url(#arrowhead)" points="402.0 162.5,356.5 162.5" stroke="#567DB6" stroke-width="1" />
<polyline fill="none" marker-end="url(#arrowhead)" points="354.0 162.5,308.5 162.5" stroke="#567DB6" stroke-width="1" />
<polyline fill="none" marker-end="url(#arrowhead)" points="306.0 162.5,260.5 162.5" stroke="#567DB6" stroke-width="1" />
<polyline fill="none" marker-end="url(#arrowhead)" points="258.0 162.5,212.5 162.5" stroke="#567DB6" stroke-width="1" />
<polyline fill="none" marker-end="url(#arrowhead)" points="210.0 162.5,164.5 162.5" stroke="#567DB6" stroke-width="1" />
<polyline fill="none" marker-end="url(#arrowhead)" points="162.0 162.5,116.5 162.5" stroke="#567DB6" stroke-width="1" />
<polyline fill="none" marker-end="url(#arrowhead)" points="834.0 282.5,788.5 282.5" stroke="#567DB6" stroke-width="1" />
<polyline fill="none" marker-end="url(#arrowhead)" points="786.0 282.5,740.5 282.5" stroke="#567DB6" stroke-width="1" />
<polyline fill="none" marker-end="url(#arrowhead)" points="738.0 282.5,692.5 282.5" stroke="#567DB6" stroke-width="1" />
<polyline fill="none" marker-end="url(#arrowhead)" points="690.0 282.5,644.5 282.5" stroke="#567DB6" stroke-width="1" />
<polyline fill="none" marker-end="url(#arrowhead)" points="642.0 282.5,596.5 282.5" stroke="#567DB6" stroke-width="1" />
<polyline fill="none" marker-end="url(#arrowhead)" points="594.0 282.5,548.5 282.5" stroke="#567DB6" stroke-width="1" />
<polyline fill="none" marker-end="url(#arrowhead)" points="546.0 282.5,500.5 282.5" stroke="#567DB6" stroke-width="1" />
<polyline fill="none" marker-end="url(#arrowhead)" points="498.0 282.5,452.5 282.5" stroke="#567DB6" stroke-width="1" />
<polyline fill="none" marker-end="url(#arrowhead)" points="450.0 282.5,404.5 282.5" stroke="#567DB6" stroke-width="1" />
<polyline fill="none" marker-end="url(#arrowhead)" points="402.0 282.5,356.5 282.5" stroke="#567DB6" stroke-width="1" />
<polyline fill="none" marker-end="url(#arrowhead)" points="354.0 282.5,308.5 282.5" stroke="#567DB6" stroke-width="1" />
<polyline fill="none" marker-end="url(#arrowhead)" points="306.0 282.5,260.5 282.5" stroke="#567DB6" stroke-width="1" />
<polyline fill="none" marker-end="url(#arrowhead)" points="258.0 282.5,212.5 282.5" stroke="#567DB6" stroke-width="1" />
<polyline fill="none" marker-end="url(#arrowhead)" points="210.0 282.5,164.5 282.5" stroke="#567DB6" stroke-width="1" />
<polyline fill="none" marker-end="url(#arrowhead)" points="162.0 282.5,116.5 282.5" stroke="#567DB6" stroke-width="1" />
<line stroke="#567DB6" stroke-width="1" x1="834" x2="834" y1="42.5" y2="160" />
<polyline fill="none" marker-end="url(#arrowhead)" points="834.0 162.5,834.0 209.0" stroke="#567DB6" stroke-width="1" />
<polyline fill="none" marker-end="url(#arrowhead)" points="786.0 162.5,786.0 209.0" stroke="#567DB6" stroke-width="1" />
<polyline fill="none" marker-end="url(#arrowhead)" points="738.0 162.5,738.0 209.0" stroke="#567DB6" stroke-width="1" />
<polyline fill="none" marker-end="url(#arrowhead)" points="690.0 162.5,690.0 209.0" stroke="#567DB6" stroke-width="1" />
<polyline fill="none" marker-end="url(#arrowhead)" points="642.0 162.5,642.0 209.0" stroke="#567DB6" stroke-width="1" />
<polyline fill="none" marker-end="url(#arrowhead)" points="594.0 162.5,594.0 209.0" stroke="#567DB6" stroke-width="1" />
<polyline fill="none" marker-end="url(#arrowhead)" points="546.0 162.5,546.0 209.0" stroke="#567DB6" stroke-width="1" />
<polyline fill="none" marker-end="url(#arrowhead)" points="498.0 162.5,498.0 209.0" stroke="#567DB6" stroke-width="1" />
<polyline fill="none" marker-end="url(#arrowhead)" points="450.0 162.5,450.0 209.0" stroke="#567DB6" stroke-width="1" />
<polyline fill="none" marker-end="url(#arrowhead)" points="402.0 162.5,402.0 209.0" stroke="#567DB6" stroke-width="1" />
<polyline fill="none" marker-end="url(#arrowhead)" points="354.0 162.5,354.0 209.0" stroke="#567DB6" stroke-width="1" />
<polyline fill="none" marker-end="url(#arrowhead)" points="306.0 162.5,306.0 209.0" stroke="#567DB6" stroke-width="1" />
<polyline fill="none" marker-end="url(#arrowhead)" points="258.0 162.5,258.0 209.0" stroke="#567DB6" stroke-width="1" />
<polyline fill="none" marker-end="url(#arrowhead)" points="210.0 162.5,210.0 209.0" stroke="#567DB6" stroke-width="1" />
<polyline fill="none" marker-end="url(#arrowhead)" points="162.0 162.5,162.0 209.0" stroke="#567DB6" stroke-width="1" />
<polyline fill="none" marker-end="url(#arrowhead)" points="114.0 162.5,114.0 209.0" stroke="#567DB6" stroke-width="1" />
<polyline fill="none" marker-end="url(#arrowhead)" points="834.0 282.5,834.0 329.0" stroke="#567DB6" stroke-width="1" />
<polyline fill="none" marker-end="url(#arrowhead)" points="786.0 282.5,786.0 329.0" stroke="#567DB6" stroke-width="1" />
<polyline fill="none" marker-end="url(#arrowhead)" points="738.0 282.5,738.0 329.0" stroke="#567DB6" stroke-width="1" />
<polyline fill="none" marker-end="url(#arrowhead)" points="690.0 282.5,690.0 329.0" stroke="#567DB6" stroke-width="1" />
<polyline fill="none" marker-end="url(#arrowhead)" points="642.0 282.5,642.0 329.0" stroke="#567DB6" stroke-width="1" />
<polyline fill="none" marker-end="url(#arrowhead)" points="594.0 282.5,594.0 329.0" stroke="#567DB6" stroke-width="1" />
<polyline fill="none" marker-end="url(#arrowhead)" points="546.0 282.5,546.0 329.0" stroke="#567DB6" stroke-width="1" />
<polyline fill="none" marker-end="url(#arrowhead)" points="498.0 282.5,498.0 329.0" stroke="#567DB6" stroke-width="1" />
<polyline fill="none" marker-end="url(#arrowhead)" points="450.0 282.5,450.0 329.0" stroke="#567DB6" stroke-width="1" />
<polyline fill="none" marker-end="url(#arrowhead)" points="402.0 282.5,402.0 329.0" stroke="#567DB6" stroke-width="1" />
<polyline fill="none" marker-end="url(#arrowhead)" points="354.0 282.5,354.0 329.0" stroke="#567DB6" stroke-width="1" />
<polyline fill="none" marker-end="url(#arrowhead)" points="306.0 282.5,306.0 329.0" stroke="#567DB6" stroke-width="1" />
<polyline fill="none" marker-end="url(#arrowhead)" points="258.0 282.5,258.0 329.0" stroke="#567DB6" stroke-width="1" />
<polyline fill="none" marker-end="url(#arrowhead)" points="210.0 282.5,210.0 329.0" stroke="#567DB6" stroke-width="1" />
<polyline fill="none" marker-end="url(#arrowhead)" points="162.0 282.5,162.0 329.0" stroke="#567DB6" stroke-width="1" />
<polyline fill="none" marker-end="url(#arrowhead)" points="114.0 282.5,114.0 329.0" stroke="#567DB6" stroke-width="1" />
<text class="title-left" x="90" y="9">upper</text>
<text class="title-right" x="858" y="9">lower</text>
<text class="smaller-label" x="831" y="174.5">A ≤ B</text>
<text class="smaller-label" x="785" y="174.5">A+1 ≤ B</text>
<text class="smaller-label" x="737" y="174.5">A+2 ≤ B</text>
<text class="smaller-label" x="689" y="174.5">A+3 ≤ B</text>
<text class="smaller-label" x="641" y="174.5">A+4 ≤ B</text>
<text class="smaller-label" x="593" y="174.5">A+5 ≤ B</text>
<text class="smaller-label" x="545" y="174.5">A+6 ≤ B</text>
<text class="smaller-label" x="497" y="174.5">A+7 ≤ B</text>
<text class="smaller-label" x="449" y="174.5">A+8 ≤ B</text>
<text class="smaller-label" x="401" y="174.5">A+9 ≤ B</text>
<text class="smaller-label" x="350" y="174.5">A+10 ≤ B</text>
<text class="smaller-label" x="302" y="174.5">A+11 ≤ B</text>
<text class="smaller-label" x="254" y="174.5">A+12 ≤ B</text>
<text class="smaller-label" x="206" y="174.5">A+13 ≤ B</text>
<text class="smaller-label" x="158" y="174.5">A+14 ≤ B</text>
<text class="smaller-label" x="110" y="174.5">A+15 ≤ B</text>
<text class="smaller-label" x="830" y="294.5">A+16 ≤ B</text>
<text class="smaller-label" x="782" y="294.5">A+17 ≤ B</text>
<text class="smaller-label" x="734" y="294.5">A+18 ≤ B</text>
<text class="smaller-label" x="686" y="294.5">A+19 ≤ B</text>
<text class="smaller-label" x="638" y="294.5">A+20 ≤ B</text>
<text class="smaller-label" x="590" y="294.5">A+21 ≤ B</text>
<text class="smaller-label" x="542" y="294.5">A+22 ≤ B</text>
<text class="smaller-label" x="494" y="294.5">A+23 ≤ B</text>
<text class="smaller-label" x="446" y="294.5">A+24 ≤ B</text>
<text class="smaller-label" x="398" y="294.5">A+25 ≤ B</text>
<text class="smaller-label" x="350" y="294.5">A+26 ≤ B</text>
<text class="smaller-label" x="302" y="294.5">A+27 ≤ B</text>
<text class="smaller-label" x="254" y="294.5">A+28 ≤ B</text>
<text class="smaller-label" x="206" y="294.5">A+29 ≤ B</text>
<text class="smaller-label" x="158" y="294.5">A+30 ≤ B</text>
<text class="smaller-label" x="110" y="294.5">A+31 ≤ B</text>
<circle cx="834" cy="162.5" fill="#567DB6" r="2.5" />
<circle cx="786" cy="162.5" fill="#567DB6" r="2.5" />
<circle cx="738" cy="162.5" fill="#567DB6" r="2.5" />
<circle cx="690" cy="162.5" fill="#567DB6" r="2.5" />
<circle cx="642" cy="162.5" fill="#567DB6" r="2.5" />
<circle cx="594" cy="162.5" fill="#567DB6" r="2.5" />
<circle cx="546" cy="162.5" fill="#567DB6" r="2.5" />
<circle cx="498" cy="162.5" fill="#567DB6" r="2.5" />
<circle cx="450" cy="162.5" fill="#567DB6" r="2.5" />
<circle cx="402" cy="162.5" fill="#567DB6" r="2.5" />
<circle cx="354" cy="162.5" fill="#567DB6" r="2.5" />
<circle cx="306" cy="162.5" fill="#567DB6" r="2.5" />
<circle cx="258" cy="162.5" fill="#567DB6" r="2.5" />
<circle cx="210" cy="162.5" fill="#567DB6" r="2.5" />
<circle cx="162" cy="162.5" fill="#567DB6" r="2.5" />
<circle cx="114" cy="162.5" fill="#567DB6" r="2.5" />
<circle cx="834" cy="282.5" fill="#567DB6" r="2.5" />
<circle cx="786" cy="282.5" fill="#567DB6" r="2.5" />
<circle cx="738" cy="282.5" fill="#567DB6" r="2.5" />
<circle cx="690" cy="282.5" fill="#567DB6" r="2.5" />
<circle cx="642" cy="282.5" fill="#567DB6" r="2.5" />
<circle cx="594" cy="282.5" fill="#567DB6" r="2.5" />
<circle cx="546" cy="282.5" fill="#567DB6" r="2.5" />
<circle cx="498" cy="282.5" fill="#567DB6" r="2.5" />
<circle cx="450" cy="282.5" fill="#567DB6" r="2.5" />
<circle cx="402" cy="282.5" fill="#567DB6" r="2.5" />
<circle cx="354" cy="282.5" fill="#567DB6" r="2.5" />
<circle cx="306" cy="282.5" fill="#567DB6" r="2.5" />
<circle cx="258" cy="282.5" fill="#567DB6" r="2.5" />
<circle cx="210" cy="282.5" fill="#567DB6" r="2.5" />
<circle cx="162" cy="282.5" fill="#567DB6" r="2.5" />
<circle cx="114" cy="282.5" fill="#567DB6" r="2.5" />
<rect fill="#DEE6F1" height="24" width="192" x="666" y="18" />
<text class="label" x="762" y="31">A</text>
<rect fill="none" height="24" stroke="#405C86" stroke-width="2" width="192" x="666" y="18" />
<text class="register-name" x="80" y="30">Xn</text>
<text class="register-number" x="10" y="30">(1)</text>
<rect fill="#DEE6F1" height="24" width="192" x="666" y="66" />
<text class="label" x="762" y="79">B</text>
<rect fill="none" height="24" stroke="#405C86" stroke-width="2" width="192" x="666" y="66" />
<text class="register-name" x="80" y="78">Xm</text>
<text class="register-number" x="10" y="78">(2)</text>
<rect fill="#DEE6F1" height="24" width="12" x="828" y="210" />
<rect fill="none" height="24" stroke="#405C86" stroke-width="2" width="12" x="828" y="210" />
<rect fill="none" height="24" stroke="#405C86" stroke-dasharray="3 1" stroke-dashoffset="1.5" stroke-width="1" width="12" x="816" y="210" />
<text class="label unused" x="822" y="223">0</text>
<rect fill="#DEE6F1" height="24" width="12" x="780" y="210" />
<rect fill="none" height="24" stroke="#405C86" stroke-width="2" width="12" x="780" y="210" />
<rect fill="none" height="24" stroke="#405C86" stroke-dasharray="3 1" stroke-dashoffset="1.5" stroke-width="1" width="12" x="768" y="210" />
<text class="label unused" x="774" y="223">0</text>
<rect fill="#DEE6F1" height="24" width="12" x="732" y="210" />
<rect fill="none" height="24" stroke="#405C86" stroke-width="2" width="12" x="732" y="210" />
<rect fill="none" height="24" stroke="#405C86" stroke-dasharray="3 1" stroke-dashoffset="1.5" stroke-width="1" width="12" x="720" y="210" />
<text class="label unused" x="726" y="223">0</text>
<rect fill="#DEE6F1" height="24" width="12" x="684" y="210" />
<rect fill="none" height="24" stroke="#405C86" stroke-width="2" width="12" x="684" y="210" />
<rect fill="none" height="24" stroke="#405C86" stroke-dasharray="3 1" stroke-dashoffset="1.5" stroke-width="1" width="12" x="672" y="210" />
<text class="label unused" x="678" y="223">0</text>
<rect fill="#DEE6F1" height="24" width="12" x="636" y="210" />
<rect fill="none" height="24" stroke="#405C86" stroke-width="2" width="12" x="636" y="210" />
<rect fill="none" height="24" stroke="#405C86" stroke-dasharray="3 1" stroke-dashoffset="1.5" stroke-width="1" width="12" x="624" y="210" />
<text class="label unused" x="630" y="223">0</text>
<rect fill="#DEE6F1" height="24" width="12" x="588" y="210" />
<rect fill="none" height="24" stroke="#405C86" stroke-width="2" width="12" x="588" y="210" />
<rect fill="none" height="24" stroke="#405C86" stroke-dasharray="3 1" stroke-dashoffset="1.5" stroke-width="1" width="12" x="576" y="210" />
<text class="label unused" x="582" y="223">0</text>
<rect fill="#DEE6F1" height="24" width="12" x="540" y="210" />
<rect fill="none" height="24" stroke="#405C86" stroke-width="2" width="12" x="540" y="210" />
<rect fill="none" height="24" stroke="#405C86" stroke-dasharray="3 1" stroke-dashoffset="1.5" stroke-width="1" width="12" x="528" y="210" />
<text class="label unused" x="534" y="223">0</text>
<rect fill="#DEE6F1" height="24" width="12" x="492" y="210" />
<rect fill="none" height="24" stroke="#405C86" stroke-width="2" width="12" x="492" y="210" />
<rect fill="none" height="24" stroke="#405C86" stroke-dasharray="3 1" stroke-dashoffset="1.5" stroke-width="1" width="12" x="480" y="210" />
<text class="label unused" x="486" y="223">0</text>
<rect fill="#DEE6F1" height="24" width="12" x="444" y="210" />
<rect fill="none" height="24" stroke="#405C86" stroke-width="2" width="12" x="444" y="210" />
<rect fill="none" height="24" stroke="#405C86" stroke-dasharray="3 1" stroke-dashoffset="1.5" stroke-width="1" width="12" x="432" y="210" />
<text class="label unused" x="438" y="223">0</text>
<rect fill="#DEE6F1" height="24" width="12" x="396" y="210" />
<rect fill="none" height="24" stroke="#405C86" stroke-width="2" width="12" x="396" y="210" />
<rect fill="none" height="24" stroke="#405C86" stroke-dasharray="3 1" stroke-dashoffset="1.5" stroke-width="1" width="12" x="384" y="210" />
<text class="label unused" x="390" y="223">0</text>
<rect fill="#DEE6F1" height="24" width="12" x="348" y="210" />
<rect fill="none" height="24" stroke="#405C86" stroke-width="2" width="12" x="348" y="210" />
<rect fill="none" height="24" stroke="#405C86" stroke-dasharray="3 1" stroke-dashoffset="1.5" stroke-width="1" width="12" x="336" y="210" />
<text class="label unused" x="342" y="223">0</text>
<rect fill="#DEE6F1" height="24" width="12" x="300" y="210" />
<rect fill="none" height="24" stroke="#405C86" stroke-width="2" width="12" x="300" y="210" />
<rect fill="none" height="24" stroke="#405C86" stroke-dasharray="3 1" stroke-dashoffset="1.5" stroke-width="1" width="12" x="288" y="210" />
<text class="label unused" x="294" y="223">0</text>
<rect fill="#DEE6F1" height="24" width="12" x="252" y="210" />
<rect fill="none" height="24" stroke="#405C86" stroke-width="2" width="12" x="252" y="210" />
<rect fill="none" height="24" stroke="#405C86" stroke-dasharray="3 1" stroke-dashoffset="1.5" stroke-width="1" width="12" x="240" y="210" />
<text class="label unused" x="246" y="223">0</text>
<rect fill="#DEE6F1" height="24" width="12" x="204" y="210" />
<rect fill="none" height="24" stroke="#405C86" stroke-width="2" width="12" x="204" y="210" />
<rect fill="none" height="24" stroke="#405C86" stroke-dasharray="3 1" stroke-dashoffset="1.5" stroke-width="1" width="12" x="192" y="210" />
<text class="label unused" x="198" y="223">0</text>
<rect fill="#DEE6F1" height="24" width="12" x="156" y="210" />
<rect fill="none" height="24" stroke="#405C86" stroke-width="2" width="12" x="156" y="210" />
<rect fill="none" height="24" stroke="#405C86" stroke-dasharray="3 1" stroke-dashoffset="1.5" stroke-width="1" width="12" x="144" y="210" />
<text class="label unused" x="150" y="223">0</text>
<rect fill="#DEE6F1" height="24" width="12" x="108" y="210" />
<rect fill="none" height="24" stroke="#405C86" stroke-width="2" width="12" x="108" y="210" />
<rect fill="none" height="24" stroke="#405C86" stroke-dasharray="3 1" stroke-dashoffset="1.5" stroke-width="1" width="12" x="96" y="210" />
<text class="label unused" x="102" y="223">0</text>
<text class="register-name" x="80" y="222">Pd1</text>
<text class="register-number" x="10" y="222">(3)</text>
<rect fill="#DEE6F1" height="24" width="12" x="828" y="330" />
<rect fill="none" height="24" stroke="#405C86" stroke-width="2" width="12" x="828" y="330" />
<rect fill="none" height="24" stroke="#405C86" stroke-dasharray="3 1" stroke-dashoffset="1.5" stroke-width="1" width="12" x="816" y="330" />
<text class="label unused" x="822" y="343">0</text>
<rect fill="#DEE6F1" height="24" width="12" x="780" y="330" />
<rect fill="none" height="24" stroke="#405C86" stroke-width="2" width="12" x="780" y="330" />
<rect fill="none" height="24" stroke="#405C86" stroke-dasharray="3 1" stroke-dashoffset="1.5" stroke-width="1" width="12" x="768" y="330" />
<text class="label unused" x="774" y="343">0</text>
<rect fill="#DEE6F1" height="24" width="12" x="732" y="330" />
<rect fill="none" height="24" stroke="#405C86" stroke-width="2" width="12" x="732" y="330" />
<rect fill="none" height="24" stroke="#405C86" stroke-dasharray="3 1" stroke-dashoffset="1.5" stroke-width="1" width="12" x="720" y="330" />
<text class="label unused" x="726" y="343">0</text>
<rect fill="#DEE6F1" height="24" width="12" x="684" y="330" />
<rect fill="none" height="24" stroke="#405C86" stroke-width="2" width="12" x="684" y="330" />
<rect fill="none" height="24" stroke="#405C86" stroke-dasharray="3 1" stroke-dashoffset="1.5" stroke-width="1" width="12" x="672" y="330" />
<text class="label unused" x="678" y="343">0</text>
<rect fill="#DEE6F1" height="24" width="12" x="636" y="330" />
<rect fill="none" height="24" stroke="#405C86" stroke-width="2" width="12" x="636" y="330" />
<rect fill="none" height="24" stroke="#405C86" stroke-dasharray="3 1" stroke-dashoffset="1.5" stroke-width="1" width="12" x="624" y="330" />
<text class="label unused" x="630" y="343">0</text>
<rect fill="#DEE6F1" height="24" width="12" x="588" y="330" />
<rect fill="none" height="24" stroke="#405C86" stroke-width="2" width="12" x="588" y="330" />
<rect fill="none" height="24" stroke="#405C86" stroke-dasharray="3 1" stroke-dashoffset="1.5" stroke-width="1" width="12" x="576" y="330" />
<text class="label unused" x="582" y="343">0</text>
<rect fill="#DEE6F1" height="24" width="12" x="540" y="330" />
<rect fill="none" height="24" stroke="#405C86" stroke-width="2" width="12" x="540" y="330" />
<rect fill="none" height="24" stroke="#405C86" stroke-dasharray="3 1" stroke-dashoffset="1.5" stroke-width="1" width="12" x="528" y="330" />
<text class="label unused" x="534" y="343">0</text>
<rect fill="#DEE6F1" height="24" width="12" x="492" y="330" />
<rect fill="none" height="24" stroke="#405C86" stroke-width="2" width="12" x="492" y="330" />
<rect fill="none" height="24" stroke="#405C86" stroke-dasharray="3 1" stroke-dashoffset="1.5" stroke-width="1" width="12" x="480" y="330" />
<text class="label unused" x="486" y="343">0</text>
<rect fill="#DEE6F1" height="24" width="12" x="444" y="330" />
<rect fill="none" height="24" stroke="#405C86" stroke-width="2" width="12" x="444" y="330" />
<rect fill="none" height="24" stroke="#405C86" stroke-dasharray="3 1" stroke-dashoffset="1.5" stroke-width="1" width="12" x="432" y="330" />
<text class="label unused" x="438" y="343">0</text>
<rect fill="#DEE6F1" height="24" width="12" x="396" y="330" />
<rect fill="none" height="24" stroke="#405C86" stroke-width="2" width="12" x="396" y="330" />
<rect fill="none" height="24" stroke="#405C86" stroke-dasharray="3 1" stroke-dashoffset="1.5" stroke-width="1" width="12" x="384" y="330" />
<text class="label unused" x="390" y="343">0</text>
<rect fill="#DEE6F1" height="24" width="12" x="348" y="330" />
<rect fill="none" height="24" stroke="#405C86" stroke-width="2" width="12" x="348" y="330" />
<rect fill="none" height="24" stroke="#405C86" stroke-dasharray="3 1" stroke-dashoffset="1.5" stroke-width="1" width="12" x="336" y="330" />
<text class="label unused" x="342" y="343">0</text>
<rect fill="#DEE6F1" height="24" width="12" x="300" y="330" />
<rect fill="none" height="24" stroke="#405C86" stroke-width="2" width="12" x="300" y="330" />
<rect fill="none" height="24" stroke="#405C86" stroke-dasharray="3 1" stroke-dashoffset="1.5" stroke-width="1" width="12" x="288" y="330" />
<text class="label unused" x="294" y="343">0</text>
<rect fill="#DEE6F1" height="24" width="12" x="252" y="330" />
<rect fill="none" height="24" stroke="#405C86" stroke-width="2" width="12" x="252" y="330" />
<rect fill="none" height="24" stroke="#405C86" stroke-dasharray="3 1" stroke-dashoffset="1.5" stroke-width="1" width="12" x="240" y="330" />
<text class="label unused" x="246" y="343">0</text>
<rect fill="#DEE6F1" height="24" width="12" x="204" y="330" />
<rect fill="none" height="24" stroke="#405C86" stroke-width="2" width="12" x="204" y="330" />
<rect fill="none" height="24" stroke="#405C86" stroke-dasharray="3 1" stroke-dashoffset="1.5" stroke-width="1" width="12" x="192" y="330" />
<text class="label unused" x="198" y="343">0</text>
<rect fill="#DEE6F1" height="24" width="12" x="156" y="330" />
<rect fill="none" height="24" stroke="#405C86" stroke-width="2" width="12" x="156" y="330" />
<rect fill="none" height="24" stroke="#405C86" stroke-dasharray="3 1" stroke-dashoffset="1.5" stroke-width="1" width="12" x="144" y="330" />
<text class="label unused" x="150" y="343">0</text>
<rect fill="#DEE6F1" height="24" width="12" x="108" y="330" />
<rect fill="none" height="24" stroke="#405C86" stroke-width="2" width="12" x="108" y="330" />
<rect fill="none" height="24" stroke="#405C86" stroke-dasharray="3 1" stroke-dashoffset="1.5" stroke-width="1" width="12" x="96" y="330" />
<text class="label unused" x="102" y="343">0</text>
<text class="register-name" x="80" y="342">Pd2</text>
<text class="register-number" x="10" y="342">(4)</text>
<polyline fill="none" marker-end="url(#arrowhead)" points="114.0 162.5,90 162.5,90 258.5,834.0 258.5,834.0 280.0" stroke="#567DB6" stroke-width="1" />
<line marker-end="url(#arrowhead)" stroke="none" x1="834" x2="834" y1="42.5" y2="160" />
</svg>