<svg xmlns="http://www.w3.org/2000/svg" viewBox="0 0 1648 315">
<style>
.label { font: 14px Helvetica; dominant-baseline: middle; text-anchor: middle; }
.title-left { font: 12px Helvetica; dominant-baseline: middle; }
.title-right { font: 12px Helvetica; dominant-baseline: middle; text-anchor: end; }
.title-intrinsic { font: 12px Helvetica; dominant-baseline: middle; text-anchor: middle; fill: #6778ED; }
.title { font: 12px Helvetica; dominant-baseline: middle; text-anchor: middle; }
.title-unused { font: 12px Helvetica; dominant-baseline: middle; text-anchor: middle; fill: #AAA; }
.register-name { font: 14px Helvetica; dominant-baseline: middle; text-anchor: end; font-style: italic; }
.memory-name { font: 14px Helvetica; dominant-baseline: middle; text-anchor: end; }
.register-number { font: 14px Helvetica; dominant-baseline: middle; text-anchor: start; }
.intrinsic-name { font: 14px Helvetica; dominant-baseline: middle; text-anchor: end; fill: #6778ED; }
.intrinsic-color { fill: #6778ED; }
.small-label { font: 12px Helvetica; dominant-baseline: middle; text-anchor: middle; }
.label-10px { font: 10px Helvetica; dominant-baseline: middle; text-anchor: middle; }
.smaller-label { font: 9px Helvetica; dominant-baseline: middle; text-anchor: middle; }
.label-6px { font: 6px Helvetica; dominant-baseline: middle; text-anchor: middle; }
.label-7px { font: 7px Helvetica; dominant-baseline: middle; text-anchor: middle; }
.unused { fill: #AAA; }
.dim { fill: #888; }
</style>
<defs>
<marker id="arrowhead" markerWidth="10.75" markerHeight="24.5" refX="9.0" refY="6.125" orient="auto">
<polyline points="0.5 0.5, 8.75 6.125, 0.5 11.75" stroke="#567DB6" stroke-width="1" fill="none"/>
</marker>
</defs>
<polyline fill="none" marker-end="url(#arrowhead)" points="1578.0 162.5,1623.5 162.5" stroke="#567DB6" stroke-width="1" />
<polyline fill="none" marker-end="url(#arrowhead)" points="1530.0 162.5,1575.5 162.5" stroke="#567DB6" stroke-width="1" />
<polyline fill="none" marker-end="url(#arrowhead)" points="1482.0 162.5,1527.5 162.5" stroke="#567DB6" stroke-width="1" />
<polyline fill="none" marker-end="url(#arrowhead)" points="1434.0 162.5,1479.5 162.5" stroke="#567DB6" stroke-width="1" />
<polyline fill="none" marker-end="url(#arrowhead)" points="1386.0 162.5,1431.5 162.5" stroke="#567DB6" stroke-width="1" />
<polyline fill="none" marker-end="url(#arrowhead)" points="1338.0 162.5,1383.5 162.5" stroke="#567DB6" stroke-width="1" />
<polyline fill="none" marker-end="url(#arrowhead)" points="1290.0 162.5,1335.5 162.5" stroke="#567DB6" stroke-width="1" />
<polyline fill="none" marker-end="url(#arrowhead)" points="1242.0 162.5,1287.5 162.5" stroke="#567DB6" stroke-width="1" />
<polyline fill="none" marker-end="url(#arrowhead)" points="1194.0 162.5,1239.5 162.5" stroke="#567DB6" stroke-width="1" />
<polyline fill="none" marker-end="url(#arrowhead)" points="1146.0 162.5,1191.5 162.5" stroke="#567DB6" stroke-width="1" />
<polyline fill="none" marker-end="url(#arrowhead)" points="1098.0 162.5,1143.5 162.5" stroke="#567DB6" stroke-width="1" />
<polyline fill="none" marker-end="url(#arrowhead)" points="1050.0 162.5,1095.5 162.5" stroke="#567DB6" stroke-width="1" />
<polyline fill="none" marker-end="url(#arrowhead)" points="1002.0 162.5,1047.5 162.5" stroke="#567DB6" stroke-width="1" />
<polyline fill="none" marker-end="url(#arrowhead)" points="954.0 162.5,999.5 162.5" stroke="#567DB6" stroke-width="1" />
<polyline fill="none" marker-end="url(#arrowhead)" points="906.0 162.5,951.5 162.5" stroke="#567DB6" stroke-width="1" />
<polyline fill="none" marker-end="url(#arrowhead)" points="858.0 162.5,903.5 162.5" stroke="#567DB6" stroke-width="1" />
<polyline fill="none" marker-end="url(#arrowhead)" points="810.0 162.5,855.5 162.5" stroke="#567DB6" stroke-width="1" />
<polyline fill="none" marker-end="url(#arrowhead)" points="762.0 162.5,807.5 162.5" stroke="#567DB6" stroke-width="1" />
<polyline fill="none" marker-end="url(#arrowhead)" points="714.0 162.5,759.5 162.5" stroke="#567DB6" stroke-width="1" />
<polyline fill="none" marker-end="url(#arrowhead)" points="666.0 162.5,711.5 162.5" stroke="#567DB6" stroke-width="1" />
<polyline fill="none" marker-end="url(#arrowhead)" points="618.0 162.5,663.5 162.5" stroke="#567DB6" stroke-width="1" />
<polyline fill="none" marker-end="url(#arrowhead)" points="570.0 162.5,615.5 162.5" stroke="#567DB6" stroke-width="1" />
<polyline fill="none" marker-end="url(#arrowhead)" points="522.0 162.5,567.5 162.5" stroke="#567DB6" stroke-width="1" />
<polyline fill="none" marker-end="url(#arrowhead)" points="474.0 162.5,519.5 162.5" stroke="#567DB6" stroke-width="1" />
<polyline fill="none" marker-end="url(#arrowhead)" points="426.0 162.5,471.5 162.5" stroke="#567DB6" stroke-width="1" />
<polyline fill="none" marker-end="url(#arrowhead)" points="378.0 162.5,423.5 162.5" stroke="#567DB6" stroke-width="1" />
<polyline fill="none" marker-end="url(#arrowhead)" points="330.0 162.5,375.5 162.5" stroke="#567DB6" stroke-width="1" />
<polyline fill="none" marker-end="url(#arrowhead)" points="282.0 162.5,327.5 162.5" stroke="#567DB6" stroke-width="1" />
<polyline fill="none" marker-end="url(#arrowhead)" points="234.0 162.5,279.5 162.5" stroke="#567DB6" stroke-width="1" />
<polyline fill="none" marker-end="url(#arrowhead)" points="186.0 162.5,231.5 162.5" stroke="#567DB6" stroke-width="1" />
<polyline fill="none" marker-end="url(#arrowhead)" points="138.0 162.5,183.5 162.5" stroke="#567DB6" stroke-width="1" />
<polyline fill="none" points="99.0 234.0,101.0 238.0,863.0 238.0,864.0 240.0,864.0 244.0,864.0 240.0,865.0 238.0,1627.0 238.0,1629.0 234.0" stroke="#567DB6" stroke-width="1" />
<polyline fill="none" marker-end="url(#arrowhead)" points="864.0 243.0,864.0 257.5,768.0 257.5,768.0 281.5" stroke="#567DB6" stroke-width="1" />
<line stroke="#567DB6" stroke-width="1" x1="1530" x2="1530" y1="42.5" y2="65.5" />
<polyline fill="none" marker-end="url(#arrowhead)" points="1530.0 90.5,1530.0 126.5,138.0 126.5,138.0 160.0" stroke="#567DB6" stroke-width="1" />
<polyline fill="none" marker-end="url(#arrowhead)" points="1626.0 162.5,1626.0 209.0" stroke="#567DB6" stroke-width="1" />
<polyline fill="none" marker-end="url(#arrowhead)" points="1578.0 162.5,1578.0 209.0" stroke="#567DB6" stroke-width="1" />
<polyline fill="none" marker-end="url(#arrowhead)" points="1530.0 162.5,1530.0 209.0" stroke="#567DB6" stroke-width="1" />
<polyline fill="none" marker-end="url(#arrowhead)" points="1482.0 162.5,1482.0 209.0" stroke="#567DB6" stroke-width="1" />
<polyline fill="none" marker-end="url(#arrowhead)" points="1434.0 162.5,1434.0 209.0" stroke="#567DB6" stroke-width="1" />
<polyline fill="none" marker-end="url(#arrowhead)" points="1386.0 162.5,1386.0 209.0" stroke="#567DB6" stroke-width="1" />
<polyline fill="none" marker-end="url(#arrowhead)" points="1338.0 162.5,1338.0 209.0" stroke="#567DB6" stroke-width="1" />
<polyline fill="none" marker-end="url(#arrowhead)" points="1290.0 162.5,1290.0 209.0" stroke="#567DB6" stroke-width="1" />
<polyline fill="none" marker-end="url(#arrowhead)" points="1242.0 162.5,1242.0 209.0" stroke="#567DB6" stroke-width="1" />
<polyline fill="none" marker-end="url(#arrowhead)" points="1194.0 162.5,1194.0 209.0" stroke="#567DB6" stroke-width="1" />
<polyline fill="none" marker-end="url(#arrowhead)" points="1146.0 162.5,1146.0 209.0" stroke="#567DB6" stroke-width="1" />
<polyline fill="none" marker-end="url(#arrowhead)" points="1098.0 162.5,1098.0 209.0" stroke="#567DB6" stroke-width="1" />
<polyline fill="none" marker-end="url(#arrowhead)" points="1050.0 162.5,1050.0 209.0" stroke="#567DB6" stroke-width="1" />
<polyline fill="none" marker-end="url(#arrowhead)" points="1002.0 162.5,1002.0 209.0" stroke="#567DB6" stroke-width="1" />
<polyline fill="none" marker-end="url(#arrowhead)" points="954.0 162.5,954.0 209.0" stroke="#567DB6" stroke-width="1" />
<polyline fill="none" marker-end="url(#arrowhead)" points="906.0 162.5,906.0 209.0" stroke="#567DB6" stroke-width="1" />
<polyline fill="none" marker-end="url(#arrowhead)" points="858.0 162.5,858.0 209.0" stroke="#567DB6" stroke-width="1" />
<polyline fill="none" marker-end="url(#arrowhead)" points="810.0 162.5,810.0 209.0" stroke="#567DB6" stroke-width="1" />
<polyline fill="none" marker-end="url(#arrowhead)" points="762.0 162.5,762.0 209.0" stroke="#567DB6" stroke-width="1" />
<polyline fill="none" marker-end="url(#arrowhead)" points="714.0 162.5,714.0 209.0" stroke="#567DB6" stroke-width="1" />
<polyline fill="none" marker-end="url(#arrowhead)" points="666.0 162.5,666.0 209.0" stroke="#567DB6" stroke-width="1" />
<polyline fill="none" marker-end="url(#arrowhead)" points="618.0 162.5,618.0 209.0" stroke="#567DB6" stroke-width="1" />
<polyline fill="none" marker-end="url(#arrowhead)" points="570.0 162.5,570.0 209.0" stroke="#567DB6" stroke-width="1" />
<polyline fill="none" marker-end="url(#arrowhead)" points="522.0 162.5,522.0 209.0" stroke="#567DB6" stroke-width="1" />
<polyline fill="none" marker-end="url(#arrowhead)" points="474.0 162.5,474.0 209.0" stroke="#567DB6" stroke-width="1" />
<polyline fill="none" marker-end="url(#arrowhead)" points="426.0 162.5,426.0 209.0" stroke="#567DB6" stroke-width="1" />
<polyline fill="none" marker-end="url(#arrowhead)" points="378.0 162.5,378.0 209.0" stroke="#567DB6" stroke-width="1" />
<polyline fill="none" marker-end="url(#arrowhead)" points="330.0 162.5,330.0 209.0" stroke="#567DB6" stroke-width="1" />
<polyline fill="none" marker-end="url(#arrowhead)" points="282.0 162.5,282.0 209.0" stroke="#567DB6" stroke-width="1" />
<polyline fill="none" marker-end="url(#arrowhead)" points="234.0 162.5,234.0 209.0" stroke="#567DB6" stroke-width="1" />
<polyline fill="none" marker-end="url(#arrowhead)" points="186.0 162.5,186.0 209.0" stroke="#567DB6" stroke-width="1" />
<polyline fill="none" marker-end="url(#arrowhead)" points="138.0 162.5,138.0 209.0" stroke="#567DB6" stroke-width="1" />
<text class="title-left" x="90" y="9">upper</text>
<text class="title-right" x="1626" y="9">lower</text>
<text class="smaller-label" x="135" y="174.5">A > B</text>
<text class="smaller-label" x="185" y="174.5">A&#x2212;1 > B</text>
<text class="smaller-label" x="233" y="174.5">A&#x2212;2 > B</text>
<text class="smaller-label" x="281" y="174.5">A&#x2212;3 > B</text>
<text class="smaller-label" x="329" y="174.5">A&#x2212;4 > B</text>
<text class="smaller-label" x="377" y="174.5">A&#x2212;5 > B</text>
<text class="smaller-label" x="425" y="174.5">A&#x2212;6 > B</text>
<text class="smaller-label" x="473" y="174.5">A&#x2212;7 > B</text>
<text class="smaller-label" x="521" y="174.5">A&#x2212;8 > B</text>
<text class="smaller-label" x="569" y="174.5">A&#x2212;9 > B</text>
<text class="smaller-label" x="614" y="174.5">A&#x2212;10 > B</text>
<text class="smaller-label" x="662" y="174.5">A&#x2212;11 > B</text>
<text class="smaller-label" x="710" y="174.5">A&#x2212;12 > B</text>
<text class="smaller-label" x="758" y="174.5">A&#x2212;13 > B</text>
<text class="smaller-label" x="806" y="174.5">A&#x2212;14 > B</text>
<text class="smaller-label" x="854" y="174.5">A&#x2212;15 > B</text>
<text class="smaller-label" x="902" y="174.5">A&#x2212;16 > B</text>
<text class="smaller-label" x="950" y="174.5">A&#x2212;17 > B</text>
<text class="smaller-label" x="998" y="174.5">A&#x2212;18 > B</text>
<text class="smaller-label" x="1046" y="174.5">A&#x2212;19 > B</text>
<text class="smaller-label" x="1094" y="174.5">A&#x2212;20 > B</text>
<text class="smaller-label" x="1142" y="174.5">A&#x2212;21 > B</text>
<text class="smaller-label" x="1190" y="174.5">A&#x2212;22 > B</text>
<text class="smaller-label" x="1238" y="174.5">A&#x2212;23 > B</text>
<text class="smaller-label" x="1286" y="174.5">A&#x2212;24 > B</text>
<text class="smaller-label" x="1334" y="174.5">A&#x2212;25 > B</text>
<text class="smaller-label" x="1382" y="174.5">A&#x2212;26 > B</text>
<text class="smaller-label" x="1430" y="174.5">A&#x2212;27 > B</text>
<text class="smaller-label" x="1478" y="174.5">A&#x2212;28 > B</text>
<text class="smaller-label" x="1526" y="174.5">A&#x2212;29 > B</text>
<text class="smaller-label" x="1574" y="174.5">A&#x2212;30 > B</text>
<text class="smaller-label" x="1622" y="174.5">A&#x2212;31 > B</text>
<circle cx="1626" cy="162.5" fill="#567DB6" r="2.5" />
<circle cx="1578" cy="162.5" fill="#567DB6" r="2.5" />
<circle cx="1530" cy="162.5" fill="#567DB6" r="2.5" />
<circle cx="1482" cy="162.5" fill="#567DB6" r="2.5" />
<circle cx="1434" cy="162.5" fill="#567DB6" r="2.5" />
<circle cx="1386" cy="162.5" fill="#567DB6" r="2.5" />
<circle cx="1338" cy="162.5" fill="#567DB6" r="2.5" />
<circle cx="1290" cy="162.5" fill="#567DB6" r="2.5" />
<circle cx="1242" cy="162.5" fill="#567DB6" r="2.5" />
<circle cx="1194" cy="162.5" fill="#567DB6" r="2.5" />
<circle cx="1146" cy="162.5" fill="#567DB6" r="2.5" />
<circle cx="1098" cy="162.5" fill="#567DB6" r="2.5" />
<circle cx="1050" cy="162.5" fill="#567DB6" r="2.5" />
<circle cx="1002" cy="162.5" fill="#567DB6" r="2.5" />
<circle cx="954" cy="162.5" fill="#567DB6" r="2.5" />
<circle cx="906" cy="162.5" fill="#567DB6" r="2.5" />
<circle cx="858" cy="162.5" fill="#567DB6" r="2.5" />
<circle cx="810" cy="162.5" fill="#567DB6" r="2.5" />
<circle cx="762" cy="162.5" fill="#567DB6" r="2.5" />
<circle cx="714" cy="162.5" fill="#567DB6" r="2.5" />
<circle cx="666" cy="162.5" fill="#567DB6" r="2.5" />
<circle cx="618" cy="162.5" fill="#567DB6" r="2.5" />
<circle cx="570" cy="162.5" fill="#567DB6" r="2.5" />
<circle cx="522" cy="162.5" fill="#567DB6" r="2.5" />
<circle cx="474" cy="162.5" fill="#567DB6" r="2.5" />
<circle cx="426" cy="162.5" fill="#567DB6" r="2.5" />
<circle cx="378" cy="162.5" fill="#567DB6" r="2.5" />
<circle cx="330" cy="162.5" fill="#567DB6" r="2.5" />
<circle cx="282" cy="162.5" fill="#567DB6" r="2.5" />
<circle cx="234" cy="162.5" fill="#567DB6" r="2.5" />
<circle cx="186" cy="162.5" fill="#567DB6" r="2.5" />
<circle cx="138" cy="162.5" fill="#567DB6" r="2.5" />
<text class="label" x="769" y="266.5">encode predicate-as-counter</text>
<rect fill="#DEE6F1" height="24" width="192" x="1434" y="18" />
<text class="label" x="1530" y="31">A</text>
<rect fill="none" height="24" stroke="#405C86" stroke-width="2" width="192" x="1434" y="18" />
<text class="register-name" x="80" y="30">Xn</text>
<text class="intrinsic-name" x="80" y="42">op1</text>
<text class="register-number" x="10" y="30">(1)</text>
<rect fill="#DEE6F1" height="24" width="192" x="1434" y="66" />
<text class="label" x="1530" y="79">B</text>
<rect fill="none" height="24" stroke="#405C86" stroke-width="2" width="192" x="1434" y="66" />
<text class="register-name" x="80" y="78">Xm</text>
<text class="intrinsic-name" x="80" y="90">op2</text>
<text class="register-number" x="10" y="78">(2)</text>
<rect fill="#DEE6F1" height="24" width="12" x="1620" y="210" />
<rect fill="none" height="24" stroke="#405C86" stroke-width="2" width="12" x="1620" y="210" />
<rect fill="none" height="24" stroke="#405C86" stroke-dasharray="3 1" stroke-dashoffset="1.5" stroke-width="1" width="12" x="1608" y="210" />
<text class="label unused" x="1614" y="223">0</text>
<rect fill="none" height="24" stroke="#405C86" stroke-dasharray="3 1" stroke-dashoffset="1.5" stroke-width="1" width="12" x="1596" y="210" />
<text class="label unused" x="1602" y="223">0</text>
<rect fill="none" height="24" stroke="#405C86" stroke-dasharray="3 1" stroke-dashoffset="1.5" stroke-width="1" width="12" x="1584" y="210" />
<text class="label unused" x="1590" y="223">0</text>
<rect fill="#DEE6F1" height="24" width="12" x="1572" y="210" />
<rect fill="none" height="24" stroke="#405C86" stroke-width="2" width="12" x="1572" y="210" />
<rect fill="none" height="24" stroke="#405C86" stroke-dasharray="3 1" stroke-dashoffset="1.5" stroke-width="1" width="12" x="1560" y="210" />
<text class="label unused" x="1566" y="223">0</text>
<rect fill="none" height="24" stroke="#405C86" stroke-dasharray="3 1" stroke-dashoffset="1.5" stroke-width="1" width="12" x="1548" y="210" />
<text class="label unused" x="1554" y="223">0</text>
<rect fill="none" height="24" stroke="#405C86" stroke-dasharray="3 1" stroke-dashoffset="1.5" stroke-width="1" width="12" x="1536" y="210" />
<text class="label unused" x="1542" y="223">0</text>
<rect fill="#DEE6F1" height="24" width="12" x="1524" y="210" />
<rect fill="none" height="24" stroke="#405C86" stroke-width="2" width="12" x="1524" y="210" />
<rect fill="none" height="24" stroke="#405C86" stroke-dasharray="3 1" stroke-dashoffset="1.5" stroke-width="1" width="12" x="1512" y="210" />
<text class="label unused" x="1518" y="223">0</text>
<rect fill="none" height="24" stroke="#405C86" stroke-dasharray="3 1" stroke-dashoffset="1.5" stroke-width="1" width="12" x="1500" y="210" />
<text class="label unused" x="1506" y="223">0</text>
<rect fill="none" height="24" stroke="#405C86" stroke-dasharray="3 1" stroke-dashoffset="1.5" stroke-width="1" width="12" x="1488" y="210" />
<text class="label unused" x="1494" y="223">0</text>
<rect fill="#DEE6F1" height="24" width="12" x="1476" y="210" />
<rect fill="none" height="24" stroke="#405C86" stroke-width="2" width="12" x="1476" y="210" />
<rect fill="none" height="24" stroke="#405C86" stroke-dasharray="3 1" stroke-dashoffset="1.5" stroke-width="1" width="12" x="1464" y="210" />
<text class="label unused" x="1470" y="223">0</text>
<rect fill="none" height="24" stroke="#405C86" stroke-dasharray="3 1" stroke-dashoffset="1.5" stroke-width="1" width="12" x="1452" y="210" />
<text class="label unused" x="1458" y="223">0</text>
<rect fill="none" height="24" stroke="#405C86" stroke-dasharray="3 1" stroke-dashoffset="1.5" stroke-width="1" width="12" x="1440" y="210" />
<text class="label unused" x="1446" y="223">0</text>
<rect fill="#DEE6F1" height="24" width="12" x="1428" y="210" />
<rect fill="none" height="24" stroke="#405C86" stroke-width="2" width="12" x="1428" y="210" />
<rect fill="none" height="24" stroke="#405C86" stroke-dasharray="3 1" stroke-dashoffset="1.5" stroke-width="1" width="12" x="1416" y="210" />
<text class="label unused" x="1422" y="223">0</text>
<rect fill="none" height="24" stroke="#405C86" stroke-dasharray="3 1" stroke-dashoffset="1.5" stroke-width="1" width="12" x="1404" y="210" />
<text class="label unused" x="1410" y="223">0</text>
<rect fill="none" height="24" stroke="#405C86" stroke-dasharray="3 1" stroke-dashoffset="1.5" stroke-width="1" width="12" x="1392" y="210" />
<text class="label unused" x="1398" y="223">0</text>
<rect fill="#DEE6F1" height="24" width="12" x="1380" y="210" />
<rect fill="none" height="24" stroke="#405C86" stroke-width="2" width="12" x="1380" y="210" />
<rect fill="none" height="24" stroke="#405C86" stroke-dasharray="3 1" stroke-dashoffset="1.5" stroke-width="1" width="12" x="1368" y="210" />
<text class="label unused" x="1374" y="223">0</text>
<rect fill="none" height="24" stroke="#405C86" stroke-dasharray="3 1" stroke-dashoffset="1.5" stroke-width="1" width="12" x="1356" y="210" />
<text class="label unused" x="1362" y="223">0</text>
<rect fill="none" height="24" stroke="#405C86" stroke-dasharray="3 1" stroke-dashoffset="1.5" stroke-width="1" width="12" x="1344" y="210" />
<text class="label unused" x="1350" y="223">0</text>
<rect fill="#DEE6F1" height="24" width="12" x="1332" y="210" />
<rect fill="none" height="24" stroke="#405C86" stroke-width="2" width="12" x="1332" y="210" />
<rect fill="none" height="24" stroke="#405C86" stroke-dasharray="3 1" stroke-dashoffset="1.5" stroke-width="1" width="12" x="1320" y="210" />
<text class="label unused" x="1326" y="223">0</text>
<rect fill="none" height="24" stroke="#405C86" stroke-dasharray="3 1" stroke-dashoffset="1.5" stroke-width="1" width="12" x="1308" y="210" />
<text class="label unused" x="1314" y="223">0</text>
<rect fill="none" height="24" stroke="#405C86" stroke-dasharray="3 1" stroke-dashoffset="1.5" stroke-width="1" width="12" x="1296" y="210" />
<text class="label unused" x="1302" y="223">0</text>
<rect fill="#DEE6F1" height="24" width="12" x="1284" y="210" />
<rect fill="none" height="24" stroke="#405C86" stroke-width="2" width="12" x="1284" y="210" />
<rect fill="none" height="24" stroke="#405C86" stroke-dasharray="3 1" stroke-dashoffset="1.5" stroke-width="1" width="12" x="1272" y="210" />
<text class="label unused" x="1278" y="223">0</text>
<rect fill="none" height="24" stroke="#405C86" stroke-dasharray="3 1" stroke-dashoffset="1.5" stroke-width="1" width="12" x="1260" y="210" />
<text class="label unused" x="1266" y="223">0</text>
<rect fill="none" height="24" stroke="#405C86" stroke-dasharray="3 1" stroke-dashoffset="1.5" stroke-width="1" width="12" x="1248" y="210" />
<text class="label unused" x="1254" y="223">0</text>
<rect fill="#DEE6F1" height="24" width="12" x="1236" y="210" />
<rect fill="none" height="24" stroke="#405C86" stroke-width="2" width="12" x="1236" y="210" />
<rect fill="none" height="24" stroke="#405C86" stroke-dasharray="3 1" stroke-dashoffset="1.5" stroke-width="1" width="12" x="1224" y="210" />
<text class="label unused" x="1230" y="223">0</text>
<rect fill="none" height="24" stroke="#405C86" stroke-dasharray="3 1" stroke-dashoffset="1.5" stroke-width="1" width="12" x="1212" y="210" />
<text class="label unused" x="1218" y="223">0</text>
<rect fill="none" height="24" stroke="#405C86" stroke-dasharray="3 1" stroke-dashoffset="1.5" stroke-width="1" width="12" x="1200" y="210" />
<text class="label unused" x="1206" y="223">0</text>
<rect fill="#DEE6F1" height="24" width="12" x="1188" y="210" />
<rect fill="none" height="24" stroke="#405C86" stroke-width="2" width="12" x="1188" y="210" />
<rect fill="none" height="24" stroke="#405C86" stroke-dasharray="3 1" stroke-dashoffset="1.5" stroke-width="1" width="12" x="1176" y="210" />
<text class="label unused" x="1182" y="223">0</text>
<rect fill="none" height="24" stroke="#405C86" stroke-dasharray="3 1" stroke-dashoffset="1.5" stroke-width="1" width="12" x="1164" y="210" />
<text class="label unused" x="1170" y="223">0</text>
<rect fill="none" height="24" stroke="#405C86" stroke-dasharray="3 1" stroke-dashoffset="1.5" stroke-width="1" width="12" x="1152" y="210" />
<text class="label unused" x="1158" y="223">0</text>
<rect fill="#DEE6F1" height="24" width="12" x="1140" y="210" />
<rect fill="none" height="24" stroke="#405C86" stroke-width="2" width="12" x="1140" y="210" />
<rect fill="none" height="24" stroke="#405C86" stroke-dasharray="3 1" stroke-dashoffset="1.5" stroke-width="1" width="12" x="1128" y="210" />
<text class="label unused" x="1134" y="223">0</text>
<rect fill="none" height="24" stroke="#405C86" stroke-dasharray="3 1" stroke-dashoffset="1.5" stroke-width="1" width="12" x="1116" y="210" />
<text class="label unused" x="1122" y="223">0</text>
<rect fill="none" height="24" stroke="#405C86" stroke-dasharray="3 1" stroke-dashoffset="1.5" stroke-width="1" width="12" x="1104" y="210" />
<text class="label unused" x="1110" y="223">0</text>
<rect fill="#DEE6F1" height="24" width="12" x="1092" y="210" />
<rect fill="none" height="24" stroke="#405C86" stroke-width="2" width="12" x="1092" y="210" />
<rect fill="none" height="24" stroke="#405C86" stroke-dasharray="3 1" stroke-dashoffset="1.5" stroke-width="1" width="12" x="1080" y="210" />
<text class="label unused" x="1086" y="223">0</text>
<rect fill="none" height="24" stroke="#405C86" stroke-dasharray="3 1" stroke-dashoffset="1.5" stroke-width="1" width="12" x="1068" y="210" />
<text class="label unused" x="1074" y="223">0</text>
<rect fill="none" height="24" stroke="#405C86" stroke-dasharray="3 1" stroke-dashoffset="1.5" stroke-width="1" width="12" x="1056" y="210" />
<text class="label unused" x="1062" y="223">0</text>
<rect fill="#DEE6F1" height="24" width="12" x="1044" y="210" />
<rect fill="none" height="24" stroke="#405C86" stroke-width="2" width="12" x="1044" y="210" />
<rect fill="none" height="24" stroke="#405C86" stroke-dasharray="3 1" stroke-dashoffset="1.5" stroke-width="1" width="12" x="1032" y="210" />
<text class="label unused" x="1038" y="223">0</text>
<rect fill="none" height="24" stroke="#405C86" stroke-dasharray="3 1" stroke-dashoffset="1.5" stroke-width="1" width="12" x="1020" y="210" />
<text class="label unused" x="1026" y="223">0</text>
<rect fill="none" height="24" stroke="#405C86" stroke-dasharray="3 1" stroke-dashoffset="1.5" stroke-width="1" width="12" x="1008" y="210" />
<text class="label unused" x="1014" y="223">0</text>
<rect fill="#DEE6F1" height="24" width="12" x="996" y="210" />
<rect fill="none" height="24" stroke="#405C86" stroke-width="2" width="12" x="996" y="210" />
<rect fill="none" height="24" stroke="#405C86" stroke-dasharray="3 1" stroke-dashoffset="1.5" stroke-width="1" width="12" x="984" y="210" />
<text class="label unused" x="990" y="223">0</text>
<rect fill="none" height="24" stroke="#405C86" stroke-dasharray="3 1" stroke-dashoffset="1.5" stroke-width="1" width="12" x="972" y="210" />
<text class="label unused" x="978" y="223">0</text>
<rect fill="none" height="24" stroke="#405C86" stroke-dasharray="3 1" stroke-dashoffset="1.5" stroke-width="1" width="12" x="960" y="210" />
<text class="label unused" x="966" y="223">0</text>
<rect fill="#DEE6F1" height="24" width="12" x="948" y="210" />
<rect fill="none" height="24" stroke="#405C86" stroke-width="2" width="12" x="948" y="210" />
<rect fill="none" height="24" stroke="#405C86" stroke-dasharray="3 1" stroke-dashoffset="1.5" stroke-width="1" width="12" x="936" y="210" />
<text class="label unused" x="942" y="223">0</text>
<rect fill="none" height="24" stroke="#405C86" stroke-dasharray="3 1" stroke-dashoffset="1.5" stroke-width="1" width="12" x="924" y="210" />
<text class="label unused" x="930" y="223">0</text>
<rect fill="none" height="24" stroke="#405C86" stroke-dasharray="3 1" stroke-dashoffset="1.5" stroke-width="1" width="12" x="912" y="210" />
<text class="label unused" x="918" y="223">0</text>
<rect fill="#DEE6F1" height="24" width="12" x="900" y="210" />
<rect fill="none" height="24" stroke="#405C86" stroke-width="2" width="12" x="900" y="210" />
<rect fill="none" height="24" stroke="#405C86" stroke-dasharray="3 1" stroke-dashoffset="1.5" stroke-width="1" width="12" x="888" y="210" />
<text class="label unused" x="894" y="223">0</text>
<rect fill="none" height="24" stroke="#405C86" stroke-dasharray="3 1" stroke-dashoffset="1.5" stroke-width="1" width="12" x="876" y="210" />
<text class="label unused" x="882" y="223">0</text>
<rect fill="none" height="24" stroke="#405C86" stroke-dasharray="3 1" stroke-dashoffset="1.5" stroke-width="1" width="12" x="864" y="210" />
<text class="label unused" x="870" y="223">0</text>
<rect fill="#DEE6F1" height="24" width="12" x="852" y="210" />
<rect fill="none" height="24" stroke="#405C86" stroke-width="2" width="12" x="852" y="210" />
<rect fill="none" height="24" stroke="#405C86" stroke-dasharray="3 1" stroke-dashoffset="1.5" stroke-width="1" width="12" x="840" y="210" />
<text class="label unused" x="846" y="223">0</text>
<rect fill="none" height="24" stroke="#405C86" stroke-dasharray="3 1" stroke-dashoffset="1.5" stroke-width="1" width="12" x="828" y="210" />
<text class="label unused" x="834" y="223">0</text>
<rect fill="none" height="24" stroke="#405C86" stroke-dasharray="3 1" stroke-dashoffset="1.5" stroke-width="1" width="12" x="816" y="210" />
<text class="label unused" x="822" y="223">0</text>
<rect fill="#DEE6F1" height="24" width="12" x="804" y="210" />
<rect fill="none" height="24" stroke="#405C86" stroke-width="2" width="12" x="804" y="210" />
<rect fill="none" height="24" stroke="#405C86" stroke-dasharray="3 1" stroke-dashoffset="1.5" stroke-width="1" width="12" x="792" y="210" />
<text class="label unused" x="798" y="223">0</text>
<rect fill="none" height="24" stroke="#405C86" stroke-dasharray="3 1" stroke-dashoffset="1.5" stroke-width="1" width="12" x="780" y="210" />
<text class="label unused" x="786" y="223">0</text>
<rect fill="none" height="24" stroke="#405C86" stroke-dasharray="3 1" stroke-dashoffset="1.5" stroke-width="1" width="12" x="768" y="210" />
<text class="label unused" x="774" y="223">0</text>
<rect fill="#DEE6F1" height="24" width="12" x="756" y="210" />
<rect fill="none" height="24" stroke="#405C86" stroke-width="2" width="12" x="756" y="210" />
<rect fill="none" height="24" stroke="#405C86" stroke-dasharray="3 1" stroke-dashoffset="1.5" stroke-width="1" width="12" x="744" y="210" />
<text class="label unused" x="750" y="223">0</text>
<rect fill="none" height="24" stroke="#405C86" stroke-dasharray="3 1" stroke-dashoffset="1.5" stroke-width="1" width="12" x="732" y="210" />
<text class="label unused" x="738" y="223">0</text>
<rect fill="none" height="24" stroke="#405C86" stroke-dasharray="3 1" stroke-dashoffset="1.5" stroke-width="1" width="12" x="720" y="210" />
<text class="label unused" x="726" y="223">0</text>
<rect fill="#DEE6F1" height="24" width="12" x="708" y="210" />
<rect fill="none" height="24" stroke="#405C86" stroke-width="2" width="12" x="708" y="210" />
<rect fill="none" height="24" stroke="#405C86" stroke-dasharray="3 1" stroke-dashoffset="1.5" stroke-width="1" width="12" x="696" y="210" />
<text class="label unused" x="702" y="223">0</text>
<rect fill="none" height="24" stroke="#405C86" stroke-dasharray="3 1" stroke-dashoffset="1.5" stroke-width="1" width="12" x="684" y="210" />
<text class="label unused" x="690" y="223">0</text>
<rect fill="none" height="24" stroke="#405C86" stroke-dasharray="3 1" stroke-dashoffset="1.5" stroke-width="1" width="12" x="672" y="210" />
<text class="label unused" x="678" y="223">0</text>
<rect fill="#DEE6F1" height="24" width="12" x="660" y="210" />
<rect fill="none" height="24" stroke="#405C86" stroke-width="2" width="12" x="660" y="210" />
<rect fill="none" height="24" stroke="#405C86" stroke-dasharray="3 1" stroke-dashoffset="1.5" stroke-width="1" width="12" x="648" y="210" />
<text class="label unused" x="654" y="223">0</text>
<rect fill="none" height="24" stroke="#405C86" stroke-dasharray="3 1" stroke-dashoffset="1.5" stroke-width="1" width="12" x="636" y="210" />
<text class="label unused" x="642" y="223">0</text>
<rect fill="none" height="24" stroke="#405C86" stroke-dasharray="3 1" stroke-dashoffset="1.5" stroke-width="1" width="12" x="624" y="210" />
<text class="label unused" x="630" y="223">0</text>
<rect fill="#DEE6F1" height="24" width="12" x="612" y="210" />
<rect fill="none" height="24" stroke="#405C86" stroke-width="2" width="12" x="612" y="210" />
<rect fill="none" height="24" stroke="#405C86" stroke-dasharray="3 1" stroke-dashoffset="1.5" stroke-width="1" width="12" x="600" y="210" />
<text class="label unused" x="606" y="223">0</text>
<rect fill="none" height="24" stroke="#405C86" stroke-dasharray="3 1" stroke-dashoffset="1.5" stroke-width="1" width="12" x="588" y="210" />
<text class="label unused" x="594" y="223">0</text>
<rect fill="none" height="24" stroke="#405C86" stroke-dasharray="3 1" stroke-dashoffset="1.5" stroke-width="1" width="12" x="576" y="210" />
<text class="label unused" x="582" y="223">0</text>
<rect fill="#DEE6F1" height="24" width="12" x="564" y="210" />
<rect fill="none" height="24" stroke="#405C86" stroke-width="2" width="12" x="564" y="210" />
<rect fill="none" height="24" stroke="#405C86" stroke-dasharray="3 1" stroke-dashoffset="1.5" stroke-width="1" width="12" x="552" y="210" />
<text class="label unused" x="558" y="223">0</text>
<rect fill="none" height="24" stroke="#405C86" stroke-dasharray="3 1" stroke-dashoffset="1.5" stroke-width="1" width="12" x="540" y="210" />
<text class="label unused" x="546" y="223">0</text>
<rect fill="none" height="24" stroke="#405C86" stroke-dasharray="3 1" stroke-dashoffset="1.5" stroke-width="1" width="12" x="528" y="210" />
<text class="label unused" x="534" y="223">0</text>
<rect fill="#DEE6F1" height="24" width="12" x="516" y="210" />
<rect fill="none" height="24" stroke="#405C86" stroke-width="2" width="12" x="516" y="210" />
<rect fill="none" height="24" stroke="#405C86" stroke-dasharray="3 1" stroke-dashoffset="1.5" stroke-width="1" width="12" x="504" y="210" />
<text class="label unused" x="510" y="223">0</text>
<rect fill="none" height="24" stroke="#405C86" stroke-dasharray="3 1" stroke-dashoffset="1.5" stroke-width="1" width="12" x="492" y="210" />
<text class="label unused" x="498" y="223">0</text>
<rect fill="none" height="24" stroke="#405C86" stroke-dasharray="3 1" stroke-dashoffset="1.5" stroke-width="1" width="12" x="480" y="210" />
<text class="label unused" x="486" y="223">0</text>
<rect fill="#DEE6F1" height="24" width="12" x="468" y="210" />
<rect fill="none" height="24" stroke="#405C86" stroke-width="2" width="12" x="468" y="210" />
<rect fill="none" height="24" stroke="#405C86" stroke-dasharray="3 1" stroke-dashoffset="1.5" stroke-width="1" width="12" x="456" y="210" />
<text class="label unused" x="462" y="223">0</text>
<rect fill="none" height="24" stroke="#405C86" stroke-dasharray="3 1" stroke-dashoffset="1.5" stroke-width="1" width="12" x="444" y="210" />
<text class="label unused" x="450" y="223">0</text>
<rect fill="none" height="24" stroke="#405C86" stroke-dasharray="3 1" stroke-dashoffset="1.5" stroke-width="1" width="12" x="432" y="210" />
<text class="label unused" x="438" y="223">0</text>
<rect fill="#DEE6F1" height="24" width="12" x="420" y="210" />
<rect fill="none" height="24" stroke="#405C86" stroke-width="2" width="12" x="420" y="210" />
<rect fill="none" height="24" stroke="#405C86" stroke-dasharray="3 1" stroke-dashoffset="1.5" stroke-width="1" width="12" x="408" y="210" />
<text class="label unused" x="414" y="223">0</text>
<rect fill="none" height="24" stroke="#405C86" stroke-dasharray="3 1" stroke-dashoffset="1.5" stroke-width="1" width="12" x="396" y="210" />
<text class="label unused" x="402" y="223">0</text>
<rect fill="none" height="24" stroke="#405C86" stroke-dasharray="3 1" stroke-dashoffset="1.5" stroke-width="1" width="12" x="384" y="210" />
<text class="label unused" x="390" y="223">0</text>
<rect fill="#DEE6F1" height="24" width="12" x="372" y="210" />
<rect fill="none" height="24" stroke="#405C86" stroke-width="2" width="12" x="372" y="210" />
<rect fill="none" height="24" stroke="#405C86" stroke-dasharray="3 1" stroke-dashoffset="1.5" stroke-width="1" width="12" x="360" y="210" />
<text class="label unused" x="366" y="223">0</text>
<rect fill="none" height="24" stroke="#405C86" stroke-dasharray="3 1" stroke-dashoffset="1.5" stroke-width="1" width="12" x="348" y="210" />
<text class="label unused" x="354" y="223">0</text>
<rect fill="none" height="24" stroke="#405C86" stroke-dasharray="3 1" stroke-dashoffset="1.5" stroke-width="1" width="12" x="336" y="210" />
<text class="label unused" x="342" y="223">0</text>
<rect fill="#DEE6F1" height="24" width="12" x="324" y="210" />
<rect fill="none" height="24" stroke="#405C86" stroke-width="2" width="12" x="324" y="210" />
<rect fill="none" height="24" stroke="#405C86" stroke-dasharray="3 1" stroke-dashoffset="1.5" stroke-width="1" width="12" x="312" y="210" />
<text class="label unused" x="318" y="223">0</text>
<rect fill="none" height="24" stroke="#405C86" stroke-dasharray="3 1" stroke-dashoffset="1.5" stroke-width="1" width="12" x="300" y="210" />
<text class="label unused" x="306" y="223">0</text>
<rect fill="none" height="24" stroke="#405C86" stroke-dasharray="3 1" stroke-dashoffset="1.5" stroke-width="1" width="12" x="288" y="210" />
<text class="label unused" x="294" y="223">0</text>
<rect fill="#DEE6F1" height="24" width="12" x="276" y="210" />
<rect fill="none" height="24" stroke="#405C86" stroke-width="2" width="12" x="276" y="210" />
<rect fill="none" height="24" stroke="#405C86" stroke-dasharray="3 1" stroke-dashoffset="1.5" stroke-width="1" width="12" x="264" y="210" />
<text class="label unused" x="270" y="223">0</text>
<rect fill="none" height="24" stroke="#405C86" stroke-dasharray="3 1" stroke-dashoffset="1.5" stroke-width="1" width="12" x="252" y="210" />
<text class="label unused" x="258" y="223">0</text>
<rect fill="none" height="24" stroke="#405C86" stroke-dasharray="3 1" stroke-dashoffset="1.5" stroke-width="1" width="12" x="240" y="210" />
<text class="label unused" x="246" y="223">0</text>
<rect fill="#DEE6F1" height="24" width="12" x="228" y="210" />
<rect fill="none" height="24" stroke="#405C86" stroke-width="2" width="12" x="228" y="210" />
<rect fill="none" height="24" stroke="#405C86" stroke-dasharray="3 1" stroke-dashoffset="1.5" stroke-width="1" width="12" x="216" y="210" />
<text class="label unused" x="222" y="223">0</text>
<rect fill="none" height="24" stroke="#405C86" stroke-dasharray="3 1" stroke-dashoffset="1.5" stroke-width="1" width="12" x="204" y="210" />
<text class="label unused" x="210" y="223">0</text>
<rect fill="none" height="24" stroke="#405C86" stroke-dasharray="3 1" stroke-dashoffset="1.5" stroke-width="1" width="12" x="192" y="210" />
<text class="label unused" x="198" y="223">0</text>
<rect fill="#DEE6F1" height="24" width="12" x="180" y="210" />
<rect fill="none" height="24" stroke="#405C86" stroke-width="2" width="12" x="180" y="210" />
<rect fill="none" height="24" stroke="#405C86" stroke-dasharray="3 1" stroke-dashoffset="1.5" stroke-width="1" width="12" x="168" y="210" />
<text class="label unused" x="174" y="223">0</text>
<rect fill="none" height="24" stroke="#405C86" stroke-dasharray="3 1" stroke-dashoffset="1.5" stroke-width="1" width="12" x="156" y="210" />
<text class="label unused" x="162" y="223">0</text>
<rect fill="none" height="24" stroke="#405C86" stroke-dasharray="3 1" stroke-dashoffset="1.5" stroke-width="1" width="12" x="144" y="210" />
<text class="label unused" x="150" y="223">0</text>
<rect fill="#DEE6F1" height="24" width="12" x="132" y="210" />
<rect fill="none" height="24" stroke="#405C86" stroke-width="2" width="12" x="132" y="210" />
<rect fill="none" height="24" stroke="#405C86" stroke-dasharray="3 1" stroke-dashoffset="1.5" stroke-width="1" width="12" x="120" y="210" />
<text class="label unused" x="126" y="223">0</text>
<rect fill="none" height="24" stroke="#405C86" stroke-dasharray="3 1" stroke-dashoffset="1.5" stroke-width="1" width="12" x="108" y="210" />
<text class="label unused" x="114" y="223">0</text>
<rect fill="none" height="24" stroke="#405C86" stroke-dasharray="3 1" stroke-dashoffset="1.5" stroke-width="1" width="12" x="96" y="210" />
<text class="label unused" x="102" y="223">0</text>
<rect fill="#ECF1E0" height="24" width="12" x="852" y="282" />
<rect fill="none" height="24" stroke="#405C86" stroke-width="2" width="12" x="852" y="282" />
<text class="label" x="858" y="295">0</text>
<rect fill="#ECF1E0" height="24" width="12" x="840" y="282" />
<rect fill="none" height="24" stroke="#405C86" stroke-width="2" width="12" x="840" y="282" />
<text class="label" x="846" y="295">0</text>
<rect fill="#ECF1E0" height="24" width="12" x="828" y="282" />
<rect fill="none" height="24" stroke="#405C86" stroke-width="2" width="12" x="828" y="282" />
<text class="label" x="834" y="295">1</text>
<rect fill="#DEE6F1" height="24" width="12" x="816" y="282" />
<rect fill="none" height="24" stroke="#405C86" stroke-width="2" width="12" x="816" y="282" />
<rect fill="#DEE6F1" height="24" width="12" x="804" y="282" />
<rect fill="none" height="24" stroke="#405C86" stroke-width="2" width="12" x="804" y="282" />
<rect fill="#DEE6F1" height="24" width="12" x="792" y="282" />
<rect fill="none" height="24" stroke="#405C86" stroke-width="2" width="12" x="792" y="282" />
<rect fill="#DEE6F1" height="24" width="12" x="780" y="282" />
<rect fill="none" height="24" stroke="#405C86" stroke-width="2" width="12" x="780" y="282" />
<rect fill="#DEE6F1" height="24" width="12" x="768" y="282" />
<rect fill="none" height="24" stroke="#405C86" stroke-width="2" width="12" x="768" y="282" />
<rect fill="#DEE6F1" height="24" width="12" x="756" y="282" />
<rect fill="none" height="24" stroke="#405C86" stroke-width="2" width="12" x="756" y="282" />
<rect fill="#DEE6F1" height="24" width="12" x="744" y="282" />
<rect fill="none" height="24" stroke="#405C86" stroke-width="2" width="12" x="744" y="282" />
<rect fill="#DEE6F1" height="24" width="12" x="732" y="282" />
<rect fill="none" height="24" stroke="#405C86" stroke-width="2" width="12" x="732" y="282" />
<rect fill="#DEE6F1" height="24" width="12" x="720" y="282" />
<rect fill="none" height="24" stroke="#405C86" stroke-width="2" width="12" x="720" y="282" />
<rect fill="#DEE6F1" height="24" width="12" x="708" y="282" />
<rect fill="none" height="24" stroke="#405C86" stroke-width="2" width="12" x="708" y="282" />
<rect fill="#DEE6F1" height="24" width="12" x="696" y="282" />
<rect fill="none" height="24" stroke="#405C86" stroke-width="2" width="12" x="696" y="282" />
<rect fill="#DEE6F1" height="24" width="12" x="684" y="282" />
<rect fill="none" height="24" stroke="#405C86" stroke-width="2" width="12" x="684" y="282" />
<rect fill="#EEDDDB" height="24" width="12" x="672" y="282" />
<rect fill="none" height="24" stroke="#405C86" stroke-width="2" width="12" x="672" y="282" />
<rect fill="none" height="24" stroke="#405C86" stroke-dasharray="3 1" stroke-dashoffset="1.5" stroke-width="1" width="576" x="96" y="282" />
<text class="label unused" x="384" y="295">zero clear</text>
<text class="register-name" x="80" y="294">PNd</text>
<text class="intrinsic-name" x="80" y="306">returns</text>
<text class="register-number" x="10" y="294">(3)</text>
</svg>