<svg xmlns="http://www.w3.org/2000/svg" viewBox="0 0 6246 171">
<style>
.label { font: 14px Helvetica; dominant-baseline: middle; text-anchor: middle; }
.title-left { font: 12px Helvetica; dominant-baseline: middle; }
.title-right { font: 12px Helvetica; dominant-baseline: middle; text-anchor: end; }
.title-intrinsic { font: 12px Helvetica; dominant-baseline: middle; text-anchor: middle; fill: #6778ED; }
.title { font: 12px Helvetica; dominant-baseline: middle; text-anchor: middle; }
.title-unused { font: 12px Helvetica; dominant-baseline: middle; text-anchor: middle; fill: #AAA; }
.register-name { font: 14px Helvetica; dominant-baseline: middle; text-anchor: end; font-style: italic; }
.memory-name { font: 14px Helvetica; dominant-baseline: middle; text-anchor: end; }
.register-number { font: 14px Helvetica; dominant-baseline: middle; text-anchor: start; }
.intrinsic-name { font: 14px Helvetica; dominant-baseline: middle; text-anchor: end; fill: #6778ED; }
.intrinsic-color { fill: #6778ED; }
.small-label { font: 12px Helvetica; dominant-baseline: middle; text-anchor: middle; }
.label-10px { font: 10px Helvetica; dominant-baseline: middle; text-anchor: middle; }
.smaller-label { font: 9px Helvetica; dominant-baseline: middle; text-anchor: middle; }
.label-6px { font: 6px Helvetica; dominant-baseline: middle; text-anchor: middle; }
.label-7px { font: 7px Helvetica; dominant-baseline: middle; text-anchor: middle; }
.unused { fill: #AAA; }
.dim { fill: #888; }
</style>
<defs>
<marker id="arrowhead" markerWidth="10.75" markerHeight="24.5" refX="9.0" refY="6.125" orient="auto">
<polyline points="0.5 0.5, 8.75 6.125, 0.5 11.75" stroke="#567DB6" stroke-width="1" fill="none"/>
</marker>
</defs>
<text class="title-left" x="90" y="9">upper</text>
<text class="title-right" x="6234" y="9">lower</text>
<rect fill="#DEE6F1" height="24" width="384" x="5850" y="18" />
<rect fill="none" height="24" stroke="#405C86" stroke-width="2" width="384" x="5850" y="18" />
<text class="label" x="6042" y="31">0</text>
<rect fill="#DEE6F1" height="24" width="384" x="5466" y="18" />
<rect fill="none" height="24" stroke="#405C86" stroke-width="2" width="384" x="5466" y="18" />
<text class="label" x="5658" y="31">1</text>
<rect fill="#DEE6F1" height="24" width="384" x="5082" y="18" />
<rect fill="none" height="24" stroke="#405C86" stroke-width="2" width="384" x="5082" y="18" />
<text class="label" x="5274" y="31">2</text>
<rect fill="#DEE6F1" height="24" width="384" x="4698" y="18" />
<rect fill="none" height="24" stroke="#405C86" stroke-width="2" width="384" x="4698" y="18" />
<text class="label" x="4890" y="31">3</text>
<rect fill="#DEE6F1" height="24" width="384" x="4314" y="18" />
<rect fill="none" height="24" stroke="#405C86" stroke-width="2" width="384" x="4314" y="18" />
<text class="label" x="4506" y="31">4</text>
<rect fill="#DEE6F1" height="24" width="384" x="3930" y="18" />
<rect fill="none" height="24" stroke="#405C86" stroke-width="2" width="384" x="3930" y="18" />
<text class="label" x="4122" y="31">5</text>
<rect fill="#DEE6F1" height="24" width="384" x="3546" y="18" />
<rect fill="none" height="24" stroke="#405C86" stroke-width="2" width="384" x="3546" y="18" />
<text class="label" x="3738" y="31">6</text>
<rect fill="#DEE6F1" height="24" width="384" x="3162" y="18" />
<rect fill="none" height="24" stroke="#405C86" stroke-width="2" width="384" x="3162" y="18" />
<text class="label" x="3354" y="31">7</text>
<rect fill="none" height="24" stroke="#405C86" stroke-dasharray="3 1" stroke-dashoffset="1.5" stroke-width="1" width="3072" x="90" y="18" />
<text class="label unused" x="1626" y="31"></text>
<text class="register-name" x="80" y="30">Zn</text>
<text class="intrinsic-name" x="80" y="42">op1</text>
<text class="register-number" x="10" y="30">(1)</text>
<rect fill="#EEDDDB" height="24" width="384" x="5850" y="66" />
<rect fill="none" height="24" stroke="#405C86" stroke-width="2" width="384" x="5850" y="66" />
<text class="label" x="6042" y="79">0</text>
<rect fill="#EEDDDB" height="24" width="384" x="5466" y="66" />
<rect fill="none" height="24" stroke="#405C86" stroke-width="2" width="384" x="5466" y="66" />
<text class="label" x="5658" y="79">1</text>
<rect fill="#EEDDDB" height="24" width="384" x="5082" y="66" />
<rect fill="none" height="24" stroke="#405C86" stroke-width="2" width="384" x="5082" y="66" />
<text class="label" x="5274" y="79">2</text>
<rect fill="#EEDDDB" height="24" width="384" x="4698" y="66" />
<rect fill="none" height="24" stroke="#405C86" stroke-width="2" width="384" x="4698" y="66" />
<text class="label" x="4890" y="79">3</text>
<rect fill="#EEDDDB" height="24" width="384" x="4314" y="66" />
<rect fill="none" height="24" stroke="#405C86" stroke-width="2" width="384" x="4314" y="66" />
<text class="label" x="4506" y="79">4</text>
<rect fill="#EEDDDB" height="24" width="384" x="3930" y="66" />
<rect fill="none" height="24" stroke="#405C86" stroke-width="2" width="384" x="3930" y="66" />
<text class="label" x="4122" y="79">5</text>
<rect fill="#EEDDDB" height="24" width="384" x="3546" y="66" />
<rect fill="none" height="24" stroke="#405C86" stroke-width="2" width="384" x="3546" y="66" />
<text class="label" x="3738" y="79">6</text>
<rect fill="#EEDDDB" height="24" width="384" x="3162" y="66" />
<rect fill="none" height="24" stroke="#405C86" stroke-width="2" width="384" x="3162" y="66" />
<text class="label" x="3354" y="79">7</text>
<rect fill="none" height="24" stroke="#405C86" stroke-dasharray="3 1" stroke-dashoffset="1.5" stroke-width="1" width="3072" x="90" y="66" />
<text class="label unused" x="1626" y="79"></text>
<text class="register-name" x="80" y="78">Zm</text>
<text class="intrinsic-name" x="80" y="90">op2</text>
<text class="register-number" x="10" y="78">(2)</text>
<rect fill="#DEE6F1" height="24" width="384" x="5850" y="138" />
<rect fill="none" height="24" stroke="#405C86" stroke-width="2" width="384" x="5850" y="138" />
<text class="label" x="6042" y="151">0</text>
<rect fill="#EEDDDB" height="24" width="384" x="5466" y="138" />
<rect fill="none" height="24" stroke="#405C86" stroke-width="2" width="384" x="5466" y="138" />
<text class="label" x="5658" y="151">0</text>
<rect fill="#DEE6F1" height="24" width="384" x="5082" y="138" />
<rect fill="none" height="24" stroke="#405C86" stroke-width="2" width="384" x="5082" y="138" />
<text class="label" x="5274" y="151">1</text>
<rect fill="#EEDDDB" height="24" width="384" x="4698" y="138" />
<rect fill="none" height="24" stroke="#405C86" stroke-width="2" width="384" x="4698" y="138" />
<text class="label" x="4890" y="151">1</text>
<rect fill="#DEE6F1" height="24" width="384" x="4314" y="138" />
<rect fill="none" height="24" stroke="#405C86" stroke-width="2" width="384" x="4314" y="138" />
<text class="label" x="4506" y="151">2</text>
<rect fill="#EEDDDB" height="24" width="384" x="3930" y="138" />
<rect fill="none" height="24" stroke="#405C86" stroke-width="2" width="384" x="3930" y="138" />
<text class="label" x="4122" y="151">2</text>
<rect fill="#DEE6F1" height="24" width="384" x="3546" y="138" />
<rect fill="none" height="24" stroke="#405C86" stroke-width="2" width="384" x="3546" y="138" />
<text class="label" x="3738" y="151">3</text>
<rect fill="#EEDDDB" height="24" width="384" x="3162" y="138" />
<rect fill="none" height="24" stroke="#405C86" stroke-width="2" width="384" x="3162" y="138" />
<text class="label" x="3354" y="151">3</text>
<rect fill="#DEE6F1" height="24" width="384" x="2778" y="138" />
<rect fill="none" height="24" stroke="#405C86" stroke-width="2" width="384" x="2778" y="138" />
<text class="label" x="2970" y="151">4</text>
<rect fill="#EEDDDB" height="24" width="384" x="2394" y="138" />
<rect fill="none" height="24" stroke="#405C86" stroke-width="2" width="384" x="2394" y="138" />
<text class="label" x="2586" y="151">4</text>
<rect fill="#DEE6F1" height="24" width="384" x="2010" y="138" />
<rect fill="none" height="24" stroke="#405C86" stroke-width="2" width="384" x="2010" y="138" />
<text class="label" x="2202" y="151">5</text>
<rect fill="#EEDDDB" height="24" width="384" x="1626" y="138" />
<rect fill="none" height="24" stroke="#405C86" stroke-width="2" width="384" x="1626" y="138" />
<text class="label" x="1818" y="151">5</text>
<rect fill="#DEE6F1" height="24" width="384" x="1242" y="138" />
<rect fill="none" height="24" stroke="#405C86" stroke-width="2" width="384" x="1242" y="138" />
<text class="label" x="1434" y="151">6</text>
<rect fill="#EEDDDB" height="24" width="384" x="858" y="138" />
<rect fill="none" height="24" stroke="#405C86" stroke-width="2" width="384" x="858" y="138" />
<text class="label" x="1050" y="151">6</text>
<rect fill="#DEE6F1" height="24" width="384" x="474" y="138" />
<rect fill="none" height="24" stroke="#405C86" stroke-width="2" width="384" x="474" y="138" />
<text class="label" x="666" y="151">7</text>
<rect fill="#EEDDDB" height="24" width="384" x="90" y="138" />
<rect fill="none" height="24" stroke="#405C86" stroke-width="2" width="384" x="90" y="138" />
<text class="label" x="282" y="151">7</text>
<text class="register-name" x="80" y="150">Zd</text>
<text class="intrinsic-name" x="80" y="162">returns</text>
<text class="register-number" x="10" y="150">(3)</text>
<line stroke="#567DB6" stroke-width="1" x1="6047" x2="6047" y1="42.5" y2="137" />
<line stroke="#567DB6" stroke-width="1" x1="6042" x2="5658" y1="90.5" y2="137" />
<line stroke="#567DB6" stroke-width="1" x1="5658" x2="5274" y1="42.5" y2="137" />
<line stroke="#567DB6" stroke-width="1" x1="5658" x2="4890" y1="90.5" y2="137" />
<line stroke="#567DB6" stroke-width="1" x1="3354" x2="666" y1="42.5" y2="137" />
<line stroke="#567DB6" stroke-width="1" x1="3354" x2="282" y1="90.5" y2="137" />
<line marker-end="url(#arrowhead)" stroke="none" x1="6047" x2="6047" y1="42.5" y2="137" />
<line marker-end="url(#arrowhead)" stroke="none" x1="6042" x2="5658" y1="90.5" y2="137" />
<line marker-end="url(#arrowhead)" stroke="none" x1="5658" x2="5274" y1="42.5" y2="137" />
<line marker-end="url(#arrowhead)" stroke="none" x1="5658" x2="4890" y1="90.5" y2="137" />
<line marker-end="url(#arrowhead)" stroke="none" x1="3354" x2="666" y1="42.5" y2="137" />
<line marker-end="url(#arrowhead)" stroke="none" x1="3354" x2="282" y1="90.5" y2="137" />
</svg>