<svg xmlns="http://www.w3.org/2000/svg" viewBox="0 0 870 171">
<style>
.label { font: 14px Helvetica; dominant-baseline: middle; text-anchor: middle; }
.title-left { font: 12px Helvetica; dominant-baseline: middle; }
.title-right { font: 12px Helvetica; dominant-baseline: middle; text-anchor: end; }
.title-intrinsic { font: 12px Helvetica; dominant-baseline: middle; text-anchor: middle; fill: #6778ED; }
.title { font: 12px Helvetica; dominant-baseline: middle; text-anchor: middle; }
.title-unused { font: 12px Helvetica; dominant-baseline: middle; text-anchor: middle; fill: #AAA; }
.register-name { font: 14px Helvetica; dominant-baseline: middle; text-anchor: end; font-style: italic; }
.memory-name { font: 14px Helvetica; dominant-baseline: middle; text-anchor: end; }
.register-number { font: 14px Helvetica; dominant-baseline: middle; text-anchor: start; }
.intrinsic-name { font: 14px Helvetica; dominant-baseline: middle; text-anchor: end; fill: #6778ED; }
.intrinsic-color { fill: #6778ED; }
.small-label { font: 12px Helvetica; dominant-baseline: middle; text-anchor: middle; }
.label-10px { font: 10px Helvetica; dominant-baseline: middle; text-anchor: middle; }
.smaller-label { font: 9px Helvetica; dominant-baseline: middle; text-anchor: middle; }
.label-6px { font: 6px Helvetica; dominant-baseline: middle; text-anchor: middle; }
.label-7px { font: 7px Helvetica; dominant-baseline: middle; text-anchor: middle; }
.unused { fill: #AAA; }
.dim { fill: #888; }
</style>
<defs>
<marker id="arrowhead" markerWidth="10.75" markerHeight="24.5" refX="9.0" refY="6.125" orient="auto">
<polyline points="0.5 0.5, 8.75 6.125, 0.5 11.75" stroke="#567DB6" stroke-width="1" fill="none"/>
</marker>
</defs>
<text class="title-left" x="90" y="9">upper</text>
<text class="title-right" x="858" y="9">lower</text>
<rect fill="#DEE6F1" height="24" width="24" x="834" y="18" />
<rect fill="none" height="24" stroke="#405C86" stroke-width="2" width="24" x="834" y="18" />
<text class="label" x="846" y="31">0</text>
<rect fill="#DEE6F1" height="24" width="24" x="810" y="18" />
<rect fill="none" height="24" stroke="#405C86" stroke-width="2" width="24" x="810" y="18" />
<text class="label" x="822" y="31">1</text>
<rect fill="#DEE6F1" height="24" width="24" x="786" y="18" />
<rect fill="none" height="24" stroke="#405C86" stroke-width="2" width="24" x="786" y="18" />
<text class="label" x="798" y="31">2</text>
<rect fill="#DEE6F1" height="24" width="24" x="762" y="18" />
<rect fill="none" height="24" stroke="#405C86" stroke-width="2" width="24" x="762" y="18" />
<text class="label" x="774" y="31">3</text>
<rect fill="#DEE6F1" height="24" width="24" x="738" y="18" />
<rect fill="none" height="24" stroke="#405C86" stroke-width="2" width="24" x="738" y="18" />
<text class="label" x="750" y="31">4</text>
<rect fill="#DEE6F1" height="24" width="24" x="714" y="18" />
<rect fill="none" height="24" stroke="#405C86" stroke-width="2" width="24" x="714" y="18" />
<text class="label" x="726" y="31">5</text>
<rect fill="#DEE6F1" height="24" width="24" x="690" y="18" />
<rect fill="none" height="24" stroke="#405C86" stroke-width="2" width="24" x="690" y="18" />
<text class="label" x="702" y="31">6</text>
<rect fill="#DEE6F1" height="24" width="24" x="666" y="18" />
<rect fill="none" height="24" stroke="#405C86" stroke-width="2" width="24" x="666" y="18" />
<text class="label" x="678" y="31">7</text>
<rect fill="#DEE6F1" height="24" width="24" x="642" y="18" />
<rect fill="none" height="24" stroke="#405C86" stroke-width="2" width="24" x="642" y="18" />
<text class="label" x="654" y="31">8</text>
<rect fill="#DEE6F1" height="24" width="24" x="618" y="18" />
<rect fill="none" height="24" stroke="#405C86" stroke-width="2" width="24" x="618" y="18" />
<text class="label" x="630" y="31">9</text>
<rect fill="#DEE6F1" height="24" width="24" x="594" y="18" />
<rect fill="none" height="24" stroke="#405C86" stroke-width="2" width="24" x="594" y="18" />
<text class="label" x="606" y="31">10</text>
<rect fill="#DEE6F1" height="24" width="24" x="570" y="18" />
<rect fill="none" height="24" stroke="#405C86" stroke-width="2" width="24" x="570" y="18" />
<text class="label" x="582" y="31">11</text>
<rect fill="#DEE6F1" height="24" width="24" x="546" y="18" />
<rect fill="none" height="24" stroke="#405C86" stroke-width="2" width="24" x="546" y="18" />
<text class="label" x="558" y="31">12</text>
<rect fill="#DEE6F1" height="24" width="24" x="522" y="18" />
<rect fill="none" height="24" stroke="#405C86" stroke-width="2" width="24" x="522" y="18" />
<text class="label" x="534" y="31">13</text>
<rect fill="#DEE6F1" height="24" width="24" x="498" y="18" />
<rect fill="none" height="24" stroke="#405C86" stroke-width="2" width="24" x="498" y="18" />
<text class="label" x="510" y="31">14</text>
<rect fill="#DEE6F1" height="24" width="24" x="474" y="18" />
<rect fill="none" height="24" stroke="#405C86" stroke-width="2" width="24" x="474" y="18" />
<text class="label" x="486" y="31">15</text>
<rect fill="none" height="24" stroke="#405C86" stroke-dasharray="3 1" stroke-dashoffset="1.5" stroke-width="1" width="384" x="90" y="18" />
<text class="label unused" x="282" y="31"></text>
<text class="register-name" x="80" y="30">Zn</text>
<text class="intrinsic-name" x="80" y="42">op1</text>
<text class="register-number" x="10" y="30">(1)</text>
<rect fill="#EEDDDB" height="24" width="24" x="834" y="66" />
<rect fill="none" height="24" stroke="#405C86" stroke-width="2" width="24" x="834" y="66" />
<text class="label" x="846" y="79">0</text>
<rect fill="#EEDDDB" height="24" width="24" x="810" y="66" />
<rect fill="none" height="24" stroke="#405C86" stroke-width="2" width="24" x="810" y="66" />
<text class="label" x="822" y="79">1</text>
<rect fill="#EEDDDB" height="24" width="24" x="786" y="66" />
<rect fill="none" height="24" stroke="#405C86" stroke-width="2" width="24" x="786" y="66" />
<text class="label" x="798" y="79">2</text>
<rect fill="#EEDDDB" height="24" width="24" x="762" y="66" />
<rect fill="none" height="24" stroke="#405C86" stroke-width="2" width="24" x="762" y="66" />
<text class="label" x="774" y="79">3</text>
<rect fill="#EEDDDB" height="24" width="24" x="738" y="66" />
<rect fill="none" height="24" stroke="#405C86" stroke-width="2" width="24" x="738" y="66" />
<text class="label" x="750" y="79">4</text>
<rect fill="#EEDDDB" height="24" width="24" x="714" y="66" />
<rect fill="none" height="24" stroke="#405C86" stroke-width="2" width="24" x="714" y="66" />
<text class="label" x="726" y="79">5</text>
<rect fill="#EEDDDB" height="24" width="24" x="690" y="66" />
<rect fill="none" height="24" stroke="#405C86" stroke-width="2" width="24" x="690" y="66" />
<text class="label" x="702" y="79">6</text>
<rect fill="#EEDDDB" height="24" width="24" x="666" y="66" />
<rect fill="none" height="24" stroke="#405C86" stroke-width="2" width="24" x="666" y="66" />
<text class="label" x="678" y="79">7</text>
<rect fill="#EEDDDB" height="24" width="24" x="642" y="66" />
<rect fill="none" height="24" stroke="#405C86" stroke-width="2" width="24" x="642" y="66" />
<text class="label" x="654" y="79">8</text>
<rect fill="#EEDDDB" height="24" width="24" x="618" y="66" />
<rect fill="none" height="24" stroke="#405C86" stroke-width="2" width="24" x="618" y="66" />
<text class="label" x="630" y="79">9</text>
<rect fill="#EEDDDB" height="24" width="24" x="594" y="66" />
<rect fill="none" height="24" stroke="#405C86" stroke-width="2" width="24" x="594" y="66" />
<text class="label" x="606" y="79">10</text>
<rect fill="#EEDDDB" height="24" width="24" x="570" y="66" />
<rect fill="none" height="24" stroke="#405C86" stroke-width="2" width="24" x="570" y="66" />
<text class="label" x="582" y="79">11</text>
<rect fill="#EEDDDB" height="24" width="24" x="546" y="66" />
<rect fill="none" height="24" stroke="#405C86" stroke-width="2" width="24" x="546" y="66" />
<text class="label" x="558" y="79">12</text>
<rect fill="#EEDDDB" height="24" width="24" x="522" y="66" />
<rect fill="none" height="24" stroke="#405C86" stroke-width="2" width="24" x="522" y="66" />
<text class="label" x="534" y="79">13</text>
<rect fill="#EEDDDB" height="24" width="24" x="498" y="66" />
<rect fill="none" height="24" stroke="#405C86" stroke-width="2" width="24" x="498" y="66" />
<text class="label" x="510" y="79">14</text>
<rect fill="#EEDDDB" height="24" width="24" x="474" y="66" />
<rect fill="none" height="24" stroke="#405C86" stroke-width="2" width="24" x="474" y="66" />
<text class="label" x="486" y="79">15</text>
<rect fill="none" height="24" stroke="#405C86" stroke-dasharray="3 1" stroke-dashoffset="1.5" stroke-width="1" width="384" x="90" y="66" />
<text class="label unused" x="282" y="79"></text>
<text class="register-name" x="80" y="78">Zm</text>
<text class="intrinsic-name" x="80" y="90">op2</text>
<text class="register-number" x="10" y="78">(2)</text>
<rect fill="#DEE6F1" height="24" width="24" x="834" y="138" />
<rect fill="none" height="24" stroke="#405C86" stroke-width="2" width="24" x="834" y="138" />
<text class="label" x="846" y="151">0</text>
<rect fill="#EEDDDB" height="24" width="24" x="810" y="138" />
<rect fill="none" height="24" stroke="#405C86" stroke-width="2" width="24" x="810" y="138" />
<text class="label" x="822" y="151">0</text>
<rect fill="#DEE6F1" height="24" width="24" x="786" y="138" />
<rect fill="none" height="24" stroke="#405C86" stroke-width="2" width="24" x="786" y="138" />
<text class="label" x="798" y="151">1</text>
<rect fill="#EEDDDB" height="24" width="24" x="762" y="138" />
<rect fill="none" height="24" stroke="#405C86" stroke-width="2" width="24" x="762" y="138" />
<text class="label" x="774" y="151">1</text>
<rect fill="#DEE6F1" height="24" width="24" x="738" y="138" />
<rect fill="none" height="24" stroke="#405C86" stroke-width="2" width="24" x="738" y="138" />
<text class="label" x="750" y="151">2</text>
<rect fill="#EEDDDB" height="24" width="24" x="714" y="138" />
<rect fill="none" height="24" stroke="#405C86" stroke-width="2" width="24" x="714" y="138" />
<text class="label" x="726" y="151">2</text>
<rect fill="#DEE6F1" height="24" width="24" x="690" y="138" />
<rect fill="none" height="24" stroke="#405C86" stroke-width="2" width="24" x="690" y="138" />
<text class="label" x="702" y="151">3</text>
<rect fill="#EEDDDB" height="24" width="24" x="666" y="138" />
<rect fill="none" height="24" stroke="#405C86" stroke-width="2" width="24" x="666" y="138" />
<text class="label" x="678" y="151">3</text>
<rect fill="#DEE6F1" height="24" width="24" x="642" y="138" />
<rect fill="none" height="24" stroke="#405C86" stroke-width="2" width="24" x="642" y="138" />
<text class="label" x="654" y="151">4</text>
<rect fill="#EEDDDB" height="24" width="24" x="618" y="138" />
<rect fill="none" height="24" stroke="#405C86" stroke-width="2" width="24" x="618" y="138" />
<text class="label" x="630" y="151">4</text>
<rect fill="#DEE6F1" height="24" width="24" x="594" y="138" />
<rect fill="none" height="24" stroke="#405C86" stroke-width="2" width="24" x="594" y="138" />
<text class="label" x="606" y="151">5</text>
<rect fill="#EEDDDB" height="24" width="24" x="570" y="138" />
<rect fill="none" height="24" stroke="#405C86" stroke-width="2" width="24" x="570" y="138" />
<text class="label" x="582" y="151">5</text>
<rect fill="#DEE6F1" height="24" width="24" x="546" y="138" />
<rect fill="none" height="24" stroke="#405C86" stroke-width="2" width="24" x="546" y="138" />
<text class="label" x="558" y="151">6</text>
<rect fill="#EEDDDB" height="24" width="24" x="522" y="138" />
<rect fill="none" height="24" stroke="#405C86" stroke-width="2" width="24" x="522" y="138" />
<text class="label" x="534" y="151">6</text>
<rect fill="#DEE6F1" height="24" width="24" x="498" y="138" />
<rect fill="none" height="24" stroke="#405C86" stroke-width="2" width="24" x="498" y="138" />
<text class="label" x="510" y="151">7</text>
<rect fill="#EEDDDB" height="24" width="24" x="474" y="138" />
<rect fill="none" height="24" stroke="#405C86" stroke-width="2" width="24" x="474" y="138" />
<text class="label" x="486" y="151">7</text>
<rect fill="#DEE6F1" height="24" width="24" x="450" y="138" />
<rect fill="none" height="24" stroke="#405C86" stroke-width="2" width="24" x="450" y="138" />
<text class="label" x="462" y="151">8</text>
<rect fill="#EEDDDB" height="24" width="24" x="426" y="138" />
<rect fill="none" height="24" stroke="#405C86" stroke-width="2" width="24" x="426" y="138" />
<text class="label" x="438" y="151">8</text>
<rect fill="#DEE6F1" height="24" width="24" x="402" y="138" />
<rect fill="none" height="24" stroke="#405C86" stroke-width="2" width="24" x="402" y="138" />
<text class="label" x="414" y="151">9</text>
<rect fill="#EEDDDB" height="24" width="24" x="378" y="138" />
<rect fill="none" height="24" stroke="#405C86" stroke-width="2" width="24" x="378" y="138" />
<text class="label" x="390" y="151">9</text>
<rect fill="#DEE6F1" height="24" width="24" x="354" y="138" />
<rect fill="none" height="24" stroke="#405C86" stroke-width="2" width="24" x="354" y="138" />
<text class="label" x="366" y="151">10</text>
<rect fill="#EEDDDB" height="24" width="24" x="330" y="138" />
<rect fill="none" height="24" stroke="#405C86" stroke-width="2" width="24" x="330" y="138" />
<text class="label" x="342" y="151">10</text>
<rect fill="#DEE6F1" height="24" width="24" x="306" y="138" />
<rect fill="none" height="24" stroke="#405C86" stroke-width="2" width="24" x="306" y="138" />
<text class="label" x="318" y="151">11</text>
<rect fill="#EEDDDB" height="24" width="24" x="282" y="138" />
<rect fill="none" height="24" stroke="#405C86" stroke-width="2" width="24" x="282" y="138" />
<text class="label" x="294" y="151">11</text>
<rect fill="#DEE6F1" height="24" width="24" x="258" y="138" />
<rect fill="none" height="24" stroke="#405C86" stroke-width="2" width="24" x="258" y="138" />
<text class="label" x="270" y="151">12</text>
<rect fill="#EEDDDB" height="24" width="24" x="234" y="138" />
<rect fill="none" height="24" stroke="#405C86" stroke-width="2" width="24" x="234" y="138" />
<text class="label" x="246" y="151">12</text>
<rect fill="#DEE6F1" height="24" width="24" x="210" y="138" />
<rect fill="none" height="24" stroke="#405C86" stroke-width="2" width="24" x="210" y="138" />
<text class="label" x="222" y="151">13</text>
<rect fill="#EEDDDB" height="24" width="24" x="186" y="138" />
<rect fill="none" height="24" stroke="#405C86" stroke-width="2" width="24" x="186" y="138" />
<text class="label" x="198" y="151">13</text>
<rect fill="#DEE6F1" height="24" width="24" x="162" y="138" />
<rect fill="none" height="24" stroke="#405C86" stroke-width="2" width="24" x="162" y="138" />
<text class="label" x="174" y="151">14</text>
<rect fill="#EEDDDB" height="24" width="24" x="138" y="138" />
<rect fill="none" height="24" stroke="#405C86" stroke-width="2" width="24" x="138" y="138" />
<text class="label" x="150" y="151">14</text>
<rect fill="#DEE6F1" height="24" width="24" x="114" y="138" />
<rect fill="none" height="24" stroke="#405C86" stroke-width="2" width="24" x="114" y="138" />
<text class="label" x="126" y="151">15</text>
<rect fill="#EEDDDB" height="24" width="24" x="90" y="138" />
<rect fill="none" height="24" stroke="#405C86" stroke-width="2" width="24" x="90" y="138" />
<text class="label" x="102" y="151">15</text>
<text class="register-name" x="80" y="150">Zd</text>
<text class="intrinsic-name" x="80" y="162">returns</text>
<text class="register-number" x="10" y="150">(3)</text>
<line stroke="#567DB6" stroke-width="1" x1="851" x2="851" y1="42.5" y2="137" />
<line stroke="#567DB6" stroke-width="1" x1="846" x2="822" y1="90.5" y2="137" />
<line stroke="#567DB6" stroke-width="1" x1="822" x2="798" y1="42.5" y2="137" />
<line stroke="#567DB6" stroke-width="1" x1="822" x2="774" y1="90.5" y2="137" />
<line stroke="#567DB6" stroke-width="1" x1="486" x2="126" y1="42.5" y2="137" />
<line stroke="#567DB6" stroke-width="1" x1="486" x2="102" y1="90.5" y2="137" />
<line marker-end="url(#arrowhead)" stroke="none" x1="851" x2="851" y1="42.5" y2="137" />
<line marker-end="url(#arrowhead)" stroke="none" x1="846" x2="822" y1="90.5" y2="137" />
<line marker-end="url(#arrowhead)" stroke="none" x1="822" x2="798" y1="42.5" y2="137" />
<line marker-end="url(#arrowhead)" stroke="none" x1="822" x2="774" y1="90.5" y2="137" />
<line marker-end="url(#arrowhead)" stroke="none" x1="486" x2="126" y1="42.5" y2="137" />
<line marker-end="url(#arrowhead)" stroke="none" x1="486" x2="102" y1="90.5" y2="137" />
</svg>